{
  "header": {
    "keySignatures": [
      {
        "key": "C",
        "scale": "major",
        "ticks": 0
      }
    ],
    "meta": [
      {
        "text": "Hiroyuki Sawano",
        "ticks": 0,
        "type": "text"
      }
    ],
    "name": "Vogel im Käfig",
    "ppq": 960,
    "tempos": [
      {
        "bpm": 100,
        "ticks": 0
      },
      {
        "bpm": 100,
        "ticks": 30716
      },
      {
        "bpm": 100,
        "ticks": 63360
      },
      {
        "bpm": 120,
        "ticks": 67196
      },
      {
        "bpm": 120,
        "ticks": 116160
      },
      {
        "bpm": 118.2354540832614,
        "ticks": 116891
      },
      {
        "bpm": 116.47070470599883,
        "ticks": 117623
      },
      {
        "bpm": 114.70608477544373,
        "ticks": 118354
      },
      {
        "bpm": 112.94117647058823,
        "ticks": 119085
      },
      {
        "bpm": 111.17658176481706,
        "ticks": 119816
      },
      {
        "bpm": 109.41178401384424,
        "ticks": 120548
      },
      {
        "bpm": 107.64706832180015,
        "ticks": 121279
      },
      {
        "bpm": 105.88247750879707,
        "ticks": 122010
      },
      {
        "bpm": 104.11768074395553,
        "ticks": 122741
      },
      {
        "bpm": 102.35309771650239,
        "ticks": 123473
      },
      {
        "bpm": 100.58827375433997,
        "ticks": 124204
      },
      {
        "bpm": 98.82366892753261,
        "ticks": 124935
      },
      {
        "bpm": 97.05895198978939,
        "ticks": 125666
      },
      {
        "bpm": 95.29421294127177,
        "ticks": 126398
      },
      {
        "bpm": 93.52947503464488,
        "ticks": 127129
      },
      {
        "bpm": 91.76472747405353,
        "ticks": 127860
      },
      {
        "bpm": 80,
        "ticks": 156480
      }
    ],
    "timeSignatures": [
      {
        "ticks": 0,
        "timeSignature": [
          2,
          2
        ],
        "measures": 0
      },
      {
        "ticks": 57600,
        "timeSignature": [
          6,
          4
        ],
        "measures": 60
      },
      {
        "ticks": 63360,
        "timeSignature": [
          4,
          4
        ],
        "measures": 61
      },
      {
        "ticks": 124800,
        "timeSignature": [
          5,
          4
        ],
        "measures": 77
      },
      {
        "ticks": 129600,
        "timeSignature": [
          4,
          4
        ],
        "measures": 78
      },
      {
        "ticks": 244800,
        "timeSignature": [
          5,
          4
        ],
        "measures": 108
      },
      {
        "ticks": 249600,
        "timeSignature": [
          4,
          4
        ],
        "measures": 109
      },
      {
        "ticks": 257280,
        "timeSignature": [
          17,
          16
        ],
        "measures": 111
      },
      {
        "ticks": 261360,
        "timeSignature": [
          4,
          4
        ],
        "measures": 111.0625
      }
    ]
  },
  "tracks": [
    {
      "channel": 0,
      "controlChanges": {
        "7": [
          {
            "number": 7,
            "ticks": 0,
            "time": 0,
            "value": 0.7874015748031497
          },
          {
            "number": 7,
            "ticks": 0,
            "time": 0,
            "value": 0.7874015748031497
          }
        ],
        "10": [
          {
            "number": 10,
            "ticks": 0,
            "time": 0,
            "value": 0.4015748031496063
          },
          {
            "number": 10,
            "ticks": 0,
            "time": 0,
            "value": 0.4015748031496063
          }
        ],
        "64": [
          {
            "number": 64,
            "ticks": 0,
            "time": 0,
            "value": 0
          },
          {
            "number": 64,
            "ticks": 0,
            "time": 0,
            "value": 0
          }
        ],
        "91": [
          {
            "number": 91,
            "ticks": 0,
            "time": 0,
            "value": 0.3779527559055118
          },
          {
            "number": 91,
            "ticks": 0,
            "time": 0,
            "value": 0.3779527559055118
          }
        ],
        "121": [
          {
            "number": 121,
            "ticks": 0,
            "time": 0,
            "value": 0
          },
          {
            "number": 121,
            "ticks": 0,
            "time": 0,
            "value": 0
          }
        ]
      },
      "pitchBends": [],
      "instrument": {
        "family": "piano",
        "number": 0,
        "name": "acoustic grand piano"
      },
      "name": "Piano",
      "notes": [
        {
          "duration": 3.5999999999999996,
          "durationTicks": 5760,
          "midi": 57,
          "name": "A3",
          "ticks": 0,
          "time": 0,
          "velocity": 0.5196850393700787
        },
        {
          "duration": 3.5999999999999996,
          "durationTicks": 5760,
          "midi": 60,
          "name": "C4",
          "ticks": 0,
          "time": 0,
          "velocity": 0.5196850393700787
        },
        {
          "duration": 3.5999999999999996,
          "durationTicks": 5760,
          "midi": 64,
          "name": "E4",
          "ticks": 0,
          "time": 0,
          "velocity": 0.5196850393700787
        },
        {
          "duration": 3.5999999999999996,
          "durationTicks": 5760,
          "midi": 69,
          "name": "A4",
          "ticks": 0,
          "time": 0,
          "velocity": 0.5196850393700787
        },
        {
          "duration": 3.3,
          "durationTicks": 5280,
          "midi": 41,
          "name": "F2",
          "ticks": 0,
          "time": 0,
          "velocity": 0.5433070866141733
        },
        {
          "duration": 3.2199999999999998,
          "durationTicks": 5152,
          "midi": 48,
          "name": "C3",
          "ticks": 128,
          "time": 0.08,
          "velocity": 0.5433070866141733
        },
        {
          "duration": 3.140625,
          "durationTicks": 5025,
          "midi": 53,
          "name": "F3",
          "ticks": 255,
          "time": 0.159375,
          "velocity": 0.5433070866141733
        },
        {
          "duration": 1.5,
          "durationTicks": 2400,
          "midi": 40,
          "name": "E2",
          "ticks": 5280,
          "time": 3.3,
          "velocity": 0.5039370078740157
        },
        {
          "duration": 1.2000000000000002,
          "durationTicks": 1920,
          "midi": 55,
          "name": "G3",
          "ticks": 5760,
          "time": 3.5999999999999996,
          "velocity": 0.5826771653543307
        },
        {
          "duration": 1.2000000000000002,
          "durationTicks": 1920,
          "midi": 59,
          "name": "B3",
          "ticks": 5760,
          "time": 3.5999999999999996,
          "velocity": 0.5826771653543307
        },
        {
          "duration": 1.2000000000000002,
          "durationTicks": 1920,
          "midi": 62,
          "name": "D4",
          "ticks": 5760,
          "time": 3.5999999999999996,
          "velocity": 0.5826771653543307
        },
        {
          "duration": 1.2000000000000002,
          "durationTicks": 1920,
          "midi": 67,
          "name": "G4",
          "ticks": 5760,
          "time": 3.5999999999999996,
          "velocity": 0.5826771653543307
        },
        {
          "duration": 1.2000000000000002,
          "durationTicks": 1920,
          "midi": 52,
          "name": "E3",
          "ticks": 5760,
          "time": 3.5999999999999996,
          "velocity": 0.5669291338582677
        },
        {
          "duration": 2.3999999999999995,
          "durationTicks": 3840,
          "midi": 57,
          "name": "A3",
          "ticks": 7680,
          "time": 4.8,
          "velocity": 0.6220472440944882
        },
        {
          "duration": 2.3999999999999995,
          "durationTicks": 3840,
          "midi": 62,
          "name": "D4",
          "ticks": 7680,
          "time": 4.8,
          "velocity": 0.6220472440944882
        },
        {
          "duration": 2.3999999999999995,
          "durationTicks": 3840,
          "midi": 64,
          "name": "E4",
          "ticks": 7680,
          "time": 4.8,
          "velocity": 0.6220472440944882
        },
        {
          "duration": 2.3999999999999995,
          "durationTicks": 3840,
          "midi": 69,
          "name": "A4",
          "ticks": 7680,
          "time": 4.8,
          "velocity": 0.6220472440944882
        },
        {
          "duration": 2.3999999999999995,
          "durationTicks": 3840,
          "midi": 45,
          "name": "A2",
          "ticks": 7680,
          "time": 4.8,
          "velocity": 0.6299212598425197
        },
        {
          "duration": 2.3199999999999994,
          "durationTicks": 3712,
          "midi": 50,
          "name": "D3",
          "ticks": 7808,
          "time": 4.88,
          "velocity": 0.6299212598425197
        },
        {
          "duration": 2.2406249999999996,
          "durationTicks": 3585,
          "midi": 52,
          "name": "E3",
          "ticks": 7935,
          "time": 4.959375,
          "velocity": 0.6299212598425197
        },
        {
          "duration": 0.6000000000000005,
          "durationTicks": 960,
          "midi": 57,
          "name": "A3",
          "ticks": 11520,
          "time": 7.199999999999999,
          "velocity": 0.5275590551181102
        },
        {
          "duration": 0.6000000000000005,
          "durationTicks": 960,
          "midi": 60,
          "name": "C4",
          "ticks": 11520,
          "time": 7.199999999999999,
          "velocity": 0.5275590551181102
        },
        {
          "duration": 0.6000000000000005,
          "durationTicks": 960,
          "midi": 64,
          "name": "E4",
          "ticks": 11520,
          "time": 7.199999999999999,
          "velocity": 0.5275590551181102
        },
        {
          "duration": 0.6000000000000005,
          "durationTicks": 960,
          "midi": 52,
          "name": "E3",
          "ticks": 11520,
          "time": 7.199999999999999,
          "velocity": 0.6062992125984252
        },
        {
          "duration": 3.5999999999999996,
          "durationTicks": 5760,
          "midi": 60,
          "name": "C4",
          "ticks": 15360,
          "time": 9.6,
          "velocity": 0.5590551181102362
        },
        {
          "duration": 3.5999999999999996,
          "durationTicks": 5760,
          "midi": 64,
          "name": "E4",
          "ticks": 15360,
          "time": 9.6,
          "velocity": 0.5590551181102362
        },
        {
          "duration": 3.5999999999999996,
          "durationTicks": 5760,
          "midi": 72,
          "name": "C5",
          "ticks": 15360,
          "time": 9.6,
          "velocity": 0.5590551181102362
        },
        {
          "duration": 3.5999999999999996,
          "durationTicks": 5760,
          "midi": 41,
          "name": "F2",
          "ticks": 15360,
          "time": 9.6,
          "velocity": 0.5748031496062992
        },
        {
          "duration": 3.5199999999999996,
          "durationTicks": 5632,
          "midi": 48,
          "name": "C3",
          "ticks": 15488,
          "time": 9.68,
          "velocity": 0.5748031496062992
        },
        {
          "duration": 3.440624999999999,
          "durationTicks": 5505,
          "midi": 57,
          "name": "A3",
          "ticks": 15615,
          "time": 9.759375,
          "velocity": 0.5748031496062992
        },
        {
          "duration": 1.1999999999999993,
          "durationTicks": 1920,
          "midi": 59,
          "name": "B3",
          "ticks": 21120,
          "time": 13.2,
          "velocity": 0.5748031496062992
        },
        {
          "duration": 1.1999999999999993,
          "durationTicks": 1920,
          "midi": 62,
          "name": "D4",
          "ticks": 21120,
          "time": 13.2,
          "velocity": 0.5748031496062992
        },
        {
          "duration": 1.1999999999999993,
          "durationTicks": 1920,
          "midi": 71,
          "name": "B4",
          "ticks": 21120,
          "time": 13.2,
          "velocity": 0.5748031496062992
        },
        {
          "duration": 1.1999999999999993,
          "durationTicks": 1920,
          "midi": 40,
          "name": "E2",
          "ticks": 21120,
          "time": 13.2,
          "velocity": 0.6062992125984252
        },
        {
          "duration": 1.1999999999999993,
          "durationTicks": 1920,
          "midi": 47,
          "name": "B2",
          "ticks": 21120,
          "time": 13.2,
          "velocity": 0.6062992125984252
        },
        {
          "duration": 1.1999999999999993,
          "durationTicks": 1920,
          "midi": 55,
          "name": "G3",
          "ticks": 21120,
          "time": 13.2,
          "velocity": 0.6062992125984252
        },
        {
          "duration": 2.400000000000002,
          "durationTicks": 3840,
          "midi": 57,
          "name": "A3",
          "ticks": 23040,
          "time": 14.399999999999999,
          "velocity": 0.5511811023622047
        },
        {
          "duration": 2.400000000000002,
          "durationTicks": 3840,
          "midi": 62,
          "name": "D4",
          "ticks": 23040,
          "time": 14.399999999999999,
          "velocity": 0.5511811023622047
        },
        {
          "duration": 2.400000000000002,
          "durationTicks": 3840,
          "midi": 64,
          "name": "E4",
          "ticks": 23040,
          "time": 14.399999999999999,
          "velocity": 0.5511811023622047
        },
        {
          "duration": 2.400000000000002,
          "durationTicks": 3840,
          "midi": 69,
          "name": "A4",
          "ticks": 23040,
          "time": 14.399999999999999,
          "velocity": 0.5511811023622047
        },
        {
          "duration": 2.400000000000002,
          "durationTicks": 3840,
          "midi": 45,
          "name": "A2",
          "ticks": 23040,
          "time": 14.399999999999999,
          "velocity": 0.5905511811023622
        },
        {
          "duration": 2.320000000000002,
          "durationTicks": 3712,
          "midi": 50,
          "name": "D3",
          "ticks": 23168,
          "time": 14.479999999999999,
          "velocity": 0.5905511811023622
        },
        {
          "duration": 2.2406250000000014,
          "durationTicks": 3585,
          "midi": 52,
          "name": "E3",
          "ticks": 23295,
          "time": 14.559375,
          "velocity": 0.5905511811023622
        },
        {
          "duration": 0.5999999999999979,
          "durationTicks": 960,
          "midi": 57,
          "name": "A3",
          "ticks": 26880,
          "time": 16.8,
          "velocity": 0.5196850393700787
        },
        {
          "duration": 0.5999999999999979,
          "durationTicks": 960,
          "midi": 60,
          "name": "C4",
          "ticks": 26880,
          "time": 16.8,
          "velocity": 0.5196850393700787
        },
        {
          "duration": 0.5999999999999979,
          "durationTicks": 960,
          "midi": 64,
          "name": "E4",
          "ticks": 26880,
          "time": 16.8,
          "velocity": 0.5196850393700787
        },
        {
          "duration": 0.5999999999999979,
          "durationTicks": 960,
          "midi": 48,
          "name": "C3",
          "ticks": 26880,
          "time": 16.8,
          "velocity": 0.5275590551181102
        },
        {
          "duration": 2.3999999999999986,
          "durationTicks": 3840,
          "midi": 76,
          "name": "E5",
          "ticks": 30720,
          "time": 19.2,
          "velocity": 0.49606299212598426
        },
        {
          "duration": 0.29999999999999716,
          "durationTicks": 480,
          "midi": 41,
          "name": "F2",
          "ticks": 30720,
          "time": 19.2,
          "velocity": 0.5433070866141733
        },
        {
          "duration": 2.3200000000000003,
          "durationTicks": 3712,
          "midi": 81,
          "name": "A5",
          "ticks": 30848,
          "time": 19.279999999999998,
          "velocity": 0.49606299212598426
        },
        {
          "duration": 2.2406250000000014,
          "durationTicks": 3585,
          "midi": 84,
          "name": "C6",
          "ticks": 30975,
          "time": 19.359374999999996,
          "velocity": 0.49606299212598426
        },
        {
          "duration": 2.1606249999999996,
          "durationTicks": 3457,
          "midi": 88,
          "name": "E6",
          "ticks": 31103,
          "time": 19.439375,
          "velocity": 0.49606299212598426
        },
        {
          "duration": 0.3000000000000007,
          "durationTicks": 480,
          "midi": 48,
          "name": "C3",
          "ticks": 31200,
          "time": 19.499999999999996,
          "velocity": 0.6299212598425197
        },
        {
          "duration": 0.3000000000000007,
          "durationTicks": 480,
          "midi": 53,
          "name": "F3",
          "ticks": 31680,
          "time": 19.799999999999997,
          "velocity": 0.6220472440944882
        },
        {
          "duration": 0.3000000000000007,
          "durationTicks": 480,
          "midi": 55,
          "name": "G3",
          "ticks": 32160,
          "time": 20.099999999999998,
          "velocity": 0.6456692913385826
        },
        {
          "duration": 0.3000000000000007,
          "durationTicks": 480,
          "midi": 57,
          "name": "A3",
          "ticks": 32640,
          "time": 20.4,
          "velocity": 0.6062992125984252
        },
        {
          "duration": 0.29999999999999716,
          "durationTicks": 480,
          "midi": 60,
          "name": "C4",
          "ticks": 33120,
          "time": 20.7,
          "velocity": 0.6456692913385826
        },
        {
          "duration": 0.3000000000000007,
          "durationTicks": 480,
          "midi": 65,
          "name": "F4",
          "ticks": 33600,
          "time": 20.999999999999996,
          "velocity": 0.7165354330708661
        },
        {
          "duration": 0.3000000000000007,
          "durationTicks": 480,
          "midi": 69,
          "name": "A4",
          "ticks": 34080,
          "time": 21.299999999999997,
          "velocity": 0.6850393700787402
        },
        {
          "duration": 1.1999999999999993,
          "durationTicks": 1920,
          "midi": 71,
          "name": "B4",
          "ticks": 34560,
          "time": 21.599999999999998,
          "velocity": 0.3937007874015748
        },
        {
          "duration": 0.3000000000000007,
          "durationTicks": 480,
          "midi": 43,
          "name": "G2",
          "ticks": 34560,
          "time": 21.599999999999998,
          "velocity": 0.5511811023622047
        },
        {
          "duration": 0.3000000000000007,
          "durationTicks": 480,
          "midi": 55,
          "name": "G3",
          "ticks": 34560,
          "time": 21.599999999999998,
          "velocity": 0.5511811023622047
        },
        {
          "duration": 0.3000000000000007,
          "durationTicks": 480,
          "midi": 50,
          "name": "D3",
          "ticks": 35040,
          "time": 21.9,
          "velocity": 0.5669291338582677
        },
        {
          "duration": 0.29999999999999716,
          "durationTicks": 480,
          "midi": 55,
          "name": "G3",
          "ticks": 35520,
          "time": 22.2,
          "velocity": 0.6299212598425197
        },
        {
          "duration": 0.3000000000000007,
          "durationTicks": 480,
          "midi": 59,
          "name": "B3",
          "ticks": 36000,
          "time": 22.499999999999996,
          "velocity": 0.6141732283464567
        },
        {
          "duration": 1.1999999999999993,
          "durationTicks": 1920,
          "midi": 74,
          "name": "D5",
          "ticks": 36480,
          "time": 22.799999999999997,
          "velocity": 0.7322834645669292
        },
        {
          "duration": 1.1999999999999993,
          "durationTicks": 1920,
          "midi": 86,
          "name": "D6",
          "ticks": 36480,
          "time": 22.799999999999997,
          "velocity": 0.7322834645669292
        },
        {
          "duration": 0.3000000000000007,
          "durationTicks": 480,
          "midi": 62,
          "name": "D4",
          "ticks": 36480,
          "time": 22.799999999999997,
          "velocity": 0.6692913385826772
        },
        {
          "duration": 0.3000000000000007,
          "durationTicks": 480,
          "midi": 67,
          "name": "G4",
          "ticks": 36960,
          "time": 23.099999999999998,
          "velocity": 0.7086614173228346
        },
        {
          "duration": 0.29999999999999716,
          "durationTicks": 480,
          "midi": 62,
          "name": "D4",
          "ticks": 37440,
          "time": 23.4,
          "velocity": 0.5118110236220472
        },
        {
          "duration": 0.3000000000000007,
          "durationTicks": 480,
          "midi": 55,
          "name": "G3",
          "ticks": 37920,
          "time": 23.699999999999996,
          "velocity": 0.5748031496062992
        },
        {
          "duration": 2.400000000000002,
          "durationTicks": 3840,
          "midi": 72,
          "name": "C5",
          "ticks": 38400,
          "time": 23.999999999999996,
          "velocity": 0.5984251968503937
        },
        {
          "duration": 0.3000000000000007,
          "durationTicks": 480,
          "midi": 45,
          "name": "A2",
          "ticks": 38400,
          "time": 23.999999999999996,
          "velocity": 0.5039370078740157
        },
        {
          "duration": 2.3200000000000003,
          "durationTicks": 3712,
          "midi": 76,
          "name": "E5",
          "ticks": 38528,
          "time": 24.08,
          "velocity": 0.5984251968503937
        },
        {
          "duration": 2.2406250000000014,
          "durationTicks": 3585,
          "midi": 79,
          "name": "G5",
          "ticks": 38655,
          "time": 24.159374999999997,
          "velocity": 0.5984251968503937
        },
        {
          "duration": 2.160625000000003,
          "durationTicks": 3457,
          "midi": 84,
          "name": "C6",
          "ticks": 38783,
          "time": 24.239374999999995,
          "velocity": 0.5984251968503937
        },
        {
          "duration": 0.3000000000000007,
          "durationTicks": 480,
          "midi": 52,
          "name": "E3",
          "ticks": 38880,
          "time": 24.299999999999997,
          "velocity": 0.6850393700787402
        },
        {
          "duration": 0.3000000000000007,
          "durationTicks": 480,
          "midi": 57,
          "name": "A3",
          "ticks": 39360,
          "time": 24.599999999999998,
          "velocity": 0.6299212598425197
        },
        {
          "duration": 0.29999999999999716,
          "durationTicks": 480,
          "midi": 59,
          "name": "B3",
          "ticks": 39840,
          "time": 24.9,
          "velocity": 0.6456692913385826
        },
        {
          "duration": 0.3000000000000007,
          "durationTicks": 480,
          "midi": 60,
          "name": "C4",
          "ticks": 40320,
          "time": 25.199999999999996,
          "velocity": 0.6299212598425197
        },
        {
          "duration": 0.3000000000000007,
          "durationTicks": 480,
          "midi": 64,
          "name": "E4",
          "ticks": 40800,
          "time": 25.499999999999996,
          "velocity": 0.6614173228346457
        },
        {
          "duration": 0.3000000000000007,
          "durationTicks": 480,
          "midi": 69,
          "name": "A4",
          "ticks": 41280,
          "time": 25.799999999999997,
          "velocity": 0.6692913385826772
        },
        {
          "duration": 0.3000000000000007,
          "durationTicks": 480,
          "midi": 71,
          "name": "B4",
          "ticks": 41760,
          "time": 26.099999999999998,
          "velocity": 0.6456692913385826
        },
        {
          "duration": 1.1999999999999993,
          "durationTicks": 1920,
          "midi": 72,
          "name": "C5",
          "ticks": 42240,
          "time": 26.4,
          "velocity": 0.5984251968503937
        },
        {
          "duration": 1.1999999999999993,
          "durationTicks": 1920,
          "midi": 84,
          "name": "C6",
          "ticks": 42240,
          "time": 26.4,
          "velocity": 0.5984251968503937
        },
        {
          "duration": 1.1999999999999993,
          "durationTicks": 1920,
          "midi": 71,
          "name": "B4",
          "ticks": 44160,
          "time": 27.599999999999998,
          "velocity": 0.5826771653543307
        },
        {
          "duration": 1.1999999999999993,
          "durationTicks": 1920,
          "midi": 83,
          "name": "B5",
          "ticks": 44160,
          "time": 27.599999999999998,
          "velocity": 0.5826771653543307
        },
        {
          "duration": 0.5999999999999979,
          "durationTicks": 960,
          "midi": 55,
          "name": "G3",
          "ticks": 44160,
          "time": 27.599999999999998,
          "velocity": 0.5669291338582677
        },
        {
          "duration": 0.6000000000000014,
          "durationTicks": 960,
          "midi": 43,
          "name": "G2",
          "ticks": 45120,
          "time": 28.199999999999996,
          "velocity": 0.48031496062992124
        },
        {
          "duration": 1.2000000000000028,
          "durationTicks": 1920,
          "midi": 72,
          "name": "C5",
          "ticks": 46080,
          "time": 28.799999999999997,
          "velocity": 0.6377952755905512
        },
        {
          "duration": 1.2000000000000028,
          "durationTicks": 1920,
          "midi": 79,
          "name": "G5",
          "ticks": 46080,
          "time": 28.799999999999997,
          "velocity": 0.6377952755905512
        },
        {
          "duration": 1.2000000000000028,
          "durationTicks": 1920,
          "midi": 84,
          "name": "C6",
          "ticks": 46080,
          "time": 28.799999999999997,
          "velocity": 0.6377952755905512
        },
        {
          "duration": 0.3000000000000007,
          "durationTicks": 480,
          "midi": 41,
          "name": "F2",
          "ticks": 46080,
          "time": 28.799999999999997,
          "velocity": 0.5590551181102362
        },
        {
          "duration": 0.3000000000000007,
          "durationTicks": 480,
          "midi": 53,
          "name": "F3",
          "ticks": 46560,
          "time": 29.099999999999998,
          "velocity": 0.7007874015748031
        },
        {
          "duration": 0.29999999999999716,
          "durationTicks": 480,
          "midi": 57,
          "name": "A3",
          "ticks": 47040,
          "time": 29.4,
          "velocity": 0.6614173228346457
        },
        {
          "duration": 0.30000000000000426,
          "durationTicks": 480,
          "midi": 60,
          "name": "C4",
          "ticks": 47520,
          "time": 29.699999999999996,
          "velocity": 0.6771653543307087
        },
        {
          "duration": 1.1999999999999957,
          "durationTicks": 1920,
          "midi": 79,
          "name": "G5",
          "ticks": 48000,
          "time": 30,
          "velocity": 0.7165354330708661
        },
        {
          "duration": 1.1999999999999957,
          "durationTicks": 1920,
          "midi": 81,
          "name": "A5",
          "ticks": 48000,
          "time": 30,
          "velocity": 0.7165354330708661
        },
        {
          "duration": 1.1999999999999957,
          "durationTicks": 1920,
          "midi": 84,
          "name": "C6",
          "ticks": 48000,
          "time": 30,
          "velocity": 0.7165354330708661
        },
        {
          "duration": 1.1999999999999957,
          "durationTicks": 1920,
          "midi": 91,
          "name": "G6",
          "ticks": 48000,
          "time": 30,
          "velocity": 0.7165354330708661
        },
        {
          "duration": 0.29999999999999716,
          "durationTicks": 480,
          "midi": 53,
          "name": "F3",
          "ticks": 48000,
          "time": 30,
          "velocity": 0.5590551181102362
        },
        {
          "duration": 0.3000000000000007,
          "durationTicks": 480,
          "midi": 67,
          "name": "G4",
          "ticks": 48480,
          "time": 30.299999999999997,
          "velocity": 0.7480314960629921
        },
        {
          "duration": 0.3000000000000007,
          "durationTicks": 480,
          "midi": 60,
          "name": "C4",
          "ticks": 48960,
          "time": 30.599999999999998,
          "velocity": 0.49606299212598426
        },
        {
          "duration": 0.29999999999999716,
          "durationTicks": 480,
          "midi": 57,
          "name": "A3",
          "ticks": 49440,
          "time": 30.9,
          "velocity": 0.5433070866141733
        },
        {
          "duration": 0.30000000000000426,
          "durationTicks": 480,
          "midi": 43,
          "name": "G2",
          "ticks": 49920,
          "time": 31.199999999999996,
          "velocity": 0.5275590551181102
        },
        {
          "duration": 0.29999999999999716,
          "durationTicks": 480,
          "midi": 55,
          "name": "G3",
          "ticks": 50400,
          "time": 31.5,
          "velocity": 0.6614173228346457
        },
        {
          "duration": 0.29999999999999716,
          "durationTicks": 480,
          "midi": 59,
          "name": "B3",
          "ticks": 50880,
          "time": 31.799999999999997,
          "velocity": 0.6377952755905512
        },
        {
          "duration": 0.30000000000000426,
          "durationTicks": 480,
          "midi": 62,
          "name": "D4",
          "ticks": 51360,
          "time": 32.099999999999994,
          "velocity": 0.6456692913385826
        },
        {
          "duration": 1.1999999999999957,
          "durationTicks": 1920,
          "midi": 72,
          "name": "C5",
          "ticks": 51840,
          "time": 32.4,
          "velocity": 0.5590551181102362
        },
        {
          "duration": 1.1999999999999957,
          "durationTicks": 1920,
          "midi": 84,
          "name": "C6",
          "ticks": 51840,
          "time": 32.4,
          "velocity": 0.5590551181102362
        },
        {
          "duration": 1.1999999999999957,
          "durationTicks": 1920,
          "midi": 67,
          "name": "G4",
          "ticks": 51840,
          "time": 32.4,
          "velocity": 0.7086614173228346
        },
        {
          "duration": 2.4000000000000057,
          "durationTicks": 3840,
          "midi": 71,
          "name": "B4",
          "ticks": 53760,
          "time": 33.599999999999994,
          "velocity": 0.5826771653543307
        },
        {
          "duration": 0.30000000000000426,
          "durationTicks": 480,
          "midi": 45,
          "name": "A2",
          "ticks": 53760,
          "time": 33.599999999999994,
          "velocity": 0.5669291338582677
        },
        {
          "duration": 2.3200000000000074,
          "durationTicks": 3712,
          "midi": 72,
          "name": "C5",
          "ticks": 53888,
          "time": 33.67999999999999,
          "velocity": 0.5826771653543307
        },
        {
          "duration": 2.2406250000000014,
          "durationTicks": 3585,
          "midi": 76,
          "name": "E5",
          "ticks": 54015,
          "time": 33.759375,
          "velocity": 0.5826771653543307
        },
        {
          "duration": 2.160625000000003,
          "durationTicks": 3457,
          "midi": 83,
          "name": "B5",
          "ticks": 54143,
          "time": 33.839375,
          "velocity": 0.5826771653543307
        },
        {
          "duration": 0.29999999999999716,
          "durationTicks": 480,
          "midi": 52,
          "name": "E3",
          "ticks": 54240,
          "time": 33.9,
          "velocity": 0.6141732283464567
        },
        {
          "duration": 0.30000000000000426,
          "durationTicks": 480,
          "midi": 57,
          "name": "A3",
          "ticks": 54720,
          "time": 34.199999999999996,
          "velocity": 0.6614173228346457
        },
        {
          "duration": 0.29999999999999716,
          "durationTicks": 480,
          "midi": 59,
          "name": "B3",
          "ticks": 55200,
          "time": 34.5,
          "velocity": 0.6299212598425197
        },
        {
          "duration": 0.29999999999999716,
          "durationTicks": 480,
          "midi": 60,
          "name": "C4",
          "ticks": 55680,
          "time": 34.8,
          "velocity": 0.5984251968503937
        },
        {
          "duration": 0.30000000000000426,
          "durationTicks": 480,
          "midi": 64,
          "name": "E4",
          "ticks": 56160,
          "time": 35.099999999999994,
          "velocity": 0.6929133858267716
        },
        {
          "duration": 0.29999999999999716,
          "durationTicks": 480,
          "midi": 69,
          "name": "A4",
          "ticks": 56640,
          "time": 35.4,
          "velocity": 0.5354330708661418
        },
        {
          "duration": 0.30000000000000426,
          "durationTicks": 480,
          "midi": 71,
          "name": "B4",
          "ticks": 57120,
          "time": 35.699999999999996,
          "velocity": 0.6141732283464567
        },
        {
          "duration": 3.5999999999999943,
          "durationTicks": 5760,
          "midi": 72,
          "name": "C5",
          "ticks": 57600,
          "time": 36,
          "velocity": 0.4566929133858268
        },
        {
          "duration": 0.5999999999999943,
          "durationTicks": 960,
          "midi": 60,
          "name": "C4",
          "ticks": 65280,
          "time": 40.8,
          "velocity": 0.5433070866141733
        },
        {
          "duration": 0.5999999999999943,
          "durationTicks": 960,
          "midi": 72,
          "name": "C5",
          "ticks": 65280,
          "time": 40.8,
          "velocity": 0.5433070866141733
        },
        {
          "duration": 0.5995833333333351,
          "durationTicks": 960,
          "midi": 67,
          "name": "G4",
          "ticks": 66240,
          "time": 41.39999999999999,
          "velocity": 0.7244094488188977
        },
        {
          "duration": 0.5995833333333351,
          "durationTicks": 960,
          "midi": 79,
          "name": "G5",
          "ticks": 66240,
          "time": 41.39999999999999,
          "velocity": 0.7244094488188977
        },
        {
          "duration": 0.5,
          "durationTicks": 960,
          "midi": 72,
          "name": "C5",
          "ticks": 67200,
          "time": 41.99958333333333,
          "velocity": 0.6929133858267716
        },
        {
          "duration": 0.5,
          "durationTicks": 960,
          "midi": 79,
          "name": "G5",
          "ticks": 67200,
          "time": 41.99958333333333,
          "velocity": 0.6929133858267716
        },
        {
          "duration": 0.5,
          "durationTicks": 960,
          "midi": 84,
          "name": "C6",
          "ticks": 67200,
          "time": 41.99958333333333,
          "velocity": 0.6929133858267716
        },
        {
          "duration": 0.25,
          "durationTicks": 480,
          "midi": 41,
          "name": "F2",
          "ticks": 67200,
          "time": 41.99958333333333,
          "velocity": 0.5118110236220472
        },
        {
          "duration": 0.25,
          "durationTicks": 480,
          "midi": 48,
          "name": "C3",
          "ticks": 67680,
          "time": 42.24958333333333,
          "velocity": 0.6535433070866141
        },
        {
          "duration": 0.25,
          "durationTicks": 480,
          "midi": 67,
          "name": "G4",
          "ticks": 68160,
          "time": 42.49958333333333,
          "velocity": 0.5196850393700787
        },
        {
          "duration": 0.25,
          "durationTicks": 480,
          "midi": 79,
          "name": "G5",
          "ticks": 68160,
          "time": 42.49958333333333,
          "velocity": 0.5196850393700787
        },
        {
          "duration": 0.25,
          "durationTicks": 480,
          "midi": 53,
          "name": "F3",
          "ticks": 68160,
          "time": 42.49958333333333,
          "velocity": 0.6220472440944882
        },
        {
          "duration": 1.25,
          "durationTicks": 2400,
          "midi": 67,
          "name": "G4",
          "ticks": 68640,
          "time": 42.74958333333333,
          "velocity": 0.5826771653543307
        },
        {
          "duration": 1.25,
          "durationTicks": 2400,
          "midi": 69,
          "name": "A4",
          "ticks": 68640,
          "time": 42.74958333333333,
          "velocity": 0.5826771653543307
        },
        {
          "duration": 1.25,
          "durationTicks": 2400,
          "midi": 79,
          "name": "G5",
          "ticks": 68640,
          "time": 42.74958333333333,
          "velocity": 0.5826771653543307
        },
        {
          "duration": 0.25,
          "durationTicks": 480,
          "midi": 57,
          "name": "A3",
          "ticks": 68640,
          "time": 42.74958333333333,
          "velocity": 0.6456692913385826
        },
        {
          "duration": 0.25,
          "durationTicks": 480,
          "midi": 60,
          "name": "C4",
          "ticks": 69120,
          "time": 42.99958333333333,
          "velocity": 0.6771653543307087
        },
        {
          "duration": 0.25,
          "durationTicks": 480,
          "midi": 65,
          "name": "F4",
          "ticks": 69600,
          "time": 43.24958333333333,
          "velocity": 0.7165354330708661
        },
        {
          "duration": 0.25,
          "durationTicks": 480,
          "midi": 60,
          "name": "C4",
          "ticks": 70080,
          "time": 43.49958333333333,
          "velocity": 0.5354330708661418
        },
        {
          "duration": 0.25,
          "durationTicks": 480,
          "midi": 53,
          "name": "F3",
          "ticks": 70560,
          "time": 43.74958333333333,
          "velocity": 0.5118110236220472
        },
        {
          "duration": 0.25,
          "durationTicks": 480,
          "midi": 43,
          "name": "G2",
          "ticks": 71040,
          "time": 43.99958333333333,
          "velocity": 0.5511811023622047
        },
        {
          "duration": 0.25,
          "durationTicks": 480,
          "midi": 50,
          "name": "D3",
          "ticks": 71520,
          "time": 44.24958333333333,
          "velocity": 0.6456692913385826
        },
        {
          "duration": 0.25,
          "durationTicks": 480,
          "midi": 55,
          "name": "G3",
          "ticks": 72000,
          "time": 44.49958333333333,
          "velocity": 0.6535433070866141
        },
        {
          "duration": 0.25,
          "durationTicks": 480,
          "midi": 50,
          "name": "D3",
          "ticks": 72480,
          "time": 44.74958333333333,
          "velocity": 0.5669291338582677
        },
        {
          "duration": 0.5,
          "durationTicks": 960,
          "midi": 60,
          "name": "C4",
          "ticks": 72960,
          "time": 44.99958333333333,
          "velocity": 0.5433070866141733
        },
        {
          "duration": 0.5,
          "durationTicks": 960,
          "midi": 72,
          "name": "C5",
          "ticks": 72960,
          "time": 44.99958333333333,
          "velocity": 0.5433070866141733
        },
        {
          "duration": 0.25,
          "durationTicks": 480,
          "midi": 43,
          "name": "G2",
          "ticks": 72960,
          "time": 44.99958333333333,
          "velocity": 0.5275590551181102
        },
        {
          "duration": 0.25,
          "durationTicks": 480,
          "midi": 50,
          "name": "D3",
          "ticks": 73440,
          "time": 45.24958333333333,
          "velocity": 0.6299212598425197
        },
        {
          "duration": 0.5,
          "durationTicks": 960,
          "midi": 67,
          "name": "G4",
          "ticks": 73920,
          "time": 45.49958333333333,
          "velocity": 0.7086614173228346
        },
        {
          "duration": 0.5,
          "durationTicks": 960,
          "midi": 79,
          "name": "G5",
          "ticks": 73920,
          "time": 45.49958333333333,
          "velocity": 0.7086614173228346
        },
        {
          "duration": 0.25,
          "durationTicks": 480,
          "midi": 55,
          "name": "G3",
          "ticks": 73920,
          "time": 45.49958333333333,
          "velocity": 0.6220472440944882
        },
        {
          "duration": 0.25,
          "durationTicks": 480,
          "midi": 50,
          "name": "D3",
          "ticks": 74400,
          "time": 45.74958333333333,
          "velocity": 0.5433070866141733
        },
        {
          "duration": 0.5,
          "durationTicks": 960,
          "midi": 72,
          "name": "C5",
          "ticks": 74880,
          "time": 45.99958333333333,
          "velocity": 0.6850393700787402
        },
        {
          "duration": 0.5,
          "durationTicks": 960,
          "midi": 76,
          "name": "E5",
          "ticks": 74880,
          "time": 45.99958333333333,
          "velocity": 0.6850393700787402
        },
        {
          "duration": 0.5,
          "durationTicks": 960,
          "midi": 79,
          "name": "G5",
          "ticks": 74880,
          "time": 45.99958333333333,
          "velocity": 0.6850393700787402
        },
        {
          "duration": 0.5,
          "durationTicks": 960,
          "midi": 84,
          "name": "C6",
          "ticks": 74880,
          "time": 45.99958333333333,
          "velocity": 0.6850393700787402
        },
        {
          "duration": 0.25,
          "durationTicks": 480,
          "midi": 45,
          "name": "A2",
          "ticks": 74880,
          "time": 45.99958333333333,
          "velocity": 0.5354330708661418
        },
        {
          "duration": 0.25,
          "durationTicks": 480,
          "midi": 52,
          "name": "E3",
          "ticks": 75360,
          "time": 46.24958333333333,
          "velocity": 0.6456692913385826
        },
        {
          "duration": 0.25,
          "durationTicks": 480,
          "midi": 71,
          "name": "B4",
          "ticks": 75840,
          "time": 46.49958333333333,
          "velocity": 0.5748031496062992
        },
        {
          "duration": 0.25,
          "durationTicks": 480,
          "midi": 76,
          "name": "E5",
          "ticks": 75840,
          "time": 46.49958333333333,
          "velocity": 0.5748031496062992
        },
        {
          "duration": 0.25,
          "durationTicks": 480,
          "midi": 79,
          "name": "G5",
          "ticks": 75840,
          "time": 46.49958333333333,
          "velocity": 0.5748031496062992
        },
        {
          "duration": 0.25,
          "durationTicks": 480,
          "midi": 83,
          "name": "B5",
          "ticks": 75840,
          "time": 46.49958333333333,
          "velocity": 0.5748031496062992
        },
        {
          "duration": 0.25,
          "durationTicks": 480,
          "midi": 57,
          "name": "A3",
          "ticks": 75840,
          "time": 46.49958333333333,
          "velocity": 0.6220472440944882
        },
        {
          "duration": 0.75,
          "durationTicks": 1440,
          "midi": 72,
          "name": "C5",
          "ticks": 76320,
          "time": 46.74958333333333,
          "velocity": 0.6299212598425197
        },
        {
          "duration": 0.75,
          "durationTicks": 1440,
          "midi": 76,
          "name": "E5",
          "ticks": 76320,
          "time": 46.74958333333333,
          "velocity": 0.6299212598425197
        },
        {
          "duration": 0.75,
          "durationTicks": 1440,
          "midi": 79,
          "name": "G5",
          "ticks": 76320,
          "time": 46.74958333333333,
          "velocity": 0.6299212598425197
        },
        {
          "duration": 0.75,
          "durationTicks": 1440,
          "midi": 84,
          "name": "C6",
          "ticks": 76320,
          "time": 46.74958333333333,
          "velocity": 0.6299212598425197
        },
        {
          "duration": 0.25,
          "durationTicks": 480,
          "midi": 60,
          "name": "C4",
          "ticks": 76320,
          "time": 46.74958333333333,
          "velocity": 0.6535433070866141
        },
        {
          "duration": 0.25,
          "durationTicks": 480,
          "midi": 64,
          "name": "E4",
          "ticks": 76800,
          "time": 46.99958333333333,
          "velocity": 0.6929133858267716
        },
        {
          "duration": 0.25,
          "durationTicks": 480,
          "midi": 57,
          "name": "A3",
          "ticks": 77280,
          "time": 47.24958333333333,
          "velocity": 0.5590551181102362
        },
        {
          "duration": 0.25,
          "durationTicks": 480,
          "midi": 74,
          "name": "D5",
          "ticks": 77760,
          "time": 47.49958333333333,
          "velocity": 0.6220472440944882
        },
        {
          "duration": 0.25,
          "durationTicks": 480,
          "midi": 76,
          "name": "E5",
          "ticks": 77760,
          "time": 47.49958333333333,
          "velocity": 0.6220472440944882
        },
        {
          "duration": 0.25,
          "durationTicks": 480,
          "midi": 79,
          "name": "G5",
          "ticks": 77760,
          "time": 47.49958333333333,
          "velocity": 0.6220472440944882
        },
        {
          "duration": 0.25,
          "durationTicks": 480,
          "midi": 86,
          "name": "D6",
          "ticks": 77760,
          "time": 47.49958333333333,
          "velocity": 0.6220472440944882
        },
        {
          "duration": 0.25,
          "durationTicks": 480,
          "midi": 60,
          "name": "C4",
          "ticks": 77760,
          "time": 47.49958333333333,
          "velocity": 0.6377952755905512
        },
        {
          "duration": 0.75,
          "durationTicks": 1440,
          "midi": 72,
          "name": "C5",
          "ticks": 78240,
          "time": 47.74958333333333,
          "velocity": 0.5354330708661418
        },
        {
          "duration": 0.75,
          "durationTicks": 1440,
          "midi": 76,
          "name": "E5",
          "ticks": 78240,
          "time": 47.74958333333333,
          "velocity": 0.5354330708661418
        },
        {
          "duration": 0.75,
          "durationTicks": 1440,
          "midi": 79,
          "name": "G5",
          "ticks": 78240,
          "time": 47.74958333333333,
          "velocity": 0.5354330708661418
        },
        {
          "duration": 0.75,
          "durationTicks": 1440,
          "midi": 84,
          "name": "C6",
          "ticks": 78240,
          "time": 47.74958333333333,
          "velocity": 0.5354330708661418
        },
        {
          "duration": 0.25,
          "durationTicks": 480,
          "midi": 64,
          "name": "E4",
          "ticks": 78240,
          "time": 47.74958333333333,
          "velocity": 0.6456692913385826
        },
        {
          "duration": 0.25,
          "durationTicks": 480,
          "midi": 69,
          "name": "A4",
          "ticks": 78720,
          "time": 47.99958333333333,
          "velocity": 0.6929133858267716
        },
        {
          "duration": 0.25,
          "durationTicks": 480,
          "midi": 64,
          "name": "E4",
          "ticks": 79200,
          "time": 48.24958333333333,
          "velocity": 0.49606299212598426
        },
        {
          "duration": 0.25,
          "durationTicks": 480,
          "midi": 60,
          "name": "C4",
          "ticks": 79680,
          "time": 48.49958333333333,
          "velocity": 0.48031496062992124
        },
        {
          "duration": 0.25,
          "durationTicks": 480,
          "midi": 57,
          "name": "A3",
          "ticks": 80160,
          "time": 48.74958333333333,
          "velocity": 0.5984251968503937
        },
        {
          "duration": 0.5,
          "durationTicks": 960,
          "midi": 60,
          "name": "C4",
          "ticks": 80640,
          "time": 48.99958333333333,
          "velocity": 0.5433070866141733
        },
        {
          "duration": 0.5,
          "durationTicks": 960,
          "midi": 72,
          "name": "C5",
          "ticks": 80640,
          "time": 48.99958333333333,
          "velocity": 0.5433070866141733
        },
        {
          "duration": 0.25,
          "durationTicks": 480,
          "midi": 52,
          "name": "E3",
          "ticks": 80640,
          "time": 48.99958333333333,
          "velocity": 0.5196850393700787
        },
        {
          "duration": 0.25,
          "durationTicks": 480,
          "midi": 45,
          "name": "A2",
          "ticks": 81120,
          "time": 49.24958333333333,
          "velocity": 0.5511811023622047
        },
        {
          "duration": 0.5,
          "durationTicks": 960,
          "midi": 67,
          "name": "G4",
          "ticks": 81600,
          "time": 49.49958333333333,
          "velocity": 0.7007874015748031
        },
        {
          "duration": 0.5,
          "durationTicks": 960,
          "midi": 79,
          "name": "G5",
          "ticks": 81600,
          "time": 49.49958333333333,
          "velocity": 0.7007874015748031
        },
        {
          "duration": 0.25,
          "durationTicks": 480,
          "midi": 52,
          "name": "E3",
          "ticks": 81600,
          "time": 49.49958333333333,
          "velocity": 0.6614173228346457
        },
        {
          "duration": 0.25,
          "durationTicks": 480,
          "midi": 43,
          "name": "G2",
          "ticks": 82080,
          "time": 49.74958333333333,
          "velocity": 0.5433070866141733
        },
        {
          "duration": 0.5,
          "durationTicks": 960,
          "midi": 72,
          "name": "C5",
          "ticks": 82560,
          "time": 49.99958333333333,
          "velocity": 0.6692913385826772
        },
        {
          "duration": 0.5,
          "durationTicks": 960,
          "midi": 77,
          "name": "F5",
          "ticks": 82560,
          "time": 49.99958333333333,
          "velocity": 0.6692913385826772
        },
        {
          "duration": 0.5,
          "durationTicks": 960,
          "midi": 81,
          "name": "A5",
          "ticks": 82560,
          "time": 49.99958333333333,
          "velocity": 0.6692913385826772
        },
        {
          "duration": 0.5,
          "durationTicks": 960,
          "midi": 84,
          "name": "C6",
          "ticks": 82560,
          "time": 49.99958333333333,
          "velocity": 0.6692913385826772
        },
        {
          "duration": 0.25,
          "durationTicks": 480,
          "midi": 41,
          "name": "F2",
          "ticks": 82560,
          "time": 49.99958333333333,
          "velocity": 0.5826771653543307
        },
        {
          "duration": 0.25,
          "durationTicks": 480,
          "midi": 48,
          "name": "C3",
          "ticks": 83040,
          "time": 50.24958333333333,
          "velocity": 0.6850393700787402
        },
        {
          "duration": 0.25,
          "durationTicks": 480,
          "midi": 67,
          "name": "G4",
          "ticks": 83520,
          "time": 50.49958333333333,
          "velocity": 0.5433070866141733
        },
        {
          "duration": 0.25,
          "durationTicks": 480,
          "midi": 79,
          "name": "G5",
          "ticks": 83520,
          "time": 50.49958333333333,
          "velocity": 0.5433070866141733
        },
        {
          "duration": 0.25,
          "durationTicks": 480,
          "midi": 53,
          "name": "F3",
          "ticks": 83520,
          "time": 50.49958333333333,
          "velocity": 0.6535433070866141
        },
        {
          "duration": 0.75,
          "durationTicks": 1440,
          "midi": 67,
          "name": "G4",
          "ticks": 84000,
          "time": 50.74958333333333,
          "velocity": 0.5433070866141733
        },
        {
          "duration": 0.75,
          "durationTicks": 1440,
          "midi": 69,
          "name": "A4",
          "ticks": 84000,
          "time": 50.74958333333333,
          "velocity": 0.5433070866141733
        },
        {
          "duration": 0.75,
          "durationTicks": 1440,
          "midi": 79,
          "name": "G5",
          "ticks": 84000,
          "time": 50.74958333333333,
          "velocity": 0.5433070866141733
        },
        {
          "duration": 0.25,
          "durationTicks": 480,
          "midi": 57,
          "name": "A3",
          "ticks": 84000,
          "time": 50.74958333333333,
          "velocity": 0.6377952755905512
        },
        {
          "duration": 0.25,
          "durationTicks": 480,
          "midi": 60,
          "name": "C4",
          "ticks": 84480,
          "time": 50.99958333333333,
          "velocity": 0.6614173228346457
        },
        {
          "duration": 0.25,
          "durationTicks": 480,
          "midi": 65,
          "name": "F4",
          "ticks": 84960,
          "time": 51.24958333333333,
          "velocity": 0.7244094488188977
        },
        {
          "duration": 0.25,
          "durationTicks": 480,
          "midi": 69,
          "name": "A4",
          "ticks": 85440,
          "time": 51.49958333333333,
          "velocity": 0.5748031496062992
        },
        {
          "duration": 0.25,
          "durationTicks": 480,
          "midi": 77,
          "name": "F5",
          "ticks": 85440,
          "time": 51.49958333333333,
          "velocity": 0.5748031496062992
        },
        {
          "duration": 0.25,
          "durationTicks": 480,
          "midi": 60,
          "name": "C4",
          "ticks": 85440,
          "time": 51.49958333333333,
          "velocity": 0.5511811023622047
        },
        {
          "duration": 0.75,
          "durationTicks": 1440,
          "midi": 64,
          "name": "E4",
          "ticks": 85920,
          "time": 51.74958333333333,
          "velocity": 0.5984251968503937
        },
        {
          "duration": 0.75,
          "durationTicks": 1440,
          "midi": 69,
          "name": "A4",
          "ticks": 85920,
          "time": 51.74958333333333,
          "velocity": 0.5984251968503937
        },
        {
          "duration": 0.75,
          "durationTicks": 1440,
          "midi": 76,
          "name": "E5",
          "ticks": 85920,
          "time": 51.74958333333333,
          "velocity": 0.5984251968503937
        },
        {
          "duration": 0.25,
          "durationTicks": 480,
          "midi": 43,
          "name": "G2",
          "ticks": 86400,
          "time": 51.99958333333333,
          "velocity": 0.5118110236220472
        },
        {
          "duration": 0.25,
          "durationTicks": 480,
          "midi": 50,
          "name": "D3",
          "ticks": 86880,
          "time": 52.24958333333333,
          "velocity": 0.6456692913385826
        },
        {
          "duration": 0.5,
          "durationTicks": 960,
          "midi": 65,
          "name": "F4",
          "ticks": 87360,
          "time": 52.49958333333333,
          "velocity": 0.6456692913385826
        },
        {
          "duration": 0.5,
          "durationTicks": 960,
          "midi": 69,
          "name": "A4",
          "ticks": 87360,
          "time": 52.49958333333333,
          "velocity": 0.6456692913385826
        },
        {
          "duration": 0.5,
          "durationTicks": 960,
          "midi": 77,
          "name": "F5",
          "ticks": 87360,
          "time": 52.49958333333333,
          "velocity": 0.6456692913385826
        },
        {
          "duration": 0.25,
          "durationTicks": 480,
          "midi": 55,
          "name": "G3",
          "ticks": 87360,
          "time": 52.49958333333333,
          "velocity": 0.6535433070866141
        },
        {
          "duration": 0.25,
          "durationTicks": 480,
          "midi": 50,
          "name": "D3",
          "ticks": 87840,
          "time": 52.74958333333333,
          "velocity": 0.5590551181102362
        },
        {
          "duration": 0.5,
          "durationTicks": 960,
          "midi": 67,
          "name": "G4",
          "ticks": 88320,
          "time": 52.99958333333333,
          "velocity": 0.6456692913385826
        },
        {
          "duration": 0.5,
          "durationTicks": 960,
          "midi": 69,
          "name": "A4",
          "ticks": 88320,
          "time": 52.99958333333333,
          "velocity": 0.6456692913385826
        },
        {
          "duration": 0.5,
          "durationTicks": 960,
          "midi": 79,
          "name": "G5",
          "ticks": 88320,
          "time": 52.99958333333333,
          "velocity": 0.6456692913385826
        },
        {
          "duration": 0.25,
          "durationTicks": 480,
          "midi": 43,
          "name": "G2",
          "ticks": 88320,
          "time": 52.99958333333333,
          "velocity": 0.5433070866141733
        },
        {
          "duration": 0.25,
          "durationTicks": 480,
          "midi": 50,
          "name": "D3",
          "ticks": 88800,
          "time": 53.24958333333333,
          "velocity": 0.6377952755905512
        },
        {
          "duration": 0.5,
          "durationTicks": 960,
          "midi": 71,
          "name": "B4",
          "ticks": 89280,
          "time": 53.49958333333333,
          "velocity": 0.6771653543307087
        },
        {
          "duration": 0.5,
          "durationTicks": 960,
          "midi": 83,
          "name": "B5",
          "ticks": 89280,
          "time": 53.49958333333333,
          "velocity": 0.6771653543307087
        },
        {
          "duration": 0.25,
          "durationTicks": 480,
          "midi": 59,
          "name": "B3",
          "ticks": 89280,
          "time": 53.49958333333333,
          "velocity": 0.6614173228346457
        },
        {
          "duration": 0.25,
          "durationTicks": 480,
          "midi": 50,
          "name": "D3",
          "ticks": 89760,
          "time": 53.74958333333333,
          "velocity": 0.5433070866141733
        },
        {
          "duration": 1,
          "durationTicks": 1920,
          "midi": 71,
          "name": "B4",
          "ticks": 90240,
          "time": 53.99958333333333,
          "velocity": 0.5826771653543307
        },
        {
          "duration": 1,
          "durationTicks": 1920,
          "midi": 72,
          "name": "C5",
          "ticks": 90240,
          "time": 53.99958333333333,
          "velocity": 0.5826771653543307
        },
        {
          "duration": 1,
          "durationTicks": 1920,
          "midi": 76,
          "name": "E5",
          "ticks": 90240,
          "time": 53.99958333333333,
          "velocity": 0.5826771653543307
        },
        {
          "duration": 1,
          "durationTicks": 1920,
          "midi": 83,
          "name": "B5",
          "ticks": 90240,
          "time": 53.99958333333333,
          "velocity": 0.5826771653543307
        },
        {
          "duration": 0.25,
          "durationTicks": 480,
          "midi": 45,
          "name": "A2",
          "ticks": 90240,
          "time": 53.99958333333333,
          "velocity": 0.5826771653543307
        },
        {
          "duration": 0.25,
          "durationTicks": 480,
          "midi": 52,
          "name": "E3",
          "ticks": 90720,
          "time": 54.24958333333333,
          "velocity": 0.6771653543307087
        },
        {
          "duration": 0.25,
          "durationTicks": 480,
          "midi": 57,
          "name": "A3",
          "ticks": 91200,
          "time": 54.49958333333333,
          "velocity": 0.6377952755905512
        },
        {
          "duration": 0.25,
          "durationTicks": 480,
          "midi": 60,
          "name": "C4",
          "ticks": 91680,
          "time": 54.74958333333333,
          "velocity": 0.6299212598425197
        },
        {
          "duration": 0.5,
          "durationTicks": 960,
          "midi": 72,
          "name": "C5",
          "ticks": 92160,
          "time": 54.99958333333333,
          "velocity": 0.6220472440944882
        },
        {
          "duration": 0.5,
          "durationTicks": 960,
          "midi": 76,
          "name": "E5",
          "ticks": 92160,
          "time": 54.99958333333333,
          "velocity": 0.6220472440944882
        },
        {
          "duration": 0.5,
          "durationTicks": 960,
          "midi": 79,
          "name": "G5",
          "ticks": 92160,
          "time": 54.99958333333333,
          "velocity": 0.6220472440944882
        },
        {
          "duration": 0.5,
          "durationTicks": 960,
          "midi": 84,
          "name": "C6",
          "ticks": 92160,
          "time": 54.99958333333333,
          "velocity": 0.6220472440944882
        },
        {
          "duration": 0.25,
          "durationTicks": 480,
          "midi": 64,
          "name": "E4",
          "ticks": 92160,
          "time": 54.99958333333333,
          "velocity": 0.6535433070866141
        },
        {
          "duration": 0.25,
          "durationTicks": 480,
          "midi": 57,
          "name": "A3",
          "ticks": 92640,
          "time": 55.24958333333333,
          "velocity": 0.5748031496062992
        },
        {
          "duration": 1,
          "durationTicks": 1920,
          "midi": 72,
          "name": "C5",
          "ticks": 93120,
          "time": 55.49958333333333,
          "velocity": 0.6220472440944882
        },
        {
          "duration": 1,
          "durationTicks": 1920,
          "midi": 76,
          "name": "E5",
          "ticks": 93120,
          "time": 55.49958333333333,
          "velocity": 0.6220472440944882
        },
        {
          "duration": 1,
          "durationTicks": 1920,
          "midi": 79,
          "name": "G5",
          "ticks": 93120,
          "time": 55.49958333333333,
          "velocity": 0.6220472440944882
        },
        {
          "duration": 1,
          "durationTicks": 1920,
          "midi": 84,
          "name": "C6",
          "ticks": 93120,
          "time": 55.49958333333333,
          "velocity": 0.6220472440944882
        },
        {
          "duration": 0.25,
          "durationTicks": 480,
          "midi": 64,
          "name": "E4",
          "ticks": 93120,
          "time": 55.49958333333333,
          "velocity": 0.7007874015748031
        },
        {
          "duration": 0.25,
          "durationTicks": 480,
          "midi": 69,
          "name": "A4",
          "ticks": 93600,
          "time": 55.74958333333333,
          "velocity": 0.6929133858267716
        },
        {
          "duration": 0.25,
          "durationTicks": 480,
          "midi": 64,
          "name": "E4",
          "ticks": 94080,
          "time": 55.99958333333333,
          "velocity": 0.5354330708661418
        },
        {
          "duration": 0.25,
          "durationTicks": 480,
          "midi": 60,
          "name": "C4",
          "ticks": 94560,
          "time": 56.24958333333333,
          "velocity": 0.5354330708661418
        },
        {
          "duration": 0.25,
          "durationTicks": 480,
          "midi": 57,
          "name": "A3",
          "ticks": 95040,
          "time": 56.49958333333333,
          "velocity": 0.5511811023622047
        },
        {
          "duration": 0.25,
          "durationTicks": 480,
          "midi": 52,
          "name": "E3",
          "ticks": 95520,
          "time": 56.74958333333333,
          "velocity": 0.6062992125984252
        },
        {
          "duration": 0.5,
          "durationTicks": 960,
          "midi": 60,
          "name": "C4",
          "ticks": 96000,
          "time": 56.99958333333333,
          "velocity": 0.5118110236220472
        },
        {
          "duration": 0.5,
          "durationTicks": 960,
          "midi": 72,
          "name": "C5",
          "ticks": 96000,
          "time": 56.99958333333333,
          "velocity": 0.5118110236220472
        },
        {
          "duration": 0.25,
          "durationTicks": 480,
          "midi": 45,
          "name": "A2",
          "ticks": 96000,
          "time": 56.99958333333333,
          "velocity": 0.5118110236220472
        },
        {
          "duration": 0.25,
          "durationTicks": 480,
          "midi": 52,
          "name": "E3",
          "ticks": 96480,
          "time": 57.24958333333333,
          "velocity": 0.6614173228346457
        },
        {
          "duration": 0.5000000000000071,
          "durationTicks": 960,
          "midi": 67,
          "name": "G4",
          "ticks": 96960,
          "time": 57.49958333333333,
          "velocity": 0.6929133858267716
        },
        {
          "duration": 0.5000000000000071,
          "durationTicks": 960,
          "midi": 79,
          "name": "G5",
          "ticks": 96960,
          "time": 57.49958333333333,
          "velocity": 0.6929133858267716
        },
        {
          "duration": 0.25,
          "durationTicks": 480,
          "midi": 43,
          "name": "G2",
          "ticks": 96960,
          "time": 57.49958333333333,
          "velocity": 0.5669291338582677
        },
        {
          "duration": 0.2500000000000071,
          "durationTicks": 480,
          "midi": 52,
          "name": "E3",
          "ticks": 97440,
          "time": 57.74958333333333,
          "velocity": 0.6692913385826772
        },
        {
          "duration": 0.5,
          "durationTicks": 960,
          "midi": 72,
          "name": "C5",
          "ticks": 97920,
          "time": 57.999583333333334,
          "velocity": 0.6692913385826772
        },
        {
          "duration": 0.5,
          "durationTicks": 960,
          "midi": 77,
          "name": "F5",
          "ticks": 97920,
          "time": 57.999583333333334,
          "velocity": 0.6692913385826772
        },
        {
          "duration": 0.5,
          "durationTicks": 960,
          "midi": 81,
          "name": "A5",
          "ticks": 97920,
          "time": 57.999583333333334,
          "velocity": 0.6692913385826772
        },
        {
          "duration": 0.5,
          "durationTicks": 960,
          "midi": 84,
          "name": "C6",
          "ticks": 97920,
          "time": 57.999583333333334,
          "velocity": 0.6692913385826772
        },
        {
          "duration": 0.25,
          "durationTicks": 480,
          "midi": 29,
          "name": "F1",
          "ticks": 97920,
          "time": 57.999583333333334,
          "velocity": 0.5196850393700787
        },
        {
          "duration": 0.25,
          "durationTicks": 480,
          "midi": 41,
          "name": "F2",
          "ticks": 97920,
          "time": 57.999583333333334,
          "velocity": 0.5196850393700787
        },
        {
          "duration": 0.25,
          "durationTicks": 480,
          "midi": 41,
          "name": "F2",
          "ticks": 98400,
          "time": 58.249583333333334,
          "velocity": 0.6220472440944882
        },
        {
          "duration": 0.25,
          "durationTicks": 480,
          "midi": 67,
          "name": "G4",
          "ticks": 98880,
          "time": 58.499583333333334,
          "velocity": 0.5433070866141733
        },
        {
          "duration": 0.25,
          "durationTicks": 480,
          "midi": 69,
          "name": "A4",
          "ticks": 98880,
          "time": 58.499583333333334,
          "velocity": 0.5433070866141733
        },
        {
          "duration": 0.25,
          "durationTicks": 480,
          "midi": 79,
          "name": "G5",
          "ticks": 98880,
          "time": 58.499583333333334,
          "velocity": 0.5433070866141733
        },
        {
          "duration": 0.25,
          "durationTicks": 480,
          "midi": 48,
          "name": "C3",
          "ticks": 98880,
          "time": 58.499583333333334,
          "velocity": 0.6771653543307087
        },
        {
          "duration": 1.25,
          "durationTicks": 2400,
          "midi": 67,
          "name": "G4",
          "ticks": 99360,
          "time": 58.749583333333334,
          "velocity": 0.5905511811023622
        },
        {
          "duration": 1.25,
          "durationTicks": 2400,
          "midi": 69,
          "name": "A4",
          "ticks": 99360,
          "time": 58.749583333333334,
          "velocity": 0.5905511811023622
        },
        {
          "duration": 1.25,
          "durationTicks": 2400,
          "midi": 79,
          "name": "G5",
          "ticks": 99360,
          "time": 58.749583333333334,
          "velocity": 0.5905511811023622
        },
        {
          "duration": 0.25,
          "durationTicks": 480,
          "midi": 53,
          "name": "F3",
          "ticks": 99360,
          "time": 58.749583333333334,
          "velocity": 0.6535433070866141
        },
        {
          "duration": 0.25,
          "durationTicks": 480,
          "midi": 57,
          "name": "A3",
          "ticks": 99840,
          "time": 58.999583333333334,
          "velocity": 0.6614173228346457
        },
        {
          "duration": 0.25,
          "durationTicks": 480,
          "midi": 60,
          "name": "C4",
          "ticks": 100320,
          "time": 59.249583333333334,
          "velocity": 0.6141732283464567
        },
        {
          "duration": 0.25,
          "durationTicks": 480,
          "midi": 65,
          "name": "F4",
          "ticks": 100800,
          "time": 59.499583333333334,
          "velocity": 0.6771653543307087
        },
        {
          "duration": 0.25,
          "durationTicks": 480,
          "midi": 60,
          "name": "C4",
          "ticks": 101280,
          "time": 59.749583333333334,
          "velocity": 0.5196850393700787
        },
        {
          "duration": 0.25,
          "durationTicks": 480,
          "midi": 31,
          "name": "G1",
          "ticks": 101760,
          "time": 59.999583333333334,
          "velocity": 0.5354330708661418
        },
        {
          "duration": 0.25,
          "durationTicks": 480,
          "midi": 43,
          "name": "G2",
          "ticks": 101760,
          "time": 59.999583333333334,
          "velocity": 0.5354330708661418
        },
        {
          "duration": 0.25,
          "durationTicks": 480,
          "midi": 43,
          "name": "G2",
          "ticks": 102240,
          "time": 60.249583333333334,
          "velocity": 0.5590551181102362
        },
        {
          "duration": 0.25,
          "durationTicks": 480,
          "midi": 50,
          "name": "D3",
          "ticks": 102720,
          "time": 60.499583333333334,
          "velocity": 0.6377952755905512
        },
        {
          "duration": 0.25,
          "durationTicks": 480,
          "midi": 55,
          "name": "G3",
          "ticks": 103200,
          "time": 60.749583333333334,
          "velocity": 0.6456692913385826
        },
        {
          "duration": 0.25,
          "durationTicks": 480,
          "midi": 60,
          "name": "C4",
          "ticks": 103680,
          "time": 60.999583333333334,
          "velocity": 0.5433070866141733
        },
        {
          "duration": 0.5,
          "durationTicks": 960,
          "midi": 72,
          "name": "C5",
          "ticks": 103680,
          "time": 60.999583333333334,
          "velocity": 0.5433070866141733
        },
        {
          "duration": 0.5,
          "durationTicks": 960,
          "midi": 60,
          "name": "C4",
          "ticks": 103680,
          "time": 60.999583333333334,
          "velocity": 0.6692913385826772
        },
        {
          "duration": 0.25,
          "durationTicks": 480,
          "midi": 55,
          "name": "G3",
          "ticks": 104160,
          "time": 61.249583333333334,
          "velocity": 0.5984251968503937
        },
        {
          "duration": 0.5,
          "durationTicks": 960,
          "midi": 67,
          "name": "G4",
          "ticks": 104640,
          "time": 61.499583333333334,
          "velocity": 0.6850393700787402
        },
        {
          "duration": 0.5,
          "durationTicks": 960,
          "midi": 79,
          "name": "G5",
          "ticks": 104640,
          "time": 61.499583333333334,
          "velocity": 0.6850393700787402
        },
        {
          "duration": 0.25,
          "durationTicks": 480,
          "midi": 50,
          "name": "D3",
          "ticks": 104640,
          "time": 61.499583333333334,
          "velocity": 0.5748031496062992
        },
        {
          "duration": 0.25,
          "durationTicks": 480,
          "midi": 43,
          "name": "G2",
          "ticks": 105120,
          "time": 61.749583333333334,
          "velocity": 0.5354330708661418
        },
        {
          "duration": 0.5,
          "durationTicks": 960,
          "midi": 72,
          "name": "C5",
          "ticks": 105600,
          "time": 61.999583333333334,
          "velocity": 0.6771653543307087
        },
        {
          "duration": 0.5,
          "durationTicks": 960,
          "midi": 76,
          "name": "E5",
          "ticks": 105600,
          "time": 61.999583333333334,
          "velocity": 0.6771653543307087
        },
        {
          "duration": 0.5,
          "durationTicks": 960,
          "midi": 79,
          "name": "G5",
          "ticks": 105600,
          "time": 61.999583333333334,
          "velocity": 0.6771653543307087
        },
        {
          "duration": 0.5,
          "durationTicks": 960,
          "midi": 84,
          "name": "C6",
          "ticks": 105600,
          "time": 61.999583333333334,
          "velocity": 0.6771653543307087
        },
        {
          "duration": 0.25,
          "durationTicks": 480,
          "midi": 33,
          "name": "A1",
          "ticks": 105600,
          "time": 61.999583333333334,
          "velocity": 0.6141732283464567
        },
        {
          "duration": 0.25,
          "durationTicks": 480,
          "midi": 45,
          "name": "A2",
          "ticks": 105600,
          "time": 61.999583333333334,
          "velocity": 0.6141732283464567
        },
        {
          "duration": 0.25,
          "durationTicks": 480,
          "midi": 52,
          "name": "E3",
          "ticks": 106080,
          "time": 62.249583333333334,
          "velocity": 0.6535433070866141
        },
        {
          "duration": 0.25,
          "durationTicks": 480,
          "midi": 71,
          "name": "B4",
          "ticks": 106560,
          "time": 62.499583333333334,
          "velocity": 0.5669291338582677
        },
        {
          "duration": 0.25,
          "durationTicks": 480,
          "midi": 76,
          "name": "E5",
          "ticks": 106560,
          "time": 62.499583333333334,
          "velocity": 0.5669291338582677
        },
        {
          "duration": 0.25,
          "durationTicks": 480,
          "midi": 79,
          "name": "G5",
          "ticks": 106560,
          "time": 62.499583333333334,
          "velocity": 0.5669291338582677
        },
        {
          "duration": 0.25,
          "durationTicks": 480,
          "midi": 83,
          "name": "B5",
          "ticks": 106560,
          "time": 62.499583333333334,
          "velocity": 0.5669291338582677
        },
        {
          "duration": 0.25,
          "durationTicks": 480,
          "midi": 57,
          "name": "A3",
          "ticks": 106560,
          "time": 62.499583333333334,
          "velocity": 0.6456692913385826
        },
        {
          "duration": 0.75,
          "durationTicks": 1440,
          "midi": 72,
          "name": "C5",
          "ticks": 107040,
          "time": 62.749583333333334,
          "velocity": 0.6456692913385826
        },
        {
          "duration": 0.75,
          "durationTicks": 1440,
          "midi": 76,
          "name": "E5",
          "ticks": 107040,
          "time": 62.749583333333334,
          "velocity": 0.6456692913385826
        },
        {
          "duration": 0.75,
          "durationTicks": 1440,
          "midi": 79,
          "name": "G5",
          "ticks": 107040,
          "time": 62.749583333333334,
          "velocity": 0.6456692913385826
        },
        {
          "duration": 0.75,
          "durationTicks": 1440,
          "midi": 84,
          "name": "C6",
          "ticks": 107040,
          "time": 62.749583333333334,
          "velocity": 0.6456692913385826
        },
        {
          "duration": 0.25,
          "durationTicks": 480,
          "midi": 60,
          "name": "C4",
          "ticks": 107040,
          "time": 62.749583333333334,
          "velocity": 0.6220472440944882
        },
        {
          "duration": 0.25,
          "durationTicks": 480,
          "midi": 64,
          "name": "E4",
          "ticks": 107520,
          "time": 62.999583333333334,
          "velocity": 0.6692913385826772
        },
        {
          "duration": 0.25,
          "durationTicks": 480,
          "midi": 60,
          "name": "C4",
          "ticks": 108000,
          "time": 63.249583333333334,
          "velocity": 0.5905511811023622
        },
        {
          "duration": 0.25,
          "durationTicks": 480,
          "midi": 74,
          "name": "D5",
          "ticks": 108480,
          "time": 63.499583333333334,
          "velocity": 0.6141732283464567
        },
        {
          "duration": 0.25,
          "durationTicks": 480,
          "midi": 76,
          "name": "E5",
          "ticks": 108480,
          "time": 63.499583333333334,
          "velocity": 0.6141732283464567
        },
        {
          "duration": 0.25,
          "durationTicks": 480,
          "midi": 79,
          "name": "G5",
          "ticks": 108480,
          "time": 63.499583333333334,
          "velocity": 0.6141732283464567
        },
        {
          "duration": 0.25,
          "durationTicks": 480,
          "midi": 86,
          "name": "D6",
          "ticks": 108480,
          "time": 63.499583333333334,
          "velocity": 0.6141732283464567
        },
        {
          "duration": 0.25,
          "durationTicks": 480,
          "midi": 57,
          "name": "A3",
          "ticks": 108480,
          "time": 63.499583333333334,
          "velocity": 0.5669291338582677
        },
        {
          "duration": 1.25,
          "durationTicks": 2400,
          "midi": 72,
          "name": "C5",
          "ticks": 108960,
          "time": 63.749583333333334,
          "velocity": 0.5669291338582677
        },
        {
          "duration": 1.25,
          "durationTicks": 2400,
          "midi": 76,
          "name": "E5",
          "ticks": 108960,
          "time": 63.749583333333334,
          "velocity": 0.5669291338582677
        },
        {
          "duration": 1.25,
          "durationTicks": 2400,
          "midi": 79,
          "name": "G5",
          "ticks": 108960,
          "time": 63.749583333333334,
          "velocity": 0.5669291338582677
        },
        {
          "duration": 1.25,
          "durationTicks": 2400,
          "midi": 84,
          "name": "C6",
          "ticks": 108960,
          "time": 63.749583333333334,
          "velocity": 0.5669291338582677
        },
        {
          "duration": 0.25,
          "durationTicks": 480,
          "midi": 64,
          "name": "E4",
          "ticks": 108960,
          "time": 63.749583333333334,
          "velocity": 0.7007874015748031
        },
        {
          "duration": 0.25,
          "durationTicks": 480,
          "midi": 69,
          "name": "A4",
          "ticks": 109440,
          "time": 63.999583333333334,
          "velocity": 0.7007874015748031
        },
        {
          "duration": 0.25,
          "durationTicks": 480,
          "midi": 64,
          "name": "E4",
          "ticks": 109920,
          "time": 64.24958333333333,
          "velocity": 0.5354330708661418
        },
        {
          "duration": 0.25,
          "durationTicks": 480,
          "midi": 60,
          "name": "C4",
          "ticks": 110400,
          "time": 64.49958333333333,
          "velocity": 0.5433070866141733
        },
        {
          "duration": 0.25,
          "durationTicks": 480,
          "midi": 57,
          "name": "A3",
          "ticks": 110880,
          "time": 64.74958333333333,
          "velocity": 0.5669291338582677
        },
        {
          "duration": 1,
          "durationTicks": 1920,
          "midi": 71,
          "name": "B4",
          "ticks": 111360,
          "time": 64.99958333333333,
          "velocity": 0.5826771653543307
        },
        {
          "duration": 1,
          "durationTicks": 1920,
          "midi": 76,
          "name": "E5",
          "ticks": 111360,
          "time": 64.99958333333333,
          "velocity": 0.5826771653543307
        },
        {
          "duration": 1,
          "durationTicks": 1920,
          "midi": 79,
          "name": "G5",
          "ticks": 111360,
          "time": 64.99958333333333,
          "velocity": 0.5826771653543307
        },
        {
          "duration": 1,
          "durationTicks": 1920,
          "midi": 83,
          "name": "B5",
          "ticks": 111360,
          "time": 64.99958333333333,
          "velocity": 0.5826771653543307
        },
        {
          "duration": 0.25,
          "durationTicks": 480,
          "midi": 52,
          "name": "E3",
          "ticks": 111360,
          "time": 64.99958333333333,
          "velocity": 0.5511811023622047
        },
        {
          "duration": 0.25,
          "durationTicks": 480,
          "midi": 45,
          "name": "A2",
          "ticks": 111840,
          "time": 65.24958333333333,
          "velocity": 0.5433070866141733
        },
        {
          "duration": 0.25,
          "durationTicks": 480,
          "midi": 52,
          "name": "E3",
          "ticks": 112320,
          "time": 65.49958333333333,
          "velocity": 0.6220472440944882
        },
        {
          "duration": 0.25,
          "durationTicks": 480,
          "midi": 43,
          "name": "G2",
          "ticks": 112800,
          "time": 65.74958333333333,
          "velocity": 0.5433070866141733
        },
        {
          "duration": 1.5,
          "durationTicks": 2880,
          "midi": 67,
          "name": "G4",
          "ticks": 113280,
          "time": 65.99958333333333,
          "velocity": 0.5275590551181102
        },
        {
          "duration": 1.5,
          "durationTicks": 2880,
          "midi": 69,
          "name": "A4",
          "ticks": 113280,
          "time": 65.99958333333333,
          "velocity": 0.5275590551181102
        },
        {
          "duration": 1.5,
          "durationTicks": 2880,
          "midi": 72,
          "name": "C5",
          "ticks": 113280,
          "time": 65.99958333333333,
          "velocity": 0.5275590551181102
        },
        {
          "duration": 1.5,
          "durationTicks": 2880,
          "midi": 79,
          "name": "G5",
          "ticks": 113280,
          "time": 65.99958333333333,
          "velocity": 0.5275590551181102
        },
        {
          "duration": 0.25,
          "durationTicks": 480,
          "midi": 41,
          "name": "F2",
          "ticks": 113280,
          "time": 65.99958333333333,
          "velocity": 0.5669291338582677
        },
        {
          "duration": 0.25,
          "durationTicks": 480,
          "midi": 48,
          "name": "C3",
          "ticks": 113760,
          "time": 66.24958333333333,
          "velocity": 0.6456692913385826
        },
        {
          "duration": 0.25,
          "durationTicks": 480,
          "midi": 53,
          "name": "F3",
          "ticks": 114240,
          "time": 66.49958333333333,
          "velocity": 0.6771653543307087
        },
        {
          "duration": 0.25,
          "durationTicks": 480,
          "midi": 57,
          "name": "A3",
          "ticks": 114720,
          "time": 66.74958333333333,
          "velocity": 0.6141732283464567
        },
        {
          "duration": 1.001779997916671,
          "durationTicks": 1920,
          "midi": 60,
          "name": "C4",
          "ticks": 115200,
          "time": 66.99958333333333,
          "velocity": 0.6614173228346457
        },
        {
          "duration": 0.25,
          "durationTicks": 480,
          "midi": 64,
          "name": "E4",
          "ticks": 116160,
          "time": 67.49958333333333,
          "velocity": 0.5433070866141733
        },
        {
          "duration": 0.25,
          "durationTicks": 480,
          "midi": 76,
          "name": "E5",
          "ticks": 116160,
          "time": 67.49958333333333,
          "velocity": 0.5433070866141733
        },
        {
          "duration": 0.7629022822916767,
          "durationTicks": 1440,
          "midi": 64,
          "name": "E4",
          "ticks": 116640,
          "time": 67.74958333333333,
          "velocity": 0.5748031496062992
        },
        {
          "duration": 0.7629022822916767,
          "durationTicks": 1440,
          "midi": 76,
          "name": "E5",
          "ticks": 116640,
          "time": 67.74958333333333,
          "velocity": 0.5748031496062992
        },
        {
          "duration": 2.1078372302083324,
          "durationTicks": 3840,
          "midi": 43,
          "name": "G2",
          "ticks": 117120,
          "time": 68.00136333125,
          "velocity": 0.5354330708661418
        },
        {
          "duration": 1.8541062302083304,
          "durationTicks": 3360,
          "midi": 50,
          "name": "D3",
          "ticks": 117600,
          "time": 68.25509433125,
          "velocity": 0.5748031496062992
        },
        {
          "duration": 0.5208140729166502,
          "durationTicks": 960,
          "midi": 67,
          "name": "G4",
          "ticks": 118080,
          "time": 68.51248561562501,
          "velocity": 0.6456692913385826
        },
        {
          "duration": 0.5208140729166502,
          "durationTicks": 960,
          "midi": 79,
          "name": "G5",
          "ticks": 118080,
          "time": 68.51248561562501,
          "velocity": 0.6456692913385826
        },
        {
          "duration": 1.5967149458333267,
          "durationTicks": 2880,
          "midi": 55,
          "name": "G3",
          "ticks": 118080,
          "time": 68.51248561562501,
          "velocity": 0.5905511811023622
        },
        {
          "duration": 0.5324829770833475,
          "durationTicks": 960,
          "midi": 62,
          "name": "D4",
          "ticks": 119040,
          "time": 69.03329968854166,
          "velocity": 0.5511811023622047
        },
        {
          "duration": 0.5324829770833475,
          "durationTicks": 960,
          "midi": 74,
          "name": "D5",
          "ticks": 119040,
          "time": 69.03329968854166,
          "velocity": 0.5511811023622047
        },
        {
          "duration": 0.26984099999999955,
          "durationTicks": 480,
          "midi": 76,
          "name": "E5",
          "ticks": 120000,
          "time": 69.56578266562501,
          "velocity": 0.6535433070866141
        },
        {
          "duration": 1.683287973958329,
          "durationTicks": 2880,
          "midi": 60,
          "name": "C4",
          "ticks": 120480,
          "time": 69.83562366562501,
          "velocity": 0.5905511811023622
        },
        {
          "duration": 1.9752215416666559,
          "durationTicks": 3360,
          "midi": 64,
          "name": "E4",
          "ticks": 120480,
          "time": 69.83562366562501,
          "velocity": 0.5905511811023622
        },
        {
          "duration": 1.9752215416666559,
          "durationTicks": 3360,
          "midi": 72,
          "name": "C5",
          "ticks": 120480,
          "time": 69.83562366562501,
          "velocity": 0.5905511811023622
        },
        {
          "duration": 0.2757011979166748,
          "durationTicks": 480,
          "midi": 45,
          "name": "A2",
          "ticks": 120960,
          "time": 70.10920056145834,
          "velocity": 0.5748031496062992
        },
        {
          "duration": 0.2786885000000012,
          "durationTicks": 480,
          "midi": 52,
          "name": "E3",
          "ticks": 121440,
          "time": 70.38490175937501,
          "velocity": 0.6377952755905512
        },
        {
          "duration": 0.2824621562499914,
          "durationTicks": 480,
          "midi": 57,
          "name": "A3",
          "ticks": 121920,
          "time": 70.66359025937501,
          "velocity": 0.6535433070866141
        },
        {
          "duration": 0.28472372395833645,
          "durationTicks": 480,
          "midi": 59,
          "name": "B3",
          "ticks": 122400,
          "time": 70.946052415625,
          "velocity": 0.6299212598425197
        },
        {
          "duration": 0.5800690677083225,
          "durationTicks": 960,
          "midi": 60,
          "name": "C4",
          "ticks": 122880,
          "time": 71.23077613958334,
          "velocity": 0.6299212598425197
        },
        {
          "duration": 0.2919335677083268,
          "durationTicks": 480,
          "midi": 64,
          "name": "E4",
          "ticks": 123360,
          "time": 71.51891163958334,
          "velocity": 0.6929133858267716
        },
        {
          "duration": 0.5925912708333385,
          "durationTicks": 960,
          "midi": 72,
          "name": "C5",
          "ticks": 123840,
          "time": 71.81084520729166,
          "velocity": 0.6062992125984252
        },
        {
          "duration": 1.2287459552083106,
          "durationTicks": 1920,
          "midi": 76,
          "name": "E5",
          "ticks": 124800,
          "time": 72.403436478125,
          "velocity": 0.6614173228346457
        },
        {
          "duration": 1.941826437500012,
          "durationTicks": 2880,
          "midi": 84,
          "name": "C6",
          "ticks": 126720,
          "time": 73.63218243333331,
          "velocity": 0.7322834645669292
        },
        {
          "duration": 2.615384000000006,
          "durationTicks": 3840,
          "midi": 71,
          "name": "B4",
          "ticks": 133440,
          "time": 78.18939287083332,
          "velocity": 0.5748031496062992
        },
        {
          "duration": 2.615384000000006,
          "durationTicks": 3840,
          "midi": 57,
          "name": "A3",
          "ticks": 133440,
          "time": 78.18939287083332,
          "velocity": 0.5669291338582677
        },
        {
          "duration": 2.615384000000006,
          "durationTicks": 3840,
          "midi": 64,
          "name": "E4",
          "ticks": 133440,
          "time": 78.18939287083332,
          "velocity": 0.5669291338582677
        },
        {
          "duration": 2.615384000000006,
          "durationTicks": 3840,
          "midi": 69,
          "name": "A4",
          "ticks": 133440,
          "time": 78.18939287083332,
          "velocity": 0.5669291338582677
        },
        {
          "duration": 2.536377608333339,
          "durationTicks": 3724,
          "midi": 72,
          "name": "C5",
          "ticks": 133556,
          "time": 78.26839926249998,
          "velocity": 0.5748031496062992
        },
        {
          "duration": 2.456690127083334,
          "durationTicks": 3607,
          "midi": 76,
          "name": "E5",
          "ticks": 133673,
          "time": 78.34808674374999,
          "velocity": 0.5748031496062992
        },
        {
          "duration": 2.3776837354166673,
          "durationTicks": 3491,
          "midi": 83,
          "name": "B5",
          "ticks": 133789,
          "time": 78.42709313541665,
          "velocity": 0.5748031496062992
        },
        {
          "duration": 2.6153839999999917,
          "durationTicks": 3840,
          "midi": 67,
          "name": "G4",
          "ticks": 137280,
          "time": 80.80477687083332,
          "velocity": 0.49606299212598426
        },
        {
          "duration": 2.6153839999999917,
          "durationTicks": 3840,
          "midi": 53,
          "name": "F3",
          "ticks": 137280,
          "time": 80.80477687083332,
          "velocity": 0.5275590551181102
        },
        {
          "duration": 2.6153839999999917,
          "durationTicks": 3840,
          "midi": 60,
          "name": "C4",
          "ticks": 137280,
          "time": 80.80477687083332,
          "velocity": 0.5275590551181102
        },
        {
          "duration": 2.6153839999999917,
          "durationTicks": 3840,
          "midi": 65,
          "name": "F4",
          "ticks": 137280,
          "time": 80.80477687083332,
          "velocity": 0.5275590551181102
        },
        {
          "duration": 2.536377608333325,
          "durationTicks": 3724,
          "midi": 69,
          "name": "A4",
          "ticks": 137396,
          "time": 80.88378326249999,
          "velocity": 0.49606299212598426
        },
        {
          "duration": 2.45669012708332,
          "durationTicks": 3607,
          "midi": 72,
          "name": "C5",
          "ticks": 137513,
          "time": 80.96347074375,
          "velocity": 0.49606299212598426
        },
        {
          "duration": 2.377683735416653,
          "durationTicks": 3491,
          "midi": 79,
          "name": "G5",
          "ticks": 137629,
          "time": 81.04247713541666,
          "velocity": 0.49606299212598426
        },
        {
          "duration": 2.615384000000006,
          "durationTicks": 3840,
          "midi": 69,
          "name": "A4",
          "ticks": 141120,
          "time": 83.42016087083331,
          "velocity": 0.6377952755905512
        },
        {
          "duration": 2.615384000000006,
          "durationTicks": 3840,
          "midi": 81,
          "name": "A5",
          "ticks": 141120,
          "time": 83.42016087083331,
          "velocity": 0.6377952755905512
        },
        {
          "duration": 2.615384000000006,
          "durationTicks": 3840,
          "midi": 59,
          "name": "B3",
          "ticks": 144960,
          "time": 86.03554487083332,
          "velocity": 0.4645669291338583
        },
        {
          "duration": 2.615384000000006,
          "durationTicks": 3840,
          "midi": 45,
          "name": "A2",
          "ticks": 144960,
          "time": 86.03554487083332,
          "velocity": 0.5354330708661418
        },
        {
          "duration": 2.615384000000006,
          "durationTicks": 3840,
          "midi": 52,
          "name": "E3",
          "ticks": 144960,
          "time": 86.03554487083332,
          "velocity": 0.5354330708661418
        },
        {
          "duration": 2.615384000000006,
          "durationTicks": 3840,
          "midi": 57,
          "name": "A3",
          "ticks": 144960,
          "time": 86.03554487083332,
          "velocity": 0.5354330708661418
        },
        {
          "duration": 2.536377608333339,
          "durationTicks": 3724,
          "midi": 60,
          "name": "C4",
          "ticks": 145076,
          "time": 86.11455126249999,
          "velocity": 0.4645669291338583
        },
        {
          "duration": 2.456690127083334,
          "durationTicks": 3607,
          "midi": 64,
          "name": "E4",
          "ticks": 145193,
          "time": 86.19423874374999,
          "velocity": 0.4645669291338583
        },
        {
          "duration": 2.3776837354166673,
          "durationTicks": 3491,
          "midi": 71,
          "name": "B4",
          "ticks": 145309,
          "time": 86.27324513541666,
          "velocity": 0.4645669291338583
        },
        {
          "duration": 2.6153839999999917,
          "durationTicks": 3840,
          "midi": 55,
          "name": "G3",
          "ticks": 148800,
          "time": 88.65092887083333,
          "velocity": 0.5039370078740157
        },
        {
          "duration": 2.6153839999999917,
          "durationTicks": 3840,
          "midi": 41,
          "name": "F2",
          "ticks": 148800,
          "time": 88.65092887083333,
          "velocity": 0.5590551181102362
        },
        {
          "duration": 2.6153839999999917,
          "durationTicks": 3840,
          "midi": 48,
          "name": "C3",
          "ticks": 148800,
          "time": 88.65092887083333,
          "velocity": 0.5590551181102362
        },
        {
          "duration": 2.6153839999999917,
          "durationTicks": 3840,
          "midi": 53,
          "name": "F3",
          "ticks": 148800,
          "time": 88.65092887083333,
          "velocity": 0.5590551181102362
        },
        {
          "duration": 2.536377608333325,
          "durationTicks": 3724,
          "midi": 57,
          "name": "A3",
          "ticks": 148916,
          "time": 88.72993526249999,
          "velocity": 0.5039370078740157
        },
        {
          "duration": 2.456690127083334,
          "durationTicks": 3607,
          "midi": 60,
          "name": "C4",
          "ticks": 149033,
          "time": 88.80962274374998,
          "velocity": 0.5039370078740157
        },
        {
          "duration": 2.3776837354166673,
          "durationTicks": 3491,
          "midi": 67,
          "name": "G4",
          "ticks": 149149,
          "time": 88.88862913541665,
          "velocity": 0.5039370078740157
        },
        {
          "duration": 2.615384000000006,
          "durationTicks": 3840,
          "midi": 64,
          "name": "E4",
          "ticks": 152640,
          "time": 91.26631287083332,
          "velocity": 0.6377952755905512
        },
        {
          "duration": 2.615384000000006,
          "durationTicks": 3840,
          "midi": 69,
          "name": "A4",
          "ticks": 152640,
          "time": 91.26631287083332,
          "velocity": 0.6377952755905512
        },
        {
          "duration": 2.615384000000006,
          "durationTicks": 3840,
          "midi": 29,
          "name": "F1",
          "ticks": 152640,
          "time": 91.26631287083332,
          "velocity": 0.47244094488188976
        },
        {
          "duration": 0.75,
          "durationTicks": 960,
          "midi": 45,
          "name": "A2",
          "ticks": 156480,
          "time": 93.88169687083332,
          "velocity": 0.6456692913385826
        },
        {
          "duration": 3,
          "durationTicks": 3840,
          "midi": 33,
          "name": "A1",
          "ticks": 156480,
          "time": 93.88169687083332,
          "velocity": 0.5275590551181102
        },
        {
          "duration": 0.375,
          "durationTicks": 480,
          "midi": 57,
          "name": "A3",
          "ticks": 156960,
          "time": 94.25669687083332,
          "velocity": 0.5275590551181102
        },
        {
          "duration": 0.375,
          "durationTicks": 480,
          "midi": 64,
          "name": "E4",
          "ticks": 157440,
          "time": 94.63169687083332,
          "velocity": 0.6692913385826772
        },
        {
          "duration": 0.75,
          "durationTicks": 960,
          "midi": 45,
          "name": "A2",
          "ticks": 157440,
          "time": 94.63169687083332,
          "velocity": 0.6062992125984252
        },
        {
          "duration": 0.375,
          "durationTicks": 480,
          "midi": 65,
          "name": "F4",
          "ticks": 157920,
          "time": 95.00669687083332,
          "velocity": 0.6535433070866141
        },
        {
          "duration": 0.375,
          "durationTicks": 480,
          "midi": 62,
          "name": "D4",
          "ticks": 158400,
          "time": 95.38169687083332,
          "velocity": 0.5511811023622047
        },
        {
          "duration": 0.75,
          "durationTicks": 960,
          "midi": 45,
          "name": "A2",
          "ticks": 158400,
          "time": 95.38169687083332,
          "velocity": 0.5905511811023622
        },
        {
          "duration": 0.375,
          "durationTicks": 480,
          "midi": 60,
          "name": "C4",
          "ticks": 158880,
          "time": 95.75669687083332,
          "velocity": 0.5826771653543307
        },
        {
          "duration": 0.375,
          "durationTicks": 480,
          "midi": 59,
          "name": "B3",
          "ticks": 159360,
          "time": 96.13169687083332,
          "velocity": 0.5354330708661418
        },
        {
          "duration": 0.75,
          "durationTicks": 960,
          "midi": 45,
          "name": "A2",
          "ticks": 159360,
          "time": 96.13169687083332,
          "velocity": 0.5826771653543307
        },
        {
          "duration": 0.375,
          "durationTicks": 480,
          "midi": 60,
          "name": "C4",
          "ticks": 159840,
          "time": 96.50669687083332,
          "velocity": 0.6299212598425197
        },
        {
          "duration": 0.75,
          "durationTicks": 960,
          "midi": 62,
          "name": "D4",
          "ticks": 160320,
          "time": 96.88169687083332,
          "velocity": 0.6535433070866141
        },
        {
          "duration": 1.5,
          "durationTicks": 1920,
          "midi": 59,
          "name": "B3",
          "ticks": 160320,
          "time": 96.88169687083332,
          "velocity": 0.5511811023622047
        },
        {
          "duration": 0.75,
          "durationTicks": 960,
          "midi": 45,
          "name": "A2",
          "ticks": 160320,
          "time": 96.88169687083332,
          "velocity": 0.6062992125984252
        },
        {
          "duration": 3,
          "durationTicks": 3840,
          "midi": 33,
          "name": "A1",
          "ticks": 160320,
          "time": 96.88169687083332,
          "velocity": 0.5984251968503937
        },
        {
          "duration": 0.75,
          "durationTicks": 960,
          "midi": 64,
          "name": "E4",
          "ticks": 161280,
          "time": 97.63169687083332,
          "velocity": 0.6692913385826772
        },
        {
          "duration": 0.75,
          "durationTicks": 960,
          "midi": 45,
          "name": "A2",
          "ticks": 161280,
          "time": 97.63169687083332,
          "velocity": 0.5905511811023622
        },
        {
          "duration": 1.5,
          "durationTicks": 1920,
          "midi": 59,
          "name": "B3",
          "ticks": 162240,
          "time": 98.38169687083332,
          "velocity": 0.5590551181102362
        },
        {
          "duration": 0.75,
          "durationTicks": 960,
          "midi": 45,
          "name": "A2",
          "ticks": 162240,
          "time": 98.38169687083332,
          "velocity": 0.5905511811023622
        },
        {
          "duration": 0.75,
          "durationTicks": 960,
          "midi": 45,
          "name": "A2",
          "ticks": 163200,
          "time": 99.13169687083332,
          "velocity": 0.5984251968503937
        },
        {
          "duration": 0.75,
          "durationTicks": 960,
          "midi": 56,
          "name": "G#3",
          "ticks": 164160,
          "time": 99.88169687083332,
          "velocity": 0.6062992125984252
        },
        {
          "duration": 0.75,
          "durationTicks": 960,
          "midi": 59,
          "name": "B3",
          "ticks": 164160,
          "time": 99.88169687083332,
          "velocity": 0.6062992125984252
        },
        {
          "duration": 0.75,
          "durationTicks": 960,
          "midi": 44,
          "name": "G#2",
          "ticks": 164160,
          "time": 99.88169687083332,
          "velocity": 0.5590551181102362
        },
        {
          "duration": 3,
          "durationTicks": 3840,
          "midi": 32,
          "name": "G#1",
          "ticks": 164160,
          "time": 99.88169687083332,
          "velocity": 0.5826771653543307
        },
        {
          "duration": 0.75,
          "durationTicks": 960,
          "midi": 60,
          "name": "C4",
          "ticks": 165120,
          "time": 100.63169687083332,
          "velocity": 0.6377952755905512
        },
        {
          "duration": 0.75,
          "durationTicks": 960,
          "midi": 44,
          "name": "G#2",
          "ticks": 165120,
          "time": 100.63169687083332,
          "velocity": 0.5669291338582677
        },
        {
          "duration": 0.75,
          "durationTicks": 960,
          "midi": 59,
          "name": "B3",
          "ticks": 166080,
          "time": 101.38169687083332,
          "velocity": 0.6062992125984252
        },
        {
          "duration": 0.75,
          "durationTicks": 960,
          "midi": 44,
          "name": "G#2",
          "ticks": 166080,
          "time": 101.38169687083332,
          "velocity": 0.5984251968503937
        },
        {
          "duration": 0.75,
          "durationTicks": 960,
          "midi": 56,
          "name": "G#3",
          "ticks": 167040,
          "time": 102.13169687083332,
          "velocity": 0.5669291338582677
        },
        {
          "duration": 0.75,
          "durationTicks": 960,
          "midi": 44,
          "name": "G#2",
          "ticks": 167040,
          "time": 102.13169687083332,
          "velocity": 0.6299212598425197
        },
        {
          "duration": 3,
          "durationTicks": 3840,
          "midi": 57,
          "name": "A3",
          "ticks": 168000,
          "time": 102.88169687083332,
          "velocity": 0.6456692913385826
        },
        {
          "duration": 0.75,
          "durationTicks": 960,
          "midi": 53,
          "name": "F3",
          "ticks": 168000,
          "time": 102.88169687083332,
          "velocity": 0.5590551181102362
        },
        {
          "duration": 0.75,
          "durationTicks": 960,
          "midi": 41,
          "name": "F2",
          "ticks": 168000,
          "time": 102.88169687083332,
          "velocity": 0.5669291338582677
        },
        {
          "duration": 3,
          "durationTicks": 3840,
          "midi": 29,
          "name": "F1",
          "ticks": 168000,
          "time": 102.88169687083332,
          "velocity": 0.5748031496062992
        },
        {
          "duration": 0.75,
          "durationTicks": 960,
          "midi": 52,
          "name": "E3",
          "ticks": 168960,
          "time": 103.63169687083332,
          "velocity": 0.5905511811023622
        },
        {
          "duration": 0.75,
          "durationTicks": 960,
          "midi": 41,
          "name": "F2",
          "ticks": 168960,
          "time": 103.63169687083332,
          "velocity": 0.6141732283464567
        },
        {
          "duration": 0.75,
          "durationTicks": 960,
          "midi": 52,
          "name": "E3",
          "ticks": 169920,
          "time": 104.38169687083332,
          "velocity": 0.6062992125984252
        },
        {
          "duration": 0.75,
          "durationTicks": 960,
          "midi": 41,
          "name": "F2",
          "ticks": 169920,
          "time": 104.38169687083332,
          "velocity": 0.5984251968503937
        },
        {
          "duration": 0.75,
          "durationTicks": 960,
          "midi": 52,
          "name": "E3",
          "ticks": 170880,
          "time": 105.13169687083332,
          "velocity": 0.5826771653543307
        },
        {
          "duration": 0.75,
          "durationTicks": 960,
          "midi": 41,
          "name": "F2",
          "ticks": 170880,
          "time": 105.13169687083332,
          "velocity": 0.5905511811023622
        },
        {
          "duration": 0.75,
          "durationTicks": 960,
          "midi": 45,
          "name": "A2",
          "ticks": 171840,
          "time": 105.88169687083332,
          "velocity": 0.6220472440944882
        },
        {
          "duration": 3,
          "durationTicks": 3840,
          "midi": 33,
          "name": "A1",
          "ticks": 171840,
          "time": 105.88169687083332,
          "velocity": 0.6299212598425197
        },
        {
          "duration": 0.375,
          "durationTicks": 480,
          "midi": 57,
          "name": "A3",
          "ticks": 172320,
          "time": 106.25669687083332,
          "velocity": 0.5669291338582677
        },
        {
          "duration": 0.375,
          "durationTicks": 480,
          "midi": 64,
          "name": "E4",
          "ticks": 172800,
          "time": 106.63169687083332,
          "velocity": 0.6771653543307087
        },
        {
          "duration": 0.75,
          "durationTicks": 960,
          "midi": 45,
          "name": "A2",
          "ticks": 172800,
          "time": 106.63169687083332,
          "velocity": 0.5590551181102362
        },
        {
          "duration": 0.375,
          "durationTicks": 480,
          "midi": 65,
          "name": "F4",
          "ticks": 173280,
          "time": 107.00669687083332,
          "velocity": 0.6141732283464567
        },
        {
          "duration": 0.375,
          "durationTicks": 480,
          "midi": 62,
          "name": "D4",
          "ticks": 173760,
          "time": 107.38169687083332,
          "velocity": 0.5433070866141733
        },
        {
          "duration": 0.75,
          "durationTicks": 960,
          "midi": 45,
          "name": "A2",
          "ticks": 173760,
          "time": 107.38169687083332,
          "velocity": 0.6141732283464567
        },
        {
          "duration": 0.375,
          "durationTicks": 480,
          "midi": 60,
          "name": "C4",
          "ticks": 174240,
          "time": 107.75669687083332,
          "velocity": 0.5433070866141733
        },
        {
          "duration": 0.375,
          "durationTicks": 480,
          "midi": 59,
          "name": "B3",
          "ticks": 174720,
          "time": 108.13169687083332,
          "velocity": 0.5748031496062992
        },
        {
          "duration": 0.75,
          "durationTicks": 960,
          "midi": 45,
          "name": "A2",
          "ticks": 174720,
          "time": 108.13169687083332,
          "velocity": 0.5905511811023622
        },
        {
          "duration": 0.375,
          "durationTicks": 480,
          "midi": 60,
          "name": "C4",
          "ticks": 175200,
          "time": 108.50669687083332,
          "velocity": 0.6220472440944882
        },
        {
          "duration": 0.75,
          "durationTicks": 960,
          "midi": 57,
          "name": "A3",
          "ticks": 175680,
          "time": 108.88169687083332,
          "velocity": 0.7086614173228346
        },
        {
          "duration": 0.75,
          "durationTicks": 960,
          "midi": 38,
          "name": "D2",
          "ticks": 175680,
          "time": 108.88169687083332,
          "velocity": 0.5590551181102362
        },
        {
          "duration": 3,
          "durationTicks": 3840,
          "midi": 26,
          "name": "D1",
          "ticks": 175680,
          "time": 108.88169687083332,
          "velocity": 0.5433070866141733
        },
        {
          "duration": 0.6710937499999972,
          "durationTicks": 859,
          "midi": 60,
          "name": "C4",
          "ticks": 175781,
          "time": 108.96060312083333,
          "velocity": 0.7086614173228346
        },
        {
          "duration": 0.5914062500000057,
          "durationTicks": 757,
          "midi": 67,
          "name": "G4",
          "ticks": 175883,
          "time": 109.04029062083332,
          "velocity": 0.7086614173228346
        },
        {
          "duration": 0.75,
          "durationTicks": 960,
          "midi": 57,
          "name": "A3",
          "ticks": 176640,
          "time": 109.63169687083332,
          "velocity": 0.5748031496062992
        },
        {
          "duration": 0.75,
          "durationTicks": 960,
          "midi": 65,
          "name": "F4",
          "ticks": 176640,
          "time": 109.63169687083332,
          "velocity": 0.5748031496062992
        },
        {
          "duration": 0.75,
          "durationTicks": 960,
          "midi": 38,
          "name": "D2",
          "ticks": 176640,
          "time": 109.63169687083332,
          "velocity": 0.5511811023622047
        },
        {
          "duration": 1.5,
          "durationTicks": 1920,
          "midi": 57,
          "name": "A3",
          "ticks": 177600,
          "time": 110.38169687083332,
          "velocity": 0.5511811023622047
        },
        {
          "duration": 1.5,
          "durationTicks": 1920,
          "midi": 64,
          "name": "E4",
          "ticks": 177600,
          "time": 110.38169687083332,
          "velocity": 0.5511811023622047
        },
        {
          "duration": 0.75,
          "durationTicks": 960,
          "midi": 38,
          "name": "D2",
          "ticks": 177600,
          "time": 110.38169687083332,
          "velocity": 0.6141732283464567
        },
        {
          "duration": 0.75,
          "durationTicks": 960,
          "midi": 38,
          "name": "D2",
          "ticks": 178560,
          "time": 111.13169687083332,
          "velocity": 0.6062992125984252
        },
        {
          "duration": 0.75,
          "durationTicks": 960,
          "midi": 56,
          "name": "G#3",
          "ticks": 179520,
          "time": 111.88169687083332,
          "velocity": 0.5511811023622047
        },
        {
          "duration": 0.75,
          "durationTicks": 960,
          "midi": 59,
          "name": "B3",
          "ticks": 179520,
          "time": 111.88169687083332,
          "velocity": 0.5511811023622047
        },
        {
          "duration": 0.75,
          "durationTicks": 960,
          "midi": 40,
          "name": "E2",
          "ticks": 179520,
          "time": 111.88169687083332,
          "velocity": 0.6141732283464567
        },
        {
          "duration": 3,
          "durationTicks": 3840,
          "midi": 28,
          "name": "E1",
          "ticks": 179520,
          "time": 111.88169687083332,
          "velocity": 0.6299212598425197
        },
        {
          "duration": 0.75,
          "durationTicks": 960,
          "midi": 60,
          "name": "C4",
          "ticks": 180480,
          "time": 112.63169687083332,
          "velocity": 0.5984251968503937
        },
        {
          "duration": 0.75,
          "durationTicks": 960,
          "midi": 40,
          "name": "E2",
          "ticks": 180480,
          "time": 112.63169687083332,
          "velocity": 0.5905511811023622
        },
        {
          "duration": 0.75,
          "durationTicks": 960,
          "midi": 56,
          "name": "G#3",
          "ticks": 181440,
          "time": 113.38169687083332,
          "velocity": 0.6692913385826772
        },
        {
          "duration": 0.75,
          "durationTicks": 960,
          "midi": 64,
          "name": "E4",
          "ticks": 181440,
          "time": 113.38169687083332,
          "velocity": 0.6692913385826772
        },
        {
          "duration": 0.75,
          "durationTicks": 960,
          "midi": 65,
          "name": "F4",
          "ticks": 181440,
          "time": 113.38169687083332,
          "velocity": 0.6692913385826772
        },
        {
          "duration": 0.75,
          "durationTicks": 960,
          "midi": 40,
          "name": "E2",
          "ticks": 181440,
          "time": 113.38169687083332,
          "velocity": 0.5905511811023622
        },
        {
          "duration": 0.75,
          "durationTicks": 960,
          "midi": 56,
          "name": "G#3",
          "ticks": 182400,
          "time": 114.13169687083332,
          "velocity": 0.5748031496062992
        },
        {
          "duration": 0.75,
          "durationTicks": 960,
          "midi": 64,
          "name": "E4",
          "ticks": 182400,
          "time": 114.13169687083332,
          "velocity": 0.5748031496062992
        },
        {
          "duration": 0.75,
          "durationTicks": 960,
          "midi": 40,
          "name": "E2",
          "ticks": 182400,
          "time": 114.13169687083332,
          "velocity": 0.6141732283464567
        },
        {
          "duration": 1.5,
          "durationTicks": 1920,
          "midi": 64,
          "name": "E4",
          "ticks": 183360,
          "time": 114.88169687083332,
          "velocity": 0.5905511811023622
        },
        {
          "duration": 0.75,
          "durationTicks": 960,
          "midi": 57,
          "name": "A3",
          "ticks": 183360,
          "time": 114.88169687083332,
          "velocity": 0.7165354330708661
        },
        {
          "duration": 0.75,
          "durationTicks": 960,
          "midi": 60,
          "name": "C4",
          "ticks": 183360,
          "time": 114.88169687083332,
          "velocity": 0.7165354330708661
        },
        {
          "duration": 0.75,
          "durationTicks": 960,
          "midi": 45,
          "name": "A2",
          "ticks": 183360,
          "time": 114.88169687083332,
          "velocity": 0.6456692913385826
        },
        {
          "duration": 3,
          "durationTicks": 3840,
          "midi": 33,
          "name": "A1",
          "ticks": 183360,
          "time": 114.88169687083332,
          "velocity": 0.6377952755905512
        },
        {
          "duration": 0.75,
          "durationTicks": 960,
          "midi": 57,
          "name": "A3",
          "ticks": 184320,
          "time": 115.63169687083332,
          "velocity": 0.6141732283464567
        },
        {
          "duration": 0.75,
          "durationTicks": 960,
          "midi": 60,
          "name": "C4",
          "ticks": 184320,
          "time": 115.63169687083332,
          "velocity": 0.6141732283464567
        },
        {
          "duration": 0.75,
          "durationTicks": 960,
          "midi": 45,
          "name": "A2",
          "ticks": 184320,
          "time": 115.63169687083332,
          "velocity": 0.5826771653543307
        },
        {
          "duration": 1.5,
          "durationTicks": 1920,
          "midi": 57,
          "name": "A3",
          "ticks": 185280,
          "time": 116.38169687083332,
          "velocity": 0.5275590551181102
        },
        {
          "duration": 1.5,
          "durationTicks": 1920,
          "midi": 60,
          "name": "C4",
          "ticks": 185280,
          "time": 116.38169687083332,
          "velocity": 0.5275590551181102
        },
        {
          "duration": 1.5,
          "durationTicks": 1920,
          "midi": 45,
          "name": "A2",
          "ticks": 185280,
          "time": 116.38169687083332,
          "velocity": 0.5590551181102362
        },
        {
          "duration": 0.75,
          "durationTicks": 960,
          "midi": 60,
          "name": "C4",
          "ticks": 187200,
          "time": 117.88169687083332,
          "velocity": 0.7637795275590551
        },
        {
          "duration": 0.75,
          "durationTicks": 960,
          "midi": 64,
          "name": "E4",
          "ticks": 187200,
          "time": 117.88169687083332,
          "velocity": 0.7637795275590551
        },
        {
          "duration": 0.75,
          "durationTicks": 960,
          "midi": 69,
          "name": "A4",
          "ticks": 187200,
          "time": 117.88169687083332,
          "velocity": 0.7637795275590551
        },
        {
          "duration": 0.75,
          "durationTicks": 960,
          "midi": 72,
          "name": "C5",
          "ticks": 187200,
          "time": 117.88169687083332,
          "velocity": 0.7637795275590551
        },
        {
          "duration": 0.75,
          "durationTicks": 960,
          "midi": 45,
          "name": "A2",
          "ticks": 187200,
          "time": 117.88169687083332,
          "velocity": 0.6850393700787402
        },
        {
          "duration": 0.75,
          "durationTicks": 960,
          "midi": 57,
          "name": "A3",
          "ticks": 187200,
          "time": 117.88169687083332,
          "velocity": 0.6850393700787402
        },
        {
          "duration": 2.25,
          "durationTicks": 2880,
          "midi": 60,
          "name": "C4",
          "ticks": 188160,
          "time": 118.63169687083332,
          "velocity": 0.6299212598425197
        },
        {
          "duration": 2.25,
          "durationTicks": 2880,
          "midi": 64,
          "name": "E4",
          "ticks": 188160,
          "time": 118.63169687083332,
          "velocity": 0.6299212598425197
        },
        {
          "duration": 2.25,
          "durationTicks": 2880,
          "midi": 69,
          "name": "A4",
          "ticks": 188160,
          "time": 118.63169687083332,
          "velocity": 0.6299212598425197
        },
        {
          "duration": 2.25,
          "durationTicks": 2880,
          "midi": 72,
          "name": "C5",
          "ticks": 188160,
          "time": 118.63169687083332,
          "velocity": 0.6299212598425197
        },
        {
          "duration": 2.25,
          "durationTicks": 2880,
          "midi": 45,
          "name": "A2",
          "ticks": 188160,
          "time": 118.63169687083332,
          "velocity": 0.5905511811023622
        },
        {
          "duration": 2.25,
          "durationTicks": 2880,
          "midi": 57,
          "name": "A3",
          "ticks": 188160,
          "time": 118.63169687083332,
          "velocity": 0.5905511811023622
        },
        {
          "duration": 0.75,
          "durationTicks": 960,
          "midi": 59,
          "name": "B3",
          "ticks": 191040,
          "time": 120.88169687083332,
          "velocity": 0.5669291338582677
        },
        {
          "duration": 0.75,
          "durationTicks": 960,
          "midi": 64,
          "name": "E4",
          "ticks": 191040,
          "time": 120.88169687083332,
          "velocity": 0.5669291338582677
        },
        {
          "duration": 0.75,
          "durationTicks": 960,
          "midi": 67,
          "name": "G4",
          "ticks": 191040,
          "time": 120.88169687083332,
          "velocity": 0.5669291338582677
        },
        {
          "duration": 0.75,
          "durationTicks": 960,
          "midi": 71,
          "name": "B4",
          "ticks": 191040,
          "time": 120.88169687083332,
          "velocity": 0.5669291338582677
        },
        {
          "duration": 0.75,
          "durationTicks": 960,
          "midi": 43,
          "name": "G2",
          "ticks": 191040,
          "time": 120.88169687083332,
          "velocity": 0.5748031496062992
        },
        {
          "duration": 0.75,
          "durationTicks": 960,
          "midi": 55,
          "name": "G3",
          "ticks": 191040,
          "time": 120.88169687083332,
          "velocity": 0.5748031496062992
        },
        {
          "duration": 2.25,
          "durationTicks": 2880,
          "midi": 59,
          "name": "B3",
          "ticks": 192000,
          "time": 121.63169687083332,
          "velocity": 0.5905511811023622
        },
        {
          "duration": 2.25,
          "durationTicks": 2880,
          "midi": 64,
          "name": "E4",
          "ticks": 192000,
          "time": 121.63169687083332,
          "velocity": 0.5905511811023622
        },
        {
          "duration": 2.25,
          "durationTicks": 2880,
          "midi": 67,
          "name": "G4",
          "ticks": 192000,
          "time": 121.63169687083332,
          "velocity": 0.5905511811023622
        },
        {
          "duration": 2.25,
          "durationTicks": 2880,
          "midi": 71,
          "name": "B4",
          "ticks": 192000,
          "time": 121.63169687083332,
          "velocity": 0.5905511811023622
        },
        {
          "duration": 2.25,
          "durationTicks": 2880,
          "midi": 43,
          "name": "G2",
          "ticks": 192000,
          "time": 121.63169687083332,
          "velocity": 0.6141732283464567
        },
        {
          "duration": 2.25,
          "durationTicks": 2880,
          "midi": 55,
          "name": "G3",
          "ticks": 192000,
          "time": 121.63169687083332,
          "velocity": 0.6141732283464567
        },
        {
          "duration": 0.75,
          "durationTicks": 960,
          "midi": 57,
          "name": "A3",
          "ticks": 194880,
          "time": 123.88169687083332,
          "velocity": 0.5984251968503937
        },
        {
          "duration": 0.75,
          "durationTicks": 960,
          "midi": 60,
          "name": "C4",
          "ticks": 194880,
          "time": 123.88169687083332,
          "velocity": 0.5984251968503937
        },
        {
          "duration": 0.75,
          "durationTicks": 960,
          "midi": 64,
          "name": "E4",
          "ticks": 194880,
          "time": 123.88169687083332,
          "velocity": 0.5984251968503937
        },
        {
          "duration": 0.75,
          "durationTicks": 960,
          "midi": 69,
          "name": "A4",
          "ticks": 194880,
          "time": 123.88169687083332,
          "velocity": 0.5984251968503937
        },
        {
          "duration": 0.75,
          "durationTicks": 960,
          "midi": 41,
          "name": "F2",
          "ticks": 194880,
          "time": 123.88169687083332,
          "velocity": 0.5748031496062992
        },
        {
          "duration": 0.75,
          "durationTicks": 960,
          "midi": 53,
          "name": "F3",
          "ticks": 194880,
          "time": 123.88169687083332,
          "velocity": 0.5748031496062992
        },
        {
          "duration": 2.25,
          "durationTicks": 2880,
          "midi": 57,
          "name": "A3",
          "ticks": 195840,
          "time": 124.63169687083332,
          "velocity": 0.6062992125984252
        },
        {
          "duration": 2.25,
          "durationTicks": 2880,
          "midi": 60,
          "name": "C4",
          "ticks": 195840,
          "time": 124.63169687083332,
          "velocity": 0.6062992125984252
        },
        {
          "duration": 2.25,
          "durationTicks": 2880,
          "midi": 64,
          "name": "E4",
          "ticks": 195840,
          "time": 124.63169687083332,
          "velocity": 0.6062992125984252
        },
        {
          "duration": 2.25,
          "durationTicks": 2880,
          "midi": 69,
          "name": "A4",
          "ticks": 195840,
          "time": 124.63169687083332,
          "velocity": 0.6062992125984252
        },
        {
          "duration": 2.25,
          "durationTicks": 2880,
          "midi": 41,
          "name": "F2",
          "ticks": 195840,
          "time": 124.63169687083332,
          "velocity": 0.5826771653543307
        },
        {
          "duration": 2.25,
          "durationTicks": 2880,
          "midi": 53,
          "name": "F3",
          "ticks": 195840,
          "time": 124.63169687083332,
          "velocity": 0.5826771653543307
        },
        {
          "duration": 0.75,
          "durationTicks": 960,
          "midi": 57,
          "name": "A3",
          "ticks": 198720,
          "time": 126.88169687083332,
          "velocity": 0.5669291338582677
        },
        {
          "duration": 0.75,
          "durationTicks": 960,
          "midi": 69,
          "name": "A4",
          "ticks": 198720,
          "time": 126.88169687083332,
          "velocity": 0.5669291338582677
        },
        {
          "duration": 0.75,
          "durationTicks": 960,
          "midi": 40,
          "name": "E2",
          "ticks": 198720,
          "time": 126.88169687083332,
          "velocity": 0.6062992125984252
        },
        {
          "duration": 0.75,
          "durationTicks": 960,
          "midi": 52,
          "name": "E3",
          "ticks": 198720,
          "time": 126.88169687083332,
          "velocity": 0.6062992125984252
        },
        {
          "duration": 1.4999999999999858,
          "durationTicks": 1920,
          "midi": 59,
          "name": "B3",
          "ticks": 199680,
          "time": 127.63169687083332,
          "velocity": 0.6692913385826772
        },
        {
          "duration": 1.4999999999999858,
          "durationTicks": 1920,
          "midi": 64,
          "name": "E4",
          "ticks": 199680,
          "time": 127.63169687083332,
          "velocity": 0.6692913385826772
        },
        {
          "duration": 1.4999999999999858,
          "durationTicks": 1920,
          "midi": 68,
          "name": "G#4",
          "ticks": 199680,
          "time": 127.63169687083332,
          "velocity": 0.6692913385826772
        },
        {
          "duration": 1.4999999999999858,
          "durationTicks": 1920,
          "midi": 71,
          "name": "B4",
          "ticks": 199680,
          "time": 127.63169687083332,
          "velocity": 0.6692913385826772
        },
        {
          "duration": 1.4999999999999858,
          "durationTicks": 1920,
          "midi": 40,
          "name": "E2",
          "ticks": 199680,
          "time": 127.63169687083332,
          "velocity": 0.6062992125984252
        },
        {
          "duration": 1.4999999999999858,
          "durationTicks": 1920,
          "midi": 52,
          "name": "E3",
          "ticks": 199680,
          "time": 127.63169687083332,
          "velocity": 0.6062992125984252
        },
        {
          "duration": 0.75,
          "durationTicks": 960,
          "midi": 60,
          "name": "C4",
          "ticks": 201600,
          "time": 129.1316968708333,
          "velocity": 0.6614173228346457
        },
        {
          "duration": 0.75,
          "durationTicks": 960,
          "midi": 64,
          "name": "E4",
          "ticks": 201600,
          "time": 129.1316968708333,
          "velocity": 0.6614173228346457
        },
        {
          "duration": 0.75,
          "durationTicks": 960,
          "midi": 68,
          "name": "G#4",
          "ticks": 201600,
          "time": 129.1316968708333,
          "velocity": 0.6614173228346457
        },
        {
          "duration": 0.75,
          "durationTicks": 960,
          "midi": 72,
          "name": "C5",
          "ticks": 201600,
          "time": 129.1316968708333,
          "velocity": 0.6614173228346457
        },
        {
          "duration": 0.75,
          "durationTicks": 960,
          "midi": 32,
          "name": "G#1",
          "ticks": 201600,
          "time": 129.1316968708333,
          "velocity": 0.5433070866141733
        },
        {
          "duration": 0.75,
          "durationTicks": 960,
          "midi": 44,
          "name": "G#2",
          "ticks": 201600,
          "time": 129.1316968708333,
          "velocity": 0.5433070866141733
        },
        {
          "duration": 0.75,
          "durationTicks": 960,
          "midi": 60,
          "name": "C4",
          "ticks": 202560,
          "time": 129.8816968708333,
          "velocity": 0.5826771653543307
        },
        {
          "duration": 0.75,
          "durationTicks": 960,
          "midi": 64,
          "name": "E4",
          "ticks": 202560,
          "time": 129.8816968708333,
          "velocity": 0.5826771653543307
        },
        {
          "duration": 0.75,
          "durationTicks": 960,
          "midi": 69,
          "name": "A4",
          "ticks": 202560,
          "time": 129.8816968708333,
          "velocity": 0.5826771653543307
        },
        {
          "duration": 0.75,
          "durationTicks": 960,
          "midi": 72,
          "name": "C5",
          "ticks": 202560,
          "time": 129.8816968708333,
          "velocity": 0.5826771653543307
        },
        {
          "duration": 0.75,
          "durationTicks": 960,
          "midi": 33,
          "name": "A1",
          "ticks": 202560,
          "time": 129.8816968708333,
          "velocity": 0.6220472440944882
        },
        {
          "duration": 0.75,
          "durationTicks": 960,
          "midi": 45,
          "name": "A2",
          "ticks": 202560,
          "time": 129.8816968708333,
          "velocity": 0.6220472440944882
        },
        {
          "duration": 2.25,
          "durationTicks": 2880,
          "midi": 60,
          "name": "C4",
          "ticks": 203520,
          "time": 130.6316968708333,
          "velocity": 0.6062992125984252
        },
        {
          "duration": 2.25,
          "durationTicks": 2880,
          "midi": 64,
          "name": "E4",
          "ticks": 203520,
          "time": 130.6316968708333,
          "velocity": 0.6062992125984252
        },
        {
          "duration": 2.25,
          "durationTicks": 2880,
          "midi": 69,
          "name": "A4",
          "ticks": 203520,
          "time": 130.6316968708333,
          "velocity": 0.6062992125984252
        },
        {
          "duration": 2.25,
          "durationTicks": 2880,
          "midi": 72,
          "name": "C5",
          "ticks": 203520,
          "time": 130.6316968708333,
          "velocity": 0.6062992125984252
        },
        {
          "duration": 2.25,
          "durationTicks": 2880,
          "midi": 33,
          "name": "A1",
          "ticks": 203520,
          "time": 130.6316968708333,
          "velocity": 0.5826771653543307
        },
        {
          "duration": 2.25,
          "durationTicks": 2880,
          "midi": 45,
          "name": "A2",
          "ticks": 203520,
          "time": 130.6316968708333,
          "velocity": 0.5826771653543307
        },
        {
          "duration": 0.75,
          "durationTicks": 960,
          "midi": 62,
          "name": "D4",
          "ticks": 206400,
          "time": 132.8816968708333,
          "velocity": 0.6141732283464567
        },
        {
          "duration": 0.75,
          "durationTicks": 960,
          "midi": 67,
          "name": "G4",
          "ticks": 206400,
          "time": 132.8816968708333,
          "velocity": 0.6141732283464567
        },
        {
          "duration": 0.75,
          "durationTicks": 960,
          "midi": 71,
          "name": "B4",
          "ticks": 206400,
          "time": 132.8816968708333,
          "velocity": 0.6141732283464567
        },
        {
          "duration": 0.75,
          "durationTicks": 960,
          "midi": 74,
          "name": "D5",
          "ticks": 206400,
          "time": 132.8816968708333,
          "velocity": 0.6141732283464567
        },
        {
          "duration": 0.75,
          "durationTicks": 960,
          "midi": 35,
          "name": "B1",
          "ticks": 206400,
          "time": 132.8816968708333,
          "velocity": 0.6299212598425197
        },
        {
          "duration": 0.75,
          "durationTicks": 960,
          "midi": 47,
          "name": "B2",
          "ticks": 206400,
          "time": 132.8816968708333,
          "velocity": 0.6299212598425197
        },
        {
          "duration": 2.25,
          "durationTicks": 2880,
          "midi": 62,
          "name": "D4",
          "ticks": 207360,
          "time": 133.6316968708333,
          "velocity": 0.5984251968503937
        },
        {
          "duration": 2.25,
          "durationTicks": 2880,
          "midi": 67,
          "name": "G4",
          "ticks": 207360,
          "time": 133.6316968708333,
          "velocity": 0.5984251968503937
        },
        {
          "duration": 2.25,
          "durationTicks": 2880,
          "midi": 71,
          "name": "B4",
          "ticks": 207360,
          "time": 133.6316968708333,
          "velocity": 0.5984251968503937
        },
        {
          "duration": 2.25,
          "durationTicks": 2880,
          "midi": 74,
          "name": "D5",
          "ticks": 207360,
          "time": 133.6316968708333,
          "velocity": 0.5984251968503937
        },
        {
          "duration": 2.25,
          "durationTicks": 2880,
          "midi": 35,
          "name": "B1",
          "ticks": 207360,
          "time": 133.6316968708333,
          "velocity": 0.6220472440944882
        },
        {
          "duration": 2.25,
          "durationTicks": 2880,
          "midi": 47,
          "name": "B2",
          "ticks": 207360,
          "time": 133.6316968708333,
          "velocity": 0.6220472440944882
        },
        {
          "duration": 0.75,
          "durationTicks": 960,
          "midi": 64,
          "name": "E4",
          "ticks": 210240,
          "time": 135.8816968708333,
          "velocity": 0.6377952755905512
        },
        {
          "duration": 0.75,
          "durationTicks": 960,
          "midi": 69,
          "name": "A4",
          "ticks": 210240,
          "time": 135.8816968708333,
          "velocity": 0.6377952755905512
        },
        {
          "duration": 0.75,
          "durationTicks": 960,
          "midi": 72,
          "name": "C5",
          "ticks": 210240,
          "time": 135.8816968708333,
          "velocity": 0.6377952755905512
        },
        {
          "duration": 0.75,
          "durationTicks": 960,
          "midi": 76,
          "name": "E5",
          "ticks": 210240,
          "time": 135.8816968708333,
          "velocity": 0.6377952755905512
        },
        {
          "duration": 0.75,
          "durationTicks": 960,
          "midi": 36,
          "name": "C2",
          "ticks": 210240,
          "time": 135.8816968708333,
          "velocity": 0.6220472440944882
        },
        {
          "duration": 0.75,
          "durationTicks": 960,
          "midi": 48,
          "name": "C3",
          "ticks": 210240,
          "time": 135.8816968708333,
          "velocity": 0.6220472440944882
        },
        {
          "duration": 2.25,
          "durationTicks": 2880,
          "midi": 64,
          "name": "E4",
          "ticks": 211200,
          "time": 136.6316968708333,
          "velocity": 0.6141732283464567
        },
        {
          "duration": 2.25,
          "durationTicks": 2880,
          "midi": 69,
          "name": "A4",
          "ticks": 211200,
          "time": 136.6316968708333,
          "velocity": 0.6141732283464567
        },
        {
          "duration": 2.25,
          "durationTicks": 2880,
          "midi": 72,
          "name": "C5",
          "ticks": 211200,
          "time": 136.6316968708333,
          "velocity": 0.6141732283464567
        },
        {
          "duration": 2.25,
          "durationTicks": 2880,
          "midi": 76,
          "name": "E5",
          "ticks": 211200,
          "time": 136.6316968708333,
          "velocity": 0.6141732283464567
        },
        {
          "duration": 2.25,
          "durationTicks": 2880,
          "midi": 36,
          "name": "C2",
          "ticks": 211200,
          "time": 136.6316968708333,
          "velocity": 0.6377952755905512
        },
        {
          "duration": 2.25,
          "durationTicks": 2880,
          "midi": 48,
          "name": "C3",
          "ticks": 211200,
          "time": 136.6316968708333,
          "velocity": 0.6377952755905512
        },
        {
          "duration": 0.75,
          "durationTicks": 960,
          "midi": 62,
          "name": "D4",
          "ticks": 214080,
          "time": 138.8816968708333,
          "velocity": 0.5590551181102362
        },
        {
          "duration": 0.75,
          "durationTicks": 960,
          "midi": 67,
          "name": "G4",
          "ticks": 214080,
          "time": 138.8816968708333,
          "velocity": 0.5590551181102362
        },
        {
          "duration": 0.75,
          "durationTicks": 960,
          "midi": 72,
          "name": "C5",
          "ticks": 214080,
          "time": 138.8816968708333,
          "velocity": 0.5590551181102362
        },
        {
          "duration": 0.75,
          "durationTicks": 960,
          "midi": 74,
          "name": "D5",
          "ticks": 214080,
          "time": 138.8816968708333,
          "velocity": 0.5590551181102362
        },
        {
          "duration": 0.75,
          "durationTicks": 960,
          "midi": 31,
          "name": "G1",
          "ticks": 214080,
          "time": 138.8816968708333,
          "velocity": 0.5590551181102362
        },
        {
          "duration": 0.75,
          "durationTicks": 960,
          "midi": 43,
          "name": "G2",
          "ticks": 214080,
          "time": 138.8816968708333,
          "velocity": 0.5590551181102362
        },
        {
          "duration": 2.25,
          "durationTicks": 2880,
          "midi": 62,
          "name": "D4",
          "ticks": 215040,
          "time": 139.6316968708333,
          "velocity": 0.5433070866141733
        },
        {
          "duration": 2.25,
          "durationTicks": 2880,
          "midi": 67,
          "name": "G4",
          "ticks": 215040,
          "time": 139.6316968708333,
          "velocity": 0.5433070866141733
        },
        {
          "duration": 2.25,
          "durationTicks": 2880,
          "midi": 71,
          "name": "B4",
          "ticks": 215040,
          "time": 139.6316968708333,
          "velocity": 0.5433070866141733
        },
        {
          "duration": 2.25,
          "durationTicks": 2880,
          "midi": 74,
          "name": "D5",
          "ticks": 215040,
          "time": 139.6316968708333,
          "velocity": 0.5433070866141733
        },
        {
          "duration": 2.25,
          "durationTicks": 2880,
          "midi": 31,
          "name": "G1",
          "ticks": 215040,
          "time": 139.6316968708333,
          "velocity": 0.6062992125984252
        },
        {
          "duration": 2.25,
          "durationTicks": 2880,
          "midi": 43,
          "name": "G2",
          "ticks": 215040,
          "time": 139.6316968708333,
          "velocity": 0.6062992125984252
        },
        {
          "duration": 0.75,
          "durationTicks": 960,
          "midi": 69,
          "name": "A4",
          "ticks": 217920,
          "time": 141.8816968708333,
          "velocity": 0.7322834645669292
        },
        {
          "duration": 0.75,
          "durationTicks": 960,
          "midi": 72,
          "name": "C5",
          "ticks": 217920,
          "time": 141.8816968708333,
          "velocity": 0.7322834645669292
        },
        {
          "duration": 0.75,
          "durationTicks": 960,
          "midi": 76,
          "name": "E5",
          "ticks": 217920,
          "time": 141.8816968708333,
          "velocity": 0.7322834645669292
        },
        {
          "duration": 0.75,
          "durationTicks": 960,
          "midi": 81,
          "name": "A5",
          "ticks": 217920,
          "time": 141.8816968708333,
          "velocity": 0.7322834645669292
        },
        {
          "duration": 0.1875,
          "durationTicks": 240,
          "midi": 33,
          "name": "A1",
          "ticks": 217920,
          "time": 141.8816968708333,
          "velocity": 0.5433070866141733
        },
        {
          "duration": 0.1875,
          "durationTicks": 240,
          "midi": 45,
          "name": "A2",
          "ticks": 218160,
          "time": 142.0691968708333,
          "velocity": 0.6929133858267716
        },
        {
          "duration": 0.1875,
          "durationTicks": 240,
          "midi": 48,
          "name": "C3",
          "ticks": 218400,
          "time": 142.2566968708333,
          "velocity": 0.6377952755905512
        },
        {
          "duration": 0.1875,
          "durationTicks": 240,
          "midi": 52,
          "name": "E3",
          "ticks": 218640,
          "time": 142.4441968708333,
          "velocity": 0.6456692913385826
        },
        {
          "duration": 0.75,
          "durationTicks": 960,
          "midi": 69,
          "name": "A4",
          "ticks": 218880,
          "time": 142.6316968708333,
          "velocity": 0.6220472440944882
        },
        {
          "duration": 0.75,
          "durationTicks": 960,
          "midi": 72,
          "name": "C5",
          "ticks": 218880,
          "time": 142.6316968708333,
          "velocity": 0.6220472440944882
        },
        {
          "duration": 0.75,
          "durationTicks": 960,
          "midi": 76,
          "name": "E5",
          "ticks": 218880,
          "time": 142.6316968708333,
          "velocity": 0.6220472440944882
        },
        {
          "duration": 0.75,
          "durationTicks": 960,
          "midi": 81,
          "name": "A5",
          "ticks": 218880,
          "time": 142.6316968708333,
          "velocity": 0.6220472440944882
        },
        {
          "duration": 0.1875,
          "durationTicks": 240,
          "midi": 57,
          "name": "A3",
          "ticks": 218880,
          "time": 142.6316968708333,
          "velocity": 0.6220472440944882
        },
        {
          "duration": 0.1875,
          "durationTicks": 240,
          "midi": 60,
          "name": "C4",
          "ticks": 219120,
          "time": 142.8191968708333,
          "velocity": 0.6377952755905512
        },
        {
          "duration": 0.1875,
          "durationTicks": 240,
          "midi": 64,
          "name": "E4",
          "ticks": 219360,
          "time": 143.0066968708333,
          "velocity": 0.6614173228346457
        },
        {
          "duration": 0.1875,
          "durationTicks": 240,
          "midi": 57,
          "name": "A3",
          "ticks": 219600,
          "time": 143.1941968708333,
          "velocity": 0.6062992125984252
        },
        {
          "duration": 0.1875,
          "durationTicks": 240,
          "midi": 93,
          "name": "A6",
          "ticks": 219840,
          "time": 143.3816968708333,
          "velocity": 0.7716535433070866
        },
        {
          "duration": 0.1875,
          "durationTicks": 240,
          "midi": 64,
          "name": "E4",
          "ticks": 219840,
          "time": 143.3816968708333,
          "velocity": 0.7086614173228346
        },
        {
          "duration": 0.1875,
          "durationTicks": 240,
          "midi": 88,
          "name": "E6",
          "ticks": 220080,
          "time": 143.5691968708333,
          "velocity": 0.5748031496062992
        },
        {
          "duration": 0.1875,
          "durationTicks": 240,
          "midi": 69,
          "name": "A4",
          "ticks": 220080,
          "time": 143.5691968708333,
          "velocity": 0.6771653543307087
        },
        {
          "duration": 0.1875,
          "durationTicks": 240,
          "midi": 84,
          "name": "C6",
          "ticks": 220320,
          "time": 143.7566968708333,
          "velocity": 0.5354330708661418
        },
        {
          "duration": 0.1875,
          "durationTicks": 240,
          "midi": 64,
          "name": "E4",
          "ticks": 220320,
          "time": 143.7566968708333,
          "velocity": 0.5433070866141733
        },
        {
          "duration": 0.1875,
          "durationTicks": 240,
          "midi": 81,
          "name": "A5",
          "ticks": 220560,
          "time": 143.9441968708333,
          "velocity": 0.5354330708661418
        },
        {
          "duration": 0.1875,
          "durationTicks": 240,
          "midi": 60,
          "name": "C4",
          "ticks": 220560,
          "time": 143.9441968708333,
          "velocity": 0.5275590551181102
        },
        {
          "duration": 0.1875,
          "durationTicks": 240,
          "midi": 76,
          "name": "E5",
          "ticks": 220800,
          "time": 144.1316968708333,
          "velocity": 0.5354330708661418
        },
        {
          "duration": 0.1875,
          "durationTicks": 240,
          "midi": 57,
          "name": "A3",
          "ticks": 220800,
          "time": 144.1316968708333,
          "velocity": 0.5905511811023622
        },
        {
          "duration": 0.1875,
          "durationTicks": 240,
          "midi": 72,
          "name": "C5",
          "ticks": 221040,
          "time": 144.3191968708333,
          "velocity": 0.5118110236220472
        },
        {
          "duration": 0.1875,
          "durationTicks": 240,
          "midi": 52,
          "name": "E3",
          "ticks": 221040,
          "time": 144.3191968708333,
          "velocity": 0.5748031496062992
        },
        {
          "duration": 0.375,
          "durationTicks": 480,
          "midi": 69,
          "name": "A4",
          "ticks": 221280,
          "time": 144.5066968708333,
          "velocity": 0.7322834645669292
        },
        {
          "duration": 0.375,
          "durationTicks": 480,
          "midi": 81,
          "name": "A5",
          "ticks": 221280,
          "time": 144.5066968708333,
          "velocity": 0.7322834645669292
        },
        {
          "duration": 0.1875,
          "durationTicks": 240,
          "midi": 45,
          "name": "A2",
          "ticks": 221280,
          "time": 144.5066968708333,
          "velocity": 0.5118110236220472
        },
        {
          "duration": 0.1875,
          "durationTicks": 240,
          "midi": 57,
          "name": "A3",
          "ticks": 221520,
          "time": 144.6941968708333,
          "velocity": 0.6456692913385826
        },
        {
          "duration": 0.75,
          "durationTicks": 960,
          "midi": 72,
          "name": "C5",
          "ticks": 221760,
          "time": 144.8816968708333,
          "velocity": 0.6692913385826772
        },
        {
          "duration": 0.75,
          "durationTicks": 960,
          "midi": 84,
          "name": "C6",
          "ticks": 221760,
          "time": 144.8816968708333,
          "velocity": 0.6692913385826772
        },
        {
          "duration": 0.1875,
          "durationTicks": 240,
          "midi": 41,
          "name": "F2",
          "ticks": 221760,
          "time": 144.8816968708333,
          "velocity": 0.5196850393700787
        },
        {
          "duration": 0.1875,
          "durationTicks": 240,
          "midi": 53,
          "name": "F3",
          "ticks": 222000,
          "time": 145.0691968708333,
          "velocity": 0.6614173228346457
        },
        {
          "duration": 0.1875,
          "durationTicks": 240,
          "midi": 57,
          "name": "A3",
          "ticks": 222240,
          "time": 145.2566968708333,
          "velocity": 0.6456692913385826
        },
        {
          "duration": 0.1875,
          "durationTicks": 240,
          "midi": 60,
          "name": "C4",
          "ticks": 222480,
          "time": 145.4441968708333,
          "velocity": 0.6377952755905512
        },
        {
          "duration": 0.75,
          "durationTicks": 960,
          "midi": 69,
          "name": "A4",
          "ticks": 222720,
          "time": 145.6316968708333,
          "velocity": 0.5590551181102362
        },
        {
          "duration": 0.75,
          "durationTicks": 960,
          "midi": 72,
          "name": "C5",
          "ticks": 222720,
          "time": 145.6316968708333,
          "velocity": 0.5590551181102362
        },
        {
          "duration": 0.75,
          "durationTicks": 960,
          "midi": 76,
          "name": "E5",
          "ticks": 222720,
          "time": 145.6316968708333,
          "velocity": 0.5590551181102362
        },
        {
          "duration": 0.75,
          "durationTicks": 960,
          "midi": 81,
          "name": "A5",
          "ticks": 222720,
          "time": 145.6316968708333,
          "velocity": 0.5590551181102362
        },
        {
          "duration": 0.1875,
          "durationTicks": 240,
          "midi": 65,
          "name": "F4",
          "ticks": 222720,
          "time": 145.6316968708333,
          "velocity": 0.7244094488188977
        },
        {
          "duration": 0.1875,
          "durationTicks": 240,
          "midi": 60,
          "name": "C4",
          "ticks": 222960,
          "time": 145.8191968708333,
          "velocity": 0.5196850393700787
        },
        {
          "duration": 0.1875,
          "durationTicks": 240,
          "midi": 53,
          "name": "F3",
          "ticks": 223200,
          "time": 146.0066968708333,
          "velocity": 0.4881889763779528
        },
        {
          "duration": 0.1875,
          "durationTicks": 240,
          "midi": 60,
          "name": "C4",
          "ticks": 223440,
          "time": 146.1941968708333,
          "velocity": 0.6771653543307087
        },
        {
          "duration": 0.1875,
          "durationTicks": 240,
          "midi": 93,
          "name": "A6",
          "ticks": 223680,
          "time": 146.3816968708333,
          "velocity": 0.7637795275590551
        },
        {
          "duration": 0.1875,
          "durationTicks": 240,
          "midi": 69,
          "name": "A4",
          "ticks": 223680,
          "time": 146.3816968708333,
          "velocity": 0.7480314960629921
        },
        {
          "duration": 0.1875,
          "durationTicks": 240,
          "midi": 88,
          "name": "E6",
          "ticks": 223920,
          "time": 146.5691968708333,
          "velocity": 0.5511811023622047
        },
        {
          "duration": 0.1875,
          "durationTicks": 240,
          "midi": 60,
          "name": "C4",
          "ticks": 223920,
          "time": 146.5691968708333,
          "velocity": 0.49606299212598426
        },
        {
          "duration": 0.1875,
          "durationTicks": 240,
          "midi": 84,
          "name": "C6",
          "ticks": 224160,
          "time": 146.7566968708333,
          "velocity": 0.5433070866141733
        },
        {
          "duration": 0.1875,
          "durationTicks": 240,
          "midi": 53,
          "name": "F3",
          "ticks": 224160,
          "time": 146.7566968708333,
          "velocity": 0.5118110236220472
        },
        {
          "duration": 0.1875,
          "durationTicks": 240,
          "midi": 81,
          "name": "A5",
          "ticks": 224400,
          "time": 146.9441968708333,
          "velocity": 0.5275590551181102
        },
        {
          "duration": 0.1875,
          "durationTicks": 240,
          "midi": 60,
          "name": "C4",
          "ticks": 224400,
          "time": 146.9441968708333,
          "velocity": 0.6929133858267716
        },
        {
          "duration": 0.1875,
          "durationTicks": 240,
          "midi": 76,
          "name": "E5",
          "ticks": 224640,
          "time": 147.1316968708333,
          "velocity": 0.4881889763779528
        },
        {
          "duration": 0.1875,
          "durationTicks": 240,
          "midi": 65,
          "name": "F4",
          "ticks": 224640,
          "time": 147.1316968708333,
          "velocity": 0.7086614173228346
        },
        {
          "duration": 0.1875,
          "durationTicks": 240,
          "midi": 72,
          "name": "C5",
          "ticks": 224880,
          "time": 147.3191968708333,
          "velocity": 0.5196850393700787
        },
        {
          "duration": 0.1875,
          "durationTicks": 240,
          "midi": 60,
          "name": "C4",
          "ticks": 224880,
          "time": 147.3191968708333,
          "velocity": 0.5275590551181102
        },
        {
          "duration": 0.375,
          "durationTicks": 480,
          "midi": 69,
          "name": "A4",
          "ticks": 225120,
          "time": 147.5066968708333,
          "velocity": 0.6929133858267716
        },
        {
          "duration": 0.375,
          "durationTicks": 480,
          "midi": 81,
          "name": "A5",
          "ticks": 225120,
          "time": 147.5066968708333,
          "velocity": 0.6929133858267716
        },
        {
          "duration": 0.1875,
          "durationTicks": 240,
          "midi": 57,
          "name": "A3",
          "ticks": 225120,
          "time": 147.5066968708333,
          "velocity": 0.5748031496062992
        },
        {
          "duration": 0.1875,
          "durationTicks": 240,
          "midi": 60,
          "name": "C4",
          "ticks": 225360,
          "time": 147.6941968708333,
          "velocity": 0.6377952755905512
        },
        {
          "duration": 0.75,
          "durationTicks": 960,
          "midi": 74,
          "name": "D5",
          "ticks": 225600,
          "time": 147.8816968708333,
          "velocity": 0.6929133858267716
        },
        {
          "duration": 0.75,
          "durationTicks": 960,
          "midi": 76,
          "name": "E5",
          "ticks": 225600,
          "time": 147.8816968708333,
          "velocity": 0.6929133858267716
        },
        {
          "duration": 0.75,
          "durationTicks": 960,
          "midi": 79,
          "name": "G5",
          "ticks": 225600,
          "time": 147.8816968708333,
          "velocity": 0.6929133858267716
        },
        {
          "duration": 0.75,
          "durationTicks": 960,
          "midi": 86,
          "name": "D6",
          "ticks": 225600,
          "time": 147.8816968708333,
          "velocity": 0.6929133858267716
        },
        {
          "duration": 0.1875,
          "durationTicks": 240,
          "midi": 45,
          "name": "A2",
          "ticks": 225600,
          "time": 147.8816968708333,
          "velocity": 0.5433070866141733
        },
        {
          "duration": 0.1875,
          "durationTicks": 240,
          "midi": 57,
          "name": "A3",
          "ticks": 225840,
          "time": 148.0691968708333,
          "velocity": 0.6692913385826772
        },
        {
          "duration": 0.1875,
          "durationTicks": 240,
          "midi": 57,
          "name": "A3",
          "ticks": 226080,
          "time": 148.2566968708333,
          "velocity": 0.6062992125984252
        },
        {
          "duration": 0.1875,
          "durationTicks": 240,
          "midi": 64,
          "name": "E4",
          "ticks": 226320,
          "time": 148.4441968708333,
          "velocity": 0.7165354330708661
        },
        {
          "duration": 0.75,
          "durationTicks": 960,
          "midi": 71,
          "name": "B4",
          "ticks": 226560,
          "time": 148.6316968708333,
          "velocity": 0.5669291338582677
        },
        {
          "duration": 0.75,
          "durationTicks": 960,
          "midi": 74,
          "name": "D5",
          "ticks": 226560,
          "time": 148.6316968708333,
          "velocity": 0.5669291338582677
        },
        {
          "duration": 0.75,
          "durationTicks": 960,
          "midi": 76,
          "name": "E5",
          "ticks": 226560,
          "time": 148.6316968708333,
          "velocity": 0.5669291338582677
        },
        {
          "duration": 0.75,
          "durationTicks": 960,
          "midi": 83,
          "name": "B5",
          "ticks": 226560,
          "time": 148.6316968708333,
          "velocity": 0.5669291338582677
        },
        {
          "duration": 0.1875,
          "durationTicks": 240,
          "midi": 69,
          "name": "A4",
          "ticks": 226560,
          "time": 148.6316968708333,
          "velocity": 0.7086614173228346
        },
        {
          "duration": 0.1875,
          "durationTicks": 240,
          "midi": 64,
          "name": "E4",
          "ticks": 226800,
          "time": 148.8191968708333,
          "velocity": 0.5118110236220472
        },
        {
          "duration": 0.1875,
          "durationTicks": 240,
          "midi": 57,
          "name": "A3",
          "ticks": 227040,
          "time": 149.0066968708333,
          "velocity": 0.5118110236220472
        },
        {
          "duration": 0.1875,
          "durationTicks": 240,
          "midi": 64,
          "name": "E4",
          "ticks": 227280,
          "time": 149.1941968708333,
          "velocity": 0.6850393700787402
        },
        {
          "duration": 0.1875,
          "durationTicks": 240,
          "midi": 95,
          "name": "B6",
          "ticks": 227520,
          "time": 149.3816968708333,
          "velocity": 0.7559055118110236
        },
        {
          "duration": 0.1875,
          "durationTicks": 240,
          "midi": 72,
          "name": "C5",
          "ticks": 227520,
          "time": 149.3816968708333,
          "velocity": 0.7244094488188977
        },
        {
          "duration": 0.1875,
          "durationTicks": 240,
          "midi": 88,
          "name": "E6",
          "ticks": 227760,
          "time": 149.5691968708333,
          "velocity": 0.5039370078740157
        },
        {
          "duration": 0.1875,
          "durationTicks": 240,
          "midi": 64,
          "name": "E4",
          "ticks": 227760,
          "time": 149.5691968708333,
          "velocity": 0.5275590551181102
        },
        {
          "duration": 0.1875,
          "durationTicks": 240,
          "midi": 84,
          "name": "C6",
          "ticks": 228000,
          "time": 149.7566968708333,
          "velocity": 0.5196850393700787
        },
        {
          "duration": 0.1875,
          "durationTicks": 240,
          "midi": 57,
          "name": "A3",
          "ticks": 228000,
          "time": 149.7566968708333,
          "velocity": 0.5039370078740157
        },
        {
          "duration": 0.1875,
          "durationTicks": 240,
          "midi": 83,
          "name": "B5",
          "ticks": 228240,
          "time": 149.9441968708333,
          "velocity": 0.5669291338582677
        },
        {
          "duration": 0.1875,
          "durationTicks": 240,
          "midi": 64,
          "name": "E4",
          "ticks": 228240,
          "time": 149.9441968708333,
          "velocity": 0.7401574803149606
        },
        {
          "duration": 0.1875,
          "durationTicks": 240,
          "midi": 76,
          "name": "E5",
          "ticks": 228480,
          "time": 150.1316968708333,
          "velocity": 0.4881889763779528
        },
        {
          "duration": 0.1875,
          "durationTicks": 240,
          "midi": 69,
          "name": "A4",
          "ticks": 228480,
          "time": 150.1316968708333,
          "velocity": 0.7007874015748031
        },
        {
          "duration": 0.1875,
          "durationTicks": 240,
          "midi": 72,
          "name": "C5",
          "ticks": 228720,
          "time": 150.3191968708333,
          "velocity": 0.5118110236220472
        },
        {
          "duration": 0.1875,
          "durationTicks": 240,
          "midi": 64,
          "name": "E4",
          "ticks": 228720,
          "time": 150.3191968708333,
          "velocity": 0.5433070866141733
        },
        {
          "duration": 0.375,
          "durationTicks": 480,
          "midi": 69,
          "name": "A4",
          "ticks": 228960,
          "time": 150.5066968708333,
          "velocity": 0.7244094488188977
        },
        {
          "duration": 0.375,
          "durationTicks": 480,
          "midi": 81,
          "name": "A5",
          "ticks": 228960,
          "time": 150.5066968708333,
          "velocity": 0.7244094488188977
        },
        {
          "duration": 0.1875,
          "durationTicks": 240,
          "midi": 57,
          "name": "A3",
          "ticks": 228960,
          "time": 150.5066968708333,
          "velocity": 0.5118110236220472
        },
        {
          "duration": 0.1875,
          "durationTicks": 240,
          "midi": 64,
          "name": "E4",
          "ticks": 229200,
          "time": 150.6941968708333,
          "velocity": 0.7244094488188977
        },
        {
          "duration": 0.75,
          "durationTicks": 960,
          "midi": 72,
          "name": "C5",
          "ticks": 229440,
          "time": 150.8816968708333,
          "velocity": 0.6299212598425197
        },
        {
          "duration": 0.75,
          "durationTicks": 960,
          "midi": 77,
          "name": "F5",
          "ticks": 229440,
          "time": 150.8816968708333,
          "velocity": 0.6299212598425197
        },
        {
          "duration": 0.75,
          "durationTicks": 960,
          "midi": 81,
          "name": "A5",
          "ticks": 229440,
          "time": 150.8816968708333,
          "velocity": 0.6299212598425197
        },
        {
          "duration": 0.75,
          "durationTicks": 960,
          "midi": 84,
          "name": "C6",
          "ticks": 229440,
          "time": 150.8816968708333,
          "velocity": 0.6299212598425197
        },
        {
          "duration": 0.1875,
          "durationTicks": 240,
          "midi": 38,
          "name": "D2",
          "ticks": 229440,
          "time": 150.8816968708333,
          "velocity": 0.5196850393700787
        },
        {
          "duration": 0.1875,
          "durationTicks": 240,
          "midi": 50,
          "name": "D3",
          "ticks": 229680,
          "time": 151.0691968708333,
          "velocity": 0.6771653543307087
        },
        {
          "duration": 0.1875,
          "durationTicks": 240,
          "midi": 50,
          "name": "D3",
          "ticks": 229920,
          "time": 151.2566968708333,
          "velocity": 0.6299212598425197
        },
        {
          "duration": 0.1875,
          "durationTicks": 240,
          "midi": 57,
          "name": "A3",
          "ticks": 230160,
          "time": 151.4441968708333,
          "velocity": 0.6535433070866141
        },
        {
          "duration": 0.75,
          "durationTicks": 960,
          "midi": 71,
          "name": "B4",
          "ticks": 230400,
          "time": 151.6316968708333,
          "velocity": 0.5748031496062992
        },
        {
          "duration": 0.75,
          "durationTicks": 960,
          "midi": 77,
          "name": "F5",
          "ticks": 230400,
          "time": 151.6316968708333,
          "velocity": 0.5748031496062992
        },
        {
          "duration": 0.75,
          "durationTicks": 960,
          "midi": 81,
          "name": "A5",
          "ticks": 230400,
          "time": 151.6316968708333,
          "velocity": 0.5748031496062992
        },
        {
          "duration": 0.75,
          "durationTicks": 960,
          "midi": 83,
          "name": "B5",
          "ticks": 230400,
          "time": 151.6316968708333,
          "velocity": 0.5748031496062992
        },
        {
          "duration": 0.1875,
          "durationTicks": 240,
          "midi": 62,
          "name": "D4",
          "ticks": 230400,
          "time": 151.6316968708333,
          "velocity": 0.7165354330708661
        },
        {
          "duration": 0.1875,
          "durationTicks": 240,
          "midi": 57,
          "name": "A3",
          "ticks": 230640,
          "time": 151.8191968708333,
          "velocity": 0.5826771653543307
        },
        {
          "duration": 0.1875,
          "durationTicks": 240,
          "midi": 50,
          "name": "D3",
          "ticks": 230880,
          "time": 152.0066968708333,
          "velocity": 0.5433070866141733
        },
        {
          "duration": 0.1875,
          "durationTicks": 240,
          "midi": 57,
          "name": "A3",
          "ticks": 231120,
          "time": 152.1941968708333,
          "velocity": 0.6456692913385826
        },
        {
          "duration": 0.1875,
          "durationTicks": 240,
          "midi": 100,
          "name": "E7",
          "ticks": 231360,
          "time": 152.3816968708333,
          "velocity": 0.6771653543307087
        },
        {
          "duration": 0.1875,
          "durationTicks": 240,
          "midi": 40,
          "name": "E2",
          "ticks": 231360,
          "time": 152.3816968708333,
          "velocity": 0.5354330708661418
        },
        {
          "duration": 0.1875,
          "durationTicks": 240,
          "midi": 95,
          "name": "B6",
          "ticks": 231600,
          "time": 152.5691968708333,
          "velocity": 0.5275590551181102
        },
        {
          "duration": 0.1875,
          "durationTicks": 240,
          "midi": 52,
          "name": "E3",
          "ticks": 231600,
          "time": 152.5691968708333,
          "velocity": 0.6535433070866141
        },
        {
          "duration": 0.1875,
          "durationTicks": 240,
          "midi": 92,
          "name": "G#6",
          "ticks": 231840,
          "time": 152.7566968708333,
          "velocity": 0.5196850393700787
        },
        {
          "duration": 0.1875,
          "durationTicks": 240,
          "midi": 52,
          "name": "E3",
          "ticks": 231840,
          "time": 152.7566968708333,
          "velocity": 0.6062992125984252
        },
        {
          "duration": 0.1875,
          "durationTicks": 240,
          "midi": 88,
          "name": "E6",
          "ticks": 232080,
          "time": 152.9441968708333,
          "velocity": 0.5669291338582677
        },
        {
          "duration": 0.1875,
          "durationTicks": 240,
          "midi": 59,
          "name": "B3",
          "ticks": 232080,
          "time": 152.9441968708333,
          "velocity": 0.6771653543307087
        },
        {
          "duration": 0.1875,
          "durationTicks": 240,
          "midi": 86,
          "name": "D6",
          "ticks": 232320,
          "time": 153.1316968708333,
          "velocity": 0.5433070866141733
        },
        {
          "duration": 0.1875,
          "durationTicks": 240,
          "midi": 64,
          "name": "E4",
          "ticks": 232320,
          "time": 153.1316968708333,
          "velocity": 0.7086614173228346
        },
        {
          "duration": 0.1875,
          "durationTicks": 240,
          "midi": 80,
          "name": "G#5",
          "ticks": 232560,
          "time": 153.3191968708333,
          "velocity": 0.49606299212598426
        },
        {
          "duration": 0.1875,
          "durationTicks": 240,
          "midi": 59,
          "name": "B3",
          "ticks": 232560,
          "time": 153.3191968708333,
          "velocity": 0.5511811023622047
        },
        {
          "duration": 0.375,
          "durationTicks": 480,
          "midi": 76,
          "name": "E5",
          "ticks": 232800,
          "time": 153.5066968708333,
          "velocity": 0.7007874015748031
        },
        {
          "duration": 0.375,
          "durationTicks": 480,
          "midi": 88,
          "name": "E6",
          "ticks": 232800,
          "time": 153.5066968708333,
          "velocity": 0.7007874015748031
        },
        {
          "duration": 0.1875,
          "durationTicks": 240,
          "midi": 52,
          "name": "E3",
          "ticks": 232800,
          "time": 153.5066968708333,
          "velocity": 0.5433070866141733
        },
        {
          "duration": 0.1875,
          "durationTicks": 240,
          "midi": 59,
          "name": "B3",
          "ticks": 233040,
          "time": 153.6941968708333,
          "velocity": 0.6456692913385826
        },
        {
          "duration": 0.75,
          "durationTicks": 960,
          "midi": 77,
          "name": "F5",
          "ticks": 233280,
          "time": 153.8816968708333,
          "velocity": 0.7559055118110236
        },
        {
          "duration": 0.75,
          "durationTicks": 960,
          "midi": 81,
          "name": "A5",
          "ticks": 233280,
          "time": 153.8816968708333,
          "velocity": 0.7559055118110236
        },
        {
          "duration": 0.75,
          "durationTicks": 960,
          "midi": 84,
          "name": "C6",
          "ticks": 233280,
          "time": 153.8816968708333,
          "velocity": 0.7559055118110236
        },
        {
          "duration": 0.75,
          "durationTicks": 960,
          "midi": 89,
          "name": "F6",
          "ticks": 233280,
          "time": 153.8816968708333,
          "velocity": 0.7559055118110236
        },
        {
          "duration": 0.1875,
          "durationTicks": 240,
          "midi": 45,
          "name": "A2",
          "ticks": 233280,
          "time": 153.8816968708333,
          "velocity": 0.5354330708661418
        },
        {
          "duration": 0.1875,
          "durationTicks": 240,
          "midi": 57,
          "name": "A3",
          "ticks": 233520,
          "time": 154.0691968708333,
          "velocity": 0.6456692913385826
        },
        {
          "duration": 0.1875,
          "durationTicks": 240,
          "midi": 57,
          "name": "A3",
          "ticks": 233760,
          "time": 154.2566968708333,
          "velocity": 0.5905511811023622
        },
        {
          "duration": 0.1875,
          "durationTicks": 240,
          "midi": 64,
          "name": "E4",
          "ticks": 234000,
          "time": 154.4441968708333,
          "velocity": 0.6929133858267716
        },
        {
          "duration": 0.75,
          "durationTicks": 960,
          "midi": 76,
          "name": "E5",
          "ticks": 234240,
          "time": 154.6316968708333,
          "velocity": 0.5984251968503937
        },
        {
          "duration": 0.75,
          "durationTicks": 960,
          "midi": 81,
          "name": "A5",
          "ticks": 234240,
          "time": 154.6316968708333,
          "velocity": 0.5984251968503937
        },
        {
          "duration": 0.75,
          "durationTicks": 960,
          "midi": 84,
          "name": "C6",
          "ticks": 234240,
          "time": 154.6316968708333,
          "velocity": 0.5984251968503937
        },
        {
          "duration": 0.75,
          "durationTicks": 960,
          "midi": 88,
          "name": "E6",
          "ticks": 234240,
          "time": 154.6316968708333,
          "velocity": 0.5984251968503937
        },
        {
          "duration": 0.1875,
          "durationTicks": 240,
          "midi": 69,
          "name": "A4",
          "ticks": 234240,
          "time": 154.6316968708333,
          "velocity": 0.7007874015748031
        },
        {
          "duration": 0.1875,
          "durationTicks": 240,
          "midi": 64,
          "name": "E4",
          "ticks": 234480,
          "time": 154.8191968708333,
          "velocity": 0.5354330708661418
        },
        {
          "duration": 0.1875,
          "durationTicks": 240,
          "midi": 57,
          "name": "A3",
          "ticks": 234720,
          "time": 155.0066968708333,
          "velocity": 0.5039370078740157
        },
        {
          "duration": 0.1875,
          "durationTicks": 240,
          "midi": 64,
          "name": "E4",
          "ticks": 234960,
          "time": 155.1941968708333,
          "velocity": 0.6850393700787402
        },
        {
          "duration": 0.1875,
          "durationTicks": 240,
          "midi": 100,
          "name": "E7",
          "ticks": 235200,
          "time": 155.3816968708333,
          "velocity": 0.6299212598425197
        },
        {
          "duration": 0.1875,
          "durationTicks": 240,
          "midi": 72,
          "name": "C5",
          "ticks": 235200,
          "time": 155.3816968708333,
          "velocity": 0.7007874015748031
        },
        {
          "duration": 0.1875,
          "durationTicks": 240,
          "midi": 96,
          "name": "C7",
          "ticks": 235440,
          "time": 155.5691968708333,
          "velocity": 0.4881889763779528
        },
        {
          "duration": 0.1875,
          "durationTicks": 240,
          "midi": 64,
          "name": "E4",
          "ticks": 235440,
          "time": 155.5691968708333,
          "velocity": 0.5433070866141733
        },
        {
          "duration": 0.1875,
          "durationTicks": 240,
          "midi": 93,
          "name": "A6",
          "ticks": 235680,
          "time": 155.7566968708333,
          "velocity": 0.5354330708661418
        },
        {
          "duration": 0.1875,
          "durationTicks": 240,
          "midi": 57,
          "name": "A3",
          "ticks": 235680,
          "time": 155.7566968708333,
          "velocity": 0.5433070866141733
        },
        {
          "duration": 0.1875,
          "durationTicks": 240,
          "midi": 88,
          "name": "E6",
          "ticks": 235920,
          "time": 155.9441968708333,
          "velocity": 0.5354330708661418
        },
        {
          "duration": 0.1875,
          "durationTicks": 240,
          "midi": 64,
          "name": "E4",
          "ticks": 235920,
          "time": 155.9441968708333,
          "velocity": 0.7007874015748031
        },
        {
          "duration": 0.1875,
          "durationTicks": 240,
          "midi": 84,
          "name": "C6",
          "ticks": 236160,
          "time": 156.1316968708333,
          "velocity": 0.5275590551181102
        },
        {
          "duration": 0.1875,
          "durationTicks": 240,
          "midi": 69,
          "name": "A4",
          "ticks": 236160,
          "time": 156.1316968708333,
          "velocity": 0.6692913385826772
        },
        {
          "duration": 0.1875,
          "durationTicks": 240,
          "midi": 81,
          "name": "A5",
          "ticks": 236400,
          "time": 156.3191968708333,
          "velocity": 0.5039370078740157
        },
        {
          "duration": 0.1875,
          "durationTicks": 240,
          "midi": 64,
          "name": "E4",
          "ticks": 236400,
          "time": 156.3191968708333,
          "velocity": 0.5354330708661418
        },
        {
          "duration": 0.375,
          "durationTicks": 480,
          "midi": 76,
          "name": "E5",
          "ticks": 236640,
          "time": 156.5066968708333,
          "velocity": 0.7322834645669292
        },
        {
          "duration": 0.375,
          "durationTicks": 480,
          "midi": 88,
          "name": "E6",
          "ticks": 236640,
          "time": 156.5066968708333,
          "velocity": 0.7322834645669292
        },
        {
          "duration": 0.1875,
          "durationTicks": 240,
          "midi": 57,
          "name": "A3",
          "ticks": 236640,
          "time": 156.5066968708333,
          "velocity": 0.5590551181102362
        },
        {
          "duration": 0.1875,
          "durationTicks": 240,
          "midi": 64,
          "name": "E4",
          "ticks": 236880,
          "time": 156.6941968708333,
          "velocity": 0.7086614173228346
        },
        {
          "duration": 0.75,
          "durationTicks": 960,
          "midi": 79,
          "name": "G5",
          "ticks": 237120,
          "time": 156.8816968708333,
          "velocity": 0.7795275590551181
        },
        {
          "duration": 0.75,
          "durationTicks": 960,
          "midi": 83,
          "name": "B5",
          "ticks": 237120,
          "time": 156.8816968708333,
          "velocity": 0.7795275590551181
        },
        {
          "duration": 0.75,
          "durationTicks": 960,
          "midi": 88,
          "name": "E6",
          "ticks": 237120,
          "time": 156.8816968708333,
          "velocity": 0.7795275590551181
        },
        {
          "duration": 0.75,
          "durationTicks": 960,
          "midi": 91,
          "name": "G6",
          "ticks": 237120,
          "time": 156.8816968708333,
          "velocity": 0.7795275590551181
        },
        {
          "duration": 0.1875,
          "durationTicks": 240,
          "midi": 43,
          "name": "G2",
          "ticks": 237120,
          "time": 156.8816968708333,
          "velocity": 0.5196850393700787
        },
        {
          "duration": 0.1875,
          "durationTicks": 240,
          "midi": 55,
          "name": "G3",
          "ticks": 237360,
          "time": 157.0691968708333,
          "velocity": 0.6456692913385826
        },
        {
          "duration": 0.1875,
          "durationTicks": 240,
          "midi": 55,
          "name": "G3",
          "ticks": 237600,
          "time": 157.2566968708333,
          "velocity": 0.5905511811023622
        },
        {
          "duration": 0.1875,
          "durationTicks": 240,
          "midi": 64,
          "name": "E4",
          "ticks": 237840,
          "time": 157.4441968708333,
          "velocity": 0.7322834645669292
        },
        {
          "duration": 0.75,
          "durationTicks": 960,
          "midi": 79,
          "name": "G5",
          "ticks": 238080,
          "time": 157.6316968708333,
          "velocity": 0.6456692913385826
        },
        {
          "duration": 0.75,
          "durationTicks": 960,
          "midi": 83,
          "name": "B5",
          "ticks": 238080,
          "time": 157.6316968708333,
          "velocity": 0.6456692913385826
        },
        {
          "duration": 0.75,
          "durationTicks": 960,
          "midi": 88,
          "name": "E6",
          "ticks": 238080,
          "time": 157.6316968708333,
          "velocity": 0.6456692913385826
        },
        {
          "duration": 0.75,
          "durationTicks": 960,
          "midi": 91,
          "name": "G6",
          "ticks": 238080,
          "time": 157.6316968708333,
          "velocity": 0.6456692913385826
        },
        {
          "duration": 0.1875,
          "durationTicks": 240,
          "midi": 67,
          "name": "G4",
          "ticks": 238080,
          "time": 157.6316968708333,
          "velocity": 0.6692913385826772
        },
        {
          "duration": 0.1875,
          "durationTicks": 240,
          "midi": 64,
          "name": "E4",
          "ticks": 238320,
          "time": 157.8191968708333,
          "velocity": 0.5669291338582677
        },
        {
          "duration": 0.1875,
          "durationTicks": 240,
          "midi": 55,
          "name": "G3",
          "ticks": 238560,
          "time": 158.0066968708333,
          "velocity": 0.5433070866141733
        },
        {
          "duration": 0.1875,
          "durationTicks": 240,
          "midi": 64,
          "name": "E4",
          "ticks": 238800,
          "time": 158.1941968708333,
          "velocity": 0.7559055118110236
        },
        {
          "duration": 0.1875,
          "durationTicks": 240,
          "midi": 103,
          "name": "G7",
          "ticks": 239040,
          "time": 158.3816968708333,
          "velocity": 0.5984251968503937
        },
        {
          "duration": 0.1875,
          "durationTicks": 240,
          "midi": 71,
          "name": "B4",
          "ticks": 239040,
          "time": 158.3816968708333,
          "velocity": 0.7401574803149606
        },
        {
          "duration": 0.1875,
          "durationTicks": 240,
          "midi": 100,
          "name": "E7",
          "ticks": 239280,
          "time": 158.5691968708333,
          "velocity": 0.5511811023622047
        },
        {
          "duration": 0.1875,
          "durationTicks": 240,
          "midi": 64,
          "name": "E4",
          "ticks": 239280,
          "time": 158.5691968708333,
          "velocity": 0.5275590551181102
        },
        {
          "duration": 0.1875,
          "durationTicks": 240,
          "midi": 95,
          "name": "B6",
          "ticks": 239520,
          "time": 158.7566968708333,
          "velocity": 0.5118110236220472
        },
        {
          "duration": 0.1875,
          "durationTicks": 240,
          "midi": 55,
          "name": "G3",
          "ticks": 239520,
          "time": 158.7566968708333,
          "velocity": 0.5196850393700787
        },
        {
          "duration": 0.1875,
          "durationTicks": 240,
          "midi": 91,
          "name": "G6",
          "ticks": 239760,
          "time": 158.9441968708333,
          "velocity": 0.5354330708661418
        },
        {
          "duration": 0.1875,
          "durationTicks": 240,
          "midi": 64,
          "name": "E4",
          "ticks": 239760,
          "time": 158.9441968708333,
          "velocity": 0.7086614173228346
        },
        {
          "duration": 0.1875,
          "durationTicks": 240,
          "midi": 88,
          "name": "E6",
          "ticks": 240000,
          "time": 159.1316968708333,
          "velocity": 0.5275590551181102
        },
        {
          "duration": 0.1875,
          "durationTicks": 240,
          "midi": 67,
          "name": "G4",
          "ticks": 240000,
          "time": 159.1316968708333,
          "velocity": 0.6614173228346457
        },
        {
          "duration": 0.1875,
          "durationTicks": 240,
          "midi": 83,
          "name": "B5",
          "ticks": 240240,
          "time": 159.3191968708333,
          "velocity": 0.5275590551181102
        },
        {
          "duration": 0.1875,
          "durationTicks": 240,
          "midi": 64,
          "name": "E4",
          "ticks": 240240,
          "time": 159.3191968708333,
          "velocity": 0.5826771653543307
        },
        {
          "duration": 0.375,
          "durationTicks": 480,
          "midi": 76,
          "name": "E5",
          "ticks": 240480,
          "time": 159.5066968708333,
          "velocity": 0.6614173228346457
        },
        {
          "duration": 0.375,
          "durationTicks": 480,
          "midi": 88,
          "name": "E6",
          "ticks": 240480,
          "time": 159.5066968708333,
          "velocity": 0.6614173228346457
        },
        {
          "duration": 0.1875,
          "durationTicks": 240,
          "midi": 55,
          "name": "G3",
          "ticks": 240480,
          "time": 159.5066968708333,
          "velocity": 0.5196850393700787
        },
        {
          "duration": 0.1875,
          "durationTicks": 240,
          "midi": 64,
          "name": "E4",
          "ticks": 240720,
          "time": 159.6941968708333,
          "velocity": 0.7637795275590551
        },
        {
          "duration": 0.75,
          "durationTicks": 960,
          "midi": 77,
          "name": "F5",
          "ticks": 240960,
          "time": 159.8816968708333,
          "velocity": 0.7874015748031497
        },
        {
          "duration": 0.75,
          "durationTicks": 960,
          "midi": 81,
          "name": "A5",
          "ticks": 240960,
          "time": 159.8816968708333,
          "velocity": 0.7874015748031497
        },
        {
          "duration": 0.75,
          "durationTicks": 960,
          "midi": 84,
          "name": "C6",
          "ticks": 240960,
          "time": 159.8816968708333,
          "velocity": 0.7874015748031497
        },
        {
          "duration": 0.75,
          "durationTicks": 960,
          "midi": 89,
          "name": "F6",
          "ticks": 240960,
          "time": 159.8816968708333,
          "velocity": 0.7874015748031497
        },
        {
          "duration": 0.1875,
          "durationTicks": 240,
          "midi": 41,
          "name": "F2",
          "ticks": 240960,
          "time": 159.8816968708333,
          "velocity": 0.5275590551181102
        },
        {
          "duration": 0.1875,
          "durationTicks": 240,
          "midi": 53,
          "name": "F3",
          "ticks": 241200,
          "time": 160.0691968708333,
          "velocity": 0.6614173228346457
        },
        {
          "duration": 0.1875,
          "durationTicks": 240,
          "midi": 53,
          "name": "F3",
          "ticks": 241440,
          "time": 160.2566968708333,
          "velocity": 0.5984251968503937
        },
        {
          "duration": 0.1875,
          "durationTicks": 240,
          "midi": 60,
          "name": "C4",
          "ticks": 241680,
          "time": 160.4441968708333,
          "velocity": 0.6850393700787402
        },
        {
          "duration": 0.75,
          "durationTicks": 960,
          "midi": 76,
          "name": "E5",
          "ticks": 241920,
          "time": 160.6316968708333,
          "velocity": 0.5826771653543307
        },
        {
          "duration": 0.75,
          "durationTicks": 960,
          "midi": 81,
          "name": "A5",
          "ticks": 241920,
          "time": 160.6316968708333,
          "velocity": 0.5826771653543307
        },
        {
          "duration": 0.75,
          "durationTicks": 960,
          "midi": 84,
          "name": "C6",
          "ticks": 241920,
          "time": 160.6316968708333,
          "velocity": 0.5826771653543307
        },
        {
          "duration": 0.75,
          "durationTicks": 960,
          "midi": 88,
          "name": "E6",
          "ticks": 241920,
          "time": 160.6316968708333,
          "velocity": 0.5826771653543307
        },
        {
          "duration": 0.1875,
          "durationTicks": 240,
          "midi": 65,
          "name": "F4",
          "ticks": 241920,
          "time": 160.6316968708333,
          "velocity": 0.6771653543307087
        },
        {
          "duration": 0.1875,
          "durationTicks": 240,
          "midi": 60,
          "name": "C4",
          "ticks": 242160,
          "time": 160.8191968708333,
          "velocity": 0.5275590551181102
        },
        {
          "duration": 0.1875,
          "durationTicks": 240,
          "midi": 53,
          "name": "F3",
          "ticks": 242400,
          "time": 161.0066968708333,
          "velocity": 0.5354330708661418
        },
        {
          "duration": 0.1875,
          "durationTicks": 240,
          "midi": 60,
          "name": "C4",
          "ticks": 242640,
          "time": 161.1941968708333,
          "velocity": 0.7165354330708661
        },
        {
          "duration": 0.1875,
          "durationTicks": 240,
          "midi": 100,
          "name": "E7",
          "ticks": 242880,
          "time": 161.3816968708333,
          "velocity": 0.6062992125984252
        },
        {
          "duration": 0.1875,
          "durationTicks": 240,
          "midi": 69,
          "name": "A4",
          "ticks": 242880,
          "time": 161.3816968708333,
          "velocity": 0.7559055118110236
        },
        {
          "duration": 0.1875,
          "durationTicks": 240,
          "midi": 96,
          "name": "C7",
          "ticks": 243120,
          "time": 161.5691968708333,
          "velocity": 0.5748031496062992
        },
        {
          "duration": 0.1875,
          "durationTicks": 240,
          "midi": 60,
          "name": "C4",
          "ticks": 243120,
          "time": 161.5691968708333,
          "velocity": 0.5039370078740157
        },
        {
          "duration": 0.1875,
          "durationTicks": 240,
          "midi": 93,
          "name": "A6",
          "ticks": 243360,
          "time": 161.7566968708333,
          "velocity": 0.5748031496062992
        },
        {
          "duration": 0.1875,
          "durationTicks": 240,
          "midi": 53,
          "name": "F3",
          "ticks": 243360,
          "time": 161.7566968708333,
          "velocity": 0.5039370078740157
        },
        {
          "duration": 0.1875,
          "durationTicks": 240,
          "midi": 88,
          "name": "E6",
          "ticks": 243600,
          "time": 161.9441968708333,
          "velocity": 0.4881889763779528
        },
        {
          "duration": 0.1875,
          "durationTicks": 240,
          "midi": 60,
          "name": "C4",
          "ticks": 243600,
          "time": 161.9441968708333,
          "velocity": 0.7007874015748031
        },
        {
          "duration": 0.1875,
          "durationTicks": 240,
          "midi": 84,
          "name": "C6",
          "ticks": 243840,
          "time": 162.1316968708333,
          "velocity": 0.5354330708661418
        },
        {
          "duration": 0.1875,
          "durationTicks": 240,
          "midi": 65,
          "name": "F4",
          "ticks": 243840,
          "time": 162.1316968708333,
          "velocity": 0.7165354330708661
        },
        {
          "duration": 0.1875,
          "durationTicks": 240,
          "midi": 81,
          "name": "A5",
          "ticks": 244080,
          "time": 162.3191968708333,
          "velocity": 0.5433070866141733
        },
        {
          "duration": 0.1875,
          "durationTicks": 240,
          "midi": 60,
          "name": "C4",
          "ticks": 244080,
          "time": 162.3191968708333,
          "velocity": 0.5118110236220472
        },
        {
          "duration": 0.375,
          "durationTicks": 480,
          "midi": 76,
          "name": "E5",
          "ticks": 244320,
          "time": 162.5066968708333,
          "velocity": 0.6929133858267716
        },
        {
          "duration": 0.375,
          "durationTicks": 480,
          "midi": 88,
          "name": "E6",
          "ticks": 244320,
          "time": 162.5066968708333,
          "velocity": 0.6929133858267716
        },
        {
          "duration": 0.1875,
          "durationTicks": 240,
          "midi": 53,
          "name": "F3",
          "ticks": 244320,
          "time": 162.5066968708333,
          "velocity": 0.5354330708661418
        },
        {
          "duration": 0.1875,
          "durationTicks": 240,
          "midi": 60,
          "name": "C4",
          "ticks": 244560,
          "time": 162.6941968708333,
          "velocity": 0.7086614173228346
        },
        {
          "duration": 0.75,
          "durationTicks": 960,
          "midi": 76,
          "name": "E5",
          "ticks": 244800,
          "time": 162.8816968708333,
          "velocity": 0.7795275590551181
        },
        {
          "duration": 0.75,
          "durationTicks": 960,
          "midi": 88,
          "name": "E6",
          "ticks": 244800,
          "time": 162.8816968708333,
          "velocity": 0.7795275590551181
        },
        {
          "duration": 0.1875,
          "durationTicks": 240,
          "midi": 38,
          "name": "D2",
          "ticks": 244800,
          "time": 162.8816968708333,
          "velocity": 0.5590551181102362
        },
        {
          "duration": 0.1875,
          "durationTicks": 240,
          "midi": 50,
          "name": "D3",
          "ticks": 245040,
          "time": 163.0691968708333,
          "velocity": 0.6456692913385826
        },
        {
          "duration": 0.1875,
          "durationTicks": 240,
          "midi": 50,
          "name": "D3",
          "ticks": 245280,
          "time": 163.2566968708333,
          "velocity": 0.6062992125984252
        },
        {
          "duration": 0.1875,
          "durationTicks": 240,
          "midi": 57,
          "name": "A3",
          "ticks": 245520,
          "time": 163.4441968708333,
          "velocity": 0.6771653543307087
        },
        {
          "duration": 0.75,
          "durationTicks": 960,
          "midi": 77,
          "name": "F5",
          "ticks": 245760,
          "time": 163.6316968708333,
          "velocity": 0.6692913385826772
        },
        {
          "duration": 0.75,
          "durationTicks": 960,
          "midi": 81,
          "name": "A5",
          "ticks": 245760,
          "time": 163.6316968708333,
          "velocity": 0.6692913385826772
        },
        {
          "duration": 0.75,
          "durationTicks": 960,
          "midi": 84,
          "name": "C6",
          "ticks": 245760,
          "time": 163.6316968708333,
          "velocity": 0.6692913385826772
        },
        {
          "duration": 0.75,
          "durationTicks": 960,
          "midi": 89,
          "name": "F6",
          "ticks": 245760,
          "time": 163.6316968708333,
          "velocity": 0.6692913385826772
        },
        {
          "duration": 0.1875,
          "durationTicks": 240,
          "midi": 62,
          "name": "D4",
          "ticks": 245760,
          "time": 163.6316968708333,
          "velocity": 0.6929133858267716
        },
        {
          "duration": 0.1875,
          "durationTicks": 240,
          "midi": 57,
          "name": "A3",
          "ticks": 246000,
          "time": 163.8191968708333,
          "velocity": 0.5905511811023622
        },
        {
          "duration": 0.1875,
          "durationTicks": 240,
          "midi": 50,
          "name": "D3",
          "ticks": 246240,
          "time": 164.0066968708333,
          "velocity": 0.5826771653543307
        },
        {
          "duration": 0.1875,
          "durationTicks": 240,
          "midi": 57,
          "name": "A3",
          "ticks": 246480,
          "time": 164.1941968708333,
          "velocity": 0.6377952755905512
        },
        {
          "duration": 2.25,
          "durationTicks": 2880,
          "midi": 77,
          "name": "F5",
          "ticks": 246720,
          "time": 164.3816968708333,
          "velocity": 0.5905511811023622
        },
        {
          "duration": 2.25,
          "durationTicks": 2880,
          "midi": 80,
          "name": "G#5",
          "ticks": 246720,
          "time": 164.3816968708333,
          "velocity": 0.5905511811023622
        },
        {
          "duration": 2.25,
          "durationTicks": 2880,
          "midi": 84,
          "name": "C6",
          "ticks": 246720,
          "time": 164.3816968708333,
          "velocity": 0.5905511811023622
        },
        {
          "duration": 2.25,
          "durationTicks": 2880,
          "midi": 89,
          "name": "F6",
          "ticks": 246720,
          "time": 164.3816968708333,
          "velocity": 0.5905511811023622
        },
        {
          "duration": 2.25,
          "durationTicks": 2880,
          "midi": 28,
          "name": "E1",
          "ticks": 246720,
          "time": 164.3816968708333,
          "velocity": 0.5669291338582677
        },
        {
          "duration": 2.25,
          "durationTicks": 2880,
          "midi": 29,
          "name": "F1",
          "ticks": 246720,
          "time": 164.3816968708333,
          "velocity": 0.5669291338582677
        },
        {
          "duration": 2.25,
          "durationTicks": 2880,
          "midi": 40,
          "name": "E2",
          "ticks": 246720,
          "time": 164.3816968708333,
          "velocity": 0.5669291338582677
        },
        {
          "duration": 4.5,
          "durationTicks": 5760,
          "midi": 33,
          "name": "A1",
          "ticks": 249600,
          "time": 166.6316968708333,
          "velocity": 0.5433070866141733
        },
        {
          "duration": 4.5,
          "durationTicks": 5760,
          "midi": 36,
          "name": "C2",
          "ticks": 249600,
          "time": 166.6316968708333,
          "velocity": 0.5433070866141733
        },
        {
          "duration": 4.5,
          "durationTicks": 5760,
          "midi": 40,
          "name": "E2",
          "ticks": 249600,
          "time": 166.6316968708333,
          "velocity": 0.5433070866141733
        },
        {
          "duration": 4.5,
          "durationTicks": 5760,
          "midi": 45,
          "name": "A2",
          "ticks": 249600,
          "time": 166.6316968708333,
          "velocity": 0.5433070866141733
        },
        {
          "duration": 0.375,
          "durationTicks": 480,
          "midi": 69,
          "name": "A4",
          "ticks": 250560,
          "time": 167.3816968708333,
          "velocity": 0.5118110236220472
        },
        {
          "duration": 3.375,
          "durationTicks": 4320,
          "midi": 76,
          "name": "E5",
          "ticks": 251040,
          "time": 167.7566968708333,
          "velocity": 0.7007874015748031
        },
        {
          "duration": 0.75,
          "durationTicks": 960,
          "midi": 72,
          "name": "C5",
          "ticks": 251520,
          "time": 168.1316968708333,
          "velocity": 0.7795275590551181
        },
        {
          "duration": 0.75,
          "durationTicks": 960,
          "midi": 71,
          "name": "B4",
          "ticks": 252480,
          "time": 168.8816968708333,
          "velocity": 0.5826771653543307
        },
        {
          "duration": 1.5,
          "durationTicks": 1920,
          "midi": 69,
          "name": "A4",
          "ticks": 253440,
          "time": 169.6316968708333,
          "velocity": 0.5590551181102362
        },
        {
          "duration": 4.6875,
          "durationTicks": 6000,
          "midi": 31,
          "name": "G1",
          "ticks": 255360,
          "time": 171.1316968708333,
          "velocity": 0.5984251968503937
        },
        {
          "duration": 4.6875,
          "durationTicks": 6000,
          "midi": 35,
          "name": "B1",
          "ticks": 255360,
          "time": 171.1316968708333,
          "velocity": 0.5984251968503937
        },
        {
          "duration": 4.6875,
          "durationTicks": 6000,
          "midi": 40,
          "name": "E2",
          "ticks": 255360,
          "time": 171.1316968708333,
          "velocity": 0.5984251968503937
        },
        {
          "duration": 4.6875,
          "durationTicks": 6000,
          "midi": 43,
          "name": "G2",
          "ticks": 255360,
          "time": 171.1316968708333,
          "velocity": 0.5984251968503937
        },
        {
          "duration": 0.375,
          "durationTicks": 480,
          "midi": 69,
          "name": "A4",
          "ticks": 255840,
          "time": 171.5066968708333,
          "velocity": 0.5196850393700787
        },
        {
          "duration": 0.375,
          "durationTicks": 480,
          "midi": 72,
          "name": "C5",
          "ticks": 256320,
          "time": 171.8816968708333,
          "velocity": 0.5984251968503937
        },
        {
          "duration": 0.375,
          "durationTicks": 480,
          "midi": 77,
          "name": "F5",
          "ticks": 256800,
          "time": 172.2566968708333,
          "velocity": 0.6929133858267716
        },
        {
          "duration": 0.75,
          "durationTicks": 960,
          "midi": 76,
          "name": "E5",
          "ticks": 257280,
          "time": 172.6316968708333,
          "velocity": 0.5748031496062992
        },
        {
          "duration": 0.75,
          "durationTicks": 960,
          "midi": 74,
          "name": "D5",
          "ticks": 258240,
          "time": 173.3816968708333,
          "velocity": 0.5275590551181102
        },
        {
          "duration": 1.125,
          "durationTicks": 1440,
          "midi": 72,
          "name": "C5",
          "ticks": 259200,
          "time": 174.1316968708333,
          "velocity": 0.5354330708661418
        },
        {
          "duration": 0.5625,
          "durationTicks": 720,
          "midi": 71,
          "name": "B4",
          "ticks": 260640,
          "time": 175.2566968708333,
          "velocity": 0.5826771653543307
        },
        {
          "duration": 0.1875,
          "durationTicks": 240,
          "midi": 64,
          "name": "E4",
          "ticks": 261360,
          "time": 175.8191968708333,
          "velocity": 0.48031496062992124
        },
        {
          "duration": 0.75,
          "durationTicks": 960,
          "midi": 38,
          "name": "D2",
          "ticks": 261360,
          "time": 175.8191968708333,
          "velocity": 0.6062992125984252
        },
        {
          "duration": 3,
          "durationTicks": 3840,
          "midi": 26,
          "name": "D1",
          "ticks": 261360,
          "time": 175.8191968708333,
          "velocity": 0.5275590551181102
        },
        {
          "duration": 0.1875,
          "durationTicks": 240,
          "midi": 64,
          "name": "E4",
          "ticks": 261600,
          "time": 176.0066968708333,
          "velocity": 0.5590551181102362
        },
        {
          "duration": 0.1875,
          "durationTicks": 240,
          "midi": 62,
          "name": "D4",
          "ticks": 261840,
          "time": 176.1941968708333,
          "velocity": 0.5433070866141733
        },
        {
          "duration": 0.1875,
          "durationTicks": 240,
          "midi": 62,
          "name": "D4",
          "ticks": 262080,
          "time": 176.3816968708333,
          "velocity": 0.6141732283464567
        },
        {
          "duration": 0.1875,
          "durationTicks": 240,
          "midi": 60,
          "name": "C4",
          "ticks": 262320,
          "time": 176.5691968708333,
          "velocity": 0.5433070866141733
        },
        {
          "duration": 0.75,
          "durationTicks": 960,
          "midi": 38,
          "name": "D2",
          "ticks": 262320,
          "time": 176.5691968708333,
          "velocity": 0.6062992125984252
        },
        {
          "duration": 0.1875,
          "durationTicks": 240,
          "midi": 60,
          "name": "C4",
          "ticks": 262560,
          "time": 176.7566968708333,
          "velocity": 0.5748031496062992
        },
        {
          "duration": 0.1875,
          "durationTicks": 240,
          "midi": 59,
          "name": "B3",
          "ticks": 262800,
          "time": 176.9441968708333,
          "velocity": 0.5984251968503937
        },
        {
          "duration": 0.1875,
          "durationTicks": 240,
          "midi": 59,
          "name": "B3",
          "ticks": 263040,
          "time": 177.1316968708333,
          "velocity": 0.5905511811023622
        },
        {
          "duration": 0.1875,
          "durationTicks": 240,
          "midi": 62,
          "name": "D4",
          "ticks": 263280,
          "time": 177.3191968708333,
          "velocity": 0.6535433070866141
        },
        {
          "duration": 0.75,
          "durationTicks": 960,
          "midi": 38,
          "name": "D2",
          "ticks": 263280,
          "time": 177.3191968708333,
          "velocity": 0.6062992125984252
        },
        {
          "duration": 0.1875,
          "durationTicks": 240,
          "midi": 62,
          "name": "D4",
          "ticks": 263520,
          "time": 177.5066968708333,
          "velocity": 0.6535433070866141
        },
        {
          "duration": 0.1875,
          "durationTicks": 240,
          "midi": 60,
          "name": "C4",
          "ticks": 263760,
          "time": 177.6941968708333,
          "velocity": 0.5354330708661418
        },
        {
          "duration": 0.1875,
          "durationTicks": 240,
          "midi": 60,
          "name": "C4",
          "ticks": 264000,
          "time": 177.8816968708333,
          "velocity": 0.6062992125984252
        },
        {
          "duration": 0.1875,
          "durationTicks": 240,
          "midi": 59,
          "name": "B3",
          "ticks": 264240,
          "time": 178.0691968708333,
          "velocity": 0.5826771653543307
        },
        {
          "duration": 0.75,
          "durationTicks": 960,
          "midi": 38,
          "name": "D2",
          "ticks": 264240,
          "time": 178.0691968708333,
          "velocity": 0.6062992125984252
        },
        {
          "duration": 0.1875,
          "durationTicks": 240,
          "midi": 59,
          "name": "B3",
          "ticks": 264480,
          "time": 178.2566968708333,
          "velocity": 0.5905511811023622
        },
        {
          "duration": 0.1875,
          "durationTicks": 240,
          "midi": 60,
          "name": "C4",
          "ticks": 264720,
          "time": 178.4441968708333,
          "velocity": 0.6535433070866141
        },
        {
          "duration": 0.1875,
          "durationTicks": 240,
          "midi": 60,
          "name": "C4",
          "ticks": 264960,
          "time": 178.6316968708333,
          "velocity": 0.5984251968503937
        },
        {
          "duration": 0.1875,
          "durationTicks": 240,
          "midi": 64,
          "name": "E4",
          "ticks": 265200,
          "time": 178.8191968708333,
          "velocity": 0.6614173228346457
        },
        {
          "duration": 0.75,
          "durationTicks": 960,
          "midi": 36,
          "name": "C2",
          "ticks": 265200,
          "time": 178.8191968708333,
          "velocity": 0.6220472440944882
        },
        {
          "duration": 3,
          "durationTicks": 3840,
          "midi": 24,
          "name": "C1",
          "ticks": 265200,
          "time": 178.8191968708333,
          "velocity": 0.5905511811023622
        },
        {
          "duration": 0.1875,
          "durationTicks": 240,
          "midi": 64,
          "name": "E4",
          "ticks": 265440,
          "time": 179.0066968708333,
          "velocity": 0.6062992125984252
        },
        {
          "duration": 0.1875,
          "durationTicks": 240,
          "midi": 62,
          "name": "D4",
          "ticks": 265680,
          "time": 179.1941968708333,
          "velocity": 0.5433070866141733
        },
        {
          "duration": 0.1875,
          "durationTicks": 240,
          "midi": 62,
          "name": "D4",
          "ticks": 265920,
          "time": 179.3816968708333,
          "velocity": 0.6141732283464567
        },
        {
          "duration": 0.1875,
          "durationTicks": 240,
          "midi": 60,
          "name": "C4",
          "ticks": 266160,
          "time": 179.5691968708333,
          "velocity": 0.5669291338582677
        },
        {
          "duration": 0.75,
          "durationTicks": 960,
          "midi": 36,
          "name": "C2",
          "ticks": 266160,
          "time": 179.5691968708333,
          "velocity": 0.6141732283464567
        },
        {
          "duration": 0.1875,
          "durationTicks": 240,
          "midi": 60,
          "name": "C4",
          "ticks": 266400,
          "time": 179.7566968708333,
          "velocity": 0.5826771653543307
        },
        {
          "duration": 0.1875,
          "durationTicks": 240,
          "midi": 59,
          "name": "B3",
          "ticks": 266640,
          "time": 179.9441968708333,
          "velocity": 0.5984251968503937
        },
        {
          "duration": 0.1875,
          "durationTicks": 240,
          "midi": 59,
          "name": "B3",
          "ticks": 266880,
          "time": 180.1316968708333,
          "velocity": 0.6141732283464567
        },
        {
          "duration": 0.1875,
          "durationTicks": 240,
          "midi": 62,
          "name": "D4",
          "ticks": 267120,
          "time": 180.3191968708333,
          "velocity": 0.6771653543307087
        },
        {
          "duration": 0.75,
          "durationTicks": 960,
          "midi": 36,
          "name": "C2",
          "ticks": 267120,
          "time": 180.3191968708333,
          "velocity": 0.6456692913385826
        },
        {
          "duration": 0.1875,
          "durationTicks": 240,
          "midi": 62,
          "name": "D4",
          "ticks": 267360,
          "time": 180.5066968708333,
          "velocity": 0.5984251968503937
        },
        {
          "duration": 0.1875,
          "durationTicks": 240,
          "midi": 60,
          "name": "C4",
          "ticks": 267600,
          "time": 180.6941968708333,
          "velocity": 0.5905511811023622
        },
        {
          "duration": 0.1875,
          "durationTicks": 240,
          "midi": 60,
          "name": "C4",
          "ticks": 267840,
          "time": 180.8816968708333,
          "velocity": 0.5984251968503937
        },
        {
          "duration": 0.1875,
          "durationTicks": 240,
          "midi": 59,
          "name": "B3",
          "ticks": 268080,
          "time": 181.0691968708333,
          "velocity": 0.5905511811023622
        },
        {
          "duration": 0.75,
          "durationTicks": 960,
          "midi": 36,
          "name": "C2",
          "ticks": 268080,
          "time": 181.0691968708333,
          "velocity": 0.5905511811023622
        },
        {
          "duration": 0.1875,
          "durationTicks": 240,
          "midi": 59,
          "name": "B3",
          "ticks": 268320,
          "time": 181.2566968708333,
          "velocity": 0.6141732283464567
        },
        {
          "duration": 0.1875,
          "durationTicks": 240,
          "midi": 60,
          "name": "C4",
          "ticks": 268560,
          "time": 181.4441968708333,
          "velocity": 0.6299212598425197
        },
        {
          "duration": 0.1875,
          "durationTicks": 240,
          "midi": 60,
          "name": "C4",
          "ticks": 268800,
          "time": 181.6316968708333,
          "velocity": 0.5984251968503937
        },
        {
          "duration": 0.1875,
          "durationTicks": 240,
          "midi": 64,
          "name": "E4",
          "ticks": 269040,
          "time": 181.8191968708333,
          "velocity": 0.6535433070866141
        },
        {
          "duration": 0.75,
          "durationTicks": 960,
          "midi": 41,
          "name": "F2",
          "ticks": 269040,
          "time": 181.8191968708333,
          "velocity": 0.6377952755905512
        },
        {
          "duration": 3,
          "durationTicks": 3840,
          "midi": 29,
          "name": "F1",
          "ticks": 269040,
          "time": 181.8191968708333,
          "velocity": 0.6377952755905512
        },
        {
          "duration": 0.1875,
          "durationTicks": 240,
          "midi": 64,
          "name": "E4",
          "ticks": 269280,
          "time": 182.0066968708333,
          "velocity": 0.5905511811023622
        },
        {
          "duration": 0.1875,
          "durationTicks": 240,
          "midi": 62,
          "name": "D4",
          "ticks": 269520,
          "time": 182.1941968708333,
          "velocity": 0.5748031496062992
        },
        {
          "duration": 0.1875,
          "durationTicks": 240,
          "midi": 62,
          "name": "D4",
          "ticks": 269760,
          "time": 182.3816968708333,
          "velocity": 0.5905511811023622
        },
        {
          "duration": 0.1875,
          "durationTicks": 240,
          "midi": 60,
          "name": "C4",
          "ticks": 270000,
          "time": 182.5691968708333,
          "velocity": 0.5826771653543307
        },
        {
          "duration": 0.75,
          "durationTicks": 960,
          "midi": 41,
          "name": "F2",
          "ticks": 270000,
          "time": 182.5691968708333,
          "velocity": 0.5905511811023622
        },
        {
          "duration": 0.1875,
          "durationTicks": 240,
          "midi": 60,
          "name": "C4",
          "ticks": 270240,
          "time": 182.7566968708333,
          "velocity": 0.5984251968503937
        },
        {
          "duration": 0.1875,
          "durationTicks": 240,
          "midi": 59,
          "name": "B3",
          "ticks": 270480,
          "time": 182.9441968708333,
          "velocity": 0.5905511811023622
        },
        {
          "duration": 0.1875,
          "durationTicks": 240,
          "midi": 59,
          "name": "B3",
          "ticks": 270720,
          "time": 183.1316968708333,
          "velocity": 0.5669291338582677
        },
        {
          "duration": 0.1875,
          "durationTicks": 240,
          "midi": 62,
          "name": "D4",
          "ticks": 270960,
          "time": 183.3191968708333,
          "velocity": 0.6377952755905512
        },
        {
          "duration": 0.75,
          "durationTicks": 960,
          "midi": 41,
          "name": "F2",
          "ticks": 270960,
          "time": 183.3191968708333,
          "velocity": 0.5984251968503937
        },
        {
          "duration": 0.1875,
          "durationTicks": 240,
          "midi": 62,
          "name": "D4",
          "ticks": 271200,
          "time": 183.5066968708333,
          "velocity": 0.5826771653543307
        },
        {
          "duration": 0.1875,
          "durationTicks": 240,
          "midi": 60,
          "name": "C4",
          "ticks": 271440,
          "time": 183.6941968708333,
          "velocity": 0.5590551181102362
        },
        {
          "duration": 0.1875,
          "durationTicks": 240,
          "midi": 60,
          "name": "C4",
          "ticks": 271680,
          "time": 183.8816968708333,
          "velocity": 0.6141732283464567
        },
        {
          "duration": 0.1875,
          "durationTicks": 240,
          "midi": 59,
          "name": "B3",
          "ticks": 271920,
          "time": 184.0691968708333,
          "velocity": 0.6062992125984252
        },
        {
          "duration": 0.75,
          "durationTicks": 960,
          "midi": 41,
          "name": "F2",
          "ticks": 271920,
          "time": 184.0691968708333,
          "velocity": 0.5905511811023622
        },
        {
          "duration": 0.1875,
          "durationTicks": 240,
          "midi": 59,
          "name": "B3",
          "ticks": 272160,
          "time": 184.2566968708333,
          "velocity": 0.5826771653543307
        },
        {
          "duration": 0.1875,
          "durationTicks": 240,
          "midi": 60,
          "name": "C4",
          "ticks": 272400,
          "time": 184.4441968708333,
          "velocity": 0.6377952755905512
        },
        {
          "duration": 0.1875,
          "durationTicks": 240,
          "midi": 60,
          "name": "C4",
          "ticks": 272640,
          "time": 184.6316968708333,
          "velocity": 0.6456692913385826
        },
        {
          "duration": 0.1875,
          "durationTicks": 240,
          "midi": 64,
          "name": "E4",
          "ticks": 272880,
          "time": 184.8191968708333,
          "velocity": 0.7007874015748031
        },
        {
          "duration": 0.75,
          "durationTicks": 960,
          "midi": 41,
          "name": "F2",
          "ticks": 272880,
          "time": 184.8191968708333,
          "velocity": 0.5826771653543307
        },
        {
          "duration": 1.6875,
          "durationTicks": 2160,
          "midi": 29,
          "name": "F1",
          "ticks": 272880,
          "time": 184.8191968708333,
          "velocity": 0.5669291338582677
        },
        {
          "duration": 0.1875,
          "durationTicks": 240,
          "midi": 64,
          "name": "E4",
          "ticks": 273120,
          "time": 185.0066968708333,
          "velocity": 0.5905511811023622
        },
        {
          "duration": 0.1875,
          "durationTicks": 240,
          "midi": 62,
          "name": "D4",
          "ticks": 273360,
          "time": 185.1941968708333,
          "velocity": 0.5669291338582677
        },
        {
          "duration": 0.1875,
          "durationTicks": 240,
          "midi": 62,
          "name": "D4",
          "ticks": 273600,
          "time": 185.3816968708333,
          "velocity": 0.6299212598425197
        },
        {
          "duration": 0.1875,
          "durationTicks": 240,
          "midi": 60,
          "name": "C4",
          "ticks": 273840,
          "time": 185.5691968708333,
          "velocity": 0.5826771653543307
        },
        {
          "duration": 0.75,
          "durationTicks": 960,
          "midi": 41,
          "name": "F2",
          "ticks": 273840,
          "time": 185.5691968708333,
          "velocity": 0.5511811023622047
        },
        {
          "duration": 0.1875,
          "durationTicks": 240,
          "midi": 60,
          "name": "C4",
          "ticks": 274080,
          "time": 185.7566968708333,
          "velocity": 0.5984251968503937
        },
        {
          "duration": 0.1875,
          "durationTicks": 240,
          "midi": 59,
          "name": "B3",
          "ticks": 274320,
          "time": 185.9441968708333,
          "velocity": 0.6299212598425197
        },
        {
          "duration": 0.1875,
          "durationTicks": 240,
          "midi": 59,
          "name": "B3",
          "ticks": 274560,
          "time": 186.1316968708333,
          "velocity": 0.5905511811023622
        },
        {
          "duration": 0.1875,
          "durationTicks": 240,
          "midi": 62,
          "name": "D4",
          "ticks": 274800,
          "time": 186.3191968708333,
          "velocity": 0.6456692913385826
        },
        {
          "duration": 0.375,
          "durationTicks": 480,
          "midi": 29,
          "name": "F1",
          "ticks": 274800,
          "time": 186.3191968708333,
          "velocity": 0.5748031496062992
        },
        {
          "duration": 0.1875,
          "durationTicks": 240,
          "midi": 41,
          "name": "F2",
          "ticks": 274800,
          "time": 186.3191968708333,
          "velocity": 0.5748031496062992
        },
        {
          "duration": 0.1875,
          "durationTicks": 240,
          "midi": 62,
          "name": "D4",
          "ticks": 275040,
          "time": 186.5066968708333,
          "velocity": 0.5984251968503937
        },
        {
          "duration": 0.375,
          "durationTicks": 480,
          "midi": 29,
          "name": "F1",
          "ticks": 275040,
          "time": 186.5066968708333,
          "velocity": 0.5984251968503937
        },
        {
          "duration": 0.1875,
          "durationTicks": 240,
          "midi": 41,
          "name": "F2",
          "ticks": 275040,
          "time": 186.5066968708333,
          "velocity": 0.5984251968503937
        },
        {
          "duration": 0.1875,
          "durationTicks": 240,
          "midi": 60,
          "name": "C4",
          "ticks": 275280,
          "time": 186.6941968708333,
          "velocity": 0.5354330708661418
        },
        {
          "duration": 0.375,
          "durationTicks": 480,
          "midi": 29,
          "name": "F1",
          "ticks": 275280,
          "time": 186.6941968708333,
          "velocity": 0.6062992125984252
        },
        {
          "duration": 0.1875,
          "durationTicks": 240,
          "midi": 41,
          "name": "F2",
          "ticks": 275280,
          "time": 186.6941968708333,
          "velocity": 0.6062992125984252
        },
        {
          "duration": 0.1875,
          "durationTicks": 240,
          "midi": 60,
          "name": "C4",
          "ticks": 275520,
          "time": 186.8816968708333,
          "velocity": 0.5748031496062992
        },
        {
          "duration": 0.9375,
          "durationTicks": 1200,
          "midi": 29,
          "name": "F1",
          "ticks": 275520,
          "time": 186.8816968708333,
          "velocity": 0.5826771653543307
        },
        {
          "duration": 0.1875,
          "durationTicks": 240,
          "midi": 41,
          "name": "F2",
          "ticks": 275520,
          "time": 186.8816968708333,
          "velocity": 0.5826771653543307
        },
        {
          "duration": 0.1875,
          "durationTicks": 240,
          "midi": 33,
          "name": "A1",
          "ticks": 276720,
          "time": 187.8191968708333,
          "velocity": 0.5433070866141733
        },
        {
          "duration": 0.1875,
          "durationTicks": 240,
          "midi": 40,
          "name": "E2",
          "ticks": 276720,
          "time": 187.8191968708333,
          "velocity": 0.5433070866141733
        },
        {
          "duration": 0.1875,
          "durationTicks": 240,
          "midi": 45,
          "name": "A2",
          "ticks": 276720,
          "time": 187.8191968708333,
          "velocity": 0.5433070866141733
        },
        {
          "duration": 0.1875,
          "durationTicks": 240,
          "midi": 40,
          "name": "E2",
          "ticks": 276960,
          "time": 188.0066968708333,
          "velocity": 0.5433070866141733
        },
        {
          "duration": 0.375,
          "durationTicks": 480,
          "midi": 52,
          "name": "E3",
          "ticks": 277200,
          "time": 188.1941968708333,
          "velocity": 0.5275590551181102
        },
        {
          "duration": 0.375,
          "durationTicks": 480,
          "midi": 64,
          "name": "E4",
          "ticks": 277200,
          "time": 188.1941968708333,
          "velocity": 0.5275590551181102
        },
        {
          "duration": 0.1875,
          "durationTicks": 240,
          "midi": 45,
          "name": "A2",
          "ticks": 277200,
          "time": 188.1941968708333,
          "velocity": 0.6535433070866141
        },
        {
          "duration": 0.1875,
          "durationTicks": 240,
          "midi": 48,
          "name": "C3",
          "ticks": 277440,
          "time": 188.3816968708333,
          "velocity": 0.6377952755905512
        },
        {
          "duration": 0.375,
          "durationTicks": 480,
          "midi": 57,
          "name": "A3",
          "ticks": 277680,
          "time": 188.5691968708333,
          "velocity": 0.7086614173228346
        },
        {
          "duration": 0.375,
          "durationTicks": 480,
          "midi": 69,
          "name": "A4",
          "ticks": 277680,
          "time": 188.5691968708333,
          "velocity": 0.7086614173228346
        },
        {
          "duration": 0.1875,
          "durationTicks": 240,
          "midi": 52,
          "name": "E3",
          "ticks": 277680,
          "time": 188.5691968708333,
          "velocity": 0.6535433070866141
        },
        {
          "duration": 0.1875,
          "durationTicks": 240,
          "midi": 45,
          "name": "A2",
          "ticks": 277920,
          "time": 188.7566968708333,
          "velocity": 0.5354330708661418
        },
        {
          "duration": 0.375,
          "durationTicks": 480,
          "midi": 64,
          "name": "E4",
          "ticks": 278160,
          "time": 188.9441968708333,
          "velocity": 0.7165354330708661
        },
        {
          "duration": 0.375,
          "durationTicks": 480,
          "midi": 76,
          "name": "E5",
          "ticks": 278160,
          "time": 188.9441968708333,
          "velocity": 0.7165354330708661
        },
        {
          "duration": 0.1875,
          "durationTicks": 240,
          "midi": 52,
          "name": "E3",
          "ticks": 278160,
          "time": 188.9441968708333,
          "velocity": 0.6377952755905512
        },
        {
          "duration": 0.1875,
          "durationTicks": 240,
          "midi": 57,
          "name": "A3",
          "ticks": 278400,
          "time": 189.1316968708333,
          "velocity": 0.6535433070866141
        },
        {
          "duration": 0.375,
          "durationTicks": 480,
          "midi": 62,
          "name": "D4",
          "ticks": 278640,
          "time": 189.3191968708333,
          "velocity": 0.5354330708661418
        },
        {
          "duration": 0.375,
          "durationTicks": 480,
          "midi": 74,
          "name": "D5",
          "ticks": 278640,
          "time": 189.3191968708333,
          "velocity": 0.5354330708661418
        },
        {
          "duration": 0.1875,
          "durationTicks": 240,
          "midi": 52,
          "name": "E3",
          "ticks": 278640,
          "time": 189.3191968708333,
          "velocity": 0.5590551181102362
        },
        {
          "duration": 0.1875,
          "durationTicks": 240,
          "midi": 45,
          "name": "A2",
          "ticks": 278880,
          "time": 189.5066968708333,
          "velocity": 0.5354330708661418
        },
        {
          "duration": 0.375,
          "durationTicks": 480,
          "midi": 60,
          "name": "C4",
          "ticks": 279120,
          "time": 189.6941968708333,
          "velocity": 0.5354330708661418
        },
        {
          "duration": 0.375,
          "durationTicks": 480,
          "midi": 72,
          "name": "C5",
          "ticks": 279120,
          "time": 189.6941968708333,
          "velocity": 0.5354330708661418
        },
        {
          "duration": 0.1875,
          "durationTicks": 240,
          "midi": 52,
          "name": "E3",
          "ticks": 279120,
          "time": 189.6941968708333,
          "velocity": 0.6220472440944882
        },
        {
          "duration": 0.1875,
          "durationTicks": 240,
          "midi": 57,
          "name": "A3",
          "ticks": 279360,
          "time": 189.8816968708333,
          "velocity": 0.6299212598425197
        },
        {
          "duration": 0.375,
          "durationTicks": 480,
          "midi": 59,
          "name": "B3",
          "ticks": 279600,
          "time": 190.0691968708333,
          "velocity": 0.5905511811023622
        },
        {
          "duration": 0.375,
          "durationTicks": 480,
          "midi": 71,
          "name": "B4",
          "ticks": 279600,
          "time": 190.0691968708333,
          "velocity": 0.5905511811023622
        },
        {
          "duration": 0.1875,
          "durationTicks": 240,
          "midi": 52,
          "name": "E3",
          "ticks": 279600,
          "time": 190.0691968708333,
          "velocity": 0.5826771653543307
        },
        {
          "duration": 0.1875,
          "durationTicks": 240,
          "midi": 45,
          "name": "A2",
          "ticks": 279840,
          "time": 190.2566968708333,
          "velocity": 0.5354330708661418
        },
        {
          "duration": 0.375,
          "durationTicks": 480,
          "midi": 60,
          "name": "C4",
          "ticks": 280080,
          "time": 190.4441968708333,
          "velocity": 0.6141732283464567
        },
        {
          "duration": 0.375,
          "durationTicks": 480,
          "midi": 72,
          "name": "C5",
          "ticks": 280080,
          "time": 190.4441968708333,
          "velocity": 0.6141732283464567
        },
        {
          "duration": 0.1875,
          "durationTicks": 240,
          "midi": 52,
          "name": "E3",
          "ticks": 280080,
          "time": 190.4441968708333,
          "velocity": 0.6299212598425197
        },
        {
          "duration": 0.1875,
          "durationTicks": 240,
          "midi": 57,
          "name": "A3",
          "ticks": 280320,
          "time": 190.6316968708333,
          "velocity": 0.6535433070866141
        },
        {
          "duration": 0.75,
          "durationTicks": 960,
          "midi": 67,
          "name": "G4",
          "ticks": 280560,
          "time": 190.8191968708333,
          "velocity": 0.7086614173228346
        },
        {
          "duration": 0.75,
          "durationTicks": 960,
          "midi": 69,
          "name": "A4",
          "ticks": 280560,
          "time": 190.8191968708333,
          "velocity": 0.7086614173228346
        },
        {
          "duration": 0.75,
          "durationTicks": 960,
          "midi": 74,
          "name": "D5",
          "ticks": 280560,
          "time": 190.8191968708333,
          "velocity": 0.7086614173228346
        },
        {
          "duration": 0.75,
          "durationTicks": 960,
          "midi": 79,
          "name": "G5",
          "ticks": 280560,
          "time": 190.8191968708333,
          "velocity": 0.7086614173228346
        },
        {
          "duration": 0.1875,
          "durationTicks": 240,
          "midi": 38,
          "name": "D2",
          "ticks": 280560,
          "time": 190.8191968708333,
          "velocity": 0.5275590551181102
        },
        {
          "duration": 0.1875,
          "durationTicks": 240,
          "midi": 45,
          "name": "A2",
          "ticks": 280800,
          "time": 191.0066968708333,
          "velocity": 0.6614173228346457
        },
        {
          "duration": 0.1875,
          "durationTicks": 240,
          "midi": 50,
          "name": "D3",
          "ticks": 281040,
          "time": 191.1941968708333,
          "velocity": 0.6692913385826772
        },
        {
          "duration": 0.1875,
          "durationTicks": 240,
          "midi": 53,
          "name": "F3",
          "ticks": 281280,
          "time": 191.3816968708333,
          "velocity": 0.6614173228346457
        },
        {
          "duration": 0.75,
          "durationTicks": 960,
          "midi": 65,
          "name": "F4",
          "ticks": 281520,
          "time": 191.5691968708333,
          "velocity": 0.5669291338582677
        },
        {
          "duration": 0.75,
          "durationTicks": 960,
          "midi": 69,
          "name": "A4",
          "ticks": 281520,
          "time": 191.5691968708333,
          "velocity": 0.5669291338582677
        },
        {
          "duration": 0.75,
          "durationTicks": 960,
          "midi": 74,
          "name": "D5",
          "ticks": 281520,
          "time": 191.5691968708333,
          "velocity": 0.5669291338582677
        },
        {
          "duration": 0.75,
          "durationTicks": 960,
          "midi": 77,
          "name": "F5",
          "ticks": 281520,
          "time": 191.5691968708333,
          "velocity": 0.5669291338582677
        },
        {
          "duration": 0.1875,
          "durationTicks": 240,
          "midi": 57,
          "name": "A3",
          "ticks": 281520,
          "time": 191.5691968708333,
          "velocity": 0.6377952755905512
        },
        {
          "duration": 0.1875,
          "durationTicks": 240,
          "midi": 50,
          "name": "D3",
          "ticks": 281760,
          "time": 191.7566968708333,
          "velocity": 0.5590551181102362
        },
        {
          "duration": 0.1875,
          "durationTicks": 240,
          "midi": 57,
          "name": "A3",
          "ticks": 282000,
          "time": 191.9441968708333,
          "velocity": 0.6535433070866141
        },
        {
          "duration": 0.375,
          "durationTicks": 480,
          "midi": 62,
          "name": "D4",
          "ticks": 282240,
          "time": 192.1316968708333,
          "velocity": 0.6929133858267716
        },
        {
          "duration": 1.5,
          "durationTicks": 1920,
          "midi": 65,
          "name": "F4",
          "ticks": 282480,
          "time": 192.3191968708333,
          "velocity": 0.5826771653543307
        },
        {
          "duration": 1.5,
          "durationTicks": 1920,
          "midi": 69,
          "name": "A4",
          "ticks": 282480,
          "time": 192.3191968708333,
          "velocity": 0.5826771653543307
        },
        {
          "duration": 1.5,
          "durationTicks": 1920,
          "midi": 74,
          "name": "D5",
          "ticks": 282480,
          "time": 192.3191968708333,
          "velocity": 0.5826771653543307
        },
        {
          "duration": 1.5,
          "durationTicks": 1920,
          "midi": 77,
          "name": "F5",
          "ticks": 282480,
          "time": 192.3191968708333,
          "velocity": 0.5826771653543307
        },
        {
          "duration": 0.1875,
          "durationTicks": 240,
          "midi": 62,
          "name": "D4",
          "ticks": 282720,
          "time": 192.5066968708333,
          "velocity": 0.5984251968503937
        },
        {
          "duration": 0.1875,
          "durationTicks": 240,
          "midi": 57,
          "name": "A3",
          "ticks": 282960,
          "time": 192.6941968708333,
          "velocity": 0.5433070866141733
        },
        {
          "duration": 0.1875,
          "durationTicks": 240,
          "midi": 53,
          "name": "F3",
          "ticks": 283200,
          "time": 192.8816968708333,
          "velocity": 0.5590551181102362
        },
        {
          "duration": 0.1875,
          "durationTicks": 240,
          "midi": 50,
          "name": "D3",
          "ticks": 283440,
          "time": 193.0691968708333,
          "velocity": 0.5590551181102362
        },
        {
          "duration": 0.1875,
          "durationTicks": 240,
          "midi": 45,
          "name": "A2",
          "ticks": 283680,
          "time": 193.2566968708333,
          "velocity": 0.5748031496062992
        },
        {
          "duration": 0.1875,
          "durationTicks": 240,
          "midi": 38,
          "name": "D2",
          "ticks": 283920,
          "time": 193.4441968708333,
          "velocity": 0.5433070866141733
        },
        {
          "duration": 0.1875,
          "durationTicks": 240,
          "midi": 45,
          "name": "A2",
          "ticks": 284160,
          "time": 193.6316968708333,
          "velocity": 0.6535433070866141
        },
        {
          "duration": 0.1875,
          "durationTicks": 240,
          "midi": 40,
          "name": "E2",
          "ticks": 284400,
          "time": 193.8191968708333,
          "velocity": 0.5590551181102362
        },
        {
          "duration": 0.1875,
          "durationTicks": 240,
          "midi": 47,
          "name": "B2",
          "ticks": 284640,
          "time": 194.0066968708333,
          "velocity": 0.6771653543307087
        },
        {
          "duration": 0.375,
          "durationTicks": 480,
          "midi": 64,
          "name": "E4",
          "ticks": 284880,
          "time": 194.1941968708333,
          "velocity": 0.5275590551181102
        },
        {
          "duration": 0.375,
          "durationTicks": 480,
          "midi": 68,
          "name": "G#4",
          "ticks": 284880,
          "time": 194.1941968708333,
          "velocity": 0.5275590551181102
        },
        {
          "duration": 0.375,
          "durationTicks": 480,
          "midi": 71,
          "name": "B4",
          "ticks": 284880,
          "time": 194.1941968708333,
          "velocity": 0.5275590551181102
        },
        {
          "duration": 0.375,
          "durationTicks": 480,
          "midi": 76,
          "name": "E5",
          "ticks": 284880,
          "time": 194.1941968708333,
          "velocity": 0.5275590551181102
        },
        {
          "duration": 0.1875,
          "durationTicks": 240,
          "midi": 52,
          "name": "E3",
          "ticks": 284880,
          "time": 194.1941968708333,
          "velocity": 0.6456692913385826
        },
        {
          "duration": 0.1875,
          "durationTicks": 240,
          "midi": 56,
          "name": "G#3",
          "ticks": 285120,
          "time": 194.3816968708333,
          "velocity": 0.6456692913385826
        },
        {
          "duration": 0.375,
          "durationTicks": 480,
          "midi": 62,
          "name": "D4",
          "ticks": 285360,
          "time": 194.5691968708333,
          "velocity": 0.5196850393700787
        },
        {
          "duration": 0.375,
          "durationTicks": 480,
          "midi": 68,
          "name": "G#4",
          "ticks": 285360,
          "time": 194.5691968708333,
          "velocity": 0.5196850393700787
        },
        {
          "duration": 0.375,
          "durationTicks": 480,
          "midi": 74,
          "name": "D5",
          "ticks": 285360,
          "time": 194.5691968708333,
          "velocity": 0.5196850393700787
        },
        {
          "duration": 0.1875,
          "durationTicks": 240,
          "midi": 59,
          "name": "B3",
          "ticks": 285360,
          "time": 194.5691968708333,
          "velocity": 0.5826771653543307
        },
        {
          "duration": 0.1875,
          "durationTicks": 240,
          "midi": 56,
          "name": "G#3",
          "ticks": 285600,
          "time": 194.7566968708333,
          "velocity": 0.5984251968503937
        },
        {
          "duration": 0.375,
          "durationTicks": 480,
          "midi": 60,
          "name": "C4",
          "ticks": 285840,
          "time": 194.9441968708333,
          "velocity": 0.5433070866141733
        },
        {
          "duration": 0.375,
          "durationTicks": 480,
          "midi": 72,
          "name": "C5",
          "ticks": 285840,
          "time": 194.9441968708333,
          "velocity": 0.5433070866141733
        },
        {
          "duration": 0.1875,
          "durationTicks": 240,
          "midi": 52,
          "name": "E3",
          "ticks": 285840,
          "time": 194.9441968708333,
          "velocity": 0.5590551181102362
        },
        {
          "duration": 0.1875,
          "durationTicks": 240,
          "midi": 47,
          "name": "B2",
          "ticks": 286080,
          "time": 195.1316968708333,
          "velocity": 0.5748031496062992
        },
        {
          "duration": 0.375,
          "durationTicks": 480,
          "midi": 59,
          "name": "B3",
          "ticks": 286320,
          "time": 195.3191968708333,
          "velocity": 0.5826771653543307
        },
        {
          "duration": 0.375,
          "durationTicks": 480,
          "midi": 64,
          "name": "E4",
          "ticks": 286320,
          "time": 195.3191968708333,
          "velocity": 0.5826771653543307
        },
        {
          "duration": 0.375,
          "durationTicks": 480,
          "midi": 68,
          "name": "G#4",
          "ticks": 286320,
          "time": 195.3191968708333,
          "velocity": 0.5826771653543307
        },
        {
          "duration": 0.375,
          "durationTicks": 480,
          "midi": 71,
          "name": "B4",
          "ticks": 286320,
          "time": 195.3191968708333,
          "velocity": 0.5826771653543307
        },
        {
          "duration": 0.1875,
          "durationTicks": 240,
          "midi": 44,
          "name": "G#2",
          "ticks": 286320,
          "time": 195.3191968708333,
          "velocity": 0.5905511811023622
        },
        {
          "duration": 0.1875,
          "durationTicks": 240,
          "midi": 52,
          "name": "E3",
          "ticks": 286560,
          "time": 195.5066968708333,
          "velocity": 0.6535433070866141
        },
        {
          "duration": 0.375,
          "durationTicks": 480,
          "midi": 60,
          "name": "C4",
          "ticks": 286800,
          "time": 195.6941968708333,
          "velocity": 0.6614173228346457
        },
        {
          "duration": 0.375,
          "durationTicks": 480,
          "midi": 64,
          "name": "E4",
          "ticks": 286800,
          "time": 195.6941968708333,
          "velocity": 0.6614173228346457
        },
        {
          "duration": 0.375,
          "durationTicks": 480,
          "midi": 68,
          "name": "G#4",
          "ticks": 286800,
          "time": 195.6941968708333,
          "velocity": 0.6614173228346457
        },
        {
          "duration": 0.375,
          "durationTicks": 480,
          "midi": 72,
          "name": "C5",
          "ticks": 286800,
          "time": 195.6941968708333,
          "velocity": 0.6614173228346457
        },
        {
          "duration": 0.1875,
          "durationTicks": 240,
          "midi": 56,
          "name": "G#3",
          "ticks": 286800,
          "time": 195.6941968708333,
          "velocity": 0.6535433070866141
        },
        {
          "duration": 0.1875,
          "durationTicks": 240,
          "midi": 52,
          "name": "E3",
          "ticks": 287040,
          "time": 195.8816968708333,
          "velocity": 0.5984251968503937
        },
        {
          "duration": 0.375,
          "durationTicks": 480,
          "midi": 62,
          "name": "D4",
          "ticks": 287280,
          "time": 196.0691968708333,
          "velocity": 0.6299212598425197
        },
        {
          "duration": 0.375,
          "durationTicks": 480,
          "midi": 64,
          "name": "E4",
          "ticks": 287280,
          "time": 196.0691968708333,
          "velocity": 0.6299212598425197
        },
        {
          "duration": 0.375,
          "durationTicks": 480,
          "midi": 68,
          "name": "G#4",
          "ticks": 287280,
          "time": 196.0691968708333,
          "velocity": 0.6299212598425197
        },
        {
          "duration": 0.375,
          "durationTicks": 480,
          "midi": 74,
          "name": "D5",
          "ticks": 287280,
          "time": 196.0691968708333,
          "velocity": 0.6299212598425197
        },
        {
          "duration": 0.1875,
          "durationTicks": 240,
          "midi": 59,
          "name": "B3",
          "ticks": 287280,
          "time": 196.0691968708333,
          "velocity": 0.6535433070866141
        },
        {
          "duration": 0.1875,
          "durationTicks": 240,
          "midi": 52,
          "name": "E3",
          "ticks": 287520,
          "time": 196.2566968708333,
          "velocity": 0.5984251968503937
        },
        {
          "duration": 0.375,
          "durationTicks": 480,
          "midi": 59,
          "name": "B3",
          "ticks": 287760,
          "time": 196.4441968708333,
          "velocity": 0.5511811023622047
        },
        {
          "duration": 0.375,
          "durationTicks": 480,
          "midi": 64,
          "name": "E4",
          "ticks": 287760,
          "time": 196.4441968708333,
          "velocity": 0.5511811023622047
        },
        {
          "duration": 0.375,
          "durationTicks": 480,
          "midi": 71,
          "name": "B4",
          "ticks": 287760,
          "time": 196.4441968708333,
          "velocity": 0.5511811023622047
        },
        {
          "duration": 0.1875,
          "durationTicks": 240,
          "midi": 44,
          "name": "G#2",
          "ticks": 287760,
          "time": 196.4441968708333,
          "velocity": 0.4881889763779528
        },
        {
          "duration": 0.1875,
          "durationTicks": 240,
          "midi": 52,
          "name": "E3",
          "ticks": 288000,
          "time": 196.6316968708333,
          "velocity": 0.6141732283464567
        },
        {
          "duration": 0.75,
          "durationTicks": 960,
          "midi": 59,
          "name": "B3",
          "ticks": 288240,
          "time": 196.8191968708333,
          "velocity": 0.6141732283464567
        },
        {
          "duration": 0.75,
          "durationTicks": 960,
          "midi": 65,
          "name": "F4",
          "ticks": 288240,
          "time": 196.8191968708333,
          "velocity": 0.6141732283464567
        },
        {
          "duration": 0.75,
          "durationTicks": 960,
          "midi": 69,
          "name": "A4",
          "ticks": 288240,
          "time": 196.8191968708333,
          "velocity": 0.6141732283464567
        },
        {
          "duration": 0.75,
          "durationTicks": 960,
          "midi": 71,
          "name": "B4",
          "ticks": 288240,
          "time": 196.8191968708333,
          "velocity": 0.6141732283464567
        },
        {
          "duration": 0.1875,
          "durationTicks": 240,
          "midi": 41,
          "name": "F2",
          "ticks": 288240,
          "time": 196.8191968708333,
          "velocity": 0.5039370078740157
        },
        {
          "duration": 0.1875,
          "durationTicks": 240,
          "midi": 48,
          "name": "C3",
          "ticks": 288480,
          "time": 197.0066968708333,
          "velocity": 0.6614173228346457
        },
        {
          "duration": 0.1875,
          "durationTicks": 240,
          "midi": 53,
          "name": "F3",
          "ticks": 288720,
          "time": 197.1941968708333,
          "velocity": 0.6456692913385826
        },
        {
          "duration": 0.1875,
          "durationTicks": 240,
          "midi": 57,
          "name": "A3",
          "ticks": 288960,
          "time": 197.3816968708333,
          "velocity": 0.6692913385826772
        },
        {
          "duration": 0.1875,
          "durationTicks": 240,
          "midi": 60,
          "name": "C4",
          "ticks": 289200,
          "time": 197.5691968708333,
          "velocity": 0.6535433070866141
        },
        {
          "duration": 0.75,
          "durationTicks": 960,
          "midi": 65,
          "name": "F4",
          "ticks": 289200,
          "time": 197.5691968708333,
          "velocity": 0.6535433070866141
        },
        {
          "duration": 0.75,
          "durationTicks": 960,
          "midi": 69,
          "name": "A4",
          "ticks": 289200,
          "time": 197.5691968708333,
          "velocity": 0.6535433070866141
        },
        {
          "duration": 0.75,
          "durationTicks": 960,
          "midi": 72,
          "name": "C5",
          "ticks": 289200,
          "time": 197.5691968708333,
          "velocity": 0.6535433070866141
        },
        {
          "duration": 0.75,
          "durationTicks": 960,
          "midi": 60,
          "name": "C4",
          "ticks": 289200,
          "time": 197.5691968708333,
          "velocity": 0.6377952755905512
        },
        {
          "duration": 0.1875,
          "durationTicks": 240,
          "midi": 57,
          "name": "A3",
          "ticks": 289440,
          "time": 197.7566968708333,
          "velocity": 0.6141732283464567
        },
        {
          "duration": 0.1875,
          "durationTicks": 240,
          "midi": 53,
          "name": "F3",
          "ticks": 289680,
          "time": 197.9441968708333,
          "velocity": 0.5826771653543307
        },
        {
          "duration": 0.1875,
          "durationTicks": 240,
          "midi": 48,
          "name": "C3",
          "ticks": 289920,
          "time": 198.1316968708333,
          "velocity": 0.5748031496062992
        },
        {
          "duration": 0.75,
          "durationTicks": 960,
          "midi": 62,
          "name": "D4",
          "ticks": 290160,
          "time": 198.3191968708333,
          "velocity": 0.6535433070866141
        },
        {
          "duration": 0.75,
          "durationTicks": 960,
          "midi": 65,
          "name": "F4",
          "ticks": 290160,
          "time": 198.3191968708333,
          "velocity": 0.6535433070866141
        },
        {
          "duration": 0.75,
          "durationTicks": 960,
          "midi": 69,
          "name": "A4",
          "ticks": 290160,
          "time": 198.3191968708333,
          "velocity": 0.6535433070866141
        },
        {
          "duration": 0.75,
          "durationTicks": 960,
          "midi": 74,
          "name": "D5",
          "ticks": 290160,
          "time": 198.3191968708333,
          "velocity": 0.6535433070866141
        },
        {
          "duration": 0.1875,
          "durationTicks": 240,
          "midi": 41,
          "name": "F2",
          "ticks": 290160,
          "time": 198.3191968708333,
          "velocity": 0.5275590551181102
        },
        {
          "duration": 0.1875,
          "durationTicks": 240,
          "midi": 48,
          "name": "C3",
          "ticks": 290400,
          "time": 198.5066968708333,
          "velocity": 0.6692913385826772
        },
        {
          "duration": 0.1875,
          "durationTicks": 240,
          "midi": 53,
          "name": "F3",
          "ticks": 290640,
          "time": 198.6941968708333,
          "velocity": 0.6377952755905512
        },
        {
          "duration": 0.1875,
          "durationTicks": 240,
          "midi": 57,
          "name": "A3",
          "ticks": 290880,
          "time": 198.8816968708333,
          "velocity": 0.6220472440944882
        },
        {
          "duration": 0.75,
          "durationTicks": 960,
          "midi": 64,
          "name": "E4",
          "ticks": 291120,
          "time": 199.0691968708333,
          "velocity": 0.6771653543307087
        },
        {
          "duration": 0.75,
          "durationTicks": 960,
          "midi": 65,
          "name": "F4",
          "ticks": 291120,
          "time": 199.0691968708333,
          "velocity": 0.6771653543307087
        },
        {
          "duration": 0.75,
          "durationTicks": 960,
          "midi": 69,
          "name": "A4",
          "ticks": 291120,
          "time": 199.0691968708333,
          "velocity": 0.6771653543307087
        },
        {
          "duration": 0.75,
          "durationTicks": 960,
          "midi": 76,
          "name": "E5",
          "ticks": 291120,
          "time": 199.0691968708333,
          "velocity": 0.6771653543307087
        },
        {
          "duration": 0.1875,
          "durationTicks": 240,
          "midi": 60,
          "name": "C4",
          "ticks": 291120,
          "time": 199.0691968708333,
          "velocity": 0.6614173228346457
        },
        {
          "duration": 0.1875,
          "durationTicks": 240,
          "midi": 57,
          "name": "A3",
          "ticks": 291360,
          "time": 199.2566968708333,
          "velocity": 0.5826771653543307
        },
        {
          "duration": 0.1875,
          "durationTicks": 240,
          "midi": 53,
          "name": "F3",
          "ticks": 291600,
          "time": 199.4441968708333,
          "velocity": 0.5669291338582677
        },
        {
          "duration": 0.1875,
          "durationTicks": 240,
          "midi": 48,
          "name": "C3",
          "ticks": 291840,
          "time": 199.6316968708333,
          "velocity": 0.5433070866141733
        },
        {
          "duration": 1.5,
          "durationTicks": 1920,
          "midi": 69,
          "name": "A4",
          "ticks": 292080,
          "time": 199.8191968708333,
          "velocity": 0.6850393700787402
        },
        {
          "duration": 1.5,
          "durationTicks": 1920,
          "midi": 72,
          "name": "C5",
          "ticks": 292080,
          "time": 199.8191968708333,
          "velocity": 0.6850393700787402
        },
        {
          "duration": 1.5,
          "durationTicks": 1920,
          "midi": 76,
          "name": "E5",
          "ticks": 292080,
          "time": 199.8191968708333,
          "velocity": 0.6850393700787402
        },
        {
          "duration": 1.5,
          "durationTicks": 1920,
          "midi": 81,
          "name": "A5",
          "ticks": 292080,
          "time": 199.8191968708333,
          "velocity": 0.6850393700787402
        },
        {
          "duration": 0.1875,
          "durationTicks": 240,
          "midi": 33,
          "name": "A1",
          "ticks": 292080,
          "time": 199.8191968708333,
          "velocity": 0.5354330708661418
        },
        {
          "duration": 0.1875,
          "durationTicks": 240,
          "midi": 40,
          "name": "E2",
          "ticks": 292320,
          "time": 200.0066968708333,
          "velocity": 0.6141732283464567
        },
        {
          "duration": 0.1875,
          "durationTicks": 240,
          "midi": 45,
          "name": "A2",
          "ticks": 292560,
          "time": 200.1941968708333,
          "velocity": 0.6456692913385826
        },
        {
          "duration": 0.1875,
          "durationTicks": 240,
          "midi": 48,
          "name": "C3",
          "ticks": 292800,
          "time": 200.3816968708333,
          "velocity": 0.6220472440944882
        },
        {
          "duration": 0.1875,
          "durationTicks": 240,
          "midi": 52,
          "name": "E3",
          "ticks": 293040,
          "time": 200.5691968708333,
          "velocity": 0.6456692913385826
        },
        {
          "duration": 0.1875,
          "durationTicks": 240,
          "midi": 45,
          "name": "A2",
          "ticks": 293280,
          "time": 200.7566968708333,
          "velocity": 0.5433070866141733
        },
        {
          "duration": 0.1875,
          "durationTicks": 240,
          "midi": 52,
          "name": "E3",
          "ticks": 293520,
          "time": 200.9441968708333,
          "velocity": 0.6377952755905512
        },
        {
          "duration": 0.1875,
          "durationTicks": 240,
          "midi": 57,
          "name": "A3",
          "ticks": 293760,
          "time": 201.1316968708333,
          "velocity": 0.6456692913385826
        },
        {
          "duration": 0.375,
          "durationTicks": 480,
          "midi": 64,
          "name": "E4",
          "ticks": 294000,
          "time": 201.3191968708333,
          "velocity": 0.5433070866141733
        },
        {
          "duration": 0.375,
          "durationTicks": 480,
          "midi": 76,
          "name": "E5",
          "ticks": 294000,
          "time": 201.3191968708333,
          "velocity": 0.5433070866141733
        },
        {
          "duration": 0.1875,
          "durationTicks": 240,
          "midi": 57,
          "name": "A3",
          "ticks": 294240,
          "time": 201.5066968708333,
          "velocity": 0.5275590551181102
        },
        {
          "duration": 0.375,
          "durationTicks": 480,
          "midi": 63,
          "name": "D#4",
          "ticks": 294480,
          "time": 201.6941968708333,
          "velocity": 0.6062992125984252
        },
        {
          "duration": 0.375,
          "durationTicks": 480,
          "midi": 75,
          "name": "D#5",
          "ticks": 294480,
          "time": 201.6941968708333,
          "velocity": 0.6062992125984252
        },
        {
          "duration": 0.1875,
          "durationTicks": 240,
          "midi": 52,
          "name": "E3",
          "ticks": 294480,
          "time": 201.6941968708333,
          "velocity": 0.5669291338582677
        },
        {
          "duration": 0.1875,
          "durationTicks": 240,
          "midi": 45,
          "name": "A2",
          "ticks": 294720,
          "time": 201.8816968708333,
          "velocity": 0.5433070866141733
        },
        {
          "duration": 0.375,
          "durationTicks": 480,
          "midi": 64,
          "name": "E4",
          "ticks": 294960,
          "time": 202.0691968708333,
          "velocity": 0.6377952755905512
        },
        {
          "duration": 0.375,
          "durationTicks": 480,
          "midi": 76,
          "name": "E5",
          "ticks": 294960,
          "time": 202.0691968708333,
          "velocity": 0.6377952755905512
        },
        {
          "duration": 0.1875,
          "durationTicks": 240,
          "midi": 52,
          "name": "E3",
          "ticks": 294960,
          "time": 202.0691968708333,
          "velocity": 0.6535433070866141
        },
        {
          "duration": 0.1875,
          "durationTicks": 240,
          "midi": 57,
          "name": "A3",
          "ticks": 295200,
          "time": 202.2566968708333,
          "velocity": 0.6220472440944882
        },
        {
          "duration": 0.375,
          "durationTicks": 480,
          "midi": 68,
          "name": "G#4",
          "ticks": 295440,
          "time": 202.4441968708333,
          "velocity": 0.6771653543307087
        },
        {
          "duration": 0.375,
          "durationTicks": 480,
          "midi": 80,
          "name": "G#5",
          "ticks": 295440,
          "time": 202.4441968708333,
          "velocity": 0.6771653543307087
        },
        {
          "duration": 0.375,
          "durationTicks": 480,
          "midi": 45,
          "name": "A2",
          "ticks": 295440,
          "time": 202.4441968708333,
          "velocity": 0.48031496062992124
        },
        {
          "duration": 1.5,
          "durationTicks": 1920,
          "midi": 69,
          "name": "A4",
          "ticks": 295920,
          "time": 202.8191968708333,
          "velocity": 0.6692913385826772
        },
        {
          "duration": 1.5,
          "durationTicks": 1920,
          "midi": 74,
          "name": "D5",
          "ticks": 295920,
          "time": 202.8191968708333,
          "velocity": 0.6692913385826772
        },
        {
          "duration": 1.5,
          "durationTicks": 1920,
          "midi": 77,
          "name": "F5",
          "ticks": 295920,
          "time": 202.8191968708333,
          "velocity": 0.6692913385826772
        },
        {
          "duration": 1.5,
          "durationTicks": 1920,
          "midi": 81,
          "name": "A5",
          "ticks": 295920,
          "time": 202.8191968708333,
          "velocity": 0.6692913385826772
        },
        {
          "duration": 0.1875,
          "durationTicks": 240,
          "midi": 38,
          "name": "D2",
          "ticks": 295920,
          "time": 202.8191968708333,
          "velocity": 0.5354330708661418
        },
        {
          "duration": 0.1875,
          "durationTicks": 240,
          "midi": 45,
          "name": "A2",
          "ticks": 296160,
          "time": 203.0066968708333,
          "velocity": 0.6771653543307087
        },
        {
          "duration": 0.1875,
          "durationTicks": 240,
          "midi": 50,
          "name": "D3",
          "ticks": 296400,
          "time": 203.1941968708333,
          "velocity": 0.6692913385826772
        },
        {
          "duration": 0.1875,
          "durationTicks": 240,
          "midi": 53,
          "name": "F3",
          "ticks": 296640,
          "time": 203.3816968708333,
          "velocity": 0.6377952755905512
        },
        {
          "duration": 0.1875,
          "durationTicks": 240,
          "midi": 57,
          "name": "A3",
          "ticks": 296880,
          "time": 203.5691968708333,
          "velocity": 0.6456692913385826
        },
        {
          "duration": 0.1875,
          "durationTicks": 240,
          "midi": 50,
          "name": "D3",
          "ticks": 297120,
          "time": 203.7566968708333,
          "velocity": 0.5354330708661418
        },
        {
          "duration": 0.1875,
          "durationTicks": 240,
          "midi": 57,
          "name": "A3",
          "ticks": 297360,
          "time": 203.9441968708333,
          "velocity": 0.6692913385826772
        },
        {
          "duration": 0.1875,
          "durationTicks": 240,
          "midi": 62,
          "name": "D4",
          "ticks": 297600,
          "time": 204.1316968708333,
          "velocity": 0.6850393700787402
        },
        {
          "duration": 0.1875,
          "durationTicks": 240,
          "midi": 64,
          "name": "E4",
          "ticks": 297840,
          "time": 204.3191968708333,
          "velocity": 0.4881889763779528
        },
        {
          "duration": 0.75,
          "durationTicks": 960,
          "midi": 76,
          "name": "E5",
          "ticks": 297840,
          "time": 204.3191968708333,
          "velocity": 0.4881889763779528
        },
        {
          "duration": 0.75,
          "durationTicks": 960,
          "midi": 64,
          "name": "E4",
          "ticks": 297840,
          "time": 204.3191968708333,
          "velocity": 0.6535433070866141
        },
        {
          "duration": 0.1875,
          "durationTicks": 240,
          "midi": 62,
          "name": "D4",
          "ticks": 298080,
          "time": 204.5066968708333,
          "velocity": 0.5590551181102362
        },
        {
          "duration": 0.1875,
          "durationTicks": 240,
          "midi": 57,
          "name": "A3",
          "ticks": 298320,
          "time": 204.6941968708333,
          "velocity": 0.5590551181102362
        },
        {
          "duration": 0.1875,
          "durationTicks": 240,
          "midi": 53,
          "name": "F3",
          "ticks": 298560,
          "time": 204.8816968708333,
          "velocity": 0.5748031496062992
        },
        {
          "duration": 0.375,
          "durationTicks": 480,
          "midi": 67,
          "name": "G4",
          "ticks": 298800,
          "time": 205.0691968708333,
          "velocity": 0.6141732283464567
        },
        {
          "duration": 0.375,
          "durationTicks": 480,
          "midi": 79,
          "name": "G5",
          "ticks": 298800,
          "time": 205.0691968708333,
          "velocity": 0.6141732283464567
        },
        {
          "duration": 0.1875,
          "durationTicks": 240,
          "midi": 50,
          "name": "D3",
          "ticks": 298800,
          "time": 205.0691968708333,
          "velocity": 0.6062992125984252
        },
        {
          "duration": 0.1875,
          "durationTicks": 240,
          "midi": 45,
          "name": "A2",
          "ticks": 299040,
          "time": 205.2566968708333,
          "velocity": 0.5826771653543307
        },
        {
          "duration": 0.375,
          "durationTicks": 480,
          "midi": 65,
          "name": "F4",
          "ticks": 299280,
          "time": 205.4441968708333,
          "velocity": 0.5590551181102362
        },
        {
          "duration": 0.375,
          "durationTicks": 480,
          "midi": 77,
          "name": "F5",
          "ticks": 299280,
          "time": 205.4441968708333,
          "velocity": 0.5590551181102362
        },
        {
          "duration": 0.1875,
          "durationTicks": 240,
          "midi": 38,
          "name": "D2",
          "ticks": 299280,
          "time": 205.4441968708333,
          "velocity": 0.5590551181102362
        },
        {
          "duration": 0.1875,
          "durationTicks": 240,
          "midi": 45,
          "name": "A2",
          "ticks": 299520,
          "time": 205.6316968708333,
          "velocity": 0.6299212598425197
        },
        {
          "duration": 0.75,
          "durationTicks": 960,
          "midi": 64,
          "name": "E4",
          "ticks": 299760,
          "time": 205.8191968708333,
          "velocity": 0.5669291338582677
        },
        {
          "duration": 0.75,
          "durationTicks": 960,
          "midi": 65,
          "name": "F4",
          "ticks": 299760,
          "time": 205.8191968708333,
          "velocity": 0.5669291338582677
        },
        {
          "duration": 0.75,
          "durationTicks": 960,
          "midi": 69,
          "name": "A4",
          "ticks": 299760,
          "time": 205.8191968708333,
          "velocity": 0.5669291338582677
        },
        {
          "duration": 0.75,
          "durationTicks": 960,
          "midi": 76,
          "name": "E5",
          "ticks": 299760,
          "time": 205.8191968708333,
          "velocity": 0.5669291338582677
        },
        {
          "duration": 0.1875,
          "durationTicks": 240,
          "midi": 35,
          "name": "B1",
          "ticks": 299760,
          "time": 205.8191968708333,
          "velocity": 0.5275590551181102
        },
        {
          "duration": 0.1875,
          "durationTicks": 240,
          "midi": 47,
          "name": "B2",
          "ticks": 300000,
          "time": 206.0066968708333,
          "velocity": 0.6456692913385826
        },
        {
          "duration": 0.1875,
          "durationTicks": 240,
          "midi": 50,
          "name": "D3",
          "ticks": 300240,
          "time": 206.1941968708333,
          "velocity": 0.6062992125984252
        },
        {
          "duration": 0.1875,
          "durationTicks": 240,
          "midi": 53,
          "name": "F3",
          "ticks": 300480,
          "time": 206.3816968708333,
          "velocity": 0.6141732283464567
        },
        {
          "duration": 0.75,
          "durationTicks": 960,
          "midi": 62,
          "name": "D4",
          "ticks": 300720,
          "time": 206.5691968708333,
          "velocity": 0.5354330708661418
        },
        {
          "duration": 0.75,
          "durationTicks": 960,
          "midi": 65,
          "name": "F4",
          "ticks": 300720,
          "time": 206.5691968708333,
          "velocity": 0.5354330708661418
        },
        {
          "duration": 0.75,
          "durationTicks": 960,
          "midi": 69,
          "name": "A4",
          "ticks": 300720,
          "time": 206.5691968708333,
          "velocity": 0.5354330708661418
        },
        {
          "duration": 0.75,
          "durationTicks": 960,
          "midi": 74,
          "name": "D5",
          "ticks": 300720,
          "time": 206.5691968708333,
          "velocity": 0.5354330708661418
        },
        {
          "duration": 0.1875,
          "durationTicks": 240,
          "midi": 59,
          "name": "B3",
          "ticks": 300720,
          "time": 206.5691968708333,
          "velocity": 0.6535433070866141
        },
        {
          "duration": 0.1875,
          "durationTicks": 240,
          "midi": 53,
          "name": "F3",
          "ticks": 300960,
          "time": 206.7566968708333,
          "velocity": 0.5590551181102362
        },
        {
          "duration": 0.1875,
          "durationTicks": 240,
          "midi": 50,
          "name": "D3",
          "ticks": 301200,
          "time": 206.9441968708333,
          "velocity": 0.5354330708661418
        },
        {
          "duration": 0.1875,
          "durationTicks": 240,
          "midi": 47,
          "name": "B2",
          "ticks": 301440,
          "time": 207.1316968708333,
          "velocity": 0.5511811023622047
        },
        {
          "duration": 0.75,
          "durationTicks": 960,
          "midi": 60,
          "name": "C4",
          "ticks": 301680,
          "time": 207.3191968708333,
          "velocity": 0.5590551181102362
        },
        {
          "duration": 0.75,
          "durationTicks": 960,
          "midi": 64,
          "name": "E4",
          "ticks": 301680,
          "time": 207.3191968708333,
          "velocity": 0.5590551181102362
        },
        {
          "duration": 0.75,
          "durationTicks": 960,
          "midi": 68,
          "name": "G#4",
          "ticks": 301680,
          "time": 207.3191968708333,
          "velocity": 0.5590551181102362
        },
        {
          "duration": 0.75,
          "durationTicks": 960,
          "midi": 72,
          "name": "C5",
          "ticks": 301680,
          "time": 207.3191968708333,
          "velocity": 0.5590551181102362
        },
        {
          "duration": 0.1875,
          "durationTicks": 240,
          "midi": 40,
          "name": "E2",
          "ticks": 301680,
          "time": 207.3191968708333,
          "velocity": 0.5118110236220472
        },
        {
          "duration": 0.1875,
          "durationTicks": 240,
          "midi": 47,
          "name": "B2",
          "ticks": 301920,
          "time": 207.5066968708333,
          "velocity": 0.6062992125984252
        },
        {
          "duration": 0.1875,
          "durationTicks": 240,
          "midi": 52,
          "name": "E3",
          "ticks": 302160,
          "time": 207.6941968708333,
          "velocity": 0.6614173228346457
        },
        {
          "duration": 0.1875,
          "durationTicks": 240,
          "midi": 56,
          "name": "G#3",
          "ticks": 302400,
          "time": 207.8816968708333,
          "velocity": 0.6456692913385826
        },
        {
          "duration": 0.75,
          "durationTicks": 960,
          "midi": 62,
          "name": "D4",
          "ticks": 302640,
          "time": 208.0691968708333,
          "velocity": 0.6456692913385826
        },
        {
          "duration": 0.75,
          "durationTicks": 960,
          "midi": 64,
          "name": "E4",
          "ticks": 302640,
          "time": 208.0691968708333,
          "velocity": 0.6456692913385826
        },
        {
          "duration": 0.75,
          "durationTicks": 960,
          "midi": 68,
          "name": "G#4",
          "ticks": 302640,
          "time": 208.0691968708333,
          "velocity": 0.6456692913385826
        },
        {
          "duration": 0.75,
          "durationTicks": 960,
          "midi": 74,
          "name": "D5",
          "ticks": 302640,
          "time": 208.0691968708333,
          "velocity": 0.6456692913385826
        },
        {
          "duration": 0.1875,
          "durationTicks": 240,
          "midi": 59,
          "name": "B3",
          "ticks": 302640,
          "time": 208.0691968708333,
          "velocity": 0.6220472440944882
        },
        {
          "duration": 0.1875,
          "durationTicks": 240,
          "midi": 56,
          "name": "G#3",
          "ticks": 302880,
          "time": 208.2566968708333,
          "velocity": 0.6062992125984252
        },
        {
          "duration": 0.1875,
          "durationTicks": 240,
          "midi": 52,
          "name": "E3",
          "ticks": 303120,
          "time": 208.4441968708333,
          "velocity": 0.5748031496062992
        },
        {
          "duration": 0.1875,
          "durationTicks": 240,
          "midi": 47,
          "name": "B2",
          "ticks": 303360,
          "time": 208.6316968708333,
          "velocity": 0.5275590551181102
        },
        {
          "duration": 3,
          "durationTicks": 3840,
          "midi": 64,
          "name": "E4",
          "ticks": 303600,
          "time": 208.8191968708333,
          "velocity": 0.6377952755905512
        },
        {
          "duration": 3,
          "durationTicks": 3840,
          "midi": 69,
          "name": "A4",
          "ticks": 303600,
          "time": 208.8191968708333,
          "velocity": 0.6377952755905512
        },
        {
          "duration": 3,
          "durationTicks": 3840,
          "midi": 72,
          "name": "C5",
          "ticks": 303600,
          "time": 208.8191968708333,
          "velocity": 0.6377952755905512
        },
        {
          "duration": 3,
          "durationTicks": 3840,
          "midi": 76,
          "name": "E5",
          "ticks": 303600,
          "time": 208.8191968708333,
          "velocity": 0.6377952755905512
        },
        {
          "duration": 3,
          "durationTicks": 3840,
          "midi": 41,
          "name": "F2",
          "ticks": 303600,
          "time": 208.8191968708333,
          "velocity": 0.6614173228346457
        },
        {
          "duration": 3,
          "durationTicks": 3840,
          "midi": 53,
          "name": "F3",
          "ticks": 303600,
          "time": 208.8191968708333,
          "velocity": 0.6614173228346457
        },
        {
          "duration": 0.375,
          "durationTicks": 480,
          "midi": 45,
          "name": "A2",
          "ticks": 307440,
          "time": 211.8191968708333,
          "velocity": 0.5275590551181102
        },
        {
          "duration": 0.375,
          "durationTicks": 480,
          "midi": 48,
          "name": "C3",
          "ticks": 307440,
          "time": 211.8191968708333,
          "velocity": 0.5275590551181102
        },
        {
          "duration": 0.375,
          "durationTicks": 480,
          "midi": 52,
          "name": "E3",
          "ticks": 307440,
          "time": 211.8191968708333,
          "velocity": 0.5275590551181102
        },
        {
          "duration": 0.375,
          "durationTicks": 480,
          "midi": 57,
          "name": "A3",
          "ticks": 307440,
          "time": 211.8191968708333,
          "velocity": 0.5275590551181102
        },
        {
          "duration": 0.1875,
          "durationTicks": 240,
          "midi": 21,
          "name": "A0",
          "ticks": 307440,
          "time": 211.8191968708333,
          "velocity": 0.5354330708661418
        },
        {
          "duration": 0.1875,
          "durationTicks": 240,
          "midi": 33,
          "name": "A1",
          "ticks": 307440,
          "time": 211.8191968708333,
          "velocity": 0.5354330708661418
        },
        {
          "duration": 0.1875,
          "durationTicks": 240,
          "midi": 45,
          "name": "A2",
          "ticks": 307680,
          "time": 212.0066968708333,
          "velocity": 0.6456692913385826
        },
        {
          "duration": 0.375,
          "durationTicks": 480,
          "midi": 57,
          "name": "A3",
          "ticks": 307920,
          "time": 212.1941968708333,
          "velocity": 0.7165354330708661
        },
        {
          "duration": 0.375,
          "durationTicks": 480,
          "midi": 69,
          "name": "A4",
          "ticks": 307920,
          "time": 212.1941968708333,
          "velocity": 0.7165354330708661
        },
        {
          "duration": 0.1875,
          "durationTicks": 240,
          "midi": 52,
          "name": "E3",
          "ticks": 307920,
          "time": 212.1941968708333,
          "velocity": 0.6614173228346457
        },
        {
          "duration": 0.1875,
          "durationTicks": 240,
          "midi": 45,
          "name": "A2",
          "ticks": 308160,
          "time": 212.3816968708333,
          "velocity": 0.5669291338582677
        },
        {
          "duration": 0.375,
          "durationTicks": 480,
          "midi": 60,
          "name": "C4",
          "ticks": 308400,
          "time": 212.5691968708333,
          "velocity": 0.6614173228346457
        },
        {
          "duration": 0.375,
          "durationTicks": 480,
          "midi": 72,
          "name": "C5",
          "ticks": 308400,
          "time": 212.5691968708333,
          "velocity": 0.6614173228346457
        },
        {
          "duration": 0.1875,
          "durationTicks": 240,
          "midi": 57,
          "name": "A3",
          "ticks": 308400,
          "time": 212.5691968708333,
          "velocity": 0.6692913385826772
        },
        {
          "duration": 0.1875,
          "durationTicks": 240,
          "midi": 52,
          "name": "E3",
          "ticks": 308640,
          "time": 212.7566968708333,
          "velocity": 0.5511811023622047
        },
        {
          "duration": 0.375,
          "durationTicks": 480,
          "midi": 59,
          "name": "B3",
          "ticks": 308880,
          "time": 212.9441968708333,
          "velocity": 0.5590551181102362
        },
        {
          "duration": 0.375,
          "durationTicks": 480,
          "midi": 71,
          "name": "B4",
          "ticks": 308880,
          "time": 212.9441968708333,
          "velocity": 0.5590551181102362
        },
        {
          "duration": 0.1875,
          "durationTicks": 240,
          "midi": 45,
          "name": "A2",
          "ticks": 308880,
          "time": 212.9441968708333,
          "velocity": 0.5669291338582677
        },
        {
          "duration": 0.1875,
          "durationTicks": 240,
          "midi": 52,
          "name": "E3",
          "ticks": 309120,
          "time": 213.1316968708333,
          "velocity": 0.5905511811023622
        },
        {
          "duration": 0.75,
          "durationTicks": 960,
          "midi": 59,
          "name": "B3",
          "ticks": 309360,
          "time": 213.3191968708333,
          "velocity": 0.6299212598425197
        },
        {
          "duration": 0.75,
          "durationTicks": 960,
          "midi": 71,
          "name": "B4",
          "ticks": 309360,
          "time": 213.3191968708333,
          "velocity": 0.6299212598425197
        },
        {
          "duration": 0.1875,
          "durationTicks": 240,
          "midi": 33,
          "name": "A1",
          "ticks": 309360,
          "time": 213.3191968708333,
          "velocity": 0.49606299212598426
        },
        {
          "duration": 0.1875,
          "durationTicks": 240,
          "midi": 45,
          "name": "A2",
          "ticks": 309600,
          "time": 213.5066968708333,
          "velocity": 0.6614173228346457
        },
        {
          "duration": 0.1875,
          "durationTicks": 240,
          "midi": 45,
          "name": "A2",
          "ticks": 309840,
          "time": 213.6941968708333,
          "velocity": 0.6141732283464567
        },
        {
          "duration": 0.1875,
          "durationTicks": 240,
          "midi": 52,
          "name": "E3",
          "ticks": 310080,
          "time": 213.8816968708333,
          "velocity": 0.6141732283464567
        },
        {
          "duration": 0.75,
          "durationTicks": 960,
          "midi": 57,
          "name": "A3",
          "ticks": 310320,
          "time": 214.0691968708333,
          "velocity": 0.5275590551181102
        },
        {
          "duration": 0.75,
          "durationTicks": 960,
          "midi": 69,
          "name": "A4",
          "ticks": 310320,
          "time": 214.0691968708333,
          "velocity": 0.5275590551181102
        },
        {
          "duration": 0.1875,
          "durationTicks": 240,
          "midi": 52,
          "name": "E3",
          "ticks": 310560,
          "time": 214.2566968708333,
          "velocity": 0.5511811023622047
        },
        {
          "duration": 0.1875,
          "durationTicks": 240,
          "midi": 45,
          "name": "A2",
          "ticks": 310800,
          "time": 214.4441968708333,
          "velocity": 0.5511811023622047
        },
        {
          "duration": 0.1875,
          "durationTicks": 240,
          "midi": 52,
          "name": "E3",
          "ticks": 311040,
          "time": 214.6316968708333,
          "velocity": 0.6692913385826772
        },
        {
          "duration": 0.375,
          "durationTicks": 480,
          "midi": 59,
          "name": "B3",
          "ticks": 311280,
          "time": 214.8191968708333,
          "velocity": 0.6377952755905512
        },
        {
          "duration": 0.375,
          "durationTicks": 480,
          "midi": 64,
          "name": "E4",
          "ticks": 311280,
          "time": 214.8191968708333,
          "velocity": 0.6377952755905512
        },
        {
          "duration": 0.375,
          "durationTicks": 480,
          "midi": 67,
          "name": "G4",
          "ticks": 311280,
          "time": 214.8191968708333,
          "velocity": 0.6377952755905512
        },
        {
          "duration": 0.375,
          "durationTicks": 480,
          "midi": 71,
          "name": "B4",
          "ticks": 311280,
          "time": 214.8191968708333,
          "velocity": 0.6377952755905512
        },
        {
          "duration": 0.1875,
          "durationTicks": 240,
          "midi": 31,
          "name": "G1",
          "ticks": 311280,
          "time": 214.8191968708333,
          "velocity": 0.5039370078740157
        },
        {
          "duration": 0.1875,
          "durationTicks": 240,
          "midi": 43,
          "name": "G2",
          "ticks": 311520,
          "time": 215.0066968708333,
          "velocity": 0.6850393700787402
        },
        {
          "duration": 0.375,
          "durationTicks": 480,
          "midi": 57,
          "name": "A3",
          "ticks": 311760,
          "time": 215.1941968708333,
          "velocity": 0.5669291338582677
        },
        {
          "duration": 0.375,
          "durationTicks": 480,
          "midi": 64,
          "name": "E4",
          "ticks": 311760,
          "time": 215.1941968708333,
          "velocity": 0.5669291338582677
        },
        {
          "duration": 0.375,
          "durationTicks": 480,
          "midi": 69,
          "name": "A4",
          "ticks": 311760,
          "time": 215.1941968708333,
          "velocity": 0.5669291338582677
        },
        {
          "duration": 0.1875,
          "durationTicks": 240,
          "midi": 43,
          "name": "G2",
          "ticks": 311760,
          "time": 215.1941968708333,
          "velocity": 0.5826771653543307
        },
        {
          "duration": 0.1875,
          "durationTicks": 240,
          "midi": 52,
          "name": "E3",
          "ticks": 312000,
          "time": 215.3816968708333,
          "velocity": 0.6929133858267716
        },
        {
          "duration": 0.375,
          "durationTicks": 480,
          "midi": 59,
          "name": "B3",
          "ticks": 312240,
          "time": 215.5691968708333,
          "velocity": 0.6299212598425197
        },
        {
          "duration": 0.375,
          "durationTicks": 480,
          "midi": 64,
          "name": "E4",
          "ticks": 312240,
          "time": 215.5691968708333,
          "velocity": 0.6299212598425197
        },
        {
          "duration": 0.375,
          "durationTicks": 480,
          "midi": 71,
          "name": "B4",
          "ticks": 312240,
          "time": 215.5691968708333,
          "velocity": 0.6299212598425197
        },
        {
          "duration": 0.1875,
          "durationTicks": 240,
          "midi": 55,
          "name": "G3",
          "ticks": 312240,
          "time": 215.5691968708333,
          "velocity": 0.6692913385826772
        },
        {
          "duration": 0.1875,
          "durationTicks": 240,
          "midi": 52,
          "name": "E3",
          "ticks": 312480,
          "time": 215.7566968708333,
          "velocity": 0.5590551181102362
        },
        {
          "duration": 0.375,
          "durationTicks": 480,
          "midi": 60,
          "name": "C4",
          "ticks": 312720,
          "time": 215.9441968708333,
          "velocity": 0.6299212598425197
        },
        {
          "duration": 0.375,
          "durationTicks": 480,
          "midi": 64,
          "name": "E4",
          "ticks": 312720,
          "time": 215.9441968708333,
          "velocity": 0.6299212598425197
        },
        {
          "duration": 0.375,
          "durationTicks": 480,
          "midi": 72,
          "name": "C5",
          "ticks": 312720,
          "time": 215.9441968708333,
          "velocity": 0.6299212598425197
        },
        {
          "duration": 0.1875,
          "durationTicks": 240,
          "midi": 43,
          "name": "G2",
          "ticks": 312720,
          "time": 215.9441968708333,
          "velocity": 0.5511811023622047
        },
        {
          "duration": 0.1875,
          "durationTicks": 240,
          "midi": 43,
          "name": "G2",
          "ticks": 312960,
          "time": 216.1316968708333,
          "velocity": 0.5984251968503937
        },
        {
          "duration": 0.75,
          "durationTicks": 960,
          "midi": 62,
          "name": "D4",
          "ticks": 313200,
          "time": 216.3191968708333,
          "velocity": 0.6456692913385826
        },
        {
          "duration": 0.75,
          "durationTicks": 960,
          "midi": 64,
          "name": "E4",
          "ticks": 313200,
          "time": 216.3191968708333,
          "velocity": 0.6456692913385826
        },
        {
          "duration": 0.75,
          "durationTicks": 960,
          "midi": 74,
          "name": "D5",
          "ticks": 313200,
          "time": 216.3191968708333,
          "velocity": 0.6456692913385826
        },
        {
          "duration": 0.1875,
          "durationTicks": 240,
          "midi": 29,
          "name": "F1",
          "ticks": 313200,
          "time": 216.3191968708333,
          "velocity": 0.5354330708661418
        },
        {
          "duration": 0.1875,
          "durationTicks": 240,
          "midi": 41,
          "name": "F2",
          "ticks": 313440,
          "time": 216.5066968708333,
          "velocity": 0.6614173228346457
        },
        {
          "duration": 0.1875,
          "durationTicks": 240,
          "midi": 41,
          "name": "F2",
          "ticks": 313680,
          "time": 216.6941968708333,
          "velocity": 0.6141732283464567
        },
        {
          "duration": 0.1875,
          "durationTicks": 240,
          "midi": 48,
          "name": "C3",
          "ticks": 313920,
          "time": 216.8816968708333,
          "velocity": 0.6377952755905512
        },
        {
          "duration": 0.75,
          "durationTicks": 960,
          "midi": 64,
          "name": "E4",
          "ticks": 314160,
          "time": 217.0691968708333,
          "velocity": 0.6377952755905512
        },
        {
          "duration": 0.75,
          "durationTicks": 960,
          "midi": 67,
          "name": "G4",
          "ticks": 314160,
          "time": 217.0691968708333,
          "velocity": 0.6377952755905512
        },
        {
          "duration": 0.75,
          "durationTicks": 960,
          "midi": 71,
          "name": "B4",
          "ticks": 314160,
          "time": 217.0691968708333,
          "velocity": 0.6377952755905512
        },
        {
          "duration": 0.75,
          "durationTicks": 960,
          "midi": 76,
          "name": "E5",
          "ticks": 314160,
          "time": 217.0691968708333,
          "velocity": 0.6377952755905512
        },
        {
          "duration": 0.1875,
          "durationTicks": 240,
          "midi": 53,
          "name": "F3",
          "ticks": 314160,
          "time": 217.0691968708333,
          "velocity": 0.6614173228346457
        },
        {
          "duration": 0.1875,
          "durationTicks": 240,
          "midi": 48,
          "name": "C3",
          "ticks": 314400,
          "time": 217.2566968708333,
          "velocity": 0.5826771653543307
        },
        {
          "duration": 0.1875,
          "durationTicks": 240,
          "midi": 41,
          "name": "F2",
          "ticks": 314640,
          "time": 217.4441968708333,
          "velocity": 0.5275590551181102
        },
        {
          "duration": 0.1875,
          "durationTicks": 240,
          "midi": 41,
          "name": "F2",
          "ticks": 314880,
          "time": 217.6316968708333,
          "velocity": 0.5748031496062992
        },
        {
          "duration": 0.1875,
          "durationTicks": 240,
          "midi": 29,
          "name": "F1",
          "ticks": 315120,
          "time": 217.8191968708333,
          "velocity": 0.5669291338582677
        },
        {
          "duration": 0.1875,
          "durationTicks": 240,
          "midi": 41,
          "name": "F2",
          "ticks": 315360,
          "time": 218.0066968708333,
          "velocity": 0.6692913385826772
        },
        {
          "duration": 0.1875,
          "durationTicks": 240,
          "midi": 41,
          "name": "F2",
          "ticks": 315600,
          "time": 218.1941968708333,
          "velocity": 0.6141732283464567
        },
        {
          "duration": 0.1875,
          "durationTicks": 240,
          "midi": 48,
          "name": "C3",
          "ticks": 315840,
          "time": 218.3816968708333,
          "velocity": 0.6456692913385826
        },
        {
          "duration": 0.375,
          "durationTicks": 480,
          "midi": 64,
          "name": "E4",
          "ticks": 316080,
          "time": 218.5691968708333,
          "velocity": 0.5511811023622047
        },
        {
          "duration": 0.375,
          "durationTicks": 480,
          "midi": 67,
          "name": "G4",
          "ticks": 316080,
          "time": 218.5691968708333,
          "velocity": 0.5511811023622047
        },
        {
          "duration": 0.375,
          "durationTicks": 480,
          "midi": 76,
          "name": "E5",
          "ticks": 316080,
          "time": 218.5691968708333,
          "velocity": 0.5511811023622047
        },
        {
          "duration": 0.1875,
          "durationTicks": 240,
          "midi": 53,
          "name": "F3",
          "ticks": 316080,
          "time": 218.5691968708333,
          "velocity": 0.6299212598425197
        },
        {
          "duration": 0.1875,
          "durationTicks": 240,
          "midi": 48,
          "name": "C3",
          "ticks": 316320,
          "time": 218.7566968708333,
          "velocity": 0.5669291338582677
        },
        {
          "duration": 0.375,
          "durationTicks": 480,
          "midi": 64,
          "name": "E4",
          "ticks": 316560,
          "time": 218.9441968708333,
          "velocity": 0.5669291338582677
        },
        {
          "duration": 0.375,
          "durationTicks": 480,
          "midi": 67,
          "name": "G4",
          "ticks": 316560,
          "time": 218.9441968708333,
          "velocity": 0.5669291338582677
        },
        {
          "duration": 0.375,
          "durationTicks": 480,
          "midi": 76,
          "name": "E5",
          "ticks": 316560,
          "time": 218.9441968708333,
          "velocity": 0.5669291338582677
        },
        {
          "duration": 0.1875,
          "durationTicks": 240,
          "midi": 41,
          "name": "F2",
          "ticks": 316560,
          "time": 218.9441968708333,
          "velocity": 0.5354330708661418
        },
        {
          "duration": 0.1875,
          "durationTicks": 240,
          "midi": 41,
          "name": "F2",
          "ticks": 316800,
          "time": 219.1316968708333,
          "velocity": 0.5905511811023622
        },
        {
          "duration": 0.75,
          "durationTicks": 960,
          "midi": 57,
          "name": "A3",
          "ticks": 317040,
          "time": 219.3191968708333,
          "velocity": 0.47244094488188976
        },
        {
          "duration": 0.75,
          "durationTicks": 960,
          "midi": 60,
          "name": "C4",
          "ticks": 317040,
          "time": 219.3191968708333,
          "velocity": 0.47244094488188976
        },
        {
          "duration": 0.75,
          "durationTicks": 960,
          "midi": 64,
          "name": "E4",
          "ticks": 317040,
          "time": 219.3191968708333,
          "velocity": 0.47244094488188976
        },
        {
          "duration": 0.75,
          "durationTicks": 960,
          "midi": 66,
          "name": "F#4",
          "ticks": 317040,
          "time": 219.3191968708333,
          "velocity": 0.47244094488188976
        },
        {
          "duration": 0.75,
          "durationTicks": 960,
          "midi": 69,
          "name": "A4",
          "ticks": 317040,
          "time": 219.3191968708333,
          "velocity": 0.47244094488188976
        },
        {
          "duration": 0.1875,
          "durationTicks": 240,
          "midi": 29,
          "name": "F1",
          "ticks": 317040,
          "time": 219.3191968708333,
          "velocity": 0.48031496062992124
        },
        {
          "duration": 0.1875,
          "durationTicks": 240,
          "midi": 41,
          "name": "F2",
          "ticks": 317280,
          "time": 219.5066968708333,
          "velocity": 0.6535433070866141
        },
        {
          "duration": 0.1875,
          "durationTicks": 240,
          "midi": 41,
          "name": "F2",
          "ticks": 317520,
          "time": 219.6941968708333,
          "velocity": 0.6377952755905512
        },
        {
          "duration": 0.1875,
          "durationTicks": 240,
          "midi": 48,
          "name": "C3",
          "ticks": 317760,
          "time": 219.8816968708333,
          "velocity": 0.6614173228346457
        },
        {
          "duration": 0.75,
          "durationTicks": 960,
          "midi": 65,
          "name": "F4",
          "ticks": 318000,
          "time": 220.0691968708333,
          "velocity": 0.7086614173228346
        },
        {
          "duration": 0.75,
          "durationTicks": 960,
          "midi": 69,
          "name": "A4",
          "ticks": 318000,
          "time": 220.0691968708333,
          "velocity": 0.7086614173228346
        },
        {
          "duration": 0.75,
          "durationTicks": 960,
          "midi": 72,
          "name": "C5",
          "ticks": 318000,
          "time": 220.0691968708333,
          "velocity": 0.7086614173228346
        },
        {
          "duration": 0.75,
          "durationTicks": 960,
          "midi": 77,
          "name": "F5",
          "ticks": 318000,
          "time": 220.0691968708333,
          "velocity": 0.7086614173228346
        },
        {
          "duration": 0.1875,
          "durationTicks": 240,
          "midi": 53,
          "name": "F3",
          "ticks": 318000,
          "time": 220.0691968708333,
          "velocity": 0.6692913385826772
        },
        {
          "duration": 0.1875,
          "durationTicks": 240,
          "midi": 48,
          "name": "C3",
          "ticks": 318240,
          "time": 220.2566968708333,
          "velocity": 0.5354330708661418
        },
        {
          "duration": 0.1875,
          "durationTicks": 240,
          "midi": 41,
          "name": "F2",
          "ticks": 318480,
          "time": 220.4441968708333,
          "velocity": 0.5590551181102362
        },
        {
          "duration": 0.1875,
          "durationTicks": 240,
          "midi": 41,
          "name": "F2",
          "ticks": 318720,
          "time": 220.6316968708333,
          "velocity": 0.5984251968503937
        },
        {
          "duration": 0.75,
          "durationTicks": 960,
          "midi": 64,
          "name": "E4",
          "ticks": 318960,
          "time": 220.8191968708333,
          "velocity": 0.5748031496062992
        },
        {
          "duration": 0.75,
          "durationTicks": 960,
          "midi": 69,
          "name": "A4",
          "ticks": 318960,
          "time": 220.8191968708333,
          "velocity": 0.5748031496062992
        },
        {
          "duration": 0.75,
          "durationTicks": 960,
          "midi": 76,
          "name": "E5",
          "ticks": 318960,
          "time": 220.8191968708333,
          "velocity": 0.5748031496062992
        },
        {
          "duration": 0.1875,
          "durationTicks": 240,
          "midi": 26,
          "name": "D1",
          "ticks": 318960,
          "time": 220.8191968708333,
          "velocity": 0.4645669291338583
        },
        {
          "duration": 0.1875,
          "durationTicks": 240,
          "midi": 38,
          "name": "D2",
          "ticks": 319200,
          "time": 221.0066968708333,
          "velocity": 0.6614173228346457
        },
        {
          "duration": 0.1875,
          "durationTicks": 240,
          "midi": 38,
          "name": "D2",
          "ticks": 319440,
          "time": 221.1941968708333,
          "velocity": 0.6220472440944882
        },
        {
          "duration": 0.1875,
          "durationTicks": 240,
          "midi": 45,
          "name": "A2",
          "ticks": 319680,
          "time": 221.3816968708333,
          "velocity": 0.6062992125984252
        },
        {
          "duration": 0.75,
          "durationTicks": 960,
          "midi": 62,
          "name": "D4",
          "ticks": 319920,
          "time": 221.5691968708333,
          "velocity": 0.5748031496062992
        },
        {
          "duration": 0.75,
          "durationTicks": 960,
          "midi": 65,
          "name": "F4",
          "ticks": 319920,
          "time": 221.5691968708333,
          "velocity": 0.5748031496062992
        },
        {
          "duration": 0.75,
          "durationTicks": 960,
          "midi": 69,
          "name": "A4",
          "ticks": 319920,
          "time": 221.5691968708333,
          "velocity": 0.5748031496062992
        },
        {
          "duration": 0.75,
          "durationTicks": 960,
          "midi": 74,
          "name": "D5",
          "ticks": 319920,
          "time": 221.5691968708333,
          "velocity": 0.5748031496062992
        },
        {
          "duration": 0.1875,
          "durationTicks": 240,
          "midi": 50,
          "name": "D3",
          "ticks": 319920,
          "time": 221.5691968708333,
          "velocity": 0.6456692913385826
        },
        {
          "duration": 0.1875,
          "durationTicks": 240,
          "midi": 45,
          "name": "A2",
          "ticks": 320160,
          "time": 221.7566968708333,
          "velocity": 0.5748031496062992
        },
        {
          "duration": 0.1875,
          "durationTicks": 240,
          "midi": 38,
          "name": "D2",
          "ticks": 320400,
          "time": 221.9441968708333,
          "velocity": 0.5275590551181102
        },
        {
          "duration": 0.1875,
          "durationTicks": 240,
          "midi": 38,
          "name": "D2",
          "ticks": 320640,
          "time": 222.1316968708333,
          "velocity": 0.5748031496062992
        },
        {
          "duration": 0.75,
          "durationTicks": 960,
          "midi": 60,
          "name": "C4",
          "ticks": 320880,
          "time": 222.3191968708333,
          "velocity": 0.5275590551181102
        },
        {
          "duration": 0.75,
          "durationTicks": 960,
          "midi": 64,
          "name": "E4",
          "ticks": 320880,
          "time": 222.3191968708333,
          "velocity": 0.5275590551181102
        },
        {
          "duration": 0.75,
          "durationTicks": 960,
          "midi": 68,
          "name": "G#4",
          "ticks": 320880,
          "time": 222.3191968708333,
          "velocity": 0.5275590551181102
        },
        {
          "duration": 0.75,
          "durationTicks": 960,
          "midi": 72,
          "name": "C5",
          "ticks": 320880,
          "time": 222.3191968708333,
          "velocity": 0.5275590551181102
        },
        {
          "duration": 0.1875,
          "durationTicks": 240,
          "midi": 28,
          "name": "E1",
          "ticks": 320880,
          "time": 222.3191968708333,
          "velocity": 0.5196850393700787
        },
        {
          "duration": 0.1875,
          "durationTicks": 240,
          "midi": 40,
          "name": "E2",
          "ticks": 321120,
          "time": 222.5066968708333,
          "velocity": 0.6692913385826772
        },
        {
          "duration": 0.1875,
          "durationTicks": 240,
          "midi": 40,
          "name": "E2",
          "ticks": 321360,
          "time": 222.6941968708333,
          "velocity": 0.5826771653543307
        },
        {
          "duration": 0.1875,
          "durationTicks": 240,
          "midi": 47,
          "name": "B2",
          "ticks": 321600,
          "time": 222.8816968708333,
          "velocity": 0.6771653543307087
        },
        {
          "duration": 0.75,
          "durationTicks": 960,
          "midi": 59,
          "name": "B3",
          "ticks": 321840,
          "time": 223.0691968708333,
          "velocity": 0.5905511811023622
        },
        {
          "duration": 0.75,
          "durationTicks": 960,
          "midi": 64,
          "name": "E4",
          "ticks": 321840,
          "time": 223.0691968708333,
          "velocity": 0.5905511811023622
        },
        {
          "duration": 0.75,
          "durationTicks": 960,
          "midi": 68,
          "name": "G#4",
          "ticks": 321840,
          "time": 223.0691968708333,
          "velocity": 0.5905511811023622
        },
        {
          "duration": 0.75,
          "durationTicks": 960,
          "midi": 71,
          "name": "B4",
          "ticks": 321840,
          "time": 223.0691968708333,
          "velocity": 0.5905511811023622
        },
        {
          "duration": 0.1875,
          "durationTicks": 240,
          "midi": 52,
          "name": "E3",
          "ticks": 321840,
          "time": 223.0691968708333,
          "velocity": 0.6535433070866141
        },
        {
          "duration": 0.1875,
          "durationTicks": 240,
          "midi": 47,
          "name": "B2",
          "ticks": 322080,
          "time": 223.2566968708333,
          "velocity": 0.5748031496062992
        },
        {
          "duration": 0.1875,
          "durationTicks": 240,
          "midi": 40,
          "name": "E2",
          "ticks": 322320,
          "time": 223.4441968708333,
          "velocity": 0.5196850393700787
        },
        {
          "duration": 0.1875,
          "durationTicks": 240,
          "midi": 47,
          "name": "B2",
          "ticks": 322560,
          "time": 223.6316968708333,
          "velocity": 0.6535433070866141
        },
        {
          "duration": 0.1875,
          "durationTicks": 240,
          "midi": 29,
          "name": "F1",
          "ticks": 322800,
          "time": 223.8191968708333,
          "velocity": 0.5354330708661418
        },
        {
          "duration": 0.1875,
          "durationTicks": 240,
          "midi": 41,
          "name": "F2",
          "ticks": 323040,
          "time": 224.0066968708333,
          "velocity": 0.6535433070866141
        },
        {
          "duration": 0.1875,
          "durationTicks": 240,
          "midi": 41,
          "name": "F2",
          "ticks": 323280,
          "time": 224.1941968708333,
          "velocity": 0.6614173228346457
        },
        {
          "duration": 0.1875,
          "durationTicks": 240,
          "midi": 48,
          "name": "C3",
          "ticks": 323520,
          "time": 224.3816968708333,
          "velocity": 0.6850393700787402
        },
        {
          "duration": 0.375,
          "durationTicks": 480,
          "midi": 62,
          "name": "D4",
          "ticks": 323760,
          "time": 224.5691968708333,
          "velocity": 0.5354330708661418
        },
        {
          "duration": 0.375,
          "durationTicks": 480,
          "midi": 74,
          "name": "D5",
          "ticks": 323760,
          "time": 224.5691968708333,
          "velocity": 0.5354330708661418
        },
        {
          "duration": 0.1875,
          "durationTicks": 240,
          "midi": 53,
          "name": "F3",
          "ticks": 323760,
          "time": 224.5691968708333,
          "velocity": 0.6220472440944882
        },
        {
          "duration": 0.1875,
          "durationTicks": 240,
          "midi": 48,
          "name": "C3",
          "ticks": 324000,
          "time": 224.7566968708333,
          "velocity": 0.5748031496062992
        },
        {
          "duration": 0.375,
          "durationTicks": 480,
          "midi": 62,
          "name": "D4",
          "ticks": 324240,
          "time": 224.9441968708333,
          "velocity": 0.5826771653543307
        },
        {
          "duration": 0.375,
          "durationTicks": 480,
          "midi": 74,
          "name": "D5",
          "ticks": 324240,
          "time": 224.9441968708333,
          "velocity": 0.5826771653543307
        },
        {
          "duration": 0.1875,
          "durationTicks": 240,
          "midi": 41,
          "name": "F2",
          "ticks": 324240,
          "time": 224.9441968708333,
          "velocity": 0.5354330708661418
        },
        {
          "duration": 0.1875,
          "durationTicks": 240,
          "midi": 41,
          "name": "F2",
          "ticks": 324480,
          "time": 225.1316968708333,
          "velocity": 0.5905511811023622
        },
        {
          "duration": 0.75,
          "durationTicks": 960,
          "midi": 64,
          "name": "E4",
          "ticks": 324720,
          "time": 225.3191968708333,
          "velocity": 0.6692913385826772
        },
        {
          "duration": 0.75,
          "durationTicks": 960,
          "midi": 67,
          "name": "G4",
          "ticks": 324720,
          "time": 225.3191968708333,
          "velocity": 0.6692913385826772
        },
        {
          "duration": 0.75,
          "durationTicks": 960,
          "midi": 76,
          "name": "E5",
          "ticks": 324720,
          "time": 225.3191968708333,
          "velocity": 0.6692913385826772
        },
        {
          "duration": 0.1875,
          "durationTicks": 240,
          "midi": 29,
          "name": "F1",
          "ticks": 324720,
          "time": 225.3191968708333,
          "velocity": 0.5196850393700787
        },
        {
          "duration": 0.1875,
          "durationTicks": 240,
          "midi": 41,
          "name": "F2",
          "ticks": 324960,
          "time": 225.5066968708333,
          "velocity": 0.6614173228346457
        },
        {
          "duration": 0.1875,
          "durationTicks": 240,
          "midi": 41,
          "name": "F2",
          "ticks": 325200,
          "time": 225.6941968708333,
          "velocity": 0.5984251968503937
        },
        {
          "duration": 0.1875,
          "durationTicks": 240,
          "midi": 48,
          "name": "C3",
          "ticks": 325440,
          "time": 225.8816968708333,
          "velocity": 0.6614173228346457
        },
        {
          "duration": 0.75,
          "durationTicks": 960,
          "midi": 65,
          "name": "F4",
          "ticks": 325680,
          "time": 226.0691968708333,
          "velocity": 0.6377952755905512
        },
        {
          "duration": 0.75,
          "durationTicks": 960,
          "midi": 69,
          "name": "A4",
          "ticks": 325680,
          "time": 226.0691968708333,
          "velocity": 0.6377952755905512
        },
        {
          "duration": 0.75,
          "durationTicks": 960,
          "midi": 72,
          "name": "C5",
          "ticks": 325680,
          "time": 226.0691968708333,
          "velocity": 0.6377952755905512
        },
        {
          "duration": 0.75,
          "durationTicks": 960,
          "midi": 77,
          "name": "F5",
          "ticks": 325680,
          "time": 226.0691968708333,
          "velocity": 0.6377952755905512
        },
        {
          "duration": 0.1875,
          "durationTicks": 240,
          "midi": 53,
          "name": "F3",
          "ticks": 325680,
          "time": 226.0691968708333,
          "velocity": 0.6771653543307087
        },
        {
          "duration": 0.1875,
          "durationTicks": 240,
          "midi": 48,
          "name": "C3",
          "ticks": 325920,
          "time": 226.2566968708333,
          "velocity": 0.5354330708661418
        },
        {
          "duration": 0.1875,
          "durationTicks": 240,
          "midi": 41,
          "name": "F2",
          "ticks": 326160,
          "time": 226.4441968708333,
          "velocity": 0.5748031496062992
        },
        {
          "duration": 0.1875,
          "durationTicks": 240,
          "midi": 41,
          "name": "F2",
          "ticks": 326400,
          "time": 226.6316968708333,
          "velocity": 0.6141732283464567
        },
        {
          "duration": 0.75,
          "durationTicks": 960,
          "midi": 65,
          "name": "F4",
          "ticks": 326640,
          "time": 226.8191968708333,
          "velocity": 0.5984251968503937
        },
        {
          "duration": 0.75,
          "durationTicks": 960,
          "midi": 67,
          "name": "G4",
          "ticks": 326640,
          "time": 226.8191968708333,
          "velocity": 0.5984251968503937
        },
        {
          "duration": 0.75,
          "durationTicks": 960,
          "midi": 77,
          "name": "F5",
          "ticks": 326640,
          "time": 226.8191968708333,
          "velocity": 0.5984251968503937
        },
        {
          "duration": 0.1875,
          "durationTicks": 240,
          "midi": 24,
          "name": "C1",
          "ticks": 326640,
          "time": 226.8191968708333,
          "velocity": 0.4645669291338583
        },
        {
          "duration": 0.1875,
          "durationTicks": 240,
          "midi": 36,
          "name": "C2",
          "ticks": 326880,
          "time": 227.0066968708333,
          "velocity": 0.7165354330708661
        },
        {
          "duration": 0.1875,
          "durationTicks": 240,
          "midi": 48,
          "name": "C3",
          "ticks": 327120,
          "time": 227.1941968708333,
          "velocity": 0.7007874015748031
        },
        {
          "duration": 0.1875,
          "durationTicks": 240,
          "midi": 55,
          "name": "G3",
          "ticks": 327360,
          "time": 227.3816968708333,
          "velocity": 0.6377952755905512
        },
        {
          "duration": 0.75,
          "durationTicks": 960,
          "midi": 64,
          "name": "E4",
          "ticks": 327600,
          "time": 227.5691968708333,
          "velocity": 0.5826771653543307
        },
        {
          "duration": 0.75,
          "durationTicks": 960,
          "midi": 67,
          "name": "G4",
          "ticks": 327600,
          "time": 227.5691968708333,
          "velocity": 0.5826771653543307
        },
        {
          "duration": 0.75,
          "durationTicks": 960,
          "midi": 76,
          "name": "E5",
          "ticks": 327600,
          "time": 227.5691968708333,
          "velocity": 0.5826771653543307
        },
        {
          "duration": 0.1875,
          "durationTicks": 240,
          "midi": 60,
          "name": "C4",
          "ticks": 327600,
          "time": 227.5691968708333,
          "velocity": 0.6614173228346457
        },
        {
          "duration": 0.1875,
          "durationTicks": 240,
          "midi": 55,
          "name": "G3",
          "ticks": 327840,
          "time": 227.7566968708333,
          "velocity": 0.5826771653543307
        },
        {
          "duration": 0.1875,
          "durationTicks": 240,
          "midi": 48,
          "name": "C3",
          "ticks": 328080,
          "time": 227.9441968708333,
          "velocity": 0.5590551181102362
        },
        {
          "duration": 0.1875,
          "durationTicks": 240,
          "midi": 48,
          "name": "C3",
          "ticks": 328320,
          "time": 228.1316968708333,
          "velocity": 0.5984251968503937
        },
        {
          "duration": 0.75,
          "durationTicks": 960,
          "midi": 62,
          "name": "D4",
          "ticks": 328560,
          "time": 228.3191968708333,
          "velocity": 0.5984251968503937
        },
        {
          "duration": 0.75,
          "durationTicks": 960,
          "midi": 65,
          "name": "F4",
          "ticks": 328560,
          "time": 228.3191968708333,
          "velocity": 0.5984251968503937
        },
        {
          "duration": 0.75,
          "durationTicks": 960,
          "midi": 74,
          "name": "D5",
          "ticks": 328560,
          "time": 228.3191968708333,
          "velocity": 0.5984251968503937
        },
        {
          "duration": 0.1875,
          "durationTicks": 240,
          "midi": 36,
          "name": "C2",
          "ticks": 328560,
          "time": 228.3191968708333,
          "velocity": 0.5196850393700787
        },
        {
          "duration": 0.1875,
          "durationTicks": 240,
          "midi": 48,
          "name": "C3",
          "ticks": 328800,
          "time": 228.5066968708333,
          "velocity": 0.6850393700787402
        },
        {
          "duration": 0.1875,
          "durationTicks": 240,
          "midi": 48,
          "name": "C3",
          "ticks": 329040,
          "time": 228.6941968708333,
          "velocity": 0.6062992125984252
        },
        {
          "duration": 0.1875,
          "durationTicks": 240,
          "midi": 55,
          "name": "G3",
          "ticks": 329280,
          "time": 228.8816968708333,
          "velocity": 0.6220472440944882
        },
        {
          "duration": 0.75,
          "durationTicks": 960,
          "midi": 64,
          "name": "E4",
          "ticks": 329520,
          "time": 229.0691968708333,
          "velocity": 0.6062992125984252
        },
        {
          "duration": 0.75,
          "durationTicks": 960,
          "midi": 65,
          "name": "F4",
          "ticks": 329520,
          "time": 229.0691968708333,
          "velocity": 0.6062992125984252
        },
        {
          "duration": 0.75,
          "durationTicks": 960,
          "midi": 76,
          "name": "E5",
          "ticks": 329520,
          "time": 229.0691968708333,
          "velocity": 0.6062992125984252
        },
        {
          "duration": 0.1875,
          "durationTicks": 240,
          "midi": 60,
          "name": "C4",
          "ticks": 329520,
          "time": 229.0691968708333,
          "velocity": 0.6692913385826772
        },
        {
          "duration": 0.1875,
          "durationTicks": 240,
          "midi": 55,
          "name": "G3",
          "ticks": 329760,
          "time": 229.2566968708333,
          "velocity": 0.5433070866141733
        },
        {
          "duration": 0.1875,
          "durationTicks": 240,
          "midi": 48,
          "name": "C3",
          "ticks": 330000,
          "time": 229.4441968708333,
          "velocity": 0.5590551181102362
        },
        {
          "duration": 0.1875,
          "durationTicks": 240,
          "midi": 55,
          "name": "G3",
          "ticks": 330240,
          "time": 229.6316968708333,
          "velocity": 0.6377952755905512
        },
        {
          "duration": 1.5,
          "durationTicks": 1920,
          "midi": 67,
          "name": "G4",
          "ticks": 330480,
          "time": 229.8191968708333,
          "velocity": 0.6456692913385826
        },
        {
          "duration": 1.5,
          "durationTicks": 1920,
          "midi": 69,
          "name": "A4",
          "ticks": 330480,
          "time": 229.8191968708333,
          "velocity": 0.6456692913385826
        },
        {
          "duration": 1.5,
          "durationTicks": 1920,
          "midi": 72,
          "name": "C5",
          "ticks": 330480,
          "time": 229.8191968708333,
          "velocity": 0.6456692913385826
        },
        {
          "duration": 1.5,
          "durationTicks": 1920,
          "midi": 79,
          "name": "G5",
          "ticks": 330480,
          "time": 229.8191968708333,
          "velocity": 0.6456692913385826
        },
        {
          "duration": 0.1875,
          "durationTicks": 240,
          "midi": 23,
          "name": "B0",
          "ticks": 330480,
          "time": 229.8191968708333,
          "velocity": 0.5669291338582677
        },
        {
          "duration": 0.1875,
          "durationTicks": 240,
          "midi": 35,
          "name": "B1",
          "ticks": 330720,
          "time": 230.0066968708333,
          "velocity": 0.6456692913385826
        },
        {
          "duration": 0.1875,
          "durationTicks": 240,
          "midi": 47,
          "name": "B2",
          "ticks": 330960,
          "time": 230.1941968708333,
          "velocity": 0.7086614173228346
        },
        {
          "duration": 0.1875,
          "durationTicks": 240,
          "midi": 53,
          "name": "F3",
          "ticks": 331200,
          "time": 230.3816968708333,
          "velocity": 0.6614173228346457
        },
        {
          "duration": 0.1875,
          "durationTicks": 240,
          "midi": 50,
          "name": "D3",
          "ticks": 331440,
          "time": 230.5691968708333,
          "velocity": 0.5748031496062992
        },
        {
          "duration": 0.1875,
          "durationTicks": 240,
          "midi": 59,
          "name": "B3",
          "ticks": 331680,
          "time": 230.7566968708333,
          "velocity": 0.6220472440944882
        },
        {
          "duration": 0.1875,
          "durationTicks": 240,
          "midi": 53,
          "name": "F3",
          "ticks": 331920,
          "time": 230.9441968708333,
          "velocity": 0.5511811023622047
        },
        {
          "duration": 0.1875,
          "durationTicks": 240,
          "midi": 47,
          "name": "B2",
          "ticks": 332160,
          "time": 231.1316968708333,
          "velocity": 0.5669291338582677
        },
        {
          "duration": 1.5,
          "durationTicks": 1920,
          "midi": 65,
          "name": "F4",
          "ticks": 332400,
          "time": 231.3191968708333,
          "velocity": 0.5748031496062992
        },
        {
          "duration": 1.5,
          "durationTicks": 1920,
          "midi": 69,
          "name": "A4",
          "ticks": 332400,
          "time": 231.3191968708333,
          "velocity": 0.5748031496062992
        },
        {
          "duration": 1.5,
          "durationTicks": 1920,
          "midi": 72,
          "name": "C5",
          "ticks": 332400,
          "time": 231.3191968708333,
          "velocity": 0.5748031496062992
        },
        {
          "duration": 1.5,
          "durationTicks": 1920,
          "midi": 77,
          "name": "F5",
          "ticks": 332400,
          "time": 231.3191968708333,
          "velocity": 0.5748031496062992
        },
        {
          "duration": 0.1875,
          "durationTicks": 240,
          "midi": 53,
          "name": "F3",
          "ticks": 332400,
          "time": 231.3191968708333,
          "velocity": 0.6062992125984252
        },
        {
          "duration": 0.1875,
          "durationTicks": 240,
          "midi": 59,
          "name": "B3",
          "ticks": 332640,
          "time": 231.5066968708333,
          "velocity": 0.6377952755905512
        },
        {
          "duration": 0.1875,
          "durationTicks": 240,
          "midi": 53,
          "name": "F3",
          "ticks": 332880,
          "time": 231.6941968708333,
          "velocity": 0.5748031496062992
        },
        {
          "duration": 0.1875,
          "durationTicks": 240,
          "midi": 47,
          "name": "B2",
          "ticks": 333120,
          "time": 231.8816968708333,
          "velocity": 0.5196850393700787
        },
        {
          "duration": 0.1875,
          "durationTicks": 240,
          "midi": 53,
          "name": "F3",
          "ticks": 333360,
          "time": 232.0691968708333,
          "velocity": 0.6456692913385826
        },
        {
          "duration": 0.1875,
          "durationTicks": 240,
          "midi": 59,
          "name": "B3",
          "ticks": 333600,
          "time": 232.2566968708333,
          "velocity": 0.6456692913385826
        },
        {
          "duration": 0.1875,
          "durationTicks": 240,
          "midi": 53,
          "name": "F3",
          "ticks": 333840,
          "time": 232.4441968708333,
          "velocity": 0.5590551181102362
        },
        {
          "duration": 0.1875,
          "durationTicks": 240,
          "midi": 47,
          "name": "B2",
          "ticks": 334080,
          "time": 232.6316968708333,
          "velocity": 0.5511811023622047
        },
        {
          "duration": 0.75,
          "durationTicks": 960,
          "midi": 64,
          "name": "E4",
          "ticks": 334320,
          "time": 232.8191968708333,
          "velocity": 0.5826771653543307
        },
        {
          "duration": 0.75,
          "durationTicks": 960,
          "midi": 68,
          "name": "G#4",
          "ticks": 334320,
          "time": 232.8191968708333,
          "velocity": 0.5826771653543307
        },
        {
          "duration": 0.75,
          "durationTicks": 960,
          "midi": 71,
          "name": "B4",
          "ticks": 334320,
          "time": 232.8191968708333,
          "velocity": 0.5826771653543307
        },
        {
          "duration": 0.75,
          "durationTicks": 960,
          "midi": 76,
          "name": "E5",
          "ticks": 334320,
          "time": 232.8191968708333,
          "velocity": 0.5826771653543307
        },
        {
          "duration": 0.1875,
          "durationTicks": 240,
          "midi": 28,
          "name": "E1",
          "ticks": 334320,
          "time": 232.8191968708333,
          "velocity": 0.49606299212598426
        },
        {
          "duration": 0.1875,
          "durationTicks": 240,
          "midi": 40,
          "name": "E2",
          "ticks": 334560,
          "time": 233.0066968708333,
          "velocity": 0.7007874015748031
        },
        {
          "duration": 0.1875,
          "durationTicks": 240,
          "midi": 44,
          "name": "G#2",
          "ticks": 334800,
          "time": 233.1941968708333,
          "velocity": 0.6299212598425197
        },
        {
          "duration": 0.1875,
          "durationTicks": 240,
          "midi": 47,
          "name": "B2",
          "ticks": 335040,
          "time": 233.3816968708333,
          "velocity": 0.6692913385826772
        },
        {
          "duration": 0.75,
          "durationTicks": 960,
          "midi": 62,
          "name": "D4",
          "ticks": 335280,
          "time": 233.5691968708333,
          "velocity": 0.5354330708661418
        },
        {
          "duration": 0.75,
          "durationTicks": 960,
          "midi": 74,
          "name": "D5",
          "ticks": 335280,
          "time": 233.5691968708333,
          "velocity": 0.5354330708661418
        },
        {
          "duration": 0.1875,
          "durationTicks": 240,
          "midi": 52,
          "name": "E3",
          "ticks": 335280,
          "time": 233.5691968708333,
          "velocity": 0.6299212598425197
        },
        {
          "duration": 0.1875,
          "durationTicks": 240,
          "midi": 47,
          "name": "B2",
          "ticks": 335520,
          "time": 233.7566968708333,
          "velocity": 0.5590551181102362
        },
        {
          "duration": 0.1875,
          "durationTicks": 240,
          "midi": 40,
          "name": "E2",
          "ticks": 335760,
          "time": 233.9441968708333,
          "velocity": 0.5511811023622047
        },
        {
          "duration": 0.1875,
          "durationTicks": 240,
          "midi": 47,
          "name": "B2",
          "ticks": 336000,
          "time": 234.1316968708333,
          "velocity": 0.6929133858267716
        },
        {
          "duration": 0.75,
          "durationTicks": 960,
          "midi": 60,
          "name": "C4",
          "ticks": 336240,
          "time": 234.3191968708333,
          "velocity": 0.5433070866141733
        },
        {
          "duration": 0.75,
          "durationTicks": 960,
          "midi": 64,
          "name": "E4",
          "ticks": 336240,
          "time": 234.3191968708333,
          "velocity": 0.5433070866141733
        },
        {
          "duration": 0.75,
          "durationTicks": 960,
          "midi": 68,
          "name": "G#4",
          "ticks": 336240,
          "time": 234.3191968708333,
          "velocity": 0.5433070866141733
        },
        {
          "duration": 0.75,
          "durationTicks": 960,
          "midi": 72,
          "name": "C5",
          "ticks": 336240,
          "time": 234.3191968708333,
          "velocity": 0.5433070866141733
        },
        {
          "duration": 0.1875,
          "durationTicks": 240,
          "midi": 32,
          "name": "G#1",
          "ticks": 336240,
          "time": 234.3191968708333,
          "velocity": 0.5433070866141733
        },
        {
          "duration": 0.1875,
          "durationTicks": 240,
          "midi": 44,
          "name": "G#2",
          "ticks": 336480,
          "time": 234.5066968708333,
          "velocity": 0.6850393700787402
        },
        {
          "duration": 0.1875,
          "durationTicks": 240,
          "midi": 44,
          "name": "G#2",
          "ticks": 336720,
          "time": 234.6941968708333,
          "velocity": 0.6141732283464567
        },
        {
          "duration": 0.1875,
          "durationTicks": 240,
          "midi": 52,
          "name": "E3",
          "ticks": 336960,
          "time": 234.8816968708333,
          "velocity": 0.6377952755905512
        },
        {
          "duration": 0.75,
          "durationTicks": 960,
          "midi": 59,
          "name": "B3",
          "ticks": 337200,
          "time": 235.0691968708333,
          "velocity": 0.5433070866141733
        },
        {
          "duration": 0.75,
          "durationTicks": 960,
          "midi": 64,
          "name": "E4",
          "ticks": 337200,
          "time": 235.0691968708333,
          "velocity": 0.5433070866141733
        },
        {
          "duration": 0.75,
          "durationTicks": 960,
          "midi": 68,
          "name": "G#4",
          "ticks": 337200,
          "time": 235.0691968708333,
          "velocity": 0.5433070866141733
        },
        {
          "duration": 0.75,
          "durationTicks": 960,
          "midi": 71,
          "name": "B4",
          "ticks": 337200,
          "time": 235.0691968708333,
          "velocity": 0.5433070866141733
        },
        {
          "duration": 0.1875,
          "durationTicks": 240,
          "midi": 56,
          "name": "G#3",
          "ticks": 337200,
          "time": 235.0691968708333,
          "velocity": 0.6614173228346457
        },
        {
          "duration": 0.1875,
          "durationTicks": 240,
          "midi": 52,
          "name": "E3",
          "ticks": 337440,
          "time": 235.2566968708333,
          "velocity": 0.5669291338582677
        },
        {
          "duration": 0.1875,
          "durationTicks": 240,
          "midi": 44,
          "name": "G#2",
          "ticks": 337680,
          "time": 235.4441968708333,
          "velocity": 0.5511811023622047
        },
        {
          "duration": 0.1875,
          "durationTicks": 240,
          "midi": 52,
          "name": "E3",
          "ticks": 337920,
          "time": 235.6316968708333,
          "velocity": 0.6220472440944882
        },
        {
          "duration": 0.375,
          "durationTicks": 480,
          "midi": 57,
          "name": "A3",
          "ticks": 338160,
          "time": 235.8191968708333,
          "velocity": 0.5590551181102362
        },
        {
          "duration": 0.375,
          "durationTicks": 480,
          "midi": 60,
          "name": "C4",
          "ticks": 338160,
          "time": 235.8191968708333,
          "velocity": 0.5590551181102362
        },
        {
          "duration": 0.375,
          "durationTicks": 480,
          "midi": 64,
          "name": "E4",
          "ticks": 338160,
          "time": 235.8191968708333,
          "velocity": 0.5590551181102362
        },
        {
          "duration": 0.375,
          "durationTicks": 480,
          "midi": 66,
          "name": "F#4",
          "ticks": 338160,
          "time": 235.8191968708333,
          "velocity": 0.5590551181102362
        },
        {
          "duration": 0.375,
          "durationTicks": 480,
          "midi": 69,
          "name": "A4",
          "ticks": 338160,
          "time": 235.8191968708333,
          "velocity": 0.5590551181102362
        },
        {
          "duration": 0.375,
          "durationTicks": 480,
          "midi": 21,
          "name": "A0",
          "ticks": 338160,
          "time": 235.8191968708333,
          "velocity": 0.5433070866141733
        },
        {
          "duration": 0.375,
          "durationTicks": 480,
          "midi": 33,
          "name": "A1",
          "ticks": 338160,
          "time": 235.8191968708333,
          "velocity": 0.5433070866141733
        },
        {
          "duration": 0.1875,
          "durationTicks": 240,
          "midi": 69,
          "name": "A4",
          "ticks": 338640,
          "time": 236.1941968708333,
          "velocity": 0.7165354330708661
        },
        {
          "duration": 0.1875,
          "durationTicks": 240,
          "midi": 72,
          "name": "C5",
          "ticks": 338640,
          "time": 236.1941968708333,
          "velocity": 0.7165354330708661
        },
        {
          "duration": 0.1875,
          "durationTicks": 240,
          "midi": 76,
          "name": "E5",
          "ticks": 338640,
          "time": 236.1941968708333,
          "velocity": 0.7165354330708661
        },
        {
          "duration": 0.1875,
          "durationTicks": 240,
          "midi": 45,
          "name": "A2",
          "ticks": 338640,
          "time": 236.1941968708333,
          "velocity": 0.6141732283464567
        },
        {
          "duration": 0.1875,
          "durationTicks": 240,
          "midi": 64,
          "name": "E4",
          "ticks": 338880,
          "time": 236.3816968708333,
          "velocity": 0.4645669291338583
        },
        {
          "duration": 0.1875,
          "durationTicks": 240,
          "midi": 52,
          "name": "E3",
          "ticks": 338880,
          "time": 236.3816968708333,
          "velocity": 0.6929133858267716
        },
        {
          "duration": 0.1875,
          "durationTicks": 240,
          "midi": 72,
          "name": "C5",
          "ticks": 339120,
          "time": 236.5691968708333,
          "velocity": 0.7322834645669292
        },
        {
          "duration": 0.1875,
          "durationTicks": 240,
          "midi": 76,
          "name": "E5",
          "ticks": 339120,
          "time": 236.5691968708333,
          "velocity": 0.7322834645669292
        },
        {
          "duration": 0.1875,
          "durationTicks": 240,
          "midi": 81,
          "name": "A5",
          "ticks": 339120,
          "time": 236.5691968708333,
          "velocity": 0.7322834645669292
        },
        {
          "duration": 0.1875,
          "durationTicks": 240,
          "midi": 57,
          "name": "A3",
          "ticks": 339120,
          "time": 236.5691968708333,
          "velocity": 0.6535433070866141
        },
        {
          "duration": 0.1875,
          "durationTicks": 240,
          "midi": 69,
          "name": "A4",
          "ticks": 339360,
          "time": 236.7566968708333,
          "velocity": 0.5196850393700787
        },
        {
          "duration": 0.1875,
          "durationTicks": 240,
          "midi": 60,
          "name": "C4",
          "ticks": 339360,
          "time": 236.7566968708333,
          "velocity": 0.6456692913385826
        },
        {
          "duration": 0.1875,
          "durationTicks": 240,
          "midi": 88,
          "name": "E6",
          "ticks": 339600,
          "time": 236.9441968708333,
          "velocity": 0.7322834645669292
        },
        {
          "duration": 0.1875,
          "durationTicks": 240,
          "midi": 64,
          "name": "E4",
          "ticks": 339600,
          "time": 236.9441968708333,
          "velocity": 0.6692913385826772
        },
        {
          "duration": 0.1875,
          "durationTicks": 240,
          "midi": 76,
          "name": "E5",
          "ticks": 339840,
          "time": 237.1316968708333,
          "velocity": 0.4645669291338583
        },
        {
          "duration": 0.1875,
          "durationTicks": 240,
          "midi": 57,
          "name": "A3",
          "ticks": 339840,
          "time": 237.1316968708333,
          "velocity": 0.5354330708661418
        },
        {
          "duration": 0.1875,
          "durationTicks": 240,
          "midi": 86,
          "name": "D6",
          "ticks": 340080,
          "time": 237.3191968708333,
          "velocity": 0.6850393700787402
        },
        {
          "duration": 0.1875,
          "durationTicks": 240,
          "midi": 64,
          "name": "E4",
          "ticks": 340080,
          "time": 237.3191968708333,
          "velocity": 0.7244094488188977
        },
        {
          "duration": 0.1875,
          "durationTicks": 240,
          "midi": 74,
          "name": "D5",
          "ticks": 340320,
          "time": 237.5066968708333,
          "velocity": 0.4645669291338583
        },
        {
          "duration": 0.1875,
          "durationTicks": 240,
          "midi": 69,
          "name": "A4",
          "ticks": 340320,
          "time": 237.5066968708333,
          "velocity": 0.6850393700787402
        },
        {
          "duration": 0.1875,
          "durationTicks": 240,
          "midi": 84,
          "name": "C6",
          "ticks": 340560,
          "time": 237.6941968708333,
          "velocity": 0.7086614173228346
        },
        {
          "duration": 0.1875,
          "durationTicks": 240,
          "midi": 64,
          "name": "E4",
          "ticks": 340560,
          "time": 237.6941968708333,
          "velocity": 0.5590551181102362
        },
        {
          "duration": 0.1875,
          "durationTicks": 240,
          "midi": 72,
          "name": "C5",
          "ticks": 340800,
          "time": 237.8816968708333,
          "velocity": 0.4881889763779528
        },
        {
          "duration": 0.1875,
          "durationTicks": 240,
          "midi": 57,
          "name": "A3",
          "ticks": 340800,
          "time": 237.8816968708333,
          "velocity": 0.5354330708661418
        },
        {
          "duration": 0.1875,
          "durationTicks": 240,
          "midi": 83,
          "name": "B5",
          "ticks": 341040,
          "time": 238.0691968708333,
          "velocity": 0.7401574803149606
        },
        {
          "duration": 0.1875,
          "durationTicks": 240,
          "midi": 57,
          "name": "A3",
          "ticks": 341040,
          "time": 238.0691968708333,
          "velocity": 0.5984251968503937
        },
        {
          "duration": 0.1875,
          "durationTicks": 240,
          "midi": 71,
          "name": "B4",
          "ticks": 341280,
          "time": 238.2566968708333,
          "velocity": 0.4330708661417323
        },
        {
          "duration": 0.1875,
          "durationTicks": 240,
          "midi": 52,
          "name": "E3",
          "ticks": 341280,
          "time": 238.2566968708333,
          "velocity": 0.5984251968503937
        },
        {
          "duration": 0.1875,
          "durationTicks": 240,
          "midi": 84,
          "name": "C6",
          "ticks": 341520,
          "time": 238.4441968708333,
          "velocity": 0.7559055118110236
        },
        {
          "duration": 0.1875,
          "durationTicks": 240,
          "midi": 45,
          "name": "A2",
          "ticks": 341520,
          "time": 238.4441968708333,
          "velocity": 0.5511811023622047
        },
        {
          "duration": 0.1875,
          "durationTicks": 240,
          "midi": 72,
          "name": "C5",
          "ticks": 341760,
          "time": 238.6316968708333,
          "velocity": 0.44881889763779526
        },
        {
          "duration": 0.1875,
          "durationTicks": 240,
          "midi": 52,
          "name": "E3",
          "ticks": 341760,
          "time": 238.6316968708333,
          "velocity": 0.6299212598425197
        },
        {
          "duration": 0.1875,
          "durationTicks": 240,
          "midi": 81,
          "name": "A5",
          "ticks": 342000,
          "time": 238.8191968708333,
          "velocity": 0.7716535433070866
        },
        {
          "duration": 0.1875,
          "durationTicks": 240,
          "midi": 86,
          "name": "D6",
          "ticks": 342000,
          "time": 238.8191968708333,
          "velocity": 0.7716535433070866
        },
        {
          "duration": 0.1875,
          "durationTicks": 240,
          "midi": 91,
          "name": "G6",
          "ticks": 342000,
          "time": 238.8191968708333,
          "velocity": 0.7716535433070866
        },
        {
          "duration": 0.1875,
          "durationTicks": 240,
          "midi": 26,
          "name": "D1",
          "ticks": 342000,
          "time": 238.8191968708333,
          "velocity": 0.4881889763779528
        },
        {
          "duration": 0.1875,
          "durationTicks": 240,
          "midi": 79,
          "name": "G5",
          "ticks": 342240,
          "time": 239.0066968708333,
          "velocity": 0.4645669291338583
        },
        {
          "duration": 0.1875,
          "durationTicks": 240,
          "midi": 38,
          "name": "D2",
          "ticks": 342240,
          "time": 239.0066968708333,
          "velocity": 0.6692913385826772
        },
        {
          "duration": 0.1875,
          "durationTicks": 240,
          "midi": 81,
          "name": "A5",
          "ticks": 342480,
          "time": 239.1941968708333,
          "velocity": 0.6141732283464567
        },
        {
          "duration": 0.1875,
          "durationTicks": 240,
          "midi": 41,
          "name": "F2",
          "ticks": 342480,
          "time": 239.1941968708333,
          "velocity": 0.6299212598425197
        },
        {
          "duration": 0.1875,
          "durationTicks": 240,
          "midi": 86,
          "name": "D6",
          "ticks": 342720,
          "time": 239.3816968708333,
          "velocity": 0.6771653543307087
        },
        {
          "duration": 0.1875,
          "durationTicks": 240,
          "midi": 45,
          "name": "A2",
          "ticks": 342720,
          "time": 239.3816968708333,
          "velocity": 0.6220472440944882
        },
        {
          "duration": 0.1875,
          "durationTicks": 240,
          "midi": 81,
          "name": "A5",
          "ticks": 342960,
          "time": 239.5691968708333,
          "velocity": 0.6535433070866141
        },
        {
          "duration": 0.1875,
          "durationTicks": 240,
          "midi": 86,
          "name": "D6",
          "ticks": 342960,
          "time": 239.5691968708333,
          "velocity": 0.6535433070866141
        },
        {
          "duration": 0.1875,
          "durationTicks": 240,
          "midi": 89,
          "name": "F6",
          "ticks": 342960,
          "time": 239.5691968708333,
          "velocity": 0.6535433070866141
        },
        {
          "duration": 0.1875,
          "durationTicks": 240,
          "midi": 50,
          "name": "D3",
          "ticks": 342960,
          "time": 239.5691968708333,
          "velocity": 0.6377952755905512
        },
        {
          "duration": 0.1875,
          "durationTicks": 240,
          "midi": 77,
          "name": "F5",
          "ticks": 343200,
          "time": 239.7566968708333,
          "velocity": 0.4566929133858268
        },
        {
          "duration": 0.1875,
          "durationTicks": 240,
          "midi": 53,
          "name": "F3",
          "ticks": 343200,
          "time": 239.7566968708333,
          "velocity": 0.6299212598425197
        },
        {
          "duration": 0.1875,
          "durationTicks": 240,
          "midi": 81,
          "name": "A5",
          "ticks": 343440,
          "time": 239.9441968708333,
          "velocity": 0.6456692913385826
        },
        {
          "duration": 0.1875,
          "durationTicks": 240,
          "midi": 57,
          "name": "A3",
          "ticks": 343440,
          "time": 239.9441968708333,
          "velocity": 0.6299212598425197
        },
        {
          "duration": 0.1875,
          "durationTicks": 240,
          "midi": 81,
          "name": "A5",
          "ticks": 343680,
          "time": 240.1316968708333,
          "velocity": 0.7480314960629921
        },
        {
          "duration": 0.1875,
          "durationTicks": 240,
          "midi": 86,
          "name": "D6",
          "ticks": 343680,
          "time": 240.1316968708333,
          "velocity": 0.7480314960629921
        },
        {
          "duration": 0.1875,
          "durationTicks": 240,
          "midi": 50,
          "name": "D3",
          "ticks": 343680,
          "time": 240.1316968708333,
          "velocity": 0.5590551181102362
        },
        {
          "duration": 0.1875,
          "durationTicks": 240,
          "midi": 81,
          "name": "A5",
          "ticks": 343920,
          "time": 240.3191968708333,
          "velocity": 0.6692913385826772
        },
        {
          "duration": 0.1875,
          "durationTicks": 240,
          "midi": 86,
          "name": "D6",
          "ticks": 343920,
          "time": 240.3191968708333,
          "velocity": 0.6692913385826772
        },
        {
          "duration": 0.1875,
          "durationTicks": 240,
          "midi": 89,
          "name": "F6",
          "ticks": 343920,
          "time": 240.3191968708333,
          "velocity": 0.6692913385826772
        },
        {
          "duration": 0.1875,
          "durationTicks": 240,
          "midi": 57,
          "name": "A3",
          "ticks": 343920,
          "time": 240.3191968708333,
          "velocity": 0.6535433070866141
        },
        {
          "duration": 0.1875,
          "durationTicks": 240,
          "midi": 77,
          "name": "F5",
          "ticks": 344160,
          "time": 240.5066968708333,
          "velocity": 0.4881889763779528
        },
        {
          "duration": 0.1875,
          "durationTicks": 240,
          "midi": 62,
          "name": "D4",
          "ticks": 344160,
          "time": 240.5066968708333,
          "velocity": 0.7165354330708661
        },
        {
          "duration": 0.1875,
          "durationTicks": 240,
          "midi": 69,
          "name": "A4",
          "ticks": 344400,
          "time": 240.6941968708333,
          "velocity": 0.5511811023622047
        },
        {
          "duration": 0.1875,
          "durationTicks": 240,
          "midi": 74,
          "name": "D5",
          "ticks": 344400,
          "time": 240.6941968708333,
          "velocity": 0.5511811023622047
        },
        {
          "duration": 0.1875,
          "durationTicks": 240,
          "midi": 77,
          "name": "F5",
          "ticks": 344400,
          "time": 240.6941968708333,
          "velocity": 0.5511811023622047
        },
        {
          "duration": 0.1875,
          "durationTicks": 240,
          "midi": 57,
          "name": "A3",
          "ticks": 344400,
          "time": 240.6941968708333,
          "velocity": 0.5433070866141733
        },
        {
          "duration": 0.1875,
          "durationTicks": 240,
          "midi": 65,
          "name": "F4",
          "ticks": 344640,
          "time": 240.8816968708333,
          "velocity": 0.4566929133858268
        },
        {
          "duration": 0.1875,
          "durationTicks": 240,
          "midi": 50,
          "name": "D3",
          "ticks": 344640,
          "time": 240.8816968708333,
          "velocity": 0.5354330708661418
        },
        {
          "duration": 0.1875,
          "durationTicks": 240,
          "midi": 74,
          "name": "D5",
          "ticks": 344880,
          "time": 241.0691968708333,
          "velocity": 0.6850393700787402
        },
        {
          "duration": 0.1875,
          "durationTicks": 240,
          "midi": 50,
          "name": "D3",
          "ticks": 344880,
          "time": 241.0691968708333,
          "velocity": 0.5826771653543307
        },
        {
          "duration": 0.1875,
          "durationTicks": 240,
          "midi": 62,
          "name": "D4",
          "ticks": 345120,
          "time": 241.2566968708333,
          "velocity": 0.4566929133858268
        },
        {
          "duration": 0.1875,
          "durationTicks": 240,
          "midi": 38,
          "name": "D2",
          "ticks": 345120,
          "time": 241.2566968708333,
          "velocity": 0.5354330708661418
        },
        {
          "duration": 0.1875,
          "durationTicks": 240,
          "midi": 72,
          "name": "C5",
          "ticks": 345360,
          "time": 241.4441968708333,
          "velocity": 0.6771653543307087
        },
        {
          "duration": 0.1875,
          "durationTicks": 240,
          "midi": 50,
          "name": "D3",
          "ticks": 345360,
          "time": 241.4441968708333,
          "velocity": 0.6692913385826772
        },
        {
          "duration": 0.1875,
          "durationTicks": 240,
          "midi": 60,
          "name": "C4",
          "ticks": 345600,
          "time": 241.6316968708333,
          "velocity": 0.41732283464566927
        },
        {
          "duration": 0.1875,
          "durationTicks": 240,
          "midi": 38,
          "name": "D2",
          "ticks": 345600,
          "time": 241.6316968708333,
          "velocity": 0.5354330708661418
        },
        {
          "duration": 0.375,
          "durationTicks": 480,
          "midi": 59,
          "name": "B3",
          "ticks": 345840,
          "time": 241.8191968708333,
          "velocity": 0.7244094488188977
        },
        {
          "duration": 0.375,
          "durationTicks": 480,
          "midi": 64,
          "name": "E4",
          "ticks": 345840,
          "time": 241.8191968708333,
          "velocity": 0.7244094488188977
        },
        {
          "duration": 0.375,
          "durationTicks": 480,
          "midi": 68,
          "name": "G#4",
          "ticks": 345840,
          "time": 241.8191968708333,
          "velocity": 0.7244094488188977
        },
        {
          "duration": 0.375,
          "durationTicks": 480,
          "midi": 71,
          "name": "B4",
          "ticks": 345840,
          "time": 241.8191968708333,
          "velocity": 0.7244094488188977
        },
        {
          "duration": 0.1875,
          "durationTicks": 240,
          "midi": 28,
          "name": "E1",
          "ticks": 345840,
          "time": 241.8191968708333,
          "velocity": 0.5275590551181102
        },
        {
          "duration": 0.1875,
          "durationTicks": 240,
          "midi": 40,
          "name": "E2",
          "ticks": 346080,
          "time": 242.0066968708333,
          "velocity": 0.6771653543307087
        },
        {
          "duration": 0.1875,
          "durationTicks": 240,
          "midi": 68,
          "name": "G#4",
          "ticks": 346320,
          "time": 242.1941968708333,
          "velocity": 0.7165354330708661
        },
        {
          "duration": 0.1875,
          "durationTicks": 240,
          "midi": 71,
          "name": "B4",
          "ticks": 346320,
          "time": 242.1941968708333,
          "velocity": 0.7165354330708661
        },
        {
          "duration": 0.1875,
          "durationTicks": 240,
          "midi": 76,
          "name": "E5",
          "ticks": 346320,
          "time": 242.1941968708333,
          "velocity": 0.7165354330708661
        },
        {
          "duration": 0.1875,
          "durationTicks": 240,
          "midi": 44,
          "name": "G#2",
          "ticks": 346320,
          "time": 242.1941968708333,
          "velocity": 0.6692913385826772
        },
        {
          "duration": 0.1875,
          "durationTicks": 240,
          "midi": 64,
          "name": "E4",
          "ticks": 346560,
          "time": 242.3816968708333,
          "velocity": 0.4330708661417323
        },
        {
          "duration": 0.1875,
          "durationTicks": 240,
          "midi": 47,
          "name": "B2",
          "ticks": 346560,
          "time": 242.3816968708333,
          "velocity": 0.6220472440944882
        },
        {
          "duration": 0.1875,
          "durationTicks": 240,
          "midi": 68,
          "name": "G#4",
          "ticks": 346800,
          "time": 242.5691968708333,
          "velocity": 0.7165354330708661
        },
        {
          "duration": 0.1875,
          "durationTicks": 240,
          "midi": 74,
          "name": "D5",
          "ticks": 346800,
          "time": 242.5691968708333,
          "velocity": 0.7165354330708661
        },
        {
          "duration": 0.1875,
          "durationTicks": 240,
          "midi": 52,
          "name": "E3",
          "ticks": 346800,
          "time": 242.5691968708333,
          "velocity": 0.6141732283464567
        },
        {
          "duration": 0.1875,
          "durationTicks": 240,
          "midi": 62,
          "name": "D4",
          "ticks": 347040,
          "time": 242.7566968708333,
          "velocity": 0.4645669291338583
        },
        {
          "duration": 0.1875,
          "durationTicks": 240,
          "midi": 56,
          "name": "G#3",
          "ticks": 347040,
          "time": 242.7566968708333,
          "velocity": 0.6456692913385826
        },
        {
          "duration": 0.1875,
          "durationTicks": 240,
          "midi": 72,
          "name": "C5",
          "ticks": 347280,
          "time": 242.9441968708333,
          "velocity": 0.6929133858267716
        },
        {
          "duration": 0.1875,
          "durationTicks": 240,
          "midi": 59,
          "name": "B3",
          "ticks": 347280,
          "time": 242.9441968708333,
          "velocity": 0.6377952755905512
        },
        {
          "duration": 0.1875,
          "durationTicks": 240,
          "midi": 60,
          "name": "C4",
          "ticks": 347520,
          "time": 243.1316968708333,
          "velocity": 0.44881889763779526
        },
        {
          "duration": 0.1875,
          "durationTicks": 240,
          "midi": 64,
          "name": "E4",
          "ticks": 347760,
          "time": 243.3191968708333,
          "velocity": 0.7480314960629921
        },
        {
          "duration": 0.1875,
          "durationTicks": 240,
          "midi": 68,
          "name": "G#4",
          "ticks": 347760,
          "time": 243.3191968708333,
          "velocity": 0.7480314960629921
        },
        {
          "duration": 0.1875,
          "durationTicks": 240,
          "midi": 71,
          "name": "B4",
          "ticks": 347760,
          "time": 243.3191968708333,
          "velocity": 0.7480314960629921
        },
        {
          "duration": 0.1875,
          "durationTicks": 240,
          "midi": 32,
          "name": "G#1",
          "ticks": 347760,
          "time": 243.3191968708333,
          "velocity": 0.5905511811023622
        },
        {
          "duration": 0.1875,
          "durationTicks": 240,
          "midi": 59,
          "name": "B3",
          "ticks": 348000,
          "time": 243.5066968708333,
          "velocity": 0.5354330708661418
        },
        {
          "duration": 0.1875,
          "durationTicks": 240,
          "midi": 44,
          "name": "G#2",
          "ticks": 348000,
          "time": 243.5066968708333,
          "velocity": 0.6456692913385826
        },
        {
          "duration": 0.1875,
          "durationTicks": 240,
          "midi": 64,
          "name": "E4",
          "ticks": 348240,
          "time": 243.6941968708333,
          "velocity": 0.7874015748031497
        },
        {
          "duration": 0.1875,
          "durationTicks": 240,
          "midi": 68,
          "name": "G#4",
          "ticks": 348240,
          "time": 243.6941968708333,
          "velocity": 0.7874015748031497
        },
        {
          "duration": 0.1875,
          "durationTicks": 240,
          "midi": 72,
          "name": "C5",
          "ticks": 348240,
          "time": 243.6941968708333,
          "velocity": 0.7874015748031497
        },
        {
          "duration": 0.1875,
          "durationTicks": 240,
          "midi": 44,
          "name": "G#2",
          "ticks": 348240,
          "time": 243.6941968708333,
          "velocity": 0.6456692913385826
        },
        {
          "duration": 0.1875,
          "durationTicks": 240,
          "midi": 60,
          "name": "C4",
          "ticks": 348480,
          "time": 243.8816968708333,
          "velocity": 0.4645669291338583
        },
        {
          "duration": 0.1875,
          "durationTicks": 240,
          "midi": 52,
          "name": "E3",
          "ticks": 348480,
          "time": 243.8816968708333,
          "velocity": 0.6299212598425197
        },
        {
          "duration": 0.1875,
          "durationTicks": 240,
          "midi": 64,
          "name": "E4",
          "ticks": 348720,
          "time": 244.0691968708333,
          "velocity": 0.7480314960629921
        },
        {
          "duration": 0.1875,
          "durationTicks": 240,
          "midi": 68,
          "name": "G#4",
          "ticks": 348720,
          "time": 244.0691968708333,
          "velocity": 0.7480314960629921
        },
        {
          "duration": 0.1875,
          "durationTicks": 240,
          "midi": 74,
          "name": "D5",
          "ticks": 348720,
          "time": 244.0691968708333,
          "velocity": 0.7480314960629921
        },
        {
          "duration": 0.1875,
          "durationTicks": 240,
          "midi": 56,
          "name": "G#3",
          "ticks": 348720,
          "time": 244.0691968708333,
          "velocity": 0.6614173228346457
        },
        {
          "duration": 0.1875,
          "durationTicks": 240,
          "midi": 62,
          "name": "D4",
          "ticks": 348960,
          "time": 244.2566968708333,
          "velocity": 0.4330708661417323
        },
        {
          "duration": 0.1875,
          "durationTicks": 240,
          "midi": 52,
          "name": "E3",
          "ticks": 348960,
          "time": 244.2566968708333,
          "velocity": 0.5826771653543307
        },
        {
          "duration": 0.1875,
          "durationTicks": 240,
          "midi": 64,
          "name": "E4",
          "ticks": 349200,
          "time": 244.4441968708333,
          "velocity": 0.7401574803149606
        },
        {
          "duration": 0.1875,
          "durationTicks": 240,
          "midi": 71,
          "name": "B4",
          "ticks": 349200,
          "time": 244.4441968708333,
          "velocity": 0.7401574803149606
        },
        {
          "duration": 0.1875,
          "durationTicks": 240,
          "midi": 44,
          "name": "G#2",
          "ticks": 349200,
          "time": 244.4441968708333,
          "velocity": 0.5196850393700787
        },
        {
          "duration": 0.1875,
          "durationTicks": 240,
          "midi": 59,
          "name": "B3",
          "ticks": 349440,
          "time": 244.6316968708333,
          "velocity": 0.5039370078740157
        },
        {
          "duration": 0.1875,
          "durationTicks": 240,
          "midi": 52,
          "name": "E3",
          "ticks": 349440,
          "time": 244.6316968708333,
          "velocity": 0.6299212598425197
        },
        {
          "duration": 0.1875,
          "durationTicks": 240,
          "midi": 65,
          "name": "F4",
          "ticks": 349680,
          "time": 244.8191968708333,
          "velocity": 0.7716535433070866
        },
        {
          "duration": 0.1875,
          "durationTicks": 240,
          "midi": 69,
          "name": "A4",
          "ticks": 349680,
          "time": 244.8191968708333,
          "velocity": 0.7716535433070866
        },
        {
          "duration": 0.1875,
          "durationTicks": 240,
          "midi": 71,
          "name": "B4",
          "ticks": 349680,
          "time": 244.8191968708333,
          "velocity": 0.7716535433070866
        },
        {
          "duration": 0.1875,
          "durationTicks": 240,
          "midi": 29,
          "name": "F1",
          "ticks": 349680,
          "time": 244.8191968708333,
          "velocity": 0.5039370078740157
        },
        {
          "duration": 0.1875,
          "durationTicks": 240,
          "midi": 59,
          "name": "B3",
          "ticks": 349920,
          "time": 245.0066968708333,
          "velocity": 0.5511811023622047
        },
        {
          "duration": 0.1875,
          "durationTicks": 240,
          "midi": 41,
          "name": "F2",
          "ticks": 349920,
          "time": 245.0066968708333,
          "velocity": 0.6771653543307087
        },
        {
          "duration": 0.1875,
          "durationTicks": 240,
          "midi": 65,
          "name": "F4",
          "ticks": 350160,
          "time": 245.1941968708333,
          "velocity": 0.6692913385826772
        },
        {
          "duration": 0.1875,
          "durationTicks": 240,
          "midi": 45,
          "name": "A2",
          "ticks": 350160,
          "time": 245.1941968708333,
          "velocity": 0.6141732283464567
        },
        {
          "duration": 0.1875,
          "durationTicks": 240,
          "midi": 65,
          "name": "F4",
          "ticks": 350400,
          "time": 245.3816968708333,
          "velocity": 0.6929133858267716
        },
        {
          "duration": 0.1875,
          "durationTicks": 240,
          "midi": 69,
          "name": "A4",
          "ticks": 350400,
          "time": 245.3816968708333,
          "velocity": 0.6929133858267716
        },
        {
          "duration": 0.1875,
          "durationTicks": 240,
          "midi": 48,
          "name": "C3",
          "ticks": 350400,
          "time": 245.3816968708333,
          "velocity": 0.6535433070866141
        },
        {
          "duration": 0.1875,
          "durationTicks": 240,
          "midi": 65,
          "name": "F4",
          "ticks": 350640,
          "time": 245.5691968708333,
          "velocity": 0.6850393700787402
        },
        {
          "duration": 0.1875,
          "durationTicks": 240,
          "midi": 69,
          "name": "A4",
          "ticks": 350640,
          "time": 245.5691968708333,
          "velocity": 0.6850393700787402
        },
        {
          "duration": 0.1875,
          "durationTicks": 240,
          "midi": 72,
          "name": "C5",
          "ticks": 350640,
          "time": 245.5691968708333,
          "velocity": 0.6850393700787402
        },
        {
          "duration": 0.1875,
          "durationTicks": 240,
          "midi": 53,
          "name": "F3",
          "ticks": 350640,
          "time": 245.5691968708333,
          "velocity": 0.6535433070866141
        },
        {
          "duration": 0.1875,
          "durationTicks": 240,
          "midi": 60,
          "name": "C4",
          "ticks": 350880,
          "time": 245.7566968708333,
          "velocity": 0.44881889763779526
        },
        {
          "duration": 0.1875,
          "durationTicks": 240,
          "midi": 48,
          "name": "C3",
          "ticks": 350880,
          "time": 245.7566968708333,
          "velocity": 0.5826771653543307
        },
        {
          "duration": 0.1875,
          "durationTicks": 240,
          "midi": 65,
          "name": "F4",
          "ticks": 351120,
          "time": 245.9441968708333,
          "velocity": 0.6692913385826772
        },
        {
          "duration": 0.1875,
          "durationTicks": 240,
          "midi": 41,
          "name": "F2",
          "ticks": 351120,
          "time": 245.9441968708333,
          "velocity": 0.5511811023622047
        },
        {
          "duration": 0.1875,
          "durationTicks": 240,
          "midi": 65,
          "name": "F4",
          "ticks": 351360,
          "time": 246.1316968708333,
          "velocity": 0.6614173228346457
        },
        {
          "duration": 0.1875,
          "durationTicks": 240,
          "midi": 69,
          "name": "A4",
          "ticks": 351360,
          "time": 246.1316968708333,
          "velocity": 0.6614173228346457
        },
        {
          "duration": 0.1875,
          "durationTicks": 240,
          "midi": 53,
          "name": "F3",
          "ticks": 351360,
          "time": 246.1316968708333,
          "velocity": 0.6850393700787402
        },
        {
          "duration": 0.1875,
          "durationTicks": 240,
          "midi": 65,
          "name": "F4",
          "ticks": 351600,
          "time": 246.3191968708333,
          "velocity": 0.6692913385826772
        },
        {
          "duration": 0.1875,
          "durationTicks": 240,
          "midi": 69,
          "name": "A4",
          "ticks": 351600,
          "time": 246.3191968708333,
          "velocity": 0.6692913385826772
        },
        {
          "duration": 0.1875,
          "durationTicks": 240,
          "midi": 74,
          "name": "D5",
          "ticks": 351600,
          "time": 246.3191968708333,
          "velocity": 0.6692913385826772
        },
        {
          "duration": 0.1875,
          "durationTicks": 240,
          "midi": 57,
          "name": "A3",
          "ticks": 351600,
          "time": 246.3191968708333,
          "velocity": 0.6456692913385826
        },
        {
          "duration": 0.1875,
          "durationTicks": 240,
          "midi": 62,
          "name": "D4",
          "ticks": 351840,
          "time": 246.5066968708333,
          "velocity": 0.4645669291338583
        },
        {
          "duration": 0.1875,
          "durationTicks": 240,
          "midi": 60,
          "name": "C4",
          "ticks": 351840,
          "time": 246.5066968708333,
          "velocity": 0.6535433070866141
        },
        {
          "duration": 0.1875,
          "durationTicks": 240,
          "midi": 65,
          "name": "F4",
          "ticks": 352080,
          "time": 246.6941968708333,
          "velocity": 0.6456692913385826
        },
        {
          "duration": 0.1875,
          "durationTicks": 240,
          "midi": 53,
          "name": "F3",
          "ticks": 352080,
          "time": 246.6941968708333,
          "velocity": 0.5511811023622047
        },
        {
          "duration": 0.1875,
          "durationTicks": 240,
          "midi": 65,
          "name": "F4",
          "ticks": 352320,
          "time": 246.8816968708333,
          "velocity": 0.6771653543307087
        },
        {
          "duration": 0.1875,
          "durationTicks": 240,
          "midi": 69,
          "name": "A4",
          "ticks": 352320,
          "time": 246.8816968708333,
          "velocity": 0.6771653543307087
        },
        {
          "duration": 0.1875,
          "durationTicks": 240,
          "midi": 60,
          "name": "C4",
          "ticks": 352320,
          "time": 246.8816968708333,
          "velocity": 0.6771653543307087
        },
        {
          "duration": 0.1875,
          "durationTicks": 240,
          "midi": 65,
          "name": "F4",
          "ticks": 352560,
          "time": 247.0691968708333,
          "velocity": 0.7322834645669292
        },
        {
          "duration": 0.1875,
          "durationTicks": 240,
          "midi": 69,
          "name": "A4",
          "ticks": 352560,
          "time": 247.0691968708333,
          "velocity": 0.7322834645669292
        },
        {
          "duration": 0.1875,
          "durationTicks": 240,
          "midi": 76,
          "name": "E5",
          "ticks": 352560,
          "time": 247.0691968708333,
          "velocity": 0.7322834645669292
        },
        {
          "duration": 0.1875,
          "durationTicks": 240,
          "midi": 65,
          "name": "F4",
          "ticks": 352560,
          "time": 247.0691968708333,
          "velocity": 0.7007874015748031
        },
        {
          "duration": 0.1875,
          "durationTicks": 240,
          "midi": 62,
          "name": "D4",
          "ticks": 352800,
          "time": 247.2566968708333,
          "velocity": 0.4409448818897638
        },
        {
          "duration": 0.1875,
          "durationTicks": 240,
          "midi": 60,
          "name": "C4",
          "ticks": 352800,
          "time": 247.2566968708333,
          "velocity": 0.5275590551181102
        },
        {
          "duration": 0.1875,
          "durationTicks": 240,
          "midi": 64,
          "name": "E4",
          "ticks": 353040,
          "time": 247.4441968708333,
          "velocity": 0.5984251968503937
        },
        {
          "duration": 0.1875,
          "durationTicks": 240,
          "midi": 53,
          "name": "F3",
          "ticks": 353040,
          "time": 247.4441968708333,
          "velocity": 0.5275590551181102
        },
        {
          "duration": 0.1875,
          "durationTicks": 240,
          "midi": 65,
          "name": "F4",
          "ticks": 353280,
          "time": 247.6316968708333,
          "velocity": 0.6850393700787402
        },
        {
          "duration": 0.1875,
          "durationTicks": 240,
          "midi": 69,
          "name": "A4",
          "ticks": 353280,
          "time": 247.6316968708333,
          "velocity": 0.6850393700787402
        },
        {
          "duration": 0.1875,
          "durationTicks": 240,
          "midi": 60,
          "name": "C4",
          "ticks": 353280,
          "time": 247.6316968708333,
          "velocity": 0.7007874015748031
        },
        {
          "duration": 0.375,
          "durationTicks": 480,
          "midi": 81,
          "name": "A5",
          "ticks": 353520,
          "time": 247.8191968708333,
          "velocity": 0.7952755905511811
        },
        {
          "duration": 0.375,
          "durationTicks": 480,
          "midi": 84,
          "name": "C6",
          "ticks": 353520,
          "time": 247.8191968708333,
          "velocity": 0.7952755905511811
        },
        {
          "duration": 0.375,
          "durationTicks": 480,
          "midi": 88,
          "name": "E6",
          "ticks": 353520,
          "time": 247.8191968708333,
          "velocity": 0.7952755905511811
        },
        {
          "duration": 0.375,
          "durationTicks": 480,
          "midi": 93,
          "name": "A6",
          "ticks": 353520,
          "time": 247.8191968708333,
          "velocity": 0.7952755905511811
        },
        {
          "duration": 0.375,
          "durationTicks": 480,
          "midi": 21,
          "name": "A0",
          "ticks": 353520,
          "time": 247.8191968708333,
          "velocity": 0.5748031496062992
        },
        {
          "duration": 0.375,
          "durationTicks": 480,
          "midi": 33,
          "name": "A1",
          "ticks": 353520,
          "time": 247.8191968708333,
          "velocity": 0.5748031496062992
        },
        {
          "duration": 0.1875,
          "durationTicks": 240,
          "midi": 57,
          "name": "A3",
          "ticks": 354000,
          "time": 248.1941968708333,
          "velocity": 0.49606299212598426
        },
        {
          "duration": 0.1875,
          "durationTicks": 240,
          "midi": 65,
          "name": "F4",
          "ticks": 354000,
          "time": 248.1941968708333,
          "velocity": 0.49606299212598426
        },
        {
          "duration": 0.1875,
          "durationTicks": 240,
          "midi": 45,
          "name": "A2",
          "ticks": 354000,
          "time": 248.1941968708333,
          "velocity": 0.6850393700787402
        },
        {
          "duration": 0.1875,
          "durationTicks": 240,
          "midi": 57,
          "name": "A3",
          "ticks": 354240,
          "time": 248.3816968708333,
          "velocity": 0.6377952755905512
        },
        {
          "duration": 0.1875,
          "durationTicks": 240,
          "midi": 69,
          "name": "A4",
          "ticks": 354240,
          "time": 248.3816968708333,
          "velocity": 0.6377952755905512
        },
        {
          "duration": 0.1875,
          "durationTicks": 240,
          "midi": 52,
          "name": "E3",
          "ticks": 354240,
          "time": 248.3816968708333,
          "velocity": 0.6456692913385826
        },
        {
          "duration": 0.1875,
          "durationTicks": 240,
          "midi": 69,
          "name": "A4",
          "ticks": 354480,
          "time": 248.5691968708333,
          "velocity": 0.7559055118110236
        },
        {
          "duration": 0.1875,
          "durationTicks": 240,
          "midi": 81,
          "name": "A5",
          "ticks": 354480,
          "time": 248.5691968708333,
          "velocity": 0.7559055118110236
        },
        {
          "duration": 0.1875,
          "durationTicks": 240,
          "midi": 57,
          "name": "A3",
          "ticks": 354480,
          "time": 248.5691968708333,
          "velocity": 0.7007874015748031
        },
        {
          "duration": 0.1875,
          "durationTicks": 240,
          "midi": 69,
          "name": "A4",
          "ticks": 354720,
          "time": 248.7566968708333,
          "velocity": 0.6456692913385826
        },
        {
          "duration": 0.1875,
          "durationTicks": 240,
          "midi": 72,
          "name": "C5",
          "ticks": 354720,
          "time": 248.7566968708333,
          "velocity": 0.6456692913385826
        },
        {
          "duration": 0.1875,
          "durationTicks": 240,
          "midi": 76,
          "name": "E5",
          "ticks": 354720,
          "time": 248.7566968708333,
          "velocity": 0.6456692913385826
        },
        {
          "duration": 0.1875,
          "durationTicks": 240,
          "midi": 81,
          "name": "A5",
          "ticks": 354720,
          "time": 248.7566968708333,
          "velocity": 0.6456692913385826
        },
        {
          "duration": 0.1875,
          "durationTicks": 240,
          "midi": 60,
          "name": "C4",
          "ticks": 354720,
          "time": 248.7566968708333,
          "velocity": 0.6456692913385826
        },
        {
          "duration": 0.1875,
          "durationTicks": 240,
          "midi": 81,
          "name": "A5",
          "ticks": 354960,
          "time": 248.9441968708333,
          "velocity": 0.6062992125984252
        },
        {
          "duration": 0.1875,
          "durationTicks": 240,
          "midi": 84,
          "name": "C6",
          "ticks": 354960,
          "time": 248.9441968708333,
          "velocity": 0.6062992125984252
        },
        {
          "duration": 0.1875,
          "durationTicks": 240,
          "midi": 88,
          "name": "E6",
          "ticks": 354960,
          "time": 248.9441968708333,
          "velocity": 0.6062992125984252
        },
        {
          "duration": 0.1875,
          "durationTicks": 240,
          "midi": 93,
          "name": "A6",
          "ticks": 354960,
          "time": 248.9441968708333,
          "velocity": 0.6062992125984252
        },
        {
          "duration": 0.1875,
          "durationTicks": 240,
          "midi": 64,
          "name": "E4",
          "ticks": 354960,
          "time": 248.9441968708333,
          "velocity": 0.6850393700787402
        },
        {
          "duration": 0.1875,
          "durationTicks": 240,
          "midi": 81,
          "name": "A5",
          "ticks": 355200,
          "time": 249.1316968708333,
          "velocity": 0.6062992125984252
        },
        {
          "duration": 0.1875,
          "durationTicks": 240,
          "midi": 93,
          "name": "A6",
          "ticks": 355200,
          "time": 249.1316968708333,
          "velocity": 0.6062992125984252
        },
        {
          "duration": 0.1875,
          "durationTicks": 240,
          "midi": 57,
          "name": "A3",
          "ticks": 355200,
          "time": 249.1316968708333,
          "velocity": 0.5669291338582677
        },
        {
          "duration": 0.375,
          "durationTicks": 480,
          "midi": 93,
          "name": "A6",
          "ticks": 355440,
          "time": 249.3191968708333,
          "velocity": 0.7559055118110236
        },
        {
          "duration": 0.375,
          "durationTicks": 480,
          "midi": 105,
          "name": "A7",
          "ticks": 355440,
          "time": 249.3191968708333,
          "velocity": 0.7559055118110236
        },
        {
          "duration": 0.1875,
          "durationTicks": 240,
          "midi": 64,
          "name": "E4",
          "ticks": 355440,
          "time": 249.3191968708333,
          "velocity": 0.7086614173228346
        },
        {
          "duration": 0.1875,
          "durationTicks": 240,
          "midi": 69,
          "name": "A4",
          "ticks": 355680,
          "time": 249.5066968708333,
          "velocity": 0.6771653543307087
        },
        {
          "duration": 0.1875,
          "durationTicks": 240,
          "midi": 75,
          "name": "D#5",
          "ticks": 355920,
          "time": 249.6941968708333,
          "velocity": 0.4881889763779528
        },
        {
          "duration": 0.1875,
          "durationTicks": 240,
          "midi": 87,
          "name": "D#6",
          "ticks": 355920,
          "time": 249.6941968708333,
          "velocity": 0.4881889763779528
        },
        {
          "duration": 0.1875,
          "durationTicks": 240,
          "midi": 64,
          "name": "E4",
          "ticks": 355920,
          "time": 249.6941968708333,
          "velocity": 0.5433070866141733
        },
        {
          "duration": 0.1875,
          "durationTicks": 240,
          "midi": 75,
          "name": "D#5",
          "ticks": 356160,
          "time": 249.8816968708333,
          "velocity": 0.5433070866141733
        },
        {
          "duration": 0.1875,
          "durationTicks": 240,
          "midi": 87,
          "name": "D#6",
          "ticks": 356160,
          "time": 249.8816968708333,
          "velocity": 0.5433070866141733
        },
        {
          "duration": 0.1875,
          "durationTicks": 240,
          "midi": 60,
          "name": "C4",
          "ticks": 356160,
          "time": 249.8816968708333,
          "velocity": 0.5433070866141733
        },
        {
          "duration": 0.1875,
          "durationTicks": 240,
          "midi": 76,
          "name": "E5",
          "ticks": 356400,
          "time": 250.0691968708333,
          "velocity": 0.6614173228346457
        },
        {
          "duration": 0.1875,
          "durationTicks": 240,
          "midi": 88,
          "name": "E6",
          "ticks": 356400,
          "time": 250.0691968708333,
          "velocity": 0.6614173228346457
        },
        {
          "duration": 0.1875,
          "durationTicks": 240,
          "midi": 57,
          "name": "A3",
          "ticks": 356400,
          "time": 250.0691968708333,
          "velocity": 0.5669291338582677
        },
        {
          "duration": 0.1875,
          "durationTicks": 240,
          "midi": 76,
          "name": "E5",
          "ticks": 356640,
          "time": 250.2566968708333,
          "velocity": 0.6062992125984252
        },
        {
          "duration": 0.1875,
          "durationTicks": 240,
          "midi": 88,
          "name": "E6",
          "ticks": 356640,
          "time": 250.2566968708333,
          "velocity": 0.6062992125984252
        },
        {
          "duration": 0.1875,
          "durationTicks": 240,
          "midi": 45,
          "name": "A2",
          "ticks": 356640,
          "time": 250.2566968708333,
          "velocity": 0.5118110236220472
        },
        {
          "duration": 0.1875,
          "durationTicks": 240,
          "midi": 80,
          "name": "G#5",
          "ticks": 356880,
          "time": 250.4441968708333,
          "velocity": 0.6771653543307087
        },
        {
          "duration": 0.1875,
          "durationTicks": 240,
          "midi": 92,
          "name": "G#6",
          "ticks": 356880,
          "time": 250.4441968708333,
          "velocity": 0.6771653543307087
        },
        {
          "duration": 0.1875,
          "durationTicks": 240,
          "midi": 55,
          "name": "G3",
          "ticks": 356880,
          "time": 250.4441968708333,
          "velocity": 0.6456692913385826
        },
        {
          "duration": 0.1875,
          "durationTicks": 240,
          "midi": 80,
          "name": "G#5",
          "ticks": 357120,
          "time": 250.6316968708333,
          "velocity": 0.6299212598425197
        },
        {
          "duration": 0.1875,
          "durationTicks": 240,
          "midi": 92,
          "name": "G#6",
          "ticks": 357120,
          "time": 250.6316968708333,
          "velocity": 0.6299212598425197
        },
        {
          "duration": 0.1875,
          "durationTicks": 240,
          "midi": 45,
          "name": "A2",
          "ticks": 357120,
          "time": 250.6316968708333,
          "velocity": 0.5433070866141733
        },
        {
          "duration": 0.375,
          "durationTicks": 480,
          "midi": 81,
          "name": "A5",
          "ticks": 357360,
          "time": 250.8191968708333,
          "velocity": 0.6692913385826772
        },
        {
          "duration": 0.375,
          "durationTicks": 480,
          "midi": 84,
          "name": "C6",
          "ticks": 357360,
          "time": 250.8191968708333,
          "velocity": 0.6692913385826772
        },
        {
          "duration": 0.375,
          "durationTicks": 480,
          "midi": 88,
          "name": "E6",
          "ticks": 357360,
          "time": 250.8191968708333,
          "velocity": 0.6692913385826772
        },
        {
          "duration": 0.375,
          "durationTicks": 480,
          "midi": 93,
          "name": "A6",
          "ticks": 357360,
          "time": 250.8191968708333,
          "velocity": 0.6692913385826772
        },
        {
          "duration": 0.375,
          "durationTicks": 480,
          "midi": 26,
          "name": "D1",
          "ticks": 357360,
          "time": 250.8191968708333,
          "velocity": 0.5196850393700787
        },
        {
          "duration": 0.375,
          "durationTicks": 480,
          "midi": 38,
          "name": "D2",
          "ticks": 357360,
          "time": 250.8191968708333,
          "velocity": 0.5196850393700787
        },
        {
          "duration": 0.1875,
          "durationTicks": 240,
          "midi": 57,
          "name": "A3",
          "ticks": 357840,
          "time": 251.1941968708333,
          "velocity": 0.4330708661417323
        },
        {
          "duration": 0.1875,
          "durationTicks": 240,
          "midi": 69,
          "name": "A4",
          "ticks": 357840,
          "time": 251.1941968708333,
          "velocity": 0.4330708661417323
        },
        {
          "duration": 0.1875,
          "durationTicks": 240,
          "midi": 38,
          "name": "D2",
          "ticks": 357840,
          "time": 251.1941968708333,
          "velocity": 0.6141732283464567
        },
        {
          "duration": 0.1875,
          "durationTicks": 240,
          "midi": 57,
          "name": "A3",
          "ticks": 358080,
          "time": 251.3816968708333,
          "velocity": 0.5905511811023622
        },
        {
          "duration": 0.1875,
          "durationTicks": 240,
          "midi": 69,
          "name": "A4",
          "ticks": 358080,
          "time": 251.3816968708333,
          "velocity": 0.5905511811023622
        },
        {
          "duration": 0.1875,
          "durationTicks": 240,
          "midi": 50,
          "name": "D3",
          "ticks": 358080,
          "time": 251.3816968708333,
          "velocity": 0.7165354330708661
        },
        {
          "duration": 0.1875,
          "durationTicks": 240,
          "midi": 69,
          "name": "A4",
          "ticks": 358320,
          "time": 251.5691968708333,
          "velocity": 0.7322834645669292
        },
        {
          "duration": 0.1875,
          "durationTicks": 240,
          "midi": 74,
          "name": "D5",
          "ticks": 358320,
          "time": 251.5691968708333,
          "velocity": 0.7322834645669292
        },
        {
          "duration": 0.1875,
          "durationTicks": 240,
          "midi": 77,
          "name": "F5",
          "ticks": 358320,
          "time": 251.5691968708333,
          "velocity": 0.7322834645669292
        },
        {
          "duration": 0.1875,
          "durationTicks": 240,
          "midi": 81,
          "name": "A5",
          "ticks": 358320,
          "time": 251.5691968708333,
          "velocity": 0.7322834645669292
        },
        {
          "duration": 0.1875,
          "durationTicks": 240,
          "midi": 53,
          "name": "F3",
          "ticks": 358320,
          "time": 251.5691968708333,
          "velocity": 0.6456692913385826
        },
        {
          "duration": 0.1875,
          "durationTicks": 240,
          "midi": 69,
          "name": "A4",
          "ticks": 358560,
          "time": 251.7566968708333,
          "velocity": 0.6456692913385826
        },
        {
          "duration": 0.1875,
          "durationTicks": 240,
          "midi": 74,
          "name": "D5",
          "ticks": 358560,
          "time": 251.7566968708333,
          "velocity": 0.6456692913385826
        },
        {
          "duration": 0.1875,
          "durationTicks": 240,
          "midi": 77,
          "name": "F5",
          "ticks": 358560,
          "time": 251.7566968708333,
          "velocity": 0.6456692913385826
        },
        {
          "duration": 0.1875,
          "durationTicks": 240,
          "midi": 81,
          "name": "A5",
          "ticks": 358560,
          "time": 251.7566968708333,
          "velocity": 0.6456692913385826
        },
        {
          "duration": 0.1875,
          "durationTicks": 240,
          "midi": 57,
          "name": "A3",
          "ticks": 358560,
          "time": 251.7566968708333,
          "velocity": 0.6456692913385826
        },
        {
          "duration": 0.1875,
          "durationTicks": 240,
          "midi": 81,
          "name": "A5",
          "ticks": 358800,
          "time": 251.9441968708333,
          "velocity": 0.6299212598425197
        },
        {
          "duration": 0.1875,
          "durationTicks": 240,
          "midi": 93,
          "name": "A6",
          "ticks": 358800,
          "time": 251.9441968708333,
          "velocity": 0.6299212598425197
        },
        {
          "duration": 0.1875,
          "durationTicks": 240,
          "midi": 50,
          "name": "D3",
          "ticks": 358800,
          "time": 251.9441968708333,
          "velocity": 0.5511811023622047
        },
        {
          "duration": 0.1875,
          "durationTicks": 240,
          "midi": 81,
          "name": "A5",
          "ticks": 359040,
          "time": 252.1316968708333,
          "velocity": 0.5748031496062992
        },
        {
          "duration": 0.1875,
          "durationTicks": 240,
          "midi": 93,
          "name": "A6",
          "ticks": 359040,
          "time": 252.1316968708333,
          "velocity": 0.5748031496062992
        },
        {
          "duration": 0.1875,
          "durationTicks": 240,
          "midi": 57,
          "name": "A3",
          "ticks": 359040,
          "time": 252.1316968708333,
          "velocity": 0.6535433070866141
        },
        {
          "duration": 0.75,
          "durationTicks": 960,
          "midi": 93,
          "name": "A6",
          "ticks": 359280,
          "time": 252.3191968708333,
          "velocity": 0.7401574803149606
        },
        {
          "duration": 0.75,
          "durationTicks": 960,
          "midi": 105,
          "name": "A7",
          "ticks": 359280,
          "time": 252.3191968708333,
          "velocity": 0.7401574803149606
        },
        {
          "duration": 0.1875,
          "durationTicks": 240,
          "midi": 62,
          "name": "D4",
          "ticks": 359280,
          "time": 252.3191968708333,
          "velocity": 0.6850393700787402
        },
        {
          "duration": 0.1875,
          "durationTicks": 240,
          "midi": 57,
          "name": "A3",
          "ticks": 359520,
          "time": 252.5066968708333,
          "velocity": 0.5669291338582677
        },
        {
          "duration": 0.1875,
          "durationTicks": 240,
          "midi": 53,
          "name": "F3",
          "ticks": 359760,
          "time": 252.6941968708333,
          "velocity": 0.5669291338582677
        },
        {
          "duration": 0.1875,
          "durationTicks": 240,
          "midi": 50,
          "name": "D3",
          "ticks": 360000,
          "time": 252.8816968708333,
          "velocity": 0.5748031496062992
        },
        {
          "duration": 0.375,
          "durationTicks": 480,
          "midi": 79,
          "name": "G5",
          "ticks": 360240,
          "time": 253.0691968708333,
          "velocity": 0.44881889763779526
        },
        {
          "duration": 0.375,
          "durationTicks": 480,
          "midi": 91,
          "name": "G6",
          "ticks": 360240,
          "time": 253.0691968708333,
          "velocity": 0.44881889763779526
        },
        {
          "duration": 0.1875,
          "durationTicks": 240,
          "midi": 38,
          "name": "D2",
          "ticks": 360240,
          "time": 253.0691968708333,
          "velocity": 0.4881889763779528
        },
        {
          "duration": 0.1875,
          "durationTicks": 240,
          "midi": 50,
          "name": "D3",
          "ticks": 360480,
          "time": 253.2566968708333,
          "velocity": 0.6692913385826772
        },
        {
          "duration": 0.375,
          "durationTicks": 480,
          "midi": 77,
          "name": "F5",
          "ticks": 360720,
          "time": 253.4441968708333,
          "velocity": 0.5118110236220472
        },
        {
          "duration": 0.375,
          "durationTicks": 480,
          "midi": 89,
          "name": "F6",
          "ticks": 360720,
          "time": 253.4441968708333,
          "velocity": 0.5118110236220472
        },
        {
          "duration": 0.1875,
          "durationTicks": 240,
          "midi": 38,
          "name": "D2",
          "ticks": 360720,
          "time": 253.4441968708333,
          "velocity": 0.5039370078740157
        },
        {
          "duration": 0.1875,
          "durationTicks": 240,
          "midi": 50,
          "name": "D3",
          "ticks": 360960,
          "time": 253.6316968708333,
          "velocity": 0.6771653543307087
        },
        {
          "duration": 0.1875,
          "durationTicks": 240,
          "midi": 65,
          "name": "F4",
          "ticks": 361200,
          "time": 253.8191968708333,
          "velocity": 0.5590551181102362
        },
        {
          "duration": 0.1875,
          "durationTicks": 240,
          "midi": 69,
          "name": "A4",
          "ticks": 361200,
          "time": 253.8191968708333,
          "velocity": 0.5590551181102362
        },
        {
          "duration": 0.1875,
          "durationTicks": 240,
          "midi": 76,
          "name": "E5",
          "ticks": 361200,
          "time": 253.8191968708333,
          "velocity": 0.5590551181102362
        },
        {
          "duration": 0.1875,
          "durationTicks": 240,
          "midi": 23,
          "name": "B0",
          "ticks": 361200,
          "time": 253.8191968708333,
          "velocity": 0.5354330708661418
        },
        {
          "duration": 0.1875,
          "durationTicks": 240,
          "midi": 64,
          "name": "E4",
          "ticks": 361440,
          "time": 254.0066968708333,
          "velocity": 0.4251968503937008
        },
        {
          "duration": 0.1875,
          "durationTicks": 240,
          "midi": 35,
          "name": "B1",
          "ticks": 361440,
          "time": 254.0066968708333,
          "velocity": 0.6377952755905512
        },
        {
          "duration": 0.1875,
          "durationTicks": 240,
          "midi": 65,
          "name": "F4",
          "ticks": 361680,
          "time": 254.1941968708333,
          "velocity": 0.5826771653543307
        },
        {
          "duration": 0.1875,
          "durationTicks": 240,
          "midi": 45,
          "name": "A2",
          "ticks": 361680,
          "time": 254.1941968708333,
          "velocity": 0.6850393700787402
        },
        {
          "duration": 0.1875,
          "durationTicks": 240,
          "midi": 69,
          "name": "A4",
          "ticks": 361920,
          "time": 254.3816968708333,
          "velocity": 0.6535433070866141
        },
        {
          "duration": 0.1875,
          "durationTicks": 240,
          "midi": 53,
          "name": "F3",
          "ticks": 361920,
          "time": 254.3816968708333,
          "velocity": 0.6850393700787402
        },
        {
          "duration": 0.1875,
          "durationTicks": 240,
          "midi": 65,
          "name": "F4",
          "ticks": 362160,
          "time": 254.5691968708333,
          "velocity": 0.7086614173228346
        },
        {
          "duration": 0.1875,
          "durationTicks": 240,
          "midi": 69,
          "name": "A4",
          "ticks": 362160,
          "time": 254.5691968708333,
          "velocity": 0.7086614173228346
        },
        {
          "duration": 0.1875,
          "durationTicks": 240,
          "midi": 74,
          "name": "D5",
          "ticks": 362160,
          "time": 254.5691968708333,
          "velocity": 0.7086614173228346
        },
        {
          "duration": 0.1875,
          "durationTicks": 240,
          "midi": 50,
          "name": "D3",
          "ticks": 362160,
          "time": 254.5691968708333,
          "velocity": 0.5905511811023622
        },
        {
          "duration": 0.1875,
          "durationTicks": 240,
          "midi": 62,
          "name": "D4",
          "ticks": 362400,
          "time": 254.7566968708333,
          "velocity": 0.44881889763779526
        },
        {
          "duration": 0.1875,
          "durationTicks": 240,
          "midi": 59,
          "name": "B3",
          "ticks": 362400,
          "time": 254.7566968708333,
          "velocity": 0.6692913385826772
        },
        {
          "duration": 0.1875,
          "durationTicks": 240,
          "midi": 65,
          "name": "F4",
          "ticks": 362640,
          "time": 254.9441968708333,
          "velocity": 0.6220472440944882
        },
        {
          "duration": 0.1875,
          "durationTicks": 240,
          "midi": 53,
          "name": "F3",
          "ticks": 362640,
          "time": 254.9441968708333,
          "velocity": 0.5433070866141733
        },
        {
          "duration": 0.1875,
          "durationTicks": 240,
          "midi": 69,
          "name": "A4",
          "ticks": 362880,
          "time": 255.1316968708333,
          "velocity": 0.6692913385826772
        },
        {
          "duration": 0.1875,
          "durationTicks": 240,
          "midi": 47,
          "name": "B2",
          "ticks": 362880,
          "time": 255.1316968708333,
          "velocity": 0.5748031496062992
        },
        {
          "duration": 0.1875,
          "durationTicks": 240,
          "midi": 64,
          "name": "E4",
          "ticks": 363120,
          "time": 255.3191968708333,
          "velocity": 0.6929133858267716
        },
        {
          "duration": 0.1875,
          "durationTicks": 240,
          "midi": 68,
          "name": "G#4",
          "ticks": 363120,
          "time": 255.3191968708333,
          "velocity": 0.6929133858267716
        },
        {
          "duration": 0.1875,
          "durationTicks": 240,
          "midi": 72,
          "name": "C5",
          "ticks": 363120,
          "time": 255.3191968708333,
          "velocity": 0.6929133858267716
        },
        {
          "duration": 0.1875,
          "durationTicks": 240,
          "midi": 28,
          "name": "E1",
          "ticks": 363120,
          "time": 255.3191968708333,
          "velocity": 0.5039370078740157
        },
        {
          "duration": 0.1875,
          "durationTicks": 240,
          "midi": 60,
          "name": "C4",
          "ticks": 363360,
          "time": 255.5066968708333,
          "velocity": 0.44881889763779526
        },
        {
          "duration": 0.1875,
          "durationTicks": 240,
          "midi": 40,
          "name": "E2",
          "ticks": 363360,
          "time": 255.5066968708333,
          "velocity": 0.6614173228346457
        },
        {
          "duration": 0.1875,
          "durationTicks": 240,
          "midi": 64,
          "name": "E4",
          "ticks": 363600,
          "time": 255.6941968708333,
          "velocity": 0.6377952755905512
        },
        {
          "duration": 0.1875,
          "durationTicks": 240,
          "midi": 52,
          "name": "E3",
          "ticks": 363600,
          "time": 255.6941968708333,
          "velocity": 0.6850393700787402
        },
        {
          "duration": 0.1875,
          "durationTicks": 240,
          "midi": 64,
          "name": "E4",
          "ticks": 363840,
          "time": 255.8816968708333,
          "velocity": 0.6377952755905512
        },
        {
          "duration": 0.1875,
          "durationTicks": 240,
          "midi": 68,
          "name": "G#4",
          "ticks": 363840,
          "time": 255.8816968708333,
          "velocity": 0.6377952755905512
        },
        {
          "duration": 0.1875,
          "durationTicks": 240,
          "midi": 59,
          "name": "B3",
          "ticks": 363840,
          "time": 255.8816968708333,
          "velocity": 0.6771653543307087
        },
        {
          "duration": 0.1875,
          "durationTicks": 240,
          "midi": 64,
          "name": "E4",
          "ticks": 364080,
          "time": 256.0691968708333,
          "velocity": 0.7007874015748031
        },
        {
          "duration": 0.1875,
          "durationTicks": 240,
          "midi": 68,
          "name": "G#4",
          "ticks": 364080,
          "time": 256.0691968708333,
          "velocity": 0.7007874015748031
        },
        {
          "duration": 0.1875,
          "durationTicks": 240,
          "midi": 74,
          "name": "D5",
          "ticks": 364080,
          "time": 256.0691968708333,
          "velocity": 0.7007874015748031
        },
        {
          "duration": 0.1875,
          "durationTicks": 240,
          "midi": 64,
          "name": "E4",
          "ticks": 364080,
          "time": 256.0691968708333,
          "velocity": 0.7086614173228346
        },
        {
          "duration": 0.1875,
          "durationTicks": 240,
          "midi": 62,
          "name": "D4",
          "ticks": 364320,
          "time": 256.2566968708333,
          "velocity": 0.4645669291338583
        },
        {
          "duration": 0.1875,
          "durationTicks": 240,
          "midi": 59,
          "name": "B3",
          "ticks": 364320,
          "time": 256.2566968708333,
          "velocity": 0.5748031496062992
        },
        {
          "duration": 0.1875,
          "durationTicks": 240,
          "midi": 64,
          "name": "E4",
          "ticks": 364560,
          "time": 256.4441968708333,
          "velocity": 0.6141732283464567
        },
        {
          "duration": 0.1875,
          "durationTicks": 240,
          "midi": 52,
          "name": "E3",
          "ticks": 364560,
          "time": 256.4441968708333,
          "velocity": 0.5905511811023622
        },
        {
          "duration": 0.1875,
          "durationTicks": 240,
          "midi": 68,
          "name": "G#4",
          "ticks": 364800,
          "time": 256.6316968708333,
          "velocity": 0.6456692913385826
        },
        {
          "duration": 0.1875,
          "durationTicks": 240,
          "midi": 59,
          "name": "B3",
          "ticks": 364800,
          "time": 256.6316968708333,
          "velocity": 0.6456692913385826
        },
        {
          "duration": 3,
          "durationTicks": 3840,
          "midi": 64,
          "name": "E4",
          "ticks": 365040,
          "time": 256.8191968708333,
          "velocity": 0.7322834645669292
        },
        {
          "duration": 3,
          "durationTicks": 3840,
          "midi": 69,
          "name": "A4",
          "ticks": 365040,
          "time": 256.8191968708333,
          "velocity": 0.7322834645669292
        },
        {
          "duration": 3,
          "durationTicks": 3840,
          "midi": 72,
          "name": "C5",
          "ticks": 365040,
          "time": 256.8191968708333,
          "velocity": 0.7322834645669292
        },
        {
          "duration": 3,
          "durationTicks": 3840,
          "midi": 76,
          "name": "E5",
          "ticks": 365040,
          "time": 256.8191968708333,
          "velocity": 0.7322834645669292
        },
        {
          "duration": 3,
          "durationTicks": 3840,
          "midi": 41,
          "name": "F2",
          "ticks": 365040,
          "time": 256.8191968708333,
          "velocity": 0.5669291338582677
        },
        {
          "duration": 3,
          "durationTicks": 3840,
          "midi": 53,
          "name": "F3",
          "ticks": 365040,
          "time": 256.8191968708333,
          "velocity": 0.5669291338582677
        },
        {
          "duration": 0.375,
          "durationTicks": 480,
          "midi": 47,
          "name": "B2",
          "ticks": 372240,
          "time": 262.4441968708333,
          "velocity": 0.5590551181102362
        },
        {
          "duration": 0.75,
          "durationTicks": 960,
          "midi": 45,
          "name": "A2",
          "ticks": 372720,
          "time": 262.8191968708333,
          "velocity": 0.6141732283464567
        },
        {
          "duration": 0.75,
          "durationTicks": 960,
          "midi": 48,
          "name": "C3",
          "ticks": 372720,
          "time": 262.8191968708333,
          "velocity": 0.6141732283464567
        },
        {
          "duration": 0.75,
          "durationTicks": 960,
          "midi": 52,
          "name": "E3",
          "ticks": 372720,
          "time": 262.8191968708333,
          "velocity": 0.6141732283464567
        },
        {
          "duration": 0.75,
          "durationTicks": 960,
          "midi": 54,
          "name": "F#3",
          "ticks": 372720,
          "time": 262.8191968708333,
          "velocity": 0.6141732283464567
        },
        {
          "duration": 0.75,
          "durationTicks": 960,
          "midi": 57,
          "name": "A3",
          "ticks": 372720,
          "time": 262.8191968708333,
          "velocity": 0.6141732283464567
        },
        {
          "duration": 0.375,
          "durationTicks": 480,
          "midi": 23,
          "name": "B0",
          "ticks": 372720,
          "time": 262.8191968708333,
          "velocity": 0.5748031496062992
        },
        {
          "duration": 0.375,
          "durationTicks": 480,
          "midi": 26,
          "name": "D1",
          "ticks": 372720,
          "time": 262.8191968708333,
          "velocity": 0.5748031496062992
        },
        {
          "duration": 0.375,
          "durationTicks": 480,
          "midi": 28,
          "name": "E1",
          "ticks": 372720,
          "time": 262.8191968708333,
          "velocity": 0.5748031496062992
        },
        {
          "duration": 0.375,
          "durationTicks": 480,
          "midi": 29,
          "name": "F1",
          "ticks": 372720,
          "time": 262.8191968708333,
          "velocity": 0.5748031496062992
        },
        {
          "duration": 0.375,
          "durationTicks": 480,
          "midi": 33,
          "name": "A1",
          "ticks": 372720,
          "time": 262.8191968708333,
          "velocity": 0.5748031496062992
        },
        {
          "duration": 0.375,
          "durationTicks": 480,
          "midi": 35,
          "name": "B1",
          "ticks": 372720,
          "time": 262.8191968708333,
          "velocity": 0.5748031496062992
        },
        {
          "duration": 0.375,
          "durationTicks": 480,
          "midi": 33,
          "name": "A1",
          "ticks": 373200,
          "time": 263.1941968708333,
          "velocity": 0.5354330708661418
        },
        {
          "duration": 0.75,
          "durationTicks": 960,
          "midi": 21,
          "name": "A0",
          "ticks": 373680,
          "time": 263.5691968708333,
          "velocity": 0.6535433070866141
        },
        {
          "duration": 0.75,
          "durationTicks": 960,
          "midi": 33,
          "name": "A1",
          "ticks": 373680,
          "time": 263.5691968708333,
          "velocity": 0.6535433070866141
        },
        {
          "duration": 0.75,
          "durationTicks": 960,
          "midi": 21,
          "name": "A0",
          "ticks": 374640,
          "time": 264.3191968708333,
          "velocity": 0.6771653543307087
        },
        {
          "duration": 0.75,
          "durationTicks": 960,
          "midi": 33,
          "name": "A1",
          "ticks": 374640,
          "time": 264.3191968708333,
          "velocity": 0.6771653543307087
        },
        {
          "duration": 0.375,
          "durationTicks": 480,
          "midi": 21,
          "name": "A0",
          "ticks": 375600,
          "time": 265.0691968708333,
          "velocity": 0.6692913385826772
        },
        {
          "duration": 0.375,
          "durationTicks": 480,
          "midi": 33,
          "name": "A1",
          "ticks": 375600,
          "time": 265.0691968708333,
          "velocity": 0.6692913385826772
        },
        {
          "duration": 0.1875,
          "durationTicks": 240,
          "midi": 31,
          "name": "G1",
          "ticks": 376080,
          "time": 265.4441968708333,
          "velocity": 0.7244094488188977
        },
        {
          "duration": 0.1875,
          "durationTicks": 240,
          "midi": 33,
          "name": "A1",
          "ticks": 376080,
          "time": 265.4441968708333,
          "velocity": 0.7244094488188977
        },
        {
          "duration": 0.1875,
          "durationTicks": 240,
          "midi": 28,
          "name": "E1",
          "ticks": 376320,
          "time": 265.6316968708333,
          "velocity": 0.5826771653543307
        },
        {
          "duration": 0.75,
          "durationTicks": 960,
          "midi": 21,
          "name": "A0",
          "ticks": 376560,
          "time": 265.8191968708333,
          "velocity": 0.6535433070866141
        },
        {
          "duration": 0.75,
          "durationTicks": 960,
          "midi": 23,
          "name": "B0",
          "ticks": 376560,
          "time": 265.8191968708333,
          "velocity": 0.6535433070866141
        },
        {
          "duration": 0.75,
          "durationTicks": 960,
          "midi": 21,
          "name": "A0",
          "ticks": 377520,
          "time": 266.5691968708333,
          "velocity": 0.7795275590551181
        },
        {
          "duration": 0.75,
          "durationTicks": 960,
          "midi": 33,
          "name": "A1",
          "ticks": 377520,
          "time": 266.5691968708333,
          "velocity": 0.7795275590551181
        },
        {
          "duration": 0.75,
          "durationTicks": 960,
          "midi": 21,
          "name": "A0",
          "ticks": 378480,
          "time": 267.3191968708333,
          "velocity": 0.6929133858267716
        },
        {
          "duration": 0.75,
          "durationTicks": 960,
          "midi": 33,
          "name": "A1",
          "ticks": 378480,
          "time": 267.3191968708333,
          "velocity": 0.6929133858267716
        },
        {
          "duration": 0.375,
          "durationTicks": 480,
          "midi": 21,
          "name": "A0",
          "ticks": 379440,
          "time": 268.0691968708333,
          "velocity": 0.6377952755905512
        },
        {
          "duration": 0.375,
          "durationTicks": 480,
          "midi": 33,
          "name": "A1",
          "ticks": 379440,
          "time": 268.0691968708333,
          "velocity": 0.6377952755905512
        },
        {
          "duration": 0.1875,
          "durationTicks": 240,
          "midi": 31,
          "name": "G1",
          "ticks": 379920,
          "time": 268.4441968708333,
          "velocity": 0.7007874015748031
        },
        {
          "duration": 0.1875,
          "durationTicks": 240,
          "midi": 33,
          "name": "A1",
          "ticks": 379920,
          "time": 268.4441968708333,
          "velocity": 0.7007874015748031
        },
        {
          "duration": 0.1875,
          "durationTicks": 240,
          "midi": 28,
          "name": "E1",
          "ticks": 380160,
          "time": 268.6316968708333,
          "velocity": 0.5669291338582677
        },
        {
          "duration": 0.75,
          "durationTicks": 960,
          "midi": 21,
          "name": "A0",
          "ticks": 380400,
          "time": 268.8191968708333,
          "velocity": 0.6535433070866141
        },
        {
          "duration": 0.75,
          "durationTicks": 960,
          "midi": 23,
          "name": "B0",
          "ticks": 380400,
          "time": 268.8191968708333,
          "velocity": 0.6535433070866141
        },
        {
          "duration": 0.75,
          "durationTicks": 960,
          "midi": 21,
          "name": "A0",
          "ticks": 381360,
          "time": 269.5691968708333,
          "velocity": 0.7559055118110236
        },
        {
          "duration": 0.75,
          "durationTicks": 960,
          "midi": 33,
          "name": "A1",
          "ticks": 381360,
          "time": 269.5691968708333,
          "velocity": 0.7559055118110236
        },
        {
          "duration": 0.75,
          "durationTicks": 960,
          "midi": 21,
          "name": "A0",
          "ticks": 382320,
          "time": 270.3191968708333,
          "velocity": 0.6614173228346457
        },
        {
          "duration": 0.75,
          "durationTicks": 960,
          "midi": 33,
          "name": "A1",
          "ticks": 382320,
          "time": 270.3191968708333,
          "velocity": 0.6614173228346457
        },
        {
          "duration": 0.375,
          "durationTicks": 480,
          "midi": 21,
          "name": "A0",
          "ticks": 383280,
          "time": 271.0691968708333,
          "velocity": 0.6456692913385826
        },
        {
          "duration": 0.375,
          "durationTicks": 480,
          "midi": 33,
          "name": "A1",
          "ticks": 383280,
          "time": 271.0691968708333,
          "velocity": 0.6456692913385826
        },
        {
          "duration": 0.1875,
          "durationTicks": 240,
          "midi": 31,
          "name": "G1",
          "ticks": 383760,
          "time": 271.4441968708333,
          "velocity": 0.7322834645669292
        },
        {
          "duration": 0.1875,
          "durationTicks": 240,
          "midi": 33,
          "name": "A1",
          "ticks": 383760,
          "time": 271.4441968708333,
          "velocity": 0.7322834645669292
        },
        {
          "duration": 0.1875,
          "durationTicks": 240,
          "midi": 28,
          "name": "E1",
          "ticks": 384000,
          "time": 271.6316968708333,
          "velocity": 0.5590551181102362
        },
        {
          "duration": 0.75,
          "durationTicks": 960,
          "midi": 21,
          "name": "A0",
          "ticks": 384240,
          "time": 271.8191968708333,
          "velocity": 0.6692913385826772
        },
        {
          "duration": 0.75,
          "durationTicks": 960,
          "midi": 21,
          "name": "A0",
          "ticks": 385200,
          "time": 272.5691968708333,
          "velocity": 0.7322834645669292
        },
        {
          "duration": 0.75,
          "durationTicks": 960,
          "midi": 26,
          "name": "D1",
          "ticks": 385200,
          "time": 272.5691968708333,
          "velocity": 0.7322834645669292
        },
        {
          "duration": 0.75,
          "durationTicks": 960,
          "midi": 33,
          "name": "A1",
          "ticks": 385200,
          "time": 272.5691968708333,
          "velocity": 0.7322834645669292
        },
        {
          "duration": 0.75,
          "durationTicks": 960,
          "midi": 21,
          "name": "A0",
          "ticks": 386160,
          "time": 273.3191968708333,
          "velocity": 0.6535433070866141
        },
        {
          "duration": 0.75,
          "durationTicks": 960,
          "midi": 26,
          "name": "D1",
          "ticks": 386160,
          "time": 273.3191968708333,
          "velocity": 0.6535433070866141
        },
        {
          "duration": 0.75,
          "durationTicks": 960,
          "midi": 33,
          "name": "A1",
          "ticks": 386160,
          "time": 273.3191968708333,
          "velocity": 0.6535433070866141
        },
        {
          "duration": 0.75,
          "durationTicks": 960,
          "midi": 21,
          "name": "A0",
          "ticks": 387120,
          "time": 274.0691968708333,
          "velocity": 0.6456692913385826
        },
        {
          "duration": 0.75,
          "durationTicks": 960,
          "midi": 26,
          "name": "D1",
          "ticks": 387120,
          "time": 274.0691968708333,
          "velocity": 0.6456692913385826
        },
        {
          "duration": 0.75,
          "durationTicks": 960,
          "midi": 33,
          "name": "A1",
          "ticks": 387120,
          "time": 274.0691968708333,
          "velocity": 0.6456692913385826
        },
        {
          "duration": 3,
          "durationTicks": 3840,
          "midi": 21,
          "name": "A0",
          "ticks": 391920,
          "time": 277.8191968708333,
          "velocity": 0.7322834645669292
        },
        {
          "duration": 3,
          "durationTicks": 3840,
          "midi": 33,
          "name": "A1",
          "ticks": 391920,
          "time": 277.8191968708333,
          "velocity": 0.7322834645669292
        }
      ],
      "endOfTrackTicks": 395761
    }
  ]
}
