{
  "header": {
    "keySignatures": [
      {
        "key": "G",
        "scale": "major",
        "ticks": 0
      },
      {
        "key": "E",
        "scale": "major",
        "ticks": 17280
      },
      {
        "key": "G",
        "scale": "major",
        "ticks": 71040
      },
      {
        "key": "E",
        "scale": "major",
        "ticks": 109440
      },
      {
        "key": "G",
        "scale": "major",
        "ticks": 0
      },
      {
        "key": "E",
        "scale": "major",
        "ticks": 17280
      },
      {
        "key": "G",
        "scale": "major",
        "ticks": 71040
      },
      {
        "key": "E",
        "scale": "major",
        "ticks": 109440
      }
    ],
    "meta": [],
    "name": "Change",
    "ppq": 480,
    "tempos": [
      {
        "bpm": 165.000165000165,
        "ticks": 0
      }
    ],
    "timeSignatures": [
      {
        "ticks": 0,
        "timeSignature": [
          4,
          4
        ],
        "measures": 0
      }
    ]
  },
  "tracks": [
    {
      "channel": 0,
      "controlChanges": {
        "7": [
          {
            "number": 7,
            "ticks": 0,
            "time": 0,
            "value": 0.5511811023622047
          },
          {
            "number": 7,
            "ticks": 71030,
            "time": 53.81055225,
            "value": 0.7874015748031497
          },
          {
            "number": 7,
            "ticks": 105590,
            "time": 79.99234425,
            "value": 0.5511811023622047
          }
        ],
        "10": [
          {
            "number": 10,
            "ticks": 0,
            "time": 0,
            "value": 0.5039370078740157
          }
        ]
      },
      "pitchBends": [],
      "instrument": {
        "family": "piano",
        "number": 0,
        "name": "acoustic grand piano"
      },
      "name": "Piano",
      "notes": [
        {
          "duration": 0.545454,
          "durationTicks": 720,
          "midi": 86,
          "name": "D6",
          "ticks": 0,
          "time": 0,
          "velocity": 0.6299212598425197
        },
        {
          "duration": 0.1636362,
          "durationTicks": 216,
          "midi": 79,
          "name": "G5",
          "ticks": 720,
          "time": 0.545454,
          "velocity": 0.6299212598425197
        },
        {
          "duration": 0.16363620000000012,
          "durationTicks": 216,
          "midi": 81,
          "name": "A5",
          "ticks": 960,
          "time": 0.727272,
          "velocity": 0.6299212598425197
        },
        {
          "duration": 0.16363620000000012,
          "durationTicks": 216,
          "midi": 79,
          "name": "G5",
          "ticks": 1200,
          "time": 0.9090900000000001,
          "velocity": 0.6299212598425197
        },
        {
          "duration": 0.16363620000000023,
          "durationTicks": 216,
          "midi": 81,
          "name": "A5",
          "ticks": 1440,
          "time": 1.090908,
          "velocity": 0.6299212598425197
        },
        {
          "duration": 0.1636362,
          "durationTicks": 216,
          "midi": 79,
          "name": "G5",
          "ticks": 1680,
          "time": 1.272726,
          "velocity": 0.6299212598425197
        },
        {
          "duration": 0.1636362,
          "durationTicks": 216,
          "midi": 81,
          "name": "A5",
          "ticks": 1920,
          "time": 1.454544,
          "velocity": 0.6299212598425197
        },
        {
          "duration": 0.1636362,
          "durationTicks": 216,
          "midi": 79,
          "name": "G5",
          "ticks": 2160,
          "time": 1.636362,
          "velocity": 0.6299212598425197
        },
        {
          "duration": 0.1636362,
          "durationTicks": 216,
          "midi": 81,
          "name": "A5",
          "ticks": 2400,
          "time": 1.8181800000000001,
          "velocity": 0.6299212598425197
        },
        {
          "duration": 0.1636362,
          "durationTicks": 216,
          "midi": 83,
          "name": "B5",
          "ticks": 2640,
          "time": 1.9999980000000002,
          "velocity": 0.6299212598425197
        },
        {
          "duration": 0.1636362,
          "durationTicks": 216,
          "midi": 81,
          "name": "A5",
          "ticks": 2880,
          "time": 2.181816,
          "velocity": 0.6299212598425197
        },
        {
          "duration": 0.1636362,
          "durationTicks": 216,
          "midi": 79,
          "name": "G5",
          "ticks": 3120,
          "time": 2.3636340000000002,
          "velocity": 0.6299212598425197
        },
        {
          "duration": 0.1636362,
          "durationTicks": 216,
          "midi": 74,
          "name": "D5",
          "ticks": 3360,
          "time": 2.545452,
          "velocity": 0.6299212598425197
        },
        {
          "duration": 0.1636362,
          "durationTicks": 216,
          "midi": 74,
          "name": "D5",
          "ticks": 3600,
          "time": 2.7272700000000003,
          "velocity": 0.6299212598425197
        },
        {
          "duration": 0.16363619999999957,
          "durationTicks": 216,
          "midi": 86,
          "name": "D6",
          "ticks": 3840,
          "time": 2.909088,
          "velocity": 0.6299212598425197
        },
        {
          "duration": 0.1636362,
          "durationTicks": 216,
          "midi": 84,
          "name": "C6",
          "ticks": 4080,
          "time": 3.090906,
          "velocity": 0.6299212598425197
        },
        {
          "duration": 0.16363619999999957,
          "durationTicks": 216,
          "midi": 84,
          "name": "C6",
          "ticks": 4320,
          "time": 3.272724,
          "velocity": 0.6299212598425197
        },
        {
          "duration": 0.1636362,
          "durationTicks": 216,
          "midi": 83,
          "name": "B5",
          "ticks": 4560,
          "time": 3.454542,
          "velocity": 0.6299212598425197
        },
        {
          "duration": 0.16363619999999957,
          "durationTicks": 216,
          "midi": 83,
          "name": "B5",
          "ticks": 4800,
          "time": 3.6363600000000003,
          "velocity": 0.6299212598425197
        },
        {
          "duration": 0.1636362,
          "durationTicks": 216,
          "midi": 81,
          "name": "A5",
          "ticks": 5040,
          "time": 3.818178,
          "velocity": 0.6299212598425197
        },
        {
          "duration": 0.1636362,
          "durationTicks": 216,
          "midi": 81,
          "name": "A5",
          "ticks": 5280,
          "time": 3.9999960000000003,
          "velocity": 0.6299212598425197
        },
        {
          "duration": 0.1636362,
          "durationTicks": 216,
          "midi": 79,
          "name": "G5",
          "ticks": 5520,
          "time": 4.181814,
          "velocity": 0.6299212598425197
        },
        {
          "duration": 0.1636362,
          "durationTicks": 216,
          "midi": 81,
          "name": "A5",
          "ticks": 5760,
          "time": 4.363632,
          "velocity": 0.6299212598425197
        },
        {
          "duration": 0.1636362,
          "durationTicks": 216,
          "midi": 79,
          "name": "G5",
          "ticks": 6000,
          "time": 4.54545,
          "velocity": 0.6299212598425197
        },
        {
          "duration": 0.16363619999999912,
          "durationTicks": 216,
          "midi": 81,
          "name": "A5",
          "ticks": 6240,
          "time": 4.7272680000000005,
          "velocity": 0.6299212598425197
        },
        {
          "duration": 0.1636362,
          "durationTicks": 216,
          "midi": 79,
          "name": "G5",
          "ticks": 6480,
          "time": 4.909086,
          "velocity": 0.6299212598425197
        },
        {
          "duration": 0.1636362,
          "durationTicks": 216,
          "midi": 81,
          "name": "A5",
          "ticks": 6720,
          "time": 5.090904,
          "velocity": 0.6299212598425197
        },
        {
          "duration": 0.1636362,
          "durationTicks": 216,
          "midi": 83,
          "name": "B5",
          "ticks": 6960,
          "time": 5.272722,
          "velocity": 0.6299212598425197
        },
        {
          "duration": 0.3272724,
          "durationTicks": 432,
          "midi": 83,
          "name": "B5",
          "ticks": 7200,
          "time": 5.454540000000001,
          "velocity": 0.6299212598425197
        },
        {
          "duration": 0.5454540000000003,
          "durationTicks": 720,
          "midi": 86,
          "name": "D6",
          "ticks": 7680,
          "time": 5.818176,
          "velocity": 0.6299212598425197
        },
        {
          "duration": 0.16363619999999912,
          "durationTicks": 216,
          "midi": 79,
          "name": "G5",
          "ticks": 8400,
          "time": 6.363630000000001,
          "velocity": 0.6299212598425197
        },
        {
          "duration": 0.1636362,
          "durationTicks": 216,
          "midi": 81,
          "name": "A5",
          "ticks": 8640,
          "time": 6.545448,
          "velocity": 0.6299212598425197
        },
        {
          "duration": 0.1636362,
          "durationTicks": 216,
          "midi": 79,
          "name": "G5",
          "ticks": 8880,
          "time": 6.727266,
          "velocity": 0.6299212598425197
        },
        {
          "duration": 0.1636362,
          "durationTicks": 216,
          "midi": 81,
          "name": "A5",
          "ticks": 9120,
          "time": 6.909084,
          "velocity": 0.6299212598425197
        },
        {
          "duration": 0.16363619999999912,
          "durationTicks": 216,
          "midi": 79,
          "name": "G5",
          "ticks": 9360,
          "time": 7.090902000000001,
          "velocity": 0.6299212598425197
        },
        {
          "duration": 0.16363619999999912,
          "durationTicks": 216,
          "midi": 81,
          "name": "A5",
          "ticks": 9600,
          "time": 7.2727200000000005,
          "velocity": 0.6299212598425197
        },
        {
          "duration": 0.1636362,
          "durationTicks": 216,
          "midi": 79,
          "name": "G5",
          "ticks": 9840,
          "time": 7.454538,
          "velocity": 0.6299212598425197
        },
        {
          "duration": 0.1636362,
          "durationTicks": 216,
          "midi": 81,
          "name": "A5",
          "ticks": 10080,
          "time": 7.636356,
          "velocity": 0.6299212598425197
        },
        {
          "duration": 0.1636362,
          "durationTicks": 216,
          "midi": 79,
          "name": "G5",
          "ticks": 10320,
          "time": 7.818174,
          "velocity": 0.6299212598425197
        },
        {
          "duration": 0.16363619999999912,
          "durationTicks": 216,
          "midi": 81,
          "name": "A5",
          "ticks": 10560,
          "time": 7.999992000000001,
          "velocity": 0.6299212598425197
        },
        {
          "duration": 0.16363619999999912,
          "durationTicks": 216,
          "midi": 83,
          "name": "B5",
          "ticks": 10800,
          "time": 8.18181,
          "velocity": 0.6299212598425197
        },
        {
          "duration": 0.16363619999999912,
          "durationTicks": 216,
          "midi": 83,
          "name": "B5",
          "ticks": 11040,
          "time": 8.363628,
          "velocity": 0.6299212598425197
        },
        {
          "duration": 0.16363619999999912,
          "durationTicks": 216,
          "midi": 74,
          "name": "D5",
          "ticks": 11280,
          "time": 8.545446,
          "velocity": 0.6299212598425197
        },
        {
          "duration": 0.1636362000000009,
          "durationTicks": 216,
          "midi": 86,
          "name": "D6",
          "ticks": 11520,
          "time": 8.727264,
          "velocity": 0.6299212598425197
        },
        {
          "duration": 0.1636362000000009,
          "durationTicks": 216,
          "midi": 84,
          "name": "C6",
          "ticks": 11760,
          "time": 8.909082,
          "velocity": 0.6299212598425197
        },
        {
          "duration": 0.1636362000000009,
          "durationTicks": 216,
          "midi": 84,
          "name": "C6",
          "ticks": 12000,
          "time": 9.0909,
          "velocity": 0.6299212598425197
        },
        {
          "duration": 0.16363619999999912,
          "durationTicks": 216,
          "midi": 83,
          "name": "B5",
          "ticks": 12240,
          "time": 9.272718000000001,
          "velocity": 0.6299212598425197
        },
        {
          "duration": 0.16363619999999912,
          "durationTicks": 216,
          "midi": 83,
          "name": "B5",
          "ticks": 12480,
          "time": 9.454536000000001,
          "velocity": 0.6299212598425197
        },
        {
          "duration": 0.16363619999999912,
          "durationTicks": 216,
          "midi": 81,
          "name": "A5",
          "ticks": 12720,
          "time": 9.636354,
          "velocity": 0.6299212598425197
        },
        {
          "duration": 0.16363619999999912,
          "durationTicks": 216,
          "midi": 81,
          "name": "A5",
          "ticks": 12960,
          "time": 9.818172,
          "velocity": 0.6299212598425197
        },
        {
          "duration": 0.16363619999999912,
          "durationTicks": 216,
          "midi": 79,
          "name": "G5",
          "ticks": 13200,
          "time": 9.99999,
          "velocity": 0.6299212598425197
        },
        {
          "duration": 0.5454539999999994,
          "durationTicks": 720,
          "midi": 81,
          "name": "A5",
          "ticks": 13440,
          "time": 10.181808,
          "velocity": 0.6299212598425197
        },
        {
          "duration": 0.1636362000000009,
          "durationTicks": 216,
          "midi": 79,
          "name": "G5",
          "ticks": 14160,
          "time": 10.727262,
          "velocity": 0.6299212598425197
        },
        {
          "duration": 0.32727239999999824,
          "durationTicks": 432,
          "midi": 78,
          "name": "F#5",
          "ticks": 14400,
          "time": 10.909080000000001,
          "velocity": 0.6299212598425197
        },
        {
          "duration": 0.16363619999999912,
          "durationTicks": 216,
          "midi": 79,
          "name": "G5",
          "ticks": 14880,
          "time": 11.272716,
          "velocity": 0.6299212598425197
        },
        {
          "duration": 0.3454542000000007,
          "durationTicks": 456,
          "midi": 78,
          "name": "F#5",
          "ticks": 15120,
          "time": 11.454534,
          "velocity": 0.6299212598425197
        },
        {
          "duration": 0.1636362000000009,
          "durationTicks": 216,
          "midi": 79,
          "name": "G5",
          "ticks": 15600,
          "time": 11.81817,
          "velocity": 0.6299212598425197
        },
        {
          "duration": 0.3272724,
          "durationTicks": 432,
          "midi": 79,
          "name": "G5",
          "ticks": 15840,
          "time": 11.999988,
          "velocity": 0.6299212598425197
        },
        {
          "duration": 0.3272724,
          "durationTicks": 432,
          "midi": 73,
          "name": "C#5",
          "ticks": 17280,
          "time": 13.090896,
          "velocity": 0.6299212598425197
        },
        {
          "duration": 0.3272724,
          "durationTicks": 432,
          "midi": 64,
          "name": "E4",
          "ticks": 17280,
          "time": 13.090896,
          "velocity": 0.6299212598425197
        },
        {
          "duration": 0.1636362000000009,
          "durationTicks": 216,
          "midi": 73,
          "name": "C#5",
          "ticks": 17760,
          "time": 13.454532,
          "velocity": 0.6299212598425197
        },
        {
          "duration": 0.1636362000000009,
          "durationTicks": 216,
          "midi": 64,
          "name": "E4",
          "ticks": 17760,
          "time": 13.454532,
          "velocity": 0.6299212598425197
        },
        {
          "duration": 0.1636362000000009,
          "durationTicks": 216,
          "midi": 71,
          "name": "B4",
          "ticks": 18000,
          "time": 13.63635,
          "velocity": 0.6299212598425197
        },
        {
          "duration": 0.3272724,
          "durationTicks": 432,
          "midi": 73,
          "name": "C#5",
          "ticks": 18240,
          "time": 13.818168,
          "velocity": 0.6299212598425197
        },
        {
          "duration": 0.3272724,
          "durationTicks": 432,
          "midi": 64,
          "name": "E4",
          "ticks": 18240,
          "time": 13.818168,
          "velocity": 0.6299212598425197
        },
        {
          "duration": 0.32727239999999824,
          "durationTicks": 432,
          "midi": 80,
          "name": "G#5",
          "ticks": 18720,
          "time": 14.181804000000001,
          "velocity": 0.6299212598425197
        },
        {
          "duration": 0.32727239999999824,
          "durationTicks": 432,
          "midi": 71,
          "name": "B4",
          "ticks": 18720,
          "time": 14.181804000000001,
          "velocity": 0.6299212598425197
        },
        {
          "duration": 0.1636362000000009,
          "durationTicks": 216,
          "midi": 80,
          "name": "G#5",
          "ticks": 19200,
          "time": 14.545440000000001,
          "velocity": 0.6299212598425197
        },
        {
          "duration": 0.1636362000000009,
          "durationTicks": 216,
          "midi": 71,
          "name": "B4",
          "ticks": 19200,
          "time": 14.545440000000001,
          "velocity": 0.6299212598425197
        },
        {
          "duration": 0.1636362000000009,
          "durationTicks": 216,
          "midi": 78,
          "name": "F#5",
          "ticks": 19440,
          "time": 14.727258,
          "velocity": 0.6299212598425197
        },
        {
          "duration": 0.1636362000000009,
          "durationTicks": 216,
          "midi": 71,
          "name": "B4",
          "ticks": 19440,
          "time": 14.727258,
          "velocity": 0.6299212598425197
        },
        {
          "duration": 0.1636362000000009,
          "durationTicks": 216,
          "midi": 78,
          "name": "F#5",
          "ticks": 19680,
          "time": 14.909076,
          "velocity": 0.6299212598425197
        },
        {
          "duration": 0.1636362000000009,
          "durationTicks": 216,
          "midi": 71,
          "name": "B4",
          "ticks": 19680,
          "time": 14.909076,
          "velocity": 0.6299212598425197
        },
        {
          "duration": 0.3454542000000007,
          "durationTicks": 456,
          "midi": 76,
          "name": "E5",
          "ticks": 19920,
          "time": 15.090894,
          "velocity": 0.6299212598425197
        },
        {
          "duration": 0.3454542000000007,
          "durationTicks": 456,
          "midi": 71,
          "name": "B4",
          "ticks": 19920,
          "time": 15.090894,
          "velocity": 0.6299212598425197
        },
        {
          "duration": 0.1636362000000009,
          "durationTicks": 216,
          "midi": 80,
          "name": "G#5",
          "ticks": 20400,
          "time": 15.45453,
          "velocity": 0.6299212598425197
        },
        {
          "duration": 0.1636362000000009,
          "durationTicks": 216,
          "midi": 71,
          "name": "B4",
          "ticks": 20400,
          "time": 15.45453,
          "velocity": 0.6299212598425197
        },
        {
          "duration": 0.1636362000000009,
          "durationTicks": 216,
          "midi": 78,
          "name": "F#5",
          "ticks": 20640,
          "time": 15.636348,
          "velocity": 0.6299212598425197
        },
        {
          "duration": 0.1636362000000009,
          "durationTicks": 216,
          "midi": 71,
          "name": "B4",
          "ticks": 20640,
          "time": 15.636348,
          "velocity": 0.6299212598425197
        },
        {
          "duration": 0.1636362000000009,
          "durationTicks": 216,
          "midi": 76,
          "name": "E5",
          "ticks": 20880,
          "time": 15.818166000000002,
          "velocity": 0.6299212598425197
        },
        {
          "duration": 0.1636362000000009,
          "durationTicks": 216,
          "midi": 71,
          "name": "B4",
          "ticks": 20880,
          "time": 15.818166000000002,
          "velocity": 0.6299212598425197
        },
        {
          "duration": 0.16363619999999912,
          "durationTicks": 216,
          "midi": 80,
          "name": "G#5",
          "ticks": 21120,
          "time": 15.999984000000001,
          "velocity": 0.6299212598425197
        },
        {
          "duration": 0.16363619999999912,
          "durationTicks": 216,
          "midi": 71,
          "name": "B4",
          "ticks": 21120,
          "time": 15.999984000000001,
          "velocity": 0.6299212598425197
        },
        {
          "duration": 0.16363619999999912,
          "durationTicks": 216,
          "midi": 78,
          "name": "F#5",
          "ticks": 21360,
          "time": 16.181802,
          "velocity": 0.6299212598425197
        },
        {
          "duration": 0.16363619999999912,
          "durationTicks": 216,
          "midi": 71,
          "name": "B4",
          "ticks": 21360,
          "time": 16.181802,
          "velocity": 0.6299212598425197
        },
        {
          "duration": 0.16363619999999912,
          "durationTicks": 216,
          "midi": 76,
          "name": "E5",
          "ticks": 21600,
          "time": 16.36362,
          "velocity": 0.6299212598425197
        },
        {
          "duration": 0.16363619999999912,
          "durationTicks": 216,
          "midi": 71,
          "name": "B4",
          "ticks": 21600,
          "time": 16.36362,
          "velocity": 0.6299212598425197
        },
        {
          "duration": 0.3454542000000025,
          "durationTicks": 456,
          "midi": 76,
          "name": "E5",
          "ticks": 21840,
          "time": 16.545438,
          "velocity": 0.6299212598425197
        },
        {
          "duration": 0.3454542000000025,
          "durationTicks": 456,
          "midi": 71,
          "name": "B4",
          "ticks": 21840,
          "time": 16.545438,
          "velocity": 0.6299212598425197
        },
        {
          "duration": 0.16363620000000267,
          "durationTicks": 216,
          "midi": 80,
          "name": "G#5",
          "ticks": 22320,
          "time": 16.909074,
          "velocity": 0.6299212598425197
        },
        {
          "duration": 0.16363620000000267,
          "durationTicks": 216,
          "midi": 71,
          "name": "B4",
          "ticks": 22320,
          "time": 16.909074,
          "velocity": 0.6299212598425197
        },
        {
          "duration": 0.16363620000000267,
          "durationTicks": 216,
          "midi": 78,
          "name": "F#5",
          "ticks": 22560,
          "time": 17.090892,
          "velocity": 0.6299212598425197
        },
        {
          "duration": 0.16363620000000267,
          "durationTicks": 216,
          "midi": 71,
          "name": "B4",
          "ticks": 22560,
          "time": 17.090892,
          "velocity": 0.6299212598425197
        },
        {
          "duration": 0.16363620000000267,
          "durationTicks": 216,
          "midi": 76,
          "name": "E5",
          "ticks": 22800,
          "time": 17.27271,
          "velocity": 0.6299212598425197
        },
        {
          "duration": 0.16363620000000267,
          "durationTicks": 216,
          "midi": 71,
          "name": "B4",
          "ticks": 22800,
          "time": 17.27271,
          "velocity": 0.6299212598425197
        },
        {
          "duration": 0.3272724000000018,
          "durationTicks": 432,
          "midi": 78,
          "name": "F#5",
          "ticks": 23040,
          "time": 17.454528,
          "velocity": 0.6299212598425197
        },
        {
          "duration": 0.3272724000000018,
          "durationTicks": 432,
          "midi": 71,
          "name": "B4",
          "ticks": 23040,
          "time": 17.454528,
          "velocity": 0.6299212598425197
        },
        {
          "duration": 0.16363620000000267,
          "durationTicks": 216,
          "midi": 78,
          "name": "F#5",
          "ticks": 23520,
          "time": 17.818164,
          "velocity": 0.6299212598425197
        },
        {
          "duration": 0.16363620000000267,
          "durationTicks": 216,
          "midi": 71,
          "name": "B4",
          "ticks": 23520,
          "time": 17.818164,
          "velocity": 0.6299212598425197
        },
        {
          "duration": 0.16363620000000267,
          "durationTicks": 216,
          "midi": 76,
          "name": "E5",
          "ticks": 23760,
          "time": 17.999982,
          "velocity": 0.6299212598425197
        },
        {
          "duration": 0.16363620000000267,
          "durationTicks": 216,
          "midi": 78,
          "name": "F#5",
          "ticks": 24000,
          "time": 18.1818,
          "velocity": 0.6299212598425197
        },
        {
          "duration": 0.16363620000000267,
          "durationTicks": 216,
          "midi": 71,
          "name": "B4",
          "ticks": 24000,
          "time": 18.1818,
          "velocity": 0.6299212598425197
        },
        {
          "duration": 0.16363619999999912,
          "durationTicks": 216,
          "midi": 80,
          "name": "G#5",
          "ticks": 24240,
          "time": 18.363618000000002,
          "velocity": 0.6299212598425197
        },
        {
          "duration": 0.16363619999999912,
          "durationTicks": 216,
          "midi": 78,
          "name": "F#5",
          "ticks": 24480,
          "time": 18.545436000000002,
          "velocity": 0.6299212598425197
        },
        {
          "duration": 0.16363619999999912,
          "durationTicks": 216,
          "midi": 71,
          "name": "B4",
          "ticks": 24480,
          "time": 18.545436000000002,
          "velocity": 0.6299212598425197
        },
        {
          "duration": 0.34545419999999893,
          "durationTicks": 456,
          "midi": 76,
          "name": "E5",
          "ticks": 24720,
          "time": 18.727254000000002,
          "velocity": 0.6299212598425197
        },
        {
          "duration": 0.16363619999999912,
          "durationTicks": 216,
          "midi": 73,
          "name": "C#5",
          "ticks": 25200,
          "time": 19.09089,
          "velocity": 0.6299212598425197
        },
        {
          "duration": 0.16363619999999912,
          "durationTicks": 216,
          "midi": 76,
          "name": "E5",
          "ticks": 25440,
          "time": 19.272708,
          "velocity": 0.6299212598425197
        },
        {
          "duration": 0.34545419999999893,
          "durationTicks": 456,
          "midi": 80,
          "name": "G#5",
          "ticks": 25680,
          "time": 19.454526,
          "velocity": 0.6299212598425197
        },
        {
          "duration": 0.16363620000000267,
          "durationTicks": 216,
          "midi": 73,
          "name": "C#5",
          "ticks": 26160,
          "time": 19.818162,
          "velocity": 0.6299212598425197
        },
        {
          "duration": 0.16363620000000267,
          "durationTicks": 216,
          "midi": 76,
          "name": "E5",
          "ticks": 26400,
          "time": 19.99998,
          "velocity": 0.6299212598425197
        },
        {
          "duration": 0.3454542000000025,
          "durationTicks": 456,
          "midi": 80,
          "name": "G#5",
          "ticks": 26640,
          "time": 20.181798,
          "velocity": 0.6299212598425197
        },
        {
          "duration": 0.16363620000000267,
          "durationTicks": 216,
          "midi": 73,
          "name": "C#5",
          "ticks": 27120,
          "time": 20.545434,
          "velocity": 0.6299212598425197
        },
        {
          "duration": 0.16363620000000267,
          "durationTicks": 216,
          "midi": 76,
          "name": "E5",
          "ticks": 27360,
          "time": 20.727252,
          "velocity": 0.6299212598425197
        },
        {
          "duration": 0.3454542000000025,
          "durationTicks": 456,
          "midi": 80,
          "name": "G#5",
          "ticks": 27600,
          "time": 20.90907,
          "velocity": 0.6299212598425197
        },
        {
          "duration": 0.3454542000000025,
          "durationTicks": 456,
          "midi": 76,
          "name": "E5",
          "ticks": 28080,
          "time": 21.272706,
          "velocity": 0.6299212598425197
        },
        {
          "duration": 0.16363619999999912,
          "durationTicks": 216,
          "midi": 76,
          "name": "E5",
          "ticks": 28560,
          "time": 21.636342000000003,
          "velocity": 0.6299212598425197
        },
        {
          "duration": 0.16363619999999912,
          "durationTicks": 216,
          "midi": 78,
          "name": "F#5",
          "ticks": 28800,
          "time": 21.818160000000002,
          "velocity": 0.6299212598425197
        },
        {
          "duration": 0.16363619999999912,
          "durationTicks": 216,
          "midi": 76,
          "name": "E5",
          "ticks": 29040,
          "time": 21.999978000000002,
          "velocity": 0.6299212598425197
        },
        {
          "duration": 0.16363619999999912,
          "durationTicks": 216,
          "midi": 78,
          "name": "F#5",
          "ticks": 29280,
          "time": 22.181796000000002,
          "velocity": 0.6299212598425197
        },
        {
          "duration": 0.16363619999999912,
          "durationTicks": 216,
          "midi": 76,
          "name": "E5",
          "ticks": 29520,
          "time": 22.363614000000002,
          "velocity": 0.6299212598425197
        },
        {
          "duration": 0.16363619999999912,
          "durationTicks": 216,
          "midi": 78,
          "name": "F#5",
          "ticks": 29760,
          "time": 22.545432,
          "velocity": 0.6299212598425197
        },
        {
          "duration": 0.16363619999999912,
          "durationTicks": 216,
          "midi": 76,
          "name": "E5",
          "ticks": 30000,
          "time": 22.72725,
          "velocity": 0.6299212598425197
        },
        {
          "duration": 0.16363619999999912,
          "durationTicks": 216,
          "midi": 78,
          "name": "F#5",
          "ticks": 30240,
          "time": 22.909068,
          "velocity": 0.6299212598425197
        },
        {
          "duration": 0.16363619999999912,
          "durationTicks": 216,
          "midi": 76,
          "name": "E5",
          "ticks": 30480,
          "time": 23.090886,
          "velocity": 0.6299212598425197
        },
        {
          "duration": 0.16363620000000267,
          "durationTicks": 216,
          "midi": 78,
          "name": "F#5",
          "ticks": 30720,
          "time": 23.272704,
          "velocity": 0.6299212598425197
        },
        {
          "duration": 0.16363620000000267,
          "durationTicks": 216,
          "midi": 78,
          "name": "F#5",
          "ticks": 30960,
          "time": 23.454522,
          "velocity": 0.6299212598425197
        },
        {
          "duration": 0.16363620000000267,
          "durationTicks": 216,
          "midi": 78,
          "name": "F#5",
          "ticks": 31200,
          "time": 23.63634,
          "velocity": 0.6299212598425197
        },
        {
          "duration": 0.16363620000000267,
          "durationTicks": 216,
          "midi": 80,
          "name": "G#5",
          "ticks": 31440,
          "time": 23.818158,
          "velocity": 0.6299212598425197
        },
        {
          "duration": 0.16363620000000267,
          "durationTicks": 216,
          "midi": 78,
          "name": "F#5",
          "ticks": 31680,
          "time": 23.999976,
          "velocity": 0.6299212598425197
        },
        {
          "duration": 0.16363620000000267,
          "durationTicks": 216,
          "midi": 76,
          "name": "E5",
          "ticks": 31920,
          "time": 24.181794,
          "velocity": 0.6299212598425197
        },
        {
          "duration": 0.3272724000000018,
          "durationTicks": 432,
          "midi": 71,
          "name": "B4",
          "ticks": 32160,
          "time": 24.363612,
          "velocity": 0.6299212598425197
        },
        {
          "duration": 0.16363620000000267,
          "durationTicks": 216,
          "midi": 73,
          "name": "C#5",
          "ticks": 32880,
          "time": 24.909066,
          "velocity": 0.6299212598425197
        },
        {
          "duration": 0.16363619999999912,
          "durationTicks": 216,
          "midi": 76,
          "name": "E5",
          "ticks": 33120,
          "time": 25.090884000000003,
          "velocity": 0.6299212598425197
        },
        {
          "duration": 0.34545419999999893,
          "durationTicks": 456,
          "midi": 80,
          "name": "G#5",
          "ticks": 33360,
          "time": 25.272702000000002,
          "velocity": 0.6299212598425197
        },
        {
          "duration": 0.16363619999999912,
          "durationTicks": 216,
          "midi": 73,
          "name": "C#5",
          "ticks": 33840,
          "time": 25.636338000000002,
          "velocity": 0.6299212598425197
        },
        {
          "duration": 0.16363619999999912,
          "durationTicks": 216,
          "midi": 76,
          "name": "E5",
          "ticks": 34080,
          "time": 25.818156000000002,
          "velocity": 0.6299212598425197
        },
        {
          "duration": 0.34545419999999893,
          "durationTicks": 456,
          "midi": 80,
          "name": "G#5",
          "ticks": 34320,
          "time": 25.999974,
          "velocity": 0.6299212598425197
        },
        {
          "duration": 0.16363619999999912,
          "durationTicks": 216,
          "midi": 73,
          "name": "C#5",
          "ticks": 34800,
          "time": 26.36361,
          "velocity": 0.6299212598425197
        },
        {
          "duration": 0.16363620000000267,
          "durationTicks": 216,
          "midi": 76,
          "name": "E5",
          "ticks": 35040,
          "time": 26.545428,
          "velocity": 0.6299212598425197
        },
        {
          "duration": 0.3454542000000025,
          "durationTicks": 456,
          "midi": 80,
          "name": "G#5",
          "ticks": 35280,
          "time": 26.727246,
          "velocity": 0.6299212598425197
        },
        {
          "duration": 0.3454542000000025,
          "durationTicks": 456,
          "midi": 76,
          "name": "E5",
          "ticks": 35760,
          "time": 27.090882,
          "velocity": 0.6299212598425197
        },
        {
          "duration": 0.16363620000000267,
          "durationTicks": 216,
          "midi": 76,
          "name": "E5",
          "ticks": 36240,
          "time": 27.454518,
          "velocity": 0.6299212598425197
        },
        {
          "duration": 0.16363620000000267,
          "durationTicks": 216,
          "midi": 78,
          "name": "F#5",
          "ticks": 36480,
          "time": 27.636336,
          "velocity": 0.6299212598425197
        },
        {
          "duration": 0.3454542000000025,
          "durationTicks": 456,
          "midi": 76,
          "name": "E5",
          "ticks": 36720,
          "time": 27.818154,
          "velocity": 0.6299212598425197
        },
        {
          "duration": 0.08181809999999956,
          "durationTicks": 108,
          "midi": 76,
          "name": "E5",
          "ticks": 37200,
          "time": 28.18179,
          "velocity": 0.6299212598425197
        },
        {
          "duration": 0.08181809999999601,
          "durationTicks": 108,
          "midi": 76,
          "name": "E5",
          "ticks": 37320,
          "time": 28.272699000000003,
          "velocity": 0.6299212598425197
        },
        {
          "duration": 0.16363619999999912,
          "durationTicks": 216,
          "midi": 78,
          "name": "F#5",
          "ticks": 37440,
          "time": 28.363608000000003,
          "velocity": 0.6299212598425197
        },
        {
          "duration": 0.16363619999999912,
          "durationTicks": 216,
          "midi": 76,
          "name": "E5",
          "ticks": 37680,
          "time": 28.545426000000003,
          "velocity": 0.6299212598425197
        },
        {
          "duration": 0.16363619999999912,
          "durationTicks": 216,
          "midi": 78,
          "name": "F#5",
          "ticks": 37920,
          "time": 28.727244000000002,
          "velocity": 0.6299212598425197
        },
        {
          "duration": 0.5090904000000016,
          "durationTicks": 672,
          "midi": 76,
          "name": "E5",
          "ticks": 38160,
          "time": 28.909062000000002,
          "velocity": 0.6299212598425197
        },
        {
          "duration": 0.16363619999999912,
          "durationTicks": 216,
          "midi": 80,
          "name": "G#5",
          "ticks": 38880,
          "time": 29.454516,
          "velocity": 0.6299212598425197
        },
        {
          "duration": 0.16363619999999912,
          "durationTicks": 216,
          "midi": 76,
          "name": "E5",
          "ticks": 38880,
          "time": 29.454516,
          "velocity": 0.6299212598425197
        },
        {
          "duration": 0.16363619999999912,
          "durationTicks": 216,
          "midi": 71,
          "name": "B4",
          "ticks": 38880,
          "time": 29.454516,
          "velocity": 0.6299212598425197
        },
        {
          "duration": 0.3454542000000025,
          "durationTicks": 456,
          "midi": 78,
          "name": "F#5",
          "ticks": 39120,
          "time": 29.636334,
          "velocity": 0.6299212598425197
        },
        {
          "duration": 0.5090904000000016,
          "durationTicks": 672,
          "midi": 76,
          "name": "E5",
          "ticks": 39600,
          "time": 29.99997,
          "velocity": 0.6299212598425197
        },
        {
          "duration": 0.5090904000000016,
          "durationTicks": 672,
          "midi": 71,
          "name": "B4",
          "ticks": 39600,
          "time": 29.99997,
          "velocity": 0.6299212598425197
        },
        {
          "duration": 0.16363620000000267,
          "durationTicks": 216,
          "midi": 83,
          "name": "B5",
          "ticks": 40800,
          "time": 30.90906,
          "velocity": 0.6299212598425197
        },
        {
          "duration": 0.16363620000000267,
          "durationTicks": 216,
          "midi": 76,
          "name": "E5",
          "ticks": 40800,
          "time": 30.90906,
          "velocity": 0.6299212598425197
        },
        {
          "duration": 0.3454542000000025,
          "durationTicks": 456,
          "midi": 83,
          "name": "B5",
          "ticks": 41040,
          "time": 31.090878,
          "velocity": 0.6299212598425197
        },
        {
          "duration": 0.3454542000000025,
          "durationTicks": 456,
          "midi": 76,
          "name": "E5",
          "ticks": 41040,
          "time": 31.090878,
          "velocity": 0.6299212598425197
        },
        {
          "duration": 0.16363620000000267,
          "durationTicks": 216,
          "midi": 76,
          "name": "E5",
          "ticks": 41520,
          "time": 31.454514,
          "velocity": 0.6299212598425197
        },
        {
          "duration": 0.16363619999999912,
          "durationTicks": 216,
          "midi": 76,
          "name": "E5",
          "ticks": 41760,
          "time": 31.636332000000003,
          "velocity": 0.6299212598425197
        },
        {
          "duration": 0.16363619999999912,
          "durationTicks": 216,
          "midi": 76,
          "name": "E5",
          "ticks": 42000,
          "time": 31.818150000000003,
          "velocity": 0.6299212598425197
        },
        {
          "duration": 0.16363619999999912,
          "durationTicks": 216,
          "midi": 78,
          "name": "F#5",
          "ticks": 42240,
          "time": 31.999968000000003,
          "velocity": 0.6299212598425197
        },
        {
          "duration": 0.16363619999999912,
          "durationTicks": 216,
          "midi": 69,
          "name": "A4",
          "ticks": 42240,
          "time": 31.999968000000003,
          "velocity": 0.6299212598425197
        },
        {
          "duration": 0.16363619999999912,
          "durationTicks": 216,
          "midi": 76,
          "name": "E5",
          "ticks": 42480,
          "time": 32.181786,
          "velocity": 0.6299212598425197
        },
        {
          "duration": 0.16363619999999912,
          "durationTicks": 216,
          "midi": 78,
          "name": "F#5",
          "ticks": 42720,
          "time": 32.363604,
          "velocity": 0.6299212598425197
        },
        {
          "duration": 0.16363619999999912,
          "durationTicks": 216,
          "midi": 80,
          "name": "G#5",
          "ticks": 42960,
          "time": 32.545422,
          "velocity": 0.6299212598425197
        },
        {
          "duration": 0.16363619999999912,
          "durationTicks": 216,
          "midi": 78,
          "name": "F#5",
          "ticks": 43200,
          "time": 32.72724,
          "velocity": 0.6299212598425197
        },
        {
          "duration": 0.16363619999999912,
          "durationTicks": 216,
          "midi": 69,
          "name": "A4",
          "ticks": 43200,
          "time": 32.72724,
          "velocity": 0.6299212598425197
        },
        {
          "duration": 0.16363619999999912,
          "durationTicks": 216,
          "midi": 76,
          "name": "E5",
          "ticks": 43440,
          "time": 32.909058,
          "velocity": 0.6299212598425197
        },
        {
          "duration": 0.32727240000000535,
          "durationTicks": 432,
          "midi": 71,
          "name": "B4",
          "ticks": 43680,
          "time": 33.090876,
          "velocity": 0.6299212598425197
        },
        {
          "duration": 0.16363619999999912,
          "durationTicks": 216,
          "midi": 80,
          "name": "G#5",
          "ticks": 44400,
          "time": 33.63633,
          "velocity": 0.6299212598425197
        },
        {
          "duration": 0.16363619999999912,
          "durationTicks": 216,
          "midi": 71,
          "name": "B4",
          "ticks": 44400,
          "time": 33.63633,
          "velocity": 0.6299212598425197
        },
        {
          "duration": 0.16363619999999912,
          "durationTicks": 216,
          "midi": 80,
          "name": "G#5",
          "ticks": 44640,
          "time": 33.818148,
          "velocity": 0.6299212598425197
        },
        {
          "duration": 0.16363619999999912,
          "durationTicks": 216,
          "midi": 71,
          "name": "B4",
          "ticks": 44640,
          "time": 33.818148,
          "velocity": 0.6299212598425197
        },
        {
          "duration": 0.16363619999999912,
          "durationTicks": 216,
          "midi": 80,
          "name": "G#5",
          "ticks": 44880,
          "time": 33.999966,
          "velocity": 0.6299212598425197
        },
        {
          "duration": 0.16363619999999912,
          "durationTicks": 216,
          "midi": 71,
          "name": "B4",
          "ticks": 44880,
          "time": 33.999966,
          "velocity": 0.6299212598425197
        },
        {
          "duration": 0.16363619999999912,
          "durationTicks": 216,
          "midi": 80,
          "name": "G#5",
          "ticks": 45120,
          "time": 34.181784,
          "velocity": 0.6299212598425197
        },
        {
          "duration": 0.16363619999999912,
          "durationTicks": 216,
          "midi": 71,
          "name": "B4",
          "ticks": 45120,
          "time": 34.181784,
          "velocity": 0.6299212598425197
        },
        {
          "duration": 0.16363619999999912,
          "durationTicks": 216,
          "midi": 76,
          "name": "E5",
          "ticks": 45360,
          "time": 34.363602,
          "velocity": 0.6299212598425197
        },
        {
          "duration": 0.16363619999999912,
          "durationTicks": 216,
          "midi": 76,
          "name": "E5",
          "ticks": 45600,
          "time": 34.54542,
          "velocity": 0.6299212598425197
        },
        {
          "duration": 0.16363619999999912,
          "durationTicks": 216,
          "midi": 76,
          "name": "E5",
          "ticks": 45840,
          "time": 34.727238,
          "velocity": 0.6299212598425197
        },
        {
          "duration": 0.16363620000000623,
          "durationTicks": 216,
          "midi": 78,
          "name": "F#5",
          "ticks": 46080,
          "time": 34.909056,
          "velocity": 0.6299212598425197
        },
        {
          "duration": 0.16363620000000623,
          "durationTicks": 216,
          "midi": 71,
          "name": "B4",
          "ticks": 46080,
          "time": 34.909056,
          "velocity": 0.6299212598425197
        },
        {
          "duration": 0.16363620000000623,
          "durationTicks": 216,
          "midi": 76,
          "name": "E5",
          "ticks": 46320,
          "time": 35.090874,
          "velocity": 0.6299212598425197
        },
        {
          "duration": 0.16363620000000623,
          "durationTicks": 216,
          "midi": 78,
          "name": "F#5",
          "ticks": 46560,
          "time": 35.272692,
          "velocity": 0.6299212598425197
        },
        {
          "duration": 0.16363620000000623,
          "durationTicks": 216,
          "midi": 80,
          "name": "G#5",
          "ticks": 46800,
          "time": 35.45451,
          "velocity": 0.6299212598425197
        },
        {
          "duration": 0.16363620000000623,
          "durationTicks": 216,
          "midi": 78,
          "name": "F#5",
          "ticks": 47040,
          "time": 35.636328,
          "velocity": 0.6299212598425197
        },
        {
          "duration": 0.16363620000000623,
          "durationTicks": 216,
          "midi": 71,
          "name": "B4",
          "ticks": 47040,
          "time": 35.636328,
          "velocity": 0.6299212598425197
        },
        {
          "duration": 0.16363620000000623,
          "durationTicks": 216,
          "midi": 76,
          "name": "E5",
          "ticks": 47280,
          "time": 35.818146,
          "velocity": 0.6299212598425197
        },
        {
          "duration": 0.32727240000000535,
          "durationTicks": 432,
          "midi": 71,
          "name": "B4",
          "ticks": 47520,
          "time": 35.999964,
          "velocity": 0.6299212598425197
        },
        {
          "duration": 0.16363619999999912,
          "durationTicks": 216,
          "midi": 83,
          "name": "B5",
          "ticks": 48480,
          "time": 36.727236000000005,
          "velocity": 0.6299212598425197
        },
        {
          "duration": 0.16363619999999912,
          "durationTicks": 216,
          "midi": 76,
          "name": "E5",
          "ticks": 48480,
          "time": 36.727236000000005,
          "velocity": 0.6299212598425197
        },
        {
          "duration": 0.34545419999999893,
          "durationTicks": 456,
          "midi": 83,
          "name": "B5",
          "ticks": 48720,
          "time": 36.909054000000005,
          "velocity": 0.6299212598425197
        },
        {
          "duration": 0.34545419999999893,
          "durationTicks": 456,
          "midi": 76,
          "name": "E5",
          "ticks": 48720,
          "time": 36.909054000000005,
          "velocity": 0.6299212598425197
        },
        {
          "duration": 0.16363619999999912,
          "durationTicks": 216,
          "midi": 76,
          "name": "E5",
          "ticks": 49200,
          "time": 37.272690000000004,
          "velocity": 0.6299212598425197
        },
        {
          "duration": 0.16363619999999912,
          "durationTicks": 216,
          "midi": 76,
          "name": "E5",
          "ticks": 49440,
          "time": 37.454508000000004,
          "velocity": 0.6299212598425197
        },
        {
          "duration": 0.16363619999999912,
          "durationTicks": 216,
          "midi": 76,
          "name": "E5",
          "ticks": 49680,
          "time": 37.636326000000004,
          "velocity": 0.6299212598425197
        },
        {
          "duration": 0.16363619999999912,
          "durationTicks": 216,
          "midi": 78,
          "name": "F#5",
          "ticks": 49920,
          "time": 37.818144000000004,
          "velocity": 0.6299212598425197
        },
        {
          "duration": 0.16363619999999912,
          "durationTicks": 216,
          "midi": 69,
          "name": "A4",
          "ticks": 49920,
          "time": 37.818144000000004,
          "velocity": 0.6299212598425197
        },
        {
          "duration": 0.16363619999999912,
          "durationTicks": 216,
          "midi": 76,
          "name": "E5",
          "ticks": 50160,
          "time": 37.999962000000004,
          "velocity": 0.6299212598425197
        },
        {
          "duration": 0.16363619999999912,
          "durationTicks": 216,
          "midi": 78,
          "name": "F#5",
          "ticks": 50400,
          "time": 38.18178,
          "velocity": 0.6299212598425197
        },
        {
          "duration": 0.34545419999999893,
          "durationTicks": 456,
          "midi": 80,
          "name": "G#5",
          "ticks": 50640,
          "time": 38.363598,
          "velocity": 0.6299212598425197
        },
        {
          "duration": 0.34545419999999893,
          "durationTicks": 456,
          "midi": 71,
          "name": "B4",
          "ticks": 50640,
          "time": 38.363598,
          "velocity": 0.6299212598425197
        },
        {
          "duration": 0.5090903999999981,
          "durationTicks": 672,
          "midi": 76,
          "name": "E5",
          "ticks": 51120,
          "time": 38.727234,
          "velocity": 0.6299212598425197
        },
        {
          "duration": 0.32727240000000535,
          "durationTicks": 432,
          "midi": 78,
          "name": "F#5",
          "ticks": 52320,
          "time": 39.636324,
          "velocity": 0.6299212598425197
        },
        {
          "duration": 0.32727240000000535,
          "durationTicks": 432,
          "midi": 71,
          "name": "B4",
          "ticks": 52320,
          "time": 39.636324,
          "velocity": 0.6299212598425197
        },
        {
          "duration": 0.32727240000000535,
          "durationTicks": 432,
          "midi": 78,
          "name": "F#5",
          "ticks": 52800,
          "time": 39.99996,
          "velocity": 0.6299212598425197
        },
        {
          "duration": 0.32727240000000535,
          "durationTicks": 432,
          "midi": 71,
          "name": "B4",
          "ticks": 52800,
          "time": 39.99996,
          "velocity": 0.6299212598425197
        },
        {
          "duration": 0.32727240000000535,
          "durationTicks": 432,
          "midi": 80,
          "name": "G#5",
          "ticks": 53280,
          "time": 40.363596,
          "velocity": 0.6299212598425197
        },
        {
          "duration": 0.32727240000000535,
          "durationTicks": 432,
          "midi": 71,
          "name": "B4",
          "ticks": 53280,
          "time": 40.363596,
          "velocity": 0.6299212598425197
        },
        {
          "duration": 0.32727240000000535,
          "durationTicks": 432,
          "midi": 81,
          "name": "A5",
          "ticks": 53760,
          "time": 40.727232,
          "velocity": 0.6299212598425197
        },
        {
          "duration": 0.32727240000000535,
          "durationTicks": 432,
          "midi": 71,
          "name": "B4",
          "ticks": 53760,
          "time": 40.727232,
          "velocity": 0.6299212598425197
        },
        {
          "duration": 0.32727240000000535,
          "durationTicks": 432,
          "midi": 80,
          "name": "G#5",
          "ticks": 54240,
          "time": 41.090868,
          "velocity": 0.6299212598425197
        },
        {
          "duration": 0.32727240000000535,
          "durationTicks": 432,
          "midi": 71,
          "name": "B4",
          "ticks": 54240,
          "time": 41.090868,
          "velocity": 0.6299212598425197
        },
        {
          "duration": 0.32727240000000535,
          "durationTicks": 432,
          "midi": 76,
          "name": "E5",
          "ticks": 54720,
          "time": 41.454504,
          "velocity": 0.6299212598425197
        },
        {
          "duration": 0.32727240000000535,
          "durationTicks": 432,
          "midi": 71,
          "name": "B4",
          "ticks": 54720,
          "time": 41.454504,
          "velocity": 0.6299212598425197
        },
        {
          "duration": 0.16363620000000623,
          "durationTicks": 216,
          "midi": 76,
          "name": "E5",
          "ticks": 55200,
          "time": 41.81814,
          "velocity": 0.6299212598425197
        },
        {
          "duration": 0.16363620000000623,
          "durationTicks": 216,
          "midi": 69,
          "name": "A4",
          "ticks": 55200,
          "time": 41.81814,
          "velocity": 0.6299212598425197
        },
        {
          "duration": 0.16363620000000623,
          "durationTicks": 216,
          "midi": 73,
          "name": "C#5",
          "ticks": 55440,
          "time": 41.999958,
          "velocity": 0.6299212598425197
        },
        {
          "duration": 0.32727240000000535,
          "durationTicks": 432,
          "midi": 73,
          "name": "C#5",
          "ticks": 55680,
          "time": 42.181776,
          "velocity": 0.6299212598425197
        },
        {
          "duration": 0.7090902000000057,
          "durationTicks": 936,
          "midi": 76,
          "name": "E5",
          "ticks": 55680,
          "time": 42.181776,
          "velocity": 0.6299212598425197
        },
        {
          "duration": 1.0545444000000046,
          "durationTicks": 1392,
          "midi": 69,
          "name": "A4",
          "ticks": 55680,
          "time": 42.181776,
          "velocity": 0.6299212598425197
        },
        {
          "duration": 0.16363620000000623,
          "durationTicks": 216,
          "midi": 73,
          "name": "C#5",
          "ticks": 56160,
          "time": 42.545412,
          "velocity": 0.6299212598425197
        },
        {
          "duration": 0.7090902000000057,
          "durationTicks": 936,
          "midi": 76,
          "name": "E5",
          "ticks": 56400,
          "time": 42.72723,
          "velocity": 0.6299212598425197
        },
        {
          "duration": 0.5818176000000008,
          "durationTicks": 768,
          "midi": 69,
          "name": "A4",
          "ticks": 56640,
          "time": 42.909048,
          "velocity": 0.6299212598425197
        },
        {
          "duration": 0.32727240000000535,
          "durationTicks": 432,
          "midi": 78,
          "name": "F#5",
          "ticks": 56640,
          "time": 42.909048,
          "velocity": 0.6299212598425197
        },
        {
          "duration": 0.2181815999999941,
          "durationTicks": 288,
          "midi": 76,
          "name": "E5",
          "ticks": 57120,
          "time": 43.272684000000005,
          "velocity": 0.6299212598425197
        },
        {
          "duration": 0.16363619999999912,
          "durationTicks": 216,
          "midi": 83,
          "name": "B5",
          "ticks": 57120,
          "time": 43.272684000000005,
          "velocity": 0.6299212598425197
        },
        {
          "duration": 0.34545419999999893,
          "durationTicks": 456,
          "midi": 76,
          "name": "E5",
          "ticks": 57360,
          "time": 43.454502000000005,
          "velocity": 0.6299212598425197
        },
        {
          "duration": 0.34545419999999893,
          "durationTicks": 456,
          "midi": 83,
          "name": "B5",
          "ticks": 57360,
          "time": 43.454502000000005,
          "velocity": 0.6299212598425197
        },
        {
          "duration": 0.16363619999999912,
          "durationTicks": 216,
          "midi": 78,
          "name": "F#5",
          "ticks": 57840,
          "time": 43.818138000000005,
          "velocity": 0.6299212598425197
        },
        {
          "duration": 0.16363619999999912,
          "durationTicks": 216,
          "midi": 71,
          "name": "B4",
          "ticks": 57840,
          "time": 43.818138000000005,
          "velocity": 0.6299212598425197
        },
        {
          "duration": 0.16363619999999912,
          "durationTicks": 216,
          "midi": 78,
          "name": "F#5",
          "ticks": 58080,
          "time": 43.999956000000005,
          "velocity": 0.6299212598425197
        },
        {
          "duration": 0.16363619999999912,
          "durationTicks": 216,
          "midi": 71,
          "name": "B4",
          "ticks": 58080,
          "time": 43.999956000000005,
          "velocity": 0.6299212598425197
        },
        {
          "duration": 0.16363619999999912,
          "durationTicks": 216,
          "midi": 76,
          "name": "E5",
          "ticks": 58320,
          "time": 44.181774000000004,
          "velocity": 0.6299212598425197
        },
        {
          "duration": 0.16363619999999912,
          "durationTicks": 216,
          "midi": 78,
          "name": "F#5",
          "ticks": 58560,
          "time": 44.363592000000004,
          "velocity": 0.6299212598425197
        },
        {
          "duration": 0.16363619999999912,
          "durationTicks": 216,
          "midi": 71,
          "name": "B4",
          "ticks": 58560,
          "time": 44.363592000000004,
          "velocity": 0.6299212598425197
        },
        {
          "duration": 0.16363619999999912,
          "durationTicks": 216,
          "midi": 76,
          "name": "E5",
          "ticks": 58800,
          "time": 44.545410000000004,
          "velocity": 0.6299212598425197
        },
        {
          "duration": 0.16363619999999912,
          "durationTicks": 216,
          "midi": 75,
          "name": "D#5",
          "ticks": 59040,
          "time": 44.727228000000004,
          "velocity": 0.6299212598425197
        },
        {
          "duration": 0.16363619999999912,
          "durationTicks": 216,
          "midi": 73,
          "name": "C#5",
          "ticks": 59280,
          "time": 44.909046000000004,
          "velocity": 0.6299212598425197
        },
        {
          "duration": 0.16363619999999912,
          "durationTicks": 216,
          "midi": 85,
          "name": "C#6",
          "ticks": 59520,
          "time": 45.090864,
          "velocity": 0.6299212598425197
        },
        {
          "duration": 0.16363619999999912,
          "durationTicks": 216,
          "midi": 76,
          "name": "E5",
          "ticks": 59520,
          "time": 45.090864,
          "velocity": 0.6299212598425197
        },
        {
          "duration": 0.16363619999999912,
          "durationTicks": 216,
          "midi": 83,
          "name": "B5",
          "ticks": 59760,
          "time": 45.272682,
          "velocity": 0.6299212598425197
        },
        {
          "duration": 0.16363619999999912,
          "durationTicks": 216,
          "midi": 83,
          "name": "B5",
          "ticks": 60000,
          "time": 45.4545,
          "velocity": 0.6299212598425197
        },
        {
          "duration": 0.16363619999999912,
          "durationTicks": 216,
          "midi": 80,
          "name": "G#5",
          "ticks": 60240,
          "time": 45.636318,
          "velocity": 0.6299212598425197
        },
        {
          "duration": 0.32727239999999824,
          "durationTicks": 432,
          "midi": 80,
          "name": "G#5",
          "ticks": 60480,
          "time": 45.818136,
          "velocity": 0.6299212598425197
        },
        {
          "duration": 0.16363619999999912,
          "durationTicks": 216,
          "midi": 78,
          "name": "F#5",
          "ticks": 60960,
          "time": 46.181772,
          "velocity": 0.6299212598425197
        },
        {
          "duration": 0.16363619999999912,
          "durationTicks": 216,
          "midi": 76,
          "name": "E5",
          "ticks": 61200,
          "time": 46.36359,
          "velocity": 0.6299212598425197
        },
        {
          "duration": 0.32727240000000535,
          "durationTicks": 432,
          "midi": 78,
          "name": "F#5",
          "ticks": 61440,
          "time": 46.545408,
          "velocity": 0.6299212598425197
        },
        {
          "duration": 0.32727240000000535,
          "durationTicks": 432,
          "midi": 71,
          "name": "B4",
          "ticks": 61440,
          "time": 46.545408,
          "velocity": 0.6299212598425197
        },
        {
          "duration": 0.32727240000000535,
          "durationTicks": 432,
          "midi": 80,
          "name": "G#5",
          "ticks": 61920,
          "time": 46.909044,
          "velocity": 0.6299212598425197
        },
        {
          "duration": 0.16363619999999912,
          "durationTicks": 216,
          "midi": 73,
          "name": "C#5",
          "ticks": 62400,
          "time": 47.27268,
          "velocity": 0.6299212598425197
        },
        {
          "duration": 0.16363619999999912,
          "durationTicks": 216,
          "midi": 73,
          "name": "C#5",
          "ticks": 62640,
          "time": 47.454498,
          "velocity": 0.6299212598425197
        },
        {
          "duration": 0.16363619999999912,
          "durationTicks": 216,
          "midi": 73,
          "name": "C#5",
          "ticks": 62880,
          "time": 47.636316,
          "velocity": 0.6299212598425197
        },
        {
          "duration": 0.16363619999999912,
          "durationTicks": 216,
          "midi": 80,
          "name": "G#5",
          "ticks": 63120,
          "time": 47.818134,
          "velocity": 0.6299212598425197
        },
        {
          "duration": 0.32727240000000535,
          "durationTicks": 432,
          "midi": 78,
          "name": "F#5",
          "ticks": 63360,
          "time": 47.999952,
          "velocity": 0.6299212598425197
        },
        {
          "duration": 0.32727240000000535,
          "durationTicks": 432,
          "midi": 69,
          "name": "A4",
          "ticks": 63360,
          "time": 47.999952,
          "velocity": 0.6299212598425197
        },
        {
          "duration": 0.32727240000000535,
          "durationTicks": 432,
          "midi": 76,
          "name": "E5",
          "ticks": 63840,
          "time": 48.363588,
          "velocity": 0.6299212598425197
        },
        {
          "duration": 0.32727240000000535,
          "durationTicks": 432,
          "midi": 73,
          "name": "C#5",
          "ticks": 64320,
          "time": 48.727224,
          "velocity": 0.6299212598425197
        },
        {
          "duration": 0.16363619999999912,
          "durationTicks": 216,
          "midi": 73,
          "name": "C#5",
          "ticks": 64800,
          "time": 49.09086,
          "velocity": 0.6299212598425197
        },
        {
          "duration": 0.16363619999999912,
          "durationTicks": 216,
          "midi": 80,
          "name": "G#5",
          "ticks": 65040,
          "time": 49.272678,
          "velocity": 0.6299212598425197
        },
        {
          "duration": 0.32727240000000535,
          "durationTicks": 432,
          "midi": 78,
          "name": "F#5",
          "ticks": 65280,
          "time": 49.454496,
          "velocity": 0.6299212598425197
        },
        {
          "duration": 0.32727240000000535,
          "durationTicks": 432,
          "midi": 71,
          "name": "B4",
          "ticks": 65280,
          "time": 49.454496,
          "velocity": 0.6299212598425197
        },
        {
          "duration": 0.6545448000000107,
          "durationTicks": 864,
          "midi": 76,
          "name": "E5",
          "ticks": 65760,
          "time": 49.818132,
          "velocity": 0.6299212598425197
        },
        {
          "duration": 0.16363619999999202,
          "durationTicks": 216,
          "midi": 76,
          "name": "E5",
          "ticks": 66960,
          "time": 50.727222000000005,
          "velocity": 0.6299212598425197
        },
        {
          "duration": 0.16363619999999202,
          "durationTicks": 216,
          "midi": 78,
          "name": "F#5",
          "ticks": 67200,
          "time": 50.909040000000005,
          "velocity": 0.6299212598425197
        },
        {
          "duration": 0.16363619999999202,
          "durationTicks": 216,
          "midi": 70,
          "name": "A#4",
          "ticks": 67200,
          "time": 50.909040000000005,
          "velocity": 0.6299212598425197
        },
        {
          "duration": 0.16363619999999202,
          "durationTicks": 216,
          "midi": 76,
          "name": "E5",
          "ticks": 67440,
          "time": 51.090858000000004,
          "velocity": 0.6299212598425197
        },
        {
          "duration": 0.16363619999999202,
          "durationTicks": 216,
          "midi": 78,
          "name": "F#5",
          "ticks": 67680,
          "time": 51.272676000000004,
          "velocity": 0.6299212598425197
        },
        {
          "duration": 0.16363619999999202,
          "durationTicks": 216,
          "midi": 76,
          "name": "E5",
          "ticks": 67920,
          "time": 51.454494000000004,
          "velocity": 0.6299212598425197
        },
        {
          "duration": 0.16363619999999202,
          "durationTicks": 216,
          "midi": 78,
          "name": "F#5",
          "ticks": 68160,
          "time": 51.636312000000004,
          "velocity": 0.6299212598425197
        },
        {
          "duration": 0.16363619999999202,
          "durationTicks": 216,
          "midi": 76,
          "name": "E5",
          "ticks": 68400,
          "time": 51.818130000000004,
          "velocity": 0.6299212598425197
        },
        {
          "duration": 0.16363619999999202,
          "durationTicks": 216,
          "midi": 78,
          "name": "F#5",
          "ticks": 68640,
          "time": 51.999948,
          "velocity": 0.6299212598425197
        },
        {
          "duration": 1.4909075999999999,
          "durationTicks": 1968,
          "midi": 80,
          "name": "G#5",
          "ticks": 68880,
          "time": 52.181766,
          "velocity": 0.6299212598425197
        },
        {
          "duration": 1.4909075999999999,
          "durationTicks": 1968,
          "midi": 72,
          "name": "C5",
          "ticks": 68880,
          "time": 52.181766,
          "velocity": 0.6299212598425197
        },
        {
          "duration": 0.5454539999999994,
          "durationTicks": 720,
          "midi": 86,
          "name": "D6",
          "ticks": 71040,
          "time": 53.818128,
          "velocity": 0.6299212598425197
        },
        {
          "duration": 0.32727240000000535,
          "durationTicks": 432,
          "midi": 79,
          "name": "G5",
          "ticks": 71040,
          "time": 53.818128,
          "velocity": 0.6299212598425197
        },
        {
          "duration": 0.32727240000000535,
          "durationTicks": 432,
          "midi": 76,
          "name": "E5",
          "ticks": 71040,
          "time": 53.818128,
          "velocity": 0.6299212598425197
        },
        {
          "duration": 0.16363619999999912,
          "durationTicks": 216,
          "midi": 79,
          "name": "G5",
          "ticks": 71760,
          "time": 54.363582,
          "velocity": 0.6299212598425197
        },
        {
          "duration": 0.16363619999999912,
          "durationTicks": 216,
          "midi": 81,
          "name": "A5",
          "ticks": 72000,
          "time": 54.5454,
          "velocity": 0.6299212598425197
        },
        {
          "duration": 0.16363619999999912,
          "durationTicks": 216,
          "midi": 79,
          "name": "G5",
          "ticks": 72240,
          "time": 54.727218,
          "velocity": 0.6299212598425197
        },
        {
          "duration": 0.16363619999999912,
          "durationTicks": 216,
          "midi": 81,
          "name": "A5",
          "ticks": 72480,
          "time": 54.909036,
          "velocity": 0.6299212598425197
        },
        {
          "duration": 0.16363619999999912,
          "durationTicks": 216,
          "midi": 79,
          "name": "G5",
          "ticks": 72720,
          "time": 55.090854,
          "velocity": 0.6299212598425197
        },
        {
          "duration": 0.16363619999999912,
          "durationTicks": 216,
          "midi": 81,
          "name": "A5",
          "ticks": 72960,
          "time": 55.272672,
          "velocity": 0.6299212598425197
        },
        {
          "duration": 0.16363619999999912,
          "durationTicks": 216,
          "midi": 76,
          "name": "E5",
          "ticks": 72960,
          "time": 55.272672,
          "velocity": 0.6299212598425197
        },
        {
          "duration": 0.16363619999999912,
          "durationTicks": 216,
          "midi": 72,
          "name": "C5",
          "ticks": 72960,
          "time": 55.272672,
          "velocity": 0.6299212598425197
        },
        {
          "duration": 0.16363619999999912,
          "durationTicks": 216,
          "midi": 79,
          "name": "G5",
          "ticks": 73200,
          "time": 55.45449,
          "velocity": 0.6299212598425197
        },
        {
          "duration": 0.16363619999999912,
          "durationTicks": 216,
          "midi": 81,
          "name": "A5",
          "ticks": 73440,
          "time": 55.636308,
          "velocity": 0.6299212598425197
        },
        {
          "duration": 0.16363619999999912,
          "durationTicks": 216,
          "midi": 83,
          "name": "B5",
          "ticks": 73680,
          "time": 55.818126,
          "velocity": 0.6299212598425197
        },
        {
          "duration": 0.16363619999999912,
          "durationTicks": 216,
          "midi": 81,
          "name": "A5",
          "ticks": 73920,
          "time": 55.999944,
          "velocity": 0.6299212598425197
        },
        {
          "duration": 0.16363619999999912,
          "durationTicks": 216,
          "midi": 72,
          "name": "C5",
          "ticks": 73920,
          "time": 55.999944,
          "velocity": 0.6299212598425197
        },
        {
          "duration": 0.16363619999999912,
          "durationTicks": 216,
          "midi": 79,
          "name": "G5",
          "ticks": 74160,
          "time": 56.181762,
          "velocity": 0.6299212598425197
        },
        {
          "duration": 0.16363619999999912,
          "durationTicks": 216,
          "midi": 74,
          "name": "D5",
          "ticks": 74400,
          "time": 56.36358,
          "velocity": 0.6299212598425197
        },
        {
          "duration": 0.16363619999999202,
          "durationTicks": 216,
          "midi": 74,
          "name": "D5",
          "ticks": 74640,
          "time": 56.545398000000006,
          "velocity": 0.6299212598425197
        },
        {
          "duration": 0.16363619999999202,
          "durationTicks": 216,
          "midi": 86,
          "name": "D6",
          "ticks": 74880,
          "time": 56.727216000000006,
          "velocity": 0.6299212598425197
        },
        {
          "duration": 0.16363619999999202,
          "durationTicks": 216,
          "midi": 74,
          "name": "D5",
          "ticks": 74880,
          "time": 56.727216000000006,
          "velocity": 0.6299212598425197
        },
        {
          "duration": 0.16363619999999202,
          "durationTicks": 216,
          "midi": 84,
          "name": "C6",
          "ticks": 75120,
          "time": 56.909034000000005,
          "velocity": 0.6299212598425197
        },
        {
          "duration": 0.16363619999999202,
          "durationTicks": 216,
          "midi": 84,
          "name": "C6",
          "ticks": 75360,
          "time": 57.090852000000005,
          "velocity": 0.6299212598425197
        },
        {
          "duration": 0.16363619999999202,
          "durationTicks": 216,
          "midi": 83,
          "name": "B5",
          "ticks": 75600,
          "time": 57.272670000000005,
          "velocity": 0.6299212598425197
        },
        {
          "duration": 0.16363619999999202,
          "durationTicks": 216,
          "midi": 83,
          "name": "B5",
          "ticks": 75840,
          "time": 57.454488000000005,
          "velocity": 0.6299212598425197
        },
        {
          "duration": 0.16363619999999202,
          "durationTicks": 216,
          "midi": 79,
          "name": "G5",
          "ticks": 75840,
          "time": 57.454488000000005,
          "velocity": 0.6299212598425197
        },
        {
          "duration": 0.16363619999999202,
          "durationTicks": 216,
          "midi": 81,
          "name": "A5",
          "ticks": 76080,
          "time": 57.636306000000005,
          "velocity": 0.6299212598425197
        },
        {
          "duration": 0.16363619999999202,
          "durationTicks": 216,
          "midi": 81,
          "name": "A5",
          "ticks": 76320,
          "time": 57.818124000000005,
          "velocity": 0.6299212598425197
        },
        {
          "duration": 0.16363619999999202,
          "durationTicks": 216,
          "midi": 79,
          "name": "G5",
          "ticks": 76560,
          "time": 57.999942000000004,
          "velocity": 0.6299212598425197
        },
        {
          "duration": 0.16363619999999202,
          "durationTicks": 216,
          "midi": 81,
          "name": "A5",
          "ticks": 76800,
          "time": 58.181760000000004,
          "velocity": 0.6299212598425197
        },
        {
          "duration": 0.16363619999999202,
          "durationTicks": 216,
          "midi": 74,
          "name": "D5",
          "ticks": 76800,
          "time": 58.181760000000004,
          "velocity": 0.6299212598425197
        },
        {
          "duration": 0.16363619999999202,
          "durationTicks": 216,
          "midi": 79,
          "name": "G5",
          "ticks": 77040,
          "time": 58.363578000000004,
          "velocity": 0.6299212598425197
        },
        {
          "duration": 0.16363619999999202,
          "durationTicks": 216,
          "midi": 81,
          "name": "A5",
          "ticks": 77280,
          "time": 58.545396000000004,
          "velocity": 0.6299212598425197
        },
        {
          "duration": 0.16363619999999202,
          "durationTicks": 216,
          "midi": 79,
          "name": "G5",
          "ticks": 77520,
          "time": 58.727214000000004,
          "velocity": 0.6299212598425197
        },
        {
          "duration": 0.16363619999999202,
          "durationTicks": 216,
          "midi": 81,
          "name": "A5",
          "ticks": 77760,
          "time": 58.909032,
          "velocity": 0.6299212598425197
        },
        {
          "duration": 0.16363619999999202,
          "durationTicks": 216,
          "midi": 83,
          "name": "B5",
          "ticks": 78000,
          "time": 59.09085,
          "velocity": 0.6299212598425197
        },
        {
          "duration": 0.32727239999999824,
          "durationTicks": 432,
          "midi": 83,
          "name": "B5",
          "ticks": 78240,
          "time": 59.272668,
          "velocity": 0.6299212598425197
        },
        {
          "duration": 0.32727239999999824,
          "durationTicks": 432,
          "midi": 74,
          "name": "D5",
          "ticks": 78240,
          "time": 59.272668,
          "velocity": 0.6299212598425197
        },
        {
          "duration": 0.32727240000000535,
          "durationTicks": 432,
          "midi": 78,
          "name": "F#5",
          "ticks": 79680,
          "time": 60.363576,
          "velocity": 0.6299212598425197
        },
        {
          "duration": 0.32727240000000535,
          "durationTicks": 432,
          "midi": 71,
          "name": "B4",
          "ticks": 79680,
          "time": 60.363576,
          "velocity": 0.6299212598425197
        },
        {
          "duration": 0.32727240000000535,
          "durationTicks": 432,
          "midi": 81,
          "name": "A5",
          "ticks": 80160,
          "time": 60.727212,
          "velocity": 0.6299212598425197
        },
        {
          "duration": 0.5454539999999994,
          "durationTicks": 720,
          "midi": 79,
          "name": "G5",
          "ticks": 80640,
          "time": 61.090848,
          "velocity": 0.6299212598425197
        },
        {
          "duration": 0.32727240000000535,
          "durationTicks": 432,
          "midi": 72,
          "name": "C5",
          "ticks": 80640,
          "time": 61.090848,
          "velocity": 0.6299212598425197
        },
        {
          "duration": 0.32727240000000535,
          "durationTicks": 432,
          "midi": 76,
          "name": "E5",
          "ticks": 81360,
          "time": 61.636302,
          "velocity": 0.6299212598425197
        },
        {
          "duration": 0.16363619999999912,
          "durationTicks": 216,
          "midi": 74,
          "name": "D5",
          "ticks": 81840,
          "time": 61.999938,
          "velocity": 0.6299212598425197
        },
        {
          "duration": 0.16363619999999912,
          "durationTicks": 216,
          "midi": 74,
          "name": "D5",
          "ticks": 82080,
          "time": 62.181756,
          "velocity": 0.6299212598425197
        },
        {
          "duration": 0.16363619999999912,
          "durationTicks": 216,
          "midi": 74,
          "name": "D5",
          "ticks": 82320,
          "time": 62.363574,
          "velocity": 0.6299212598425197
        },
        {
          "duration": 0.16363619999999912,
          "durationTicks": 216,
          "midi": 83,
          "name": "B5",
          "ticks": 82560,
          "time": 62.545392,
          "velocity": 0.6299212598425197
        },
        {
          "duration": 0.16363619999999912,
          "durationTicks": 216,
          "midi": 74,
          "name": "D5",
          "ticks": 82560,
          "time": 62.545392,
          "velocity": 0.6299212598425197
        },
        {
          "duration": 0.16363619999999912,
          "durationTicks": 216,
          "midi": 83,
          "name": "B5",
          "ticks": 82800,
          "time": 62.72721,
          "velocity": 0.6299212598425197
        },
        {
          "duration": 0.16363619999999912,
          "durationTicks": 216,
          "midi": 83,
          "name": "B5",
          "ticks": 83040,
          "time": 62.909028,
          "velocity": 0.6299212598425197
        },
        {
          "duration": 0.16363619999999912,
          "durationTicks": 216,
          "midi": 83,
          "name": "B5",
          "ticks": 83280,
          "time": 63.090846,
          "velocity": 0.6299212598425197
        },
        {
          "duration": 0.16363619999999202,
          "durationTicks": 216,
          "midi": 86,
          "name": "D6",
          "ticks": 83520,
          "time": 63.272664000000006,
          "velocity": 0.6299212598425197
        },
        {
          "duration": 0.16363619999999202,
          "durationTicks": 216,
          "midi": 74,
          "name": "D5",
          "ticks": 83520,
          "time": 63.272664000000006,
          "velocity": 0.6299212598425197
        },
        {
          "duration": 0.16363619999999202,
          "durationTicks": 216,
          "midi": 79,
          "name": "G5",
          "ticks": 83760,
          "time": 63.454482000000006,
          "velocity": 0.6299212598425197
        },
        {
          "duration": 0.16363619999999202,
          "durationTicks": 216,
          "midi": 79,
          "name": "G5",
          "ticks": 84000,
          "time": 63.636300000000006,
          "velocity": 0.6299212598425197
        },
        {
          "duration": 0.16363619999999202,
          "durationTicks": 216,
          "midi": 79,
          "name": "G5",
          "ticks": 84240,
          "time": 63.818118000000005,
          "velocity": 0.6299212598425197
        },
        {
          "duration": 0.16363619999999912,
          "durationTicks": 216,
          "midi": 81,
          "name": "A5",
          "ticks": 84480,
          "time": 63.999936000000005,
          "velocity": 0.6299212598425197
        },
        {
          "duration": 0.16363619999999912,
          "durationTicks": 216,
          "midi": 74,
          "name": "D5",
          "ticks": 84480,
          "time": 63.999936000000005,
          "velocity": 0.6299212598425197
        },
        {
          "duration": 0.7090902000000057,
          "durationTicks": 936,
          "midi": 83,
          "name": "B5",
          "ticks": 84720,
          "time": 64.181754,
          "velocity": 0.6299212598425197
        },
        {
          "duration": 0.16363619999999912,
          "durationTicks": 216,
          "midi": 83,
          "name": "B5",
          "ticks": 85680,
          "time": 64.909026,
          "velocity": 0.6299212598425197
        },
        {
          "duration": 0.16363619999999912,
          "durationTicks": 216,
          "midi": 74,
          "name": "D5",
          "ticks": 85680,
          "time": 64.909026,
          "velocity": 0.6299212598425197
        },
        {
          "duration": 0.16363619999999912,
          "durationTicks": 216,
          "midi": 81,
          "name": "A5",
          "ticks": 85920,
          "time": 65.090844,
          "velocity": 0.6299212598425197
        },
        {
          "duration": 0.16363619999999912,
          "durationTicks": 216,
          "midi": 79,
          "name": "G5",
          "ticks": 86160,
          "time": 65.272662,
          "velocity": 0.6299212598425197
        },
        {
          "duration": 0.5454539999999923,
          "durationTicks": 720,
          "midi": 86,
          "name": "D6",
          "ticks": 86400,
          "time": 65.45448,
          "velocity": 0.6299212598425197
        },
        {
          "duration": 0.32727239999999824,
          "durationTicks": 432,
          "midi": 79,
          "name": "G5",
          "ticks": 86400,
          "time": 65.45448,
          "velocity": 0.6299212598425197
        },
        {
          "duration": 0.32727239999999824,
          "durationTicks": 432,
          "midi": 76,
          "name": "E5",
          "ticks": 86400,
          "time": 65.45448,
          "velocity": 0.6299212598425197
        },
        {
          "duration": 0.16363619999999912,
          "durationTicks": 216,
          "midi": 79,
          "name": "G5",
          "ticks": 87120,
          "time": 65.999934,
          "velocity": 0.6299212598425197
        },
        {
          "duration": 0.16363619999999912,
          "durationTicks": 216,
          "midi": 81,
          "name": "A5",
          "ticks": 87360,
          "time": 66.181752,
          "velocity": 0.6299212598425197
        },
        {
          "duration": 0.16363619999999912,
          "durationTicks": 216,
          "midi": 79,
          "name": "G5",
          "ticks": 87600,
          "time": 66.36357,
          "velocity": 0.6299212598425197
        },
        {
          "duration": 0.16363619999999912,
          "durationTicks": 216,
          "midi": 81,
          "name": "A5",
          "ticks": 87840,
          "time": 66.545388,
          "velocity": 0.6299212598425197
        },
        {
          "duration": 0.1636361999999849,
          "durationTicks": 216,
          "midi": 79,
          "name": "G5",
          "ticks": 88080,
          "time": 66.72720600000001,
          "velocity": 0.6299212598425197
        },
        {
          "duration": 0.16363619999999912,
          "durationTicks": 216,
          "midi": 81,
          "name": "A5",
          "ticks": 88320,
          "time": 66.909024,
          "velocity": 0.6299212598425197
        },
        {
          "duration": 0.16363619999999912,
          "durationTicks": 216,
          "midi": 76,
          "name": "E5",
          "ticks": 88320,
          "time": 66.909024,
          "velocity": 0.6299212598425197
        },
        {
          "duration": 0.16363619999999912,
          "durationTicks": 216,
          "midi": 72,
          "name": "C5",
          "ticks": 88320,
          "time": 66.909024,
          "velocity": 0.6299212598425197
        },
        {
          "duration": 0.1636361999999849,
          "durationTicks": 216,
          "midi": 79,
          "name": "G5",
          "ticks": 88560,
          "time": 67.09084200000001,
          "velocity": 0.6299212598425197
        },
        {
          "duration": 0.16363619999999912,
          "durationTicks": 216,
          "midi": 81,
          "name": "A5",
          "ticks": 88800,
          "time": 67.27266,
          "velocity": 0.6299212598425197
        },
        {
          "duration": 0.1636361999999849,
          "durationTicks": 216,
          "midi": 79,
          "name": "G5",
          "ticks": 89040,
          "time": 67.45447800000001,
          "velocity": 0.6299212598425197
        },
        {
          "duration": 0.16363619999999912,
          "durationTicks": 216,
          "midi": 81,
          "name": "A5",
          "ticks": 89280,
          "time": 67.636296,
          "velocity": 0.6299212598425197
        },
        {
          "duration": 0.16363619999999912,
          "durationTicks": 216,
          "midi": 72,
          "name": "C5",
          "ticks": 89280,
          "time": 67.636296,
          "velocity": 0.6299212598425197
        },
        {
          "duration": 0.1636361999999849,
          "durationTicks": 216,
          "midi": 83,
          "name": "B5",
          "ticks": 89520,
          "time": 67.81811400000001,
          "velocity": 0.6299212598425197
        },
        {
          "duration": 0.16363619999999912,
          "durationTicks": 216,
          "midi": 83,
          "name": "B5",
          "ticks": 89760,
          "time": 67.999932,
          "velocity": 0.6299212598425197
        },
        {
          "duration": 0.1636361999999849,
          "durationTicks": 216,
          "midi": 74,
          "name": "D5",
          "ticks": 90000,
          "time": 68.18175000000001,
          "velocity": 0.6299212598425197
        },
        {
          "duration": 0.16363619999999912,
          "durationTicks": 216,
          "midi": 86,
          "name": "D6",
          "ticks": 90240,
          "time": 68.363568,
          "velocity": 0.6299212598425197
        },
        {
          "duration": 0.16363619999999912,
          "durationTicks": 216,
          "midi": 74,
          "name": "D5",
          "ticks": 90240,
          "time": 68.363568,
          "velocity": 0.6299212598425197
        },
        {
          "duration": 0.1636361999999849,
          "durationTicks": 216,
          "midi": 84,
          "name": "C6",
          "ticks": 90480,
          "time": 68.54538600000001,
          "velocity": 0.6299212598425197
        },
        {
          "duration": 0.16363619999999912,
          "durationTicks": 216,
          "midi": 84,
          "name": "C6",
          "ticks": 90720,
          "time": 68.727204,
          "velocity": 0.6299212598425197
        },
        {
          "duration": 0.1636361999999849,
          "durationTicks": 216,
          "midi": 83,
          "name": "B5",
          "ticks": 90960,
          "time": 68.90902200000001,
          "velocity": 0.6299212598425197
        },
        {
          "duration": 0.16363619999999912,
          "durationTicks": 216,
          "midi": 83,
          "name": "B5",
          "ticks": 91200,
          "time": 69.09084,
          "velocity": 0.6299212598425197
        },
        {
          "duration": 0.16363619999999912,
          "durationTicks": 216,
          "midi": 79,
          "name": "G5",
          "ticks": 91200,
          "time": 69.09084,
          "velocity": 0.6299212598425197
        },
        {
          "duration": 0.1636361999999849,
          "durationTicks": 216,
          "midi": 81,
          "name": "A5",
          "ticks": 91440,
          "time": 69.272658,
          "velocity": 0.6299212598425197
        },
        {
          "duration": 0.16363619999999912,
          "durationTicks": 216,
          "midi": 81,
          "name": "A5",
          "ticks": 91680,
          "time": 69.454476,
          "velocity": 0.6299212598425197
        },
        {
          "duration": 0.16363619999999912,
          "durationTicks": 216,
          "midi": 79,
          "name": "G5",
          "ticks": 91920,
          "time": 69.636294,
          "velocity": 0.6299212598425197
        },
        {
          "duration": 0.5454540000000065,
          "durationTicks": 720,
          "midi": 81,
          "name": "A5",
          "ticks": 92160,
          "time": 69.818112,
          "velocity": 0.6299212598425197
        },
        {
          "duration": 0.32727240000001245,
          "durationTicks": 432,
          "midi": 74,
          "name": "D5",
          "ticks": 92160,
          "time": 69.818112,
          "velocity": 0.6299212598425197
        },
        {
          "duration": 0.16363619999999912,
          "durationTicks": 216,
          "midi": 79,
          "name": "G5",
          "ticks": 92880,
          "time": 70.363566,
          "velocity": 0.6299212598425197
        },
        {
          "duration": 0.32727240000001245,
          "durationTicks": 432,
          "midi": 78,
          "name": "F#5",
          "ticks": 93120,
          "time": 70.545384,
          "velocity": 0.6299212598425197
        },
        {
          "duration": 0.32727240000001245,
          "durationTicks": 432,
          "midi": 74,
          "name": "D5",
          "ticks": 93120,
          "time": 70.545384,
          "velocity": 0.6299212598425197
        },
        {
          "duration": 0.16363619999999912,
          "durationTicks": 216,
          "midi": 79,
          "name": "G5",
          "ticks": 93600,
          "time": 70.90902,
          "velocity": 0.6299212598425197
        },
        {
          "duration": 0.34545419999999183,
          "durationTicks": 456,
          "midi": 78,
          "name": "F#5",
          "ticks": 93840,
          "time": 71.090838,
          "velocity": 0.6299212598425197
        },
        {
          "duration": 0.34545419999999183,
          "durationTicks": 456,
          "midi": 74,
          "name": "D5",
          "ticks": 93840,
          "time": 71.090838,
          "velocity": 0.6299212598425197
        },
        {
          "duration": 2.2545432000000005,
          "durationTicks": 2976,
          "midi": 79,
          "name": "G5",
          "ticks": 94320,
          "time": 71.454474,
          "velocity": 0.6299212598425197
        },
        {
          "duration": 1.9272708000000023,
          "durationTicks": 2544,
          "midi": 76,
          "name": "E5",
          "ticks": 94320,
          "time": 71.454474,
          "velocity": 0.6299212598425197
        },
        {
          "duration": 1.9272708000000023,
          "durationTicks": 2544,
          "midi": 71,
          "name": "B4",
          "ticks": 94320,
          "time": 71.454474,
          "velocity": 0.6299212598425197
        },
        {
          "duration": 0.16363619999999912,
          "durationTicks": 216,
          "midi": 74,
          "name": "D5",
          "ticks": 97680,
          "time": 73.999926,
          "velocity": 0.6299212598425197
        },
        {
          "duration": 0.1636361999999849,
          "durationTicks": 216,
          "midi": 83,
          "name": "B5",
          "ticks": 97920,
          "time": 74.18174400000001,
          "velocity": 0.6299212598425197
        },
        {
          "duration": 0.1636361999999849,
          "durationTicks": 216,
          "midi": 76,
          "name": "E5",
          "ticks": 97920,
          "time": 74.18174400000001,
          "velocity": 0.6299212598425197
        },
        {
          "duration": 0.16363619999999912,
          "durationTicks": 216,
          "midi": 83,
          "name": "B5",
          "ticks": 98160,
          "time": 74.363562,
          "velocity": 0.6299212598425197
        },
        {
          "duration": 0.1636361999999849,
          "durationTicks": 216,
          "midi": 83,
          "name": "B5",
          "ticks": 98400,
          "time": 74.54538000000001,
          "velocity": 0.6299212598425197
        },
        {
          "duration": 0.16363619999999912,
          "durationTicks": 216,
          "midi": 84,
          "name": "C6",
          "ticks": 98640,
          "time": 74.727198,
          "velocity": 0.6299212598425197
        },
        {
          "duration": 0.1636361999999849,
          "durationTicks": 216,
          "midi": 83,
          "name": "B5",
          "ticks": 98880,
          "time": 74.90901600000001,
          "velocity": 0.6299212598425197
        },
        {
          "duration": 0.1636361999999849,
          "durationTicks": 216,
          "midi": 76,
          "name": "E5",
          "ticks": 98880,
          "time": 74.90901600000001,
          "velocity": 0.6299212598425197
        },
        {
          "duration": 0.16363619999999912,
          "durationTicks": 216,
          "midi": 84,
          "name": "C6",
          "ticks": 99120,
          "time": 75.090834,
          "velocity": 0.6299212598425197
        },
        {
          "duration": 0.1636361999999849,
          "durationTicks": 216,
          "midi": 83,
          "name": "B5",
          "ticks": 99360,
          "time": 75.27265200000001,
          "velocity": 0.6299212598425197
        },
        {
          "duration": 0.16363619999999912,
          "durationTicks": 216,
          "midi": 74,
          "name": "D5",
          "ticks": 99600,
          "time": 75.45447,
          "velocity": 0.6299212598425197
        },
        {
          "duration": 0.1636361999999849,
          "durationTicks": 216,
          "midi": 83,
          "name": "B5",
          "ticks": 99840,
          "time": 75.63628800000001,
          "velocity": 0.6299212598425197
        },
        {
          "duration": 0.1636361999999849,
          "durationTicks": 216,
          "midi": 74,
          "name": "D5",
          "ticks": 99840,
          "time": 75.63628800000001,
          "velocity": 0.6299212598425197
        },
        {
          "duration": 0.16363619999999912,
          "durationTicks": 216,
          "midi": 83,
          "name": "B5",
          "ticks": 100080,
          "time": 75.818106,
          "velocity": 0.6299212598425197
        },
        {
          "duration": 0.1636361999999849,
          "durationTicks": 216,
          "midi": 83,
          "name": "B5",
          "ticks": 100320,
          "time": 75.99992400000001,
          "velocity": 0.6299212598425197
        },
        {
          "duration": 0.16363619999999912,
          "durationTicks": 216,
          "midi": 84,
          "name": "C6",
          "ticks": 100560,
          "time": 76.181742,
          "velocity": 0.6299212598425197
        },
        {
          "duration": 0.32727239999999824,
          "durationTicks": 432,
          "midi": 83,
          "name": "B5",
          "ticks": 100800,
          "time": 76.36356,
          "velocity": 0.6299212598425197
        },
        {
          "duration": 0.32727239999999824,
          "durationTicks": 432,
          "midi": 74,
          "name": "D5",
          "ticks": 100800,
          "time": 76.36356,
          "velocity": 0.6299212598425197
        },
        {
          "duration": 0.16363619999999912,
          "durationTicks": 216,
          "midi": 86,
          "name": "D6",
          "ticks": 101280,
          "time": 76.727196,
          "velocity": 0.6299212598425197
        },
        {
          "duration": 2.290906800000002,
          "durationTicks": 3024,
          "midi": 88,
          "name": "E6",
          "ticks": 101520,
          "time": 76.909014,
          "velocity": 0.6299212598425197
        },
        {
          "duration": 2.5454519999999974,
          "durationTicks": 3360,
          "midi": 86,
          "name": "D6",
          "ticks": 101760,
          "time": 77.090832,
          "velocity": 0.6299212598425197
        },
        {
          "duration": 0.1636361999999849,
          "durationTicks": 216,
          "midi": 74,
          "name": "D5",
          "ticks": 105360,
          "time": 79.81810200000001,
          "velocity": 0.6299212598425197
        },
        {
          "duration": 0.16363619999999912,
          "durationTicks": 216,
          "midi": 83,
          "name": "B5",
          "ticks": 105600,
          "time": 79.99992,
          "velocity": 0.6299212598425197
        },
        {
          "duration": 0.16363619999999912,
          "durationTicks": 216,
          "midi": 76,
          "name": "E5",
          "ticks": 105600,
          "time": 79.99992,
          "velocity": 0.6299212598425197
        },
        {
          "duration": 0.1636361999999849,
          "durationTicks": 216,
          "midi": 83,
          "name": "B5",
          "ticks": 105840,
          "time": 80.18173800000001,
          "velocity": 0.6299212598425197
        },
        {
          "duration": 0.16363619999999912,
          "durationTicks": 216,
          "midi": 83,
          "name": "B5",
          "ticks": 106080,
          "time": 80.363556,
          "velocity": 0.6299212598425197
        },
        {
          "duration": 0.1636361999999849,
          "durationTicks": 216,
          "midi": 84,
          "name": "C6",
          "ticks": 106320,
          "time": 80.54537400000001,
          "velocity": 0.6299212598425197
        },
        {
          "duration": 0.16363619999999912,
          "durationTicks": 216,
          "midi": 86,
          "name": "D6",
          "ticks": 106560,
          "time": 80.727192,
          "velocity": 0.6299212598425197
        },
        {
          "duration": 0.16363619999999912,
          "durationTicks": 216,
          "midi": 79,
          "name": "G5",
          "ticks": 106560,
          "time": 80.727192,
          "velocity": 0.6299212598425197
        },
        {
          "duration": 0.1636361999999849,
          "durationTicks": 216,
          "midi": 86,
          "name": "D6",
          "ticks": 106800,
          "time": 80.90901000000001,
          "velocity": 0.6299212598425197
        },
        {
          "duration": 0.16363619999999912,
          "durationTicks": 216,
          "midi": 74,
          "name": "D5",
          "ticks": 107040,
          "time": 81.090828,
          "velocity": 0.6299212598425197
        },
        {
          "duration": 0.1636361999999849,
          "durationTicks": 216,
          "midi": 74,
          "name": "D5",
          "ticks": 107280,
          "time": 81.27264600000001,
          "velocity": 0.6299212598425197
        },
        {
          "duration": 0.32727239999999824,
          "durationTicks": 432,
          "midi": 81,
          "name": "A5",
          "ticks": 107520,
          "time": 81.454464,
          "velocity": 0.6299212598425197
        },
        {
          "duration": 0.32727239999999824,
          "durationTicks": 432,
          "midi": 74,
          "name": "D5",
          "ticks": 107520,
          "time": 81.454464,
          "velocity": 0.6299212598425197
        },
        {
          "duration": 0.16363619999999912,
          "durationTicks": 216,
          "midi": 81,
          "name": "A5",
          "ticks": 108000,
          "time": 81.8181,
          "velocity": 0.6299212598425197
        },
        {
          "duration": 0.16363619999999912,
          "durationTicks": 216,
          "midi": 74,
          "name": "D5",
          "ticks": 108000,
          "time": 81.8181,
          "velocity": 0.6299212598425197
        },
        {
          "duration": 0.1636361999999849,
          "durationTicks": 216,
          "midi": 83,
          "name": "B5",
          "ticks": 108240,
          "time": 81.99991800000001,
          "velocity": 0.6299212598425197
        },
        {
          "duration": 0.32727239999999824,
          "durationTicks": 432,
          "midi": 81,
          "name": "A5",
          "ticks": 108480,
          "time": 82.181736,
          "velocity": 0.6299212598425197
        },
        {
          "duration": 0.32727239999999824,
          "durationTicks": 432,
          "midi": 83,
          "name": "B5",
          "ticks": 108960,
          "time": 82.545372,
          "velocity": 0.6299212598425197
        },
        {
          "duration": 0.32727240000001245,
          "durationTicks": 432,
          "midi": 73,
          "name": "C#5",
          "ticks": 109440,
          "time": 82.909008,
          "velocity": 0.6299212598425197
        },
        {
          "duration": 0.32727240000001245,
          "durationTicks": 432,
          "midi": 64,
          "name": "E4",
          "ticks": 109440,
          "time": 82.909008,
          "velocity": 0.6299212598425197
        },
        {
          "duration": 0.16363619999999912,
          "durationTicks": 216,
          "midi": 73,
          "name": "C#5",
          "ticks": 109920,
          "time": 83.272644,
          "velocity": 0.6299212598425197
        },
        {
          "duration": 0.16363619999999912,
          "durationTicks": 216,
          "midi": 64,
          "name": "E4",
          "ticks": 109920,
          "time": 83.272644,
          "velocity": 0.6299212598425197
        },
        {
          "duration": 0.16363619999999912,
          "durationTicks": 216,
          "midi": 71,
          "name": "B4",
          "ticks": 110160,
          "time": 83.454462,
          "velocity": 0.6299212598425197
        },
        {
          "duration": 0.32727240000001245,
          "durationTicks": 432,
          "midi": 73,
          "name": "C#5",
          "ticks": 110400,
          "time": 83.63628,
          "velocity": 0.6299212598425197
        },
        {
          "duration": 0.32727240000001245,
          "durationTicks": 432,
          "midi": 64,
          "name": "E4",
          "ticks": 110400,
          "time": 83.63628,
          "velocity": 0.6299212598425197
        },
        {
          "duration": 0.32727240000001245,
          "durationTicks": 432,
          "midi": 80,
          "name": "G#5",
          "ticks": 110880,
          "time": 83.999916,
          "velocity": 0.6299212598425197
        },
        {
          "duration": 0.32727240000001245,
          "durationTicks": 432,
          "midi": 71,
          "name": "B4",
          "ticks": 110880,
          "time": 83.999916,
          "velocity": 0.6299212598425197
        },
        {
          "duration": 0.16363619999999912,
          "durationTicks": 216,
          "midi": 80,
          "name": "G#5",
          "ticks": 111360,
          "time": 84.363552,
          "velocity": 0.6299212598425197
        },
        {
          "duration": 0.16363619999999912,
          "durationTicks": 216,
          "midi": 71,
          "name": "B4",
          "ticks": 111360,
          "time": 84.363552,
          "velocity": 0.6299212598425197
        },
        {
          "duration": 0.16363619999999912,
          "durationTicks": 216,
          "midi": 78,
          "name": "F#5",
          "ticks": 111600,
          "time": 84.54537,
          "velocity": 0.6299212598425197
        },
        {
          "duration": 0.16363619999999912,
          "durationTicks": 216,
          "midi": 71,
          "name": "B4",
          "ticks": 111600,
          "time": 84.54537,
          "velocity": 0.6299212598425197
        },
        {
          "duration": 0.16363619999999912,
          "durationTicks": 216,
          "midi": 78,
          "name": "F#5",
          "ticks": 111840,
          "time": 84.727188,
          "velocity": 0.6299212598425197
        },
        {
          "duration": 0.16363619999999912,
          "durationTicks": 216,
          "midi": 71,
          "name": "B4",
          "ticks": 111840,
          "time": 84.727188,
          "velocity": 0.6299212598425197
        },
        {
          "duration": 0.34545419999999183,
          "durationTicks": 456,
          "midi": 76,
          "name": "E5",
          "ticks": 112080,
          "time": 84.909006,
          "velocity": 0.6299212598425197
        },
        {
          "duration": 0.34545419999999183,
          "durationTicks": 456,
          "midi": 71,
          "name": "B4",
          "ticks": 112080,
          "time": 84.909006,
          "velocity": 0.6299212598425197
        },
        {
          "duration": 0.16363619999999912,
          "durationTicks": 216,
          "midi": 80,
          "name": "G#5",
          "ticks": 112560,
          "time": 85.272642,
          "velocity": 0.6299212598425197
        },
        {
          "duration": 0.16363619999999912,
          "durationTicks": 216,
          "midi": 71,
          "name": "B4",
          "ticks": 112560,
          "time": 85.272642,
          "velocity": 0.6299212598425197
        },
        {
          "duration": 0.16363619999999912,
          "durationTicks": 216,
          "midi": 78,
          "name": "F#5",
          "ticks": 112800,
          "time": 85.45446,
          "velocity": 0.6299212598425197
        },
        {
          "duration": 0.16363619999999912,
          "durationTicks": 216,
          "midi": 71,
          "name": "B4",
          "ticks": 112800,
          "time": 85.45446,
          "velocity": 0.6299212598425197
        },
        {
          "duration": 0.16363619999999912,
          "durationTicks": 216,
          "midi": 76,
          "name": "E5",
          "ticks": 113040,
          "time": 85.636278,
          "velocity": 0.6299212598425197
        },
        {
          "duration": 0.16363619999999912,
          "durationTicks": 216,
          "midi": 71,
          "name": "B4",
          "ticks": 113040,
          "time": 85.636278,
          "velocity": 0.6299212598425197
        },
        {
          "duration": 0.16363619999999912,
          "durationTicks": 216,
          "midi": 80,
          "name": "G#5",
          "ticks": 113280,
          "time": 85.818096,
          "velocity": 0.6299212598425197
        },
        {
          "duration": 0.16363619999999912,
          "durationTicks": 216,
          "midi": 71,
          "name": "B4",
          "ticks": 113280,
          "time": 85.818096,
          "velocity": 0.6299212598425197
        },
        {
          "duration": 0.16363619999999912,
          "durationTicks": 216,
          "midi": 78,
          "name": "F#5",
          "ticks": 113520,
          "time": 85.999914,
          "velocity": 0.6299212598425197
        },
        {
          "duration": 0.16363619999999912,
          "durationTicks": 216,
          "midi": 71,
          "name": "B4",
          "ticks": 113520,
          "time": 85.999914,
          "velocity": 0.6299212598425197
        },
        {
          "duration": 0.16363619999999912,
          "durationTicks": 216,
          "midi": 76,
          "name": "E5",
          "ticks": 113760,
          "time": 86.181732,
          "velocity": 0.6299212598425197
        },
        {
          "duration": 0.16363619999999912,
          "durationTicks": 216,
          "midi": 71,
          "name": "B4",
          "ticks": 113760,
          "time": 86.181732,
          "velocity": 0.6299212598425197
        },
        {
          "duration": 0.34545419999999183,
          "durationTicks": 456,
          "midi": 76,
          "name": "E5",
          "ticks": 114000,
          "time": 86.36355,
          "velocity": 0.6299212598425197
        },
        {
          "duration": 0.34545419999999183,
          "durationTicks": 456,
          "midi": 71,
          "name": "B4",
          "ticks": 114000,
          "time": 86.36355,
          "velocity": 0.6299212598425197
        },
        {
          "duration": 0.16363619999999912,
          "durationTicks": 216,
          "midi": 80,
          "name": "G#5",
          "ticks": 114480,
          "time": 86.727186,
          "velocity": 0.6299212598425197
        },
        {
          "duration": 0.16363619999999912,
          "durationTicks": 216,
          "midi": 71,
          "name": "B4",
          "ticks": 114480,
          "time": 86.727186,
          "velocity": 0.6299212598425197
        },
        {
          "duration": 0.1636361999999849,
          "durationTicks": 216,
          "midi": 78,
          "name": "F#5",
          "ticks": 114720,
          "time": 86.90900400000001,
          "velocity": 0.6299212598425197
        },
        {
          "duration": 0.1636361999999849,
          "durationTicks": 216,
          "midi": 71,
          "name": "B4",
          "ticks": 114720,
          "time": 86.90900400000001,
          "velocity": 0.6299212598425197
        },
        {
          "duration": 0.16363619999999912,
          "durationTicks": 216,
          "midi": 76,
          "name": "E5",
          "ticks": 114960,
          "time": 87.090822,
          "velocity": 0.6299212598425197
        },
        {
          "duration": 0.16363619999999912,
          "durationTicks": 216,
          "midi": 71,
          "name": "B4",
          "ticks": 114960,
          "time": 87.090822,
          "velocity": 0.6299212598425197
        },
        {
          "duration": 0.32727239999999824,
          "durationTicks": 432,
          "midi": 78,
          "name": "F#5",
          "ticks": 115200,
          "time": 87.27264000000001,
          "velocity": 0.6299212598425197
        },
        {
          "duration": 0.32727239999999824,
          "durationTicks": 432,
          "midi": 71,
          "name": "B4",
          "ticks": 115200,
          "time": 87.27264000000001,
          "velocity": 0.6299212598425197
        },
        {
          "duration": 0.1636361999999849,
          "durationTicks": 216,
          "midi": 78,
          "name": "F#5",
          "ticks": 115680,
          "time": 87.63627600000001,
          "velocity": 0.6299212598425197
        },
        {
          "duration": 0.1636361999999849,
          "durationTicks": 216,
          "midi": 71,
          "name": "B4",
          "ticks": 115680,
          "time": 87.63627600000001,
          "velocity": 0.6299212598425197
        },
        {
          "duration": 0.16363619999999912,
          "durationTicks": 216,
          "midi": 76,
          "name": "E5",
          "ticks": 115920,
          "time": 87.818094,
          "velocity": 0.6299212598425197
        },
        {
          "duration": 0.1636361999999849,
          "durationTicks": 216,
          "midi": 78,
          "name": "F#5",
          "ticks": 116160,
          "time": 87.99991200000001,
          "velocity": 0.6299212598425197
        },
        {
          "duration": 0.1636361999999849,
          "durationTicks": 216,
          "midi": 71,
          "name": "B4",
          "ticks": 116160,
          "time": 87.99991200000001,
          "velocity": 0.6299212598425197
        },
        {
          "duration": 0.16363619999999912,
          "durationTicks": 216,
          "midi": 80,
          "name": "G#5",
          "ticks": 116400,
          "time": 88.18173,
          "velocity": 0.6299212598425197
        },
        {
          "duration": 0.1636361999999849,
          "durationTicks": 216,
          "midi": 78,
          "name": "F#5",
          "ticks": 116640,
          "time": 88.36354800000001,
          "velocity": 0.6299212598425197
        },
        {
          "duration": 0.1636361999999849,
          "durationTicks": 216,
          "midi": 71,
          "name": "B4",
          "ticks": 116640,
          "time": 88.36354800000001,
          "velocity": 0.6299212598425197
        },
        {
          "duration": 0.16363619999999912,
          "durationTicks": 216,
          "midi": 76,
          "name": "E5",
          "ticks": 116880,
          "time": 88.545366,
          "velocity": 0.6299212598425197
        }
      ],
      "endOfTrackTicks": 117120
    },
    {
      "channel": 0,
      "controlChanges": {
        "7": [
          {
            "number": 7,
            "ticks": 17280,
            "time": 13.090896,
            "value": 0.7086614173228346
          },
          {
            "number": 7,
            "ticks": 24950,
            "time": 18.90149625,
            "value": 0.6299212598425197
          },
          {
            "number": 7,
            "ticks": 109430,
            "time": 82.90143225,
            "value": 0.7086614173228346
          }
        ],
        "10": [
          {
            "number": 10,
            "ticks": 0,
            "time": 0,
            "value": 0.5039370078740157
          }
        ],
        "64": [
          {
            "number": 64,
            "ticks": 0,
            "time": 0,
            "value": 0.5039370078740157
          },
          {
            "number": 64,
            "ticks": 1920,
            "time": 1.454544,
            "value": 0
          },
          {
            "number": 64,
            "ticks": 1920,
            "time": 1.454544,
            "value": 0.5039370078740157
          },
          {
            "number": 64,
            "ticks": 3840,
            "time": 2.909088,
            "value": 0.5039370078740157
          },
          {
            "number": 64,
            "ticks": 5760,
            "time": 4.363632,
            "value": 0
          },
          {
            "number": 64,
            "ticks": 5760,
            "time": 4.363632,
            "value": 0.5039370078740157
          },
          {
            "number": 64,
            "ticks": 7680,
            "time": 5.818176,
            "value": 0
          },
          {
            "number": 64,
            "ticks": 7680,
            "time": 5.818176,
            "value": 0.5039370078740157
          },
          {
            "number": 64,
            "ticks": 9600,
            "time": 7.2727200000000005,
            "value": 0
          },
          {
            "number": 64,
            "ticks": 9600,
            "time": 7.2727200000000005,
            "value": 0.5039370078740157
          },
          {
            "number": 64,
            "ticks": 11520,
            "time": 8.727264,
            "value": 0
          },
          {
            "number": 64,
            "ticks": 11520,
            "time": 8.727264,
            "value": 0.5039370078740157
          },
          {
            "number": 64,
            "ticks": 13440,
            "time": 10.181808,
            "value": 0
          },
          {
            "number": 64,
            "ticks": 13440,
            "time": 10.181808,
            "value": 0.5039370078740157
          },
          {
            "number": 64,
            "ticks": 15360,
            "time": 11.636352,
            "value": 0
          },
          {
            "number": 64,
            "ticks": 15600,
            "time": 11.81817,
            "value": 0.5039370078740157
          },
          {
            "number": 64,
            "ticks": 17280,
            "time": 13.090896,
            "value": 0
          },
          {
            "number": 64,
            "ticks": 17280,
            "time": 13.090896,
            "value": 0.5039370078740157
          },
          {
            "number": 64,
            "ticks": 19200,
            "time": 14.545440000000001,
            "value": 0
          },
          {
            "number": 64,
            "ticks": 19200,
            "time": 14.545440000000001,
            "value": 0.5039370078740157
          },
          {
            "number": 64,
            "ticks": 21120,
            "time": 15.999984000000001,
            "value": 0
          },
          {
            "number": 64,
            "ticks": 21120,
            "time": 15.999984000000001,
            "value": 0.5039370078740157
          },
          {
            "number": 64,
            "ticks": 23040,
            "time": 17.454528,
            "value": 0
          },
          {
            "number": 64,
            "ticks": 23040,
            "time": 17.454528,
            "value": 0.5039370078740157
          },
          {
            "number": 64,
            "ticks": 24960,
            "time": 18.909072000000002,
            "value": 0
          },
          {
            "number": 64,
            "ticks": 25200,
            "time": 19.09089,
            "value": 0.5039370078740157
          },
          {
            "number": 64,
            "ticks": 26880,
            "time": 20.363616,
            "value": 0
          },
          {
            "number": 64,
            "ticks": 26880,
            "time": 20.363616,
            "value": 0.5039370078740157
          },
          {
            "number": 64,
            "ticks": 28800,
            "time": 21.818160000000002,
            "value": 0
          },
          {
            "number": 64,
            "ticks": 28800,
            "time": 21.818160000000002,
            "value": 0.5039370078740157
          },
          {
            "number": 64,
            "ticks": 30720,
            "time": 23.272704,
            "value": 0
          },
          {
            "number": 64,
            "ticks": 30720,
            "time": 23.272704,
            "value": 0.5039370078740157
          },
          {
            "number": 64,
            "ticks": 32640,
            "time": 24.727248,
            "value": 0
          },
          {
            "number": 64,
            "ticks": 32640,
            "time": 24.727248,
            "value": 0.5039370078740157
          },
          {
            "number": 64,
            "ticks": 34560,
            "time": 26.181792,
            "value": 0
          },
          {
            "number": 64,
            "ticks": 34560,
            "time": 26.181792,
            "value": 0.5039370078740157
          },
          {
            "number": 64,
            "ticks": 36480,
            "time": 27.636336,
            "value": 0
          },
          {
            "number": 64,
            "ticks": 36480,
            "time": 27.636336,
            "value": 0.5039370078740157
          },
          {
            "number": 64,
            "ticks": 38400,
            "time": 29.090880000000002,
            "value": 0
          },
          {
            "number": 64,
            "ticks": 38640,
            "time": 29.272698000000002,
            "value": 0.5039370078740157
          },
          {
            "number": 64,
            "ticks": 40320,
            "time": 30.545424,
            "value": 0
          },
          {
            "number": 64,
            "ticks": 40320,
            "time": 30.545424,
            "value": 0.5039370078740157
          },
          {
            "number": 64,
            "ticks": 42240,
            "time": 31.999968000000003,
            "value": 0
          },
          {
            "number": 64,
            "ticks": 42240,
            "time": 31.999968000000003,
            "value": 0.5039370078740157
          },
          {
            "number": 64,
            "ticks": 44160,
            "time": 33.454512,
            "value": 0
          },
          {
            "number": 64,
            "ticks": 44160,
            "time": 33.454512,
            "value": 0.5039370078740157
          },
          {
            "number": 64,
            "ticks": 46080,
            "time": 34.909056,
            "value": 0
          },
          {
            "number": 64,
            "ticks": 46080,
            "time": 34.909056,
            "value": 0.5039370078740157
          },
          {
            "number": 64,
            "ticks": 48000,
            "time": 36.3636,
            "value": 0
          },
          {
            "number": 64,
            "ticks": 48000,
            "time": 36.3636,
            "value": 0.5039370078740157
          },
          {
            "number": 64,
            "ticks": 49920,
            "time": 37.818144000000004,
            "value": 0
          },
          {
            "number": 64,
            "ticks": 49920,
            "time": 37.818144000000004,
            "value": 0.5039370078740157
          },
          {
            "number": 64,
            "ticks": 51840,
            "time": 39.272688,
            "value": 0
          },
          {
            "number": 64,
            "ticks": 51840,
            "time": 39.272688,
            "value": 0.5039370078740157
          },
          {
            "number": 64,
            "ticks": 53760,
            "time": 40.727232,
            "value": 0
          },
          {
            "number": 64,
            "ticks": 53760,
            "time": 40.727232,
            "value": 0.5039370078740157
          },
          {
            "number": 64,
            "ticks": 55680,
            "time": 42.181776,
            "value": 0
          },
          {
            "number": 64,
            "ticks": 55680,
            "time": 42.181776,
            "value": 0.5039370078740157
          },
          {
            "number": 64,
            "ticks": 57600,
            "time": 43.636320000000005,
            "value": 0
          },
          {
            "number": 64,
            "ticks": 57600,
            "time": 43.636320000000005,
            "value": 0.5039370078740157
          },
          {
            "number": 64,
            "ticks": 59520,
            "time": 45.090864,
            "value": 0
          },
          {
            "number": 64,
            "ticks": 59520,
            "time": 45.090864,
            "value": 0.5039370078740157
          },
          {
            "number": 64,
            "ticks": 61440,
            "time": 46.545408,
            "value": 0
          },
          {
            "number": 64,
            "ticks": 61440,
            "time": 46.545408,
            "value": 0.5039370078740157
          },
          {
            "number": 64,
            "ticks": 63360,
            "time": 47.999952,
            "value": 0
          },
          {
            "number": 64,
            "ticks": 63360,
            "time": 47.999952,
            "value": 0.5039370078740157
          },
          {
            "number": 64,
            "ticks": 65280,
            "time": 49.454496,
            "value": 0
          },
          {
            "number": 64,
            "ticks": 65280,
            "time": 49.454496,
            "value": 0.5039370078740157
          },
          {
            "number": 64,
            "ticks": 67200,
            "time": 50.909040000000005,
            "value": 0
          },
          {
            "number": 64,
            "ticks": 67200,
            "time": 50.909040000000005,
            "value": 0.5039370078740157
          },
          {
            "number": 64,
            "ticks": 69120,
            "time": 52.363584,
            "value": 0
          },
          {
            "number": 64,
            "ticks": 71040,
            "time": 53.818128,
            "value": 0.5039370078740157
          },
          {
            "number": 64,
            "ticks": 72960,
            "time": 55.272672,
            "value": 0
          },
          {
            "number": 64,
            "ticks": 72960,
            "time": 55.272672,
            "value": 0.5039370078740157
          },
          {
            "number": 64,
            "ticks": 74880,
            "time": 56.727216000000006,
            "value": 0
          },
          {
            "number": 64,
            "ticks": 74880,
            "time": 56.727216000000006,
            "value": 0.5039370078740157
          },
          {
            "number": 64,
            "ticks": 76800,
            "time": 58.181760000000004,
            "value": 0
          },
          {
            "number": 64,
            "ticks": 76800,
            "time": 58.181760000000004,
            "value": 0.5039370078740157
          },
          {
            "number": 64,
            "ticks": 78720,
            "time": 59.636304,
            "value": 0
          },
          {
            "number": 64,
            "ticks": 78720,
            "time": 59.636304,
            "value": 0.5039370078740157
          },
          {
            "number": 64,
            "ticks": 80640,
            "time": 61.090848,
            "value": 0.5039370078740157
          },
          {
            "number": 64,
            "ticks": 82560,
            "time": 62.545392,
            "value": 0
          },
          {
            "number": 64,
            "ticks": 82560,
            "time": 62.545392,
            "value": 0.5039370078740157
          },
          {
            "number": 64,
            "ticks": 84480,
            "time": 63.999936000000005,
            "value": 0
          },
          {
            "number": 64,
            "ticks": 84480,
            "time": 63.999936000000005,
            "value": 0.5039370078740157
          },
          {
            "number": 64,
            "ticks": 86400,
            "time": 65.45448,
            "value": 0
          },
          {
            "number": 64,
            "ticks": 86400,
            "time": 65.45448,
            "value": 0.5039370078740157
          },
          {
            "number": 64,
            "ticks": 88320,
            "time": 66.909024,
            "value": 0
          },
          {
            "number": 64,
            "ticks": 88320,
            "time": 66.909024,
            "value": 0.5039370078740157
          },
          {
            "number": 64,
            "ticks": 90240,
            "time": 68.363568,
            "value": 0
          },
          {
            "number": 64,
            "ticks": 90240,
            "time": 68.363568,
            "value": 0.5039370078740157
          },
          {
            "number": 64,
            "ticks": 92160,
            "time": 69.818112,
            "value": 0
          },
          {
            "number": 64,
            "ticks": 92160,
            "time": 69.818112,
            "value": 0.5039370078740157
          },
          {
            "number": 64,
            "ticks": 94080,
            "time": 71.272656,
            "value": 0
          },
          {
            "number": 64,
            "ticks": 94080,
            "time": 71.272656,
            "value": 0.5039370078740157
          },
          {
            "number": 64,
            "ticks": 96000,
            "time": 72.7272,
            "value": 0
          },
          {
            "number": 64,
            "ticks": 96000,
            "time": 72.7272,
            "value": 0.5039370078740157
          },
          {
            "number": 64,
            "ticks": 97920,
            "time": 74.18174400000001,
            "value": 0
          },
          {
            "number": 64,
            "ticks": 97920,
            "time": 74.18174400000001,
            "value": 0.5039370078740157
          },
          {
            "number": 64,
            "ticks": 99840,
            "time": 75.63628800000001,
            "value": 0
          },
          {
            "number": 64,
            "ticks": 99840,
            "time": 75.63628800000001,
            "value": 0.5039370078740157
          },
          {
            "number": 64,
            "ticks": 101760,
            "time": 77.090832,
            "value": 0
          },
          {
            "number": 64,
            "ticks": 101760,
            "time": 77.090832,
            "value": 0.5039370078740157
          },
          {
            "number": 64,
            "ticks": 103680,
            "time": 78.545376,
            "value": 0
          },
          {
            "number": 64,
            "ticks": 103680,
            "time": 78.545376,
            "value": 0.5039370078740157
          },
          {
            "number": 64,
            "ticks": 105600,
            "time": 79.99992,
            "value": 0
          },
          {
            "number": 64,
            "ticks": 105600,
            "time": 79.99992,
            "value": 0.5039370078740157
          },
          {
            "number": 64,
            "ticks": 107040,
            "time": 81.090828,
            "value": 0
          },
          {
            "number": 64,
            "ticks": 107520,
            "time": 81.454464,
            "value": 0.5039370078740157
          },
          {
            "number": 64,
            "ticks": 109440,
            "time": 82.909008,
            "value": 0
          },
          {
            "number": 64,
            "ticks": 109440,
            "time": 82.909008,
            "value": 0.5039370078740157
          },
          {
            "number": 64,
            "ticks": 111360,
            "time": 84.363552,
            "value": 0
          },
          {
            "number": 64,
            "ticks": 111360,
            "time": 84.363552,
            "value": 0.5039370078740157
          },
          {
            "number": 64,
            "ticks": 113280,
            "time": 85.818096,
            "value": 0
          },
          {
            "number": 64,
            "ticks": 113280,
            "time": 85.818096,
            "value": 0.5039370078740157
          },
          {
            "number": 64,
            "ticks": 115200,
            "time": 87.27264000000001,
            "value": 0
          },
          {
            "number": 64,
            "ticks": 115200,
            "time": 87.27264000000001,
            "value": 0.5039370078740157
          },
          {
            "number": 64,
            "ticks": 117120,
            "time": 88.72718400000001,
            "value": 0
          }
        ]
      },
      "pitchBends": [],
      "instrument": {
        "family": "piano",
        "number": 0,
        "name": "acoustic grand piano"
      },
      "name": "Sound 2",
      "notes": [
        {
          "duration": 0.1636362,
          "durationTicks": 216,
          "midi": 71,
          "name": "B4",
          "ticks": 0,
          "time": 0,
          "velocity": 0.6299212598425197
        },
        {
          "duration": 0.1636362,
          "durationTicks": 216,
          "midi": 76,
          "name": "E5",
          "ticks": 0,
          "time": 0,
          "velocity": 0.6299212598425197
        },
        {
          "duration": 1.3090896,
          "durationTicks": 1728,
          "midi": 64,
          "name": "E4",
          "ticks": 0,
          "time": 0,
          "velocity": 0.6299212598425197
        },
        {
          "duration": 0.16363619999999998,
          "durationTicks": 216,
          "midi": 71,
          "name": "B4",
          "ticks": 240,
          "time": 0.181818,
          "velocity": 0.6299212598425197
        },
        {
          "duration": 0.16363619999999998,
          "durationTicks": 216,
          "midi": 76,
          "name": "E5",
          "ticks": 240,
          "time": 0.181818,
          "velocity": 0.6299212598425197
        },
        {
          "duration": 0.16363619999999995,
          "durationTicks": 216,
          "midi": 71,
          "name": "B4",
          "ticks": 480,
          "time": 0.363636,
          "velocity": 0.6299212598425197
        },
        {
          "duration": 0.16363619999999995,
          "durationTicks": 216,
          "midi": 76,
          "name": "E5",
          "ticks": 480,
          "time": 0.363636,
          "velocity": 0.6299212598425197
        },
        {
          "duration": 0.1636362,
          "durationTicks": 216,
          "midi": 71,
          "name": "B4",
          "ticks": 720,
          "time": 0.545454,
          "velocity": 0.6299212598425197
        },
        {
          "duration": 0.1636362,
          "durationTicks": 216,
          "midi": 76,
          "name": "E5",
          "ticks": 720,
          "time": 0.545454,
          "velocity": 0.6299212598425197
        },
        {
          "duration": 0.16363620000000012,
          "durationTicks": 216,
          "midi": 71,
          "name": "B4",
          "ticks": 960,
          "time": 0.727272,
          "velocity": 0.6299212598425197
        },
        {
          "duration": 0.16363620000000012,
          "durationTicks": 216,
          "midi": 76,
          "name": "E5",
          "ticks": 960,
          "time": 0.727272,
          "velocity": 0.6299212598425197
        },
        {
          "duration": 0.16363620000000012,
          "durationTicks": 216,
          "midi": 71,
          "name": "B4",
          "ticks": 1200,
          "time": 0.9090900000000001,
          "velocity": 0.6299212598425197
        },
        {
          "duration": 0.16363620000000012,
          "durationTicks": 216,
          "midi": 76,
          "name": "E5",
          "ticks": 1200,
          "time": 0.9090900000000001,
          "velocity": 0.6299212598425197
        },
        {
          "duration": 0.16363620000000023,
          "durationTicks": 216,
          "midi": 71,
          "name": "B4",
          "ticks": 1440,
          "time": 1.090908,
          "velocity": 0.6299212598425197
        },
        {
          "duration": 0.16363620000000023,
          "durationTicks": 216,
          "midi": 76,
          "name": "E5",
          "ticks": 1440,
          "time": 1.090908,
          "velocity": 0.6299212598425197
        },
        {
          "duration": 0.1636362,
          "durationTicks": 216,
          "midi": 71,
          "name": "B4",
          "ticks": 1680,
          "time": 1.272726,
          "velocity": 0.6299212598425197
        },
        {
          "duration": 0.1636362,
          "durationTicks": 216,
          "midi": 76,
          "name": "E5",
          "ticks": 1680,
          "time": 1.272726,
          "velocity": 0.6299212598425197
        },
        {
          "duration": 1.3090895999999999,
          "durationTicks": 1728,
          "midi": 60,
          "name": "C4",
          "ticks": 1920,
          "time": 1.454544,
          "velocity": 0.6299212598425197
        },
        {
          "duration": 0.1636362,
          "durationTicks": 216,
          "midi": 67,
          "name": "G4",
          "ticks": 1920,
          "time": 1.454544,
          "velocity": 0.6299212598425197
        },
        {
          "duration": 0.1636362,
          "durationTicks": 216,
          "midi": 72,
          "name": "C5",
          "ticks": 1920,
          "time": 1.454544,
          "velocity": 0.6299212598425197
        },
        {
          "duration": 0.1636362,
          "durationTicks": 216,
          "midi": 67,
          "name": "G4",
          "ticks": 2160,
          "time": 1.636362,
          "velocity": 0.6299212598425197
        },
        {
          "duration": 0.1636362,
          "durationTicks": 216,
          "midi": 72,
          "name": "C5",
          "ticks": 2160,
          "time": 1.636362,
          "velocity": 0.6299212598425197
        },
        {
          "duration": 0.1636362,
          "durationTicks": 216,
          "midi": 67,
          "name": "G4",
          "ticks": 2400,
          "time": 1.8181800000000001,
          "velocity": 0.6299212598425197
        },
        {
          "duration": 0.1636362,
          "durationTicks": 216,
          "midi": 72,
          "name": "C5",
          "ticks": 2400,
          "time": 1.8181800000000001,
          "velocity": 0.6299212598425197
        },
        {
          "duration": 0.1636362,
          "durationTicks": 216,
          "midi": 67,
          "name": "G4",
          "ticks": 2640,
          "time": 1.9999980000000002,
          "velocity": 0.6299212598425197
        },
        {
          "duration": 0.1636362,
          "durationTicks": 216,
          "midi": 72,
          "name": "C5",
          "ticks": 2640,
          "time": 1.9999980000000002,
          "velocity": 0.6299212598425197
        },
        {
          "duration": 0.1636362,
          "durationTicks": 216,
          "midi": 67,
          "name": "G4",
          "ticks": 2880,
          "time": 2.181816,
          "velocity": 0.6299212598425197
        },
        {
          "duration": 0.1636362,
          "durationTicks": 216,
          "midi": 72,
          "name": "C5",
          "ticks": 2880,
          "time": 2.181816,
          "velocity": 0.6299212598425197
        },
        {
          "duration": 0.1636362,
          "durationTicks": 216,
          "midi": 67,
          "name": "G4",
          "ticks": 3120,
          "time": 2.3636340000000002,
          "velocity": 0.6299212598425197
        },
        {
          "duration": 0.1636362,
          "durationTicks": 216,
          "midi": 72,
          "name": "C5",
          "ticks": 3120,
          "time": 2.3636340000000002,
          "velocity": 0.6299212598425197
        },
        {
          "duration": 0.1636362,
          "durationTicks": 216,
          "midi": 67,
          "name": "G4",
          "ticks": 3360,
          "time": 2.545452,
          "velocity": 0.6299212598425197
        },
        {
          "duration": 0.1636362,
          "durationTicks": 216,
          "midi": 72,
          "name": "C5",
          "ticks": 3360,
          "time": 2.545452,
          "velocity": 0.6299212598425197
        },
        {
          "duration": 0.1636362,
          "durationTicks": 216,
          "midi": 67,
          "name": "G4",
          "ticks": 3600,
          "time": 2.7272700000000003,
          "velocity": 0.6299212598425197
        },
        {
          "duration": 0.1636362,
          "durationTicks": 216,
          "midi": 72,
          "name": "C5",
          "ticks": 3600,
          "time": 2.7272700000000003,
          "velocity": 0.6299212598425197
        },
        {
          "duration": 1.3090895999999996,
          "durationTicks": 1728,
          "midi": 55,
          "name": "G3",
          "ticks": 3840,
          "time": 2.909088,
          "velocity": 0.6299212598425197
        },
        {
          "duration": 0.16363619999999957,
          "durationTicks": 216,
          "midi": 62,
          "name": "D4",
          "ticks": 3840,
          "time": 2.909088,
          "velocity": 0.6299212598425197
        },
        {
          "duration": 0.16363619999999957,
          "durationTicks": 216,
          "midi": 67,
          "name": "G4",
          "ticks": 3840,
          "time": 2.909088,
          "velocity": 0.6299212598425197
        },
        {
          "duration": 0.1636362,
          "durationTicks": 216,
          "midi": 62,
          "name": "D4",
          "ticks": 4080,
          "time": 3.090906,
          "velocity": 0.6299212598425197
        },
        {
          "duration": 0.1636362,
          "durationTicks": 216,
          "midi": 67,
          "name": "G4",
          "ticks": 4080,
          "time": 3.090906,
          "velocity": 0.6299212598425197
        },
        {
          "duration": 0.16363619999999957,
          "durationTicks": 216,
          "midi": 62,
          "name": "D4",
          "ticks": 4320,
          "time": 3.272724,
          "velocity": 0.6299212598425197
        },
        {
          "duration": 0.16363619999999957,
          "durationTicks": 216,
          "midi": 67,
          "name": "G4",
          "ticks": 4320,
          "time": 3.272724,
          "velocity": 0.6299212598425197
        },
        {
          "duration": 0.1636362,
          "durationTicks": 216,
          "midi": 62,
          "name": "D4",
          "ticks": 4560,
          "time": 3.454542,
          "velocity": 0.6299212598425197
        },
        {
          "duration": 0.1636362,
          "durationTicks": 216,
          "midi": 67,
          "name": "G4",
          "ticks": 4560,
          "time": 3.454542,
          "velocity": 0.6299212598425197
        },
        {
          "duration": 0.16363619999999957,
          "durationTicks": 216,
          "midi": 62,
          "name": "D4",
          "ticks": 4800,
          "time": 3.6363600000000003,
          "velocity": 0.6299212598425197
        },
        {
          "duration": 0.16363619999999957,
          "durationTicks": 216,
          "midi": 67,
          "name": "G4",
          "ticks": 4800,
          "time": 3.6363600000000003,
          "velocity": 0.6299212598425197
        },
        {
          "duration": 0.1636362,
          "durationTicks": 216,
          "midi": 62,
          "name": "D4",
          "ticks": 5040,
          "time": 3.818178,
          "velocity": 0.6299212598425197
        },
        {
          "duration": 0.1636362,
          "durationTicks": 216,
          "midi": 67,
          "name": "G4",
          "ticks": 5040,
          "time": 3.818178,
          "velocity": 0.6299212598425197
        },
        {
          "duration": 0.1636362,
          "durationTicks": 216,
          "midi": 62,
          "name": "D4",
          "ticks": 5280,
          "time": 3.9999960000000003,
          "velocity": 0.6299212598425197
        },
        {
          "duration": 0.1636362,
          "durationTicks": 216,
          "midi": 67,
          "name": "G4",
          "ticks": 5280,
          "time": 3.9999960000000003,
          "velocity": 0.6299212598425197
        },
        {
          "duration": 0.1636362,
          "durationTicks": 216,
          "midi": 62,
          "name": "D4",
          "ticks": 5520,
          "time": 4.181814,
          "velocity": 0.6299212598425197
        },
        {
          "duration": 0.1636362,
          "durationTicks": 216,
          "midi": 67,
          "name": "G4",
          "ticks": 5520,
          "time": 4.181814,
          "velocity": 0.6299212598425197
        },
        {
          "duration": 1.3090896,
          "durationTicks": 1728,
          "midi": 62,
          "name": "D4",
          "ticks": 5760,
          "time": 4.363632,
          "velocity": 0.6299212598425197
        },
        {
          "duration": 0.1636362,
          "durationTicks": 216,
          "midi": 69,
          "name": "A4",
          "ticks": 5760,
          "time": 4.363632,
          "velocity": 0.6299212598425197
        },
        {
          "duration": 0.1636362,
          "durationTicks": 216,
          "midi": 74,
          "name": "D5",
          "ticks": 5760,
          "time": 4.363632,
          "velocity": 0.6299212598425197
        },
        {
          "duration": 0.1636362,
          "durationTicks": 216,
          "midi": 69,
          "name": "A4",
          "ticks": 6000,
          "time": 4.54545,
          "velocity": 0.6299212598425197
        },
        {
          "duration": 0.1636362,
          "durationTicks": 216,
          "midi": 74,
          "name": "D5",
          "ticks": 6000,
          "time": 4.54545,
          "velocity": 0.6299212598425197
        },
        {
          "duration": 0.16363619999999912,
          "durationTicks": 216,
          "midi": 69,
          "name": "A4",
          "ticks": 6240,
          "time": 4.7272680000000005,
          "velocity": 0.6299212598425197
        },
        {
          "duration": 0.16363619999999912,
          "durationTicks": 216,
          "midi": 74,
          "name": "D5",
          "ticks": 6240,
          "time": 4.7272680000000005,
          "velocity": 0.6299212598425197
        },
        {
          "duration": 0.1636362,
          "durationTicks": 216,
          "midi": 69,
          "name": "A4",
          "ticks": 6480,
          "time": 4.909086,
          "velocity": 0.6299212598425197
        },
        {
          "duration": 0.1636362,
          "durationTicks": 216,
          "midi": 74,
          "name": "D5",
          "ticks": 6480,
          "time": 4.909086,
          "velocity": 0.6299212598425197
        },
        {
          "duration": 0.1636362,
          "durationTicks": 216,
          "midi": 69,
          "name": "A4",
          "ticks": 6720,
          "time": 5.090904,
          "velocity": 0.6299212598425197
        },
        {
          "duration": 0.1636362,
          "durationTicks": 216,
          "midi": 74,
          "name": "D5",
          "ticks": 6720,
          "time": 5.090904,
          "velocity": 0.6299212598425197
        },
        {
          "duration": 0.1636362,
          "durationTicks": 216,
          "midi": 69,
          "name": "A4",
          "ticks": 6960,
          "time": 5.272722,
          "velocity": 0.6299212598425197
        },
        {
          "duration": 0.1636362,
          "durationTicks": 216,
          "midi": 74,
          "name": "D5",
          "ticks": 6960,
          "time": 5.272722,
          "velocity": 0.6299212598425197
        },
        {
          "duration": 0.16363619999999912,
          "durationTicks": 216,
          "midi": 69,
          "name": "A4",
          "ticks": 7200,
          "time": 5.454540000000001,
          "velocity": 0.6299212598425197
        },
        {
          "duration": 0.16363619999999912,
          "durationTicks": 216,
          "midi": 74,
          "name": "D5",
          "ticks": 7200,
          "time": 5.454540000000001,
          "velocity": 0.6299212598425197
        },
        {
          "duration": 0.16363619999999912,
          "durationTicks": 216,
          "midi": 69,
          "name": "A4",
          "ticks": 7440,
          "time": 5.636358,
          "velocity": 0.6299212598425197
        },
        {
          "duration": 0.16363619999999912,
          "durationTicks": 216,
          "midi": 74,
          "name": "D5",
          "ticks": 7440,
          "time": 5.636358,
          "velocity": 0.6299212598425197
        },
        {
          "duration": 1.309089600000001,
          "durationTicks": 1728,
          "midi": 64,
          "name": "E4",
          "ticks": 7680,
          "time": 5.818176,
          "velocity": 0.6299212598425197
        },
        {
          "duration": 0.1636362,
          "durationTicks": 216,
          "midi": 71,
          "name": "B4",
          "ticks": 7680,
          "time": 5.818176,
          "velocity": 0.6299212598425197
        },
        {
          "duration": 0.1636362,
          "durationTicks": 216,
          "midi": 76,
          "name": "E5",
          "ticks": 7680,
          "time": 5.818176,
          "velocity": 0.6299212598425197
        },
        {
          "duration": 0.1636362,
          "durationTicks": 216,
          "midi": 71,
          "name": "B4",
          "ticks": 7920,
          "time": 5.999994,
          "velocity": 0.6299212598425197
        },
        {
          "duration": 0.1636362,
          "durationTicks": 216,
          "midi": 76,
          "name": "E5",
          "ticks": 7920,
          "time": 5.999994,
          "velocity": 0.6299212598425197
        },
        {
          "duration": 0.1636362,
          "durationTicks": 216,
          "midi": 71,
          "name": "B4",
          "ticks": 8160,
          "time": 6.181812,
          "velocity": 0.6299212598425197
        },
        {
          "duration": 0.1636362,
          "durationTicks": 216,
          "midi": 76,
          "name": "E5",
          "ticks": 8160,
          "time": 6.181812,
          "velocity": 0.6299212598425197
        },
        {
          "duration": 0.16363619999999912,
          "durationTicks": 216,
          "midi": 71,
          "name": "B4",
          "ticks": 8400,
          "time": 6.363630000000001,
          "velocity": 0.6299212598425197
        },
        {
          "duration": 0.16363619999999912,
          "durationTicks": 216,
          "midi": 76,
          "name": "E5",
          "ticks": 8400,
          "time": 6.363630000000001,
          "velocity": 0.6299212598425197
        },
        {
          "duration": 0.1636362,
          "durationTicks": 216,
          "midi": 71,
          "name": "B4",
          "ticks": 8640,
          "time": 6.545448,
          "velocity": 0.6299212598425197
        },
        {
          "duration": 0.1636362,
          "durationTicks": 216,
          "midi": 76,
          "name": "E5",
          "ticks": 8640,
          "time": 6.545448,
          "velocity": 0.6299212598425197
        },
        {
          "duration": 0.1636362,
          "durationTicks": 216,
          "midi": 71,
          "name": "B4",
          "ticks": 8880,
          "time": 6.727266,
          "velocity": 0.6299212598425197
        },
        {
          "duration": 0.1636362,
          "durationTicks": 216,
          "midi": 76,
          "name": "E5",
          "ticks": 8880,
          "time": 6.727266,
          "velocity": 0.6299212598425197
        },
        {
          "duration": 0.1636362,
          "durationTicks": 216,
          "midi": 71,
          "name": "B4",
          "ticks": 9120,
          "time": 6.909084,
          "velocity": 0.6299212598425197
        },
        {
          "duration": 0.1636362,
          "durationTicks": 216,
          "midi": 76,
          "name": "E5",
          "ticks": 9120,
          "time": 6.909084,
          "velocity": 0.6299212598425197
        },
        {
          "duration": 0.16363619999999912,
          "durationTicks": 216,
          "midi": 71,
          "name": "B4",
          "ticks": 9360,
          "time": 7.090902000000001,
          "velocity": 0.6299212598425197
        },
        {
          "duration": 0.16363619999999912,
          "durationTicks": 216,
          "midi": 76,
          "name": "E5",
          "ticks": 9360,
          "time": 7.090902000000001,
          "velocity": 0.6299212598425197
        },
        {
          "duration": 1.309089600000001,
          "durationTicks": 1728,
          "midi": 60,
          "name": "C4",
          "ticks": 9600,
          "time": 7.2727200000000005,
          "velocity": 0.6299212598425197
        },
        {
          "duration": 0.16363619999999912,
          "durationTicks": 216,
          "midi": 67,
          "name": "G4",
          "ticks": 9600,
          "time": 7.2727200000000005,
          "velocity": 0.6299212598425197
        },
        {
          "duration": 0.16363619999999912,
          "durationTicks": 216,
          "midi": 72,
          "name": "C5",
          "ticks": 9600,
          "time": 7.2727200000000005,
          "velocity": 0.6299212598425197
        },
        {
          "duration": 0.1636362,
          "durationTicks": 216,
          "midi": 67,
          "name": "G4",
          "ticks": 9840,
          "time": 7.454538,
          "velocity": 0.6299212598425197
        },
        {
          "duration": 0.1636362,
          "durationTicks": 216,
          "midi": 72,
          "name": "C5",
          "ticks": 9840,
          "time": 7.454538,
          "velocity": 0.6299212598425197
        },
        {
          "duration": 0.1636362,
          "durationTicks": 216,
          "midi": 67,
          "name": "G4",
          "ticks": 10080,
          "time": 7.636356,
          "velocity": 0.6299212598425197
        },
        {
          "duration": 0.1636362,
          "durationTicks": 216,
          "midi": 72,
          "name": "C5",
          "ticks": 10080,
          "time": 7.636356,
          "velocity": 0.6299212598425197
        },
        {
          "duration": 0.1636362,
          "durationTicks": 216,
          "midi": 67,
          "name": "G4",
          "ticks": 10320,
          "time": 7.818174,
          "velocity": 0.6299212598425197
        },
        {
          "duration": 0.1636362,
          "durationTicks": 216,
          "midi": 72,
          "name": "C5",
          "ticks": 10320,
          "time": 7.818174,
          "velocity": 0.6299212598425197
        },
        {
          "duration": 0.16363619999999912,
          "durationTicks": 216,
          "midi": 67,
          "name": "G4",
          "ticks": 10560,
          "time": 7.999992000000001,
          "velocity": 0.6299212598425197
        },
        {
          "duration": 0.16363619999999912,
          "durationTicks": 216,
          "midi": 72,
          "name": "C5",
          "ticks": 10560,
          "time": 7.999992000000001,
          "velocity": 0.6299212598425197
        },
        {
          "duration": 0.16363619999999912,
          "durationTicks": 216,
          "midi": 67,
          "name": "G4",
          "ticks": 10800,
          "time": 8.18181,
          "velocity": 0.6299212598425197
        },
        {
          "duration": 0.16363619999999912,
          "durationTicks": 216,
          "midi": 72,
          "name": "C5",
          "ticks": 10800,
          "time": 8.18181,
          "velocity": 0.6299212598425197
        },
        {
          "duration": 0.16363619999999912,
          "durationTicks": 216,
          "midi": 67,
          "name": "G4",
          "ticks": 11040,
          "time": 8.363628,
          "velocity": 0.6299212598425197
        },
        {
          "duration": 0.16363619999999912,
          "durationTicks": 216,
          "midi": 72,
          "name": "C5",
          "ticks": 11040,
          "time": 8.363628,
          "velocity": 0.6299212598425197
        },
        {
          "duration": 0.16363619999999912,
          "durationTicks": 216,
          "midi": 67,
          "name": "G4",
          "ticks": 11280,
          "time": 8.545446,
          "velocity": 0.6299212598425197
        },
        {
          "duration": 0.16363619999999912,
          "durationTicks": 216,
          "midi": 72,
          "name": "C5",
          "ticks": 11280,
          "time": 8.545446,
          "velocity": 0.6299212598425197
        },
        {
          "duration": 1.3090896000000019,
          "durationTicks": 1728,
          "midi": 55,
          "name": "G3",
          "ticks": 11520,
          "time": 8.727264,
          "velocity": 0.6299212598425197
        },
        {
          "duration": 0.1636362000000009,
          "durationTicks": 216,
          "midi": 62,
          "name": "D4",
          "ticks": 11520,
          "time": 8.727264,
          "velocity": 0.6299212598425197
        },
        {
          "duration": 0.1636362000000009,
          "durationTicks": 216,
          "midi": 67,
          "name": "G4",
          "ticks": 11520,
          "time": 8.727264,
          "velocity": 0.6299212598425197
        },
        {
          "duration": 0.1636362000000009,
          "durationTicks": 216,
          "midi": 62,
          "name": "D4",
          "ticks": 11760,
          "time": 8.909082,
          "velocity": 0.6299212598425197
        },
        {
          "duration": 0.1636362000000009,
          "durationTicks": 216,
          "midi": 67,
          "name": "G4",
          "ticks": 11760,
          "time": 8.909082,
          "velocity": 0.6299212598425197
        },
        {
          "duration": 0.1636362000000009,
          "durationTicks": 216,
          "midi": 62,
          "name": "D4",
          "ticks": 12000,
          "time": 9.0909,
          "velocity": 0.6299212598425197
        },
        {
          "duration": 0.1636362000000009,
          "durationTicks": 216,
          "midi": 67,
          "name": "G4",
          "ticks": 12000,
          "time": 9.0909,
          "velocity": 0.6299212598425197
        },
        {
          "duration": 0.16363619999999912,
          "durationTicks": 216,
          "midi": 62,
          "name": "D4",
          "ticks": 12240,
          "time": 9.272718000000001,
          "velocity": 0.6299212598425197
        },
        {
          "duration": 0.16363619999999912,
          "durationTicks": 216,
          "midi": 67,
          "name": "G4",
          "ticks": 12240,
          "time": 9.272718000000001,
          "velocity": 0.6299212598425197
        },
        {
          "duration": 0.16363619999999912,
          "durationTicks": 216,
          "midi": 62,
          "name": "D4",
          "ticks": 12480,
          "time": 9.454536000000001,
          "velocity": 0.6299212598425197
        },
        {
          "duration": 0.16363619999999912,
          "durationTicks": 216,
          "midi": 67,
          "name": "G4",
          "ticks": 12480,
          "time": 9.454536000000001,
          "velocity": 0.6299212598425197
        },
        {
          "duration": 0.16363619999999912,
          "durationTicks": 216,
          "midi": 62,
          "name": "D4",
          "ticks": 12720,
          "time": 9.636354,
          "velocity": 0.6299212598425197
        },
        {
          "duration": 0.16363619999999912,
          "durationTicks": 216,
          "midi": 67,
          "name": "G4",
          "ticks": 12720,
          "time": 9.636354,
          "velocity": 0.6299212598425197
        },
        {
          "duration": 0.16363619999999912,
          "durationTicks": 216,
          "midi": 62,
          "name": "D4",
          "ticks": 12960,
          "time": 9.818172,
          "velocity": 0.6299212598425197
        },
        {
          "duration": 0.16363619999999912,
          "durationTicks": 216,
          "midi": 67,
          "name": "G4",
          "ticks": 12960,
          "time": 9.818172,
          "velocity": 0.6299212598425197
        },
        {
          "duration": 0.16363619999999912,
          "durationTicks": 216,
          "midi": 62,
          "name": "D4",
          "ticks": 13200,
          "time": 9.99999,
          "velocity": 0.6299212598425197
        },
        {
          "duration": 0.16363619999999912,
          "durationTicks": 216,
          "midi": 67,
          "name": "G4",
          "ticks": 13200,
          "time": 9.99999,
          "velocity": 0.6299212598425197
        },
        {
          "duration": 1.3090896,
          "durationTicks": 1728,
          "midi": 62,
          "name": "D4",
          "ticks": 13440,
          "time": 10.181808,
          "velocity": 0.6299212598425197
        },
        {
          "duration": 0.16363619999999912,
          "durationTicks": 216,
          "midi": 69,
          "name": "A4",
          "ticks": 13440,
          "time": 10.181808,
          "velocity": 0.6299212598425197
        },
        {
          "duration": 0.16363619999999912,
          "durationTicks": 216,
          "midi": 74,
          "name": "D5",
          "ticks": 13440,
          "time": 10.181808,
          "velocity": 0.6299212598425197
        },
        {
          "duration": 0.1636362000000009,
          "durationTicks": 216,
          "midi": 69,
          "name": "A4",
          "ticks": 13680,
          "time": 10.363626,
          "velocity": 0.6299212598425197
        },
        {
          "duration": 0.1636362000000009,
          "durationTicks": 216,
          "midi": 74,
          "name": "D5",
          "ticks": 13680,
          "time": 10.363626,
          "velocity": 0.6299212598425197
        },
        {
          "duration": 0.1636362000000009,
          "durationTicks": 216,
          "midi": 69,
          "name": "A4",
          "ticks": 13920,
          "time": 10.545444,
          "velocity": 0.6299212598425197
        },
        {
          "duration": 0.1636362000000009,
          "durationTicks": 216,
          "midi": 74,
          "name": "D5",
          "ticks": 13920,
          "time": 10.545444,
          "velocity": 0.6299212598425197
        },
        {
          "duration": 0.1636362000000009,
          "durationTicks": 216,
          "midi": 69,
          "name": "A4",
          "ticks": 14160,
          "time": 10.727262,
          "velocity": 0.6299212598425197
        },
        {
          "duration": 0.1636362000000009,
          "durationTicks": 216,
          "midi": 74,
          "name": "D5",
          "ticks": 14160,
          "time": 10.727262,
          "velocity": 0.6299212598425197
        },
        {
          "duration": 0.16363619999999912,
          "durationTicks": 216,
          "midi": 69,
          "name": "A4",
          "ticks": 14400,
          "time": 10.909080000000001,
          "velocity": 0.6299212598425197
        },
        {
          "duration": 0.16363619999999912,
          "durationTicks": 216,
          "midi": 74,
          "name": "D5",
          "ticks": 14400,
          "time": 10.909080000000001,
          "velocity": 0.6299212598425197
        },
        {
          "duration": 0.16363619999999912,
          "durationTicks": 216,
          "midi": 69,
          "name": "A4",
          "ticks": 14640,
          "time": 11.090898000000001,
          "velocity": 0.6299212598425197
        },
        {
          "duration": 0.16363619999999912,
          "durationTicks": 216,
          "midi": 74,
          "name": "D5",
          "ticks": 14640,
          "time": 11.090898000000001,
          "velocity": 0.6299212598425197
        },
        {
          "duration": 0.16363619999999912,
          "durationTicks": 216,
          "midi": 69,
          "name": "A4",
          "ticks": 14880,
          "time": 11.272716,
          "velocity": 0.6299212598425197
        },
        {
          "duration": 0.16363619999999912,
          "durationTicks": 216,
          "midi": 74,
          "name": "D5",
          "ticks": 14880,
          "time": 11.272716,
          "velocity": 0.6299212598425197
        },
        {
          "duration": 0.16363619999999912,
          "durationTicks": 216,
          "midi": 69,
          "name": "A4",
          "ticks": 15120,
          "time": 11.454534,
          "velocity": 0.6299212598425197
        },
        {
          "duration": 0.16363619999999912,
          "durationTicks": 216,
          "midi": 74,
          "name": "D5",
          "ticks": 15120,
          "time": 11.454534,
          "velocity": 0.6299212598425197
        },
        {
          "duration": 0.1636362000000009,
          "durationTicks": 216,
          "midi": 76,
          "name": "E5",
          "ticks": 15360,
          "time": 11.636352,
          "velocity": 0.6299212598425197
        },
        {
          "duration": 0.1636362000000009,
          "durationTicks": 216,
          "midi": 71,
          "name": "B4",
          "ticks": 15360,
          "time": 11.636352,
          "velocity": 0.6299212598425197
        },
        {
          "duration": 0.1636362000000009,
          "durationTicks": 216,
          "midi": 76,
          "name": "E5",
          "ticks": 15600,
          "time": 11.81817,
          "velocity": 0.6299212598425197
        },
        {
          "duration": 0.1636362000000009,
          "durationTicks": 216,
          "midi": 71,
          "name": "B4",
          "ticks": 15600,
          "time": 11.81817,
          "velocity": 0.6299212598425197
        },
        {
          "duration": 0.1636362000000009,
          "durationTicks": 216,
          "midi": 76,
          "name": "E5",
          "ticks": 15840,
          "time": 11.999988,
          "velocity": 0.6299212598425197
        },
        {
          "duration": 0.1636362000000009,
          "durationTicks": 216,
          "midi": 71,
          "name": "B4",
          "ticks": 15840,
          "time": 11.999988,
          "velocity": 0.6299212598425197
        },
        {
          "duration": 0.1636362000000009,
          "durationTicks": 216,
          "midi": 76,
          "name": "E5",
          "ticks": 16080,
          "time": 12.181806,
          "velocity": 0.6299212598425197
        },
        {
          "duration": 0.1636362000000009,
          "durationTicks": 216,
          "midi": 71,
          "name": "B4",
          "ticks": 16080,
          "time": 12.181806,
          "velocity": 0.6299212598425197
        },
        {
          "duration": 0.16363620000000267,
          "durationTicks": 216,
          "midi": 76,
          "name": "E5",
          "ticks": 16320,
          "time": 12.363624,
          "velocity": 0.6299212598425197
        },
        {
          "duration": 0.16363620000000267,
          "durationTicks": 216,
          "midi": 71,
          "name": "B4",
          "ticks": 16320,
          "time": 12.363624,
          "velocity": 0.6299212598425197
        },
        {
          "duration": 0.1636362000000009,
          "durationTicks": 216,
          "midi": 76,
          "name": "E5",
          "ticks": 16560,
          "time": 12.545442000000001,
          "velocity": 0.6299212598425197
        },
        {
          "duration": 0.1636362000000009,
          "durationTicks": 216,
          "midi": 71,
          "name": "B4",
          "ticks": 16560,
          "time": 12.545442000000001,
          "velocity": 0.6299212598425197
        },
        {
          "duration": 0.1636362000000009,
          "durationTicks": 216,
          "midi": 76,
          "name": "E5",
          "ticks": 16800,
          "time": 12.727260000000001,
          "velocity": 0.6299212598425197
        },
        {
          "duration": 0.1636362000000009,
          "durationTicks": 216,
          "midi": 71,
          "name": "B4",
          "ticks": 16800,
          "time": 12.727260000000001,
          "velocity": 0.6299212598425197
        },
        {
          "duration": 0.1636362000000009,
          "durationTicks": 216,
          "midi": 52,
          "name": "E3",
          "ticks": 17040,
          "time": 12.909078000000001,
          "velocity": 0.8661417322834646
        },
        {
          "duration": 0.1636362000000009,
          "durationTicks": 216,
          "midi": 45,
          "name": "A2",
          "ticks": 17040,
          "time": 12.909078000000001,
          "velocity": 0.8661417322834646
        },
        {
          "duration": 0.1636362000000009,
          "durationTicks": 216,
          "midi": 40,
          "name": "E2",
          "ticks": 17040,
          "time": 12.909078000000001,
          "velocity": 0.8661417322834646
        },
        {
          "duration": 0.1636362000000009,
          "durationTicks": 216,
          "midi": 37,
          "name": "C#2",
          "ticks": 17280,
          "time": 13.090896,
          "velocity": 0.6299212598425197
        },
        {
          "duration": 0.1636362000000009,
          "durationTicks": 216,
          "midi": 49,
          "name": "C#3",
          "ticks": 17280,
          "time": 13.090896,
          "velocity": 0.6299212598425197
        },
        {
          "duration": 0.1636362000000009,
          "durationTicks": 216,
          "midi": 44,
          "name": "G#2",
          "ticks": 17520,
          "time": 13.272714,
          "velocity": 0.6299212598425197
        },
        {
          "duration": 0.1636362000000009,
          "durationTicks": 216,
          "midi": 49,
          "name": "C#3",
          "ticks": 17760,
          "time": 13.454532,
          "velocity": 0.6299212598425197
        },
        {
          "duration": 0.1636362000000009,
          "durationTicks": 216,
          "midi": 56,
          "name": "G#3",
          "ticks": 18000,
          "time": 13.63635,
          "velocity": 0.6299212598425197
        },
        {
          "duration": 0.1636362000000009,
          "durationTicks": 216,
          "midi": 61,
          "name": "C#4",
          "ticks": 18240,
          "time": 13.818168,
          "velocity": 0.6299212598425197
        },
        {
          "duration": 0.1636362000000009,
          "durationTicks": 216,
          "midi": 49,
          "name": "C#3",
          "ticks": 18240,
          "time": 13.818168,
          "velocity": 0.6299212598425197
        },
        {
          "duration": 0.16363620000000267,
          "durationTicks": 216,
          "midi": 56,
          "name": "G#3",
          "ticks": 18480,
          "time": 13.999986,
          "velocity": 0.6299212598425197
        },
        {
          "duration": 0.1636362000000009,
          "durationTicks": 216,
          "midi": 61,
          "name": "C#4",
          "ticks": 18720,
          "time": 14.181804000000001,
          "velocity": 0.6299212598425197
        },
        {
          "duration": 0.1636362000000009,
          "durationTicks": 216,
          "midi": 49,
          "name": "C#3",
          "ticks": 18720,
          "time": 14.181804000000001,
          "velocity": 0.6299212598425197
        },
        {
          "duration": 0.1636362000000009,
          "durationTicks": 216,
          "midi": 56,
          "name": "G#3",
          "ticks": 18960,
          "time": 14.363622000000001,
          "velocity": 0.6299212598425197
        },
        {
          "duration": 0.1636362000000009,
          "durationTicks": 216,
          "midi": 33,
          "name": "A1",
          "ticks": 19200,
          "time": 14.545440000000001,
          "velocity": 0.6299212598425197
        },
        {
          "duration": 0.1636362000000009,
          "durationTicks": 216,
          "midi": 45,
          "name": "A2",
          "ticks": 19200,
          "time": 14.545440000000001,
          "velocity": 0.6299212598425197
        },
        {
          "duration": 0.1636362000000009,
          "durationTicks": 216,
          "midi": 40,
          "name": "E2",
          "ticks": 19440,
          "time": 14.727258,
          "velocity": 0.6299212598425197
        },
        {
          "duration": 0.1636362000000009,
          "durationTicks": 216,
          "midi": 45,
          "name": "A2",
          "ticks": 19680,
          "time": 14.909076,
          "velocity": 0.6299212598425197
        },
        {
          "duration": 0.1636362000000009,
          "durationTicks": 216,
          "midi": 52,
          "name": "E3",
          "ticks": 19920,
          "time": 15.090894,
          "velocity": 0.6299212598425197
        },
        {
          "duration": 0.1636362000000009,
          "durationTicks": 216,
          "midi": 57,
          "name": "A3",
          "ticks": 20160,
          "time": 15.272712,
          "velocity": 0.6299212598425197
        },
        {
          "duration": 0.1636362000000009,
          "durationTicks": 216,
          "midi": 45,
          "name": "A2",
          "ticks": 20160,
          "time": 15.272712,
          "velocity": 0.6299212598425197
        },
        {
          "duration": 0.1636362000000009,
          "durationTicks": 216,
          "midi": 52,
          "name": "E3",
          "ticks": 20400,
          "time": 15.45453,
          "velocity": 0.6299212598425197
        },
        {
          "duration": 0.1636362000000009,
          "durationTicks": 216,
          "midi": 57,
          "name": "A3",
          "ticks": 20640,
          "time": 15.636348,
          "velocity": 0.6299212598425197
        },
        {
          "duration": 0.1636362000000009,
          "durationTicks": 216,
          "midi": 45,
          "name": "A2",
          "ticks": 20640,
          "time": 15.636348,
          "velocity": 0.6299212598425197
        },
        {
          "duration": 0.1636362000000009,
          "durationTicks": 216,
          "midi": 52,
          "name": "E3",
          "ticks": 20880,
          "time": 15.818166000000002,
          "velocity": 0.6299212598425197
        },
        {
          "duration": 0.16363619999999912,
          "durationTicks": 216,
          "midi": 52,
          "name": "E3",
          "ticks": 21120,
          "time": 15.999984000000001,
          "velocity": 0.6299212598425197
        },
        {
          "duration": 0.16363619999999912,
          "durationTicks": 216,
          "midi": 40,
          "name": "E2",
          "ticks": 21120,
          "time": 15.999984000000001,
          "velocity": 0.6299212598425197
        },
        {
          "duration": 0.16363619999999912,
          "durationTicks": 216,
          "midi": 47,
          "name": "B2",
          "ticks": 21360,
          "time": 16.181802,
          "velocity": 0.6299212598425197
        },
        {
          "duration": 0.16363619999999912,
          "durationTicks": 216,
          "midi": 52,
          "name": "E3",
          "ticks": 21600,
          "time": 16.36362,
          "velocity": 0.6299212598425197
        },
        {
          "duration": 0.16363620000000267,
          "durationTicks": 216,
          "midi": 59,
          "name": "B3",
          "ticks": 21840,
          "time": 16.545438,
          "velocity": 0.6299212598425197
        },
        {
          "duration": 0.16363620000000267,
          "durationTicks": 216,
          "midi": 64,
          "name": "E4",
          "ticks": 22080,
          "time": 16.727256,
          "velocity": 0.6299212598425197
        },
        {
          "duration": 0.16363620000000267,
          "durationTicks": 216,
          "midi": 52,
          "name": "E3",
          "ticks": 22080,
          "time": 16.727256,
          "velocity": 0.6299212598425197
        },
        {
          "duration": 0.16363620000000267,
          "durationTicks": 216,
          "midi": 59,
          "name": "B3",
          "ticks": 22320,
          "time": 16.909074,
          "velocity": 0.6299212598425197
        },
        {
          "duration": 0.16363620000000267,
          "durationTicks": 216,
          "midi": 64,
          "name": "E4",
          "ticks": 22560,
          "time": 17.090892,
          "velocity": 0.6299212598425197
        },
        {
          "duration": 0.16363620000000267,
          "durationTicks": 216,
          "midi": 52,
          "name": "E3",
          "ticks": 22560,
          "time": 17.090892,
          "velocity": 0.6299212598425197
        },
        {
          "duration": 0.16363620000000267,
          "durationTicks": 216,
          "midi": 59,
          "name": "B3",
          "ticks": 22800,
          "time": 17.27271,
          "velocity": 0.6299212598425197
        },
        {
          "duration": 0.16363620000000267,
          "durationTicks": 216,
          "midi": 35,
          "name": "B1",
          "ticks": 23040,
          "time": 17.454528,
          "velocity": 0.6299212598425197
        },
        {
          "duration": 0.16363620000000267,
          "durationTicks": 216,
          "midi": 47,
          "name": "B2",
          "ticks": 23040,
          "time": 17.454528,
          "velocity": 0.6299212598425197
        },
        {
          "duration": 0.16363620000000267,
          "durationTicks": 216,
          "midi": 42,
          "name": "F#2",
          "ticks": 23280,
          "time": 17.636346,
          "velocity": 0.6299212598425197
        },
        {
          "duration": 0.16363620000000267,
          "durationTicks": 216,
          "midi": 47,
          "name": "B2",
          "ticks": 23520,
          "time": 17.818164,
          "velocity": 0.6299212598425197
        },
        {
          "duration": 0.16363620000000267,
          "durationTicks": 216,
          "midi": 54,
          "name": "F#3",
          "ticks": 23760,
          "time": 17.999982,
          "velocity": 0.6299212598425197
        },
        {
          "duration": 0.16363620000000267,
          "durationTicks": 216,
          "midi": 59,
          "name": "B3",
          "ticks": 24000,
          "time": 18.1818,
          "velocity": 0.6299212598425197
        },
        {
          "duration": 0.16363620000000267,
          "durationTicks": 216,
          "midi": 47,
          "name": "B2",
          "ticks": 24000,
          "time": 18.1818,
          "velocity": 0.6299212598425197
        },
        {
          "duration": 0.16363619999999912,
          "durationTicks": 216,
          "midi": 54,
          "name": "F#3",
          "ticks": 24240,
          "time": 18.363618000000002,
          "velocity": 0.6299212598425197
        },
        {
          "duration": 0.16363619999999912,
          "durationTicks": 216,
          "midi": 59,
          "name": "B3",
          "ticks": 24480,
          "time": 18.545436000000002,
          "velocity": 0.6299212598425197
        },
        {
          "duration": 0.16363619999999912,
          "durationTicks": 216,
          "midi": 47,
          "name": "B2",
          "ticks": 24480,
          "time": 18.545436000000002,
          "velocity": 0.6299212598425197
        },
        {
          "duration": 0.16363619999999912,
          "durationTicks": 216,
          "midi": 54,
          "name": "F#3",
          "ticks": 24720,
          "time": 18.727254000000002,
          "velocity": 0.6299212598425197
        },
        {
          "duration": 0.16363619999999912,
          "durationTicks": 216,
          "midi": 37,
          "name": "C#2",
          "ticks": 24960,
          "time": 18.909072000000002,
          "velocity": 0.6299212598425197
        },
        {
          "duration": 0.16363619999999912,
          "durationTicks": 216,
          "midi": 49,
          "name": "C#3",
          "ticks": 25200,
          "time": 19.09089,
          "velocity": 0.6299212598425197
        },
        {
          "duration": 0.16363619999999912,
          "durationTicks": 216,
          "midi": 56,
          "name": "G#3",
          "ticks": 25440,
          "time": 19.272708,
          "velocity": 0.6299212598425197
        },
        {
          "duration": 0.16363619999999912,
          "durationTicks": 216,
          "midi": 61,
          "name": "C#4",
          "ticks": 25680,
          "time": 19.454526,
          "velocity": 0.6299212598425197
        },
        {
          "duration": 0.16363619999999912,
          "durationTicks": 216,
          "midi": 49,
          "name": "C#3",
          "ticks": 25920,
          "time": 19.636344,
          "velocity": 0.6299212598425197
        },
        {
          "duration": 0.16363620000000267,
          "durationTicks": 216,
          "midi": 61,
          "name": "C#4",
          "ticks": 26160,
          "time": 19.818162,
          "velocity": 0.6299212598425197
        },
        {
          "duration": 0.16363620000000267,
          "durationTicks": 216,
          "midi": 56,
          "name": "G#3",
          "ticks": 26400,
          "time": 19.99998,
          "velocity": 0.6299212598425197
        },
        {
          "duration": 0.16363620000000267,
          "durationTicks": 216,
          "midi": 49,
          "name": "C#3",
          "ticks": 26640,
          "time": 20.181798,
          "velocity": 0.6299212598425197
        },
        {
          "duration": 0.16363620000000267,
          "durationTicks": 216,
          "midi": 33,
          "name": "A1",
          "ticks": 26880,
          "time": 20.363616,
          "velocity": 0.6299212598425197
        },
        {
          "duration": 0.16363620000000267,
          "durationTicks": 216,
          "midi": 45,
          "name": "A2",
          "ticks": 27120,
          "time": 20.545434,
          "velocity": 0.6299212598425197
        },
        {
          "duration": 0.16363620000000267,
          "durationTicks": 216,
          "midi": 52,
          "name": "E3",
          "ticks": 27360,
          "time": 20.727252,
          "velocity": 0.6299212598425197
        },
        {
          "duration": 0.16363620000000267,
          "durationTicks": 216,
          "midi": 57,
          "name": "A3",
          "ticks": 27600,
          "time": 20.90907,
          "velocity": 0.6299212598425197
        },
        {
          "duration": 0.16363620000000267,
          "durationTicks": 216,
          "midi": 45,
          "name": "A2",
          "ticks": 27840,
          "time": 21.090888,
          "velocity": 0.6299212598425197
        },
        {
          "duration": 0.16363620000000267,
          "durationTicks": 216,
          "midi": 57,
          "name": "A3",
          "ticks": 28080,
          "time": 21.272706,
          "velocity": 0.6299212598425197
        },
        {
          "duration": 0.16363620000000267,
          "durationTicks": 216,
          "midi": 52,
          "name": "E3",
          "ticks": 28320,
          "time": 21.454524,
          "velocity": 0.6299212598425197
        },
        {
          "duration": 0.16363619999999912,
          "durationTicks": 216,
          "midi": 45,
          "name": "A2",
          "ticks": 28560,
          "time": 21.636342000000003,
          "velocity": 0.6299212598425197
        },
        {
          "duration": 0.16363619999999912,
          "durationTicks": 216,
          "midi": 40,
          "name": "E2",
          "ticks": 28800,
          "time": 21.818160000000002,
          "velocity": 0.6299212598425197
        },
        {
          "duration": 0.16363619999999912,
          "durationTicks": 216,
          "midi": 52,
          "name": "E3",
          "ticks": 29040,
          "time": 21.999978000000002,
          "velocity": 0.6299212598425197
        },
        {
          "duration": 0.16363619999999912,
          "durationTicks": 216,
          "midi": 59,
          "name": "B3",
          "ticks": 29280,
          "time": 22.181796000000002,
          "velocity": 0.6299212598425197
        },
        {
          "duration": 0.16363619999999912,
          "durationTicks": 216,
          "midi": 64,
          "name": "E4",
          "ticks": 29520,
          "time": 22.363614000000002,
          "velocity": 0.6299212598425197
        },
        {
          "duration": 0.16363619999999912,
          "durationTicks": 216,
          "midi": 52,
          "name": "E3",
          "ticks": 29760,
          "time": 22.545432,
          "velocity": 0.6299212598425197
        },
        {
          "duration": 0.16363619999999912,
          "durationTicks": 216,
          "midi": 64,
          "name": "E4",
          "ticks": 30000,
          "time": 22.72725,
          "velocity": 0.6299212598425197
        },
        {
          "duration": 0.16363619999999912,
          "durationTicks": 216,
          "midi": 59,
          "name": "B3",
          "ticks": 30240,
          "time": 22.909068,
          "velocity": 0.6299212598425197
        },
        {
          "duration": 0.16363619999999912,
          "durationTicks": 216,
          "midi": 52,
          "name": "E3",
          "ticks": 30480,
          "time": 23.090886,
          "velocity": 0.6299212598425197
        },
        {
          "duration": 0.16363620000000267,
          "durationTicks": 216,
          "midi": 35,
          "name": "B1",
          "ticks": 30720,
          "time": 23.272704,
          "velocity": 0.6299212598425197
        },
        {
          "duration": 0.16363620000000267,
          "durationTicks": 216,
          "midi": 47,
          "name": "B2",
          "ticks": 30960,
          "time": 23.454522,
          "velocity": 0.6299212598425197
        },
        {
          "duration": 0.16363620000000267,
          "durationTicks": 216,
          "midi": 54,
          "name": "F#3",
          "ticks": 31200,
          "time": 23.63634,
          "velocity": 0.6299212598425197
        },
        {
          "duration": 0.16363620000000267,
          "durationTicks": 216,
          "midi": 59,
          "name": "B3",
          "ticks": 31440,
          "time": 23.818158,
          "velocity": 0.6299212598425197
        },
        {
          "duration": 0.16363620000000267,
          "durationTicks": 216,
          "midi": 47,
          "name": "B2",
          "ticks": 31680,
          "time": 23.999976,
          "velocity": 0.6299212598425197
        },
        {
          "duration": 0.16363620000000267,
          "durationTicks": 216,
          "midi": 59,
          "name": "B3",
          "ticks": 31920,
          "time": 24.181794,
          "velocity": 0.6299212598425197
        },
        {
          "duration": 0.16363620000000267,
          "durationTicks": 216,
          "midi": 54,
          "name": "F#3",
          "ticks": 32160,
          "time": 24.363612,
          "velocity": 0.6299212598425197
        },
        {
          "duration": 0.16363620000000267,
          "durationTicks": 216,
          "midi": 47,
          "name": "B2",
          "ticks": 32400,
          "time": 24.54543,
          "velocity": 0.6299212598425197
        },
        {
          "duration": 0.16363620000000267,
          "durationTicks": 216,
          "midi": 37,
          "name": "C#2",
          "ticks": 32640,
          "time": 24.727248,
          "velocity": 0.6299212598425197
        },
        {
          "duration": 0.16363620000000267,
          "durationTicks": 216,
          "midi": 49,
          "name": "C#3",
          "ticks": 32880,
          "time": 24.909066,
          "velocity": 0.6299212598425197
        },
        {
          "duration": 0.16363619999999912,
          "durationTicks": 216,
          "midi": 56,
          "name": "G#3",
          "ticks": 33120,
          "time": 25.090884000000003,
          "velocity": 0.6299212598425197
        },
        {
          "duration": 0.16363619999999912,
          "durationTicks": 216,
          "midi": 61,
          "name": "C#4",
          "ticks": 33360,
          "time": 25.272702000000002,
          "velocity": 0.6299212598425197
        },
        {
          "duration": 0.16363619999999912,
          "durationTicks": 216,
          "midi": 49,
          "name": "C#3",
          "ticks": 33600,
          "time": 25.454520000000002,
          "velocity": 0.6299212598425197
        },
        {
          "duration": 0.16363619999999912,
          "durationTicks": 216,
          "midi": 61,
          "name": "C#4",
          "ticks": 33840,
          "time": 25.636338000000002,
          "velocity": 0.6299212598425197
        },
        {
          "duration": 0.16363619999999912,
          "durationTicks": 216,
          "midi": 56,
          "name": "G#3",
          "ticks": 34080,
          "time": 25.818156000000002,
          "velocity": 0.6299212598425197
        },
        {
          "duration": 0.16363619999999912,
          "durationTicks": 216,
          "midi": 49,
          "name": "C#3",
          "ticks": 34320,
          "time": 25.999974,
          "velocity": 0.6299212598425197
        },
        {
          "duration": 0.16363619999999912,
          "durationTicks": 216,
          "midi": 33,
          "name": "A1",
          "ticks": 34560,
          "time": 26.181792,
          "velocity": 0.6299212598425197
        },
        {
          "duration": 0.16363619999999912,
          "durationTicks": 216,
          "midi": 45,
          "name": "A2",
          "ticks": 34800,
          "time": 26.36361,
          "velocity": 0.6299212598425197
        },
        {
          "duration": 0.16363620000000267,
          "durationTicks": 216,
          "midi": 52,
          "name": "E3",
          "ticks": 35040,
          "time": 26.545428,
          "velocity": 0.6299212598425197
        },
        {
          "duration": 0.16363620000000267,
          "durationTicks": 216,
          "midi": 57,
          "name": "A3",
          "ticks": 35280,
          "time": 26.727246,
          "velocity": 0.6299212598425197
        },
        {
          "duration": 0.16363620000000267,
          "durationTicks": 216,
          "midi": 45,
          "name": "A2",
          "ticks": 35520,
          "time": 26.909064,
          "velocity": 0.6299212598425197
        },
        {
          "duration": 0.16363620000000267,
          "durationTicks": 216,
          "midi": 57,
          "name": "A3",
          "ticks": 35760,
          "time": 27.090882,
          "velocity": 0.6299212598425197
        },
        {
          "duration": 0.16363620000000267,
          "durationTicks": 216,
          "midi": 52,
          "name": "E3",
          "ticks": 36000,
          "time": 27.2727,
          "velocity": 0.6299212598425197
        },
        {
          "duration": 0.16363620000000267,
          "durationTicks": 216,
          "midi": 45,
          "name": "A2",
          "ticks": 36240,
          "time": 27.454518,
          "velocity": 0.6299212598425197
        },
        {
          "duration": 0.16363620000000267,
          "durationTicks": 216,
          "midi": 40,
          "name": "E2",
          "ticks": 36480,
          "time": 27.636336,
          "velocity": 0.6299212598425197
        },
        {
          "duration": 0.16363620000000267,
          "durationTicks": 216,
          "midi": 52,
          "name": "E3",
          "ticks": 36720,
          "time": 27.818154,
          "velocity": 0.6299212598425197
        },
        {
          "duration": 0.16363620000000267,
          "durationTicks": 216,
          "midi": 59,
          "name": "B3",
          "ticks": 36960,
          "time": 27.999972,
          "velocity": 0.6299212598425197
        },
        {
          "duration": 0.16363620000000267,
          "durationTicks": 216,
          "midi": 64,
          "name": "E4",
          "ticks": 37200,
          "time": 28.18179,
          "velocity": 0.6299212598425197
        },
        {
          "duration": 0.16363619999999912,
          "durationTicks": 216,
          "midi": 52,
          "name": "E3",
          "ticks": 37440,
          "time": 28.363608000000003,
          "velocity": 0.6299212598425197
        },
        {
          "duration": 0.16363619999999912,
          "durationTicks": 216,
          "midi": 64,
          "name": "E4",
          "ticks": 37680,
          "time": 28.545426000000003,
          "velocity": 0.6299212598425197
        },
        {
          "duration": 0.16363619999999912,
          "durationTicks": 216,
          "midi": 59,
          "name": "B3",
          "ticks": 37920,
          "time": 28.727244000000002,
          "velocity": 0.6299212598425197
        },
        {
          "duration": 0.16363619999999912,
          "durationTicks": 216,
          "midi": 52,
          "name": "E3",
          "ticks": 38160,
          "time": 28.909062000000002,
          "velocity": 0.6299212598425197
        },
        {
          "duration": 0.16363619999999912,
          "durationTicks": 216,
          "midi": 35,
          "name": "B1",
          "ticks": 38400,
          "time": 29.090880000000002,
          "velocity": 0.6299212598425197
        },
        {
          "duration": 0.16363619999999912,
          "durationTicks": 216,
          "midi": 47,
          "name": "B2",
          "ticks": 38640,
          "time": 29.272698000000002,
          "velocity": 0.6299212598425197
        },
        {
          "duration": 0.16363619999999912,
          "durationTicks": 216,
          "midi": 54,
          "name": "F#3",
          "ticks": 38880,
          "time": 29.454516,
          "velocity": 0.6299212598425197
        },
        {
          "duration": 0.16363619999999912,
          "durationTicks": 216,
          "midi": 59,
          "name": "B3",
          "ticks": 39120,
          "time": 29.636334,
          "velocity": 0.6299212598425197
        },
        {
          "duration": 0.16363620000000267,
          "durationTicks": 216,
          "midi": 47,
          "name": "B2",
          "ticks": 39360,
          "time": 29.818152,
          "velocity": 0.6299212598425197
        },
        {
          "duration": 0.16363620000000267,
          "durationTicks": 216,
          "midi": 59,
          "name": "B3",
          "ticks": 39600,
          "time": 29.99997,
          "velocity": 0.6299212598425197
        },
        {
          "duration": 0.16363620000000267,
          "durationTicks": 216,
          "midi": 54,
          "name": "F#3",
          "ticks": 39840,
          "time": 30.181788,
          "velocity": 0.6299212598425197
        },
        {
          "duration": 0.16363620000000267,
          "durationTicks": 216,
          "midi": 47,
          "name": "B2",
          "ticks": 40080,
          "time": 30.363606,
          "velocity": 0.6299212598425197
        },
        {
          "duration": 0.16363620000000267,
          "durationTicks": 216,
          "midi": 37,
          "name": "C#2",
          "ticks": 40320,
          "time": 30.545424,
          "velocity": 0.6299212598425197
        },
        {
          "duration": 0.16363620000000267,
          "durationTicks": 216,
          "midi": 49,
          "name": "C#3",
          "ticks": 40560,
          "time": 30.727242,
          "velocity": 0.6299212598425197
        },
        {
          "duration": 0.16363620000000267,
          "durationTicks": 216,
          "midi": 56,
          "name": "G#3",
          "ticks": 40800,
          "time": 30.90906,
          "velocity": 0.6299212598425197
        },
        {
          "duration": 0.16363620000000267,
          "durationTicks": 216,
          "midi": 61,
          "name": "C#4",
          "ticks": 41040,
          "time": 31.090878,
          "velocity": 0.6299212598425197
        },
        {
          "duration": 0.16363620000000267,
          "durationTicks": 216,
          "midi": 49,
          "name": "C#3",
          "ticks": 41280,
          "time": 31.272696,
          "velocity": 0.6299212598425197
        },
        {
          "duration": 0.16363620000000267,
          "durationTicks": 216,
          "midi": 61,
          "name": "C#4",
          "ticks": 41520,
          "time": 31.454514,
          "velocity": 0.6299212598425197
        },
        {
          "duration": 0.16363619999999912,
          "durationTicks": 216,
          "midi": 56,
          "name": "G#3",
          "ticks": 41760,
          "time": 31.636332000000003,
          "velocity": 0.6299212598425197
        },
        {
          "duration": 0.16363619999999912,
          "durationTicks": 216,
          "midi": 49,
          "name": "C#3",
          "ticks": 42000,
          "time": 31.818150000000003,
          "velocity": 0.6299212598425197
        },
        {
          "duration": 0.16363619999999912,
          "durationTicks": 216,
          "midi": 33,
          "name": "A1",
          "ticks": 42240,
          "time": 31.999968000000003,
          "velocity": 0.6299212598425197
        },
        {
          "duration": 0.16363619999999912,
          "durationTicks": 216,
          "midi": 45,
          "name": "A2",
          "ticks": 42480,
          "time": 32.181786,
          "velocity": 0.6299212598425197
        },
        {
          "duration": 0.16363619999999912,
          "durationTicks": 216,
          "midi": 52,
          "name": "E3",
          "ticks": 42720,
          "time": 32.363604,
          "velocity": 0.6299212598425197
        },
        {
          "duration": 0.16363619999999912,
          "durationTicks": 216,
          "midi": 57,
          "name": "A3",
          "ticks": 42960,
          "time": 32.545422,
          "velocity": 0.6299212598425197
        },
        {
          "duration": 0.16363619999999912,
          "durationTicks": 216,
          "midi": 45,
          "name": "A2",
          "ticks": 43200,
          "time": 32.72724,
          "velocity": 0.6299212598425197
        },
        {
          "duration": 0.16363619999999912,
          "durationTicks": 216,
          "midi": 57,
          "name": "A3",
          "ticks": 43440,
          "time": 32.909058,
          "velocity": 0.6299212598425197
        },
        {
          "duration": 0.16363619999999912,
          "durationTicks": 216,
          "midi": 52,
          "name": "E3",
          "ticks": 43680,
          "time": 33.090876,
          "velocity": 0.6299212598425197
        },
        {
          "duration": 0.16363619999999912,
          "durationTicks": 216,
          "midi": 45,
          "name": "A2",
          "ticks": 43920,
          "time": 33.272694,
          "velocity": 0.6299212598425197
        },
        {
          "duration": 0.16363619999999912,
          "durationTicks": 216,
          "midi": 40,
          "name": "E2",
          "ticks": 44160,
          "time": 33.454512,
          "velocity": 0.6299212598425197
        },
        {
          "duration": 0.16363619999999912,
          "durationTicks": 216,
          "midi": 52,
          "name": "E3",
          "ticks": 44400,
          "time": 33.63633,
          "velocity": 0.6299212598425197
        },
        {
          "duration": 0.16363619999999912,
          "durationTicks": 216,
          "midi": 59,
          "name": "B3",
          "ticks": 44640,
          "time": 33.818148,
          "velocity": 0.6299212598425197
        },
        {
          "duration": 0.16363619999999912,
          "durationTicks": 216,
          "midi": 64,
          "name": "E4",
          "ticks": 44880,
          "time": 33.999966,
          "velocity": 0.6299212598425197
        },
        {
          "duration": 0.16363619999999912,
          "durationTicks": 216,
          "midi": 52,
          "name": "E3",
          "ticks": 45120,
          "time": 34.181784,
          "velocity": 0.6299212598425197
        },
        {
          "duration": 0.16363619999999912,
          "durationTicks": 216,
          "midi": 64,
          "name": "E4",
          "ticks": 45360,
          "time": 34.363602,
          "velocity": 0.6299212598425197
        },
        {
          "duration": 0.16363619999999912,
          "durationTicks": 216,
          "midi": 59,
          "name": "B3",
          "ticks": 45600,
          "time": 34.54542,
          "velocity": 0.6299212598425197
        },
        {
          "duration": 0.16363619999999912,
          "durationTicks": 216,
          "midi": 52,
          "name": "E3",
          "ticks": 45840,
          "time": 34.727238,
          "velocity": 0.6299212598425197
        },
        {
          "duration": 0.16363620000000623,
          "durationTicks": 216,
          "midi": 35,
          "name": "B1",
          "ticks": 46080,
          "time": 34.909056,
          "velocity": 0.6299212598425197
        },
        {
          "duration": 0.16363620000000623,
          "durationTicks": 216,
          "midi": 47,
          "name": "B2",
          "ticks": 46320,
          "time": 35.090874,
          "velocity": 0.6299212598425197
        },
        {
          "duration": 0.16363620000000623,
          "durationTicks": 216,
          "midi": 54,
          "name": "F#3",
          "ticks": 46560,
          "time": 35.272692,
          "velocity": 0.6299212598425197
        },
        {
          "duration": 0.16363620000000623,
          "durationTicks": 216,
          "midi": 59,
          "name": "B3",
          "ticks": 46800,
          "time": 35.45451,
          "velocity": 0.6299212598425197
        },
        {
          "duration": 0.16363620000000623,
          "durationTicks": 216,
          "midi": 47,
          "name": "B2",
          "ticks": 47040,
          "time": 35.636328,
          "velocity": 0.6299212598425197
        },
        {
          "duration": 0.16363620000000623,
          "durationTicks": 216,
          "midi": 59,
          "name": "B3",
          "ticks": 47280,
          "time": 35.818146,
          "velocity": 0.6299212598425197
        },
        {
          "duration": 0.16363620000000623,
          "durationTicks": 216,
          "midi": 54,
          "name": "F#3",
          "ticks": 47520,
          "time": 35.999964,
          "velocity": 0.6299212598425197
        },
        {
          "duration": 0.16363620000000623,
          "durationTicks": 216,
          "midi": 47,
          "name": "B2",
          "ticks": 47760,
          "time": 36.181782,
          "velocity": 0.6299212598425197
        },
        {
          "duration": 0.16363620000000623,
          "durationTicks": 216,
          "midi": 37,
          "name": "C#2",
          "ticks": 48000,
          "time": 36.3636,
          "velocity": 0.6299212598425197
        },
        {
          "duration": 0.16363620000000623,
          "durationTicks": 216,
          "midi": 49,
          "name": "C#3",
          "ticks": 48240,
          "time": 36.545418,
          "velocity": 0.6299212598425197
        },
        {
          "duration": 0.16363619999999912,
          "durationTicks": 216,
          "midi": 56,
          "name": "G#3",
          "ticks": 48480,
          "time": 36.727236000000005,
          "velocity": 0.6299212598425197
        },
        {
          "duration": 0.16363619999999912,
          "durationTicks": 216,
          "midi": 61,
          "name": "C#4",
          "ticks": 48720,
          "time": 36.909054000000005,
          "velocity": 0.6299212598425197
        },
        {
          "duration": 0.16363619999999912,
          "durationTicks": 216,
          "midi": 49,
          "name": "C#3",
          "ticks": 48960,
          "time": 37.090872000000005,
          "velocity": 0.6299212598425197
        },
        {
          "duration": 0.16363619999999912,
          "durationTicks": 216,
          "midi": 61,
          "name": "C#4",
          "ticks": 49200,
          "time": 37.272690000000004,
          "velocity": 0.6299212598425197
        },
        {
          "duration": 0.16363619999999912,
          "durationTicks": 216,
          "midi": 56,
          "name": "G#3",
          "ticks": 49440,
          "time": 37.454508000000004,
          "velocity": 0.6299212598425197
        },
        {
          "duration": 0.16363619999999912,
          "durationTicks": 216,
          "midi": 49,
          "name": "C#3",
          "ticks": 49680,
          "time": 37.636326000000004,
          "velocity": 0.6299212598425197
        },
        {
          "duration": 0.16363619999999912,
          "durationTicks": 216,
          "midi": 33,
          "name": "A1",
          "ticks": 49920,
          "time": 37.818144000000004,
          "velocity": 0.6299212598425197
        },
        {
          "duration": 0.16363619999999912,
          "durationTicks": 216,
          "midi": 45,
          "name": "A2",
          "ticks": 50160,
          "time": 37.999962000000004,
          "velocity": 0.6299212598425197
        },
        {
          "duration": 0.16363619999999912,
          "durationTicks": 216,
          "midi": 52,
          "name": "E3",
          "ticks": 50400,
          "time": 38.18178,
          "velocity": 0.6299212598425197
        },
        {
          "duration": 0.16363619999999912,
          "durationTicks": 216,
          "midi": 57,
          "name": "A3",
          "ticks": 50640,
          "time": 38.363598,
          "velocity": 0.6299212598425197
        },
        {
          "duration": 0.16363619999999912,
          "durationTicks": 216,
          "midi": 45,
          "name": "A2",
          "ticks": 50880,
          "time": 38.545416,
          "velocity": 0.6299212598425197
        },
        {
          "duration": 0.16363619999999912,
          "durationTicks": 216,
          "midi": 57,
          "name": "A3",
          "ticks": 51120,
          "time": 38.727234,
          "velocity": 0.6299212598425197
        },
        {
          "duration": 0.16363619999999912,
          "durationTicks": 216,
          "midi": 52,
          "name": "E3",
          "ticks": 51360,
          "time": 38.909052,
          "velocity": 0.6299212598425197
        },
        {
          "duration": 0.16363619999999912,
          "durationTicks": 216,
          "midi": 45,
          "name": "A2",
          "ticks": 51600,
          "time": 39.09087,
          "velocity": 0.6299212598425197
        },
        {
          "duration": 0.16363619999999912,
          "durationTicks": 216,
          "midi": 35,
          "name": "B1",
          "ticks": 51840,
          "time": 39.272688,
          "velocity": 0.6299212598425197
        },
        {
          "duration": 0.16363619999999912,
          "durationTicks": 216,
          "midi": 47,
          "name": "B2",
          "ticks": 52080,
          "time": 39.454506,
          "velocity": 0.6299212598425197
        },
        {
          "duration": 0.16363619999999912,
          "durationTicks": 216,
          "midi": 54,
          "name": "F#3",
          "ticks": 52320,
          "time": 39.636324,
          "velocity": 0.6299212598425197
        },
        {
          "duration": 0.16363619999999912,
          "durationTicks": 216,
          "midi": 59,
          "name": "B3",
          "ticks": 52560,
          "time": 39.818142,
          "velocity": 0.6299212598425197
        },
        {
          "duration": 0.16363619999999912,
          "durationTicks": 216,
          "midi": 47,
          "name": "B2",
          "ticks": 52800,
          "time": 39.99996,
          "velocity": 0.6299212598425197
        },
        {
          "duration": 0.16363619999999912,
          "durationTicks": 216,
          "midi": 59,
          "name": "B3",
          "ticks": 53040,
          "time": 40.181778,
          "velocity": 0.6299212598425197
        },
        {
          "duration": 0.16363619999999912,
          "durationTicks": 216,
          "midi": 54,
          "name": "F#3",
          "ticks": 53280,
          "time": 40.363596,
          "velocity": 0.6299212598425197
        },
        {
          "duration": 0.16363619999999912,
          "durationTicks": 216,
          "midi": 47,
          "name": "B2",
          "ticks": 53520,
          "time": 40.545414,
          "velocity": 0.6299212598425197
        },
        {
          "duration": 0.16363619999999912,
          "durationTicks": 216,
          "midi": 35,
          "name": "B1",
          "ticks": 53760,
          "time": 40.727232,
          "velocity": 0.6299212598425197
        },
        {
          "duration": 0.16363619999999912,
          "durationTicks": 216,
          "midi": 47,
          "name": "B2",
          "ticks": 53760,
          "time": 40.727232,
          "velocity": 0.6299212598425197
        },
        {
          "duration": 0.16363619999999912,
          "durationTicks": 216,
          "midi": 35,
          "name": "B1",
          "ticks": 54000,
          "time": 40.90905,
          "velocity": 0.6299212598425197
        },
        {
          "duration": 0.16363619999999912,
          "durationTicks": 216,
          "midi": 47,
          "name": "B2",
          "ticks": 54000,
          "time": 40.90905,
          "velocity": 0.6299212598425197
        },
        {
          "duration": 0.16363619999999912,
          "durationTicks": 216,
          "midi": 35,
          "name": "B1",
          "ticks": 54240,
          "time": 41.090868,
          "velocity": 0.6299212598425197
        },
        {
          "duration": 0.16363619999999912,
          "durationTicks": 216,
          "midi": 47,
          "name": "B2",
          "ticks": 54240,
          "time": 41.090868,
          "velocity": 0.6299212598425197
        },
        {
          "duration": 0.16363619999999912,
          "durationTicks": 216,
          "midi": 35,
          "name": "B1",
          "ticks": 54480,
          "time": 41.272686,
          "velocity": 0.6299212598425197
        },
        {
          "duration": 0.16363619999999912,
          "durationTicks": 216,
          "midi": 47,
          "name": "B2",
          "ticks": 54480,
          "time": 41.272686,
          "velocity": 0.6299212598425197
        },
        {
          "duration": 0.16363620000000623,
          "durationTicks": 216,
          "midi": 35,
          "name": "B1",
          "ticks": 54720,
          "time": 41.454504,
          "velocity": 0.6299212598425197
        },
        {
          "duration": 0.16363620000000623,
          "durationTicks": 216,
          "midi": 47,
          "name": "B2",
          "ticks": 54720,
          "time": 41.454504,
          "velocity": 0.6299212598425197
        },
        {
          "duration": 0.16363620000000623,
          "durationTicks": 216,
          "midi": 35,
          "name": "B1",
          "ticks": 54960,
          "time": 41.636322,
          "velocity": 0.6299212598425197
        },
        {
          "duration": 0.16363620000000623,
          "durationTicks": 216,
          "midi": 47,
          "name": "B2",
          "ticks": 54960,
          "time": 41.636322,
          "velocity": 0.6299212598425197
        },
        {
          "duration": 0.16363620000000623,
          "durationTicks": 216,
          "midi": 35,
          "name": "B1",
          "ticks": 55200,
          "time": 41.81814,
          "velocity": 0.6299212598425197
        },
        {
          "duration": 0.16363620000000623,
          "durationTicks": 216,
          "midi": 47,
          "name": "B2",
          "ticks": 55200,
          "time": 41.81814,
          "velocity": 0.6299212598425197
        },
        {
          "duration": 0.16363620000000623,
          "durationTicks": 216,
          "midi": 35,
          "name": "B1",
          "ticks": 55440,
          "time": 41.999958,
          "velocity": 0.6299212598425197
        },
        {
          "duration": 0.16363620000000623,
          "durationTicks": 216,
          "midi": 47,
          "name": "B2",
          "ticks": 55440,
          "time": 41.999958,
          "velocity": 0.6299212598425197
        },
        {
          "duration": 0.32727240000000535,
          "durationTicks": 432,
          "midi": 33,
          "name": "A1",
          "ticks": 55680,
          "time": 42.181776,
          "velocity": 0.8661417322834646
        },
        {
          "duration": 0.32727240000000535,
          "durationTicks": 432,
          "midi": 45,
          "name": "A2",
          "ticks": 55680,
          "time": 42.181776,
          "velocity": 0.8661417322834646
        },
        {
          "duration": 0.32727240000000535,
          "durationTicks": 432,
          "midi": 45,
          "name": "A2",
          "ticks": 56160,
          "time": 42.545412,
          "velocity": 0.6299212598425197
        },
        {
          "duration": 0.32727240000000535,
          "durationTicks": 432,
          "midi": 57,
          "name": "A3",
          "ticks": 56640,
          "time": 42.909048,
          "velocity": 0.6299212598425197
        },
        {
          "duration": 0.32727240000000535,
          "durationTicks": 432,
          "midi": 52,
          "name": "E3",
          "ticks": 56640,
          "time": 42.909048,
          "velocity": 0.6299212598425197
        },
        {
          "duration": 0.32727239999999824,
          "durationTicks": 432,
          "midi": 45,
          "name": "A2",
          "ticks": 57120,
          "time": 43.272684000000005,
          "velocity": 0.6299212598425197
        },
        {
          "duration": 0.32727239999999824,
          "durationTicks": 432,
          "midi": 35,
          "name": "B1",
          "ticks": 57600,
          "time": 43.636320000000005,
          "velocity": 0.8661417322834646
        },
        {
          "duration": 0.32727239999999824,
          "durationTicks": 432,
          "midi": 47,
          "name": "B2",
          "ticks": 57600,
          "time": 43.636320000000005,
          "velocity": 0.8661417322834646
        },
        {
          "duration": 0.32727239999999824,
          "durationTicks": 432,
          "midi": 47,
          "name": "B2",
          "ticks": 58080,
          "time": 43.999956000000005,
          "velocity": 0.6299212598425197
        },
        {
          "duration": 0.32727239999999824,
          "durationTicks": 432,
          "midi": 59,
          "name": "B3",
          "ticks": 58560,
          "time": 44.363592000000004,
          "velocity": 0.6299212598425197
        },
        {
          "duration": 0.32727239999999824,
          "durationTicks": 432,
          "midi": 54,
          "name": "F#3",
          "ticks": 58560,
          "time": 44.363592000000004,
          "velocity": 0.6299212598425197
        },
        {
          "duration": 0.32727239999999824,
          "durationTicks": 432,
          "midi": 47,
          "name": "B2",
          "ticks": 59040,
          "time": 44.727228000000004,
          "velocity": 0.6299212598425197
        },
        {
          "duration": 0.32727239999999824,
          "durationTicks": 432,
          "midi": 37,
          "name": "C#2",
          "ticks": 59520,
          "time": 45.090864,
          "velocity": 0.8661417322834646
        },
        {
          "duration": 0.32727239999999824,
          "durationTicks": 432,
          "midi": 49,
          "name": "C#3",
          "ticks": 59520,
          "time": 45.090864,
          "velocity": 0.8661417322834646
        },
        {
          "duration": 0.32727239999999824,
          "durationTicks": 432,
          "midi": 49,
          "name": "C#3",
          "ticks": 60000,
          "time": 45.4545,
          "velocity": 0.6299212598425197
        },
        {
          "duration": 0.32727239999999824,
          "durationTicks": 432,
          "midi": 61,
          "name": "C#4",
          "ticks": 60480,
          "time": 45.818136,
          "velocity": 0.6299212598425197
        },
        {
          "duration": 0.32727239999999824,
          "durationTicks": 432,
          "midi": 56,
          "name": "G#3",
          "ticks": 60480,
          "time": 45.818136,
          "velocity": 0.6299212598425197
        },
        {
          "duration": 0.32727239999999824,
          "durationTicks": 432,
          "midi": 49,
          "name": "C#3",
          "ticks": 60960,
          "time": 46.181772,
          "velocity": 0.6299212598425197
        },
        {
          "duration": 0.32727240000000535,
          "durationTicks": 432,
          "midi": 35,
          "name": "B1",
          "ticks": 61440,
          "time": 46.545408,
          "velocity": 0.8661417322834646
        },
        {
          "duration": 0.32727240000000535,
          "durationTicks": 432,
          "midi": 47,
          "name": "B2",
          "ticks": 61440,
          "time": 46.545408,
          "velocity": 0.8661417322834646
        },
        {
          "duration": 0.32727240000000535,
          "durationTicks": 432,
          "midi": 47,
          "name": "B2",
          "ticks": 61920,
          "time": 46.909044,
          "velocity": 0.6299212598425197
        },
        {
          "duration": 0.32727240000000535,
          "durationTicks": 432,
          "midi": 59,
          "name": "B3",
          "ticks": 62400,
          "time": 47.27268,
          "velocity": 0.6299212598425197
        },
        {
          "duration": 0.32727240000000535,
          "durationTicks": 432,
          "midi": 54,
          "name": "F#3",
          "ticks": 62400,
          "time": 47.27268,
          "velocity": 0.6299212598425197
        },
        {
          "duration": 0.32727240000000535,
          "durationTicks": 432,
          "midi": 47,
          "name": "B2",
          "ticks": 62880,
          "time": 47.636316,
          "velocity": 0.6299212598425197
        },
        {
          "duration": 0.32727240000000535,
          "durationTicks": 432,
          "midi": 33,
          "name": "A1",
          "ticks": 63360,
          "time": 47.999952,
          "velocity": 0.8661417322834646
        },
        {
          "duration": 0.32727240000000535,
          "durationTicks": 432,
          "midi": 45,
          "name": "A2",
          "ticks": 63360,
          "time": 47.999952,
          "velocity": 0.8661417322834646
        },
        {
          "duration": 0.32727240000000535,
          "durationTicks": 432,
          "midi": 45,
          "name": "A2",
          "ticks": 63840,
          "time": 48.363588,
          "velocity": 0.6299212598425197
        },
        {
          "duration": 0.32727240000000535,
          "durationTicks": 432,
          "midi": 57,
          "name": "A3",
          "ticks": 64320,
          "time": 48.727224,
          "velocity": 0.6299212598425197
        },
        {
          "duration": 0.32727240000000535,
          "durationTicks": 432,
          "midi": 52,
          "name": "E3",
          "ticks": 64320,
          "time": 48.727224,
          "velocity": 0.6299212598425197
        },
        {
          "duration": 0.32727240000000535,
          "durationTicks": 432,
          "midi": 45,
          "name": "A2",
          "ticks": 64800,
          "time": 49.09086,
          "velocity": 0.6299212598425197
        },
        {
          "duration": 0.32727240000000535,
          "durationTicks": 432,
          "midi": 35,
          "name": "B1",
          "ticks": 65280,
          "time": 49.454496,
          "velocity": 0.8661417322834646
        },
        {
          "duration": 0.32727240000000535,
          "durationTicks": 432,
          "midi": 47,
          "name": "B2",
          "ticks": 65280,
          "time": 49.454496,
          "velocity": 0.8661417322834646
        },
        {
          "duration": 0.32727240000000535,
          "durationTicks": 432,
          "midi": 47,
          "name": "B2",
          "ticks": 65760,
          "time": 49.818132,
          "velocity": 0.6299212598425197
        },
        {
          "duration": 0.32727239999999824,
          "durationTicks": 432,
          "midi": 59,
          "name": "B3",
          "ticks": 66240,
          "time": 50.181768000000005,
          "velocity": 0.6299212598425197
        },
        {
          "duration": 0.32727239999999824,
          "durationTicks": 432,
          "midi": 54,
          "name": "F#3",
          "ticks": 66240,
          "time": 50.181768000000005,
          "velocity": 0.6299212598425197
        },
        {
          "duration": 0.32727239999999824,
          "durationTicks": 432,
          "midi": 47,
          "name": "B2",
          "ticks": 66720,
          "time": 50.545404000000005,
          "velocity": 0.6299212598425197
        },
        {
          "duration": 0.32727239999999824,
          "durationTicks": 432,
          "midi": 58,
          "name": "A#3",
          "ticks": 67200,
          "time": 50.909040000000005,
          "velocity": 0.6299212598425197
        },
        {
          "duration": 0.32727239999999824,
          "durationTicks": 432,
          "midi": 54,
          "name": "F#3",
          "ticks": 67200,
          "time": 50.909040000000005,
          "velocity": 0.6299212598425197
        },
        {
          "duration": 0.32727239999999824,
          "durationTicks": 432,
          "midi": 46,
          "name": "A#2",
          "ticks": 67200,
          "time": 50.909040000000005,
          "velocity": 0.6299212598425197
        },
        {
          "duration": 0.32727239999999824,
          "durationTicks": 432,
          "midi": 54,
          "name": "F#3",
          "ticks": 67680,
          "time": 51.272676000000004,
          "velocity": 0.6299212598425197
        },
        {
          "duration": 0.32727239999999824,
          "durationTicks": 432,
          "midi": 61,
          "name": "C#4",
          "ticks": 68160,
          "time": 51.636312000000004,
          "velocity": 0.6299212598425197
        },
        {
          "duration": 0.32727239999999824,
          "durationTicks": 432,
          "midi": 58,
          "name": "A#3",
          "ticks": 68160,
          "time": 51.636312000000004,
          "velocity": 0.6299212598425197
        },
        {
          "duration": 0.32727239999999824,
          "durationTicks": 432,
          "midi": 54,
          "name": "F#3",
          "ticks": 68640,
          "time": 51.999948,
          "velocity": 0.6299212598425197
        },
        {
          "duration": 0.16363619999999202,
          "durationTicks": 216,
          "midi": 60,
          "name": "C4",
          "ticks": 69360,
          "time": 52.545402,
          "velocity": 0.8661417322834646
        },
        {
          "duration": 0.16363619999999202,
          "durationTicks": 216,
          "midi": 48,
          "name": "C3",
          "ticks": 69360,
          "time": 52.545402,
          "velocity": 0.8661417322834646
        },
        {
          "duration": 0.16363619999999202,
          "durationTicks": 216,
          "midi": 60,
          "name": "C4",
          "ticks": 69600,
          "time": 52.72722,
          "velocity": 0.8661417322834646
        },
        {
          "duration": 0.16363619999999202,
          "durationTicks": 216,
          "midi": 48,
          "name": "C3",
          "ticks": 69600,
          "time": 52.72722,
          "velocity": 0.8661417322834646
        },
        {
          "duration": 0.16363619999999202,
          "durationTicks": 216,
          "midi": 60,
          "name": "C4",
          "ticks": 69840,
          "time": 52.909038,
          "velocity": 0.8661417322834646
        },
        {
          "duration": 0.16363619999999202,
          "durationTicks": 216,
          "midi": 48,
          "name": "C3",
          "ticks": 69840,
          "time": 52.909038,
          "velocity": 0.8661417322834646
        },
        {
          "duration": 0.3636359999999996,
          "durationTicks": 480,
          "midi": 60,
          "name": "C4",
          "ticks": 70080,
          "time": 53.090856,
          "velocity": 0.8661417322834646
        },
        {
          "duration": 0.3636359999999996,
          "durationTicks": 480,
          "midi": 48,
          "name": "C3",
          "ticks": 70080,
          "time": 53.090856,
          "velocity": 0.8661417322834646
        },
        {
          "duration": 0.16363619999999912,
          "durationTicks": 216,
          "midi": 52,
          "name": "E3",
          "ticks": 71040,
          "time": 53.818128,
          "velocity": 0.6299212598425197
        },
        {
          "duration": 0.16363619999999912,
          "durationTicks": 216,
          "midi": 40,
          "name": "E2",
          "ticks": 71040,
          "time": 53.818128,
          "velocity": 0.6299212598425197
        },
        {
          "duration": 0.16363619999999912,
          "durationTicks": 216,
          "midi": 52,
          "name": "E3",
          "ticks": 71280,
          "time": 53.999946,
          "velocity": 0.6299212598425197
        },
        {
          "duration": 0.16363619999999912,
          "durationTicks": 216,
          "midi": 64,
          "name": "E4",
          "ticks": 71520,
          "time": 54.181764,
          "velocity": 0.6299212598425197
        },
        {
          "duration": 0.16363619999999912,
          "durationTicks": 216,
          "midi": 59,
          "name": "B3",
          "ticks": 71520,
          "time": 54.181764,
          "velocity": 0.6299212598425197
        },
        {
          "duration": 0.16363619999999912,
          "durationTicks": 216,
          "midi": 52,
          "name": "E3",
          "ticks": 71760,
          "time": 54.363582,
          "velocity": 0.6299212598425197
        },
        {
          "duration": 0.16363619999999912,
          "durationTicks": 216,
          "midi": 52,
          "name": "E3",
          "ticks": 72000,
          "time": 54.5454,
          "velocity": 0.6299212598425197
        },
        {
          "duration": 0.16363619999999912,
          "durationTicks": 216,
          "midi": 52,
          "name": "E3",
          "ticks": 72240,
          "time": 54.727218,
          "velocity": 0.6299212598425197
        },
        {
          "duration": 0.16363619999999912,
          "durationTicks": 216,
          "midi": 64,
          "name": "E4",
          "ticks": 72480,
          "time": 54.909036,
          "velocity": 0.6299212598425197
        },
        {
          "duration": 0.16363619999999912,
          "durationTicks": 216,
          "midi": 59,
          "name": "B3",
          "ticks": 72480,
          "time": 54.909036,
          "velocity": 0.6299212598425197
        },
        {
          "duration": 0.16363619999999912,
          "durationTicks": 216,
          "midi": 52,
          "name": "E3",
          "ticks": 72720,
          "time": 55.090854,
          "velocity": 0.6299212598425197
        },
        {
          "duration": 0.16363619999999912,
          "durationTicks": 216,
          "midi": 36,
          "name": "C2",
          "ticks": 72960,
          "time": 55.272672,
          "velocity": 0.6299212598425197
        },
        {
          "duration": 0.16363619999999912,
          "durationTicks": 216,
          "midi": 48,
          "name": "C3",
          "ticks": 72960,
          "time": 55.272672,
          "velocity": 0.6299212598425197
        },
        {
          "duration": 0.16363619999999912,
          "durationTicks": 216,
          "midi": 48,
          "name": "C3",
          "ticks": 73200,
          "time": 55.45449,
          "velocity": 0.6299212598425197
        },
        {
          "duration": 0.16363619999999912,
          "durationTicks": 216,
          "midi": 55,
          "name": "G3",
          "ticks": 73440,
          "time": 55.636308,
          "velocity": 0.6299212598425197
        },
        {
          "duration": 0.16363619999999912,
          "durationTicks": 216,
          "midi": 60,
          "name": "C4",
          "ticks": 73440,
          "time": 55.636308,
          "velocity": 0.6299212598425197
        },
        {
          "duration": 0.16363619999999912,
          "durationTicks": 216,
          "midi": 48,
          "name": "C3",
          "ticks": 73680,
          "time": 55.818126,
          "velocity": 0.6299212598425197
        },
        {
          "duration": 0.16363619999999912,
          "durationTicks": 216,
          "midi": 48,
          "name": "C3",
          "ticks": 73920,
          "time": 55.999944,
          "velocity": 0.6299212598425197
        },
        {
          "duration": 0.16363619999999912,
          "durationTicks": 216,
          "midi": 48,
          "name": "C3",
          "ticks": 74160,
          "time": 56.181762,
          "velocity": 0.6299212598425197
        },
        {
          "duration": 0.16363619999999912,
          "durationTicks": 216,
          "midi": 55,
          "name": "G3",
          "ticks": 74400,
          "time": 56.36358,
          "velocity": 0.6299212598425197
        },
        {
          "duration": 0.16363619999999912,
          "durationTicks": 216,
          "midi": 60,
          "name": "C4",
          "ticks": 74400,
          "time": 56.36358,
          "velocity": 0.6299212598425197
        },
        {
          "duration": 0.16363619999999202,
          "durationTicks": 216,
          "midi": 48,
          "name": "C3",
          "ticks": 74640,
          "time": 56.545398000000006,
          "velocity": 0.6299212598425197
        },
        {
          "duration": 0.16363619999999202,
          "durationTicks": 216,
          "midi": 31,
          "name": "G1",
          "ticks": 74880,
          "time": 56.727216000000006,
          "velocity": 0.6299212598425197
        },
        {
          "duration": 0.16363619999999202,
          "durationTicks": 216,
          "midi": 43,
          "name": "G2",
          "ticks": 74880,
          "time": 56.727216000000006,
          "velocity": 0.6299212598425197
        },
        {
          "duration": 0.16363619999999202,
          "durationTicks": 216,
          "midi": 43,
          "name": "G2",
          "ticks": 75120,
          "time": 56.909034000000005,
          "velocity": 0.6299212598425197
        },
        {
          "duration": 0.16363619999999202,
          "durationTicks": 216,
          "midi": 50,
          "name": "D3",
          "ticks": 75360,
          "time": 57.090852000000005,
          "velocity": 0.6299212598425197
        },
        {
          "duration": 0.16363619999999202,
          "durationTicks": 216,
          "midi": 55,
          "name": "G3",
          "ticks": 75360,
          "time": 57.090852000000005,
          "velocity": 0.6299212598425197
        },
        {
          "duration": 0.16363619999999202,
          "durationTicks": 216,
          "midi": 43,
          "name": "G2",
          "ticks": 75600,
          "time": 57.272670000000005,
          "velocity": 0.6299212598425197
        },
        {
          "duration": 0.16363619999999202,
          "durationTicks": 216,
          "midi": 43,
          "name": "G2",
          "ticks": 75840,
          "time": 57.454488000000005,
          "velocity": 0.6299212598425197
        },
        {
          "duration": 0.16363619999999202,
          "durationTicks": 216,
          "midi": 43,
          "name": "G2",
          "ticks": 76080,
          "time": 57.636306000000005,
          "velocity": 0.6299212598425197
        },
        {
          "duration": 0.16363619999999202,
          "durationTicks": 216,
          "midi": 50,
          "name": "D3",
          "ticks": 76320,
          "time": 57.818124000000005,
          "velocity": 0.6299212598425197
        },
        {
          "duration": 0.16363619999999202,
          "durationTicks": 216,
          "midi": 55,
          "name": "G3",
          "ticks": 76320,
          "time": 57.818124000000005,
          "velocity": 0.6299212598425197
        },
        {
          "duration": 0.16363619999999202,
          "durationTicks": 216,
          "midi": 43,
          "name": "G2",
          "ticks": 76560,
          "time": 57.999942000000004,
          "velocity": 0.6299212598425197
        },
        {
          "duration": 0.16363619999999202,
          "durationTicks": 216,
          "midi": 38,
          "name": "D2",
          "ticks": 76800,
          "time": 58.181760000000004,
          "velocity": 0.6299212598425197
        },
        {
          "duration": 0.16363619999999202,
          "durationTicks": 216,
          "midi": 50,
          "name": "D3",
          "ticks": 76800,
          "time": 58.181760000000004,
          "velocity": 0.6299212598425197
        },
        {
          "duration": 0.16363619999999202,
          "durationTicks": 216,
          "midi": 50,
          "name": "D3",
          "ticks": 77040,
          "time": 58.363578000000004,
          "velocity": 0.6299212598425197
        },
        {
          "duration": 0.16363619999999202,
          "durationTicks": 216,
          "midi": 57,
          "name": "A3",
          "ticks": 77280,
          "time": 58.545396000000004,
          "velocity": 0.6299212598425197
        },
        {
          "duration": 0.16363619999999202,
          "durationTicks": 216,
          "midi": 62,
          "name": "D4",
          "ticks": 77280,
          "time": 58.545396000000004,
          "velocity": 0.6299212598425197
        },
        {
          "duration": 0.16363619999999202,
          "durationTicks": 216,
          "midi": 50,
          "name": "D3",
          "ticks": 77520,
          "time": 58.727214000000004,
          "velocity": 0.6299212598425197
        },
        {
          "duration": 0.16363619999999202,
          "durationTicks": 216,
          "midi": 50,
          "name": "D3",
          "ticks": 77760,
          "time": 58.909032,
          "velocity": 0.6299212598425197
        },
        {
          "duration": 0.16363619999999202,
          "durationTicks": 216,
          "midi": 50,
          "name": "D3",
          "ticks": 78000,
          "time": 59.09085,
          "velocity": 0.6299212598425197
        },
        {
          "duration": 0.16363619999999202,
          "durationTicks": 216,
          "midi": 62,
          "name": "D4",
          "ticks": 78240,
          "time": 59.272668,
          "velocity": 0.6299212598425197
        },
        {
          "duration": 0.16363619999999202,
          "durationTicks": 216,
          "midi": 57,
          "name": "A3",
          "ticks": 78240,
          "time": 59.272668,
          "velocity": 0.6299212598425197
        },
        {
          "duration": 0.16363619999999202,
          "durationTicks": 216,
          "midi": 50,
          "name": "D3",
          "ticks": 78480,
          "time": 59.454486,
          "velocity": 0.6299212598425197
        },
        {
          "duration": 0.16363619999999912,
          "durationTicks": 216,
          "midi": 52,
          "name": "E3",
          "ticks": 78720,
          "time": 59.636304,
          "velocity": 0.6299212598425197
        },
        {
          "duration": 0.16363619999999912,
          "durationTicks": 216,
          "midi": 40,
          "name": "E2",
          "ticks": 78720,
          "time": 59.636304,
          "velocity": 0.6299212598425197
        },
        {
          "duration": 0.16363619999999912,
          "durationTicks": 216,
          "midi": 52,
          "name": "E3",
          "ticks": 78960,
          "time": 59.818122,
          "velocity": 0.6299212598425197
        },
        {
          "duration": 0.16363619999999912,
          "durationTicks": 216,
          "midi": 64,
          "name": "E4",
          "ticks": 79200,
          "time": 59.99994,
          "velocity": 0.6299212598425197
        },
        {
          "duration": 0.16363619999999912,
          "durationTicks": 216,
          "midi": 59,
          "name": "B3",
          "ticks": 79200,
          "time": 59.99994,
          "velocity": 0.6299212598425197
        },
        {
          "duration": 0.16363619999999912,
          "durationTicks": 216,
          "midi": 52,
          "name": "E3",
          "ticks": 79440,
          "time": 60.181758,
          "velocity": 0.6299212598425197
        },
        {
          "duration": 0.16363619999999912,
          "durationTicks": 216,
          "midi": 52,
          "name": "E3",
          "ticks": 79680,
          "time": 60.363576,
          "velocity": 0.6299212598425197
        },
        {
          "duration": 0.16363619999999912,
          "durationTicks": 216,
          "midi": 52,
          "name": "E3",
          "ticks": 79920,
          "time": 60.545394,
          "velocity": 0.6299212598425197
        },
        {
          "duration": 0.16363619999999912,
          "durationTicks": 216,
          "midi": 64,
          "name": "E4",
          "ticks": 80160,
          "time": 60.727212,
          "velocity": 0.6299212598425197
        },
        {
          "duration": 0.16363619999999912,
          "durationTicks": 216,
          "midi": 59,
          "name": "B3",
          "ticks": 80160,
          "time": 60.727212,
          "velocity": 0.6299212598425197
        },
        {
          "duration": 0.16363619999999912,
          "durationTicks": 216,
          "midi": 52,
          "name": "E3",
          "ticks": 80400,
          "time": 60.90903,
          "velocity": 0.6299212598425197
        },
        {
          "duration": 0.16363619999999912,
          "durationTicks": 216,
          "midi": 36,
          "name": "C2",
          "ticks": 80640,
          "time": 61.090848,
          "velocity": 0.6299212598425197
        },
        {
          "duration": 0.16363619999999912,
          "durationTicks": 216,
          "midi": 48,
          "name": "C3",
          "ticks": 80640,
          "time": 61.090848,
          "velocity": 0.6299212598425197
        },
        {
          "duration": 0.16363619999999912,
          "durationTicks": 216,
          "midi": 48,
          "name": "C3",
          "ticks": 80880,
          "time": 61.272666,
          "velocity": 0.6299212598425197
        },
        {
          "duration": 0.16363619999999912,
          "durationTicks": 216,
          "midi": 55,
          "name": "G3",
          "ticks": 81120,
          "time": 61.454484,
          "velocity": 0.6299212598425197
        },
        {
          "duration": 0.16363619999999912,
          "durationTicks": 216,
          "midi": 60,
          "name": "C4",
          "ticks": 81120,
          "time": 61.454484,
          "velocity": 0.6299212598425197
        },
        {
          "duration": 0.16363619999999912,
          "durationTicks": 216,
          "midi": 48,
          "name": "C3",
          "ticks": 81360,
          "time": 61.636302,
          "velocity": 0.6299212598425197
        },
        {
          "duration": 0.16363619999999912,
          "durationTicks": 216,
          "midi": 48,
          "name": "C3",
          "ticks": 81600,
          "time": 61.81812,
          "velocity": 0.6299212598425197
        },
        {
          "duration": 0.16363619999999912,
          "durationTicks": 216,
          "midi": 48,
          "name": "C3",
          "ticks": 81840,
          "time": 61.999938,
          "velocity": 0.6299212598425197
        },
        {
          "duration": 0.16363619999999912,
          "durationTicks": 216,
          "midi": 55,
          "name": "G3",
          "ticks": 82080,
          "time": 62.181756,
          "velocity": 0.6299212598425197
        },
        {
          "duration": 0.16363619999999912,
          "durationTicks": 216,
          "midi": 60,
          "name": "C4",
          "ticks": 82080,
          "time": 62.181756,
          "velocity": 0.6299212598425197
        },
        {
          "duration": 0.16363619999999912,
          "durationTicks": 216,
          "midi": 48,
          "name": "C3",
          "ticks": 82320,
          "time": 62.363574,
          "velocity": 0.6299212598425197
        },
        {
          "duration": 0.16363619999999912,
          "durationTicks": 216,
          "midi": 31,
          "name": "G1",
          "ticks": 82560,
          "time": 62.545392,
          "velocity": 0.6299212598425197
        },
        {
          "duration": 0.16363619999999912,
          "durationTicks": 216,
          "midi": 43,
          "name": "G2",
          "ticks": 82560,
          "time": 62.545392,
          "velocity": 0.6299212598425197
        },
        {
          "duration": 0.16363619999999912,
          "durationTicks": 216,
          "midi": 43,
          "name": "G2",
          "ticks": 82800,
          "time": 62.72721,
          "velocity": 0.6299212598425197
        },
        {
          "duration": 0.16363619999999912,
          "durationTicks": 216,
          "midi": 50,
          "name": "D3",
          "ticks": 83040,
          "time": 62.909028,
          "velocity": 0.6299212598425197
        },
        {
          "duration": 0.16363619999999912,
          "durationTicks": 216,
          "midi": 55,
          "name": "G3",
          "ticks": 83040,
          "time": 62.909028,
          "velocity": 0.6299212598425197
        },
        {
          "duration": 0.16363619999999912,
          "durationTicks": 216,
          "midi": 43,
          "name": "G2",
          "ticks": 83280,
          "time": 63.090846,
          "velocity": 0.6299212598425197
        },
        {
          "duration": 0.16363619999999202,
          "durationTicks": 216,
          "midi": 43,
          "name": "G2",
          "ticks": 83520,
          "time": 63.272664000000006,
          "velocity": 0.6299212598425197
        },
        {
          "duration": 0.16363619999999202,
          "durationTicks": 216,
          "midi": 43,
          "name": "G2",
          "ticks": 83760,
          "time": 63.454482000000006,
          "velocity": 0.6299212598425197
        },
        {
          "duration": 0.16363619999999202,
          "durationTicks": 216,
          "midi": 50,
          "name": "D3",
          "ticks": 84000,
          "time": 63.636300000000006,
          "velocity": 0.6299212598425197
        },
        {
          "duration": 0.16363619999999202,
          "durationTicks": 216,
          "midi": 55,
          "name": "G3",
          "ticks": 84000,
          "time": 63.636300000000006,
          "velocity": 0.6299212598425197
        },
        {
          "duration": 0.16363619999999202,
          "durationTicks": 216,
          "midi": 43,
          "name": "G2",
          "ticks": 84240,
          "time": 63.818118000000005,
          "velocity": 0.6299212598425197
        },
        {
          "duration": 0.16363619999999912,
          "durationTicks": 216,
          "midi": 50,
          "name": "D3",
          "ticks": 84480,
          "time": 63.999936000000005,
          "velocity": 0.6299212598425197
        },
        {
          "duration": 0.16363619999999912,
          "durationTicks": 216,
          "midi": 38,
          "name": "D2",
          "ticks": 84480,
          "time": 63.999936000000005,
          "velocity": 0.6299212598425197
        },
        {
          "duration": 0.16363619999999912,
          "durationTicks": 216,
          "midi": 50,
          "name": "D3",
          "ticks": 84720,
          "time": 64.181754,
          "velocity": 0.6299212598425197
        },
        {
          "duration": 0.16363619999999912,
          "durationTicks": 216,
          "midi": 62,
          "name": "D4",
          "ticks": 84960,
          "time": 64.363572,
          "velocity": 0.6299212598425197
        },
        {
          "duration": 0.16363619999999912,
          "durationTicks": 216,
          "midi": 57,
          "name": "A3",
          "ticks": 84960,
          "time": 64.363572,
          "velocity": 0.6299212598425197
        },
        {
          "duration": 0.16363619999999912,
          "durationTicks": 216,
          "midi": 50,
          "name": "D3",
          "ticks": 85200,
          "time": 64.54539,
          "velocity": 0.6299212598425197
        },
        {
          "duration": 0.16363619999999912,
          "durationTicks": 216,
          "midi": 50,
          "name": "D3",
          "ticks": 85440,
          "time": 64.727208,
          "velocity": 0.6299212598425197
        },
        {
          "duration": 0.16363619999999912,
          "durationTicks": 216,
          "midi": 50,
          "name": "D3",
          "ticks": 85680,
          "time": 64.909026,
          "velocity": 0.6299212598425197
        },
        {
          "duration": 0.16363619999999912,
          "durationTicks": 216,
          "midi": 62,
          "name": "D4",
          "ticks": 85920,
          "time": 65.090844,
          "velocity": 0.6299212598425197
        },
        {
          "duration": 0.16363619999999912,
          "durationTicks": 216,
          "midi": 57,
          "name": "A3",
          "ticks": 85920,
          "time": 65.090844,
          "velocity": 0.6299212598425197
        },
        {
          "duration": 0.16363619999999912,
          "durationTicks": 216,
          "midi": 50,
          "name": "D3",
          "ticks": 86160,
          "time": 65.272662,
          "velocity": 0.6299212598425197
        },
        {
          "duration": 0.16363619999999912,
          "durationTicks": 216,
          "midi": 52,
          "name": "E3",
          "ticks": 86400,
          "time": 65.45448,
          "velocity": 0.6299212598425197
        },
        {
          "duration": 0.16363619999999912,
          "durationTicks": 216,
          "midi": 40,
          "name": "E2",
          "ticks": 86400,
          "time": 65.45448,
          "velocity": 0.6299212598425197
        },
        {
          "duration": 0.16363619999999912,
          "durationTicks": 216,
          "midi": 52,
          "name": "E3",
          "ticks": 86640,
          "time": 65.636298,
          "velocity": 0.6299212598425197
        },
        {
          "duration": 0.16363619999999912,
          "durationTicks": 216,
          "midi": 64,
          "name": "E4",
          "ticks": 86880,
          "time": 65.818116,
          "velocity": 0.6299212598425197
        },
        {
          "duration": 0.16363619999999912,
          "durationTicks": 216,
          "midi": 59,
          "name": "B3",
          "ticks": 86880,
          "time": 65.818116,
          "velocity": 0.6299212598425197
        },
        {
          "duration": 0.16363619999999912,
          "durationTicks": 216,
          "midi": 52,
          "name": "E3",
          "ticks": 87120,
          "time": 65.999934,
          "velocity": 0.6299212598425197
        },
        {
          "duration": 0.16363619999999912,
          "durationTicks": 216,
          "midi": 52,
          "name": "E3",
          "ticks": 87360,
          "time": 66.181752,
          "velocity": 0.6299212598425197
        },
        {
          "duration": 0.16363619999999912,
          "durationTicks": 216,
          "midi": 52,
          "name": "E3",
          "ticks": 87600,
          "time": 66.36357,
          "velocity": 0.6299212598425197
        },
        {
          "duration": 0.16363619999999912,
          "durationTicks": 216,
          "midi": 64,
          "name": "E4",
          "ticks": 87840,
          "time": 66.545388,
          "velocity": 0.6299212598425197
        },
        {
          "duration": 0.16363619999999912,
          "durationTicks": 216,
          "midi": 59,
          "name": "B3",
          "ticks": 87840,
          "time": 66.545388,
          "velocity": 0.6299212598425197
        },
        {
          "duration": 0.1636361999999849,
          "durationTicks": 216,
          "midi": 52,
          "name": "E3",
          "ticks": 88080,
          "time": 66.72720600000001,
          "velocity": 0.6299212598425197
        },
        {
          "duration": 0.16363619999999912,
          "durationTicks": 216,
          "midi": 36,
          "name": "C2",
          "ticks": 88320,
          "time": 66.909024,
          "velocity": 0.6299212598425197
        },
        {
          "duration": 0.16363619999999912,
          "durationTicks": 216,
          "midi": 48,
          "name": "C3",
          "ticks": 88320,
          "time": 66.909024,
          "velocity": 0.6299212598425197
        },
        {
          "duration": 0.1636361999999849,
          "durationTicks": 216,
          "midi": 48,
          "name": "C3",
          "ticks": 88560,
          "time": 67.09084200000001,
          "velocity": 0.6299212598425197
        },
        {
          "duration": 0.16363619999999912,
          "durationTicks": 216,
          "midi": 55,
          "name": "G3",
          "ticks": 88800,
          "time": 67.27266,
          "velocity": 0.6299212598425197
        },
        {
          "duration": 0.16363619999999912,
          "durationTicks": 216,
          "midi": 60,
          "name": "C4",
          "ticks": 88800,
          "time": 67.27266,
          "velocity": 0.6299212598425197
        },
        {
          "duration": 0.1636361999999849,
          "durationTicks": 216,
          "midi": 48,
          "name": "C3",
          "ticks": 89040,
          "time": 67.45447800000001,
          "velocity": 0.6299212598425197
        },
        {
          "duration": 0.16363619999999912,
          "durationTicks": 216,
          "midi": 48,
          "name": "C3",
          "ticks": 89280,
          "time": 67.636296,
          "velocity": 0.6299212598425197
        },
        {
          "duration": 0.1636361999999849,
          "durationTicks": 216,
          "midi": 48,
          "name": "C3",
          "ticks": 89520,
          "time": 67.81811400000001,
          "velocity": 0.6299212598425197
        },
        {
          "duration": 0.16363619999999912,
          "durationTicks": 216,
          "midi": 55,
          "name": "G3",
          "ticks": 89760,
          "time": 67.999932,
          "velocity": 0.6299212598425197
        },
        {
          "duration": 0.16363619999999912,
          "durationTicks": 216,
          "midi": 60,
          "name": "C4",
          "ticks": 89760,
          "time": 67.999932,
          "velocity": 0.6299212598425197
        },
        {
          "duration": 0.1636361999999849,
          "durationTicks": 216,
          "midi": 48,
          "name": "C3",
          "ticks": 90000,
          "time": 68.18175000000001,
          "velocity": 0.6299212598425197
        },
        {
          "duration": 0.16363619999999912,
          "durationTicks": 216,
          "midi": 31,
          "name": "G1",
          "ticks": 90240,
          "time": 68.363568,
          "velocity": 0.6299212598425197
        },
        {
          "duration": 0.16363619999999912,
          "durationTicks": 216,
          "midi": 43,
          "name": "G2",
          "ticks": 90240,
          "time": 68.363568,
          "velocity": 0.6299212598425197
        },
        {
          "duration": 0.1636361999999849,
          "durationTicks": 216,
          "midi": 43,
          "name": "G2",
          "ticks": 90480,
          "time": 68.54538600000001,
          "velocity": 0.6299212598425197
        },
        {
          "duration": 0.16363619999999912,
          "durationTicks": 216,
          "midi": 50,
          "name": "D3",
          "ticks": 90720,
          "time": 68.727204,
          "velocity": 0.6299212598425197
        },
        {
          "duration": 0.16363619999999912,
          "durationTicks": 216,
          "midi": 55,
          "name": "G3",
          "ticks": 90720,
          "time": 68.727204,
          "velocity": 0.6299212598425197
        },
        {
          "duration": 0.1636361999999849,
          "durationTicks": 216,
          "midi": 43,
          "name": "G2",
          "ticks": 90960,
          "time": 68.90902200000001,
          "velocity": 0.6299212598425197
        },
        {
          "duration": 0.16363619999999912,
          "durationTicks": 216,
          "midi": 43,
          "name": "G2",
          "ticks": 91200,
          "time": 69.09084,
          "velocity": 0.6299212598425197
        },
        {
          "duration": 0.1636361999999849,
          "durationTicks": 216,
          "midi": 43,
          "name": "G2",
          "ticks": 91440,
          "time": 69.272658,
          "velocity": 0.6299212598425197
        },
        {
          "duration": 0.16363619999999912,
          "durationTicks": 216,
          "midi": 50,
          "name": "D3",
          "ticks": 91680,
          "time": 69.454476,
          "velocity": 0.6299212598425197
        },
        {
          "duration": 0.16363619999999912,
          "durationTicks": 216,
          "midi": 55,
          "name": "G3",
          "ticks": 91680,
          "time": 69.454476,
          "velocity": 0.6299212598425197
        },
        {
          "duration": 0.16363619999999912,
          "durationTicks": 216,
          "midi": 43,
          "name": "G2",
          "ticks": 91920,
          "time": 69.636294,
          "velocity": 0.6299212598425197
        },
        {
          "duration": 0.16363619999999912,
          "durationTicks": 216,
          "midi": 50,
          "name": "D3",
          "ticks": 92160,
          "time": 69.818112,
          "velocity": 0.6299212598425197
        },
        {
          "duration": 0.16363619999999912,
          "durationTicks": 216,
          "midi": 38,
          "name": "D2",
          "ticks": 92160,
          "time": 69.818112,
          "velocity": 0.6299212598425197
        },
        {
          "duration": 0.16363619999999912,
          "durationTicks": 216,
          "midi": 50,
          "name": "D3",
          "ticks": 92400,
          "time": 69.99993,
          "velocity": 0.6299212598425197
        },
        {
          "duration": 0.16363619999999912,
          "durationTicks": 216,
          "midi": 62,
          "name": "D4",
          "ticks": 92640,
          "time": 70.181748,
          "velocity": 0.6299212598425197
        },
        {
          "duration": 0.16363619999999912,
          "durationTicks": 216,
          "midi": 57,
          "name": "A3",
          "ticks": 92640,
          "time": 70.181748,
          "velocity": 0.6299212598425197
        },
        {
          "duration": 0.16363619999999912,
          "durationTicks": 216,
          "midi": 50,
          "name": "D3",
          "ticks": 92880,
          "time": 70.363566,
          "velocity": 0.6299212598425197
        },
        {
          "duration": 0.16363619999999912,
          "durationTicks": 216,
          "midi": 50,
          "name": "D3",
          "ticks": 93120,
          "time": 70.545384,
          "velocity": 0.6299212598425197
        },
        {
          "duration": 0.16363619999999912,
          "durationTicks": 216,
          "midi": 50,
          "name": "D3",
          "ticks": 93360,
          "time": 70.727202,
          "velocity": 0.6299212598425197
        },
        {
          "duration": 0.16363619999999912,
          "durationTicks": 216,
          "midi": 62,
          "name": "D4",
          "ticks": 93600,
          "time": 70.90902,
          "velocity": 0.6299212598425197
        },
        {
          "duration": 0.16363619999999912,
          "durationTicks": 216,
          "midi": 57,
          "name": "A3",
          "ticks": 93600,
          "time": 70.90902,
          "velocity": 0.6299212598425197
        },
        {
          "duration": 0.16363619999999912,
          "durationTicks": 216,
          "midi": 50,
          "name": "D3",
          "ticks": 93840,
          "time": 71.090838,
          "velocity": 0.6299212598425197
        },
        {
          "duration": 0.32727240000001245,
          "durationTicks": 432,
          "midi": 52,
          "name": "E3",
          "ticks": 94080,
          "time": 71.272656,
          "velocity": 0.6299212598425197
        },
        {
          "duration": 0.32727240000001245,
          "durationTicks": 432,
          "midi": 40,
          "name": "E2",
          "ticks": 94080,
          "time": 71.272656,
          "velocity": 0.6299212598425197
        },
        {
          "duration": 0.16363619999999912,
          "durationTicks": 216,
          "midi": 52,
          "name": "E3",
          "ticks": 94560,
          "time": 71.636292,
          "velocity": 0.6299212598425197
        },
        {
          "duration": 0.34545419999999183,
          "durationTicks": 456,
          "midi": 64,
          "name": "E4",
          "ticks": 94800,
          "time": 71.81811,
          "velocity": 0.6299212598425197
        },
        {
          "duration": 0.34545419999999183,
          "durationTicks": 456,
          "midi": 59,
          "name": "B3",
          "ticks": 94800,
          "time": 71.81811,
          "velocity": 0.6299212598425197
        },
        {
          "duration": 0.16363619999999912,
          "durationTicks": 216,
          "midi": 52,
          "name": "E3",
          "ticks": 95280,
          "time": 72.181746,
          "velocity": 0.6299212598425197
        },
        {
          "duration": 0.16363619999999912,
          "durationTicks": 216,
          "midi": 64,
          "name": "E4",
          "ticks": 95520,
          "time": 72.363564,
          "velocity": 0.6299212598425197
        },
        {
          "duration": 0.16363619999999912,
          "durationTicks": 216,
          "midi": 59,
          "name": "B3",
          "ticks": 95520,
          "time": 72.363564,
          "velocity": 0.6299212598425197
        },
        {
          "duration": 0.16363619999999912,
          "durationTicks": 216,
          "midi": 52,
          "name": "E3",
          "ticks": 95760,
          "time": 72.545382,
          "velocity": 0.6299212598425197
        },
        {
          "duration": 0.32727240000001245,
          "durationTicks": 432,
          "midi": 52,
          "name": "E3",
          "ticks": 96000,
          "time": 72.7272,
          "velocity": 0.6299212598425197
        },
        {
          "duration": 0.32727240000001245,
          "durationTicks": 432,
          "midi": 40,
          "name": "E2",
          "ticks": 96000,
          "time": 72.7272,
          "velocity": 0.6299212598425197
        },
        {
          "duration": 0.16363619999999912,
          "durationTicks": 216,
          "midi": 52,
          "name": "E3",
          "ticks": 96480,
          "time": 73.090836,
          "velocity": 0.6299212598425197
        },
        {
          "duration": 0.34545419999999183,
          "durationTicks": 456,
          "midi": 64,
          "name": "E4",
          "ticks": 96720,
          "time": 73.272654,
          "velocity": 0.6299212598425197
        },
        {
          "duration": 0.34545419999999183,
          "durationTicks": 456,
          "midi": 59,
          "name": "B3",
          "ticks": 96720,
          "time": 73.272654,
          "velocity": 0.6299212598425197
        },
        {
          "duration": 0.16363619999999912,
          "durationTicks": 216,
          "midi": 52,
          "name": "E3",
          "ticks": 97200,
          "time": 73.63629,
          "velocity": 0.6299212598425197
        },
        {
          "duration": 0.1636361999999849,
          "durationTicks": 216,
          "midi": 64,
          "name": "E4",
          "ticks": 97440,
          "time": 73.81810800000001,
          "velocity": 0.6299212598425197
        },
        {
          "duration": 0.1636361999999849,
          "durationTicks": 216,
          "midi": 59,
          "name": "B3",
          "ticks": 97440,
          "time": 73.81810800000001,
          "velocity": 0.6299212598425197
        },
        {
          "duration": 0.16363619999999912,
          "durationTicks": 216,
          "midi": 52,
          "name": "E3",
          "ticks": 97680,
          "time": 73.999926,
          "velocity": 0.6299212598425197
        },
        {
          "duration": 0.32727239999999824,
          "durationTicks": 432,
          "midi": 52,
          "name": "E3",
          "ticks": 97920,
          "time": 74.18174400000001,
          "velocity": 0.6299212598425197
        },
        {
          "duration": 0.32727239999999824,
          "durationTicks": 432,
          "midi": 40,
          "name": "E2",
          "ticks": 97920,
          "time": 74.18174400000001,
          "velocity": 0.6299212598425197
        },
        {
          "duration": 0.1636361999999849,
          "durationTicks": 216,
          "midi": 52,
          "name": "E3",
          "ticks": 98400,
          "time": 74.54538000000001,
          "velocity": 0.6299212598425197
        },
        {
          "duration": 0.34545419999999183,
          "durationTicks": 456,
          "midi": 64,
          "name": "E4",
          "ticks": 98640,
          "time": 74.727198,
          "velocity": 0.6299212598425197
        },
        {
          "duration": 0.34545419999999183,
          "durationTicks": 456,
          "midi": 59,
          "name": "B3",
          "ticks": 98640,
          "time": 74.727198,
          "velocity": 0.6299212598425197
        },
        {
          "duration": 0.16363619999999912,
          "durationTicks": 216,
          "midi": 52,
          "name": "E3",
          "ticks": 99120,
          "time": 75.090834,
          "velocity": 0.6299212598425197
        },
        {
          "duration": 0.1636361999999849,
          "durationTicks": 216,
          "midi": 64,
          "name": "E4",
          "ticks": 99360,
          "time": 75.27265200000001,
          "velocity": 0.6299212598425197
        },
        {
          "duration": 0.1636361999999849,
          "durationTicks": 216,
          "midi": 59,
          "name": "B3",
          "ticks": 99360,
          "time": 75.27265200000001,
          "velocity": 0.6299212598425197
        },
        {
          "duration": 0.16363619999999912,
          "durationTicks": 216,
          "midi": 52,
          "name": "E3",
          "ticks": 99600,
          "time": 75.45447,
          "velocity": 0.6299212598425197
        },
        {
          "duration": 0.32727239999999824,
          "durationTicks": 432,
          "midi": 38,
          "name": "D2",
          "ticks": 99840,
          "time": 75.63628800000001,
          "velocity": 0.6299212598425197
        },
        {
          "duration": 0.32727239999999824,
          "durationTicks": 432,
          "midi": 50,
          "name": "D3",
          "ticks": 99840,
          "time": 75.63628800000001,
          "velocity": 0.6299212598425197
        },
        {
          "duration": 0.1636361999999849,
          "durationTicks": 216,
          "midi": 50,
          "name": "D3",
          "ticks": 100320,
          "time": 75.99992400000001,
          "velocity": 0.6299212598425197
        },
        {
          "duration": 0.34545420000000604,
          "durationTicks": 456,
          "midi": 62,
          "name": "D4",
          "ticks": 100560,
          "time": 76.181742,
          "velocity": 0.6299212598425197
        },
        {
          "duration": 0.34545420000000604,
          "durationTicks": 456,
          "midi": 57,
          "name": "A3",
          "ticks": 100560,
          "time": 76.181742,
          "velocity": 0.6299212598425197
        },
        {
          "duration": 0.16363619999999912,
          "durationTicks": 216,
          "midi": 50,
          "name": "D3",
          "ticks": 101040,
          "time": 76.545378,
          "velocity": 0.6299212598425197
        },
        {
          "duration": 0.16363619999999912,
          "durationTicks": 216,
          "midi": 62,
          "name": "D4",
          "ticks": 101280,
          "time": 76.727196,
          "velocity": 0.6299212598425197
        },
        {
          "duration": 0.16363619999999912,
          "durationTicks": 216,
          "midi": 57,
          "name": "A3",
          "ticks": 101280,
          "time": 76.727196,
          "velocity": 0.6299212598425197
        },
        {
          "duration": 0.16363619999999912,
          "durationTicks": 216,
          "midi": 50,
          "name": "D3",
          "ticks": 101520,
          "time": 76.909014,
          "velocity": 0.6299212598425197
        },
        {
          "duration": 0.32727239999999824,
          "durationTicks": 432,
          "midi": 36,
          "name": "C2",
          "ticks": 101760,
          "time": 77.090832,
          "velocity": 0.6299212598425197
        },
        {
          "duration": 0.32727239999999824,
          "durationTicks": 432,
          "midi": 48,
          "name": "C3",
          "ticks": 101760,
          "time": 77.090832,
          "velocity": 0.6299212598425197
        },
        {
          "duration": 0.16363619999999912,
          "durationTicks": 216,
          "midi": 48,
          "name": "C3",
          "ticks": 102240,
          "time": 77.454468,
          "velocity": 0.6299212598425197
        },
        {
          "duration": 0.34545420000000604,
          "durationTicks": 456,
          "midi": 55,
          "name": "G3",
          "ticks": 102480,
          "time": 77.636286,
          "velocity": 0.6299212598425197
        },
        {
          "duration": 0.34545420000000604,
          "durationTicks": 456,
          "midi": 60,
          "name": "C4",
          "ticks": 102480,
          "time": 77.636286,
          "velocity": 0.6299212598425197
        },
        {
          "duration": 0.16363619999999912,
          "durationTicks": 216,
          "midi": 48,
          "name": "C3",
          "ticks": 102960,
          "time": 77.999922,
          "velocity": 0.6299212598425197
        },
        {
          "duration": 0.16363619999999912,
          "durationTicks": 216,
          "midi": 60,
          "name": "C4",
          "ticks": 103200,
          "time": 78.18174,
          "velocity": 0.6299212598425197
        },
        {
          "duration": 0.16363619999999912,
          "durationTicks": 216,
          "midi": 55,
          "name": "G3",
          "ticks": 103200,
          "time": 78.18174,
          "velocity": 0.6299212598425197
        },
        {
          "duration": 0.16363619999999912,
          "durationTicks": 216,
          "midi": 48,
          "name": "C3",
          "ticks": 103440,
          "time": 78.363558,
          "velocity": 0.6299212598425197
        },
        {
          "duration": 0.32727239999999824,
          "durationTicks": 432,
          "midi": 36,
          "name": "C2",
          "ticks": 103680,
          "time": 78.545376,
          "velocity": 0.6299212598425197
        },
        {
          "duration": 0.32727239999999824,
          "durationTicks": 432,
          "midi": 48,
          "name": "C3",
          "ticks": 103680,
          "time": 78.545376,
          "velocity": 0.6299212598425197
        },
        {
          "duration": 0.16363619999999912,
          "durationTicks": 216,
          "midi": 48,
          "name": "C3",
          "ticks": 104160,
          "time": 78.909012,
          "velocity": 0.6299212598425197
        },
        {
          "duration": 0.34545420000000604,
          "durationTicks": 456,
          "midi": 55,
          "name": "G3",
          "ticks": 104400,
          "time": 79.09083,
          "velocity": 0.6299212598425197
        },
        {
          "duration": 0.34545420000000604,
          "durationTicks": 456,
          "midi": 60,
          "name": "C4",
          "ticks": 104400,
          "time": 79.09083,
          "velocity": 0.6299212598425197
        },
        {
          "duration": 0.16363619999999912,
          "durationTicks": 216,
          "midi": 48,
          "name": "C3",
          "ticks": 104880,
          "time": 79.454466,
          "velocity": 0.6299212598425197
        },
        {
          "duration": 0.16363619999999912,
          "durationTicks": 216,
          "midi": 60,
          "name": "C4",
          "ticks": 105120,
          "time": 79.636284,
          "velocity": 0.6299212598425197
        },
        {
          "duration": 0.16363619999999912,
          "durationTicks": 216,
          "midi": 55,
          "name": "G3",
          "ticks": 105120,
          "time": 79.636284,
          "velocity": 0.6299212598425197
        },
        {
          "duration": 0.1636361999999849,
          "durationTicks": 216,
          "midi": 48,
          "name": "C3",
          "ticks": 105360,
          "time": 79.81810200000001,
          "velocity": 0.6299212598425197
        },
        {
          "duration": 2.7636335999999915,
          "durationTicks": 3648,
          "midi": 60,
          "name": "C4",
          "ticks": 105600,
          "time": 79.99992,
          "velocity": 0.6299212598425197
        },
        {
          "duration": 2.7636335999999915,
          "durationTicks": 3648,
          "midi": 55,
          "name": "G3",
          "ticks": 105600,
          "time": 79.99992,
          "velocity": 0.6299212598425197
        },
        {
          "duration": 2.7636335999999915,
          "durationTicks": 3648,
          "midi": 48,
          "name": "C3",
          "ticks": 105600,
          "time": 79.99992,
          "velocity": 0.6299212598425197
        },
        {
          "duration": 1.309089599999993,
          "durationTicks": 1728,
          "midi": 57,
          "name": "A3",
          "ticks": 107520,
          "time": 81.454464,
          "velocity": 0.6299212598425197
        },
        {
          "duration": 1.309089599999993,
          "durationTicks": 1728,
          "midi": 50,
          "name": "D3",
          "ticks": 107520,
          "time": 81.454464,
          "velocity": 0.6299212598425197
        },
        {
          "duration": 0.16363619999999912,
          "durationTicks": 216,
          "midi": 37,
          "name": "C#2",
          "ticks": 109440,
          "time": 82.909008,
          "velocity": 0.6299212598425197
        },
        {
          "duration": 0.16363619999999912,
          "durationTicks": 216,
          "midi": 49,
          "name": "C#3",
          "ticks": 109440,
          "time": 82.909008,
          "velocity": 0.6299212598425197
        },
        {
          "duration": 0.16363619999999912,
          "durationTicks": 216,
          "midi": 44,
          "name": "G#2",
          "ticks": 109680,
          "time": 83.090826,
          "velocity": 0.6299212598425197
        },
        {
          "duration": 0.16363619999999912,
          "durationTicks": 216,
          "midi": 49,
          "name": "C#3",
          "ticks": 109920,
          "time": 83.272644,
          "velocity": 0.6299212598425197
        },
        {
          "duration": 0.16363619999999912,
          "durationTicks": 216,
          "midi": 56,
          "name": "G#3",
          "ticks": 110160,
          "time": 83.454462,
          "velocity": 0.6299212598425197
        },
        {
          "duration": 0.16363619999999912,
          "durationTicks": 216,
          "midi": 61,
          "name": "C#4",
          "ticks": 110400,
          "time": 83.63628,
          "velocity": 0.6299212598425197
        },
        {
          "duration": 0.16363619999999912,
          "durationTicks": 216,
          "midi": 49,
          "name": "C#3",
          "ticks": 110400,
          "time": 83.63628,
          "velocity": 0.6299212598425197
        },
        {
          "duration": 0.16363619999999912,
          "durationTicks": 216,
          "midi": 56,
          "name": "G#3",
          "ticks": 110640,
          "time": 83.818098,
          "velocity": 0.6299212598425197
        },
        {
          "duration": 0.16363619999999912,
          "durationTicks": 216,
          "midi": 61,
          "name": "C#4",
          "ticks": 110880,
          "time": 83.999916,
          "velocity": 0.6299212598425197
        },
        {
          "duration": 0.16363619999999912,
          "durationTicks": 216,
          "midi": 49,
          "name": "C#3",
          "ticks": 110880,
          "time": 83.999916,
          "velocity": 0.6299212598425197
        },
        {
          "duration": 0.16363619999999912,
          "durationTicks": 216,
          "midi": 56,
          "name": "G#3",
          "ticks": 111120,
          "time": 84.181734,
          "velocity": 0.6299212598425197
        },
        {
          "duration": 0.16363619999999912,
          "durationTicks": 216,
          "midi": 33,
          "name": "A1",
          "ticks": 111360,
          "time": 84.363552,
          "velocity": 0.6299212598425197
        },
        {
          "duration": 0.16363619999999912,
          "durationTicks": 216,
          "midi": 45,
          "name": "A2",
          "ticks": 111360,
          "time": 84.363552,
          "velocity": 0.6299212598425197
        },
        {
          "duration": 0.16363619999999912,
          "durationTicks": 216,
          "midi": 40,
          "name": "E2",
          "ticks": 111600,
          "time": 84.54537,
          "velocity": 0.6299212598425197
        },
        {
          "duration": 0.16363619999999912,
          "durationTicks": 216,
          "midi": 45,
          "name": "A2",
          "ticks": 111840,
          "time": 84.727188,
          "velocity": 0.6299212598425197
        },
        {
          "duration": 0.16363619999999912,
          "durationTicks": 216,
          "midi": 52,
          "name": "E3",
          "ticks": 112080,
          "time": 84.909006,
          "velocity": 0.6299212598425197
        },
        {
          "duration": 0.16363619999999912,
          "durationTicks": 216,
          "midi": 57,
          "name": "A3",
          "ticks": 112320,
          "time": 85.090824,
          "velocity": 0.6299212598425197
        },
        {
          "duration": 0.16363619999999912,
          "durationTicks": 216,
          "midi": 45,
          "name": "A2",
          "ticks": 112320,
          "time": 85.090824,
          "velocity": 0.6299212598425197
        },
        {
          "duration": 0.16363619999999912,
          "durationTicks": 216,
          "midi": 52,
          "name": "E3",
          "ticks": 112560,
          "time": 85.272642,
          "velocity": 0.6299212598425197
        },
        {
          "duration": 0.16363619999999912,
          "durationTicks": 216,
          "midi": 57,
          "name": "A3",
          "ticks": 112800,
          "time": 85.45446,
          "velocity": 0.6299212598425197
        },
        {
          "duration": 0.16363619999999912,
          "durationTicks": 216,
          "midi": 45,
          "name": "A2",
          "ticks": 112800,
          "time": 85.45446,
          "velocity": 0.6299212598425197
        },
        {
          "duration": 0.16363619999999912,
          "durationTicks": 216,
          "midi": 52,
          "name": "E3",
          "ticks": 113040,
          "time": 85.636278,
          "velocity": 0.6299212598425197
        },
        {
          "duration": 0.16363619999999912,
          "durationTicks": 216,
          "midi": 52,
          "name": "E3",
          "ticks": 113280,
          "time": 85.818096,
          "velocity": 0.6299212598425197
        },
        {
          "duration": 0.16363619999999912,
          "durationTicks": 216,
          "midi": 40,
          "name": "E2",
          "ticks": 113280,
          "time": 85.818096,
          "velocity": 0.6299212598425197
        },
        {
          "duration": 0.16363619999999912,
          "durationTicks": 216,
          "midi": 47,
          "name": "B2",
          "ticks": 113520,
          "time": 85.999914,
          "velocity": 0.6299212598425197
        },
        {
          "duration": 0.16363619999999912,
          "durationTicks": 216,
          "midi": 52,
          "name": "E3",
          "ticks": 113760,
          "time": 86.181732,
          "velocity": 0.6299212598425197
        },
        {
          "duration": 0.16363619999999912,
          "durationTicks": 216,
          "midi": 59,
          "name": "B3",
          "ticks": 114000,
          "time": 86.36355,
          "velocity": 0.6299212598425197
        },
        {
          "duration": 0.1636361999999849,
          "durationTicks": 216,
          "midi": 64,
          "name": "E4",
          "ticks": 114240,
          "time": 86.54536800000001,
          "velocity": 0.6299212598425197
        },
        {
          "duration": 0.1636361999999849,
          "durationTicks": 216,
          "midi": 52,
          "name": "E3",
          "ticks": 114240,
          "time": 86.54536800000001,
          "velocity": 0.6299212598425197
        },
        {
          "duration": 0.16363619999999912,
          "durationTicks": 216,
          "midi": 59,
          "name": "B3",
          "ticks": 114480,
          "time": 86.727186,
          "velocity": 0.6299212598425197
        },
        {
          "duration": 0.1636361999999849,
          "durationTicks": 216,
          "midi": 64,
          "name": "E4",
          "ticks": 114720,
          "time": 86.90900400000001,
          "velocity": 0.6299212598425197
        },
        {
          "duration": 0.1636361999999849,
          "durationTicks": 216,
          "midi": 52,
          "name": "E3",
          "ticks": 114720,
          "time": 86.90900400000001,
          "velocity": 0.6299212598425197
        },
        {
          "duration": 0.16363619999999912,
          "durationTicks": 216,
          "midi": 59,
          "name": "B3",
          "ticks": 114960,
          "time": 87.090822,
          "velocity": 0.6299212598425197
        },
        {
          "duration": 0.1636361999999849,
          "durationTicks": 216,
          "midi": 35,
          "name": "B1",
          "ticks": 115200,
          "time": 87.27264000000001,
          "velocity": 0.6299212598425197
        },
        {
          "duration": 0.1636361999999849,
          "durationTicks": 216,
          "midi": 47,
          "name": "B2",
          "ticks": 115200,
          "time": 87.27264000000001,
          "velocity": 0.6299212598425197
        },
        {
          "duration": 0.16363619999999912,
          "durationTicks": 216,
          "midi": 42,
          "name": "F#2",
          "ticks": 115440,
          "time": 87.454458,
          "velocity": 0.6299212598425197
        },
        {
          "duration": 0.1636361999999849,
          "durationTicks": 216,
          "midi": 47,
          "name": "B2",
          "ticks": 115680,
          "time": 87.63627600000001,
          "velocity": 0.6299212598425197
        },
        {
          "duration": 0.16363619999999912,
          "durationTicks": 216,
          "midi": 54,
          "name": "F#3",
          "ticks": 115920,
          "time": 87.818094,
          "velocity": 0.6299212598425197
        },
        {
          "duration": 0.1636361999999849,
          "durationTicks": 216,
          "midi": 59,
          "name": "B3",
          "ticks": 116160,
          "time": 87.99991200000001,
          "velocity": 0.6299212598425197
        },
        {
          "duration": 0.1636361999999849,
          "durationTicks": 216,
          "midi": 47,
          "name": "B2",
          "ticks": 116160,
          "time": 87.99991200000001,
          "velocity": 0.6299212598425197
        },
        {
          "duration": 0.16363619999999912,
          "durationTicks": 216,
          "midi": 59,
          "name": "B3",
          "ticks": 116400,
          "time": 88.18173,
          "velocity": 0.6299212598425197
        },
        {
          "duration": 0.16363619999999912,
          "durationTicks": 216,
          "midi": 47,
          "name": "B2",
          "ticks": 116400,
          "time": 88.18173,
          "velocity": 0.6299212598425197
        },
        {
          "duration": 0.1636361999999849,
          "durationTicks": 216,
          "midi": 59,
          "name": "B3",
          "ticks": 116640,
          "time": 88.36354800000001,
          "velocity": 0.6299212598425197
        },
        {
          "duration": 0.1636361999999849,
          "durationTicks": 216,
          "midi": 47,
          "name": "B2",
          "ticks": 116640,
          "time": 88.36354800000001,
          "velocity": 0.6299212598425197
        },
        {
          "duration": 0.16363619999999912,
          "durationTicks": 216,
          "midi": 59,
          "name": "B3",
          "ticks": 116880,
          "time": 88.545366,
          "velocity": 0.6299212598425197
        },
        {
          "duration": 0.16363619999999912,
          "durationTicks": 216,
          "midi": 47,
          "name": "B2",
          "ticks": 116880,
          "time": 88.545366,
          "velocity": 0.6299212598425197
        }
      ],
      "endOfTrackTicks": 117120
    }
  ]
}
