{
  "header": {
    "keySignatures": [
      {
        "key": "C",
        "scale": "major",
        "ticks": 0
      }
    ],
    "meta": [],
    "name": "",
    "ppq": 1024,
    "tempos": [
      {
        "bpm": 160,
        "ticks": 0
      }
    ],
    "timeSignatures": [
      {
        "ticks": 0,
        "timeSignature": [
          4,
          4
        ],
        "measures": 0
      }
    ]
  },
  "tracks": [
    {
      "channel": 0,
      "controlChanges": {
        "7": [
          {
            "number": 7,
            "ticks": 0,
            "time": 0,
            "value": 0.7874015748031497
          }
        ],
        "10": [
          {
            "number": 10,
            "ticks": 0,
            "time": 0,
            "value": 0.5039370078740157
          },
          {
            "number": 10,
            "ticks": 0,
            "time": 0,
            "value": 0.5039370078740157
          }
        ]
      },
      "pitchBends": [],
      "instrument": {
        "family": "guitar",
        "name": "overdriven guitar"
      },
      "name": "Overdriven Guitar",
      "notes": [
        {
          "duration": 0.1875,
          "durationTicks": 512,
          "midi": 49,
          "name": "C#3",
          "ticks": 0,
          "time": 0,
          "velocity": 0.7559055118110236
        },
        {
          "duration": 0.1875,
          "durationTicks": 512,
          "midi": 56,
          "name": "G#3",
          "ticks": 0,
          "time": 0,
          "velocity": 0.7559055118110236
        },
        {
          "duration": 0.1875,
          "durationTicks": 512,
          "midi": 61,
          "name": "C#4",
          "ticks": 0,
          "time": 0,
          "velocity": 0.7559055118110236
        },
        {
          "duration": 0.375,
          "durationTicks": 1024,
          "midi": 49,
          "name": "C#3",
          "ticks": 512,
          "time": 0.1875,
          "velocity": 0.7559055118110236
        },
        {
          "duration": 0.1875,
          "durationTicks": 512,
          "midi": 56,
          "name": "G#3",
          "ticks": 512,
          "time": 0.1875,
          "velocity": 0.7559055118110236
        },
        {
          "duration": 0.1875,
          "durationTicks": 512,
          "midi": 61,
          "name": "C#4",
          "ticks": 512,
          "time": 0.1875,
          "velocity": 0.7559055118110236
        },
        {
          "duration": 0.375,
          "durationTicks": 1024,
          "midi": 49,
          "name": "C#3",
          "ticks": 1536,
          "time": 0.5625,
          "velocity": 0.7559055118110236
        },
        {
          "duration": 0.375,
          "durationTicks": 1024,
          "midi": 56,
          "name": "G#3",
          "ticks": 1536,
          "time": 0.5625,
          "velocity": 0.7559055118110236
        },
        {
          "duration": 0.375,
          "durationTicks": 1024,
          "midi": 61,
          "name": "C#4",
          "ticks": 1536,
          "time": 0.5625,
          "velocity": 0.7559055118110236
        },
        {
          "duration": 0.375,
          "durationTicks": 1024,
          "midi": 49,
          "name": "C#3",
          "ticks": 2560,
          "time": 0.9375,
          "velocity": 0.7559055118110236
        },
        {
          "duration": 0.1875,
          "durationTicks": 512,
          "midi": 56,
          "name": "G#3",
          "ticks": 2560,
          "time": 0.9375,
          "velocity": 0.7559055118110236
        },
        {
          "duration": 0.1875,
          "durationTicks": 512,
          "midi": 61,
          "name": "C#4",
          "ticks": 2560,
          "time": 0.9375,
          "velocity": 0.7559055118110236
        },
        {
          "duration": 0.1875,
          "durationTicks": 512,
          "midi": 56,
          "name": "G#3",
          "ticks": 3072,
          "time": 1.125,
          "velocity": 0.7559055118110236
        },
        {
          "duration": 0.1875,
          "durationTicks": 512,
          "midi": 61,
          "name": "C#4",
          "ticks": 3072,
          "time": 1.125,
          "velocity": 0.7559055118110236
        },
        {
          "duration": 0.1875,
          "durationTicks": 512,
          "midi": 49,
          "name": "C#3",
          "ticks": 3584,
          "time": 1.3125,
          "velocity": 0.7559055118110236
        },
        {
          "duration": 0.1875,
          "durationTicks": 512,
          "midi": 56,
          "name": "G#3",
          "ticks": 3584,
          "time": 1.3125,
          "velocity": 0.7559055118110236
        },
        {
          "duration": 0.1875,
          "durationTicks": 512,
          "midi": 61,
          "name": "C#4",
          "ticks": 3584,
          "time": 1.3125,
          "velocity": 0.7559055118110236
        },
        {
          "duration": 0.1875,
          "durationTicks": 512,
          "midi": 45,
          "name": "A2",
          "ticks": 4096,
          "time": 1.5,
          "velocity": 0.7559055118110236
        },
        {
          "duration": 0.1875,
          "durationTicks": 512,
          "midi": 52,
          "name": "E3",
          "ticks": 4096,
          "time": 1.5,
          "velocity": 0.7559055118110236
        },
        {
          "duration": 0.1875,
          "durationTicks": 512,
          "midi": 57,
          "name": "A3",
          "ticks": 4096,
          "time": 1.5,
          "velocity": 0.7559055118110236
        },
        {
          "duration": 0.1875,
          "durationTicks": 512,
          "midi": 61,
          "name": "C#4",
          "ticks": 4096,
          "time": 1.5,
          "velocity": 0.7559055118110236
        },
        {
          "duration": 0.5625,
          "durationTicks": 1536,
          "midi": 45,
          "name": "A2",
          "ticks": 4608,
          "time": 1.6875,
          "velocity": 0.7559055118110236
        },
        {
          "duration": 0.1875,
          "durationTicks": 512,
          "midi": 52,
          "name": "E3",
          "ticks": 4608,
          "time": 1.6875,
          "velocity": 0.7559055118110236
        },
        {
          "duration": 0.1875,
          "durationTicks": 512,
          "midi": 57,
          "name": "A3",
          "ticks": 4608,
          "time": 1.6875,
          "velocity": 0.7559055118110236
        },
        {
          "duration": 0.1875,
          "durationTicks": 512,
          "midi": 61,
          "name": "C#4",
          "ticks": 4608,
          "time": 1.6875,
          "velocity": 0.7559055118110236
        },
        {
          "duration": 0.1875,
          "durationTicks": 512,
          "midi": 52,
          "name": "E3",
          "ticks": 5632,
          "time": 2.0625,
          "velocity": 0.7559055118110236
        },
        {
          "duration": 0.1875,
          "durationTicks": 512,
          "midi": 57,
          "name": "A3",
          "ticks": 5632,
          "time": 2.0625,
          "velocity": 0.7559055118110236
        },
        {
          "duration": 0.1875,
          "durationTicks": 512,
          "midi": 61,
          "name": "C#4",
          "ticks": 5632,
          "time": 2.0625,
          "velocity": 0.7559055118110236
        },
        {
          "duration": 0.375,
          "durationTicks": 1024,
          "midi": 45,
          "name": "A2",
          "ticks": 6144,
          "time": 2.25,
          "velocity": 0.7559055118110236
        },
        {
          "duration": 0.1875,
          "durationTicks": 512,
          "midi": 52,
          "name": "E3",
          "ticks": 6144,
          "time": 2.25,
          "velocity": 0.7559055118110236
        },
        {
          "duration": 0.1875,
          "durationTicks": 512,
          "midi": 57,
          "name": "A3",
          "ticks": 6144,
          "time": 2.25,
          "velocity": 0.7559055118110236
        },
        {
          "duration": 0.1875,
          "durationTicks": 512,
          "midi": 61,
          "name": "C#4",
          "ticks": 6144,
          "time": 2.25,
          "velocity": 0.7559055118110236
        },
        {
          "duration": 0.1875,
          "durationTicks": 512,
          "midi": 52,
          "name": "E3",
          "ticks": 6656,
          "time": 2.4375,
          "velocity": 0.7559055118110236
        },
        {
          "duration": 0.1875,
          "durationTicks": 512,
          "midi": 57,
          "name": "A3",
          "ticks": 6656,
          "time": 2.4375,
          "velocity": 0.7559055118110236
        },
        {
          "duration": 0.1875,
          "durationTicks": 512,
          "midi": 61,
          "name": "C#4",
          "ticks": 6656,
          "time": 2.4375,
          "velocity": 0.7559055118110236
        },
        {
          "duration": 0.375,
          "durationTicks": 1024,
          "midi": 45,
          "name": "A2",
          "ticks": 7168,
          "time": 2.625,
          "velocity": 0.7559055118110236
        },
        {
          "duration": 0.1875,
          "durationTicks": 512,
          "midi": 52,
          "name": "E3",
          "ticks": 7168,
          "time": 2.625,
          "velocity": 0.7559055118110236
        },
        {
          "duration": 0.1875,
          "durationTicks": 512,
          "midi": 57,
          "name": "A3",
          "ticks": 7168,
          "time": 2.625,
          "velocity": 0.7559055118110236
        },
        {
          "duration": 0.1875,
          "durationTicks": 512,
          "midi": 61,
          "name": "C#4",
          "ticks": 7168,
          "time": 2.625,
          "velocity": 0.7559055118110236
        },
        {
          "duration": 0.1875,
          "durationTicks": 512,
          "midi": 52,
          "name": "E3",
          "ticks": 7680,
          "time": 2.8125,
          "velocity": 0.7559055118110236
        },
        {
          "duration": 0.1875,
          "durationTicks": 512,
          "midi": 57,
          "name": "A3",
          "ticks": 7680,
          "time": 2.8125,
          "velocity": 0.7559055118110236
        },
        {
          "duration": 0.1875,
          "durationTicks": 512,
          "midi": 61,
          "name": "C#4",
          "ticks": 7680,
          "time": 2.8125,
          "velocity": 0.7559055118110236
        },
        {
          "duration": 0.375,
          "durationTicks": 1024,
          "midi": 47,
          "name": "B2",
          "ticks": 8192,
          "time": 3,
          "velocity": 0.7559055118110236
        },
        {
          "duration": 0.1875,
          "durationTicks": 512,
          "midi": 54,
          "name": "F#3",
          "ticks": 8192,
          "time": 3,
          "velocity": 0.7559055118110236
        },
        {
          "duration": 0.1875,
          "durationTicks": 512,
          "midi": 59,
          "name": "B3",
          "ticks": 8192,
          "time": 3,
          "velocity": 0.7559055118110236
        },
        {
          "duration": 0.1875,
          "durationTicks": 512,
          "midi": 61,
          "name": "C#4",
          "ticks": 8192,
          "time": 3,
          "velocity": 0.7559055118110236
        },
        {
          "duration": 0.1875,
          "durationTicks": 512,
          "midi": 54,
          "name": "F#3",
          "ticks": 8704,
          "time": 3.1875,
          "velocity": 0.7559055118110236
        },
        {
          "duration": 0.1875,
          "durationTicks": 512,
          "midi": 59,
          "name": "B3",
          "ticks": 8704,
          "time": 3.1875,
          "velocity": 0.7559055118110236
        },
        {
          "duration": 0.1875,
          "durationTicks": 512,
          "midi": 61,
          "name": "C#4",
          "ticks": 8704,
          "time": 3.1875,
          "velocity": 0.7559055118110236
        },
        {
          "duration": 0.375,
          "durationTicks": 1024,
          "midi": 47,
          "name": "B2",
          "ticks": 9216,
          "time": 3.375,
          "velocity": 0.7559055118110236
        },
        {
          "duration": 0.1875,
          "durationTicks": 512,
          "midi": 54,
          "name": "F#3",
          "ticks": 9216,
          "time": 3.375,
          "velocity": 0.7559055118110236
        },
        {
          "duration": 0.1875,
          "durationTicks": 512,
          "midi": 59,
          "name": "B3",
          "ticks": 9216,
          "time": 3.375,
          "velocity": 0.7559055118110236
        },
        {
          "duration": 0.1875,
          "durationTicks": 512,
          "midi": 61,
          "name": "C#4",
          "ticks": 9216,
          "time": 3.375,
          "velocity": 0.7559055118110236
        },
        {
          "duration": 0.1875,
          "durationTicks": 512,
          "midi": 54,
          "name": "F#3",
          "ticks": 9728,
          "time": 3.5625,
          "velocity": 0.7559055118110236
        },
        {
          "duration": 0.1875,
          "durationTicks": 512,
          "midi": 59,
          "name": "B3",
          "ticks": 9728,
          "time": 3.5625,
          "velocity": 0.7559055118110236
        },
        {
          "duration": 0.1875,
          "durationTicks": 512,
          "midi": 61,
          "name": "C#4",
          "ticks": 9728,
          "time": 3.5625,
          "velocity": 0.7559055118110236
        },
        {
          "duration": 0.5625,
          "durationTicks": 1536,
          "midi": 47,
          "name": "B2",
          "ticks": 10240,
          "time": 3.75,
          "velocity": 0.7559055118110236
        },
        {
          "duration": 0.1875,
          "durationTicks": 512,
          "midi": 54,
          "name": "F#3",
          "ticks": 10240,
          "time": 3.75,
          "velocity": 0.7559055118110236
        },
        {
          "duration": 0.1875,
          "durationTicks": 512,
          "midi": 59,
          "name": "B3",
          "ticks": 10240,
          "time": 3.75,
          "velocity": 0.7559055118110236
        },
        {
          "duration": 0.1875,
          "durationTicks": 512,
          "midi": 61,
          "name": "C#4",
          "ticks": 10240,
          "time": 3.75,
          "velocity": 0.7559055118110236
        },
        {
          "duration": 0.375,
          "durationTicks": 1024,
          "midi": 54,
          "name": "F#3",
          "ticks": 10752,
          "time": 3.9375,
          "velocity": 0.7559055118110236
        },
        {
          "duration": 0.1875,
          "durationTicks": 512,
          "midi": 59,
          "name": "B3",
          "ticks": 10752,
          "time": 3.9375,
          "velocity": 0.7559055118110236
        },
        {
          "duration": 0.1875,
          "durationTicks": 512,
          "midi": 61,
          "name": "C#4",
          "ticks": 10752,
          "time": 3.9375,
          "velocity": 0.7559055118110236
        },
        {
          "duration": 0.375,
          "durationTicks": 1024,
          "midi": 52,
          "name": "E3",
          "ticks": 11776,
          "time": 4.3125,
          "velocity": 0.7559055118110236
        },
        {
          "duration": 0.375,
          "durationTicks": 1024,
          "midi": 59,
          "name": "B3",
          "ticks": 11776,
          "time": 4.3125,
          "velocity": 0.7559055118110236
        },
        {
          "duration": 0.375,
          "durationTicks": 1024,
          "midi": 64,
          "name": "E4",
          "ticks": 11776,
          "time": 4.3125,
          "velocity": 0.7559055118110236
        },
        {
          "duration": 0.375,
          "durationTicks": 1024,
          "midi": 52,
          "name": "E3",
          "ticks": 12800,
          "time": 4.6875,
          "velocity": 0.7559055118110236
        },
        {
          "duration": 0.1875,
          "durationTicks": 512,
          "midi": 59,
          "name": "B3",
          "ticks": 12800,
          "time": 4.6875,
          "velocity": 0.7559055118110236
        },
        {
          "duration": 0.01171875,
          "durationTicks": 32,
          "midi": 64,
          "name": "E4",
          "ticks": 12800,
          "time": 4.6875,
          "velocity": 0.7559055118110236
        },
        {
          "duration": 0.1875,
          "durationTicks": 512,
          "midi": 64,
          "name": "E4",
          "ticks": 12800,
          "time": 4.6875,
          "velocity": 0.7559055118110236
        },
        {
          "duration": 0.375,
          "durationTicks": 1024,
          "midi": 52,
          "name": "E3",
          "ticks": 13824,
          "time": 5.0625,
          "velocity": 0.7559055118110236
        },
        {
          "duration": 0.1875,
          "durationTicks": 512,
          "midi": 59,
          "name": "B3",
          "ticks": 13824,
          "time": 5.0625,
          "velocity": 0.7559055118110236
        },
        {
          "duration": 0.01171875,
          "durationTicks": 32,
          "midi": 64,
          "name": "E4",
          "ticks": 13824,
          "time": 5.0625,
          "velocity": 0.7559055118110236
        },
        {
          "duration": 0.1875,
          "durationTicks": 512,
          "midi": 64,
          "name": "E4",
          "ticks": 13824,
          "time": 5.0625,
          "velocity": 0.7559055118110236
        },
        {
          "duration": 0.1875,
          "durationTicks": 512,
          "midi": 59,
          "name": "B3",
          "ticks": 14336,
          "time": 5.25,
          "velocity": 0.7559055118110236
        },
        {
          "duration": 0.01171875,
          "durationTicks": 32,
          "midi": 64,
          "name": "E4",
          "ticks": 14336,
          "time": 5.25,
          "velocity": 0.7559055118110236
        },
        {
          "duration": 0.1875,
          "durationTicks": 512,
          "midi": 64,
          "name": "E4",
          "ticks": 14336,
          "time": 5.25,
          "velocity": 0.7559055118110236
        },
        {
          "duration": 0.375,
          "durationTicks": 1024,
          "midi": 52,
          "name": "E3",
          "ticks": 14848,
          "time": 5.4375,
          "velocity": 0.7559055118110236
        },
        {
          "duration": 0.1875,
          "durationTicks": 512,
          "midi": 59,
          "name": "B3",
          "ticks": 14848,
          "time": 5.4375,
          "velocity": 0.7559055118110236
        },
        {
          "duration": 0.01171875,
          "durationTicks": 32,
          "midi": 64,
          "name": "E4",
          "ticks": 14848,
          "time": 5.4375,
          "velocity": 0.7559055118110236
        },
        {
          "duration": 0.1875,
          "durationTicks": 512,
          "midi": 64,
          "name": "E4",
          "ticks": 14848,
          "time": 5.4375,
          "velocity": 0.7559055118110236
        },
        {
          "duration": 0.1875,
          "durationTicks": 512,
          "midi": 59,
          "name": "B3",
          "ticks": 15360,
          "time": 5.625,
          "velocity": 0.7559055118110236
        },
        {
          "duration": 0.01171875,
          "durationTicks": 32,
          "midi": 64,
          "name": "E4",
          "ticks": 15360,
          "time": 5.625,
          "velocity": 0.7559055118110236
        },
        {
          "duration": 0.1875,
          "durationTicks": 512,
          "midi": 64,
          "name": "E4",
          "ticks": 15360,
          "time": 5.625,
          "velocity": 0.7559055118110236
        },
        {
          "duration": 0.1875,
          "durationTicks": 512,
          "midi": 52,
          "name": "E3",
          "ticks": 15872,
          "time": 5.8125,
          "velocity": 0.7559055118110236
        },
        {
          "duration": 0.1875,
          "durationTicks": 512,
          "midi": 59,
          "name": "B3",
          "ticks": 15872,
          "time": 5.8125,
          "velocity": 0.7559055118110236
        },
        {
          "duration": 0.01171875,
          "durationTicks": 32,
          "midi": 64,
          "name": "E4",
          "ticks": 15872,
          "time": 5.8125,
          "velocity": 0.7559055118110236
        },
        {
          "duration": 0.1875,
          "durationTicks": 512,
          "midi": 64,
          "name": "E4",
          "ticks": 15872,
          "time": 5.8125,
          "velocity": 0.7559055118110236
        },
        {
          "duration": 0.1875,
          "durationTicks": 512,
          "midi": 49,
          "name": "C#3",
          "ticks": 16384,
          "time": 6,
          "velocity": 0.7559055118110236
        },
        {
          "duration": 0.1875,
          "durationTicks": 512,
          "midi": 56,
          "name": "G#3",
          "ticks": 16384,
          "time": 6,
          "velocity": 0.7559055118110236
        },
        {
          "duration": 0.1875,
          "durationTicks": 512,
          "midi": 61,
          "name": "C#4",
          "ticks": 16384,
          "time": 6,
          "velocity": 0.7559055118110236
        },
        {
          "duration": 0.375,
          "durationTicks": 1024,
          "midi": 49,
          "name": "C#3",
          "ticks": 16896,
          "time": 6.1875,
          "velocity": 0.7559055118110236
        },
        {
          "duration": 0.1875,
          "durationTicks": 512,
          "midi": 56,
          "name": "G#3",
          "ticks": 16896,
          "time": 6.1875,
          "velocity": 0.7559055118110236
        },
        {
          "duration": 0.1875,
          "durationTicks": 512,
          "midi": 61,
          "name": "C#4",
          "ticks": 16896,
          "time": 6.1875,
          "velocity": 0.7559055118110236
        },
        {
          "duration": 0.375,
          "durationTicks": 1024,
          "midi": 49,
          "name": "C#3",
          "ticks": 17920,
          "time": 6.5625,
          "velocity": 0.7559055118110236
        },
        {
          "duration": 0.375,
          "durationTicks": 1024,
          "midi": 56,
          "name": "G#3",
          "ticks": 17920,
          "time": 6.5625,
          "velocity": 0.7559055118110236
        },
        {
          "duration": 0.375,
          "durationTicks": 1024,
          "midi": 61,
          "name": "C#4",
          "ticks": 17920,
          "time": 6.5625,
          "velocity": 0.7559055118110236
        },
        {
          "duration": 0.375,
          "durationTicks": 1024,
          "midi": 49,
          "name": "C#3",
          "ticks": 18944,
          "time": 6.9375,
          "velocity": 0.7559055118110236
        },
        {
          "duration": 0.1875,
          "durationTicks": 512,
          "midi": 56,
          "name": "G#3",
          "ticks": 18944,
          "time": 6.9375,
          "velocity": 0.7559055118110236
        },
        {
          "duration": 0.1875,
          "durationTicks": 512,
          "midi": 61,
          "name": "C#4",
          "ticks": 18944,
          "time": 6.9375,
          "velocity": 0.7559055118110236
        },
        {
          "duration": 0.1875,
          "durationTicks": 512,
          "midi": 56,
          "name": "G#3",
          "ticks": 19456,
          "time": 7.125,
          "velocity": 0.7559055118110236
        },
        {
          "duration": 0.1875,
          "durationTicks": 512,
          "midi": 61,
          "name": "C#4",
          "ticks": 19456,
          "time": 7.125,
          "velocity": 0.7559055118110236
        },
        {
          "duration": 0.1875,
          "durationTicks": 512,
          "midi": 49,
          "name": "C#3",
          "ticks": 19968,
          "time": 7.3125,
          "velocity": 0.7559055118110236
        },
        {
          "duration": 0.1875,
          "durationTicks": 512,
          "midi": 56,
          "name": "G#3",
          "ticks": 19968,
          "time": 7.3125,
          "velocity": 0.7559055118110236
        },
        {
          "duration": 0.1875,
          "durationTicks": 512,
          "midi": 61,
          "name": "C#4",
          "ticks": 19968,
          "time": 7.3125,
          "velocity": 0.7559055118110236
        },
        {
          "duration": 0.1875,
          "durationTicks": 512,
          "midi": 45,
          "name": "A2",
          "ticks": 20480,
          "time": 7.5,
          "velocity": 0.7559055118110236
        },
        {
          "duration": 0.1875,
          "durationTicks": 512,
          "midi": 52,
          "name": "E3",
          "ticks": 20480,
          "time": 7.5,
          "velocity": 0.7559055118110236
        },
        {
          "duration": 0.1875,
          "durationTicks": 512,
          "midi": 57,
          "name": "A3",
          "ticks": 20480,
          "time": 7.5,
          "velocity": 0.7559055118110236
        },
        {
          "duration": 0.1875,
          "durationTicks": 512,
          "midi": 61,
          "name": "C#4",
          "ticks": 20480,
          "time": 7.5,
          "velocity": 0.7559055118110236
        },
        {
          "duration": 0.5625,
          "durationTicks": 1536,
          "midi": 45,
          "name": "A2",
          "ticks": 20992,
          "time": 7.6875,
          "velocity": 0.7559055118110236
        },
        {
          "duration": 0.1875,
          "durationTicks": 512,
          "midi": 52,
          "name": "E3",
          "ticks": 20992,
          "time": 7.6875,
          "velocity": 0.7559055118110236
        },
        {
          "duration": 0.1875,
          "durationTicks": 512,
          "midi": 57,
          "name": "A3",
          "ticks": 20992,
          "time": 7.6875,
          "velocity": 0.7559055118110236
        },
        {
          "duration": 0.1875,
          "durationTicks": 512,
          "midi": 61,
          "name": "C#4",
          "ticks": 20992,
          "time": 7.6875,
          "velocity": 0.7559055118110236
        },
        {
          "duration": 0.1875,
          "durationTicks": 512,
          "midi": 52,
          "name": "E3",
          "ticks": 22016,
          "time": 8.0625,
          "velocity": 0.7559055118110236
        },
        {
          "duration": 0.1875,
          "durationTicks": 512,
          "midi": 57,
          "name": "A3",
          "ticks": 22016,
          "time": 8.0625,
          "velocity": 0.7559055118110236
        },
        {
          "duration": 0.1875,
          "durationTicks": 512,
          "midi": 61,
          "name": "C#4",
          "ticks": 22016,
          "time": 8.0625,
          "velocity": 0.7559055118110236
        },
        {
          "duration": 0.375,
          "durationTicks": 1024,
          "midi": 45,
          "name": "A2",
          "ticks": 22528,
          "time": 8.25,
          "velocity": 0.7559055118110236
        },
        {
          "duration": 0.1875,
          "durationTicks": 512,
          "midi": 52,
          "name": "E3",
          "ticks": 22528,
          "time": 8.25,
          "velocity": 0.7559055118110236
        },
        {
          "duration": 0.1875,
          "durationTicks": 512,
          "midi": 57,
          "name": "A3",
          "ticks": 22528,
          "time": 8.25,
          "velocity": 0.7559055118110236
        },
        {
          "duration": 0.1875,
          "durationTicks": 512,
          "midi": 61,
          "name": "C#4",
          "ticks": 22528,
          "time": 8.25,
          "velocity": 0.7559055118110236
        },
        {
          "duration": 0.1875,
          "durationTicks": 512,
          "midi": 52,
          "name": "E3",
          "ticks": 23040,
          "time": 8.4375,
          "velocity": 0.7559055118110236
        },
        {
          "duration": 0.1875,
          "durationTicks": 512,
          "midi": 57,
          "name": "A3",
          "ticks": 23040,
          "time": 8.4375,
          "velocity": 0.7559055118110236
        },
        {
          "duration": 0.1875,
          "durationTicks": 512,
          "midi": 61,
          "name": "C#4",
          "ticks": 23040,
          "time": 8.4375,
          "velocity": 0.7559055118110236
        },
        {
          "duration": 0.375,
          "durationTicks": 1024,
          "midi": 45,
          "name": "A2",
          "ticks": 23552,
          "time": 8.625,
          "velocity": 0.7559055118110236
        },
        {
          "duration": 0.1875,
          "durationTicks": 512,
          "midi": 52,
          "name": "E3",
          "ticks": 23552,
          "time": 8.625,
          "velocity": 0.7559055118110236
        },
        {
          "duration": 0.1875,
          "durationTicks": 512,
          "midi": 57,
          "name": "A3",
          "ticks": 23552,
          "time": 8.625,
          "velocity": 0.7559055118110236
        },
        {
          "duration": 0.1875,
          "durationTicks": 512,
          "midi": 61,
          "name": "C#4",
          "ticks": 23552,
          "time": 8.625,
          "velocity": 0.7559055118110236
        },
        {
          "duration": 0.1875,
          "durationTicks": 512,
          "midi": 52,
          "name": "E3",
          "ticks": 24064,
          "time": 8.8125,
          "velocity": 0.7559055118110236
        },
        {
          "duration": 0.1875,
          "durationTicks": 512,
          "midi": 57,
          "name": "A3",
          "ticks": 24064,
          "time": 8.8125,
          "velocity": 0.7559055118110236
        },
        {
          "duration": 0.1875,
          "durationTicks": 512,
          "midi": 61,
          "name": "C#4",
          "ticks": 24064,
          "time": 8.8125,
          "velocity": 0.7559055118110236
        },
        {
          "duration": 0.375,
          "durationTicks": 1024,
          "midi": 47,
          "name": "B2",
          "ticks": 24576,
          "time": 9,
          "velocity": 0.7559055118110236
        },
        {
          "duration": 0.1875,
          "durationTicks": 512,
          "midi": 54,
          "name": "F#3",
          "ticks": 24576,
          "time": 9,
          "velocity": 0.7559055118110236
        },
        {
          "duration": 0.1875,
          "durationTicks": 512,
          "midi": 59,
          "name": "B3",
          "ticks": 24576,
          "time": 9,
          "velocity": 0.7559055118110236
        },
        {
          "duration": 0.1875,
          "durationTicks": 512,
          "midi": 61,
          "name": "C#4",
          "ticks": 24576,
          "time": 9,
          "velocity": 0.7559055118110236
        },
        {
          "duration": 0.1875,
          "durationTicks": 512,
          "midi": 54,
          "name": "F#3",
          "ticks": 25088,
          "time": 9.1875,
          "velocity": 0.7559055118110236
        },
        {
          "duration": 0.1875,
          "durationTicks": 512,
          "midi": 59,
          "name": "B3",
          "ticks": 25088,
          "time": 9.1875,
          "velocity": 0.7559055118110236
        },
        {
          "duration": 0.1875,
          "durationTicks": 512,
          "midi": 61,
          "name": "C#4",
          "ticks": 25088,
          "time": 9.1875,
          "velocity": 0.7559055118110236
        },
        {
          "duration": 0.375,
          "durationTicks": 1024,
          "midi": 47,
          "name": "B2",
          "ticks": 25600,
          "time": 9.375,
          "velocity": 0.7559055118110236
        },
        {
          "duration": 0.1875,
          "durationTicks": 512,
          "midi": 54,
          "name": "F#3",
          "ticks": 25600,
          "time": 9.375,
          "velocity": 0.7559055118110236
        },
        {
          "duration": 0.1875,
          "durationTicks": 512,
          "midi": 59,
          "name": "B3",
          "ticks": 25600,
          "time": 9.375,
          "velocity": 0.7559055118110236
        },
        {
          "duration": 0.1875,
          "durationTicks": 512,
          "midi": 61,
          "name": "C#4",
          "ticks": 25600,
          "time": 9.375,
          "velocity": 0.7559055118110236
        },
        {
          "duration": 0.1875,
          "durationTicks": 512,
          "midi": 54,
          "name": "F#3",
          "ticks": 26112,
          "time": 9.5625,
          "velocity": 0.7559055118110236
        },
        {
          "duration": 0.1875,
          "durationTicks": 512,
          "midi": 59,
          "name": "B3",
          "ticks": 26112,
          "time": 9.5625,
          "velocity": 0.7559055118110236
        },
        {
          "duration": 0.1875,
          "durationTicks": 512,
          "midi": 61,
          "name": "C#4",
          "ticks": 26112,
          "time": 9.5625,
          "velocity": 0.7559055118110236
        },
        {
          "duration": 0.5625,
          "durationTicks": 1536,
          "midi": 47,
          "name": "B2",
          "ticks": 26624,
          "time": 9.75,
          "velocity": 0.7559055118110236
        },
        {
          "duration": 0.1875,
          "durationTicks": 512,
          "midi": 54,
          "name": "F#3",
          "ticks": 26624,
          "time": 9.75,
          "velocity": 0.7559055118110236
        },
        {
          "duration": 0.1875,
          "durationTicks": 512,
          "midi": 59,
          "name": "B3",
          "ticks": 26624,
          "time": 9.75,
          "velocity": 0.7559055118110236
        },
        {
          "duration": 0.1875,
          "durationTicks": 512,
          "midi": 61,
          "name": "C#4",
          "ticks": 26624,
          "time": 9.75,
          "velocity": 0.7559055118110236
        },
        {
          "duration": 0.375,
          "durationTicks": 1024,
          "midi": 54,
          "name": "F#3",
          "ticks": 27136,
          "time": 9.9375,
          "velocity": 0.7559055118110236
        },
        {
          "duration": 0.1875,
          "durationTicks": 512,
          "midi": 59,
          "name": "B3",
          "ticks": 27136,
          "time": 9.9375,
          "velocity": 0.7559055118110236
        },
        {
          "duration": 0.1875,
          "durationTicks": 512,
          "midi": 61,
          "name": "C#4",
          "ticks": 27136,
          "time": 9.9375,
          "velocity": 0.7559055118110236
        },
        {
          "duration": 0.375,
          "durationTicks": 1024,
          "midi": 52,
          "name": "E3",
          "ticks": 28160,
          "time": 10.3125,
          "velocity": 0.7559055118110236
        },
        {
          "duration": 0.375,
          "durationTicks": 1024,
          "midi": 59,
          "name": "B3",
          "ticks": 28160,
          "time": 10.3125,
          "velocity": 0.7559055118110236
        },
        {
          "duration": 0.375,
          "durationTicks": 1024,
          "midi": 64,
          "name": "E4",
          "ticks": 28160,
          "time": 10.3125,
          "velocity": 0.7559055118110236
        },
        {
          "duration": 0.375,
          "durationTicks": 1024,
          "midi": 52,
          "name": "E3",
          "ticks": 29184,
          "time": 10.6875,
          "velocity": 0.7559055118110236
        },
        {
          "duration": 0.1875,
          "durationTicks": 512,
          "midi": 59,
          "name": "B3",
          "ticks": 29184,
          "time": 10.6875,
          "velocity": 0.7559055118110236
        },
        {
          "duration": 0.01171875,
          "durationTicks": 32,
          "midi": 64,
          "name": "E4",
          "ticks": 29184,
          "time": 10.6875,
          "velocity": 0.7559055118110236
        },
        {
          "duration": 0.1875,
          "durationTicks": 512,
          "midi": 64,
          "name": "E4",
          "ticks": 29184,
          "time": 10.6875,
          "velocity": 0.7559055118110236
        },
        {
          "duration": 0.375,
          "durationTicks": 1024,
          "midi": 52,
          "name": "E3",
          "ticks": 30208,
          "time": 11.0625,
          "velocity": 0.7559055118110236
        },
        {
          "duration": 0.1875,
          "durationTicks": 512,
          "midi": 59,
          "name": "B3",
          "ticks": 30208,
          "time": 11.0625,
          "velocity": 0.7559055118110236
        },
        {
          "duration": 0.01171875,
          "durationTicks": 32,
          "midi": 64,
          "name": "E4",
          "ticks": 30208,
          "time": 11.0625,
          "velocity": 0.7559055118110236
        },
        {
          "duration": 0.1875,
          "durationTicks": 512,
          "midi": 64,
          "name": "E4",
          "ticks": 30208,
          "time": 11.0625,
          "velocity": 0.7559055118110236
        },
        {
          "duration": 0.1875,
          "durationTicks": 512,
          "midi": 59,
          "name": "B3",
          "ticks": 30720,
          "time": 11.25,
          "velocity": 0.7559055118110236
        },
        {
          "duration": 0.01171875,
          "durationTicks": 32,
          "midi": 64,
          "name": "E4",
          "ticks": 30720,
          "time": 11.25,
          "velocity": 0.7559055118110236
        },
        {
          "duration": 0.1875,
          "durationTicks": 512,
          "midi": 64,
          "name": "E4",
          "ticks": 30720,
          "time": 11.25,
          "velocity": 0.7559055118110236
        },
        {
          "duration": 0.375,
          "durationTicks": 1024,
          "midi": 52,
          "name": "E3",
          "ticks": 31232,
          "time": 11.4375,
          "velocity": 0.7559055118110236
        },
        {
          "duration": 0.1875,
          "durationTicks": 512,
          "midi": 59,
          "name": "B3",
          "ticks": 31232,
          "time": 11.4375,
          "velocity": 0.7559055118110236
        },
        {
          "duration": 0.01171875,
          "durationTicks": 32,
          "midi": 64,
          "name": "E4",
          "ticks": 31232,
          "time": 11.4375,
          "velocity": 0.7559055118110236
        },
        {
          "duration": 0.1875,
          "durationTicks": 512,
          "midi": 64,
          "name": "E4",
          "ticks": 31232,
          "time": 11.4375,
          "velocity": 0.7559055118110236
        },
        {
          "duration": 0.1875,
          "durationTicks": 512,
          "midi": 59,
          "name": "B3",
          "ticks": 31744,
          "time": 11.625,
          "velocity": 0.7559055118110236
        },
        {
          "duration": 0.01171875,
          "durationTicks": 32,
          "midi": 64,
          "name": "E4",
          "ticks": 31744,
          "time": 11.625,
          "velocity": 0.7559055118110236
        },
        {
          "duration": 0.1875,
          "durationTicks": 512,
          "midi": 64,
          "name": "E4",
          "ticks": 31744,
          "time": 11.625,
          "velocity": 0.7559055118110236
        },
        {
          "duration": 0.1875,
          "durationTicks": 512,
          "midi": 52,
          "name": "E3",
          "ticks": 32256,
          "time": 11.8125,
          "velocity": 0.7559055118110236
        },
        {
          "duration": 0.1875,
          "durationTicks": 512,
          "midi": 59,
          "name": "B3",
          "ticks": 32256,
          "time": 11.8125,
          "velocity": 0.7559055118110236
        },
        {
          "duration": 0.01171875,
          "durationTicks": 32,
          "midi": 64,
          "name": "E4",
          "ticks": 32256,
          "time": 11.8125,
          "velocity": 0.7559055118110236
        },
        {
          "duration": 0.1875,
          "durationTicks": 512,
          "midi": 64,
          "name": "E4",
          "ticks": 32256,
          "time": 11.8125,
          "velocity": 0.7559055118110236
        },
        {
          "duration": 0.1875,
          "durationTicks": 512,
          "midi": 49,
          "name": "C#3",
          "ticks": 32768,
          "time": 12,
          "velocity": 0.7559055118110236
        },
        {
          "duration": 0.1875,
          "durationTicks": 512,
          "midi": 56,
          "name": "G#3",
          "ticks": 32768,
          "time": 12,
          "velocity": 0.7559055118110236
        },
        {
          "duration": 0.1875,
          "durationTicks": 512,
          "midi": 61,
          "name": "C#4",
          "ticks": 32768,
          "time": 12,
          "velocity": 0.7559055118110236
        },
        {
          "duration": 0.375,
          "durationTicks": 1024,
          "midi": 49,
          "name": "C#3",
          "ticks": 33280,
          "time": 12.1875,
          "velocity": 0.7559055118110236
        },
        {
          "duration": 0.1875,
          "durationTicks": 512,
          "midi": 56,
          "name": "G#3",
          "ticks": 33280,
          "time": 12.1875,
          "velocity": 0.7559055118110236
        },
        {
          "duration": 0.1875,
          "durationTicks": 512,
          "midi": 61,
          "name": "C#4",
          "ticks": 33280,
          "time": 12.1875,
          "velocity": 0.7559055118110236
        },
        {
          "duration": 0.375,
          "durationTicks": 1024,
          "midi": 49,
          "name": "C#3",
          "ticks": 34304,
          "time": 12.5625,
          "velocity": 0.7559055118110236
        },
        {
          "duration": 0.375,
          "durationTicks": 1024,
          "midi": 56,
          "name": "G#3",
          "ticks": 34304,
          "time": 12.5625,
          "velocity": 0.7559055118110236
        },
        {
          "duration": 0.375,
          "durationTicks": 1024,
          "midi": 61,
          "name": "C#4",
          "ticks": 34304,
          "time": 12.5625,
          "velocity": 0.7559055118110236
        },
        {
          "duration": 0.375,
          "durationTicks": 1024,
          "midi": 49,
          "name": "C#3",
          "ticks": 35328,
          "time": 12.9375,
          "velocity": 0.7559055118110236
        },
        {
          "duration": 0.1875,
          "durationTicks": 512,
          "midi": 56,
          "name": "G#3",
          "ticks": 35328,
          "time": 12.9375,
          "velocity": 0.7559055118110236
        },
        {
          "duration": 0.1875,
          "durationTicks": 512,
          "midi": 61,
          "name": "C#4",
          "ticks": 35328,
          "time": 12.9375,
          "velocity": 0.7559055118110236
        },
        {
          "duration": 0.1875,
          "durationTicks": 512,
          "midi": 56,
          "name": "G#3",
          "ticks": 35840,
          "time": 13.125,
          "velocity": 0.7559055118110236
        },
        {
          "duration": 0.1875,
          "durationTicks": 512,
          "midi": 61,
          "name": "C#4",
          "ticks": 35840,
          "time": 13.125,
          "velocity": 0.7559055118110236
        },
        {
          "duration": 0.1875,
          "durationTicks": 512,
          "midi": 49,
          "name": "C#3",
          "ticks": 36352,
          "time": 13.3125,
          "velocity": 0.7559055118110236
        },
        {
          "duration": 0.1875,
          "durationTicks": 512,
          "midi": 56,
          "name": "G#3",
          "ticks": 36352,
          "time": 13.3125,
          "velocity": 0.7559055118110236
        },
        {
          "duration": 0.1875,
          "durationTicks": 512,
          "midi": 61,
          "name": "C#4",
          "ticks": 36352,
          "time": 13.3125,
          "velocity": 0.7559055118110236
        },
        {
          "duration": 0.1875,
          "durationTicks": 512,
          "midi": 45,
          "name": "A2",
          "ticks": 36864,
          "time": 13.5,
          "velocity": 0.7559055118110236
        },
        {
          "duration": 0.1875,
          "durationTicks": 512,
          "midi": 52,
          "name": "E3",
          "ticks": 36864,
          "time": 13.5,
          "velocity": 0.7559055118110236
        },
        {
          "duration": 0.1875,
          "durationTicks": 512,
          "midi": 57,
          "name": "A3",
          "ticks": 36864,
          "time": 13.5,
          "velocity": 0.7559055118110236
        },
        {
          "duration": 0.1875,
          "durationTicks": 512,
          "midi": 61,
          "name": "C#4",
          "ticks": 36864,
          "time": 13.5,
          "velocity": 0.7559055118110236
        },
        {
          "duration": 0.5625,
          "durationTicks": 1536,
          "midi": 45,
          "name": "A2",
          "ticks": 37376,
          "time": 13.6875,
          "velocity": 0.7559055118110236
        },
        {
          "duration": 0.1875,
          "durationTicks": 512,
          "midi": 52,
          "name": "E3",
          "ticks": 37376,
          "time": 13.6875,
          "velocity": 0.7559055118110236
        },
        {
          "duration": 0.1875,
          "durationTicks": 512,
          "midi": 57,
          "name": "A3",
          "ticks": 37376,
          "time": 13.6875,
          "velocity": 0.7559055118110236
        },
        {
          "duration": 0.1875,
          "durationTicks": 512,
          "midi": 61,
          "name": "C#4",
          "ticks": 37376,
          "time": 13.6875,
          "velocity": 0.7559055118110236
        },
        {
          "duration": 0.1875,
          "durationTicks": 512,
          "midi": 52,
          "name": "E3",
          "ticks": 38400,
          "time": 14.0625,
          "velocity": 0.7559055118110236
        },
        {
          "duration": 0.1875,
          "durationTicks": 512,
          "midi": 57,
          "name": "A3",
          "ticks": 38400,
          "time": 14.0625,
          "velocity": 0.7559055118110236
        },
        {
          "duration": 0.1875,
          "durationTicks": 512,
          "midi": 61,
          "name": "C#4",
          "ticks": 38400,
          "time": 14.0625,
          "velocity": 0.7559055118110236
        },
        {
          "duration": 0.375,
          "durationTicks": 1024,
          "midi": 45,
          "name": "A2",
          "ticks": 38912,
          "time": 14.25,
          "velocity": 0.7559055118110236
        },
        {
          "duration": 0.1875,
          "durationTicks": 512,
          "midi": 52,
          "name": "E3",
          "ticks": 38912,
          "time": 14.25,
          "velocity": 0.7559055118110236
        },
        {
          "duration": 0.1875,
          "durationTicks": 512,
          "midi": 57,
          "name": "A3",
          "ticks": 38912,
          "time": 14.25,
          "velocity": 0.7559055118110236
        },
        {
          "duration": 0.1875,
          "durationTicks": 512,
          "midi": 61,
          "name": "C#4",
          "ticks": 38912,
          "time": 14.25,
          "velocity": 0.7559055118110236
        },
        {
          "duration": 0.1875,
          "durationTicks": 512,
          "midi": 52,
          "name": "E3",
          "ticks": 39424,
          "time": 14.4375,
          "velocity": 0.7559055118110236
        },
        {
          "duration": 0.1875,
          "durationTicks": 512,
          "midi": 57,
          "name": "A3",
          "ticks": 39424,
          "time": 14.4375,
          "velocity": 0.7559055118110236
        },
        {
          "duration": 0.1875,
          "durationTicks": 512,
          "midi": 61,
          "name": "C#4",
          "ticks": 39424,
          "time": 14.4375,
          "velocity": 0.7559055118110236
        },
        {
          "duration": 0.375,
          "durationTicks": 1024,
          "midi": 45,
          "name": "A2",
          "ticks": 39936,
          "time": 14.625,
          "velocity": 0.7559055118110236
        },
        {
          "duration": 0.1875,
          "durationTicks": 512,
          "midi": 52,
          "name": "E3",
          "ticks": 39936,
          "time": 14.625,
          "velocity": 0.7559055118110236
        },
        {
          "duration": 0.1875,
          "durationTicks": 512,
          "midi": 57,
          "name": "A3",
          "ticks": 39936,
          "time": 14.625,
          "velocity": 0.7559055118110236
        },
        {
          "duration": 0.1875,
          "durationTicks": 512,
          "midi": 61,
          "name": "C#4",
          "ticks": 39936,
          "time": 14.625,
          "velocity": 0.7559055118110236
        },
        {
          "duration": 0.1875,
          "durationTicks": 512,
          "midi": 52,
          "name": "E3",
          "ticks": 40448,
          "time": 14.8125,
          "velocity": 0.7559055118110236
        },
        {
          "duration": 0.1875,
          "durationTicks": 512,
          "midi": 57,
          "name": "A3",
          "ticks": 40448,
          "time": 14.8125,
          "velocity": 0.7559055118110236
        },
        {
          "duration": 0.1875,
          "durationTicks": 512,
          "midi": 61,
          "name": "C#4",
          "ticks": 40448,
          "time": 14.8125,
          "velocity": 0.7559055118110236
        },
        {
          "duration": 0.375,
          "durationTicks": 1024,
          "midi": 47,
          "name": "B2",
          "ticks": 40960,
          "time": 15,
          "velocity": 0.7559055118110236
        },
        {
          "duration": 0.1875,
          "durationTicks": 512,
          "midi": 54,
          "name": "F#3",
          "ticks": 40960,
          "time": 15,
          "velocity": 0.7559055118110236
        },
        {
          "duration": 0.1875,
          "durationTicks": 512,
          "midi": 59,
          "name": "B3",
          "ticks": 40960,
          "time": 15,
          "velocity": 0.7559055118110236
        },
        {
          "duration": 0.1875,
          "durationTicks": 512,
          "midi": 61,
          "name": "C#4",
          "ticks": 40960,
          "time": 15,
          "velocity": 0.7559055118110236
        },
        {
          "duration": 0.1875,
          "durationTicks": 512,
          "midi": 54,
          "name": "F#3",
          "ticks": 41472,
          "time": 15.1875,
          "velocity": 0.7559055118110236
        },
        {
          "duration": 0.1875,
          "durationTicks": 512,
          "midi": 59,
          "name": "B3",
          "ticks": 41472,
          "time": 15.1875,
          "velocity": 0.7559055118110236
        },
        {
          "duration": 0.1875,
          "durationTicks": 512,
          "midi": 61,
          "name": "C#4",
          "ticks": 41472,
          "time": 15.1875,
          "velocity": 0.7559055118110236
        },
        {
          "duration": 0.375,
          "durationTicks": 1024,
          "midi": 47,
          "name": "B2",
          "ticks": 41984,
          "time": 15.375,
          "velocity": 0.7559055118110236
        },
        {
          "duration": 0.1875,
          "durationTicks": 512,
          "midi": 54,
          "name": "F#3",
          "ticks": 41984,
          "time": 15.375,
          "velocity": 0.7559055118110236
        },
        {
          "duration": 0.1875,
          "durationTicks": 512,
          "midi": 59,
          "name": "B3",
          "ticks": 41984,
          "time": 15.375,
          "velocity": 0.7559055118110236
        },
        {
          "duration": 0.1875,
          "durationTicks": 512,
          "midi": 61,
          "name": "C#4",
          "ticks": 41984,
          "time": 15.375,
          "velocity": 0.7559055118110236
        },
        {
          "duration": 0.1875,
          "durationTicks": 512,
          "midi": 54,
          "name": "F#3",
          "ticks": 42496,
          "time": 15.5625,
          "velocity": 0.7559055118110236
        },
        {
          "duration": 0.1875,
          "durationTicks": 512,
          "midi": 59,
          "name": "B3",
          "ticks": 42496,
          "time": 15.5625,
          "velocity": 0.7559055118110236
        },
        {
          "duration": 0.1875,
          "durationTicks": 512,
          "midi": 61,
          "name": "C#4",
          "ticks": 42496,
          "time": 15.5625,
          "velocity": 0.7559055118110236
        },
        {
          "duration": 0.5625,
          "durationTicks": 1536,
          "midi": 47,
          "name": "B2",
          "ticks": 43008,
          "time": 15.75,
          "velocity": 0.7559055118110236
        },
        {
          "duration": 0.1875,
          "durationTicks": 512,
          "midi": 54,
          "name": "F#3",
          "ticks": 43008,
          "time": 15.75,
          "velocity": 0.7559055118110236
        },
        {
          "duration": 0.1875,
          "durationTicks": 512,
          "midi": 59,
          "name": "B3",
          "ticks": 43008,
          "time": 15.75,
          "velocity": 0.7559055118110236
        },
        {
          "duration": 0.1875,
          "durationTicks": 512,
          "midi": 61,
          "name": "C#4",
          "ticks": 43008,
          "time": 15.75,
          "velocity": 0.7559055118110236
        },
        {
          "duration": 0.375,
          "durationTicks": 1024,
          "midi": 54,
          "name": "F#3",
          "ticks": 43520,
          "time": 15.9375,
          "velocity": 0.7559055118110236
        },
        {
          "duration": 0.1875,
          "durationTicks": 512,
          "midi": 59,
          "name": "B3",
          "ticks": 43520,
          "time": 15.9375,
          "velocity": 0.7559055118110236
        },
        {
          "duration": 0.1875,
          "durationTicks": 512,
          "midi": 61,
          "name": "C#4",
          "ticks": 43520,
          "time": 15.9375,
          "velocity": 0.7559055118110236
        },
        {
          "duration": 0.375,
          "durationTicks": 1024,
          "midi": 52,
          "name": "E3",
          "ticks": 44544,
          "time": 16.3125,
          "velocity": 0.7559055118110236
        },
        {
          "duration": 0.375,
          "durationTicks": 1024,
          "midi": 59,
          "name": "B3",
          "ticks": 44544,
          "time": 16.3125,
          "velocity": 0.7559055118110236
        },
        {
          "duration": 0.375,
          "durationTicks": 1024,
          "midi": 64,
          "name": "E4",
          "ticks": 44544,
          "time": 16.3125,
          "velocity": 0.7559055118110236
        },
        {
          "duration": 0.375,
          "durationTicks": 1024,
          "midi": 52,
          "name": "E3",
          "ticks": 45568,
          "time": 16.6875,
          "velocity": 0.7559055118110236
        },
        {
          "duration": 0.1875,
          "durationTicks": 512,
          "midi": 59,
          "name": "B3",
          "ticks": 45568,
          "time": 16.6875,
          "velocity": 0.7559055118110236
        },
        {
          "duration": 0.01171875,
          "durationTicks": 32,
          "midi": 64,
          "name": "E4",
          "ticks": 45568,
          "time": 16.6875,
          "velocity": 0.7559055118110236
        },
        {
          "duration": 0.1875,
          "durationTicks": 512,
          "midi": 64,
          "name": "E4",
          "ticks": 45568,
          "time": 16.6875,
          "velocity": 0.7559055118110236
        },
        {
          "duration": 0.375,
          "durationTicks": 1024,
          "midi": 52,
          "name": "E3",
          "ticks": 46592,
          "time": 17.0625,
          "velocity": 0.7559055118110236
        },
        {
          "duration": 0.1875,
          "durationTicks": 512,
          "midi": 59,
          "name": "B3",
          "ticks": 46592,
          "time": 17.0625,
          "velocity": 0.7559055118110236
        },
        {
          "duration": 0.01171875,
          "durationTicks": 32,
          "midi": 64,
          "name": "E4",
          "ticks": 46592,
          "time": 17.0625,
          "velocity": 0.7559055118110236
        },
        {
          "duration": 0.1875,
          "durationTicks": 512,
          "midi": 64,
          "name": "E4",
          "ticks": 46592,
          "time": 17.0625,
          "velocity": 0.7559055118110236
        },
        {
          "duration": 0.1875,
          "durationTicks": 512,
          "midi": 59,
          "name": "B3",
          "ticks": 47104,
          "time": 17.25,
          "velocity": 0.7559055118110236
        },
        {
          "duration": 0.01171875,
          "durationTicks": 32,
          "midi": 64,
          "name": "E4",
          "ticks": 47104,
          "time": 17.25,
          "velocity": 0.7559055118110236
        },
        {
          "duration": 0.1875,
          "durationTicks": 512,
          "midi": 64,
          "name": "E4",
          "ticks": 47104,
          "time": 17.25,
          "velocity": 0.7559055118110236
        },
        {
          "duration": 0.375,
          "durationTicks": 1024,
          "midi": 52,
          "name": "E3",
          "ticks": 47616,
          "time": 17.4375,
          "velocity": 0.7559055118110236
        },
        {
          "duration": 0.1875,
          "durationTicks": 512,
          "midi": 59,
          "name": "B3",
          "ticks": 47616,
          "time": 17.4375,
          "velocity": 0.7559055118110236
        },
        {
          "duration": 0.01171875,
          "durationTicks": 32,
          "midi": 64,
          "name": "E4",
          "ticks": 47616,
          "time": 17.4375,
          "velocity": 0.7559055118110236
        },
        {
          "duration": 0.1875,
          "durationTicks": 512,
          "midi": 64,
          "name": "E4",
          "ticks": 47616,
          "time": 17.4375,
          "velocity": 0.7559055118110236
        },
        {
          "duration": 0.1875,
          "durationTicks": 512,
          "midi": 59,
          "name": "B3",
          "ticks": 48128,
          "time": 17.625,
          "velocity": 0.7559055118110236
        },
        {
          "duration": 0.01171875,
          "durationTicks": 32,
          "midi": 64,
          "name": "E4",
          "ticks": 48128,
          "time": 17.625,
          "velocity": 0.7559055118110236
        },
        {
          "duration": 0.1875,
          "durationTicks": 512,
          "midi": 64,
          "name": "E4",
          "ticks": 48128,
          "time": 17.625,
          "velocity": 0.7559055118110236
        },
        {
          "duration": 0.1875,
          "durationTicks": 512,
          "midi": 52,
          "name": "E3",
          "ticks": 48640,
          "time": 17.8125,
          "velocity": 0.7559055118110236
        },
        {
          "duration": 0.1875,
          "durationTicks": 512,
          "midi": 59,
          "name": "B3",
          "ticks": 48640,
          "time": 17.8125,
          "velocity": 0.7559055118110236
        },
        {
          "duration": 0.01171875,
          "durationTicks": 32,
          "midi": 64,
          "name": "E4",
          "ticks": 48640,
          "time": 17.8125,
          "velocity": 0.7559055118110236
        },
        {
          "duration": 0.1875,
          "durationTicks": 512,
          "midi": 64,
          "name": "E4",
          "ticks": 48640,
          "time": 17.8125,
          "velocity": 0.7559055118110236
        },
        {
          "duration": 0.1875,
          "durationTicks": 512,
          "midi": 49,
          "name": "C#3",
          "ticks": 49152,
          "time": 18,
          "velocity": 0.7559055118110236
        },
        {
          "duration": 0.1875,
          "durationTicks": 512,
          "midi": 56,
          "name": "G#3",
          "ticks": 49152,
          "time": 18,
          "velocity": 0.7559055118110236
        },
        {
          "duration": 0.1875,
          "durationTicks": 512,
          "midi": 61,
          "name": "C#4",
          "ticks": 49152,
          "time": 18,
          "velocity": 0.7559055118110236
        },
        {
          "duration": 0.375,
          "durationTicks": 1024,
          "midi": 49,
          "name": "C#3",
          "ticks": 49664,
          "time": 18.1875,
          "velocity": 0.7559055118110236
        },
        {
          "duration": 0.1875,
          "durationTicks": 512,
          "midi": 56,
          "name": "G#3",
          "ticks": 49664,
          "time": 18.1875,
          "velocity": 0.7559055118110236
        },
        {
          "duration": 0.1875,
          "durationTicks": 512,
          "midi": 61,
          "name": "C#4",
          "ticks": 49664,
          "time": 18.1875,
          "velocity": 0.7559055118110236
        },
        {
          "duration": 0.375,
          "durationTicks": 1024,
          "midi": 49,
          "name": "C#3",
          "ticks": 50688,
          "time": 18.5625,
          "velocity": 0.7559055118110236
        },
        {
          "duration": 0.375,
          "durationTicks": 1024,
          "midi": 56,
          "name": "G#3",
          "ticks": 50688,
          "time": 18.5625,
          "velocity": 0.7559055118110236
        },
        {
          "duration": 0.375,
          "durationTicks": 1024,
          "midi": 61,
          "name": "C#4",
          "ticks": 50688,
          "time": 18.5625,
          "velocity": 0.7559055118110236
        },
        {
          "duration": 0.375,
          "durationTicks": 1024,
          "midi": 49,
          "name": "C#3",
          "ticks": 51712,
          "time": 18.9375,
          "velocity": 0.7559055118110236
        },
        {
          "duration": 0.1875,
          "durationTicks": 512,
          "midi": 56,
          "name": "G#3",
          "ticks": 51712,
          "time": 18.9375,
          "velocity": 0.7559055118110236
        },
        {
          "duration": 0.1875,
          "durationTicks": 512,
          "midi": 61,
          "name": "C#4",
          "ticks": 51712,
          "time": 18.9375,
          "velocity": 0.7559055118110236
        },
        {
          "duration": 0.1875,
          "durationTicks": 512,
          "midi": 56,
          "name": "G#3",
          "ticks": 52224,
          "time": 19.125,
          "velocity": 0.7559055118110236
        },
        {
          "duration": 0.1875,
          "durationTicks": 512,
          "midi": 61,
          "name": "C#4",
          "ticks": 52224,
          "time": 19.125,
          "velocity": 0.7559055118110236
        },
        {
          "duration": 0.1875,
          "durationTicks": 512,
          "midi": 49,
          "name": "C#3",
          "ticks": 52736,
          "time": 19.3125,
          "velocity": 0.7559055118110236
        },
        {
          "duration": 0.1875,
          "durationTicks": 512,
          "midi": 56,
          "name": "G#3",
          "ticks": 52736,
          "time": 19.3125,
          "velocity": 0.7559055118110236
        },
        {
          "duration": 0.1875,
          "durationTicks": 512,
          "midi": 61,
          "name": "C#4",
          "ticks": 52736,
          "time": 19.3125,
          "velocity": 0.7559055118110236
        },
        {
          "duration": 0.1875,
          "durationTicks": 512,
          "midi": 45,
          "name": "A2",
          "ticks": 53248,
          "time": 19.5,
          "velocity": 0.7559055118110236
        },
        {
          "duration": 0.1875,
          "durationTicks": 512,
          "midi": 52,
          "name": "E3",
          "ticks": 53248,
          "time": 19.5,
          "velocity": 0.7559055118110236
        },
        {
          "duration": 0.1875,
          "durationTicks": 512,
          "midi": 57,
          "name": "A3",
          "ticks": 53248,
          "time": 19.5,
          "velocity": 0.7559055118110236
        },
        {
          "duration": 0.1875,
          "durationTicks": 512,
          "midi": 61,
          "name": "C#4",
          "ticks": 53248,
          "time": 19.5,
          "velocity": 0.7559055118110236
        },
        {
          "duration": 0.5625,
          "durationTicks": 1536,
          "midi": 45,
          "name": "A2",
          "ticks": 53760,
          "time": 19.6875,
          "velocity": 0.7559055118110236
        },
        {
          "duration": 0.1875,
          "durationTicks": 512,
          "midi": 52,
          "name": "E3",
          "ticks": 53760,
          "time": 19.6875,
          "velocity": 0.7559055118110236
        },
        {
          "duration": 0.1875,
          "durationTicks": 512,
          "midi": 57,
          "name": "A3",
          "ticks": 53760,
          "time": 19.6875,
          "velocity": 0.7559055118110236
        },
        {
          "duration": 0.1875,
          "durationTicks": 512,
          "midi": 61,
          "name": "C#4",
          "ticks": 53760,
          "time": 19.6875,
          "velocity": 0.7559055118110236
        },
        {
          "duration": 0.1875,
          "durationTicks": 512,
          "midi": 52,
          "name": "E3",
          "ticks": 54784,
          "time": 20.0625,
          "velocity": 0.7559055118110236
        },
        {
          "duration": 0.1875,
          "durationTicks": 512,
          "midi": 57,
          "name": "A3",
          "ticks": 54784,
          "time": 20.0625,
          "velocity": 0.7559055118110236
        },
        {
          "duration": 0.1875,
          "durationTicks": 512,
          "midi": 61,
          "name": "C#4",
          "ticks": 54784,
          "time": 20.0625,
          "velocity": 0.7559055118110236
        },
        {
          "duration": 0.375,
          "durationTicks": 1024,
          "midi": 45,
          "name": "A2",
          "ticks": 55296,
          "time": 20.25,
          "velocity": 0.7559055118110236
        },
        {
          "duration": 0.1875,
          "durationTicks": 512,
          "midi": 52,
          "name": "E3",
          "ticks": 55296,
          "time": 20.25,
          "velocity": 0.7559055118110236
        },
        {
          "duration": 0.1875,
          "durationTicks": 512,
          "midi": 57,
          "name": "A3",
          "ticks": 55296,
          "time": 20.25,
          "velocity": 0.7559055118110236
        },
        {
          "duration": 0.1875,
          "durationTicks": 512,
          "midi": 61,
          "name": "C#4",
          "ticks": 55296,
          "time": 20.25,
          "velocity": 0.7559055118110236
        },
        {
          "duration": 0.1875,
          "durationTicks": 512,
          "midi": 52,
          "name": "E3",
          "ticks": 55808,
          "time": 20.4375,
          "velocity": 0.7559055118110236
        },
        {
          "duration": 0.1875,
          "durationTicks": 512,
          "midi": 57,
          "name": "A3",
          "ticks": 55808,
          "time": 20.4375,
          "velocity": 0.7559055118110236
        },
        {
          "duration": 0.1875,
          "durationTicks": 512,
          "midi": 61,
          "name": "C#4",
          "ticks": 55808,
          "time": 20.4375,
          "velocity": 0.7559055118110236
        },
        {
          "duration": 0.375,
          "durationTicks": 1024,
          "midi": 45,
          "name": "A2",
          "ticks": 56320,
          "time": 20.625,
          "velocity": 0.7559055118110236
        },
        {
          "duration": 0.1875,
          "durationTicks": 512,
          "midi": 52,
          "name": "E3",
          "ticks": 56320,
          "time": 20.625,
          "velocity": 0.7559055118110236
        },
        {
          "duration": 0.1875,
          "durationTicks": 512,
          "midi": 57,
          "name": "A3",
          "ticks": 56320,
          "time": 20.625,
          "velocity": 0.7559055118110236
        },
        {
          "duration": 0.1875,
          "durationTicks": 512,
          "midi": 61,
          "name": "C#4",
          "ticks": 56320,
          "time": 20.625,
          "velocity": 0.7559055118110236
        },
        {
          "duration": 0.1875,
          "durationTicks": 512,
          "midi": 52,
          "name": "E3",
          "ticks": 56832,
          "time": 20.8125,
          "velocity": 0.7559055118110236
        },
        {
          "duration": 0.1875,
          "durationTicks": 512,
          "midi": 57,
          "name": "A3",
          "ticks": 56832,
          "time": 20.8125,
          "velocity": 0.7559055118110236
        },
        {
          "duration": 0.1875,
          "durationTicks": 512,
          "midi": 61,
          "name": "C#4",
          "ticks": 56832,
          "time": 20.8125,
          "velocity": 0.7559055118110236
        },
        {
          "duration": 0.5625,
          "durationTicks": 1536,
          "midi": 47,
          "name": "B2",
          "ticks": 57344,
          "time": 21,
          "velocity": 0.7559055118110236
        },
        {
          "duration": 0.375,
          "durationTicks": 1024,
          "midi": 54,
          "name": "F#3",
          "ticks": 57344,
          "time": 21,
          "velocity": 0.7559055118110236
        },
        {
          "duration": 0.375,
          "durationTicks": 1024,
          "midi": 59,
          "name": "B3",
          "ticks": 57344,
          "time": 21,
          "velocity": 0.7559055118110236
        },
        {
          "duration": 0.1875,
          "durationTicks": 512,
          "midi": 42,
          "name": "F#2",
          "ticks": 58880,
          "time": 21.5625,
          "velocity": 0.7559055118110236
        },
        {
          "duration": 0.1875,
          "durationTicks": 512,
          "midi": 49,
          "name": "C#3",
          "ticks": 58880,
          "time": 21.5625,
          "velocity": 0.7559055118110236
        },
        {
          "duration": 0.1875,
          "durationTicks": 512,
          "midi": 54,
          "name": "F#3",
          "ticks": 58880,
          "time": 21.5625,
          "velocity": 0.7559055118110236
        },
        {
          "duration": 0.75,
          "durationTicks": 2048,
          "midi": 47,
          "name": "B2",
          "ticks": 59392,
          "time": 21.75,
          "velocity": 0.7559055118110236
        },
        {
          "duration": 0.75,
          "durationTicks": 2048,
          "midi": 54,
          "name": "F#3",
          "ticks": 59392,
          "time": 21.75,
          "velocity": 0.7559055118110236
        },
        {
          "duration": 0.75,
          "durationTicks": 2048,
          "midi": 59,
          "name": "B3",
          "ticks": 59392,
          "time": 21.75,
          "velocity": 0.7559055118110236
        },
        {
          "duration": 0.1875,
          "durationTicks": 512,
          "midi": 45,
          "name": "A2",
          "ticks": 65536,
          "time": 24,
          "velocity": 0.7559055118110236
        },
        {
          "duration": 0.1875,
          "durationTicks": 512,
          "midi": 52,
          "name": "E3",
          "ticks": 65536,
          "time": 24,
          "velocity": 0.7559055118110236
        },
        {
          "duration": 0.1875,
          "durationTicks": 512,
          "midi": 57,
          "name": "A3",
          "ticks": 65536,
          "time": 24,
          "velocity": 0.7559055118110236
        },
        {
          "duration": 0.375,
          "durationTicks": 1024,
          "midi": 45,
          "name": "A2",
          "ticks": 66048,
          "time": 24.1875,
          "velocity": 0.7559055118110236
        },
        {
          "duration": 0.1875,
          "durationTicks": 512,
          "midi": 52,
          "name": "E3",
          "ticks": 66048,
          "time": 24.1875,
          "velocity": 0.7559055118110236
        },
        {
          "duration": 0.1875,
          "durationTicks": 512,
          "midi": 57,
          "name": "A3",
          "ticks": 66048,
          "time": 24.1875,
          "velocity": 0.7559055118110236
        },
        {
          "duration": 0.375,
          "durationTicks": 1024,
          "midi": 45,
          "name": "A2",
          "ticks": 67072,
          "time": 24.5625,
          "velocity": 0.7559055118110236
        },
        {
          "duration": 0.19921875,
          "durationTicks": 544,
          "midi": 52,
          "name": "E3",
          "ticks": 67072,
          "time": 24.5625,
          "velocity": 0.7559055118110236
        },
        {
          "duration": 0.19921875,
          "durationTicks": 544,
          "midi": 57,
          "name": "A3",
          "ticks": 67072,
          "time": 24.5625,
          "velocity": 0.7559055118110236
        },
        {
          "duration": 0.5625,
          "durationTicks": 1536,
          "midi": 45,
          "name": "A2",
          "ticks": 68096,
          "time": 24.9375,
          "velocity": 0.7559055118110236
        },
        {
          "duration": 0.375,
          "durationTicks": 1024,
          "midi": 52,
          "name": "E3",
          "ticks": 68096,
          "time": 24.9375,
          "velocity": 0.7559055118110236
        },
        {
          "duration": 0.375,
          "durationTicks": 1024,
          "midi": 57,
          "name": "A3",
          "ticks": 68096,
          "time": 24.9375,
          "velocity": 0.7559055118110236
        },
        {
          "duration": 0.1875,
          "durationTicks": 512,
          "midi": 47,
          "name": "B2",
          "ticks": 69632,
          "time": 25.5,
          "velocity": 0.7559055118110236
        },
        {
          "duration": 0.1875,
          "durationTicks": 512,
          "midi": 54,
          "name": "F#3",
          "ticks": 69632,
          "time": 25.5,
          "velocity": 0.7559055118110236
        },
        {
          "duration": 0.1875,
          "durationTicks": 512,
          "midi": 59,
          "name": "B3",
          "ticks": 69632,
          "time": 25.5,
          "velocity": 0.7559055118110236
        },
        {
          "duration": 0.375,
          "durationTicks": 1024,
          "midi": 47,
          "name": "B2",
          "ticks": 70144,
          "time": 25.6875,
          "velocity": 0.7559055118110236
        },
        {
          "duration": 0.1875,
          "durationTicks": 512,
          "midi": 54,
          "name": "F#3",
          "ticks": 70144,
          "time": 25.6875,
          "velocity": 0.7559055118110236
        },
        {
          "duration": 0.1875,
          "durationTicks": 512,
          "midi": 59,
          "name": "B3",
          "ticks": 70144,
          "time": 25.6875,
          "velocity": 0.7559055118110236
        },
        {
          "duration": 0.375,
          "durationTicks": 1024,
          "midi": 47,
          "name": "B2",
          "ticks": 71168,
          "time": 26.0625,
          "velocity": 0.7559055118110236
        },
        {
          "duration": 0.19921875,
          "durationTicks": 544,
          "midi": 54,
          "name": "F#3",
          "ticks": 71168,
          "time": 26.0625,
          "velocity": 0.7559055118110236
        },
        {
          "duration": 0.19921875,
          "durationTicks": 544,
          "midi": 59,
          "name": "B3",
          "ticks": 71168,
          "time": 26.0625,
          "velocity": 0.7559055118110236
        },
        {
          "duration": 0.5625,
          "durationTicks": 1536,
          "midi": 47,
          "name": "B2",
          "ticks": 72192,
          "time": 26.4375,
          "velocity": 0.7559055118110236
        },
        {
          "duration": 0.375,
          "durationTicks": 1024,
          "midi": 54,
          "name": "F#3",
          "ticks": 72192,
          "time": 26.4375,
          "velocity": 0.7559055118110236
        },
        {
          "duration": 0.375,
          "durationTicks": 1024,
          "midi": 59,
          "name": "B3",
          "ticks": 72192,
          "time": 26.4375,
          "velocity": 0.7559055118110236
        },
        {
          "duration": 0.1875,
          "durationTicks": 512,
          "midi": 47,
          "name": "B2",
          "ticks": 73728,
          "time": 27,
          "velocity": 0.7559055118110236
        },
        {
          "duration": 0.1875,
          "durationTicks": 512,
          "midi": 54,
          "name": "F#3",
          "ticks": 73728,
          "time": 27,
          "velocity": 0.7559055118110236
        },
        {
          "duration": 0.1875,
          "durationTicks": 512,
          "midi": 59,
          "name": "B3",
          "ticks": 73728,
          "time": 27,
          "velocity": 0.7559055118110236
        },
        {
          "duration": 0.375,
          "durationTicks": 1024,
          "midi": 47,
          "name": "B2",
          "ticks": 74240,
          "time": 27.1875,
          "velocity": 0.7559055118110236
        },
        {
          "duration": 0.1875,
          "durationTicks": 512,
          "midi": 54,
          "name": "F#3",
          "ticks": 74240,
          "time": 27.1875,
          "velocity": 0.7559055118110236
        },
        {
          "duration": 0.1875,
          "durationTicks": 512,
          "midi": 59,
          "name": "B3",
          "ticks": 74240,
          "time": 27.1875,
          "velocity": 0.7559055118110236
        },
        {
          "duration": 0.375,
          "durationTicks": 1024,
          "midi": 47,
          "name": "B2",
          "ticks": 75264,
          "time": 27.5625,
          "velocity": 0.7559055118110236
        },
        {
          "duration": 0.19921875,
          "durationTicks": 544,
          "midi": 54,
          "name": "F#3",
          "ticks": 75264,
          "time": 27.5625,
          "velocity": 0.7559055118110236
        },
        {
          "duration": 0.19921875,
          "durationTicks": 544,
          "midi": 59,
          "name": "B3",
          "ticks": 75264,
          "time": 27.5625,
          "velocity": 0.7559055118110236
        },
        {
          "duration": 0.5625,
          "durationTicks": 1536,
          "midi": 47,
          "name": "B2",
          "ticks": 76288,
          "time": 27.9375,
          "velocity": 0.7559055118110236
        },
        {
          "duration": 0.375,
          "durationTicks": 1024,
          "midi": 54,
          "name": "F#3",
          "ticks": 76288,
          "time": 27.9375,
          "velocity": 0.7559055118110236
        },
        {
          "duration": 0.375,
          "durationTicks": 1024,
          "midi": 59,
          "name": "B3",
          "ticks": 76288,
          "time": 27.9375,
          "velocity": 0.7559055118110236
        },
        {
          "duration": 0.1875,
          "durationTicks": 512,
          "midi": 49,
          "name": "C#3",
          "ticks": 77824,
          "time": 28.5,
          "velocity": 0.7559055118110236
        },
        {
          "duration": 0.1875,
          "durationTicks": 512,
          "midi": 56,
          "name": "G#3",
          "ticks": 77824,
          "time": 28.5,
          "velocity": 0.7559055118110236
        },
        {
          "duration": 0.1875,
          "durationTicks": 512,
          "midi": 61,
          "name": "C#4",
          "ticks": 77824,
          "time": 28.5,
          "velocity": 0.7559055118110236
        },
        {
          "duration": 0.375,
          "durationTicks": 1024,
          "midi": 49,
          "name": "C#3",
          "ticks": 78336,
          "time": 28.6875,
          "velocity": 0.7559055118110236
        },
        {
          "duration": 0.1875,
          "durationTicks": 512,
          "midi": 56,
          "name": "G#3",
          "ticks": 78336,
          "time": 28.6875,
          "velocity": 0.7559055118110236
        },
        {
          "duration": 0.1875,
          "durationTicks": 512,
          "midi": 61,
          "name": "C#4",
          "ticks": 78336,
          "time": 28.6875,
          "velocity": 0.7559055118110236
        },
        {
          "duration": 0.375,
          "durationTicks": 1024,
          "midi": 49,
          "name": "C#3",
          "ticks": 79360,
          "time": 29.0625,
          "velocity": 0.7559055118110236
        },
        {
          "duration": 0.19921875,
          "durationTicks": 544,
          "midi": 56,
          "name": "G#3",
          "ticks": 79360,
          "time": 29.0625,
          "velocity": 0.7559055118110236
        },
        {
          "duration": 0.19921875,
          "durationTicks": 544,
          "midi": 61,
          "name": "C#4",
          "ticks": 79360,
          "time": 29.0625,
          "velocity": 0.7559055118110236
        },
        {
          "duration": 0.5625,
          "durationTicks": 1536,
          "midi": 49,
          "name": "C#3",
          "ticks": 80384,
          "time": 29.4375,
          "velocity": 0.7559055118110236
        },
        {
          "duration": 0.375,
          "durationTicks": 1024,
          "midi": 56,
          "name": "G#3",
          "ticks": 80384,
          "time": 29.4375,
          "velocity": 0.7559055118110236
        },
        {
          "duration": 0.375,
          "durationTicks": 1024,
          "midi": 61,
          "name": "C#4",
          "ticks": 80384,
          "time": 29.4375,
          "velocity": 0.7559055118110236
        },
        {
          "duration": 0.1875,
          "durationTicks": 512,
          "midi": 45,
          "name": "A2",
          "ticks": 81920,
          "time": 30,
          "velocity": 0.7559055118110236
        },
        {
          "duration": 0.1875,
          "durationTicks": 512,
          "midi": 52,
          "name": "E3",
          "ticks": 81920,
          "time": 30,
          "velocity": 0.7559055118110236
        },
        {
          "duration": 0.1875,
          "durationTicks": 512,
          "midi": 57,
          "name": "A3",
          "ticks": 81920,
          "time": 30,
          "velocity": 0.7559055118110236
        },
        {
          "duration": 0.375,
          "durationTicks": 1024,
          "midi": 45,
          "name": "A2",
          "ticks": 82432,
          "time": 30.1875,
          "velocity": 0.7559055118110236
        },
        {
          "duration": 0.1875,
          "durationTicks": 512,
          "midi": 52,
          "name": "E3",
          "ticks": 82432,
          "time": 30.1875,
          "velocity": 0.7559055118110236
        },
        {
          "duration": 0.1875,
          "durationTicks": 512,
          "midi": 57,
          "name": "A3",
          "ticks": 82432,
          "time": 30.1875,
          "velocity": 0.7559055118110236
        },
        {
          "duration": 0.375,
          "durationTicks": 1024,
          "midi": 45,
          "name": "A2",
          "ticks": 83456,
          "time": 30.5625,
          "velocity": 0.7559055118110236
        },
        {
          "duration": 0.19921875,
          "durationTicks": 544,
          "midi": 52,
          "name": "E3",
          "ticks": 83456,
          "time": 30.5625,
          "velocity": 0.7559055118110236
        },
        {
          "duration": 0.19921875,
          "durationTicks": 544,
          "midi": 57,
          "name": "A3",
          "ticks": 83456,
          "time": 30.5625,
          "velocity": 0.7559055118110236
        },
        {
          "duration": 0.5625,
          "durationTicks": 1536,
          "midi": 45,
          "name": "A2",
          "ticks": 84480,
          "time": 30.9375,
          "velocity": 0.7559055118110236
        },
        {
          "duration": 0.375,
          "durationTicks": 1024,
          "midi": 52,
          "name": "E3",
          "ticks": 84480,
          "time": 30.9375,
          "velocity": 0.7559055118110236
        },
        {
          "duration": 0.375,
          "durationTicks": 1024,
          "midi": 57,
          "name": "A3",
          "ticks": 84480,
          "time": 30.9375,
          "velocity": 0.7559055118110236
        },
        {
          "duration": 0.1875,
          "durationTicks": 512,
          "midi": 47,
          "name": "B2",
          "ticks": 86016,
          "time": 31.5,
          "velocity": 0.7559055118110236
        },
        {
          "duration": 0.1875,
          "durationTicks": 512,
          "midi": 54,
          "name": "F#3",
          "ticks": 86016,
          "time": 31.5,
          "velocity": 0.7559055118110236
        },
        {
          "duration": 0.1875,
          "durationTicks": 512,
          "midi": 59,
          "name": "B3",
          "ticks": 86016,
          "time": 31.5,
          "velocity": 0.7559055118110236
        },
        {
          "duration": 0.375,
          "durationTicks": 1024,
          "midi": 47,
          "name": "B2",
          "ticks": 86528,
          "time": 31.6875,
          "velocity": 0.7559055118110236
        },
        {
          "duration": 0.1875,
          "durationTicks": 512,
          "midi": 54,
          "name": "F#3",
          "ticks": 86528,
          "time": 31.6875,
          "velocity": 0.7559055118110236
        },
        {
          "duration": 0.1875,
          "durationTicks": 512,
          "midi": 59,
          "name": "B3",
          "ticks": 86528,
          "time": 31.6875,
          "velocity": 0.7559055118110236
        },
        {
          "duration": 0.375,
          "durationTicks": 1024,
          "midi": 47,
          "name": "B2",
          "ticks": 87552,
          "time": 32.0625,
          "velocity": 0.7559055118110236
        },
        {
          "duration": 0.19921875,
          "durationTicks": 544,
          "midi": 54,
          "name": "F#3",
          "ticks": 87552,
          "time": 32.0625,
          "velocity": 0.7559055118110236
        },
        {
          "duration": 0.19921875,
          "durationTicks": 544,
          "midi": 59,
          "name": "B3",
          "ticks": 87552,
          "time": 32.0625,
          "velocity": 0.7559055118110236
        },
        {
          "duration": 0.5625,
          "durationTicks": 1536,
          "midi": 47,
          "name": "B2",
          "ticks": 88576,
          "time": 32.4375,
          "velocity": 0.7559055118110236
        },
        {
          "duration": 0.375,
          "durationTicks": 1024,
          "midi": 54,
          "name": "F#3",
          "ticks": 88576,
          "time": 32.4375,
          "velocity": 0.7559055118110236
        },
        {
          "duration": 0.375,
          "durationTicks": 1024,
          "midi": 59,
          "name": "B3",
          "ticks": 88576,
          "time": 32.4375,
          "velocity": 0.7559055118110236
        },
        {
          "duration": 0.1875,
          "durationTicks": 512,
          "midi": 47,
          "name": "B2",
          "ticks": 90112,
          "time": 33,
          "velocity": 0.7559055118110236
        },
        {
          "duration": 0.1875,
          "durationTicks": 512,
          "midi": 54,
          "name": "F#3",
          "ticks": 90112,
          "time": 33,
          "velocity": 0.7559055118110236
        },
        {
          "duration": 0.1875,
          "durationTicks": 512,
          "midi": 59,
          "name": "B3",
          "ticks": 90112,
          "time": 33,
          "velocity": 0.7559055118110236
        },
        {
          "duration": 0.375,
          "durationTicks": 1024,
          "midi": 47,
          "name": "B2",
          "ticks": 90624,
          "time": 33.1875,
          "velocity": 0.7559055118110236
        },
        {
          "duration": 0.1875,
          "durationTicks": 512,
          "midi": 54,
          "name": "F#3",
          "ticks": 90624,
          "time": 33.1875,
          "velocity": 0.7559055118110236
        },
        {
          "duration": 0.1875,
          "durationTicks": 512,
          "midi": 59,
          "name": "B3",
          "ticks": 90624,
          "time": 33.1875,
          "velocity": 0.7559055118110236
        },
        {
          "duration": 0.375,
          "durationTicks": 1024,
          "midi": 47,
          "name": "B2",
          "ticks": 91648,
          "time": 33.5625,
          "velocity": 0.7559055118110236
        },
        {
          "duration": 0.19921875,
          "durationTicks": 544,
          "midi": 54,
          "name": "F#3",
          "ticks": 91648,
          "time": 33.5625,
          "velocity": 0.7559055118110236
        },
        {
          "duration": 0.19921875,
          "durationTicks": 544,
          "midi": 59,
          "name": "B3",
          "ticks": 91648,
          "time": 33.5625,
          "velocity": 0.7559055118110236
        },
        {
          "duration": 0.1875,
          "durationTicks": 512,
          "midi": 47,
          "name": "B2",
          "ticks": 92672,
          "time": 33.9375,
          "velocity": 0.7559055118110236
        },
        {
          "duration": 0.1875,
          "durationTicks": 512,
          "midi": 54,
          "name": "F#3",
          "ticks": 92672,
          "time": 33.9375,
          "velocity": 0.7559055118110236
        },
        {
          "duration": 0.1875,
          "durationTicks": 512,
          "midi": 59,
          "name": "B3",
          "ticks": 92672,
          "time": 33.9375,
          "velocity": 0.7559055118110236
        },
        {
          "duration": 0.1875,
          "durationTicks": 512,
          "midi": 47,
          "name": "B2",
          "ticks": 93184,
          "time": 34.125,
          "velocity": 0.7559055118110236
        },
        {
          "duration": 0.1875,
          "durationTicks": 512,
          "midi": 54,
          "name": "F#3",
          "ticks": 93184,
          "time": 34.125,
          "velocity": 0.7559055118110236
        },
        {
          "duration": 0.1875,
          "durationTicks": 512,
          "midi": 59,
          "name": "B3",
          "ticks": 93184,
          "time": 34.125,
          "velocity": 0.7559055118110236
        },
        {
          "duration": 0.375,
          "durationTicks": 1024,
          "midi": 49,
          "name": "C#3",
          "ticks": 93696,
          "time": 34.3125,
          "velocity": 0.7559055118110236
        },
        {
          "duration": 0.375,
          "durationTicks": 1024,
          "midi": 56,
          "name": "G#3",
          "ticks": 93696,
          "time": 34.3125,
          "velocity": 0.7559055118110236
        },
        {
          "duration": 0.375,
          "durationTicks": 1024,
          "midi": 61,
          "name": "C#4",
          "ticks": 93696,
          "time": 34.3125,
          "velocity": 0.7559055118110236
        },
        {
          "duration": 0.375,
          "durationTicks": 1024,
          "midi": 49,
          "name": "C#3",
          "ticks": 94720,
          "time": 34.6875,
          "velocity": 0.7559055118110236
        },
        {
          "duration": 0.375,
          "durationTicks": 1024,
          "midi": 56,
          "name": "G#3",
          "ticks": 94720,
          "time": 34.6875,
          "velocity": 0.7559055118110236
        },
        {
          "duration": 0.375,
          "durationTicks": 1024,
          "midi": 61,
          "name": "C#4",
          "ticks": 94720,
          "time": 34.6875,
          "velocity": 0.7559055118110236
        },
        {
          "duration": 0.375,
          "durationTicks": 1024,
          "midi": 49,
          "name": "C#3",
          "ticks": 95744,
          "time": 35.0625,
          "velocity": 0.7559055118110236
        },
        {
          "duration": 0.19921875,
          "durationTicks": 544,
          "midi": 56,
          "name": "G#3",
          "ticks": 95744,
          "time": 35.0625,
          "velocity": 0.7559055118110236
        },
        {
          "duration": 0.19921875,
          "durationTicks": 544,
          "midi": 61,
          "name": "C#4",
          "ticks": 95744,
          "time": 35.0625,
          "velocity": 0.7559055118110236
        },
        {
          "duration": 0.5625,
          "durationTicks": 1536,
          "midi": 49,
          "name": "C#3",
          "ticks": 96768,
          "time": 35.4375,
          "velocity": 0.7559055118110236
        },
        {
          "duration": 0.375,
          "durationTicks": 1024,
          "midi": 56,
          "name": "G#3",
          "ticks": 96768,
          "time": 35.4375,
          "velocity": 0.7559055118110236
        },
        {
          "duration": 0.375,
          "durationTicks": 1024,
          "midi": 61,
          "name": "C#4",
          "ticks": 96768,
          "time": 35.4375,
          "velocity": 0.7559055118110236
        },
        {
          "duration": 0.375,
          "durationTicks": 1024,
          "midi": 64,
          "name": "E4",
          "ticks": 96768,
          "time": 35.4375,
          "velocity": 0.7559055118110236
        },
        {
          "duration": 0.75,
          "durationTicks": 2048,
          "midi": 45,
          "name": "A2",
          "ticks": 98304,
          "time": 36,
          "velocity": 0.7559055118110236
        },
        {
          "duration": 0.375,
          "durationTicks": 1024,
          "midi": 52,
          "name": "E3",
          "ticks": 98304,
          "time": 36,
          "velocity": 0.7559055118110236
        },
        {
          "duration": 0.375,
          "durationTicks": 1024,
          "midi": 57,
          "name": "A3",
          "ticks": 98304,
          "time": 36,
          "velocity": 0.7559055118110236
        },
        {
          "duration": 0.375,
          "durationTicks": 1024,
          "midi": 52,
          "name": "E3",
          "ticks": 99328,
          "time": 36.375,
          "velocity": 0.7559055118110236
        },
        {
          "duration": 0.1875,
          "durationTicks": 512,
          "midi": 57,
          "name": "A3",
          "ticks": 99328,
          "time": 36.375,
          "velocity": 0.7559055118110236
        },
        {
          "duration": 0.1875,
          "durationTicks": 512,
          "midi": 57,
          "name": "A3",
          "ticks": 99840,
          "time": 36.5625,
          "velocity": 0.7559055118110236
        },
        {
          "duration": 0.5625,
          "durationTicks": 1536,
          "midi": 45,
          "name": "A2",
          "ticks": 100352,
          "time": 36.75,
          "velocity": 0.7559055118110236
        },
        {
          "duration": 0.375,
          "durationTicks": 1024,
          "midi": 52,
          "name": "E3",
          "ticks": 100352,
          "time": 36.75,
          "velocity": 0.7559055118110236
        },
        {
          "duration": 0.1875,
          "durationTicks": 512,
          "midi": 57,
          "name": "A3",
          "ticks": 100352,
          "time": 36.75,
          "velocity": 0.7559055118110236
        },
        {
          "duration": 0.1875,
          "durationTicks": 512,
          "midi": 57,
          "name": "A3",
          "ticks": 100864,
          "time": 36.9375,
          "velocity": 0.7559055118110236
        },
        {
          "duration": 0.1875,
          "durationTicks": 512,
          "midi": 52,
          "name": "E3",
          "ticks": 101376,
          "time": 37.125,
          "velocity": 0.7559055118110236
        },
        {
          "duration": 0.1875,
          "durationTicks": 512,
          "midi": 57,
          "name": "A3",
          "ticks": 101376,
          "time": 37.125,
          "velocity": 0.7559055118110236
        },
        {
          "duration": 0.375,
          "durationTicks": 1024,
          "midi": 47,
          "name": "B2",
          "ticks": 101888,
          "time": 37.3125,
          "velocity": 0.7559055118110236
        },
        {
          "duration": 0.375,
          "durationTicks": 1024,
          "midi": 54,
          "name": "F#3",
          "ticks": 101888,
          "time": 37.3125,
          "velocity": 0.7559055118110236
        },
        {
          "duration": 0.375,
          "durationTicks": 1024,
          "midi": 59,
          "name": "B3",
          "ticks": 101888,
          "time": 37.3125,
          "velocity": 0.7559055118110236
        },
        {
          "duration": 1.3125,
          "durationTicks": 3584,
          "midi": 47,
          "name": "B2",
          "ticks": 102912,
          "time": 37.6875,
          "velocity": 0.7559055118110236
        },
        {
          "duration": 0.375,
          "durationTicks": 1024,
          "midi": 54,
          "name": "F#3",
          "ticks": 102912,
          "time": 37.6875,
          "velocity": 0.7559055118110236
        },
        {
          "duration": 0.1875,
          "durationTicks": 512,
          "midi": 59,
          "name": "B3",
          "ticks": 102912,
          "time": 37.6875,
          "velocity": 0.7559055118110236
        },
        {
          "duration": 0.1875,
          "durationTicks": 512,
          "midi": 59,
          "name": "B3",
          "ticks": 103424,
          "time": 37.875,
          "velocity": 0.7559055118110236
        },
        {
          "duration": 0.375,
          "durationTicks": 1024,
          "midi": 54,
          "name": "F#3",
          "ticks": 103936,
          "time": 38.0625,
          "velocity": 0.7559055118110236
        },
        {
          "duration": 0.1875,
          "durationTicks": 512,
          "midi": 59,
          "name": "B3",
          "ticks": 103936,
          "time": 38.0625,
          "velocity": 0.7559055118110236
        },
        {
          "duration": 0.1875,
          "durationTicks": 512,
          "midi": 59,
          "name": "B3",
          "ticks": 104448,
          "time": 38.25,
          "velocity": 0.7559055118110236
        },
        {
          "duration": 0.5625,
          "durationTicks": 1536,
          "midi": 54,
          "name": "F#3",
          "ticks": 104960,
          "time": 38.4375,
          "velocity": 0.7559055118110236
        },
        {
          "duration": 0.5625,
          "durationTicks": 1536,
          "midi": 59,
          "name": "B3",
          "ticks": 104960,
          "time": 38.4375,
          "velocity": 0.7559055118110236
        },
        {
          "duration": 0.375,
          "durationTicks": 1024,
          "midi": 47,
          "name": "B2",
          "ticks": 106496,
          "time": 39,
          "velocity": 0.7559055118110236
        },
        {
          "duration": 0.375,
          "durationTicks": 1024,
          "midi": 54,
          "name": "F#3",
          "ticks": 106496,
          "time": 39,
          "velocity": 0.7559055118110236
        },
        {
          "duration": 0.1875,
          "durationTicks": 512,
          "midi": 59,
          "name": "B3",
          "ticks": 106496,
          "time": 39,
          "velocity": 0.7559055118110236
        },
        {
          "duration": 0.9375,
          "durationTicks": 2560,
          "midi": 47,
          "name": "B2",
          "ticks": 107520,
          "time": 39.375,
          "velocity": 0.7559055118110236
        },
        {
          "duration": 0.375,
          "durationTicks": 1024,
          "midi": 54,
          "name": "F#3",
          "ticks": 107520,
          "time": 39.375,
          "velocity": 0.7559055118110236
        },
        {
          "duration": 0.1875,
          "durationTicks": 512,
          "midi": 59,
          "name": "B3",
          "ticks": 107520,
          "time": 39.375,
          "velocity": 0.7559055118110236
        },
        {
          "duration": 0.1875,
          "durationTicks": 512,
          "midi": 59,
          "name": "B3",
          "ticks": 108032,
          "time": 39.5625,
          "velocity": 0.7559055118110236
        },
        {
          "duration": 0.375,
          "durationTicks": 1024,
          "midi": 54,
          "name": "F#3",
          "ticks": 108544,
          "time": 39.75,
          "velocity": 0.7559055118110236
        },
        {
          "duration": 0.1875,
          "durationTicks": 512,
          "midi": 59,
          "name": "B3",
          "ticks": 108544,
          "time": 39.75,
          "velocity": 0.7559055118110236
        },
        {
          "duration": 0.1875,
          "durationTicks": 512,
          "midi": 59,
          "name": "B3",
          "ticks": 109056,
          "time": 39.9375,
          "velocity": 0.7559055118110236
        },
        {
          "duration": 0.1875,
          "durationTicks": 512,
          "midi": 54,
          "name": "F#3",
          "ticks": 109568,
          "time": 40.125,
          "velocity": 0.7559055118110236
        },
        {
          "duration": 0.1875,
          "durationTicks": 512,
          "midi": 59,
          "name": "B3",
          "ticks": 109568,
          "time": 40.125,
          "velocity": 0.7559055118110236
        },
        {
          "duration": 0.375,
          "durationTicks": 1024,
          "midi": 49,
          "name": "C#3",
          "ticks": 110080,
          "time": 40.3125,
          "velocity": 0.7559055118110236
        },
        {
          "duration": 0.375,
          "durationTicks": 1024,
          "midi": 56,
          "name": "G#3",
          "ticks": 110080,
          "time": 40.3125,
          "velocity": 0.7559055118110236
        },
        {
          "duration": 0.375,
          "durationTicks": 1024,
          "midi": 61,
          "name": "C#4",
          "ticks": 110080,
          "time": 40.3125,
          "velocity": 0.7559055118110236
        },
        {
          "duration": 0.375,
          "durationTicks": 1024,
          "midi": 49,
          "name": "C#3",
          "ticks": 111104,
          "time": 40.6875,
          "velocity": 0.7559055118110236
        },
        {
          "duration": 0.1875,
          "durationTicks": 512,
          "midi": 56,
          "name": "G#3",
          "ticks": 111104,
          "time": 40.6875,
          "velocity": 0.7559055118110236
        },
        {
          "duration": 0.1875,
          "durationTicks": 512,
          "midi": 61,
          "name": "C#4",
          "ticks": 111104,
          "time": 40.6875,
          "velocity": 0.7559055118110236
        },
        {
          "duration": 0.375,
          "durationTicks": 1024,
          "midi": 49,
          "name": "C#3",
          "ticks": 112128,
          "time": 41.0625,
          "velocity": 0.7559055118110236
        },
        {
          "duration": 0.375,
          "durationTicks": 1024,
          "midi": 56,
          "name": "G#3",
          "ticks": 112128,
          "time": 41.0625,
          "velocity": 0.7559055118110236
        },
        {
          "duration": 0.375,
          "durationTicks": 1024,
          "midi": 61,
          "name": "C#4",
          "ticks": 112128,
          "time": 41.0625,
          "velocity": 0.7559055118110236
        },
        {
          "duration": 0.5625,
          "durationTicks": 1536,
          "midi": 49,
          "name": "C#3",
          "ticks": 113152,
          "time": 41.4375,
          "velocity": 0.7559055118110236
        },
        {
          "duration": 0.375,
          "durationTicks": 1024,
          "midi": 56,
          "name": "G#3",
          "ticks": 113152,
          "time": 41.4375,
          "velocity": 0.7559055118110236
        },
        {
          "duration": 0.375,
          "durationTicks": 1024,
          "midi": 61,
          "name": "C#4",
          "ticks": 113152,
          "time": 41.4375,
          "velocity": 0.7559055118110236
        },
        {
          "duration": 0.75,
          "durationTicks": 2048,
          "midi": 45,
          "name": "A2",
          "ticks": 114688,
          "time": 42,
          "velocity": 0.7559055118110236
        },
        {
          "duration": 0.375,
          "durationTicks": 1024,
          "midi": 52,
          "name": "E3",
          "ticks": 114688,
          "time": 42,
          "velocity": 0.7559055118110236
        },
        {
          "duration": 0.1875,
          "durationTicks": 512,
          "midi": 57,
          "name": "A3",
          "ticks": 114688,
          "time": 42,
          "velocity": 0.7559055118110236
        },
        {
          "duration": 0.1875,
          "durationTicks": 512,
          "midi": 57,
          "name": "A3",
          "ticks": 115200,
          "time": 42.1875,
          "velocity": 0.7559055118110236
        },
        {
          "duration": 0.375,
          "durationTicks": 1024,
          "midi": 52,
          "name": "E3",
          "ticks": 115712,
          "time": 42.375,
          "velocity": 0.7559055118110236
        },
        {
          "duration": 0.1875,
          "durationTicks": 512,
          "midi": 57,
          "name": "A3",
          "ticks": 115712,
          "time": 42.375,
          "velocity": 0.7559055118110236
        },
        {
          "duration": 0.1875,
          "durationTicks": 512,
          "midi": 57,
          "name": "A3",
          "ticks": 116224,
          "time": 42.5625,
          "velocity": 0.7559055118110236
        },
        {
          "duration": 0.75,
          "durationTicks": 2048,
          "midi": 45,
          "name": "A2",
          "ticks": 116736,
          "time": 42.75,
          "velocity": 0.7559055118110236
        },
        {
          "duration": 0.375,
          "durationTicks": 1024,
          "midi": 52,
          "name": "E3",
          "ticks": 116736,
          "time": 42.75,
          "velocity": 0.7559055118110236
        },
        {
          "duration": 0.1875,
          "durationTicks": 512,
          "midi": 57,
          "name": "A3",
          "ticks": 116736,
          "time": 42.75,
          "velocity": 0.7559055118110236
        },
        {
          "duration": 0.1875,
          "durationTicks": 512,
          "midi": 57,
          "name": "A3",
          "ticks": 117248,
          "time": 42.9375,
          "velocity": 0.7559055118110236
        },
        {
          "duration": 0.375,
          "durationTicks": 1024,
          "midi": 52,
          "name": "E3",
          "ticks": 117760,
          "time": 43.125,
          "velocity": 0.7559055118110236
        },
        {
          "duration": 0.1875,
          "durationTicks": 512,
          "midi": 57,
          "name": "A3",
          "ticks": 117760,
          "time": 43.125,
          "velocity": 0.7559055118110236
        },
        {
          "duration": 0.1875,
          "durationTicks": 512,
          "midi": 57,
          "name": "A3",
          "ticks": 118272,
          "time": 43.3125,
          "velocity": 0.7559055118110236
        },
        {
          "duration": 0.75,
          "durationTicks": 2048,
          "midi": 47,
          "name": "B2",
          "ticks": 118784,
          "time": 43.5,
          "velocity": 0.7559055118110236
        },
        {
          "duration": 0.375,
          "durationTicks": 1024,
          "midi": 54,
          "name": "F#3",
          "ticks": 118784,
          "time": 43.5,
          "velocity": 0.7559055118110236
        },
        {
          "duration": 0.1875,
          "durationTicks": 512,
          "midi": 59,
          "name": "B3",
          "ticks": 118784,
          "time": 43.5,
          "velocity": 0.7559055118110236
        },
        {
          "duration": 0.1875,
          "durationTicks": 512,
          "midi": 59,
          "name": "B3",
          "ticks": 119296,
          "time": 43.6875,
          "velocity": 0.7559055118110236
        },
        {
          "duration": 0.1875,
          "durationTicks": 512,
          "midi": 54,
          "name": "F#3",
          "ticks": 119808,
          "time": 43.875,
          "velocity": 0.7559055118110236
        },
        {
          "duration": 0.1875,
          "durationTicks": 512,
          "midi": 59,
          "name": "B3",
          "ticks": 119808,
          "time": 43.875,
          "velocity": 0.7559055118110236
        },
        {
          "duration": 0.75,
          "durationTicks": 2048,
          "midi": 47,
          "name": "B2",
          "ticks": 120832,
          "time": 44.25,
          "velocity": 0.7559055118110236
        },
        {
          "duration": 0.375,
          "durationTicks": 1024,
          "midi": 54,
          "name": "F#3",
          "ticks": 120832,
          "time": 44.25,
          "velocity": 0.7559055118110236
        },
        {
          "duration": 0.1875,
          "durationTicks": 512,
          "midi": 59,
          "name": "B3",
          "ticks": 120832,
          "time": 44.25,
          "velocity": 0.7559055118110236
        },
        {
          "duration": 0.1875,
          "durationTicks": 512,
          "midi": 59,
          "name": "B3",
          "ticks": 121344,
          "time": 44.4375,
          "velocity": 0.7559055118110236
        },
        {
          "duration": 0.375,
          "durationTicks": 1024,
          "midi": 54,
          "name": "F#3",
          "ticks": 121856,
          "time": 44.625,
          "velocity": 0.7559055118110236
        },
        {
          "duration": 0.1875,
          "durationTicks": 512,
          "midi": 59,
          "name": "B3",
          "ticks": 121856,
          "time": 44.625,
          "velocity": 0.7559055118110236
        },
        {
          "duration": 0.375,
          "durationTicks": 1024,
          "midi": 59,
          "name": "B3",
          "ticks": 122368,
          "time": 44.8125,
          "velocity": 0.7559055118110236
        },
        {
          "duration": 0.1875,
          "durationTicks": 512,
          "midi": 47,
          "name": "B2",
          "ticks": 122880,
          "time": 45,
          "velocity": 0.7559055118110236
        },
        {
          "duration": 0.1875,
          "durationTicks": 512,
          "midi": 54,
          "name": "F#3",
          "ticks": 122880,
          "time": 45,
          "velocity": 0.7559055118110236
        },
        {
          "duration": 1.125,
          "durationTicks": 3072,
          "midi": 47,
          "name": "B2",
          "ticks": 123392,
          "time": 45.1875,
          "velocity": 0.7559055118110236
        },
        {
          "duration": 0.375,
          "durationTicks": 1024,
          "midi": 54,
          "name": "F#3",
          "ticks": 123392,
          "time": 45.1875,
          "velocity": 0.7559055118110236
        },
        {
          "duration": 0.1875,
          "durationTicks": 512,
          "midi": 59,
          "name": "B3",
          "ticks": 123392,
          "time": 45.1875,
          "velocity": 0.7559055118110236
        },
        {
          "duration": 0.1875,
          "durationTicks": 512,
          "midi": 59,
          "name": "B3",
          "ticks": 123904,
          "time": 45.375,
          "velocity": 0.7559055118110236
        },
        {
          "duration": 0.375,
          "durationTicks": 1024,
          "midi": 54,
          "name": "F#3",
          "ticks": 124416,
          "time": 45.5625,
          "velocity": 0.7559055118110236
        },
        {
          "duration": 0.1875,
          "durationTicks": 512,
          "midi": 59,
          "name": "B3",
          "ticks": 124416,
          "time": 45.5625,
          "velocity": 0.7559055118110236
        },
        {
          "duration": 0.1875,
          "durationTicks": 512,
          "midi": 59,
          "name": "B3",
          "ticks": 124928,
          "time": 45.75,
          "velocity": 0.7559055118110236
        },
        {
          "duration": 0.375,
          "durationTicks": 1024,
          "midi": 54,
          "name": "F#3",
          "ticks": 125440,
          "time": 45.9375,
          "velocity": 0.7559055118110236
        },
        {
          "duration": 0.1875,
          "durationTicks": 512,
          "midi": 59,
          "name": "B3",
          "ticks": 125440,
          "time": 45.9375,
          "velocity": 0.7559055118110236
        },
        {
          "duration": 0.1875,
          "durationTicks": 512,
          "midi": 59,
          "name": "B3",
          "ticks": 125952,
          "time": 46.125,
          "velocity": 0.7559055118110236
        },
        {
          "duration": 0.1875,
          "durationTicks": 512,
          "midi": 49,
          "name": "C#3",
          "ticks": 126464,
          "time": 46.3125,
          "velocity": 0.7559055118110236
        },
        {
          "duration": 0.1875,
          "durationTicks": 512,
          "midi": 56,
          "name": "G#3",
          "ticks": 126464,
          "time": 46.3125,
          "velocity": 0.7559055118110236
        },
        {
          "duration": 0.1875,
          "durationTicks": 512,
          "midi": 61,
          "name": "C#4",
          "ticks": 126464,
          "time": 46.3125,
          "velocity": 0.7559055118110236
        },
        {
          "duration": 0.1875,
          "durationTicks": 512,
          "midi": 56,
          "name": "G#3",
          "ticks": 127488,
          "time": 46.6875,
          "velocity": 0.7559055118110236
        },
        {
          "duration": 0.1875,
          "durationTicks": 512,
          "midi": 54,
          "name": "F#3",
          "ticks": 128000,
          "time": 46.875,
          "velocity": 0.7559055118110236
        },
        {
          "duration": 0.1875,
          "durationTicks": 512,
          "midi": 47,
          "name": "B2",
          "ticks": 128512,
          "time": 47.0625,
          "velocity": 0.7559055118110236
        },
        {
          "duration": 0.1875,
          "durationTicks": 512,
          "midi": 61,
          "name": "C#4",
          "ticks": 129024,
          "time": 47.25,
          "velocity": 0.7559055118110236
        },
        {
          "duration": 0.1875,
          "durationTicks": 512,
          "midi": 59,
          "name": "B3",
          "ticks": 129536,
          "time": 47.4375,
          "velocity": 0.7559055118110236
        },
        {
          "duration": 0.1875,
          "durationTicks": 512,
          "midi": 47,
          "name": "B2",
          "ticks": 130048,
          "time": 47.625,
          "velocity": 0.7559055118110236
        },
        {
          "duration": 1.5,
          "durationTicks": 4096,
          "midi": 52,
          "name": "E3",
          "ticks": 130560,
          "time": 47.8125,
          "velocity": 0.7559055118110236
        },
        {
          "duration": 1.5,
          "durationTicks": 4096,
          "midi": 57,
          "name": "A3",
          "ticks": 130560,
          "time": 47.8125,
          "velocity": 0.7559055118110236
        },
        {
          "duration": 1.5,
          "durationTicks": 4096,
          "midi": 61,
          "name": "C#4",
          "ticks": 130560,
          "time": 47.8125,
          "velocity": 0.7559055118110236
        }
      ],
      "endOfTrackTicks": 134657
    },
    {
      "channel": 1,
      "controlChanges": {
        "7": [
          {
            "number": 7,
            "ticks": 0,
            "time": 0,
            "value": 0.8661417322834646
          }
        ],
        "10": [
          {
            "number": 10,
            "ticks": 0,
            "time": 0,
            "value": 0.5039370078740157
          },
          {
            "number": 10,
            "ticks": 0,
            "time": 0,
            "value": 0.5039370078740157
          }
        ]
      },
      "pitchBends": [],
      "instrument": {
        "family": "bass",
        "number": 0,
        "name": "electric bass (finger)"
      },
      "name": "Electric Bass (finger)",
      "notes": [
        {
          "duration": 0.1875,
          "durationTicks": 512,
          "midi": 37,
          "name": "C#2",
          "ticks": 0,
          "time": 0,
          "velocity": 0.8188976377952756
        },
        {
          "duration": 0.375,
          "durationTicks": 1024,
          "midi": 37,
          "name": "C#2",
          "ticks": 512,
          "time": 0.1875,
          "velocity": 0.8188976377952756
        },
        {
          "duration": 0.1875,
          "durationTicks": 512,
          "midi": 37,
          "name": "C#2",
          "ticks": 1536,
          "time": 0.5625,
          "velocity": 0.8188976377952756
        },
        {
          "duration": 0.1875,
          "durationTicks": 512,
          "midi": 37,
          "name": "C#2",
          "ticks": 2048,
          "time": 0.75,
          "velocity": 0.8188976377952756
        },
        {
          "duration": 0.1875,
          "durationTicks": 512,
          "midi": 30,
          "name": "F#1",
          "ticks": 2560,
          "time": 0.9375,
          "velocity": 0.8188976377952756
        },
        {
          "duration": 0.1875,
          "durationTicks": 512,
          "midi": 35,
          "name": "B1",
          "ticks": 3072,
          "time": 1.125,
          "velocity": 0.8188976377952756
        },
        {
          "duration": 0.375,
          "durationTicks": 1024,
          "midi": 33,
          "name": "A1",
          "ticks": 3584,
          "time": 1.3125,
          "velocity": 0.8188976377952756
        },
        {
          "duration": 0.375,
          "durationTicks": 1024,
          "midi": 33,
          "name": "A1",
          "ticks": 4608,
          "time": 1.6875,
          "velocity": 0.8188976377952756
        },
        {
          "duration": 0.1875,
          "durationTicks": 512,
          "midi": 33,
          "name": "A1",
          "ticks": 5632,
          "time": 2.0625,
          "velocity": 0.8188976377952756
        },
        {
          "duration": 0.1875,
          "durationTicks": 512,
          "midi": 33,
          "name": "A1",
          "ticks": 6144,
          "time": 2.25,
          "velocity": 0.8188976377952756
        },
        {
          "duration": 0.1875,
          "durationTicks": 512,
          "midi": 33,
          "name": "A1",
          "ticks": 6656,
          "time": 2.4375,
          "velocity": 0.8188976377952756
        },
        {
          "duration": 0.1875,
          "durationTicks": 512,
          "midi": 33,
          "name": "A1",
          "ticks": 7168,
          "time": 2.625,
          "velocity": 0.8188976377952756
        },
        {
          "duration": 0.1875,
          "durationTicks": 512,
          "midi": 33,
          "name": "A1",
          "ticks": 7680,
          "time": 2.8125,
          "velocity": 0.8188976377952756
        },
        {
          "duration": 0.1875,
          "durationTicks": 512,
          "midi": 35,
          "name": "B1",
          "ticks": 8192,
          "time": 3,
          "velocity": 0.8188976377952756
        },
        {
          "duration": 0.1875,
          "durationTicks": 512,
          "midi": 35,
          "name": "B1",
          "ticks": 8704,
          "time": 3.1875,
          "velocity": 0.8188976377952756
        },
        {
          "duration": 0.1875,
          "durationTicks": 512,
          "midi": 35,
          "name": "B1",
          "ticks": 9216,
          "time": 3.375,
          "velocity": 0.8188976377952756
        },
        {
          "duration": 0.1875,
          "durationTicks": 512,
          "midi": 35,
          "name": "B1",
          "ticks": 9728,
          "time": 3.5625,
          "velocity": 0.8188976377952756
        },
        {
          "duration": 0.1875,
          "durationTicks": 512,
          "midi": 35,
          "name": "B1",
          "ticks": 10240,
          "time": 3.75,
          "velocity": 0.8188976377952756
        },
        {
          "duration": 0.375,
          "durationTicks": 1024,
          "midi": 35,
          "name": "B1",
          "ticks": 10752,
          "time": 3.9375,
          "velocity": 0.8188976377952756
        },
        {
          "duration": 0.375,
          "durationTicks": 1024,
          "midi": 28,
          "name": "E1",
          "ticks": 11776,
          "time": 4.3125,
          "velocity": 0.8188976377952756
        },
        {
          "duration": 0.1875,
          "durationTicks": 512,
          "midi": 28,
          "name": "E1",
          "ticks": 12800,
          "time": 4.6875,
          "velocity": 0.8188976377952756
        },
        {
          "duration": 0.1875,
          "durationTicks": 512,
          "midi": 39,
          "name": "D#2",
          "ticks": 13312,
          "time": 4.875,
          "velocity": 0.8188976377952756
        },
        {
          "duration": 0.1875,
          "durationTicks": 512,
          "midi": 40,
          "name": "E2",
          "ticks": 13824,
          "time": 5.0625,
          "velocity": 0.8188976377952756
        },
        {
          "duration": 0.1875,
          "durationTicks": 512,
          "midi": 40,
          "name": "E2",
          "ticks": 14336,
          "time": 5.25,
          "velocity": 0.8188976377952756
        },
        {
          "duration": 0.1875,
          "durationTicks": 512,
          "midi": 40,
          "name": "E2",
          "ticks": 14848,
          "time": 5.4375,
          "velocity": 0.8188976377952756
        },
        {
          "duration": 0.1875,
          "durationTicks": 512,
          "midi": 39,
          "name": "D#2",
          "ticks": 15360,
          "time": 5.625,
          "velocity": 0.8188976377952756
        },
        {
          "duration": 0.1875,
          "durationTicks": 512,
          "midi": 35,
          "name": "B1",
          "ticks": 15872,
          "time": 5.8125,
          "velocity": 0.8188976377952756
        },
        {
          "duration": 0.1875,
          "durationTicks": 512,
          "midi": 25,
          "name": "C#1",
          "ticks": 16384,
          "time": 6,
          "velocity": 0.8188976377952756
        },
        {
          "duration": 0.375,
          "durationTicks": 1024,
          "midi": 25,
          "name": "C#1",
          "ticks": 16896,
          "time": 6.1875,
          "velocity": 0.8188976377952756
        },
        {
          "duration": 0.375,
          "durationTicks": 1024,
          "midi": 37,
          "name": "C#2",
          "ticks": 17920,
          "time": 6.5625,
          "velocity": 0.8188976377952756
        },
        {
          "duration": 0.1875,
          "durationTicks": 512,
          "midi": 30,
          "name": "F#1",
          "ticks": 18944,
          "time": 6.9375,
          "velocity": 0.8188976377952756
        },
        {
          "duration": 0.1875,
          "durationTicks": 512,
          "midi": 35,
          "name": "B1",
          "ticks": 19456,
          "time": 7.125,
          "velocity": 0.8188976377952756
        },
        {
          "duration": 0.375,
          "durationTicks": 1024,
          "midi": 33,
          "name": "A1",
          "ticks": 19968,
          "time": 7.3125,
          "velocity": 0.8188976377952756
        },
        {
          "duration": 0.375,
          "durationTicks": 1024,
          "midi": 33,
          "name": "A1",
          "ticks": 20992,
          "time": 7.6875,
          "velocity": 0.8188976377952756
        },
        {
          "duration": 0.375,
          "durationTicks": 1024,
          "midi": 33,
          "name": "A1",
          "ticks": 22016,
          "time": 8.0625,
          "velocity": 0.8188976377952756
        },
        {
          "duration": 0.1875,
          "durationTicks": 512,
          "midi": 33,
          "name": "A1",
          "ticks": 23040,
          "time": 8.4375,
          "velocity": 0.8188976377952756
        },
        {
          "duration": 0.1875,
          "durationTicks": 512,
          "midi": 33,
          "name": "A1",
          "ticks": 23552,
          "time": 8.625,
          "velocity": 0.8188976377952756
        },
        {
          "duration": 0.1875,
          "durationTicks": 512,
          "midi": 33,
          "name": "A1",
          "ticks": 24064,
          "time": 8.8125,
          "velocity": 0.8188976377952756
        },
        {
          "duration": 0.1875,
          "durationTicks": 512,
          "midi": 35,
          "name": "B1",
          "ticks": 24576,
          "time": 9,
          "velocity": 0.8188976377952756
        },
        {
          "duration": 0.375,
          "durationTicks": 1024,
          "midi": 35,
          "name": "B1",
          "ticks": 25088,
          "time": 9.1875,
          "velocity": 0.8188976377952756
        },
        {
          "duration": 0.375,
          "durationTicks": 1024,
          "midi": 35,
          "name": "B1",
          "ticks": 26112,
          "time": 9.5625,
          "velocity": 0.8188976377952756
        },
        {
          "duration": 0.1875,
          "durationTicks": 512,
          "midi": 35,
          "name": "B1",
          "ticks": 27136,
          "time": 9.9375,
          "velocity": 0.8188976377952756
        },
        {
          "duration": 0.1875,
          "durationTicks": 512,
          "midi": 35,
          "name": "B1",
          "ticks": 27648,
          "time": 10.125,
          "velocity": 0.8188976377952756
        },
        {
          "duration": 0.1875,
          "durationTicks": 512,
          "midi": 40,
          "name": "E2",
          "ticks": 28160,
          "time": 10.3125,
          "velocity": 0.8188976377952756
        },
        {
          "duration": 0.375,
          "durationTicks": 1024,
          "midi": 40,
          "name": "E2",
          "ticks": 28672,
          "time": 10.5,
          "velocity": 0.8188976377952756
        },
        {
          "duration": 0.1875,
          "durationTicks": 512,
          "midi": 40,
          "name": "E2",
          "ticks": 29696,
          "time": 10.875,
          "velocity": 0.8188976377952756
        },
        {
          "duration": 0.1875,
          "durationTicks": 512,
          "midi": 40,
          "name": "E2",
          "ticks": 30208,
          "time": 11.0625,
          "velocity": 0.8188976377952756
        },
        {
          "duration": 0.1875,
          "durationTicks": 512,
          "midi": 40,
          "name": "E2",
          "ticks": 30720,
          "time": 11.25,
          "velocity": 0.8188976377952756
        },
        {
          "duration": 0.1875,
          "durationTicks": 512,
          "midi": 40,
          "name": "E2",
          "ticks": 31232,
          "time": 11.4375,
          "velocity": 0.8188976377952756
        },
        {
          "duration": 0.1875,
          "durationTicks": 512,
          "midi": 39,
          "name": "D#2",
          "ticks": 31744,
          "time": 11.625,
          "velocity": 0.8188976377952756
        },
        {
          "duration": 0.375,
          "durationTicks": 1024,
          "midi": 25,
          "name": "C#1",
          "ticks": 32256,
          "time": 11.8125,
          "velocity": 0.8188976377952756
        },
        {
          "duration": 0.1875,
          "durationTicks": 512,
          "midi": 25,
          "name": "C#1",
          "ticks": 33280,
          "time": 12.1875,
          "velocity": 0.8188976377952756
        },
        {
          "duration": 0.1875,
          "durationTicks": 512,
          "midi": 35,
          "name": "B1",
          "ticks": 33792,
          "time": 12.375,
          "velocity": 0.8188976377952756
        },
        {
          "duration": 0.1875,
          "durationTicks": 512,
          "midi": 37,
          "name": "C#2",
          "ticks": 34304,
          "time": 12.5625,
          "velocity": 0.8188976377952756
        },
        {
          "duration": 0.1875,
          "durationTicks": 512,
          "midi": 37,
          "name": "C#2",
          "ticks": 34816,
          "time": 12.75,
          "velocity": 0.8188976377952756
        },
        {
          "duration": 0.1875,
          "durationTicks": 512,
          "midi": 37,
          "name": "C#2",
          "ticks": 35328,
          "time": 12.9375,
          "velocity": 0.8188976377952756
        },
        {
          "duration": 0.1875,
          "durationTicks": 512,
          "midi": 35,
          "name": "B1",
          "ticks": 35840,
          "time": 13.125,
          "velocity": 0.8188976377952756
        },
        {
          "duration": 0.375,
          "durationTicks": 1024,
          "midi": 33,
          "name": "A1",
          "ticks": 36352,
          "time": 13.3125,
          "velocity": 0.8188976377952756
        },
        {
          "duration": 0.375,
          "durationTicks": 1024,
          "midi": 33,
          "name": "A1",
          "ticks": 37376,
          "time": 13.6875,
          "velocity": 0.8188976377952756
        },
        {
          "duration": 0.375,
          "durationTicks": 1024,
          "midi": 33,
          "name": "A1",
          "ticks": 38400,
          "time": 14.0625,
          "velocity": 0.8188976377952756
        },
        {
          "duration": 0.1875,
          "durationTicks": 512,
          "midi": 33,
          "name": "A1",
          "ticks": 39424,
          "time": 14.4375,
          "velocity": 0.8188976377952756
        },
        {
          "duration": 0.1875,
          "durationTicks": 512,
          "midi": 33,
          "name": "A1",
          "ticks": 39936,
          "time": 14.625,
          "velocity": 0.8188976377952756
        },
        {
          "duration": 0.1875,
          "durationTicks": 512,
          "midi": 33,
          "name": "A1",
          "ticks": 40448,
          "time": 14.8125,
          "velocity": 0.8188976377952756
        },
        {
          "duration": 0.1875,
          "durationTicks": 512,
          "midi": 35,
          "name": "B1",
          "ticks": 40960,
          "time": 15,
          "velocity": 0.8188976377952756
        },
        {
          "duration": 0.1875,
          "durationTicks": 512,
          "midi": 35,
          "name": "B1",
          "ticks": 41472,
          "time": 15.1875,
          "velocity": 0.8188976377952756
        },
        {
          "duration": 0.1875,
          "durationTicks": 512,
          "midi": 40,
          "name": "E2",
          "ticks": 41984,
          "time": 15.375,
          "velocity": 0.8188976377952756
        },
        {
          "duration": 0.1875,
          "durationTicks": 512,
          "midi": 52,
          "name": "E3",
          "ticks": 42496,
          "time": 15.5625,
          "velocity": 0.8188976377952756
        },
        {
          "duration": 0.1875,
          "durationTicks": 512,
          "midi": 51,
          "name": "D#3",
          "ticks": 43008,
          "time": 15.75,
          "velocity": 0.8188976377952756
        },
        {
          "duration": 0.1875,
          "durationTicks": 512,
          "midi": 47,
          "name": "B2",
          "ticks": 43520,
          "time": 15.9375,
          "velocity": 0.8188976377952756
        },
        {
          "duration": 0.1875,
          "durationTicks": 512,
          "midi": 39,
          "name": "D#2",
          "ticks": 44032,
          "time": 16.125,
          "velocity": 0.8188976377952756
        },
        {
          "duration": 0.375,
          "durationTicks": 1024,
          "midi": 40,
          "name": "E2",
          "ticks": 44544,
          "time": 16.3125,
          "velocity": 0.8188976377952756
        },
        {
          "duration": 0.1875,
          "durationTicks": 512,
          "midi": 40,
          "name": "E2",
          "ticks": 45568,
          "time": 16.6875,
          "velocity": 0.8188976377952756
        },
        {
          "duration": 0.1875,
          "durationTicks": 512,
          "midi": 39,
          "name": "D#2",
          "ticks": 46080,
          "time": 16.875,
          "velocity": 0.8188976377952756
        },
        {
          "duration": 0.1875,
          "durationTicks": 512,
          "midi": 35,
          "name": "B1",
          "ticks": 46592,
          "time": 17.0625,
          "velocity": 0.8188976377952756
        },
        {
          "duration": 0.1875,
          "durationTicks": 512,
          "midi": 28,
          "name": "E1",
          "ticks": 47104,
          "time": 17.25,
          "velocity": 0.8188976377952756
        },
        {
          "duration": 0.1875,
          "durationTicks": 512,
          "midi": 28,
          "name": "E1",
          "ticks": 47616,
          "time": 17.4375,
          "velocity": 0.8188976377952756
        },
        {
          "duration": 0.1875,
          "durationTicks": 512,
          "midi": 27,
          "name": "D#1",
          "ticks": 48128,
          "time": 17.625,
          "velocity": 0.8188976377952756
        },
        {
          "duration": 0.1875,
          "durationTicks": 512,
          "midi": 23,
          "name": "B0",
          "ticks": 48640,
          "time": 17.8125,
          "velocity": 0.8188976377952756
        },
        {
          "duration": 0.1875,
          "durationTicks": 512,
          "midi": 37,
          "name": "C#2",
          "ticks": 49152,
          "time": 18,
          "velocity": 0.8188976377952756
        },
        {
          "duration": 0.1875,
          "durationTicks": 512,
          "midi": 37,
          "name": "C#2",
          "ticks": 49664,
          "time": 18.1875,
          "velocity": 0.8188976377952756
        },
        {
          "duration": 0.375,
          "durationTicks": 1024,
          "midi": 37,
          "name": "C#2",
          "ticks": 50176,
          "time": 18.375,
          "velocity": 0.8188976377952756
        },
        {
          "duration": 0.1875,
          "durationTicks": 512,
          "midi": 37,
          "name": "C#2",
          "ticks": 51200,
          "time": 18.75,
          "velocity": 0.8188976377952756
        },
        {
          "duration": 0.1875,
          "durationTicks": 512,
          "midi": 37,
          "name": "C#2",
          "ticks": 51712,
          "time": 18.9375,
          "velocity": 0.8188976377952756
        },
        {
          "duration": 0.1875,
          "durationTicks": 512,
          "midi": 37,
          "name": "C#2",
          "ticks": 52224,
          "time": 19.125,
          "velocity": 0.8188976377952756
        },
        {
          "duration": 0.375,
          "durationTicks": 1024,
          "midi": 33,
          "name": "A1",
          "ticks": 52736,
          "time": 19.3125,
          "velocity": 0.8188976377952756
        },
        {
          "duration": 0.1875,
          "durationTicks": 512,
          "midi": 33,
          "name": "A1",
          "ticks": 53760,
          "time": 19.6875,
          "velocity": 0.8188976377952756
        },
        {
          "duration": 0.1875,
          "durationTicks": 512,
          "midi": 33,
          "name": "A1",
          "ticks": 54272,
          "time": 19.875,
          "velocity": 0.8188976377952756
        },
        {
          "duration": 0.1875,
          "durationTicks": 512,
          "midi": 33,
          "name": "A1",
          "ticks": 54784,
          "time": 20.0625,
          "velocity": 0.8188976377952756
        },
        {
          "duration": 0.1875,
          "durationTicks": 512,
          "midi": 33,
          "name": "A1",
          "ticks": 55296,
          "time": 20.25,
          "velocity": 0.8188976377952756
        },
        {
          "duration": 0.1875,
          "durationTicks": 512,
          "midi": 33,
          "name": "A1",
          "ticks": 55808,
          "time": 20.4375,
          "velocity": 0.8188976377952756
        },
        {
          "duration": 0.1875,
          "durationTicks": 512,
          "midi": 33,
          "name": "A1",
          "ticks": 56320,
          "time": 20.625,
          "velocity": 0.8188976377952756
        },
        {
          "duration": 0.1875,
          "durationTicks": 512,
          "midi": 33,
          "name": "A1",
          "ticks": 56832,
          "time": 20.8125,
          "velocity": 0.8188976377952756
        },
        {
          "duration": 0.5625,
          "durationTicks": 1536,
          "midi": 35,
          "name": "B1",
          "ticks": 57344,
          "time": 21,
          "velocity": 0.8188976377952756
        },
        {
          "duration": 0.1875,
          "durationTicks": 512,
          "midi": 30,
          "name": "F#1",
          "ticks": 58880,
          "time": 21.5625,
          "velocity": 0.8188976377952756
        },
        {
          "duration": 0.1875,
          "durationTicks": 512,
          "midi": 35,
          "name": "B1",
          "ticks": 59392,
          "time": 21.75,
          "velocity": 0.8188976377952756
        },
        {
          "duration": 0.375,
          "durationTicks": 1024,
          "midi": 30,
          "name": "F#1",
          "ticks": 59904,
          "time": 21.9375,
          "velocity": 0.8188976377952756
        },
        {
          "duration": 0.9375,
          "durationTicks": 2560,
          "midi": 35,
          "name": "B1",
          "ticks": 60928,
          "time": 22.3125,
          "velocity": 0.8188976377952756
        },
        {
          "duration": 0.1875,
          "durationTicks": 512,
          "midi": 30,
          "name": "F#1",
          "ticks": 63488,
          "time": 23.25,
          "velocity": 0.8188976377952756
        },
        {
          "duration": 0.5625,
          "durationTicks": 1536,
          "midi": 27,
          "name": "D#1",
          "ticks": 64000,
          "time": 23.4375,
          "velocity": 0.8188976377952756
        },
        {
          "duration": 0.1875,
          "durationTicks": 512,
          "midi": 33,
          "name": "A1",
          "ticks": 65536,
          "time": 24,
          "velocity": 0.8188976377952756
        },
        {
          "duration": 0.1875,
          "durationTicks": 512,
          "midi": 33,
          "name": "A1",
          "ticks": 66048,
          "time": 24.1875,
          "velocity": 0.8188976377952756
        },
        {
          "duration": 0.1875,
          "durationTicks": 512,
          "midi": 33,
          "name": "A1",
          "ticks": 66560,
          "time": 24.375,
          "velocity": 0.8188976377952756
        },
        {
          "duration": 0.1875,
          "durationTicks": 512,
          "midi": 33,
          "name": "A1",
          "ticks": 67072,
          "time": 24.5625,
          "velocity": 0.8188976377952756
        },
        {
          "duration": 0.1875,
          "durationTicks": 512,
          "midi": 33,
          "name": "A1",
          "ticks": 67584,
          "time": 24.75,
          "velocity": 0.8188976377952756
        },
        {
          "duration": 0.1875,
          "durationTicks": 512,
          "midi": 33,
          "name": "A1",
          "ticks": 68096,
          "time": 24.9375,
          "velocity": 0.8188976377952756
        },
        {
          "duration": 0.1875,
          "durationTicks": 512,
          "midi": 33,
          "name": "A1",
          "ticks": 68608,
          "time": 25.125,
          "velocity": 0.8188976377952756
        },
        {
          "duration": 0.1875,
          "durationTicks": 512,
          "midi": 33,
          "name": "A1",
          "ticks": 69120,
          "time": 25.3125,
          "velocity": 0.8188976377952756
        },
        {
          "duration": 0.1875,
          "durationTicks": 512,
          "midi": 35,
          "name": "B1",
          "ticks": 69632,
          "time": 25.5,
          "velocity": 0.8188976377952756
        },
        {
          "duration": 0.1875,
          "durationTicks": 512,
          "midi": 35,
          "name": "B1",
          "ticks": 70144,
          "time": 25.6875,
          "velocity": 0.8188976377952756
        },
        {
          "duration": 0.1875,
          "durationTicks": 512,
          "midi": 35,
          "name": "B1",
          "ticks": 70656,
          "time": 25.875,
          "velocity": 0.8188976377952756
        },
        {
          "duration": 0.1875,
          "durationTicks": 512,
          "midi": 35,
          "name": "B1",
          "ticks": 71168,
          "time": 26.0625,
          "velocity": 0.8188976377952756
        },
        {
          "duration": 0.1875,
          "durationTicks": 512,
          "midi": 35,
          "name": "B1",
          "ticks": 71680,
          "time": 26.25,
          "velocity": 0.8188976377952756
        },
        {
          "duration": 0.1875,
          "durationTicks": 512,
          "midi": 35,
          "name": "B1",
          "ticks": 72192,
          "time": 26.4375,
          "velocity": 0.8188976377952756
        },
        {
          "duration": 0.1875,
          "durationTicks": 512,
          "midi": 35,
          "name": "B1",
          "ticks": 72704,
          "time": 26.625,
          "velocity": 0.8188976377952756
        },
        {
          "duration": 0.1875,
          "durationTicks": 512,
          "midi": 35,
          "name": "B1",
          "ticks": 73216,
          "time": 26.8125,
          "velocity": 0.8188976377952756
        },
        {
          "duration": 0.1875,
          "durationTicks": 512,
          "midi": 35,
          "name": "B1",
          "ticks": 73728,
          "time": 27,
          "velocity": 0.8188976377952756
        },
        {
          "duration": 0.1875,
          "durationTicks": 512,
          "midi": 35,
          "name": "B1",
          "ticks": 74240,
          "time": 27.1875,
          "velocity": 0.8188976377952756
        },
        {
          "duration": 0.1875,
          "durationTicks": 512,
          "midi": 35,
          "name": "B1",
          "ticks": 74752,
          "time": 27.375,
          "velocity": 0.8188976377952756
        },
        {
          "duration": 0.1875,
          "durationTicks": 512,
          "midi": 35,
          "name": "B1",
          "ticks": 75264,
          "time": 27.5625,
          "velocity": 0.8188976377952756
        },
        {
          "duration": 0.1875,
          "durationTicks": 512,
          "midi": 35,
          "name": "B1",
          "ticks": 75776,
          "time": 27.75,
          "velocity": 0.8188976377952756
        },
        {
          "duration": 0.1875,
          "durationTicks": 512,
          "midi": 35,
          "name": "B1",
          "ticks": 76288,
          "time": 27.9375,
          "velocity": 0.8188976377952756
        },
        {
          "duration": 0.1875,
          "durationTicks": 512,
          "midi": 35,
          "name": "B1",
          "ticks": 76800,
          "time": 28.125,
          "velocity": 0.8188976377952756
        },
        {
          "duration": 0.1875,
          "durationTicks": 512,
          "midi": 35,
          "name": "B1",
          "ticks": 77312,
          "time": 28.3125,
          "velocity": 0.8188976377952756
        },
        {
          "duration": 0.1875,
          "durationTicks": 512,
          "midi": 37,
          "name": "C#2",
          "ticks": 77824,
          "time": 28.5,
          "velocity": 0.8188976377952756
        },
        {
          "duration": 0.1875,
          "durationTicks": 512,
          "midi": 37,
          "name": "C#2",
          "ticks": 78336,
          "time": 28.6875,
          "velocity": 0.8188976377952756
        },
        {
          "duration": 0.1875,
          "durationTicks": 512,
          "midi": 37,
          "name": "C#2",
          "ticks": 78848,
          "time": 28.875,
          "velocity": 0.8188976377952756
        },
        {
          "duration": 0.1875,
          "durationTicks": 512,
          "midi": 37,
          "name": "C#2",
          "ticks": 79360,
          "time": 29.0625,
          "velocity": 0.8188976377952756
        },
        {
          "duration": 0.1875,
          "durationTicks": 512,
          "midi": 37,
          "name": "C#2",
          "ticks": 79872,
          "time": 29.25,
          "velocity": 0.8188976377952756
        },
        {
          "duration": 0.1875,
          "durationTicks": 512,
          "midi": 37,
          "name": "C#2",
          "ticks": 80384,
          "time": 29.4375,
          "velocity": 0.8188976377952756
        },
        {
          "duration": 0.1875,
          "durationTicks": 512,
          "midi": 37,
          "name": "C#2",
          "ticks": 80896,
          "time": 29.625,
          "velocity": 0.8188976377952756
        },
        {
          "duration": 0.1875,
          "durationTicks": 512,
          "midi": 37,
          "name": "C#2",
          "ticks": 81408,
          "time": 29.8125,
          "velocity": 0.8188976377952756
        },
        {
          "duration": 0.1875,
          "durationTicks": 512,
          "midi": 33,
          "name": "A1",
          "ticks": 81920,
          "time": 30,
          "velocity": 0.8188976377952756
        },
        {
          "duration": 0.1875,
          "durationTicks": 512,
          "midi": 33,
          "name": "A1",
          "ticks": 82432,
          "time": 30.1875,
          "velocity": 0.8188976377952756
        },
        {
          "duration": 0.1875,
          "durationTicks": 512,
          "midi": 33,
          "name": "A1",
          "ticks": 82944,
          "time": 30.375,
          "velocity": 0.8188976377952756
        },
        {
          "duration": 0.1875,
          "durationTicks": 512,
          "midi": 33,
          "name": "A1",
          "ticks": 83456,
          "time": 30.5625,
          "velocity": 0.8188976377952756
        },
        {
          "duration": 0.1875,
          "durationTicks": 512,
          "midi": 33,
          "name": "A1",
          "ticks": 83968,
          "time": 30.75,
          "velocity": 0.8188976377952756
        },
        {
          "duration": 0.1875,
          "durationTicks": 512,
          "midi": 33,
          "name": "A1",
          "ticks": 84480,
          "time": 30.9375,
          "velocity": 0.8188976377952756
        },
        {
          "duration": 0.1875,
          "durationTicks": 512,
          "midi": 33,
          "name": "A1",
          "ticks": 84992,
          "time": 31.125,
          "velocity": 0.8188976377952756
        },
        {
          "duration": 0.1875,
          "durationTicks": 512,
          "midi": 33,
          "name": "A1",
          "ticks": 85504,
          "time": 31.3125,
          "velocity": 0.8188976377952756
        },
        {
          "duration": 0.1875,
          "durationTicks": 512,
          "midi": 35,
          "name": "B1",
          "ticks": 86016,
          "time": 31.5,
          "velocity": 0.8188976377952756
        },
        {
          "duration": 0.1875,
          "durationTicks": 512,
          "midi": 35,
          "name": "B1",
          "ticks": 86528,
          "time": 31.6875,
          "velocity": 0.8188976377952756
        },
        {
          "duration": 0.1875,
          "durationTicks": 512,
          "midi": 35,
          "name": "B1",
          "ticks": 87040,
          "time": 31.875,
          "velocity": 0.8188976377952756
        },
        {
          "duration": 0.1875,
          "durationTicks": 512,
          "midi": 35,
          "name": "B1",
          "ticks": 87552,
          "time": 32.0625,
          "velocity": 0.8188976377952756
        },
        {
          "duration": 0.1875,
          "durationTicks": 512,
          "midi": 35,
          "name": "B1",
          "ticks": 88064,
          "time": 32.25,
          "velocity": 0.8188976377952756
        },
        {
          "duration": 0.1875,
          "durationTicks": 512,
          "midi": 35,
          "name": "B1",
          "ticks": 88576,
          "time": 32.4375,
          "velocity": 0.8188976377952756
        },
        {
          "duration": 0.1875,
          "durationTicks": 512,
          "midi": 35,
          "name": "B1",
          "ticks": 89088,
          "time": 32.625,
          "velocity": 0.8188976377952756
        },
        {
          "duration": 0.1875,
          "durationTicks": 512,
          "midi": 35,
          "name": "B1",
          "ticks": 89600,
          "time": 32.8125,
          "velocity": 0.8188976377952756
        },
        {
          "duration": 0.1875,
          "durationTicks": 512,
          "midi": 35,
          "name": "B1",
          "ticks": 90112,
          "time": 33,
          "velocity": 0.8188976377952756
        },
        {
          "duration": 0.1875,
          "durationTicks": 512,
          "midi": 35,
          "name": "B1",
          "ticks": 90624,
          "time": 33.1875,
          "velocity": 0.8188976377952756
        },
        {
          "duration": 0.1875,
          "durationTicks": 512,
          "midi": 39,
          "name": "D#2",
          "ticks": 91136,
          "time": 33.375,
          "velocity": 0.8188976377952756
        },
        {
          "duration": 0.1875,
          "durationTicks": 512,
          "midi": 39,
          "name": "D#2",
          "ticks": 91648,
          "time": 33.5625,
          "velocity": 0.8188976377952756
        },
        {
          "duration": 0.1875,
          "durationTicks": 512,
          "midi": 40,
          "name": "E2",
          "ticks": 92160,
          "time": 33.75,
          "velocity": 0.8188976377952756
        },
        {
          "duration": 0.1875,
          "durationTicks": 512,
          "midi": 40,
          "name": "E2",
          "ticks": 92672,
          "time": 33.9375,
          "velocity": 0.8188976377952756
        },
        {
          "duration": 0.1875,
          "durationTicks": 512,
          "midi": 42,
          "name": "F#2",
          "ticks": 93184,
          "time": 34.125,
          "velocity": 0.8188976377952756
        },
        {
          "duration": 0.375,
          "durationTicks": 1024,
          "midi": 37,
          "name": "C#2",
          "ticks": 93696,
          "time": 34.3125,
          "velocity": 0.8188976377952756
        },
        {
          "duration": 0.1875,
          "durationTicks": 512,
          "midi": 37,
          "name": "C#2",
          "ticks": 94720,
          "time": 34.6875,
          "velocity": 0.8188976377952756
        },
        {
          "duration": 0.1875,
          "durationTicks": 512,
          "midi": 37,
          "name": "C#2",
          "ticks": 95232,
          "time": 34.875,
          "velocity": 0.8188976377952756
        },
        {
          "duration": 0.375,
          "durationTicks": 1024,
          "midi": 37,
          "name": "C#2",
          "ticks": 95744,
          "time": 35.0625,
          "velocity": 0.8188976377952756
        },
        {
          "duration": 0.5625,
          "durationTicks": 1536,
          "midi": 40,
          "name": "E2",
          "ticks": 96768,
          "time": 35.4375,
          "velocity": 0.8188976377952756
        },
        {
          "duration": 0.375,
          "durationTicks": 1024,
          "midi": 33,
          "name": "A1",
          "ticks": 98304,
          "time": 36,
          "velocity": 0.8188976377952756
        },
        {
          "duration": 0.1875,
          "durationTicks": 512,
          "midi": 39,
          "name": "D#2",
          "ticks": 99328,
          "time": 36.375,
          "velocity": 0.8188976377952756
        },
        {
          "duration": 0.1875,
          "durationTicks": 512,
          "midi": 39,
          "name": "D#2",
          "ticks": 99840,
          "time": 36.5625,
          "velocity": 0.8188976377952756
        },
        {
          "duration": 0.1875,
          "durationTicks": 512,
          "midi": 39,
          "name": "D#2",
          "ticks": 100352,
          "time": 36.75,
          "velocity": 0.8188976377952756
        },
        {
          "duration": 0.1875,
          "durationTicks": 512,
          "midi": 40,
          "name": "E2",
          "ticks": 100864,
          "time": 36.9375,
          "velocity": 0.8188976377952756
        },
        {
          "duration": 0.1875,
          "durationTicks": 512,
          "midi": 39,
          "name": "D#2",
          "ticks": 101376,
          "time": 37.125,
          "velocity": 0.8188976377952756
        },
        {
          "duration": 0.375,
          "durationTicks": 1024,
          "midi": 35,
          "name": "B1",
          "ticks": 101888,
          "time": 37.3125,
          "velocity": 0.8188976377952756
        },
        {
          "duration": 0.1875,
          "durationTicks": 512,
          "midi": 35,
          "name": "B1",
          "ticks": 102912,
          "time": 37.6875,
          "velocity": 0.8188976377952756
        },
        {
          "duration": 0.1875,
          "durationTicks": 512,
          "midi": 42,
          "name": "F#2",
          "ticks": 103424,
          "time": 37.875,
          "velocity": 0.8188976377952756
        },
        {
          "duration": 0.1875,
          "durationTicks": 512,
          "midi": 46,
          "name": "A#2",
          "ticks": 103936,
          "time": 38.0625,
          "velocity": 0.8188976377952756
        },
        {
          "duration": 0.1875,
          "durationTicks": 512,
          "midi": 47,
          "name": "B2",
          "ticks": 104448,
          "time": 38.25,
          "velocity": 0.8188976377952756
        },
        {
          "duration": 0.1875,
          "durationTicks": 512,
          "midi": 46,
          "name": "A#2",
          "ticks": 104960,
          "time": 38.4375,
          "velocity": 0.8188976377952756
        },
        {
          "duration": 0.1875,
          "durationTicks": 512,
          "midi": 42,
          "name": "F#2",
          "ticks": 105472,
          "time": 38.625,
          "velocity": 0.8188976377952756
        },
        {
          "duration": 0.375,
          "durationTicks": 1024,
          "midi": 35,
          "name": "B1",
          "ticks": 105984,
          "time": 38.8125,
          "velocity": 0.8188976377952756
        },
        {
          "duration": 0.1875,
          "durationTicks": 512,
          "midi": 35,
          "name": "B1",
          "ticks": 107008,
          "time": 39.1875,
          "velocity": 0.8188976377952756
        },
        {
          "duration": 0.1875,
          "durationTicks": 512,
          "midi": 52,
          "name": "E3",
          "ticks": 107520,
          "time": 39.375,
          "velocity": 0.8188976377952756
        },
        {
          "duration": 0.1875,
          "durationTicks": 512,
          "midi": 51,
          "name": "D#3",
          "ticks": 108032,
          "time": 39.5625,
          "velocity": 0.8188976377952756
        },
        {
          "duration": 0.1875,
          "durationTicks": 512,
          "midi": 47,
          "name": "B2",
          "ticks": 108544,
          "time": 39.75,
          "velocity": 0.8188976377952756
        },
        {
          "duration": 0.1875,
          "durationTicks": 512,
          "midi": 35,
          "name": "B1",
          "ticks": 109056,
          "time": 39.9375,
          "velocity": 0.8188976377952756
        },
        {
          "duration": 0.1875,
          "durationTicks": 512,
          "midi": 39,
          "name": "D#2",
          "ticks": 109568,
          "time": 40.125,
          "velocity": 0.8188976377952756
        },
        {
          "duration": 0.1875,
          "durationTicks": 512,
          "midi": 40,
          "name": "E2",
          "ticks": 110080,
          "time": 40.3125,
          "velocity": 0.8188976377952756
        },
        {
          "duration": 0.1875,
          "durationTicks": 512,
          "midi": 40,
          "name": "E2",
          "ticks": 110592,
          "time": 40.5,
          "velocity": 0.8188976377952756
        },
        {
          "duration": 0.1875,
          "durationTicks": 512,
          "midi": 40,
          "name": "E2",
          "ticks": 111104,
          "time": 40.6875,
          "velocity": 0.8188976377952756
        },
        {
          "duration": 0.1875,
          "durationTicks": 512,
          "midi": 40,
          "name": "E2",
          "ticks": 111616,
          "time": 40.875,
          "velocity": 0.8188976377952756
        },
        {
          "duration": 0.375,
          "durationTicks": 1024,
          "midi": 40,
          "name": "E2",
          "ticks": 112128,
          "time": 41.0625,
          "velocity": 0.8188976377952756
        },
        {
          "duration": 0.5625,
          "durationTicks": 1536,
          "midi": 39,
          "name": "D#2",
          "ticks": 113152,
          "time": 41.4375,
          "velocity": 0.8188976377952756
        },
        {
          "duration": 0.1875,
          "durationTicks": 512,
          "midi": 33,
          "name": "A1",
          "ticks": 114688,
          "time": 42,
          "velocity": 0.8188976377952756
        },
        {
          "duration": 0.1875,
          "durationTicks": 512,
          "midi": 33,
          "name": "A1",
          "ticks": 115200,
          "time": 42.1875,
          "velocity": 0.8188976377952756
        },
        {
          "duration": 0.1875,
          "durationTicks": 512,
          "midi": 40,
          "name": "E2",
          "ticks": 115712,
          "time": 42.375,
          "velocity": 0.8188976377952756
        },
        {
          "duration": 0.1875,
          "durationTicks": 512,
          "midi": 33,
          "name": "A1",
          "ticks": 116224,
          "time": 42.5625,
          "velocity": 0.8188976377952756
        },
        {
          "duration": 0.1875,
          "durationTicks": 512,
          "midi": 40,
          "name": "E2",
          "ticks": 116736,
          "time": 42.75,
          "velocity": 0.8188976377952756
        },
        {
          "duration": 0.1875,
          "durationTicks": 512,
          "midi": 33,
          "name": "A1",
          "ticks": 117248,
          "time": 42.9375,
          "velocity": 0.8188976377952756
        },
        {
          "duration": 0.1875,
          "durationTicks": 512,
          "midi": 40,
          "name": "E2",
          "ticks": 117760,
          "time": 43.125,
          "velocity": 0.8188976377952756
        },
        {
          "duration": 0.1875,
          "durationTicks": 512,
          "midi": 33,
          "name": "A1",
          "ticks": 118272,
          "time": 43.3125,
          "velocity": 0.8188976377952756
        },
        {
          "duration": 0.1875,
          "durationTicks": 512,
          "midi": 35,
          "name": "B1",
          "ticks": 118784,
          "time": 43.5,
          "velocity": 0.8188976377952756
        },
        {
          "duration": 0.1875,
          "durationTicks": 512,
          "midi": 35,
          "name": "B1",
          "ticks": 119296,
          "time": 43.6875,
          "velocity": 0.8188976377952756
        },
        {
          "duration": 0.1875,
          "durationTicks": 512,
          "midi": 35,
          "name": "B1",
          "ticks": 119808,
          "time": 43.875,
          "velocity": 0.8188976377952756
        },
        {
          "duration": 0.1875,
          "durationTicks": 512,
          "midi": 35,
          "name": "B1",
          "ticks": 120320,
          "time": 44.0625,
          "velocity": 0.8188976377952756
        },
        {
          "duration": 0.1875,
          "durationTicks": 512,
          "midi": 35,
          "name": "B1",
          "ticks": 120832,
          "time": 44.25,
          "velocity": 0.8188976377952756
        },
        {
          "duration": 0.1875,
          "durationTicks": 512,
          "midi": 35,
          "name": "B1",
          "ticks": 121344,
          "time": 44.4375,
          "velocity": 0.8188976377952756
        },
        {
          "duration": 0.1875,
          "durationTicks": 512,
          "midi": 35,
          "name": "B1",
          "ticks": 121856,
          "time": 44.625,
          "velocity": 0.8188976377952756
        },
        {
          "duration": 0.1875,
          "durationTicks": 512,
          "midi": 35,
          "name": "B1",
          "ticks": 122368,
          "time": 44.8125,
          "velocity": 0.8188976377952756
        },
        {
          "duration": 0.1875,
          "durationTicks": 512,
          "midi": 35,
          "name": "B1",
          "ticks": 122880,
          "time": 45,
          "velocity": 0.8188976377952756
        },
        {
          "duration": 0.1875,
          "durationTicks": 512,
          "midi": 35,
          "name": "B1",
          "ticks": 123392,
          "time": 45.1875,
          "velocity": 0.8188976377952756
        },
        {
          "duration": 0.1875,
          "durationTicks": 512,
          "midi": 35,
          "name": "B1",
          "ticks": 123904,
          "time": 45.375,
          "velocity": 0.8188976377952756
        },
        {
          "duration": 0.1875,
          "durationTicks": 512,
          "midi": 42,
          "name": "F#2",
          "ticks": 124416,
          "time": 45.5625,
          "velocity": 0.8188976377952756
        },
        {
          "duration": 0.1875,
          "durationTicks": 512,
          "midi": 47,
          "name": "B2",
          "ticks": 124928,
          "time": 45.75,
          "velocity": 0.8188976377952756
        },
        {
          "duration": 0.1875,
          "durationTicks": 512,
          "midi": 47,
          "name": "B2",
          "ticks": 125440,
          "time": 45.9375,
          "velocity": 0.8188976377952756
        },
        {
          "duration": 0.1875,
          "durationTicks": 512,
          "midi": 35,
          "name": "B1",
          "ticks": 125952,
          "time": 46.125,
          "velocity": 0.8188976377952756
        },
        {
          "duration": 0.375,
          "durationTicks": 1024,
          "midi": 37,
          "name": "C#2",
          "ticks": 126464,
          "time": 46.3125,
          "velocity": 0.8188976377952756
        },
        {
          "duration": 0.1875,
          "durationTicks": 512,
          "midi": 44,
          "name": "G#2",
          "ticks": 127488,
          "time": 46.6875,
          "velocity": 0.8188976377952756
        },
        {
          "duration": 0.1875,
          "durationTicks": 512,
          "midi": 42,
          "name": "F#2",
          "ticks": 128000,
          "time": 46.875,
          "velocity": 0.8188976377952756
        },
        {
          "duration": 0.1875,
          "durationTicks": 512,
          "midi": 35,
          "name": "B1",
          "ticks": 128512,
          "time": 47.0625,
          "velocity": 0.8188976377952756
        },
        {
          "duration": 0.1875,
          "durationTicks": 512,
          "midi": 49,
          "name": "C#3",
          "ticks": 129024,
          "time": 47.25,
          "velocity": 0.8188976377952756
        },
        {
          "duration": 0.1875,
          "durationTicks": 512,
          "midi": 47,
          "name": "B2",
          "ticks": 129536,
          "time": 47.4375,
          "velocity": 0.8188976377952756
        },
        {
          "duration": 0.1875,
          "durationTicks": 512,
          "midi": 35,
          "name": "B1",
          "ticks": 130048,
          "time": 47.625,
          "velocity": 0.8188976377952756
        },
        {
          "duration": 1.5,
          "durationTicks": 4096,
          "midi": 45,
          "name": "A2",
          "ticks": 130560,
          "time": 47.8125,
          "velocity": 0.8188976377952756
        }
      ],
      "endOfTrackTicks": 134657
    },
    {
      "channel": 2,
      "controlChanges": {
        "7": [
          {
            "number": 7,
            "ticks": 0,
            "time": 0,
            "value": 0.8267716535433071
          }
        ],
        "10": [
          {
            "number": 10,
            "ticks": 0,
            "time": 0,
            "value": 0.5039370078740157
          },
          {
            "number": 10,
            "ticks": 0,
            "time": 0,
            "value": 0.5039370078740157
          }
        ]
      },
      "pitchBends": [],
      "instrument": {
        "family": "brass",
        "number": 0,
        "name": "synthbrass 1"
      },
      "name": "SynthBrass 1",
      "notes": [
        {
          "duration": 0.1875,
          "durationTicks": 512,
          "midi": 68,
          "name": "G#4",
          "ticks": 0,
          "time": 0,
          "velocity": 1
        },
        {
          "duration": 0.375,
          "durationTicks": 1024,
          "midi": 66,
          "name": "F#4",
          "ticks": 512,
          "time": 0.1875,
          "velocity": 1
        },
        {
          "duration": 0.375,
          "durationTicks": 1024,
          "midi": 64,
          "name": "E4",
          "ticks": 1536,
          "time": 0.5625,
          "velocity": 1
        },
        {
          "duration": 0.1875,
          "durationTicks": 512,
          "midi": 59,
          "name": "B3",
          "ticks": 2560,
          "time": 0.9375,
          "velocity": 1
        },
        {
          "duration": 0.1875,
          "durationTicks": 512,
          "midi": 68,
          "name": "G#4",
          "ticks": 3072,
          "time": 1.125,
          "velocity": 1
        },
        {
          "duration": 0.375,
          "durationTicks": 1024,
          "midi": 66,
          "name": "F#4",
          "ticks": 3584,
          "time": 1.3125,
          "velocity": 1
        },
        {
          "duration": 0.375,
          "durationTicks": 1024,
          "midi": 64,
          "name": "E4",
          "ticks": 4608,
          "time": 1.6875,
          "velocity": 1
        },
        {
          "duration": 0.375,
          "durationTicks": 1024,
          "midi": 68,
          "name": "G#4",
          "ticks": 5632,
          "time": 2.0625,
          "velocity": 1
        },
        {
          "duration": 0.1875,
          "durationTicks": 512,
          "midi": 68,
          "name": "G#4",
          "ticks": 6656,
          "time": 2.4375,
          "velocity": 1
        },
        {
          "duration": 0.1875,
          "durationTicks": 512,
          "midi": 68,
          "name": "G#4",
          "ticks": 7168,
          "time": 2.625,
          "velocity": 1
        },
        {
          "duration": 0.1875,
          "durationTicks": 512,
          "midi": 68,
          "name": "G#4",
          "ticks": 7680,
          "time": 2.8125,
          "velocity": 1
        },
        {
          "duration": 0.1875,
          "durationTicks": 512,
          "midi": 66,
          "name": "F#4",
          "ticks": 8192,
          "time": 3,
          "velocity": 1
        },
        {
          "duration": 0.375,
          "durationTicks": 1024,
          "midi": 64,
          "name": "E4",
          "ticks": 8704,
          "time": 3.1875,
          "velocity": 1
        },
        {
          "duration": 0.375,
          "durationTicks": 1024,
          "midi": 63,
          "name": "D#4",
          "ticks": 9728,
          "time": 3.5625,
          "velocity": 1
        },
        {
          "duration": 0.375,
          "durationTicks": 1024,
          "midi": 64,
          "name": "E4",
          "ticks": 10752,
          "time": 3.9375,
          "velocity": 1
        },
        {
          "duration": 0.375,
          "durationTicks": 1024,
          "midi": 66,
          "name": "F#4",
          "ticks": 11776,
          "time": 4.3125,
          "velocity": 1
        },
        {
          "duration": 0.1875,
          "durationTicks": 512,
          "midi": 64,
          "name": "E4",
          "ticks": 12800,
          "time": 4.6875,
          "velocity": 1
        },
        {
          "duration": 0.375,
          "durationTicks": 1024,
          "midi": 68,
          "name": "G#4",
          "ticks": 13312,
          "time": 4.875,
          "velocity": 1
        },
        {
          "duration": 0.1875,
          "durationTicks": 512,
          "midi": 68,
          "name": "G#4",
          "ticks": 14336,
          "time": 5.25,
          "velocity": 1
        },
        {
          "duration": 0.1875,
          "durationTicks": 512,
          "midi": 68,
          "name": "G#4",
          "ticks": 14848,
          "time": 5.4375,
          "velocity": 1
        },
        {
          "duration": 0.1875,
          "durationTicks": 512,
          "midi": 68,
          "name": "G#4",
          "ticks": 15360,
          "time": 5.625,
          "velocity": 1
        },
        {
          "duration": 0.375,
          "durationTicks": 1024,
          "midi": 68,
          "name": "G#4",
          "ticks": 15872,
          "time": 5.8125,
          "velocity": 1
        },
        {
          "duration": 0.375,
          "durationTicks": 1024,
          "midi": 66,
          "name": "F#4",
          "ticks": 16896,
          "time": 6.1875,
          "velocity": 1
        },
        {
          "duration": 0.375,
          "durationTicks": 1024,
          "midi": 64,
          "name": "E4",
          "ticks": 17920,
          "time": 6.5625,
          "velocity": 1
        },
        {
          "duration": 0.1875,
          "durationTicks": 512,
          "midi": 59,
          "name": "B3",
          "ticks": 18944,
          "time": 6.9375,
          "velocity": 1
        },
        {
          "duration": 0.1875,
          "durationTicks": 512,
          "midi": 68,
          "name": "G#4",
          "ticks": 19456,
          "time": 7.125,
          "velocity": 1
        },
        {
          "duration": 0.375,
          "durationTicks": 1024,
          "midi": 68,
          "name": "G#4",
          "ticks": 19968,
          "time": 7.3125,
          "velocity": 1
        },
        {
          "duration": 0.375,
          "durationTicks": 1024,
          "midi": 66,
          "name": "F#4",
          "ticks": 20992,
          "time": 7.6875,
          "velocity": 1
        },
        {
          "duration": 0.375,
          "durationTicks": 1024,
          "midi": 64,
          "name": "E4",
          "ticks": 22016,
          "time": 8.0625,
          "velocity": 1
        },
        {
          "duration": 0.1875,
          "durationTicks": 512,
          "midi": 64,
          "name": "E4",
          "ticks": 23040,
          "time": 8.4375,
          "velocity": 1
        },
        {
          "duration": 0.1875,
          "durationTicks": 512,
          "midi": 64,
          "name": "E4",
          "ticks": 23552,
          "time": 8.625,
          "velocity": 1
        },
        {
          "duration": 0.375,
          "durationTicks": 1024,
          "midi": 63,
          "name": "D#4",
          "ticks": 24064,
          "time": 8.8125,
          "velocity": 1
        },
        {
          "duration": 0.375,
          "durationTicks": 1024,
          "midi": 59,
          "name": "B3",
          "ticks": 25088,
          "time": 9.1875,
          "velocity": 1
        },
        {
          "duration": 0.375,
          "durationTicks": 1024,
          "midi": 59,
          "name": "B3",
          "ticks": 26112,
          "time": 9.5625,
          "velocity": 1
        },
        {
          "duration": 0.375,
          "durationTicks": 1024,
          "midi": 66,
          "name": "F#4",
          "ticks": 27136,
          "time": 9.9375,
          "velocity": 1
        },
        {
          "duration": 0.375,
          "durationTicks": 1024,
          "midi": 66,
          "name": "F#4",
          "ticks": 28160,
          "time": 10.3125,
          "velocity": 1
        },
        {
          "duration": 0.375,
          "durationTicks": 1024,
          "midi": 64,
          "name": "E4",
          "ticks": 29184,
          "time": 10.6875,
          "velocity": 1
        },
        {
          "duration": 0.1875,
          "durationTicks": 512,
          "midi": 59,
          "name": "B3",
          "ticks": 30208,
          "time": 11.0625,
          "velocity": 1
        },
        {
          "duration": 0.1875,
          "durationTicks": 512,
          "midi": 68,
          "name": "G#4",
          "ticks": 30720,
          "time": 11.25,
          "velocity": 1
        },
        {
          "duration": 0.1875,
          "durationTicks": 512,
          "midi": 68,
          "name": "G#4",
          "ticks": 31232,
          "time": 11.4375,
          "velocity": 1
        },
        {
          "duration": 0.1875,
          "durationTicks": 512,
          "midi": 68,
          "name": "G#4",
          "ticks": 31744,
          "time": 11.625,
          "velocity": 1
        },
        {
          "duration": 0.1875,
          "durationTicks": 512,
          "midi": 68,
          "name": "G#4",
          "ticks": 32256,
          "time": 11.8125,
          "velocity": 1
        },
        {
          "duration": 0.375,
          "durationTicks": 1024,
          "midi": 68,
          "name": "G#4",
          "ticks": 32768,
          "time": 12,
          "velocity": 1
        },
        {
          "duration": 0.1875,
          "durationTicks": 512,
          "midi": 66,
          "name": "F#4",
          "ticks": 33792,
          "time": 12.375,
          "velocity": 1
        },
        {
          "duration": 0.375,
          "durationTicks": 1024,
          "midi": 64,
          "name": "E4",
          "ticks": 34304,
          "time": 12.5625,
          "velocity": 1
        },
        {
          "duration": 0.1875,
          "durationTicks": 512,
          "midi": 59,
          "name": "B3",
          "ticks": 35328,
          "time": 12.9375,
          "velocity": 1
        },
        {
          "duration": 0.1875,
          "durationTicks": 512,
          "midi": 68,
          "name": "G#4",
          "ticks": 35840,
          "time": 13.125,
          "velocity": 1
        },
        {
          "duration": 0.375,
          "durationTicks": 1024,
          "midi": 66,
          "name": "F#4",
          "ticks": 36352,
          "time": 13.3125,
          "velocity": 1
        },
        {
          "duration": 0.375,
          "durationTicks": 1024,
          "midi": 64,
          "name": "E4",
          "ticks": 37376,
          "time": 13.6875,
          "velocity": 1
        },
        {
          "duration": 0.375,
          "durationTicks": 1024,
          "midi": 68,
          "name": "G#4",
          "ticks": 38400,
          "time": 14.0625,
          "velocity": 1
        },
        {
          "duration": 0.1875,
          "durationTicks": 512,
          "midi": 68,
          "name": "G#4",
          "ticks": 39424,
          "time": 14.4375,
          "velocity": 1
        },
        {
          "duration": 0.1875,
          "durationTicks": 512,
          "midi": 68,
          "name": "G#4",
          "ticks": 39936,
          "time": 14.625,
          "velocity": 1
        },
        {
          "duration": 0.375,
          "durationTicks": 1024,
          "midi": 66,
          "name": "F#4",
          "ticks": 40448,
          "time": 14.8125,
          "velocity": 1
        },
        {
          "duration": 0.1875,
          "durationTicks": 512,
          "midi": 66,
          "name": "F#4",
          "ticks": 41472,
          "time": 15.1875,
          "velocity": 1
        },
        {
          "duration": 0.1875,
          "durationTicks": 512,
          "midi": 64,
          "name": "E4",
          "ticks": 41984,
          "time": 15.375,
          "velocity": 1
        },
        {
          "duration": 0.375,
          "durationTicks": 1024,
          "midi": 63,
          "name": "D#4",
          "ticks": 42496,
          "time": 15.5625,
          "velocity": 1
        },
        {
          "duration": 0.375,
          "durationTicks": 1024,
          "midi": 64,
          "name": "E4",
          "ticks": 43520,
          "time": 15.9375,
          "velocity": 1
        },
        {
          "duration": 0.375,
          "durationTicks": 1024,
          "midi": 66,
          "name": "F#4",
          "ticks": 44544,
          "time": 16.3125,
          "velocity": 1
        },
        {
          "duration": 0.1875,
          "durationTicks": 512,
          "midi": 64,
          "name": "E4",
          "ticks": 45568,
          "time": 16.6875,
          "velocity": 1
        },
        {
          "duration": 0.375,
          "durationTicks": 1024,
          "midi": 68,
          "name": "G#4",
          "ticks": 46080,
          "time": 16.875,
          "velocity": 1
        },
        {
          "duration": 0.1875,
          "durationTicks": 512,
          "midi": 63,
          "name": "D#4",
          "ticks": 47104,
          "time": 17.25,
          "velocity": 1
        },
        {
          "duration": 0.1875,
          "durationTicks": 512,
          "midi": 63,
          "name": "D#4",
          "ticks": 47616,
          "time": 17.4375,
          "velocity": 1
        },
        {
          "duration": 0.1875,
          "durationTicks": 512,
          "midi": 63,
          "name": "D#4",
          "ticks": 48128,
          "time": 17.625,
          "velocity": 1
        },
        {
          "duration": 0.375,
          "durationTicks": 1024,
          "midi": 66,
          "name": "F#4",
          "ticks": 48640,
          "time": 17.8125,
          "velocity": 1
        },
        {
          "duration": 0.375,
          "durationTicks": 1024,
          "midi": 64,
          "name": "E4",
          "ticks": 49664,
          "time": 18.1875,
          "velocity": 1
        },
        {
          "duration": 0.375,
          "durationTicks": 1024,
          "midi": 63,
          "name": "D#4",
          "ticks": 50688,
          "time": 18.5625,
          "velocity": 1
        },
        {
          "duration": 0.375,
          "durationTicks": 1024,
          "midi": 64,
          "name": "E4",
          "ticks": 51712,
          "time": 18.9375,
          "velocity": 1
        },
        {
          "duration": 0.375,
          "durationTicks": 1024,
          "midi": 66,
          "name": "F#4",
          "ticks": 52736,
          "time": 19.3125,
          "velocity": 1
        },
        {
          "duration": 0.375,
          "durationTicks": 1024,
          "midi": 64,
          "name": "E4",
          "ticks": 53760,
          "time": 19.6875,
          "velocity": 1
        },
        {
          "duration": 0.375,
          "durationTicks": 1024,
          "midi": 57,
          "name": "A3",
          "ticks": 54784,
          "time": 20.0625,
          "velocity": 1
        },
        {
          "duration": 0.1875,
          "durationTicks": 512,
          "midi": 57,
          "name": "A3",
          "ticks": 55808,
          "time": 20.4375,
          "velocity": 1
        },
        {
          "duration": 0.1875,
          "durationTicks": 512,
          "midi": 68,
          "name": "G#4",
          "ticks": 56320,
          "time": 20.625,
          "velocity": 1
        },
        {
          "duration": 0.375,
          "durationTicks": 1024,
          "midi": 66,
          "name": "F#4",
          "ticks": 56832,
          "time": 20.8125,
          "velocity": 1
        },
        {
          "duration": 0.1875,
          "durationTicks": 512,
          "midi": 64,
          "name": "E4",
          "ticks": 57856,
          "time": 21.1875,
          "velocity": 1
        },
        {
          "duration": 0.5625,
          "durationTicks": 1536,
          "midi": 63,
          "name": "D#4",
          "ticks": 58368,
          "time": 21.375,
          "velocity": 1
        },
        {
          "duration": 0.1875,
          "durationTicks": 512,
          "midi": 59,
          "name": "B3",
          "ticks": 60928,
          "time": 22.3125,
          "velocity": 1
        },
        {
          "duration": 0.1875,
          "durationTicks": 512,
          "midi": 68,
          "name": "G#4",
          "ticks": 61440,
          "time": 22.5,
          "velocity": 1
        },
        {
          "duration": 0.375,
          "durationTicks": 1024,
          "midi": 66,
          "name": "F#4",
          "ticks": 61952,
          "time": 22.6875,
          "velocity": 1
        },
        {
          "duration": 0.375,
          "durationTicks": 1024,
          "midi": 64,
          "name": "E4",
          "ticks": 62976,
          "time": 23.0625,
          "velocity": 1
        },
        {
          "duration": 0.375,
          "durationTicks": 1024,
          "midi": 63,
          "name": "D#4",
          "ticks": 64000,
          "time": 23.4375,
          "velocity": 1
        },
        {
          "duration": 0.1875,
          "durationTicks": 512,
          "midi": 63,
          "name": "D#4",
          "ticks": 65024,
          "time": 23.8125,
          "velocity": 1
        },
        {
          "duration": 0.1875,
          "durationTicks": 512,
          "midi": 63,
          "name": "D#4",
          "ticks": 65536,
          "time": 24,
          "velocity": 1
        },
        {
          "duration": 0.375,
          "durationTicks": 1024,
          "midi": 64,
          "name": "E4",
          "ticks": 66048,
          "time": 24.1875,
          "velocity": 1
        },
        {
          "duration": 0.375,
          "durationTicks": 1024,
          "midi": 63,
          "name": "D#4",
          "ticks": 67072,
          "time": 24.5625,
          "velocity": 1
        },
        {
          "duration": 0.375,
          "durationTicks": 1024,
          "midi": 64,
          "name": "E4",
          "ticks": 68096,
          "time": 24.9375,
          "velocity": 1
        },
        {
          "duration": 0.375,
          "durationTicks": 1024,
          "midi": 63,
          "name": "D#4",
          "ticks": 69120,
          "time": 25.3125,
          "velocity": 1
        },
        {
          "duration": 0.375,
          "durationTicks": 1024,
          "midi": 59,
          "name": "B3",
          "ticks": 70144,
          "time": 25.6875,
          "velocity": 1
        },
        {
          "duration": 0.5625,
          "durationTicks": 1536,
          "midi": 59,
          "name": "B3",
          "ticks": 71168,
          "time": 26.0625,
          "velocity": 1
        },
        {
          "duration": 0.1875,
          "durationTicks": 512,
          "midi": 68,
          "name": "G#4",
          "ticks": 72704,
          "time": 26.625,
          "velocity": 1
        },
        {
          "duration": 0.375,
          "durationTicks": 1024,
          "midi": 66,
          "name": "F#4",
          "ticks": 73216,
          "time": 26.8125,
          "velocity": 1
        },
        {
          "duration": 0.375,
          "durationTicks": 1024,
          "midi": 64,
          "name": "E4",
          "ticks": 74240,
          "time": 27.1875,
          "velocity": 1
        },
        {
          "duration": 0.375,
          "durationTicks": 1024,
          "midi": 63,
          "name": "D#4",
          "ticks": 75264,
          "time": 27.5625,
          "velocity": 1
        },
        {
          "duration": 0.375,
          "durationTicks": 1024,
          "midi": 64,
          "name": "E4",
          "ticks": 76288,
          "time": 27.9375,
          "velocity": 1
        },
        {
          "duration": 0.375,
          "durationTicks": 1024,
          "midi": 63,
          "name": "D#4",
          "ticks": 77312,
          "time": 28.3125,
          "velocity": 1
        },
        {
          "duration": 0.375,
          "durationTicks": 1024,
          "midi": 61,
          "name": "C#4",
          "ticks": 78336,
          "time": 28.6875,
          "velocity": 1
        },
        {
          "duration": 0.375,
          "durationTicks": 1024,
          "midi": 63,
          "name": "D#4",
          "ticks": 79360,
          "time": 29.0625,
          "velocity": 1
        },
        {
          "duration": 0.375,
          "durationTicks": 1024,
          "midi": 64,
          "name": "E4",
          "ticks": 80384,
          "time": 29.4375,
          "velocity": 1
        },
        {
          "duration": 0.1875,
          "durationTicks": 512,
          "midi": 64,
          "name": "E4",
          "ticks": 81408,
          "time": 29.8125,
          "velocity": 1
        },
        {
          "duration": 0.1875,
          "durationTicks": 512,
          "midi": 63,
          "name": "D#4",
          "ticks": 81920,
          "time": 30,
          "velocity": 1
        },
        {
          "duration": 0.375,
          "durationTicks": 1024,
          "midi": 64,
          "name": "E4",
          "ticks": 82432,
          "time": 30.1875,
          "velocity": 1
        },
        {
          "duration": 0.375,
          "durationTicks": 1024,
          "midi": 63,
          "name": "D#4",
          "ticks": 83456,
          "time": 30.5625,
          "velocity": 1
        },
        {
          "duration": 0.375,
          "durationTicks": 1024,
          "midi": 64,
          "name": "E4",
          "ticks": 84480,
          "time": 30.9375,
          "velocity": 1
        },
        {
          "duration": 0.375,
          "durationTicks": 1024,
          "midi": 63,
          "name": "D#4",
          "ticks": 85504,
          "time": 31.3125,
          "velocity": 1
        },
        {
          "duration": 0.375,
          "durationTicks": 1024,
          "midi": 59,
          "name": "B3",
          "ticks": 86528,
          "time": 31.6875,
          "velocity": 1
        },
        {
          "duration": 0.5625,
          "durationTicks": 1536,
          "midi": 59,
          "name": "B3",
          "ticks": 87552,
          "time": 32.0625,
          "velocity": 1
        },
        {
          "duration": 0.1875,
          "durationTicks": 512,
          "midi": 68,
          "name": "G#4",
          "ticks": 89088,
          "time": 32.625,
          "velocity": 1
        },
        {
          "duration": 0.375,
          "durationTicks": 1024,
          "midi": 66,
          "name": "F#4",
          "ticks": 89600,
          "time": 32.8125,
          "velocity": 1
        },
        {
          "duration": 0.375,
          "durationTicks": 1024,
          "midi": 64,
          "name": "E4",
          "ticks": 90624,
          "time": 33.1875,
          "velocity": 1
        },
        {
          "duration": 0.1875,
          "durationTicks": 512,
          "midi": 64,
          "name": "E4",
          "ticks": 92672,
          "time": 33.9375,
          "velocity": 1
        },
        {
          "duration": 0.1875,
          "durationTicks": 512,
          "midi": 64,
          "name": "E4",
          "ticks": 93184,
          "time": 34.125,
          "velocity": 1
        },
        {
          "duration": 0.375,
          "durationTicks": 1024,
          "midi": 63,
          "name": "D#4",
          "ticks": 93696,
          "time": 34.3125,
          "velocity": 1
        },
        {
          "duration": 0.375,
          "durationTicks": 1024,
          "midi": 64,
          "name": "E4",
          "ticks": 94720,
          "time": 34.6875,
          "velocity": 1
        },
        {
          "duration": 0.375,
          "durationTicks": 1024,
          "midi": 66,
          "name": "F#4",
          "ticks": 95744,
          "time": 35.0625,
          "velocity": 1
        },
        {
          "duration": 0.5625,
          "durationTicks": 1536,
          "midi": 64,
          "name": "E4",
          "ticks": 96768,
          "time": 35.4375,
          "velocity": 1
        },
        {
          "duration": 1.5,
          "durationTicks": 4096,
          "midi": 57,
          "name": "A3",
          "ticks": 98304,
          "time": 36,
          "velocity": 1
        },
        {
          "duration": 1.5,
          "durationTicks": 4096,
          "midi": 64,
          "name": "E4",
          "ticks": 98304,
          "time": 36,
          "velocity": 1
        },
        {
          "duration": 0.9375,
          "durationTicks": 2560,
          "midi": 59,
          "name": "B3",
          "ticks": 102400,
          "time": 37.5,
          "velocity": 1
        },
        {
          "duration": 0.9375,
          "durationTicks": 2560,
          "midi": 63,
          "name": "D#4",
          "ticks": 102400,
          "time": 37.5,
          "velocity": 1
        },
        {
          "duration": 0.1875,
          "durationTicks": 512,
          "midi": 59,
          "name": "B3",
          "ticks": 105472,
          "time": 38.625,
          "velocity": 1
        },
        {
          "duration": 0.375,
          "durationTicks": 1024,
          "midi": 68,
          "name": "G#4",
          "ticks": 105984,
          "time": 38.8125,
          "velocity": 1
        },
        {
          "duration": 0.375,
          "durationTicks": 1024,
          "midi": 66,
          "name": "F#4",
          "ticks": 107008,
          "time": 39.1875,
          "velocity": 1
        },
        {
          "duration": 0.375,
          "durationTicks": 1024,
          "midi": 64,
          "name": "E4",
          "ticks": 108032,
          "time": 39.5625,
          "velocity": 1
        },
        {
          "duration": 0.1875,
          "durationTicks": 512,
          "midi": 64,
          "name": "E4",
          "ticks": 109056,
          "time": 39.9375,
          "velocity": 1
        },
        {
          "duration": 0.1875,
          "durationTicks": 512,
          "midi": 64,
          "name": "E4",
          "ticks": 109568,
          "time": 40.125,
          "velocity": 1
        },
        {
          "duration": 0.375,
          "durationTicks": 1024,
          "midi": 63,
          "name": "D#4",
          "ticks": 110080,
          "time": 40.3125,
          "velocity": 1
        },
        {
          "duration": 0.375,
          "durationTicks": 1024,
          "midi": 64,
          "name": "E4",
          "ticks": 111104,
          "time": 40.6875,
          "velocity": 1
        },
        {
          "duration": 0.375,
          "durationTicks": 1024,
          "midi": 66,
          "name": "F#4",
          "ticks": 112128,
          "time": 41.0625,
          "velocity": 1
        },
        {
          "duration": 0.5625,
          "durationTicks": 1536,
          "midi": 64,
          "name": "E4",
          "ticks": 113152,
          "time": 41.4375,
          "velocity": 1
        },
        {
          "duration": 0.1875,
          "durationTicks": 512,
          "midi": 68,
          "name": "G#4",
          "ticks": 116736,
          "time": 42.75,
          "velocity": 1
        },
        {
          "duration": 0.1875,
          "durationTicks": 512,
          "midi": 68,
          "name": "G#4",
          "ticks": 117248,
          "time": 42.9375,
          "velocity": 1
        },
        {
          "duration": 0.1875,
          "durationTicks": 512,
          "midi": 68,
          "name": "G#4",
          "ticks": 117760,
          "time": 43.125,
          "velocity": 1
        },
        {
          "duration": 0.375,
          "durationTicks": 1024,
          "midi": 66,
          "name": "F#4",
          "ticks": 118272,
          "time": 43.3125,
          "velocity": 1
        },
        {
          "duration": 0.375,
          "durationTicks": 1024,
          "midi": 64,
          "name": "E4",
          "ticks": 119296,
          "time": 43.6875,
          "velocity": 1
        },
        {
          "duration": 0.1875,
          "durationTicks": 512,
          "midi": 64,
          "name": "E4",
          "ticks": 120320,
          "time": 44.0625,
          "velocity": 1
        },
        {
          "duration": 0.1875,
          "durationTicks": 512,
          "midi": 63,
          "name": "D#4",
          "ticks": 120832,
          "time": 44.25,
          "velocity": 1
        },
        {
          "duration": 0.1875,
          "durationTicks": 512,
          "midi": 64,
          "name": "E4",
          "ticks": 121344,
          "time": 44.4375,
          "velocity": 1
        },
        {
          "duration": 0.1875,
          "durationTicks": 512,
          "midi": 64,
          "name": "E4",
          "ticks": 121856,
          "time": 44.625,
          "velocity": 1
        },
        {
          "duration": 0.1875,
          "durationTicks": 512,
          "midi": 64,
          "name": "E4",
          "ticks": 122368,
          "time": 44.8125,
          "velocity": 1
        },
        {
          "duration": 0.1875,
          "durationTicks": 512,
          "midi": 63,
          "name": "D#4",
          "ticks": 122880,
          "time": 45,
          "velocity": 1
        },
        {
          "duration": 0.375,
          "durationTicks": 1024,
          "midi": 64,
          "name": "E4",
          "ticks": 123392,
          "time": 45.1875,
          "velocity": 1
        },
        {
          "duration": 0.1875,
          "durationTicks": 512,
          "midi": 59,
          "name": "B3",
          "ticks": 124416,
          "time": 45.5625,
          "velocity": 1
        },
        {
          "duration": 0.1875,
          "durationTicks": 512,
          "midi": 64,
          "name": "E4",
          "ticks": 124928,
          "time": 45.75,
          "velocity": 1
        },
        {
          "duration": 0.1875,
          "durationTicks": 512,
          "midi": 68,
          "name": "G#4",
          "ticks": 124928,
          "time": 45.75,
          "velocity": 1
        },
        {
          "duration": 0.1875,
          "durationTicks": 512,
          "midi": 64,
          "name": "E4",
          "ticks": 125440,
          "time": 45.9375,
          "velocity": 1
        },
        {
          "duration": 0.1875,
          "durationTicks": 512,
          "midi": 68,
          "name": "G#4",
          "ticks": 125440,
          "time": 45.9375,
          "velocity": 1
        },
        {
          "duration": 0.1875,
          "durationTicks": 512,
          "midi": 64,
          "name": "E4",
          "ticks": 125952,
          "time": 46.125,
          "velocity": 1
        },
        {
          "duration": 0.1875,
          "durationTicks": 512,
          "midi": 69,
          "name": "A4",
          "ticks": 125952,
          "time": 46.125,
          "velocity": 1
        },
        {
          "duration": 0.375,
          "durationTicks": 1024,
          "midi": 64,
          "name": "E4",
          "ticks": 126464,
          "time": 46.3125,
          "velocity": 1
        },
        {
          "duration": 0.375,
          "durationTicks": 1024,
          "midi": 68,
          "name": "G#4",
          "ticks": 126464,
          "time": 46.3125,
          "velocity": 1
        }
      ],
      "endOfTrackTicks": 134657
    },
    {
      "channel": 9,
      "controlChanges": {
        "7": [
          {
            "number": 7,
            "ticks": 0,
            "time": 0,
            "value": 0.7952755905511811
          }
        ],
        "10": [
          {
            "number": 10,
            "ticks": 0,
            "time": 0,
            "value": 0.5039370078740157
          },
          {
            "number": 10,
            "ticks": 0,
            "time": 0,
            "value": 0.5039370078740157
          }
        ]
      },
      "pitchBends": [],
      "instrument": {
        "family": "drums",
        "number": 0,
        "name": "standard kit"
      },
      "name": "Standard Kit",
      "notes": [
        {
          "duration": 0.75,
          "durationTicks": 2048,
          "midi": 35,
          "name": "B1",
          "ticks": 0,
          "time": 0,
          "velocity": 0.7559055118110236
        },
        {
          "duration": 0.375,
          "durationTicks": 1024,
          "midi": 42,
          "name": "F#2",
          "ticks": 0,
          "time": 0,
          "velocity": 0.7559055118110236
        },
        {
          "duration": 0.1875,
          "durationTicks": 512,
          "midi": 49,
          "name": "C#3",
          "ticks": 0,
          "time": 0,
          "velocity": 0.7559055118110236
        },
        {
          "duration": 0.375,
          "durationTicks": 1024,
          "midi": 46,
          "name": "A#2",
          "ticks": 512,
          "time": 0.1875,
          "velocity": 0.7559055118110236
        },
        {
          "duration": 0.75,
          "durationTicks": 2048,
          "midi": 40,
          "name": "E2",
          "ticks": 1024,
          "time": 0.375,
          "velocity": 0.7559055118110236
        },
        {
          "duration": 0.375,
          "durationTicks": 1024,
          "midi": 42,
          "name": "F#2",
          "ticks": 1024,
          "time": 0.375,
          "velocity": 0.7559055118110236
        },
        {
          "duration": 0.375,
          "durationTicks": 1024,
          "midi": 46,
          "name": "A#2",
          "ticks": 1536,
          "time": 0.5625,
          "velocity": 0.7559055118110236
        },
        {
          "duration": 0.75,
          "durationTicks": 2048,
          "midi": 35,
          "name": "B1",
          "ticks": 2048,
          "time": 0.75,
          "velocity": 0.7559055118110236
        },
        {
          "duration": 0.375,
          "durationTicks": 1024,
          "midi": 42,
          "name": "F#2",
          "ticks": 2048,
          "time": 0.75,
          "velocity": 0.7559055118110236
        },
        {
          "duration": 0.375,
          "durationTicks": 1024,
          "midi": 46,
          "name": "A#2",
          "ticks": 2560,
          "time": 0.9375,
          "velocity": 0.7559055118110236
        },
        {
          "duration": 0.375,
          "durationTicks": 1024,
          "midi": 40,
          "name": "E2",
          "ticks": 3072,
          "time": 1.125,
          "velocity": 0.7559055118110236
        },
        {
          "duration": 0.375,
          "durationTicks": 1024,
          "midi": 42,
          "name": "F#2",
          "ticks": 3072,
          "time": 1.125,
          "velocity": 0.7559055118110236
        },
        {
          "duration": 0.375,
          "durationTicks": 1024,
          "midi": 46,
          "name": "A#2",
          "ticks": 3584,
          "time": 1.3125,
          "velocity": 0.7559055118110236
        },
        {
          "duration": 0.75,
          "durationTicks": 2048,
          "midi": 35,
          "name": "B1",
          "ticks": 4096,
          "time": 1.5,
          "velocity": 0.7559055118110236
        },
        {
          "duration": 0.375,
          "durationTicks": 1024,
          "midi": 40,
          "name": "E2",
          "ticks": 4096,
          "time": 1.5,
          "velocity": 0.7559055118110236
        },
        {
          "duration": 0.375,
          "durationTicks": 1024,
          "midi": 42,
          "name": "F#2",
          "ticks": 4096,
          "time": 1.5,
          "velocity": 0.7559055118110236
        },
        {
          "duration": 0.375,
          "durationTicks": 1024,
          "midi": 46,
          "name": "A#2",
          "ticks": 4608,
          "time": 1.6875,
          "velocity": 0.7559055118110236
        },
        {
          "duration": 0.75,
          "durationTicks": 2048,
          "midi": 40,
          "name": "E2",
          "ticks": 5120,
          "time": 1.875,
          "velocity": 0.7559055118110236
        },
        {
          "duration": 0.375,
          "durationTicks": 1024,
          "midi": 42,
          "name": "F#2",
          "ticks": 5120,
          "time": 1.875,
          "velocity": 0.7559055118110236
        },
        {
          "duration": 0.375,
          "durationTicks": 1024,
          "midi": 46,
          "name": "A#2",
          "ticks": 5632,
          "time": 2.0625,
          "velocity": 0.7559055118110236
        },
        {
          "duration": 0.75,
          "durationTicks": 2048,
          "midi": 35,
          "name": "B1",
          "ticks": 6144,
          "time": 2.25,
          "velocity": 0.7559055118110236
        },
        {
          "duration": 0.375,
          "durationTicks": 1024,
          "midi": 42,
          "name": "F#2",
          "ticks": 6144,
          "time": 2.25,
          "velocity": 0.7559055118110236
        },
        {
          "duration": 0.375,
          "durationTicks": 1024,
          "midi": 46,
          "name": "A#2",
          "ticks": 6656,
          "time": 2.4375,
          "velocity": 0.7559055118110236
        },
        {
          "duration": 0.375,
          "durationTicks": 1024,
          "midi": 40,
          "name": "E2",
          "ticks": 7168,
          "time": 2.625,
          "velocity": 0.7559055118110236
        },
        {
          "duration": 0.375,
          "durationTicks": 1024,
          "midi": 42,
          "name": "F#2",
          "ticks": 7168,
          "time": 2.625,
          "velocity": 0.7559055118110236
        },
        {
          "duration": 0.375,
          "durationTicks": 1024,
          "midi": 46,
          "name": "A#2",
          "ticks": 7680,
          "time": 2.8125,
          "velocity": 0.7559055118110236
        },
        {
          "duration": 0.75,
          "durationTicks": 2048,
          "midi": 35,
          "name": "B1",
          "ticks": 8192,
          "time": 3,
          "velocity": 0.7559055118110236
        },
        {
          "duration": 0.375,
          "durationTicks": 1024,
          "midi": 40,
          "name": "E2",
          "ticks": 8192,
          "time": 3,
          "velocity": 0.7559055118110236
        },
        {
          "duration": 0.375,
          "durationTicks": 1024,
          "midi": 42,
          "name": "F#2",
          "ticks": 8192,
          "time": 3,
          "velocity": 0.7559055118110236
        },
        {
          "duration": 0.375,
          "durationTicks": 1024,
          "midi": 46,
          "name": "A#2",
          "ticks": 8704,
          "time": 3.1875,
          "velocity": 0.7559055118110236
        },
        {
          "duration": 0.75,
          "durationTicks": 2048,
          "midi": 40,
          "name": "E2",
          "ticks": 9216,
          "time": 3.375,
          "velocity": 0.7559055118110236
        },
        {
          "duration": 0.375,
          "durationTicks": 1024,
          "midi": 42,
          "name": "F#2",
          "ticks": 9216,
          "time": 3.375,
          "velocity": 0.7559055118110236
        },
        {
          "duration": 0.375,
          "durationTicks": 1024,
          "midi": 46,
          "name": "A#2",
          "ticks": 9728,
          "time": 3.5625,
          "velocity": 0.7559055118110236
        },
        {
          "duration": 0.75,
          "durationTicks": 2048,
          "midi": 35,
          "name": "B1",
          "ticks": 10240,
          "time": 3.75,
          "velocity": 0.7559055118110236
        },
        {
          "duration": 0.375,
          "durationTicks": 1024,
          "midi": 42,
          "name": "F#2",
          "ticks": 10240,
          "time": 3.75,
          "velocity": 0.7559055118110236
        },
        {
          "duration": 0.375,
          "durationTicks": 1024,
          "midi": 46,
          "name": "A#2",
          "ticks": 10752,
          "time": 3.9375,
          "velocity": 0.7559055118110236
        },
        {
          "duration": 0.375,
          "durationTicks": 1024,
          "midi": 40,
          "name": "E2",
          "ticks": 11264,
          "time": 4.125,
          "velocity": 0.7559055118110236
        },
        {
          "duration": 0.375,
          "durationTicks": 1024,
          "midi": 42,
          "name": "F#2",
          "ticks": 11264,
          "time": 4.125,
          "velocity": 0.7559055118110236
        },
        {
          "duration": 0.375,
          "durationTicks": 1024,
          "midi": 46,
          "name": "A#2",
          "ticks": 11776,
          "time": 4.3125,
          "velocity": 0.7559055118110236
        },
        {
          "duration": 0.75,
          "durationTicks": 2048,
          "midi": 35,
          "name": "B1",
          "ticks": 12288,
          "time": 4.5,
          "velocity": 0.7559055118110236
        },
        {
          "duration": 0.375,
          "durationTicks": 1024,
          "midi": 40,
          "name": "E2",
          "ticks": 12288,
          "time": 4.5,
          "velocity": 0.7559055118110236
        },
        {
          "duration": 0.375,
          "durationTicks": 1024,
          "midi": 42,
          "name": "F#2",
          "ticks": 12288,
          "time": 4.5,
          "velocity": 0.7559055118110236
        },
        {
          "duration": 0.375,
          "durationTicks": 1024,
          "midi": 46,
          "name": "A#2",
          "ticks": 12800,
          "time": 4.6875,
          "velocity": 0.7559055118110236
        },
        {
          "duration": 0.75,
          "durationTicks": 2048,
          "midi": 40,
          "name": "E2",
          "ticks": 13312,
          "time": 4.875,
          "velocity": 0.7559055118110236
        },
        {
          "duration": 0.375,
          "durationTicks": 1024,
          "midi": 42,
          "name": "F#2",
          "ticks": 13312,
          "time": 4.875,
          "velocity": 0.7559055118110236
        },
        {
          "duration": 0.375,
          "durationTicks": 1024,
          "midi": 46,
          "name": "A#2",
          "ticks": 13824,
          "time": 5.0625,
          "velocity": 0.7559055118110236
        },
        {
          "duration": 0.75,
          "durationTicks": 2048,
          "midi": 35,
          "name": "B1",
          "ticks": 14336,
          "time": 5.25,
          "velocity": 0.7559055118110236
        },
        {
          "duration": 0.375,
          "durationTicks": 1024,
          "midi": 42,
          "name": "F#2",
          "ticks": 14336,
          "time": 5.25,
          "velocity": 0.7559055118110236
        },
        {
          "duration": 0.375,
          "durationTicks": 1024,
          "midi": 46,
          "name": "A#2",
          "ticks": 14848,
          "time": 5.4375,
          "velocity": 0.7559055118110236
        },
        {
          "duration": 0.375,
          "durationTicks": 1024,
          "midi": 40,
          "name": "E2",
          "ticks": 15360,
          "time": 5.625,
          "velocity": 0.7559055118110236
        },
        {
          "duration": 0.375,
          "durationTicks": 1024,
          "midi": 42,
          "name": "F#2",
          "ticks": 15360,
          "time": 5.625,
          "velocity": 0.7559055118110236
        },
        {
          "duration": 0.1875,
          "durationTicks": 512,
          "midi": 46,
          "name": "A#2",
          "ticks": 15872,
          "time": 5.8125,
          "velocity": 0.7559055118110236
        },
        {
          "duration": 0.75,
          "durationTicks": 2048,
          "midi": 35,
          "name": "B1",
          "ticks": 16384,
          "time": 6,
          "velocity": 0.7559055118110236
        },
        {
          "duration": 0.375,
          "durationTicks": 1024,
          "midi": 40,
          "name": "E2",
          "ticks": 16384,
          "time": 6,
          "velocity": 0.7559055118110236
        },
        {
          "duration": 0.375,
          "durationTicks": 1024,
          "midi": 42,
          "name": "F#2",
          "ticks": 16384,
          "time": 6,
          "velocity": 0.7559055118110236
        },
        {
          "duration": 0.1875,
          "durationTicks": 512,
          "midi": 49,
          "name": "C#3",
          "ticks": 16384,
          "time": 6,
          "velocity": 0.7559055118110236
        },
        {
          "duration": 0.375,
          "durationTicks": 1024,
          "midi": 46,
          "name": "A#2",
          "ticks": 16896,
          "time": 6.1875,
          "velocity": 0.7559055118110236
        },
        {
          "duration": 0.75,
          "durationTicks": 2048,
          "midi": 40,
          "name": "E2",
          "ticks": 17408,
          "time": 6.375,
          "velocity": 0.7559055118110236
        },
        {
          "duration": 0.375,
          "durationTicks": 1024,
          "midi": 42,
          "name": "F#2",
          "ticks": 17408,
          "time": 6.375,
          "velocity": 0.7559055118110236
        },
        {
          "duration": 0.375,
          "durationTicks": 1024,
          "midi": 46,
          "name": "A#2",
          "ticks": 17920,
          "time": 6.5625,
          "velocity": 0.7559055118110236
        },
        {
          "duration": 0.75,
          "durationTicks": 2048,
          "midi": 35,
          "name": "B1",
          "ticks": 18432,
          "time": 6.75,
          "velocity": 0.7559055118110236
        },
        {
          "duration": 0.375,
          "durationTicks": 1024,
          "midi": 42,
          "name": "F#2",
          "ticks": 18432,
          "time": 6.75,
          "velocity": 0.7559055118110236
        },
        {
          "duration": 0.375,
          "durationTicks": 1024,
          "midi": 46,
          "name": "A#2",
          "ticks": 18944,
          "time": 6.9375,
          "velocity": 0.7559055118110236
        },
        {
          "duration": 0.375,
          "durationTicks": 1024,
          "midi": 40,
          "name": "E2",
          "ticks": 19456,
          "time": 7.125,
          "velocity": 0.7559055118110236
        },
        {
          "duration": 0.375,
          "durationTicks": 1024,
          "midi": 42,
          "name": "F#2",
          "ticks": 19456,
          "time": 7.125,
          "velocity": 0.7559055118110236
        },
        {
          "duration": 0.375,
          "durationTicks": 1024,
          "midi": 46,
          "name": "A#2",
          "ticks": 19968,
          "time": 7.3125,
          "velocity": 0.7559055118110236
        },
        {
          "duration": 0.75,
          "durationTicks": 2048,
          "midi": 35,
          "name": "B1",
          "ticks": 20480,
          "time": 7.5,
          "velocity": 0.7559055118110236
        },
        {
          "duration": 0.375,
          "durationTicks": 1024,
          "midi": 40,
          "name": "E2",
          "ticks": 20480,
          "time": 7.5,
          "velocity": 0.7559055118110236
        },
        {
          "duration": 0.375,
          "durationTicks": 1024,
          "midi": 42,
          "name": "F#2",
          "ticks": 20480,
          "time": 7.5,
          "velocity": 0.7559055118110236
        },
        {
          "duration": 0.375,
          "durationTicks": 1024,
          "midi": 46,
          "name": "A#2",
          "ticks": 20992,
          "time": 7.6875,
          "velocity": 0.7559055118110236
        },
        {
          "duration": 0.75,
          "durationTicks": 2048,
          "midi": 40,
          "name": "E2",
          "ticks": 21504,
          "time": 7.875,
          "velocity": 0.7559055118110236
        },
        {
          "duration": 0.375,
          "durationTicks": 1024,
          "midi": 42,
          "name": "F#2",
          "ticks": 21504,
          "time": 7.875,
          "velocity": 0.7559055118110236
        },
        {
          "duration": 0.375,
          "durationTicks": 1024,
          "midi": 46,
          "name": "A#2",
          "ticks": 22016,
          "time": 8.0625,
          "velocity": 0.7559055118110236
        },
        {
          "duration": 0.75,
          "durationTicks": 2048,
          "midi": 35,
          "name": "B1",
          "ticks": 22528,
          "time": 8.25,
          "velocity": 0.7559055118110236
        },
        {
          "duration": 0.375,
          "durationTicks": 1024,
          "midi": 42,
          "name": "F#2",
          "ticks": 22528,
          "time": 8.25,
          "velocity": 0.7559055118110236
        },
        {
          "duration": 0.375,
          "durationTicks": 1024,
          "midi": 46,
          "name": "A#2",
          "ticks": 23040,
          "time": 8.4375,
          "velocity": 0.7559055118110236
        },
        {
          "duration": 0.375,
          "durationTicks": 1024,
          "midi": 40,
          "name": "E2",
          "ticks": 23552,
          "time": 8.625,
          "velocity": 0.7559055118110236
        },
        {
          "duration": 0.375,
          "durationTicks": 1024,
          "midi": 42,
          "name": "F#2",
          "ticks": 23552,
          "time": 8.625,
          "velocity": 0.7559055118110236
        },
        {
          "duration": 0.375,
          "durationTicks": 1024,
          "midi": 46,
          "name": "A#2",
          "ticks": 24064,
          "time": 8.8125,
          "velocity": 0.7559055118110236
        },
        {
          "duration": 0.75,
          "durationTicks": 2048,
          "midi": 35,
          "name": "B1",
          "ticks": 24576,
          "time": 9,
          "velocity": 0.7559055118110236
        },
        {
          "duration": 0.375,
          "durationTicks": 1024,
          "midi": 40,
          "name": "E2",
          "ticks": 24576,
          "time": 9,
          "velocity": 0.7559055118110236
        },
        {
          "duration": 0.375,
          "durationTicks": 1024,
          "midi": 42,
          "name": "F#2",
          "ticks": 24576,
          "time": 9,
          "velocity": 0.7559055118110236
        },
        {
          "duration": 0.375,
          "durationTicks": 1024,
          "midi": 46,
          "name": "A#2",
          "ticks": 25088,
          "time": 9.1875,
          "velocity": 0.7559055118110236
        },
        {
          "duration": 0.75,
          "durationTicks": 2048,
          "midi": 40,
          "name": "E2",
          "ticks": 25600,
          "time": 9.375,
          "velocity": 0.7559055118110236
        },
        {
          "duration": 0.375,
          "durationTicks": 1024,
          "midi": 42,
          "name": "F#2",
          "ticks": 25600,
          "time": 9.375,
          "velocity": 0.7559055118110236
        },
        {
          "duration": 0.375,
          "durationTicks": 1024,
          "midi": 46,
          "name": "A#2",
          "ticks": 26112,
          "time": 9.5625,
          "velocity": 0.7559055118110236
        },
        {
          "duration": 0.75,
          "durationTicks": 2048,
          "midi": 35,
          "name": "B1",
          "ticks": 26624,
          "time": 9.75,
          "velocity": 0.7559055118110236
        },
        {
          "duration": 0.375,
          "durationTicks": 1024,
          "midi": 42,
          "name": "F#2",
          "ticks": 26624,
          "time": 9.75,
          "velocity": 0.7559055118110236
        },
        {
          "duration": 0.375,
          "durationTicks": 1024,
          "midi": 46,
          "name": "A#2",
          "ticks": 27136,
          "time": 9.9375,
          "velocity": 0.7559055118110236
        },
        {
          "duration": 0.375,
          "durationTicks": 1024,
          "midi": 40,
          "name": "E2",
          "ticks": 27648,
          "time": 10.125,
          "velocity": 0.7559055118110236
        },
        {
          "duration": 0.375,
          "durationTicks": 1024,
          "midi": 42,
          "name": "F#2",
          "ticks": 27648,
          "time": 10.125,
          "velocity": 0.7559055118110236
        },
        {
          "duration": 0.375,
          "durationTicks": 1024,
          "midi": 46,
          "name": "A#2",
          "ticks": 28160,
          "time": 10.3125,
          "velocity": 0.7559055118110236
        },
        {
          "duration": 0.75,
          "durationTicks": 2048,
          "midi": 35,
          "name": "B1",
          "ticks": 28672,
          "time": 10.5,
          "velocity": 0.7559055118110236
        },
        {
          "duration": 0.375,
          "durationTicks": 1024,
          "midi": 40,
          "name": "E2",
          "ticks": 28672,
          "time": 10.5,
          "velocity": 0.7559055118110236
        },
        {
          "duration": 0.375,
          "durationTicks": 1024,
          "midi": 42,
          "name": "F#2",
          "ticks": 28672,
          "time": 10.5,
          "velocity": 0.7559055118110236
        },
        {
          "duration": 0.375,
          "durationTicks": 1024,
          "midi": 46,
          "name": "A#2",
          "ticks": 29184,
          "time": 10.6875,
          "velocity": 0.7559055118110236
        },
        {
          "duration": 0.75,
          "durationTicks": 2048,
          "midi": 40,
          "name": "E2",
          "ticks": 29696,
          "time": 10.875,
          "velocity": 0.7559055118110236
        },
        {
          "duration": 0.375,
          "durationTicks": 1024,
          "midi": 42,
          "name": "F#2",
          "ticks": 29696,
          "time": 10.875,
          "velocity": 0.7559055118110236
        },
        {
          "duration": 0.375,
          "durationTicks": 1024,
          "midi": 46,
          "name": "A#2",
          "ticks": 30208,
          "time": 11.0625,
          "velocity": 0.7559055118110236
        },
        {
          "duration": 0.75,
          "durationTicks": 2048,
          "midi": 35,
          "name": "B1",
          "ticks": 30720,
          "time": 11.25,
          "velocity": 0.7559055118110236
        },
        {
          "duration": 0.375,
          "durationTicks": 1024,
          "midi": 42,
          "name": "F#2",
          "ticks": 30720,
          "time": 11.25,
          "velocity": 0.7559055118110236
        },
        {
          "duration": 0.375,
          "durationTicks": 1024,
          "midi": 46,
          "name": "A#2",
          "ticks": 31232,
          "time": 11.4375,
          "velocity": 0.7559055118110236
        },
        {
          "duration": 0.375,
          "durationTicks": 1024,
          "midi": 40,
          "name": "E2",
          "ticks": 31744,
          "time": 11.625,
          "velocity": 0.7559055118110236
        },
        {
          "duration": 0.375,
          "durationTicks": 1024,
          "midi": 42,
          "name": "F#2",
          "ticks": 31744,
          "time": 11.625,
          "velocity": 0.7559055118110236
        },
        {
          "duration": 0.1875,
          "durationTicks": 512,
          "midi": 46,
          "name": "A#2",
          "ticks": 32256,
          "time": 11.8125,
          "velocity": 0.7559055118110236
        },
        {
          "duration": 0.75,
          "durationTicks": 2048,
          "midi": 35,
          "name": "B1",
          "ticks": 32768,
          "time": 12,
          "velocity": 0.7559055118110236
        },
        {
          "duration": 0.375,
          "durationTicks": 1024,
          "midi": 40,
          "name": "E2",
          "ticks": 32768,
          "time": 12,
          "velocity": 0.7559055118110236
        },
        {
          "duration": 0.375,
          "durationTicks": 1024,
          "midi": 42,
          "name": "F#2",
          "ticks": 32768,
          "time": 12,
          "velocity": 0.7559055118110236
        },
        {
          "duration": 0.1875,
          "durationTicks": 512,
          "midi": 49,
          "name": "C#3",
          "ticks": 32768,
          "time": 12,
          "velocity": 0.7559055118110236
        },
        {
          "duration": 0.375,
          "durationTicks": 1024,
          "midi": 46,
          "name": "A#2",
          "ticks": 33280,
          "time": 12.1875,
          "velocity": 0.7559055118110236
        },
        {
          "duration": 0.75,
          "durationTicks": 2048,
          "midi": 40,
          "name": "E2",
          "ticks": 33792,
          "time": 12.375,
          "velocity": 0.7559055118110236
        },
        {
          "duration": 0.375,
          "durationTicks": 1024,
          "midi": 42,
          "name": "F#2",
          "ticks": 33792,
          "time": 12.375,
          "velocity": 0.7559055118110236
        },
        {
          "duration": 0.375,
          "durationTicks": 1024,
          "midi": 46,
          "name": "A#2",
          "ticks": 34304,
          "time": 12.5625,
          "velocity": 0.7559055118110236
        },
        {
          "duration": 0.75,
          "durationTicks": 2048,
          "midi": 35,
          "name": "B1",
          "ticks": 34816,
          "time": 12.75,
          "velocity": 0.7559055118110236
        },
        {
          "duration": 0.375,
          "durationTicks": 1024,
          "midi": 42,
          "name": "F#2",
          "ticks": 34816,
          "time": 12.75,
          "velocity": 0.7559055118110236
        },
        {
          "duration": 0.375,
          "durationTicks": 1024,
          "midi": 46,
          "name": "A#2",
          "ticks": 35328,
          "time": 12.9375,
          "velocity": 0.7559055118110236
        },
        {
          "duration": 0.375,
          "durationTicks": 1024,
          "midi": 40,
          "name": "E2",
          "ticks": 35840,
          "time": 13.125,
          "velocity": 0.7559055118110236
        },
        {
          "duration": 0.375,
          "durationTicks": 1024,
          "midi": 42,
          "name": "F#2",
          "ticks": 35840,
          "time": 13.125,
          "velocity": 0.7559055118110236
        },
        {
          "duration": 0.375,
          "durationTicks": 1024,
          "midi": 46,
          "name": "A#2",
          "ticks": 36352,
          "time": 13.3125,
          "velocity": 0.7559055118110236
        },
        {
          "duration": 0.75,
          "durationTicks": 2048,
          "midi": 35,
          "name": "B1",
          "ticks": 36864,
          "time": 13.5,
          "velocity": 0.7559055118110236
        },
        {
          "duration": 0.375,
          "durationTicks": 1024,
          "midi": 40,
          "name": "E2",
          "ticks": 36864,
          "time": 13.5,
          "velocity": 0.7559055118110236
        },
        {
          "duration": 0.375,
          "durationTicks": 1024,
          "midi": 42,
          "name": "F#2",
          "ticks": 36864,
          "time": 13.5,
          "velocity": 0.7559055118110236
        },
        {
          "duration": 0.375,
          "durationTicks": 1024,
          "midi": 46,
          "name": "A#2",
          "ticks": 37376,
          "time": 13.6875,
          "velocity": 0.7559055118110236
        },
        {
          "duration": 0.75,
          "durationTicks": 2048,
          "midi": 40,
          "name": "E2",
          "ticks": 37888,
          "time": 13.875,
          "velocity": 0.7559055118110236
        },
        {
          "duration": 0.375,
          "durationTicks": 1024,
          "midi": 42,
          "name": "F#2",
          "ticks": 37888,
          "time": 13.875,
          "velocity": 0.7559055118110236
        },
        {
          "duration": 0.375,
          "durationTicks": 1024,
          "midi": 46,
          "name": "A#2",
          "ticks": 38400,
          "time": 14.0625,
          "velocity": 0.7559055118110236
        },
        {
          "duration": 0.75,
          "durationTicks": 2048,
          "midi": 35,
          "name": "B1",
          "ticks": 38912,
          "time": 14.25,
          "velocity": 0.7559055118110236
        },
        {
          "duration": 0.375,
          "durationTicks": 1024,
          "midi": 42,
          "name": "F#2",
          "ticks": 38912,
          "time": 14.25,
          "velocity": 0.7559055118110236
        },
        {
          "duration": 0.375,
          "durationTicks": 1024,
          "midi": 46,
          "name": "A#2",
          "ticks": 39424,
          "time": 14.4375,
          "velocity": 0.7559055118110236
        },
        {
          "duration": 0.375,
          "durationTicks": 1024,
          "midi": 40,
          "name": "E2",
          "ticks": 39936,
          "time": 14.625,
          "velocity": 0.7559055118110236
        },
        {
          "duration": 0.375,
          "durationTicks": 1024,
          "midi": 42,
          "name": "F#2",
          "ticks": 39936,
          "time": 14.625,
          "velocity": 0.7559055118110236
        },
        {
          "duration": 0.375,
          "durationTicks": 1024,
          "midi": 46,
          "name": "A#2",
          "ticks": 40448,
          "time": 14.8125,
          "velocity": 0.7559055118110236
        },
        {
          "duration": 0.75,
          "durationTicks": 2048,
          "midi": 35,
          "name": "B1",
          "ticks": 40960,
          "time": 15,
          "velocity": 0.7559055118110236
        },
        {
          "duration": 0.375,
          "durationTicks": 1024,
          "midi": 40,
          "name": "E2",
          "ticks": 40960,
          "time": 15,
          "velocity": 0.7559055118110236
        },
        {
          "duration": 0.375,
          "durationTicks": 1024,
          "midi": 42,
          "name": "F#2",
          "ticks": 40960,
          "time": 15,
          "velocity": 0.7559055118110236
        },
        {
          "duration": 0.375,
          "durationTicks": 1024,
          "midi": 46,
          "name": "A#2",
          "ticks": 41472,
          "time": 15.1875,
          "velocity": 0.7559055118110236
        },
        {
          "duration": 0.75,
          "durationTicks": 2048,
          "midi": 40,
          "name": "E2",
          "ticks": 41984,
          "time": 15.375,
          "velocity": 0.7559055118110236
        },
        {
          "duration": 0.375,
          "durationTicks": 1024,
          "midi": 42,
          "name": "F#2",
          "ticks": 41984,
          "time": 15.375,
          "velocity": 0.7559055118110236
        },
        {
          "duration": 0.375,
          "durationTicks": 1024,
          "midi": 46,
          "name": "A#2",
          "ticks": 42496,
          "time": 15.5625,
          "velocity": 0.7559055118110236
        },
        {
          "duration": 0.75,
          "durationTicks": 2048,
          "midi": 35,
          "name": "B1",
          "ticks": 43008,
          "time": 15.75,
          "velocity": 0.7559055118110236
        },
        {
          "duration": 0.375,
          "durationTicks": 1024,
          "midi": 42,
          "name": "F#2",
          "ticks": 43008,
          "time": 15.75,
          "velocity": 0.7559055118110236
        },
        {
          "duration": 0.375,
          "durationTicks": 1024,
          "midi": 46,
          "name": "A#2",
          "ticks": 43520,
          "time": 15.9375,
          "velocity": 0.7559055118110236
        },
        {
          "duration": 0.375,
          "durationTicks": 1024,
          "midi": 40,
          "name": "E2",
          "ticks": 44032,
          "time": 16.125,
          "velocity": 0.7559055118110236
        },
        {
          "duration": 0.375,
          "durationTicks": 1024,
          "midi": 42,
          "name": "F#2",
          "ticks": 44032,
          "time": 16.125,
          "velocity": 0.7559055118110236
        },
        {
          "duration": 0.375,
          "durationTicks": 1024,
          "midi": 46,
          "name": "A#2",
          "ticks": 44544,
          "time": 16.3125,
          "velocity": 0.7559055118110236
        },
        {
          "duration": 0.75,
          "durationTicks": 2048,
          "midi": 35,
          "name": "B1",
          "ticks": 45056,
          "time": 16.5,
          "velocity": 0.7559055118110236
        },
        {
          "duration": 0.375,
          "durationTicks": 1024,
          "midi": 40,
          "name": "E2",
          "ticks": 45056,
          "time": 16.5,
          "velocity": 0.7559055118110236
        },
        {
          "duration": 0.375,
          "durationTicks": 1024,
          "midi": 42,
          "name": "F#2",
          "ticks": 45056,
          "time": 16.5,
          "velocity": 0.7559055118110236
        },
        {
          "duration": 0.375,
          "durationTicks": 1024,
          "midi": 46,
          "name": "A#2",
          "ticks": 45568,
          "time": 16.6875,
          "velocity": 0.7559055118110236
        },
        {
          "duration": 0.75,
          "durationTicks": 2048,
          "midi": 40,
          "name": "E2",
          "ticks": 46080,
          "time": 16.875,
          "velocity": 0.7559055118110236
        },
        {
          "duration": 0.375,
          "durationTicks": 1024,
          "midi": 42,
          "name": "F#2",
          "ticks": 46080,
          "time": 16.875,
          "velocity": 0.7559055118110236
        },
        {
          "duration": 0.375,
          "durationTicks": 1024,
          "midi": 46,
          "name": "A#2",
          "ticks": 46592,
          "time": 17.0625,
          "velocity": 0.7559055118110236
        },
        {
          "duration": 0.75,
          "durationTicks": 2048,
          "midi": 35,
          "name": "B1",
          "ticks": 47104,
          "time": 17.25,
          "velocity": 0.7559055118110236
        },
        {
          "duration": 0.375,
          "durationTicks": 1024,
          "midi": 42,
          "name": "F#2",
          "ticks": 47104,
          "time": 17.25,
          "velocity": 0.7559055118110236
        },
        {
          "duration": 0.375,
          "durationTicks": 1024,
          "midi": 46,
          "name": "A#2",
          "ticks": 47616,
          "time": 17.4375,
          "velocity": 0.7559055118110236
        },
        {
          "duration": 0.375,
          "durationTicks": 1024,
          "midi": 40,
          "name": "E2",
          "ticks": 48128,
          "time": 17.625,
          "velocity": 0.7559055118110236
        },
        {
          "duration": 0.375,
          "durationTicks": 1024,
          "midi": 42,
          "name": "F#2",
          "ticks": 48128,
          "time": 17.625,
          "velocity": 0.7559055118110236
        },
        {
          "duration": 0.1875,
          "durationTicks": 512,
          "midi": 46,
          "name": "A#2",
          "ticks": 48640,
          "time": 17.8125,
          "velocity": 0.7559055118110236
        },
        {
          "duration": 0.75,
          "durationTicks": 2048,
          "midi": 35,
          "name": "B1",
          "ticks": 49152,
          "time": 18,
          "velocity": 0.7559055118110236
        },
        {
          "duration": 0.375,
          "durationTicks": 1024,
          "midi": 40,
          "name": "E2",
          "ticks": 49152,
          "time": 18,
          "velocity": 0.7559055118110236
        },
        {
          "duration": 0.375,
          "durationTicks": 1024,
          "midi": 42,
          "name": "F#2",
          "ticks": 49152,
          "time": 18,
          "velocity": 0.7559055118110236
        },
        {
          "duration": 0.1875,
          "durationTicks": 512,
          "midi": 49,
          "name": "C#3",
          "ticks": 49152,
          "time": 18,
          "velocity": 0.7559055118110236
        },
        {
          "duration": 0.375,
          "durationTicks": 1024,
          "midi": 46,
          "name": "A#2",
          "ticks": 49664,
          "time": 18.1875,
          "velocity": 0.7559055118110236
        },
        {
          "duration": 0.75,
          "durationTicks": 2048,
          "midi": 40,
          "name": "E2",
          "ticks": 50176,
          "time": 18.375,
          "velocity": 0.7559055118110236
        },
        {
          "duration": 0.375,
          "durationTicks": 1024,
          "midi": 42,
          "name": "F#2",
          "ticks": 50176,
          "time": 18.375,
          "velocity": 0.7559055118110236
        },
        {
          "duration": 0.375,
          "durationTicks": 1024,
          "midi": 46,
          "name": "A#2",
          "ticks": 50688,
          "time": 18.5625,
          "velocity": 0.7559055118110236
        },
        {
          "duration": 0.75,
          "durationTicks": 2048,
          "midi": 35,
          "name": "B1",
          "ticks": 51200,
          "time": 18.75,
          "velocity": 0.7559055118110236
        },
        {
          "duration": 0.375,
          "durationTicks": 1024,
          "midi": 42,
          "name": "F#2",
          "ticks": 51200,
          "time": 18.75,
          "velocity": 0.7559055118110236
        },
        {
          "duration": 0.375,
          "durationTicks": 1024,
          "midi": 46,
          "name": "A#2",
          "ticks": 51712,
          "time": 18.9375,
          "velocity": 0.7559055118110236
        },
        {
          "duration": 0.375,
          "durationTicks": 1024,
          "midi": 40,
          "name": "E2",
          "ticks": 52224,
          "time": 19.125,
          "velocity": 0.7559055118110236
        },
        {
          "duration": 0.375,
          "durationTicks": 1024,
          "midi": 42,
          "name": "F#2",
          "ticks": 52224,
          "time": 19.125,
          "velocity": 0.7559055118110236
        },
        {
          "duration": 0.375,
          "durationTicks": 1024,
          "midi": 46,
          "name": "A#2",
          "ticks": 52736,
          "time": 19.3125,
          "velocity": 0.7559055118110236
        },
        {
          "duration": 0.75,
          "durationTicks": 2048,
          "midi": 35,
          "name": "B1",
          "ticks": 53248,
          "time": 19.5,
          "velocity": 0.7559055118110236
        },
        {
          "duration": 0.375,
          "durationTicks": 1024,
          "midi": 40,
          "name": "E2",
          "ticks": 53248,
          "time": 19.5,
          "velocity": 0.7559055118110236
        },
        {
          "duration": 0.375,
          "durationTicks": 1024,
          "midi": 42,
          "name": "F#2",
          "ticks": 53248,
          "time": 19.5,
          "velocity": 0.7559055118110236
        },
        {
          "duration": 0.375,
          "durationTicks": 1024,
          "midi": 46,
          "name": "A#2",
          "ticks": 53760,
          "time": 19.6875,
          "velocity": 0.7559055118110236
        },
        {
          "duration": 0.75,
          "durationTicks": 2048,
          "midi": 40,
          "name": "E2",
          "ticks": 54272,
          "time": 19.875,
          "velocity": 0.7559055118110236
        },
        {
          "duration": 0.375,
          "durationTicks": 1024,
          "midi": 42,
          "name": "F#2",
          "ticks": 54272,
          "time": 19.875,
          "velocity": 0.7559055118110236
        },
        {
          "duration": 0.375,
          "durationTicks": 1024,
          "midi": 46,
          "name": "A#2",
          "ticks": 54784,
          "time": 20.0625,
          "velocity": 0.7559055118110236
        },
        {
          "duration": 0.75,
          "durationTicks": 2048,
          "midi": 35,
          "name": "B1",
          "ticks": 55296,
          "time": 20.25,
          "velocity": 0.7559055118110236
        },
        {
          "duration": 0.375,
          "durationTicks": 1024,
          "midi": 42,
          "name": "F#2",
          "ticks": 55296,
          "time": 20.25,
          "velocity": 0.7559055118110236
        },
        {
          "duration": 0.375,
          "durationTicks": 1024,
          "midi": 46,
          "name": "A#2",
          "ticks": 55808,
          "time": 20.4375,
          "velocity": 0.7559055118110236
        },
        {
          "duration": 0.375,
          "durationTicks": 1024,
          "midi": 40,
          "name": "E2",
          "ticks": 56320,
          "time": 20.625,
          "velocity": 0.7559055118110236
        },
        {
          "duration": 0.375,
          "durationTicks": 1024,
          "midi": 42,
          "name": "F#2",
          "ticks": 56320,
          "time": 20.625,
          "velocity": 0.7559055118110236
        },
        {
          "duration": 0.1875,
          "durationTicks": 512,
          "midi": 46,
          "name": "A#2",
          "ticks": 56832,
          "time": 20.8125,
          "velocity": 0.7559055118110236
        },
        {
          "duration": 0.5625,
          "durationTicks": 1536,
          "midi": 35,
          "name": "B1",
          "ticks": 57344,
          "time": 21,
          "velocity": 0.7559055118110236
        },
        {
          "duration": 0.75,
          "durationTicks": 2048,
          "midi": 40,
          "name": "E2",
          "ticks": 57344,
          "time": 21,
          "velocity": 0.7559055118110236
        },
        {
          "duration": 0.75,
          "durationTicks": 2048,
          "midi": 42,
          "name": "F#2",
          "ticks": 57344,
          "time": 21,
          "velocity": 0.7559055118110236
        },
        {
          "duration": 0.75,
          "durationTicks": 2048,
          "midi": 49,
          "name": "C#3",
          "ticks": 57344,
          "time": 21,
          "velocity": 0.7559055118110236
        },
        {
          "duration": 0.5625,
          "durationTicks": 1536,
          "midi": 35,
          "name": "B1",
          "ticks": 58880,
          "time": 21.5625,
          "velocity": 0.7559055118110236
        },
        {
          "duration": 0.5625,
          "durationTicks": 1536,
          "midi": 40,
          "name": "E2",
          "ticks": 59392,
          "time": 21.75,
          "velocity": 0.7559055118110236
        },
        {
          "duration": 0.75,
          "durationTicks": 2048,
          "midi": 42,
          "name": "F#2",
          "ticks": 59392,
          "time": 21.75,
          "velocity": 0.7559055118110236
        },
        {
          "duration": 0.5625,
          "durationTicks": 1536,
          "midi": 49,
          "name": "C#3",
          "ticks": 59392,
          "time": 21.75,
          "velocity": 0.7559055118110236
        },
        {
          "duration": 0.375,
          "durationTicks": 1024,
          "midi": 35,
          "name": "B1",
          "ticks": 60416,
          "time": 22.125,
          "velocity": 0.7559055118110236
        },
        {
          "duration": 0.9375,
          "durationTicks": 2560,
          "midi": 40,
          "name": "E2",
          "ticks": 60928,
          "time": 22.3125,
          "velocity": 0.7559055118110236
        },
        {
          "duration": 1.125,
          "durationTicks": 3072,
          "midi": 46,
          "name": "A#2",
          "ticks": 60928,
          "time": 22.3125,
          "velocity": 0.7559055118110236
        },
        {
          "duration": 0.9375,
          "durationTicks": 2560,
          "midi": 35,
          "name": "B1",
          "ticks": 61440,
          "time": 22.5,
          "velocity": 0.7559055118110236
        },
        {
          "duration": 1.125,
          "durationTicks": 3072,
          "midi": 42,
          "name": "F#2",
          "ticks": 61440,
          "time": 22.5,
          "velocity": 0.7559055118110236
        },
        {
          "duration": 0.75,
          "durationTicks": 2048,
          "midi": 40,
          "name": "E2",
          "ticks": 63488,
          "time": 23.25,
          "velocity": 0.7559055118110236
        },
        {
          "duration": 0.5625,
          "durationTicks": 1536,
          "midi": 35,
          "name": "B1",
          "ticks": 64000,
          "time": 23.4375,
          "velocity": 0.7559055118110236
        },
        {
          "duration": 0.5625,
          "durationTicks": 1536,
          "midi": 46,
          "name": "A#2",
          "ticks": 64000,
          "time": 23.4375,
          "velocity": 0.7559055118110236
        },
        {
          "duration": 0.375,
          "durationTicks": 1024,
          "midi": 44,
          "name": "G#2",
          "ticks": 64512,
          "time": 23.625,
          "velocity": 0.7559055118110236
        },
        {
          "duration": 0.75,
          "durationTicks": 2048,
          "midi": 35,
          "name": "B1",
          "ticks": 65536,
          "time": 24,
          "velocity": 0.7559055118110236
        },
        {
          "duration": 0.375,
          "durationTicks": 1024,
          "midi": 40,
          "name": "E2",
          "ticks": 65536,
          "time": 24,
          "velocity": 0.7559055118110236
        },
        {
          "duration": 0.375,
          "durationTicks": 1024,
          "midi": 42,
          "name": "F#2",
          "ticks": 65536,
          "time": 24,
          "velocity": 0.7559055118110236
        },
        {
          "duration": 0.1875,
          "durationTicks": 512,
          "midi": 49,
          "name": "C#3",
          "ticks": 65536,
          "time": 24,
          "velocity": 0.7559055118110236
        },
        {
          "duration": 0.375,
          "durationTicks": 1024,
          "midi": 46,
          "name": "A#2",
          "ticks": 66048,
          "time": 24.1875,
          "velocity": 0.7559055118110236
        },
        {
          "duration": 0.75,
          "durationTicks": 2048,
          "midi": 40,
          "name": "E2",
          "ticks": 66560,
          "time": 24.375,
          "velocity": 0.7559055118110236
        },
        {
          "duration": 0.375,
          "durationTicks": 1024,
          "midi": 42,
          "name": "F#2",
          "ticks": 66560,
          "time": 24.375,
          "velocity": 0.7559055118110236
        },
        {
          "duration": 0.375,
          "durationTicks": 1024,
          "midi": 46,
          "name": "A#2",
          "ticks": 67072,
          "time": 24.5625,
          "velocity": 0.7559055118110236
        },
        {
          "duration": 0.75,
          "durationTicks": 2048,
          "midi": 35,
          "name": "B1",
          "ticks": 67584,
          "time": 24.75,
          "velocity": 0.7559055118110236
        },
        {
          "duration": 0.375,
          "durationTicks": 1024,
          "midi": 42,
          "name": "F#2",
          "ticks": 67584,
          "time": 24.75,
          "velocity": 0.7559055118110236
        },
        {
          "duration": 0.375,
          "durationTicks": 1024,
          "midi": 46,
          "name": "A#2",
          "ticks": 68096,
          "time": 24.9375,
          "velocity": 0.7559055118110236
        },
        {
          "duration": 0.375,
          "durationTicks": 1024,
          "midi": 40,
          "name": "E2",
          "ticks": 68608,
          "time": 25.125,
          "velocity": 0.7559055118110236
        },
        {
          "duration": 0.375,
          "durationTicks": 1024,
          "midi": 42,
          "name": "F#2",
          "ticks": 68608,
          "time": 25.125,
          "velocity": 0.7559055118110236
        },
        {
          "duration": 0.375,
          "durationTicks": 1024,
          "midi": 46,
          "name": "A#2",
          "ticks": 69120,
          "time": 25.3125,
          "velocity": 0.7559055118110236
        },
        {
          "duration": 0.75,
          "durationTicks": 2048,
          "midi": 35,
          "name": "B1",
          "ticks": 69632,
          "time": 25.5,
          "velocity": 0.7559055118110236
        },
        {
          "duration": 0.375,
          "durationTicks": 1024,
          "midi": 40,
          "name": "E2",
          "ticks": 69632,
          "time": 25.5,
          "velocity": 0.7559055118110236
        },
        {
          "duration": 0.375,
          "durationTicks": 1024,
          "midi": 42,
          "name": "F#2",
          "ticks": 69632,
          "time": 25.5,
          "velocity": 0.7559055118110236
        },
        {
          "duration": 0.375,
          "durationTicks": 1024,
          "midi": 46,
          "name": "A#2",
          "ticks": 70144,
          "time": 25.6875,
          "velocity": 0.7559055118110236
        },
        {
          "duration": 0.75,
          "durationTicks": 2048,
          "midi": 40,
          "name": "E2",
          "ticks": 70656,
          "time": 25.875,
          "velocity": 0.7559055118110236
        },
        {
          "duration": 0.375,
          "durationTicks": 1024,
          "midi": 42,
          "name": "F#2",
          "ticks": 70656,
          "time": 25.875,
          "velocity": 0.7559055118110236
        },
        {
          "duration": 0.375,
          "durationTicks": 1024,
          "midi": 46,
          "name": "A#2",
          "ticks": 71168,
          "time": 26.0625,
          "velocity": 0.7559055118110236
        },
        {
          "duration": 0.75,
          "durationTicks": 2048,
          "midi": 35,
          "name": "B1",
          "ticks": 71680,
          "time": 26.25,
          "velocity": 0.7559055118110236
        },
        {
          "duration": 0.375,
          "durationTicks": 1024,
          "midi": 42,
          "name": "F#2",
          "ticks": 71680,
          "time": 26.25,
          "velocity": 0.7559055118110236
        },
        {
          "duration": 0.375,
          "durationTicks": 1024,
          "midi": 46,
          "name": "A#2",
          "ticks": 72192,
          "time": 26.4375,
          "velocity": 0.7559055118110236
        },
        {
          "duration": 0.375,
          "durationTicks": 1024,
          "midi": 40,
          "name": "E2",
          "ticks": 72704,
          "time": 26.625,
          "velocity": 0.7559055118110236
        },
        {
          "duration": 0.375,
          "durationTicks": 1024,
          "midi": 42,
          "name": "F#2",
          "ticks": 72704,
          "time": 26.625,
          "velocity": 0.7559055118110236
        },
        {
          "duration": 0.1875,
          "durationTicks": 512,
          "midi": 46,
          "name": "A#2",
          "ticks": 73216,
          "time": 26.8125,
          "velocity": 0.7559055118110236
        },
        {
          "duration": 0.75,
          "durationTicks": 2048,
          "midi": 35,
          "name": "B1",
          "ticks": 73728,
          "time": 27,
          "velocity": 0.7559055118110236
        },
        {
          "duration": 0.375,
          "durationTicks": 1024,
          "midi": 40,
          "name": "E2",
          "ticks": 73728,
          "time": 27,
          "velocity": 0.7559055118110236
        },
        {
          "duration": 0.375,
          "durationTicks": 1024,
          "midi": 42,
          "name": "F#2",
          "ticks": 73728,
          "time": 27,
          "velocity": 0.7559055118110236
        },
        {
          "duration": 0.1875,
          "durationTicks": 512,
          "midi": 49,
          "name": "C#3",
          "ticks": 73728,
          "time": 27,
          "velocity": 0.7559055118110236
        },
        {
          "duration": 0.375,
          "durationTicks": 1024,
          "midi": 46,
          "name": "A#2",
          "ticks": 74240,
          "time": 27.1875,
          "velocity": 0.7559055118110236
        },
        {
          "duration": 0.75,
          "durationTicks": 2048,
          "midi": 40,
          "name": "E2",
          "ticks": 74752,
          "time": 27.375,
          "velocity": 0.7559055118110236
        },
        {
          "duration": 0.375,
          "durationTicks": 1024,
          "midi": 42,
          "name": "F#2",
          "ticks": 74752,
          "time": 27.375,
          "velocity": 0.7559055118110236
        },
        {
          "duration": 0.375,
          "durationTicks": 1024,
          "midi": 46,
          "name": "A#2",
          "ticks": 75264,
          "time": 27.5625,
          "velocity": 0.7559055118110236
        },
        {
          "duration": 0.75,
          "durationTicks": 2048,
          "midi": 35,
          "name": "B1",
          "ticks": 75776,
          "time": 27.75,
          "velocity": 0.7559055118110236
        },
        {
          "duration": 0.375,
          "durationTicks": 1024,
          "midi": 42,
          "name": "F#2",
          "ticks": 75776,
          "time": 27.75,
          "velocity": 0.7559055118110236
        },
        {
          "duration": 0.375,
          "durationTicks": 1024,
          "midi": 46,
          "name": "A#2",
          "ticks": 76288,
          "time": 27.9375,
          "velocity": 0.7559055118110236
        },
        {
          "duration": 0.375,
          "durationTicks": 1024,
          "midi": 40,
          "name": "E2",
          "ticks": 76800,
          "time": 28.125,
          "velocity": 0.7559055118110236
        },
        {
          "duration": 0.375,
          "durationTicks": 1024,
          "midi": 42,
          "name": "F#2",
          "ticks": 76800,
          "time": 28.125,
          "velocity": 0.7559055118110236
        },
        {
          "duration": 0.375,
          "durationTicks": 1024,
          "midi": 46,
          "name": "A#2",
          "ticks": 77312,
          "time": 28.3125,
          "velocity": 0.7559055118110236
        },
        {
          "duration": 0.75,
          "durationTicks": 2048,
          "midi": 35,
          "name": "B1",
          "ticks": 77824,
          "time": 28.5,
          "velocity": 0.7559055118110236
        },
        {
          "duration": 0.375,
          "durationTicks": 1024,
          "midi": 40,
          "name": "E2",
          "ticks": 77824,
          "time": 28.5,
          "velocity": 0.7559055118110236
        },
        {
          "duration": 0.375,
          "durationTicks": 1024,
          "midi": 42,
          "name": "F#2",
          "ticks": 77824,
          "time": 28.5,
          "velocity": 0.7559055118110236
        },
        {
          "duration": 0.375,
          "durationTicks": 1024,
          "midi": 46,
          "name": "A#2",
          "ticks": 78336,
          "time": 28.6875,
          "velocity": 0.7559055118110236
        },
        {
          "duration": 0.75,
          "durationTicks": 2048,
          "midi": 40,
          "name": "E2",
          "ticks": 78848,
          "time": 28.875,
          "velocity": 0.7559055118110236
        },
        {
          "duration": 0.375,
          "durationTicks": 1024,
          "midi": 42,
          "name": "F#2",
          "ticks": 78848,
          "time": 28.875,
          "velocity": 0.7559055118110236
        },
        {
          "duration": 0.375,
          "durationTicks": 1024,
          "midi": 46,
          "name": "A#2",
          "ticks": 79360,
          "time": 29.0625,
          "velocity": 0.7559055118110236
        },
        {
          "duration": 0.75,
          "durationTicks": 2048,
          "midi": 35,
          "name": "B1",
          "ticks": 79872,
          "time": 29.25,
          "velocity": 0.7559055118110236
        },
        {
          "duration": 0.375,
          "durationTicks": 1024,
          "midi": 42,
          "name": "F#2",
          "ticks": 79872,
          "time": 29.25,
          "velocity": 0.7559055118110236
        },
        {
          "duration": 0.375,
          "durationTicks": 1024,
          "midi": 46,
          "name": "A#2",
          "ticks": 80384,
          "time": 29.4375,
          "velocity": 0.7559055118110236
        },
        {
          "duration": 0.375,
          "durationTicks": 1024,
          "midi": 40,
          "name": "E2",
          "ticks": 80896,
          "time": 29.625,
          "velocity": 0.7559055118110236
        },
        {
          "duration": 0.375,
          "durationTicks": 1024,
          "midi": 42,
          "name": "F#2",
          "ticks": 80896,
          "time": 29.625,
          "velocity": 0.7559055118110236
        },
        {
          "duration": 0.1875,
          "durationTicks": 512,
          "midi": 46,
          "name": "A#2",
          "ticks": 81408,
          "time": 29.8125,
          "velocity": 0.7559055118110236
        },
        {
          "duration": 0.75,
          "durationTicks": 2048,
          "midi": 35,
          "name": "B1",
          "ticks": 81920,
          "time": 30,
          "velocity": 0.7559055118110236
        },
        {
          "duration": 0.375,
          "durationTicks": 1024,
          "midi": 40,
          "name": "E2",
          "ticks": 81920,
          "time": 30,
          "velocity": 0.7559055118110236
        },
        {
          "duration": 0.375,
          "durationTicks": 1024,
          "midi": 42,
          "name": "F#2",
          "ticks": 81920,
          "time": 30,
          "velocity": 0.7559055118110236
        },
        {
          "duration": 0.1875,
          "durationTicks": 512,
          "midi": 49,
          "name": "C#3",
          "ticks": 81920,
          "time": 30,
          "velocity": 0.7559055118110236
        },
        {
          "duration": 0.375,
          "durationTicks": 1024,
          "midi": 46,
          "name": "A#2",
          "ticks": 82432,
          "time": 30.1875,
          "velocity": 0.7559055118110236
        },
        {
          "duration": 0.75,
          "durationTicks": 2048,
          "midi": 40,
          "name": "E2",
          "ticks": 82944,
          "time": 30.375,
          "velocity": 0.7559055118110236
        },
        {
          "duration": 0.375,
          "durationTicks": 1024,
          "midi": 42,
          "name": "F#2",
          "ticks": 82944,
          "time": 30.375,
          "velocity": 0.7559055118110236
        },
        {
          "duration": 0.375,
          "durationTicks": 1024,
          "midi": 46,
          "name": "A#2",
          "ticks": 83456,
          "time": 30.5625,
          "velocity": 0.7559055118110236
        },
        {
          "duration": 0.75,
          "durationTicks": 2048,
          "midi": 35,
          "name": "B1",
          "ticks": 83968,
          "time": 30.75,
          "velocity": 0.7559055118110236
        },
        {
          "duration": 0.375,
          "durationTicks": 1024,
          "midi": 42,
          "name": "F#2",
          "ticks": 83968,
          "time": 30.75,
          "velocity": 0.7559055118110236
        },
        {
          "duration": 0.375,
          "durationTicks": 1024,
          "midi": 46,
          "name": "A#2",
          "ticks": 84480,
          "time": 30.9375,
          "velocity": 0.7559055118110236
        },
        {
          "duration": 0.375,
          "durationTicks": 1024,
          "midi": 40,
          "name": "E2",
          "ticks": 84992,
          "time": 31.125,
          "velocity": 0.7559055118110236
        },
        {
          "duration": 0.375,
          "durationTicks": 1024,
          "midi": 42,
          "name": "F#2",
          "ticks": 84992,
          "time": 31.125,
          "velocity": 0.7559055118110236
        },
        {
          "duration": 0.375,
          "durationTicks": 1024,
          "midi": 46,
          "name": "A#2",
          "ticks": 85504,
          "time": 31.3125,
          "velocity": 0.7559055118110236
        },
        {
          "duration": 0.75,
          "durationTicks": 2048,
          "midi": 35,
          "name": "B1",
          "ticks": 86016,
          "time": 31.5,
          "velocity": 0.7559055118110236
        },
        {
          "duration": 0.375,
          "durationTicks": 1024,
          "midi": 40,
          "name": "E2",
          "ticks": 86016,
          "time": 31.5,
          "velocity": 0.7559055118110236
        },
        {
          "duration": 0.375,
          "durationTicks": 1024,
          "midi": 42,
          "name": "F#2",
          "ticks": 86016,
          "time": 31.5,
          "velocity": 0.7559055118110236
        },
        {
          "duration": 0.375,
          "durationTicks": 1024,
          "midi": 46,
          "name": "A#2",
          "ticks": 86528,
          "time": 31.6875,
          "velocity": 0.7559055118110236
        },
        {
          "duration": 0.75,
          "durationTicks": 2048,
          "midi": 40,
          "name": "E2",
          "ticks": 87040,
          "time": 31.875,
          "velocity": 0.7559055118110236
        },
        {
          "duration": 0.375,
          "durationTicks": 1024,
          "midi": 42,
          "name": "F#2",
          "ticks": 87040,
          "time": 31.875,
          "velocity": 0.7559055118110236
        },
        {
          "duration": 0.375,
          "durationTicks": 1024,
          "midi": 46,
          "name": "A#2",
          "ticks": 87552,
          "time": 32.0625,
          "velocity": 0.7559055118110236
        },
        {
          "duration": 0.75,
          "durationTicks": 2048,
          "midi": 35,
          "name": "B1",
          "ticks": 88064,
          "time": 32.25,
          "velocity": 0.7559055118110236
        },
        {
          "duration": 0.375,
          "durationTicks": 1024,
          "midi": 42,
          "name": "F#2",
          "ticks": 88064,
          "time": 32.25,
          "velocity": 0.7559055118110236
        },
        {
          "duration": 0.375,
          "durationTicks": 1024,
          "midi": 46,
          "name": "A#2",
          "ticks": 88576,
          "time": 32.4375,
          "velocity": 0.7559055118110236
        },
        {
          "duration": 0.375,
          "durationTicks": 1024,
          "midi": 40,
          "name": "E2",
          "ticks": 89088,
          "time": 32.625,
          "velocity": 0.7559055118110236
        },
        {
          "duration": 0.375,
          "durationTicks": 1024,
          "midi": 42,
          "name": "F#2",
          "ticks": 89088,
          "time": 32.625,
          "velocity": 0.7559055118110236
        },
        {
          "duration": 0.1875,
          "durationTicks": 512,
          "midi": 46,
          "name": "A#2",
          "ticks": 89600,
          "time": 32.8125,
          "velocity": 0.7559055118110236
        },
        {
          "duration": 0.75,
          "durationTicks": 2048,
          "midi": 35,
          "name": "B1",
          "ticks": 90112,
          "time": 33,
          "velocity": 0.7559055118110236
        },
        {
          "duration": 0.375,
          "durationTicks": 1024,
          "midi": 40,
          "name": "E2",
          "ticks": 90112,
          "time": 33,
          "velocity": 0.7559055118110236
        },
        {
          "duration": 0.375,
          "durationTicks": 1024,
          "midi": 42,
          "name": "F#2",
          "ticks": 90112,
          "time": 33,
          "velocity": 0.7559055118110236
        },
        {
          "duration": 0.1875,
          "durationTicks": 512,
          "midi": 49,
          "name": "C#3",
          "ticks": 90112,
          "time": 33,
          "velocity": 0.7559055118110236
        },
        {
          "duration": 0.375,
          "durationTicks": 1024,
          "midi": 46,
          "name": "A#2",
          "ticks": 90624,
          "time": 33.1875,
          "velocity": 0.7559055118110236
        },
        {
          "duration": 0.75,
          "durationTicks": 2048,
          "midi": 40,
          "name": "E2",
          "ticks": 91136,
          "time": 33.375,
          "velocity": 0.7559055118110236
        },
        {
          "duration": 0.375,
          "durationTicks": 1024,
          "midi": 42,
          "name": "F#2",
          "ticks": 91136,
          "time": 33.375,
          "velocity": 0.7559055118110236
        },
        {
          "duration": 0.375,
          "durationTicks": 1024,
          "midi": 46,
          "name": "A#2",
          "ticks": 91648,
          "time": 33.5625,
          "velocity": 0.7559055118110236
        },
        {
          "duration": 0.75,
          "durationTicks": 2048,
          "midi": 35,
          "name": "B1",
          "ticks": 92160,
          "time": 33.75,
          "velocity": 0.7559055118110236
        },
        {
          "duration": 0.375,
          "durationTicks": 1024,
          "midi": 42,
          "name": "F#2",
          "ticks": 92160,
          "time": 33.75,
          "velocity": 0.7559055118110236
        },
        {
          "duration": 0.375,
          "durationTicks": 1024,
          "midi": 46,
          "name": "A#2",
          "ticks": 92672,
          "time": 33.9375,
          "velocity": 0.7559055118110236
        },
        {
          "duration": 0.1875,
          "durationTicks": 512,
          "midi": 40,
          "name": "E2",
          "ticks": 93184,
          "time": 34.125,
          "velocity": 0.7559055118110236
        },
        {
          "duration": 0.375,
          "durationTicks": 1024,
          "midi": 42,
          "name": "F#2",
          "ticks": 93184,
          "time": 34.125,
          "velocity": 0.7559055118110236
        },
        {
          "duration": 0.5625,
          "durationTicks": 1536,
          "midi": 40,
          "name": "E2",
          "ticks": 93696,
          "time": 34.3125,
          "velocity": 0.7559055118110236
        },
        {
          "duration": 0.5625,
          "durationTicks": 1536,
          "midi": 49,
          "name": "C#3",
          "ticks": 93696,
          "time": 34.3125,
          "velocity": 0.7559055118110236
        },
        {
          "duration": 0.1875,
          "durationTicks": 512,
          "midi": 35,
          "name": "B1",
          "ticks": 94208,
          "time": 34.5,
          "velocity": 0.7559055118110236
        },
        {
          "duration": 0.5625,
          "durationTicks": 1536,
          "midi": 42,
          "name": "F#2",
          "ticks": 94208,
          "time": 34.5,
          "velocity": 0.7559055118110236
        },
        {
          "duration": 0.375,
          "durationTicks": 1024,
          "midi": 35,
          "name": "B1",
          "ticks": 94720,
          "time": 34.6875,
          "velocity": 0.7559055118110236
        },
        {
          "duration": 0.375,
          "durationTicks": 1024,
          "midi": 40,
          "name": "E2",
          "ticks": 95232,
          "time": 34.875,
          "velocity": 0.7559055118110236
        },
        {
          "duration": 0.375,
          "durationTicks": 1024,
          "midi": 46,
          "name": "A#2",
          "ticks": 95232,
          "time": 34.875,
          "velocity": 0.7559055118110236
        },
        {
          "duration": 0.375,
          "durationTicks": 1024,
          "midi": 35,
          "name": "B1",
          "ticks": 95744,
          "time": 35.0625,
          "velocity": 0.7559055118110236
        },
        {
          "duration": 0.375,
          "durationTicks": 1024,
          "midi": 42,
          "name": "F#2",
          "ticks": 95744,
          "time": 35.0625,
          "velocity": 0.7559055118110236
        },
        {
          "duration": 0.75,
          "durationTicks": 2048,
          "midi": 40,
          "name": "E2",
          "ticks": 96256,
          "time": 35.25,
          "velocity": 0.7559055118110236
        },
        {
          "duration": 0.1875,
          "durationTicks": 512,
          "midi": 46,
          "name": "A#2",
          "ticks": 96256,
          "time": 35.25,
          "velocity": 0.7559055118110236
        },
        {
          "duration": 0.5625,
          "durationTicks": 1536,
          "midi": 35,
          "name": "B1",
          "ticks": 96768,
          "time": 35.4375,
          "velocity": 0.7559055118110236
        },
        {
          "duration": 2.0625,
          "durationTicks": 5632,
          "midi": 42,
          "name": "F#2",
          "ticks": 96768,
          "time": 35.4375,
          "velocity": 0.7559055118110236
        },
        {
          "duration": 0.5625,
          "durationTicks": 1536,
          "midi": 49,
          "name": "C#3",
          "ticks": 96768,
          "time": 35.4375,
          "velocity": 0.7559055118110236
        },
        {
          "duration": 0.375,
          "durationTicks": 1024,
          "midi": 35,
          "name": "B1",
          "ticks": 98304,
          "time": 36,
          "velocity": 0.7559055118110236
        },
        {
          "duration": 0.75,
          "durationTicks": 2048,
          "midi": 40,
          "name": "E2",
          "ticks": 98304,
          "time": 36,
          "velocity": 0.7559055118110236
        },
        {
          "duration": 0.375,
          "durationTicks": 1024,
          "midi": 49,
          "name": "C#3",
          "ticks": 98304,
          "time": 36,
          "velocity": 0.7559055118110236
        },
        {
          "duration": 0.1875,
          "durationTicks": 512,
          "midi": 35,
          "name": "B1",
          "ticks": 99328,
          "time": 36.375,
          "velocity": 0.7559055118110236
        },
        {
          "duration": 0.375,
          "durationTicks": 1024,
          "midi": 55,
          "name": "G3",
          "ticks": 99328,
          "time": 36.375,
          "velocity": 0.7559055118110236
        },
        {
          "duration": 0.75,
          "durationTicks": 2048,
          "midi": 35,
          "name": "B1",
          "ticks": 99840,
          "time": 36.5625,
          "velocity": 0.7559055118110236
        },
        {
          "duration": 0.75,
          "durationTicks": 2048,
          "midi": 40,
          "name": "E2",
          "ticks": 100352,
          "time": 36.75,
          "velocity": 0.7559055118110236
        },
        {
          "duration": 0.375,
          "durationTicks": 1024,
          "midi": 55,
          "name": "G3",
          "ticks": 100352,
          "time": 36.75,
          "velocity": 0.7559055118110236
        },
        {
          "duration": 0.375,
          "durationTicks": 1024,
          "midi": 55,
          "name": "G3",
          "ticks": 101376,
          "time": 37.125,
          "velocity": 0.7559055118110236
        },
        {
          "duration": 0.375,
          "durationTicks": 1024,
          "midi": 35,
          "name": "B1",
          "ticks": 101888,
          "time": 37.3125,
          "velocity": 0.7559055118110236
        },
        {
          "duration": 0.75,
          "durationTicks": 2048,
          "midi": 40,
          "name": "E2",
          "ticks": 102400,
          "time": 37.5,
          "velocity": 0.7559055118110236
        },
        {
          "duration": 1.5,
          "durationTicks": 4096,
          "midi": 42,
          "name": "F#2",
          "ticks": 102400,
          "time": 37.5,
          "velocity": 0.7559055118110236
        },
        {
          "duration": 0.375,
          "durationTicks": 1024,
          "midi": 49,
          "name": "C#3",
          "ticks": 102400,
          "time": 37.5,
          "velocity": 0.7559055118110236
        },
        {
          "duration": 0.375,
          "durationTicks": 1024,
          "midi": 35,
          "name": "B1",
          "ticks": 102912,
          "time": 37.6875,
          "velocity": 0.7559055118110236
        },
        {
          "duration": 0.375,
          "durationTicks": 1024,
          "midi": 55,
          "name": "G3",
          "ticks": 103424,
          "time": 37.875,
          "velocity": 0.7559055118110236
        },
        {
          "duration": 0.5625,
          "durationTicks": 1536,
          "midi": 35,
          "name": "B1",
          "ticks": 103936,
          "time": 38.0625,
          "velocity": 0.7559055118110236
        },
        {
          "duration": 0.75,
          "durationTicks": 2048,
          "midi": 40,
          "name": "E2",
          "ticks": 104448,
          "time": 38.25,
          "velocity": 0.7559055118110236
        },
        {
          "duration": 0.375,
          "durationTicks": 1024,
          "midi": 55,
          "name": "G3",
          "ticks": 104448,
          "time": 38.25,
          "velocity": 0.7559055118110236
        },
        {
          "duration": 0.375,
          "durationTicks": 1024,
          "midi": 35,
          "name": "B1",
          "ticks": 105472,
          "time": 38.625,
          "velocity": 0.7559055118110236
        },
        {
          "duration": 0.375,
          "durationTicks": 1024,
          "midi": 55,
          "name": "G3",
          "ticks": 105472,
          "time": 38.625,
          "velocity": 0.7559055118110236
        },
        {
          "duration": 0.375,
          "durationTicks": 1024,
          "midi": 35,
          "name": "B1",
          "ticks": 106496,
          "time": 39,
          "velocity": 0.7559055118110236
        },
        {
          "duration": 0.75,
          "durationTicks": 2048,
          "midi": 40,
          "name": "E2",
          "ticks": 106496,
          "time": 39,
          "velocity": 0.7559055118110236
        },
        {
          "duration": 1.5,
          "durationTicks": 4096,
          "midi": 42,
          "name": "F#2",
          "ticks": 106496,
          "time": 39,
          "velocity": 0.7559055118110236
        },
        {
          "duration": 0.375,
          "durationTicks": 1024,
          "midi": 49,
          "name": "C#3",
          "ticks": 106496,
          "time": 39,
          "velocity": 0.7559055118110236
        },
        {
          "duration": 0.1875,
          "durationTicks": 512,
          "midi": 35,
          "name": "B1",
          "ticks": 107520,
          "time": 39.375,
          "velocity": 0.7559055118110236
        },
        {
          "duration": 0.375,
          "durationTicks": 1024,
          "midi": 55,
          "name": "G3",
          "ticks": 107520,
          "time": 39.375,
          "velocity": 0.7559055118110236
        },
        {
          "duration": 0.75,
          "durationTicks": 2048,
          "midi": 35,
          "name": "B1",
          "ticks": 108032,
          "time": 39.5625,
          "velocity": 0.7559055118110236
        },
        {
          "duration": 0.375,
          "durationTicks": 1024,
          "midi": 40,
          "name": "E2",
          "ticks": 108544,
          "time": 39.75,
          "velocity": 0.7559055118110236
        },
        {
          "duration": 0.375,
          "durationTicks": 1024,
          "midi": 55,
          "name": "G3",
          "ticks": 108544,
          "time": 39.75,
          "velocity": 0.7559055118110236
        },
        {
          "duration": 0.375,
          "durationTicks": 1024,
          "midi": 40,
          "name": "E2",
          "ticks": 109568,
          "time": 40.125,
          "velocity": 0.7559055118110236
        },
        {
          "duration": 0.375,
          "durationTicks": 1024,
          "midi": 55,
          "name": "G3",
          "ticks": 109568,
          "time": 40.125,
          "velocity": 0.7559055118110236
        },
        {
          "duration": 0.5625,
          "durationTicks": 1536,
          "midi": 35,
          "name": "B1",
          "ticks": 110080,
          "time": 40.3125,
          "velocity": 0.7559055118110236
        },
        {
          "duration": 0.1875,
          "durationTicks": 512,
          "midi": 40,
          "name": "E2",
          "ticks": 110592,
          "time": 40.5,
          "velocity": 0.7559055118110236
        },
        {
          "duration": 1.5,
          "durationTicks": 4096,
          "midi": 42,
          "name": "F#2",
          "ticks": 110592,
          "time": 40.5,
          "velocity": 0.7559055118110236
        },
        {
          "duration": 0.375,
          "durationTicks": 1024,
          "midi": 49,
          "name": "C#3",
          "ticks": 110592,
          "time": 40.5,
          "velocity": 0.7559055118110236
        },
        {
          "duration": 0.5625,
          "durationTicks": 1536,
          "midi": 40,
          "name": "E2",
          "ticks": 111104,
          "time": 40.6875,
          "velocity": 0.7559055118110236
        },
        {
          "duration": 0.1875,
          "durationTicks": 512,
          "midi": 35,
          "name": "B1",
          "ticks": 111616,
          "time": 40.875,
          "velocity": 0.7559055118110236
        },
        {
          "duration": 0.375,
          "durationTicks": 1024,
          "midi": 55,
          "name": "G3",
          "ticks": 111616,
          "time": 40.875,
          "velocity": 0.7559055118110236
        },
        {
          "duration": 0.375,
          "durationTicks": 1024,
          "midi": 35,
          "name": "B1",
          "ticks": 112128,
          "time": 41.0625,
          "velocity": 0.7559055118110236
        },
        {
          "duration": 0.375,
          "durationTicks": 1024,
          "midi": 40,
          "name": "E2",
          "ticks": 112640,
          "time": 41.25,
          "velocity": 0.7559055118110236
        },
        {
          "duration": 0.375,
          "durationTicks": 1024,
          "midi": 55,
          "name": "G3",
          "ticks": 112640,
          "time": 41.25,
          "velocity": 0.7559055118110236
        },
        {
          "duration": 0.5625,
          "durationTicks": 1536,
          "midi": 35,
          "name": "B1",
          "ticks": 113152,
          "time": 41.4375,
          "velocity": 0.7559055118110236
        },
        {
          "duration": 0.75,
          "durationTicks": 2048,
          "midi": 40,
          "name": "E2",
          "ticks": 113664,
          "time": 41.625,
          "velocity": 0.7559055118110236
        },
        {
          "duration": 0.375,
          "durationTicks": 1024,
          "midi": 55,
          "name": "G3",
          "ticks": 113664,
          "time": 41.625,
          "velocity": 0.7559055118110236
        },
        {
          "duration": 0.75,
          "durationTicks": 2048,
          "midi": 35,
          "name": "B1",
          "ticks": 114688,
          "time": 42,
          "velocity": 0.7559055118110236
        },
        {
          "duration": 0.375,
          "durationTicks": 1024,
          "midi": 42,
          "name": "F#2",
          "ticks": 114688,
          "time": 42,
          "velocity": 0.7559055118110236
        },
        {
          "duration": 0.1875,
          "durationTicks": 512,
          "midi": 49,
          "name": "C#3",
          "ticks": 114688,
          "time": 42,
          "velocity": 0.7559055118110236
        },
        {
          "duration": 0.375,
          "durationTicks": 1024,
          "midi": 46,
          "name": "A#2",
          "ticks": 115200,
          "time": 42.1875,
          "velocity": 0.7559055118110236
        },
        {
          "duration": 0.75,
          "durationTicks": 2048,
          "midi": 40,
          "name": "E2",
          "ticks": 115712,
          "time": 42.375,
          "velocity": 0.7559055118110236
        },
        {
          "duration": 0.375,
          "durationTicks": 1024,
          "midi": 42,
          "name": "F#2",
          "ticks": 115712,
          "time": 42.375,
          "velocity": 0.7559055118110236
        },
        {
          "duration": 0.375,
          "durationTicks": 1024,
          "midi": 46,
          "name": "A#2",
          "ticks": 116224,
          "time": 42.5625,
          "velocity": 0.7559055118110236
        },
        {
          "duration": 0.75,
          "durationTicks": 2048,
          "midi": 35,
          "name": "B1",
          "ticks": 116736,
          "time": 42.75,
          "velocity": 0.7559055118110236
        },
        {
          "duration": 0.375,
          "durationTicks": 1024,
          "midi": 42,
          "name": "F#2",
          "ticks": 116736,
          "time": 42.75,
          "velocity": 0.7559055118110236
        },
        {
          "duration": 0.375,
          "durationTicks": 1024,
          "midi": 46,
          "name": "A#2",
          "ticks": 117248,
          "time": 42.9375,
          "velocity": 0.7559055118110236
        },
        {
          "duration": 0.375,
          "durationTicks": 1024,
          "midi": 40,
          "name": "E2",
          "ticks": 117760,
          "time": 43.125,
          "velocity": 0.7559055118110236
        },
        {
          "duration": 0.375,
          "durationTicks": 1024,
          "midi": 42,
          "name": "F#2",
          "ticks": 117760,
          "time": 43.125,
          "velocity": 0.7559055118110236
        },
        {
          "duration": 0.375,
          "durationTicks": 1024,
          "midi": 46,
          "name": "A#2",
          "ticks": 118272,
          "time": 43.3125,
          "velocity": 0.7559055118110236
        },
        {
          "duration": 0.75,
          "durationTicks": 2048,
          "midi": 35,
          "name": "B1",
          "ticks": 118784,
          "time": 43.5,
          "velocity": 0.7559055118110236
        },
        {
          "duration": 0.375,
          "durationTicks": 1024,
          "midi": 40,
          "name": "E2",
          "ticks": 118784,
          "time": 43.5,
          "velocity": 0.7559055118110236
        },
        {
          "duration": 0.375,
          "durationTicks": 1024,
          "midi": 42,
          "name": "F#2",
          "ticks": 118784,
          "time": 43.5,
          "velocity": 0.7559055118110236
        },
        {
          "duration": 0.375,
          "durationTicks": 1024,
          "midi": 46,
          "name": "A#2",
          "ticks": 119296,
          "time": 43.6875,
          "velocity": 0.7559055118110236
        },
        {
          "duration": 0.75,
          "durationTicks": 2048,
          "midi": 40,
          "name": "E2",
          "ticks": 119808,
          "time": 43.875,
          "velocity": 0.7559055118110236
        },
        {
          "duration": 0.375,
          "durationTicks": 1024,
          "midi": 42,
          "name": "F#2",
          "ticks": 119808,
          "time": 43.875,
          "velocity": 0.7559055118110236
        },
        {
          "duration": 0.375,
          "durationTicks": 1024,
          "midi": 46,
          "name": "A#2",
          "ticks": 120320,
          "time": 44.0625,
          "velocity": 0.7559055118110236
        },
        {
          "duration": 0.75,
          "durationTicks": 2048,
          "midi": 35,
          "name": "B1",
          "ticks": 120832,
          "time": 44.25,
          "velocity": 0.7559055118110236
        },
        {
          "duration": 0.375,
          "durationTicks": 1024,
          "midi": 42,
          "name": "F#2",
          "ticks": 120832,
          "time": 44.25,
          "velocity": 0.7559055118110236
        },
        {
          "duration": 0.375,
          "durationTicks": 1024,
          "midi": 46,
          "name": "A#2",
          "ticks": 121344,
          "time": 44.4375,
          "velocity": 0.7559055118110236
        },
        {
          "duration": 0.375,
          "durationTicks": 1024,
          "midi": 40,
          "name": "E2",
          "ticks": 121856,
          "time": 44.625,
          "velocity": 0.7559055118110236
        },
        {
          "duration": 0.375,
          "durationTicks": 1024,
          "midi": 42,
          "name": "F#2",
          "ticks": 121856,
          "time": 44.625,
          "velocity": 0.7559055118110236
        },
        {
          "duration": 0.375,
          "durationTicks": 1024,
          "midi": 46,
          "name": "A#2",
          "ticks": 122368,
          "time": 44.8125,
          "velocity": 0.7559055118110236
        },
        {
          "duration": 0.75,
          "durationTicks": 2048,
          "midi": 35,
          "name": "B1",
          "ticks": 122880,
          "time": 45,
          "velocity": 0.7559055118110236
        },
        {
          "duration": 0.375,
          "durationTicks": 1024,
          "midi": 40,
          "name": "E2",
          "ticks": 122880,
          "time": 45,
          "velocity": 0.7559055118110236
        },
        {
          "duration": 0.375,
          "durationTicks": 1024,
          "midi": 42,
          "name": "F#2",
          "ticks": 122880,
          "time": 45,
          "velocity": 0.7559055118110236
        },
        {
          "duration": 0.375,
          "durationTicks": 1024,
          "midi": 46,
          "name": "A#2",
          "ticks": 123392,
          "time": 45.1875,
          "velocity": 0.7559055118110236
        },
        {
          "duration": 0.75,
          "durationTicks": 2048,
          "midi": 40,
          "name": "E2",
          "ticks": 123904,
          "time": 45.375,
          "velocity": 0.7559055118110236
        },
        {
          "duration": 0.375,
          "durationTicks": 1024,
          "midi": 42,
          "name": "F#2",
          "ticks": 123904,
          "time": 45.375,
          "velocity": 0.7559055118110236
        },
        {
          "duration": 0.375,
          "durationTicks": 1024,
          "midi": 46,
          "name": "A#2",
          "ticks": 124416,
          "time": 45.5625,
          "velocity": 0.7559055118110236
        },
        {
          "duration": 0.75,
          "durationTicks": 2048,
          "midi": 35,
          "name": "B1",
          "ticks": 124928,
          "time": 45.75,
          "velocity": 0.7559055118110236
        },
        {
          "duration": 0.375,
          "durationTicks": 1024,
          "midi": 42,
          "name": "F#2",
          "ticks": 124928,
          "time": 45.75,
          "velocity": 0.7559055118110236
        },
        {
          "duration": 0.375,
          "durationTicks": 1024,
          "midi": 46,
          "name": "A#2",
          "ticks": 125440,
          "time": 45.9375,
          "velocity": 0.7559055118110236
        },
        {
          "duration": 0.1875,
          "durationTicks": 512,
          "midi": 40,
          "name": "E2",
          "ticks": 125952,
          "time": 46.125,
          "velocity": 0.7559055118110236
        },
        {
          "duration": 0.1875,
          "durationTicks": 512,
          "midi": 42,
          "name": "F#2",
          "ticks": 125952,
          "time": 46.125,
          "velocity": 0.7559055118110236
        },
        {
          "duration": 0.375,
          "durationTicks": 1024,
          "midi": 40,
          "name": "E2",
          "ticks": 126464,
          "time": 46.3125,
          "velocity": 0.7559055118110236
        },
        {
          "duration": 0.375,
          "durationTicks": 1024,
          "midi": 42,
          "name": "F#2",
          "ticks": 126464,
          "time": 46.3125,
          "velocity": 0.7559055118110236
        },
        {
          "duration": 1.5,
          "durationTicks": 4096,
          "midi": 49,
          "name": "C#3",
          "ticks": 126464,
          "time": 46.3125,
          "velocity": 0.7559055118110236
        },
        {
          "duration": 1.5,
          "durationTicks": 4096,
          "midi": 35,
          "name": "B1",
          "ticks": 126976,
          "time": 46.5,
          "velocity": 0.7559055118110236
        },
        {
          "duration": 0.375,
          "durationTicks": 1024,
          "midi": 41,
          "name": "F2",
          "ticks": 127488,
          "time": 46.6875,
          "velocity": 0.7559055118110236
        },
        {
          "duration": 0.5625,
          "durationTicks": 1536,
          "midi": 45,
          "name": "A2",
          "ticks": 127488,
          "time": 46.6875,
          "velocity": 0.7559055118110236
        },
        {
          "duration": 0.1875,
          "durationTicks": 512,
          "midi": 41,
          "name": "F2",
          "ticks": 128512,
          "time": 47.0625,
          "velocity": 0.7559055118110236
        },
        {
          "duration": 0.375,
          "durationTicks": 1024,
          "midi": 41,
          "name": "F2",
          "ticks": 129024,
          "time": 47.25,
          "velocity": 0.7559055118110236
        },
        {
          "duration": 0.75,
          "durationTicks": 2048,
          "midi": 47,
          "name": "B2",
          "ticks": 129024,
          "time": 47.25,
          "velocity": 0.7559055118110236
        },
        {
          "duration": 0.1875,
          "durationTicks": 512,
          "midi": 41,
          "name": "F2",
          "ticks": 130048,
          "time": 47.625,
          "velocity": 0.7559055118110236
        },
        {
          "duration": 1.5,
          "durationTicks": 4096,
          "midi": 40,
          "name": "E2",
          "ticks": 130560,
          "time": 47.8125,
          "velocity": 0.7559055118110236
        },
        {
          "duration": 1.5,
          "durationTicks": 4096,
          "midi": 49,
          "name": "C#3",
          "ticks": 130560,
          "time": 47.8125,
          "velocity": 0.7559055118110236
        },
        {
          "duration": 1.3125,
          "durationTicks": 3584,
          "midi": 35,
          "name": "B1",
          "ticks": 131072,
          "time": 48,
          "velocity": 0.7559055118110236
        },
        {
          "duration": 1.3125,
          "durationTicks": 3584,
          "midi": 47,
          "name": "B2",
          "ticks": 131072,
          "time": 48,
          "velocity": 0.7559055118110236
        }
      ],
      "endOfTrackTicks": 134657
    }
  ]
}
