{
  "header": {
    "keySignatures": [
      {
        "key": "Db",
        "scale": "major",
        "ticks": 0
      },
      {
        "key": "Eb",
        "scale": "major",
        "ticks": 71040
      },
      {
        "key": "Db",
        "scale": "major",
        "ticks": 83520
      },
      {
        "key": "Db",
        "scale": "major",
        "ticks": 0
      },
      {
        "key": "Eb",
        "scale": "major",
        "ticks": 71040
      },
      {
        "key": "Db",
        "scale": "major",
        "ticks": 83520
      }
    ],
    "meta": [],
    "name": "",
    "ppq": 480,
    "tempos": [
      {
        "bpm": 72.00002880001152,
        "ticks": 0
      },
      {
        "bpm": 143.99988480009216,
        "ticks": 7680
      },
      {
        "bpm": 96,
        "ticks": 71040
      },
      {
        "bpm": 112.00005973336519,
        "ticks": 72960
      },
      {
        "bpm": 107.99991360006912,
        "ticks": 75840
      },
      {
        "bpm": 88.00002346667293,
        "ticks": 95280
      },
      {
        "bpm": 64,
        "ticks": 99840
      },
      {
        "bpm": 72.00002880001152,
        "ticks": 100320
      },
      {
        "bpm": 64,
        "ticks": 103680
      },
      {
        "bpm": 72.00002880001152,
        "ticks": 104160
      },
      {
        "bpm": 143.99988480009216,
        "ticks": 111360
      },
      {
        "bpm": 112.00005973336519,
        "ticks": 150720
      },
      {
        "bpm": 143.99988480009216,
        "ticks": 151680
      },
      {
        "bpm": 123.99999173333389,
        "ticks": 166080
      }
    ],
    "timeSignatures": [
      {
        "ticks": 0,
        "timeSignature": [
          4,
          4
        ],
        "measures": 0
      },
      {
        "ticks": 7680,
        "timeSignature": [
          12,
          8
        ],
        "measures": 4
      },
      {
        "ticks": 71040,
        "timeSignature": [
          2,
          4
        ],
        "measures": 9.5
      },
      {
        "ticks": 83520,
        "timeSignature": [
          4,
          4
        ],
        "measures": 22.5
      },
      {
        "ticks": 87360,
        "timeSignature": [
          2,
          4
        ],
        "measures": 24.5
      },
      {
        "ticks": 88320,
        "timeSignature": [
          4,
          4
        ],
        "measures": 25.5
      },
      {
        "ticks": 111360,
        "timeSignature": [
          12,
          8
        ],
        "measures": 37.5
      }
    ]
  },
  "tracks": [
    {
      "channel": 0,
      "controlChanges": {
        "7": [
          {
            "number": 7,
            "ticks": 2,
            "time": 0.003472220833333333,
            "value": 0.7874015748031497
          }
        ],
        "10": [
          {
            "number": 10,
            "ticks": 4,
            "time": 0.006944441666666666,
            "value": 0.5039370078740157
          }
        ],
        "91": [
          {
            "number": 91,
            "ticks": 6,
            "time": 0.0104166625,
            "value": 0.23622047244094488
          }
        ],
        "93": [
          {
            "number": 93,
            "ticks": 8,
            "time": 0.013888883333333333,
            "value": 0.23622047244094488
          }
        ]
      },
      "pitchBends": [],
      "instrument": {
        "family": "piano",
        "number": 0,
        "name": "acoustic grand piano"
      },
      "name": "",
      "notes": [
        {
          "duration": 0.41493038958333334,
          "durationTicks": 239,
          "midi": 77,
          "name": "F5",
          "ticks": 0,
          "time": 0,
          "velocity": 0.6299212598425197
        },
        {
          "duration": 0.41493038958333334,
          "durationTicks": 239,
          "midi": 68,
          "name": "G#4",
          "ticks": 0,
          "time": 0,
          "velocity": 0.6299212598425197
        },
        {
          "duration": 0.41493038958333334,
          "durationTicks": 239,
          "midi": 77,
          "name": "F5",
          "ticks": 240,
          "time": 0.4166665,
          "velocity": 0.6299212598425197
        },
        {
          "duration": 0.41493038958333334,
          "durationTicks": 239,
          "midi": 68,
          "name": "G#4",
          "ticks": 240,
          "time": 0.4166665,
          "velocity": 0.6299212598425197
        },
        {
          "duration": 0.4149303895833333,
          "durationTicks": 239,
          "midi": 77,
          "name": "F5",
          "ticks": 480,
          "time": 0.833333,
          "velocity": 0.6299212598425197
        },
        {
          "duration": 0.4149303895833333,
          "durationTicks": 239,
          "midi": 68,
          "name": "G#4",
          "ticks": 480,
          "time": 0.833333,
          "velocity": 0.6299212598425197
        },
        {
          "duration": 0.4149303895833334,
          "durationTicks": 239,
          "midi": 77,
          "name": "F5",
          "ticks": 720,
          "time": 1.2499995,
          "velocity": 0.6299212598425197
        },
        {
          "duration": 0.4149303895833334,
          "durationTicks": 239,
          "midi": 68,
          "name": "G#4",
          "ticks": 720,
          "time": 1.2499995,
          "velocity": 0.6299212598425197
        },
        {
          "duration": 0.4149303895833334,
          "durationTicks": 239,
          "midi": 77,
          "name": "F5",
          "ticks": 960,
          "time": 1.666666,
          "velocity": 0.6299212598425197
        },
        {
          "duration": 0.4149303895833334,
          "durationTicks": 239,
          "midi": 68,
          "name": "G#4",
          "ticks": 960,
          "time": 1.666666,
          "velocity": 0.6299212598425197
        },
        {
          "duration": 0.41493038958333317,
          "durationTicks": 239,
          "midi": 77,
          "name": "F5",
          "ticks": 1200,
          "time": 2.0833325,
          "velocity": 0.6299212598425197
        },
        {
          "duration": 0.41493038958333317,
          "durationTicks": 239,
          "midi": 68,
          "name": "G#4",
          "ticks": 1200,
          "time": 2.0833325,
          "velocity": 0.6299212598425197
        },
        {
          "duration": 0.4149303895833336,
          "durationTicks": 239,
          "midi": 77,
          "name": "F5",
          "ticks": 1440,
          "time": 2.499999,
          "velocity": 0.6299212598425197
        },
        {
          "duration": 0.4149303895833336,
          "durationTicks": 239,
          "midi": 68,
          "name": "G#4",
          "ticks": 1440,
          "time": 2.499999,
          "velocity": 0.6299212598425197
        },
        {
          "duration": 0.41493038958333317,
          "durationTicks": 239,
          "midi": 77,
          "name": "F5",
          "ticks": 1680,
          "time": 2.9166655,
          "velocity": 0.6299212598425197
        },
        {
          "duration": 0.41493038958333317,
          "durationTicks": 239,
          "midi": 68,
          "name": "G#4",
          "ticks": 1680,
          "time": 2.9166655,
          "velocity": 0.6299212598425197
        },
        {
          "duration": 3.3315958895833337,
          "durationTicks": 1919,
          "midi": 77,
          "name": "F5",
          "ticks": 1920,
          "time": 3.333332,
          "velocity": 0.6299212598425197
        },
        {
          "duration": 0.2065971395833337,
          "durationTicks": 119,
          "midi": 68,
          "name": "G#4",
          "ticks": 3840,
          "time": 6.666664,
          "velocity": 0.6299212598425197
        },
        {
          "duration": 0.2065971395833337,
          "durationTicks": 119,
          "midi": 72,
          "name": "C5",
          "ticks": 3960,
          "time": 6.87499725,
          "velocity": 0.6299212598425197
        },
        {
          "duration": 0.2065971395833337,
          "durationTicks": 119,
          "midi": 77,
          "name": "F5",
          "ticks": 4080,
          "time": 7.0833305,
          "velocity": 0.6299212598425197
        },
        {
          "duration": 0.2065971395833337,
          "durationTicks": 119,
          "midi": 80,
          "name": "G#5",
          "ticks": 4200,
          "time": 7.29166375,
          "velocity": 0.6299212598425197
        },
        {
          "duration": 0.2065971395833337,
          "durationTicks": 119,
          "midi": 84,
          "name": "C6",
          "ticks": 4320,
          "time": 7.499997,
          "velocity": 0.6299212598425197
        },
        {
          "duration": 0.2065971395833337,
          "durationTicks": 119,
          "midi": 89,
          "name": "F6",
          "ticks": 4440,
          "time": 7.7083302499999995,
          "velocity": 0.6299212598425197
        },
        {
          "duration": 0.2065971395833337,
          "durationTicks": 119,
          "midi": 92,
          "name": "G#6",
          "ticks": 4560,
          "time": 7.9166635,
          "velocity": 0.6299212598425197
        },
        {
          "duration": 0.2065971395833337,
          "durationTicks": 119,
          "midi": 96,
          "name": "C7",
          "ticks": 4680,
          "time": 8.12499675,
          "velocity": 0.6299212598425197
        },
        {
          "duration": 4.998261889583333,
          "durationTicks": 2879,
          "midi": 101,
          "name": "F7",
          "ticks": 4800,
          "time": 8.33333,
          "velocity": 0.6299212598425197
        },
        {
          "duration": 1.2491329437500003,
          "durationTicks": 1439,
          "midi": 65,
          "name": "F4",
          "ticks": 7680,
          "time": 13.333328,
          "velocity": 0.6299212598425197
        },
        {
          "duration": 0.20746544374999942,
          "durationTicks": 239,
          "midi": 56,
          "name": "G#3",
          "ticks": 8640,
          "time": 14.166662,
          "velocity": 0.6299212598425197
        },
        {
          "duration": 0.20746544374999942,
          "durationTicks": 239,
          "midi": 61,
          "name": "C#4",
          "ticks": 8880,
          "time": 14.3749955,
          "velocity": 0.6299212598425197
        },
        {
          "duration": 0.8324659437500017,
          "durationTicks": 959,
          "midi": 65,
          "name": "F4",
          "ticks": 9120,
          "time": 14.583328999999999,
          "velocity": 0.6299212598425197
        },
        {
          "duration": 0.2074654437500012,
          "durationTicks": 239,
          "midi": 56,
          "name": "G#3",
          "ticks": 9840,
          "time": 15.2083295,
          "velocity": 0.6299212598425197
        },
        {
          "duration": 0.4157989437499996,
          "durationTicks": 479,
          "midi": 65,
          "name": "F4",
          "ticks": 10080,
          "time": 15.416663,
          "velocity": 0.6299212598425197
        },
        {
          "duration": 0.20746544374999942,
          "durationTicks": 239,
          "midi": 56,
          "name": "G#3",
          "ticks": 10320,
          "time": 15.6249965,
          "velocity": 0.6299212598425197
        },
        {
          "duration": 1.4574664437500005,
          "durationTicks": 1679,
          "midi": 68,
          "name": "G#4",
          "ticks": 10560,
          "time": 15.83333,
          "velocity": 0.6299212598425197
        },
        {
          "duration": 0.20746544374999942,
          "durationTicks": 239,
          "midi": 56,
          "name": "G#3",
          "ticks": 11280,
          "time": 16.4583305,
          "velocity": 0.6299212598425197
        },
        {
          "duration": 0.20746544374999942,
          "durationTicks": 239,
          "midi": 60,
          "name": "C4",
          "ticks": 11520,
          "time": 16.666664,
          "velocity": 0.6299212598425197
        },
        {
          "duration": 0.20746544374999942,
          "durationTicks": 239,
          "midi": 65,
          "name": "F4",
          "ticks": 11760,
          "time": 16.8749975,
          "velocity": 0.6299212598425197
        },
        {
          "duration": 1.2491329437499985,
          "durationTicks": 1439,
          "midi": 68,
          "name": "G#4",
          "ticks": 12000,
          "time": 17.083331,
          "velocity": 0.6299212598425197
        },
        {
          "duration": 0.20746544374999942,
          "durationTicks": 239,
          "midi": 65,
          "name": "F4",
          "ticks": 12240,
          "time": 17.2916645,
          "velocity": 0.6299212598425197
        },
        {
          "duration": 0.20746544375000298,
          "durationTicks": 239,
          "midi": 60,
          "name": "C4",
          "ticks": 12480,
          "time": 17.499997999999998,
          "velocity": 0.6299212598425197
        },
        {
          "duration": 1.249132943750002,
          "durationTicks": 1439,
          "midi": 65,
          "name": "F4",
          "ticks": 13440,
          "time": 18.333332,
          "velocity": 0.6299212598425197
        },
        {
          "duration": 0.20746544374999942,
          "durationTicks": 239,
          "midi": 56,
          "name": "G#3",
          "ticks": 14400,
          "time": 19.166666,
          "velocity": 0.6299212598425197
        },
        {
          "duration": 0.20746544374999942,
          "durationTicks": 239,
          "midi": 61,
          "name": "C#4",
          "ticks": 14640,
          "time": 19.3749995,
          "velocity": 0.6299212598425197
        },
        {
          "duration": 0.8324659437499982,
          "durationTicks": 959,
          "midi": 65,
          "name": "F4",
          "ticks": 14880,
          "time": 19.583333,
          "velocity": 0.6299212598425197
        },
        {
          "duration": 0.20746544374999587,
          "durationTicks": 239,
          "midi": 56,
          "name": "G#3",
          "ticks": 15600,
          "time": 20.208333500000002,
          "velocity": 0.6299212598425197
        },
        {
          "duration": 0.4157989437499978,
          "durationTicks": 479,
          "midi": 65,
          "name": "F4",
          "ticks": 15840,
          "time": 20.416667,
          "velocity": 0.6299212598425197
        },
        {
          "duration": 0.20746544374999942,
          "durationTicks": 239,
          "midi": 56,
          "name": "G#3",
          "ticks": 16080,
          "time": 20.6250005,
          "velocity": 0.6299212598425197
        },
        {
          "duration": 1.2491329437499985,
          "durationTicks": 1439,
          "midi": 68,
          "name": "G#4",
          "ticks": 16320,
          "time": 20.833334,
          "velocity": 0.6299212598425197
        },
        {
          "duration": 0.41579894375000137,
          "durationTicks": 479,
          "midi": 65,
          "name": "F4",
          "ticks": 17760,
          "time": 22.083334999999998,
          "velocity": 0.6299212598425197
        },
        {
          "duration": 0.20746544374999942,
          "durationTicks": 239,
          "midi": 60,
          "name": "C4",
          "ticks": 18000,
          "time": 22.2916685,
          "velocity": 0.6299212598425197
        },
        {
          "duration": 0.4157989437499978,
          "durationTicks": 479,
          "midi": 68,
          "name": "G#4",
          "ticks": 18240,
          "time": 22.500002000000002,
          "velocity": 0.6299212598425197
        },
        {
          "duration": 0.20746544374999942,
          "durationTicks": 239,
          "midi": 65,
          "name": "F4",
          "ticks": 18480,
          "time": 22.7083355,
          "velocity": 0.6299212598425197
        },
        {
          "duration": 0.41579894375000137,
          "durationTicks": 479,
          "midi": 70,
          "name": "A#4",
          "ticks": 18720,
          "time": 22.916669,
          "velocity": 0.6299212598425197
        },
        {
          "duration": 0.20746544374999942,
          "durationTicks": 239,
          "midi": 60,
          "name": "C4",
          "ticks": 18960,
          "time": 23.1250025,
          "velocity": 0.6299212598425197
        },
        {
          "duration": 0.6241324437499962,
          "durationTicks": 719,
          "midi": 66,
          "name": "F#4",
          "ticks": 19200,
          "time": 23.333336000000003,
          "velocity": 0.6299212598425197
        },
        {
          "duration": 0.20746544374999587,
          "durationTicks": 239,
          "midi": 58,
          "name": "A#3",
          "ticks": 19920,
          "time": 23.9583365,
          "velocity": 0.6299212598425197
        },
        {
          "duration": 0.20746544374999942,
          "durationTicks": 239,
          "midi": 61,
          "name": "C#4",
          "ticks": 20160,
          "time": 24.16667,
          "velocity": 0.6299212598425197
        },
        {
          "duration": 0.20746544375000298,
          "durationTicks": 239,
          "midi": 66,
          "name": "F#4",
          "ticks": 20400,
          "time": 24.3750035,
          "velocity": 0.6299212598425197
        },
        {
          "duration": 0.20746544374999942,
          "durationTicks": 239,
          "midi": 70,
          "name": "A#4",
          "ticks": 20640,
          "time": 24.583337,
          "velocity": 0.6299212598425197
        },
        {
          "duration": 0.20746544374999587,
          "durationTicks": 239,
          "midi": 66,
          "name": "F#4",
          "ticks": 20880,
          "time": 24.791670500000002,
          "velocity": 0.6299212598425197
        },
        {
          "duration": 0.20746544374999942,
          "durationTicks": 239,
          "midi": 61,
          "name": "C#4",
          "ticks": 21120,
          "time": 25.000004,
          "velocity": 0.6299212598425197
        },
        {
          "duration": 1.2491329437500056,
          "durationTicks": 1439,
          "midi": 59,
          "name": "B3",
          "ticks": 22080,
          "time": 25.833337999999998,
          "velocity": 0.6299212598425197
        },
        {
          "duration": 1.2491329437500056,
          "durationTicks": 1439,
          "midi": 54,
          "name": "F#3",
          "ticks": 22080,
          "time": 25.833337999999998,
          "velocity": 0.6299212598425197
        },
        {
          "duration": 1.2491329437500056,
          "durationTicks": 1439,
          "midi": 51,
          "name": "D#3",
          "ticks": 22080,
          "time": 25.833337999999998,
          "velocity": 0.6299212598425197
        },
        {
          "duration": 0.4157989437499978,
          "durationTicks": 479,
          "midi": 65,
          "name": "F4",
          "ticks": 23520,
          "time": 27.083339000000002,
          "velocity": 0.6299212598425197
        },
        {
          "duration": 0.20746544374999942,
          "durationTicks": 239,
          "midi": 59,
          "name": "B3",
          "ticks": 23760,
          "time": 27.2916725,
          "velocity": 0.6299212598425197
        },
        {
          "duration": 0.6241324437499998,
          "durationTicks": 719,
          "midi": 63,
          "name": "D#4",
          "ticks": 24000,
          "time": 27.500006,
          "velocity": 0.6299212598425197
        },
        {
          "duration": 0.20746544375000298,
          "durationTicks": 239,
          "midi": 61,
          "name": "C#4",
          "ticks": 24720,
          "time": 28.125006499999998,
          "velocity": 0.6299212598425197
        },
        {
          "duration": 1.2491329437499985,
          "durationTicks": 1439,
          "midi": 65,
          "name": "F4",
          "ticks": 24960,
          "time": 28.33334,
          "velocity": 0.6299212598425197
        },
        {
          "duration": 0.20746544375000298,
          "durationTicks": 239,
          "midi": 53,
          "name": "F3",
          "ticks": 25680,
          "time": 28.9583405,
          "velocity": 0.6299212598425197
        },
        {
          "duration": 0.20746544375000298,
          "durationTicks": 239,
          "midi": 56,
          "name": "G#3",
          "ticks": 25920,
          "time": 29.166674,
          "velocity": 0.6299212598425197
        },
        {
          "duration": 0.20746544374999587,
          "durationTicks": 239,
          "midi": 61,
          "name": "C#4",
          "ticks": 26160,
          "time": 29.375007500000002,
          "velocity": 0.6299212598425197
        },
        {
          "duration": 0.4157989437500049,
          "durationTicks": 479,
          "midi": 65,
          "name": "F4",
          "ticks": 26400,
          "time": 29.583340999999997,
          "velocity": 0.6299212598425197
        },
        {
          "duration": 0.20746544375000298,
          "durationTicks": 239,
          "midi": 61,
          "name": "C#4",
          "ticks": 26640,
          "time": 29.7916745,
          "velocity": 0.6299212598425197
        },
        {
          "duration": 0.20746544375000298,
          "durationTicks": 239,
          "midi": 56,
          "name": "G#3",
          "ticks": 26880,
          "time": 30.000008,
          "velocity": 0.6299212598425197
        },
        {
          "duration": 0.20746544375000298,
          "durationTicks": 239,
          "midi": 56,
          "name": "G#3",
          "ticks": 28560,
          "time": 31.4583425,
          "velocity": 0.6299212598425197
        },
        {
          "duration": 0.20746544374999587,
          "durationTicks": 239,
          "midi": 60,
          "name": "C4",
          "ticks": 28800,
          "time": 31.666676000000002,
          "velocity": 0.6299212598425197
        },
        {
          "duration": 0.20746544375000298,
          "durationTicks": 239,
          "midi": 65,
          "name": "F4",
          "ticks": 29040,
          "time": 31.875009499999997,
          "velocity": 0.6299212598425197
        },
        {
          "duration": 0.4157989437500049,
          "durationTicks": 479,
          "midi": 68,
          "name": "G#4",
          "ticks": 29280,
          "time": 32.083343,
          "velocity": 0.6299212598425197
        },
        {
          "duration": 0.20746544375000298,
          "durationTicks": 239,
          "midi": 65,
          "name": "F4",
          "ticks": 29520,
          "time": 32.2916765,
          "velocity": 0.6299212598425197
        },
        {
          "duration": 0.20746544374999587,
          "durationTicks": 239,
          "midi": 60,
          "name": "C4",
          "ticks": 29760,
          "time": 32.50001,
          "velocity": 0.6299212598425197
        },
        {
          "duration": 1.2491329437499985,
          "durationTicks": 1439,
          "midi": 77,
          "name": "F5",
          "ticks": 30720,
          "time": 33.333344000000004,
          "velocity": 0.6299212598425197
        },
        {
          "duration": 1.2491329437499985,
          "durationTicks": 1439,
          "midi": 65,
          "name": "F4",
          "ticks": 30720,
          "time": 33.333344000000004,
          "velocity": 0.6299212598425197
        },
        {
          "duration": 0.20746544374999587,
          "durationTicks": 239,
          "midi": 53,
          "name": "F3",
          "ticks": 31440,
          "time": 33.9583445,
          "velocity": 0.6299212598425197
        },
        {
          "duration": 0.20746544375000298,
          "durationTicks": 239,
          "midi": 56,
          "name": "G#3",
          "ticks": 31680,
          "time": 34.166678,
          "velocity": 0.6299212598425197
        },
        {
          "duration": 0.20746544375000298,
          "durationTicks": 239,
          "midi": 61,
          "name": "C#4",
          "ticks": 31920,
          "time": 34.3750115,
          "velocity": 0.6299212598425197
        },
        {
          "duration": 0.8324659437500017,
          "durationTicks": 959,
          "midi": 77,
          "name": "F5",
          "ticks": 32160,
          "time": 34.583345,
          "velocity": 0.6299212598425197
        },
        {
          "duration": 0.20746544375000298,
          "durationTicks": 239,
          "midi": 65,
          "name": "F4",
          "ticks": 32160,
          "time": 34.583345,
          "velocity": 0.6299212598425197
        },
        {
          "duration": 0.20746544374999587,
          "durationTicks": 239,
          "midi": 61,
          "name": "C#4",
          "ticks": 32400,
          "time": 34.7916785,
          "velocity": 0.6299212598425197
        },
        {
          "duration": 0.20746544375000298,
          "durationTicks": 239,
          "midi": 56,
          "name": "G#3",
          "ticks": 32640,
          "time": 35.000012,
          "velocity": 0.6299212598425197
        },
        {
          "duration": 0.4157989437499978,
          "durationTicks": 479,
          "midi": 77,
          "name": "F5",
          "ticks": 33120,
          "time": 35.416679,
          "velocity": 0.6299212598425197
        },
        {
          "duration": 0.4157989437499978,
          "durationTicks": 479,
          "midi": 65,
          "name": "F4",
          "ticks": 33120,
          "time": 35.416679,
          "velocity": 0.6299212598425197
        },
        {
          "duration": 1.2491329437500056,
          "durationTicks": 1439,
          "midi": 80,
          "name": "G#5",
          "ticks": 33600,
          "time": 35.833346,
          "velocity": 0.6299212598425197
        },
        {
          "duration": 1.2491329437500056,
          "durationTicks": 1439,
          "midi": 68,
          "name": "G#4",
          "ticks": 33600,
          "time": 35.833346,
          "velocity": 0.6299212598425197
        },
        {
          "duration": 0.20746544375000298,
          "durationTicks": 239,
          "midi": 56,
          "name": "G#3",
          "ticks": 34320,
          "time": 36.4583465,
          "velocity": 0.6299212598425197
        },
        {
          "duration": 0.20746544375000298,
          "durationTicks": 239,
          "midi": 60,
          "name": "C4",
          "ticks": 34560,
          "time": 36.66668,
          "velocity": 0.6299212598425197
        },
        {
          "duration": 0.20746544375000298,
          "durationTicks": 239,
          "midi": 65,
          "name": "F4",
          "ticks": 34800,
          "time": 36.8750135,
          "velocity": 0.6299212598425197
        },
        {
          "duration": 0.20746544374999587,
          "durationTicks": 239,
          "midi": 68,
          "name": "G#4",
          "ticks": 35040,
          "time": 37.083347,
          "velocity": 0.6299212598425197
        },
        {
          "duration": 0.20746544375000298,
          "durationTicks": 239,
          "midi": 65,
          "name": "F4",
          "ticks": 35280,
          "time": 37.2916805,
          "velocity": 0.6299212598425197
        },
        {
          "duration": 0.20746544375000298,
          "durationTicks": 239,
          "midi": 60,
          "name": "C4",
          "ticks": 35520,
          "time": 37.500014,
          "velocity": 0.6299212598425197
        },
        {
          "duration": 1.2491329437499985,
          "durationTicks": 1439,
          "midi": 77,
          "name": "F5",
          "ticks": 36480,
          "time": 38.333348,
          "velocity": 0.6299212598425197
        },
        {
          "duration": 1.2491329437499985,
          "durationTicks": 1439,
          "midi": 65,
          "name": "F4",
          "ticks": 36480,
          "time": 38.333348,
          "velocity": 0.6299212598425197
        },
        {
          "duration": 0.20746544374999587,
          "durationTicks": 239,
          "midi": 73,
          "name": "C#5",
          "ticks": 37680,
          "time": 39.3750155,
          "velocity": 0.6299212598425197
        },
        {
          "duration": 0.8324659437500017,
          "durationTicks": 959,
          "midi": 77,
          "name": "F5",
          "ticks": 37920,
          "time": 39.583349,
          "velocity": 0.6299212598425197
        },
        {
          "duration": 0.8324659437500017,
          "durationTicks": 959,
          "midi": 72,
          "name": "C5",
          "ticks": 37920,
          "time": 39.583349,
          "velocity": 0.6299212598425197
        },
        {
          "duration": 0.8324659437500017,
          "durationTicks": 959,
          "midi": 65,
          "name": "F4",
          "ticks": 37920,
          "time": 39.583349,
          "velocity": 0.6299212598425197
        },
        {
          "duration": 0.4157989437500049,
          "durationTicks": 479,
          "midi": 77,
          "name": "F5",
          "ticks": 38880,
          "time": 40.416683,
          "velocity": 0.6299212598425197
        },
        {
          "duration": 0.20746544375000298,
          "durationTicks": 239,
          "midi": 72,
          "name": "C5",
          "ticks": 39120,
          "time": 40.6250165,
          "velocity": 0.6299212598425197
        },
        {
          "duration": 1.2491329437499985,
          "durationTicks": 1439,
          "midi": 80,
          "name": "G#5",
          "ticks": 39360,
          "time": 40.83335,
          "velocity": 0.6299212598425197
        },
        {
          "duration": 1.2491329437499985,
          "durationTicks": 1439,
          "midi": 68,
          "name": "G#4",
          "ticks": 39360,
          "time": 40.83335,
          "velocity": 0.6299212598425197
        },
        {
          "duration": 0.4157989437499978,
          "durationTicks": 479,
          "midi": 77,
          "name": "F5",
          "ticks": 40800,
          "time": 42.083351,
          "velocity": 0.6299212598425197
        },
        {
          "duration": 0.20746544374999587,
          "durationTicks": 239,
          "midi": 72,
          "name": "C5",
          "ticks": 41040,
          "time": 42.2916845,
          "velocity": 0.6299212598425197
        },
        {
          "duration": 0.4157989437500049,
          "durationTicks": 479,
          "midi": 80,
          "name": "G#5",
          "ticks": 41280,
          "time": 42.500018,
          "velocity": 0.6299212598425197
        },
        {
          "duration": 0.20746544375000298,
          "durationTicks": 239,
          "midi": 77,
          "name": "F5",
          "ticks": 41520,
          "time": 42.7083515,
          "velocity": 0.6299212598425197
        },
        {
          "duration": 0.4157989437499978,
          "durationTicks": 479,
          "midi": 82,
          "name": "A#5",
          "ticks": 41760,
          "time": 42.916685,
          "velocity": 0.6299212598425197
        },
        {
          "duration": 0.20746544374999587,
          "durationTicks": 239,
          "midi": 72,
          "name": "C5",
          "ticks": 42000,
          "time": 43.1250185,
          "velocity": 0.6299212598425197
        },
        {
          "duration": 1.2491329437500056,
          "durationTicks": 1439,
          "midi": 78,
          "name": "F#5",
          "ticks": 42240,
          "time": 43.333352,
          "velocity": 0.6299212598425197
        },
        {
          "duration": 0.20746544374999587,
          "durationTicks": 239,
          "midi": 58,
          "name": "A#3",
          "ticks": 42960,
          "time": 43.958352500000004,
          "velocity": 0.6299212598425197
        },
        {
          "duration": 0.20746544375000298,
          "durationTicks": 239,
          "midi": 61,
          "name": "C#4",
          "ticks": 43200,
          "time": 44.166686,
          "velocity": 0.6299212598425197
        },
        {
          "duration": 0.20746544375000298,
          "durationTicks": 239,
          "midi": 66,
          "name": "F#4",
          "ticks": 43440,
          "time": 44.3750195,
          "velocity": 0.6299212598425197
        },
        {
          "duration": 0.20746544374999587,
          "durationTicks": 239,
          "midi": 70,
          "name": "A#4",
          "ticks": 43680,
          "time": 44.583353,
          "velocity": 0.6299212598425197
        },
        {
          "duration": 0.20746544375000298,
          "durationTicks": 239,
          "midi": 66,
          "name": "F#4",
          "ticks": 43920,
          "time": 44.7916865,
          "velocity": 0.6299212598425197
        },
        {
          "duration": 0.20746544375000298,
          "durationTicks": 239,
          "midi": 61,
          "name": "C#4",
          "ticks": 44160,
          "time": 45.00002,
          "velocity": 0.6299212598425197
        },
        {
          "duration": 1.2491329437500056,
          "durationTicks": 1439,
          "midi": 59,
          "name": "B3",
          "ticks": 45120,
          "time": 45.833354,
          "velocity": 0.6299212598425197
        },
        {
          "duration": 0.4157989437499978,
          "durationTicks": 479,
          "midi": 77,
          "name": "F5",
          "ticks": 46560,
          "time": 47.083355000000005,
          "velocity": 0.6299212598425197
        },
        {
          "duration": 0.6241324437499998,
          "durationTicks": 719,
          "midi": 75,
          "name": "D#5",
          "ticks": 47040,
          "time": 47.500022,
          "velocity": 0.6299212598425197
        },
        {
          "duration": 0.20746544375000298,
          "durationTicks": 239,
          "midi": 73,
          "name": "C#5",
          "ticks": 47760,
          "time": 48.1250225,
          "velocity": 0.6299212598425197
        },
        {
          "duration": 2.499133943750003,
          "durationTicks": 2879,
          "midi": 77,
          "name": "F5",
          "ticks": 48000,
          "time": 48.333356,
          "velocity": 0.6299212598425197
        },
        {
          "duration": 0.20746544375000298,
          "durationTicks": 239,
          "midi": 53,
          "name": "F3",
          "ticks": 48720,
          "time": 48.9583565,
          "velocity": 0.6299212598425197
        },
        {
          "duration": 0.20746544375000298,
          "durationTicks": 239,
          "midi": 56,
          "name": "G#3",
          "ticks": 48960,
          "time": 49.16669,
          "velocity": 0.6299212598425197
        },
        {
          "duration": 0.20746544374999587,
          "durationTicks": 239,
          "midi": 61,
          "name": "C#4",
          "ticks": 49200,
          "time": 49.375023500000005,
          "velocity": 0.6299212598425197
        },
        {
          "duration": 0.20746544375000298,
          "durationTicks": 239,
          "midi": 65,
          "name": "F4",
          "ticks": 49440,
          "time": 49.583357,
          "velocity": 0.6299212598425197
        },
        {
          "duration": 0.20746544375000298,
          "durationTicks": 239,
          "midi": 61,
          "name": "C#4",
          "ticks": 49680,
          "time": 49.7916905,
          "velocity": 0.6299212598425197
        },
        {
          "duration": 0.20746544375000298,
          "durationTicks": 239,
          "midi": 56,
          "name": "G#3",
          "ticks": 49920,
          "time": 50.000024,
          "velocity": 0.6299212598425197
        },
        {
          "duration": 0.20746544375000298,
          "durationTicks": 239,
          "midi": 56,
          "name": "G#3",
          "ticks": 51600,
          "time": 51.4583585,
          "velocity": 0.6299212598425197
        },
        {
          "duration": 0.20746544374999587,
          "durationTicks": 239,
          "midi": 60,
          "name": "C4",
          "ticks": 51840,
          "time": 51.666692000000005,
          "velocity": 0.6299212598425197
        },
        {
          "duration": 0.20746544375000298,
          "durationTicks": 239,
          "midi": 65,
          "name": "F4",
          "ticks": 52080,
          "time": 51.8750255,
          "velocity": 0.6299212598425197
        },
        {
          "duration": 0.20746544375000298,
          "durationTicks": 239,
          "midi": 68,
          "name": "G#4",
          "ticks": 52320,
          "time": 52.083359,
          "velocity": 0.6299212598425197
        },
        {
          "duration": 0.20746544375000298,
          "durationTicks": 239,
          "midi": 65,
          "name": "F4",
          "ticks": 52560,
          "time": 52.2916925,
          "velocity": 0.6299212598425197
        },
        {
          "duration": 0.20746544374999587,
          "durationTicks": 239,
          "midi": 60,
          "name": "C4",
          "ticks": 52800,
          "time": 52.500026000000005,
          "velocity": 0.6299212598425197
        },
        {
          "duration": 1.2491329437499985,
          "durationTicks": 1439,
          "midi": 68,
          "name": "G#4",
          "ticks": 53760,
          "time": 53.333360000000006,
          "velocity": 0.6299212598425197
        },
        {
          "duration": 0.20746544374999587,
          "durationTicks": 239,
          "midi": 53,
          "name": "F3",
          "ticks": 54480,
          "time": 53.958360500000005,
          "velocity": 0.6299212598425197
        },
        {
          "duration": 0.20746544375000298,
          "durationTicks": 239,
          "midi": 56,
          "name": "G#3",
          "ticks": 54720,
          "time": 54.166694,
          "velocity": 0.6299212598425197
        },
        {
          "duration": 0.20746544375000298,
          "durationTicks": 239,
          "midi": 61,
          "name": "C#4",
          "ticks": 54960,
          "time": 54.3750275,
          "velocity": 0.6299212598425197
        },
        {
          "duration": 0.20746544375000298,
          "durationTicks": 239,
          "midi": 65,
          "name": "F4",
          "ticks": 55200,
          "time": 54.583361000000004,
          "velocity": 0.6299212598425197
        },
        {
          "duration": 0.20746544374999587,
          "durationTicks": 239,
          "midi": 61,
          "name": "C#4",
          "ticks": 55440,
          "time": 54.791694500000006,
          "velocity": 0.6299212598425197
        },
        {
          "duration": 0.20746544375000298,
          "durationTicks": 239,
          "midi": 56,
          "name": "G#3",
          "ticks": 55680,
          "time": 55.000028,
          "velocity": 0.6299212598425197
        },
        {
          "duration": 0.4157989437499978,
          "durationTicks": 479,
          "midi": 68,
          "name": "G#4",
          "ticks": 56160,
          "time": 55.416695000000004,
          "velocity": 0.6299212598425197
        },
        {
          "duration": 1.2491329437500056,
          "durationTicks": 1439,
          "midi": 72,
          "name": "C5",
          "ticks": 56640,
          "time": 55.833362,
          "velocity": 0.6299212598425197
        },
        {
          "duration": 0.20746544375000298,
          "durationTicks": 239,
          "midi": 56,
          "name": "G#3",
          "ticks": 57360,
          "time": 56.4583625,
          "velocity": 0.6299212598425197
        },
        {
          "duration": 0.20746544375000298,
          "durationTicks": 239,
          "midi": 60,
          "name": "C4",
          "ticks": 57600,
          "time": 56.666696,
          "velocity": 0.6299212598425197
        },
        {
          "duration": 0.20746544375000298,
          "durationTicks": 239,
          "midi": 65,
          "name": "F4",
          "ticks": 57840,
          "time": 56.875029500000004,
          "velocity": 0.6299212598425197
        },
        {
          "duration": 0.20746544374999587,
          "durationTicks": 239,
          "midi": 68,
          "name": "G#4",
          "ticks": 58080,
          "time": 57.083363000000006,
          "velocity": 0.6299212598425197
        },
        {
          "duration": 0.20746544375000298,
          "durationTicks": 239,
          "midi": 65,
          "name": "F4",
          "ticks": 58320,
          "time": 57.2916965,
          "velocity": 0.6299212598425197
        },
        {
          "duration": 0.20746544375000298,
          "durationTicks": 239,
          "midi": 60,
          "name": "C4",
          "ticks": 58560,
          "time": 57.50003,
          "velocity": 0.6299212598425197
        },
        {
          "duration": 1.2491329437499985,
          "durationTicks": 1439,
          "midi": 68,
          "name": "G#4",
          "ticks": 59520,
          "time": 58.333364,
          "velocity": 0.6299212598425197
        },
        {
          "duration": 0.20746544375000298,
          "durationTicks": 239,
          "midi": 53,
          "name": "F3",
          "ticks": 60240,
          "time": 58.9583645,
          "velocity": 0.6299212598425197
        },
        {
          "duration": 0.20746544375000298,
          "durationTicks": 239,
          "midi": 56,
          "name": "G#3",
          "ticks": 60480,
          "time": 59.166698000000004,
          "velocity": 0.6299212598425197
        },
        {
          "duration": 0.20746544374999587,
          "durationTicks": 239,
          "midi": 61,
          "name": "C#4",
          "ticks": 60720,
          "time": 59.375031500000006,
          "velocity": 0.6299212598425197
        },
        {
          "duration": 0.20746544375000298,
          "durationTicks": 239,
          "midi": 65,
          "name": "F4",
          "ticks": 60960,
          "time": 59.583365,
          "velocity": 0.6299212598425197
        },
        {
          "duration": 0.20746544375000298,
          "durationTicks": 239,
          "midi": 61,
          "name": "C#4",
          "ticks": 61200,
          "time": 59.7916985,
          "velocity": 0.6299212598425197
        },
        {
          "duration": 0.20746544374999587,
          "durationTicks": 239,
          "midi": 56,
          "name": "G#3",
          "ticks": 61440,
          "time": 60.000032000000004,
          "velocity": 0.6299212598425197
        },
        {
          "duration": 0.4157989437500049,
          "durationTicks": 479,
          "midi": 68,
          "name": "G#4",
          "ticks": 61920,
          "time": 60.416699,
          "velocity": 0.6299212598425197
        },
        {
          "duration": 2.499133943749996,
          "durationTicks": 2879,
          "midi": 72,
          "name": "C5",
          "ticks": 62400,
          "time": 60.833366000000005,
          "velocity": 0.6299212598425197
        },
        {
          "duration": 0.20746544375000298,
          "durationTicks": 239,
          "midi": 56,
          "name": "G#3",
          "ticks": 63120,
          "time": 61.458366500000004,
          "velocity": 0.6299212598425197
        },
        {
          "duration": 0.20746544374999587,
          "durationTicks": 239,
          "midi": 60,
          "name": "C4",
          "ticks": 63360,
          "time": 61.666700000000006,
          "velocity": 0.6299212598425197
        },
        {
          "duration": 0.20746544375000298,
          "durationTicks": 239,
          "midi": 65,
          "name": "F4",
          "ticks": 63600,
          "time": 61.8750335,
          "velocity": 0.6299212598425197
        },
        {
          "duration": 0.20746544375000298,
          "durationTicks": 239,
          "midi": 68,
          "name": "G#4",
          "ticks": 63840,
          "time": 62.083367,
          "velocity": 0.6299212598425197
        },
        {
          "duration": 0.20746544374999587,
          "durationTicks": 239,
          "midi": 65,
          "name": "F4",
          "ticks": 64080,
          "time": 62.291700500000005,
          "velocity": 0.6299212598425197
        },
        {
          "duration": 0.20746544375000298,
          "durationTicks": 239,
          "midi": 60,
          "name": "C4",
          "ticks": 64320,
          "time": 62.500034,
          "velocity": 0.6299212598425197
        },
        {
          "duration": 1.2491329437500056,
          "durationTicks": 1439,
          "midi": 77,
          "name": "F5",
          "ticks": 65280,
          "time": 63.333368,
          "velocity": 0.6299212598425197
        },
        {
          "duration": 0.20746544374999587,
          "durationTicks": 239,
          "midi": 68,
          "name": "G#4",
          "ticks": 66240,
          "time": 64.166702,
          "velocity": 0.6299212598425197
        },
        {
          "duration": 0.20746544375001008,
          "durationTicks": 239,
          "midi": 72,
          "name": "C5",
          "ticks": 66480,
          "time": 64.3750355,
          "velocity": 0.6299212598425197
        },
        {
          "duration": 1.2491329437499985,
          "durationTicks": 1439,
          "midi": 77,
          "name": "F5",
          "ticks": 66720,
          "time": 64.583369,
          "velocity": 0.6299212598425197
        },
        {
          "duration": 1.2491329437499985,
          "durationTicks": 1439,
          "midi": 72,
          "name": "C5",
          "ticks": 66720,
          "time": 64.583369,
          "velocity": 0.6299212598425197
        },
        {
          "duration": 0.20746544374999587,
          "durationTicks": 239,
          "midi": 68,
          "name": "G#4",
          "ticks": 67680,
          "time": 65.416703,
          "velocity": 0.6299212598425197
        },
        {
          "duration": 0.20746544375001008,
          "durationTicks": 239,
          "midi": 72,
          "name": "C5",
          "ticks": 67920,
          "time": 65.6250365,
          "velocity": 0.6299212598425197
        },
        {
          "duration": 0.3116321937500004,
          "durationTicks": 359,
          "midi": 77,
          "name": "F5",
          "ticks": 68160,
          "time": 65.83337,
          "velocity": 0.6299212598425197
        },
        {
          "duration": 0.3116321937500004,
          "durationTicks": 359,
          "midi": 72,
          "name": "C5",
          "ticks": 68160,
          "time": 65.83337,
          "velocity": 0.6299212598425197
        },
        {
          "duration": 0.3116321937500004,
          "durationTicks": 359,
          "midi": 68,
          "name": "G#4",
          "ticks": 68520,
          "time": 66.14587025,
          "velocity": 0.6299212598425197
        },
        {
          "duration": 0.3116321937500004,
          "durationTicks": 359,
          "midi": 79,
          "name": "G5",
          "ticks": 68880,
          "time": 66.4583705,
          "velocity": 0.6299212598425197
        },
        {
          "duration": 0.3116321937500004,
          "durationTicks": 359,
          "midi": 74,
          "name": "D5",
          "ticks": 68880,
          "time": 66.4583705,
          "velocity": 0.6299212598425197
        },
        {
          "duration": 0.3116321937500004,
          "durationTicks": 359,
          "midi": 70,
          "name": "A#4",
          "ticks": 69240,
          "time": 66.77087075,
          "velocity": 0.6299212598425197
        },
        {
          "duration": 0.3116321937500004,
          "durationTicks": 359,
          "midi": 79,
          "name": "G5",
          "ticks": 69600,
          "time": 67.083371,
          "velocity": 0.6299212598425197
        },
        {
          "duration": 0.3116321937500004,
          "durationTicks": 359,
          "midi": 74,
          "name": "D5",
          "ticks": 69600,
          "time": 67.083371,
          "velocity": 0.6299212598425197
        },
        {
          "duration": 0.3116321937500004,
          "durationTicks": 359,
          "midi": 70,
          "name": "A#4",
          "ticks": 69960,
          "time": 67.39587125,
          "velocity": 0.6299212598425197
        },
        {
          "duration": 0.6241324437499998,
          "durationTicks": 719,
          "midi": 77,
          "name": "F5",
          "ticks": 70320,
          "time": 67.7083715,
          "velocity": 0.6299212598425197
        },
        {
          "duration": 0.6241324437499998,
          "durationTicks": 719,
          "midi": 68,
          "name": "G#4",
          "ticks": 70320,
          "time": 67.7083715,
          "velocity": 0.6299212598425197
        },
        {
          "duration": 2.4986979166666714,
          "durationTicks": 1919,
          "midi": 75,
          "name": "D#5",
          "ticks": 71040,
          "time": 68.333372,
          "velocity": 0.6299212598425197
        },
        {
          "duration": 2.4986979166666714,
          "durationTicks": 1919,
          "midi": 70,
          "name": "A#4",
          "ticks": 71040,
          "time": 68.333372,
          "velocity": 0.6299212598425197
        },
        {
          "duration": 2.4986979166666714,
          "durationTicks": 1919,
          "midi": 67,
          "name": "G4",
          "ticks": 71040,
          "time": 68.333372,
          "velocity": 0.6299212598425197
        },
        {
          "duration": 0.1774552625000041,
          "durationTicks": 159,
          "midi": 79,
          "name": "G5",
          "ticks": 73440,
          "time": 71.369086,
          "velocity": 0.6299212598425197
        },
        {
          "duration": 0.1774552625000041,
          "durationTicks": 159,
          "midi": 82,
          "name": "A#5",
          "ticks": 73600,
          "time": 71.54765733333333,
          "velocity": 0.6299212598425197
        },
        {
          "duration": 0.1774552625000041,
          "durationTicks": 159,
          "midi": 87,
          "name": "D#6",
          "ticks": 73760,
          "time": 71.72622866666666,
          "velocity": 0.6299212598425197
        },
        {
          "duration": 1.6060259291666625,
          "durationTicks": 1439,
          "midi": 91,
          "name": "G6",
          "ticks": 73920,
          "time": 71.9048,
          "velocity": 0.6299212598425197
        },
        {
          "duration": 0.1774552625000041,
          "durationTicks": 159,
          "midi": 67,
          "name": "G4",
          "ticks": 75360,
          "time": 73.51194199999999,
          "velocity": 0.6299212598425197
        },
        {
          "duration": 0.1774552625000041,
          "durationTicks": 159,
          "midi": 72,
          "name": "C5",
          "ticks": 75520,
          "time": 73.69051333333333,
          "velocity": 0.6299212598425197
        },
        {
          "duration": 0.1774552625000041,
          "durationTicks": 159,
          "midi": 75,
          "name": "D#5",
          "ticks": 75680,
          "time": 73.86908466666667,
          "velocity": 0.6299212598425197
        },
        {
          "duration": 0.1377315916666646,
          "durationTicks": 119,
          "midi": 79,
          "name": "G5",
          "ticks": 75840,
          "time": 74.047656,
          "velocity": 0.6299212598425197
        },
        {
          "duration": 0.1377315916666646,
          "durationTicks": 119,
          "midi": 77,
          "name": "F5",
          "ticks": 75960,
          "time": 74.18654500000001,
          "velocity": 0.6299212598425197
        },
        {
          "duration": 0.1377315916666646,
          "durationTicks": 119,
          "midi": 75,
          "name": "D#5",
          "ticks": 76080,
          "time": 74.325434,
          "velocity": 0.6299212598425197
        },
        {
          "duration": 0.1377315916666646,
          "durationTicks": 119,
          "midi": 72,
          "name": "C5",
          "ticks": 76200,
          "time": 74.46432300000001,
          "velocity": 0.6299212598425197
        },
        {
          "duration": 0.1377315916666646,
          "durationTicks": 119,
          "midi": 67,
          "name": "G4",
          "ticks": 76320,
          "time": 74.603212,
          "velocity": 0.6299212598425197
        },
        {
          "duration": 0.1377315916666646,
          "durationTicks": 119,
          "midi": 69,
          "name": "A4",
          "ticks": 76440,
          "time": 74.742101,
          "velocity": 0.6299212598425197
        },
        {
          "duration": 0.1377315916666788,
          "durationTicks": 119,
          "midi": 67,
          "name": "G4",
          "ticks": 76560,
          "time": 74.88099,
          "velocity": 0.6299212598425197
        },
        {
          "duration": 0.1377315916666646,
          "durationTicks": 119,
          "midi": 69,
          "name": "A4",
          "ticks": 76680,
          "time": 75.019879,
          "velocity": 0.6299212598425197
        },
        {
          "duration": 0.1377315916666646,
          "durationTicks": 119,
          "midi": 79,
          "name": "G5",
          "ticks": 76800,
          "time": 75.15876800000001,
          "velocity": 0.6299212598425197
        },
        {
          "duration": 0.1377315916666646,
          "durationTicks": 119,
          "midi": 77,
          "name": "F5",
          "ticks": 76920,
          "time": 75.297657,
          "velocity": 0.6299212598425197
        },
        {
          "duration": 0.1377315916666646,
          "durationTicks": 119,
          "midi": 75,
          "name": "D#5",
          "ticks": 77040,
          "time": 75.436546,
          "velocity": 0.6299212598425197
        },
        {
          "duration": 0.1377315916666646,
          "durationTicks": 119,
          "midi": 72,
          "name": "C5",
          "ticks": 77160,
          "time": 75.575435,
          "velocity": 0.6299212598425197
        },
        {
          "duration": 0.1377315916666646,
          "durationTicks": 119,
          "midi": 67,
          "name": "G4",
          "ticks": 77280,
          "time": 75.714324,
          "velocity": 0.6299212598425197
        },
        {
          "duration": 0.1377315916666788,
          "durationTicks": 119,
          "midi": 69,
          "name": "A4",
          "ticks": 77400,
          "time": 75.853213,
          "velocity": 0.6299212598425197
        },
        {
          "duration": 0.1377315916666646,
          "durationTicks": 119,
          "midi": 67,
          "name": "G4",
          "ticks": 77520,
          "time": 75.992102,
          "velocity": 0.6299212598425197
        },
        {
          "duration": 0.1377315916666646,
          "durationTicks": 119,
          "midi": 69,
          "name": "A4",
          "ticks": 77640,
          "time": 76.13099100000001,
          "velocity": 0.6299212598425197
        },
        {
          "duration": 0.1377315916666646,
          "durationTicks": 119,
          "midi": 82,
          "name": "A#5",
          "ticks": 77760,
          "time": 76.26988,
          "velocity": 0.6299212598425197
        },
        {
          "duration": 0.1377315916666646,
          "durationTicks": 119,
          "midi": 80,
          "name": "G#5",
          "ticks": 77880,
          "time": 76.408769,
          "velocity": 0.6299212598425197
        },
        {
          "duration": 0.1377315916666788,
          "durationTicks": 119,
          "midi": 78,
          "name": "F#5",
          "ticks": 78000,
          "time": 76.547658,
          "velocity": 0.6299212598425197
        },
        {
          "duration": 0.1377315916666646,
          "durationTicks": 119,
          "midi": 75,
          "name": "D#5",
          "ticks": 78120,
          "time": 76.686547,
          "velocity": 0.6299212598425197
        },
        {
          "duration": 0.1377315916666646,
          "durationTicks": 119,
          "midi": 70,
          "name": "A#4",
          "ticks": 78240,
          "time": 76.82543600000001,
          "velocity": 0.6299212598425197
        },
        {
          "duration": 0.1377315916666646,
          "durationTicks": 119,
          "midi": 72,
          "name": "C5",
          "ticks": 78360,
          "time": 76.964325,
          "velocity": 0.6299212598425197
        },
        {
          "duration": 0.1377315916666646,
          "durationTicks": 119,
          "midi": 70,
          "name": "A#4",
          "ticks": 78480,
          "time": 77.10321400000001,
          "velocity": 0.6299212598425197
        },
        {
          "duration": 0.1377315916666646,
          "durationTicks": 119,
          "midi": 72,
          "name": "C5",
          "ticks": 78600,
          "time": 77.242103,
          "velocity": 0.6299212598425197
        },
        {
          "duration": 0.1377315916666646,
          "durationTicks": 119,
          "midi": 82,
          "name": "A#5",
          "ticks": 78720,
          "time": 77.380992,
          "velocity": 0.6299212598425197
        },
        {
          "duration": 0.1377315916666788,
          "durationTicks": 119,
          "midi": 80,
          "name": "G#5",
          "ticks": 78840,
          "time": 77.519881,
          "velocity": 0.6299212598425197
        },
        {
          "duration": 0.1377315916666646,
          "durationTicks": 119,
          "midi": 78,
          "name": "F#5",
          "ticks": 78960,
          "time": 77.65877,
          "velocity": 0.6299212598425197
        },
        {
          "duration": 0.1377315916666646,
          "durationTicks": 119,
          "midi": 75,
          "name": "D#5",
          "ticks": 79080,
          "time": 77.79765900000001,
          "velocity": 0.6299212598425197
        },
        {
          "duration": 0.1377315916666646,
          "durationTicks": 119,
          "midi": 70,
          "name": "A#4",
          "ticks": 79200,
          "time": 77.936548,
          "velocity": 0.6299212598425197
        },
        {
          "duration": 0.1377315916666646,
          "durationTicks": 119,
          "midi": 72,
          "name": "C5",
          "ticks": 79320,
          "time": 78.07543700000001,
          "velocity": 0.6299212598425197
        },
        {
          "duration": 0.1377315916666646,
          "durationTicks": 119,
          "midi": 70,
          "name": "A#4",
          "ticks": 79440,
          "time": 78.214326,
          "velocity": 0.6299212598425197
        },
        {
          "duration": 0.1377315916666646,
          "durationTicks": 119,
          "midi": 72,
          "name": "C5",
          "ticks": 79560,
          "time": 78.353215,
          "velocity": 0.6299212598425197
        },
        {
          "duration": 0.1377315916666788,
          "durationTicks": 119,
          "midi": 85,
          "name": "C#6",
          "ticks": 79680,
          "time": 78.492104,
          "velocity": 0.6299212598425197
        },
        {
          "duration": 0.1377315916666646,
          "durationTicks": 119,
          "midi": 84,
          "name": "C6",
          "ticks": 79800,
          "time": 78.630993,
          "velocity": 0.6299212598425197
        },
        {
          "duration": 0.1377315916666646,
          "durationTicks": 119,
          "midi": 82,
          "name": "A#5",
          "ticks": 79920,
          "time": 78.76988200000001,
          "velocity": 0.6299212598425197
        },
        {
          "duration": 0.1377315916666646,
          "durationTicks": 119,
          "midi": 78,
          "name": "F#5",
          "ticks": 80040,
          "time": 78.908771,
          "velocity": 0.6299212598425197
        },
        {
          "duration": 0.1377315916666646,
          "durationTicks": 119,
          "midi": 73,
          "name": "C#5",
          "ticks": 80160,
          "time": 79.04766000000001,
          "velocity": 0.6299212598425197
        },
        {
          "duration": 0.1377315916666788,
          "durationTicks": 119,
          "midi": 75,
          "name": "D#5",
          "ticks": 80280,
          "time": 79.186549,
          "velocity": 0.6299212598425197
        },
        {
          "duration": 0.1377315916666646,
          "durationTicks": 119,
          "midi": 73,
          "name": "C#5",
          "ticks": 80400,
          "time": 79.325438,
          "velocity": 0.6299212598425197
        },
        {
          "duration": 0.1377315916666788,
          "durationTicks": 119,
          "midi": 75,
          "name": "D#5",
          "ticks": 80520,
          "time": 79.464327,
          "velocity": 0.6299212598425197
        },
        {
          "duration": 0.1377315916666646,
          "durationTicks": 119,
          "midi": 85,
          "name": "C#6",
          "ticks": 80640,
          "time": 79.603216,
          "velocity": 0.6299212598425197
        },
        {
          "duration": 0.1377315916666646,
          "durationTicks": 119,
          "midi": 84,
          "name": "C6",
          "ticks": 80760,
          "time": 79.74210500000001,
          "velocity": 0.6299212598425197
        },
        {
          "duration": 0.1377315916666646,
          "durationTicks": 119,
          "midi": 82,
          "name": "A#5",
          "ticks": 80880,
          "time": 79.880994,
          "velocity": 0.6299212598425197
        },
        {
          "duration": 0.1377315916666646,
          "durationTicks": 119,
          "midi": 78,
          "name": "F#5",
          "ticks": 81000,
          "time": 80.01988300000001,
          "velocity": 0.6299212598425197
        },
        {
          "duration": 0.1377315916666646,
          "durationTicks": 119,
          "midi": 73,
          "name": "C#5",
          "ticks": 81120,
          "time": 80.158772,
          "velocity": 0.6299212598425197
        },
        {
          "duration": 0.1377315916666646,
          "durationTicks": 119,
          "midi": 75,
          "name": "D#5",
          "ticks": 81240,
          "time": 80.297661,
          "velocity": 0.6299212598425197
        },
        {
          "duration": 0.1377315916666646,
          "durationTicks": 119,
          "midi": 73,
          "name": "C#5",
          "ticks": 81360,
          "time": 80.43655000000001,
          "velocity": 0.6299212598425197
        },
        {
          "duration": 0.1377315916666646,
          "durationTicks": 119,
          "midi": 75,
          "name": "D#5",
          "ticks": 81480,
          "time": 80.575439,
          "velocity": 0.6299212598425197
        },
        {
          "duration": 0.1377315916666646,
          "durationTicks": 119,
          "midi": 85,
          "name": "C#6",
          "ticks": 81600,
          "time": 80.71432800000001,
          "velocity": 0.6299212598425197
        },
        {
          "duration": 0.1377315916666646,
          "durationTicks": 119,
          "midi": 84,
          "name": "C6",
          "ticks": 81720,
          "time": 80.853217,
          "velocity": 0.6299212598425197
        },
        {
          "duration": 0.1377315916666646,
          "durationTicks": 119,
          "midi": 82,
          "name": "A#5",
          "ticks": 81840,
          "time": 80.992106,
          "velocity": 0.6299212598425197
        },
        {
          "duration": 0.1377315916666788,
          "durationTicks": 119,
          "midi": 78,
          "name": "F#5",
          "ticks": 81960,
          "time": 81.130995,
          "velocity": 0.6299212598425197
        },
        {
          "duration": 0.1377315916666646,
          "durationTicks": 119,
          "midi": 73,
          "name": "C#5",
          "ticks": 82080,
          "time": 81.269884,
          "velocity": 0.6299212598425197
        },
        {
          "duration": 0.1377315916666646,
          "durationTicks": 119,
          "midi": 75,
          "name": "D#5",
          "ticks": 82200,
          "time": 81.40877300000001,
          "velocity": 0.6299212598425197
        },
        {
          "duration": 0.1377315916666646,
          "durationTicks": 119,
          "midi": 73,
          "name": "C#5",
          "ticks": 82320,
          "time": 81.547662,
          "velocity": 0.6299212598425197
        },
        {
          "duration": 0.1377315916666646,
          "durationTicks": 119,
          "midi": 75,
          "name": "D#5",
          "ticks": 82440,
          "time": 81.68655100000001,
          "velocity": 0.6299212598425197
        },
        {
          "duration": 0.1377315916666646,
          "durationTicks": 119,
          "midi": 85,
          "name": "C#6",
          "ticks": 82560,
          "time": 81.82544,
          "velocity": 0.6299212598425197
        },
        {
          "duration": 0.1377315916666646,
          "durationTicks": 119,
          "midi": 84,
          "name": "C6",
          "ticks": 82680,
          "time": 81.964329,
          "velocity": 0.6299212598425197
        },
        {
          "duration": 0.1377315916666788,
          "durationTicks": 119,
          "midi": 82,
          "name": "A#5",
          "ticks": 82800,
          "time": 82.103218,
          "velocity": 0.6299212598425197
        },
        {
          "duration": 0.1377315916666646,
          "durationTicks": 119,
          "midi": 78,
          "name": "F#5",
          "ticks": 82920,
          "time": 82.242107,
          "velocity": 0.6299212598425197
        },
        {
          "duration": 0.1377315916666646,
          "durationTicks": 119,
          "midi": 73,
          "name": "C#5",
          "ticks": 83040,
          "time": 82.38099600000001,
          "velocity": 0.6299212598425197
        },
        {
          "duration": 0.1377315916666646,
          "durationTicks": 119,
          "midi": 75,
          "name": "D#5",
          "ticks": 83160,
          "time": 82.519885,
          "velocity": 0.6299212598425197
        },
        {
          "duration": 0.1377315916666646,
          "durationTicks": 119,
          "midi": 73,
          "name": "C#5",
          "ticks": 83280,
          "time": 82.65877400000001,
          "velocity": 0.6299212598425197
        },
        {
          "duration": 0.1377315916666646,
          "durationTicks": 119,
          "midi": 75,
          "name": "D#5",
          "ticks": 83400,
          "time": 82.797663,
          "velocity": 0.6299212598425197
        },
        {
          "duration": 1.1099545916666642,
          "durationTicks": 959,
          "midi": 77,
          "name": "F5",
          "ticks": 83520,
          "time": 82.936552,
          "velocity": 0.6299212598425197
        },
        {
          "duration": 1.1099545916666784,
          "durationTicks": 959,
          "midi": 101,
          "name": "F7",
          "ticks": 84480,
          "time": 84.047664,
          "velocity": 0.6299212598425197
        },
        {
          "duration": 0.1377315916666646,
          "durationTicks": 119,
          "midi": 99,
          "name": "D#7",
          "ticks": 85440,
          "time": 85.158776,
          "velocity": 0.6299212598425197
        },
        {
          "duration": 0.1377315916666646,
          "durationTicks": 119,
          "midi": 97,
          "name": "C#7",
          "ticks": 85560,
          "time": 85.29766500000001,
          "velocity": 0.6299212598425197
        },
        {
          "duration": 0.1377315916666646,
          "durationTicks": 119,
          "midi": 96,
          "name": "C7",
          "ticks": 85680,
          "time": 85.436554,
          "velocity": 0.6299212598425197
        },
        {
          "duration": 0.1377315916666646,
          "durationTicks": 119,
          "midi": 94,
          "name": "A#6",
          "ticks": 85800,
          "time": 85.575443,
          "velocity": 0.6299212598425197
        },
        {
          "duration": 0.1377315916666788,
          "durationTicks": 119,
          "midi": 92,
          "name": "G#6",
          "ticks": 85920,
          "time": 85.714332,
          "velocity": 0.6299212598425197
        },
        {
          "duration": 0.1377315916666646,
          "durationTicks": 119,
          "midi": 90,
          "name": "F#6",
          "ticks": 86040,
          "time": 85.853221,
          "velocity": 0.6299212598425197
        },
        {
          "duration": 0.1377315916666788,
          "durationTicks": 119,
          "midi": 89,
          "name": "F6",
          "ticks": 86160,
          "time": 85.99211,
          "velocity": 0.6299212598425197
        },
        {
          "duration": 0.1377315916666646,
          "durationTicks": 119,
          "midi": 87,
          "name": "D#6",
          "ticks": 86280,
          "time": 86.130999,
          "velocity": 0.6299212598425197
        },
        {
          "duration": 0.1377315916666646,
          "durationTicks": 119,
          "midi": 85,
          "name": "C#6",
          "ticks": 86400,
          "time": 86.26988800000001,
          "velocity": 0.6299212598425197
        },
        {
          "duration": 0.1377315916666646,
          "durationTicks": 119,
          "midi": 84,
          "name": "C6",
          "ticks": 86520,
          "time": 86.408777,
          "velocity": 0.6299212598425197
        },
        {
          "duration": 0.1377315916666646,
          "durationTicks": 119,
          "midi": 82,
          "name": "A#5",
          "ticks": 86640,
          "time": 86.547666,
          "velocity": 0.6299212598425197
        },
        {
          "duration": 0.1377315916666646,
          "durationTicks": 119,
          "midi": 80,
          "name": "G#5",
          "ticks": 86760,
          "time": 86.686555,
          "velocity": 0.6299212598425197
        },
        {
          "duration": 0.1377315916666646,
          "durationTicks": 119,
          "midi": 78,
          "name": "F#5",
          "ticks": 86880,
          "time": 86.825444,
          "velocity": 0.6299212598425197
        },
        {
          "duration": 0.1377315916666646,
          "durationTicks": 119,
          "midi": 77,
          "name": "F5",
          "ticks": 87000,
          "time": 86.96433300000001,
          "velocity": 0.6299212598425197
        },
        {
          "duration": 0.1377315916666646,
          "durationTicks": 119,
          "midi": 75,
          "name": "D#5",
          "ticks": 87120,
          "time": 87.103222,
          "velocity": 0.6299212598425197
        },
        {
          "duration": 0.1377315916666646,
          "durationTicks": 119,
          "midi": 73,
          "name": "C#5",
          "ticks": 87240,
          "time": 87.24211100000001,
          "velocity": 0.6299212598425197
        },
        {
          "duration": 0.1377315916666646,
          "durationTicks": 119,
          "midi": 72,
          "name": "C5",
          "ticks": 87360,
          "time": 87.381,
          "velocity": 0.6299212598425197
        },
        {
          "duration": 0.1377315916666646,
          "durationTicks": 119,
          "midi": 70,
          "name": "A#4",
          "ticks": 87480,
          "time": 87.519889,
          "velocity": 0.6299212598425197
        },
        {
          "duration": 0.1377315916666646,
          "durationTicks": 119,
          "midi": 68,
          "name": "G#4",
          "ticks": 87600,
          "time": 87.65877800000001,
          "velocity": 0.6299212598425197
        },
        {
          "duration": 0.1377315916666646,
          "durationTicks": 119,
          "midi": 66,
          "name": "F#4",
          "ticks": 87720,
          "time": 87.797667,
          "velocity": 0.6299212598425197
        },
        {
          "duration": 0.1377315916666646,
          "durationTicks": 119,
          "midi": 65,
          "name": "F4",
          "ticks": 87840,
          "time": 87.93655600000001,
          "velocity": 0.6299212598425197
        },
        {
          "duration": 0.1377315916666646,
          "durationTicks": 119,
          "midi": 63,
          "name": "D#4",
          "ticks": 87960,
          "time": 88.075445,
          "velocity": 0.6299212598425197
        },
        {
          "duration": 0.1377315916666646,
          "durationTicks": 119,
          "midi": 61,
          "name": "C#4",
          "ticks": 88080,
          "time": 88.21433400000001,
          "velocity": 0.6299212598425197
        },
        {
          "duration": 0.1377315916666646,
          "durationTicks": 119,
          "midi": 60,
          "name": "C4",
          "ticks": 88200,
          "time": 88.353223,
          "velocity": 0.6299212598425197
        },
        {
          "duration": 4.165512591666669,
          "durationTicks": 3599,
          "midi": 58,
          "name": "A#3",
          "ticks": 88560,
          "time": 88.76989,
          "velocity": 0.6299212598425197
        },
        {
          "duration": 0.41550959166667667,
          "durationTicks": 359,
          "midi": 75,
          "name": "D#5",
          "ticks": 92520,
          "time": 93.353227,
          "velocity": 0.6299212598425197
        },
        {
          "duration": 0.2766205916666564,
          "durationTicks": 239,
          "midi": 82,
          "name": "A#5",
          "ticks": 92880,
          "time": 93.76989400000001,
          "velocity": 0.6299212598425197
        },
        {
          "duration": 0.1377315916666646,
          "durationTicks": 119,
          "midi": 80,
          "name": "G#5",
          "ticks": 93120,
          "time": 94.047672,
          "velocity": 0.6299212598425197
        },
        {
          "duration": 0.1377315916666646,
          "durationTicks": 119,
          "midi": 78,
          "name": "F#5",
          "ticks": 93240,
          "time": 94.18656100000001,
          "velocity": 0.6299212598425197
        },
        {
          "duration": 0.1377315916666646,
          "durationTicks": 119,
          "midi": 75,
          "name": "D#5",
          "ticks": 93360,
          "time": 94.32545,
          "velocity": 0.6299212598425197
        },
        {
          "duration": 0.1377315916666646,
          "durationTicks": 119,
          "midi": 72,
          "name": "C5",
          "ticks": 93480,
          "time": 94.46433900000001,
          "velocity": 0.6299212598425197
        },
        {
          "duration": 0.1377315916666646,
          "durationTicks": 119,
          "midi": 70,
          "name": "A#4",
          "ticks": 93600,
          "time": 94.603228,
          "velocity": 0.6299212598425197
        },
        {
          "duration": 0.1377315916666646,
          "durationTicks": 119,
          "midi": 66,
          "name": "F#4",
          "ticks": 93720,
          "time": 94.74211700000001,
          "velocity": 0.6299212598425197
        },
        {
          "duration": 0.1377315916666646,
          "durationTicks": 119,
          "midi": 63,
          "name": "D#4",
          "ticks": 93840,
          "time": 94.88100600000001,
          "velocity": 0.6299212598425197
        },
        {
          "duration": 0.1377315916666646,
          "durationTicks": 119,
          "midi": 60,
          "name": "C4",
          "ticks": 93960,
          "time": 95.019895,
          "velocity": 0.6299212598425197
        },
        {
          "duration": 1.1099545916666784,
          "durationTicks": 959,
          "midi": 61,
          "name": "C#4",
          "ticks": 94080,
          "time": 95.158784,
          "velocity": 0.6299212598425197
        },
        {
          "duration": 0.33948854583333343,
          "durationTicks": 239,
          "midi": 63,
          "name": "D#4",
          "ticks": 95280,
          "time": 96.547674,
          "velocity": 0.6299212598425197
        },
        {
          "duration": 0.33948854583333343,
          "durationTicks": 239,
          "midi": 65,
          "name": "F4",
          "ticks": 95520,
          "time": 96.888583,
          "velocity": 0.6299212598425197
        },
        {
          "duration": 0.33948854583333343,
          "durationTicks": 239,
          "midi": 66,
          "name": "F#4",
          "ticks": 95760,
          "time": 97.22949200000001,
          "velocity": 0.6299212598425197
        },
        {
          "duration": 4.089487545833336,
          "durationTicks": 2879,
          "midi": 71,
          "name": "B4",
          "ticks": 96000,
          "time": 97.570401,
          "velocity": 0.6299212598425197
        },
        {
          "duration": 0.466796875,
          "durationTicks": 239,
          "midi": 70,
          "name": "A#4",
          "ticks": 99840,
          "time": 103.024945,
          "velocity": 0.6299212598425197
        },
        {
          "duration": 0.466796875,
          "durationTicks": 239,
          "midi": 65,
          "name": "F4",
          "ticks": 99840,
          "time": 103.024945,
          "velocity": 0.6299212598425197
        },
        {
          "duration": 0.466796875,
          "durationTicks": 239,
          "midi": 70,
          "name": "A#4",
          "ticks": 100080,
          "time": 103.493695,
          "velocity": 0.6299212598425197
        },
        {
          "duration": 0.466796875,
          "durationTicks": 239,
          "midi": 65,
          "name": "F4",
          "ticks": 100080,
          "time": 103.493695,
          "velocity": 0.6299212598425197
        },
        {
          "duration": 0.4149303895833327,
          "durationTicks": 239,
          "midi": 70,
          "name": "A#4",
          "ticks": 100320,
          "time": 103.962445,
          "velocity": 0.6299212598425197
        },
        {
          "duration": 0.4149303895833327,
          "durationTicks": 239,
          "midi": 65,
          "name": "F4",
          "ticks": 100320,
          "time": 103.962445,
          "velocity": 0.6299212598425197
        },
        {
          "duration": 0.4149303895833327,
          "durationTicks": 239,
          "midi": 70,
          "name": "A#4",
          "ticks": 100560,
          "time": 104.37911150000001,
          "velocity": 0.6299212598425197
        },
        {
          "duration": 0.4149303895833327,
          "durationTicks": 239,
          "midi": 65,
          "name": "F4",
          "ticks": 100560,
          "time": 104.37911150000001,
          "velocity": 0.6299212598425197
        },
        {
          "duration": 0.4149303895833327,
          "durationTicks": 239,
          "midi": 70,
          "name": "A#4",
          "ticks": 100800,
          "time": 104.795778,
          "velocity": 0.6299212598425197
        },
        {
          "duration": 0.4149303895833327,
          "durationTicks": 239,
          "midi": 66,
          "name": "F#4",
          "ticks": 100800,
          "time": 104.795778,
          "velocity": 0.6299212598425197
        },
        {
          "duration": 0.4149303895833327,
          "durationTicks": 239,
          "midi": 70,
          "name": "A#4",
          "ticks": 101040,
          "time": 105.2124445,
          "velocity": 0.6299212598425197
        },
        {
          "duration": 0.4149303895833327,
          "durationTicks": 239,
          "midi": 66,
          "name": "F#4",
          "ticks": 101040,
          "time": 105.2124445,
          "velocity": 0.6299212598425197
        },
        {
          "duration": 0.4149303895833327,
          "durationTicks": 239,
          "midi": 70,
          "name": "A#4",
          "ticks": 101280,
          "time": 105.62911100000001,
          "velocity": 0.6299212598425197
        },
        {
          "duration": 0.4149303895833327,
          "durationTicks": 239,
          "midi": 66,
          "name": "F#4",
          "ticks": 101280,
          "time": 105.62911100000001,
          "velocity": 0.6299212598425197
        },
        {
          "duration": 0.4149303895833327,
          "durationTicks": 239,
          "midi": 70,
          "name": "A#4",
          "ticks": 101520,
          "time": 106.0457775,
          "velocity": 0.6299212598425197
        },
        {
          "duration": 0.4149303895833327,
          "durationTicks": 239,
          "midi": 66,
          "name": "F#4",
          "ticks": 101520,
          "time": 106.0457775,
          "velocity": 0.6299212598425197
        },
        {
          "duration": 3.331595889583326,
          "durationTicks": 1919,
          "midi": 70,
          "name": "A#4",
          "ticks": 101760,
          "time": 106.462444,
          "velocity": 0.6299212598425197
        },
        {
          "duration": 3.331595889583326,
          "durationTicks": 1919,
          "midi": 65,
          "name": "F4",
          "ticks": 101760,
          "time": 106.462444,
          "velocity": 0.6299212598425197
        },
        {
          "duration": 0.466796875,
          "durationTicks": 239,
          "midi": 70,
          "name": "A#4",
          "ticks": 103680,
          "time": 109.795776,
          "velocity": 0.6299212598425197
        },
        {
          "duration": 0.466796875,
          "durationTicks": 239,
          "midi": 65,
          "name": "F4",
          "ticks": 103680,
          "time": 109.795776,
          "velocity": 0.6299212598425197
        },
        {
          "duration": 0.466796875,
          "durationTicks": 239,
          "midi": 70,
          "name": "A#4",
          "ticks": 103920,
          "time": 110.264526,
          "velocity": 0.6299212598425197
        },
        {
          "duration": 0.466796875,
          "durationTicks": 239,
          "midi": 65,
          "name": "F4",
          "ticks": 103920,
          "time": 110.264526,
          "velocity": 0.6299212598425197
        },
        {
          "duration": 0.4149303895833327,
          "durationTicks": 239,
          "midi": 70,
          "name": "A#4",
          "ticks": 104160,
          "time": 110.733276,
          "velocity": 0.6299212598425197
        },
        {
          "duration": 0.4149303895833327,
          "durationTicks": 239,
          "midi": 65,
          "name": "F4",
          "ticks": 104160,
          "time": 110.733276,
          "velocity": 0.6299212598425197
        },
        {
          "duration": 0.4149303895833327,
          "durationTicks": 239,
          "midi": 70,
          "name": "A#4",
          "ticks": 104400,
          "time": 111.14994250000001,
          "velocity": 0.6299212598425197
        },
        {
          "duration": 0.4149303895833327,
          "durationTicks": 239,
          "midi": 65,
          "name": "F4",
          "ticks": 104400,
          "time": 111.14994250000001,
          "velocity": 0.6299212598425197
        },
        {
          "duration": 0.4149303895833327,
          "durationTicks": 239,
          "midi": 70,
          "name": "A#4",
          "ticks": 104640,
          "time": 111.566609,
          "velocity": 0.6299212598425197
        },
        {
          "duration": 0.4149303895833327,
          "durationTicks": 239,
          "midi": 67,
          "name": "G4",
          "ticks": 104640,
          "time": 111.566609,
          "velocity": 0.6299212598425197
        },
        {
          "duration": 0.4149303895833327,
          "durationTicks": 239,
          "midi": 65,
          "name": "F4",
          "ticks": 104640,
          "time": 111.566609,
          "velocity": 0.6299212598425197
        },
        {
          "duration": 0.4149303895833327,
          "durationTicks": 239,
          "midi": 70,
          "name": "A#4",
          "ticks": 104880,
          "time": 111.9832755,
          "velocity": 0.6299212598425197
        },
        {
          "duration": 0.4149303895833327,
          "durationTicks": 239,
          "midi": 67,
          "name": "G4",
          "ticks": 104880,
          "time": 111.9832755,
          "velocity": 0.6299212598425197
        },
        {
          "duration": 0.4149303895833327,
          "durationTicks": 239,
          "midi": 65,
          "name": "F4",
          "ticks": 104880,
          "time": 111.9832755,
          "velocity": 0.6299212598425197
        },
        {
          "duration": 0.4149303895833327,
          "durationTicks": 239,
          "midi": 70,
          "name": "A#4",
          "ticks": 105120,
          "time": 112.39994200000001,
          "velocity": 0.6299212598425197
        },
        {
          "duration": 0.4149303895833327,
          "durationTicks": 239,
          "midi": 67,
          "name": "G4",
          "ticks": 105120,
          "time": 112.39994200000001,
          "velocity": 0.6299212598425197
        },
        {
          "duration": 0.4149303895833327,
          "durationTicks": 239,
          "midi": 65,
          "name": "F4",
          "ticks": 105120,
          "time": 112.39994200000001,
          "velocity": 0.6299212598425197
        },
        {
          "duration": 0.4149303895833327,
          "durationTicks": 239,
          "midi": 70,
          "name": "A#4",
          "ticks": 105360,
          "time": 112.8166085,
          "velocity": 0.6299212598425197
        },
        {
          "duration": 0.4149303895833327,
          "durationTicks": 239,
          "midi": 67,
          "name": "G4",
          "ticks": 105360,
          "time": 112.8166085,
          "velocity": 0.6299212598425197
        },
        {
          "duration": 0.4149303895833327,
          "durationTicks": 239,
          "midi": 65,
          "name": "F4",
          "ticks": 105360,
          "time": 112.8166085,
          "velocity": 0.6299212598425197
        },
        {
          "duration": 1.664929889583334,
          "durationTicks": 959,
          "midi": 70,
          "name": "A#4",
          "ticks": 105600,
          "time": 113.233275,
          "velocity": 0.6299212598425197
        },
        {
          "duration": 1.664929889583334,
          "durationTicks": 959,
          "midi": 65,
          "name": "F4",
          "ticks": 105600,
          "time": 113.233275,
          "velocity": 0.6299212598425197
        },
        {
          "duration": 1.664929889583334,
          "durationTicks": 959,
          "midi": 61,
          "name": "C#4",
          "ticks": 105600,
          "time": 113.233275,
          "velocity": 0.6299212598425197
        },
        {
          "duration": 0.8315968895833237,
          "durationTicks": 479,
          "midi": 58,
          "name": "A#3",
          "ticks": 107040,
          "time": 115.73327400000001,
          "velocity": 0.6299212598425197
        },
        {
          "duration": 0.27604155624999294,
          "durationTicks": 159,
          "midi": 61,
          "name": "C#4",
          "ticks": 107520,
          "time": 116.566607,
          "velocity": 0.6299212598425197
        },
        {
          "duration": 0.27604155625000715,
          "durationTicks": 159,
          "midi": 65,
          "name": "F4",
          "ticks": 107680,
          "time": 116.84438466666667,
          "velocity": 0.6299212598425197
        },
        {
          "duration": 0.27604155625000715,
          "durationTicks": 159,
          "midi": 70,
          "name": "A#4",
          "ticks": 107840,
          "time": 117.12216233333334,
          "velocity": 0.6299212598425197
        },
        {
          "duration": 0.27604155625000715,
          "durationTicks": 159,
          "midi": 73,
          "name": "C#5",
          "ticks": 108000,
          "time": 117.39994,
          "velocity": 0.6299212598425197
        },
        {
          "duration": 0.27604155625000715,
          "durationTicks": 159,
          "midi": 77,
          "name": "F5",
          "ticks": 108160,
          "time": 117.67771766666667,
          "velocity": 0.6299212598425197
        },
        {
          "duration": 0.27604155625000715,
          "durationTicks": 159,
          "midi": 82,
          "name": "A#5",
          "ticks": 108320,
          "time": 117.95549533333333,
          "velocity": 0.6299212598425197
        },
        {
          "duration": 0.4149303895833327,
          "durationTicks": 239,
          "midi": 85,
          "name": "C#6",
          "ticks": 108480,
          "time": 118.233273,
          "velocity": 0.6299212598425197
        },
        {
          "duration": 0.4149303895833327,
          "durationTicks": 239,
          "midi": 89,
          "name": "F6",
          "ticks": 108720,
          "time": 118.6499395,
          "velocity": 0.6299212598425197
        },
        {
          "duration": 4.1649288895833365,
          "durationTicks": 2399,
          "midi": 94,
          "name": "A#6",
          "ticks": 108960,
          "time": 119.06660600000001,
          "velocity": 0.6299212598425197
        },
        {
          "duration": 1.2491329437499985,
          "durationTicks": 1439,
          "midi": 77,
          "name": "F5",
          "ticks": 111360,
          "time": 123.233271,
          "velocity": 0.6299212598425197
        },
        {
          "duration": 1.2491329437499985,
          "durationTicks": 1439,
          "midi": 65,
          "name": "F4",
          "ticks": 111360,
          "time": 123.233271,
          "velocity": 0.6299212598425197
        },
        {
          "duration": 0.8324659437500088,
          "durationTicks": 959,
          "midi": 77,
          "name": "F5",
          "ticks": 112800,
          "time": 124.483272,
          "velocity": 0.6299212598425197
        },
        {
          "duration": 0.8324659437500088,
          "durationTicks": 959,
          "midi": 65,
          "name": "F4",
          "ticks": 112800,
          "time": 124.483272,
          "velocity": 0.6299212598425197
        },
        {
          "duration": 0.20746544374999587,
          "durationTicks": 239,
          "midi": 77,
          "name": "F5",
          "ticks": 113760,
          "time": 125.31660600000001,
          "velocity": 0.6299212598425197
        },
        {
          "duration": 0.20746544374999587,
          "durationTicks": 239,
          "midi": 72,
          "name": "C5",
          "ticks": 114000,
          "time": 125.5249395,
          "velocity": 0.6299212598425197
        },
        {
          "duration": 2.499133943749996,
          "durationTicks": 2879,
          "midi": 80,
          "name": "G#5",
          "ticks": 114240,
          "time": 125.733273,
          "velocity": 0.6299212598425197
        },
        {
          "duration": 1.4574664437500076,
          "durationTicks": 1679,
          "midi": 68,
          "name": "G#4",
          "ticks": 114240,
          "time": 125.733273,
          "velocity": 0.6299212598425197
        },
        {
          "duration": 0.20746544375001008,
          "durationTicks": 239,
          "midi": 56,
          "name": "G#3",
          "ticks": 114960,
          "time": 126.3582735,
          "velocity": 0.6299212598425197
        },
        {
          "duration": 0.20746544374999587,
          "durationTicks": 239,
          "midi": 60,
          "name": "C4",
          "ticks": 115200,
          "time": 126.566607,
          "velocity": 0.6299212598425197
        },
        {
          "duration": 0.20746544374999587,
          "durationTicks": 239,
          "midi": 65,
          "name": "F4",
          "ticks": 115440,
          "time": 126.7749405,
          "velocity": 0.6299212598425197
        },
        {
          "duration": 1.2491329437499843,
          "durationTicks": 1439,
          "midi": 68,
          "name": "G#4",
          "ticks": 115680,
          "time": 126.98327400000001,
          "velocity": 0.6299212598425197
        },
        {
          "duration": 0.20746544374999587,
          "durationTicks": 239,
          "midi": 65,
          "name": "F4",
          "ticks": 115920,
          "time": 127.1916075,
          "velocity": 0.6299212598425197
        },
        {
          "duration": 0.20746544375001008,
          "durationTicks": 239,
          "midi": 60,
          "name": "C4",
          "ticks": 116160,
          "time": 127.399941,
          "velocity": 0.6299212598425197
        },
        {
          "duration": 1.2491329437499985,
          "durationTicks": 1439,
          "midi": 77,
          "name": "F5",
          "ticks": 117120,
          "time": 128.233275,
          "velocity": 0.6299212598425197
        },
        {
          "duration": 1.2491329437499985,
          "durationTicks": 1439,
          "midi": 65,
          "name": "F4",
          "ticks": 117120,
          "time": 128.233275,
          "velocity": 0.6299212598425197
        },
        {
          "duration": 0.8324659437500088,
          "durationTicks": 959,
          "midi": 77,
          "name": "F5",
          "ticks": 118560,
          "time": 129.483276,
          "velocity": 0.6299212598425197
        },
        {
          "duration": 0.8324659437500088,
          "durationTicks": 959,
          "midi": 65,
          "name": "F4",
          "ticks": 118560,
          "time": 129.483276,
          "velocity": 0.6299212598425197
        },
        {
          "duration": 0.20746544375001008,
          "durationTicks": 239,
          "midi": 77,
          "name": "F5",
          "ticks": 119520,
          "time": 130.31661,
          "velocity": 0.6299212598425197
        },
        {
          "duration": 0.20746544374998166,
          "durationTicks": 239,
          "midi": 72,
          "name": "C5",
          "ticks": 119760,
          "time": 130.5249435,
          "velocity": 0.6299212598425197
        },
        {
          "duration": 1.2491329437499985,
          "durationTicks": 1439,
          "midi": 80,
          "name": "G#5",
          "ticks": 120000,
          "time": 130.73327700000002,
          "velocity": 0.6299212598425197
        },
        {
          "duration": 1.2491329437499985,
          "durationTicks": 1439,
          "midi": 68,
          "name": "G#4",
          "ticks": 120000,
          "time": 130.73327700000002,
          "velocity": 0.6299212598425197
        },
        {
          "duration": 0.4157989437499907,
          "durationTicks": 479,
          "midi": 77,
          "name": "F5",
          "ticks": 121440,
          "time": 131.983278,
          "velocity": 0.6299212598425197
        },
        {
          "duration": 0.20746544375001008,
          "durationTicks": 239,
          "midi": 68,
          "name": "G#4",
          "ticks": 121680,
          "time": 132.1916115,
          "velocity": 0.6299212598425197
        },
        {
          "duration": 0.4157989437499907,
          "durationTicks": 479,
          "midi": 80,
          "name": "G#5",
          "ticks": 121920,
          "time": 132.399945,
          "velocity": 0.6299212598425197
        },
        {
          "duration": 0.20746544374998166,
          "durationTicks": 239,
          "midi": 72,
          "name": "C5",
          "ticks": 122160,
          "time": 132.6082785,
          "velocity": 0.6299212598425197
        },
        {
          "duration": 0.41579894375001913,
          "durationTicks": 479,
          "midi": 82,
          "name": "A#5",
          "ticks": 122400,
          "time": 132.816612,
          "velocity": 0.6299212598425197
        },
        {
          "duration": 0.20746544375001008,
          "durationTicks": 239,
          "midi": 72,
          "name": "C5",
          "ticks": 122640,
          "time": 133.0249455,
          "velocity": 0.6299212598425197
        },
        {
          "duration": 2.499133943749996,
          "durationTicks": 2879,
          "midi": 78,
          "name": "F#5",
          "ticks": 122880,
          "time": 133.233279,
          "velocity": 0.6299212598425197
        },
        {
          "duration": 0.20746544374998166,
          "durationTicks": 239,
          "midi": 58,
          "name": "A#3",
          "ticks": 123600,
          "time": 133.8582795,
          "velocity": 0.6299212598425197
        },
        {
          "duration": 0.20746544375001008,
          "durationTicks": 239,
          "midi": 61,
          "name": "C#4",
          "ticks": 123840,
          "time": 134.066613,
          "velocity": 0.6299212598425197
        },
        {
          "duration": 0.20746544375001008,
          "durationTicks": 239,
          "midi": 66,
          "name": "F#4",
          "ticks": 124080,
          "time": 134.2749465,
          "velocity": 0.6299212598425197
        },
        {
          "duration": 0.20746544374998166,
          "durationTicks": 239,
          "midi": 70,
          "name": "A#4",
          "ticks": 124320,
          "time": 134.48328,
          "velocity": 0.6299212598425197
        },
        {
          "duration": 0.20746544374998166,
          "durationTicks": 239,
          "midi": 66,
          "name": "F#4",
          "ticks": 124560,
          "time": 134.69161350000002,
          "velocity": 0.6299212598425197
        },
        {
          "duration": 0.20746544375001008,
          "durationTicks": 239,
          "midi": 61,
          "name": "C#4",
          "ticks": 124800,
          "time": 134.899947,
          "velocity": 0.6299212598425197
        },
        {
          "duration": 0.4157989437499907,
          "durationTicks": 479,
          "midi": 66,
          "name": "F#4",
          "ticks": 125760,
          "time": 135.733281,
          "velocity": 0.6299212598425197
        },
        {
          "duration": 0.4157989437499907,
          "durationTicks": 479,
          "midi": 59,
          "name": "B3",
          "ticks": 125760,
          "time": 135.733281,
          "velocity": 0.6299212598425197
        },
        {
          "duration": 0.20746544375001008,
          "durationTicks": 239,
          "midi": 59,
          "name": "B3",
          "ticks": 126240,
          "time": 136.149948,
          "velocity": 0.6299212598425197
        },
        {
          "duration": 0.20746544375001008,
          "durationTicks": 239,
          "midi": 66,
          "name": "F#4",
          "ticks": 126480,
          "time": 136.3582815,
          "velocity": 0.6299212598425197
        },
        {
          "duration": 0.20746544374998166,
          "durationTicks": 239,
          "midi": 59,
          "name": "B3",
          "ticks": 126720,
          "time": 136.566615,
          "velocity": 0.6299212598425197
        },
        {
          "duration": 0.4157989437499907,
          "durationTicks": 479,
          "midi": 77,
          "name": "F5",
          "ticks": 127200,
          "time": 136.983282,
          "velocity": 0.6299212598425197
        },
        {
          "duration": 0.6241324437499998,
          "durationTicks": 719,
          "midi": 75,
          "name": "D#5",
          "ticks": 127680,
          "time": 137.399949,
          "velocity": 0.6299212598425197
        },
        {
          "duration": 0.20746544375001008,
          "durationTicks": 239,
          "midi": 73,
          "name": "C#5",
          "ticks": 128400,
          "time": 138.0249495,
          "velocity": 0.6299212598425197
        },
        {
          "duration": 2.499133943749996,
          "durationTicks": 2879,
          "midi": 77,
          "name": "F5",
          "ticks": 128640,
          "time": 138.233283,
          "velocity": 0.6299212598425197
        },
        {
          "duration": 0.20746544375001008,
          "durationTicks": 239,
          "midi": 53,
          "name": "F3",
          "ticks": 129360,
          "time": 138.8582835,
          "velocity": 0.6299212598425197
        },
        {
          "duration": 0.20746544374998166,
          "durationTicks": 239,
          "midi": 56,
          "name": "G#3",
          "ticks": 129600,
          "time": 139.066617,
          "velocity": 0.6299212598425197
        },
        {
          "duration": 0.20746544375001008,
          "durationTicks": 239,
          "midi": 61,
          "name": "C#4",
          "ticks": 129840,
          "time": 139.2749505,
          "velocity": 0.6299212598425197
        },
        {
          "duration": 0.20746544375001008,
          "durationTicks": 239,
          "midi": 65,
          "name": "F4",
          "ticks": 130080,
          "time": 139.483284,
          "velocity": 0.6299212598425197
        },
        {
          "duration": 0.20746544374998166,
          "durationTicks": 239,
          "midi": 61,
          "name": "C#4",
          "ticks": 130320,
          "time": 139.6916175,
          "velocity": 0.6299212598425197
        },
        {
          "duration": 0.20746544375001008,
          "durationTicks": 239,
          "midi": 56,
          "name": "G#3",
          "ticks": 130560,
          "time": 139.899951,
          "velocity": 0.6299212598425197
        },
        {
          "duration": 0.20746544375001008,
          "durationTicks": 239,
          "midi": 56,
          "name": "G#3",
          "ticks": 132240,
          "time": 141.3582855,
          "velocity": 0.6299212598425197
        },
        {
          "duration": 0.20746544375001008,
          "durationTicks": 239,
          "midi": 60,
          "name": "C4",
          "ticks": 132480,
          "time": 141.566619,
          "velocity": 0.6299212598425197
        },
        {
          "duration": 0.20746544374998166,
          "durationTicks": 239,
          "midi": 65,
          "name": "F4",
          "ticks": 132720,
          "time": 141.7749525,
          "velocity": 0.6299212598425197
        },
        {
          "duration": 0.20746544375001008,
          "durationTicks": 239,
          "midi": 68,
          "name": "G#4",
          "ticks": 132960,
          "time": 141.983286,
          "velocity": 0.6299212598425197
        },
        {
          "duration": 0.20746544375001008,
          "durationTicks": 239,
          "midi": 65,
          "name": "F4",
          "ticks": 133200,
          "time": 142.1916195,
          "velocity": 0.6299212598425197
        },
        {
          "duration": 0.20746544374998166,
          "durationTicks": 239,
          "midi": 60,
          "name": "C4",
          "ticks": 133440,
          "time": 142.399953,
          "velocity": 0.6299212598425197
        },
        {
          "duration": 1.2491329437499985,
          "durationTicks": 1439,
          "midi": 65,
          "name": "F4",
          "ticks": 134400,
          "time": 143.23328700000002,
          "velocity": 0.6299212598425197
        },
        {
          "duration": 0.20746544375001008,
          "durationTicks": 239,
          "midi": 56,
          "name": "G#3",
          "ticks": 135360,
          "time": 144.066621,
          "velocity": 0.6299212598425197
        },
        {
          "duration": 0.20746544375001008,
          "durationTicks": 239,
          "midi": 61,
          "name": "C#4",
          "ticks": 135600,
          "time": 144.2749545,
          "velocity": 0.6299212598425197
        },
        {
          "duration": 0.8324659437499804,
          "durationTicks": 959,
          "midi": 65,
          "name": "F4",
          "ticks": 135840,
          "time": 144.48328800000002,
          "velocity": 0.6299212598425197
        },
        {
          "duration": 0.20746544374998166,
          "durationTicks": 239,
          "midi": 56,
          "name": "G#3",
          "ticks": 136560,
          "time": 145.10828850000001,
          "velocity": 0.6299212598425197
        },
        {
          "duration": 0.41579894375001913,
          "durationTicks": 479,
          "midi": 65,
          "name": "F4",
          "ticks": 136800,
          "time": 145.316622,
          "velocity": 0.6299212598425197
        },
        {
          "duration": 0.20746544375001008,
          "durationTicks": 239,
          "midi": 56,
          "name": "G#3",
          "ticks": 137040,
          "time": 145.5249555,
          "velocity": 0.6299212598425197
        },
        {
          "duration": 1.4574664437499791,
          "durationTicks": 1679,
          "midi": 68,
          "name": "G#4",
          "ticks": 137280,
          "time": 145.733289,
          "velocity": 0.6299212598425197
        },
        {
          "duration": 0.20746544374998166,
          "durationTicks": 239,
          "midi": 56,
          "name": "G#3",
          "ticks": 138000,
          "time": 146.3582895,
          "velocity": 0.6299212598425197
        },
        {
          "duration": 0.20746544375001008,
          "durationTicks": 239,
          "midi": 60,
          "name": "C4",
          "ticks": 138240,
          "time": 146.566623,
          "velocity": 0.6299212598425197
        },
        {
          "duration": 0.20746544375001008,
          "durationTicks": 239,
          "midi": 65,
          "name": "F4",
          "ticks": 138480,
          "time": 146.7749565,
          "velocity": 0.6299212598425197
        },
        {
          "duration": 1.2491329437499985,
          "durationTicks": 1439,
          "midi": 68,
          "name": "G#4",
          "ticks": 138720,
          "time": 146.98329,
          "velocity": 0.6299212598425197
        },
        {
          "duration": 0.20746544375001008,
          "durationTicks": 239,
          "midi": 65,
          "name": "F4",
          "ticks": 138960,
          "time": 147.1916235,
          "velocity": 0.6299212598425197
        },
        {
          "duration": 0.20746544375001008,
          "durationTicks": 239,
          "midi": 60,
          "name": "C4",
          "ticks": 139200,
          "time": 147.399957,
          "velocity": 0.6299212598425197
        },
        {
          "duration": 1.2491329437499985,
          "durationTicks": 1439,
          "midi": 65,
          "name": "F4",
          "ticks": 140160,
          "time": 148.233291,
          "velocity": 0.6299212598425197
        },
        {
          "duration": 0.20746544375001008,
          "durationTicks": 239,
          "midi": 56,
          "name": "G#3",
          "ticks": 141120,
          "time": 149.066625,
          "velocity": 0.6299212598425197
        },
        {
          "duration": 0.20746544375001008,
          "durationTicks": 239,
          "midi": 61,
          "name": "C#4",
          "ticks": 141360,
          "time": 149.2749585,
          "velocity": 0.6299212598425197
        },
        {
          "duration": 0.8324659437500088,
          "durationTicks": 959,
          "midi": 65,
          "name": "F4",
          "ticks": 141600,
          "time": 149.483292,
          "velocity": 0.6299212598425197
        },
        {
          "duration": 0.20746544375001008,
          "durationTicks": 239,
          "midi": 56,
          "name": "G#3",
          "ticks": 142320,
          "time": 150.1082925,
          "velocity": 0.6299212598425197
        },
        {
          "duration": 0.4157989437499907,
          "durationTicks": 479,
          "midi": 65,
          "name": "F4",
          "ticks": 142560,
          "time": 150.316626,
          "velocity": 0.6299212598425197
        },
        {
          "duration": 0.20746544375001008,
          "durationTicks": 239,
          "midi": 56,
          "name": "G#3",
          "ticks": 142800,
          "time": 150.5249595,
          "velocity": 0.6299212598425197
        },
        {
          "duration": 1.2491329437499985,
          "durationTicks": 1439,
          "midi": 68,
          "name": "G#4",
          "ticks": 143040,
          "time": 150.733293,
          "velocity": 0.6299212598425197
        },
        {
          "duration": 0.4157989437499907,
          "durationTicks": 479,
          "midi": 65,
          "name": "F4",
          "ticks": 144480,
          "time": 151.983294,
          "velocity": 0.6299212598425197
        },
        {
          "duration": 0.20746544374998166,
          "durationTicks": 239,
          "midi": 60,
          "name": "C4",
          "ticks": 144720,
          "time": 152.1916275,
          "velocity": 0.6299212598425197
        },
        {
          "duration": 0.41579894375001913,
          "durationTicks": 479,
          "midi": 68,
          "name": "G#4",
          "ticks": 144960,
          "time": 152.399961,
          "velocity": 0.6299212598425197
        },
        {
          "duration": 0.20746544375001008,
          "durationTicks": 239,
          "midi": 65,
          "name": "F4",
          "ticks": 145200,
          "time": 152.6082945,
          "velocity": 0.6299212598425197
        },
        {
          "duration": 0.4157989437499907,
          "durationTicks": 479,
          "midi": 70,
          "name": "A#4",
          "ticks": 145440,
          "time": 152.816628,
          "velocity": 0.6299212598425197
        },
        {
          "duration": 0.20746544374998166,
          "durationTicks": 239,
          "midi": 60,
          "name": "C4",
          "ticks": 145680,
          "time": 153.02496150000002,
          "velocity": 0.6299212598425197
        },
        {
          "duration": 1.2491329437499985,
          "durationTicks": 1439,
          "midi": 66,
          "name": "F#4",
          "ticks": 145920,
          "time": 153.233295,
          "velocity": 0.6299212598425197
        },
        {
          "duration": 0.20746544375001008,
          "durationTicks": 239,
          "midi": 58,
          "name": "A#3",
          "ticks": 146640,
          "time": 153.8582955,
          "velocity": 0.6299212598425197
        },
        {
          "duration": 0.20746544375001008,
          "durationTicks": 239,
          "midi": 61,
          "name": "C#4",
          "ticks": 146880,
          "time": 154.066629,
          "velocity": 0.6299212598425197
        },
        {
          "duration": 0.20746544374998166,
          "durationTicks": 239,
          "midi": 66,
          "name": "F#4",
          "ticks": 147120,
          "time": 154.27496250000002,
          "velocity": 0.6299212598425197
        },
        {
          "duration": 0.20746544375001008,
          "durationTicks": 239,
          "midi": 70,
          "name": "A#4",
          "ticks": 147360,
          "time": 154.483296,
          "velocity": 0.6299212598425197
        },
        {
          "duration": 0.20746544375001008,
          "durationTicks": 239,
          "midi": 66,
          "name": "F#4",
          "ticks": 147600,
          "time": 154.6916295,
          "velocity": 0.6299212598425197
        },
        {
          "duration": 0.20746544374998166,
          "durationTicks": 239,
          "midi": 61,
          "name": "C#4",
          "ticks": 147840,
          "time": 154.899963,
          "velocity": 0.6299212598425197
        },
        {
          "duration": 0.41579894375001913,
          "durationTicks": 479,
          "midi": 65,
          "name": "F4",
          "ticks": 150240,
          "time": 156.983298,
          "velocity": 0.6299212598425197
        },
        {
          "duration": 0.8024549291666574,
          "durationTicks": 719,
          "midi": 63,
          "name": "D#4",
          "ticks": 150720,
          "time": 157.399965,
          "velocity": 0.6299212598425197
        },
        {
          "duration": 0.2667409291666729,
          "durationTicks": 239,
          "midi": 61,
          "name": "C#4",
          "ticks": 151440,
          "time": 158.203536,
          "velocity": 0.6299212598425197
        },
        {
          "duration": 1.2491329437499985,
          "durationTicks": 1439,
          "midi": 65,
          "name": "F4",
          "ticks": 151680,
          "time": 158.471393,
          "velocity": 0.6299212598425197
        },
        {
          "duration": 0.20746544375001008,
          "durationTicks": 239,
          "midi": 53,
          "name": "F3",
          "ticks": 152400,
          "time": 159.0963935,
          "velocity": 0.6299212598425197
        },
        {
          "duration": 0.20746544374998166,
          "durationTicks": 239,
          "midi": 56,
          "name": "G#3",
          "ticks": 152640,
          "time": 159.304727,
          "velocity": 0.6299212598425197
        },
        {
          "duration": 0.20746544375001008,
          "durationTicks": 239,
          "midi": 61,
          "name": "C#4",
          "ticks": 152880,
          "time": 159.5130605,
          "velocity": 0.6299212598425197
        },
        {
          "duration": 0.20746544375001008,
          "durationTicks": 239,
          "midi": 65,
          "name": "F4",
          "ticks": 153120,
          "time": 159.721394,
          "velocity": 0.6299212598425197
        },
        {
          "duration": 0.20746544374998166,
          "durationTicks": 239,
          "midi": 61,
          "name": "C#4",
          "ticks": 153360,
          "time": 159.9297275,
          "velocity": 0.6299212598425197
        },
        {
          "duration": 0.20746544375001008,
          "durationTicks": 239,
          "midi": 56,
          "name": "G#3",
          "ticks": 153600,
          "time": 160.138061,
          "velocity": 0.6299212598425197
        },
        {
          "duration": 0.20746544375001008,
          "durationTicks": 239,
          "midi": 56,
          "name": "G#3",
          "ticks": 155280,
          "time": 161.5963955,
          "velocity": 0.6299212598425197
        },
        {
          "duration": 0.20746544375001008,
          "durationTicks": 239,
          "midi": 60,
          "name": "C4",
          "ticks": 155520,
          "time": 161.804729,
          "velocity": 0.6299212598425197
        },
        {
          "duration": 0.20746544374998166,
          "durationTicks": 239,
          "midi": 65,
          "name": "F4",
          "ticks": 155760,
          "time": 162.01306250000002,
          "velocity": 0.6299212598425197
        },
        {
          "duration": 0.20746544375001008,
          "durationTicks": 239,
          "midi": 68,
          "name": "G#4",
          "ticks": 156000,
          "time": 162.221396,
          "velocity": 0.6299212598425197
        },
        {
          "duration": 0.20746544375001008,
          "durationTicks": 239,
          "midi": 65,
          "name": "F4",
          "ticks": 156240,
          "time": 162.4297295,
          "velocity": 0.6299212598425197
        },
        {
          "duration": 0.20746544374998166,
          "durationTicks": 239,
          "midi": 60,
          "name": "C4",
          "ticks": 156480,
          "time": 162.63806300000002,
          "velocity": 0.6299212598425197
        },
        {
          "duration": 0.20746544375001008,
          "durationTicks": 239,
          "midi": 53,
          "name": "F3",
          "ticks": 158160,
          "time": 164.0963975,
          "velocity": 0.6299212598425197
        },
        {
          "duration": 0.20746544375001008,
          "durationTicks": 239,
          "midi": 56,
          "name": "G#3",
          "ticks": 158400,
          "time": 164.304731,
          "velocity": 0.6299212598425197
        },
        {
          "duration": 0.20746544374998166,
          "durationTicks": 239,
          "midi": 61,
          "name": "C#4",
          "ticks": 158640,
          "time": 164.5130645,
          "velocity": 0.6299212598425197
        },
        {
          "duration": 0.20746544375001008,
          "durationTicks": 239,
          "midi": 65,
          "name": "F4",
          "ticks": 158880,
          "time": 164.721398,
          "velocity": 0.6299212598425197
        },
        {
          "duration": 0.20746544375001008,
          "durationTicks": 239,
          "midi": 61,
          "name": "C#4",
          "ticks": 159120,
          "time": 164.9297315,
          "velocity": 0.6299212598425197
        },
        {
          "duration": 0.20746544374998166,
          "durationTicks": 239,
          "midi": 56,
          "name": "G#3",
          "ticks": 159360,
          "time": 165.138065,
          "velocity": 0.6299212598425197
        },
        {
          "duration": 0.20746544374998166,
          "durationTicks": 239,
          "midi": 56,
          "name": "G#3",
          "ticks": 161040,
          "time": 166.59639950000002,
          "velocity": 0.6299212598425197
        },
        {
          "duration": 0.20746544375001008,
          "durationTicks": 239,
          "midi": 60,
          "name": "C4",
          "ticks": 161280,
          "time": 166.804733,
          "velocity": 0.6299212598425197
        },
        {
          "duration": 0.20746544375001008,
          "durationTicks": 239,
          "midi": 65,
          "name": "F4",
          "ticks": 161520,
          "time": 167.0130665,
          "velocity": 0.6299212598425197
        },
        {
          "duration": 0.20746544374998166,
          "durationTicks": 239,
          "midi": 68,
          "name": "G#4",
          "ticks": 161760,
          "time": 167.22140000000002,
          "velocity": 0.6299212598425197
        },
        {
          "duration": 0.20746544375001008,
          "durationTicks": 239,
          "midi": 65,
          "name": "F4",
          "ticks": 162000,
          "time": 167.4297335,
          "velocity": 0.6299212598425197
        },
        {
          "duration": 0.20746544375001008,
          "durationTicks": 239,
          "midi": 60,
          "name": "C4",
          "ticks": 162240,
          "time": 167.638067,
          "velocity": 0.6299212598425197
        },
        {
          "duration": 0.20746544374998166,
          "durationTicks": 239,
          "midi": 53,
          "name": "F3",
          "ticks": 163920,
          "time": 169.0964015,
          "velocity": 0.6299212598425197
        },
        {
          "duration": 0.20746544375001008,
          "durationTicks": 239,
          "midi": 56,
          "name": "G#3",
          "ticks": 164160,
          "time": 169.304735,
          "velocity": 0.6299212598425197
        },
        {
          "duration": 0.20746544375001008,
          "durationTicks": 239,
          "midi": 61,
          "name": "C#4",
          "ticks": 164400,
          "time": 169.5130685,
          "velocity": 0.6299212598425197
        },
        {
          "duration": 0.20746544374998166,
          "durationTicks": 239,
          "midi": 65,
          "name": "F4",
          "ticks": 164640,
          "time": 169.721402,
          "velocity": 0.6299212598425197
        },
        {
          "duration": 0.20746544375001008,
          "durationTicks": 239,
          "midi": 61,
          "name": "C#4",
          "ticks": 164880,
          "time": 169.9297355,
          "velocity": 0.6299212598425197
        },
        {
          "duration": 0.20746544375001008,
          "durationTicks": 239,
          "midi": 56,
          "name": "G#3",
          "ticks": 165120,
          "time": 170.138069,
          "velocity": 0.6299212598425197
        },
        {
          "duration": 0.2409274354166655,
          "durationTicks": 239,
          "midi": 56,
          "name": "G#3",
          "ticks": 166800,
          "time": 171.6972095,
          "velocity": 0.6299212598425197
        },
        {
          "duration": 0.2409274354166655,
          "durationTicks": 239,
          "midi": 60,
          "name": "C4",
          "ticks": 167040,
          "time": 171.939145,
          "velocity": 0.6299212598425197
        },
        {
          "duration": 0.2409274354166655,
          "durationTicks": 239,
          "midi": 65,
          "name": "F4",
          "ticks": 167280,
          "time": 172.1810805,
          "velocity": 0.6299212598425197
        },
        {
          "duration": 4.353830935416653,
          "durationTicks": 4319,
          "midi": 68,
          "name": "G#4",
          "ticks": 167520,
          "time": 172.42301600000002,
          "velocity": 0.6299212598425197
        }
      ],
      "endOfTrackTicks": 171840
    },
    {
      "channel": 0,
      "controlChanges": {
        "64": [
          {
            "number": 64,
            "ticks": 0,
            "time": 0,
            "value": 1
          },
          {
            "number": 64,
            "ticks": 959,
            "time": 1.6649298895833333,
            "value": 0
          },
          {
            "number": 64,
            "ticks": 960,
            "time": 1.666666,
            "value": 1
          },
          {
            "number": 64,
            "ticks": 1919,
            "time": 3.3315958895833333,
            "value": 0
          },
          {
            "number": 64,
            "ticks": 1920,
            "time": 3.333332,
            "value": 1
          },
          {
            "number": 64,
            "ticks": 7679,
            "time": 13.331591889583333,
            "value": 0
          },
          {
            "number": 64,
            "ticks": 7680,
            "time": 13.333328,
            "value": 1
          },
          {
            "number": 64,
            "ticks": 9120,
            "time": 14.583328999999999,
            "value": 1
          },
          {
            "number": 64,
            "ticks": 9359,
            "time": 14.79079444375,
            "value": 0
          },
          {
            "number": 64,
            "ticks": 10559,
            "time": 15.83246194375,
            "value": 0
          },
          {
            "number": 64,
            "ticks": 10560,
            "time": 15.83333,
            "value": 1
          },
          {
            "number": 64,
            "ticks": 13439,
            "time": 18.33246394375,
            "value": 0
          },
          {
            "number": 64,
            "ticks": 13440,
            "time": 18.333332,
            "value": 1
          },
          {
            "number": 64,
            "ticks": 14879,
            "time": 19.58246494375,
            "value": 0
          },
          {
            "number": 64,
            "ticks": 14880,
            "time": 19.583333,
            "value": 1
          },
          {
            "number": 64,
            "ticks": 16319,
            "time": 20.832465943749998,
            "value": 0
          },
          {
            "number": 64,
            "ticks": 16320,
            "time": 20.833334,
            "value": 1
          },
          {
            "number": 64,
            "ticks": 19199,
            "time": 23.33246794375,
            "value": 0
          },
          {
            "number": 64,
            "ticks": 19200,
            "time": 23.333336000000003,
            "value": 1
          },
          {
            "number": 64,
            "ticks": 22079,
            "time": 25.83246994375,
            "value": 0
          },
          {
            "number": 64,
            "ticks": 22080,
            "time": 25.833337999999998,
            "value": 1
          },
          {
            "number": 64,
            "ticks": 24959,
            "time": 28.33247194375,
            "value": 0
          },
          {
            "number": 64,
            "ticks": 24960,
            "time": 28.33334,
            "value": 1
          },
          {
            "number": 64,
            "ticks": 27839,
            "time": 30.832473943750003,
            "value": 0
          },
          {
            "number": 64,
            "ticks": 27840,
            "time": 30.833342000000002,
            "value": 1
          },
          {
            "number": 64,
            "ticks": 30719,
            "time": 33.33247594375,
            "value": 0
          },
          {
            "number": 64,
            "ticks": 30720,
            "time": 33.333344000000004,
            "value": 1
          },
          {
            "number": 64,
            "ticks": 33599,
            "time": 35.83247794375,
            "value": 0
          },
          {
            "number": 64,
            "ticks": 33600,
            "time": 35.833346,
            "value": 1
          },
          {
            "number": 64,
            "ticks": 36479,
            "time": 38.33247994375,
            "value": 0
          },
          {
            "number": 64,
            "ticks": 36480,
            "time": 38.333348,
            "value": 1
          },
          {
            "number": 64,
            "ticks": 39359,
            "time": 40.832481943750004,
            "value": 0
          },
          {
            "number": 64,
            "ticks": 39360,
            "time": 40.83335,
            "value": 1
          },
          {
            "number": 64,
            "ticks": 42239,
            "time": 43.33248394375,
            "value": 0
          },
          {
            "number": 64,
            "ticks": 42240,
            "time": 43.333352,
            "value": 1
          },
          {
            "number": 64,
            "ticks": 45119,
            "time": 45.83248594375,
            "value": 0
          },
          {
            "number": 64,
            "ticks": 45120,
            "time": 45.833354,
            "value": 1
          },
          {
            "number": 64,
            "ticks": 47999,
            "time": 48.33248794375,
            "value": 0
          },
          {
            "number": 64,
            "ticks": 48000,
            "time": 48.333356,
            "value": 1
          },
          {
            "number": 64,
            "ticks": 50879,
            "time": 50.832489943750005,
            "value": 0
          },
          {
            "number": 64,
            "ticks": 50880,
            "time": 50.833358000000004,
            "value": 1
          },
          {
            "number": 64,
            "ticks": 53759,
            "time": 53.33249194375,
            "value": 0
          },
          {
            "number": 64,
            "ticks": 53760,
            "time": 53.333360000000006,
            "value": 1
          },
          {
            "number": 64,
            "ticks": 56639,
            "time": 55.83249394375,
            "value": 0
          },
          {
            "number": 64,
            "ticks": 56640,
            "time": 55.833362,
            "value": 1
          },
          {
            "number": 64,
            "ticks": 59519,
            "time": 58.332495943750004,
            "value": 0
          },
          {
            "number": 64,
            "ticks": 59520,
            "time": 58.333364,
            "value": 1
          },
          {
            "number": 64,
            "ticks": 62399,
            "time": 60.832497943750006,
            "value": 0
          },
          {
            "number": 64,
            "ticks": 62400,
            "time": 60.833366000000005,
            "value": 1
          },
          {
            "number": 64,
            "ticks": 65279,
            "time": 63.33249994375,
            "value": 0
          },
          {
            "number": 64,
            "ticks": 65280,
            "time": 63.333368,
            "value": 1
          },
          {
            "number": 64,
            "ticks": 66719,
            "time": 64.58250094375,
            "value": 0
          },
          {
            "number": 64,
            "ticks": 66720,
            "time": 64.583369,
            "value": 1
          },
          {
            "number": 64,
            "ticks": 68159,
            "time": 65.83250194375,
            "value": 0
          },
          {
            "number": 64,
            "ticks": 68160,
            "time": 65.83337,
            "value": 1
          },
          {
            "number": 64,
            "ticks": 71039,
            "time": 68.33250394375,
            "value": 0
          },
          {
            "number": 64,
            "ticks": 71040,
            "time": 68.333372,
            "value": 1
          },
          {
            "number": 64,
            "ticks": 72959,
            "time": 70.83206991666667,
            "value": 0
          },
          {
            "number": 64,
            "ticks": 72960,
            "time": 70.833372,
            "value": 1
          },
          {
            "number": 64,
            "ticks": 73919,
            "time": 71.90368392916666,
            "value": 0
          },
          {
            "number": 64,
            "ticks": 73920,
            "time": 71.9048,
            "value": 1
          },
          {
            "number": 64,
            "ticks": 75839,
            "time": 74.04653992916667,
            "value": 0
          },
          {
            "number": 64,
            "ticks": 75840,
            "time": 74.047656,
            "value": 1
          },
          {
            "number": 64,
            "ticks": 76799,
            "time": 75.15761059166667,
            "value": 0
          },
          {
            "number": 64,
            "ticks": 76800,
            "time": 75.15876800000001,
            "value": 1
          },
          {
            "number": 64,
            "ticks": 77759,
            "time": 76.26872259166667,
            "value": 0
          },
          {
            "number": 64,
            "ticks": 77760,
            "time": 76.26988,
            "value": 1
          },
          {
            "number": 64,
            "ticks": 78719,
            "time": 77.37983459166666,
            "value": 0
          },
          {
            "number": 64,
            "ticks": 78720,
            "time": 77.380992,
            "value": 1
          },
          {
            "number": 64,
            "ticks": 79679,
            "time": 78.49094659166667,
            "value": 0
          },
          {
            "number": 64,
            "ticks": 79680,
            "time": 78.492104,
            "value": 1
          },
          {
            "number": 64,
            "ticks": 80639,
            "time": 79.60205859166668,
            "value": 0
          },
          {
            "number": 64,
            "ticks": 80640,
            "time": 79.603216,
            "value": 1
          },
          {
            "number": 64,
            "ticks": 81599,
            "time": 80.71317059166667,
            "value": 0
          },
          {
            "number": 64,
            "ticks": 81600,
            "time": 80.71432800000001,
            "value": 1
          },
          {
            "number": 64,
            "ticks": 82559,
            "time": 81.82428259166667,
            "value": 0
          },
          {
            "number": 64,
            "ticks": 82560,
            "time": 81.82544,
            "value": 1
          },
          {
            "number": 64,
            "ticks": 83519,
            "time": 82.93539459166666,
            "value": 0
          },
          {
            "number": 64,
            "ticks": 83520,
            "time": 82.936552,
            "value": 1
          },
          {
            "number": 64,
            "ticks": 88319,
            "time": 88.49095459166666,
            "value": 0
          },
          {
            "number": 64,
            "ticks": 92160,
            "time": 92.93656,
            "value": 1
          },
          {
            "number": 64,
            "ticks": 94079,
            "time": 95.15762659166667,
            "value": 0
          },
          {
            "number": 64,
            "ticks": 94080,
            "time": 95.158784,
            "value": 1
          },
          {
            "number": 64,
            "ticks": 95999,
            "time": 97.56898054583334,
            "value": 0
          },
          {
            "number": 64,
            "ticks": 96000,
            "time": 97.570401,
            "value": 1
          },
          {
            "number": 64,
            "ticks": 97919,
            "time": 100.29625254583334,
            "value": 0
          },
          {
            "number": 64,
            "ticks": 99840,
            "time": 103.024945,
            "value": 1
          },
          {
            "number": 64,
            "ticks": 100799,
            "time": 104.79404188958334,
            "value": 0
          },
          {
            "number": 64,
            "ticks": 100800,
            "time": 104.795778,
            "value": 1
          },
          {
            "number": 64,
            "ticks": 103679,
            "time": 109.79403988958333,
            "value": 0
          },
          {
            "number": 64,
            "ticks": 103680,
            "time": 109.795776,
            "value": 1
          },
          {
            "number": 64,
            "ticks": 104639,
            "time": 111.56487288958334,
            "value": 0
          },
          {
            "number": 64,
            "ticks": 104640,
            "time": 111.566609,
            "value": 1
          },
          {
            "number": 64,
            "ticks": 105599,
            "time": 113.23153888958333,
            "value": 0
          },
          {
            "number": 64,
            "ticks": 105600,
            "time": 113.233275,
            "value": 1
          },
          {
            "number": 64,
            "ticks": 107519,
            "time": 116.56487088958333,
            "value": 0
          },
          {
            "number": 64,
            "ticks": 107520,
            "time": 116.566607,
            "value": 1
          },
          {
            "number": 64,
            "ticks": 111359,
            "time": 123.23153488958334,
            "value": 0
          },
          {
            "number": 64,
            "ticks": 111360,
            "time": 123.233271,
            "value": 1
          },
          {
            "number": 64,
            "ticks": 112799,
            "time": 124.48240394375,
            "value": 0
          },
          {
            "number": 64,
            "ticks": 112800,
            "time": 124.483272,
            "value": 1
          },
          {
            "number": 64,
            "ticks": 114239,
            "time": 125.73240494375,
            "value": 0
          },
          {
            "number": 64,
            "ticks": 114240,
            "time": 125.733273,
            "value": 1
          },
          {
            "number": 64,
            "ticks": 117119,
            "time": 128.23240694375,
            "value": 0
          },
          {
            "number": 64,
            "ticks": 117120,
            "time": 128.233275,
            "value": 1
          },
          {
            "number": 64,
            "ticks": 118559,
            "time": 129.48240794375,
            "value": 0
          },
          {
            "number": 64,
            "ticks": 118560,
            "time": 129.483276,
            "value": 1
          },
          {
            "number": 64,
            "ticks": 119999,
            "time": 130.73240894375,
            "value": 0
          },
          {
            "number": 64,
            "ticks": 120000,
            "time": 130.73327700000002,
            "value": 1
          },
          {
            "number": 64,
            "ticks": 122879,
            "time": 133.23241094375,
            "value": 0
          },
          {
            "number": 64,
            "ticks": 122880,
            "time": 133.233279,
            "value": 1
          },
          {
            "number": 64,
            "ticks": 125759,
            "time": 135.73241294375,
            "value": 0
          },
          {
            "number": 64,
            "ticks": 125760,
            "time": 135.733281,
            "value": 1
          },
          {
            "number": 64,
            "ticks": 128639,
            "time": 138.23241494375,
            "value": 0
          },
          {
            "number": 64,
            "ticks": 128640,
            "time": 138.233283,
            "value": 1
          },
          {
            "number": 64,
            "ticks": 131519,
            "time": 140.73241694375,
            "value": 0
          },
          {
            "number": 64,
            "ticks": 131520,
            "time": 140.733285,
            "value": 1
          },
          {
            "number": 64,
            "ticks": 134399,
            "time": 143.23241894375,
            "value": 0
          },
          {
            "number": 64,
            "ticks": 134400,
            "time": 143.23328700000002,
            "value": 1
          },
          {
            "number": 64,
            "ticks": 135839,
            "time": 144.48241994375002,
            "value": 0
          },
          {
            "number": 64,
            "ticks": 135840,
            "time": 144.48328800000002,
            "value": 1
          },
          {
            "number": 64,
            "ticks": 137279,
            "time": 145.73242094375001,
            "value": 0
          },
          {
            "number": 64,
            "ticks": 137280,
            "time": 145.733289,
            "value": 1
          },
          {
            "number": 64,
            "ticks": 140159,
            "time": 148.23242294375,
            "value": 0
          },
          {
            "number": 64,
            "ticks": 140160,
            "time": 148.233291,
            "value": 1
          },
          {
            "number": 64,
            "ticks": 141599,
            "time": 149.48242394375,
            "value": 0
          },
          {
            "number": 64,
            "ticks": 141600,
            "time": 149.483292,
            "value": 1
          },
          {
            "number": 64,
            "ticks": 143039,
            "time": 150.73242494375,
            "value": 0
          },
          {
            "number": 64,
            "ticks": 143040,
            "time": 150.733293,
            "value": 1
          },
          {
            "number": 64,
            "ticks": 145919,
            "time": 153.23242694375,
            "value": 0
          },
          {
            "number": 64,
            "ticks": 145920,
            "time": 153.233295,
            "value": 1
          },
          {
            "number": 64,
            "ticks": 148799,
            "time": 155.73242894375,
            "value": 0
          },
          {
            "number": 64,
            "ticks": 148800,
            "time": 155.733297,
            "value": 1
          },
          {
            "number": 64,
            "ticks": 151679,
            "time": 158.4702769291667,
            "value": 0
          },
          {
            "number": 64,
            "ticks": 151680,
            "time": 158.471393,
            "value": 1
          },
          {
            "number": 64,
            "ticks": 154559,
            "time": 160.97052694375,
            "value": 0
          },
          {
            "number": 64,
            "ticks": 154560,
            "time": 160.971395,
            "value": 1
          },
          {
            "number": 64,
            "ticks": 157439,
            "time": 163.47052894375,
            "value": 0
          },
          {
            "number": 64,
            "ticks": 157440,
            "time": 163.471397,
            "value": 1
          },
          {
            "number": 64,
            "ticks": 160319,
            "time": 165.97053094375,
            "value": 0
          },
          {
            "number": 64,
            "ticks": 160320,
            "time": 165.97139900000002,
            "value": 1
          },
          {
            "number": 64,
            "ticks": 163199,
            "time": 168.47053294375002,
            "value": 0
          },
          {
            "number": 64,
            "ticks": 163200,
            "time": 168.47140100000001,
            "value": 1
          },
          {
            "number": 64,
            "ticks": 166079,
            "time": 170.97053494375,
            "value": 0
          },
          {
            "number": 64,
            "ticks": 166080,
            "time": 170.971403,
            "value": 1
          },
          {
            "number": 64,
            "ticks": 168959,
            "time": 173.87362093541668,
            "value": 0
          }
        ]
      },
      "pitchBends": [],
      "instrument": {
        "family": "piano",
        "number": 0,
        "name": "acoustic grand piano"
      },
      "name": "",
      "notes": [
        {
          "duration": 0.41493038958333334,
          "durationTicks": 239,
          "midi": 61,
          "name": "C#4",
          "ticks": 0,
          "time": 0,
          "velocity": 0.6299212598425197
        },
        {
          "duration": 0.41493038958333334,
          "durationTicks": 239,
          "midi": 61,
          "name": "C#4",
          "ticks": 240,
          "time": 0.4166665,
          "velocity": 0.6299212598425197
        },
        {
          "duration": 0.4149303895833333,
          "durationTicks": 239,
          "midi": 61,
          "name": "C#4",
          "ticks": 480,
          "time": 0.833333,
          "velocity": 0.6299212598425197
        },
        {
          "duration": 0.4149303895833334,
          "durationTicks": 239,
          "midi": 61,
          "name": "C#4",
          "ticks": 720,
          "time": 1.2499995,
          "velocity": 0.6299212598425197
        },
        {
          "duration": 0.4149303895833334,
          "durationTicks": 239,
          "midi": 60,
          "name": "C4",
          "ticks": 960,
          "time": 1.666666,
          "velocity": 0.6299212598425197
        },
        {
          "duration": 0.41493038958333317,
          "durationTicks": 239,
          "midi": 60,
          "name": "C4",
          "ticks": 1200,
          "time": 2.0833325,
          "velocity": 0.6299212598425197
        },
        {
          "duration": 0.4149303895833336,
          "durationTicks": 239,
          "midi": 60,
          "name": "C4",
          "ticks": 1440,
          "time": 2.499999,
          "velocity": 0.6299212598425197
        },
        {
          "duration": 0.41493038958333317,
          "durationTicks": 239,
          "midi": 60,
          "name": "C4",
          "ticks": 1680,
          "time": 2.9166655,
          "velocity": 0.6299212598425197
        },
        {
          "duration": 0.27604155625000004,
          "durationTicks": 159,
          "midi": 41,
          "name": "F2",
          "ticks": 1920,
          "time": 3.333332,
          "velocity": 0.6299212598425197
        },
        {
          "duration": 0.27604155625000093,
          "durationTicks": 159,
          "midi": 48,
          "name": "C3",
          "ticks": 2080,
          "time": 3.611109666666666,
          "velocity": 0.6299212598425197
        },
        {
          "duration": 0.2760415562499996,
          "durationTicks": 159,
          "midi": 56,
          "name": "G#3",
          "ticks": 2240,
          "time": 3.8888873333333334,
          "velocity": 0.6299212598425197
        },
        {
          "duration": 0.27604155625000004,
          "durationTicks": 159,
          "midi": 48,
          "name": "C3",
          "ticks": 2400,
          "time": 4.166665,
          "velocity": 0.6299212598425197
        },
        {
          "duration": 0.27604155625000093,
          "durationTicks": 159,
          "midi": 56,
          "name": "G#3",
          "ticks": 2560,
          "time": 4.444442666666666,
          "velocity": 0.6299212598425197
        },
        {
          "duration": 0.27604155625000004,
          "durationTicks": 159,
          "midi": 60,
          "name": "C4",
          "ticks": 2720,
          "time": 4.7222203333333335,
          "velocity": 0.6299212598425197
        },
        {
          "duration": 1.664929889583334,
          "durationTicks": 959,
          "midi": 65,
          "name": "F4",
          "ticks": 2880,
          "time": 4.999998,
          "velocity": 0.6299212598425197
        },
        {
          "duration": 0.20746544374999942,
          "durationTicks": 239,
          "midi": 37,
          "name": "C#2",
          "ticks": 7680,
          "time": 13.333328,
          "velocity": 0.6299212598425197
        },
        {
          "duration": 0.20746544374999942,
          "durationTicks": 239,
          "midi": 44,
          "name": "G#2",
          "ticks": 7920,
          "time": 13.5416615,
          "velocity": 0.6299212598425197
        },
        {
          "duration": 0.20746544374999942,
          "durationTicks": 239,
          "midi": 49,
          "name": "C#3",
          "ticks": 8160,
          "time": 13.749995,
          "velocity": 0.6299212598425197
        },
        {
          "duration": 0.20746544374999942,
          "durationTicks": 239,
          "midi": 53,
          "name": "F3",
          "ticks": 8400,
          "time": 13.9583285,
          "velocity": 0.6299212598425197
        },
        {
          "duration": 0.2074654437500012,
          "durationTicks": 239,
          "midi": 36,
          "name": "C2",
          "ticks": 9120,
          "time": 14.583328999999999,
          "velocity": 0.6299212598425197
        },
        {
          "duration": 0.2074654437500012,
          "durationTicks": 239,
          "midi": 44,
          "name": "G#2",
          "ticks": 9360,
          "time": 14.7916625,
          "velocity": 0.6299212598425197
        },
        {
          "duration": 0.2074654437500012,
          "durationTicks": 239,
          "midi": 48,
          "name": "C3",
          "ticks": 9600,
          "time": 14.999996,
          "velocity": 0.6299212598425197
        },
        {
          "duration": 0.20746544374999942,
          "durationTicks": 239,
          "midi": 41,
          "name": "F2",
          "ticks": 10560,
          "time": 15.83333,
          "velocity": 0.6299212598425197
        },
        {
          "duration": 0.20746544375000298,
          "durationTicks": 239,
          "midi": 48,
          "name": "C3",
          "ticks": 10800,
          "time": 16.0416635,
          "velocity": 0.6299212598425197
        },
        {
          "duration": 0.20746544374999942,
          "durationTicks": 239,
          "midi": 53,
          "name": "F3",
          "ticks": 11040,
          "time": 16.249997,
          "velocity": 0.6299212598425197
        },
        {
          "duration": 0.20746544374999942,
          "durationTicks": 239,
          "midi": 56,
          "name": "G#3",
          "ticks": 12720,
          "time": 17.7083315,
          "velocity": 0.6299212598425197
        },
        {
          "duration": 0.20746544374999942,
          "durationTicks": 239,
          "midi": 53,
          "name": "F3",
          "ticks": 12960,
          "time": 17.916665000000002,
          "velocity": 0.6299212598425197
        },
        {
          "duration": 0.20746544374999942,
          "durationTicks": 239,
          "midi": 48,
          "name": "C3",
          "ticks": 13200,
          "time": 18.1249985,
          "velocity": 0.6299212598425197
        },
        {
          "duration": 0.20746544375000298,
          "durationTicks": 239,
          "midi": 37,
          "name": "C#2",
          "ticks": 13440,
          "time": 18.333332,
          "velocity": 0.6299212598425197
        },
        {
          "duration": 0.20746544374999942,
          "durationTicks": 239,
          "midi": 44,
          "name": "G#2",
          "ticks": 13680,
          "time": 18.5416655,
          "velocity": 0.6299212598425197
        },
        {
          "duration": 0.20746544374999942,
          "durationTicks": 239,
          "midi": 49,
          "name": "C#3",
          "ticks": 13920,
          "time": 18.749999,
          "velocity": 0.6299212598425197
        },
        {
          "duration": 0.20746544374999942,
          "durationTicks": 239,
          "midi": 53,
          "name": "F3",
          "ticks": 14160,
          "time": 18.9583325,
          "velocity": 0.6299212598425197
        },
        {
          "duration": 0.20746544374999942,
          "durationTicks": 239,
          "midi": 36,
          "name": "C2",
          "ticks": 14880,
          "time": 19.583333,
          "velocity": 0.6299212598425197
        },
        {
          "duration": 0.20746544375000298,
          "durationTicks": 239,
          "midi": 44,
          "name": "G#2",
          "ticks": 15120,
          "time": 19.791666499999998,
          "velocity": 0.6299212598425197
        },
        {
          "duration": 0.20746544374999942,
          "durationTicks": 239,
          "midi": 48,
          "name": "C3",
          "ticks": 15360,
          "time": 20,
          "velocity": 0.6299212598425197
        },
        {
          "duration": 0.20746544374999942,
          "durationTicks": 239,
          "midi": 41,
          "name": "F2",
          "ticks": 16320,
          "time": 20.833334,
          "velocity": 0.6299212598425197
        },
        {
          "duration": 0.20746544374999942,
          "durationTicks": 239,
          "midi": 48,
          "name": "C3",
          "ticks": 16560,
          "time": 21.0416675,
          "velocity": 0.6299212598425197
        },
        {
          "duration": 0.20746544374999942,
          "durationTicks": 239,
          "midi": 53,
          "name": "F3",
          "ticks": 16800,
          "time": 21.250001,
          "velocity": 0.6299212598425197
        },
        {
          "duration": 0.20746544374999942,
          "durationTicks": 239,
          "midi": 56,
          "name": "G#3",
          "ticks": 17040,
          "time": 21.4583345,
          "velocity": 0.6299212598425197
        },
        {
          "duration": 0.20746544374999587,
          "durationTicks": 239,
          "midi": 60,
          "name": "C4",
          "ticks": 17280,
          "time": 21.666668,
          "velocity": 0.6299212598425197
        },
        {
          "duration": 0.20746544374999942,
          "durationTicks": 239,
          "midi": 56,
          "name": "G#3",
          "ticks": 17520,
          "time": 21.8750015,
          "velocity": 0.6299212598425197
        },
        {
          "duration": 0.20746544374999587,
          "durationTicks": 239,
          "midi": 42,
          "name": "F#2",
          "ticks": 19200,
          "time": 23.333336000000003,
          "velocity": 0.6299212598425197
        },
        {
          "duration": 0.20746544375000298,
          "durationTicks": 239,
          "midi": 49,
          "name": "C#3",
          "ticks": 19440,
          "time": 23.541669499999998,
          "velocity": 0.6299212598425197
        },
        {
          "duration": 0.20746544374999942,
          "durationTicks": 239,
          "midi": 54,
          "name": "F#3",
          "ticks": 19680,
          "time": 23.750003,
          "velocity": 0.6299212598425197
        },
        {
          "duration": 0.20746544375000298,
          "durationTicks": 239,
          "midi": 58,
          "name": "A#3",
          "ticks": 21360,
          "time": 25.2083375,
          "velocity": 0.6299212598425197
        },
        {
          "duration": 0.20746544374999942,
          "durationTicks": 239,
          "midi": 54,
          "name": "F#3",
          "ticks": 21600,
          "time": 25.416671,
          "velocity": 0.6299212598425197
        },
        {
          "duration": 0.20746544374999942,
          "durationTicks": 239,
          "midi": 49,
          "name": "C#3",
          "ticks": 21840,
          "time": 25.6250045,
          "velocity": 0.6299212598425197
        },
        {
          "duration": 0.20746544375000298,
          "durationTicks": 239,
          "midi": 39,
          "name": "D#2",
          "ticks": 22080,
          "time": 25.833337999999998,
          "velocity": 0.6299212598425197
        },
        {
          "duration": 0.20746544374999942,
          "durationTicks": 239,
          "midi": 47,
          "name": "B2",
          "ticks": 22320,
          "time": 26.0416715,
          "velocity": 0.6299212598425197
        },
        {
          "duration": 0.20746544374999587,
          "durationTicks": 239,
          "midi": 51,
          "name": "D#3",
          "ticks": 22560,
          "time": 26.250005,
          "velocity": 0.6299212598425197
        },
        {
          "duration": 0.20746544374999942,
          "durationTicks": 239,
          "midi": 54,
          "name": "F#3",
          "ticks": 22800,
          "time": 26.4583385,
          "velocity": 0.6299212598425197
        },
        {
          "duration": 0.20746544375000298,
          "durationTicks": 239,
          "midi": 59,
          "name": "B3",
          "ticks": 23040,
          "time": 26.666672,
          "velocity": 0.6299212598425197
        },
        {
          "duration": 0.20746544375000298,
          "durationTicks": 239,
          "midi": 54,
          "name": "F#3",
          "ticks": 23280,
          "time": 26.8750055,
          "velocity": 0.6299212598425197
        },
        {
          "duration": 0.20746544375000298,
          "durationTicks": 239,
          "midi": 37,
          "name": "C#2",
          "ticks": 24960,
          "time": 28.33334,
          "velocity": 0.6299212598425197
        },
        {
          "duration": 0.20746544374999942,
          "durationTicks": 239,
          "midi": 44,
          "name": "G#2",
          "ticks": 25200,
          "time": 28.5416735,
          "velocity": 0.6299212598425197
        },
        {
          "duration": 0.20746544374999942,
          "durationTicks": 239,
          "midi": 49,
          "name": "C#3",
          "ticks": 25440,
          "time": 28.750007,
          "velocity": 0.6299212598425197
        },
        {
          "duration": 0.20746544374999587,
          "durationTicks": 239,
          "midi": 53,
          "name": "F3",
          "ticks": 27120,
          "time": 30.208341500000003,
          "velocity": 0.6299212598425197
        },
        {
          "duration": 0.20746544375000298,
          "durationTicks": 239,
          "midi": 49,
          "name": "C#3",
          "ticks": 27360,
          "time": 30.416674999999998,
          "velocity": 0.6299212598425197
        },
        {
          "duration": 0.20746544375000298,
          "durationTicks": 239,
          "midi": 44,
          "name": "G#2",
          "ticks": 27600,
          "time": 30.6250085,
          "velocity": 0.6299212598425197
        },
        {
          "duration": 0.20746544374999587,
          "durationTicks": 239,
          "midi": 41,
          "name": "F2",
          "ticks": 27840,
          "time": 30.833342000000002,
          "velocity": 0.6299212598425197
        },
        {
          "duration": 0.20746544374999587,
          "durationTicks": 239,
          "midi": 48,
          "name": "C3",
          "ticks": 28080,
          "time": 31.041675500000004,
          "velocity": 0.6299212598425197
        },
        {
          "duration": 0.20746544375000298,
          "durationTicks": 239,
          "midi": 53,
          "name": "F3",
          "ticks": 28320,
          "time": 31.250009,
          "velocity": 0.6299212598425197
        },
        {
          "duration": 0.20746544375000298,
          "durationTicks": 239,
          "midi": 56,
          "name": "G#3",
          "ticks": 30000,
          "time": 32.7083435,
          "velocity": 0.6299212598425197
        },
        {
          "duration": 0.20746544375000298,
          "durationTicks": 239,
          "midi": 53,
          "name": "F3",
          "ticks": 30240,
          "time": 32.916677,
          "velocity": 0.6299212598425197
        },
        {
          "duration": 0.20746544374999587,
          "durationTicks": 239,
          "midi": 48,
          "name": "C3",
          "ticks": 30480,
          "time": 33.1250105,
          "velocity": 0.6299212598425197
        },
        {
          "duration": 0.20746544374999587,
          "durationTicks": 239,
          "midi": 37,
          "name": "C#2",
          "ticks": 30720,
          "time": 33.333344000000004,
          "velocity": 0.6299212598425197
        },
        {
          "duration": 0.20746544375000298,
          "durationTicks": 239,
          "midi": 44,
          "name": "G#2",
          "ticks": 30960,
          "time": 33.5416775,
          "velocity": 0.6299212598425197
        },
        {
          "duration": 0.20746544375000298,
          "durationTicks": 239,
          "midi": 49,
          "name": "C#3",
          "ticks": 31200,
          "time": 33.750011,
          "velocity": 0.6299212598425197
        },
        {
          "duration": 0.20746544375000298,
          "durationTicks": 239,
          "midi": 53,
          "name": "F3",
          "ticks": 32880,
          "time": 35.2083455,
          "velocity": 0.6299212598425197
        },
        {
          "duration": 0.20746544374999587,
          "durationTicks": 239,
          "midi": 49,
          "name": "C#3",
          "ticks": 33120,
          "time": 35.416679,
          "velocity": 0.6299212598425197
        },
        {
          "duration": 0.20746544375000298,
          "durationTicks": 239,
          "midi": 44,
          "name": "G#2",
          "ticks": 33360,
          "time": 35.6250125,
          "velocity": 0.6299212598425197
        },
        {
          "duration": 0.20746544375000298,
          "durationTicks": 239,
          "midi": 41,
          "name": "F2",
          "ticks": 33600,
          "time": 35.833346,
          "velocity": 0.6299212598425197
        },
        {
          "duration": 0.20746544375000298,
          "durationTicks": 239,
          "midi": 48,
          "name": "C3",
          "ticks": 33840,
          "time": 36.0416795,
          "velocity": 0.6299212598425197
        },
        {
          "duration": 0.20746544374999587,
          "durationTicks": 239,
          "midi": 53,
          "name": "F3",
          "ticks": 34080,
          "time": 36.250013,
          "velocity": 0.6299212598425197
        },
        {
          "duration": 0.20746544374999587,
          "durationTicks": 239,
          "midi": 56,
          "name": "G#3",
          "ticks": 35760,
          "time": 37.7083475,
          "velocity": 0.6299212598425197
        },
        {
          "duration": 0.20746544375000298,
          "durationTicks": 239,
          "midi": 53,
          "name": "F3",
          "ticks": 36000,
          "time": 37.916681,
          "velocity": 0.6299212598425197
        },
        {
          "duration": 0.20746544375000298,
          "durationTicks": 239,
          "midi": 48,
          "name": "C3",
          "ticks": 36240,
          "time": 38.1250145,
          "velocity": 0.6299212598425197
        },
        {
          "duration": 0.20746544375000298,
          "durationTicks": 239,
          "midi": 37,
          "name": "C#2",
          "ticks": 36480,
          "time": 38.333348,
          "velocity": 0.6299212598425197
        },
        {
          "duration": 0.20746544374999587,
          "durationTicks": 239,
          "midi": 44,
          "name": "G#2",
          "ticks": 36720,
          "time": 38.5416815,
          "velocity": 0.6299212598425197
        },
        {
          "duration": 0.20746544375000298,
          "durationTicks": 239,
          "midi": 49,
          "name": "C#3",
          "ticks": 36960,
          "time": 38.750015,
          "velocity": 0.6299212598425197
        },
        {
          "duration": 0.20746544375000298,
          "durationTicks": 239,
          "midi": 53,
          "name": "F3",
          "ticks": 37200,
          "time": 38.9583485,
          "velocity": 0.6299212598425197
        },
        {
          "duration": 0.20746544375000298,
          "durationTicks": 239,
          "midi": 56,
          "name": "G#3",
          "ticks": 37440,
          "time": 39.166682,
          "velocity": 0.6299212598425197
        },
        {
          "duration": 0.20746544374999587,
          "durationTicks": 239,
          "midi": 61,
          "name": "C#4",
          "ticks": 37680,
          "time": 39.3750155,
          "velocity": 0.6299212598425197
        },
        {
          "duration": 0.20746544375000298,
          "durationTicks": 239,
          "midi": 36,
          "name": "C2",
          "ticks": 37920,
          "time": 39.583349,
          "velocity": 0.6299212598425197
        },
        {
          "duration": 0.20746544375000298,
          "durationTicks": 239,
          "midi": 44,
          "name": "G#2",
          "ticks": 38160,
          "time": 39.7916825,
          "velocity": 0.6299212598425197
        },
        {
          "duration": 0.20746544374999587,
          "durationTicks": 239,
          "midi": 48,
          "name": "C3",
          "ticks": 38400,
          "time": 40.000016,
          "velocity": 0.6299212598425197
        },
        {
          "duration": 0.20746544375000298,
          "durationTicks": 239,
          "midi": 56,
          "name": "G#3",
          "ticks": 38640,
          "time": 40.2083495,
          "velocity": 0.6299212598425197
        },
        {
          "duration": 0.20746544375000298,
          "durationTicks": 239,
          "midi": 65,
          "name": "F4",
          "ticks": 38880,
          "time": 40.416683,
          "velocity": 0.6299212598425197
        },
        {
          "duration": 0.20746544375000298,
          "durationTicks": 239,
          "midi": 60,
          "name": "C4",
          "ticks": 39120,
          "time": 40.6250165,
          "velocity": 0.6299212598425197
        },
        {
          "duration": 0.20746544374999587,
          "durationTicks": 239,
          "midi": 41,
          "name": "F2",
          "ticks": 39360,
          "time": 40.83335,
          "velocity": 0.6299212598425197
        },
        {
          "duration": 0.20746544375000298,
          "durationTicks": 239,
          "midi": 48,
          "name": "C3",
          "ticks": 39600,
          "time": 41.0416835,
          "velocity": 0.6299212598425197
        },
        {
          "duration": 0.20746544375000298,
          "durationTicks": 239,
          "midi": 53,
          "name": "F3",
          "ticks": 39840,
          "time": 41.250017,
          "velocity": 0.6299212598425197
        },
        {
          "duration": 0.20746544375000298,
          "durationTicks": 239,
          "midi": 56,
          "name": "G#3",
          "ticks": 40080,
          "time": 41.4583505,
          "velocity": 0.6299212598425197
        },
        {
          "duration": 0.20746544374999587,
          "durationTicks": 239,
          "midi": 60,
          "name": "C4",
          "ticks": 40320,
          "time": 41.666684000000004,
          "velocity": 0.6299212598425197
        },
        {
          "duration": 0.20746544375000298,
          "durationTicks": 239,
          "midi": 65,
          "name": "F4",
          "ticks": 40560,
          "time": 41.8750175,
          "velocity": 0.6299212598425197
        },
        {
          "duration": 0.4157989437500049,
          "durationTicks": 479,
          "midi": 65,
          "name": "F4",
          "ticks": 41280,
          "time": 42.500018,
          "velocity": 0.6299212598425197
        },
        {
          "duration": 0.4157989437499978,
          "durationTicks": 479,
          "midi": 60,
          "name": "C4",
          "ticks": 41760,
          "time": 42.916685,
          "velocity": 0.6299212598425197
        },
        {
          "duration": 0.20746544375000298,
          "durationTicks": 239,
          "midi": 42,
          "name": "F#2",
          "ticks": 42240,
          "time": 43.333352,
          "velocity": 0.6299212598425197
        },
        {
          "duration": 0.20746544375000298,
          "durationTicks": 239,
          "midi": 49,
          "name": "C#3",
          "ticks": 42480,
          "time": 43.5416855,
          "velocity": 0.6299212598425197
        },
        {
          "duration": 0.20746544375000298,
          "durationTicks": 239,
          "midi": 54,
          "name": "F#3",
          "ticks": 42720,
          "time": 43.750019,
          "velocity": 0.6299212598425197
        },
        {
          "duration": 0.20746544375000298,
          "durationTicks": 239,
          "midi": 58,
          "name": "A#3",
          "ticks": 44400,
          "time": 45.2083535,
          "velocity": 0.6299212598425197
        },
        {
          "duration": 0.20746544375000298,
          "durationTicks": 239,
          "midi": 54,
          "name": "F#3",
          "ticks": 44640,
          "time": 45.416687,
          "velocity": 0.6299212598425197
        },
        {
          "duration": 0.20746544374999587,
          "durationTicks": 239,
          "midi": 49,
          "name": "C#3",
          "ticks": 44880,
          "time": 45.625020500000005,
          "velocity": 0.6299212598425197
        },
        {
          "duration": 0.20746544375000298,
          "durationTicks": 239,
          "midi": 39,
          "name": "D#2",
          "ticks": 45120,
          "time": 45.833354,
          "velocity": 0.6299212598425197
        },
        {
          "duration": 0.20746544375000298,
          "durationTicks": 239,
          "midi": 47,
          "name": "B2",
          "ticks": 45360,
          "time": 46.0416875,
          "velocity": 0.6299212598425197
        },
        {
          "duration": 0.20746544374999587,
          "durationTicks": 239,
          "midi": 54,
          "name": "F#3",
          "ticks": 45600,
          "time": 46.250021000000004,
          "velocity": 0.6299212598425197
        },
        {
          "duration": 0.20746544374999587,
          "durationTicks": 239,
          "midi": 59,
          "name": "B3",
          "ticks": 45840,
          "time": 46.458354500000006,
          "velocity": 0.6299212598425197
        },
        {
          "duration": 0.20746544375000298,
          "durationTicks": 239,
          "midi": 66,
          "name": "F#4",
          "ticks": 46080,
          "time": 46.666688,
          "velocity": 0.6299212598425197
        },
        {
          "duration": 0.20746544375000298,
          "durationTicks": 239,
          "midi": 59,
          "name": "B3",
          "ticks": 46320,
          "time": 46.8750215,
          "velocity": 0.6299212598425197
        },
        {
          "duration": 1.2491329437499985,
          "durationTicks": 1439,
          "midi": 63,
          "name": "D#4",
          "ticks": 46560,
          "time": 47.083355000000005,
          "velocity": 0.6299212598425197
        },
        {
          "duration": 0.20746544375000298,
          "durationTicks": 239,
          "midi": 37,
          "name": "C#2",
          "ticks": 48000,
          "time": 48.333356,
          "velocity": 0.6299212598425197
        },
        {
          "duration": 0.20746544374999587,
          "durationTicks": 239,
          "midi": 44,
          "name": "G#2",
          "ticks": 48240,
          "time": 48.541689500000004,
          "velocity": 0.6299212598425197
        },
        {
          "duration": 0.20746544374999587,
          "durationTicks": 239,
          "midi": 49,
          "name": "C#3",
          "ticks": 48480,
          "time": 48.750023000000006,
          "velocity": 0.6299212598425197
        },
        {
          "duration": 0.20746544374999587,
          "durationTicks": 239,
          "midi": 53,
          "name": "F3",
          "ticks": 50160,
          "time": 50.208357500000005,
          "velocity": 0.6299212598425197
        },
        {
          "duration": 0.20746544375000298,
          "durationTicks": 239,
          "midi": 49,
          "name": "C#3",
          "ticks": 50400,
          "time": 50.416691,
          "velocity": 0.6299212598425197
        },
        {
          "duration": 0.20746544375000298,
          "durationTicks": 239,
          "midi": 44,
          "name": "G#2",
          "ticks": 50640,
          "time": 50.6250245,
          "velocity": 0.6299212598425197
        },
        {
          "duration": 0.20746544374999587,
          "durationTicks": 239,
          "midi": 41,
          "name": "F2",
          "ticks": 50880,
          "time": 50.833358000000004,
          "velocity": 0.6299212598425197
        },
        {
          "duration": 0.20746544374999587,
          "durationTicks": 239,
          "midi": 48,
          "name": "C3",
          "ticks": 51120,
          "time": 51.041691500000006,
          "velocity": 0.6299212598425197
        },
        {
          "duration": 0.20746544375000298,
          "durationTicks": 239,
          "midi": 53,
          "name": "F3",
          "ticks": 51360,
          "time": 51.250025,
          "velocity": 0.6299212598425197
        },
        {
          "duration": 0.4157989437500049,
          "durationTicks": 479,
          "midi": 56,
          "name": "G#3",
          "ticks": 53040,
          "time": 52.7083595,
          "velocity": 0.6299212598425197
        },
        {
          "duration": 0.20746544374999587,
          "durationTicks": 239,
          "midi": 53,
          "name": "F3",
          "ticks": 53520,
          "time": 53.125026500000004,
          "velocity": 0.6299212598425197
        },
        {
          "duration": 0.20746544374999587,
          "durationTicks": 239,
          "midi": 37,
          "name": "C#2",
          "ticks": 53760,
          "time": 53.333360000000006,
          "velocity": 0.6299212598425197
        },
        {
          "duration": 0.20746544375000298,
          "durationTicks": 239,
          "midi": 44,
          "name": "G#2",
          "ticks": 54000,
          "time": 53.5416935,
          "velocity": 0.6299212598425197
        },
        {
          "duration": 0.20746544375000298,
          "durationTicks": 239,
          "midi": 49,
          "name": "C#3",
          "ticks": 54240,
          "time": 53.750027,
          "velocity": 0.6299212598425197
        },
        {
          "duration": 0.20746544375000298,
          "durationTicks": 239,
          "midi": 53,
          "name": "F3",
          "ticks": 55920,
          "time": 55.2083615,
          "velocity": 0.6299212598425197
        },
        {
          "duration": 0.20746544374999587,
          "durationTicks": 239,
          "midi": 49,
          "name": "C#3",
          "ticks": 56160,
          "time": 55.416695000000004,
          "velocity": 0.6299212598425197
        },
        {
          "duration": 0.20746544375000298,
          "durationTicks": 239,
          "midi": 44,
          "name": "G#2",
          "ticks": 56400,
          "time": 55.6250285,
          "velocity": 0.6299212598425197
        },
        {
          "duration": 0.20746544375000298,
          "durationTicks": 239,
          "midi": 41,
          "name": "F2",
          "ticks": 56640,
          "time": 55.833362,
          "velocity": 0.6299212598425197
        },
        {
          "duration": 0.20746544375000298,
          "durationTicks": 239,
          "midi": 48,
          "name": "C3",
          "ticks": 56880,
          "time": 56.0416955,
          "velocity": 0.6299212598425197
        },
        {
          "duration": 0.20746544374999587,
          "durationTicks": 239,
          "midi": 53,
          "name": "F3",
          "ticks": 57120,
          "time": 56.250029000000005,
          "velocity": 0.6299212598425197
        },
        {
          "duration": 0.20746544374999587,
          "durationTicks": 239,
          "midi": 56,
          "name": "G#3",
          "ticks": 58800,
          "time": 57.708363500000004,
          "velocity": 0.6299212598425197
        },
        {
          "duration": 0.20746544375000298,
          "durationTicks": 239,
          "midi": 53,
          "name": "F3",
          "ticks": 59040,
          "time": 57.916697,
          "velocity": 0.6299212598425197
        },
        {
          "duration": 0.20746544375000298,
          "durationTicks": 239,
          "midi": 48,
          "name": "C3",
          "ticks": 59280,
          "time": 58.1250305,
          "velocity": 0.6299212598425197
        },
        {
          "duration": 0.20746544375000298,
          "durationTicks": 239,
          "midi": 37,
          "name": "C#2",
          "ticks": 59520,
          "time": 58.333364,
          "velocity": 0.6299212598425197
        },
        {
          "duration": 0.20746544374999587,
          "durationTicks": 239,
          "midi": 44,
          "name": "G#2",
          "ticks": 59760,
          "time": 58.541697500000005,
          "velocity": 0.6299212598425197
        },
        {
          "duration": 0.20746544375000298,
          "durationTicks": 239,
          "midi": 49,
          "name": "C#3",
          "ticks": 60000,
          "time": 58.750031,
          "velocity": 0.6299212598425197
        },
        {
          "duration": 0.20746544375000298,
          "durationTicks": 239,
          "midi": 53,
          "name": "F3",
          "ticks": 61680,
          "time": 60.2083655,
          "velocity": 0.6299212598425197
        },
        {
          "duration": 0.20746544375000298,
          "durationTicks": 239,
          "midi": 49,
          "name": "C#3",
          "ticks": 61920,
          "time": 60.416699,
          "velocity": 0.6299212598425197
        },
        {
          "duration": 0.20746544375000298,
          "durationTicks": 239,
          "midi": 44,
          "name": "G#2",
          "ticks": 62160,
          "time": 60.6250325,
          "velocity": 0.6299212598425197
        },
        {
          "duration": 0.20746544374999587,
          "durationTicks": 239,
          "midi": 41,
          "name": "F2",
          "ticks": 62400,
          "time": 60.833366000000005,
          "velocity": 0.6299212598425197
        },
        {
          "duration": 0.20746544375000298,
          "durationTicks": 239,
          "midi": 48,
          "name": "C3",
          "ticks": 62640,
          "time": 61.0416995,
          "velocity": 0.6299212598425197
        },
        {
          "duration": 0.20746544375000298,
          "durationTicks": 239,
          "midi": 53,
          "name": "F3",
          "ticks": 62880,
          "time": 61.250033,
          "velocity": 0.6299212598425197
        },
        {
          "duration": 0.20746544375000298,
          "durationTicks": 239,
          "midi": 56,
          "name": "G#3",
          "ticks": 64560,
          "time": 62.7083675,
          "velocity": 0.6299212598425197
        },
        {
          "duration": 0.20746544375000298,
          "durationTicks": 239,
          "midi": 53,
          "name": "F3",
          "ticks": 64800,
          "time": 62.916701,
          "velocity": 0.6299212598425197
        },
        {
          "duration": 0.20746544374999587,
          "durationTicks": 239,
          "midi": 48,
          "name": "C3",
          "ticks": 65040,
          "time": 63.125034500000005,
          "velocity": 0.6299212598425197
        },
        {
          "duration": 0.20746544375000298,
          "durationTicks": 239,
          "midi": 39,
          "name": "D#2",
          "ticks": 65280,
          "time": 63.333368,
          "velocity": 0.6299212598425197
        },
        {
          "duration": 0.20746544375000298,
          "durationTicks": 239,
          "midi": 56,
          "name": "G#3",
          "ticks": 65520,
          "time": 63.5417015,
          "velocity": 0.6299212598425197
        },
        {
          "duration": 0.20746544375000298,
          "durationTicks": 239,
          "midi": 60,
          "name": "C4",
          "ticks": 65760,
          "time": 63.750035000000004,
          "velocity": 0.6299212598425197
        },
        {
          "duration": 0.20746544374999587,
          "durationTicks": 239,
          "midi": 65,
          "name": "F4",
          "ticks": 66000,
          "time": 63.958368500000006,
          "velocity": 0.6299212598425197
        },
        {
          "duration": 0.20746544374999587,
          "durationTicks": 239,
          "midi": 38,
          "name": "D2",
          "ticks": 66720,
          "time": 64.583369,
          "velocity": 0.6299212598425197
        },
        {
          "duration": 0.20746544374999587,
          "durationTicks": 239,
          "midi": 56,
          "name": "G#3",
          "ticks": 66960,
          "time": 64.7917025,
          "velocity": 0.6299212598425197
        },
        {
          "duration": 0.20746544375001008,
          "durationTicks": 239,
          "midi": 60,
          "name": "C4",
          "ticks": 67200,
          "time": 65.000036,
          "velocity": 0.6299212598425197
        },
        {
          "duration": 0.20746544374999587,
          "durationTicks": 239,
          "midi": 65,
          "name": "F4",
          "ticks": 67440,
          "time": 65.2083695,
          "velocity": 0.6299212598425197
        },
        {
          "duration": 0.6241324437499998,
          "durationTicks": 719,
          "midi": 46,
          "name": "A#2",
          "ticks": 68160,
          "time": 65.83337,
          "velocity": 0.6299212598425197
        },
        {
          "duration": 0.6241324437499998,
          "durationTicks": 719,
          "midi": 67,
          "name": "G4",
          "ticks": 68880,
          "time": 66.4583705,
          "velocity": 0.6299212598425197
        },
        {
          "duration": 0.6241324437499998,
          "durationTicks": 719,
          "midi": 62,
          "name": "D4",
          "ticks": 68880,
          "time": 66.4583705,
          "velocity": 0.6299212598425197
        },
        {
          "duration": 0.6241324437499998,
          "durationTicks": 719,
          "midi": 58,
          "name": "A#3",
          "ticks": 68880,
          "time": 66.4583705,
          "velocity": 0.6299212598425197
        },
        {
          "duration": 0.6241324437499998,
          "durationTicks": 719,
          "midi": 67,
          "name": "G4",
          "ticks": 69600,
          "time": 67.083371,
          "velocity": 0.6299212598425197
        },
        {
          "duration": 0.6241324437499998,
          "durationTicks": 719,
          "midi": 62,
          "name": "D4",
          "ticks": 69600,
          "time": 67.083371,
          "velocity": 0.6299212598425197
        },
        {
          "duration": 0.6241324437499998,
          "durationTicks": 719,
          "midi": 58,
          "name": "A#3",
          "ticks": 69600,
          "time": 67.083371,
          "velocity": 0.6299212598425197
        },
        {
          "duration": 0.6241324437499998,
          "durationTicks": 719,
          "midi": 65,
          "name": "F4",
          "ticks": 70320,
          "time": 67.7083715,
          "velocity": 0.6299212598425197
        },
        {
          "duration": 0.6241324437499998,
          "durationTicks": 719,
          "midi": 60,
          "name": "C4",
          "ticks": 70320,
          "time": 67.7083715,
          "velocity": 0.6299212598425197
        },
        {
          "duration": 0.20703125,
          "durationTicks": 159,
          "midi": 39,
          "name": "D#2",
          "ticks": 71040,
          "time": 68.333372,
          "velocity": 0.6299212598425197
        },
        {
          "duration": 0.20703125,
          "durationTicks": 159,
          "midi": 46,
          "name": "A#2",
          "ticks": 71200,
          "time": 68.54170533333333,
          "velocity": 0.6299212598425197
        },
        {
          "duration": 0.20703125,
          "durationTicks": 159,
          "midi": 51,
          "name": "D#3",
          "ticks": 71360,
          "time": 68.75003866666667,
          "velocity": 0.6299212598425197
        },
        {
          "duration": 0.20703125,
          "durationTicks": 159,
          "midi": 46,
          "name": "A#2",
          "ticks": 71520,
          "time": 68.958372,
          "velocity": 0.6299212598425197
        },
        {
          "duration": 0.20703125,
          "durationTicks": 159,
          "midi": 51,
          "name": "D#3",
          "ticks": 71680,
          "time": 69.16670533333333,
          "velocity": 0.6299212598425197
        },
        {
          "duration": 0.20703125,
          "durationTicks": 159,
          "midi": 55,
          "name": "G3",
          "ticks": 71840,
          "time": 69.37503866666667,
          "velocity": 0.6299212598425197
        },
        {
          "duration": 0.20703125,
          "durationTicks": 159,
          "midi": 51,
          "name": "D#3",
          "ticks": 72000,
          "time": 69.583372,
          "velocity": 0.6299212598425197
        },
        {
          "duration": 0.20703125,
          "durationTicks": 159,
          "midi": 55,
          "name": "G3",
          "ticks": 72160,
          "time": 69.79170533333333,
          "velocity": 0.6299212598425197
        },
        {
          "duration": 0.20703125,
          "durationTicks": 159,
          "midi": 58,
          "name": "A#3",
          "ticks": 72320,
          "time": 70.00003866666667,
          "velocity": 0.6299212598425197
        },
        {
          "duration": 0.20703125,
          "durationTicks": 159,
          "midi": 55,
          "name": "G3",
          "ticks": 72480,
          "time": 70.208372,
          "velocity": 0.6299212598425197
        },
        {
          "duration": 0.20703125,
          "durationTicks": 159,
          "midi": 58,
          "name": "A#3",
          "ticks": 72640,
          "time": 70.41670533333333,
          "velocity": 0.6299212598425197
        },
        {
          "duration": 0.20703125,
          "durationTicks": 159,
          "midi": 63,
          "name": "D#4",
          "ticks": 72800,
          "time": 70.62503866666667,
          "velocity": 0.6299212598425197
        },
        {
          "duration": 0.1774552625000041,
          "durationTicks": 159,
          "midi": 67,
          "name": "G4",
          "ticks": 72960,
          "time": 70.833372,
          "velocity": 0.6299212598425197
        },
        {
          "duration": 0.17745526249998989,
          "durationTicks": 159,
          "midi": 70,
          "name": "A#4",
          "ticks": 73120,
          "time": 71.01194333333333,
          "velocity": 0.6299212598425197
        },
        {
          "duration": 0.1774552625000041,
          "durationTicks": 159,
          "midi": 75,
          "name": "D#5",
          "ticks": 73280,
          "time": 71.19051466666666,
          "velocity": 0.6299212598425197
        },
        {
          "duration": 0.1774552625000041,
          "durationTicks": 159,
          "midi": 39,
          "name": "D#2",
          "ticks": 73920,
          "time": 71.9048,
          "velocity": 0.6299212598425197
        },
        {
          "duration": 0.1774552625000041,
          "durationTicks": 159,
          "midi": 48,
          "name": "C3",
          "ticks": 74080,
          "time": 72.08337133333333,
          "velocity": 0.6299212598425197
        },
        {
          "duration": 0.17745526249998989,
          "durationTicks": 159,
          "midi": 55,
          "name": "G3",
          "ticks": 74240,
          "time": 72.26194266666667,
          "velocity": 0.6299212598425197
        },
        {
          "duration": 0.1774552625000041,
          "durationTicks": 159,
          "midi": 60,
          "name": "C4",
          "ticks": 74400,
          "time": 72.440514,
          "velocity": 0.6299212598425197
        },
        {
          "duration": 0.1774552625000041,
          "durationTicks": 159,
          "midi": 63,
          "name": "D#4",
          "ticks": 74560,
          "time": 72.61908533333333,
          "velocity": 0.6299212598425197
        },
        {
          "duration": 0.17745526249998989,
          "durationTicks": 159,
          "midi": 67,
          "name": "G4",
          "ticks": 74720,
          "time": 72.79765666666667,
          "velocity": 0.6299212598425197
        },
        {
          "duration": 0.1774552625000041,
          "durationTicks": 159,
          "midi": 55,
          "name": "G3",
          "ticks": 74880,
          "time": 72.97622799999999,
          "velocity": 0.6299212598425197
        },
        {
          "duration": 0.1774552625000041,
          "durationTicks": 159,
          "midi": 60,
          "name": "C4",
          "ticks": 75040,
          "time": 73.15479933333333,
          "velocity": 0.6299212598425197
        },
        {
          "duration": 0.17745526249998989,
          "durationTicks": 159,
          "midi": 63,
          "name": "D#4",
          "ticks": 75200,
          "time": 73.33337066666667,
          "velocity": 0.6299212598425197
        },
        {
          "duration": 0.1840279249999952,
          "durationTicks": 159,
          "midi": 55,
          "name": "G3",
          "ticks": 75840,
          "time": 74.047656,
          "velocity": 0.6299212598425197
        },
        {
          "duration": 0.1840279249999952,
          "durationTicks": 159,
          "midi": 60,
          "name": "C4",
          "ticks": 76000,
          "time": 74.23284133333334,
          "velocity": 0.6299212598425197
        },
        {
          "duration": 0.1840279249999952,
          "durationTicks": 159,
          "midi": 63,
          "name": "D#4",
          "ticks": 76160,
          "time": 74.41802666666668,
          "velocity": 0.6299212598425197
        },
        {
          "duration": 0.18402792500000942,
          "durationTicks": 159,
          "midi": 57,
          "name": "A3",
          "ticks": 76320,
          "time": 74.603212,
          "velocity": 0.6299212598425197
        },
        {
          "duration": 0.1840279249999952,
          "durationTicks": 159,
          "midi": 60,
          "name": "C4",
          "ticks": 76480,
          "time": 74.78839733333334,
          "velocity": 0.6299212598425197
        },
        {
          "duration": 0.1840279249999952,
          "durationTicks": 159,
          "midi": 63,
          "name": "D#4",
          "ticks": 76640,
          "time": 74.97358266666667,
          "velocity": 0.6299212598425197
        },
        {
          "duration": 0.1840279249999952,
          "durationTicks": 159,
          "midi": 55,
          "name": "G3",
          "ticks": 76800,
          "time": 75.15876800000001,
          "velocity": 0.6299212598425197
        },
        {
          "duration": 0.18402792500000942,
          "durationTicks": 159,
          "midi": 60,
          "name": "C4",
          "ticks": 76960,
          "time": 75.34395333333333,
          "velocity": 0.6299212598425197
        },
        {
          "duration": 0.1840279249999952,
          "durationTicks": 159,
          "midi": 63,
          "name": "D#4",
          "ticks": 77120,
          "time": 75.52913866666667,
          "velocity": 0.6299212598425197
        },
        {
          "duration": 0.1840279249999952,
          "durationTicks": 159,
          "midi": 57,
          "name": "A3",
          "ticks": 77280,
          "time": 75.714324,
          "velocity": 0.6299212598425197
        },
        {
          "duration": 0.1840279249999952,
          "durationTicks": 159,
          "midi": 60,
          "name": "C4",
          "ticks": 77440,
          "time": 75.89950933333334,
          "velocity": 0.6299212598425197
        },
        {
          "duration": 0.18402792500000942,
          "durationTicks": 159,
          "midi": 63,
          "name": "D#4",
          "ticks": 77600,
          "time": 76.08469466666666,
          "velocity": 0.6299212598425197
        },
        {
          "duration": 0.18402792500000942,
          "durationTicks": 159,
          "midi": 58,
          "name": "A#3",
          "ticks": 77760,
          "time": 76.26988,
          "velocity": 0.6299212598425197
        },
        {
          "duration": 0.1840279249999952,
          "durationTicks": 159,
          "midi": 63,
          "name": "D#4",
          "ticks": 77920,
          "time": 76.45506533333334,
          "velocity": 0.6299212598425197
        },
        {
          "duration": 0.1840279249999952,
          "durationTicks": 159,
          "midi": 66,
          "name": "F#4",
          "ticks": 78080,
          "time": 76.64025066666667,
          "velocity": 0.6299212598425197
        },
        {
          "duration": 0.1840279249999952,
          "durationTicks": 159,
          "midi": 60,
          "name": "C4",
          "ticks": 78240,
          "time": 76.82543600000001,
          "velocity": 0.6299212598425197
        },
        {
          "duration": 0.18402792500000942,
          "durationTicks": 159,
          "midi": 63,
          "name": "D#4",
          "ticks": 78400,
          "time": 77.01062133333333,
          "velocity": 0.6299212598425197
        },
        {
          "duration": 0.1840279249999952,
          "durationTicks": 159,
          "midi": 66,
          "name": "F#4",
          "ticks": 78560,
          "time": 77.19580666666667,
          "velocity": 0.6299212598425197
        },
        {
          "duration": 0.1840279249999952,
          "durationTicks": 159,
          "midi": 58,
          "name": "A#3",
          "ticks": 78720,
          "time": 77.380992,
          "velocity": 0.6299212598425197
        },
        {
          "duration": 0.1840279249999952,
          "durationTicks": 159,
          "midi": 63,
          "name": "D#4",
          "ticks": 78880,
          "time": 77.56617733333334,
          "velocity": 0.6299212598425197
        },
        {
          "duration": 0.18402792500000942,
          "durationTicks": 159,
          "midi": 66,
          "name": "F#4",
          "ticks": 79040,
          "time": 77.75136266666667,
          "velocity": 0.6299212598425197
        },
        {
          "duration": 0.1840279249999952,
          "durationTicks": 159,
          "midi": 60,
          "name": "C4",
          "ticks": 79200,
          "time": 77.936548,
          "velocity": 0.6299212598425197
        },
        {
          "duration": 0.1840279249999952,
          "durationTicks": 159,
          "midi": 63,
          "name": "D#4",
          "ticks": 79360,
          "time": 78.12173333333334,
          "velocity": 0.6299212598425197
        },
        {
          "duration": 0.1840279249999952,
          "durationTicks": 159,
          "midi": 66,
          "name": "F#4",
          "ticks": 79520,
          "time": 78.30691866666668,
          "velocity": 0.6299212598425197
        },
        {
          "duration": 0.18402792500000942,
          "durationTicks": 159,
          "midi": 61,
          "name": "C#4",
          "ticks": 79680,
          "time": 78.492104,
          "velocity": 0.6299212598425197
        },
        {
          "duration": 0.18402792500000942,
          "durationTicks": 159,
          "midi": 66,
          "name": "F#4",
          "ticks": 79840,
          "time": 78.67728933333333,
          "velocity": 0.6299212598425197
        },
        {
          "duration": 0.1840279249999952,
          "durationTicks": 159,
          "midi": 70,
          "name": "A#4",
          "ticks": 80000,
          "time": 78.86247466666667,
          "velocity": 0.6299212598425197
        },
        {
          "duration": 0.1840279249999952,
          "durationTicks": 159,
          "midi": 63,
          "name": "D#4",
          "ticks": 80160,
          "time": 79.04766000000001,
          "velocity": 0.6299212598425197
        },
        {
          "duration": 0.1840279249999952,
          "durationTicks": 159,
          "midi": 66,
          "name": "F#4",
          "ticks": 80320,
          "time": 79.23284533333334,
          "velocity": 0.6299212598425197
        },
        {
          "duration": 0.18402792500000942,
          "durationTicks": 159,
          "midi": 70,
          "name": "A#4",
          "ticks": 80480,
          "time": 79.41803066666667,
          "velocity": 0.6299212598425197
        },
        {
          "duration": 0.1840279249999952,
          "durationTicks": 159,
          "midi": 61,
          "name": "C#4",
          "ticks": 80640,
          "time": 79.603216,
          "velocity": 0.6299212598425197
        },
        {
          "duration": 0.1840279249999952,
          "durationTicks": 159,
          "midi": 66,
          "name": "F#4",
          "ticks": 80800,
          "time": 79.78840133333334,
          "velocity": 0.6299212598425197
        },
        {
          "duration": 0.1840279249999952,
          "durationTicks": 159,
          "midi": 70,
          "name": "A#4",
          "ticks": 80960,
          "time": 79.97358666666668,
          "velocity": 0.6299212598425197
        },
        {
          "duration": 0.18402792500000942,
          "durationTicks": 159,
          "midi": 63,
          "name": "D#4",
          "ticks": 81120,
          "time": 80.158772,
          "velocity": 0.6299212598425197
        },
        {
          "duration": 0.1840279249999952,
          "durationTicks": 159,
          "midi": 66,
          "name": "F#4",
          "ticks": 81280,
          "time": 80.34395733333334,
          "velocity": 0.6299212598425197
        },
        {
          "duration": 0.1840279249999952,
          "durationTicks": 159,
          "midi": 70,
          "name": "A#4",
          "ticks": 81440,
          "time": 80.52914266666667,
          "velocity": 0.6299212598425197
        },
        {
          "duration": 0.1840279249999952,
          "durationTicks": 159,
          "midi": 61,
          "name": "C#4",
          "ticks": 81600,
          "time": 80.71432800000001,
          "velocity": 0.6299212598425197
        },
        {
          "duration": 0.18402792500000942,
          "durationTicks": 159,
          "midi": 66,
          "name": "F#4",
          "ticks": 81760,
          "time": 80.89951333333333,
          "velocity": 0.6299212598425197
        },
        {
          "duration": 0.18402792500000942,
          "durationTicks": 159,
          "midi": 70,
          "name": "A#4",
          "ticks": 81920,
          "time": 81.08469866666667,
          "velocity": 0.6299212598425197
        },
        {
          "duration": 0.1840279249999952,
          "durationTicks": 159,
          "midi": 63,
          "name": "D#4",
          "ticks": 82080,
          "time": 81.269884,
          "velocity": 0.6299212598425197
        },
        {
          "duration": 0.1840279249999952,
          "durationTicks": 159,
          "midi": 66,
          "name": "F#4",
          "ticks": 82240,
          "time": 81.45506933333334,
          "velocity": 0.6299212598425197
        },
        {
          "duration": 0.18402792500000942,
          "durationTicks": 159,
          "midi": 70,
          "name": "A#4",
          "ticks": 82400,
          "time": 81.64025466666666,
          "velocity": 0.6299212598425197
        },
        {
          "duration": 0.18402792500000942,
          "durationTicks": 159,
          "midi": 61,
          "name": "C#4",
          "ticks": 82560,
          "time": 81.82544,
          "velocity": 0.6299212598425197
        },
        {
          "duration": 0.1840279249999952,
          "durationTicks": 159,
          "midi": 66,
          "name": "F#4",
          "ticks": 82720,
          "time": 82.01062533333334,
          "velocity": 0.6299212598425197
        },
        {
          "duration": 0.1840279249999952,
          "durationTicks": 159,
          "midi": 70,
          "name": "A#4",
          "ticks": 82880,
          "time": 82.19581066666667,
          "velocity": 0.6299212598425197
        },
        {
          "duration": 0.1840279249999952,
          "durationTicks": 159,
          "midi": 63,
          "name": "D#4",
          "ticks": 83040,
          "time": 82.38099600000001,
          "velocity": 0.6299212598425197
        },
        {
          "duration": 0.18402792500000942,
          "durationTicks": 159,
          "midi": 66,
          "name": "F#4",
          "ticks": 83200,
          "time": 82.56618133333333,
          "velocity": 0.6299212598425197
        },
        {
          "duration": 0.1840279249999952,
          "durationTicks": 159,
          "midi": 70,
          "name": "A#4",
          "ticks": 83360,
          "time": 82.75136666666667,
          "velocity": 0.6299212598425197
        },
        {
          "duration": 5.554402591666658,
          "durationTicks": 4799,
          "midi": 70,
          "name": "A#4",
          "ticks": 83520,
          "time": 82.936552,
          "velocity": 0.6299212598425197
        },
        {
          "duration": 5.554402591666658,
          "durationTicks": 4799,
          "midi": 66,
          "name": "F#4",
          "ticks": 83520,
          "time": 82.936552,
          "velocity": 0.6299212598425197
        },
        {
          "duration": 5.554402591666658,
          "durationTicks": 4799,
          "midi": 65,
          "name": "F4",
          "ticks": 83520,
          "time": 82.936552,
          "velocity": 0.6299212598425197
        },
        {
          "duration": 0.27662059166667063,
          "durationTicks": 239,
          "midi": 51,
          "name": "D#3",
          "ticks": 88320,
          "time": 88.492112,
          "velocity": 0.6299212598425197
        },
        {
          "duration": 4.443290591666667,
          "durationTicks": 3839,
          "midi": 54,
          "name": "F#3",
          "ticks": 88560,
          "time": 88.76989,
          "velocity": 0.6299212598425197
        },
        {
          "duration": 4.443290591666667,
          "durationTicks": 3839,
          "midi": 48,
          "name": "C3",
          "ticks": 88560,
          "time": 88.76989,
          "velocity": 0.6299212598425197
        },
        {
          "duration": 0.27662059166667063,
          "durationTicks": 239,
          "midi": 44,
          "name": "G#2",
          "ticks": 92160,
          "time": 92.93656,
          "velocity": 0.6299212598425197
        },
        {
          "duration": 0.27662059166667063,
          "durationTicks": 239,
          "midi": 54,
          "name": "F#3",
          "ticks": 92400,
          "time": 93.214338,
          "velocity": 0.6299212598425197
        },
        {
          "duration": 1.66551059166666,
          "durationTicks": 1439,
          "midi": 60,
          "name": "C4",
          "ticks": 92640,
          "time": 93.49211600000001,
          "velocity": 0.6299212598425197
        },
        {
          "duration": 0.18402792500000942,
          "durationTicks": 159,
          "midi": 37,
          "name": "C#2",
          "ticks": 94080,
          "time": 95.158784,
          "velocity": 0.6299212598425197
        },
        {
          "duration": 0.1840279249999952,
          "durationTicks": 159,
          "midi": 46,
          "name": "A#2",
          "ticks": 94240,
          "time": 95.34396933333335,
          "velocity": 0.6299212598425197
        },
        {
          "duration": 0.18402792500000942,
          "durationTicks": 159,
          "midi": 49,
          "name": "C#3",
          "ticks": 94400,
          "time": 95.52915466666667,
          "velocity": 0.6299212598425197
        },
        {
          "duration": 0.1840279249999952,
          "durationTicks": 159,
          "midi": 54,
          "name": "F#3",
          "ticks": 94560,
          "time": 95.71434,
          "velocity": 0.6299212598425197
        },
        {
          "duration": 0.1840279249999952,
          "durationTicks": 159,
          "midi": 58,
          "name": "A#3",
          "ticks": 94720,
          "time": 95.89952533333334,
          "velocity": 0.6299212598425197
        },
        {
          "duration": 0.18402792500000942,
          "durationTicks": 159,
          "midi": 61,
          "name": "C#4",
          "ticks": 94880,
          "time": 96.08471066666667,
          "velocity": 0.6299212598425197
        },
        {
          "duration": 1.2990845458333382,
          "durationTicks": 959,
          "midi": 49,
          "name": "C#3",
          "ticks": 95040,
          "time": 96.269896,
          "velocity": 0.6299212598425197
        },
        {
          "duration": 0.33948854583333343,
          "durationTicks": 239,
          "midi": 37,
          "name": "C#2",
          "ticks": 96000,
          "time": 97.570401,
          "velocity": 0.6299212598425197
        },
        {
          "duration": 0.33948854583333343,
          "durationTicks": 239,
          "midi": 49,
          "name": "C#3",
          "ticks": 96240,
          "time": 97.91131,
          "velocity": 0.6299212598425197
        },
        {
          "duration": 0.33948854583333343,
          "durationTicks": 239,
          "midi": 59,
          "name": "B3",
          "ticks": 96480,
          "time": 98.252219,
          "velocity": 0.6299212598425197
        },
        {
          "duration": 0.33948854583333343,
          "durationTicks": 239,
          "midi": 54,
          "name": "F#3",
          "ticks": 96720,
          "time": 98.59312800000001,
          "velocity": 0.6299212598425197
        },
        {
          "duration": 2.7258515458333363,
          "durationTicks": 1919,
          "midi": 53,
          "name": "F3",
          "ticks": 96960,
          "time": 98.934037,
          "velocity": 0.6299212598425197
        },
        {
          "duration": 0.466796875,
          "durationTicks": 239,
          "midi": 61,
          "name": "C#4",
          "ticks": 99840,
          "time": 103.024945,
          "velocity": 0.6299212598425197
        },
        {
          "duration": 0.466796875,
          "durationTicks": 239,
          "midi": 58,
          "name": "A#3",
          "ticks": 99840,
          "time": 103.024945,
          "velocity": 0.6299212598425197
        },
        {
          "duration": 0.466796875,
          "durationTicks": 239,
          "midi": 61,
          "name": "C#4",
          "ticks": 100080,
          "time": 103.493695,
          "velocity": 0.6299212598425197
        },
        {
          "duration": 0.466796875,
          "durationTicks": 239,
          "midi": 58,
          "name": "A#3",
          "ticks": 100080,
          "time": 103.493695,
          "velocity": 0.6299212598425197
        },
        {
          "duration": 0.4149303895833327,
          "durationTicks": 239,
          "midi": 61,
          "name": "C#4",
          "ticks": 100320,
          "time": 103.962445,
          "velocity": 0.6299212598425197
        },
        {
          "duration": 0.4149303895833327,
          "durationTicks": 239,
          "midi": 58,
          "name": "A#3",
          "ticks": 100320,
          "time": 103.962445,
          "velocity": 0.6299212598425197
        },
        {
          "duration": 0.4149303895833327,
          "durationTicks": 239,
          "midi": 61,
          "name": "C#4",
          "ticks": 100560,
          "time": 104.37911150000001,
          "velocity": 0.6299212598425197
        },
        {
          "duration": 0.4149303895833327,
          "durationTicks": 239,
          "midi": 58,
          "name": "A#3",
          "ticks": 100560,
          "time": 104.37911150000001,
          "velocity": 0.6299212598425197
        },
        {
          "duration": 0.4149303895833327,
          "durationTicks": 239,
          "midi": 61,
          "name": "C#4",
          "ticks": 100800,
          "time": 104.795778,
          "velocity": 0.6299212598425197
        },
        {
          "duration": 0.4149303895833327,
          "durationTicks": 239,
          "midi": 58,
          "name": "A#3",
          "ticks": 100800,
          "time": 104.795778,
          "velocity": 0.6299212598425197
        },
        {
          "duration": 0.4149303895833327,
          "durationTicks": 239,
          "midi": 61,
          "name": "C#4",
          "ticks": 101040,
          "time": 105.2124445,
          "velocity": 0.6299212598425197
        },
        {
          "duration": 0.4149303895833327,
          "durationTicks": 239,
          "midi": 58,
          "name": "A#3",
          "ticks": 101040,
          "time": 105.2124445,
          "velocity": 0.6299212598425197
        },
        {
          "duration": 0.4149303895833327,
          "durationTicks": 239,
          "midi": 61,
          "name": "C#4",
          "ticks": 101280,
          "time": 105.62911100000001,
          "velocity": 0.6299212598425197
        },
        {
          "duration": 0.4149303895833327,
          "durationTicks": 239,
          "midi": 58,
          "name": "A#3",
          "ticks": 101280,
          "time": 105.62911100000001,
          "velocity": 0.6299212598425197
        },
        {
          "duration": 0.4149303895833327,
          "durationTicks": 239,
          "midi": 61,
          "name": "C#4",
          "ticks": 101520,
          "time": 106.0457775,
          "velocity": 0.6299212598425197
        },
        {
          "duration": 0.4149303895833327,
          "durationTicks": 239,
          "midi": 58,
          "name": "A#3",
          "ticks": 101520,
          "time": 106.0457775,
          "velocity": 0.6299212598425197
        },
        {
          "duration": 3.331595889583326,
          "durationTicks": 1919,
          "midi": 61,
          "name": "C#4",
          "ticks": 101760,
          "time": 106.462444,
          "velocity": 0.6299212598425197
        },
        {
          "duration": 3.331595889583326,
          "durationTicks": 1919,
          "midi": 58,
          "name": "A#3",
          "ticks": 101760,
          "time": 106.462444,
          "velocity": 0.6299212598425197
        },
        {
          "duration": 0.466796875,
          "durationTicks": 239,
          "midi": 61,
          "name": "C#4",
          "ticks": 103680,
          "time": 109.795776,
          "velocity": 0.6299212598425197
        },
        {
          "duration": 0.466796875,
          "durationTicks": 239,
          "midi": 58,
          "name": "A#3",
          "ticks": 103680,
          "time": 109.795776,
          "velocity": 0.6299212598425197
        },
        {
          "duration": 0.466796875,
          "durationTicks": 239,
          "midi": 61,
          "name": "C#4",
          "ticks": 103920,
          "time": 110.264526,
          "velocity": 0.6299212598425197
        },
        {
          "duration": 0.466796875,
          "durationTicks": 239,
          "midi": 58,
          "name": "A#3",
          "ticks": 103920,
          "time": 110.264526,
          "velocity": 0.6299212598425197
        },
        {
          "duration": 0.4149303895833327,
          "durationTicks": 239,
          "midi": 61,
          "name": "C#4",
          "ticks": 104160,
          "time": 110.733276,
          "velocity": 0.6299212598425197
        },
        {
          "duration": 0.4149303895833327,
          "durationTicks": 239,
          "midi": 58,
          "name": "A#3",
          "ticks": 104160,
          "time": 110.733276,
          "velocity": 0.6299212598425197
        },
        {
          "duration": 0.4149303895833327,
          "durationTicks": 239,
          "midi": 61,
          "name": "C#4",
          "ticks": 104400,
          "time": 111.14994250000001,
          "velocity": 0.6299212598425197
        },
        {
          "duration": 0.4149303895833327,
          "durationTicks": 239,
          "midi": 58,
          "name": "A#3",
          "ticks": 104400,
          "time": 111.14994250000001,
          "velocity": 0.6299212598425197
        },
        {
          "duration": 0.4149303895833327,
          "durationTicks": 239,
          "midi": 61,
          "name": "C#4",
          "ticks": 104640,
          "time": 111.566609,
          "velocity": 0.6299212598425197
        },
        {
          "duration": 0.4149303895833327,
          "durationTicks": 239,
          "midi": 58,
          "name": "A#3",
          "ticks": 104640,
          "time": 111.566609,
          "velocity": 0.6299212598425197
        },
        {
          "duration": 0.4149303895833327,
          "durationTicks": 239,
          "midi": 51,
          "name": "D#3",
          "ticks": 104640,
          "time": 111.566609,
          "velocity": 0.6299212598425197
        },
        {
          "duration": 0.4149303895833327,
          "durationTicks": 239,
          "midi": 61,
          "name": "C#4",
          "ticks": 104880,
          "time": 111.9832755,
          "velocity": 0.6299212598425197
        },
        {
          "duration": 0.4149303895833327,
          "durationTicks": 239,
          "midi": 58,
          "name": "A#3",
          "ticks": 104880,
          "time": 111.9832755,
          "velocity": 0.6299212598425197
        },
        {
          "duration": 0.4149303895833327,
          "durationTicks": 239,
          "midi": 51,
          "name": "D#3",
          "ticks": 104880,
          "time": 111.9832755,
          "velocity": 0.6299212598425197
        },
        {
          "duration": 0.4149303895833327,
          "durationTicks": 239,
          "midi": 61,
          "name": "C#4",
          "ticks": 105120,
          "time": 112.39994200000001,
          "velocity": 0.6299212598425197
        },
        {
          "duration": 0.4149303895833327,
          "durationTicks": 239,
          "midi": 58,
          "name": "A#3",
          "ticks": 105120,
          "time": 112.39994200000001,
          "velocity": 0.6299212598425197
        },
        {
          "duration": 0.4149303895833327,
          "durationTicks": 239,
          "midi": 51,
          "name": "D#3",
          "ticks": 105120,
          "time": 112.39994200000001,
          "velocity": 0.6299212598425197
        },
        {
          "duration": 0.4149303895833327,
          "durationTicks": 239,
          "midi": 61,
          "name": "C#4",
          "ticks": 105360,
          "time": 112.8166085,
          "velocity": 0.6299212598425197
        },
        {
          "duration": 0.4149303895833327,
          "durationTicks": 239,
          "midi": 58,
          "name": "A#3",
          "ticks": 105360,
          "time": 112.8166085,
          "velocity": 0.6299212598425197
        },
        {
          "duration": 0.4149303895833327,
          "durationTicks": 239,
          "midi": 51,
          "name": "D#3",
          "ticks": 105360,
          "time": 112.8166085,
          "velocity": 0.6299212598425197
        },
        {
          "duration": 0.27604155624999294,
          "durationTicks": 159,
          "midi": 46,
          "name": "A#2",
          "ticks": 105600,
          "time": 113.233275,
          "velocity": 0.6299212598425197
        },
        {
          "duration": 0.27604155624999294,
          "durationTicks": 159,
          "midi": 53,
          "name": "F3",
          "ticks": 105760,
          "time": 113.51105266666667,
          "velocity": 0.6299212598425197
        },
        {
          "duration": 0.27604155625000715,
          "durationTicks": 159,
          "midi": 58,
          "name": "A#3",
          "ticks": 105920,
          "time": 113.78883033333334,
          "velocity": 0.6299212598425197
        },
        {
          "duration": 0.27604155625000715,
          "durationTicks": 159,
          "midi": 53,
          "name": "F3",
          "ticks": 106080,
          "time": 114.066608,
          "velocity": 0.6299212598425197
        },
        {
          "duration": 0.27604155625000715,
          "durationTicks": 159,
          "midi": 58,
          "name": "A#3",
          "ticks": 106240,
          "time": 114.34438566666667,
          "velocity": 0.6299212598425197
        },
        {
          "duration": 0.27604155625000715,
          "durationTicks": 159,
          "midi": 61,
          "name": "C#4",
          "ticks": 106400,
          "time": 114.62216333333333,
          "velocity": 0.6299212598425197
        },
        {
          "duration": 0.4149303895833327,
          "durationTicks": 239,
          "midi": 65,
          "name": "F4",
          "ticks": 106560,
          "time": 114.899941,
          "velocity": 0.6299212598425197
        },
        {
          "duration": 1.2482633895833288,
          "durationTicks": 719,
          "midi": 70,
          "name": "A#4",
          "ticks": 106800,
          "time": 115.3166075,
          "velocity": 0.6299212598425197
        },
        {
          "duration": 0.20746544374999587,
          "durationTicks": 239,
          "midi": 37,
          "name": "C#2",
          "ticks": 111360,
          "time": 123.233271,
          "velocity": 0.6299212598425197
        },
        {
          "duration": 0.20746544375001008,
          "durationTicks": 239,
          "midi": 44,
          "name": "G#2",
          "ticks": 111600,
          "time": 123.4416045,
          "velocity": 0.6299212598425197
        },
        {
          "duration": 0.20746544374999587,
          "durationTicks": 239,
          "midi": 49,
          "name": "C#3",
          "ticks": 111840,
          "time": 123.649938,
          "velocity": 0.6299212598425197
        },
        {
          "duration": 0.20746544374999587,
          "durationTicks": 239,
          "midi": 53,
          "name": "F3",
          "ticks": 112080,
          "time": 123.8582715,
          "velocity": 0.6299212598425197
        },
        {
          "duration": 0.20746544375001008,
          "durationTicks": 239,
          "midi": 56,
          "name": "G#3",
          "ticks": 112320,
          "time": 124.066605,
          "velocity": 0.6299212598425197
        },
        {
          "duration": 0.20746544374999587,
          "durationTicks": 239,
          "midi": 61,
          "name": "C#4",
          "ticks": 112560,
          "time": 124.2749385,
          "velocity": 0.6299212598425197
        },
        {
          "duration": 0.20746544374999587,
          "durationTicks": 239,
          "midi": 48,
          "name": "C3",
          "ticks": 112800,
          "time": 124.483272,
          "velocity": 0.6299212598425197
        },
        {
          "duration": 0.20746544374999587,
          "durationTicks": 239,
          "midi": 53,
          "name": "F3",
          "ticks": 113040,
          "time": 124.69160550000001,
          "velocity": 0.6299212598425197
        },
        {
          "duration": 0.20746544374999587,
          "durationTicks": 239,
          "midi": 56,
          "name": "G#3",
          "ticks": 113280,
          "time": 124.899939,
          "velocity": 0.6299212598425197
        },
        {
          "duration": 0.20746544375001008,
          "durationTicks": 239,
          "midi": 60,
          "name": "C4",
          "ticks": 113520,
          "time": 125.1082725,
          "velocity": 0.6299212598425197
        },
        {
          "duration": 0.20746544374999587,
          "durationTicks": 239,
          "midi": 65,
          "name": "F4",
          "ticks": 113760,
          "time": 125.31660600000001,
          "velocity": 0.6299212598425197
        },
        {
          "duration": 0.20746544374999587,
          "durationTicks": 239,
          "midi": 60,
          "name": "C4",
          "ticks": 114000,
          "time": 125.5249395,
          "velocity": 0.6299212598425197
        },
        {
          "duration": 0.20746544375001008,
          "durationTicks": 239,
          "midi": 41,
          "name": "F2",
          "ticks": 114240,
          "time": 125.733273,
          "velocity": 0.6299212598425197
        },
        {
          "duration": 0.20746544374999587,
          "durationTicks": 239,
          "midi": 48,
          "name": "C3",
          "ticks": 114480,
          "time": 125.9416065,
          "velocity": 0.6299212598425197
        },
        {
          "duration": 0.20746544374999587,
          "durationTicks": 239,
          "midi": 53,
          "name": "F3",
          "ticks": 114720,
          "time": 126.14994,
          "velocity": 0.6299212598425197
        },
        {
          "duration": 0.20746544374999587,
          "durationTicks": 239,
          "midi": 56,
          "name": "G#3",
          "ticks": 116400,
          "time": 127.60827450000001,
          "velocity": 0.6299212598425197
        },
        {
          "duration": 0.20746544375001008,
          "durationTicks": 239,
          "midi": 53,
          "name": "F3",
          "ticks": 116640,
          "time": 127.816608,
          "velocity": 0.6299212598425197
        },
        {
          "duration": 0.20746544374998166,
          "durationTicks": 239,
          "midi": 48,
          "name": "C3",
          "ticks": 116880,
          "time": 128.0249415,
          "velocity": 0.6299212598425197
        },
        {
          "duration": 0.20746544375001008,
          "durationTicks": 239,
          "midi": 37,
          "name": "C#2",
          "ticks": 117120,
          "time": 128.233275,
          "velocity": 0.6299212598425197
        },
        {
          "duration": 0.20746544375001008,
          "durationTicks": 239,
          "midi": 44,
          "name": "G#2",
          "ticks": 117360,
          "time": 128.4416085,
          "velocity": 0.6299212598425197
        },
        {
          "duration": 0.20746544374998166,
          "durationTicks": 239,
          "midi": 49,
          "name": "C#3",
          "ticks": 117600,
          "time": 128.649942,
          "velocity": 0.6299212598425197
        },
        {
          "duration": 0.20746544375001008,
          "durationTicks": 239,
          "midi": 53,
          "name": "F3",
          "ticks": 117840,
          "time": 128.8582755,
          "velocity": 0.6299212598425197
        },
        {
          "duration": 0.20746544375001008,
          "durationTicks": 239,
          "midi": 56,
          "name": "G#3",
          "ticks": 118080,
          "time": 129.066609,
          "velocity": 0.6299212598425197
        },
        {
          "duration": 0.20746544374998166,
          "durationTicks": 239,
          "midi": 61,
          "name": "C#4",
          "ticks": 118320,
          "time": 129.2749425,
          "velocity": 0.6299212598425197
        },
        {
          "duration": 0.20746544375001008,
          "durationTicks": 239,
          "midi": 48,
          "name": "C3",
          "ticks": 118560,
          "time": 129.483276,
          "velocity": 0.6299212598425197
        },
        {
          "duration": 0.20746544375001008,
          "durationTicks": 239,
          "midi": 53,
          "name": "F3",
          "ticks": 118800,
          "time": 129.6916095,
          "velocity": 0.6299212598425197
        },
        {
          "duration": 0.20746544374998166,
          "durationTicks": 239,
          "midi": 56,
          "name": "G#3",
          "ticks": 119040,
          "time": 129.899943,
          "velocity": 0.6299212598425197
        },
        {
          "duration": 0.20746544375001008,
          "durationTicks": 239,
          "midi": 60,
          "name": "C4",
          "ticks": 119280,
          "time": 130.1082765,
          "velocity": 0.6299212598425197
        },
        {
          "duration": 0.20746544375001008,
          "durationTicks": 239,
          "midi": 65,
          "name": "F4",
          "ticks": 119520,
          "time": 130.31661,
          "velocity": 0.6299212598425197
        },
        {
          "duration": 0.20746544374998166,
          "durationTicks": 239,
          "midi": 60,
          "name": "C4",
          "ticks": 119760,
          "time": 130.5249435,
          "velocity": 0.6299212598425197
        },
        {
          "duration": 0.20746544374998166,
          "durationTicks": 239,
          "midi": 41,
          "name": "F2",
          "ticks": 120000,
          "time": 130.73327700000002,
          "velocity": 0.6299212598425197
        },
        {
          "duration": 0.20746544375001008,
          "durationTicks": 239,
          "midi": 48,
          "name": "C3",
          "ticks": 120240,
          "time": 130.9416105,
          "velocity": 0.6299212598425197
        },
        {
          "duration": 0.20746544374998166,
          "durationTicks": 239,
          "midi": 53,
          "name": "F3",
          "ticks": 120480,
          "time": 131.149944,
          "velocity": 0.6299212598425197
        },
        {
          "duration": 0.20746544374998166,
          "durationTicks": 239,
          "midi": 56,
          "name": "G#3",
          "ticks": 120720,
          "time": 131.3582775,
          "velocity": 0.6299212598425197
        },
        {
          "duration": 0.20746544375001008,
          "durationTicks": 239,
          "midi": 60,
          "name": "C4",
          "ticks": 120960,
          "time": 131.566611,
          "velocity": 0.6299212598425197
        },
        {
          "duration": 0.8324659437500088,
          "durationTicks": 959,
          "midi": 65,
          "name": "F4",
          "ticks": 121200,
          "time": 131.7749445,
          "velocity": 0.6299212598425197
        },
        {
          "duration": 0.20746544374998166,
          "durationTicks": 239,
          "midi": 68,
          "name": "G#4",
          "ticks": 122160,
          "time": 132.6082785,
          "velocity": 0.6299212598425197
        },
        {
          "duration": 0.20746544375001008,
          "durationTicks": 239,
          "midi": 65,
          "name": "F4",
          "ticks": 122400,
          "time": 132.816612,
          "velocity": 0.6299212598425197
        },
        {
          "duration": 0.20746544375001008,
          "durationTicks": 239,
          "midi": 60,
          "name": "C4",
          "ticks": 122640,
          "time": 133.0249455,
          "velocity": 0.6299212598425197
        },
        {
          "duration": 0.20746544374998166,
          "durationTicks": 239,
          "midi": 42,
          "name": "F#2",
          "ticks": 122880,
          "time": 133.233279,
          "velocity": 0.6299212598425197
        },
        {
          "duration": 0.20746544375001008,
          "durationTicks": 239,
          "midi": 49,
          "name": "C#3",
          "ticks": 123120,
          "time": 133.4416125,
          "velocity": 0.6299212598425197
        },
        {
          "duration": 0.20746544375001008,
          "durationTicks": 239,
          "midi": 54,
          "name": "F#3",
          "ticks": 123360,
          "time": 133.649946,
          "velocity": 0.6299212598425197
        },
        {
          "duration": 0.20746544375001008,
          "durationTicks": 239,
          "midi": 58,
          "name": "A#3",
          "ticks": 125040,
          "time": 135.1082805,
          "velocity": 0.6299212598425197
        },
        {
          "duration": 0.20746544374998166,
          "durationTicks": 239,
          "midi": 54,
          "name": "F#3",
          "ticks": 125280,
          "time": 135.31661400000002,
          "velocity": 0.6299212598425197
        },
        {
          "duration": 0.20746544375001008,
          "durationTicks": 239,
          "midi": 49,
          "name": "C#3",
          "ticks": 125520,
          "time": 135.5249475,
          "velocity": 0.6299212598425197
        },
        {
          "duration": 0.20746544375001008,
          "durationTicks": 239,
          "midi": 39,
          "name": "D#2",
          "ticks": 125760,
          "time": 135.733281,
          "velocity": 0.6299212598425197
        },
        {
          "duration": 0.20746544374998166,
          "durationTicks": 239,
          "midi": 54,
          "name": "F#3",
          "ticks": 126000,
          "time": 135.94161450000001,
          "velocity": 0.6299212598425197
        },
        {
          "duration": 0.20746544375001008,
          "durationTicks": 239,
          "midi": 54,
          "name": "F#3",
          "ticks": 126960,
          "time": 136.7749485,
          "velocity": 0.6299212598425197
        },
        {
          "duration": 0.20746544375001008,
          "durationTicks": 239,
          "midi": 59,
          "name": "B3",
          "ticks": 127200,
          "time": 136.983282,
          "velocity": 0.6299212598425197
        },
        {
          "duration": 0.20746544374998166,
          "durationTicks": 239,
          "midi": 63,
          "name": "D#4",
          "ticks": 127440,
          "time": 137.1916155,
          "velocity": 0.6299212598425197
        },
        {
          "duration": 0.20746544375001008,
          "durationTicks": 239,
          "midi": 59,
          "name": "B3",
          "ticks": 127680,
          "time": 137.399949,
          "velocity": 0.6299212598425197
        },
        {
          "duration": 0.20746544375001008,
          "durationTicks": 239,
          "midi": 66,
          "name": "F#4",
          "ticks": 127920,
          "time": 137.6082825,
          "velocity": 0.6299212598425197
        },
        {
          "duration": 0.20746544374998166,
          "durationTicks": 239,
          "midi": 63,
          "name": "D#4",
          "ticks": 128160,
          "time": 137.816616,
          "velocity": 0.6299212598425197
        },
        {
          "duration": 0.20746544375001008,
          "durationTicks": 239,
          "midi": 59,
          "name": "B3",
          "ticks": 128400,
          "time": 138.0249495,
          "velocity": 0.6299212598425197
        },
        {
          "duration": 0.20746544375001008,
          "durationTicks": 239,
          "midi": 37,
          "name": "C#2",
          "ticks": 128640,
          "time": 138.233283,
          "velocity": 0.6299212598425197
        },
        {
          "duration": 0.20746544374998166,
          "durationTicks": 239,
          "midi": 44,
          "name": "G#2",
          "ticks": 128880,
          "time": 138.4416165,
          "velocity": 0.6299212598425197
        },
        {
          "duration": 0.20746544375001008,
          "durationTicks": 239,
          "midi": 49,
          "name": "C#3",
          "ticks": 129120,
          "time": 138.64995,
          "velocity": 0.6299212598425197
        },
        {
          "duration": 0.20746544375001008,
          "durationTicks": 239,
          "midi": 53,
          "name": "F3",
          "ticks": 130800,
          "time": 140.1082845,
          "velocity": 0.6299212598425197
        },
        {
          "duration": 0.20746544375001008,
          "durationTicks": 239,
          "midi": 49,
          "name": "C#3",
          "ticks": 131040,
          "time": 140.316618,
          "velocity": 0.6299212598425197
        },
        {
          "duration": 0.20746544374998166,
          "durationTicks": 239,
          "midi": 44,
          "name": "G#2",
          "ticks": 131280,
          "time": 140.52495150000001,
          "velocity": 0.6299212598425197
        },
        {
          "duration": 0.20746544375001008,
          "durationTicks": 239,
          "midi": 41,
          "name": "F2",
          "ticks": 131520,
          "time": 140.733285,
          "velocity": 0.6299212598425197
        },
        {
          "duration": 0.20746544375001008,
          "durationTicks": 239,
          "midi": 48,
          "name": "C3",
          "ticks": 131760,
          "time": 140.9416185,
          "velocity": 0.6299212598425197
        },
        {
          "duration": 0.20746544374998166,
          "durationTicks": 239,
          "midi": 53,
          "name": "F3",
          "ticks": 132000,
          "time": 141.149952,
          "velocity": 0.6299212598425197
        },
        {
          "duration": 0.20746544375001008,
          "durationTicks": 239,
          "midi": 56,
          "name": "G#3",
          "ticks": 133680,
          "time": 142.6082865,
          "velocity": 0.6299212598425197
        },
        {
          "duration": 0.20746544375001008,
          "durationTicks": 239,
          "midi": 53,
          "name": "F3",
          "ticks": 133920,
          "time": 142.81662,
          "velocity": 0.6299212598425197
        },
        {
          "duration": 0.20746544374998166,
          "durationTicks": 239,
          "midi": 48,
          "name": "C3",
          "ticks": 134160,
          "time": 143.0249535,
          "velocity": 0.6299212598425197
        },
        {
          "duration": 0.20746544374998166,
          "durationTicks": 239,
          "midi": 37,
          "name": "C#2",
          "ticks": 134400,
          "time": 143.23328700000002,
          "velocity": 0.6299212598425197
        },
        {
          "duration": 0.20746544375001008,
          "durationTicks": 239,
          "midi": 44,
          "name": "G#2",
          "ticks": 134640,
          "time": 143.4416205,
          "velocity": 0.6299212598425197
        },
        {
          "duration": 0.20746544375001008,
          "durationTicks": 239,
          "midi": 49,
          "name": "C#3",
          "ticks": 134880,
          "time": 143.649954,
          "velocity": 0.6299212598425197
        },
        {
          "duration": 0.20746544374998166,
          "durationTicks": 239,
          "midi": 53,
          "name": "F3",
          "ticks": 135120,
          "time": 143.85828750000002,
          "velocity": 0.6299212598425197
        },
        {
          "duration": 0.20746544374998166,
          "durationTicks": 239,
          "midi": 36,
          "name": "C2",
          "ticks": 135840,
          "time": 144.48328800000002,
          "velocity": 0.6299212598425197
        },
        {
          "duration": 0.20746544375001008,
          "durationTicks": 239,
          "midi": 44,
          "name": "G#2",
          "ticks": 136080,
          "time": 144.6916215,
          "velocity": 0.6299212598425197
        },
        {
          "duration": 0.20746544375001008,
          "durationTicks": 239,
          "midi": 48,
          "name": "C3",
          "ticks": 136320,
          "time": 144.899955,
          "velocity": 0.6299212598425197
        },
        {
          "duration": 0.20746544374998166,
          "durationTicks": 239,
          "midi": 41,
          "name": "F2",
          "ticks": 137280,
          "time": 145.733289,
          "velocity": 0.6299212598425197
        },
        {
          "duration": 0.20746544375001008,
          "durationTicks": 239,
          "midi": 48,
          "name": "C3",
          "ticks": 137520,
          "time": 145.9416225,
          "velocity": 0.6299212598425197
        },
        {
          "duration": 0.20746544375001008,
          "durationTicks": 239,
          "midi": 53,
          "name": "F3",
          "ticks": 137760,
          "time": 146.149956,
          "velocity": 0.6299212598425197
        },
        {
          "duration": 0.20746544374998166,
          "durationTicks": 239,
          "midi": 56,
          "name": "G#3",
          "ticks": 139440,
          "time": 147.6082905,
          "velocity": 0.6299212598425197
        },
        {
          "duration": 0.20746544375001008,
          "durationTicks": 239,
          "midi": 53,
          "name": "F3",
          "ticks": 139680,
          "time": 147.816624,
          "velocity": 0.6299212598425197
        },
        {
          "duration": 0.20746544375001008,
          "durationTicks": 239,
          "midi": 48,
          "name": "C3",
          "ticks": 139920,
          "time": 148.0249575,
          "velocity": 0.6299212598425197
        },
        {
          "duration": 0.20746544374998166,
          "durationTicks": 239,
          "midi": 37,
          "name": "C#2",
          "ticks": 140160,
          "time": 148.233291,
          "velocity": 0.6299212598425197
        },
        {
          "duration": 0.20746544375001008,
          "durationTicks": 239,
          "midi": 44,
          "name": "G#2",
          "ticks": 140400,
          "time": 148.4416245,
          "velocity": 0.6299212598425197
        },
        {
          "duration": 0.20746544375001008,
          "durationTicks": 239,
          "midi": 49,
          "name": "C#3",
          "ticks": 140640,
          "time": 148.649958,
          "velocity": 0.6299212598425197
        },
        {
          "duration": 0.20746544374998166,
          "durationTicks": 239,
          "midi": 53,
          "name": "F3",
          "ticks": 140880,
          "time": 148.8582915,
          "velocity": 0.6299212598425197
        },
        {
          "duration": 0.20746544374998166,
          "durationTicks": 239,
          "midi": 36,
          "name": "C2",
          "ticks": 141600,
          "time": 149.483292,
          "velocity": 0.6299212598425197
        },
        {
          "duration": 0.20746544374998166,
          "durationTicks": 239,
          "midi": 44,
          "name": "G#2",
          "ticks": 141840,
          "time": 149.69162550000001,
          "velocity": 0.6299212598425197
        },
        {
          "duration": 0.20746544375001008,
          "durationTicks": 239,
          "midi": 48,
          "name": "C3",
          "ticks": 142080,
          "time": 149.899959,
          "velocity": 0.6299212598425197
        },
        {
          "duration": 0.20746544375001008,
          "durationTicks": 239,
          "midi": 41,
          "name": "F2",
          "ticks": 143040,
          "time": 150.733293,
          "velocity": 0.6299212598425197
        },
        {
          "duration": 0.20746544374998166,
          "durationTicks": 239,
          "midi": 48,
          "name": "C3",
          "ticks": 143280,
          "time": 150.9416265,
          "velocity": 0.6299212598425197
        },
        {
          "duration": 0.20746544375001008,
          "durationTicks": 239,
          "midi": 53,
          "name": "F3",
          "ticks": 143520,
          "time": 151.14996,
          "velocity": 0.6299212598425197
        },
        {
          "duration": 0.20746544375001008,
          "durationTicks": 239,
          "midi": 56,
          "name": "G#3",
          "ticks": 143760,
          "time": 151.3582935,
          "velocity": 0.6299212598425197
        },
        {
          "duration": 0.20746544374998166,
          "durationTicks": 239,
          "midi": 60,
          "name": "C4",
          "ticks": 144000,
          "time": 151.566627,
          "velocity": 0.6299212598425197
        },
        {
          "duration": 0.20746544375001008,
          "durationTicks": 239,
          "midi": 56,
          "name": "G#3",
          "ticks": 144240,
          "time": 151.7749605,
          "velocity": 0.6299212598425197
        },
        {
          "duration": 0.20746544375001008,
          "durationTicks": 239,
          "midi": 42,
          "name": "F#2",
          "ticks": 145920,
          "time": 153.233295,
          "velocity": 0.6299212598425197
        },
        {
          "duration": 0.20746544375001008,
          "durationTicks": 239,
          "midi": 49,
          "name": "C#3",
          "ticks": 146160,
          "time": 153.4416285,
          "velocity": 0.6299212598425197
        },
        {
          "duration": 0.20746544374998166,
          "durationTicks": 239,
          "midi": 54,
          "name": "F#3",
          "ticks": 146400,
          "time": 153.64996200000002,
          "velocity": 0.6299212598425197
        },
        {
          "duration": 0.20746544375001008,
          "durationTicks": 239,
          "midi": 58,
          "name": "A#3",
          "ticks": 148080,
          "time": 155.1082965,
          "velocity": 0.6299212598425197
        },
        {
          "duration": 0.20746544375001008,
          "durationTicks": 239,
          "midi": 54,
          "name": "F#3",
          "ticks": 148320,
          "time": 155.31663,
          "velocity": 0.6299212598425197
        },
        {
          "duration": 0.20746544374998166,
          "durationTicks": 239,
          "midi": 49,
          "name": "C#3",
          "ticks": 148560,
          "time": 155.5249635,
          "velocity": 0.6299212598425197
        },
        {
          "duration": 0.20746544375001008,
          "durationTicks": 239,
          "midi": 39,
          "name": "D#2",
          "ticks": 148800,
          "time": 155.733297,
          "velocity": 0.6299212598425197
        },
        {
          "duration": 0.20746544375001008,
          "durationTicks": 239,
          "midi": 47,
          "name": "B2",
          "ticks": 149040,
          "time": 155.9416305,
          "velocity": 0.6299212598425197
        },
        {
          "duration": 0.20746544374998166,
          "durationTicks": 239,
          "midi": 51,
          "name": "D#3",
          "ticks": 149280,
          "time": 156.149964,
          "velocity": 0.6299212598425197
        },
        {
          "duration": 0.20746544375001008,
          "durationTicks": 239,
          "midi": 54,
          "name": "F#3",
          "ticks": 149520,
          "time": 156.3582975,
          "velocity": 0.6299212598425197
        },
        {
          "duration": 0.20746544375001008,
          "durationTicks": 239,
          "midi": 59,
          "name": "B3",
          "ticks": 149760,
          "time": 156.566631,
          "velocity": 0.6299212598425197
        },
        {
          "duration": 0.20746544374998166,
          "durationTicks": 239,
          "midi": 54,
          "name": "F#3",
          "ticks": 150000,
          "time": 156.7749645,
          "velocity": 0.6299212598425197
        },
        {
          "duration": 0.20746544375001008,
          "durationTicks": 239,
          "midi": 37,
          "name": "C#2",
          "ticks": 151680,
          "time": 158.471393,
          "velocity": 0.6299212598425197
        },
        {
          "duration": 0.20746544374998166,
          "durationTicks": 239,
          "midi": 44,
          "name": "G#2",
          "ticks": 151920,
          "time": 158.67972650000002,
          "velocity": 0.6299212598425197
        },
        {
          "duration": 0.20746544375001008,
          "durationTicks": 239,
          "midi": 49,
          "name": "C#3",
          "ticks": 152160,
          "time": 158.88806,
          "velocity": 0.6299212598425197
        },
        {
          "duration": 0.20746544375001008,
          "durationTicks": 239,
          "midi": 53,
          "name": "F3",
          "ticks": 153840,
          "time": 160.3463945,
          "velocity": 0.6299212598425197
        },
        {
          "duration": 0.20746544374998166,
          "durationTicks": 239,
          "midi": 49,
          "name": "C#3",
          "ticks": 154080,
          "time": 160.554728,
          "velocity": 0.6299212598425197
        },
        {
          "duration": 0.20746544375001008,
          "durationTicks": 239,
          "midi": 44,
          "name": "G#2",
          "ticks": 154320,
          "time": 160.7630615,
          "velocity": 0.6299212598425197
        },
        {
          "duration": 0.20746544375001008,
          "durationTicks": 239,
          "midi": 41,
          "name": "F2",
          "ticks": 154560,
          "time": 160.971395,
          "velocity": 0.6299212598425197
        },
        {
          "duration": 0.20746544375001008,
          "durationTicks": 239,
          "midi": 48,
          "name": "C3",
          "ticks": 154800,
          "time": 161.1797285,
          "velocity": 0.6299212598425197
        },
        {
          "duration": 0.20746544374998166,
          "durationTicks": 239,
          "midi": 53,
          "name": "F3",
          "ticks": 155040,
          "time": 161.38806200000002,
          "velocity": 0.6299212598425197
        },
        {
          "duration": 0.20746544375001008,
          "durationTicks": 239,
          "midi": 56,
          "name": "G#3",
          "ticks": 156720,
          "time": 162.8463965,
          "velocity": 0.6299212598425197
        },
        {
          "duration": 0.20746544375001008,
          "durationTicks": 239,
          "midi": 53,
          "name": "F3",
          "ticks": 156960,
          "time": 163.05473,
          "velocity": 0.6299212598425197
        },
        {
          "duration": 0.20746544374998166,
          "durationTicks": 239,
          "midi": 48,
          "name": "C3",
          "ticks": 157200,
          "time": 163.26306350000002,
          "velocity": 0.6299212598425197
        },
        {
          "duration": 0.20746544375001008,
          "durationTicks": 239,
          "midi": 37,
          "name": "C#2",
          "ticks": 157440,
          "time": 163.471397,
          "velocity": 0.6299212598425197
        },
        {
          "duration": 0.20746544375001008,
          "durationTicks": 239,
          "midi": 44,
          "name": "G#2",
          "ticks": 157680,
          "time": 163.6797305,
          "velocity": 0.6299212598425197
        },
        {
          "duration": 0.20746544374998166,
          "durationTicks": 239,
          "midi": 49,
          "name": "C#3",
          "ticks": 157920,
          "time": 163.888064,
          "velocity": 0.6299212598425197
        },
        {
          "duration": 0.20746544374998166,
          "durationTicks": 239,
          "midi": 53,
          "name": "F3",
          "ticks": 159600,
          "time": 165.34639850000002,
          "velocity": 0.6299212598425197
        },
        {
          "duration": 0.20746544375001008,
          "durationTicks": 239,
          "midi": 49,
          "name": "C#3",
          "ticks": 159840,
          "time": 165.554732,
          "velocity": 0.6299212598425197
        },
        {
          "duration": 0.20746544374998166,
          "durationTicks": 239,
          "midi": 44,
          "name": "G#2",
          "ticks": 160080,
          "time": 165.7630655,
          "velocity": 0.6299212598425197
        },
        {
          "duration": 0.20746544374998166,
          "durationTicks": 239,
          "midi": 41,
          "name": "F2",
          "ticks": 160320,
          "time": 165.97139900000002,
          "velocity": 0.6299212598425197
        },
        {
          "duration": 0.20746544375001008,
          "durationTicks": 239,
          "midi": 48,
          "name": "C3",
          "ticks": 160560,
          "time": 166.1797325,
          "velocity": 0.6299212598425197
        },
        {
          "duration": 0.20746544375001008,
          "durationTicks": 239,
          "midi": 53,
          "name": "F3",
          "ticks": 160800,
          "time": 166.388066,
          "velocity": 0.6299212598425197
        },
        {
          "duration": 0.20746544374998166,
          "durationTicks": 239,
          "midi": 56,
          "name": "G#3",
          "ticks": 162480,
          "time": 167.84640050000002,
          "velocity": 0.6299212598425197
        },
        {
          "duration": 0.20746544375001008,
          "durationTicks": 239,
          "midi": 53,
          "name": "F3",
          "ticks": 162720,
          "time": 168.054734,
          "velocity": 0.6299212598425197
        },
        {
          "duration": 0.20746544375001008,
          "durationTicks": 239,
          "midi": 48,
          "name": "C3",
          "ticks": 162960,
          "time": 168.2630675,
          "velocity": 0.6299212598425197
        },
        {
          "duration": 0.20746544374998166,
          "durationTicks": 239,
          "midi": 37,
          "name": "C#2",
          "ticks": 163200,
          "time": 168.47140100000001,
          "velocity": 0.6299212598425197
        },
        {
          "duration": 0.20746544375001008,
          "durationTicks": 239,
          "midi": 44,
          "name": "G#2",
          "ticks": 163440,
          "time": 168.6797345,
          "velocity": 0.6299212598425197
        },
        {
          "duration": 0.20746544375001008,
          "durationTicks": 239,
          "midi": 49,
          "name": "C#3",
          "ticks": 163680,
          "time": 168.888068,
          "velocity": 0.6299212598425197
        },
        {
          "duration": 0.20746544374998166,
          "durationTicks": 239,
          "midi": 53,
          "name": "F3",
          "ticks": 165360,
          "time": 170.3464025,
          "velocity": 0.6299212598425197
        },
        {
          "duration": 0.20746544374998166,
          "durationTicks": 239,
          "midi": 49,
          "name": "C#3",
          "ticks": 165600,
          "time": 170.55473600000002,
          "velocity": 0.6299212598425197
        },
        {
          "duration": 0.20746544375001008,
          "durationTicks": 239,
          "midi": 44,
          "name": "G#2",
          "ticks": 165840,
          "time": 170.7630695,
          "velocity": 0.6299212598425197
        },
        {
          "duration": 0.2409274354166655,
          "durationTicks": 239,
          "midi": 41,
          "name": "F2",
          "ticks": 166080,
          "time": 170.971403,
          "velocity": 0.6299212598425197
        },
        {
          "duration": 0.2409274354166655,
          "durationTicks": 239,
          "midi": 48,
          "name": "C3",
          "ticks": 166320,
          "time": 171.21333850000002,
          "velocity": 0.6299212598425197
        },
        {
          "duration": 0.2409274354166655,
          "durationTicks": 239,
          "midi": 53,
          "name": "F3",
          "ticks": 166560,
          "time": 171.455274,
          "velocity": 0.6299212598425197
        }
      ],
      "endOfTrackTicks": 168960
    }
  ]
}
