{
  "header": {
    "keySignatures": [
      {
        "key": "C",
        "scale": "major",
        "ticks": 0
      }
    ],
    "meta": [],
    "name": "",
    "ppq": 1024,
    "tempos": [
      {
        "bpm": 120.00024000048,
        "ticks": 0
      },
      {
        "bpm": 120.00024000048,
        "ticks": 0
      },
      {
        "bpm": 119.99928000431997,
        "ticks": 0
      },
      {
        "bpm": 119.99928000431997,
        "ticks": 12288
      },
      {
        "bpm": 119.99928000431997,
        "ticks": 14336
      },
      {
        "bpm": 119.4719340514924,
        "ticks": 14592
      },
      {
        "bpm": 118.94519401943565,
        "ticks": 14848
      },
      {
        "bpm": 118.94519401943565,
        "ticks": 15104
      },
      {
        "bpm": 118.4759256918994,
        "ticks": 15360
      },
      {
        "bpm": 118.4759256918994,
        "ticks": 15616
      },
      {
        "bpm": 117.94840543584884,
        "ticks": 15872
      },
      {
        "bpm": 117.47982284042716,
        "ticks": 16128
      },
      {
        "bpm": 119.99928000431997,
        "ticks": 16384
      },
      {
        "bpm": 119.99928000431997,
        "ticks": 18432
      },
      {
        "bpm": 119.4719340514924,
        "ticks": 18688
      },
      {
        "bpm": 118.94519401943565,
        "ticks": 18944
      },
      {
        "bpm": 118.94519401943565,
        "ticks": 19200
      },
      {
        "bpm": 118.4759256918994,
        "ticks": 19456
      },
      {
        "bpm": 118.4759256918994,
        "ticks": 19712
      },
      {
        "bpm": 117.94840543584884,
        "ticks": 19968
      },
      {
        "bpm": 117.47982284042716,
        "ticks": 20224
      },
      {
        "bpm": 119.99928000431997,
        "ticks": 20480
      },
      {
        "bpm": 119.99928000431997,
        "ticks": 22528
      },
      {
        "bpm": 119.4719340514924,
        "ticks": 22784
      },
      {
        "bpm": 118.94519401943565,
        "ticks": 23040
      },
      {
        "bpm": 118.94519401943565,
        "ticks": 23296
      },
      {
        "bpm": 118.4759256918994,
        "ticks": 23552
      },
      {
        "bpm": 118.4759256918994,
        "ticks": 23808
      },
      {
        "bpm": 117.94840543584884,
        "ticks": 24064
      },
      {
        "bpm": 117.47982284042716,
        "ticks": 24320
      },
      {
        "bpm": 119.99928000431997,
        "ticks": 24576
      },
      {
        "bpm": 119.99928000431997,
        "ticks": 30720
      },
      {
        "bpm": 119.4719340514924,
        "ticks": 30976
      },
      {
        "bpm": 118.94519401943565,
        "ticks": 31232
      },
      {
        "bpm": 118.94519401943565,
        "ticks": 31488
      },
      {
        "bpm": 118.4759256918994,
        "ticks": 31744
      },
      {
        "bpm": 118.4759256918994,
        "ticks": 32000
      },
      {
        "bpm": 117.94840543584884,
        "ticks": 32256
      },
      {
        "bpm": 117.47982284042716,
        "ticks": 32512
      },
      {
        "bpm": 119.99928000431997,
        "ticks": 32768
      },
      {
        "bpm": 119.99928000431997,
        "ticks": 34816
      },
      {
        "bpm": 119.4719340514924,
        "ticks": 35072
      },
      {
        "bpm": 118.94519401943565,
        "ticks": 35328
      },
      {
        "bpm": 118.94519401943565,
        "ticks": 35584
      },
      {
        "bpm": 118.4759256918994,
        "ticks": 35840
      },
      {
        "bpm": 118.4759256918994,
        "ticks": 36096
      },
      {
        "bpm": 117.94840543584884,
        "ticks": 36352
      },
      {
        "bpm": 117.47982284042716,
        "ticks": 36608
      },
      {
        "bpm": 119.99928000431997,
        "ticks": 36864
      },
      {
        "bpm": 119.99928000431997,
        "ticks": 38912
      },
      {
        "bpm": 119.4719340514924,
        "ticks": 39168
      },
      {
        "bpm": 118.94519401943565,
        "ticks": 39424
      },
      {
        "bpm": 118.94519401943565,
        "ticks": 39680
      },
      {
        "bpm": 118.4759256918994,
        "ticks": 39936
      },
      {
        "bpm": 118.4759256918994,
        "ticks": 40192
      },
      {
        "bpm": 117.94840543584884,
        "ticks": 40448
      },
      {
        "bpm": 117.47982284042716,
        "ticks": 40704
      },
      {
        "bpm": 119.99928000431997,
        "ticks": 40960
      },
      {
        "bpm": 119.99928000431997,
        "ticks": 69632
      },
      {
        "bpm": 119.99928000431997,
        "ticks": 71680
      },
      {
        "bpm": 119.4719340514924,
        "ticks": 71936
      },
      {
        "bpm": 118.94519401943565,
        "ticks": 72192
      },
      {
        "bpm": 118.94519401943565,
        "ticks": 72448
      },
      {
        "bpm": 118.4759256918994,
        "ticks": 72704
      },
      {
        "bpm": 118.4759256918994,
        "ticks": 72960
      },
      {
        "bpm": 117.94840543584884,
        "ticks": 73216
      },
      {
        "bpm": 117.47982284042716,
        "ticks": 73472
      },
      {
        "bpm": 119.99928000431997,
        "ticks": 73728
      },
      {
        "bpm": 119.99928000431997,
        "ticks": 75776
      },
      {
        "bpm": 119.4719340514924,
        "ticks": 76032
      },
      {
        "bpm": 118.94519401943565,
        "ticks": 76288
      },
      {
        "bpm": 118.94519401943565,
        "ticks": 76544
      },
      {
        "bpm": 118.4759256918994,
        "ticks": 76800
      },
      {
        "bpm": 118.4759256918994,
        "ticks": 77056
      },
      {
        "bpm": 117.94840543584884,
        "ticks": 77312
      },
      {
        "bpm": 117.47982284042716,
        "ticks": 77568
      },
      {
        "bpm": 119.99928000431997,
        "ticks": 77824
      },
      {
        "bpm": 119.99928000431997,
        "ticks": 79872
      },
      {
        "bpm": 119.4719340514924,
        "ticks": 80128
      },
      {
        "bpm": 118.94519401943565,
        "ticks": 80384
      },
      {
        "bpm": 118.94519401943565,
        "ticks": 80640
      },
      {
        "bpm": 118.4759256918994,
        "ticks": 80896
      },
      {
        "bpm": 118.4759256918994,
        "ticks": 81152
      },
      {
        "bpm": 117.94840543584884,
        "ticks": 81408
      },
      {
        "bpm": 117.47982284042716,
        "ticks": 81664
      },
      {
        "bpm": 119.99928000431997,
        "ticks": 81920
      },
      {
        "bpm": 119.99928000431997,
        "ticks": 88064
      },
      {
        "bpm": 119.4719340514924,
        "ticks": 88320
      },
      {
        "bpm": 118.94519401943565,
        "ticks": 88576
      },
      {
        "bpm": 118.94519401943565,
        "ticks": 88832
      },
      {
        "bpm": 118.4759256918994,
        "ticks": 89088
      },
      {
        "bpm": 118.4759256918994,
        "ticks": 89344
      },
      {
        "bpm": 117.94840543584884,
        "ticks": 89600
      },
      {
        "bpm": 117.47982284042716,
        "ticks": 89856
      },
      {
        "bpm": 119.99928000431997,
        "ticks": 90112
      },
      {
        "bpm": 119.99928000431997,
        "ticks": 92160
      },
      {
        "bpm": 119.4719340514924,
        "ticks": 92416
      },
      {
        "bpm": 118.94519401943565,
        "ticks": 92672
      },
      {
        "bpm": 118.94519401943565,
        "ticks": 92928
      },
      {
        "bpm": 118.4759256918994,
        "ticks": 93184
      },
      {
        "bpm": 118.4759256918994,
        "ticks": 93440
      },
      {
        "bpm": 117.94840543584884,
        "ticks": 93696
      },
      {
        "bpm": 117.47982284042716,
        "ticks": 93952
      },
      {
        "bpm": 119.99928000431997,
        "ticks": 94208
      },
      {
        "bpm": 119.99928000431997,
        "ticks": 96256
      },
      {
        "bpm": 119.4719340514924,
        "ticks": 96512
      },
      {
        "bpm": 118.94519401943565,
        "ticks": 96768
      },
      {
        "bpm": 118.94519401943565,
        "ticks": 97024
      },
      {
        "bpm": 118.4759256918994,
        "ticks": 97280
      },
      {
        "bpm": 118.4759256918994,
        "ticks": 97536
      },
      {
        "bpm": 117.94840543584884,
        "ticks": 97792
      },
      {
        "bpm": 117.47982284042716,
        "ticks": 98048
      },
      {
        "bpm": 119.99928000431997,
        "ticks": 98304
      }
    ],
    "timeSignatures": [
      {
        "ticks": 0,
        "timeSignature": [
          4,
          4
        ],
        "measures": 0
      }
    ]
  },
  "tracks": [
    {
      "channel": 0,
      "controlChanges": {
        "7": [
          {
            "number": 7,
            "ticks": 0,
            "time": 0,
            "value": 0.7952755905511811
          },
          {
            "number": 7,
            "ticks": 0,
            "time": 0,
            "value": 0.8031496062992126
          },
          {
            "number": 7,
            "ticks": 0,
            "time": 0,
            "value": 0.8661417322834646
          },
          {
            "number": 7,
            "ticks": 3553,
            "time": 1.7348736904296873,
            "value": 0.8031496062992126
          },
          {
            "number": 7,
            "ticks": 4042,
            "time": 1.9736446542968749,
            "value": 0.8661417322834646
          }
        ],
        "10": [
          {
            "number": 10,
            "ticks": 0,
            "time": 0,
            "value": 0.5039370078740157
          }
        ]
      },
      "pitchBends": [],
      "instrument": {
        "family": "piano",
        "number": 1,
        "name": "bright acoustic piano"
      },
      "name": "Piano",
      "notes": [
        {
          "duration": 0.12060619238281234,
          "durationTicks": 247,
          "midi": 40,
          "name": "E2",
          "ticks": 3589,
          "time": 1.7524519208984375,
          "velocity": 0.4881889763779528
        },
        {
          "duration": 0.12597731835937487,
          "durationTicks": 258,
          "midi": 40,
          "name": "E2",
          "ticks": 3837,
          "time": 1.8735463974609374,
          "velocity": 0.4881889763779528
        },
        {
          "duration": 0.11425849804687482,
          "durationTicks": 234,
          "midi": 64,
          "name": "E4",
          "ticks": 4100,
          "time": 2.00196513671875,
          "velocity": 0.47244094488188976
        },
        {
          "duration": 0.11425849804687482,
          "durationTicks": 234,
          "midi": 71,
          "name": "B4",
          "ticks": 4100,
          "time": 2.00196513671875,
          "velocity": 0.5826771653543307
        },
        {
          "duration": 0.5122101044921874,
          "durationTicks": 1049,
          "midi": 40,
          "name": "E2",
          "ticks": 4100,
          "time": 2.00196513671875,
          "velocity": 0.6220472440944882
        },
        {
          "duration": 0.09765683593749985,
          "durationTicks": 200,
          "midi": 64,
          "name": "E4",
          "ticks": 4642,
          "time": 2.266615162109375,
          "velocity": 0.4330708661417323
        },
        {
          "duration": 0.09765683593749985,
          "durationTicks": 200,
          "midi": 72,
          "name": "C5",
          "ticks": 4642,
          "time": 2.266615162109375,
          "velocity": 0.5433070866141733
        },
        {
          "duration": 0.09619198339843749,
          "durationTicks": 197,
          "midi": 64,
          "name": "E4",
          "ticks": 5150,
          "time": 2.514663525390625,
          "velocity": 0.4409448818897638
        },
        {
          "duration": 0.09619198339843749,
          "durationTicks": 197,
          "midi": 71,
          "name": "B4",
          "ticks": 5150,
          "time": 2.514663525390625,
          "velocity": 0.5511811023622047
        },
        {
          "duration": 0.9907286005859373,
          "durationTicks": 2029,
          "midi": 40,
          "name": "E2",
          "ticks": 5150,
          "time": 2.514663525390625,
          "velocity": 0.5905511811023622
        },
        {
          "duration": 0.09863340429687506,
          "durationTicks": 202,
          "midi": 64,
          "name": "E4",
          "ticks": 5655,
          "time": 2.7612470361328123,
          "velocity": 0.4330708661417323
        },
        {
          "duration": 0.09863340429687506,
          "durationTicks": 202,
          "midi": 69,
          "name": "A4",
          "ticks": 5655,
          "time": 2.7612470361328123,
          "velocity": 0.5433070866141733
        },
        {
          "duration": 0.09863340429687506,
          "durationTicks": 202,
          "midi": 64,
          "name": "E4",
          "ticks": 6165,
          "time": 3.0102719677734373,
          "velocity": 0.4566929133858268
        },
        {
          "duration": 0.09863340429687506,
          "durationTicks": 202,
          "midi": 71,
          "name": "B4",
          "ticks": 6165,
          "time": 3.0102719677734373,
          "velocity": 0.5669291338582677
        },
        {
          "duration": 0.09619198339843749,
          "durationTicks": 197,
          "midi": 64,
          "name": "E4",
          "ticks": 6675,
          "time": 3.2592968994140623,
          "velocity": 0.4330708661417323
        },
        {
          "duration": 0.09619198339843749,
          "durationTicks": 197,
          "midi": 72,
          "name": "C5",
          "ticks": 6675,
          "time": 3.2592968994140623,
          "velocity": 0.5433070866141733
        },
        {
          "duration": 0.09619198339843749,
          "durationTicks": 197,
          "midi": 64,
          "name": "E4",
          "ticks": 7180,
          "time": 3.5058804101562497,
          "velocity": 0.4409448818897638
        },
        {
          "duration": 0.09619198339843749,
          "durationTicks": 197,
          "midi": 71,
          "name": "B4",
          "ticks": 7180,
          "time": 3.5058804101562497,
          "velocity": 0.5511811023622047
        },
        {
          "duration": 1.0083068310546874,
          "durationTicks": 2065,
          "midi": 40,
          "name": "E2",
          "ticks": 7180,
          "time": 3.5058804101562497,
          "velocity": 0.5905511811023622
        },
        {
          "duration": 0.0971685517578127,
          "durationTicks": 199,
          "midi": 64,
          "name": "E4",
          "ticks": 7685,
          "time": 3.752463920898437,
          "velocity": 0.4330708661417323
        },
        {
          "duration": 0.0971685517578127,
          "durationTicks": 199,
          "midi": 69,
          "name": "A4",
          "ticks": 7685,
          "time": 3.752463920898437,
          "velocity": 0.5433070866141733
        },
        {
          "duration": 0.11425849804687438,
          "durationTicks": 234,
          "midi": 64,
          "name": "E4",
          "ticks": 8196,
          "time": 4.00197713671875,
          "velocity": 0.47244094488188976
        },
        {
          "duration": 0.11425849804687438,
          "durationTicks": 234,
          "midi": 71,
          "name": "B4",
          "ticks": 8196,
          "time": 4.00197713671875,
          "velocity": 0.5826771653543307
        },
        {
          "duration": 0.0976568359375003,
          "durationTicks": 200,
          "midi": 64,
          "name": "E4",
          "ticks": 8738,
          "time": 4.2666271621093745,
          "velocity": 0.4330708661417323
        },
        {
          "duration": 0.0976568359375003,
          "durationTicks": 200,
          "midi": 72,
          "name": "C5",
          "ticks": 8738,
          "time": 4.2666271621093745,
          "velocity": 0.5433070866141733
        },
        {
          "duration": 0.09619198339843749,
          "durationTicks": 197,
          "midi": 64,
          "name": "E4",
          "ticks": 9246,
          "time": 4.514675525390625,
          "velocity": 0.4409448818897638
        },
        {
          "duration": 0.09619198339843749,
          "durationTicks": 197,
          "midi": 71,
          "name": "B4",
          "ticks": 9246,
          "time": 4.514675525390625,
          "velocity": 0.5511811023622047
        },
        {
          "duration": 0.49512015820312527,
          "durationTicks": 1014,
          "midi": 40,
          "name": "E2",
          "ticks": 9246,
          "time": 4.514675525390625,
          "velocity": 0.5905511811023622
        },
        {
          "duration": 0.09863340429687462,
          "durationTicks": 202,
          "midi": 64,
          "name": "E4",
          "ticks": 9751,
          "time": 4.761259036132812,
          "velocity": 0.4330708661417323
        },
        {
          "duration": 0.09863340429687462,
          "durationTicks": 202,
          "midi": 72,
          "name": "C5",
          "ticks": 9751,
          "time": 4.761259036132812,
          "velocity": 0.5433070866141733
        },
        {
          "duration": 0.09863340429687462,
          "durationTicks": 202,
          "midi": 64,
          "name": "E4",
          "ticks": 10261,
          "time": 5.010283967773438,
          "velocity": 0.4566929133858268
        },
        {
          "duration": 0.09863340429687462,
          "durationTicks": 202,
          "midi": 74,
          "name": "D5",
          "ticks": 10261,
          "time": 5.010283967773438,
          "velocity": 0.5669291338582677
        },
        {
          "duration": 0.3696311240234369,
          "durationTicks": 757,
          "midi": 40,
          "name": "E2",
          "ticks": 10261,
          "time": 5.010283967773438,
          "velocity": 0.6062992125984252
        },
        {
          "duration": 0.09619198339843749,
          "durationTicks": 197,
          "midi": 64,
          "name": "E4",
          "ticks": 10771,
          "time": 5.259308899414062,
          "velocity": 0.4330708661417323
        },
        {
          "duration": 0.09619198339843749,
          "durationTicks": 197,
          "midi": 72,
          "name": "C5",
          "ticks": 10771,
          "time": 5.259308899414062,
          "velocity": 0.5433070866141733
        },
        {
          "duration": 0.12500074999999988,
          "durationTicks": 256,
          "midi": 40,
          "name": "E2",
          "ticks": 11019,
          "time": 5.380403375976562,
          "velocity": 0.4881889763779528
        },
        {
          "duration": 0.09619198339843749,
          "durationTicks": 197,
          "midi": 64,
          "name": "E4",
          "ticks": 11276,
          "time": 5.50589241015625,
          "velocity": 0.4409448818897638
        },
        {
          "duration": 0.09619198339843749,
          "durationTicks": 197,
          "midi": 74,
          "name": "D5",
          "ticks": 11276,
          "time": 5.50589241015625,
          "velocity": 0.5511811023622047
        },
        {
          "duration": 0.12500074999999988,
          "durationTicks": 256,
          "midi": 40,
          "name": "E2",
          "ticks": 11276,
          "time": 5.50589241015625,
          "velocity": 0.49606299212598426
        },
        {
          "duration": 0.12060619238281234,
          "durationTicks": 247,
          "midi": 40,
          "name": "E2",
          "ticks": 11533,
          "time": 5.631381444335937,
          "velocity": 0.4881889763779528
        },
        {
          "duration": 0.0971685517578127,
          "durationTicks": 199,
          "midi": 64,
          "name": "E4",
          "ticks": 11781,
          "time": 5.752475920898437,
          "velocity": 0.4330708661417323
        },
        {
          "duration": 0.0971685517578127,
          "durationTicks": 199,
          "midi": 76,
          "name": "E5",
          "ticks": 11781,
          "time": 5.752475920898437,
          "velocity": 0.5433070866141733
        },
        {
          "duration": 0.12060619238281234,
          "durationTicks": 247,
          "midi": 40,
          "name": "E2",
          "ticks": 11781,
          "time": 5.752475920898437,
          "velocity": 0.4881889763779528
        },
        {
          "duration": 0.13330158105468737,
          "durationTicks": 273,
          "midi": 40,
          "name": "E2",
          "ticks": 12029,
          "time": 5.873570397460937,
          "velocity": 0.4881889763779528
        },
        {
          "duration": 0.38574450195312426,
          "durationTicks": 790,
          "midi": 57,
          "name": "A3",
          "ticks": 12292,
          "time": 6.00198913671875,
          "velocity": 0.6299212598425197
        },
        {
          "duration": 0.27929855078124977,
          "durationTicks": 572,
          "midi": 48,
          "name": "C3",
          "ticks": 12292,
          "time": 6.00198913671875,
          "velocity": 0.5354330708661418
        },
        {
          "duration": 0.2626968886718757,
          "durationTicks": 538,
          "midi": 45,
          "name": "A2",
          "ticks": 12834,
          "time": 6.266639162109374,
          "velocity": 0.49606299212598426
        },
        {
          "duration": 0.11865305566406281,
          "durationTicks": 243,
          "midi": 57,
          "name": "A3",
          "ticks": 13083,
          "time": 6.388221922851562,
          "velocity": 0.5905511811023622
        },
        {
          "duration": 0.23144670117187527,
          "durationTicks": 474,
          "midi": 60,
          "name": "C4",
          "ticks": 13342,
          "time": 6.514687525390625,
          "velocity": 0.5984251968503937
        },
        {
          "duration": 0.2612320361328129,
          "durationTicks": 535,
          "midi": 48,
          "name": "C3",
          "ticks": 13342,
          "time": 6.514687525390625,
          "velocity": 0.5039370078740157
        },
        {
          "duration": 0.2338881220703124,
          "durationTicks": 479,
          "midi": 57,
          "name": "A3",
          "ticks": 13847,
          "time": 6.761271036132812,
          "velocity": 0.5905511811023622
        },
        {
          "duration": 0.26367345703125,
          "durationTicks": 540,
          "midi": 45,
          "name": "A2",
          "ticks": 13847,
          "time": 6.761271036132812,
          "velocity": 0.49606299212598426
        },
        {
          "duration": 0.7477193798828123,
          "durationTicks": 1519,
          "midi": 60,
          "name": "C4",
          "ticks": 14357,
          "time": 7.0102959677734376,
          "velocity": 0.6141732283464567
        },
        {
          "duration": 0.26443723730468705,
          "durationTicks": 540,
          "midi": 48,
          "name": "C3",
          "ticks": 14357,
          "time": 7.0102959677734376,
          "velocity": 0.5196850393700787
        },
        {
          "duration": 0.26362900976562464,
          "durationTicks": 535,
          "midi": 45,
          "name": "A2",
          "ticks": 14867,
          "time": 7.259954865234375,
          "velocity": 0.49606299212598426
        },
        {
          "duration": 0.26466835449218795,
          "durationTicks": 535,
          "midi": 48,
          "name": "C3",
          "ticks": 15372,
          "time": 7.508747,
          "velocity": 0.5039370078740157
        },
        {
          "duration": 0.23691044628906255,
          "durationTicks": 476,
          "midi": 57,
          "name": "A3",
          "ticks": 15877,
          "time": 7.758512122070313,
          "velocity": 0.5905511811023622
        },
        {
          "duration": 0.26702040332031274,
          "durationTicks": 537,
          "midi": 45,
          "name": "A2",
          "ticks": 15877,
          "time": 7.758512122070313,
          "velocity": 0.49606299212598426
        },
        {
          "duration": 0.38574450195312515,
          "durationTicks": 790,
          "midi": 56,
          "name": "G#3",
          "ticks": 16388,
          "time": 8.012837136718751,
          "velocity": 0.6299212598425197
        },
        {
          "duration": 0.2792985507812489,
          "durationTicks": 572,
          "midi": 47,
          "name": "B2",
          "ticks": 16388,
          "time": 8.012837136718751,
          "velocity": 0.5354330708661418
        },
        {
          "duration": 0.2626968886718757,
          "durationTicks": 538,
          "midi": 44,
          "name": "G#2",
          "ticks": 16930,
          "time": 8.277487162109376,
          "velocity": 0.49606299212598426
        },
        {
          "duration": 0.11865305566406192,
          "durationTicks": 243,
          "midi": 56,
          "name": "G#3",
          "ticks": 17179,
          "time": 8.399069922851563,
          "velocity": 0.5905511811023622
        },
        {
          "duration": 0.23144670117187438,
          "durationTicks": 474,
          "midi": 57,
          "name": "A3",
          "ticks": 17438,
          "time": 8.525535525390627,
          "velocity": 0.5984251968503937
        },
        {
          "duration": 0.261232036132812,
          "durationTicks": 535,
          "midi": 47,
          "name": "B2",
          "ticks": 17438,
          "time": 8.525535525390627,
          "velocity": 0.5039370078740157
        },
        {
          "duration": 0.2338881220703115,
          "durationTicks": 479,
          "midi": 59,
          "name": "B3",
          "ticks": 17943,
          "time": 8.772119036132814,
          "velocity": 0.5905511811023622
        },
        {
          "duration": 0.2636734570312491,
          "durationTicks": 540,
          "midi": 44,
          "name": "G#2",
          "ticks": 17943,
          "time": 8.772119036132814,
          "velocity": 0.49606299212598426
        },
        {
          "duration": 0.4979564697265637,
          "durationTicks": 1014,
          "midi": 57,
          "name": "A3",
          "ticks": 18453,
          "time": 9.021143967773437,
          "velocity": 0.6141732283464567
        },
        {
          "duration": 0.26443723730468705,
          "durationTicks": 540,
          "midi": 48,
          "name": "C3",
          "ticks": 18453,
          "time": 9.021143967773437,
          "velocity": 0.5196850393700787
        },
        {
          "duration": 0.2636290097656264,
          "durationTicks": 535,
          "midi": 45,
          "name": "A2",
          "ticks": 18963,
          "time": 9.270802865234375,
          "velocity": 0.49606299212598426
        },
        {
          "duration": 0.5016382441406222,
          "durationTicks": 1011,
          "midi": 52,
          "name": "E3",
          "ticks": 19468,
          "time": 9.519595,
          "velocity": 0.5984251968503937
        },
        {
          "duration": 0.2646683544921853,
          "durationTicks": 535,
          "midi": 48,
          "name": "C3",
          "ticks": 19468,
          "time": 9.519595,
          "velocity": 0.5039370078740157
        },
        {
          "duration": 0.26702040332031096,
          "durationTicks": 537,
          "midi": 45,
          "name": "A2",
          "ticks": 19973,
          "time": 9.769360122070312,
          "velocity": 0.49606299212598426
        },
        {
          "duration": 0.38574450195312515,
          "durationTicks": 790,
          "midi": 57,
          "name": "A3",
          "ticks": 20484,
          "time": 10.023685136718749,
          "velocity": 0.6299212598425197
        },
        {
          "duration": 0.2792985507812489,
          "durationTicks": 572,
          "midi": 48,
          "name": "C3",
          "ticks": 20484,
          "time": 10.023685136718749,
          "velocity": 0.5354330708661418
        },
        {
          "duration": 0.2626968886718757,
          "durationTicks": 538,
          "midi": 45,
          "name": "A2",
          "ticks": 21026,
          "time": 10.288335162109373,
          "velocity": 0.49606299212598426
        },
        {
          "duration": 0.11865305566406192,
          "durationTicks": 243,
          "midi": 57,
          "name": "A3",
          "ticks": 21275,
          "time": 10.40991792285156,
          "velocity": 0.5905511811023622
        },
        {
          "duration": 0.23144670117187616,
          "durationTicks": 474,
          "midi": 60,
          "name": "C4",
          "ticks": 21534,
          "time": 10.536383525390622,
          "velocity": 0.5984251968503937
        },
        {
          "duration": 0.26123203613281376,
          "durationTicks": 535,
          "midi": 48,
          "name": "C3",
          "ticks": 21534,
          "time": 10.536383525390622,
          "velocity": 0.5039370078740157
        },
        {
          "duration": 0.2338881220703115,
          "durationTicks": 479,
          "midi": 57,
          "name": "A3",
          "ticks": 22039,
          "time": 10.782967036132812,
          "velocity": 0.5905511811023622
        },
        {
          "duration": 0.2636734570312509,
          "durationTicks": 540,
          "midi": 45,
          "name": "A2",
          "ticks": 22039,
          "time": 10.782967036132812,
          "velocity": 0.49606299212598426
        },
        {
          "duration": 0.7477193798828132,
          "durationTicks": 1519,
          "midi": 60,
          "name": "C4",
          "ticks": 22549,
          "time": 11.031991967773436,
          "velocity": 0.6141732283464567
        },
        {
          "duration": 0.26443723730468705,
          "durationTicks": 540,
          "midi": 48,
          "name": "C3",
          "ticks": 22549,
          "time": 11.031991967773436,
          "velocity": 0.5196850393700787
        },
        {
          "duration": 0.2636290097656264,
          "durationTicks": 535,
          "midi": 45,
          "name": "A2",
          "ticks": 23059,
          "time": 11.281650865234374,
          "velocity": 0.49606299212598426
        },
        {
          "duration": 0.2646683544921853,
          "durationTicks": 535,
          "midi": 48,
          "name": "C3",
          "ticks": 23564,
          "time": 11.530443,
          "velocity": 0.5039370078740157
        },
        {
          "duration": 0.23691044628906255,
          "durationTicks": 476,
          "midi": 57,
          "name": "A3",
          "ticks": 24069,
          "time": 11.780208122070311,
          "velocity": 0.5905511811023622
        },
        {
          "duration": 0.26702040332031096,
          "durationTicks": 537,
          "midi": 45,
          "name": "A2",
          "ticks": 24069,
          "time": 11.780208122070311,
          "velocity": 0.49606299212598426
        },
        {
          "duration": 0.38574450195312515,
          "durationTicks": 790,
          "midi": 56,
          "name": "G#3",
          "ticks": 24580,
          "time": 12.034533136718748,
          "velocity": 0.6299212598425197
        },
        {
          "duration": 0.2792985507812489,
          "durationTicks": 572,
          "midi": 47,
          "name": "B2",
          "ticks": 24580,
          "time": 12.034533136718748,
          "velocity": 0.5354330708661418
        },
        {
          "duration": 0.512210104492187,
          "durationTicks": 1049,
          "midi": 40,
          "name": "E2",
          "ticks": 24580,
          "time": 12.034533136718748,
          "velocity": 0.6220472440944882
        },
        {
          "duration": 0.2626968886718757,
          "durationTicks": 538,
          "midi": 44,
          "name": "G#2",
          "ticks": 25122,
          "time": 12.299183162109372,
          "velocity": 0.49606299212598426
        },
        {
          "duration": 0.11865305566406192,
          "durationTicks": 243,
          "midi": 56,
          "name": "G#3",
          "ticks": 25371,
          "time": 12.42076592285156,
          "velocity": 0.5905511811023622
        },
        {
          "duration": 0.23144670117187616,
          "durationTicks": 474,
          "midi": 57,
          "name": "A3",
          "ticks": 25630,
          "time": 12.547231525390622,
          "velocity": 0.5984251968503937
        },
        {
          "duration": 0.26123203613281376,
          "durationTicks": 535,
          "midi": 47,
          "name": "B2",
          "ticks": 25630,
          "time": 12.547231525390622,
          "velocity": 0.5039370078740157
        },
        {
          "duration": 0.49512015820312527,
          "durationTicks": 1014,
          "midi": 40,
          "name": "E2",
          "ticks": 25630,
          "time": 12.547231525390622,
          "velocity": 0.5905511811023622
        },
        {
          "duration": 0.2338881220703115,
          "durationTicks": 479,
          "midi": 59,
          "name": "B3",
          "ticks": 26135,
          "time": 12.793815036132811,
          "velocity": 0.5905511811023622
        },
        {
          "duration": 0.2636734570312491,
          "durationTicks": 540,
          "midi": 44,
          "name": "G#2",
          "ticks": 26135,
          "time": 12.793815036132811,
          "velocity": 0.49606299212598426
        },
        {
          "duration": 0.9892637480468736,
          "durationTicks": 2026,
          "midi": 57,
          "name": "A3",
          "ticks": 26645,
          "time": 13.042839967773435,
          "velocity": 0.6141732283464567
        },
        {
          "duration": 0.24853664746093784,
          "durationTicks": 509,
          "midi": 45,
          "name": "A2",
          "ticks": 26645,
          "time": 13.042839967773435,
          "velocity": 0.4566929133858268
        },
        {
          "duration": 0.24853664746093784,
          "durationTicks": 509,
          "midi": 48,
          "name": "C3",
          "ticks": 26645,
          "time": 13.042839967773435,
          "velocity": 0.5669291338582677
        },
        {
          "duration": 0.261232036132812,
          "durationTicks": 535,
          "midi": 45,
          "name": "A2",
          "ticks": 27155,
          "time": 13.29186489941406,
          "velocity": 0.49606299212598426
        },
        {
          "duration": 0.261232036132812,
          "durationTicks": 535,
          "midi": 48,
          "name": "C3",
          "ticks": 27660,
          "time": 13.538448410156247,
          "velocity": 0.5039370078740157
        },
        {
          "duration": 0.12060619238281234,
          "durationTicks": 247,
          "midi": 45,
          "name": "A2",
          "ticks": 28165,
          "time": 13.785031920898435,
          "velocity": 0.49606299212598426
        },
        {
          "duration": 0.1259773183593733,
          "durationTicks": 258,
          "midi": 45,
          "name": "A2",
          "ticks": 28413,
          "time": 13.906126397460936,
          "velocity": 0.49606299212598426
        },
        {
          "duration": 0.38574450195312515,
          "durationTicks": 790,
          "midi": 69,
          "name": "A4",
          "ticks": 28676,
          "time": 14.034545136718748,
          "velocity": 0.6299212598425197
        },
        {
          "duration": 0.2641617412109376,
          "durationTicks": 541,
          "midi": 45,
          "name": "A2",
          "ticks": 28676,
          "time": 14.034545136718748,
          "velocity": 0.5354330708661418
        },
        {
          "duration": 0.49414358984375006,
          "durationTicks": 1012,
          "midi": 45,
          "name": "A2",
          "ticks": 29218,
          "time": 14.299195162109372,
          "velocity": 0.49606299212598426
        },
        {
          "duration": 0.11865305566406192,
          "durationTicks": 243,
          "midi": 69,
          "name": "A4",
          "ticks": 29467,
          "time": 14.42077792285156,
          "velocity": 0.5905511811023622
        },
        {
          "duration": 0.23144670117187438,
          "durationTicks": 474,
          "midi": 72,
          "name": "C5",
          "ticks": 29726,
          "time": 14.547243525390623,
          "velocity": 0.5984251968503937
        },
        {
          "duration": 0.2338881220703115,
          "durationTicks": 479,
          "midi": 69,
          "name": "A4",
          "ticks": 30231,
          "time": 14.79382703613281,
          "velocity": 0.5905511811023622
        },
        {
          "duration": 0.12060619238281234,
          "durationTicks": 247,
          "midi": 45,
          "name": "A2",
          "ticks": 30231,
          "time": 14.79382703613281,
          "velocity": 0.49606299212598426
        },
        {
          "duration": 0.127442170898437,
          "durationTicks": 261,
          "midi": 45,
          "name": "A2",
          "ticks": 30479,
          "time": 14.91492151269531,
          "velocity": 0.49606299212598426
        },
        {
          "duration": 0.7477193798828132,
          "durationTicks": 1519,
          "midi": 72,
          "name": "C5",
          "ticks": 30741,
          "time": 15.042851967773434,
          "velocity": 0.6141732283464567
        },
        {
          "duration": 0.1279886474609384,
          "durationTicks": 262,
          "midi": 45,
          "name": "A2",
          "ticks": 30741,
          "time": 15.042851967773434,
          "velocity": 0.5196850393700787
        },
        {
          "duration": 0.12068719921875015,
          "durationTicks": 246,
          "midi": 45,
          "name": "A2",
          "ticks": 31004,
          "time": 15.171331054687496,
          "velocity": 0.49606299212598426
        },
        {
          "duration": 0.7504303789062501,
          "durationTicks": 1516,
          "midi": 45,
          "name": "A2",
          "ticks": 31251,
          "time": 15.292510865234371,
          "velocity": 0.5905511811023622
        },
        {
          "duration": 0.23691044628906077,
          "durationTicks": 476,
          "midi": 69,
          "name": "A4",
          "ticks": 32261,
          "time": 15.791068122070309,
          "velocity": 0.5905511811023622
        },
        {
          "duration": 0.3857445019531234,
          "durationTicks": 790,
          "midi": 68,
          "name": "G#4",
          "ticks": 32772,
          "time": 16.045393136718747,
          "velocity": 0.6299212598425197
        },
        {
          "duration": 0.2641617412109376,
          "durationTicks": 541,
          "midi": 45,
          "name": "A2",
          "ticks": 32772,
          "time": 16.045393136718747,
          "velocity": 0.5354330708661418
        },
        {
          "duration": 0.4941435898437483,
          "durationTicks": 1012,
          "midi": 45,
          "name": "A2",
          "ticks": 33314,
          "time": 16.310043162109373,
          "velocity": 0.49606299212598426
        },
        {
          "duration": 0.11865305566406192,
          "durationTicks": 243,
          "midi": 68,
          "name": "G#4",
          "ticks": 33563,
          "time": 16.43162592285156,
          "velocity": 0.5905511811023622
        },
        {
          "duration": 0.2314467011718726,
          "durationTicks": 474,
          "midi": 69,
          "name": "A4",
          "ticks": 33822,
          "time": 16.558091525390623,
          "velocity": 0.5984251968503937
        },
        {
          "duration": 0.2338881220703115,
          "durationTicks": 479,
          "midi": 71,
          "name": "B4",
          "ticks": 34327,
          "time": 16.80467503613281,
          "velocity": 0.5905511811023622
        },
        {
          "duration": 0.12060619238281234,
          "durationTicks": 247,
          "midi": 45,
          "name": "A2",
          "ticks": 34327,
          "time": 16.80467503613281,
          "velocity": 0.49606299212598426
        },
        {
          "duration": 0.12744217089843346,
          "durationTicks": 261,
          "midi": 45,
          "name": "A2",
          "ticks": 34575,
          "time": 16.92576951269531,
          "velocity": 0.49606299212598426
        },
        {
          "duration": 0.23441400878906293,
          "durationTicks": 479,
          "midi": 69,
          "name": "A4",
          "ticks": 34837,
          "time": 17.053699967773433,
          "velocity": 0.6141732283464567
        },
        {
          "duration": 0.1279886474609384,
          "durationTicks": 262,
          "midi": 45,
          "name": "A2",
          "ticks": 34837,
          "time": 17.053699967773433,
          "velocity": 0.5196850393700787
        },
        {
          "duration": 0.12068719921875015,
          "durationTicks": 246,
          "midi": 45,
          "name": "A2",
          "ticks": 35100,
          "time": 17.1821790546875,
          "velocity": 0.49606299212598426
        },
        {
          "duration": 0.233497769531251,
          "durationTicks": 474,
          "midi": 64,
          "name": "E4",
          "ticks": 35347,
          "time": 17.303358865234372,
          "velocity": 0.5905511811023622
        },
        {
          "duration": 0.24829757226562776,
          "durationTicks": 504,
          "midi": 45,
          "name": "A2",
          "ticks": 35347,
          "time": 17.303358865234372,
          "velocity": 0.5905511811023622
        },
        {
          "duration": 0.5016382441406257,
          "durationTicks": 1011,
          "midi": 69,
          "name": "A4",
          "ticks": 35852,
          "time": 17.552151000000002,
          "velocity": 0.5984251968503937
        },
        {
          "duration": 0.12660800000000094,
          "durationTicks": 256,
          "midi": 45,
          "name": "A2",
          "ticks": 35852,
          "time": 17.552151000000002,
          "velocity": 0.5039370078740157
        },
        {
          "duration": 0.12216578515625187,
          "durationTicks": 247,
          "midi": 45,
          "name": "A2",
          "ticks": 36109,
          "time": 17.6792535625,
          "velocity": 0.49606299212598426
        },
        {
          "duration": 0.25187312207031454,
          "durationTicks": 506,
          "midi": 45,
          "name": "A2",
          "ticks": 36357,
          "time": 17.801916122070313,
          "velocity": 0.49606299212598426
        },
        {
          "duration": 0.3857445019531234,
          "durationTicks": 790,
          "midi": 69,
          "name": "A4",
          "ticks": 36868,
          "time": 18.056241136718754,
          "velocity": 0.6299212598425197
        },
        {
          "duration": 0.2641617412109376,
          "durationTicks": 541,
          "midi": 45,
          "name": "A2",
          "ticks": 36868,
          "time": 18.056241136718754,
          "velocity": 0.5354330708661418
        },
        {
          "duration": 0.4941435898437483,
          "durationTicks": 1012,
          "midi": 45,
          "name": "A2",
          "ticks": 37410,
          "time": 18.32089116210938,
          "velocity": 0.49606299212598426
        },
        {
          "duration": 0.11865305566406192,
          "durationTicks": 243,
          "midi": 69,
          "name": "A4",
          "ticks": 37659,
          "time": 18.442473922851566,
          "velocity": 0.5905511811023622
        },
        {
          "duration": 0.2314467011718726,
          "durationTicks": 474,
          "midi": 72,
          "name": "C5",
          "ticks": 37918,
          "time": 18.56893952539063,
          "velocity": 0.5984251968503937
        },
        {
          "duration": 0.2338881220703115,
          "durationTicks": 479,
          "midi": 69,
          "name": "A4",
          "ticks": 38423,
          "time": 18.815523036132817,
          "velocity": 0.5905511811023622
        },
        {
          "duration": 0.12060619238281234,
          "durationTicks": 247,
          "midi": 45,
          "name": "A2",
          "ticks": 38423,
          "time": 18.815523036132817,
          "velocity": 0.49606299212598426
        },
        {
          "duration": 0.12744217089843346,
          "durationTicks": 261,
          "midi": 45,
          "name": "A2",
          "ticks": 38671,
          "time": 18.936617512695317,
          "velocity": 0.49606299212598426
        },
        {
          "duration": 0.7477193798828203,
          "durationTicks": 1519,
          "midi": 72,
          "name": "C5",
          "ticks": 38933,
          "time": 19.06454796777344,
          "velocity": 0.6141732283464567
        },
        {
          "duration": 0.1279886474609384,
          "durationTicks": 262,
          "midi": 45,
          "name": "A2",
          "ticks": 38933,
          "time": 19.06454796777344,
          "velocity": 0.5196850393700787
        },
        {
          "duration": 0.12068719921875015,
          "durationTicks": 246,
          "midi": 45,
          "name": "A2",
          "ticks": 39196,
          "time": 19.193027054687505,
          "velocity": 0.49606299212598426
        },
        {
          "duration": 0.49806048242188083,
          "durationTicks": 1009,
          "midi": 45,
          "name": "A2",
          "ticks": 39443,
          "time": 19.31420686523438,
          "velocity": 0.49606299212598426
        },
        {
          "duration": 0.23691044628906255,
          "durationTicks": 476,
          "midi": 69,
          "name": "A4",
          "ticks": 40453,
          "time": 19.81276412207032,
          "velocity": 0.5905511811023622
        },
        {
          "duration": 0.2670204033203163,
          "durationTicks": 537,
          "midi": 45,
          "name": "A2",
          "ticks": 40453,
          "time": 19.81276412207032,
          "velocity": 0.49606299212598426
        },
        {
          "duration": 0.3857445019531234,
          "durationTicks": 790,
          "midi": 68,
          "name": "G#4",
          "ticks": 40964,
          "time": 20.06708913671876,
          "velocity": 0.6299212598425197
        },
        {
          "duration": 0.2641617412109376,
          "durationTicks": 541,
          "midi": 40,
          "name": "E2",
          "ticks": 40964,
          "time": 20.06708913671876,
          "velocity": 0.5275590551181102
        },
        {
          "duration": 0.4941435898437483,
          "durationTicks": 1012,
          "midi": 40,
          "name": "E2",
          "ticks": 41506,
          "time": 20.331739162109386,
          "velocity": 0.4881889763779528
        },
        {
          "duration": 0.11865305566406192,
          "durationTicks": 243,
          "midi": 68,
          "name": "G#4",
          "ticks": 41755,
          "time": 20.453321922851572,
          "velocity": 0.5905511811023622
        },
        {
          "duration": 0.2314467011718726,
          "durationTicks": 474,
          "midi": 69,
          "name": "A4",
          "ticks": 42014,
          "time": 20.579787525390635,
          "velocity": 0.5984251968503937
        },
        {
          "duration": 0.2338881220703115,
          "durationTicks": 479,
          "midi": 68,
          "name": "G#4",
          "ticks": 42519,
          "time": 20.826371036132823,
          "velocity": 0.5905511811023622
        },
        {
          "duration": 0.12060619238281234,
          "durationTicks": 247,
          "midi": 40,
          "name": "E2",
          "ticks": 42519,
          "time": 20.826371036132823,
          "velocity": 0.4881889763779528
        },
        {
          "duration": 0.127442170898437,
          "durationTicks": 261,
          "midi": 40,
          "name": "E2",
          "ticks": 42767,
          "time": 20.947465512695324,
          "velocity": 0.4881889763779528
        },
        {
          "duration": 0.1279304550781255,
          "durationTicks": 262,
          "midi": 40,
          "name": "E2",
          "ticks": 43029,
          "time": 21.075395967773446,
          "velocity": 0.5118110236220472
        },
        {
          "duration": 0.12011790820312385,
          "durationTicks": 246,
          "midi": 40,
          "name": "E2",
          "ticks": 43292,
          "time": 21.20381470703126,
          "velocity": 0.4881889763779528
        },
        {
          "duration": 0.11328192968749917,
          "durationTicks": 232,
          "midi": 68,
          "name": "G#4",
          "ticks": 43539,
          "time": 21.324420899414072,
          "velocity": 0.5905511811023622
        },
        {
          "duration": 0.24609522656249894,
          "durationTicks": 504,
          "midi": 40,
          "name": "E2",
          "ticks": 43539,
          "time": 21.324420899414072,
          "velocity": 0.4881889763779528
        },
        {
          "duration": 0.11767648730468849,
          "durationTicks": 241,
          "midi": 69,
          "name": "A4",
          "ticks": 43787,
          "time": 21.445515375976573,
          "velocity": 0.5905511811023622
        },
        {
          "duration": 0.23144670117187616,
          "durationTicks": 474,
          "midi": 71,
          "name": "B4",
          "ticks": 44044,
          "time": 21.57100441015626,
          "velocity": 0.5984251968503937
        },
        {
          "duration": 0.24609522656249894,
          "durationTicks": 504,
          "midi": 40,
          "name": "E2",
          "ticks": 44044,
          "time": 21.57100441015626,
          "velocity": 0.49606299212598426
        },
        {
          "duration": 0.2324232695312496,
          "durationTicks": 476,
          "midi": 69,
          "name": "A4",
          "ticks": 44549,
          "time": 21.817587920898447,
          "velocity": 0.5905511811023622
        },
        {
          "duration": 0.12060619238281234,
          "durationTicks": 247,
          "midi": 40,
          "name": "E2",
          "ticks": 44549,
          "time": 21.817587920898447,
          "velocity": 0.4881889763779528
        },
        {
          "duration": 0.1259773183593751,
          "durationTicks": 258,
          "midi": 40,
          "name": "E2",
          "ticks": 44797,
          "time": 21.938682397460948,
          "velocity": 0.4881889763779528
        },
        {
          "duration": 0.38574450195312693,
          "durationTicks": 790,
          "midi": 68,
          "name": "G#4",
          "ticks": 45060,
          "time": 22.067101136718758,
          "velocity": 0.6299212598425197
        },
        {
          "duration": 0.2641617412109376,
          "durationTicks": 541,
          "midi": 40,
          "name": "E2",
          "ticks": 45060,
          "time": 22.067101136718758,
          "velocity": 0.5275590551181102
        },
        {
          "duration": 0.49414358984375184,
          "durationTicks": 1012,
          "midi": 40,
          "name": "E2",
          "ticks": 45602,
          "time": 22.331751162109384,
          "velocity": 0.4881889763779528
        },
        {
          "duration": 0.11865305566406548,
          "durationTicks": 243,
          "midi": 68,
          "name": "G#4",
          "ticks": 45851,
          "time": 22.45333392285157,
          "velocity": 0.5905511811023622
        },
        {
          "duration": 0.23144670117187616,
          "durationTicks": 474,
          "midi": 69,
          "name": "A4",
          "ticks": 46110,
          "time": 22.579799525390634,
          "velocity": 0.5984251968503937
        },
        {
          "duration": 0.23388812207031506,
          "durationTicks": 479,
          "midi": 71,
          "name": "B4",
          "ticks": 46615,
          "time": 22.82638303613282,
          "velocity": 0.5905511811023622
        },
        {
          "duration": 0.12060619238281234,
          "durationTicks": 247,
          "midi": 40,
          "name": "E2",
          "ticks": 46615,
          "time": 22.82638303613282,
          "velocity": 0.4881889763779528
        },
        {
          "duration": 0.127442170898437,
          "durationTicks": 261,
          "midi": 40,
          "name": "E2",
          "ticks": 46863,
          "time": 22.947477512695322,
          "velocity": 0.4881889763779528
        },
        {
          "duration": 0.1279304550781255,
          "durationTicks": 262,
          "midi": 40,
          "name": "E2",
          "ticks": 47125,
          "time": 23.075407967773447,
          "velocity": 0.5118110236220472
        },
        {
          "duration": 0.12011790820312385,
          "durationTicks": 246,
          "midi": 40,
          "name": "E2",
          "ticks": 47388,
          "time": 23.20382670703126,
          "velocity": 0.4881889763779528
        },
        {
          "duration": 0.12060619238281589,
          "durationTicks": 247,
          "midi": 72,
          "name": "C5",
          "ticks": 47635,
          "time": 23.32443289941407,
          "velocity": 0.49606299212598426
        },
        {
          "duration": 0.2460952265625025,
          "durationTicks": 504,
          "midi": 40,
          "name": "E2",
          "ticks": 47635,
          "time": 23.32443289941407,
          "velocity": 0.4881889763779528
        },
        {
          "duration": 0.13232501269531483,
          "durationTicks": 271,
          "midi": 72,
          "name": "C5",
          "ticks": 47883,
          "time": 23.44552737597657,
          "velocity": 0.49606299212598426
        },
        {
          "duration": 0.2314467011718726,
          "durationTicks": 474,
          "midi": 74,
          "name": "D5",
          "ticks": 48140,
          "time": 23.57101641015626,
          "velocity": 0.5984251968503937
        },
        {
          "duration": 0.24609522656249894,
          "durationTicks": 504,
          "midi": 40,
          "name": "E2",
          "ticks": 48140,
          "time": 23.57101641015626,
          "velocity": 0.49606299212598426
        },
        {
          "duration": 0.23242326953125314,
          "durationTicks": 476,
          "midi": 76,
          "name": "E5",
          "ticks": 48645,
          "time": 23.817599920898445,
          "velocity": 0.5905511811023622
        },
        {
          "duration": 0.2622086044921872,
          "durationTicks": 537,
          "midi": 40,
          "name": "E2",
          "ticks": 48645,
          "time": 23.817599920898445,
          "velocity": 0.4881889763779528
        },
        {
          "duration": 0.14990324316406145,
          "durationTicks": 307,
          "midi": 53,
          "name": "F3",
          "ticks": 49156,
          "time": 24.06711313671876,
          "velocity": 0.5354330708661418
        },
        {
          "duration": 0.128418739257814,
          "durationTicks": 263,
          "midi": 48,
          "name": "C3",
          "ticks": 49449,
          "time": 24.210180401367197,
          "velocity": 0.49606299212598426
        },
        {
          "duration": 0.12109447656250083,
          "durationTicks": 248,
          "midi": 65,
          "name": "F4",
          "ticks": 49698,
          "time": 24.331763162109382,
          "velocity": 0.4330708661417323
        },
        {
          "duration": 0.12109447656250083,
          "durationTicks": 248,
          "midi": 72,
          "name": "C5",
          "ticks": 49698,
          "time": 24.331763162109382,
          "velocity": 0.4330708661417323
        },
        {
          "duration": 0.12109447656250083,
          "durationTicks": 248,
          "midi": 74,
          "name": "D5",
          "ticks": 49698,
          "time": 24.331763162109382,
          "velocity": 0.5118110236220472
        },
        {
          "duration": 0.128418739257814,
          "durationTicks": 263,
          "midi": 45,
          "name": "A2",
          "ticks": 49698,
          "time": 24.331763162109382,
          "velocity": 0.49606299212598426
        },
        {
          "duration": 0.1259773183593751,
          "durationTicks": 258,
          "midi": 65,
          "name": "F4",
          "ticks": 49947,
          "time": 24.45334592285157,
          "velocity": 0.4330708661417323
        },
        {
          "duration": 0.1259773183593751,
          "durationTicks": 258,
          "midi": 72,
          "name": "C5",
          "ticks": 49947,
          "time": 24.45334592285157,
          "velocity": 0.4330708661417323
        },
        {
          "duration": 0.1259773183593751,
          "durationTicks": 258,
          "midi": 74,
          "name": "D5",
          "ticks": 49947,
          "time": 24.45334592285157,
          "velocity": 0.5118110236220472
        },
        {
          "duration": 0.13330158105468826,
          "durationTicks": 273,
          "midi": 41,
          "name": "F2",
          "ticks": 49947,
          "time": 24.45334592285157,
          "velocity": 0.49606299212598426
        },
        {
          "duration": 0.49512015820312527,
          "durationTicks": 1014,
          "midi": 65,
          "name": "F4",
          "ticks": 50206,
          "time": 24.579811525390635,
          "velocity": 0.5354330708661418
        },
        {
          "duration": 0.49512015820312527,
          "durationTicks": 1014,
          "midi": 72,
          "name": "C5",
          "ticks": 50206,
          "time": 24.579811525390635,
          "velocity": 0.5354330708661418
        },
        {
          "duration": 0.49512015820312527,
          "durationTicks": 1014,
          "midi": 74,
          "name": "D5",
          "ticks": 50206,
          "time": 24.579811525390635,
          "velocity": 0.6456692913385826
        },
        {
          "duration": 0.13281329687499976,
          "durationTicks": 272,
          "midi": 53,
          "name": "F3",
          "ticks": 50206,
          "time": 24.579811525390635,
          "velocity": 0.5039370078740157
        },
        {
          "duration": 0.127442170898437,
          "durationTicks": 261,
          "midi": 48,
          "name": "C3",
          "ticks": 50464,
          "time": 24.70578884375001,
          "velocity": 0.49606299212598426
        },
        {
          "duration": 0.12793045507812195,
          "durationTicks": 262,
          "midi": 45,
          "name": "A2",
          "ticks": 50711,
          "time": 24.826395036132823,
          "velocity": 0.49606299212598426
        },
        {
          "duration": 0.13476643359375373,
          "durationTicks": 276,
          "midi": 41,
          "name": "F2",
          "ticks": 50959,
          "time": 24.94748951269532,
          "velocity": 0.49606299212598426
        },
        {
          "duration": 0.13525471777343512,
          "durationTicks": 277,
          "midi": 53,
          "name": "F3",
          "ticks": 51221,
          "time": 25.07541996777345,
          "velocity": 0.5196850393700787
        },
        {
          "duration": 0.127442170898437,
          "durationTicks": 261,
          "midi": 48,
          "name": "C3",
          "ticks": 51484,
          "time": 25.20383870703126,
          "velocity": 0.49606299212598426
        },
        {
          "duration": 0.12060619238281234,
          "durationTicks": 247,
          "midi": 64,
          "name": "E4",
          "ticks": 51731,
          "time": 25.324444899414072,
          "velocity": 0.4330708661417323
        },
        {
          "duration": 0.12060619238281234,
          "durationTicks": 247,
          "midi": 65,
          "name": "F4",
          "ticks": 51731,
          "time": 25.324444899414072,
          "velocity": 0.4330708661417323
        },
        {
          "duration": 0.12060619238281234,
          "durationTicks": 247,
          "midi": 72,
          "name": "C5",
          "ticks": 51731,
          "time": 25.324444899414072,
          "velocity": 0.5433070866141733
        },
        {
          "duration": 0.1279304550781255,
          "durationTicks": 262,
          "midi": 45,
          "name": "A2",
          "ticks": 51731,
          "time": 25.324444899414072,
          "velocity": 0.49606299212598426
        },
        {
          "duration": 0.1250007499999981,
          "durationTicks": 256,
          "midi": 64,
          "name": "E4",
          "ticks": 51979,
          "time": 25.445539375976573,
          "velocity": 0.4330708661417323
        },
        {
          "duration": 0.1250007499999981,
          "durationTicks": 256,
          "midi": 65,
          "name": "F4",
          "ticks": 51979,
          "time": 25.445539375976573,
          "velocity": 0.4330708661417323
        },
        {
          "duration": 0.1250007499999981,
          "durationTicks": 256,
          "midi": 72,
          "name": "C5",
          "ticks": 51979,
          "time": 25.445539375976573,
          "velocity": 0.5118110236220472
        },
        {
          "duration": 0.13232501269531127,
          "durationTicks": 271,
          "midi": 41,
          "name": "F2",
          "ticks": 51979,
          "time": 25.445539375976573,
          "velocity": 0.49606299212598426
        },
        {
          "duration": 0.49365530566406335,
          "durationTicks": 1011,
          "midi": 64,
          "name": "E4",
          "ticks": 52236,
          "time": 25.57102841015626,
          "velocity": 0.5354330708661418
        },
        {
          "duration": 0.49365530566406335,
          "durationTicks": 1011,
          "midi": 65,
          "name": "F4",
          "ticks": 52236,
          "time": 25.57102841015626,
          "velocity": 0.5354330708661418
        },
        {
          "duration": 0.49365530566406335,
          "durationTicks": 1011,
          "midi": 72,
          "name": "C5",
          "ticks": 52236,
          "time": 25.57102841015626,
          "velocity": 0.6456692913385826
        },
        {
          "duration": 0.13232501269531127,
          "durationTicks": 271,
          "midi": 53,
          "name": "F3",
          "ticks": 52236,
          "time": 25.57102841015626,
          "velocity": 0.5039370078740157
        },
        {
          "duration": 0.1279304550781255,
          "durationTicks": 262,
          "midi": 48,
          "name": "C3",
          "ticks": 52493,
          "time": 25.696517444335946,
          "velocity": 0.49606299212598426
        },
        {
          "duration": 0.1279304550781255,
          "durationTicks": 262,
          "midi": 45,
          "name": "A2",
          "ticks": 52741,
          "time": 25.817611920898447,
          "velocity": 0.49606299212598426
        },
        {
          "duration": 0.13330158105468826,
          "durationTicks": 273,
          "midi": 41,
          "name": "F2",
          "ticks": 52989,
          "time": 25.938706397460948,
          "velocity": 0.49606299212598426
        },
        {
          "duration": 0.11425849804687616,
          "durationTicks": 234,
          "midi": 64,
          "name": "E4",
          "ticks": 53252,
          "time": 26.067125136718758,
          "velocity": 0.47244094488188976
        },
        {
          "duration": 0.11425849804687616,
          "durationTicks": 234,
          "midi": 71,
          "name": "B4",
          "ticks": 53252,
          "time": 26.067125136718758,
          "velocity": 0.5826771653543307
        },
        {
          "duration": 1.9975705791015628,
          "durationTicks": 4091,
          "midi": 40,
          "name": "E2",
          "ticks": 53252,
          "time": 26.067125136718758,
          "velocity": 0.5826771653543307
        },
        {
          "duration": 0.09765683593749941,
          "durationTicks": 200,
          "midi": 64,
          "name": "E4",
          "ticks": 53794,
          "time": 26.331775162109384,
          "velocity": 0.4330708661417323
        },
        {
          "duration": 0.09765683593749941,
          "durationTicks": 200,
          "midi": 72,
          "name": "C5",
          "ticks": 53794,
          "time": 26.331775162109384,
          "velocity": 0.5433070866141733
        },
        {
          "duration": 0.09619198339843749,
          "durationTicks": 197,
          "midi": 64,
          "name": "E4",
          "ticks": 54302,
          "time": 26.579823525390633,
          "velocity": 0.4409448818897638
        },
        {
          "duration": 0.09619198339843749,
          "durationTicks": 197,
          "midi": 71,
          "name": "B4",
          "ticks": 54302,
          "time": 26.579823525390633,
          "velocity": 0.5511811023622047
        },
        {
          "duration": 0.09863340429687639,
          "durationTicks": 202,
          "midi": 64,
          "name": "E4",
          "ticks": 54807,
          "time": 26.82640703613282,
          "velocity": 0.4330708661417323
        },
        {
          "duration": 0.09863340429687639,
          "durationTicks": 202,
          "midi": 69,
          "name": "A4",
          "ticks": 54807,
          "time": 26.82640703613282,
          "velocity": 0.5433070866141733
        },
        {
          "duration": 0.09863340429687639,
          "durationTicks": 202,
          "midi": 64,
          "name": "E4",
          "ticks": 55317,
          "time": 27.075431967773447,
          "velocity": 0.4566929133858268
        },
        {
          "duration": 0.09863340429687639,
          "durationTicks": 202,
          "midi": 71,
          "name": "B4",
          "ticks": 55317,
          "time": 27.075431967773447,
          "velocity": 0.5669291338582677
        },
        {
          "duration": 0.09619198339843393,
          "durationTicks": 197,
          "midi": 64,
          "name": "E4",
          "ticks": 55827,
          "time": 27.324456899414074,
          "velocity": 0.4330708661417323
        },
        {
          "duration": 0.09619198339843393,
          "durationTicks": 197,
          "midi": 72,
          "name": "C5",
          "ticks": 55827,
          "time": 27.324456899414074,
          "velocity": 0.5433070866141733
        },
        {
          "duration": 0.09619198339844104,
          "durationTicks": 197,
          "midi": 64,
          "name": "E4",
          "ticks": 56332,
          "time": 27.571040410156257,
          "velocity": 0.4409448818897638
        },
        {
          "duration": 0.09619198339844104,
          "durationTicks": 197,
          "midi": 71,
          "name": "B4",
          "ticks": 56332,
          "time": 27.571040410156257,
          "velocity": 0.5511811023622047
        },
        {
          "duration": 0.09716855175781092,
          "durationTicks": 199,
          "midi": 64,
          "name": "E4",
          "ticks": 56837,
          "time": 27.81762392089845,
          "velocity": 0.4330708661417323
        },
        {
          "duration": 0.09716855175781092,
          "durationTicks": 199,
          "midi": 69,
          "name": "A4",
          "ticks": 56837,
          "time": 27.81762392089845,
          "velocity": 0.5433070866141733
        },
        {
          "duration": 0.14990324316406145,
          "durationTicks": 307,
          "midi": 53,
          "name": "F3",
          "ticks": 57348,
          "time": 28.06713713671876,
          "velocity": 0.5354330708661418
        },
        {
          "duration": 0.128418739257814,
          "durationTicks": 263,
          "midi": 48,
          "name": "C3",
          "ticks": 57641,
          "time": 28.210204401367196,
          "velocity": 0.49606299212598426
        },
        {
          "duration": 0.12109447656249728,
          "durationTicks": 248,
          "midi": 65,
          "name": "F4",
          "ticks": 57890,
          "time": 28.331787162109386,
          "velocity": 0.4330708661417323
        },
        {
          "duration": 0.12109447656249728,
          "durationTicks": 248,
          "midi": 72,
          "name": "C5",
          "ticks": 57890,
          "time": 28.331787162109386,
          "velocity": 0.4330708661417323
        },
        {
          "duration": 0.12109447656249728,
          "durationTicks": 248,
          "midi": 74,
          "name": "D5",
          "ticks": 57890,
          "time": 28.331787162109386,
          "velocity": 0.5433070866141733
        },
        {
          "duration": 0.12841873925781044,
          "durationTicks": 263,
          "midi": 45,
          "name": "A2",
          "ticks": 57890,
          "time": 28.331787162109386,
          "velocity": 0.49606299212598426
        },
        {
          "duration": 0.1259773183593751,
          "durationTicks": 258,
          "midi": 65,
          "name": "F4",
          "ticks": 58139,
          "time": 28.45336992285157,
          "velocity": 0.4330708661417323
        },
        {
          "duration": 0.1259773183593751,
          "durationTicks": 258,
          "midi": 72,
          "name": "C5",
          "ticks": 58139,
          "time": 28.45336992285157,
          "velocity": 0.4330708661417323
        },
        {
          "duration": 0.1259773183593751,
          "durationTicks": 258,
          "midi": 74,
          "name": "D5",
          "ticks": 58139,
          "time": 28.45336992285157,
          "velocity": 0.5118110236220472
        },
        {
          "duration": 0.13330158105468826,
          "durationTicks": 273,
          "midi": 41,
          "name": "F2",
          "ticks": 58139,
          "time": 28.45336992285157,
          "velocity": 0.49606299212598426
        },
        {
          "duration": 0.4951201582031217,
          "durationTicks": 1014,
          "midi": 65,
          "name": "F4",
          "ticks": 58398,
          "time": 28.579835525390635,
          "velocity": 0.5354330708661418
        },
        {
          "duration": 0.4951201582031217,
          "durationTicks": 1014,
          "midi": 72,
          "name": "C5",
          "ticks": 58398,
          "time": 28.579835525390635,
          "velocity": 0.5354330708661418
        },
        {
          "duration": 0.4951201582031217,
          "durationTicks": 1014,
          "midi": 74,
          "name": "D5",
          "ticks": 58398,
          "time": 28.579835525390635,
          "velocity": 0.6456692913385826
        },
        {
          "duration": 0.13281329687499976,
          "durationTicks": 272,
          "midi": 53,
          "name": "F3",
          "ticks": 58398,
          "time": 28.579835525390635,
          "velocity": 0.5039370078740157
        },
        {
          "duration": 0.127442170898437,
          "durationTicks": 261,
          "midi": 48,
          "name": "C3",
          "ticks": 58656,
          "time": 28.70581284375001,
          "velocity": 0.49606299212598426
        },
        {
          "duration": 0.1279304550781255,
          "durationTicks": 262,
          "midi": 45,
          "name": "A2",
          "ticks": 58903,
          "time": 28.826419036132823,
          "velocity": 0.49606299212598426
        },
        {
          "duration": 0.13476643359374663,
          "durationTicks": 276,
          "midi": 41,
          "name": "F2",
          "ticks": 59151,
          "time": 28.947513512695323,
          "velocity": 0.49606299212598426
        },
        {
          "duration": 0.13525471777343867,
          "durationTicks": 277,
          "midi": 53,
          "name": "F3",
          "ticks": 59413,
          "time": 29.075443967773445,
          "velocity": 0.5196850393700787
        },
        {
          "duration": 0.127442170898437,
          "durationTicks": 261,
          "midi": 48,
          "name": "C3",
          "ticks": 59676,
          "time": 29.20386270703126,
          "velocity": 0.49606299212598426
        },
        {
          "duration": 0.12060619238281234,
          "durationTicks": 247,
          "midi": 64,
          "name": "E4",
          "ticks": 59923,
          "time": 29.32446889941407,
          "velocity": 0.4330708661417323
        },
        {
          "duration": 0.12060619238281234,
          "durationTicks": 247,
          "midi": 65,
          "name": "F4",
          "ticks": 59923,
          "time": 29.32446889941407,
          "velocity": 0.4330708661417323
        },
        {
          "duration": 0.12060619238281234,
          "durationTicks": 247,
          "midi": 72,
          "name": "C5",
          "ticks": 59923,
          "time": 29.32446889941407,
          "velocity": 0.5433070866141733
        },
        {
          "duration": 0.1279304550781255,
          "durationTicks": 262,
          "midi": 45,
          "name": "A2",
          "ticks": 59923,
          "time": 29.32446889941407,
          "velocity": 0.49606299212598426
        },
        {
          "duration": 0.12500075000000166,
          "durationTicks": 256,
          "midi": 64,
          "name": "E4",
          "ticks": 60171,
          "time": 29.445563375976572,
          "velocity": 0.4330708661417323
        },
        {
          "duration": 0.12500075000000166,
          "durationTicks": 256,
          "midi": 65,
          "name": "F4",
          "ticks": 60171,
          "time": 29.445563375976572,
          "velocity": 0.4330708661417323
        },
        {
          "duration": 0.12500075000000166,
          "durationTicks": 256,
          "midi": 72,
          "name": "C5",
          "ticks": 60171,
          "time": 29.445563375976572,
          "velocity": 0.5118110236220472
        },
        {
          "duration": 0.13232501269531127,
          "durationTicks": 271,
          "midi": 41,
          "name": "F2",
          "ticks": 60171,
          "time": 29.445563375976572,
          "velocity": 0.49606299212598426
        },
        {
          "duration": 0.49365530566406335,
          "durationTicks": 1011,
          "midi": 64,
          "name": "E4",
          "ticks": 60428,
          "time": 29.57105241015626,
          "velocity": 0.5354330708661418
        },
        {
          "duration": 0.49365530566406335,
          "durationTicks": 1011,
          "midi": 65,
          "name": "F4",
          "ticks": 60428,
          "time": 29.57105241015626,
          "velocity": 0.5354330708661418
        },
        {
          "duration": 0.49365530566406335,
          "durationTicks": 1011,
          "midi": 72,
          "name": "C5",
          "ticks": 60428,
          "time": 29.57105241015626,
          "velocity": 0.6456692913385826
        },
        {
          "duration": 0.13232501269531483,
          "durationTicks": 271,
          "midi": 53,
          "name": "F3",
          "ticks": 60428,
          "time": 29.57105241015626,
          "velocity": 0.5039370078740157
        },
        {
          "duration": 0.12793045507812195,
          "durationTicks": 262,
          "midi": 48,
          "name": "C3",
          "ticks": 60685,
          "time": 29.69654144433595,
          "velocity": 0.49606299212598426
        },
        {
          "duration": 0.1279304550781255,
          "durationTicks": 262,
          "midi": 45,
          "name": "A2",
          "ticks": 60933,
          "time": 29.817635920898446,
          "velocity": 0.49606299212598426
        },
        {
          "duration": 0.1333015810546847,
          "durationTicks": 273,
          "midi": 41,
          "name": "F2",
          "ticks": 61181,
          "time": 29.938730397460947,
          "velocity": 0.49606299212598426
        },
        {
          "duration": 0.1142584980468726,
          "durationTicks": 234,
          "midi": 64,
          "name": "E4",
          "ticks": 61444,
          "time": 30.06714913671876,
          "velocity": 0.47244094488188976
        },
        {
          "duration": 0.1142584980468726,
          "durationTicks": 234,
          "midi": 71,
          "name": "B4",
          "ticks": 61444,
          "time": 30.06714913671876,
          "velocity": 0.5826771653543307
        },
        {
          "duration": 0.5122101044921834,
          "durationTicks": 1049,
          "midi": 40,
          "name": "E2",
          "ticks": 61444,
          "time": 30.06714913671876,
          "velocity": 0.6220472440944882
        },
        {
          "duration": 0.09765683593749941,
          "durationTicks": 200,
          "midi": 64,
          "name": "E4",
          "ticks": 61986,
          "time": 30.331799162109384,
          "velocity": 0.4330708661417323
        },
        {
          "duration": 0.09765683593749941,
          "durationTicks": 200,
          "midi": 72,
          "name": "C5",
          "ticks": 61986,
          "time": 30.331799162109384,
          "velocity": 0.5433070866141733
        },
        {
          "duration": 0.09619198339844104,
          "durationTicks": 197,
          "midi": 64,
          "name": "E4",
          "ticks": 62494,
          "time": 30.579847525390633,
          "velocity": 0.4409448818897638
        },
        {
          "duration": 0.09619198339844104,
          "durationTicks": 197,
          "midi": 71,
          "name": "B4",
          "ticks": 62494,
          "time": 30.579847525390633,
          "velocity": 0.5511811023622047
        },
        {
          "duration": 0.990728600585939,
          "durationTicks": 2029,
          "midi": 40,
          "name": "E2",
          "ticks": 62494,
          "time": 30.579847525390633,
          "velocity": 0.5905511811023622
        },
        {
          "duration": 0.09863340429687284,
          "durationTicks": 202,
          "midi": 64,
          "name": "E4",
          "ticks": 62999,
          "time": 30.826431036132824,
          "velocity": 0.4330708661417323
        },
        {
          "duration": 0.09863340429687284,
          "durationTicks": 202,
          "midi": 69,
          "name": "A4",
          "ticks": 62999,
          "time": 30.826431036132824,
          "velocity": 0.5433070866141733
        },
        {
          "duration": 0.09863340429687284,
          "durationTicks": 202,
          "midi": 64,
          "name": "E4",
          "ticks": 63509,
          "time": 31.075455967773447,
          "velocity": 0.4566929133858268
        },
        {
          "duration": 0.09863340429687284,
          "durationTicks": 202,
          "midi": 71,
          "name": "B4",
          "ticks": 63509,
          "time": 31.075455967773447,
          "velocity": 0.5669291338582677
        },
        {
          "duration": 0.09619198339844104,
          "durationTicks": 197,
          "midi": 64,
          "name": "E4",
          "ticks": 64019,
          "time": 31.32448089941407,
          "velocity": 0.4330708661417323
        },
        {
          "duration": 0.09619198339844104,
          "durationTicks": 197,
          "midi": 72,
          "name": "C5",
          "ticks": 64019,
          "time": 31.32448089941407,
          "velocity": 0.5433070866141733
        },
        {
          "duration": 0.09619198339843393,
          "durationTicks": 197,
          "midi": 64,
          "name": "E4",
          "ticks": 64524,
          "time": 31.57106441015626,
          "velocity": 0.4409448818897638
        },
        {
          "duration": 0.09619198339843393,
          "durationTicks": 197,
          "midi": 71,
          "name": "B4",
          "ticks": 64524,
          "time": 31.57106441015626,
          "velocity": 0.5511811023622047
        },
        {
          "duration": 1.0083068310546892,
          "durationTicks": 2065,
          "midi": 40,
          "name": "E2",
          "ticks": 64524,
          "time": 31.57106441015626,
          "velocity": 0.5905511811023622
        },
        {
          "duration": 0.09716855175781447,
          "durationTicks": 199,
          "midi": 64,
          "name": "E4",
          "ticks": 65029,
          "time": 31.817647920898445,
          "velocity": 0.4330708661417323
        },
        {
          "duration": 0.09716855175781447,
          "durationTicks": 199,
          "midi": 69,
          "name": "A4",
          "ticks": 65029,
          "time": 31.817647920898445,
          "velocity": 0.5433070866141733
        },
        {
          "duration": 0.1142584980468726,
          "durationTicks": 234,
          "midi": 64,
          "name": "E4",
          "ticks": 65540,
          "time": 32.06716113671876,
          "velocity": 0.47244094488188976
        },
        {
          "duration": 0.1142584980468726,
          "durationTicks": 234,
          "midi": 71,
          "name": "B4",
          "ticks": 65540,
          "time": 32.06716113671876,
          "velocity": 0.5826771653543307
        },
        {
          "duration": 0.09765683593749941,
          "durationTicks": 200,
          "midi": 64,
          "name": "E4",
          "ticks": 66082,
          "time": 32.33181116210938,
          "velocity": 0.4330708661417323
        },
        {
          "duration": 0.09765683593749941,
          "durationTicks": 200,
          "midi": 72,
          "name": "C5",
          "ticks": 66082,
          "time": 32.33181116210938,
          "velocity": 0.5433070866141733
        },
        {
          "duration": 0.09619198339844104,
          "durationTicks": 197,
          "midi": 64,
          "name": "E4",
          "ticks": 66590,
          "time": 32.57985952539063,
          "velocity": 0.4409448818897638
        },
        {
          "duration": 0.09619198339844104,
          "durationTicks": 197,
          "midi": 71,
          "name": "B4",
          "ticks": 66590,
          "time": 32.57985952539063,
          "velocity": 0.5511811023622047
        },
        {
          "duration": 0.4951201582031288,
          "durationTicks": 1014,
          "midi": 40,
          "name": "E2",
          "ticks": 66590,
          "time": 32.57985952539063,
          "velocity": 0.5905511811023622
        },
        {
          "duration": 0.09863340429687639,
          "durationTicks": 202,
          "midi": 64,
          "name": "E4",
          "ticks": 67095,
          "time": 32.82644303613282,
          "velocity": 0.4330708661417323
        },
        {
          "duration": 0.09863340429687639,
          "durationTicks": 202,
          "midi": 72,
          "name": "C5",
          "ticks": 67095,
          "time": 32.82644303613282,
          "velocity": 0.5433070866141733
        },
        {
          "duration": 0.09863340429687639,
          "durationTicks": 202,
          "midi": 64,
          "name": "E4",
          "ticks": 67605,
          "time": 33.07546796777345,
          "velocity": 0.4566929133858268
        },
        {
          "duration": 0.09863340429687639,
          "durationTicks": 202,
          "midi": 74,
          "name": "D5",
          "ticks": 67605,
          "time": 33.07546796777345,
          "velocity": 0.5669291338582677
        },
        {
          "duration": 0.3696311240234351,
          "durationTicks": 757,
          "midi": 40,
          "name": "E2",
          "ticks": 67605,
          "time": 33.07546796777345,
          "velocity": 0.6062992125984252
        },
        {
          "duration": 0.09619198339844104,
          "durationTicks": 197,
          "midi": 64,
          "name": "E4",
          "ticks": 68115,
          "time": 33.32449289941407,
          "velocity": 0.4330708661417323
        },
        {
          "duration": 0.09619198339844104,
          "durationTicks": 197,
          "midi": 72,
          "name": "C5",
          "ticks": 68115,
          "time": 33.32449289941407,
          "velocity": 0.5433070866141733
        },
        {
          "duration": 0.1250007499999981,
          "durationTicks": 256,
          "midi": 40,
          "name": "E2",
          "ticks": 68363,
          "time": 33.44558737597657,
          "velocity": 0.4881889763779528
        },
        {
          "duration": 0.09619198339843393,
          "durationTicks": 197,
          "midi": 64,
          "name": "E4",
          "ticks": 68620,
          "time": 33.57107641015626,
          "velocity": 0.4409448818897638
        },
        {
          "duration": 0.09619198339843393,
          "durationTicks": 197,
          "midi": 74,
          "name": "D5",
          "ticks": 68620,
          "time": 33.57107641015626,
          "velocity": 0.5511811023622047
        },
        {
          "duration": 0.1250007499999981,
          "durationTicks": 256,
          "midi": 40,
          "name": "E2",
          "ticks": 68620,
          "time": 33.57107641015626,
          "velocity": 0.49606299212598426
        },
        {
          "duration": 0.12060619238281589,
          "durationTicks": 247,
          "midi": 40,
          "name": "E2",
          "ticks": 68877,
          "time": 33.696565444335945,
          "velocity": 0.4881889763779528
        },
        {
          "duration": 0.09716855175781092,
          "durationTicks": 199,
          "midi": 64,
          "name": "E4",
          "ticks": 69125,
          "time": 33.81765992089845,
          "velocity": 0.4330708661417323
        },
        {
          "duration": 0.11230536132812574,
          "durationTicks": 230,
          "midi": 76,
          "name": "E5",
          "ticks": 69125,
          "time": 33.81765992089845,
          "velocity": 0.5433070866141733
        },
        {
          "duration": 0.12060619238280879,
          "durationTicks": 247,
          "midi": 40,
          "name": "E2",
          "ticks": 69125,
          "time": 33.81765992089845,
          "velocity": 0.4881889763779528
        },
        {
          "duration": 0.13330158105468826,
          "durationTicks": 273,
          "midi": 40,
          "name": "E2",
          "ticks": 69373,
          "time": 33.93875439746095,
          "velocity": 0.4881889763779528
        },
        {
          "duration": 0.38574450195312693,
          "durationTicks": 790,
          "midi": 57,
          "name": "A3",
          "ticks": 69636,
          "time": 34.06717313671876,
          "velocity": 0.6299212598425197
        },
        {
          "duration": 0.279298550781256,
          "durationTicks": 572,
          "midi": 48,
          "name": "C3",
          "ticks": 69636,
          "time": 34.06717313671876,
          "velocity": 0.5354330708661418
        },
        {
          "duration": 0.2626968886718757,
          "durationTicks": 538,
          "midi": 45,
          "name": "A2",
          "ticks": 70178,
          "time": 34.33182316210939,
          "velocity": 0.49606299212598426
        },
        {
          "duration": 0.11865305566406192,
          "durationTicks": 243,
          "midi": 57,
          "name": "A3",
          "ticks": 70427,
          "time": 34.45340592285157,
          "velocity": 0.5905511811023622
        },
        {
          "duration": 0.23144670117187616,
          "durationTicks": 474,
          "midi": 60,
          "name": "C4",
          "ticks": 70686,
          "time": 34.57987152539064,
          "velocity": 0.5984251968503937
        },
        {
          "duration": 0.2612320361328102,
          "durationTicks": 535,
          "midi": 48,
          "name": "C3",
          "ticks": 70686,
          "time": 34.57987152539064,
          "velocity": 0.5039370078740157
        },
        {
          "duration": 0.23388812207031862,
          "durationTicks": 479,
          "midi": 57,
          "name": "A3",
          "ticks": 71191,
          "time": 34.82645503613282,
          "velocity": 0.5905511811023622
        },
        {
          "duration": 0.26367345703125267,
          "durationTicks": 540,
          "midi": 45,
          "name": "A2",
          "ticks": 71191,
          "time": 34.82645503613282,
          "velocity": 0.49606299212598426
        },
        {
          "duration": 0.7477193798828026,
          "durationTicks": 1519,
          "midi": 60,
          "name": "C4",
          "ticks": 71701,
          "time": 35.07547996777345,
          "velocity": 0.6141732283464567
        },
        {
          "duration": 0.2644372373046835,
          "durationTicks": 540,
          "midi": 48,
          "name": "C3",
          "ticks": 71701,
          "time": 35.07547996777345,
          "velocity": 0.5196850393700787
        },
        {
          "duration": 0.26362900976563,
          "durationTicks": 535,
          "midi": 45,
          "name": "A2",
          "ticks": 72211,
          "time": 35.32513886523438,
          "velocity": 0.49606299212598426
        },
        {
          "duration": 0.26466835449217996,
          "durationTicks": 535,
          "midi": 48,
          "name": "C3",
          "ticks": 72716,
          "time": 35.57393100000001,
          "velocity": 0.5039370078740157
        },
        {
          "duration": 0.2369104462890661,
          "durationTicks": 476,
          "midi": 57,
          "name": "A3",
          "ticks": 73221,
          "time": 35.82369612207032,
          "velocity": 0.5905511811023622
        },
        {
          "duration": 0.2670204033203163,
          "durationTicks": 537,
          "midi": 45,
          "name": "A2",
          "ticks": 73221,
          "time": 35.82369612207032,
          "velocity": 0.49606299212598426
        },
        {
          "duration": 0.38574450195312693,
          "durationTicks": 790,
          "midi": 56,
          "name": "G#3",
          "ticks": 73732,
          "time": 36.07802113671875,
          "velocity": 0.6299212598425197
        },
        {
          "duration": 0.279298550781256,
          "durationTicks": 572,
          "midi": 47,
          "name": "B2",
          "ticks": 73732,
          "time": 36.07802113671875,
          "velocity": 0.5354330708661418
        },
        {
          "duration": 0.2626968886718757,
          "durationTicks": 538,
          "midi": 44,
          "name": "G#2",
          "ticks": 74274,
          "time": 36.34267116210938,
          "velocity": 0.49606299212598426
        },
        {
          "duration": 0.11865305566406192,
          "durationTicks": 243,
          "midi": 56,
          "name": "G#3",
          "ticks": 74523,
          "time": 36.46425392285157,
          "velocity": 0.5905511811023622
        },
        {
          "duration": 0.23144670117187616,
          "durationTicks": 474,
          "midi": 57,
          "name": "A3",
          "ticks": 74782,
          "time": 36.59071952539063,
          "velocity": 0.5984251968503937
        },
        {
          "duration": 0.2612320361328102,
          "durationTicks": 535,
          "midi": 47,
          "name": "B2",
          "ticks": 74782,
          "time": 36.59071952539063,
          "velocity": 0.5039370078740157
        },
        {
          "duration": 0.23388812207031862,
          "durationTicks": 479,
          "midi": 59,
          "name": "B3",
          "ticks": 75287,
          "time": 36.837303036132816,
          "velocity": 0.5905511811023622
        },
        {
          "duration": 0.26367345703125267,
          "durationTicks": 540,
          "midi": 44,
          "name": "G#2",
          "ticks": 75287,
          "time": 36.837303036132816,
          "velocity": 0.49606299212598426
        },
        {
          "duration": 0.49795646972656016,
          "durationTicks": 1014,
          "midi": 57,
          "name": "A3",
          "ticks": 75797,
          "time": 37.08632796777344,
          "velocity": 0.6141732283464567
        },
        {
          "duration": 0.2644372373046835,
          "durationTicks": 540,
          "midi": 48,
          "name": "C3",
          "ticks": 75797,
          "time": 37.08632796777344,
          "velocity": 0.5196850393700787
        },
        {
          "duration": 0.26362900976563,
          "durationTicks": 535,
          "midi": 45,
          "name": "A2",
          "ticks": 76307,
          "time": 37.335986865234375,
          "velocity": 0.49606299212598426
        },
        {
          "duration": 0.5016382441406222,
          "durationTicks": 1011,
          "midi": 52,
          "name": "E3",
          "ticks": 76812,
          "time": 37.584779000000005,
          "velocity": 0.5984251968503937
        },
        {
          "duration": 0.26466835449217996,
          "durationTicks": 535,
          "midi": 48,
          "name": "C3",
          "ticks": 76812,
          "time": 37.584779000000005,
          "velocity": 0.5039370078740157
        },
        {
          "duration": 0.2670204033203163,
          "durationTicks": 537,
          "midi": 45,
          "name": "A2",
          "ticks": 77317,
          "time": 37.83454412207031,
          "velocity": 0.49606299212598426
        },
        {
          "duration": 0.38574450195312693,
          "durationTicks": 790,
          "midi": 57,
          "name": "A3",
          "ticks": 77828,
          "time": 38.08886913671875,
          "velocity": 0.6299212598425197
        },
        {
          "duration": 0.279298550781256,
          "durationTicks": 572,
          "midi": 48,
          "name": "C3",
          "ticks": 77828,
          "time": 38.08886913671875,
          "velocity": 0.5354330708661418
        },
        {
          "duration": 0.2626968886718757,
          "durationTicks": 538,
          "midi": 45,
          "name": "A2",
          "ticks": 78370,
          "time": 38.35351916210938,
          "velocity": 0.49606299212598426
        },
        {
          "duration": 0.11865305566406192,
          "durationTicks": 243,
          "midi": 57,
          "name": "A3",
          "ticks": 78619,
          "time": 38.475101922851564,
          "velocity": 0.5905511811023622
        },
        {
          "duration": 0.23144670117187616,
          "durationTicks": 474,
          "midi": 60,
          "name": "C4",
          "ticks": 78878,
          "time": 38.60156752539063,
          "velocity": 0.5984251968503937
        },
        {
          "duration": 0.2612320361328102,
          "durationTicks": 535,
          "midi": 48,
          "name": "C3",
          "ticks": 78878,
          "time": 38.60156752539063,
          "velocity": 0.5039370078740157
        },
        {
          "duration": 0.23388812207031862,
          "durationTicks": 479,
          "midi": 57,
          "name": "A3",
          "ticks": 79383,
          "time": 38.84815103613281,
          "velocity": 0.5905511811023622
        },
        {
          "duration": 0.26367345703125267,
          "durationTicks": 540,
          "midi": 45,
          "name": "A2",
          "ticks": 79383,
          "time": 38.84815103613281,
          "velocity": 0.49606299212598426
        },
        {
          "duration": 0.7477193798828026,
          "durationTicks": 1519,
          "midi": 60,
          "name": "C4",
          "ticks": 79893,
          "time": 39.09717596777344,
          "velocity": 0.6141732283464567
        },
        {
          "duration": 0.2644372373046835,
          "durationTicks": 540,
          "midi": 48,
          "name": "C3",
          "ticks": 79893,
          "time": 39.09717596777344,
          "velocity": 0.5196850393700787
        },
        {
          "duration": 0.26362900976563,
          "durationTicks": 535,
          "midi": 45,
          "name": "A2",
          "ticks": 80403,
          "time": 39.34683486523437,
          "velocity": 0.49606299212598426
        },
        {
          "duration": 0.26466835449217996,
          "durationTicks": 535,
          "midi": 48,
          "name": "C3",
          "ticks": 80908,
          "time": 39.595627,
          "velocity": 0.5039370078740157
        },
        {
          "duration": 0.2369104462890661,
          "durationTicks": 476,
          "midi": 57,
          "name": "A3",
          "ticks": 81413,
          "time": 39.84539212207031,
          "velocity": 0.5905511811023622
        },
        {
          "duration": 0.2670204033203163,
          "durationTicks": 537,
          "midi": 45,
          "name": "A2",
          "ticks": 81413,
          "time": 39.84539212207031,
          "velocity": 0.49606299212598426
        },
        {
          "duration": 0.38574450195312693,
          "durationTicks": 790,
          "midi": 56,
          "name": "G#3",
          "ticks": 81924,
          "time": 40.099717136718745,
          "velocity": 0.6299212598425197
        },
        {
          "duration": 0.279298550781256,
          "durationTicks": 572,
          "midi": 47,
          "name": "B2",
          "ticks": 81924,
          "time": 40.099717136718745,
          "velocity": 0.5354330708661418
        },
        {
          "duration": 0.5122101044921905,
          "durationTicks": 1049,
          "midi": 40,
          "name": "E2",
          "ticks": 81924,
          "time": 40.099717136718745,
          "velocity": 0.6220472440944882
        },
        {
          "duration": 0.2626968886718757,
          "durationTicks": 538,
          "midi": 44,
          "name": "G#2",
          "ticks": 82466,
          "time": 40.364367162109374,
          "velocity": 0.49606299212598426
        },
        {
          "duration": 0.11865305566406192,
          "durationTicks": 243,
          "midi": 56,
          "name": "G#3",
          "ticks": 82715,
          "time": 40.48594992285156,
          "velocity": 0.5905511811023622
        },
        {
          "duration": 0.23144670117187616,
          "durationTicks": 474,
          "midi": 57,
          "name": "A3",
          "ticks": 82974,
          "time": 40.612415525390624,
          "velocity": 0.5984251968503937
        },
        {
          "duration": 0.2612320361328102,
          "durationTicks": 535,
          "midi": 47,
          "name": "B2",
          "ticks": 82974,
          "time": 40.612415525390624,
          "velocity": 0.5039370078740157
        },
        {
          "duration": 0.4951201582031217,
          "durationTicks": 1014,
          "midi": 40,
          "name": "E2",
          "ticks": 82974,
          "time": 40.612415525390624,
          "velocity": 0.5905511811023622
        },
        {
          "duration": 0.23388812207031862,
          "durationTicks": 479,
          "midi": 59,
          "name": "B3",
          "ticks": 83479,
          "time": 40.85899903613281,
          "velocity": 0.5905511811023622
        },
        {
          "duration": 0.26367345703125267,
          "durationTicks": 540,
          "midi": 44,
          "name": "G#2",
          "ticks": 83479,
          "time": 40.85899903613281,
          "velocity": 0.49606299212598426
        },
        {
          "duration": 0.9892637480468736,
          "durationTicks": 2026,
          "midi": 57,
          "name": "A3",
          "ticks": 83989,
          "time": 41.108023967773434,
          "velocity": 0.6141732283464567
        },
        {
          "duration": 0.24853664746093784,
          "durationTicks": 509,
          "midi": 45,
          "name": "A2",
          "ticks": 83989,
          "time": 41.108023967773434,
          "velocity": 0.4566929133858268
        },
        {
          "duration": 0.24853664746093784,
          "durationTicks": 509,
          "midi": 48,
          "name": "C3",
          "ticks": 83989,
          "time": 41.108023967773434,
          "velocity": 0.5669291338582677
        },
        {
          "duration": 0.2612320361328102,
          "durationTicks": 535,
          "midi": 45,
          "name": "A2",
          "ticks": 84499,
          "time": 41.35704889941406,
          "velocity": 0.49606299212598426
        },
        {
          "duration": 0.2612320361328102,
          "durationTicks": 535,
          "midi": 48,
          "name": "C3",
          "ticks": 85004,
          "time": 41.60363241015625,
          "velocity": 0.5039370078740157
        },
        {
          "duration": 0.12060619238281589,
          "durationTicks": 247,
          "midi": 45,
          "name": "A2",
          "ticks": 85509,
          "time": 41.850215920898435,
          "velocity": 0.49606299212598426
        },
        {
          "duration": 0.1259773183593751,
          "durationTicks": 258,
          "midi": 45,
          "name": "A2",
          "ticks": 85757,
          "time": 41.97131039746093,
          "velocity": 0.49606299212598426
        },
        {
          "duration": 0.3857445019531198,
          "durationTicks": 790,
          "midi": 69,
          "name": "A4",
          "ticks": 86020,
          "time": 42.09972913671875,
          "velocity": 0.6299212598425197
        },
        {
          "duration": 0.26416174121093405,
          "durationTicks": 541,
          "midi": 45,
          "name": "A2",
          "ticks": 86020,
          "time": 42.09972913671875,
          "velocity": 0.5354330708661418
        },
        {
          "duration": 0.49414358984375184,
          "durationTicks": 1012,
          "midi": 45,
          "name": "A2",
          "ticks": 86562,
          "time": 42.36437916210937,
          "velocity": 0.49606299212598426
        },
        {
          "duration": 0.11865305566406192,
          "durationTicks": 243,
          "midi": 69,
          "name": "A4",
          "ticks": 86811,
          "time": 42.48596192285156,
          "velocity": 0.5905511811023622
        },
        {
          "duration": 0.23144670117187616,
          "durationTicks": 474,
          "midi": 72,
          "name": "C5",
          "ticks": 87070,
          "time": 42.61242752539062,
          "velocity": 0.5984251968503937
        },
        {
          "duration": 0.2338881220703115,
          "durationTicks": 479,
          "midi": 69,
          "name": "A4",
          "ticks": 87575,
          "time": 42.85901103613281,
          "velocity": 0.5905511811023622
        },
        {
          "duration": 0.12060619238280879,
          "durationTicks": 247,
          "midi": 45,
          "name": "A2",
          "ticks": 87575,
          "time": 42.85901103613281,
          "velocity": 0.49606299212598426
        },
        {
          "duration": 0.12744217089843346,
          "durationTicks": 261,
          "midi": 45,
          "name": "A2",
          "ticks": 87823,
          "time": 42.98010551269531,
          "velocity": 0.49606299212598426
        },
        {
          "duration": 0.7477193798828026,
          "durationTicks": 1519,
          "midi": 72,
          "name": "C5",
          "ticks": 88085,
          "time": 43.10803596777343,
          "velocity": 0.6141732283464567
        },
        {
          "duration": 0.1279886474609384,
          "durationTicks": 262,
          "midi": 45,
          "name": "A2",
          "ticks": 88085,
          "time": 43.10803596777343,
          "velocity": 0.5196850393700787
        },
        {
          "duration": 0.12068719921875015,
          "durationTicks": 246,
          "midi": 45,
          "name": "A2",
          "ticks": 88348,
          "time": 43.236515054687494,
          "velocity": 0.49606299212598426
        },
        {
          "duration": 0.7504303789062519,
          "durationTicks": 1516,
          "midi": 45,
          "name": "A2",
          "ticks": 88595,
          "time": 43.357694865234365,
          "velocity": 0.5905511811023622
        },
        {
          "duration": 0.2369104462890661,
          "durationTicks": 476,
          "midi": 69,
          "name": "A4",
          "ticks": 89605,
          "time": 43.8562521220703,
          "velocity": 0.5905511811023622
        },
        {
          "duration": 0.38574450195312693,
          "durationTicks": 790,
          "midi": 68,
          "name": "G#4",
          "ticks": 90116,
          "time": 44.11057713671874,
          "velocity": 0.6299212598425197
        },
        {
          "duration": 0.26416174121094116,
          "durationTicks": 541,
          "midi": 45,
          "name": "A2",
          "ticks": 90116,
          "time": 44.11057713671874,
          "velocity": 0.5354330708661418
        },
        {
          "duration": 0.49414358984375184,
          "durationTicks": 1012,
          "midi": 45,
          "name": "A2",
          "ticks": 90658,
          "time": 44.37522716210937,
          "velocity": 0.49606299212598426
        },
        {
          "duration": 0.11865305566406192,
          "durationTicks": 243,
          "midi": 68,
          "name": "G#4",
          "ticks": 90907,
          "time": 44.496809922851554,
          "velocity": 0.5905511811023622
        },
        {
          "duration": 0.23144670117187616,
          "durationTicks": 474,
          "midi": 69,
          "name": "A4",
          "ticks": 91166,
          "time": 44.62327552539062,
          "velocity": 0.5984251968503937
        },
        {
          "duration": 0.23388812207031862,
          "durationTicks": 479,
          "midi": 71,
          "name": "B4",
          "ticks": 91671,
          "time": 44.8698590361328,
          "velocity": 0.5905511811023622
        },
        {
          "duration": 0.12060619238281589,
          "durationTicks": 247,
          "midi": 45,
          "name": "A2",
          "ticks": 91671,
          "time": 44.8698590361328,
          "velocity": 0.49606299212598426
        },
        {
          "duration": 0.12744217089843346,
          "durationTicks": 261,
          "midi": 45,
          "name": "A2",
          "ticks": 91919,
          "time": 44.990953512695306,
          "velocity": 0.49606299212598426
        },
        {
          "duration": 0.23441400878905938,
          "durationTicks": 479,
          "midi": 69,
          "name": "A4",
          "ticks": 92181,
          "time": 45.11888396777343,
          "velocity": 0.6141732283464567
        },
        {
          "duration": 0.1279886474609384,
          "durationTicks": 262,
          "midi": 45,
          "name": "A2",
          "ticks": 92181,
          "time": 45.11888396777343,
          "velocity": 0.5196850393700787
        },
        {
          "duration": 0.12068719921875015,
          "durationTicks": 246,
          "midi": 45,
          "name": "A2",
          "ticks": 92444,
          "time": 45.24736305468749,
          "velocity": 0.49606299212598426
        },
        {
          "duration": 0.23349776953125456,
          "durationTicks": 474,
          "midi": 64,
          "name": "E4",
          "ticks": 92691,
          "time": 45.36854286523436,
          "velocity": 0.5905511811023622
        },
        {
          "duration": 0.24829757226562776,
          "durationTicks": 504,
          "midi": 45,
          "name": "A2",
          "ticks": 92691,
          "time": 45.36854286523436,
          "velocity": 0.5905511811023622
        },
        {
          "duration": 0.5016382441406222,
          "durationTicks": 1011,
          "midi": 69,
          "name": "A4",
          "ticks": 93196,
          "time": 45.61733499999999,
          "velocity": 0.5984251968503937
        },
        {
          "duration": 0.1266079999999974,
          "durationTicks": 256,
          "midi": 45,
          "name": "A2",
          "ticks": 93196,
          "time": 45.61733499999999,
          "velocity": 0.5039370078740157
        },
        {
          "duration": 0.12216578515624121,
          "durationTicks": 247,
          "midi": 45,
          "name": "A2",
          "ticks": 93453,
          "time": 45.74443756249999,
          "velocity": 0.49606299212598426
        },
        {
          "duration": 0.25187312207031454,
          "durationTicks": 506,
          "midi": 45,
          "name": "A2",
          "ticks": 93701,
          "time": 45.8671001220703,
          "velocity": 0.49606299212598426
        },
        {
          "duration": 0.38574450195312693,
          "durationTicks": 790,
          "midi": 69,
          "name": "A4",
          "ticks": 94212,
          "time": 46.121425136718734,
          "velocity": 0.6299212598425197
        },
        {
          "duration": 0.26416174121094116,
          "durationTicks": 541,
          "midi": 45,
          "name": "A2",
          "ticks": 94212,
          "time": 46.121425136718734,
          "velocity": 0.5354330708661418
        },
        {
          "duration": 0.49414358984375184,
          "durationTicks": 1012,
          "midi": 45,
          "name": "A2",
          "ticks": 94754,
          "time": 46.386075162109364,
          "velocity": 0.49606299212598426
        },
        {
          "duration": 0.11865305566406192,
          "durationTicks": 243,
          "midi": 69,
          "name": "A4",
          "ticks": 95003,
          "time": 46.50765792285155,
          "velocity": 0.5905511811023622
        },
        {
          "duration": 0.23144670117187616,
          "durationTicks": 474,
          "midi": 72,
          "name": "C5",
          "ticks": 95262,
          "time": 46.63412352539061,
          "velocity": 0.5984251968503937
        },
        {
          "duration": 0.23388812207031862,
          "durationTicks": 479,
          "midi": 69,
          "name": "A4",
          "ticks": 95767,
          "time": 46.8807070361328,
          "velocity": 0.5905511811023622
        },
        {
          "duration": 0.12060619238281589,
          "durationTicks": 247,
          "midi": 45,
          "name": "A2",
          "ticks": 95767,
          "time": 46.8807070361328,
          "velocity": 0.49606299212598426
        },
        {
          "duration": 0.12744217089843346,
          "durationTicks": 261,
          "midi": 45,
          "name": "A2",
          "ticks": 96015,
          "time": 47.0018015126953,
          "velocity": 0.49606299212598426
        },
        {
          "duration": 0.7477193798828026,
          "durationTicks": 1519,
          "midi": 72,
          "name": "C5",
          "ticks": 96277,
          "time": 47.129731967773424,
          "velocity": 0.6141732283464567
        },
        {
          "duration": 0.1279886474609384,
          "durationTicks": 262,
          "midi": 45,
          "name": "A2",
          "ticks": 96277,
          "time": 47.129731967773424,
          "velocity": 0.5196850393700787
        },
        {
          "duration": 0.12068719921875015,
          "durationTicks": 246,
          "midi": 45,
          "name": "A2",
          "ticks": 96540,
          "time": 47.258211054687486,
          "velocity": 0.49606299212598426
        },
        {
          "duration": 0.4980604824218702,
          "durationTicks": 1009,
          "midi": 45,
          "name": "A2",
          "ticks": 96787,
          "time": 47.379390865234356,
          "velocity": 0.49606299212598426
        },
        {
          "duration": 0.2369104462890661,
          "durationTicks": 476,
          "midi": 69,
          "name": "A4",
          "ticks": 97797,
          "time": 47.87794812207029,
          "velocity": 0.5905511811023622
        },
        {
          "duration": 0.2670204033203163,
          "durationTicks": 537,
          "midi": 45,
          "name": "A2",
          "ticks": 97797,
          "time": 47.87794812207029,
          "velocity": 0.49606299212598426
        },
        {
          "duration": 0.38574450195312693,
          "durationTicks": 790,
          "midi": 68,
          "name": "G#4",
          "ticks": 98308,
          "time": 48.13227313671873,
          "velocity": 0.6299212598425197
        },
        {
          "duration": 0.26416174121094116,
          "durationTicks": 541,
          "midi": 40,
          "name": "E2",
          "ticks": 98308,
          "time": 48.13227313671873,
          "velocity": 0.5275590551181102
        },
        {
          "duration": 0.49414358984375184,
          "durationTicks": 1012,
          "midi": 40,
          "name": "E2",
          "ticks": 98850,
          "time": 48.39692316210936,
          "velocity": 0.4881889763779528
        },
        {
          "duration": 0.11865305566406192,
          "durationTicks": 243,
          "midi": 68,
          "name": "G#4",
          "ticks": 99099,
          "time": 48.518505922851546,
          "velocity": 0.5905511811023622
        },
        {
          "duration": 0.23144670117187616,
          "durationTicks": 474,
          "midi": 69,
          "name": "A4",
          "ticks": 99358,
          "time": 48.64497152539061,
          "velocity": 0.5984251968503937
        },
        {
          "duration": 0.23388812207031862,
          "durationTicks": 479,
          "midi": 68,
          "name": "G#4",
          "ticks": 99863,
          "time": 48.89155503613279,
          "velocity": 0.5905511811023622
        },
        {
          "duration": 0.12060619238281589,
          "durationTicks": 247,
          "midi": 40,
          "name": "E2",
          "ticks": 99863,
          "time": 48.89155503613279,
          "velocity": 0.4881889763779528
        },
        {
          "duration": 0.12744217089843346,
          "durationTicks": 261,
          "midi": 40,
          "name": "E2",
          "ticks": 100111,
          "time": 49.0126495126953,
          "velocity": 0.4881889763779528
        },
        {
          "duration": 0.12793045507812906,
          "durationTicks": 262,
          "midi": 40,
          "name": "E2",
          "ticks": 100373,
          "time": 49.14057996777342,
          "velocity": 0.5118110236220472
        },
        {
          "duration": 0.1201179082031274,
          "durationTicks": 246,
          "midi": 40,
          "name": "E2",
          "ticks": 100636,
          "time": 49.26899870703123,
          "velocity": 0.4881889763779528
        },
        {
          "duration": 0.11328192968750272,
          "durationTicks": 232,
          "midi": 68,
          "name": "G#4",
          "ticks": 100883,
          "time": 49.389604899414046,
          "velocity": 0.5905511811023622
        },
        {
          "duration": 0.2460952265625025,
          "durationTicks": 504,
          "midi": 40,
          "name": "E2",
          "ticks": 100883,
          "time": 49.389604899414046,
          "velocity": 0.4881889763779528
        },
        {
          "duration": 0.11767648730469205,
          "durationTicks": 241,
          "midi": 69,
          "name": "A4",
          "ticks": 101131,
          "time": 49.51069937597654,
          "velocity": 0.5905511811023622
        },
        {
          "duration": 0.23144670117186905,
          "durationTicks": 474,
          "midi": 71,
          "name": "B4",
          "ticks": 101388,
          "time": 49.63618841015624,
          "velocity": 0.5984251968503937
        },
        {
          "duration": 0.24609522656249538,
          "durationTicks": 504,
          "midi": 40,
          "name": "E2",
          "ticks": 101388,
          "time": 49.63618841015624,
          "velocity": 0.49606299212598426
        },
        {
          "duration": 0.23242326953125314,
          "durationTicks": 476,
          "midi": 69,
          "name": "A4",
          "ticks": 101893,
          "time": 49.88277192089842,
          "velocity": 0.5905511811023622
        },
        {
          "duration": 0.12060619238281589,
          "durationTicks": 247,
          "midi": 40,
          "name": "E2",
          "ticks": 101893,
          "time": 49.88277192089842,
          "velocity": 0.4881889763779528
        },
        {
          "duration": 0.1259773183593751,
          "durationTicks": 258,
          "midi": 40,
          "name": "E2",
          "ticks": 102141,
          "time": 50.00386639746092,
          "velocity": 0.4881889763779528
        },
        {
          "duration": 0.3857445019531198,
          "durationTicks": 790,
          "midi": 68,
          "name": "G#4",
          "ticks": 102404,
          "time": 50.132285136718735,
          "velocity": 0.6299212598425197
        },
        {
          "duration": 0.26416174121093405,
          "durationTicks": 541,
          "midi": 40,
          "name": "E2",
          "ticks": 102404,
          "time": 50.132285136718735,
          "velocity": 0.5275590551181102
        },
        {
          "duration": 0.49414358984375184,
          "durationTicks": 1012,
          "midi": 40,
          "name": "E2",
          "ticks": 102946,
          "time": 50.39693516210936,
          "velocity": 0.4881889763779528
        },
        {
          "duration": 0.11865305566406192,
          "durationTicks": 243,
          "midi": 68,
          "name": "G#4",
          "ticks": 103195,
          "time": 50.518517922851544,
          "velocity": 0.5905511811023622
        },
        {
          "duration": 0.23144670117187616,
          "durationTicks": 474,
          "midi": 69,
          "name": "A4",
          "ticks": 103454,
          "time": 50.64498352539061,
          "velocity": 0.5984251968503937
        },
        {
          "duration": 0.2338881220703115,
          "durationTicks": 479,
          "midi": 71,
          "name": "B4",
          "ticks": 103959,
          "time": 50.8915670361328,
          "velocity": 0.5905511811023622
        },
        {
          "duration": 0.12060619238280879,
          "durationTicks": 247,
          "midi": 40,
          "name": "E2",
          "ticks": 103959,
          "time": 50.8915670361328,
          "velocity": 0.4881889763779528
        },
        {
          "duration": 0.12744217089844057,
          "durationTicks": 261,
          "midi": 40,
          "name": "E2",
          "ticks": 104207,
          "time": 51.012661512695296,
          "velocity": 0.4881889763779528
        },
        {
          "duration": 0.12793045507812906,
          "durationTicks": 262,
          "midi": 40,
          "name": "E2",
          "ticks": 104469,
          "time": 51.14059196777342,
          "velocity": 0.5118110236220472
        },
        {
          "duration": 0.1201179082031203,
          "durationTicks": 246,
          "midi": 40,
          "name": "E2",
          "ticks": 104732,
          "time": 51.269010707031235,
          "velocity": 0.4881889763779528
        },
        {
          "duration": 0.12060619238281589,
          "durationTicks": 247,
          "midi": 72,
          "name": "C5",
          "ticks": 104979,
          "time": 51.389616899414044,
          "velocity": 0.49606299212598426
        },
        {
          "duration": 0.2460952265625025,
          "durationTicks": 504,
          "midi": 40,
          "name": "E2",
          "ticks": 104979,
          "time": 51.389616899414044,
          "velocity": 0.4881889763779528
        },
        {
          "duration": 0.13232501269531127,
          "durationTicks": 271,
          "midi": 72,
          "name": "C5",
          "ticks": 105227,
          "time": 51.51071137597655,
          "velocity": 0.49606299212598426
        },
        {
          "duration": 0.23144670117187616,
          "durationTicks": 474,
          "midi": 74,
          "name": "D5",
          "ticks": 105484,
          "time": 51.636200410156235,
          "velocity": 0.5984251968503937
        },
        {
          "duration": 0.24609522656249538,
          "durationTicks": 504,
          "midi": 40,
          "name": "E2",
          "ticks": 105484,
          "time": 51.636200410156235,
          "velocity": 0.49606299212598426
        },
        {
          "duration": 0.23242326953125314,
          "durationTicks": 476,
          "midi": 76,
          "name": "E5",
          "ticks": 105989,
          "time": 51.88278392089842,
          "velocity": 0.5905511811023622
        },
        {
          "duration": 0.2622086044921872,
          "durationTicks": 537,
          "midi": 40,
          "name": "E2",
          "ticks": 105989,
          "time": 51.88278392089842,
          "velocity": 0.4881889763779528
        },
        {
          "duration": 0.14990324316406145,
          "durationTicks": 307,
          "midi": 53,
          "name": "F3",
          "ticks": 106500,
          "time": 52.132297136718734,
          "velocity": 0.5354330708661418
        },
        {
          "duration": 0.12841873925781044,
          "durationTicks": 263,
          "midi": 48,
          "name": "C3",
          "ticks": 106793,
          "time": 52.27536440136717,
          "velocity": 0.49606299212598426
        },
        {
          "duration": 0.12109447656250438,
          "durationTicks": 248,
          "midi": 65,
          "name": "F4",
          "ticks": 107042,
          "time": 52.396947162109356,
          "velocity": 0.4330708661417323
        },
        {
          "duration": 0.12109447656250438,
          "durationTicks": 248,
          "midi": 72,
          "name": "C5",
          "ticks": 107042,
          "time": 52.396947162109356,
          "velocity": 0.4330708661417323
        },
        {
          "duration": 0.12109447656250438,
          "durationTicks": 248,
          "midi": 74,
          "name": "D5",
          "ticks": 107042,
          "time": 52.396947162109356,
          "velocity": 0.5118110236220472
        },
        {
          "duration": 0.12841873925781755,
          "durationTicks": 263,
          "midi": 45,
          "name": "A2",
          "ticks": 107042,
          "time": 52.396947162109356,
          "velocity": 0.49606299212598426
        },
        {
          "duration": 0.1259773183593751,
          "durationTicks": 258,
          "midi": 65,
          "name": "F4",
          "ticks": 107291,
          "time": 52.51852992285154,
          "velocity": 0.4330708661417323
        },
        {
          "duration": 0.1259773183593751,
          "durationTicks": 258,
          "midi": 72,
          "name": "C5",
          "ticks": 107291,
          "time": 52.51852992285154,
          "velocity": 0.4330708661417323
        },
        {
          "duration": 0.1259773183593751,
          "durationTicks": 258,
          "midi": 74,
          "name": "D5",
          "ticks": 107291,
          "time": 52.51852992285154,
          "velocity": 0.5118110236220472
        },
        {
          "duration": 0.13330158105468826,
          "durationTicks": 273,
          "midi": 41,
          "name": "F2",
          "ticks": 107291,
          "time": 52.51852992285154,
          "velocity": 0.49606299212598426
        },
        {
          "duration": 0.4951201582031288,
          "durationTicks": 1014,
          "midi": 65,
          "name": "F4",
          "ticks": 107550,
          "time": 52.644995525390605,
          "velocity": 0.5354330708661418
        },
        {
          "duration": 0.4951201582031288,
          "durationTicks": 1014,
          "midi": 72,
          "name": "C5",
          "ticks": 107550,
          "time": 52.644995525390605,
          "velocity": 0.5354330708661418
        },
        {
          "duration": 0.4951201582031288,
          "durationTicks": 1014,
          "midi": 74,
          "name": "D5",
          "ticks": 107550,
          "time": 52.644995525390605,
          "velocity": 0.6456692913385826
        },
        {
          "duration": 0.13281329687499976,
          "durationTicks": 272,
          "midi": 53,
          "name": "F3",
          "ticks": 107550,
          "time": 52.644995525390605,
          "velocity": 0.5039370078740157
        },
        {
          "duration": 0.12744217089844057,
          "durationTicks": 261,
          "midi": 48,
          "name": "C3",
          "ticks": 107808,
          "time": 52.77097284374998,
          "velocity": 0.49606299212598426
        },
        {
          "duration": 0.12793045507812195,
          "durationTicks": 262,
          "midi": 45,
          "name": "A2",
          "ticks": 108055,
          "time": 52.891579036132796,
          "velocity": 0.49606299212598426
        },
        {
          "duration": 0.13476643359375373,
          "durationTicks": 276,
          "midi": 41,
          "name": "F2",
          "ticks": 108303,
          "time": 53.012673512695294,
          "velocity": 0.49606299212598426
        },
        {
          "duration": 0.13525471777343512,
          "durationTicks": 277,
          "midi": 53,
          "name": "F3",
          "ticks": 108565,
          "time": 53.14060396777342,
          "velocity": 0.5196850393700787
        },
        {
          "duration": 0.12744217089844057,
          "durationTicks": 261,
          "midi": 48,
          "name": "C3",
          "ticks": 108828,
          "time": 53.26902270703123,
          "velocity": 0.49606299212598426
        },
        {
          "duration": 0.12060619238280879,
          "durationTicks": 247,
          "midi": 64,
          "name": "E4",
          "ticks": 109075,
          "time": 53.38962889941405,
          "velocity": 0.4330708661417323
        },
        {
          "duration": 0.12060619238280879,
          "durationTicks": 247,
          "midi": 65,
          "name": "F4",
          "ticks": 109075,
          "time": 53.38962889941405,
          "velocity": 0.4330708661417323
        },
        {
          "duration": 0.12060619238280879,
          "durationTicks": 247,
          "midi": 72,
          "name": "C5",
          "ticks": 109075,
          "time": 53.38962889941405,
          "velocity": 0.5433070866141733
        },
        {
          "duration": 0.12793045507812195,
          "durationTicks": 262,
          "midi": 45,
          "name": "A2",
          "ticks": 109075,
          "time": 53.38962889941405,
          "velocity": 0.49606299212598426
        },
        {
          "duration": 0.1250007499999981,
          "durationTicks": 256,
          "midi": 64,
          "name": "E4",
          "ticks": 109323,
          "time": 53.510723375976546,
          "velocity": 0.4330708661417323
        },
        {
          "duration": 0.1250007499999981,
          "durationTicks": 256,
          "midi": 65,
          "name": "F4",
          "ticks": 109323,
          "time": 53.510723375976546,
          "velocity": 0.4330708661417323
        },
        {
          "duration": 0.1250007499999981,
          "durationTicks": 256,
          "midi": 72,
          "name": "C5",
          "ticks": 109323,
          "time": 53.510723375976546,
          "velocity": 0.5118110236220472
        },
        {
          "duration": 0.13232501269531127,
          "durationTicks": 271,
          "midi": 41,
          "name": "F2",
          "ticks": 109323,
          "time": 53.510723375976546,
          "velocity": 0.49606299212598426
        },
        {
          "duration": 0.49365530566406335,
          "durationTicks": 1011,
          "midi": 64,
          "name": "E4",
          "ticks": 109580,
          "time": 53.63621241015623,
          "velocity": 0.5354330708661418
        },
        {
          "duration": 0.49365530566406335,
          "durationTicks": 1011,
          "midi": 65,
          "name": "F4",
          "ticks": 109580,
          "time": 53.63621241015623,
          "velocity": 0.5354330708661418
        },
        {
          "duration": 0.49365530566406335,
          "durationTicks": 1011,
          "midi": 72,
          "name": "C5",
          "ticks": 109580,
          "time": 53.63621241015623,
          "velocity": 0.6456692913385826
        },
        {
          "duration": 0.13232501269531127,
          "durationTicks": 271,
          "midi": 53,
          "name": "F3",
          "ticks": 109580,
          "time": 53.63621241015623,
          "velocity": 0.5039370078740157
        },
        {
          "duration": 0.12793045507812906,
          "durationTicks": 262,
          "midi": 48,
          "name": "C3",
          "ticks": 109837,
          "time": 53.76170144433592,
          "velocity": 0.49606299212598426
        },
        {
          "duration": 0.12793045507812906,
          "durationTicks": 262,
          "midi": 45,
          "name": "A2",
          "ticks": 110085,
          "time": 53.88279592089842,
          "velocity": 0.49606299212598426
        },
        {
          "duration": 0.13330158105468826,
          "durationTicks": 273,
          "midi": 41,
          "name": "F2",
          "ticks": 110333,
          "time": 54.00389039746092,
          "velocity": 0.49606299212598426
        },
        {
          "duration": 0.11425849804687971,
          "durationTicks": 234,
          "midi": 64,
          "name": "E4",
          "ticks": 110596,
          "time": 54.13230913671873,
          "velocity": 0.47244094488188976
        },
        {
          "duration": 0.11425849804687971,
          "durationTicks": 234,
          "midi": 71,
          "name": "B4",
          "ticks": 110596,
          "time": 54.13230913671873,
          "velocity": 0.5826771653543307
        },
        {
          "duration": 1.9975705791015628,
          "durationTicks": 4091,
          "midi": 40,
          "name": "E2",
          "ticks": 110596,
          "time": 54.13230913671873,
          "velocity": 0.5826771653543307
        },
        {
          "duration": 0.09765683593750651,
          "durationTicks": 200,
          "midi": 64,
          "name": "E4",
          "ticks": 111138,
          "time": 54.396959162109354,
          "velocity": 0.4330708661417323
        },
        {
          "duration": 0.09765683593750651,
          "durationTicks": 200,
          "midi": 72,
          "name": "C5",
          "ticks": 111138,
          "time": 54.396959162109354,
          "velocity": 0.5433070866141733
        },
        {
          "duration": 0.09619198339843393,
          "durationTicks": 197,
          "midi": 64,
          "name": "E4",
          "ticks": 111646,
          "time": 54.64500752539061,
          "velocity": 0.4409448818897638
        },
        {
          "duration": 0.09619198339843393,
          "durationTicks": 197,
          "midi": 71,
          "name": "B4",
          "ticks": 111646,
          "time": 54.64500752539061,
          "velocity": 0.5511811023622047
        },
        {
          "duration": 0.09863340429687639,
          "durationTicks": 202,
          "midi": 64,
          "name": "E4",
          "ticks": 112151,
          "time": 54.891591036132795,
          "velocity": 0.4330708661417323
        },
        {
          "duration": 0.09863340429687639,
          "durationTicks": 202,
          "midi": 69,
          "name": "A4",
          "ticks": 112151,
          "time": 54.891591036132795,
          "velocity": 0.5433070866141733
        },
        {
          "duration": 0.09863340429687639,
          "durationTicks": 202,
          "midi": 64,
          "name": "E4",
          "ticks": 112661,
          "time": 55.14061596777342,
          "velocity": 0.4566929133858268
        },
        {
          "duration": 0.09863340429687639,
          "durationTicks": 202,
          "midi": 71,
          "name": "B4",
          "ticks": 112661,
          "time": 55.14061596777342,
          "velocity": 0.5669291338582677
        },
        {
          "duration": 0.09619198339843393,
          "durationTicks": 197,
          "midi": 64,
          "name": "E4",
          "ticks": 113171,
          "time": 55.38964089941405,
          "velocity": 0.4330708661417323
        },
        {
          "duration": 0.09619198339843393,
          "durationTicks": 197,
          "midi": 72,
          "name": "C5",
          "ticks": 113171,
          "time": 55.38964089941405,
          "velocity": 0.5433070866141733
        },
        {
          "duration": 0.09619198339844104,
          "durationTicks": 197,
          "midi": 64,
          "name": "E4",
          "ticks": 113676,
          "time": 55.63622441015623,
          "velocity": 0.4409448818897638
        },
        {
          "duration": 0.09619198339844104,
          "durationTicks": 197,
          "midi": 71,
          "name": "B4",
          "ticks": 113676,
          "time": 55.63622441015623,
          "velocity": 0.5511811023622047
        },
        {
          "duration": 0.09716855175781092,
          "durationTicks": 199,
          "midi": 64,
          "name": "E4",
          "ticks": 114181,
          "time": 55.88280792089842,
          "velocity": 0.4330708661417323
        },
        {
          "duration": 0.09716855175781092,
          "durationTicks": 199,
          "midi": 69,
          "name": "A4",
          "ticks": 114181,
          "time": 55.88280792089842,
          "velocity": 0.5433070866141733
        },
        {
          "duration": 0.14990324316406145,
          "durationTicks": 307,
          "midi": 53,
          "name": "F3",
          "ticks": 114692,
          "time": 56.13232113671873,
          "velocity": 0.5354330708661418
        },
        {
          "duration": 0.12841873925781755,
          "durationTicks": 263,
          "midi": 48,
          "name": "C3",
          "ticks": 114985,
          "time": 56.27538840136717,
          "velocity": 0.49606299212598426
        },
        {
          "duration": 0.12109447656249728,
          "durationTicks": 248,
          "midi": 65,
          "name": "F4",
          "ticks": 115234,
          "time": 56.39697116210936,
          "velocity": 0.4330708661417323
        },
        {
          "duration": 0.12109447656249728,
          "durationTicks": 248,
          "midi": 72,
          "name": "C5",
          "ticks": 115234,
          "time": 56.39697116210936,
          "velocity": 0.4330708661417323
        },
        {
          "duration": 0.12109447656249728,
          "durationTicks": 248,
          "midi": 74,
          "name": "D5",
          "ticks": 115234,
          "time": 56.39697116210936,
          "velocity": 0.5433070866141733
        },
        {
          "duration": 0.12841873925781044,
          "durationTicks": 263,
          "midi": 45,
          "name": "A2",
          "ticks": 115234,
          "time": 56.39697116210936,
          "velocity": 0.49606299212598426
        },
        {
          "duration": 0.1259773183593751,
          "durationTicks": 258,
          "midi": 65,
          "name": "F4",
          "ticks": 115483,
          "time": 56.518553922851545,
          "velocity": 0.4330708661417323
        },
        {
          "duration": 0.1259773183593751,
          "durationTicks": 258,
          "midi": 72,
          "name": "C5",
          "ticks": 115483,
          "time": 56.518553922851545,
          "velocity": 0.4330708661417323
        },
        {
          "duration": 0.1259773183593751,
          "durationTicks": 258,
          "midi": 74,
          "name": "D5",
          "ticks": 115483,
          "time": 56.518553922851545,
          "velocity": 0.5118110236220472
        },
        {
          "duration": 0.13330158105468826,
          "durationTicks": 273,
          "midi": 41,
          "name": "F2",
          "ticks": 115483,
          "time": 56.518553922851545,
          "velocity": 0.49606299212598426
        },
        {
          "duration": 0.4951201582031217,
          "durationTicks": 1014,
          "midi": 65,
          "name": "F4",
          "ticks": 115742,
          "time": 56.64501952539061,
          "velocity": 0.5354330708661418
        },
        {
          "duration": 0.4951201582031217,
          "durationTicks": 1014,
          "midi": 72,
          "name": "C5",
          "ticks": 115742,
          "time": 56.64501952539061,
          "velocity": 0.5354330708661418
        },
        {
          "duration": 0.4951201582031217,
          "durationTicks": 1014,
          "midi": 74,
          "name": "D5",
          "ticks": 115742,
          "time": 56.64501952539061,
          "velocity": 0.6456692913385826
        },
        {
          "duration": 0.13281329687499976,
          "durationTicks": 272,
          "midi": 53,
          "name": "F3",
          "ticks": 115742,
          "time": 56.64501952539061,
          "velocity": 0.5039370078740157
        },
        {
          "duration": 0.12744217089843346,
          "durationTicks": 261,
          "midi": 48,
          "name": "C3",
          "ticks": 116000,
          "time": 56.770996843749984,
          "velocity": 0.49606299212598426
        },
        {
          "duration": 0.12793045507812906,
          "durationTicks": 262,
          "midi": 45,
          "name": "A2",
          "ticks": 116247,
          "time": 56.89160303613279,
          "velocity": 0.49606299212598426
        },
        {
          "duration": 0.13476643359374663,
          "durationTicks": 276,
          "midi": 41,
          "name": "F2",
          "ticks": 116495,
          "time": 57.0126975126953,
          "velocity": 0.49606299212598426
        },
        {
          "duration": 0.13525471777344222,
          "durationTicks": 277,
          "midi": 53,
          "name": "F3",
          "ticks": 116757,
          "time": 57.14062796777342,
          "velocity": 0.5196850393700787
        },
        {
          "duration": 0.12744217089843346,
          "durationTicks": 261,
          "midi": 48,
          "name": "C3",
          "ticks": 117020,
          "time": 57.26904670703124,
          "velocity": 0.49606299212598426
        },
        {
          "duration": 0.12060619238280879,
          "durationTicks": 247,
          "midi": 64,
          "name": "E4",
          "ticks": 117267,
          "time": 57.389652899414045,
          "velocity": 0.4330708661417323
        },
        {
          "duration": 0.12060619238280879,
          "durationTicks": 247,
          "midi": 65,
          "name": "F4",
          "ticks": 117267,
          "time": 57.389652899414045,
          "velocity": 0.4330708661417323
        },
        {
          "duration": 0.12060619238280879,
          "durationTicks": 247,
          "midi": 72,
          "name": "C5",
          "ticks": 117267,
          "time": 57.389652899414045,
          "velocity": 0.5433070866141733
        },
        {
          "duration": 0.12793045507812906,
          "durationTicks": 262,
          "midi": 45,
          "name": "A2",
          "ticks": 117267,
          "time": 57.389652899414045,
          "velocity": 0.49606299212598426
        },
        {
          "duration": 0.1250007499999981,
          "durationTicks": 256,
          "midi": 64,
          "name": "E4",
          "ticks": 117515,
          "time": 57.51074737597655,
          "velocity": 0.4330708661417323
        },
        {
          "duration": 0.1250007499999981,
          "durationTicks": 256,
          "midi": 65,
          "name": "F4",
          "ticks": 117515,
          "time": 57.51074737597655,
          "velocity": 0.4330708661417323
        },
        {
          "duration": 0.1250007499999981,
          "durationTicks": 256,
          "midi": 72,
          "name": "C5",
          "ticks": 117515,
          "time": 57.51074737597655,
          "velocity": 0.5118110236220472
        },
        {
          "duration": 0.13232501269530417,
          "durationTicks": 271,
          "midi": 41,
          "name": "F2",
          "ticks": 117515,
          "time": 57.51074737597655,
          "velocity": 0.49606299212598426
        },
        {
          "duration": 0.49365530566406335,
          "durationTicks": 1011,
          "midi": 64,
          "name": "E4",
          "ticks": 117772,
          "time": 57.63623641015623,
          "velocity": 0.5354330708661418
        },
        {
          "duration": 0.49365530566406335,
          "durationTicks": 1011,
          "midi": 65,
          "name": "F4",
          "ticks": 117772,
          "time": 57.63623641015623,
          "velocity": 0.5354330708661418
        },
        {
          "duration": 0.49365530566406335,
          "durationTicks": 1011,
          "midi": 72,
          "name": "C5",
          "ticks": 117772,
          "time": 57.63623641015623,
          "velocity": 0.6456692913385826
        },
        {
          "duration": 0.13232501269531838,
          "durationTicks": 271,
          "midi": 53,
          "name": "F3",
          "ticks": 117772,
          "time": 57.63623641015623,
          "velocity": 0.5039370078740157
        },
        {
          "duration": 0.12793045507812195,
          "durationTicks": 262,
          "midi": 48,
          "name": "C3",
          "ticks": 118029,
          "time": 57.76172544433592,
          "velocity": 0.49606299212598426
        },
        {
          "duration": 0.12793045507812195,
          "durationTicks": 262,
          "midi": 45,
          "name": "A2",
          "ticks": 118277,
          "time": 57.88281992089842,
          "velocity": 0.49606299212598426
        },
        {
          "duration": 0.13330158105468826,
          "durationTicks": 273,
          "midi": 41,
          "name": "F2",
          "ticks": 118525,
          "time": 58.00391439746092,
          "velocity": 0.49606299212598426
        },
        {
          "duration": 0.1142584980468726,
          "durationTicks": 234,
          "midi": 64,
          "name": "E4",
          "ticks": 118788,
          "time": 58.132333136718735,
          "velocity": 0.47244094488188976
        },
        {
          "duration": 0.1142584980468726,
          "durationTicks": 234,
          "midi": 71,
          "name": "B4",
          "ticks": 118788,
          "time": 58.132333136718735,
          "velocity": 0.5826771653543307
        },
        {
          "duration": 0.5122101044921834,
          "durationTicks": 1049,
          "midi": 40,
          "name": "E2",
          "ticks": 118788,
          "time": 58.132333136718735,
          "velocity": 0.6220472440944882
        },
        {
          "duration": 0.09765683593749941,
          "durationTicks": 200,
          "midi": 64,
          "name": "E4",
          "ticks": 119330,
          "time": 58.39698316210936,
          "velocity": 0.4330708661417323
        },
        {
          "duration": 0.09765683593749941,
          "durationTicks": 200,
          "midi": 72,
          "name": "C5",
          "ticks": 119330,
          "time": 58.39698316210936,
          "velocity": 0.5433070866141733
        },
        {
          "duration": 0.09619198339844104,
          "durationTicks": 197,
          "midi": 64,
          "name": "E4",
          "ticks": 119838,
          "time": 58.64503152539061,
          "velocity": 0.4409448818897638
        },
        {
          "duration": 0.09619198339844104,
          "durationTicks": 197,
          "midi": 71,
          "name": "B4",
          "ticks": 119838,
          "time": 58.64503152539061,
          "velocity": 0.5511811023622047
        },
        {
          "duration": 0.990728600585939,
          "durationTicks": 2029,
          "midi": 40,
          "name": "E2",
          "ticks": 119838,
          "time": 58.64503152539061,
          "velocity": 0.5905511811023622
        },
        {
          "duration": 0.09863340429686929,
          "durationTicks": 202,
          "midi": 64,
          "name": "E4",
          "ticks": 120343,
          "time": 58.8916150361328,
          "velocity": 0.4330708661417323
        },
        {
          "duration": 0.09863340429686929,
          "durationTicks": 202,
          "midi": 69,
          "name": "A4",
          "ticks": 120343,
          "time": 58.8916150361328,
          "velocity": 0.5433070866141733
        },
        {
          "duration": 0.09863340429686929,
          "durationTicks": 202,
          "midi": 64,
          "name": "E4",
          "ticks": 120853,
          "time": 59.140639967773424,
          "velocity": 0.4566929133858268
        },
        {
          "duration": 0.09863340429686929,
          "durationTicks": 202,
          "midi": 71,
          "name": "B4",
          "ticks": 120853,
          "time": 59.140639967773424,
          "velocity": 0.5669291338582677
        },
        {
          "duration": 0.09619198339844104,
          "durationTicks": 197,
          "midi": 64,
          "name": "E4",
          "ticks": 121363,
          "time": 59.38966489941404,
          "velocity": 0.4330708661417323
        },
        {
          "duration": 0.09619198339844104,
          "durationTicks": 197,
          "midi": 72,
          "name": "C5",
          "ticks": 121363,
          "time": 59.38966489941404,
          "velocity": 0.5433070866141733
        },
        {
          "duration": 0.09619198339843393,
          "durationTicks": 197,
          "midi": 64,
          "name": "E4",
          "ticks": 121868,
          "time": 59.636248410156234,
          "velocity": 0.4409448818897638
        },
        {
          "duration": 0.09619198339843393,
          "durationTicks": 197,
          "midi": 71,
          "name": "B4",
          "ticks": 121868,
          "time": 59.636248410156234,
          "velocity": 0.5511811023622047
        },
        {
          "duration": 1.0083068310546892,
          "durationTicks": 2065,
          "midi": 40,
          "name": "E2",
          "ticks": 121868,
          "time": 59.636248410156234,
          "velocity": 0.5905511811023622
        },
        {
          "duration": 0.09716855175781092,
          "durationTicks": 199,
          "midi": 64,
          "name": "E4",
          "ticks": 122373,
          "time": 59.88283192089842,
          "velocity": 0.4330708661417323
        },
        {
          "duration": 0.09716855175781092,
          "durationTicks": 199,
          "midi": 69,
          "name": "A4",
          "ticks": 122373,
          "time": 59.88283192089842,
          "velocity": 0.5433070866141733
        },
        {
          "duration": 0.1142584980468726,
          "durationTicks": 234,
          "midi": 64,
          "name": "E4",
          "ticks": 122884,
          "time": 60.13234513671873,
          "velocity": 0.47244094488188976
        },
        {
          "duration": 0.1142584980468726,
          "durationTicks": 234,
          "midi": 71,
          "name": "B4",
          "ticks": 122884,
          "time": 60.13234513671873,
          "velocity": 0.5826771653543307
        },
        {
          "duration": 0.09765683593749941,
          "durationTicks": 200,
          "midi": 64,
          "name": "E4",
          "ticks": 123426,
          "time": 60.396995162109356,
          "velocity": 0.4330708661417323
        },
        {
          "duration": 0.09765683593749941,
          "durationTicks": 200,
          "midi": 72,
          "name": "C5",
          "ticks": 123426,
          "time": 60.396995162109356,
          "velocity": 0.5433070866141733
        },
        {
          "duration": 0.09619198339844104,
          "durationTicks": 197,
          "midi": 64,
          "name": "E4",
          "ticks": 123934,
          "time": 60.645043525390605,
          "velocity": 0.4409448818897638
        },
        {
          "duration": 0.09619198339844104,
          "durationTicks": 197,
          "midi": 71,
          "name": "B4",
          "ticks": 123934,
          "time": 60.645043525390605,
          "velocity": 0.5511811023622047
        },
        {
          "duration": 0.4951201582031288,
          "durationTicks": 1014,
          "midi": 40,
          "name": "E2",
          "ticks": 123934,
          "time": 60.645043525390605,
          "velocity": 0.5905511811023622
        },
        {
          "duration": 0.09863340429687639,
          "durationTicks": 202,
          "midi": 64,
          "name": "E4",
          "ticks": 124439,
          "time": 60.891627036132796,
          "velocity": 0.4330708661417323
        },
        {
          "duration": 0.09863340429687639,
          "durationTicks": 202,
          "midi": 72,
          "name": "C5",
          "ticks": 124439,
          "time": 60.891627036132796,
          "velocity": 0.5433070866141733
        },
        {
          "duration": 0.09863340429687639,
          "durationTicks": 202,
          "midi": 64,
          "name": "E4",
          "ticks": 124949,
          "time": 61.14065196777342,
          "velocity": 0.4566929133858268
        },
        {
          "duration": 0.09863340429687639,
          "durationTicks": 202,
          "midi": 74,
          "name": "D5",
          "ticks": 124949,
          "time": 61.14065196777342,
          "velocity": 0.5669291338582677
        },
        {
          "duration": 0.3696311240234351,
          "durationTicks": 757,
          "midi": 40,
          "name": "E2",
          "ticks": 124949,
          "time": 61.14065196777342,
          "velocity": 0.6062992125984252
        },
        {
          "duration": 0.09619198339844104,
          "durationTicks": 197,
          "midi": 64,
          "name": "E4",
          "ticks": 125459,
          "time": 61.38967689941404,
          "velocity": 0.4330708661417323
        },
        {
          "duration": 0.09619198339844104,
          "durationTicks": 197,
          "midi": 72,
          "name": "C5",
          "ticks": 125459,
          "time": 61.38967689941404,
          "velocity": 0.5433070866141733
        },
        {
          "duration": 0.1250007499999981,
          "durationTicks": 256,
          "midi": 40,
          "name": "E2",
          "ticks": 125707,
          "time": 61.510771375976546,
          "velocity": 0.4881889763779528
        },
        {
          "duration": 0.09619198339843393,
          "durationTicks": 197,
          "midi": 64,
          "name": "E4",
          "ticks": 125964,
          "time": 61.63626041015623,
          "velocity": 0.4409448818897638
        },
        {
          "duration": 0.09619198339843393,
          "durationTicks": 197,
          "midi": 74,
          "name": "D5",
          "ticks": 125964,
          "time": 61.63626041015623,
          "velocity": 0.5511811023622047
        },
        {
          "duration": 0.1250007499999981,
          "durationTicks": 256,
          "midi": 40,
          "name": "E2",
          "ticks": 125964,
          "time": 61.63626041015623,
          "velocity": 0.49606299212598426
        },
        {
          "duration": 0.12060619238281589,
          "durationTicks": 247,
          "midi": 40,
          "name": "E2",
          "ticks": 126221,
          "time": 61.76174944433592,
          "velocity": 0.4881889763779528
        },
        {
          "duration": 0.09716855175781092,
          "durationTicks": 199,
          "midi": 64,
          "name": "E4",
          "ticks": 126469,
          "time": 61.882843920898424,
          "velocity": 0.4330708661417323
        },
        {
          "duration": 0.11230536132812574,
          "durationTicks": 230,
          "midi": 76,
          "name": "E5",
          "ticks": 126469,
          "time": 61.882843920898424,
          "velocity": 0.5433070866141733
        },
        {
          "duration": 0.12060619238280879,
          "durationTicks": 247,
          "midi": 40,
          "name": "E2",
          "ticks": 126469,
          "time": 61.882843920898424,
          "velocity": 0.4881889763779528
        },
        {
          "duration": 0.13330158105468826,
          "durationTicks": 273,
          "midi": 40,
          "name": "E2",
          "ticks": 126717,
          "time": 62.00393839746092,
          "velocity": 0.4881889763779528
        }
      ],
      "endOfTrackTicks": 126991
    }
  ]
}
