{
  "header": {
    "keySignatures": [],
    "meta": [
      {
        "text": "By <Name>",
        "ticks": 0,
        "type": "text"
      },
      {
        "text": "Generated by NoteWorthy Composer",
        "ticks": 0,
        "type": "text"
      }
    ],
    "name": "Bonus_DKC2",
    "ppq": 192,
    "tempos": [
      {
        "bpm": 120,
        "ticks": 0
      },
      {
        "bpm": 120,
        "ticks": 0
      },
      {
        "bpm": 120,
        "ticks": 0
      },
      {
        "bpm": 120,
        "ticks": 0
      }
    ],
    "timeSignatures": [
      {
        "ticks": 0,
        "timeSignature": [
          4,
          4
        ],
        "measures": 0
      }
    ]
  },
  "tracks": [
    {
      "channel": 0,
      "controlChanges": {
        "7": [
          {
            "number": 7,
            "ticks": 0,
            "time": 0,
            "value": 1
          }
        ],
        "10": [
          {
            "number": 10,
            "ticks": 0,
            "time": 0,
            "value": 0.5039370078740157
          }
        ]
      },
      "pitchBends": [],
      "instrument": {
        "family": "piano",
        "number": 0,
        "name": "acoustic grand piano"
      },
      "name": "Bonus_DKC2",
      "notes": [
        {
          "duration": 0.11979166666666667,
          "durationTicks": 46,
          "midi": 72,
          "name": "C5",
          "ticks": 0,
          "time": 0,
          "velocity": 0.8661417322834646
        },
        {
          "duration": 0.11979166666666666,
          "durationTicks": 46,
          "midi": 75,
          "name": "D#5",
          "ticks": 48,
          "time": 0.125,
          "velocity": 0.8661417322834646
        },
        {
          "duration": 0.11979166666666669,
          "durationTicks": 46,
          "midi": 76,
          "name": "E5",
          "ticks": 96,
          "time": 0.25,
          "velocity": 0.8661417322834646
        },
        {
          "duration": 0.11979166666666669,
          "durationTicks": 46,
          "midi": 75,
          "name": "D#5",
          "ticks": 144,
          "time": 0.375,
          "velocity": 0.8661417322834646
        },
        {
          "duration": 0.11979166666666663,
          "durationTicks": 46,
          "midi": 76,
          "name": "E5",
          "ticks": 192,
          "time": 0.5,
          "velocity": 0.8661417322834646
        },
        {
          "duration": 0.11979166666666663,
          "durationTicks": 46,
          "midi": 74,
          "name": "D5",
          "ticks": 240,
          "time": 0.625,
          "velocity": 0.8661417322834646
        },
        {
          "duration": 0.11979166666666663,
          "durationTicks": 46,
          "midi": 72,
          "name": "C5",
          "ticks": 288,
          "time": 0.75,
          "velocity": 0.8661417322834646
        },
        {
          "duration": 0.11979166666666663,
          "durationTicks": 46,
          "midi": 71,
          "name": "B4",
          "ticks": 336,
          "time": 0.875,
          "velocity": 0.8661417322834646
        },
        {
          "duration": 0.11979166666666674,
          "durationTicks": 46,
          "midi": 68,
          "name": "G#4",
          "ticks": 384,
          "time": 1,
          "velocity": 0.8661417322834646
        },
        {
          "duration": 0.36979166666666674,
          "durationTicks": 142,
          "midi": 69,
          "name": "A4",
          "ticks": 432,
          "time": 1.125,
          "velocity": 0.8661417322834646
        },
        {
          "duration": 0.05729166666666674,
          "durationTicks": 22,
          "midi": 79,
          "name": "G5",
          "ticks": 576,
          "time": 1.5,
          "velocity": 0.8661417322834646
        },
        {
          "duration": 0.05729166666666674,
          "durationTicks": 22,
          "midi": 80,
          "name": "G#5",
          "ticks": 600,
          "time": 1.5625,
          "velocity": 0.8661417322834646
        },
        {
          "duration": 0.7447916666666665,
          "durationTicks": 286,
          "midi": 81,
          "name": "A5",
          "ticks": 624,
          "time": 1.625,
          "velocity": 0.8661417322834646
        },
        {
          "duration": 0.11979166666666652,
          "durationTicks": 46,
          "midi": 69,
          "name": "A4",
          "ticks": 912,
          "time": 2.375,
          "velocity": 0.8661417322834646
        },
        {
          "duration": 0.11979166666666652,
          "durationTicks": 46,
          "midi": 72,
          "name": "C5",
          "ticks": 960,
          "time": 2.5,
          "velocity": 0.8661417322834646
        },
        {
          "duration": 0.11979166666666652,
          "durationTicks": 46,
          "midi": 75,
          "name": "D#5",
          "ticks": 1008,
          "time": 2.625,
          "velocity": 0.8661417322834646
        },
        {
          "duration": 0.24479166666666652,
          "durationTicks": 94,
          "midi": 76,
          "name": "E5",
          "ticks": 1056,
          "time": 2.75,
          "velocity": 0.8661417322834646
        },
        {
          "duration": 0.11979166666666652,
          "durationTicks": 46,
          "midi": 68,
          "name": "G#4",
          "ticks": 1152,
          "time": 3,
          "velocity": 0.8661417322834646
        },
        {
          "duration": 0.11979166666666652,
          "durationTicks": 46,
          "midi": 69,
          "name": "A4",
          "ticks": 1200,
          "time": 3.125,
          "velocity": 0.8661417322834646
        },
        {
          "duration": 0.11979166666666652,
          "durationTicks": 46,
          "midi": 72,
          "name": "C5",
          "ticks": 1248,
          "time": 3.25,
          "velocity": 0.8661417322834646
        },
        {
          "duration": 0.11979166666666652,
          "durationTicks": 46,
          "midi": 75,
          "name": "D#5",
          "ticks": 1296,
          "time": 3.375,
          "velocity": 0.8661417322834646
        },
        {
          "duration": 0.4166666666666665,
          "durationTicks": 160,
          "midi": 76,
          "name": "E5",
          "ticks": 1344,
          "time": 3.5,
          "velocity": 0.8661417322834646
        },
        {
          "duration": 0.11979166666666696,
          "durationTicks": 46,
          "midi": 69,
          "name": "A4",
          "ticks": 1680,
          "time": 4.375,
          "velocity": 0.8661417322834646
        },
        {
          "duration": 0.11979166666666696,
          "durationTicks": 46,
          "midi": 72,
          "name": "C5",
          "ticks": 1728,
          "time": 4.5,
          "velocity": 0.8661417322834646
        },
        {
          "duration": 0.11979166666666696,
          "durationTicks": 46,
          "midi": 75,
          "name": "D#5",
          "ticks": 1776,
          "time": 4.625,
          "velocity": 0.8661417322834646
        },
        {
          "duration": 0.11979166666666696,
          "durationTicks": 46,
          "midi": 76,
          "name": "E5",
          "ticks": 1824,
          "time": 4.75,
          "velocity": 0.8661417322834646
        },
        {
          "duration": 0.11979166666666696,
          "durationTicks": 46,
          "midi": 74,
          "name": "D5",
          "ticks": 1872,
          "time": 4.875,
          "velocity": 0.8661417322834646
        },
        {
          "duration": 0.11979166666666696,
          "durationTicks": 46,
          "midi": 72,
          "name": "C5",
          "ticks": 1920,
          "time": 5,
          "velocity": 0.8661417322834646
        },
        {
          "duration": 0.24479166666666696,
          "durationTicks": 94,
          "midi": 74,
          "name": "D5",
          "ticks": 1968,
          "time": 5.125,
          "velocity": 0.8661417322834646
        },
        {
          "duration": 0.11979166666666696,
          "durationTicks": 46,
          "midi": 69,
          "name": "A4",
          "ticks": 2064,
          "time": 5.375,
          "velocity": 0.8661417322834646
        },
        {
          "duration": 0.11979166666666696,
          "durationTicks": 46,
          "midi": 71,
          "name": "B4",
          "ticks": 2112,
          "time": 5.5,
          "velocity": 0.8661417322834646
        },
        {
          "duration": 0.11979166666666696,
          "durationTicks": 46,
          "midi": 72,
          "name": "C5",
          "ticks": 2160,
          "time": 5.625,
          "velocity": 0.8661417322834646
        },
        {
          "duration": 0.11979166666666696,
          "durationTicks": 46,
          "midi": 71,
          "name": "B4",
          "ticks": 2208,
          "time": 5.75,
          "velocity": 0.8661417322834646
        },
        {
          "duration": 0.11979166666666696,
          "durationTicks": 46,
          "midi": 69,
          "name": "A4",
          "ticks": 2256,
          "time": 5.875,
          "velocity": 0.8661417322834646
        },
        {
          "duration": 0.36979166666666696,
          "durationTicks": 142,
          "midi": 68,
          "name": "G#4",
          "ticks": 2304,
          "time": 6,
          "velocity": 0.8661417322834646
        },
        {
          "duration": 0.11979166666666696,
          "durationTicks": 46,
          "midi": 68,
          "name": "G#4",
          "ticks": 2448,
          "time": 6.375,
          "velocity": 0.8661417322834646
        },
        {
          "duration": 0.11979166666666696,
          "durationTicks": 46,
          "midi": 69,
          "name": "A4",
          "ticks": 2496,
          "time": 6.5,
          "velocity": 0.8661417322834646
        },
        {
          "duration": 0.11979166666666696,
          "durationTicks": 46,
          "midi": 71,
          "name": "B4",
          "ticks": 2544,
          "time": 6.625,
          "velocity": 0.8661417322834646
        },
        {
          "duration": 0.24479166666666696,
          "durationTicks": 94,
          "midi": 74,
          "name": "D5",
          "ticks": 2592,
          "time": 6.75,
          "velocity": 0.8661417322834646
        },
        {
          "duration": 0.11979166666666696,
          "durationTicks": 46,
          "midi": 64,
          "name": "E4",
          "ticks": 2688,
          "time": 7,
          "velocity": 0.8661417322834646
        },
        {
          "duration": 0.11979166666666696,
          "durationTicks": 46,
          "midi": 68,
          "name": "G#4",
          "ticks": 2736,
          "time": 7.125,
          "velocity": 0.8661417322834646
        },
        {
          "duration": 0.11979166666666696,
          "durationTicks": 46,
          "midi": 69,
          "name": "A4",
          "ticks": 2784,
          "time": 7.25,
          "velocity": 0.8661417322834646
        },
        {
          "duration": 0.11979166666666696,
          "durationTicks": 46,
          "midi": 71,
          "name": "B4",
          "ticks": 2832,
          "time": 7.375,
          "velocity": 0.8661417322834646
        },
        {
          "duration": 0.41666666666666696,
          "durationTicks": 160,
          "midi": 74,
          "name": "D5",
          "ticks": 2880,
          "time": 7.5,
          "velocity": 0.8661417322834646
        },
        {
          "duration": 0.11979166666666607,
          "durationTicks": 46,
          "midi": 71,
          "name": "B4",
          "ticks": 3072,
          "time": 8,
          "velocity": 0.8661417322834646
        },
        {
          "duration": 0.11979166666666607,
          "durationTicks": 46,
          "midi": 75,
          "name": "D#5",
          "ticks": 3120,
          "time": 8.125,
          "velocity": 0.8661417322834646
        },
        {
          "duration": 0.11979166666666607,
          "durationTicks": 46,
          "midi": 76,
          "name": "E5",
          "ticks": 3168,
          "time": 8.25,
          "velocity": 0.8661417322834646
        },
        {
          "duration": 0.11979166666666607,
          "durationTicks": 46,
          "midi": 75,
          "name": "D#5",
          "ticks": 3216,
          "time": 8.375,
          "velocity": 0.8661417322834646
        },
        {
          "duration": 0.11979166666666607,
          "durationTicks": 46,
          "midi": 76,
          "name": "E5",
          "ticks": 3264,
          "time": 8.5,
          "velocity": 0.8661417322834646
        },
        {
          "duration": 0.11979166666666607,
          "durationTicks": 46,
          "midi": 75,
          "name": "D#5",
          "ticks": 3312,
          "time": 8.625,
          "velocity": 0.8661417322834646
        },
        {
          "duration": 0.11979166666666607,
          "durationTicks": 46,
          "midi": 74,
          "name": "D5",
          "ticks": 3360,
          "time": 8.75,
          "velocity": 0.8661417322834646
        },
        {
          "duration": 0.11979166666666607,
          "durationTicks": 46,
          "midi": 72,
          "name": "C5",
          "ticks": 3408,
          "time": 8.875,
          "velocity": 0.8661417322834646
        },
        {
          "duration": 0.11979166666666607,
          "durationTicks": 46,
          "midi": 71,
          "name": "B4",
          "ticks": 3456,
          "time": 9,
          "velocity": 0.8661417322834646
        },
        {
          "duration": 0.3697916666666661,
          "durationTicks": 142,
          "midi": 72,
          "name": "C5",
          "ticks": 3504,
          "time": 9.125,
          "velocity": 0.8661417322834646
        },
        {
          "duration": 0.11979166666666607,
          "durationTicks": 46,
          "midi": 60,
          "name": "C4",
          "ticks": 3648,
          "time": 9.5,
          "velocity": 0.8661417322834646
        },
        {
          "duration": 0.24479166666666607,
          "durationTicks": 94,
          "midi": 63,
          "name": "D#4",
          "ticks": 3696,
          "time": 9.625,
          "velocity": 0.8661417322834646
        },
        {
          "duration": 0.24479166666666607,
          "durationTicks": 94,
          "midi": 63,
          "name": "D#4",
          "ticks": 3792,
          "time": 9.875,
          "velocity": 0.8661417322834646
        },
        {
          "duration": 0.24479166666666607,
          "durationTicks": 94,
          "midi": 60,
          "name": "C4",
          "ticks": 3888,
          "time": 10.125,
          "velocity": 0.8661417322834646
        },
        {
          "duration": 0.11979166666666607,
          "durationTicks": 46,
          "midi": 81,
          "name": "A5",
          "ticks": 3984,
          "time": 10.375,
          "velocity": 0.8661417322834646
        },
        {
          "duration": 0.11979166666666607,
          "durationTicks": 46,
          "midi": 84,
          "name": "C6",
          "ticks": 4032,
          "time": 10.5,
          "velocity": 0.8661417322834646
        },
        {
          "duration": 0.11979166666666607,
          "durationTicks": 46,
          "midi": 87,
          "name": "D#6",
          "ticks": 4080,
          "time": 10.625,
          "velocity": 0.8661417322834646
        },
        {
          "duration": 0.24479166666666607,
          "durationTicks": 94,
          "midi": 88,
          "name": "E6",
          "ticks": 4128,
          "time": 10.75,
          "velocity": 0.8661417322834646
        },
        {
          "duration": 0.057291666666666075,
          "durationTicks": 22,
          "midi": 87,
          "name": "D#6",
          "ticks": 4224,
          "time": 11,
          "velocity": 0.8661417322834646
        },
        {
          "duration": 0.057291666666666075,
          "durationTicks": 22,
          "midi": 88,
          "name": "E6",
          "ticks": 4248,
          "time": 11.0625,
          "velocity": 0.8661417322834646
        },
        {
          "duration": 0.24479166666666607,
          "durationTicks": 94,
          "midi": 93,
          "name": "A6",
          "ticks": 4272,
          "time": 11.125,
          "velocity": 0.8661417322834646
        },
        {
          "duration": 0.24479166666666607,
          "durationTicks": 94,
          "midi": 86,
          "name": "D6",
          "ticks": 4368,
          "time": 11.375,
          "velocity": 0.8661417322834646
        },
        {
          "duration": 0.11979166666666607,
          "durationTicks": 46,
          "midi": 84,
          "name": "C6",
          "ticks": 4464,
          "time": 11.625,
          "velocity": 0.8661417322834646
        },
        {
          "duration": 0.24479166666666607,
          "durationTicks": 94,
          "midi": 81,
          "name": "A5",
          "ticks": 4512,
          "time": 11.75,
          "velocity": 0.8661417322834646
        },
        {
          "duration": 0.11979166666666607,
          "durationTicks": 46,
          "midi": 86,
          "name": "D6",
          "ticks": 4608,
          "time": 12,
          "velocity": 0.8661417322834646
        },
        {
          "duration": 0.11979166666666607,
          "durationTicks": 46,
          "midi": 88,
          "name": "E6",
          "ticks": 4656,
          "time": 12.125,
          "velocity": 0.8661417322834646
        },
        {
          "duration": 0.11979166666666607,
          "durationTicks": 46,
          "midi": 84,
          "name": "C6",
          "ticks": 4704,
          "time": 12.25,
          "velocity": 0.8661417322834646
        },
        {
          "duration": 0.11979166666666607,
          "durationTicks": 46,
          "midi": 88,
          "name": "E6",
          "ticks": 4752,
          "time": 12.375,
          "velocity": 0.8661417322834646
        },
        {
          "duration": 0.11979166666666607,
          "durationTicks": 46,
          "midi": 86,
          "name": "D6",
          "ticks": 4800,
          "time": 12.5,
          "velocity": 0.8661417322834646
        },
        {
          "duration": 0.11979166666666607,
          "durationTicks": 46,
          "midi": 93,
          "name": "A6",
          "ticks": 4848,
          "time": 12.625,
          "velocity": 0.8661417322834646
        },
        {
          "duration": 0.11979166666666607,
          "durationTicks": 46,
          "midi": 84,
          "name": "C6",
          "ticks": 4896,
          "time": 12.75,
          "velocity": 0.8661417322834646
        },
        {
          "duration": 0.11979166666666607,
          "durationTicks": 46,
          "midi": 93,
          "name": "A6",
          "ticks": 4944,
          "time": 12.875,
          "velocity": 0.8661417322834646
        },
        {
          "duration": 0.11979166666666607,
          "durationTicks": 46,
          "midi": 84,
          "name": "C6",
          "ticks": 4992,
          "time": 13,
          "velocity": 0.8661417322834646
        },
        {
          "duration": 0.24479166666666607,
          "durationTicks": 94,
          "midi": 86,
          "name": "D6",
          "ticks": 5040,
          "time": 13.125,
          "velocity": 0.8661417322834646
        },
        {
          "duration": 0.11979166666666607,
          "durationTicks": 46,
          "midi": 69,
          "name": "A4",
          "ticks": 5136,
          "time": 13.375,
          "velocity": 0.8661417322834646
        },
        {
          "duration": 0.11979166666666607,
          "durationTicks": 46,
          "midi": 71,
          "name": "B4",
          "ticks": 5184,
          "time": 13.5,
          "velocity": 0.8661417322834646
        },
        {
          "duration": 0.11979166666666607,
          "durationTicks": 46,
          "midi": 72,
          "name": "C5",
          "ticks": 5232,
          "time": 13.625,
          "velocity": 0.8661417322834646
        },
        {
          "duration": 0.11979166666666607,
          "durationTicks": 46,
          "midi": 71,
          "name": "B4",
          "ticks": 5280,
          "time": 13.75,
          "velocity": 0.8661417322834646
        },
        {
          "duration": 0.11979166666666607,
          "durationTicks": 46,
          "midi": 69,
          "name": "A4",
          "ticks": 5328,
          "time": 13.875,
          "velocity": 0.8661417322834646
        },
        {
          "duration": 0.3697916666666661,
          "durationTicks": 142,
          "midi": 68,
          "name": "G#4",
          "ticks": 5376,
          "time": 14,
          "velocity": 0.8661417322834646
        },
        {
          "duration": 0.11979166666666607,
          "durationTicks": 46,
          "midi": 80,
          "name": "G#5",
          "ticks": 5520,
          "time": 14.375,
          "velocity": 0.8661417322834646
        },
        {
          "duration": 0.11979166666666607,
          "durationTicks": 46,
          "midi": 82,
          "name": "A#5",
          "ticks": 5568,
          "time": 14.5,
          "velocity": 0.8661417322834646
        },
        {
          "duration": 0.18229166666666607,
          "durationTicks": 70,
          "midi": 83,
          "name": "B5",
          "ticks": 5616,
          "time": 14.625,
          "velocity": 0.8661417322834646
        },
        {
          "duration": 0.24479166666666607,
          "durationTicks": 94,
          "midi": 86,
          "name": "D6",
          "ticks": 5688,
          "time": 14.8125,
          "velocity": 0.8661417322834646
        },
        {
          "duration": 0.11979166666666607,
          "durationTicks": 46,
          "midi": 88,
          "name": "E6",
          "ticks": 5784,
          "time": 15.0625,
          "velocity": 0.8661417322834646
        },
        {
          "duration": 0.18229166666666607,
          "durationTicks": 70,
          "midi": 92,
          "name": "G#6",
          "ticks": 5832,
          "time": 15.1875,
          "velocity": 0.8661417322834646
        },
        {
          "duration": 0.18229166666666607,
          "durationTicks": 70,
          "midi": 86,
          "name": "D6",
          "ticks": 5904,
          "time": 15.375,
          "velocity": 0.8661417322834646
        },
        {
          "duration": 0.057291666666666075,
          "durationTicks": 22,
          "midi": 88,
          "name": "E6",
          "ticks": 5976,
          "time": 15.5625,
          "velocity": 0.8661417322834646
        },
        {
          "duration": 0.18229166666666607,
          "durationTicks": 70,
          "midi": 86,
          "name": "D6",
          "ticks": 6000,
          "time": 15.625,
          "velocity": 0.8661417322834646
        },
        {
          "duration": 0.057291666666666075,
          "durationTicks": 22,
          "midi": 83,
          "name": "B5",
          "ticks": 6072,
          "time": 15.8125,
          "velocity": 0.8661417322834646
        },
        {
          "duration": 0.11979166666666607,
          "durationTicks": 46,
          "midi": 81,
          "name": "A5",
          "ticks": 6096,
          "time": 15.875,
          "velocity": 0.8661417322834646
        },
        {
          "duration": 0.11979166666666785,
          "durationTicks": 46,
          "midi": 71,
          "name": "B4",
          "ticks": 6144,
          "time": 16,
          "velocity": 0.8661417322834646
        },
        {
          "duration": 0.11979166666666785,
          "durationTicks": 46,
          "midi": 75,
          "name": "D#5",
          "ticks": 6192,
          "time": 16.125,
          "velocity": 0.8661417322834646
        },
        {
          "duration": 0.11979166666666785,
          "durationTicks": 46,
          "midi": 76,
          "name": "E5",
          "ticks": 6240,
          "time": 16.25,
          "velocity": 0.8661417322834646
        },
        {
          "duration": 0.11979166666666785,
          "durationTicks": 46,
          "midi": 75,
          "name": "D#5",
          "ticks": 6288,
          "time": 16.375,
          "velocity": 0.8661417322834646
        },
        {
          "duration": 0.11979166666666785,
          "durationTicks": 46,
          "midi": 76,
          "name": "E5",
          "ticks": 6336,
          "time": 16.5,
          "velocity": 0.8661417322834646
        },
        {
          "duration": 0.11979166666666785,
          "durationTicks": 46,
          "midi": 75,
          "name": "D#5",
          "ticks": 6384,
          "time": 16.625,
          "velocity": 0.8661417322834646
        },
        {
          "duration": 0.11979166666666785,
          "durationTicks": 46,
          "midi": 74,
          "name": "D5",
          "ticks": 6432,
          "time": 16.75,
          "velocity": 0.8661417322834646
        },
        {
          "duration": 0.11979166666666785,
          "durationTicks": 46,
          "midi": 72,
          "name": "C5",
          "ticks": 6480,
          "time": 16.875,
          "velocity": 0.8661417322834646
        },
        {
          "duration": 0.11979166666666785,
          "durationTicks": 46,
          "midi": 71,
          "name": "B4",
          "ticks": 6528,
          "time": 17,
          "velocity": 0.8661417322834646
        },
        {
          "duration": 0.11979166666666785,
          "durationTicks": 46,
          "midi": 72,
          "name": "C5",
          "ticks": 6576,
          "time": 17.125,
          "velocity": 0.8661417322834646
        },
        {
          "duration": 0.11979166666666785,
          "durationTicks": 46,
          "midi": 76,
          "name": "E5",
          "ticks": 6624,
          "time": 17.25,
          "velocity": 0.8661417322834646
        },
        {
          "duration": 0.11979166666666785,
          "durationTicks": 46,
          "midi": 79,
          "name": "G5",
          "ticks": 6672,
          "time": 17.375,
          "velocity": 0.8661417322834646
        },
        {
          "duration": 0.05729166666666785,
          "durationTicks": 22,
          "midi": 80,
          "name": "G#5",
          "ticks": 6720,
          "time": 17.5,
          "velocity": 0.8661417322834646
        },
        {
          "duration": 0.05729166666666785,
          "durationTicks": 22,
          "midi": 81,
          "name": "A5",
          "ticks": 6744,
          "time": 17.5625,
          "velocity": 0.8661417322834646
        },
        {
          "duration": 0.18229166666666785,
          "durationTicks": 70,
          "midi": 76,
          "name": "E5",
          "ticks": 6768,
          "time": 17.625,
          "velocity": 0.8661417322834646
        },
        {
          "duration": 0.05729166666666785,
          "durationTicks": 22,
          "midi": 75,
          "name": "D#5",
          "ticks": 6840,
          "time": 17.8125,
          "velocity": 0.8661417322834646
        },
        {
          "duration": 0.11979166666666785,
          "durationTicks": 46,
          "midi": 74,
          "name": "D5",
          "ticks": 6864,
          "time": 17.875,
          "velocity": 0.8661417322834646
        },
        {
          "duration": 0.11979166666666785,
          "durationTicks": 46,
          "midi": 72,
          "name": "C5",
          "ticks": 6912,
          "time": 18,
          "velocity": 0.8661417322834646
        },
        {
          "duration": 0.11979166666666785,
          "durationTicks": 46,
          "midi": 75,
          "name": "D#5",
          "ticks": 6960,
          "time": 18.125,
          "velocity": 0.8661417322834646
        },
        {
          "duration": 0.11979166666666785,
          "durationTicks": 46,
          "midi": 76,
          "name": "E5",
          "ticks": 7008,
          "time": 18.25,
          "velocity": 0.8661417322834646
        },
        {
          "duration": 0.11979166666666785,
          "durationTicks": 46,
          "midi": 75,
          "name": "D#5",
          "ticks": 7056,
          "time": 18.375,
          "velocity": 0.8661417322834646
        },
        {
          "duration": 0.11979166666666785,
          "durationTicks": 46,
          "midi": 76,
          "name": "E5",
          "ticks": 7104,
          "time": 18.5,
          "velocity": 0.8661417322834646
        },
        {
          "duration": 0.11979166666666785,
          "durationTicks": 46,
          "midi": 74,
          "name": "D5",
          "ticks": 7152,
          "time": 18.625,
          "velocity": 0.8661417322834646
        },
        {
          "duration": 0.11979166666666785,
          "durationTicks": 46,
          "midi": 72,
          "name": "C5",
          "ticks": 7200,
          "time": 18.75,
          "velocity": 0.8661417322834646
        },
        {
          "duration": 0.11979166666666785,
          "durationTicks": 46,
          "midi": 71,
          "name": "B4",
          "ticks": 7248,
          "time": 18.875,
          "velocity": 0.8661417322834646
        },
        {
          "duration": 0.11979166666666785,
          "durationTicks": 46,
          "midi": 68,
          "name": "G#4",
          "ticks": 7296,
          "time": 19,
          "velocity": 0.8661417322834646
        },
        {
          "duration": 0.49479166666666785,
          "durationTicks": 190,
          "midi": 69,
          "name": "A4",
          "ticks": 7344,
          "time": 19.125,
          "velocity": 0.8661417322834646
        },
        {
          "duration": 1.0416666666666679,
          "durationTicks": 400,
          "midi": 69,
          "name": "A4",
          "ticks": 7536,
          "time": 19.625,
          "velocity": 0.8661417322834646
        },
        {
          "duration": 1.0416666666666679,
          "durationTicks": 400,
          "midi": 81,
          "name": "A5",
          "ticks": 7536,
          "time": 19.625,
          "velocity": 0.8661417322834646
        }
      ],
      "endOfTrackTicks": 7936
    },
    {
      "channel": 0,
      "controlChanges": {
        "7": [
          {
            "number": 7,
            "ticks": 0,
            "time": 0,
            "value": 1
          }
        ],
        "10": [
          {
            "number": 10,
            "ticks": 0,
            "time": 0,
            "value": 0.5039370078740157
          }
        ]
      },
      "pitchBends": [],
      "instrument": {
        "family": "piano",
        "number": 0,
        "name": "acoustic grand piano"
      },
      "name": "Bonus_DKC2-2",
      "notes": [
        {
          "duration": 0.11979166666666667,
          "durationTicks": 46,
          "midi": 32,
          "name": "G#1",
          "ticks": 0,
          "time": 0,
          "velocity": 0.8661417322834646
        },
        {
          "duration": 0.24479166666666669,
          "durationTicks": 94,
          "midi": 29,
          "name": "F1",
          "ticks": 48,
          "time": 0.125,
          "velocity": 0.8661417322834646
        },
        {
          "duration": 0.24479166666666663,
          "durationTicks": 94,
          "midi": 29,
          "name": "F1",
          "ticks": 144,
          "time": 0.375,
          "velocity": 0.8661417322834646
        },
        {
          "duration": 0.24479166666666663,
          "durationTicks": 94,
          "midi": 31,
          "name": "G1",
          "ticks": 240,
          "time": 0.625,
          "velocity": 0.8661417322834646
        },
        {
          "duration": 0.24479166666666674,
          "durationTicks": 94,
          "midi": 32,
          "name": "G#1",
          "ticks": 336,
          "time": 0.875,
          "velocity": 0.8661417322834646
        },
        {
          "duration": 0.11979166666666674,
          "durationTicks": 46,
          "midi": 33,
          "name": "A1",
          "ticks": 432,
          "time": 1.125,
          "velocity": 0.8661417322834646
        },
        {
          "duration": 0.11979166666666674,
          "durationTicks": 46,
          "midi": 33,
          "name": "A1",
          "ticks": 480,
          "time": 1.25,
          "velocity": 0.8661417322834646
        },
        {
          "duration": 0.24479166666666674,
          "durationTicks": 94,
          "midi": 28,
          "name": "E1",
          "ticks": 528,
          "time": 1.375,
          "velocity": 0.8661417322834646
        },
        {
          "duration": 0.24479166666666674,
          "durationTicks": 94,
          "midi": 29,
          "name": "F1",
          "ticks": 624,
          "time": 1.625,
          "velocity": 0.8661417322834646
        },
        {
          "duration": 0.18229166666666652,
          "durationTicks": 70,
          "midi": 31,
          "name": "G1",
          "ticks": 720,
          "time": 1.875,
          "velocity": 0.8661417322834646
        },
        {
          "duration": 0.05729166666666652,
          "durationTicks": 22,
          "midi": 31,
          "name": "G1",
          "ticks": 792,
          "time": 2.0625,
          "velocity": 0.8661417322834646
        },
        {
          "duration": 0.24479166666666652,
          "durationTicks": 94,
          "midi": 33,
          "name": "A1",
          "ticks": 816,
          "time": 2.125,
          "velocity": 0.8661417322834646
        },
        {
          "duration": 0.24479166666666652,
          "durationTicks": 94,
          "midi": 33,
          "name": "A1",
          "ticks": 912,
          "time": 2.375,
          "velocity": 0.8661417322834646
        },
        {
          "duration": 0.24479166666666652,
          "durationTicks": 94,
          "midi": 28,
          "name": "E1",
          "ticks": 1008,
          "time": 2.625,
          "velocity": 0.8661417322834646
        },
        {
          "duration": 0.24479166666666652,
          "durationTicks": 94,
          "midi": 28,
          "name": "E1",
          "ticks": 1104,
          "time": 2.875,
          "velocity": 0.8661417322834646
        },
        {
          "duration": 0.11979166666666652,
          "durationTicks": 46,
          "midi": 33,
          "name": "A1",
          "ticks": 1200,
          "time": 3.125,
          "velocity": 0.8661417322834646
        },
        {
          "duration": 0.11979166666666652,
          "durationTicks": 46,
          "midi": 33,
          "name": "A1",
          "ticks": 1248,
          "time": 3.25,
          "velocity": 0.8661417322834646
        },
        {
          "duration": 0.24479166666666652,
          "durationTicks": 94,
          "midi": 28,
          "name": "E1",
          "ticks": 1296,
          "time": 3.375,
          "velocity": 0.8661417322834646
        },
        {
          "duration": 0.24479166666666652,
          "durationTicks": 94,
          "midi": 29,
          "name": "F1",
          "ticks": 1392,
          "time": 3.625,
          "velocity": 0.8661417322834646
        },
        {
          "duration": 0.24479166666666696,
          "durationTicks": 94,
          "midi": 31,
          "name": "G1",
          "ticks": 1488,
          "time": 3.875,
          "velocity": 0.8661417322834646
        },
        {
          "duration": 0.24479166666666696,
          "durationTicks": 94,
          "midi": 33,
          "name": "A1",
          "ticks": 1584,
          "time": 4.125,
          "velocity": 0.8661417322834646
        },
        {
          "duration": 0.24479166666666696,
          "durationTicks": 94,
          "midi": 33,
          "name": "A1",
          "ticks": 1680,
          "time": 4.375,
          "velocity": 0.8661417322834646
        },
        {
          "duration": 0.24479166666666696,
          "durationTicks": 94,
          "midi": 36,
          "name": "C2",
          "ticks": 1776,
          "time": 4.625,
          "velocity": 0.8661417322834646
        },
        {
          "duration": 0.24479166666666696,
          "durationTicks": 94,
          "midi": 36,
          "name": "C2",
          "ticks": 1872,
          "time": 4.875,
          "velocity": 0.8661417322834646
        },
        {
          "duration": 0.11979166666666696,
          "durationTicks": 46,
          "midi": 35,
          "name": "B1",
          "ticks": 1968,
          "time": 5.125,
          "velocity": 0.8661417322834646
        },
        {
          "duration": 0.11979166666666696,
          "durationTicks": 46,
          "midi": 35,
          "name": "B1",
          "ticks": 2016,
          "time": 5.25,
          "velocity": 0.8661417322834646
        },
        {
          "duration": 0.24479166666666696,
          "durationTicks": 94,
          "midi": 32,
          "name": "G#1",
          "ticks": 2064,
          "time": 5.375,
          "velocity": 0.8661417322834646
        },
        {
          "duration": 0.24479166666666696,
          "durationTicks": 94,
          "midi": 33,
          "name": "A1",
          "ticks": 2160,
          "time": 5.625,
          "velocity": 0.8661417322834646
        },
        {
          "duration": 0.24479166666666696,
          "durationTicks": 94,
          "midi": 35,
          "name": "B1",
          "ticks": 2256,
          "time": 5.875,
          "velocity": 0.8661417322834646
        },
        {
          "duration": 0.24479166666666696,
          "durationTicks": 94,
          "midi": 28,
          "name": "E1",
          "ticks": 2352,
          "time": 6.125,
          "velocity": 0.8661417322834646
        },
        {
          "duration": 0.24479166666666696,
          "durationTicks": 94,
          "midi": 32,
          "name": "G#1",
          "ticks": 2448,
          "time": 6.375,
          "velocity": 0.8661417322834646
        },
        {
          "duration": 0.24479166666666696,
          "durationTicks": 94,
          "midi": 33,
          "name": "A1",
          "ticks": 2544,
          "time": 6.625,
          "velocity": 0.8661417322834646
        },
        {
          "duration": 0.24479166666666696,
          "durationTicks": 94,
          "midi": 35,
          "name": "B1",
          "ticks": 2640,
          "time": 6.875,
          "velocity": 0.8661417322834646
        },
        {
          "duration": 0.11979166666666696,
          "durationTicks": 46,
          "midi": 28,
          "name": "E1",
          "ticks": 2736,
          "time": 7.125,
          "velocity": 0.8661417322834646
        },
        {
          "duration": 0.11979166666666696,
          "durationTicks": 46,
          "midi": 28,
          "name": "E1",
          "ticks": 2784,
          "time": 7.25,
          "velocity": 0.8661417322834646
        },
        {
          "duration": 0.24479166666666696,
          "durationTicks": 94,
          "midi": 32,
          "name": "G#1",
          "ticks": 2832,
          "time": 7.375,
          "velocity": 0.8661417322834646
        },
        {
          "duration": 0.24479166666666696,
          "durationTicks": 94,
          "midi": 33,
          "name": "A1",
          "ticks": 2928,
          "time": 7.625,
          "velocity": 0.8661417322834646
        },
        {
          "duration": 0.24479166666666607,
          "durationTicks": 94,
          "midi": 35,
          "name": "B1",
          "ticks": 3024,
          "time": 7.875,
          "velocity": 0.8661417322834646
        },
        {
          "duration": 0.24479166666666607,
          "durationTicks": 94,
          "midi": 28,
          "name": "E1",
          "ticks": 3120,
          "time": 8.125,
          "velocity": 0.8661417322834646
        },
        {
          "duration": 0.24479166666666607,
          "durationTicks": 94,
          "midi": 32,
          "name": "G#1",
          "ticks": 3216,
          "time": 8.375,
          "velocity": 0.8661417322834646
        },
        {
          "duration": 0.24479166666666607,
          "durationTicks": 94,
          "midi": 33,
          "name": "A1",
          "ticks": 3312,
          "time": 8.625,
          "velocity": 0.8661417322834646
        },
        {
          "duration": 0.24479166666666607,
          "durationTicks": 94,
          "midi": 35,
          "name": "B1",
          "ticks": 3408,
          "time": 8.875,
          "velocity": 0.8661417322834646
        },
        {
          "duration": 0.11979166666666607,
          "durationTicks": 46,
          "midi": 33,
          "name": "A1",
          "ticks": 3504,
          "time": 9.125,
          "velocity": 0.8661417322834646
        },
        {
          "duration": 0.11979166666666607,
          "durationTicks": 46,
          "midi": 33,
          "name": "A1",
          "ticks": 3552,
          "time": 9.25,
          "velocity": 0.8661417322834646
        },
        {
          "duration": 0.11979166666666607,
          "durationTicks": 46,
          "midi": 52,
          "name": "E3",
          "ticks": 3552,
          "time": 9.25,
          "velocity": 0.8661417322834646
        },
        {
          "duration": 0.11979166666666607,
          "durationTicks": 46,
          "midi": 28,
          "name": "E1",
          "ticks": 3600,
          "time": 9.375,
          "velocity": 0.8661417322834646
        },
        {
          "duration": 0.11979166666666607,
          "durationTicks": 46,
          "midi": 57,
          "name": "A3",
          "ticks": 3600,
          "time": 9.375,
          "velocity": 0.8661417322834646
        },
        {
          "duration": 0.24479166666666607,
          "durationTicks": 94,
          "midi": 29,
          "name": "F1",
          "ticks": 3696,
          "time": 9.625,
          "velocity": 0.8661417322834646
        },
        {
          "duration": 0.24479166666666607,
          "durationTicks": 94,
          "midi": 31,
          "name": "G1",
          "ticks": 3792,
          "time": 9.875,
          "velocity": 0.8661417322834646
        },
        {
          "duration": 0.11979166666666607,
          "durationTicks": 46,
          "midi": 33,
          "name": "A1",
          "ticks": 3888,
          "time": 10.125,
          "velocity": 0.8661417322834646
        },
        {
          "duration": 0.11979166666666607,
          "durationTicks": 46,
          "midi": 57,
          "name": "A3",
          "ticks": 3936,
          "time": 10.25,
          "velocity": 0.8661417322834646
        },
        {
          "duration": 0.24479166666666607,
          "durationTicks": 94,
          "midi": 33,
          "name": "A1",
          "ticks": 3984,
          "time": 10.375,
          "velocity": 0.8661417322834646
        },
        {
          "duration": 0.24479166666666607,
          "durationTicks": 94,
          "midi": 28,
          "name": "E1",
          "ticks": 4080,
          "time": 10.625,
          "velocity": 0.8661417322834646
        },
        {
          "duration": 0.24479166666666607,
          "durationTicks": 94,
          "midi": 28,
          "name": "E1",
          "ticks": 4176,
          "time": 10.875,
          "velocity": 0.8661417322834646
        },
        {
          "duration": 0.11979166666666607,
          "durationTicks": 46,
          "midi": 33,
          "name": "A1",
          "ticks": 4272,
          "time": 11.125,
          "velocity": 0.8661417322834646
        },
        {
          "duration": 0.11979166666666607,
          "durationTicks": 46,
          "midi": 33,
          "name": "A1",
          "ticks": 4320,
          "time": 11.25,
          "velocity": 0.8661417322834646
        },
        {
          "duration": 0.24479166666666607,
          "durationTicks": 94,
          "midi": 28,
          "name": "E1",
          "ticks": 4368,
          "time": 11.375,
          "velocity": 0.8661417322834646
        },
        {
          "duration": 0.24479166666666607,
          "durationTicks": 94,
          "midi": 29,
          "name": "F1",
          "ticks": 4464,
          "time": 11.625,
          "velocity": 0.8661417322834646
        },
        {
          "duration": 0.24479166666666607,
          "durationTicks": 94,
          "midi": 31,
          "name": "G1",
          "ticks": 4560,
          "time": 11.875,
          "velocity": 0.8661417322834646
        },
        {
          "duration": 0.24479166666666607,
          "durationTicks": 94,
          "midi": 33,
          "name": "A1",
          "ticks": 4656,
          "time": 12.125,
          "velocity": 0.8661417322834646
        },
        {
          "duration": 0.24479166666666607,
          "durationTicks": 94,
          "midi": 33,
          "name": "A1",
          "ticks": 4752,
          "time": 12.375,
          "velocity": 0.8661417322834646
        },
        {
          "duration": 0.24479166666666607,
          "durationTicks": 94,
          "midi": 36,
          "name": "C2",
          "ticks": 4848,
          "time": 12.625,
          "velocity": 0.8661417322834646
        },
        {
          "duration": 0.24479166666666607,
          "durationTicks": 94,
          "midi": 36,
          "name": "C2",
          "ticks": 4944,
          "time": 12.875,
          "velocity": 0.8661417322834646
        },
        {
          "duration": 0.11979166666666607,
          "durationTicks": 46,
          "midi": 35,
          "name": "B1",
          "ticks": 5040,
          "time": 13.125,
          "velocity": 0.8661417322834646
        },
        {
          "duration": 0.11979166666666607,
          "durationTicks": 46,
          "midi": 35,
          "name": "B1",
          "ticks": 5088,
          "time": 13.25,
          "velocity": 0.8661417322834646
        },
        {
          "duration": 0.24479166666666607,
          "durationTicks": 94,
          "midi": 32,
          "name": "G#1",
          "ticks": 5136,
          "time": 13.375,
          "velocity": 0.8661417322834646
        },
        {
          "duration": 0.24479166666666607,
          "durationTicks": 94,
          "midi": 33,
          "name": "A1",
          "ticks": 5232,
          "time": 13.625,
          "velocity": 0.8661417322834646
        },
        {
          "duration": 0.24479166666666607,
          "durationTicks": 94,
          "midi": 35,
          "name": "B1",
          "ticks": 5328,
          "time": 13.875,
          "velocity": 0.8661417322834646
        },
        {
          "duration": 0.24479166666666607,
          "durationTicks": 94,
          "midi": 28,
          "name": "E1",
          "ticks": 5424,
          "time": 14.125,
          "velocity": 0.8661417322834646
        },
        {
          "duration": 0.24479166666666607,
          "durationTicks": 94,
          "midi": 32,
          "name": "G#1",
          "ticks": 5520,
          "time": 14.375,
          "velocity": 0.8661417322834646
        },
        {
          "duration": 0.24479166666666607,
          "durationTicks": 94,
          "midi": 33,
          "name": "A1",
          "ticks": 5616,
          "time": 14.625,
          "velocity": 0.8661417322834646
        },
        {
          "duration": 0.24479166666666607,
          "durationTicks": 94,
          "midi": 35,
          "name": "B1",
          "ticks": 5712,
          "time": 14.875,
          "velocity": 0.8661417322834646
        },
        {
          "duration": 0.11979166666666607,
          "durationTicks": 46,
          "midi": 28,
          "name": "E1",
          "ticks": 5808,
          "time": 15.125,
          "velocity": 0.8661417322834646
        },
        {
          "duration": 0.11979166666666607,
          "durationTicks": 46,
          "midi": 28,
          "name": "E1",
          "ticks": 5856,
          "time": 15.25,
          "velocity": 0.8661417322834646
        },
        {
          "duration": 0.24479166666666607,
          "durationTicks": 94,
          "midi": 32,
          "name": "G#1",
          "ticks": 5904,
          "time": 15.375,
          "velocity": 0.8661417322834646
        },
        {
          "duration": 0.24479166666666607,
          "durationTicks": 94,
          "midi": 33,
          "name": "A1",
          "ticks": 6000,
          "time": 15.625,
          "velocity": 0.8661417322834646
        },
        {
          "duration": 0.24479166666666785,
          "durationTicks": 94,
          "midi": 35,
          "name": "B1",
          "ticks": 6096,
          "time": 15.875,
          "velocity": 0.8661417322834646
        },
        {
          "duration": 0.24479166666666785,
          "durationTicks": 94,
          "midi": 29,
          "name": "F1",
          "ticks": 6192,
          "time": 16.125,
          "velocity": 0.8661417322834646
        },
        {
          "duration": 0.24479166666666785,
          "durationTicks": 94,
          "midi": 29,
          "name": "F1",
          "ticks": 6288,
          "time": 16.375,
          "velocity": 0.8661417322834646
        },
        {
          "duration": 0.24479166666666785,
          "durationTicks": 94,
          "midi": 32,
          "name": "G#1",
          "ticks": 6384,
          "time": 16.625,
          "velocity": 0.8661417322834646
        },
        {
          "duration": 0.24479166666666785,
          "durationTicks": 94,
          "midi": 32,
          "name": "G#1",
          "ticks": 6480,
          "time": 16.875,
          "velocity": 0.8661417322834646
        },
        {
          "duration": 0.11979166666666785,
          "durationTicks": 46,
          "midi": 33,
          "name": "A1",
          "ticks": 6576,
          "time": 17.125,
          "velocity": 0.8661417322834646
        },
        {
          "duration": 0.11979166666666785,
          "durationTicks": 46,
          "midi": 33,
          "name": "A1",
          "ticks": 6624,
          "time": 17.25,
          "velocity": 0.8661417322834646
        },
        {
          "duration": 0.24479166666666785,
          "durationTicks": 94,
          "midi": 28,
          "name": "E1",
          "ticks": 6672,
          "time": 17.375,
          "velocity": 0.8661417322834646
        },
        {
          "duration": 0.24479166666666785,
          "durationTicks": 94,
          "midi": 29,
          "name": "F1",
          "ticks": 6768,
          "time": 17.625,
          "velocity": 0.8661417322834646
        },
        {
          "duration": 0.11979166666666785,
          "durationTicks": 46,
          "midi": 31,
          "name": "G1",
          "ticks": 6864,
          "time": 17.875,
          "velocity": 0.8661417322834646
        },
        {
          "duration": 0.11979166666666785,
          "durationTicks": 46,
          "midi": 32,
          "name": "G#1",
          "ticks": 6912,
          "time": 18,
          "velocity": 0.8661417322834646
        },
        {
          "duration": 0.24479166666666785,
          "durationTicks": 94,
          "midi": 29,
          "name": "F1",
          "ticks": 6960,
          "time": 18.125,
          "velocity": 0.8661417322834646
        },
        {
          "duration": 0.24479166666666785,
          "durationTicks": 94,
          "midi": 29,
          "name": "F1",
          "ticks": 7056,
          "time": 18.375,
          "velocity": 0.8661417322834646
        },
        {
          "duration": 0.24479166666666785,
          "durationTicks": 94,
          "midi": 31,
          "name": "G1",
          "ticks": 7152,
          "time": 18.625,
          "velocity": 0.8661417322834646
        },
        {
          "duration": 0.24479166666666785,
          "durationTicks": 94,
          "midi": 32,
          "name": "G#1",
          "ticks": 7248,
          "time": 18.875,
          "velocity": 0.8661417322834646
        },
        {
          "duration": 0.11979166666666785,
          "durationTicks": 46,
          "midi": 33,
          "name": "A1",
          "ticks": 7344,
          "time": 19.125,
          "velocity": 0.8661417322834646
        },
        {
          "duration": 0.11979166666666785,
          "durationTicks": 46,
          "midi": 33,
          "name": "A1",
          "ticks": 7392,
          "time": 19.25,
          "velocity": 0.8661417322834646
        },
        {
          "duration": 0.24479166666666785,
          "durationTicks": 94,
          "midi": 28,
          "name": "E1",
          "ticks": 7440,
          "time": 19.375,
          "velocity": 0.8661417322834646
        },
        {
          "duration": 1.0416666666666679,
          "durationTicks": 400,
          "midi": 45,
          "name": "A2",
          "ticks": 7536,
          "time": 19.625,
          "velocity": 0.8661417322834646
        }
      ],
      "endOfTrackTicks": 7936
    },
    {
      "channel": 0,
      "controlChanges": {
        "7": [
          {
            "number": 7,
            "ticks": 0,
            "time": 0,
            "value": 1
          }
        ],
        "10": [
          {
            "number": 10,
            "ticks": 0,
            "time": 0,
            "value": 0.5039370078740157
          }
        ]
      },
      "pitchBends": [],
      "instrument": {
        "family": "piano",
        "number": 0,
        "name": "acoustic grand piano"
      },
      "name": "Tempo Track",
      "notes": [],
      "endOfTrackTicks": 0
    }
  ]
}
