{
  "header": {
    "keySignatures": [
      {
        "key": "C",
        "scale": "major",
        "ticks": 0
      }
    ],
    "meta": [],
    "name": "",
    "ppq": 120,
    "tempos": [
      {
        "bpm": 210.00021000021,
        "ticks": 0
      }
    ],
    "timeSignatures": [
      {
        "ticks": 0,
        "timeSignature": [
          4,
          4
        ],
        "measures": 0
      }
    ]
  },
  "tracks": [
    {
      "channel": 0,
      "controlChanges": {
        "7": [
          {
            "number": 7,
            "ticks": 0,
            "time": 0,
            "value": 0.7874015748031497
          },
          {
            "number": 7,
            "ticks": 0,
            "time": 0,
            "value": 0.7874015748031497
          }
        ],
        "10": [
          {
            "number": 10,
            "ticks": 0,
            "time": 0,
            "value": 0.5905511811023622
          }
        ],
        "91": [
          {
            "number": 91,
            "ticks": 0,
            "time": 0,
            "value": 0.6299212598425197
          }
        ]
      },
      "pitchBends": [],
      "instrument": {
        "family": "piano",
        "number": 3,
        "name": "honky-tonk piano"
      },
      "name": "Melody Piano",
      "notes": [
        {
          "duration": 0.1047617999999999,
          "durationTicks": 44,
          "midi": 60,
          "name": "C4",
          "ticks": 470,
          "time": 1.1190465,
          "velocity": 0.7086614173228346
        },
        {
          "duration": 0.10476180000000013,
          "durationTicks": 44,
          "midi": 65,
          "name": "F4",
          "ticks": 475,
          "time": 1.13095125,
          "velocity": 0.7086614173228346
        },
        {
          "duration": 0.12380940000000007,
          "durationTicks": 52,
          "midi": 69,
          "name": "A4",
          "ticks": 480,
          "time": 1.142856,
          "velocity": 0.905511811023622
        },
        {
          "duration": 0.1761902999999998,
          "durationTicks": 74,
          "midi": 69,
          "name": "A4",
          "ticks": 600,
          "time": 1.4285700000000001,
          "velocity": 0.905511811023622
        },
        {
          "duration": 0.1761902999999998,
          "durationTicks": 74,
          "midi": 67,
          "name": "G4",
          "ticks": 675,
          "time": 1.6071412500000002,
          "velocity": 0.905511811023622
        },
        {
          "duration": 0.1190475000000002,
          "durationTicks": 50,
          "midi": 69,
          "name": "A4",
          "ticks": 720,
          "time": 1.7142840000000001,
          "velocity": 0.905511811023622
        },
        {
          "duration": 0.21190454999999986,
          "durationTicks": 89,
          "midi": 69,
          "name": "A4",
          "ticks": 840,
          "time": 1.9999980000000002,
          "velocity": 0.952755905511811
        },
        {
          "duration": 0.14047605000000019,
          "durationTicks": 59,
          "midi": 67,
          "name": "G4",
          "ticks": 915,
          "time": 2.1785692500000002,
          "velocity": 0.8188976377952756
        },
        {
          "duration": 0.2119045500000003,
          "durationTicks": 89,
          "midi": 69,
          "name": "A4",
          "ticks": 960,
          "time": 2.285712,
          "velocity": 0.952755905511811
        },
        {
          "duration": 0.14523794999999984,
          "durationTicks": 61,
          "midi": 72,
          "name": "C5",
          "ticks": 1035,
          "time": 2.4642832500000003,
          "velocity": 0.7559055118110236
        },
        {
          "duration": 0.15476175000000003,
          "durationTicks": 65,
          "midi": 73,
          "name": "C#5",
          "ticks": 1080,
          "time": 2.571426,
          "velocity": 0.8031496062992126
        },
        {
          "duration": 0.31904730000000026,
          "durationTicks": 134,
          "midi": 74,
          "name": "D5",
          "ticks": 1155,
          "time": 2.7499972500000003,
          "velocity": 0.937007874015748
        },
        {
          "duration": 0.14047605000000019,
          "durationTicks": 59,
          "midi": 72,
          "name": "C5",
          "ticks": 1275,
          "time": 3.0357112500000003,
          "velocity": 0.905511811023622
        },
        {
          "duration": 0.28333305,
          "durationTicks": 119,
          "midi": 69,
          "name": "A4",
          "ticks": 1320,
          "time": 3.1428540000000003,
          "velocity": 0.905511811023622
        },
        {
          "duration": 0.17619030000000002,
          "durationTicks": 74,
          "midi": 67,
          "name": "G4",
          "ticks": 1395,
          "time": 3.3214252500000003,
          "velocity": 0.905511811023622
        },
        {
          "duration": 0.28333305,
          "durationTicks": 119,
          "midi": 62,
          "name": "D4",
          "ticks": 1440,
          "time": 3.4285680000000003,
          "velocity": 0.7086614173228346
        },
        {
          "duration": 0.17619030000000002,
          "durationTicks": 74,
          "midi": 65,
          "name": "F4",
          "ticks": 1440,
          "time": 3.4285680000000003,
          "velocity": 0.905511811023622
        },
        {
          "duration": 0.17619030000000002,
          "durationTicks": 74,
          "midi": 65,
          "name": "F4",
          "ticks": 1560,
          "time": 3.7142820000000003,
          "velocity": 0.905511811023622
        },
        {
          "duration": 0.1047617999999999,
          "durationTicks": 44,
          "midi": 62,
          "name": "D4",
          "ticks": 1635,
          "time": 3.8928532500000004,
          "velocity": 0.905511811023622
        },
        {
          "duration": 0.14047605000000019,
          "durationTicks": 59,
          "midi": 65,
          "name": "F4",
          "ticks": 1680,
          "time": 3.9999960000000003,
          "velocity": 0.905511811023622
        },
        {
          "duration": 0.21190455000000075,
          "durationTicks": 89,
          "midi": 65,
          "name": "F4",
          "ticks": 1800,
          "time": 4.28571,
          "velocity": 0.905511811023622
        },
        {
          "duration": 0.10476180000000035,
          "durationTicks": 44,
          "midi": 60,
          "name": "C4",
          "ticks": 1875,
          "time": 4.46428125,
          "velocity": 0.905511811023622
        },
        {
          "duration": 0.17619030000000002,
          "durationTicks": 74,
          "midi": 58,
          "name": "A#3",
          "ticks": 1920,
          "time": 4.571424,
          "velocity": 0.7086614173228346
        },
        {
          "duration": 0.17619030000000002,
          "durationTicks": 74,
          "midi": 62,
          "name": "D4",
          "ticks": 1920,
          "time": 4.571424,
          "velocity": 0.905511811023622
        },
        {
          "duration": 0.10476180000000035,
          "durationTicks": 44,
          "midi": 65,
          "name": "F4",
          "ticks": 1995,
          "time": 4.7499952500000004,
          "velocity": 0.905511811023622
        },
        {
          "duration": 0.10476179999999946,
          "durationTicks": 44,
          "midi": 67,
          "name": "G4",
          "ticks": 2040,
          "time": 4.857138000000001,
          "velocity": 0.905511811023622
        },
        {
          "duration": 0.2833330500000004,
          "durationTicks": 119,
          "midi": 65,
          "name": "F4",
          "ticks": 2115,
          "time": 5.03570925,
          "velocity": 0.7874015748031497
        },
        {
          "duration": 0.31904730000000026,
          "durationTicks": 134,
          "midi": 68,
          "name": "G#4",
          "ticks": 2115,
          "time": 5.03570925,
          "velocity": 0.905511811023622
        },
        {
          "duration": 0.10476180000000035,
          "durationTicks": 44,
          "midi": 67,
          "name": "G4",
          "ticks": 2235,
          "time": 5.3214232500000005,
          "velocity": 0.905511811023622
        },
        {
          "duration": 0.14047605000000019,
          "durationTicks": 59,
          "midi": 62,
          "name": "D4",
          "ticks": 2280,
          "time": 5.428566,
          "velocity": 0.6299212598425197
        },
        {
          "duration": 0.14047605000000019,
          "durationTicks": 59,
          "midi": 65,
          "name": "F4",
          "ticks": 2280,
          "time": 5.428566,
          "velocity": 0.905511811023622
        },
        {
          "duration": 0.1119046499999996,
          "durationTicks": 47,
          "midi": 65,
          "name": "F4",
          "ticks": 2400,
          "time": 5.7142800000000005,
          "velocity": 0.7952755905511811
        },
        {
          "duration": 0.12380939999999985,
          "durationTicks": 52,
          "midi": 69,
          "name": "A4",
          "ticks": 2400,
          "time": 5.7142800000000005,
          "velocity": 0.905511811023622
        },
        {
          "duration": 0.13333319999999915,
          "durationTicks": 56,
          "midi": 69,
          "name": "A4",
          "ticks": 2520,
          "time": 5.999994000000001,
          "velocity": 0.905511811023622
        },
        {
          "duration": 0.13809510000000103,
          "durationTicks": 58,
          "midi": 67,
          "name": "G4",
          "ticks": 2595,
          "time": 6.17856525,
          "velocity": 0.905511811023622
        },
        {
          "duration": 0.17619030000000002,
          "durationTicks": 74,
          "midi": 69,
          "name": "A4",
          "ticks": 2640,
          "time": 6.2857080000000005,
          "velocity": 0.905511811023622
        },
        {
          "duration": 0.1023808500000003,
          "durationTicks": 43,
          "midi": 69,
          "name": "A4",
          "ticks": 2760,
          "time": 6.571422,
          "velocity": 0.952755905511811
        },
        {
          "duration": 0.10476180000000035,
          "durationTicks": 44,
          "midi": 67,
          "name": "G4",
          "ticks": 2835,
          "time": 6.74999325,
          "velocity": 0.8188976377952756
        },
        {
          "duration": 0.14047605000000019,
          "durationTicks": 59,
          "midi": 69,
          "name": "A4",
          "ticks": 2880,
          "time": 6.857136000000001,
          "velocity": 0.952755905511811
        },
        {
          "duration": 0.1452379499999994,
          "durationTicks": 61,
          "midi": 72,
          "name": "C5",
          "ticks": 2955,
          "time": 7.035707250000001,
          "velocity": 0.6771653543307087
        },
        {
          "duration": 0.1547617499999996,
          "durationTicks": 65,
          "midi": 73,
          "name": "C#5",
          "ticks": 3000,
          "time": 7.142850000000001,
          "velocity": 0.7244094488188977
        },
        {
          "duration": 0.31904730000000026,
          "durationTicks": 134,
          "midi": 74,
          "name": "D5",
          "ticks": 3075,
          "time": 7.32142125,
          "velocity": 0.905511811023622
        },
        {
          "duration": 0.14047605000000019,
          "durationTicks": 59,
          "midi": 72,
          "name": "C5",
          "ticks": 3195,
          "time": 7.607135250000001,
          "velocity": 0.905511811023622
        },
        {
          "duration": 0.2833330500000004,
          "durationTicks": 119,
          "midi": 69,
          "name": "A4",
          "ticks": 3240,
          "time": 7.714278,
          "velocity": 0.905511811023622
        },
        {
          "duration": 0.1761903000000009,
          "durationTicks": 74,
          "midi": 67,
          "name": "G4",
          "ticks": 3315,
          "time": 7.89284925,
          "velocity": 0.905511811023622
        },
        {
          "duration": 0.11428559999999877,
          "durationTicks": 48,
          "midi": 58,
          "name": "A#3",
          "ticks": 3360,
          "time": 7.999992000000001,
          "velocity": 0.7244094488188977
        },
        {
          "duration": 0.15476175000000048,
          "durationTicks": 65,
          "midi": 62,
          "name": "D4",
          "ticks": 3360,
          "time": 7.999992000000001,
          "velocity": 0.7716535433070866
        },
        {
          "duration": 0.15952365000000057,
          "durationTicks": 67,
          "midi": 65,
          "name": "F4",
          "ticks": 3360,
          "time": 7.999992000000001,
          "velocity": 0.7716535433070866
        },
        {
          "duration": 0.21190454999999986,
          "durationTicks": 89,
          "midi": 58,
          "name": "A#3",
          "ticks": 3480,
          "time": 8.285706000000001,
          "velocity": 0.5826771653543307
        },
        {
          "duration": 0.21190454999999986,
          "durationTicks": 89,
          "midi": 65,
          "name": "F4",
          "ticks": 3480,
          "time": 8.285706000000001,
          "velocity": 0.6771653543307087
        },
        {
          "duration": 0.21190454999999986,
          "durationTicks": 89,
          "midi": 62,
          "name": "D4",
          "ticks": 3480,
          "time": 8.285706000000001,
          "velocity": 0.7244094488188977
        },
        {
          "duration": 0.14047605000000019,
          "durationTicks": 59,
          "midi": 58,
          "name": "A#3",
          "ticks": 3600,
          "time": 8.57142,
          "velocity": 0.6771653543307087
        },
        {
          "duration": 0.14047605000000019,
          "durationTicks": 59,
          "midi": 62,
          "name": "D4",
          "ticks": 3600,
          "time": 8.57142,
          "velocity": 0.7086614173228346
        },
        {
          "duration": 0.14047605000000019,
          "durationTicks": 59,
          "midi": 65,
          "name": "F4",
          "ticks": 3600,
          "time": 8.57142,
          "velocity": 0.7559055118110236
        },
        {
          "duration": 0.06190469999999948,
          "durationTicks": 26,
          "midi": 58,
          "name": "A#3",
          "ticks": 3675,
          "time": 8.74999125,
          "velocity": 0.5984251968503937
        },
        {
          "duration": 0.0880951500000009,
          "durationTicks": 37,
          "midi": 62,
          "name": "D4",
          "ticks": 3675,
          "time": 8.74999125,
          "velocity": 0.8188976377952756
        },
        {
          "duration": 0.09285704999999922,
          "durationTicks": 39,
          "midi": 65,
          "name": "F4",
          "ticks": 3675,
          "time": 8.74999125,
          "velocity": 0.7716535433070866
        },
        {
          "duration": 0.14047605000000019,
          "durationTicks": 59,
          "midi": 57,
          "name": "A3",
          "ticks": 3780,
          "time": 8.999991000000001,
          "velocity": 0.905511811023622
        },
        {
          "duration": 0.14047605000000019,
          "durationTicks": 59,
          "midi": 60,
          "name": "C4",
          "ticks": 3780,
          "time": 8.999991000000001,
          "velocity": 0.6299212598425197
        },
        {
          "duration": 0.14047605000000019,
          "durationTicks": 59,
          "midi": 65,
          "name": "F4",
          "ticks": 3780,
          "time": 8.999991000000001,
          "velocity": 0.952755905511811
        },
        {
          "duration": 0.10476179999999857,
          "durationTicks": 44,
          "midi": 60,
          "name": "C4",
          "ticks": 16770,
          "time": 39.928531500000005,
          "velocity": 0.7086614173228346
        },
        {
          "duration": 0.10476179999999857,
          "durationTicks": 44,
          "midi": 65,
          "name": "F4",
          "ticks": 16785,
          "time": 39.96424575,
          "velocity": 0.7086614173228346
        },
        {
          "duration": 0.12380940000000606,
          "durationTicks": 52,
          "midi": 69,
          "name": "A4",
          "ticks": 16800,
          "time": 39.99996,
          "velocity": 0.905511811023622
        },
        {
          "duration": 0.1761903000000018,
          "durationTicks": 74,
          "midi": 69,
          "name": "A4",
          "ticks": 16920,
          "time": 40.285674,
          "velocity": 0.905511811023622
        },
        {
          "duration": 0.1761903000000018,
          "durationTicks": 74,
          "midi": 67,
          "name": "G4",
          "ticks": 16995,
          "time": 40.464245250000005,
          "velocity": 0.905511811023622
        },
        {
          "duration": 0.11904749999999353,
          "durationTicks": 50,
          "midi": 69,
          "name": "A4",
          "ticks": 17040,
          "time": 40.571388000000006,
          "velocity": 0.905511811023622
        },
        {
          "duration": 0.21190454999999986,
          "durationTicks": 89,
          "midi": 69,
          "name": "A4",
          "ticks": 17160,
          "time": 40.857102000000005,
          "velocity": 0.952755905511811
        },
        {
          "duration": 0.14047605000000374,
          "durationTicks": 59,
          "midi": 67,
          "name": "G4",
          "ticks": 17235,
          "time": 41.03567325,
          "velocity": 0.8188976377952756
        },
        {
          "duration": 0.21190454999999986,
          "durationTicks": 89,
          "midi": 69,
          "name": "A4",
          "ticks": 17280,
          "time": 41.142816,
          "velocity": 0.952755905511811
        },
        {
          "duration": 0.14523795000000206,
          "durationTicks": 61,
          "midi": 72,
          "name": "C5",
          "ticks": 17355,
          "time": 41.32138725,
          "velocity": 0.7559055118110236
        },
        {
          "duration": 0.1547617499999987,
          "durationTicks": 65,
          "midi": 73,
          "name": "C#5",
          "ticks": 17400,
          "time": 41.42853,
          "velocity": 0.8031496062992126
        },
        {
          "duration": 0.31904730000000114,
          "durationTicks": 134,
          "midi": 74,
          "name": "D5",
          "ticks": 17475,
          "time": 41.60710125000001,
          "velocity": 0.937007874015748
        },
        {
          "duration": 0.14047605000000374,
          "durationTicks": 59,
          "midi": 72,
          "name": "C5",
          "ticks": 17595,
          "time": 41.892815250000005,
          "velocity": 0.905511811023622
        },
        {
          "duration": 0.283333049999996,
          "durationTicks": 119,
          "midi": 69,
          "name": "A4",
          "ticks": 17640,
          "time": 41.99995800000001,
          "velocity": 0.905511811023622
        },
        {
          "duration": 0.1761903000000018,
          "durationTicks": 74,
          "midi": 67,
          "name": "G4",
          "ticks": 17715,
          "time": 42.178529250000004,
          "velocity": 0.905511811023622
        },
        {
          "duration": 0.2833330500000031,
          "durationTicks": 119,
          "midi": 62,
          "name": "D4",
          "ticks": 17760,
          "time": 42.285672000000005,
          "velocity": 0.7086614173228346
        },
        {
          "duration": 0.1761903000000018,
          "durationTicks": 74,
          "midi": 65,
          "name": "F4",
          "ticks": 17760,
          "time": 42.285672000000005,
          "velocity": 0.905511811023622
        },
        {
          "duration": 0.1761903000000018,
          "durationTicks": 74,
          "midi": 65,
          "name": "F4",
          "ticks": 17880,
          "time": 42.571386000000004,
          "velocity": 0.905511811023622
        },
        {
          "duration": 0.10476180000000568,
          "durationTicks": 44,
          "midi": 62,
          "name": "D4",
          "ticks": 17955,
          "time": 42.74995725,
          "velocity": 0.905511811023622
        },
        {
          "duration": 0.14047605000000374,
          "durationTicks": 59,
          "midi": 65,
          "name": "F4",
          "ticks": 18000,
          "time": 42.8571,
          "velocity": 0.905511811023622
        },
        {
          "duration": 0.21190455000000696,
          "durationTicks": 89,
          "midi": 65,
          "name": "F4",
          "ticks": 18120,
          "time": 43.142814,
          "velocity": 0.905511811023622
        },
        {
          "duration": 0.10476179999999857,
          "durationTicks": 44,
          "midi": 60,
          "name": "C4",
          "ticks": 18195,
          "time": 43.321385250000006,
          "velocity": 0.905511811023622
        },
        {
          "duration": 0.1761903000000089,
          "durationTicks": 74,
          "midi": 58,
          "name": "A#3",
          "ticks": 18240,
          "time": 43.428528,
          "velocity": 0.7086614173228346
        },
        {
          "duration": 0.1761903000000089,
          "durationTicks": 74,
          "midi": 62,
          "name": "D4",
          "ticks": 18240,
          "time": 43.428528,
          "velocity": 0.905511811023622
        },
        {
          "duration": 0.10476179999999857,
          "durationTicks": 44,
          "midi": 65,
          "name": "F4",
          "ticks": 18315,
          "time": 43.607099250000005,
          "velocity": 0.905511811023622
        },
        {
          "duration": 0.10476179999999857,
          "durationTicks": 44,
          "midi": 67,
          "name": "G4",
          "ticks": 18360,
          "time": 43.714242000000006,
          "velocity": 0.905511811023622
        },
        {
          "duration": 0.2833330500000031,
          "durationTicks": 119,
          "midi": 65,
          "name": "F4",
          "ticks": 18435,
          "time": 43.89281325,
          "velocity": 0.7874015748031497
        },
        {
          "duration": 0.31904730000000114,
          "durationTicks": 134,
          "midi": 68,
          "name": "G#4",
          "ticks": 18435,
          "time": 43.89281325,
          "velocity": 0.905511811023622
        },
        {
          "duration": 0.10476180000000568,
          "durationTicks": 44,
          "midi": 67,
          "name": "G4",
          "ticks": 18555,
          "time": 44.17852725,
          "velocity": 0.905511811023622
        },
        {
          "duration": 0.14047605000000374,
          "durationTicks": 59,
          "midi": 62,
          "name": "D4",
          "ticks": 18600,
          "time": 44.28567,
          "velocity": 0.6299212598425197
        },
        {
          "duration": 0.14047605000000374,
          "durationTicks": 59,
          "midi": 65,
          "name": "F4",
          "ticks": 18600,
          "time": 44.28567,
          "velocity": 0.905511811023622
        },
        {
          "duration": 0.11190465000000671,
          "durationTicks": 47,
          "midi": 65,
          "name": "F4",
          "ticks": 18720,
          "time": 44.571384,
          "velocity": 0.7952755905511811
        },
        {
          "duration": 0.12380940000000606,
          "durationTicks": 52,
          "midi": 69,
          "name": "A4",
          "ticks": 18720,
          "time": 44.571384,
          "velocity": 0.905511811023622
        },
        {
          "duration": 0.1333332000000027,
          "durationTicks": 56,
          "midi": 69,
          "name": "A4",
          "ticks": 18840,
          "time": 44.857098,
          "velocity": 0.905511811023622
        },
        {
          "duration": 0.13809509999999392,
          "durationTicks": 58,
          "midi": 67,
          "name": "G4",
          "ticks": 18915,
          "time": 45.035669250000005,
          "velocity": 0.905511811023622
        },
        {
          "duration": 0.1761903000000018,
          "durationTicks": 74,
          "midi": 69,
          "name": "A4",
          "ticks": 18960,
          "time": 45.142812000000006,
          "velocity": 0.905511811023622
        },
        {
          "duration": 0.10238084999999586,
          "durationTicks": 43,
          "midi": 69,
          "name": "A4",
          "ticks": 19080,
          "time": 45.428526000000005,
          "velocity": 0.952755905511811
        },
        {
          "duration": 0.10476180000000568,
          "durationTicks": 44,
          "midi": 67,
          "name": "G4",
          "ticks": 19155,
          "time": 45.60709725,
          "velocity": 0.8188976377952756
        },
        {
          "duration": 0.14047605000000374,
          "durationTicks": 59,
          "midi": 69,
          "name": "A4",
          "ticks": 19200,
          "time": 45.714240000000004,
          "velocity": 0.952755905511811
        },
        {
          "duration": 0.14523795000000206,
          "durationTicks": 61,
          "midi": 72,
          "name": "C5",
          "ticks": 19275,
          "time": 45.89281125,
          "velocity": 0.6771653543307087
        },
        {
          "duration": 0.1547617499999987,
          "durationTicks": 65,
          "midi": 73,
          "name": "C#5",
          "ticks": 19320,
          "time": 45.999954,
          "velocity": 0.7244094488188977
        },
        {
          "duration": 0.31904730000000114,
          "durationTicks": 134,
          "midi": 74,
          "name": "D5",
          "ticks": 19395,
          "time": 46.17852525000001,
          "velocity": 0.905511811023622
        },
        {
          "duration": 0.14047605000000374,
          "durationTicks": 59,
          "midi": 72,
          "name": "C5",
          "ticks": 19515,
          "time": 46.464239250000006,
          "velocity": 0.905511811023622
        },
        {
          "duration": 0.283333049999996,
          "durationTicks": 119,
          "midi": 69,
          "name": "A4",
          "ticks": 19560,
          "time": 46.57138200000001,
          "velocity": 0.905511811023622
        },
        {
          "duration": 0.1761903000000018,
          "durationTicks": 74,
          "midi": 67,
          "name": "G4",
          "ticks": 19635,
          "time": 46.749953250000004,
          "velocity": 0.905511811023622
        },
        {
          "duration": 0.11428560000000232,
          "durationTicks": 48,
          "midi": 58,
          "name": "A#3",
          "ticks": 19680,
          "time": 46.857096000000006,
          "velocity": 0.7244094488188977
        },
        {
          "duration": 0.1547617499999987,
          "durationTicks": 65,
          "midi": 62,
          "name": "D4",
          "ticks": 19680,
          "time": 46.857096000000006,
          "velocity": 0.7716535433070866
        },
        {
          "duration": 0.15952364999999702,
          "durationTicks": 67,
          "midi": 65,
          "name": "F4",
          "ticks": 19680,
          "time": 46.857096000000006,
          "velocity": 0.7716535433070866
        },
        {
          "duration": 0.21190454999999986,
          "durationTicks": 89,
          "midi": 58,
          "name": "A#3",
          "ticks": 19800,
          "time": 47.142810000000004,
          "velocity": 0.5826771653543307
        },
        {
          "duration": 0.21190454999999986,
          "durationTicks": 89,
          "midi": 65,
          "name": "F4",
          "ticks": 19800,
          "time": 47.142810000000004,
          "velocity": 0.6771653543307087
        },
        {
          "duration": 0.21190454999999986,
          "durationTicks": 89,
          "midi": 62,
          "name": "D4",
          "ticks": 19800,
          "time": 47.142810000000004,
          "velocity": 0.7244094488188977
        },
        {
          "duration": 0.14047605000000374,
          "durationTicks": 59,
          "midi": 58,
          "name": "A#3",
          "ticks": 19920,
          "time": 47.428524,
          "velocity": 0.6771653543307087
        },
        {
          "duration": 0.14047605000000374,
          "durationTicks": 59,
          "midi": 62,
          "name": "D4",
          "ticks": 19920,
          "time": 47.428524,
          "velocity": 0.7086614173228346
        },
        {
          "duration": 0.14047605000000374,
          "durationTicks": 59,
          "midi": 65,
          "name": "F4",
          "ticks": 19920,
          "time": 47.428524,
          "velocity": 0.7559055118110236
        },
        {
          "duration": 0.061904700000006585,
          "durationTicks": 26,
          "midi": 58,
          "name": "A#3",
          "ticks": 19995,
          "time": 47.60709525,
          "velocity": 0.5984251968503937
        },
        {
          "duration": 0.088095150000008,
          "durationTicks": 37,
          "midi": 62,
          "name": "D4",
          "ticks": 19995,
          "time": 47.60709525,
          "velocity": 0.8188976377952756
        },
        {
          "duration": 0.09285704999999922,
          "durationTicks": 39,
          "midi": 65,
          "name": "F4",
          "ticks": 19995,
          "time": 47.60709525,
          "velocity": 0.7716535433070866
        },
        {
          "duration": 0.14047605000000374,
          "durationTicks": 59,
          "midi": 57,
          "name": "A3",
          "ticks": 20100,
          "time": 47.857095,
          "velocity": 0.905511811023622
        },
        {
          "duration": 0.14047605000000374,
          "durationTicks": 59,
          "midi": 60,
          "name": "C4",
          "ticks": 20100,
          "time": 47.857095,
          "velocity": 0.6299212598425197
        },
        {
          "duration": 0.14047605000000374,
          "durationTicks": 59,
          "midi": 65,
          "name": "F4",
          "ticks": 20100,
          "time": 47.857095,
          "velocity": 0.952755905511811
        }
      ],
      "endOfTrackTicks": 20159
    },
    {
      "channel": 9,
      "controlChanges": {
        "7": [
          {
            "number": 7,
            "ticks": 0,
            "time": 0,
            "value": 0.6929133858267716
          }
        ]
      },
      "pitchBends": [],
      "instrument": {
        "family": "drums",
        "number": 0,
        "name": "standard kit"
      },
      "name": "Drums",
      "notes": [
        {
          "duration": 0.09761895000000001,
          "durationTicks": 41,
          "midi": 36,
          "name": "C2",
          "ticks": 0,
          "time": 0,
          "velocity": 0.905511811023622
        },
        {
          "duration": 0.04523805,
          "durationTicks": 19,
          "midi": 40,
          "name": "E2",
          "ticks": 60,
          "time": 0.142857,
          "velocity": 0.44881889763779526
        },
        {
          "duration": 0.04523805,
          "durationTicks": 19,
          "midi": 40,
          "name": "E2",
          "ticks": 75,
          "time": 0.17857125000000001,
          "velocity": 0.5275590551181102
        },
        {
          "duration": 0.045238049999999974,
          "durationTicks": 19,
          "midi": 40,
          "name": "E2",
          "ticks": 90,
          "time": 0.21428550000000002,
          "velocity": 0.6850393700787402
        },
        {
          "duration": 0.04523805000000003,
          "durationTicks": 19,
          "midi": 40,
          "name": "E2",
          "ticks": 105,
          "time": 0.24999975000000002,
          "velocity": 0.84251968503937
        },
        {
          "duration": 0.07619039999999999,
          "durationTicks": 32,
          "midi": 40,
          "name": "E2",
          "ticks": 120,
          "time": 0.285714,
          "velocity": 1
        },
        {
          "duration": 0.045238049999999974,
          "durationTicks": 19,
          "midi": 40,
          "name": "E2",
          "ticks": 200,
          "time": 0.47619000000000006,
          "velocity": 0.84251968503937
        },
        {
          "duration": 0.04523804999999992,
          "durationTicks": 19,
          "midi": 40,
          "name": "E2",
          "ticks": 240,
          "time": 0.571428,
          "velocity": 1
        },
        {
          "duration": 0.06428564999999997,
          "durationTicks": 27,
          "midi": 40,
          "name": "E2",
          "ticks": 320,
          "time": 0.761904,
          "velocity": 1
        },
        {
          "duration": 0.05476185000000011,
          "durationTicks": 23,
          "midi": 36,
          "name": "C2",
          "ticks": 360,
          "time": 0.8571420000000001,
          "velocity": 0.905511811023622
        },
        {
          "duration": 0.05476185000000011,
          "durationTicks": 23,
          "midi": 43,
          "name": "G2",
          "ticks": 360,
          "time": 0.8571420000000001,
          "velocity": 0.7637795275590551
        },
        {
          "duration": 0.049999949999999904,
          "durationTicks": 21,
          "midi": 42,
          "name": "F#2",
          "ticks": 480,
          "time": 1.142856,
          "velocity": 0.6141732283464567
        },
        {
          "duration": 0.07380945000000017,
          "durationTicks": 31,
          "midi": 57,
          "name": "A3",
          "ticks": 480,
          "time": 1.142856,
          "velocity": 0.7952755905511811
        },
        {
          "duration": 0.11190465000000005,
          "durationTicks": 47,
          "midi": 36,
          "name": "C2",
          "ticks": 482,
          "time": 1.1476179,
          "velocity": 0.8503937007874016
        },
        {
          "duration": 0.049999949999999904,
          "durationTicks": 21,
          "midi": 42,
          "name": "F#2",
          "ticks": 600,
          "time": 1.4285700000000001,
          "velocity": 0.6141732283464567
        },
        {
          "duration": 0.06666660000000002,
          "durationTicks": 28,
          "midi": 40,
          "name": "E2",
          "ticks": 600,
          "time": 1.4285700000000001,
          "velocity": 0.8582677165354331
        },
        {
          "duration": 0.049999949999999904,
          "durationTicks": 21,
          "midi": 42,
          "name": "F#2",
          "ticks": 675,
          "time": 1.6071412500000002,
          "velocity": 0.6141732283464567
        },
        {
          "duration": 0.049999949999999904,
          "durationTicks": 21,
          "midi": 42,
          "name": "F#2",
          "ticks": 720,
          "time": 1.7142840000000001,
          "velocity": 0.6141732283464567
        },
        {
          "duration": 0.11190465000000005,
          "durationTicks": 47,
          "midi": 36,
          "name": "C2",
          "ticks": 720,
          "time": 1.7142840000000001,
          "velocity": 0.8503937007874016
        },
        {
          "duration": 0.049999950000000126,
          "durationTicks": 21,
          "midi": 42,
          "name": "F#2",
          "ticks": 840,
          "time": 1.9999980000000002,
          "velocity": 0.6141732283464567
        },
        {
          "duration": 0.06666660000000002,
          "durationTicks": 28,
          "midi": 40,
          "name": "E2",
          "ticks": 840,
          "time": 1.9999980000000002,
          "velocity": 0.8582677165354331
        },
        {
          "duration": 0.049999950000000126,
          "durationTicks": 21,
          "midi": 42,
          "name": "F#2",
          "ticks": 960,
          "time": 2.285712,
          "velocity": 0.6141732283464567
        },
        {
          "duration": 0.11190465000000005,
          "durationTicks": 47,
          "midi": 36,
          "name": "C2",
          "ticks": 960,
          "time": 2.285712,
          "velocity": 0.8503937007874016
        },
        {
          "duration": 0.049999950000000126,
          "durationTicks": 21,
          "midi": 42,
          "name": "F#2",
          "ticks": 1035,
          "time": 2.4642832500000003,
          "velocity": 0.6141732283464567
        },
        {
          "duration": 0.049999950000000126,
          "durationTicks": 21,
          "midi": 42,
          "name": "F#2",
          "ticks": 1080,
          "time": 2.571426,
          "velocity": 0.6141732283464567
        },
        {
          "duration": 0.06666659999999958,
          "durationTicks": 28,
          "midi": 40,
          "name": "E2",
          "ticks": 1080,
          "time": 2.571426,
          "velocity": 0.8582677165354331
        },
        {
          "duration": 0.049999950000000126,
          "durationTicks": 21,
          "midi": 42,
          "name": "F#2",
          "ticks": 1155,
          "time": 2.7499972500000003,
          "velocity": 0.6141732283464567
        },
        {
          "duration": 0.049999950000000126,
          "durationTicks": 21,
          "midi": 42,
          "name": "F#2",
          "ticks": 1200,
          "time": 2.8571400000000002,
          "velocity": 0.6141732283464567
        },
        {
          "duration": 0.11190465000000005,
          "durationTicks": 47,
          "midi": 36,
          "name": "C2",
          "ticks": 1200,
          "time": 2.8571400000000002,
          "velocity": 0.8503937007874016
        },
        {
          "duration": 0.049999950000000126,
          "durationTicks": 21,
          "midi": 46,
          "name": "A#2",
          "ticks": 1275,
          "time": 3.0357112500000003,
          "velocity": 0.6141732283464567
        },
        {
          "duration": 0.06666659999999958,
          "durationTicks": 28,
          "midi": 40,
          "name": "E2",
          "ticks": 1275,
          "time": 3.0357112500000003,
          "velocity": 0.8582677165354331
        },
        {
          "duration": 0.049999950000000126,
          "durationTicks": 21,
          "midi": 42,
          "name": "F#2",
          "ticks": 1320,
          "time": 3.1428540000000003,
          "velocity": 0.6141732283464567
        },
        {
          "duration": 0.06666659999999958,
          "durationTicks": 28,
          "midi": 40,
          "name": "E2",
          "ticks": 1320,
          "time": 3.1428540000000003,
          "velocity": 0.8582677165354331
        },
        {
          "duration": 0.049999950000000126,
          "durationTicks": 21,
          "midi": 46,
          "name": "A#2",
          "ticks": 1395,
          "time": 3.3214252500000003,
          "velocity": 0.6141732283464567
        },
        {
          "duration": 0.06666659999999958,
          "durationTicks": 28,
          "midi": 36,
          "name": "C2",
          "ticks": 1395,
          "time": 3.3214252500000003,
          "velocity": 0.8582677165354331
        },
        {
          "duration": 0.049999950000000126,
          "durationTicks": 21,
          "midi": 42,
          "name": "F#2",
          "ticks": 1440,
          "time": 3.4285680000000003,
          "velocity": 0.6141732283464567
        },
        {
          "duration": 0.11190465000000005,
          "durationTicks": 47,
          "midi": 36,
          "name": "C2",
          "ticks": 1442,
          "time": 3.4333299000000004,
          "velocity": 0.8503937007874016
        },
        {
          "duration": 0.049999950000000126,
          "durationTicks": 21,
          "midi": 42,
          "name": "F#2",
          "ticks": 1560,
          "time": 3.7142820000000003,
          "velocity": 0.6141732283464567
        },
        {
          "duration": 0.06666659999999958,
          "durationTicks": 28,
          "midi": 40,
          "name": "E2",
          "ticks": 1560,
          "time": 3.7142820000000003,
          "velocity": 0.8582677165354331
        },
        {
          "duration": 0.049999950000000126,
          "durationTicks": 21,
          "midi": 42,
          "name": "F#2",
          "ticks": 1635,
          "time": 3.8928532500000004,
          "velocity": 0.6141732283464567
        },
        {
          "duration": 0.049999950000000126,
          "durationTicks": 21,
          "midi": 42,
          "name": "F#2",
          "ticks": 1680,
          "time": 3.9999960000000003,
          "velocity": 0.6141732283464567
        },
        {
          "duration": 0.1119046500000005,
          "durationTicks": 47,
          "midi": 36,
          "name": "C2",
          "ticks": 1680,
          "time": 3.9999960000000003,
          "velocity": 0.8503937007874016
        },
        {
          "duration": 0.049999950000001014,
          "durationTicks": 21,
          "midi": 42,
          "name": "F#2",
          "ticks": 1800,
          "time": 4.28571,
          "velocity": 0.6141732283464567
        },
        {
          "duration": 0.06666660000000046,
          "durationTicks": 28,
          "midi": 40,
          "name": "E2",
          "ticks": 1800,
          "time": 4.28571,
          "velocity": 0.8582677165354331
        },
        {
          "duration": 0.049999950000001014,
          "durationTicks": 21,
          "midi": 46,
          "name": "A#2",
          "ticks": 1875,
          "time": 4.46428125,
          "velocity": 0.6141732283464567
        },
        {
          "duration": 0.049999950000000126,
          "durationTicks": 21,
          "midi": 42,
          "name": "F#2",
          "ticks": 1920,
          "time": 4.571424,
          "velocity": 0.6141732283464567
        },
        {
          "duration": 0.1119046499999996,
          "durationTicks": 47,
          "midi": 36,
          "name": "C2",
          "ticks": 1920,
          "time": 4.571424,
          "velocity": 0.8503937007874016
        },
        {
          "duration": 0.049999950000000126,
          "durationTicks": 21,
          "midi": 42,
          "name": "F#2",
          "ticks": 1995,
          "time": 4.7499952500000004,
          "velocity": 0.6141732283464567
        },
        {
          "duration": 0.049999950000000126,
          "durationTicks": 21,
          "midi": 42,
          "name": "F#2",
          "ticks": 2040,
          "time": 4.857138000000001,
          "velocity": 0.6141732283464567
        },
        {
          "duration": 0.06666659999999958,
          "durationTicks": 28,
          "midi": 40,
          "name": "E2",
          "ticks": 2040,
          "time": 4.857138000000001,
          "velocity": 0.8582677165354331
        },
        {
          "duration": 0.049999950000001014,
          "durationTicks": 21,
          "midi": 42,
          "name": "F#2",
          "ticks": 2115,
          "time": 5.03570925,
          "velocity": 0.6141732283464567
        },
        {
          "duration": 0.049999950000000126,
          "durationTicks": 21,
          "midi": 42,
          "name": "F#2",
          "ticks": 2160,
          "time": 5.142852,
          "velocity": 0.6141732283464567
        },
        {
          "duration": 0.1119046499999996,
          "durationTicks": 47,
          "midi": 36,
          "name": "C2",
          "ticks": 2160,
          "time": 5.142852,
          "velocity": 0.8503937007874016
        },
        {
          "duration": 0.03333329999999979,
          "durationTicks": 14,
          "midi": 40,
          "name": "E2",
          "ticks": 2220,
          "time": 5.285709000000001,
          "velocity": 0.4645669291338583
        },
        {
          "duration": 0.03333329999999979,
          "durationTicks": 14,
          "midi": 40,
          "name": "E2",
          "ticks": 2235,
          "time": 5.3214232500000005,
          "velocity": 0.4645669291338583
        },
        {
          "duration": 0.049999950000000126,
          "durationTicks": 21,
          "midi": 46,
          "name": "A#2",
          "ticks": 2235,
          "time": 5.3214232500000005,
          "velocity": 0.6141732283464567
        },
        {
          "duration": 0.033333300000000676,
          "durationTicks": 14,
          "midi": 40,
          "name": "E2",
          "ticks": 2250,
          "time": 5.3571375,
          "velocity": 0.6220472440944882
        },
        {
          "duration": 0.033333300000000676,
          "durationTicks": 14,
          "midi": 40,
          "name": "E2",
          "ticks": 2265,
          "time": 5.39285175,
          "velocity": 0.6220472440944882
        },
        {
          "duration": 0.033333300000000676,
          "durationTicks": 14,
          "midi": 40,
          "name": "E2",
          "ticks": 2280,
          "time": 5.428566,
          "velocity": 0.7007874015748031
        },
        {
          "duration": 0.06666660000000046,
          "durationTicks": 28,
          "midi": 36,
          "name": "C2",
          "ticks": 2280,
          "time": 5.428566,
          "velocity": 0.8582677165354331
        },
        {
          "duration": 0.049999950000001014,
          "durationTicks": 21,
          "midi": 42,
          "name": "F#2",
          "ticks": 2280,
          "time": 5.428566,
          "velocity": 0.6141732283464567
        },
        {
          "duration": 0.06666660000000046,
          "durationTicks": 28,
          "midi": 40,
          "name": "E2",
          "ticks": 2355,
          "time": 5.60713725,
          "velocity": 0.8582677165354331
        },
        {
          "duration": 0.049999950000001014,
          "durationTicks": 21,
          "midi": 46,
          "name": "A#2",
          "ticks": 2355,
          "time": 5.60713725,
          "velocity": 0.6141732283464567
        },
        {
          "duration": 0.049999950000000126,
          "durationTicks": 21,
          "midi": 42,
          "name": "F#2",
          "ticks": 2400,
          "time": 5.7142800000000005,
          "velocity": 0.6141732283464567
        },
        {
          "duration": 0.1119046500000005,
          "durationTicks": 47,
          "midi": 36,
          "name": "C2",
          "ticks": 2402,
          "time": 5.719041900000001,
          "velocity": 0.8503937007874016
        },
        {
          "duration": 0.049999950000000126,
          "durationTicks": 21,
          "midi": 42,
          "name": "F#2",
          "ticks": 2520,
          "time": 5.999994000000001,
          "velocity": 0.6141732283464567
        },
        {
          "duration": 0.06666659999999958,
          "durationTicks": 28,
          "midi": 40,
          "name": "E2",
          "ticks": 2520,
          "time": 5.999994000000001,
          "velocity": 0.8582677165354331
        },
        {
          "duration": 0.049999950000001014,
          "durationTicks": 21,
          "midi": 42,
          "name": "F#2",
          "ticks": 2595,
          "time": 6.17856525,
          "velocity": 0.6141732283464567
        },
        {
          "duration": 0.049999950000000126,
          "durationTicks": 21,
          "midi": 42,
          "name": "F#2",
          "ticks": 2640,
          "time": 6.2857080000000005,
          "velocity": 0.6141732283464567
        },
        {
          "duration": 0.1119046499999996,
          "durationTicks": 47,
          "midi": 36,
          "name": "C2",
          "ticks": 2640,
          "time": 6.2857080000000005,
          "velocity": 0.8503937007874016
        },
        {
          "duration": 0.049999950000001014,
          "durationTicks": 21,
          "midi": 42,
          "name": "F#2",
          "ticks": 2760,
          "time": 6.571422,
          "velocity": 0.6141732283464567
        },
        {
          "duration": 0.06666660000000046,
          "durationTicks": 28,
          "midi": 40,
          "name": "E2",
          "ticks": 2760,
          "time": 6.571422,
          "velocity": 0.8582677165354331
        },
        {
          "duration": 0.049999950000000126,
          "durationTicks": 21,
          "midi": 42,
          "name": "F#2",
          "ticks": 2880,
          "time": 6.857136000000001,
          "velocity": 0.6141732283464567
        },
        {
          "duration": 0.1119046499999996,
          "durationTicks": 47,
          "midi": 36,
          "name": "C2",
          "ticks": 2880,
          "time": 6.857136000000001,
          "velocity": 0.8503937007874016
        },
        {
          "duration": 0.049999950000000126,
          "durationTicks": 21,
          "midi": 42,
          "name": "F#2",
          "ticks": 2955,
          "time": 7.035707250000001,
          "velocity": 0.6141732283464567
        },
        {
          "duration": 0.049999950000000126,
          "durationTicks": 21,
          "midi": 42,
          "name": "F#2",
          "ticks": 3000,
          "time": 7.142850000000001,
          "velocity": 0.6141732283464567
        },
        {
          "duration": 0.06666659999999958,
          "durationTicks": 28,
          "midi": 40,
          "name": "E2",
          "ticks": 3000,
          "time": 7.142850000000001,
          "velocity": 0.8582677165354331
        },
        {
          "duration": 0.049999950000001014,
          "durationTicks": 21,
          "midi": 42,
          "name": "F#2",
          "ticks": 3075,
          "time": 7.32142125,
          "velocity": 0.6141732283464567
        },
        {
          "duration": 0.049999950000000126,
          "durationTicks": 21,
          "midi": 42,
          "name": "F#2",
          "ticks": 3120,
          "time": 7.428564000000001,
          "velocity": 0.6141732283464567
        },
        {
          "duration": 0.1119046499999996,
          "durationTicks": 47,
          "midi": 36,
          "name": "C2",
          "ticks": 3120,
          "time": 7.428564000000001,
          "velocity": 0.8503937007874016
        },
        {
          "duration": 0.049999950000000126,
          "durationTicks": 21,
          "midi": 46,
          "name": "A#2",
          "ticks": 3195,
          "time": 7.607135250000001,
          "velocity": 0.6141732283464567
        },
        {
          "duration": 0.06666660000000046,
          "durationTicks": 28,
          "midi": 40,
          "name": "E2",
          "ticks": 3195,
          "time": 7.607135250000001,
          "velocity": 0.8582677165354331
        },
        {
          "duration": 0.049999950000001014,
          "durationTicks": 21,
          "midi": 42,
          "name": "F#2",
          "ticks": 3240,
          "time": 7.714278,
          "velocity": 0.6141732283464567
        },
        {
          "duration": 0.06666660000000046,
          "durationTicks": 28,
          "midi": 40,
          "name": "E2",
          "ticks": 3240,
          "time": 7.714278,
          "velocity": 0.8582677165354331
        },
        {
          "duration": 0.049999950000001014,
          "durationTicks": 21,
          "midi": 46,
          "name": "A#2",
          "ticks": 3315,
          "time": 7.89284925,
          "velocity": 0.6141732283464567
        },
        {
          "duration": 0.06666660000000046,
          "durationTicks": 28,
          "midi": 36,
          "name": "C2",
          "ticks": 3315,
          "time": 7.89284925,
          "velocity": 0.8582677165354331
        },
        {
          "duration": 0.049999950000000126,
          "durationTicks": 21,
          "midi": 42,
          "name": "F#2",
          "ticks": 3360,
          "time": 7.999992000000001,
          "velocity": 0.6141732283464567
        },
        {
          "duration": 0.1119046499999996,
          "durationTicks": 47,
          "midi": 36,
          "name": "C2",
          "ticks": 3362,
          "time": 8.0047539,
          "velocity": 0.8503937007874016
        },
        {
          "duration": 0.049999950000000126,
          "durationTicks": 21,
          "midi": 42,
          "name": "F#2",
          "ticks": 3480,
          "time": 8.285706000000001,
          "velocity": 0.6141732283464567
        },
        {
          "duration": 0.06666659999999958,
          "durationTicks": 28,
          "midi": 40,
          "name": "E2",
          "ticks": 3480,
          "time": 8.285706000000001,
          "velocity": 0.8582677165354331
        },
        {
          "duration": 0.049999950000000126,
          "durationTicks": 21,
          "midi": 42,
          "name": "F#2",
          "ticks": 3555,
          "time": 8.46427725,
          "velocity": 0.6141732283464567
        },
        {
          "duration": 0.0499999500000019,
          "durationTicks": 21,
          "midi": 42,
          "name": "F#2",
          "ticks": 3600,
          "time": 8.57142,
          "velocity": 0.6141732283464567
        },
        {
          "duration": 0.11190465000000138,
          "durationTicks": 47,
          "midi": 36,
          "name": "C2",
          "ticks": 3600,
          "time": 8.57142,
          "velocity": 0.8503937007874016
        },
        {
          "duration": 0.049999950000000126,
          "durationTicks": 21,
          "midi": 42,
          "name": "F#2",
          "ticks": 3720,
          "time": 8.857134,
          "velocity": 0.6141732283464567
        },
        {
          "duration": 0.06666660000000135,
          "durationTicks": 28,
          "midi": 40,
          "name": "E2",
          "ticks": 3720,
          "time": 8.857134,
          "velocity": 0.8582677165354331
        },
        {
          "duration": 0.049999950000000126,
          "durationTicks": 21,
          "midi": 46,
          "name": "A#2",
          "ticks": 3795,
          "time": 9.035705250000001,
          "velocity": 0.6141732283464567
        },
        {
          "duration": 0.04999994999999835,
          "durationTicks": 21,
          "midi": 42,
          "name": "F#2",
          "ticks": 3840,
          "time": 9.142848,
          "velocity": 0.6141732283464567
        },
        {
          "duration": 0.1119046499999996,
          "durationTicks": 47,
          "midi": 36,
          "name": "C2",
          "ticks": 3840,
          "time": 9.142848,
          "velocity": 0.8503937007874016
        },
        {
          "duration": 0.049999950000000126,
          "durationTicks": 21,
          "midi": 42,
          "name": "F#2",
          "ticks": 3915,
          "time": 9.32141925,
          "velocity": 0.6141732283464567
        },
        {
          "duration": 0.04999994999999835,
          "durationTicks": 21,
          "midi": 42,
          "name": "F#2",
          "ticks": 3960,
          "time": 9.428562000000001,
          "velocity": 0.6141732283464567
        },
        {
          "duration": 0.06666659999999958,
          "durationTicks": 28,
          "midi": 40,
          "name": "E2",
          "ticks": 3960,
          "time": 9.428562000000001,
          "velocity": 0.8582677165354331
        },
        {
          "duration": 0.033333300000000676,
          "durationTicks": 14,
          "midi": 40,
          "name": "E2",
          "ticks": 4020,
          "time": 9.571419,
          "velocity": 0.4645669291338583
        },
        {
          "duration": 0.033333300000000676,
          "durationTicks": 14,
          "midi": 40,
          "name": "E2",
          "ticks": 4035,
          "time": 9.60713325,
          "velocity": 0.4645669291338583
        },
        {
          "duration": 0.049999950000000126,
          "durationTicks": 21,
          "midi": 42,
          "name": "F#2",
          "ticks": 4035,
          "time": 9.60713325,
          "velocity": 0.6141732283464567
        },
        {
          "duration": 0.033333300000000676,
          "durationTicks": 14,
          "midi": 40,
          "name": "E2",
          "ticks": 4050,
          "time": 9.6428475,
          "velocity": 0.6220472440944882
        },
        {
          "duration": 0.033333300000000676,
          "durationTicks": 14,
          "midi": 40,
          "name": "E2",
          "ticks": 4065,
          "time": 9.67856175,
          "velocity": 0.6220472440944882
        },
        {
          "duration": 0.0333332999999989,
          "durationTicks": 14,
          "midi": 40,
          "name": "E2",
          "ticks": 4080,
          "time": 9.714276000000002,
          "velocity": 0.7007874015748031
        },
        {
          "duration": 0.04999994999999835,
          "durationTicks": 21,
          "midi": 42,
          "name": "F#2",
          "ticks": 4080,
          "time": 9.714276000000002,
          "velocity": 0.6141732283464567
        },
        {
          "duration": 0.1119046499999996,
          "durationTicks": 47,
          "midi": 36,
          "name": "C2",
          "ticks": 4080,
          "time": 9.714276000000002,
          "velocity": 0.8503937007874016
        },
        {
          "duration": 0.033333300000000676,
          "durationTicks": 14,
          "midi": 40,
          "name": "E2",
          "ticks": 4155,
          "time": 9.89284725,
          "velocity": 0.7007874015748031
        },
        {
          "duration": 0.04999994999999835,
          "durationTicks": 21,
          "midi": 46,
          "name": "A#2",
          "ticks": 4155,
          "time": 9.89284725,
          "velocity": 0.6141732283464567
        },
        {
          "duration": 0.10476180000000035,
          "durationTicks": 44,
          "midi": 45,
          "name": "A2",
          "ticks": 4200,
          "time": 9.99999,
          "velocity": 0.8661417322834646
        },
        {
          "duration": 0.05714280000000116,
          "durationTicks": 24,
          "midi": 55,
          "name": "G3",
          "ticks": 4200,
          "time": 9.99999,
          "velocity": 0.6614173228346457
        },
        {
          "duration": 0.06666660000000135,
          "durationTicks": 28,
          "midi": 36,
          "name": "C2",
          "ticks": 4200,
          "time": 9.99999,
          "velocity": 0.8582677165354331
        },
        {
          "duration": 0.049999950000000126,
          "durationTicks": 21,
          "midi": 42,
          "name": "F#2",
          "ticks": 4200,
          "time": 9.99999,
          "velocity": 0.6929133858267716
        },
        {
          "duration": 0.06666659999999958,
          "durationTicks": 28,
          "midi": 40,
          "name": "E2",
          "ticks": 4275,
          "time": 10.178561250000001,
          "velocity": 0.8582677165354331
        },
        {
          "duration": 0.04999994999999835,
          "durationTicks": 21,
          "midi": 46,
          "name": "A#2",
          "ticks": 4275,
          "time": 10.178561250000001,
          "velocity": 0.6141732283464567
        },
        {
          "duration": 0.08333324999999903,
          "durationTicks": 35,
          "midi": 57,
          "name": "A3",
          "ticks": 4320,
          "time": 10.285704,
          "velocity": 0.6929133858267716
        },
        {
          "duration": 0.04999994999999835,
          "durationTicks": 21,
          "midi": 42,
          "name": "F#2",
          "ticks": 4320,
          "time": 10.285704,
          "velocity": 0.6141732283464567
        },
        {
          "duration": 0.1119046499999996,
          "durationTicks": 47,
          "midi": 36,
          "name": "C2",
          "ticks": 4322,
          "time": 10.290465900000001,
          "velocity": 0.8503937007874016
        },
        {
          "duration": 0.04999994999999835,
          "durationTicks": 21,
          "midi": 42,
          "name": "F#2",
          "ticks": 4440,
          "time": 10.571418000000001,
          "velocity": 0.6141732283464567
        },
        {
          "duration": 0.06666659999999958,
          "durationTicks": 28,
          "midi": 40,
          "name": "E2",
          "ticks": 4440,
          "time": 10.571418000000001,
          "velocity": 0.8582677165354331
        },
        {
          "duration": 0.049999950000000126,
          "durationTicks": 21,
          "midi": 42,
          "name": "F#2",
          "ticks": 4515,
          "time": 10.74998925,
          "velocity": 0.6141732283464567
        },
        {
          "duration": 0.049999950000000126,
          "durationTicks": 21,
          "midi": 42,
          "name": "F#2",
          "ticks": 4560,
          "time": 10.857132,
          "velocity": 0.6141732283464567
        },
        {
          "duration": 0.11190465000000138,
          "durationTicks": 47,
          "midi": 36,
          "name": "C2",
          "ticks": 4560,
          "time": 10.857132,
          "velocity": 0.8503937007874016
        },
        {
          "duration": 0.049999950000000126,
          "durationTicks": 21,
          "midi": 42,
          "name": "F#2",
          "ticks": 4680,
          "time": 11.142846,
          "velocity": 0.6141732283464567
        },
        {
          "duration": 0.06666660000000135,
          "durationTicks": 28,
          "midi": 40,
          "name": "E2",
          "ticks": 4680,
          "time": 11.142846,
          "velocity": 0.8582677165354331
        },
        {
          "duration": 0.04999994999999835,
          "durationTicks": 21,
          "midi": 42,
          "name": "F#2",
          "ticks": 4800,
          "time": 11.428560000000001,
          "velocity": 0.6141732283464567
        },
        {
          "duration": 0.1119046499999996,
          "durationTicks": 47,
          "midi": 36,
          "name": "C2",
          "ticks": 4800,
          "time": 11.428560000000001,
          "velocity": 0.8503937007874016
        },
        {
          "duration": 0.049999950000000126,
          "durationTicks": 21,
          "midi": 42,
          "name": "F#2",
          "ticks": 4875,
          "time": 11.60713125,
          "velocity": 0.6141732283464567
        },
        {
          "duration": 0.04999994999999835,
          "durationTicks": 21,
          "midi": 42,
          "name": "F#2",
          "ticks": 4920,
          "time": 11.714274000000001,
          "velocity": 0.6141732283464567
        },
        {
          "duration": 0.06666659999999958,
          "durationTicks": 28,
          "midi": 40,
          "name": "E2",
          "ticks": 4920,
          "time": 11.714274000000001,
          "velocity": 0.8582677165354331
        },
        {
          "duration": 0.049999950000000126,
          "durationTicks": 21,
          "midi": 42,
          "name": "F#2",
          "ticks": 4995,
          "time": 11.89284525,
          "velocity": 0.6141732283464567
        },
        {
          "duration": 0.04999994999999835,
          "durationTicks": 21,
          "midi": 42,
          "name": "F#2",
          "ticks": 5040,
          "time": 11.999988000000002,
          "velocity": 0.6141732283464567
        },
        {
          "duration": 0.1119046499999996,
          "durationTicks": 47,
          "midi": 36,
          "name": "C2",
          "ticks": 5040,
          "time": 11.999988000000002,
          "velocity": 0.8503937007874016
        },
        {
          "duration": 0.04999994999999835,
          "durationTicks": 21,
          "midi": 46,
          "name": "A#2",
          "ticks": 5115,
          "time": 12.178559250000001,
          "velocity": 0.6141732283464567
        },
        {
          "duration": 0.06666659999999958,
          "durationTicks": 28,
          "midi": 40,
          "name": "E2",
          "ticks": 5115,
          "time": 12.178559250000001,
          "velocity": 0.8582677165354331
        },
        {
          "duration": 0.049999950000000126,
          "durationTicks": 21,
          "midi": 42,
          "name": "F#2",
          "ticks": 5160,
          "time": 12.285702,
          "velocity": 0.6141732283464567
        },
        {
          "duration": 0.06666660000000135,
          "durationTicks": 28,
          "midi": 40,
          "name": "E2",
          "ticks": 5160,
          "time": 12.285702,
          "velocity": 0.8582677165354331
        },
        {
          "duration": 0.04999994999999835,
          "durationTicks": 21,
          "midi": 46,
          "name": "A#2",
          "ticks": 5235,
          "time": 12.464273250000002,
          "velocity": 0.6141732283464567
        },
        {
          "duration": 0.06666659999999958,
          "durationTicks": 28,
          "midi": 36,
          "name": "C2",
          "ticks": 5235,
          "time": 12.464273250000002,
          "velocity": 0.8582677165354331
        },
        {
          "duration": 0.04999994999999835,
          "durationTicks": 21,
          "midi": 42,
          "name": "F#2",
          "ticks": 5280,
          "time": 12.571416000000001,
          "velocity": 0.6141732283464567
        },
        {
          "duration": 0.1119046499999996,
          "durationTicks": 47,
          "midi": 36,
          "name": "C2",
          "ticks": 5282,
          "time": 12.576177900000001,
          "velocity": 0.8503937007874016
        },
        {
          "duration": 0.04999994999999835,
          "durationTicks": 21,
          "midi": 42,
          "name": "F#2",
          "ticks": 5400,
          "time": 12.857130000000002,
          "velocity": 0.6141732283464567
        },
        {
          "duration": 0.06666659999999958,
          "durationTicks": 28,
          "midi": 40,
          "name": "E2",
          "ticks": 5400,
          "time": 12.857130000000002,
          "velocity": 0.8582677165354331
        },
        {
          "duration": 0.049999950000000126,
          "durationTicks": 21,
          "midi": 42,
          "name": "F#2",
          "ticks": 5475,
          "time": 13.03570125,
          "velocity": 0.6141732283464567
        },
        {
          "duration": 0.049999950000000126,
          "durationTicks": 21,
          "midi": 42,
          "name": "F#2",
          "ticks": 5520,
          "time": 13.142844,
          "velocity": 0.6141732283464567
        },
        {
          "duration": 0.11190465000000138,
          "durationTicks": 47,
          "midi": 36,
          "name": "C2",
          "ticks": 5520,
          "time": 13.142844,
          "velocity": 0.8503937007874016
        },
        {
          "duration": 0.049999950000000126,
          "durationTicks": 21,
          "midi": 42,
          "name": "F#2",
          "ticks": 5640,
          "time": 13.428558,
          "velocity": 0.6141732283464567
        },
        {
          "duration": 0.06666660000000135,
          "durationTicks": 28,
          "midi": 40,
          "name": "E2",
          "ticks": 5640,
          "time": 13.428558,
          "velocity": 0.8582677165354331
        },
        {
          "duration": 0.04999994999999835,
          "durationTicks": 21,
          "midi": 46,
          "name": "A#2",
          "ticks": 5715,
          "time": 13.607129250000002,
          "velocity": 0.6141732283464567
        },
        {
          "duration": 0.04999994999999835,
          "durationTicks": 21,
          "midi": 42,
          "name": "F#2",
          "ticks": 5760,
          "time": 13.714272000000001,
          "velocity": 0.6141732283464567
        },
        {
          "duration": 0.1119046499999996,
          "durationTicks": 47,
          "midi": 36,
          "name": "C2",
          "ticks": 5760,
          "time": 13.714272000000001,
          "velocity": 0.8503937007874016
        },
        {
          "duration": 0.049999950000000126,
          "durationTicks": 21,
          "midi": 42,
          "name": "F#2",
          "ticks": 5835,
          "time": 13.89284325,
          "velocity": 0.6141732283464567
        },
        {
          "duration": 0.04999994999999835,
          "durationTicks": 21,
          "midi": 42,
          "name": "F#2",
          "ticks": 5880,
          "time": 13.999986000000002,
          "velocity": 0.6141732283464567
        },
        {
          "duration": 0.06666659999999958,
          "durationTicks": 28,
          "midi": 40,
          "name": "E2",
          "ticks": 5880,
          "time": 13.999986000000002,
          "velocity": 0.8582677165354331
        },
        {
          "duration": 0.049999950000000126,
          "durationTicks": 21,
          "midi": 42,
          "name": "F#2",
          "ticks": 5955,
          "time": 14.17855725,
          "velocity": 0.6141732283464567
        },
        {
          "duration": 0.04999994999999835,
          "durationTicks": 21,
          "midi": 42,
          "name": "F#2",
          "ticks": 6000,
          "time": 14.285700000000002,
          "velocity": 0.6141732283464567
        },
        {
          "duration": 0.1119046499999996,
          "durationTicks": 47,
          "midi": 36,
          "name": "C2",
          "ticks": 6000,
          "time": 14.285700000000002,
          "velocity": 0.8503937007874016
        },
        {
          "duration": 0.033333300000000676,
          "durationTicks": 14,
          "midi": 40,
          "name": "E2",
          "ticks": 6060,
          "time": 14.428557000000001,
          "velocity": 0.3858267716535433
        },
        {
          "duration": 0.033333300000000676,
          "durationTicks": 14,
          "midi": 40,
          "name": "E2",
          "ticks": 6075,
          "time": 14.464271250000001,
          "velocity": 0.3858267716535433
        },
        {
          "duration": 0.04999994999999835,
          "durationTicks": 21,
          "midi": 46,
          "name": "A#2",
          "ticks": 6075,
          "time": 14.464271250000001,
          "velocity": 0.6141732283464567
        },
        {
          "duration": 0.033333300000000676,
          "durationTicks": 14,
          "midi": 40,
          "name": "E2",
          "ticks": 6090,
          "time": 14.499985500000001,
          "velocity": 0.5433070866141733
        },
        {
          "duration": 0.033333300000000676,
          "durationTicks": 14,
          "midi": 40,
          "name": "E2",
          "ticks": 6105,
          "time": 14.535699750000001,
          "velocity": 0.6220472440944882
        },
        {
          "duration": 0.033333300000000676,
          "durationTicks": 14,
          "midi": 40,
          "name": "E2",
          "ticks": 6120,
          "time": 14.571414,
          "velocity": 0.7007874015748031
        },
        {
          "duration": 0.06666660000000135,
          "durationTicks": 28,
          "midi": 36,
          "name": "C2",
          "ticks": 6120,
          "time": 14.571414,
          "velocity": 0.8582677165354331
        },
        {
          "duration": 0.049999950000000126,
          "durationTicks": 21,
          "midi": 42,
          "name": "F#2",
          "ticks": 6120,
          "time": 14.571414,
          "velocity": 0.6141732283464567
        },
        {
          "duration": 0.06666659999999958,
          "durationTicks": 28,
          "midi": 40,
          "name": "E2",
          "ticks": 6195,
          "time": 14.749985250000002,
          "velocity": 0.8582677165354331
        },
        {
          "duration": 0.04999994999999835,
          "durationTicks": 21,
          "midi": 46,
          "name": "A#2",
          "ticks": 6195,
          "time": 14.749985250000002,
          "velocity": 0.6141732283464567
        },
        {
          "duration": 0.04999994999999835,
          "durationTicks": 21,
          "midi": 42,
          "name": "F#2",
          "ticks": 6240,
          "time": 14.857128000000001,
          "velocity": 0.6141732283464567
        },
        {
          "duration": 0.1119046499999996,
          "durationTicks": 47,
          "midi": 36,
          "name": "C2",
          "ticks": 6242,
          "time": 14.861889900000001,
          "velocity": 0.8503937007874016
        },
        {
          "duration": 0.04999994999999835,
          "durationTicks": 21,
          "midi": 42,
          "name": "F#2",
          "ticks": 6360,
          "time": 15.142842000000002,
          "velocity": 0.6141732283464567
        },
        {
          "duration": 0.06666659999999958,
          "durationTicks": 28,
          "midi": 40,
          "name": "E2",
          "ticks": 6360,
          "time": 15.142842000000002,
          "velocity": 0.8582677165354331
        },
        {
          "duration": 0.049999950000000126,
          "durationTicks": 21,
          "midi": 42,
          "name": "F#2",
          "ticks": 6435,
          "time": 15.32141325,
          "velocity": 0.6141732283464567
        },
        {
          "duration": 0.049999950000000126,
          "durationTicks": 21,
          "midi": 42,
          "name": "F#2",
          "ticks": 6480,
          "time": 15.428556,
          "velocity": 0.6141732283464567
        },
        {
          "duration": 0.11190465000000138,
          "durationTicks": 47,
          "midi": 36,
          "name": "C2",
          "ticks": 6480,
          "time": 15.428556,
          "velocity": 0.8503937007874016
        },
        {
          "duration": 0.049999950000000126,
          "durationTicks": 21,
          "midi": 42,
          "name": "F#2",
          "ticks": 6600,
          "time": 15.71427,
          "velocity": 0.6141732283464567
        },
        {
          "duration": 0.06666660000000135,
          "durationTicks": 28,
          "midi": 40,
          "name": "E2",
          "ticks": 6600,
          "time": 15.71427,
          "velocity": 0.8582677165354331
        },
        {
          "duration": 0.049999950000000126,
          "durationTicks": 21,
          "midi": 42,
          "name": "F#2",
          "ticks": 6720,
          "time": 15.999984000000001,
          "velocity": 0.6141732283464567
        },
        {
          "duration": 0.1119046499999996,
          "durationTicks": 47,
          "midi": 36,
          "name": "C2",
          "ticks": 6720,
          "time": 15.999984000000001,
          "velocity": 0.8503937007874016
        },
        {
          "duration": 0.049999949999996574,
          "durationTicks": 21,
          "midi": 42,
          "name": "F#2",
          "ticks": 6795,
          "time": 16.178555250000002,
          "velocity": 0.6141732283464567
        },
        {
          "duration": 0.049999950000000126,
          "durationTicks": 21,
          "midi": 42,
          "name": "F#2",
          "ticks": 6840,
          "time": 16.285698,
          "velocity": 0.6141732283464567
        },
        {
          "duration": 0.06666660000000135,
          "durationTicks": 28,
          "midi": 40,
          "name": "E2",
          "ticks": 6840,
          "time": 16.285698,
          "velocity": 0.8582677165354331
        },
        {
          "duration": 0.049999950000000126,
          "durationTicks": 21,
          "midi": 42,
          "name": "F#2",
          "ticks": 6915,
          "time": 16.46426925,
          "velocity": 0.6141732283464567
        },
        {
          "duration": 0.049999949999996574,
          "durationTicks": 21,
          "midi": 42,
          "name": "F#2",
          "ticks": 6960,
          "time": 16.571412000000002,
          "velocity": 0.6141732283464567
        },
        {
          "duration": 0.1119046499999996,
          "durationTicks": 47,
          "midi": 36,
          "name": "C2",
          "ticks": 6960,
          "time": 16.571412000000002,
          "velocity": 0.8503937007874016
        },
        {
          "duration": 0.049999950000000126,
          "durationTicks": 21,
          "midi": 46,
          "name": "A#2",
          "ticks": 7035,
          "time": 16.74998325,
          "velocity": 0.6141732283464567
        },
        {
          "duration": 0.06666660000000135,
          "durationTicks": 28,
          "midi": 40,
          "name": "E2",
          "ticks": 7035,
          "time": 16.74998325,
          "velocity": 0.8582677165354331
        },
        {
          "duration": 0.049999950000000126,
          "durationTicks": 21,
          "midi": 42,
          "name": "F#2",
          "ticks": 7080,
          "time": 16.857126,
          "velocity": 0.6141732283464567
        },
        {
          "duration": 0.06666660000000135,
          "durationTicks": 28,
          "midi": 40,
          "name": "E2",
          "ticks": 7080,
          "time": 16.857126,
          "velocity": 0.8582677165354331
        },
        {
          "duration": 0.049999950000000126,
          "durationTicks": 21,
          "midi": 46,
          "name": "A#2",
          "ticks": 7155,
          "time": 17.035697250000002,
          "velocity": 0.6141732283464567
        },
        {
          "duration": 0.06666660000000135,
          "durationTicks": 28,
          "midi": 36,
          "name": "C2",
          "ticks": 7155,
          "time": 17.035697250000002,
          "velocity": 0.8582677165354331
        },
        {
          "duration": 0.049999950000000126,
          "durationTicks": 21,
          "midi": 42,
          "name": "F#2",
          "ticks": 7200,
          "time": 17.14284,
          "velocity": 0.6141732283464567
        },
        {
          "duration": 0.1119046499999996,
          "durationTicks": 47,
          "midi": 36,
          "name": "C2",
          "ticks": 7202,
          "time": 17.1476019,
          "velocity": 0.8503937007874016
        },
        {
          "duration": 0.049999950000000126,
          "durationTicks": 21,
          "midi": 42,
          "name": "F#2",
          "ticks": 7320,
          "time": 17.428554000000002,
          "velocity": 0.6141732283464567
        },
        {
          "duration": 0.06666660000000135,
          "durationTicks": 28,
          "midi": 40,
          "name": "E2",
          "ticks": 7320,
          "time": 17.428554000000002,
          "velocity": 0.8582677165354331
        },
        {
          "duration": 0.049999949999996574,
          "durationTicks": 21,
          "midi": 42,
          "name": "F#2",
          "ticks": 7395,
          "time": 17.607125250000003,
          "velocity": 0.6141732283464567
        },
        {
          "duration": 0.049999950000000126,
          "durationTicks": 21,
          "midi": 42,
          "name": "F#2",
          "ticks": 7440,
          "time": 17.714268,
          "velocity": 0.6141732283464567
        },
        {
          "duration": 0.1119046499999996,
          "durationTicks": 47,
          "midi": 36,
          "name": "C2",
          "ticks": 7440,
          "time": 17.714268,
          "velocity": 0.8503937007874016
        },
        {
          "duration": 0.049999949999996574,
          "durationTicks": 21,
          "midi": 42,
          "name": "F#2",
          "ticks": 7560,
          "time": 17.999982000000003,
          "velocity": 0.6141732283464567
        },
        {
          "duration": 0.0666665999999978,
          "durationTicks": 28,
          "midi": 40,
          "name": "E2",
          "ticks": 7560,
          "time": 17.999982000000003,
          "velocity": 0.8582677165354331
        },
        {
          "duration": 0.049999950000000126,
          "durationTicks": 21,
          "midi": 46,
          "name": "A#2",
          "ticks": 7635,
          "time": 18.17855325,
          "velocity": 0.6141732283464567
        },
        {
          "duration": 0.049999950000000126,
          "durationTicks": 21,
          "midi": 42,
          "name": "F#2",
          "ticks": 7680,
          "time": 18.285696,
          "velocity": 0.6141732283464567
        },
        {
          "duration": 0.1119046499999996,
          "durationTicks": 47,
          "midi": 36,
          "name": "C2",
          "ticks": 7680,
          "time": 18.285696,
          "velocity": 0.8503937007874016
        },
        {
          "duration": 0.049999949999996574,
          "durationTicks": 21,
          "midi": 42,
          "name": "F#2",
          "ticks": 7755,
          "time": 18.464267250000002,
          "velocity": 0.6141732283464567
        },
        {
          "duration": 0.049999950000000126,
          "durationTicks": 21,
          "midi": 42,
          "name": "F#2",
          "ticks": 7800,
          "time": 18.57141,
          "velocity": 0.6141732283464567
        },
        {
          "duration": 0.06666660000000135,
          "durationTicks": 28,
          "midi": 40,
          "name": "E2",
          "ticks": 7800,
          "time": 18.57141,
          "velocity": 0.8582677165354331
        },
        {
          "duration": 0.03333329999999535,
          "durationTicks": 14,
          "midi": 40,
          "name": "E2",
          "ticks": 7860,
          "time": 18.714267000000003,
          "velocity": 0.4645669291338583
        },
        {
          "duration": 0.0333332999999989,
          "durationTicks": 14,
          "midi": 40,
          "name": "E2",
          "ticks": 7875,
          "time": 18.74998125,
          "velocity": 0.4645669291338583
        },
        {
          "duration": 0.049999950000000126,
          "durationTicks": 21,
          "midi": 42,
          "name": "F#2",
          "ticks": 7875,
          "time": 18.74998125,
          "velocity": 0.6141732283464567
        },
        {
          "duration": 0.03333329999999535,
          "durationTicks": 14,
          "midi": 40,
          "name": "E2",
          "ticks": 7890,
          "time": 18.785695500000003,
          "velocity": 0.6220472440944882
        },
        {
          "duration": 0.0333332999999989,
          "durationTicks": 14,
          "midi": 40,
          "name": "E2",
          "ticks": 7905,
          "time": 18.82140975,
          "velocity": 0.6220472440944882
        },
        {
          "duration": 0.049999949999996574,
          "durationTicks": 21,
          "midi": 42,
          "name": "F#2",
          "ticks": 7920,
          "time": 18.857124000000002,
          "velocity": 0.6141732283464567
        },
        {
          "duration": 0.0333332999999989,
          "durationTicks": 14,
          "midi": 40,
          "name": "E2",
          "ticks": 7920,
          "time": 18.857124000000002,
          "velocity": 0.7007874015748031
        },
        {
          "duration": 0.1119046499999996,
          "durationTicks": 47,
          "midi": 36,
          "name": "C2",
          "ticks": 7920,
          "time": 18.857124000000002,
          "velocity": 0.8503937007874016
        },
        {
          "duration": 0.049999950000000126,
          "durationTicks": 21,
          "midi": 42,
          "name": "F#2",
          "ticks": 7965,
          "time": 18.96426675,
          "velocity": 0.6141732283464567
        },
        {
          "duration": 0.049999950000000126,
          "durationTicks": 21,
          "midi": 46,
          "name": "A#2",
          "ticks": 7995,
          "time": 19.03569525,
          "velocity": 0.6141732283464567
        },
        {
          "duration": 0.0333332999999989,
          "durationTicks": 14,
          "midi": 40,
          "name": "E2",
          "ticks": 7995,
          "time": 19.03569525,
          "velocity": 0.7007874015748031
        },
        {
          "duration": 0.06666660000000135,
          "durationTicks": 28,
          "midi": 36,
          "name": "C2",
          "ticks": 8040,
          "time": 19.142838,
          "velocity": 0.8582677165354331
        },
        {
          "duration": 0.049999950000000126,
          "durationTicks": 21,
          "midi": 42,
          "name": "F#2",
          "ticks": 8040,
          "time": 19.142838,
          "velocity": 0.6929133858267716
        },
        {
          "duration": 0.06666660000000135,
          "durationTicks": 28,
          "midi": 40,
          "name": "E2",
          "ticks": 8115,
          "time": 19.321409250000002,
          "velocity": 0.8582677165354331
        },
        {
          "duration": 0.049999950000000126,
          "durationTicks": 21,
          "midi": 46,
          "name": "A#2",
          "ticks": 8115,
          "time": 19.321409250000002,
          "velocity": 0.6141732283464567
        },
        {
          "duration": 0.049999949999996574,
          "durationTicks": 21,
          "midi": 42,
          "name": "F#2",
          "ticks": 8160,
          "time": 19.428552000000003,
          "velocity": 0.6141732283464567
        },
        {
          "duration": 0.1119046499999996,
          "durationTicks": 47,
          "midi": 36,
          "name": "C2",
          "ticks": 8162,
          "time": 19.4333139,
          "velocity": 0.8503937007874016
        },
        {
          "duration": 0.049999950000000126,
          "durationTicks": 21,
          "midi": 42,
          "name": "F#2",
          "ticks": 8280,
          "time": 19.714266000000002,
          "velocity": 0.6141732283464567
        },
        {
          "duration": 0.06666660000000135,
          "durationTicks": 28,
          "midi": 40,
          "name": "E2",
          "ticks": 8280,
          "time": 19.714266000000002,
          "velocity": 0.8582677165354331
        },
        {
          "duration": 0.049999949999996574,
          "durationTicks": 21,
          "midi": 42,
          "name": "F#2",
          "ticks": 8355,
          "time": 19.892837250000003,
          "velocity": 0.6141732283464567
        },
        {
          "duration": 0.049999950000000126,
          "durationTicks": 21,
          "midi": 42,
          "name": "F#2",
          "ticks": 8400,
          "time": 19.99998,
          "velocity": 0.6141732283464567
        },
        {
          "duration": 0.1119046499999996,
          "durationTicks": 47,
          "midi": 36,
          "name": "C2",
          "ticks": 8400,
          "time": 19.99998,
          "velocity": 0.8503937007874016
        },
        {
          "duration": 0.049999949999996574,
          "durationTicks": 21,
          "midi": 42,
          "name": "F#2",
          "ticks": 8520,
          "time": 20.285694000000003,
          "velocity": 0.6141732283464567
        },
        {
          "duration": 0.0666665999999978,
          "durationTicks": 28,
          "midi": 40,
          "name": "E2",
          "ticks": 8520,
          "time": 20.285694000000003,
          "velocity": 0.8582677165354331
        },
        {
          "duration": 0.049999950000000126,
          "durationTicks": 21,
          "midi": 46,
          "name": "A#2",
          "ticks": 8595,
          "time": 20.46426525,
          "velocity": 0.6141732283464567
        },
        {
          "duration": 0.049999950000000126,
          "durationTicks": 21,
          "midi": 50,
          "name": "D3",
          "ticks": 8640,
          "time": 20.571408,
          "velocity": 0.7716535433070866
        },
        {
          "duration": 0.049999950000000126,
          "durationTicks": 21,
          "midi": 42,
          "name": "F#2",
          "ticks": 8640,
          "time": 20.571408,
          "velocity": 0.6141732283464567
        },
        {
          "duration": 0.1119046499999996,
          "durationTicks": 47,
          "midi": 36,
          "name": "C2",
          "ticks": 8640,
          "time": 20.571408,
          "velocity": 0.8503937007874016
        },
        {
          "duration": 0.049999949999996574,
          "durationTicks": 21,
          "midi": 50,
          "name": "D3",
          "ticks": 8715,
          "time": 20.749979250000003,
          "velocity": 0.7716535433070866
        },
        {
          "duration": 0.049999949999996574,
          "durationTicks": 21,
          "midi": 42,
          "name": "F#2",
          "ticks": 8715,
          "time": 20.749979250000003,
          "velocity": 0.6141732283464567
        },
        {
          "duration": 0.049999950000000126,
          "durationTicks": 21,
          "midi": 42,
          "name": "F#2",
          "ticks": 8760,
          "time": 20.857122,
          "velocity": 0.6141732283464567
        },
        {
          "duration": 0.06666660000000135,
          "durationTicks": 28,
          "midi": 40,
          "name": "E2",
          "ticks": 8760,
          "time": 20.857122,
          "velocity": 0.8582677165354331
        },
        {
          "duration": 0.049999950000000126,
          "durationTicks": 21,
          "midi": 48,
          "name": "C3",
          "ticks": 8805,
          "time": 20.96426475,
          "velocity": 0.7716535433070866
        },
        {
          "duration": 0.049999950000000126,
          "durationTicks": 21,
          "midi": 42,
          "name": "F#2",
          "ticks": 8835,
          "time": 21.03569325,
          "velocity": 0.6141732283464567
        },
        {
          "duration": 0.049999949999996574,
          "durationTicks": 21,
          "midi": 47,
          "name": "B2",
          "ticks": 8850,
          "time": 21.071407500000003,
          "velocity": 0.7716535433070866
        },
        {
          "duration": 0.1119046499999996,
          "durationTicks": 47,
          "midi": 36,
          "name": "C2",
          "ticks": 8880,
          "time": 21.142836000000003,
          "velocity": 0.8503937007874016
        },
        {
          "duration": 0.049999949999996574,
          "durationTicks": 21,
          "midi": 45,
          "name": "A2",
          "ticks": 8880,
          "time": 21.142836000000003,
          "velocity": 0.7716535433070866
        },
        {
          "duration": 0.0333332999999989,
          "durationTicks": 14,
          "midi": 40,
          "name": "E2",
          "ticks": 8880,
          "time": 21.142836000000003,
          "velocity": 0.7007874015748031
        },
        {
          "duration": 0.049999949999996574,
          "durationTicks": 21,
          "midi": 42,
          "name": "F#2",
          "ticks": 8880,
          "time": 21.142836000000003,
          "velocity": 0.6141732283464567
        },
        {
          "duration": 0.049999950000000126,
          "durationTicks": 21,
          "midi": 45,
          "name": "A2",
          "ticks": 8955,
          "time": 21.32140725,
          "velocity": 0.7716535433070866
        },
        {
          "duration": 0.0333332999999989,
          "durationTicks": 14,
          "midi": 40,
          "name": "E2",
          "ticks": 8955,
          "time": 21.32140725,
          "velocity": 0.7007874015748031
        },
        {
          "duration": 0.049999950000000126,
          "durationTicks": 21,
          "midi": 46,
          "name": "A#2",
          "ticks": 8955,
          "time": 21.32140725,
          "velocity": 0.6141732283464567
        },
        {
          "duration": 0.049999950000000126,
          "durationTicks": 21,
          "midi": 43,
          "name": "G2",
          "ticks": 9000,
          "time": 21.42855,
          "velocity": 0.6929133858267716
        },
        {
          "duration": 0.06666660000000135,
          "durationTicks": 28,
          "midi": 36,
          "name": "C2",
          "ticks": 9000,
          "time": 21.42855,
          "velocity": 0.8582677165354331
        },
        {
          "duration": 0.049999950000000126,
          "durationTicks": 21,
          "midi": 42,
          "name": "F#2",
          "ticks": 9000,
          "time": 21.42855,
          "velocity": 0.6929133858267716
        },
        {
          "duration": 0.06666660000000135,
          "durationTicks": 28,
          "midi": 40,
          "name": "E2",
          "ticks": 9075,
          "time": 21.607121250000002,
          "velocity": 0.8582677165354331
        },
        {
          "duration": 0.049999950000000126,
          "durationTicks": 21,
          "midi": 46,
          "name": "A#2",
          "ticks": 9075,
          "time": 21.607121250000002,
          "velocity": 0.6141732283464567
        },
        {
          "duration": 0.049999950000000126,
          "durationTicks": 21,
          "midi": 57,
          "name": "A3",
          "ticks": 9120,
          "time": 21.714264,
          "velocity": 0.7716535433070866
        },
        {
          "duration": 0.049999950000000126,
          "durationTicks": 21,
          "midi": 42,
          "name": "F#2",
          "ticks": 9120,
          "time": 21.714264,
          "velocity": 0.6141732283464567
        },
        {
          "duration": 0.06666660000000135,
          "durationTicks": 28,
          "midi": 51,
          "name": "D#3",
          "ticks": 9120,
          "time": 21.714264,
          "velocity": 0.7795275590551181
        },
        {
          "duration": 0.11190465000000316,
          "durationTicks": 47,
          "midi": 36,
          "name": "C2",
          "ticks": 9120,
          "time": 21.714264,
          "velocity": 0.8503937007874016
        },
        {
          "duration": 0.06666660000000135,
          "durationTicks": 28,
          "midi": 51,
          "name": "D#3",
          "ticks": 9240,
          "time": 21.999978000000002,
          "velocity": 0.7795275590551181
        },
        {
          "duration": 0.06666660000000135,
          "durationTicks": 28,
          "midi": 40,
          "name": "E2",
          "ticks": 9240,
          "time": 21.999978000000002,
          "velocity": 0.8582677165354331
        },
        {
          "duration": 0.049999950000000126,
          "durationTicks": 21,
          "midi": 42,
          "name": "F#2",
          "ticks": 9240,
          "time": 21.999978000000002,
          "velocity": 0.6141732283464567
        },
        {
          "duration": 0.0666665999999978,
          "durationTicks": 28,
          "midi": 51,
          "name": "D#3",
          "ticks": 9315,
          "time": 22.178549250000003,
          "velocity": 0.7795275590551181
        },
        {
          "duration": 0.09523799999999838,
          "durationTicks": 40,
          "midi": 46,
          "name": "A#2",
          "ticks": 9315,
          "time": 22.178549250000003,
          "velocity": 0.5511811023622047
        },
        {
          "duration": 0.06666660000000135,
          "durationTicks": 28,
          "midi": 51,
          "name": "D#3",
          "ticks": 9360,
          "time": 22.285692,
          "velocity": 0.7795275590551181
        },
        {
          "duration": 0.1119046499999996,
          "durationTicks": 47,
          "midi": 36,
          "name": "C2",
          "ticks": 9360,
          "time": 22.285692,
          "velocity": 0.8503937007874016
        },
        {
          "duration": 0.049999950000000126,
          "durationTicks": 21,
          "midi": 42,
          "name": "F#2",
          "ticks": 9360,
          "time": 22.285692,
          "velocity": 0.6141732283464567
        },
        {
          "duration": 0.0666665999999978,
          "durationTicks": 28,
          "midi": 51,
          "name": "D#3",
          "ticks": 9480,
          "time": 22.571406000000003,
          "velocity": 0.7795275590551181
        },
        {
          "duration": 0.0666665999999978,
          "durationTicks": 28,
          "midi": 40,
          "name": "E2",
          "ticks": 9480,
          "time": 22.571406000000003,
          "velocity": 0.8582677165354331
        },
        {
          "duration": 0.049999949999996574,
          "durationTicks": 21,
          "midi": 42,
          "name": "F#2",
          "ticks": 9480,
          "time": 22.571406000000003,
          "velocity": 0.6141732283464567
        },
        {
          "duration": 0.06666660000000135,
          "durationTicks": 28,
          "midi": 51,
          "name": "D#3",
          "ticks": 9555,
          "time": 22.74997725,
          "velocity": 0.7795275590551181
        },
        {
          "duration": 0.06666660000000135,
          "durationTicks": 28,
          "midi": 51,
          "name": "D#3",
          "ticks": 9600,
          "time": 22.857120000000002,
          "velocity": 0.7795275590551181
        },
        {
          "duration": 0.1119046499999996,
          "durationTicks": 47,
          "midi": 36,
          "name": "C2",
          "ticks": 9600,
          "time": 22.857120000000002,
          "velocity": 0.8503937007874016
        },
        {
          "duration": 0.049999950000000126,
          "durationTicks": 21,
          "midi": 42,
          "name": "F#2",
          "ticks": 9600,
          "time": 22.857120000000002,
          "velocity": 0.6141732283464567
        },
        {
          "duration": 0.049999949999996574,
          "durationTicks": 21,
          "midi": 42,
          "name": "F#2",
          "ticks": 9675,
          "time": 23.035691250000003,
          "velocity": 0.6141732283464567
        },
        {
          "duration": 0.06666660000000135,
          "durationTicks": 28,
          "midi": 51,
          "name": "D#3",
          "ticks": 9720,
          "time": 23.142834,
          "velocity": 0.7795275590551181
        },
        {
          "duration": 0.06666660000000135,
          "durationTicks": 28,
          "midi": 40,
          "name": "E2",
          "ticks": 9720,
          "time": 23.142834,
          "velocity": 0.8582677165354331
        },
        {
          "duration": 0.049999950000000126,
          "durationTicks": 21,
          "midi": 42,
          "name": "F#2",
          "ticks": 9720,
          "time": 23.142834,
          "velocity": 0.6141732283464567
        },
        {
          "duration": 0.06666660000000135,
          "durationTicks": 28,
          "midi": 51,
          "name": "D#3",
          "ticks": 9795,
          "time": 23.32140525,
          "velocity": 0.7795275590551181
        },
        {
          "duration": 0.09523799999999838,
          "durationTicks": 40,
          "midi": 46,
          "name": "A#2",
          "ticks": 9795,
          "time": 23.32140525,
          "velocity": 0.5511811023622047
        },
        {
          "duration": 0.0666665999999978,
          "durationTicks": 28,
          "midi": 51,
          "name": "D#3",
          "ticks": 9840,
          "time": 23.428548000000003,
          "velocity": 0.7795275590551181
        },
        {
          "duration": 0.1119046499999996,
          "durationTicks": 47,
          "midi": 36,
          "name": "C2",
          "ticks": 9840,
          "time": 23.428548000000003,
          "velocity": 0.8503937007874016
        },
        {
          "duration": 0.049999949999996574,
          "durationTicks": 21,
          "midi": 42,
          "name": "F#2",
          "ticks": 9840,
          "time": 23.428548000000003,
          "velocity": 0.6141732283464567
        },
        {
          "duration": 0.06666660000000135,
          "durationTicks": 28,
          "midi": 40,
          "name": "E2",
          "ticks": 9915,
          "time": 23.60711925,
          "velocity": 0.8582677165354331
        },
        {
          "duration": 0.06666660000000135,
          "durationTicks": 28,
          "midi": 40,
          "name": "E2",
          "ticks": 9960,
          "time": 23.714262,
          "velocity": 0.8582677165354331
        },
        {
          "duration": 0.06666660000000135,
          "durationTicks": 28,
          "midi": 51,
          "name": "D#3",
          "ticks": 9960,
          "time": 23.714262,
          "velocity": 0.7795275590551181
        },
        {
          "duration": 0.049999950000000126,
          "durationTicks": 21,
          "midi": 42,
          "name": "F#2",
          "ticks": 9960,
          "time": 23.714262,
          "velocity": 0.6141732283464567
        },
        {
          "duration": 0.06666660000000135,
          "durationTicks": 28,
          "midi": 51,
          "name": "D#3",
          "ticks": 10035,
          "time": 23.892833250000002,
          "velocity": 0.7795275590551181
        },
        {
          "duration": 0.0666665999999978,
          "durationTicks": 28,
          "midi": 51,
          "name": "D#3",
          "ticks": 10080,
          "time": 23.999976000000004,
          "velocity": 0.7795275590551181
        },
        {
          "duration": 0.1119046499999996,
          "durationTicks": 47,
          "midi": 36,
          "name": "C2",
          "ticks": 10080,
          "time": 23.999976000000004,
          "velocity": 0.8503937007874016
        },
        {
          "duration": 0.049999949999996574,
          "durationTicks": 21,
          "midi": 42,
          "name": "F#2",
          "ticks": 10080,
          "time": 23.999976000000004,
          "velocity": 0.6141732283464567
        },
        {
          "duration": 0.049999950000000126,
          "durationTicks": 21,
          "midi": 42,
          "name": "F#2",
          "ticks": 10155,
          "time": 24.17854725,
          "velocity": 0.6141732283464567
        },
        {
          "duration": 0.06666660000000135,
          "durationTicks": 28,
          "midi": 51,
          "name": "D#3",
          "ticks": 10200,
          "time": 24.285690000000002,
          "velocity": 0.7795275590551181
        },
        {
          "duration": 0.06666660000000135,
          "durationTicks": 28,
          "midi": 40,
          "name": "E2",
          "ticks": 10200,
          "time": 24.285690000000002,
          "velocity": 0.8582677165354331
        },
        {
          "duration": 0.049999950000000126,
          "durationTicks": 21,
          "midi": 42,
          "name": "F#2",
          "ticks": 10200,
          "time": 24.285690000000002,
          "velocity": 0.6141732283464567
        },
        {
          "duration": 0.0666665999999978,
          "durationTicks": 28,
          "midi": 51,
          "name": "D#3",
          "ticks": 10275,
          "time": 24.464261250000003,
          "velocity": 0.7795275590551181
        },
        {
          "duration": 0.09523799999999838,
          "durationTicks": 40,
          "midi": 46,
          "name": "A#2",
          "ticks": 10275,
          "time": 24.464261250000003,
          "velocity": 0.5511811023622047
        },
        {
          "duration": 0.06666660000000135,
          "durationTicks": 28,
          "midi": 51,
          "name": "D#3",
          "ticks": 10320,
          "time": 24.571404,
          "velocity": 0.7795275590551181
        },
        {
          "duration": 0.1119046499999996,
          "durationTicks": 47,
          "midi": 36,
          "name": "C2",
          "ticks": 10320,
          "time": 24.571404,
          "velocity": 0.8503937007874016
        },
        {
          "duration": 0.049999950000000126,
          "durationTicks": 21,
          "midi": 42,
          "name": "F#2",
          "ticks": 10320,
          "time": 24.571404,
          "velocity": 0.6141732283464567
        },
        {
          "duration": 0.0666665999999978,
          "durationTicks": 28,
          "midi": 51,
          "name": "D#3",
          "ticks": 10440,
          "time": 24.857118000000003,
          "velocity": 0.7795275590551181
        },
        {
          "duration": 0.0666665999999978,
          "durationTicks": 28,
          "midi": 40,
          "name": "E2",
          "ticks": 10440,
          "time": 24.857118000000003,
          "velocity": 0.8582677165354331
        },
        {
          "duration": 0.049999949999996574,
          "durationTicks": 21,
          "midi": 42,
          "name": "F#2",
          "ticks": 10440,
          "time": 24.857118000000003,
          "velocity": 0.6141732283464567
        },
        {
          "duration": 0.06666660000000135,
          "durationTicks": 28,
          "midi": 51,
          "name": "D#3",
          "ticks": 10515,
          "time": 25.03568925,
          "velocity": 0.7795275590551181
        },
        {
          "duration": 0.06666660000000135,
          "durationTicks": 28,
          "midi": 51,
          "name": "D#3",
          "ticks": 10560,
          "time": 25.142832000000002,
          "velocity": 0.7795275590551181
        },
        {
          "duration": 0.1119046499999996,
          "durationTicks": 47,
          "midi": 36,
          "name": "C2",
          "ticks": 10560,
          "time": 25.142832000000002,
          "velocity": 0.8503937007874016
        },
        {
          "duration": 0.049999950000000126,
          "durationTicks": 21,
          "midi": 42,
          "name": "F#2",
          "ticks": 10560,
          "time": 25.142832000000002,
          "velocity": 0.6141732283464567
        },
        {
          "duration": 0.06666660000000135,
          "durationTicks": 28,
          "midi": 51,
          "name": "D#3",
          "ticks": 10680,
          "time": 25.428546,
          "velocity": 0.7795275590551181
        },
        {
          "duration": 0.06666660000000135,
          "durationTicks": 28,
          "midi": 40,
          "name": "E2",
          "ticks": 10680,
          "time": 25.428546,
          "velocity": 0.8582677165354331
        },
        {
          "duration": 0.049999950000000126,
          "durationTicks": 21,
          "midi": 42,
          "name": "F#2",
          "ticks": 10680,
          "time": 25.428546,
          "velocity": 0.6141732283464567
        },
        {
          "duration": 0.06666660000000135,
          "durationTicks": 28,
          "midi": 51,
          "name": "D#3",
          "ticks": 10755,
          "time": 25.60711725,
          "velocity": 0.7795275590551181
        },
        {
          "duration": 0.09523799999999838,
          "durationTicks": 40,
          "midi": 46,
          "name": "A#2",
          "ticks": 10755,
          "time": 25.60711725,
          "velocity": 0.5511811023622047
        },
        {
          "duration": 0.0666665999999978,
          "durationTicks": 28,
          "midi": 51,
          "name": "D#3",
          "ticks": 10800,
          "time": 25.714260000000003,
          "velocity": 0.7795275590551181
        },
        {
          "duration": 0.1119046499999996,
          "durationTicks": 47,
          "midi": 36,
          "name": "C2",
          "ticks": 10800,
          "time": 25.714260000000003,
          "velocity": 0.8503937007874016
        },
        {
          "duration": 0.049999949999996574,
          "durationTicks": 21,
          "midi": 42,
          "name": "F#2",
          "ticks": 10800,
          "time": 25.714260000000003,
          "velocity": 0.6141732283464567
        },
        {
          "duration": 0.049999950000000126,
          "durationTicks": 21,
          "midi": 42,
          "name": "F#2",
          "ticks": 10875,
          "time": 25.89283125,
          "velocity": 0.6141732283464567
        },
        {
          "duration": 0.06666660000000135,
          "durationTicks": 28,
          "midi": 51,
          "name": "D#3",
          "ticks": 10920,
          "time": 25.999974,
          "velocity": 0.7795275590551181
        },
        {
          "duration": 0.06666660000000135,
          "durationTicks": 28,
          "midi": 40,
          "name": "E2",
          "ticks": 10920,
          "time": 25.999974,
          "velocity": 0.8582677165354331
        },
        {
          "duration": 0.049999950000000126,
          "durationTicks": 21,
          "midi": 42,
          "name": "F#2",
          "ticks": 10920,
          "time": 25.999974,
          "velocity": 0.6141732283464567
        },
        {
          "duration": 0.049999950000000126,
          "durationTicks": 21,
          "midi": 42,
          "name": "F#2",
          "ticks": 10995,
          "time": 26.178545250000003,
          "velocity": 0.6141732283464567
        },
        {
          "duration": 0.06666660000000135,
          "durationTicks": 28,
          "midi": 51,
          "name": "D#3",
          "ticks": 10995,
          "time": 26.178545250000003,
          "velocity": 0.7795275590551181
        },
        {
          "duration": 0.049999950000000126,
          "durationTicks": 21,
          "midi": 42,
          "name": "F#2",
          "ticks": 11040,
          "time": 26.285688,
          "velocity": 0.6141732283464567
        },
        {
          "duration": 0.06666660000000135,
          "durationTicks": 28,
          "midi": 51,
          "name": "D#3",
          "ticks": 11040,
          "time": 26.285688,
          "velocity": 0.7795275590551181
        },
        {
          "duration": 0.11190465000000316,
          "durationTicks": 47,
          "midi": 36,
          "name": "C2",
          "ticks": 11040,
          "time": 26.285688,
          "velocity": 0.8503937007874016
        },
        {
          "duration": 0.06666660000000135,
          "durationTicks": 28,
          "midi": 51,
          "name": "D#3",
          "ticks": 11160,
          "time": 26.571402000000003,
          "velocity": 0.7795275590551181
        },
        {
          "duration": 0.06666660000000135,
          "durationTicks": 28,
          "midi": 40,
          "name": "E2",
          "ticks": 11160,
          "time": 26.571402000000003,
          "velocity": 0.8582677165354331
        },
        {
          "duration": 0.049999950000000126,
          "durationTicks": 21,
          "midi": 42,
          "name": "F#2",
          "ticks": 11160,
          "time": 26.571402000000003,
          "velocity": 0.6141732283464567
        },
        {
          "duration": 0.0666665999999978,
          "durationTicks": 28,
          "midi": 51,
          "name": "D#3",
          "ticks": 11235,
          "time": 26.749973250000004,
          "velocity": 0.7795275590551181
        },
        {
          "duration": 0.09523799999999838,
          "durationTicks": 40,
          "midi": 46,
          "name": "A#2",
          "ticks": 11235,
          "time": 26.749973250000004,
          "velocity": 0.5511811023622047
        },
        {
          "duration": 0.06666660000000135,
          "durationTicks": 28,
          "midi": 51,
          "name": "D#3",
          "ticks": 11280,
          "time": 26.857116,
          "velocity": 0.7795275590551181
        },
        {
          "duration": 0.1119046499999996,
          "durationTicks": 47,
          "midi": 36,
          "name": "C2",
          "ticks": 11280,
          "time": 26.857116,
          "velocity": 0.8503937007874016
        },
        {
          "duration": 0.049999950000000126,
          "durationTicks": 21,
          "midi": 42,
          "name": "F#2",
          "ticks": 11280,
          "time": 26.857116,
          "velocity": 0.6141732283464567
        },
        {
          "duration": 0.0666665999999978,
          "durationTicks": 28,
          "midi": 51,
          "name": "D#3",
          "ticks": 11400,
          "time": 27.142830000000004,
          "velocity": 0.7795275590551181
        },
        {
          "duration": 0.0666665999999978,
          "durationTicks": 28,
          "midi": 40,
          "name": "E2",
          "ticks": 11400,
          "time": 27.142830000000004,
          "velocity": 0.8582677165354331
        },
        {
          "duration": 0.049999949999996574,
          "durationTicks": 21,
          "midi": 42,
          "name": "F#2",
          "ticks": 11400,
          "time": 27.142830000000004,
          "velocity": 0.6141732283464567
        },
        {
          "duration": 0.06666660000000135,
          "durationTicks": 28,
          "midi": 51,
          "name": "D#3",
          "ticks": 11475,
          "time": 27.32140125,
          "velocity": 0.7795275590551181
        },
        {
          "duration": 0.06666660000000135,
          "durationTicks": 28,
          "midi": 51,
          "name": "D#3",
          "ticks": 11520,
          "time": 27.428544000000002,
          "velocity": 0.7795275590551181
        },
        {
          "duration": 0.1119046499999996,
          "durationTicks": 47,
          "midi": 36,
          "name": "C2",
          "ticks": 11520,
          "time": 27.428544000000002,
          "velocity": 0.8503937007874016
        },
        {
          "duration": 0.049999950000000126,
          "durationTicks": 21,
          "midi": 42,
          "name": "F#2",
          "ticks": 11520,
          "time": 27.428544000000002,
          "velocity": 0.6141732283464567
        },
        {
          "duration": 0.049999949999996574,
          "durationTicks": 21,
          "midi": 42,
          "name": "F#2",
          "ticks": 11595,
          "time": 27.607115250000003,
          "velocity": 0.6141732283464567
        },
        {
          "duration": 0.06666660000000135,
          "durationTicks": 28,
          "midi": 51,
          "name": "D#3",
          "ticks": 11640,
          "time": 27.714258,
          "velocity": 0.7795275590551181
        },
        {
          "duration": 0.06666660000000135,
          "durationTicks": 28,
          "midi": 40,
          "name": "E2",
          "ticks": 11640,
          "time": 27.714258,
          "velocity": 0.8582677165354331
        },
        {
          "duration": 0.049999950000000126,
          "durationTicks": 21,
          "midi": 42,
          "name": "F#2",
          "ticks": 11640,
          "time": 27.714258,
          "velocity": 0.6141732283464567
        },
        {
          "duration": 0.06666660000000135,
          "durationTicks": 28,
          "midi": 51,
          "name": "D#3",
          "ticks": 11715,
          "time": 27.892829250000002,
          "velocity": 0.7795275590551181
        },
        {
          "duration": 0.09523799999999838,
          "durationTicks": 40,
          "midi": 46,
          "name": "A#2",
          "ticks": 11715,
          "time": 27.892829250000002,
          "velocity": 0.5511811023622047
        },
        {
          "duration": 0.0666665999999978,
          "durationTicks": 28,
          "midi": 51,
          "name": "D#3",
          "ticks": 11760,
          "time": 27.999972000000003,
          "velocity": 0.7795275590551181
        },
        {
          "duration": 0.1119046499999996,
          "durationTicks": 47,
          "midi": 36,
          "name": "C2",
          "ticks": 11760,
          "time": 27.999972000000003,
          "velocity": 0.8503937007874016
        },
        {
          "duration": 0.049999949999996574,
          "durationTicks": 21,
          "midi": 42,
          "name": "F#2",
          "ticks": 11760,
          "time": 27.999972000000003,
          "velocity": 0.6141732283464567
        },
        {
          "duration": 0.06666660000000135,
          "durationTicks": 28,
          "midi": 40,
          "name": "E2",
          "ticks": 11835,
          "time": 28.17854325,
          "velocity": 0.8582677165354331
        },
        {
          "duration": 0.06666660000000135,
          "durationTicks": 28,
          "midi": 40,
          "name": "E2",
          "ticks": 11880,
          "time": 28.285686000000002,
          "velocity": 0.8582677165354331
        },
        {
          "duration": 0.06666660000000135,
          "durationTicks": 28,
          "midi": 51,
          "name": "D#3",
          "ticks": 11880,
          "time": 28.285686000000002,
          "velocity": 0.7795275590551181
        },
        {
          "duration": 0.049999950000000126,
          "durationTicks": 21,
          "midi": 42,
          "name": "F#2",
          "ticks": 11880,
          "time": 28.285686000000002,
          "velocity": 0.6141732283464567
        },
        {
          "duration": 0.06666660000000135,
          "durationTicks": 28,
          "midi": 51,
          "name": "D#3",
          "ticks": 11955,
          "time": 28.464257250000003,
          "velocity": 0.7795275590551181
        },
        {
          "duration": 0.0666665999999978,
          "durationTicks": 28,
          "midi": 51,
          "name": "D#3",
          "ticks": 12000,
          "time": 28.571400000000004,
          "velocity": 0.7795275590551181
        },
        {
          "duration": 0.1119046499999996,
          "durationTicks": 47,
          "midi": 36,
          "name": "C2",
          "ticks": 12000,
          "time": 28.571400000000004,
          "velocity": 0.8503937007874016
        },
        {
          "duration": 0.049999949999996574,
          "durationTicks": 21,
          "midi": 42,
          "name": "F#2",
          "ticks": 12000,
          "time": 28.571400000000004,
          "velocity": 0.6141732283464567
        },
        {
          "duration": 0.049999950000000126,
          "durationTicks": 21,
          "midi": 42,
          "name": "F#2",
          "ticks": 12075,
          "time": 28.74997125,
          "velocity": 0.6141732283464567
        },
        {
          "duration": 0.06666660000000135,
          "durationTicks": 28,
          "midi": 40,
          "name": "E2",
          "ticks": 12120,
          "time": 28.857114000000003,
          "velocity": 0.8582677165354331
        },
        {
          "duration": 0.06666660000000135,
          "durationTicks": 28,
          "midi": 51,
          "name": "D#3",
          "ticks": 12120,
          "time": 28.857114000000003,
          "velocity": 0.7795275590551181
        },
        {
          "duration": 0.049999950000000126,
          "durationTicks": 21,
          "midi": 42,
          "name": "F#2",
          "ticks": 12120,
          "time": 28.857114000000003,
          "velocity": 0.6141732283464567
        },
        {
          "duration": 0.0666665999999978,
          "durationTicks": 28,
          "midi": 51,
          "name": "D#3",
          "ticks": 12195,
          "time": 29.035685250000004,
          "velocity": 0.7795275590551181
        },
        {
          "duration": 0.09523799999999838,
          "durationTicks": 40,
          "midi": 46,
          "name": "A#2",
          "ticks": 12195,
          "time": 29.035685250000004,
          "velocity": 0.5511811023622047
        },
        {
          "duration": 0.049999950000000126,
          "durationTicks": 21,
          "midi": 42,
          "name": "F#2",
          "ticks": 12240,
          "time": 29.142828,
          "velocity": 0.6141732283464567
        },
        {
          "duration": 0.06666660000000135,
          "durationTicks": 28,
          "midi": 51,
          "name": "D#3",
          "ticks": 12240,
          "time": 29.142828,
          "velocity": 0.7795275590551181
        },
        {
          "duration": 0.1119046499999996,
          "durationTicks": 47,
          "midi": 36,
          "name": "C2",
          "ticks": 12240,
          "time": 29.142828,
          "velocity": 0.8503937007874016
        },
        {
          "duration": 0.0666665999999978,
          "durationTicks": 28,
          "midi": 51,
          "name": "D#3",
          "ticks": 12360,
          "time": 29.428542000000004,
          "velocity": 0.7795275590551181
        },
        {
          "duration": 0.0666665999999978,
          "durationTicks": 28,
          "midi": 40,
          "name": "E2",
          "ticks": 12360,
          "time": 29.428542000000004,
          "velocity": 0.8582677165354331
        },
        {
          "duration": 0.049999949999996574,
          "durationTicks": 21,
          "midi": 42,
          "name": "F#2",
          "ticks": 12360,
          "time": 29.428542000000004,
          "velocity": 0.6141732283464567
        },
        {
          "duration": 0.06666660000000135,
          "durationTicks": 28,
          "midi": 51,
          "name": "D#3",
          "ticks": 12435,
          "time": 29.60711325,
          "velocity": 0.7795275590551181
        },
        {
          "duration": 0.06666660000000135,
          "durationTicks": 28,
          "midi": 51,
          "name": "D#3",
          "ticks": 12480,
          "time": 29.714256000000002,
          "velocity": 0.7795275590551181
        },
        {
          "duration": 0.1119046499999996,
          "durationTicks": 47,
          "midi": 36,
          "name": "C2",
          "ticks": 12480,
          "time": 29.714256000000002,
          "velocity": 0.8503937007874016
        },
        {
          "duration": 0.049999950000000126,
          "durationTicks": 21,
          "midi": 42,
          "name": "F#2",
          "ticks": 12480,
          "time": 29.714256000000002,
          "velocity": 0.6141732283464567
        },
        {
          "duration": 0.0333332999999989,
          "durationTicks": 14,
          "midi": 40,
          "name": "E2",
          "ticks": 12540,
          "time": 29.857113000000002,
          "velocity": 0.4645669291338583
        },
        {
          "duration": 0.0333332999999989,
          "durationTicks": 14,
          "midi": 40,
          "name": "E2",
          "ticks": 12555,
          "time": 29.892827250000003,
          "velocity": 0.6220472440944882
        },
        {
          "duration": 0.0333332999999989,
          "durationTicks": 14,
          "midi": 40,
          "name": "E2",
          "ticks": 12570,
          "time": 29.9285415,
          "velocity": 0.5433070866141733
        },
        {
          "duration": 0.0333332999999989,
          "durationTicks": 14,
          "midi": 40,
          "name": "E2",
          "ticks": 12585,
          "time": 29.964255750000003,
          "velocity": 0.7795275590551181
        },
        {
          "duration": 0.0333332999999989,
          "durationTicks": 14,
          "midi": 40,
          "name": "E2",
          "ticks": 12600,
          "time": 29.99997,
          "velocity": 0.8582677165354331
        },
        {
          "duration": 0.06666660000000135,
          "durationTicks": 28,
          "midi": 51,
          "name": "D#3",
          "ticks": 12600,
          "time": 29.99997,
          "velocity": 0.7795275590551181
        },
        {
          "duration": 0.049999950000000126,
          "durationTicks": 21,
          "midi": 42,
          "name": "F#2",
          "ticks": 12600,
          "time": 29.99997,
          "velocity": 0.6141732283464567
        },
        {
          "duration": 0.0333332999999989,
          "durationTicks": 14,
          "midi": 40,
          "name": "E2",
          "ticks": 12675,
          "time": 30.178541250000002,
          "velocity": 0.7795275590551181
        },
        {
          "duration": 0.06666660000000135,
          "durationTicks": 28,
          "midi": 51,
          "name": "D#3",
          "ticks": 12675,
          "time": 30.178541250000002,
          "velocity": 0.7795275590551181
        },
        {
          "duration": 0.09523799999999838,
          "durationTicks": 40,
          "midi": 46,
          "name": "A#2",
          "ticks": 12675,
          "time": 30.178541250000002,
          "velocity": 0.5511811023622047
        },
        {
          "duration": 0.0666665999999978,
          "durationTicks": 28,
          "midi": 51,
          "name": "D#3",
          "ticks": 12720,
          "time": 30.285684000000003,
          "velocity": 0.7795275590551181
        },
        {
          "duration": 0.1119046499999996,
          "durationTicks": 47,
          "midi": 36,
          "name": "C2",
          "ticks": 12720,
          "time": 30.285684000000003,
          "velocity": 0.8503937007874016
        },
        {
          "duration": 0.049999949999996574,
          "durationTicks": 21,
          "midi": 42,
          "name": "F#2",
          "ticks": 12720,
          "time": 30.285684000000003,
          "velocity": 0.6141732283464567
        },
        {
          "duration": 0.0333332999999989,
          "durationTicks": 14,
          "midi": 47,
          "name": "B2",
          "ticks": 12795,
          "time": 30.46425525,
          "velocity": 0.7795275590551181
        },
        {
          "duration": 0.0333332999999989,
          "durationTicks": 14,
          "midi": 40,
          "name": "E2",
          "ticks": 12795,
          "time": 30.46425525,
          "velocity": 0.7795275590551181
        },
        {
          "duration": 0.049999950000000126,
          "durationTicks": 21,
          "midi": 42,
          "name": "F#2",
          "ticks": 12795,
          "time": 30.46425525,
          "velocity": 0.6141732283464567
        },
        {
          "duration": 0.0333332999999989,
          "durationTicks": 14,
          "midi": 45,
          "name": "A2",
          "ticks": 12840,
          "time": 30.571398000000002,
          "velocity": 0.7795275590551181
        },
        {
          "duration": 0.06666660000000135,
          "durationTicks": 28,
          "midi": 51,
          "name": "D#3",
          "ticks": 12840,
          "time": 30.571398000000002,
          "velocity": 0.7795275590551181
        },
        {
          "duration": 0.06666660000000135,
          "durationTicks": 28,
          "midi": 40,
          "name": "E2",
          "ticks": 12840,
          "time": 30.571398000000002,
          "velocity": 0.8582677165354331
        },
        {
          "duration": 0.049999950000000126,
          "durationTicks": 21,
          "midi": 42,
          "name": "F#2",
          "ticks": 12840,
          "time": 30.571398000000002,
          "velocity": 0.6141732283464567
        },
        {
          "duration": 0.049999950000000126,
          "durationTicks": 21,
          "midi": 42,
          "name": "F#2",
          "ticks": 12915,
          "time": 30.749969250000003,
          "velocity": 0.6141732283464567
        },
        {
          "duration": 0.06666660000000135,
          "durationTicks": 28,
          "midi": 51,
          "name": "D#3",
          "ticks": 12915,
          "time": 30.749969250000003,
          "velocity": 0.7795275590551181
        },
        {
          "duration": 0.049999950000000126,
          "durationTicks": 21,
          "midi": 57,
          "name": "A3",
          "ticks": 12960,
          "time": 30.857112,
          "velocity": 0.7716535433070866
        },
        {
          "duration": 0.049999950000000126,
          "durationTicks": 21,
          "midi": 42,
          "name": "F#2",
          "ticks": 12960,
          "time": 30.857112,
          "velocity": 0.6141732283464567
        },
        {
          "duration": 0.06666660000000135,
          "durationTicks": 28,
          "midi": 51,
          "name": "D#3",
          "ticks": 12960,
          "time": 30.857112,
          "velocity": 0.7795275590551181
        },
        {
          "duration": 0.11190465000000316,
          "durationTicks": 47,
          "midi": 36,
          "name": "C2",
          "ticks": 12960,
          "time": 30.857112,
          "velocity": 0.8503937007874016
        },
        {
          "duration": 0.06666660000000135,
          "durationTicks": 28,
          "midi": 51,
          "name": "D#3",
          "ticks": 13080,
          "time": 31.142826000000003,
          "velocity": 0.7795275590551181
        },
        {
          "duration": 0.06666660000000135,
          "durationTicks": 28,
          "midi": 40,
          "name": "E2",
          "ticks": 13080,
          "time": 31.142826000000003,
          "velocity": 0.8582677165354331
        },
        {
          "duration": 0.049999950000000126,
          "durationTicks": 21,
          "midi": 42,
          "name": "F#2",
          "ticks": 13080,
          "time": 31.142826000000003,
          "velocity": 0.6141732283464567
        },
        {
          "duration": 0.0666665999999978,
          "durationTicks": 28,
          "midi": 51,
          "name": "D#3",
          "ticks": 13155,
          "time": 31.321397250000004,
          "velocity": 0.7795275590551181
        },
        {
          "duration": 0.09523799999999838,
          "durationTicks": 40,
          "midi": 46,
          "name": "A#2",
          "ticks": 13155,
          "time": 31.321397250000004,
          "velocity": 0.5511811023622047
        },
        {
          "duration": 0.06666660000000135,
          "durationTicks": 28,
          "midi": 51,
          "name": "D#3",
          "ticks": 13200,
          "time": 31.42854,
          "velocity": 0.7795275590551181
        },
        {
          "duration": 0.1119046499999996,
          "durationTicks": 47,
          "midi": 36,
          "name": "C2",
          "ticks": 13200,
          "time": 31.42854,
          "velocity": 0.8503937007874016
        },
        {
          "duration": 0.049999950000000126,
          "durationTicks": 21,
          "midi": 42,
          "name": "F#2",
          "ticks": 13200,
          "time": 31.42854,
          "velocity": 0.6141732283464567
        },
        {
          "duration": 0.0666665999999978,
          "durationTicks": 28,
          "midi": 51,
          "name": "D#3",
          "ticks": 13320,
          "time": 31.714254000000004,
          "velocity": 0.7795275590551181
        },
        {
          "duration": 0.0666665999999978,
          "durationTicks": 28,
          "midi": 40,
          "name": "E2",
          "ticks": 13320,
          "time": 31.714254000000004,
          "velocity": 0.8582677165354331
        },
        {
          "duration": 0.049999949999996574,
          "durationTicks": 21,
          "midi": 42,
          "name": "F#2",
          "ticks": 13320,
          "time": 31.714254000000004,
          "velocity": 0.6141732283464567
        },
        {
          "duration": 0.06666660000000135,
          "durationTicks": 28,
          "midi": 51,
          "name": "D#3",
          "ticks": 13395,
          "time": 31.89282525,
          "velocity": 0.7795275590551181
        },
        {
          "duration": 0.0666665999999978,
          "durationTicks": 28,
          "midi": 51,
          "name": "D#3",
          "ticks": 13440,
          "time": 31.999968000000003,
          "velocity": 0.7795275590551181
        },
        {
          "duration": 0.1119046499999996,
          "durationTicks": 47,
          "midi": 36,
          "name": "C2",
          "ticks": 13440,
          "time": 31.999968000000003,
          "velocity": 0.8503937007874016
        },
        {
          "duration": 0.049999950000000126,
          "durationTicks": 21,
          "midi": 42,
          "name": "F#2",
          "ticks": 13440,
          "time": 31.999968000000003,
          "velocity": 0.6141732283464567
        },
        {
          "duration": 0.049999950000000126,
          "durationTicks": 21,
          "midi": 42,
          "name": "F#2",
          "ticks": 13515,
          "time": 32.17853925,
          "velocity": 0.6141732283464567
        },
        {
          "duration": 0.0666666000000049,
          "durationTicks": 28,
          "midi": 51,
          "name": "D#3",
          "ticks": 13560,
          "time": 32.285682,
          "velocity": 0.7795275590551181
        },
        {
          "duration": 0.0666666000000049,
          "durationTicks": 28,
          "midi": 40,
          "name": "E2",
          "ticks": 13560,
          "time": 32.285682,
          "velocity": 0.8582677165354331
        },
        {
          "duration": 0.049999950000000126,
          "durationTicks": 21,
          "midi": 42,
          "name": "F#2",
          "ticks": 13560,
          "time": 32.285682,
          "velocity": 0.6141732283464567
        },
        {
          "duration": 0.0666665999999978,
          "durationTicks": 28,
          "midi": 51,
          "name": "D#3",
          "ticks": 13635,
          "time": 32.464253250000006,
          "velocity": 0.7795275590551181
        },
        {
          "duration": 0.09523799999999483,
          "durationTicks": 40,
          "midi": 46,
          "name": "A#2",
          "ticks": 13635,
          "time": 32.464253250000006,
          "velocity": 0.5511811023622047
        },
        {
          "duration": 0.0666666000000049,
          "durationTicks": 28,
          "midi": 51,
          "name": "D#3",
          "ticks": 13680,
          "time": 32.571396,
          "velocity": 0.7795275590551181
        },
        {
          "duration": 0.1119046499999996,
          "durationTicks": 47,
          "midi": 36,
          "name": "C2",
          "ticks": 13680,
          "time": 32.571396,
          "velocity": 0.8503937007874016
        },
        {
          "duration": 0.049999950000000126,
          "durationTicks": 21,
          "midi": 42,
          "name": "F#2",
          "ticks": 13680,
          "time": 32.571396,
          "velocity": 0.6141732283464567
        },
        {
          "duration": 0.0666665999999978,
          "durationTicks": 28,
          "midi": 40,
          "name": "E2",
          "ticks": 13755,
          "time": 32.749967250000005,
          "velocity": 0.8582677165354331
        },
        {
          "duration": 0.0666665999999978,
          "durationTicks": 28,
          "midi": 40,
          "name": "E2",
          "ticks": 13800,
          "time": 32.857110000000006,
          "velocity": 0.8582677165354331
        },
        {
          "duration": 0.0666665999999978,
          "durationTicks": 28,
          "midi": 51,
          "name": "D#3",
          "ticks": 13800,
          "time": 32.857110000000006,
          "velocity": 0.7795275590551181
        },
        {
          "duration": 0.04999994999999302,
          "durationTicks": 21,
          "midi": 42,
          "name": "F#2",
          "ticks": 13800,
          "time": 32.857110000000006,
          "velocity": 0.6141732283464567
        },
        {
          "duration": 0.0666665999999978,
          "durationTicks": 28,
          "midi": 51,
          "name": "D#3",
          "ticks": 13875,
          "time": 33.03568125,
          "velocity": 0.7795275590551181
        },
        {
          "duration": 0.0666665999999978,
          "durationTicks": 28,
          "midi": 51,
          "name": "D#3",
          "ticks": 13920,
          "time": 33.142824000000005,
          "velocity": 0.7795275590551181
        },
        {
          "duration": 0.1119046499999996,
          "durationTicks": 47,
          "midi": 36,
          "name": "C2",
          "ticks": 13920,
          "time": 33.142824000000005,
          "velocity": 0.8503937007874016
        },
        {
          "duration": 0.049999950000000126,
          "durationTicks": 21,
          "midi": 42,
          "name": "F#2",
          "ticks": 13920,
          "time": 33.142824000000005,
          "velocity": 0.6141732283464567
        },
        {
          "duration": 0.049999950000000126,
          "durationTicks": 21,
          "midi": 42,
          "name": "F#2",
          "ticks": 13995,
          "time": 33.32139525,
          "velocity": 0.6141732283464567
        },
        {
          "duration": 0.0666665999999978,
          "durationTicks": 28,
          "midi": 51,
          "name": "D#3",
          "ticks": 14040,
          "time": 33.428538,
          "velocity": 0.7795275590551181
        },
        {
          "duration": 0.0666665999999978,
          "durationTicks": 28,
          "midi": 40,
          "name": "E2",
          "ticks": 14040,
          "time": 33.428538,
          "velocity": 0.8582677165354331
        },
        {
          "duration": 0.049999950000000126,
          "durationTicks": 21,
          "midi": 42,
          "name": "F#2",
          "ticks": 14040,
          "time": 33.428538,
          "velocity": 0.6141732283464567
        },
        {
          "duration": 0.0666666000000049,
          "durationTicks": 28,
          "midi": 51,
          "name": "D#3",
          "ticks": 14115,
          "time": 33.60710925,
          "velocity": 0.7795275590551181
        },
        {
          "duration": 0.09523800000000193,
          "durationTicks": 40,
          "midi": 46,
          "name": "A#2",
          "ticks": 14115,
          "time": 33.60710925,
          "velocity": 0.5511811023622047
        },
        {
          "duration": 0.0666665999999978,
          "durationTicks": 28,
          "midi": 51,
          "name": "D#3",
          "ticks": 14160,
          "time": 33.714252,
          "velocity": 0.7795275590551181
        },
        {
          "duration": 0.1119046499999996,
          "durationTicks": 47,
          "midi": 36,
          "name": "C2",
          "ticks": 14160,
          "time": 33.714252,
          "velocity": 0.8503937007874016
        },
        {
          "duration": 0.049999950000000126,
          "durationTicks": 21,
          "midi": 42,
          "name": "F#2",
          "ticks": 14160,
          "time": 33.714252,
          "velocity": 0.6141732283464567
        },
        {
          "duration": 0.0666666000000049,
          "durationTicks": 28,
          "midi": 51,
          "name": "D#3",
          "ticks": 14280,
          "time": 33.999966,
          "velocity": 0.7795275590551181
        },
        {
          "duration": 0.0666666000000049,
          "durationTicks": 28,
          "midi": 40,
          "name": "E2",
          "ticks": 14280,
          "time": 33.999966,
          "velocity": 0.8582677165354331
        },
        {
          "duration": 0.049999950000000126,
          "durationTicks": 21,
          "midi": 42,
          "name": "F#2",
          "ticks": 14280,
          "time": 33.999966,
          "velocity": 0.6141732283464567
        },
        {
          "duration": 0.0666665999999978,
          "durationTicks": 28,
          "midi": 51,
          "name": "D#3",
          "ticks": 14355,
          "time": 34.178537250000005,
          "velocity": 0.7795275590551181
        },
        {
          "duration": 0.0666666000000049,
          "durationTicks": 28,
          "midi": 51,
          "name": "D#3",
          "ticks": 14400,
          "time": 34.28568,
          "velocity": 0.7795275590551181
        },
        {
          "duration": 0.11190465000000671,
          "durationTicks": 47,
          "midi": 36,
          "name": "C2",
          "ticks": 14400,
          "time": 34.28568,
          "velocity": 0.8503937007874016
        },
        {
          "duration": 0.049999950000000126,
          "durationTicks": 21,
          "midi": 42,
          "name": "F#2",
          "ticks": 14400,
          "time": 34.28568,
          "velocity": 0.6141732283464567
        },
        {
          "duration": 0.0666665999999978,
          "durationTicks": 28,
          "midi": 51,
          "name": "D#3",
          "ticks": 14520,
          "time": 34.571394000000005,
          "velocity": 0.7795275590551181
        },
        {
          "duration": 0.0666665999999978,
          "durationTicks": 28,
          "midi": 40,
          "name": "E2",
          "ticks": 14520,
          "time": 34.571394000000005,
          "velocity": 0.8582677165354331
        },
        {
          "duration": 0.049999950000000126,
          "durationTicks": 21,
          "midi": 42,
          "name": "F#2",
          "ticks": 14520,
          "time": 34.571394000000005,
          "velocity": 0.6141732283464567
        },
        {
          "duration": 0.0666665999999978,
          "durationTicks": 28,
          "midi": 51,
          "name": "D#3",
          "ticks": 14595,
          "time": 34.74996525,
          "velocity": 0.7795275590551181
        },
        {
          "duration": 0.09523800000000193,
          "durationTicks": 40,
          "midi": 46,
          "name": "A#2",
          "ticks": 14595,
          "time": 34.74996525,
          "velocity": 0.5511811023622047
        },
        {
          "duration": 0.1119046499999996,
          "durationTicks": 47,
          "midi": 36,
          "name": "C2",
          "ticks": 14640,
          "time": 34.857108000000004,
          "velocity": 0.8503937007874016
        },
        {
          "duration": 0.0666665999999978,
          "durationTicks": 28,
          "midi": 51,
          "name": "D#3",
          "ticks": 14640,
          "time": 34.857108000000004,
          "velocity": 0.7795275590551181
        },
        {
          "duration": 0.049999950000000126,
          "durationTicks": 21,
          "midi": 42,
          "name": "F#2",
          "ticks": 14640,
          "time": 34.857108000000004,
          "velocity": 0.6141732283464567
        },
        {
          "duration": 0.03333329999999535,
          "durationTicks": 14,
          "midi": 40,
          "name": "E2",
          "ticks": 14700,
          "time": 34.999965,
          "velocity": 0.3858267716535433
        },
        {
          "duration": 0.03333330000000245,
          "durationTicks": 14,
          "midi": 40,
          "name": "E2",
          "ticks": 14715,
          "time": 35.03567925,
          "velocity": 0.5433070866141733
        },
        {
          "duration": 0.049999950000000126,
          "durationTicks": 21,
          "midi": 42,
          "name": "F#2",
          "ticks": 14715,
          "time": 35.03567925,
          "velocity": 0.6141732283464567
        },
        {
          "duration": 0.03333329999999535,
          "durationTicks": 14,
          "midi": 40,
          "name": "E2",
          "ticks": 14730,
          "time": 35.071393500000006,
          "velocity": 0.6220472440944882
        },
        {
          "duration": 0.03333329999999535,
          "durationTicks": 14,
          "midi": 40,
          "name": "E2",
          "ticks": 14745,
          "time": 35.107107750000004,
          "velocity": 0.6220472440944882
        },
        {
          "duration": 0.049999950000000126,
          "durationTicks": 21,
          "midi": 42,
          "name": "F#2",
          "ticks": 14760,
          "time": 35.142822,
          "velocity": 0.6141732283464567
        },
        {
          "duration": 0.0666665999999978,
          "durationTicks": 28,
          "midi": 40,
          "name": "E2",
          "ticks": 14760,
          "time": 35.142822,
          "velocity": 0.8582677165354331
        },
        {
          "duration": 0.0666665999999978,
          "durationTicks": 28,
          "midi": 51,
          "name": "D#3",
          "ticks": 14760,
          "time": 35.142822,
          "velocity": 0.7795275590551181
        },
        {
          "duration": 0.03333330000000245,
          "durationTicks": 14,
          "midi": 40,
          "name": "E2",
          "ticks": 14835,
          "time": 35.32139325,
          "velocity": 0.6220472440944882
        },
        {
          "duration": 0.049999950000000126,
          "durationTicks": 21,
          "midi": 42,
          "name": "F#2",
          "ticks": 14835,
          "time": 35.32139325,
          "velocity": 0.6141732283464567
        },
        {
          "duration": 0.0666666000000049,
          "durationTicks": 28,
          "midi": 51,
          "name": "D#3",
          "ticks": 14835,
          "time": 35.32139325,
          "velocity": 0.7795275590551181
        },
        {
          "duration": 0.04761900000000452,
          "durationTicks": 20,
          "midi": 50,
          "name": "D3",
          "ticks": 14880,
          "time": 35.428536,
          "velocity": 0.84251968503937
        },
        {
          "duration": 0.049999950000000126,
          "durationTicks": 21,
          "midi": 42,
          "name": "F#2",
          "ticks": 14880,
          "time": 35.428536,
          "velocity": 0.6141732283464567
        },
        {
          "duration": 0.1119046499999996,
          "durationTicks": 47,
          "midi": 36,
          "name": "C2",
          "ticks": 14880,
          "time": 35.428536,
          "velocity": 0.8503937007874016
        },
        {
          "duration": 0.07142849999999612,
          "durationTicks": 30,
          "midi": 50,
          "name": "D3",
          "ticks": 14955,
          "time": 35.607107250000006,
          "velocity": 0.84251968503937
        },
        {
          "duration": 0.049999950000000126,
          "durationTicks": 21,
          "midi": 40,
          "name": "E2",
          "ticks": 15000,
          "time": 35.71425,
          "velocity": 0.6141732283464567
        },
        {
          "duration": 0.06904755000000051,
          "durationTicks": 29,
          "midi": 47,
          "name": "B2",
          "ticks": 15000,
          "time": 35.71425,
          "velocity": 0.7716535433070866
        },
        {
          "duration": 0.049999950000000126,
          "durationTicks": 21,
          "midi": 46,
          "name": "A#2",
          "ticks": 15000,
          "time": 35.71425,
          "velocity": 0.6141732283464567
        },
        {
          "duration": 0.03095234999999974,
          "durationTicks": 13,
          "midi": 48,
          "name": "C3",
          "ticks": 15001,
          "time": 35.71663095,
          "velocity": 0.4566929133858268
        },
        {
          "duration": 0.049999950000000126,
          "durationTicks": 21,
          "midi": 42,
          "name": "F#2",
          "ticks": 15075,
          "time": 35.892821250000004,
          "velocity": 0.6141732283464567
        },
        {
          "duration": 0.049999950000000126,
          "durationTicks": 21,
          "midi": 40,
          "name": "E2",
          "ticks": 15075,
          "time": 35.892821250000004,
          "velocity": 0.6141732283464567
        },
        {
          "duration": 0.09523799999999483,
          "durationTicks": 40,
          "midi": 45,
          "name": "A2",
          "ticks": 15075,
          "time": 35.892821250000004,
          "velocity": 0.84251968503937
        },
        {
          "duration": 0.04999994999999302,
          "durationTicks": 21,
          "midi": 42,
          "name": "F#2",
          "ticks": 15120,
          "time": 35.999964000000006,
          "velocity": 0.6141732283464567
        },
        {
          "duration": 0.1119046499999996,
          "durationTicks": 47,
          "midi": 36,
          "name": "C2",
          "ticks": 15120,
          "time": 35.999964000000006,
          "velocity": 0.8503937007874016
        },
        {
          "duration": 0.0666665999999978,
          "durationTicks": 28,
          "midi": 40,
          "name": "E2",
          "ticks": 15195,
          "time": 36.17853525,
          "velocity": 0.984251968503937
        },
        {
          "duration": 0.049999950000000126,
          "durationTicks": 21,
          "midi": 55,
          "name": "G3",
          "ticks": 15195,
          "time": 36.17853525,
          "velocity": 0.6929133858267716
        },
        {
          "duration": 0.049999950000000126,
          "durationTicks": 21,
          "midi": 42,
          "name": "F#2",
          "ticks": 15195,
          "time": 36.17853525,
          "velocity": 0.6141732283464567
        },
        {
          "duration": 0.0666665999999978,
          "durationTicks": 28,
          "midi": 40,
          "name": "E2",
          "ticks": 15240,
          "time": 36.285678000000004,
          "velocity": 0.9763779527559056
        },
        {
          "duration": 0.049999950000000126,
          "durationTicks": 21,
          "midi": 42,
          "name": "F#2",
          "ticks": 15285,
          "time": 36.392820750000006,
          "velocity": 0.6141732283464567
        },
        {
          "duration": 0.049999950000000126,
          "durationTicks": 21,
          "midi": 46,
          "name": "A#2",
          "ticks": 15315,
          "time": 36.46424925,
          "velocity": 0.6141732283464567
        },
        {
          "duration": 0.049999950000000126,
          "durationTicks": 21,
          "midi": 42,
          "name": "F#2",
          "ticks": 15360,
          "time": 36.571392,
          "velocity": 0.6141732283464567
        },
        {
          "duration": 0.05952375000000387,
          "durationTicks": 25,
          "midi": 50,
          "name": "D3",
          "ticks": 15360,
          "time": 36.571392,
          "velocity": 0.9212598425196851
        },
        {
          "duration": 0.11190465000000671,
          "durationTicks": 47,
          "midi": 36,
          "name": "C2",
          "ticks": 15360,
          "time": 36.571392,
          "velocity": 0.8503937007874016
        },
        {
          "duration": 0.07619040000000865,
          "durationTicks": 32,
          "midi": 50,
          "name": "D3",
          "ticks": 15435,
          "time": 36.74996325,
          "velocity": 0.9212598425196851
        },
        {
          "duration": 0.07857135000000426,
          "durationTicks": 33,
          "midi": 45,
          "name": "A2",
          "ticks": 15480,
          "time": 36.857106,
          "velocity": 0.8267716535433071
        },
        {
          "duration": 0.04999995000000723,
          "durationTicks": 21,
          "midi": 42,
          "name": "F#2",
          "ticks": 15480,
          "time": 36.857106,
          "velocity": 0.6141732283464567
        },
        {
          "duration": 0.04999995000000723,
          "durationTicks": 21,
          "midi": 40,
          "name": "E2",
          "ticks": 15480,
          "time": 36.857106,
          "velocity": 0.6141732283464567
        },
        {
          "duration": 0.049999950000000126,
          "durationTicks": 21,
          "midi": 40,
          "name": "E2",
          "ticks": 15555,
          "time": 37.035677250000006,
          "velocity": 0.6141732283464567
        },
        {
          "duration": 0.09523800000000193,
          "durationTicks": 40,
          "midi": 43,
          "name": "G2",
          "ticks": 15555,
          "time": 37.035677250000006,
          "velocity": 0.7637795275590551
        },
        {
          "duration": 0.11190465000000671,
          "durationTicks": 47,
          "midi": 36,
          "name": "C2",
          "ticks": 15600,
          "time": 37.14282,
          "velocity": 0.8503937007874016
        },
        {
          "duration": 0.04999995000000723,
          "durationTicks": 21,
          "midi": 42,
          "name": "F#2",
          "ticks": 15600,
          "time": 37.14282,
          "velocity": 0.6141732283464567
        },
        {
          "duration": 0.0666665999999978,
          "durationTicks": 28,
          "midi": 40,
          "name": "E2",
          "ticks": 15675,
          "time": 37.321391250000005,
          "velocity": 0.984251968503937
        },
        {
          "duration": 0.049999950000000126,
          "durationTicks": 21,
          "midi": 46,
          "name": "A#2",
          "ticks": 15675,
          "time": 37.321391250000005,
          "velocity": 0.6141732283464567
        },
        {
          "duration": 0.049999950000000126,
          "durationTicks": 21,
          "midi": 42,
          "name": "F#2",
          "ticks": 15720,
          "time": 37.428534000000006,
          "velocity": 0.6141732283464567
        },
        {
          "duration": 0.0666665999999907,
          "durationTicks": 28,
          "midi": 40,
          "name": "E2",
          "ticks": 15720,
          "time": 37.428534000000006,
          "velocity": 0.984251968503937
        },
        {
          "duration": 0.04999995000000723,
          "durationTicks": 21,
          "midi": 42,
          "name": "F#2",
          "ticks": 15765,
          "time": 37.53567675,
          "velocity": 0.6141732283464567
        },
        {
          "duration": 0.049999950000000126,
          "durationTicks": 21,
          "midi": 46,
          "name": "A#2",
          "ticks": 15795,
          "time": 37.607105250000004,
          "velocity": 0.6141732283464567
        },
        {
          "duration": 0.049999950000000126,
          "durationTicks": 21,
          "midi": 50,
          "name": "D3",
          "ticks": 15840,
          "time": 37.714248000000005,
          "velocity": 0.7716535433070866
        },
        {
          "duration": 0.049999950000000126,
          "durationTicks": 21,
          "midi": 40,
          "name": "E2",
          "ticks": 15840,
          "time": 37.714248000000005,
          "velocity": 0.7716535433070866
        },
        {
          "duration": 0.049999950000000126,
          "durationTicks": 21,
          "midi": 42,
          "name": "F#2",
          "ticks": 15840,
          "time": 37.714248000000005,
          "velocity": 0.6141732283464567
        },
        {
          "duration": 0.1119046499999996,
          "durationTicks": 47,
          "midi": 36,
          "name": "C2",
          "ticks": 15840,
          "time": 37.714248000000005,
          "velocity": 0.8503937007874016
        },
        {
          "duration": 0.049999950000000126,
          "durationTicks": 21,
          "midi": 47,
          "name": "B2",
          "ticks": 15885,
          "time": 37.821390750000006,
          "velocity": 0.7716535433070866
        },
        {
          "duration": 0.04999995000000723,
          "durationTicks": 21,
          "midi": 40,
          "name": "E2",
          "ticks": 15915,
          "time": 37.89281925,
          "velocity": 0.4566929133858268
        },
        {
          "duration": 0.04999995000000723,
          "durationTicks": 21,
          "midi": 42,
          "name": "F#2",
          "ticks": 15915,
          "time": 37.89281925,
          "velocity": 0.6141732283464567
        },
        {
          "duration": 0.049999950000000126,
          "durationTicks": 21,
          "midi": 45,
          "name": "A2",
          "ticks": 15960,
          "time": 37.999962000000004,
          "velocity": 0.7716535433070866
        },
        {
          "duration": 0.049999950000000126,
          "durationTicks": 21,
          "midi": 42,
          "name": "F#2",
          "ticks": 15960,
          "time": 37.999962000000004,
          "velocity": 0.6141732283464567
        },
        {
          "duration": 0.049999950000000126,
          "durationTicks": 21,
          "midi": 40,
          "name": "E2",
          "ticks": 15960,
          "time": 37.999962000000004,
          "velocity": 0.7716535433070866
        },
        {
          "duration": 0.04999995000000723,
          "durationTicks": 21,
          "midi": 49,
          "name": "C#3",
          "ticks": 16035,
          "time": 38.17853325,
          "velocity": 0.7716535433070866
        },
        {
          "duration": 0.04999995000000723,
          "durationTicks": 21,
          "midi": 42,
          "name": "F#2",
          "ticks": 16035,
          "time": 38.17853325,
          "velocity": 0.6141732283464567
        },
        {
          "duration": 0.04999995000000723,
          "durationTicks": 21,
          "midi": 40,
          "name": "E2",
          "ticks": 16035,
          "time": 38.17853325,
          "velocity": 0.7716535433070866
        },
        {
          "duration": 0.04999995000000723,
          "durationTicks": 21,
          "midi": 42,
          "name": "F#2",
          "ticks": 16080,
          "time": 38.285676,
          "velocity": 0.6141732283464567
        },
        {
          "duration": 0.11190465000000671,
          "durationTicks": 47,
          "midi": 36,
          "name": "C2",
          "ticks": 16080,
          "time": 38.285676,
          "velocity": 0.8503937007874016
        },
        {
          "duration": 0.049999950000000126,
          "durationTicks": 21,
          "midi": 50,
          "name": "D3",
          "ticks": 16125,
          "time": 38.39281875,
          "velocity": 0.7716535433070866
        },
        {
          "duration": 0.049999950000000126,
          "durationTicks": 21,
          "midi": 42,
          "name": "F#2",
          "ticks": 16125,
          "time": 38.39281875,
          "velocity": 0.6141732283464567
        },
        {
          "duration": 0.04999995000000723,
          "durationTicks": 21,
          "midi": 42,
          "name": "F#2",
          "ticks": 16155,
          "time": 38.46424725,
          "velocity": 0.6141732283464567
        },
        {
          "duration": 0.04999995000000723,
          "durationTicks": 21,
          "midi": 40,
          "name": "E2",
          "ticks": 16155,
          "time": 38.46424725,
          "velocity": 0.7716535433070866
        },
        {
          "duration": 0.04999995000000723,
          "durationTicks": 21,
          "midi": 47,
          "name": "B2",
          "ticks": 16200,
          "time": 38.57139,
          "velocity": 0.7716535433070866
        },
        {
          "duration": 0.04999995000000723,
          "durationTicks": 21,
          "midi": 42,
          "name": "F#2",
          "ticks": 16200,
          "time": 38.57139,
          "velocity": 0.6141732283464567
        },
        {
          "duration": 0.04999995000000723,
          "durationTicks": 21,
          "midi": 40,
          "name": "E2",
          "ticks": 16245,
          "time": 38.67853275,
          "velocity": 0.23622047244094488
        },
        {
          "duration": 0.04999995000000723,
          "durationTicks": 21,
          "midi": 40,
          "name": "E2",
          "ticks": 16260,
          "time": 38.714247,
          "velocity": 0.31496062992125984
        },
        {
          "duration": 0.049999950000000126,
          "durationTicks": 21,
          "midi": 40,
          "name": "E2",
          "ticks": 16275,
          "time": 38.749961250000005,
          "velocity": 0.3937007874015748
        },
        {
          "duration": 0.049999950000000126,
          "durationTicks": 21,
          "midi": 42,
          "name": "F#2",
          "ticks": 16275,
          "time": 38.749961250000005,
          "velocity": 0.6141732283464567
        },
        {
          "duration": 0.049999950000000126,
          "durationTicks": 21,
          "midi": 40,
          "name": "E2",
          "ticks": 16290,
          "time": 38.7856755,
          "velocity": 0.47244094488188976
        },
        {
          "duration": 0.04999995000000723,
          "durationTicks": 21,
          "midi": 40,
          "name": "E2",
          "ticks": 16305,
          "time": 38.82138975,
          "velocity": 0.5511811023622047
        },
        {
          "duration": 0.049999950000000126,
          "durationTicks": 21,
          "midi": 52,
          "name": "E3",
          "ticks": 16320,
          "time": 38.85710400000001,
          "velocity": 0.6929133858267716
        },
        {
          "duration": 0.049999950000000126,
          "durationTicks": 21,
          "midi": 48,
          "name": "C3",
          "ticks": 16320,
          "time": 38.85710400000001,
          "velocity": 0.7716535433070866
        },
        {
          "duration": 0.049999950000000126,
          "durationTicks": 21,
          "midi": 40,
          "name": "E2",
          "ticks": 16320,
          "time": 38.85710400000001,
          "velocity": 0.7716535433070866
        },
        {
          "duration": 0.1119046499999996,
          "durationTicks": 47,
          "midi": 36,
          "name": "C2",
          "ticks": 16320,
          "time": 38.85710400000001,
          "velocity": 0.8503937007874016
        },
        {
          "duration": 0.049999950000000126,
          "durationTicks": 21,
          "midi": 55,
          "name": "G3",
          "ticks": 16395,
          "time": 39.035675250000004,
          "velocity": 0.6141732283464567
        },
        {
          "duration": 0.049999950000000126,
          "durationTicks": 21,
          "midi": 45,
          "name": "A2",
          "ticks": 16395,
          "time": 39.035675250000004,
          "velocity": 0.7716535433070866
        },
        {
          "duration": 0.049999950000000126,
          "durationTicks": 21,
          "midi": 40,
          "name": "E2",
          "ticks": 16395,
          "time": 39.035675250000004,
          "velocity": 0.7716535433070866
        },
        {
          "duration": 0.049999950000000126,
          "durationTicks": 21,
          "midi": 40,
          "name": "E2",
          "ticks": 16440,
          "time": 39.142818000000005,
          "velocity": 0.7716535433070866
        },
        {
          "duration": 0.049999950000000126,
          "durationTicks": 21,
          "midi": 48,
          "name": "C3",
          "ticks": 16515,
          "time": 39.32138925,
          "velocity": 0.6929133858267716
        },
        {
          "duration": 0.049999950000000126,
          "durationTicks": 21,
          "midi": 47,
          "name": "B2",
          "ticks": 16560,
          "time": 39.428532000000004,
          "velocity": 0.7716535433070866
        },
        {
          "duration": 0.049999950000000126,
          "durationTicks": 21,
          "midi": 40,
          "name": "E2",
          "ticks": 16560,
          "time": 39.428532000000004,
          "velocity": 0.5511811023622047
        },
        {
          "duration": 0.1119046499999996,
          "durationTicks": 47,
          "midi": 36,
          "name": "C2",
          "ticks": 16560,
          "time": 39.428532000000004,
          "velocity": 0.8503937007874016
        },
        {
          "duration": 0.049999950000000126,
          "durationTicks": 21,
          "midi": 40,
          "name": "E2",
          "ticks": 16605,
          "time": 39.535674750000005,
          "velocity": 0.23622047244094488
        },
        {
          "duration": 0.06904755000000051,
          "durationTicks": 29,
          "midi": 40,
          "name": "E2",
          "ticks": 16620,
          "time": 39.571389,
          "velocity": 0.31496062992125984
        },
        {
          "duration": 0.04999995000000723,
          "durationTicks": 21,
          "midi": 55,
          "name": "G3",
          "ticks": 16635,
          "time": 39.60710325,
          "velocity": 0.7716535433070866
        },
        {
          "duration": 0.04999995000000723,
          "durationTicks": 21,
          "midi": 45,
          "name": "A2",
          "ticks": 16635,
          "time": 39.60710325,
          "velocity": 0.7716535433070866
        },
        {
          "duration": 0.04999995000000723,
          "durationTicks": 21,
          "midi": 40,
          "name": "E2",
          "ticks": 16635,
          "time": 39.60710325,
          "velocity": 0.3937007874015748
        },
        {
          "duration": 0.049999950000000126,
          "durationTicks": 21,
          "midi": 40,
          "name": "E2",
          "ticks": 16665,
          "time": 39.678531750000005,
          "velocity": 0.5511811023622047
        },
        {
          "duration": 0.04999995000000723,
          "durationTicks": 21,
          "midi": 45,
          "name": "A2",
          "ticks": 16680,
          "time": 39.714246,
          "velocity": 0.7716535433070866
        },
        {
          "duration": 0.04999995000000723,
          "durationTicks": 21,
          "midi": 40,
          "name": "E2",
          "ticks": 16680,
          "time": 39.714246,
          "velocity": 0.7716535433070866
        },
        {
          "duration": 0.04999995000000723,
          "durationTicks": 21,
          "midi": 43,
          "name": "G2",
          "ticks": 16755,
          "time": 39.89281725,
          "velocity": 0.7716535433070866
        },
        {
          "duration": 0.04999995000000723,
          "durationTicks": 21,
          "midi": 40,
          "name": "E2",
          "ticks": 16755,
          "time": 39.89281725,
          "velocity": 0.7716535433070866
        },
        {
          "duration": 0.04999995000000723,
          "durationTicks": 21,
          "midi": 42,
          "name": "F#2",
          "ticks": 16800,
          "time": 39.99996,
          "velocity": 0.6141732283464567
        },
        {
          "duration": 0.07380944999999883,
          "durationTicks": 31,
          "midi": 57,
          "name": "A3",
          "ticks": 16800,
          "time": 39.99996,
          "velocity": 0.7952755905511811
        },
        {
          "duration": 0.1119046499999925,
          "durationTicks": 47,
          "midi": 36,
          "name": "C2",
          "ticks": 16802,
          "time": 40.00472190000001,
          "velocity": 0.8503937007874016
        },
        {
          "duration": 0.04999995000000723,
          "durationTicks": 21,
          "midi": 42,
          "name": "F#2",
          "ticks": 16920,
          "time": 40.285674,
          "velocity": 0.6141732283464567
        },
        {
          "duration": 0.0666665999999978,
          "durationTicks": 28,
          "midi": 40,
          "name": "E2",
          "ticks": 16920,
          "time": 40.285674,
          "velocity": 0.8582677165354331
        },
        {
          "duration": 0.049999950000000126,
          "durationTicks": 21,
          "midi": 42,
          "name": "F#2",
          "ticks": 16995,
          "time": 40.464245250000005,
          "velocity": 0.6141732283464567
        },
        {
          "duration": 0.049999950000000126,
          "durationTicks": 21,
          "midi": 42,
          "name": "F#2",
          "ticks": 17040,
          "time": 40.571388000000006,
          "velocity": 0.6141732283464567
        },
        {
          "duration": 0.1119046499999996,
          "durationTicks": 47,
          "midi": 36,
          "name": "C2",
          "ticks": 17040,
          "time": 40.571388000000006,
          "velocity": 0.8503937007874016
        },
        {
          "duration": 0.049999950000000126,
          "durationTicks": 21,
          "midi": 42,
          "name": "F#2",
          "ticks": 17160,
          "time": 40.857102000000005,
          "velocity": 0.6141732283464567
        },
        {
          "duration": 0.0666665999999978,
          "durationTicks": 28,
          "midi": 40,
          "name": "E2",
          "ticks": 17160,
          "time": 40.857102000000005,
          "velocity": 0.8582677165354331
        },
        {
          "duration": 0.049999950000000126,
          "durationTicks": 21,
          "midi": 42,
          "name": "F#2",
          "ticks": 17280,
          "time": 41.142816,
          "velocity": 0.6141732283464567
        },
        {
          "duration": 0.11190465000000671,
          "durationTicks": 47,
          "midi": 36,
          "name": "C2",
          "ticks": 17280,
          "time": 41.142816,
          "velocity": 0.8503937007874016
        },
        {
          "duration": 0.04999995000000723,
          "durationTicks": 21,
          "midi": 42,
          "name": "F#2",
          "ticks": 17355,
          "time": 41.32138725,
          "velocity": 0.6141732283464567
        },
        {
          "duration": 0.04999995000000723,
          "durationTicks": 21,
          "midi": 42,
          "name": "F#2",
          "ticks": 17400,
          "time": 41.42853,
          "velocity": 0.6141732283464567
        },
        {
          "duration": 0.0666665999999978,
          "durationTicks": 28,
          "midi": 40,
          "name": "E2",
          "ticks": 17400,
          "time": 41.42853,
          "velocity": 0.8582677165354331
        },
        {
          "duration": 0.049999950000000126,
          "durationTicks": 21,
          "midi": 42,
          "name": "F#2",
          "ticks": 17475,
          "time": 41.60710125000001,
          "velocity": 0.6141732283464567
        },
        {
          "duration": 0.04999995000000723,
          "durationTicks": 21,
          "midi": 42,
          "name": "F#2",
          "ticks": 17520,
          "time": 41.714244,
          "velocity": 0.6141732283464567
        },
        {
          "duration": 0.11190465000000671,
          "durationTicks": 47,
          "midi": 36,
          "name": "C2",
          "ticks": 17520,
          "time": 41.714244,
          "velocity": 0.8503937007874016
        },
        {
          "duration": 0.049999950000000126,
          "durationTicks": 21,
          "midi": 46,
          "name": "A#2",
          "ticks": 17595,
          "time": 41.892815250000005,
          "velocity": 0.6141732283464567
        },
        {
          "duration": 0.0666665999999978,
          "durationTicks": 28,
          "midi": 40,
          "name": "E2",
          "ticks": 17595,
          "time": 41.892815250000005,
          "velocity": 0.8582677165354331
        },
        {
          "duration": 0.049999950000000126,
          "durationTicks": 21,
          "midi": 42,
          "name": "F#2",
          "ticks": 17640,
          "time": 41.99995800000001,
          "velocity": 0.6141732283464567
        },
        {
          "duration": 0.0666665999999907,
          "durationTicks": 28,
          "midi": 40,
          "name": "E2",
          "ticks": 17640,
          "time": 41.99995800000001,
          "velocity": 0.8582677165354331
        },
        {
          "duration": 0.049999950000000126,
          "durationTicks": 21,
          "midi": 46,
          "name": "A#2",
          "ticks": 17715,
          "time": 42.178529250000004,
          "velocity": 0.6141732283464567
        },
        {
          "duration": 0.0666665999999978,
          "durationTicks": 28,
          "midi": 36,
          "name": "C2",
          "ticks": 17715,
          "time": 42.178529250000004,
          "velocity": 0.8582677165354331
        },
        {
          "duration": 0.049999950000000126,
          "durationTicks": 21,
          "midi": 42,
          "name": "F#2",
          "ticks": 17760,
          "time": 42.285672000000005,
          "velocity": 0.6141732283464567
        },
        {
          "duration": 0.1119046499999925,
          "durationTicks": 47,
          "midi": 36,
          "name": "C2",
          "ticks": 17762,
          "time": 42.29043390000001,
          "velocity": 0.8503937007874016
        },
        {
          "duration": 0.049999950000000126,
          "durationTicks": 21,
          "midi": 42,
          "name": "F#2",
          "ticks": 17880,
          "time": 42.571386000000004,
          "velocity": 0.6141732283464567
        },
        {
          "duration": 0.0666665999999978,
          "durationTicks": 28,
          "midi": 40,
          "name": "E2",
          "ticks": 17880,
          "time": 42.571386000000004,
          "velocity": 0.8582677165354331
        },
        {
          "duration": 0.04999995000000723,
          "durationTicks": 21,
          "midi": 42,
          "name": "F#2",
          "ticks": 17955,
          "time": 42.74995725,
          "velocity": 0.6141732283464567
        },
        {
          "duration": 0.04999995000000723,
          "durationTicks": 21,
          "midi": 42,
          "name": "F#2",
          "ticks": 18000,
          "time": 42.8571,
          "velocity": 0.6141732283464567
        },
        {
          "duration": 0.11190465000000671,
          "durationTicks": 47,
          "midi": 36,
          "name": "C2",
          "ticks": 18000,
          "time": 42.8571,
          "velocity": 0.8503937007874016
        },
        {
          "duration": 0.04999995000000723,
          "durationTicks": 21,
          "midi": 42,
          "name": "F#2",
          "ticks": 18120,
          "time": 43.142814,
          "velocity": 0.6141732283464567
        },
        {
          "duration": 0.0666665999999978,
          "durationTicks": 28,
          "midi": 40,
          "name": "E2",
          "ticks": 18120,
          "time": 43.142814,
          "velocity": 0.8582677165354331
        },
        {
          "duration": 0.049999950000000126,
          "durationTicks": 21,
          "midi": 46,
          "name": "A#2",
          "ticks": 18195,
          "time": 43.321385250000006,
          "velocity": 0.6141732283464567
        },
        {
          "duration": 0.04999995000000723,
          "durationTicks": 21,
          "midi": 42,
          "name": "F#2",
          "ticks": 18240,
          "time": 43.428528,
          "velocity": 0.6141732283464567
        },
        {
          "duration": 0.11190465000000671,
          "durationTicks": 47,
          "midi": 36,
          "name": "C2",
          "ticks": 18240,
          "time": 43.428528,
          "velocity": 0.8503937007874016
        },
        {
          "duration": 0.049999950000000126,
          "durationTicks": 21,
          "midi": 42,
          "name": "F#2",
          "ticks": 18315,
          "time": 43.607099250000005,
          "velocity": 0.6141732283464567
        },
        {
          "duration": 0.049999950000000126,
          "durationTicks": 21,
          "midi": 42,
          "name": "F#2",
          "ticks": 18360,
          "time": 43.714242000000006,
          "velocity": 0.6141732283464567
        },
        {
          "duration": 0.0666665999999907,
          "durationTicks": 28,
          "midi": 40,
          "name": "E2",
          "ticks": 18360,
          "time": 43.714242000000006,
          "velocity": 0.8582677165354331
        },
        {
          "duration": 0.049999950000000126,
          "durationTicks": 21,
          "midi": 42,
          "name": "F#2",
          "ticks": 18435,
          "time": 43.89281325,
          "velocity": 0.6141732283464567
        },
        {
          "duration": 0.049999950000000126,
          "durationTicks": 21,
          "midi": 42,
          "name": "F#2",
          "ticks": 18480,
          "time": 43.999956000000005,
          "velocity": 0.6141732283464567
        },
        {
          "duration": 0.1119046499999996,
          "durationTicks": 47,
          "midi": 36,
          "name": "C2",
          "ticks": 18480,
          "time": 43.999956000000005,
          "velocity": 0.8503937007874016
        },
        {
          "duration": 0.03333330000000245,
          "durationTicks": 14,
          "midi": 40,
          "name": "E2",
          "ticks": 18540,
          "time": 44.142813000000004,
          "velocity": 0.4645669291338583
        },
        {
          "duration": 0.03333330000000245,
          "durationTicks": 14,
          "midi": 40,
          "name": "E2",
          "ticks": 18555,
          "time": 44.17852725,
          "velocity": 0.4645669291338583
        },
        {
          "duration": 0.04999995000000723,
          "durationTicks": 21,
          "midi": 46,
          "name": "A#2",
          "ticks": 18555,
          "time": 44.17852725,
          "velocity": 0.6141732283464567
        },
        {
          "duration": 0.03333329999999535,
          "durationTicks": 14,
          "midi": 40,
          "name": "E2",
          "ticks": 18570,
          "time": 44.21424150000001,
          "velocity": 0.6220472440944882
        },
        {
          "duration": 0.03333330000000245,
          "durationTicks": 14,
          "midi": 40,
          "name": "E2",
          "ticks": 18585,
          "time": 44.249955750000005,
          "velocity": 0.6220472440944882
        },
        {
          "duration": 0.03333330000000245,
          "durationTicks": 14,
          "midi": 40,
          "name": "E2",
          "ticks": 18600,
          "time": 44.28567,
          "velocity": 0.7007874015748031
        },
        {
          "duration": 0.0666665999999978,
          "durationTicks": 28,
          "midi": 36,
          "name": "C2",
          "ticks": 18600,
          "time": 44.28567,
          "velocity": 0.8582677165354331
        },
        {
          "duration": 0.04999995000000723,
          "durationTicks": 21,
          "midi": 42,
          "name": "F#2",
          "ticks": 18600,
          "time": 44.28567,
          "velocity": 0.6141732283464567
        },
        {
          "duration": 0.0666665999999978,
          "durationTicks": 28,
          "midi": 40,
          "name": "E2",
          "ticks": 18675,
          "time": 44.46424125,
          "velocity": 0.8582677165354331
        },
        {
          "duration": 0.04999995000000723,
          "durationTicks": 21,
          "midi": 46,
          "name": "A#2",
          "ticks": 18675,
          "time": 44.46424125,
          "velocity": 0.6141732283464567
        },
        {
          "duration": 0.04999995000000723,
          "durationTicks": 21,
          "midi": 42,
          "name": "F#2",
          "ticks": 18720,
          "time": 44.571384,
          "velocity": 0.6141732283464567
        },
        {
          "duration": 0.1119046499999925,
          "durationTicks": 47,
          "midi": 36,
          "name": "C2",
          "ticks": 18722,
          "time": 44.57614590000001,
          "velocity": 0.8503937007874016
        },
        {
          "duration": 0.04999995000000723,
          "durationTicks": 21,
          "midi": 42,
          "name": "F#2",
          "ticks": 18840,
          "time": 44.857098,
          "velocity": 0.6141732283464567
        },
        {
          "duration": 0.0666665999999978,
          "durationTicks": 28,
          "midi": 40,
          "name": "E2",
          "ticks": 18840,
          "time": 44.857098,
          "velocity": 0.8582677165354331
        },
        {
          "duration": 0.049999950000000126,
          "durationTicks": 21,
          "midi": 42,
          "name": "F#2",
          "ticks": 18915,
          "time": 45.035669250000005,
          "velocity": 0.6141732283464567
        },
        {
          "duration": 0.049999950000000126,
          "durationTicks": 21,
          "midi": 42,
          "name": "F#2",
          "ticks": 18960,
          "time": 45.142812000000006,
          "velocity": 0.6141732283464567
        },
        {
          "duration": 0.1119046499999996,
          "durationTicks": 47,
          "midi": 36,
          "name": "C2",
          "ticks": 18960,
          "time": 45.142812000000006,
          "velocity": 0.8503937007874016
        },
        {
          "duration": 0.049999950000000126,
          "durationTicks": 21,
          "midi": 42,
          "name": "F#2",
          "ticks": 19080,
          "time": 45.428526000000005,
          "velocity": 0.6141732283464567
        },
        {
          "duration": 0.0666665999999978,
          "durationTicks": 28,
          "midi": 40,
          "name": "E2",
          "ticks": 19080,
          "time": 45.428526000000005,
          "velocity": 0.8582677165354331
        },
        {
          "duration": 0.049999950000000126,
          "durationTicks": 21,
          "midi": 42,
          "name": "F#2",
          "ticks": 19200,
          "time": 45.714240000000004,
          "velocity": 0.6141732283464567
        },
        {
          "duration": 0.11190465000000671,
          "durationTicks": 47,
          "midi": 36,
          "name": "C2",
          "ticks": 19200,
          "time": 45.714240000000004,
          "velocity": 0.8503937007874016
        },
        {
          "duration": 0.04999995000000723,
          "durationTicks": 21,
          "midi": 42,
          "name": "F#2",
          "ticks": 19275,
          "time": 45.89281125,
          "velocity": 0.6141732283464567
        },
        {
          "duration": 0.04999995000000723,
          "durationTicks": 21,
          "midi": 42,
          "name": "F#2",
          "ticks": 19320,
          "time": 45.999954,
          "velocity": 0.6141732283464567
        },
        {
          "duration": 0.0666665999999978,
          "durationTicks": 28,
          "midi": 40,
          "name": "E2",
          "ticks": 19320,
          "time": 45.999954,
          "velocity": 0.8582677165354331
        },
        {
          "duration": 0.049999950000000126,
          "durationTicks": 21,
          "midi": 42,
          "name": "F#2",
          "ticks": 19395,
          "time": 46.17852525000001,
          "velocity": 0.6141732283464567
        },
        {
          "duration": 0.04999995000000723,
          "durationTicks": 21,
          "midi": 42,
          "name": "F#2",
          "ticks": 19440,
          "time": 46.285668,
          "velocity": 0.6141732283464567
        },
        {
          "duration": 0.11190465000000671,
          "durationTicks": 47,
          "midi": 36,
          "name": "C2",
          "ticks": 19440,
          "time": 46.285668,
          "velocity": 0.8503937007874016
        },
        {
          "duration": 0.049999950000000126,
          "durationTicks": 21,
          "midi": 46,
          "name": "A#2",
          "ticks": 19515,
          "time": 46.464239250000006,
          "velocity": 0.6141732283464567
        },
        {
          "duration": 0.0666665999999978,
          "durationTicks": 28,
          "midi": 40,
          "name": "E2",
          "ticks": 19515,
          "time": 46.464239250000006,
          "velocity": 0.8582677165354331
        },
        {
          "duration": 0.049999950000000126,
          "durationTicks": 21,
          "midi": 42,
          "name": "F#2",
          "ticks": 19560,
          "time": 46.57138200000001,
          "velocity": 0.6141732283464567
        },
        {
          "duration": 0.0666665999999907,
          "durationTicks": 28,
          "midi": 40,
          "name": "E2",
          "ticks": 19560,
          "time": 46.57138200000001,
          "velocity": 0.8582677165354331
        },
        {
          "duration": 0.049999950000000126,
          "durationTicks": 21,
          "midi": 46,
          "name": "A#2",
          "ticks": 19635,
          "time": 46.749953250000004,
          "velocity": 0.6141732283464567
        },
        {
          "duration": 0.0666665999999978,
          "durationTicks": 28,
          "midi": 36,
          "name": "C2",
          "ticks": 19635,
          "time": 46.749953250000004,
          "velocity": 0.8582677165354331
        },
        {
          "duration": 0.049999950000000126,
          "durationTicks": 21,
          "midi": 42,
          "name": "F#2",
          "ticks": 19680,
          "time": 46.857096000000006,
          "velocity": 0.6141732283464567
        },
        {
          "duration": 0.1119046499999925,
          "durationTicks": 47,
          "midi": 36,
          "name": "C2",
          "ticks": 19682,
          "time": 46.86185790000001,
          "velocity": 0.8503937007874016
        },
        {
          "duration": 0.049999950000000126,
          "durationTicks": 21,
          "midi": 42,
          "name": "F#2",
          "ticks": 19800,
          "time": 47.142810000000004,
          "velocity": 0.6141732283464567
        },
        {
          "duration": 0.0666665999999978,
          "durationTicks": 28,
          "midi": 40,
          "name": "E2",
          "ticks": 19800,
          "time": 47.142810000000004,
          "velocity": 0.8582677165354331
        },
        {
          "duration": 0.04999995000000723,
          "durationTicks": 21,
          "midi": 42,
          "name": "F#2",
          "ticks": 19875,
          "time": 47.32138125,
          "velocity": 0.6141732283464567
        },
        {
          "duration": 0.04999995000000723,
          "durationTicks": 21,
          "midi": 42,
          "name": "F#2",
          "ticks": 19920,
          "time": 47.428524,
          "velocity": 0.6141732283464567
        },
        {
          "duration": 0.11190465000000671,
          "durationTicks": 47,
          "midi": 36,
          "name": "C2",
          "ticks": 19920,
          "time": 47.428524,
          "velocity": 0.8503937007874016
        },
        {
          "duration": 0.04999995000000723,
          "durationTicks": 21,
          "midi": 42,
          "name": "F#2",
          "ticks": 20040,
          "time": 47.714238,
          "velocity": 0.6141732283464567
        },
        {
          "duration": 0.0666665999999978,
          "durationTicks": 28,
          "midi": 40,
          "name": "E2",
          "ticks": 20040,
          "time": 47.714238,
          "velocity": 0.8582677165354331
        },
        {
          "duration": 0.049999950000000126,
          "durationTicks": 21,
          "midi": 46,
          "name": "A#2",
          "ticks": 20115,
          "time": 47.892809250000006,
          "velocity": 0.6141732283464567
        },
        {
          "duration": 0.049999950000000126,
          "durationTicks": 21,
          "midi": 42,
          "name": "F#2",
          "ticks": 20160,
          "time": 47.99995200000001,
          "velocity": 0.6141732283464567
        },
        {
          "duration": 0.1119046499999996,
          "durationTicks": 47,
          "midi": 36,
          "name": "C2",
          "ticks": 20160,
          "time": 47.99995200000001,
          "velocity": 0.8503937007874016
        },
        {
          "duration": 0.049999950000000126,
          "durationTicks": 21,
          "midi": 42,
          "name": "F#2",
          "ticks": 20235,
          "time": 48.178523250000005,
          "velocity": 0.6141732283464567
        },
        {
          "duration": 0.049999950000000126,
          "durationTicks": 21,
          "midi": 42,
          "name": "F#2",
          "ticks": 20280,
          "time": 48.285666000000006,
          "velocity": 0.6141732283464567
        },
        {
          "duration": 0.0666665999999907,
          "durationTicks": 28,
          "midi": 40,
          "name": "E2",
          "ticks": 20280,
          "time": 48.285666000000006,
          "velocity": 0.8582677165354331
        },
        {
          "duration": 0.03333330000000245,
          "durationTicks": 14,
          "midi": 40,
          "name": "E2",
          "ticks": 20340,
          "time": 48.428523000000006,
          "velocity": 0.4645669291338583
        },
        {
          "duration": 0.03333330000000245,
          "durationTicks": 14,
          "midi": 40,
          "name": "E2",
          "ticks": 20355,
          "time": 48.464237250000004,
          "velocity": 0.4645669291338583
        },
        {
          "duration": 0.049999950000000126,
          "durationTicks": 21,
          "midi": 42,
          "name": "F#2",
          "ticks": 20355,
          "time": 48.464237250000004,
          "velocity": 0.6141732283464567
        },
        {
          "duration": 0.03333330000000245,
          "durationTicks": 14,
          "midi": 40,
          "name": "E2",
          "ticks": 20370,
          "time": 48.4999515,
          "velocity": 0.6220472440944882
        },
        {
          "duration": 0.03333330000000245,
          "durationTicks": 14,
          "midi": 40,
          "name": "E2",
          "ticks": 20385,
          "time": 48.53566575000001,
          "velocity": 0.6220472440944882
        },
        {
          "duration": 0.03333330000000245,
          "durationTicks": 14,
          "midi": 40,
          "name": "E2",
          "ticks": 20400,
          "time": 48.571380000000005,
          "velocity": 0.7007874015748031
        },
        {
          "duration": 0.049999950000000126,
          "durationTicks": 21,
          "midi": 42,
          "name": "F#2",
          "ticks": 20400,
          "time": 48.571380000000005,
          "velocity": 0.6141732283464567
        },
        {
          "duration": 0.1119046499999996,
          "durationTicks": 47,
          "midi": 36,
          "name": "C2",
          "ticks": 20400,
          "time": 48.571380000000005,
          "velocity": 0.8503937007874016
        },
        {
          "duration": 0.03333330000000245,
          "durationTicks": 14,
          "midi": 40,
          "name": "E2",
          "ticks": 20475,
          "time": 48.74995125,
          "velocity": 0.7007874015748031
        },
        {
          "duration": 0.04999995000000723,
          "durationTicks": 21,
          "midi": 46,
          "name": "A#2",
          "ticks": 20475,
          "time": 48.74995125,
          "velocity": 0.6141732283464567
        },
        {
          "duration": 0.10476180000000568,
          "durationTicks": 44,
          "midi": 45,
          "name": "A2",
          "ticks": 20520,
          "time": 48.857094000000004,
          "velocity": 0.8661417322834646
        },
        {
          "duration": 0.057142799999994054,
          "durationTicks": 24,
          "midi": 55,
          "name": "G3",
          "ticks": 20520,
          "time": 48.857094000000004,
          "velocity": 0.6614173228346457
        },
        {
          "duration": 0.0666665999999978,
          "durationTicks": 28,
          "midi": 36,
          "name": "C2",
          "ticks": 20520,
          "time": 48.857094000000004,
          "velocity": 0.8582677165354331
        },
        {
          "duration": 0.04999995000000723,
          "durationTicks": 21,
          "midi": 42,
          "name": "F#2",
          "ticks": 20520,
          "time": 48.857094000000004,
          "velocity": 0.6929133858267716
        },
        {
          "duration": 0.0666665999999978,
          "durationTicks": 28,
          "midi": 40,
          "name": "E2",
          "ticks": 20595,
          "time": 49.03566525,
          "velocity": 0.8582677165354331
        },
        {
          "duration": 0.04999995000000723,
          "durationTicks": 21,
          "midi": 46,
          "name": "A#2",
          "ticks": 20595,
          "time": 49.03566525,
          "velocity": 0.6141732283464567
        },
        {
          "duration": 0.08333325000000258,
          "durationTicks": 35,
          "midi": 57,
          "name": "A3",
          "ticks": 20640,
          "time": 49.142808,
          "velocity": 0.6929133858267716
        },
        {
          "duration": 0.04999995000000723,
          "durationTicks": 21,
          "midi": 42,
          "name": "F#2",
          "ticks": 20640,
          "time": 49.142808,
          "velocity": 0.6141732283464567
        },
        {
          "duration": 0.1119046499999925,
          "durationTicks": 47,
          "midi": 36,
          "name": "C2",
          "ticks": 20642,
          "time": 49.14756990000001,
          "velocity": 0.8503937007874016
        },
        {
          "duration": 0.04999995000000723,
          "durationTicks": 21,
          "midi": 42,
          "name": "F#2",
          "ticks": 20760,
          "time": 49.428522,
          "velocity": 0.6141732283464567
        },
        {
          "duration": 0.0666665999999978,
          "durationTicks": 28,
          "midi": 40,
          "name": "E2",
          "ticks": 20760,
          "time": 49.428522,
          "velocity": 0.8582677165354331
        },
        {
          "duration": 0.049999950000000126,
          "durationTicks": 21,
          "midi": 42,
          "name": "F#2",
          "ticks": 20835,
          "time": 49.607093250000005,
          "velocity": 0.6141732283464567
        },
        {
          "duration": 0.049999950000000126,
          "durationTicks": 21,
          "midi": 42,
          "name": "F#2",
          "ticks": 20880,
          "time": 49.71423600000001,
          "velocity": 0.6141732283464567
        },
        {
          "duration": 0.1119046499999996,
          "durationTicks": 47,
          "midi": 36,
          "name": "C2",
          "ticks": 20880,
          "time": 49.71423600000001,
          "velocity": 0.8503937007874016
        },
        {
          "duration": 0.049999950000000126,
          "durationTicks": 21,
          "midi": 42,
          "name": "F#2",
          "ticks": 21000,
          "time": 49.999950000000005,
          "velocity": 0.6141732283464567
        },
        {
          "duration": 0.0666665999999978,
          "durationTicks": 28,
          "midi": 40,
          "name": "E2",
          "ticks": 21000,
          "time": 49.999950000000005,
          "velocity": 0.8582677165354331
        },
        {
          "duration": 0.049999950000000126,
          "durationTicks": 21,
          "midi": 42,
          "name": "F#2",
          "ticks": 21120,
          "time": 50.285664000000004,
          "velocity": 0.6141732283464567
        },
        {
          "duration": 0.11190465000000671,
          "durationTicks": 47,
          "midi": 36,
          "name": "C2",
          "ticks": 21120,
          "time": 50.285664000000004,
          "velocity": 0.8503937007874016
        },
        {
          "duration": 0.04999995000000723,
          "durationTicks": 21,
          "midi": 42,
          "name": "F#2",
          "ticks": 21195,
          "time": 50.46423525,
          "velocity": 0.6141732283464567
        },
        {
          "duration": 0.04999995000000723,
          "durationTicks": 21,
          "midi": 42,
          "name": "F#2",
          "ticks": 21240,
          "time": 50.571378,
          "velocity": 0.6141732283464567
        },
        {
          "duration": 0.0666665999999978,
          "durationTicks": 28,
          "midi": 40,
          "name": "E2",
          "ticks": 21240,
          "time": 50.571378,
          "velocity": 0.8582677165354331
        },
        {
          "duration": 0.049999950000000126,
          "durationTicks": 21,
          "midi": 42,
          "name": "F#2",
          "ticks": 21315,
          "time": 50.74994925000001,
          "velocity": 0.6141732283464567
        },
        {
          "duration": 0.04999995000000723,
          "durationTicks": 21,
          "midi": 42,
          "name": "F#2",
          "ticks": 21360,
          "time": 50.857092,
          "velocity": 0.6141732283464567
        },
        {
          "duration": 0.11190465000000671,
          "durationTicks": 47,
          "midi": 36,
          "name": "C2",
          "ticks": 21360,
          "time": 50.857092,
          "velocity": 0.8503937007874016
        },
        {
          "duration": 0.049999950000000126,
          "durationTicks": 21,
          "midi": 46,
          "name": "A#2",
          "ticks": 21435,
          "time": 51.035663250000006,
          "velocity": 0.6141732283464567
        },
        {
          "duration": 0.0666665999999978,
          "durationTicks": 28,
          "midi": 40,
          "name": "E2",
          "ticks": 21435,
          "time": 51.035663250000006,
          "velocity": 0.8582677165354331
        },
        {
          "duration": 0.049999950000000126,
          "durationTicks": 21,
          "midi": 42,
          "name": "F#2",
          "ticks": 21480,
          "time": 51.14280600000001,
          "velocity": 0.6141732283464567
        },
        {
          "duration": 0.0666665999999907,
          "durationTicks": 28,
          "midi": 40,
          "name": "E2",
          "ticks": 21480,
          "time": 51.14280600000001,
          "velocity": 0.8582677165354331
        },
        {
          "duration": 0.049999950000000126,
          "durationTicks": 21,
          "midi": 46,
          "name": "A#2",
          "ticks": 21555,
          "time": 51.321377250000005,
          "velocity": 0.6141732283464567
        },
        {
          "duration": 0.0666665999999978,
          "durationTicks": 28,
          "midi": 36,
          "name": "C2",
          "ticks": 21555,
          "time": 51.321377250000005,
          "velocity": 0.8582677165354331
        },
        {
          "duration": 0.049999950000000126,
          "durationTicks": 21,
          "midi": 42,
          "name": "F#2",
          "ticks": 21600,
          "time": 51.428520000000006,
          "velocity": 0.6141732283464567
        },
        {
          "duration": 0.1119046499999925,
          "durationTicks": 47,
          "midi": 36,
          "name": "C2",
          "ticks": 21602,
          "time": 51.43328190000001,
          "velocity": 0.8503937007874016
        },
        {
          "duration": 0.049999950000000126,
          "durationTicks": 21,
          "midi": 42,
          "name": "F#2",
          "ticks": 21720,
          "time": 51.714234000000005,
          "velocity": 0.6141732283464567
        },
        {
          "duration": 0.0666665999999978,
          "durationTicks": 28,
          "midi": 40,
          "name": "E2",
          "ticks": 21720,
          "time": 51.714234000000005,
          "velocity": 0.8582677165354331
        },
        {
          "duration": 0.04999995000000723,
          "durationTicks": 21,
          "midi": 42,
          "name": "F#2",
          "ticks": 21795,
          "time": 51.89280525,
          "velocity": 0.6141732283464567
        },
        {
          "duration": 0.04999995000000723,
          "durationTicks": 21,
          "midi": 42,
          "name": "F#2",
          "ticks": 21840,
          "time": 51.999948,
          "velocity": 0.6141732283464567
        },
        {
          "duration": 0.11190465000000671,
          "durationTicks": 47,
          "midi": 36,
          "name": "C2",
          "ticks": 21840,
          "time": 51.999948,
          "velocity": 0.8503937007874016
        },
        {
          "duration": 0.04999995000000723,
          "durationTicks": 21,
          "midi": 42,
          "name": "F#2",
          "ticks": 21960,
          "time": 52.285662,
          "velocity": 0.6141732283464567
        },
        {
          "duration": 0.0666665999999978,
          "durationTicks": 28,
          "midi": 40,
          "name": "E2",
          "ticks": 21960,
          "time": 52.285662,
          "velocity": 0.8582677165354331
        },
        {
          "duration": 0.049999950000000126,
          "durationTicks": 21,
          "midi": 46,
          "name": "A#2",
          "ticks": 22035,
          "time": 52.46423325000001,
          "velocity": 0.6141732283464567
        },
        {
          "duration": 0.04999995000000723,
          "durationTicks": 21,
          "midi": 42,
          "name": "F#2",
          "ticks": 22080,
          "time": 52.571376,
          "velocity": 0.6141732283464567
        },
        {
          "duration": 0.11190465000000671,
          "durationTicks": 47,
          "midi": 36,
          "name": "C2",
          "ticks": 22080,
          "time": 52.571376,
          "velocity": 0.8503937007874016
        },
        {
          "duration": 0.049999950000000126,
          "durationTicks": 21,
          "midi": 42,
          "name": "F#2",
          "ticks": 22155,
          "time": 52.749947250000005,
          "velocity": 0.6141732283464567
        },
        {
          "duration": 0.049999950000000126,
          "durationTicks": 21,
          "midi": 42,
          "name": "F#2",
          "ticks": 22200,
          "time": 52.85709000000001,
          "velocity": 0.6141732283464567
        },
        {
          "duration": 0.0666665999999907,
          "durationTicks": 28,
          "midi": 40,
          "name": "E2",
          "ticks": 22200,
          "time": 52.85709000000001,
          "velocity": 0.8582677165354331
        },
        {
          "duration": 0.049999950000000126,
          "durationTicks": 21,
          "midi": 42,
          "name": "F#2",
          "ticks": 22275,
          "time": 53.035661250000004,
          "velocity": 0.6141732283464567
        },
        {
          "duration": 0.049999950000000126,
          "durationTicks": 21,
          "midi": 42,
          "name": "F#2",
          "ticks": 22320,
          "time": 53.142804000000005,
          "velocity": 0.6141732283464567
        },
        {
          "duration": 0.1119046499999996,
          "durationTicks": 47,
          "midi": 36,
          "name": "C2",
          "ticks": 22320,
          "time": 53.142804000000005,
          "velocity": 0.8503937007874016
        },
        {
          "duration": 0.03333330000000245,
          "durationTicks": 14,
          "midi": 40,
          "name": "E2",
          "ticks": 22380,
          "time": 53.285661000000005,
          "velocity": 0.3858267716535433
        },
        {
          "duration": 0.03333330000000245,
          "durationTicks": 14,
          "midi": 40,
          "name": "E2",
          "ticks": 22395,
          "time": 53.32137525,
          "velocity": 0.3858267716535433
        },
        {
          "duration": 0.04999995000000723,
          "durationTicks": 21,
          "midi": 46,
          "name": "A#2",
          "ticks": 22395,
          "time": 53.32137525,
          "velocity": 0.6141732283464567
        },
        {
          "duration": 0.03333329999999535,
          "durationTicks": 14,
          "midi": 40,
          "name": "E2",
          "ticks": 22410,
          "time": 53.35708950000001,
          "velocity": 0.5433070866141733
        },
        {
          "duration": 0.03333330000000245,
          "durationTicks": 14,
          "midi": 40,
          "name": "E2",
          "ticks": 22425,
          "time": 53.392803750000006,
          "velocity": 0.6220472440944882
        },
        {
          "duration": 0.03333330000000245,
          "durationTicks": 14,
          "midi": 40,
          "name": "E2",
          "ticks": 22440,
          "time": 53.428518000000004,
          "velocity": 0.7007874015748031
        },
        {
          "duration": 0.0666665999999978,
          "durationTicks": 28,
          "midi": 36,
          "name": "C2",
          "ticks": 22440,
          "time": 53.428518000000004,
          "velocity": 0.8582677165354331
        },
        {
          "duration": 0.04999995000000723,
          "durationTicks": 21,
          "midi": 42,
          "name": "F#2",
          "ticks": 22440,
          "time": 53.428518000000004,
          "velocity": 0.6141732283464567
        },
        {
          "duration": 0.0666665999999978,
          "durationTicks": 28,
          "midi": 40,
          "name": "E2",
          "ticks": 22515,
          "time": 53.60708925,
          "velocity": 0.8582677165354331
        },
        {
          "duration": 0.04999995000000723,
          "durationTicks": 21,
          "midi": 46,
          "name": "A#2",
          "ticks": 22515,
          "time": 53.60708925,
          "velocity": 0.6141732283464567
        },
        {
          "duration": 0.04999995000000723,
          "durationTicks": 21,
          "midi": 42,
          "name": "F#2",
          "ticks": 22560,
          "time": 53.714232,
          "velocity": 0.6141732283464567
        },
        {
          "duration": 0.1119046499999925,
          "durationTicks": 47,
          "midi": 36,
          "name": "C2",
          "ticks": 22562,
          "time": 53.71899390000001,
          "velocity": 0.8503937007874016
        },
        {
          "duration": 0.04999995000000723,
          "durationTicks": 21,
          "midi": 42,
          "name": "F#2",
          "ticks": 22680,
          "time": 53.999946,
          "velocity": 0.6141732283464567
        },
        {
          "duration": 0.0666665999999978,
          "durationTicks": 28,
          "midi": 40,
          "name": "E2",
          "ticks": 22680,
          "time": 53.999946,
          "velocity": 0.8582677165354331
        },
        {
          "duration": 0.049999950000000126,
          "durationTicks": 21,
          "midi": 42,
          "name": "F#2",
          "ticks": 22755,
          "time": 54.178517250000006,
          "velocity": 0.6141732283464567
        },
        {
          "duration": 0.049999950000000126,
          "durationTicks": 21,
          "midi": 42,
          "name": "F#2",
          "ticks": 22800,
          "time": 54.28566000000001,
          "velocity": 0.6141732283464567
        },
        {
          "duration": 0.1119046499999996,
          "durationTicks": 47,
          "midi": 36,
          "name": "C2",
          "ticks": 22800,
          "time": 54.28566000000001,
          "velocity": 0.8503937007874016
        },
        {
          "duration": 0.049999950000000126,
          "durationTicks": 21,
          "midi": 42,
          "name": "F#2",
          "ticks": 22920,
          "time": 54.571374000000006,
          "velocity": 0.6141732283464567
        },
        {
          "duration": 0.0666665999999978,
          "durationTicks": 28,
          "midi": 40,
          "name": "E2",
          "ticks": 22920,
          "time": 54.571374000000006,
          "velocity": 0.8582677165354331
        },
        {
          "duration": 0.049999950000000126,
          "durationTicks": 21,
          "midi": 42,
          "name": "F#2",
          "ticks": 23040,
          "time": 54.857088000000005,
          "velocity": 0.6141732283464567
        },
        {
          "duration": 0.11190465000000671,
          "durationTicks": 47,
          "midi": 36,
          "name": "C2",
          "ticks": 23040,
          "time": 54.857088000000005,
          "velocity": 0.8503937007874016
        },
        {
          "duration": 0.04999995000000723,
          "durationTicks": 21,
          "midi": 42,
          "name": "F#2",
          "ticks": 23115,
          "time": 55.03565925,
          "velocity": 0.6141732283464567
        },
        {
          "duration": 0.04999995000000723,
          "durationTicks": 21,
          "midi": 42,
          "name": "F#2",
          "ticks": 23160,
          "time": 55.142802,
          "velocity": 0.6141732283464567
        },
        {
          "duration": 0.0666665999999978,
          "durationTicks": 28,
          "midi": 40,
          "name": "E2",
          "ticks": 23160,
          "time": 55.142802,
          "velocity": 0.8582677165354331
        },
        {
          "duration": 0.049999950000000126,
          "durationTicks": 21,
          "midi": 42,
          "name": "F#2",
          "ticks": 23235,
          "time": 55.32137325000001,
          "velocity": 0.6141732283464567
        },
        {
          "duration": 0.04999995000000723,
          "durationTicks": 21,
          "midi": 42,
          "name": "F#2",
          "ticks": 23280,
          "time": 55.428516,
          "velocity": 0.6141732283464567
        },
        {
          "duration": 0.11190465000000671,
          "durationTicks": 47,
          "midi": 36,
          "name": "C2",
          "ticks": 23280,
          "time": 55.428516,
          "velocity": 0.8503937007874016
        },
        {
          "duration": 0.049999950000000126,
          "durationTicks": 21,
          "midi": 46,
          "name": "A#2",
          "ticks": 23355,
          "time": 55.607087250000006,
          "velocity": 0.6141732283464567
        },
        {
          "duration": 0.0666665999999978,
          "durationTicks": 28,
          "midi": 40,
          "name": "E2",
          "ticks": 23355,
          "time": 55.607087250000006,
          "velocity": 0.8582677165354331
        },
        {
          "duration": 0.049999950000000126,
          "durationTicks": 21,
          "midi": 42,
          "name": "F#2",
          "ticks": 23400,
          "time": 55.71423000000001,
          "velocity": 0.6141732283464567
        },
        {
          "duration": 0.0666665999999907,
          "durationTicks": 28,
          "midi": 40,
          "name": "E2",
          "ticks": 23400,
          "time": 55.71423000000001,
          "velocity": 0.8582677165354331
        },
        {
          "duration": 0.049999950000000126,
          "durationTicks": 21,
          "midi": 46,
          "name": "A#2",
          "ticks": 23475,
          "time": 55.892801250000005,
          "velocity": 0.6141732283464567
        },
        {
          "duration": 0.0666665999999978,
          "durationTicks": 28,
          "midi": 36,
          "name": "C2",
          "ticks": 23475,
          "time": 55.892801250000005,
          "velocity": 0.8582677165354331
        },
        {
          "duration": 0.049999950000000126,
          "durationTicks": 21,
          "midi": 42,
          "name": "F#2",
          "ticks": 23520,
          "time": 55.999944000000006,
          "velocity": 0.6141732283464567
        },
        {
          "duration": 0.1119046499999925,
          "durationTicks": 47,
          "midi": 36,
          "name": "C2",
          "ticks": 23522,
          "time": 56.00470590000001,
          "velocity": 0.8503937007874016
        },
        {
          "duration": 0.049999950000000126,
          "durationTicks": 21,
          "midi": 42,
          "name": "F#2",
          "ticks": 23640,
          "time": 56.285658000000005,
          "velocity": 0.6141732283464567
        },
        {
          "duration": 0.0666665999999978,
          "durationTicks": 28,
          "midi": 40,
          "name": "E2",
          "ticks": 23640,
          "time": 56.285658000000005,
          "velocity": 0.8582677165354331
        },
        {
          "duration": 0.04999995000000723,
          "durationTicks": 21,
          "midi": 42,
          "name": "F#2",
          "ticks": 23715,
          "time": 56.46422925,
          "velocity": 0.6141732283464567
        },
        {
          "duration": 0.04999995000000723,
          "durationTicks": 21,
          "midi": 42,
          "name": "F#2",
          "ticks": 23760,
          "time": 56.571372000000004,
          "velocity": 0.6141732283464567
        },
        {
          "duration": 0.11190465000000671,
          "durationTicks": 47,
          "midi": 36,
          "name": "C2",
          "ticks": 23760,
          "time": 56.571372000000004,
          "velocity": 0.8503937007874016
        },
        {
          "duration": 0.04999995000000723,
          "durationTicks": 21,
          "midi": 42,
          "name": "F#2",
          "ticks": 23880,
          "time": 56.857086,
          "velocity": 0.6141732283464567
        },
        {
          "duration": 0.0666665999999978,
          "durationTicks": 28,
          "midi": 40,
          "name": "E2",
          "ticks": 23880,
          "time": 56.857086,
          "velocity": 0.8582677165354331
        },
        {
          "duration": 0.049999950000000126,
          "durationTicks": 21,
          "midi": 46,
          "name": "A#2",
          "ticks": 23955,
          "time": 57.03565725000001,
          "velocity": 0.6141732283464567
        },
        {
          "duration": 0.049999950000000126,
          "durationTicks": 21,
          "midi": 42,
          "name": "F#2",
          "ticks": 24000,
          "time": 57.14280000000001,
          "velocity": 0.6141732283464567
        },
        {
          "duration": 0.1119046499999996,
          "durationTicks": 47,
          "midi": 36,
          "name": "C2",
          "ticks": 24000,
          "time": 57.14280000000001,
          "velocity": 0.8503937007874016
        },
        {
          "duration": 0.049999950000000126,
          "durationTicks": 21,
          "midi": 42,
          "name": "F#2",
          "ticks": 24075,
          "time": 57.321371250000006,
          "velocity": 0.6141732283464567
        },
        {
          "duration": 0.049999950000000126,
          "durationTicks": 21,
          "midi": 42,
          "name": "F#2",
          "ticks": 24120,
          "time": 57.42851400000001,
          "velocity": 0.6141732283464567
        },
        {
          "duration": 0.0666665999999907,
          "durationTicks": 28,
          "midi": 40,
          "name": "E2",
          "ticks": 24120,
          "time": 57.42851400000001,
          "velocity": 0.8582677165354331
        },
        {
          "duration": 0.03333330000000245,
          "durationTicks": 14,
          "midi": 40,
          "name": "E2",
          "ticks": 24180,
          "time": 57.571371000000006,
          "velocity": 0.4645669291338583
        },
        {
          "duration": 0.03333330000000245,
          "durationTicks": 14,
          "midi": 40,
          "name": "E2",
          "ticks": 24195,
          "time": 57.607085250000004,
          "velocity": 0.4645669291338583
        },
        {
          "duration": 0.049999950000000126,
          "durationTicks": 21,
          "midi": 42,
          "name": "F#2",
          "ticks": 24195,
          "time": 57.607085250000004,
          "velocity": 0.6141732283464567
        },
        {
          "duration": 0.03333330000000245,
          "durationTicks": 14,
          "midi": 40,
          "name": "E2",
          "ticks": 24210,
          "time": 57.6427995,
          "velocity": 0.6220472440944882
        },
        {
          "duration": 0.03333330000000245,
          "durationTicks": 14,
          "midi": 40,
          "name": "E2",
          "ticks": 24225,
          "time": 57.67851375000001,
          "velocity": 0.6220472440944882
        },
        {
          "duration": 0.049999950000000126,
          "durationTicks": 21,
          "midi": 42,
          "name": "F#2",
          "ticks": 24240,
          "time": 57.714228000000006,
          "velocity": 0.6141732283464567
        },
        {
          "duration": 0.03333330000000245,
          "durationTicks": 14,
          "midi": 40,
          "name": "E2",
          "ticks": 24240,
          "time": 57.714228000000006,
          "velocity": 0.7007874015748031
        },
        {
          "duration": 0.1119046499999996,
          "durationTicks": 47,
          "midi": 36,
          "name": "C2",
          "ticks": 24240,
          "time": 57.714228000000006,
          "velocity": 0.8503937007874016
        },
        {
          "duration": 0.049999950000000126,
          "durationTicks": 21,
          "midi": 42,
          "name": "F#2",
          "ticks": 24285,
          "time": 57.82137075000001,
          "velocity": 0.6141732283464567
        },
        {
          "duration": 0.04999995000000723,
          "durationTicks": 21,
          "midi": 46,
          "name": "A#2",
          "ticks": 24315,
          "time": 57.89279925,
          "velocity": 0.6141732283464567
        },
        {
          "duration": 0.03333330000000245,
          "durationTicks": 14,
          "midi": 40,
          "name": "E2",
          "ticks": 24315,
          "time": 57.89279925,
          "velocity": 0.7007874015748031
        },
        {
          "duration": 0.0666665999999978,
          "durationTicks": 28,
          "midi": 36,
          "name": "C2",
          "ticks": 24360,
          "time": 57.999942000000004,
          "velocity": 0.8582677165354331
        },
        {
          "duration": 0.04999995000000723,
          "durationTicks": 21,
          "midi": 42,
          "name": "F#2",
          "ticks": 24360,
          "time": 57.999942000000004,
          "velocity": 0.6929133858267716
        },
        {
          "duration": 0.0666665999999978,
          "durationTicks": 28,
          "midi": 40,
          "name": "E2",
          "ticks": 24435,
          "time": 58.17851325,
          "velocity": 0.8582677165354331
        },
        {
          "duration": 0.04999995000000723,
          "durationTicks": 21,
          "midi": 46,
          "name": "A#2",
          "ticks": 24435,
          "time": 58.17851325,
          "velocity": 0.6141732283464567
        },
        {
          "duration": 0.04999995000000723,
          "durationTicks": 21,
          "midi": 42,
          "name": "F#2",
          "ticks": 24480,
          "time": 58.285656,
          "velocity": 0.6141732283464567
        },
        {
          "duration": 0.1119046499999925,
          "durationTicks": 47,
          "midi": 36,
          "name": "C2",
          "ticks": 24482,
          "time": 58.29041790000001,
          "velocity": 0.8503937007874016
        },
        {
          "duration": 0.04999995000000723,
          "durationTicks": 21,
          "midi": 42,
          "name": "F#2",
          "ticks": 24600,
          "time": 58.57137,
          "velocity": 0.6141732283464567
        },
        {
          "duration": 0.0666665999999978,
          "durationTicks": 28,
          "midi": 40,
          "name": "E2",
          "ticks": 24600,
          "time": 58.57137,
          "velocity": 0.8582677165354331
        },
        {
          "duration": 0.049999950000000126,
          "durationTicks": 21,
          "midi": 42,
          "name": "F#2",
          "ticks": 24675,
          "time": 58.749941250000006,
          "velocity": 0.6141732283464567
        },
        {
          "duration": 0.049999950000000126,
          "durationTicks": 21,
          "midi": 42,
          "name": "F#2",
          "ticks": 24720,
          "time": 58.85708400000001,
          "velocity": 0.6141732283464567
        },
        {
          "duration": 0.1119046499999996,
          "durationTicks": 47,
          "midi": 36,
          "name": "C2",
          "ticks": 24720,
          "time": 58.85708400000001,
          "velocity": 0.8503937007874016
        },
        {
          "duration": 0.049999950000000126,
          "durationTicks": 21,
          "midi": 42,
          "name": "F#2",
          "ticks": 24840,
          "time": 59.142798000000006,
          "velocity": 0.6141732283464567
        },
        {
          "duration": 0.0666665999999978,
          "durationTicks": 28,
          "midi": 40,
          "name": "E2",
          "ticks": 24840,
          "time": 59.142798000000006,
          "velocity": 0.8582677165354331
        },
        {
          "duration": 0.04999995000000723,
          "durationTicks": 21,
          "midi": 46,
          "name": "A#2",
          "ticks": 24915,
          "time": 59.321369250000004,
          "velocity": 0.6141732283464567
        },
        {
          "duration": 0.049999950000000126,
          "durationTicks": 21,
          "midi": 50,
          "name": "D3",
          "ticks": 24960,
          "time": 59.428512000000005,
          "velocity": 0.7716535433070866
        },
        {
          "duration": 0.049999950000000126,
          "durationTicks": 21,
          "midi": 42,
          "name": "F#2",
          "ticks": 24960,
          "time": 59.428512000000005,
          "velocity": 0.6141732283464567
        },
        {
          "duration": 0.11190465000000671,
          "durationTicks": 47,
          "midi": 36,
          "name": "C2",
          "ticks": 24960,
          "time": 59.428512000000005,
          "velocity": 0.8503937007874016
        },
        {
          "duration": 0.04999995000000723,
          "durationTicks": 21,
          "midi": 50,
          "name": "D3",
          "ticks": 25035,
          "time": 59.60708325,
          "velocity": 0.7716535433070866
        },
        {
          "duration": 0.04999995000000723,
          "durationTicks": 21,
          "midi": 42,
          "name": "F#2",
          "ticks": 25035,
          "time": 59.60708325,
          "velocity": 0.6141732283464567
        },
        {
          "duration": 0.04999995000000723,
          "durationTicks": 21,
          "midi": 42,
          "name": "F#2",
          "ticks": 25080,
          "time": 59.714226000000004,
          "velocity": 0.6141732283464567
        },
        {
          "duration": 0.0666665999999978,
          "durationTicks": 28,
          "midi": 40,
          "name": "E2",
          "ticks": 25080,
          "time": 59.714226000000004,
          "velocity": 0.8582677165354331
        },
        {
          "duration": 0.049999950000000126,
          "durationTicks": 21,
          "midi": 48,
          "name": "C3",
          "ticks": 25125,
          "time": 59.821368750000005,
          "velocity": 0.7716535433070866
        },
        {
          "duration": 0.049999950000000126,
          "durationTicks": 21,
          "midi": 42,
          "name": "F#2",
          "ticks": 25155,
          "time": 59.89279725000001,
          "velocity": 0.6141732283464567
        },
        {
          "duration": 0.049999950000000126,
          "durationTicks": 21,
          "midi": 47,
          "name": "B2",
          "ticks": 25170,
          "time": 59.928511500000006,
          "velocity": 0.7716535433070866
        },
        {
          "duration": 0.11190465000000671,
          "durationTicks": 47,
          "midi": 36,
          "name": "C2",
          "ticks": 25200,
          "time": 59.99994,
          "velocity": 0.8503937007874016
        },
        {
          "duration": 0.04999995000000723,
          "durationTicks": 21,
          "midi": 45,
          "name": "A2",
          "ticks": 25200,
          "time": 59.99994,
          "velocity": 0.7716535433070866
        },
        {
          "duration": 0.03333330000000245,
          "durationTicks": 14,
          "midi": 40,
          "name": "E2",
          "ticks": 25200,
          "time": 59.99994,
          "velocity": 0.7007874015748031
        },
        {
          "duration": 0.04999995000000723,
          "durationTicks": 21,
          "midi": 42,
          "name": "F#2",
          "ticks": 25200,
          "time": 59.99994,
          "velocity": 0.6141732283464567
        },
        {
          "duration": 0.049999950000000126,
          "durationTicks": 21,
          "midi": 45,
          "name": "A2",
          "ticks": 25275,
          "time": 60.17851125000001,
          "velocity": 0.7716535433070866
        },
        {
          "duration": 0.03333330000000245,
          "durationTicks": 14,
          "midi": 40,
          "name": "E2",
          "ticks": 25275,
          "time": 60.17851125000001,
          "velocity": 0.7007874015748031
        },
        {
          "duration": 0.049999950000000126,
          "durationTicks": 21,
          "midi": 46,
          "name": "A#2",
          "ticks": 25275,
          "time": 60.17851125000001,
          "velocity": 0.6141732283464567
        },
        {
          "duration": 0.049999950000000126,
          "durationTicks": 21,
          "midi": 43,
          "name": "G2",
          "ticks": 25320,
          "time": 60.28565400000001,
          "velocity": 0.6929133858267716
        },
        {
          "duration": 0.0666665999999907,
          "durationTicks": 28,
          "midi": 36,
          "name": "C2",
          "ticks": 25320,
          "time": 60.28565400000001,
          "velocity": 0.8582677165354331
        },
        {
          "duration": 0.049999950000000126,
          "durationTicks": 21,
          "midi": 42,
          "name": "F#2",
          "ticks": 25320,
          "time": 60.28565400000001,
          "velocity": 0.6929133858267716
        },
        {
          "duration": 0.0666665999999978,
          "durationTicks": 28,
          "midi": 40,
          "name": "E2",
          "ticks": 25395,
          "time": 60.464225250000005,
          "velocity": 0.8582677165354331
        },
        {
          "duration": 0.049999950000000126,
          "durationTicks": 21,
          "midi": 46,
          "name": "A#2",
          "ticks": 25395,
          "time": 60.464225250000005,
          "velocity": 0.6141732283464567
        },
        {
          "duration": 0.049999950000000126,
          "durationTicks": 21,
          "midi": 57,
          "name": "A3",
          "ticks": 25440,
          "time": 60.57136800000001,
          "velocity": 0.7716535433070866
        },
        {
          "duration": 0.049999950000000126,
          "durationTicks": 21,
          "midi": 42,
          "name": "F#2",
          "ticks": 25440,
          "time": 60.57136800000001,
          "velocity": 0.6141732283464567
        },
        {
          "duration": 0.0666665999999978,
          "durationTicks": 28,
          "midi": 51,
          "name": "D#3",
          "ticks": 25440,
          "time": 60.57136800000001,
          "velocity": 0.7795275590551181
        },
        {
          "duration": 0.1119046499999996,
          "durationTicks": 47,
          "midi": 36,
          "name": "C2",
          "ticks": 25440,
          "time": 60.57136800000001,
          "velocity": 0.8503937007874016
        },
        {
          "duration": 0.0666665999999978,
          "durationTicks": 28,
          "midi": 51,
          "name": "D#3",
          "ticks": 25560,
          "time": 60.857082000000005,
          "velocity": 0.7795275590551181
        },
        {
          "duration": 0.0666665999999978,
          "durationTicks": 28,
          "midi": 40,
          "name": "E2",
          "ticks": 25560,
          "time": 60.857082000000005,
          "velocity": 0.8582677165354331
        },
        {
          "duration": 0.049999950000000126,
          "durationTicks": 21,
          "midi": 42,
          "name": "F#2",
          "ticks": 25560,
          "time": 60.857082000000005,
          "velocity": 0.6141732283464567
        },
        {
          "duration": 0.0666665999999978,
          "durationTicks": 28,
          "midi": 51,
          "name": "D#3",
          "ticks": 25635,
          "time": 61.03565325,
          "velocity": 0.7795275590551181
        },
        {
          "duration": 0.09523800000000193,
          "durationTicks": 40,
          "midi": 46,
          "name": "A#2",
          "ticks": 25635,
          "time": 61.03565325,
          "velocity": 0.5511811023622047
        },
        {
          "duration": 0.0666665999999978,
          "durationTicks": 28,
          "midi": 51,
          "name": "D#3",
          "ticks": 25680,
          "time": 61.142796000000004,
          "velocity": 0.7795275590551181
        },
        {
          "duration": 0.11190465000000671,
          "durationTicks": 47,
          "midi": 36,
          "name": "C2",
          "ticks": 25680,
          "time": 61.142796000000004,
          "velocity": 0.8503937007874016
        },
        {
          "duration": 0.04999995000000723,
          "durationTicks": 21,
          "midi": 42,
          "name": "F#2",
          "ticks": 25680,
          "time": 61.142796000000004,
          "velocity": 0.6141732283464567
        },
        {
          "duration": 0.0666665999999978,
          "durationTicks": 28,
          "midi": 51,
          "name": "D#3",
          "ticks": 25800,
          "time": 61.42851,
          "velocity": 0.7795275590551181
        },
        {
          "duration": 0.0666665999999978,
          "durationTicks": 28,
          "midi": 40,
          "name": "E2",
          "ticks": 25800,
          "time": 61.42851,
          "velocity": 0.8582677165354331
        },
        {
          "duration": 0.04999995000000723,
          "durationTicks": 21,
          "midi": 42,
          "name": "F#2",
          "ticks": 25800,
          "time": 61.42851,
          "velocity": 0.6141732283464567
        },
        {
          "duration": 0.0666665999999907,
          "durationTicks": 28,
          "midi": 51,
          "name": "D#3",
          "ticks": 25875,
          "time": 61.60708125000001,
          "velocity": 0.7795275590551181
        },
        {
          "duration": 0.0666665999999978,
          "durationTicks": 28,
          "midi": 51,
          "name": "D#3",
          "ticks": 25920,
          "time": 61.714224,
          "velocity": 0.7795275590551181
        },
        {
          "duration": 0.11190465000000671,
          "durationTicks": 47,
          "midi": 36,
          "name": "C2",
          "ticks": 25920,
          "time": 61.714224,
          "velocity": 0.8503937007874016
        },
        {
          "duration": 0.04999995000000723,
          "durationTicks": 21,
          "midi": 42,
          "name": "F#2",
          "ticks": 25920,
          "time": 61.714224,
          "velocity": 0.6141732283464567
        },
        {
          "duration": 0.049999950000000126,
          "durationTicks": 21,
          "midi": 42,
          "name": "F#2",
          "ticks": 25995,
          "time": 61.892795250000006,
          "velocity": 0.6141732283464567
        },
        {
          "duration": 0.0666665999999907,
          "durationTicks": 28,
          "midi": 51,
          "name": "D#3",
          "ticks": 26040,
          "time": 61.99993800000001,
          "velocity": 0.7795275590551181
        },
        {
          "duration": 0.0666665999999907,
          "durationTicks": 28,
          "midi": 40,
          "name": "E2",
          "ticks": 26040,
          "time": 61.99993800000001,
          "velocity": 0.8582677165354331
        },
        {
          "duration": 0.049999950000000126,
          "durationTicks": 21,
          "midi": 42,
          "name": "F#2",
          "ticks": 26040,
          "time": 61.99993800000001,
          "velocity": 0.6141732283464567
        },
        {
          "duration": 0.0666665999999978,
          "durationTicks": 28,
          "midi": 51,
          "name": "D#3",
          "ticks": 26115,
          "time": 62.178509250000005,
          "velocity": 0.7795275590551181
        },
        {
          "duration": 0.09523800000000193,
          "durationTicks": 40,
          "midi": 46,
          "name": "A#2",
          "ticks": 26115,
          "time": 62.178509250000005,
          "velocity": 0.5511811023622047
        },
        {
          "duration": 0.0666665999999978,
          "durationTicks": 28,
          "midi": 51,
          "name": "D#3",
          "ticks": 26160,
          "time": 62.285652000000006,
          "velocity": 0.7795275590551181
        },
        {
          "duration": 0.1119046499999996,
          "durationTicks": 47,
          "midi": 36,
          "name": "C2",
          "ticks": 26160,
          "time": 62.285652000000006,
          "velocity": 0.8503937007874016
        },
        {
          "duration": 0.049999950000000126,
          "durationTicks": 21,
          "midi": 42,
          "name": "F#2",
          "ticks": 26160,
          "time": 62.285652000000006,
          "velocity": 0.6141732283464567
        },
        {
          "duration": 0.0666665999999978,
          "durationTicks": 28,
          "midi": 40,
          "name": "E2",
          "ticks": 26235,
          "time": 62.46422325,
          "velocity": 0.8582677165354331
        },
        {
          "duration": 0.0666665999999978,
          "durationTicks": 28,
          "midi": 40,
          "name": "E2",
          "ticks": 26280,
          "time": 62.571366000000005,
          "velocity": 0.8582677165354331
        },
        {
          "duration": 0.0666665999999978,
          "durationTicks": 28,
          "midi": 51,
          "name": "D#3",
          "ticks": 26280,
          "time": 62.571366000000005,
          "velocity": 0.7795275590551181
        },
        {
          "duration": 0.04999995000000723,
          "durationTicks": 21,
          "midi": 42,
          "name": "F#2",
          "ticks": 26280,
          "time": 62.571366000000005,
          "velocity": 0.6141732283464567
        },
        {
          "duration": 0.0666665999999978,
          "durationTicks": 28,
          "midi": 51,
          "name": "D#3",
          "ticks": 26355,
          "time": 62.74993725,
          "velocity": 0.7795275590551181
        },
        {
          "duration": 0.0666665999999978,
          "durationTicks": 28,
          "midi": 51,
          "name": "D#3",
          "ticks": 26400,
          "time": 62.85708,
          "velocity": 0.7795275590551181
        },
        {
          "duration": 0.11190465000000671,
          "durationTicks": 47,
          "midi": 36,
          "name": "C2",
          "ticks": 26400,
          "time": 62.85708,
          "velocity": 0.8503937007874016
        },
        {
          "duration": 0.04999995000000723,
          "durationTicks": 21,
          "midi": 42,
          "name": "F#2",
          "ticks": 26400,
          "time": 62.85708,
          "velocity": 0.6141732283464567
        },
        {
          "duration": 0.049999950000000126,
          "durationTicks": 21,
          "midi": 42,
          "name": "F#2",
          "ticks": 26475,
          "time": 63.03565125000001,
          "velocity": 0.6141732283464567
        },
        {
          "duration": 0.0666665999999978,
          "durationTicks": 28,
          "midi": 51,
          "name": "D#3",
          "ticks": 26520,
          "time": 63.142794,
          "velocity": 0.7795275590551181
        },
        {
          "duration": 0.0666665999999978,
          "durationTicks": 28,
          "midi": 40,
          "name": "E2",
          "ticks": 26520,
          "time": 63.142794,
          "velocity": 0.8582677165354331
        },
        {
          "duration": 0.04999995000000723,
          "durationTicks": 21,
          "midi": 42,
          "name": "F#2",
          "ticks": 26520,
          "time": 63.142794,
          "velocity": 0.6141732283464567
        },
        {
          "duration": 0.0666665999999978,
          "durationTicks": 28,
          "midi": 51,
          "name": "D#3",
          "ticks": 26595,
          "time": 63.32136525000001,
          "velocity": 0.7795275590551181
        },
        {
          "duration": 0.09523800000000193,
          "durationTicks": 40,
          "midi": 46,
          "name": "A#2",
          "ticks": 26595,
          "time": 63.32136525000001,
          "velocity": 0.5511811023622047
        },
        {
          "duration": 0.0666665999999907,
          "durationTicks": 28,
          "midi": 51,
          "name": "D#3",
          "ticks": 26640,
          "time": 63.42850800000001,
          "velocity": 0.7795275590551181
        },
        {
          "duration": 0.1119046499999996,
          "durationTicks": 47,
          "midi": 36,
          "name": "C2",
          "ticks": 26640,
          "time": 63.42850800000001,
          "velocity": 0.8503937007874016
        },
        {
          "duration": 0.049999950000000126,
          "durationTicks": 21,
          "midi": 42,
          "name": "F#2",
          "ticks": 26640,
          "time": 63.42850800000001,
          "velocity": 0.6141732283464567
        },
        {
          "duration": 0.0666665999999978,
          "durationTicks": 28,
          "midi": 51,
          "name": "D#3",
          "ticks": 26760,
          "time": 63.71422200000001,
          "velocity": 0.7795275590551181
        },
        {
          "duration": 0.0666665999999978,
          "durationTicks": 28,
          "midi": 40,
          "name": "E2",
          "ticks": 26760,
          "time": 63.71422200000001,
          "velocity": 0.8582677165354331
        },
        {
          "duration": 0.049999950000000126,
          "durationTicks": 21,
          "midi": 42,
          "name": "F#2",
          "ticks": 26760,
          "time": 63.71422200000001,
          "velocity": 0.6141732283464567
        },
        {
          "duration": 0.0666665999999978,
          "durationTicks": 28,
          "midi": 51,
          "name": "D#3",
          "ticks": 26835,
          "time": 63.892793250000004,
          "velocity": 0.7795275590551181
        },
        {
          "duration": 0.0666665999999907,
          "durationTicks": 28,
          "midi": 51,
          "name": "D#3",
          "ticks": 26880,
          "time": 63.999936000000005,
          "velocity": 0.7795275590551181
        },
        {
          "duration": 0.1119046499999996,
          "durationTicks": 47,
          "midi": 36,
          "name": "C2",
          "ticks": 26880,
          "time": 63.999936000000005,
          "velocity": 0.8503937007874016
        },
        {
          "duration": 0.049999950000000126,
          "durationTicks": 21,
          "midi": 42,
          "name": "F#2",
          "ticks": 26880,
          "time": 63.999936000000005,
          "velocity": 0.6141732283464567
        },
        {
          "duration": 0.0666665999999907,
          "durationTicks": 28,
          "midi": 51,
          "name": "D#3",
          "ticks": 27000,
          "time": 64.28565,
          "velocity": 0.7795275590551181
        },
        {
          "duration": 0.0666665999999907,
          "durationTicks": 28,
          "midi": 40,
          "name": "E2",
          "ticks": 27000,
          "time": 64.28565,
          "velocity": 0.8582677165354331
        },
        {
          "duration": 0.049999950000000126,
          "durationTicks": 21,
          "midi": 42,
          "name": "F#2",
          "ticks": 27000,
          "time": 64.28565,
          "velocity": 0.6141732283464567
        },
        {
          "duration": 0.0666665999999907,
          "durationTicks": 28,
          "midi": 51,
          "name": "D#3",
          "ticks": 27075,
          "time": 64.46422125000001,
          "velocity": 0.7795275590551181
        },
        {
          "duration": 0.09523799999999483,
          "durationTicks": 40,
          "midi": 46,
          "name": "A#2",
          "ticks": 27075,
          "time": 64.46422125000001,
          "velocity": 0.5511811023622047
        },
        {
          "duration": 0.0666666000000049,
          "durationTicks": 28,
          "midi": 51,
          "name": "D#3",
          "ticks": 27120,
          "time": 64.571364,
          "velocity": 0.7795275590551181
        },
        {
          "duration": 0.1119046499999996,
          "durationTicks": 47,
          "midi": 36,
          "name": "C2",
          "ticks": 27120,
          "time": 64.571364,
          "velocity": 0.8503937007874016
        },
        {
          "duration": 0.049999950000000126,
          "durationTicks": 21,
          "midi": 42,
          "name": "F#2",
          "ticks": 27120,
          "time": 64.571364,
          "velocity": 0.6141732283464567
        },
        {
          "duration": 0.049999950000000126,
          "durationTicks": 21,
          "midi": 42,
          "name": "F#2",
          "ticks": 27195,
          "time": 64.74993525000001,
          "velocity": 0.6141732283464567
        },
        {
          "duration": 0.0666666000000049,
          "durationTicks": 28,
          "midi": 51,
          "name": "D#3",
          "ticks": 27240,
          "time": 64.857078,
          "velocity": 0.7795275590551181
        },
        {
          "duration": 0.0666666000000049,
          "durationTicks": 28,
          "midi": 40,
          "name": "E2",
          "ticks": 27240,
          "time": 64.857078,
          "velocity": 0.8582677165354331
        },
        {
          "duration": 0.04999995000001434,
          "durationTicks": 21,
          "midi": 42,
          "name": "F#2",
          "ticks": 27240,
          "time": 64.857078,
          "velocity": 0.6141732283464567
        },
        {
          "duration": 0.049999950000000126,
          "durationTicks": 21,
          "midi": 42,
          "name": "F#2",
          "ticks": 27315,
          "time": 65.03564925,
          "velocity": 0.6141732283464567
        },
        {
          "duration": 0.0666665999999907,
          "durationTicks": 28,
          "midi": 51,
          "name": "D#3",
          "ticks": 27315,
          "time": 65.03564925,
          "velocity": 0.7795275590551181
        },
        {
          "duration": 0.04999995000001434,
          "durationTicks": 21,
          "midi": 42,
          "name": "F#2",
          "ticks": 27360,
          "time": 65.142792,
          "velocity": 0.6141732283464567
        },
        {
          "duration": 0.0666666000000049,
          "durationTicks": 28,
          "midi": 51,
          "name": "D#3",
          "ticks": 27360,
          "time": 65.142792,
          "velocity": 0.7795275590551181
        },
        {
          "duration": 0.11190465000001382,
          "durationTicks": 47,
          "midi": 36,
          "name": "C2",
          "ticks": 27360,
          "time": 65.142792,
          "velocity": 0.8503937007874016
        },
        {
          "duration": 0.0666666000000049,
          "durationTicks": 28,
          "midi": 51,
          "name": "D#3",
          "ticks": 27480,
          "time": 65.428506,
          "velocity": 0.7795275590551181
        },
        {
          "duration": 0.0666666000000049,
          "durationTicks": 28,
          "midi": 40,
          "name": "E2",
          "ticks": 27480,
          "time": 65.428506,
          "velocity": 0.8582677165354331
        },
        {
          "duration": 0.04999995000001434,
          "durationTicks": 21,
          "midi": 42,
          "name": "F#2",
          "ticks": 27480,
          "time": 65.428506,
          "velocity": 0.6141732283464567
        },
        {
          "duration": 0.0666666000000049,
          "durationTicks": 28,
          "midi": 51,
          "name": "D#3",
          "ticks": 27555,
          "time": 65.60707725,
          "velocity": 0.7795275590551181
        },
        {
          "duration": 0.09523800000000904,
          "durationTicks": 40,
          "midi": 46,
          "name": "A#2",
          "ticks": 27555,
          "time": 65.60707725,
          "velocity": 0.5511811023622047
        },
        {
          "duration": 0.0666665999999907,
          "durationTicks": 28,
          "midi": 51,
          "name": "D#3",
          "ticks": 27600,
          "time": 65.71422000000001,
          "velocity": 0.7795275590551181
        },
        {
          "duration": 0.1119046499999996,
          "durationTicks": 47,
          "midi": 36,
          "name": "C2",
          "ticks": 27600,
          "time": 65.71422000000001,
          "velocity": 0.8503937007874016
        },
        {
          "duration": 0.049999950000000126,
          "durationTicks": 21,
          "midi": 42,
          "name": "F#2",
          "ticks": 27600,
          "time": 65.71422000000001,
          "velocity": 0.6141732283464567
        },
        {
          "duration": 0.0666665999999907,
          "durationTicks": 28,
          "midi": 51,
          "name": "D#3",
          "ticks": 27720,
          "time": 65.99993400000001,
          "velocity": 0.7795275590551181
        },
        {
          "duration": 0.0666665999999907,
          "durationTicks": 28,
          "midi": 40,
          "name": "E2",
          "ticks": 27720,
          "time": 65.99993400000001,
          "velocity": 0.8582677165354331
        },
        {
          "duration": 0.049999950000000126,
          "durationTicks": 21,
          "midi": 42,
          "name": "F#2",
          "ticks": 27720,
          "time": 65.99993400000001,
          "velocity": 0.6141732283464567
        },
        {
          "duration": 0.0666666000000049,
          "durationTicks": 28,
          "midi": 51,
          "name": "D#3",
          "ticks": 27795,
          "time": 66.17850525,
          "velocity": 0.7795275590551181
        },
        {
          "duration": 0.0666665999999907,
          "durationTicks": 28,
          "midi": 51,
          "name": "D#3",
          "ticks": 27840,
          "time": 66.28564800000001,
          "velocity": 0.7795275590551181
        },
        {
          "duration": 0.1119046499999996,
          "durationTicks": 47,
          "midi": 36,
          "name": "C2",
          "ticks": 27840,
          "time": 66.28564800000001,
          "velocity": 0.8503937007874016
        },
        {
          "duration": 0.049999950000000126,
          "durationTicks": 21,
          "midi": 42,
          "name": "F#2",
          "ticks": 27840,
          "time": 66.28564800000001,
          "velocity": 0.6141732283464567
        },
        {
          "duration": 0.04999995000001434,
          "durationTicks": 21,
          "midi": 42,
          "name": "F#2",
          "ticks": 27915,
          "time": 66.46421925,
          "velocity": 0.6141732283464567
        },
        {
          "duration": 0.0666665999999907,
          "durationTicks": 28,
          "midi": 51,
          "name": "D#3",
          "ticks": 27960,
          "time": 66.57136200000001,
          "velocity": 0.7795275590551181
        },
        {
          "duration": 0.0666665999999907,
          "durationTicks": 28,
          "midi": 40,
          "name": "E2",
          "ticks": 27960,
          "time": 66.57136200000001,
          "velocity": 0.8582677165354331
        },
        {
          "duration": 0.049999950000000126,
          "durationTicks": 21,
          "midi": 42,
          "name": "F#2",
          "ticks": 27960,
          "time": 66.57136200000001,
          "velocity": 0.6141732283464567
        },
        {
          "duration": 0.0666665999999907,
          "durationTicks": 28,
          "midi": 51,
          "name": "D#3",
          "ticks": 28035,
          "time": 66.74993325000001,
          "velocity": 0.7795275590551181
        },
        {
          "duration": 0.09523799999999483,
          "durationTicks": 40,
          "midi": 46,
          "name": "A#2",
          "ticks": 28035,
          "time": 66.74993325000001,
          "velocity": 0.5511811023622047
        },
        {
          "duration": 0.0666665999999907,
          "durationTicks": 28,
          "midi": 51,
          "name": "D#3",
          "ticks": 28080,
          "time": 66.857076,
          "velocity": 0.7795275590551181
        },
        {
          "duration": 0.1119046499999996,
          "durationTicks": 47,
          "midi": 36,
          "name": "C2",
          "ticks": 28080,
          "time": 66.857076,
          "velocity": 0.8503937007874016
        },
        {
          "duration": 0.049999950000000126,
          "durationTicks": 21,
          "midi": 42,
          "name": "F#2",
          "ticks": 28080,
          "time": 66.857076,
          "velocity": 0.6141732283464567
        },
        {
          "duration": 0.0666665999999907,
          "durationTicks": 28,
          "midi": 40,
          "name": "E2",
          "ticks": 28155,
          "time": 67.03564725000001,
          "velocity": 0.8582677165354331
        },
        {
          "duration": 0.0666665999999907,
          "durationTicks": 28,
          "midi": 40,
          "name": "E2",
          "ticks": 28200,
          "time": 67.14279,
          "velocity": 0.8582677165354331
        },
        {
          "duration": 0.0666665999999907,
          "durationTicks": 28,
          "midi": 51,
          "name": "D#3",
          "ticks": 28200,
          "time": 67.14279,
          "velocity": 0.7795275590551181
        },
        {
          "duration": 0.049999950000000126,
          "durationTicks": 21,
          "midi": 42,
          "name": "F#2",
          "ticks": 28200,
          "time": 67.14279,
          "velocity": 0.6141732283464567
        },
        {
          "duration": 0.0666665999999907,
          "durationTicks": 28,
          "midi": 51,
          "name": "D#3",
          "ticks": 28275,
          "time": 67.32136125000001,
          "velocity": 0.7795275590551181
        },
        {
          "duration": 0.0666666000000049,
          "durationTicks": 28,
          "midi": 51,
          "name": "D#3",
          "ticks": 28320,
          "time": 67.428504,
          "velocity": 0.7795275590551181
        },
        {
          "duration": 0.1119046499999996,
          "durationTicks": 47,
          "midi": 36,
          "name": "C2",
          "ticks": 28320,
          "time": 67.428504,
          "velocity": 0.8503937007874016
        },
        {
          "duration": 0.049999950000000126,
          "durationTicks": 21,
          "midi": 42,
          "name": "F#2",
          "ticks": 28320,
          "time": 67.428504,
          "velocity": 0.6141732283464567
        },
        {
          "duration": 0.049999950000000126,
          "durationTicks": 21,
          "midi": 42,
          "name": "F#2",
          "ticks": 28395,
          "time": 67.60707525000001,
          "velocity": 0.6141732283464567
        },
        {
          "duration": 0.0666666000000049,
          "durationTicks": 28,
          "midi": 40,
          "name": "E2",
          "ticks": 28440,
          "time": 67.714218,
          "velocity": 0.8582677165354331
        },
        {
          "duration": 0.0666666000000049,
          "durationTicks": 28,
          "midi": 51,
          "name": "D#3",
          "ticks": 28440,
          "time": 67.714218,
          "velocity": 0.7795275590551181
        },
        {
          "duration": 0.049999950000000126,
          "durationTicks": 21,
          "midi": 42,
          "name": "F#2",
          "ticks": 28440,
          "time": 67.714218,
          "velocity": 0.6141732283464567
        },
        {
          "duration": 0.0666665999999907,
          "durationTicks": 28,
          "midi": 51,
          "name": "D#3",
          "ticks": 28515,
          "time": 67.89278925,
          "velocity": 0.7795275590551181
        },
        {
          "duration": 0.09523799999999483,
          "durationTicks": 40,
          "midi": 46,
          "name": "A#2",
          "ticks": 28515,
          "time": 67.89278925,
          "velocity": 0.5511811023622047
        },
        {
          "duration": 0.04999995000001434,
          "durationTicks": 21,
          "midi": 42,
          "name": "F#2",
          "ticks": 28560,
          "time": 67.999932,
          "velocity": 0.6141732283464567
        },
        {
          "duration": 0.0666666000000049,
          "durationTicks": 28,
          "midi": 51,
          "name": "D#3",
          "ticks": 28560,
          "time": 67.999932,
          "velocity": 0.7795275590551181
        },
        {
          "duration": 0.11190465000001382,
          "durationTicks": 47,
          "midi": 36,
          "name": "C2",
          "ticks": 28560,
          "time": 67.999932,
          "velocity": 0.8503937007874016
        },
        {
          "duration": 0.0666666000000049,
          "durationTicks": 28,
          "midi": 51,
          "name": "D#3",
          "ticks": 28680,
          "time": 68.285646,
          "velocity": 0.7795275590551181
        },
        {
          "duration": 0.0666666000000049,
          "durationTicks": 28,
          "midi": 40,
          "name": "E2",
          "ticks": 28680,
          "time": 68.285646,
          "velocity": 0.8582677165354331
        },
        {
          "duration": 0.04999995000001434,
          "durationTicks": 21,
          "midi": 42,
          "name": "F#2",
          "ticks": 28680,
          "time": 68.285646,
          "velocity": 0.6141732283464567
        },
        {
          "duration": 0.0666665999999907,
          "durationTicks": 28,
          "midi": 51,
          "name": "D#3",
          "ticks": 28755,
          "time": 68.46421725,
          "velocity": 0.7795275590551181
        },
        {
          "duration": 0.0666666000000049,
          "durationTicks": 28,
          "midi": 51,
          "name": "D#3",
          "ticks": 28800,
          "time": 68.57136,
          "velocity": 0.7795275590551181
        },
        {
          "duration": 0.11190465000001382,
          "durationTicks": 47,
          "midi": 36,
          "name": "C2",
          "ticks": 28800,
          "time": 68.57136,
          "velocity": 0.8503937007874016
        },
        {
          "duration": 0.04999995000001434,
          "durationTicks": 21,
          "midi": 42,
          "name": "F#2",
          "ticks": 28800,
          "time": 68.57136,
          "velocity": 0.6141732283464567
        },
        {
          "duration": 0.03333330000000956,
          "durationTicks": 14,
          "midi": 40,
          "name": "E2",
          "ticks": 28860,
          "time": 68.714217,
          "velocity": 0.4645669291338583
        },
        {
          "duration": 0.03333330000000956,
          "durationTicks": 14,
          "midi": 40,
          "name": "E2",
          "ticks": 28875,
          "time": 68.74993125,
          "velocity": 0.6220472440944882
        },
        {
          "duration": 0.03333330000000956,
          "durationTicks": 14,
          "midi": 40,
          "name": "E2",
          "ticks": 28890,
          "time": 68.7856455,
          "velocity": 0.5433070866141733
        },
        {
          "duration": 0.03333330000000956,
          "durationTicks": 14,
          "midi": 40,
          "name": "E2",
          "ticks": 28905,
          "time": 68.82135975,
          "velocity": 0.7795275590551181
        },
        {
          "duration": 0.03333329999999535,
          "durationTicks": 14,
          "midi": 40,
          "name": "E2",
          "ticks": 28920,
          "time": 68.85707400000001,
          "velocity": 0.8582677165354331
        },
        {
          "duration": 0.0666665999999907,
          "durationTicks": 28,
          "midi": 51,
          "name": "D#3",
          "ticks": 28920,
          "time": 68.85707400000001,
          "velocity": 0.7795275590551181
        },
        {
          "duration": 0.049999950000000126,
          "durationTicks": 21,
          "midi": 42,
          "name": "F#2",
          "ticks": 28920,
          "time": 68.85707400000001,
          "velocity": 0.6141732283464567
        },
        {
          "duration": 0.03333330000000956,
          "durationTicks": 14,
          "midi": 40,
          "name": "E2",
          "ticks": 28995,
          "time": 69.03564525,
          "velocity": 0.7795275590551181
        },
        {
          "duration": 0.0666666000000049,
          "durationTicks": 28,
          "midi": 51,
          "name": "D#3",
          "ticks": 28995,
          "time": 69.03564525,
          "velocity": 0.7795275590551181
        },
        {
          "duration": 0.09523800000000904,
          "durationTicks": 40,
          "midi": 46,
          "name": "A#2",
          "ticks": 28995,
          "time": 69.03564525,
          "velocity": 0.5511811023622047
        },
        {
          "duration": 0.0666665999999907,
          "durationTicks": 28,
          "midi": 51,
          "name": "D#3",
          "ticks": 29040,
          "time": 69.14278800000001,
          "velocity": 0.7795275590551181
        },
        {
          "duration": 0.1119046499999996,
          "durationTicks": 47,
          "midi": 36,
          "name": "C2",
          "ticks": 29040,
          "time": 69.14278800000001,
          "velocity": 0.8503937007874016
        },
        {
          "duration": 0.049999950000000126,
          "durationTicks": 21,
          "midi": 42,
          "name": "F#2",
          "ticks": 29040,
          "time": 69.14278800000001,
          "velocity": 0.6141732283464567
        },
        {
          "duration": 0.03333330000000956,
          "durationTicks": 14,
          "midi": 47,
          "name": "B2",
          "ticks": 29115,
          "time": 69.32135925,
          "velocity": 0.7795275590551181
        },
        {
          "duration": 0.03333330000000956,
          "durationTicks": 14,
          "midi": 40,
          "name": "E2",
          "ticks": 29115,
          "time": 69.32135925,
          "velocity": 0.7795275590551181
        },
        {
          "duration": 0.04999995000001434,
          "durationTicks": 21,
          "midi": 42,
          "name": "F#2",
          "ticks": 29115,
          "time": 69.32135925,
          "velocity": 0.6141732283464567
        },
        {
          "duration": 0.03333329999999535,
          "durationTicks": 14,
          "midi": 45,
          "name": "A2",
          "ticks": 29160,
          "time": 69.42850200000001,
          "velocity": 0.7795275590551181
        },
        {
          "duration": 0.0666665999999907,
          "durationTicks": 28,
          "midi": 51,
          "name": "D#3",
          "ticks": 29160,
          "time": 69.42850200000001,
          "velocity": 0.7795275590551181
        },
        {
          "duration": 0.0666665999999907,
          "durationTicks": 28,
          "midi": 40,
          "name": "E2",
          "ticks": 29160,
          "time": 69.42850200000001,
          "velocity": 0.8582677165354331
        },
        {
          "duration": 0.049999950000000126,
          "durationTicks": 21,
          "midi": 42,
          "name": "F#2",
          "ticks": 29160,
          "time": 69.42850200000001,
          "velocity": 0.6141732283464567
        },
        {
          "duration": 0.04999995000001434,
          "durationTicks": 21,
          "midi": 42,
          "name": "F#2",
          "ticks": 29235,
          "time": 69.60707325,
          "velocity": 0.6141732283464567
        },
        {
          "duration": 0.0666666000000049,
          "durationTicks": 28,
          "midi": 51,
          "name": "D#3",
          "ticks": 29235,
          "time": 69.60707325,
          "velocity": 0.7795275590551181
        },
        {
          "duration": 0.049999950000000126,
          "durationTicks": 21,
          "midi": 57,
          "name": "A3",
          "ticks": 29280,
          "time": 69.71421600000001,
          "velocity": 0.7716535433070866
        },
        {
          "duration": 0.049999950000000126,
          "durationTicks": 21,
          "midi": 42,
          "name": "F#2",
          "ticks": 29280,
          "time": 69.71421600000001,
          "velocity": 0.6141732283464567
        },
        {
          "duration": 0.0666665999999907,
          "durationTicks": 28,
          "midi": 51,
          "name": "D#3",
          "ticks": 29280,
          "time": 69.71421600000001,
          "velocity": 0.7795275590551181
        },
        {
          "duration": 0.1119046499999996,
          "durationTicks": 47,
          "midi": 36,
          "name": "C2",
          "ticks": 29280,
          "time": 69.71421600000001,
          "velocity": 0.8503937007874016
        },
        {
          "duration": 0.0666665999999907,
          "durationTicks": 28,
          "midi": 51,
          "name": "D#3",
          "ticks": 29400,
          "time": 69.99993,
          "velocity": 0.7795275590551181
        },
        {
          "duration": 0.0666665999999907,
          "durationTicks": 28,
          "midi": 40,
          "name": "E2",
          "ticks": 29400,
          "time": 69.99993,
          "velocity": 0.8582677165354331
        },
        {
          "duration": 0.049999950000000126,
          "durationTicks": 21,
          "midi": 42,
          "name": "F#2",
          "ticks": 29400,
          "time": 69.99993,
          "velocity": 0.6141732283464567
        },
        {
          "duration": 0.0666665999999907,
          "durationTicks": 28,
          "midi": 51,
          "name": "D#3",
          "ticks": 29475,
          "time": 70.17850125000001,
          "velocity": 0.7795275590551181
        },
        {
          "duration": 0.09523799999999483,
          "durationTicks": 40,
          "midi": 46,
          "name": "A#2",
          "ticks": 29475,
          "time": 70.17850125000001,
          "velocity": 0.5511811023622047
        },
        {
          "duration": 0.0666665999999907,
          "durationTicks": 28,
          "midi": 51,
          "name": "D#3",
          "ticks": 29520,
          "time": 70.285644,
          "velocity": 0.7795275590551181
        },
        {
          "duration": 0.1119046499999996,
          "durationTicks": 47,
          "midi": 36,
          "name": "C2",
          "ticks": 29520,
          "time": 70.285644,
          "velocity": 0.8503937007874016
        },
        {
          "duration": 0.049999950000000126,
          "durationTicks": 21,
          "midi": 42,
          "name": "F#2",
          "ticks": 29520,
          "time": 70.285644,
          "velocity": 0.6141732283464567
        },
        {
          "duration": 0.0666666000000049,
          "durationTicks": 28,
          "midi": 51,
          "name": "D#3",
          "ticks": 29640,
          "time": 70.571358,
          "velocity": 0.7795275590551181
        },
        {
          "duration": 0.0666666000000049,
          "durationTicks": 28,
          "midi": 40,
          "name": "E2",
          "ticks": 29640,
          "time": 70.571358,
          "velocity": 0.8582677165354331
        },
        {
          "duration": 0.049999950000000126,
          "durationTicks": 21,
          "midi": 42,
          "name": "F#2",
          "ticks": 29640,
          "time": 70.571358,
          "velocity": 0.6141732283464567
        },
        {
          "duration": 0.0666665999999907,
          "durationTicks": 28,
          "midi": 51,
          "name": "D#3",
          "ticks": 29715,
          "time": 70.74992925000001,
          "velocity": 0.7795275590551181
        },
        {
          "duration": 0.0666666000000049,
          "durationTicks": 28,
          "midi": 51,
          "name": "D#3",
          "ticks": 29760,
          "time": 70.857072,
          "velocity": 0.7795275590551181
        },
        {
          "duration": 0.11190465000001382,
          "durationTicks": 47,
          "midi": 36,
          "name": "C2",
          "ticks": 29760,
          "time": 70.857072,
          "velocity": 0.8503937007874016
        },
        {
          "duration": 0.049999950000000126,
          "durationTicks": 21,
          "midi": 42,
          "name": "F#2",
          "ticks": 29760,
          "time": 70.857072,
          "velocity": 0.6141732283464567
        },
        {
          "duration": 0.049999950000000126,
          "durationTicks": 21,
          "midi": 42,
          "name": "F#2",
          "ticks": 29835,
          "time": 71.03564325,
          "velocity": 0.6141732283464567
        },
        {
          "duration": 0.0666666000000049,
          "durationTicks": 28,
          "midi": 51,
          "name": "D#3",
          "ticks": 29880,
          "time": 71.142786,
          "velocity": 0.7795275590551181
        },
        {
          "duration": 0.0666666000000049,
          "durationTicks": 28,
          "midi": 40,
          "name": "E2",
          "ticks": 29880,
          "time": 71.142786,
          "velocity": 0.8582677165354331
        },
        {
          "duration": 0.04999995000001434,
          "durationTicks": 21,
          "midi": 42,
          "name": "F#2",
          "ticks": 29880,
          "time": 71.142786,
          "velocity": 0.6141732283464567
        },
        {
          "duration": 0.0666665999999907,
          "durationTicks": 28,
          "midi": 51,
          "name": "D#3",
          "ticks": 29955,
          "time": 71.32135725,
          "velocity": 0.7795275590551181
        },
        {
          "duration": 0.09523800000000904,
          "durationTicks": 40,
          "midi": 46,
          "name": "A#2",
          "ticks": 29955,
          "time": 71.32135725,
          "velocity": 0.5511811023622047
        },
        {
          "duration": 0.0666666000000049,
          "durationTicks": 28,
          "midi": 51,
          "name": "D#3",
          "ticks": 30000,
          "time": 71.4285,
          "velocity": 0.7795275590551181
        },
        {
          "duration": 0.11190465000001382,
          "durationTicks": 47,
          "midi": 36,
          "name": "C2",
          "ticks": 30000,
          "time": 71.4285,
          "velocity": 0.8503937007874016
        },
        {
          "duration": 0.04999995000001434,
          "durationTicks": 21,
          "midi": 42,
          "name": "F#2",
          "ticks": 30000,
          "time": 71.4285,
          "velocity": 0.6141732283464567
        },
        {
          "duration": 0.0666666000000049,
          "durationTicks": 28,
          "midi": 40,
          "name": "E2",
          "ticks": 30075,
          "time": 71.60707125,
          "velocity": 0.8582677165354331
        },
        {
          "duration": 0.0666665999999907,
          "durationTicks": 28,
          "midi": 40,
          "name": "E2",
          "ticks": 30120,
          "time": 71.71421400000001,
          "velocity": 0.8582677165354331
        },
        {
          "duration": 0.0666665999999907,
          "durationTicks": 28,
          "midi": 51,
          "name": "D#3",
          "ticks": 30120,
          "time": 71.71421400000001,
          "velocity": 0.7795275590551181
        },
        {
          "duration": 0.049999950000000126,
          "durationTicks": 21,
          "midi": 42,
          "name": "F#2",
          "ticks": 30120,
          "time": 71.71421400000001,
          "velocity": 0.6141732283464567
        },
        {
          "duration": 0.0666666000000049,
          "durationTicks": 28,
          "midi": 51,
          "name": "D#3",
          "ticks": 30195,
          "time": 71.89278525,
          "velocity": 0.7795275590551181
        },
        {
          "duration": 0.0666665999999907,
          "durationTicks": 28,
          "midi": 51,
          "name": "D#3",
          "ticks": 30240,
          "time": 71.99992800000001,
          "velocity": 0.7795275590551181
        },
        {
          "duration": 0.1119046499999996,
          "durationTicks": 47,
          "midi": 36,
          "name": "C2",
          "ticks": 30240,
          "time": 71.99992800000001,
          "velocity": 0.8503937007874016
        },
        {
          "duration": 0.049999950000000126,
          "durationTicks": 21,
          "midi": 42,
          "name": "F#2",
          "ticks": 30240,
          "time": 71.99992800000001,
          "velocity": 0.6141732283464567
        },
        {
          "duration": 0.04999995000001434,
          "durationTicks": 21,
          "midi": 42,
          "name": "F#2",
          "ticks": 30315,
          "time": 72.17849925,
          "velocity": 0.6141732283464567
        },
        {
          "duration": 0.0666665999999907,
          "durationTicks": 28,
          "midi": 51,
          "name": "D#3",
          "ticks": 30360,
          "time": 72.28564200000001,
          "velocity": 0.7795275590551181
        },
        {
          "duration": 0.0666665999999907,
          "durationTicks": 28,
          "midi": 40,
          "name": "E2",
          "ticks": 30360,
          "time": 72.28564200000001,
          "velocity": 0.8582677165354331
        },
        {
          "duration": 0.049999950000000126,
          "durationTicks": 21,
          "midi": 42,
          "name": "F#2",
          "ticks": 30360,
          "time": 72.28564200000001,
          "velocity": 0.6141732283464567
        },
        {
          "duration": 0.0666666000000049,
          "durationTicks": 28,
          "midi": 51,
          "name": "D#3",
          "ticks": 30435,
          "time": 72.46421325,
          "velocity": 0.7795275590551181
        },
        {
          "duration": 0.09523800000000904,
          "durationTicks": 40,
          "midi": 46,
          "name": "A#2",
          "ticks": 30435,
          "time": 72.46421325,
          "velocity": 0.5511811023622047
        },
        {
          "duration": 0.0666665999999907,
          "durationTicks": 28,
          "midi": 51,
          "name": "D#3",
          "ticks": 30480,
          "time": 72.57135600000001,
          "velocity": 0.7795275590551181
        },
        {
          "duration": 0.1119046499999996,
          "durationTicks": 47,
          "midi": 36,
          "name": "C2",
          "ticks": 30480,
          "time": 72.57135600000001,
          "velocity": 0.8503937007874016
        },
        {
          "duration": 0.049999950000000126,
          "durationTicks": 21,
          "midi": 42,
          "name": "F#2",
          "ticks": 30480,
          "time": 72.57135600000001,
          "velocity": 0.6141732283464567
        },
        {
          "duration": 0.0666665999999907,
          "durationTicks": 28,
          "midi": 51,
          "name": "D#3",
          "ticks": 30600,
          "time": 72.85707000000001,
          "velocity": 0.7795275590551181
        },
        {
          "duration": 0.0666665999999907,
          "durationTicks": 28,
          "midi": 40,
          "name": "E2",
          "ticks": 30600,
          "time": 72.85707000000001,
          "velocity": 0.8582677165354331
        },
        {
          "duration": 0.049999950000000126,
          "durationTicks": 21,
          "midi": 42,
          "name": "F#2",
          "ticks": 30600,
          "time": 72.85707000000001,
          "velocity": 0.6141732283464567
        },
        {
          "duration": 0.0666665999999907,
          "durationTicks": 28,
          "midi": 51,
          "name": "D#3",
          "ticks": 30675,
          "time": 73.03564125000001,
          "velocity": 0.7795275590551181
        },
        {
          "duration": 0.0666666000000049,
          "durationTicks": 28,
          "midi": 51,
          "name": "D#3",
          "ticks": 30720,
          "time": 73.142784,
          "velocity": 0.7795275590551181
        },
        {
          "duration": 0.1119046499999996,
          "durationTicks": 47,
          "midi": 36,
          "name": "C2",
          "ticks": 30720,
          "time": 73.142784,
          "velocity": 0.8503937007874016
        },
        {
          "duration": 0.049999950000000126,
          "durationTicks": 21,
          "midi": 42,
          "name": "F#2",
          "ticks": 30720,
          "time": 73.142784,
          "velocity": 0.6141732283464567
        },
        {
          "duration": 0.0666666000000049,
          "durationTicks": 28,
          "midi": 51,
          "name": "D#3",
          "ticks": 30840,
          "time": 73.428498,
          "velocity": 0.7795275590551181
        },
        {
          "duration": 0.0666666000000049,
          "durationTicks": 28,
          "midi": 40,
          "name": "E2",
          "ticks": 30840,
          "time": 73.428498,
          "velocity": 0.8582677165354331
        },
        {
          "duration": 0.049999950000000126,
          "durationTicks": 21,
          "midi": 42,
          "name": "F#2",
          "ticks": 30840,
          "time": 73.428498,
          "velocity": 0.6141732283464567
        },
        {
          "duration": 0.0666666000000049,
          "durationTicks": 28,
          "midi": 51,
          "name": "D#3",
          "ticks": 30915,
          "time": 73.60706925000001,
          "velocity": 0.7795275590551181
        },
        {
          "duration": 0.09523799999999483,
          "durationTicks": 40,
          "midi": 46,
          "name": "A#2",
          "ticks": 30915,
          "time": 73.60706925000001,
          "velocity": 0.5511811023622047
        },
        {
          "duration": 0.1119046499999996,
          "durationTicks": 47,
          "midi": 36,
          "name": "C2",
          "ticks": 30960,
          "time": 73.714212,
          "velocity": 0.8503937007874016
        },
        {
          "duration": 0.0666666000000049,
          "durationTicks": 28,
          "midi": 51,
          "name": "D#3",
          "ticks": 30960,
          "time": 73.714212,
          "velocity": 0.7795275590551181
        },
        {
          "duration": 0.049999950000000126,
          "durationTicks": 21,
          "midi": 42,
          "name": "F#2",
          "ticks": 30960,
          "time": 73.714212,
          "velocity": 0.6141732283464567
        },
        {
          "duration": 0.03333329999999535,
          "durationTicks": 14,
          "midi": 40,
          "name": "E2",
          "ticks": 31020,
          "time": 73.85706900000001,
          "velocity": 0.3858267716535433
        },
        {
          "duration": 0.03333329999999535,
          "durationTicks": 14,
          "midi": 40,
          "name": "E2",
          "ticks": 31035,
          "time": 73.89278325000001,
          "velocity": 0.5433070866141733
        },
        {
          "duration": 0.049999950000000126,
          "durationTicks": 21,
          "midi": 42,
          "name": "F#2",
          "ticks": 31035,
          "time": 73.89278325000001,
          "velocity": 0.6141732283464567
        },
        {
          "duration": 0.03333329999999535,
          "durationTicks": 14,
          "midi": 40,
          "name": "E2",
          "ticks": 31050,
          "time": 73.9284975,
          "velocity": 0.6220472440944882
        },
        {
          "duration": 0.03333330000000956,
          "durationTicks": 14,
          "midi": 40,
          "name": "E2",
          "ticks": 31065,
          "time": 73.96421175,
          "velocity": 0.6220472440944882
        },
        {
          "duration": 0.04999995000001434,
          "durationTicks": 21,
          "midi": 42,
          "name": "F#2",
          "ticks": 31080,
          "time": 73.999926,
          "velocity": 0.6141732283464567
        },
        {
          "duration": 0.0666666000000049,
          "durationTicks": 28,
          "midi": 40,
          "name": "E2",
          "ticks": 31080,
          "time": 73.999926,
          "velocity": 0.8582677165354331
        },
        {
          "duration": 0.0666666000000049,
          "durationTicks": 28,
          "midi": 51,
          "name": "D#3",
          "ticks": 31080,
          "time": 73.999926,
          "velocity": 0.7795275590551181
        },
        {
          "duration": 0.03333329999999535,
          "durationTicks": 14,
          "midi": 40,
          "name": "E2",
          "ticks": 31155,
          "time": 74.17849725,
          "velocity": 0.6220472440944882
        },
        {
          "duration": 0.049999950000000126,
          "durationTicks": 21,
          "midi": 42,
          "name": "F#2",
          "ticks": 31155,
          "time": 74.17849725,
          "velocity": 0.6141732283464567
        },
        {
          "duration": 0.0666666000000049,
          "durationTicks": 28,
          "midi": 51,
          "name": "D#3",
          "ticks": 31155,
          "time": 74.17849725,
          "velocity": 0.7795275590551181
        },
        {
          "duration": 0.047619000000011624,
          "durationTicks": 20,
          "midi": 50,
          "name": "D3",
          "ticks": 31200,
          "time": 74.28564,
          "velocity": 0.84251968503937
        },
        {
          "duration": 0.04999995000001434,
          "durationTicks": 21,
          "midi": 42,
          "name": "F#2",
          "ticks": 31200,
          "time": 74.28564,
          "velocity": 0.6141732283464567
        },
        {
          "duration": 0.1119046499999996,
          "durationTicks": 47,
          "midi": 36,
          "name": "C2",
          "ticks": 31200,
          "time": 74.28564,
          "velocity": 0.8503937007874016
        },
        {
          "duration": 0.07142849999999612,
          "durationTicks": 30,
          "midi": 50,
          "name": "D3",
          "ticks": 31275,
          "time": 74.46421125,
          "velocity": 0.84251968503937
        },
        {
          "duration": 0.04999995000001434,
          "durationTicks": 21,
          "midi": 40,
          "name": "E2",
          "ticks": 31320,
          "time": 74.571354,
          "velocity": 0.6141732283464567
        },
        {
          "duration": 0.06904755000000762,
          "durationTicks": 29,
          "midi": 47,
          "name": "B2",
          "ticks": 31320,
          "time": 74.571354,
          "velocity": 0.7716535433070866
        },
        {
          "duration": 0.04999995000001434,
          "durationTicks": 21,
          "midi": 46,
          "name": "A#2",
          "ticks": 31320,
          "time": 74.571354,
          "velocity": 0.6141732283464567
        },
        {
          "duration": 0.030952350000006845,
          "durationTicks": 13,
          "midi": 48,
          "name": "C3",
          "ticks": 31321,
          "time": 74.57373495,
          "velocity": 0.4566929133858268
        },
        {
          "duration": 0.049999950000000126,
          "durationTicks": 21,
          "midi": 42,
          "name": "F#2",
          "ticks": 31395,
          "time": 74.74992525,
          "velocity": 0.6141732283464567
        },
        {
          "duration": 0.049999950000000126,
          "durationTicks": 21,
          "midi": 40,
          "name": "E2",
          "ticks": 31395,
          "time": 74.74992525,
          "velocity": 0.6141732283464567
        },
        {
          "duration": 0.09523799999999483,
          "durationTicks": 40,
          "midi": 45,
          "name": "A2",
          "ticks": 31395,
          "time": 74.74992525,
          "velocity": 0.84251968503937
        },
        {
          "duration": 0.049999950000000126,
          "durationTicks": 21,
          "midi": 42,
          "name": "F#2",
          "ticks": 31440,
          "time": 74.85706800000001,
          "velocity": 0.6141732283464567
        },
        {
          "duration": 0.1119046499999854,
          "durationTicks": 47,
          "midi": 36,
          "name": "C2",
          "ticks": 31440,
          "time": 74.85706800000001,
          "velocity": 0.8503937007874016
        },
        {
          "duration": 0.0666666000000049,
          "durationTicks": 28,
          "midi": 40,
          "name": "E2",
          "ticks": 31515,
          "time": 75.03563925,
          "velocity": 0.984251968503937
        },
        {
          "duration": 0.049999950000000126,
          "durationTicks": 21,
          "midi": 55,
          "name": "G3",
          "ticks": 31515,
          "time": 75.03563925,
          "velocity": 0.6929133858267716
        },
        {
          "duration": 0.049999950000000126,
          "durationTicks": 21,
          "midi": 42,
          "name": "F#2",
          "ticks": 31515,
          "time": 75.03563925,
          "velocity": 0.6141732283464567
        },
        {
          "duration": 0.0666666000000049,
          "durationTicks": 28,
          "midi": 40,
          "name": "E2",
          "ticks": 31560,
          "time": 75.14278200000001,
          "velocity": 0.9763779527559056
        },
        {
          "duration": 0.049999950000000126,
          "durationTicks": 21,
          "midi": 42,
          "name": "F#2",
          "ticks": 31605,
          "time": 75.24992475,
          "velocity": 0.6141732283464567
        },
        {
          "duration": 0.04999995000001434,
          "durationTicks": 21,
          "midi": 46,
          "name": "A#2",
          "ticks": 31635,
          "time": 75.32135325,
          "velocity": 0.6141732283464567
        },
        {
          "duration": 0.049999950000000126,
          "durationTicks": 21,
          "midi": 42,
          "name": "F#2",
          "ticks": 31680,
          "time": 75.42849600000001,
          "velocity": 0.6141732283464567
        },
        {
          "duration": 0.05952374999999677,
          "durationTicks": 25,
          "midi": 50,
          "name": "D3",
          "ticks": 31680,
          "time": 75.42849600000001,
          "velocity": 0.9212598425196851
        },
        {
          "duration": 0.1119046499999854,
          "durationTicks": 47,
          "midi": 36,
          "name": "C2",
          "ticks": 31680,
          "time": 75.42849600000001,
          "velocity": 0.8503937007874016
        },
        {
          "duration": 0.07619040000000155,
          "durationTicks": 32,
          "midi": 50,
          "name": "D3",
          "ticks": 31755,
          "time": 75.60706725,
          "velocity": 0.9212598425196851
        },
        {
          "duration": 0.07857134999999005,
          "durationTicks": 33,
          "midi": 45,
          "name": "A2",
          "ticks": 31800,
          "time": 75.71421000000001,
          "velocity": 0.8267716535433071
        },
        {
          "duration": 0.049999950000000126,
          "durationTicks": 21,
          "midi": 42,
          "name": "F#2",
          "ticks": 31800,
          "time": 75.71421000000001,
          "velocity": 0.6141732283464567
        },
        {
          "duration": 0.049999950000000126,
          "durationTicks": 21,
          "midi": 40,
          "name": "E2",
          "ticks": 31800,
          "time": 75.71421000000001,
          "velocity": 0.6141732283464567
        },
        {
          "duration": 0.049999950000000126,
          "durationTicks": 21,
          "midi": 40,
          "name": "E2",
          "ticks": 31875,
          "time": 75.89278125000001,
          "velocity": 0.6141732283464567
        },
        {
          "duration": 0.09523799999999483,
          "durationTicks": 40,
          "midi": 43,
          "name": "G2",
          "ticks": 31875,
          "time": 75.89278125000001,
          "velocity": 0.7637795275590551
        },
        {
          "duration": 0.1119046499999996,
          "durationTicks": 47,
          "midi": 36,
          "name": "C2",
          "ticks": 31920,
          "time": 75.99992400000001,
          "velocity": 0.8503937007874016
        },
        {
          "duration": 0.049999950000000126,
          "durationTicks": 21,
          "midi": 42,
          "name": "F#2",
          "ticks": 31920,
          "time": 75.99992400000001,
          "velocity": 0.6141732283464567
        },
        {
          "duration": 0.0666666000000049,
          "durationTicks": 28,
          "midi": 40,
          "name": "E2",
          "ticks": 31995,
          "time": 76.17849525000001,
          "velocity": 0.984251968503937
        },
        {
          "duration": 0.049999950000000126,
          "durationTicks": 21,
          "midi": 46,
          "name": "A#2",
          "ticks": 31995,
          "time": 76.17849525000001,
          "velocity": 0.6141732283464567
        },
        {
          "duration": 0.049999950000000126,
          "durationTicks": 21,
          "midi": 42,
          "name": "F#2",
          "ticks": 32040,
          "time": 76.285638,
          "velocity": 0.6141732283464567
        },
        {
          "duration": 0.0666666000000049,
          "durationTicks": 28,
          "midi": 40,
          "name": "E2",
          "ticks": 32040,
          "time": 76.285638,
          "velocity": 0.984251968503937
        },
        {
          "duration": 0.04999995000001434,
          "durationTicks": 21,
          "midi": 42,
          "name": "F#2",
          "ticks": 32085,
          "time": 76.39278075,
          "velocity": 0.6141732283464567
        },
        {
          "duration": 0.049999950000000126,
          "durationTicks": 21,
          "midi": 46,
          "name": "A#2",
          "ticks": 32115,
          "time": 76.46420925000001,
          "velocity": 0.6141732283464567
        },
        {
          "duration": 0.049999950000000126,
          "durationTicks": 21,
          "midi": 50,
          "name": "D3",
          "ticks": 32160,
          "time": 76.571352,
          "velocity": 0.7716535433070866
        },
        {
          "duration": 0.049999950000000126,
          "durationTicks": 21,
          "midi": 40,
          "name": "E2",
          "ticks": 32160,
          "time": 76.571352,
          "velocity": 0.7716535433070866
        },
        {
          "duration": 0.049999950000000126,
          "durationTicks": 21,
          "midi": 42,
          "name": "F#2",
          "ticks": 32160,
          "time": 76.571352,
          "velocity": 0.6141732283464567
        },
        {
          "duration": 0.1119046499999996,
          "durationTicks": 47,
          "midi": 36,
          "name": "C2",
          "ticks": 32160,
          "time": 76.571352,
          "velocity": 0.8503937007874016
        },
        {
          "duration": 0.049999950000000126,
          "durationTicks": 21,
          "midi": 47,
          "name": "B2",
          "ticks": 32205,
          "time": 76.67849475000001,
          "velocity": 0.7716535433070866
        },
        {
          "duration": 0.049999950000000126,
          "durationTicks": 21,
          "midi": 40,
          "name": "E2",
          "ticks": 32235,
          "time": 76.74992325000001,
          "velocity": 0.4566929133858268
        },
        {
          "duration": 0.049999950000000126,
          "durationTicks": 21,
          "midi": 42,
          "name": "F#2",
          "ticks": 32235,
          "time": 76.74992325000001,
          "velocity": 0.6141732283464567
        },
        {
          "duration": 0.049999950000000126,
          "durationTicks": 21,
          "midi": 45,
          "name": "A2",
          "ticks": 32280,
          "time": 76.857066,
          "velocity": 0.7716535433070866
        },
        {
          "duration": 0.049999950000000126,
          "durationTicks": 21,
          "midi": 42,
          "name": "F#2",
          "ticks": 32280,
          "time": 76.857066,
          "velocity": 0.6141732283464567
        },
        {
          "duration": 0.049999950000000126,
          "durationTicks": 21,
          "midi": 40,
          "name": "E2",
          "ticks": 32280,
          "time": 76.857066,
          "velocity": 0.7716535433070866
        },
        {
          "duration": 0.049999950000000126,
          "durationTicks": 21,
          "midi": 49,
          "name": "C#3",
          "ticks": 32355,
          "time": 77.03563725000001,
          "velocity": 0.7716535433070866
        },
        {
          "duration": 0.049999950000000126,
          "durationTicks": 21,
          "midi": 42,
          "name": "F#2",
          "ticks": 32355,
          "time": 77.03563725000001,
          "velocity": 0.6141732283464567
        },
        {
          "duration": 0.049999950000000126,
          "durationTicks": 21,
          "midi": 40,
          "name": "E2",
          "ticks": 32355,
          "time": 77.03563725000001,
          "velocity": 0.7716535433070866
        },
        {
          "duration": 0.04999995000001434,
          "durationTicks": 21,
          "midi": 42,
          "name": "F#2",
          "ticks": 32400,
          "time": 77.14278,
          "velocity": 0.6141732283464567
        },
        {
          "duration": 0.1119046499999996,
          "durationTicks": 47,
          "midi": 36,
          "name": "C2",
          "ticks": 32400,
          "time": 77.14278,
          "velocity": 0.8503937007874016
        },
        {
          "duration": 0.049999950000000126,
          "durationTicks": 21,
          "midi": 50,
          "name": "D3",
          "ticks": 32445,
          "time": 77.24992275000001,
          "velocity": 0.7716535433070866
        },
        {
          "duration": 0.049999950000000126,
          "durationTicks": 21,
          "midi": 42,
          "name": "F#2",
          "ticks": 32445,
          "time": 77.24992275000001,
          "velocity": 0.6141732283464567
        },
        {
          "duration": 0.049999950000000126,
          "durationTicks": 21,
          "midi": 42,
          "name": "F#2",
          "ticks": 32475,
          "time": 77.32135125,
          "velocity": 0.6141732283464567
        },
        {
          "duration": 0.049999950000000126,
          "durationTicks": 21,
          "midi": 40,
          "name": "E2",
          "ticks": 32475,
          "time": 77.32135125,
          "velocity": 0.7716535433070866
        },
        {
          "duration": 0.04999995000001434,
          "durationTicks": 21,
          "midi": 47,
          "name": "B2",
          "ticks": 32520,
          "time": 77.428494,
          "velocity": 0.7716535433070866
        },
        {
          "duration": 0.04999995000001434,
          "durationTicks": 21,
          "midi": 42,
          "name": "F#2",
          "ticks": 32520,
          "time": 77.428494,
          "velocity": 0.6141732283464567
        },
        {
          "duration": 0.049999950000000126,
          "durationTicks": 21,
          "midi": 40,
          "name": "E2",
          "ticks": 32565,
          "time": 77.53563675000001,
          "velocity": 0.23622047244094488
        },
        {
          "duration": 0.049999950000000126,
          "durationTicks": 21,
          "midi": 40,
          "name": "E2",
          "ticks": 32580,
          "time": 77.571351,
          "velocity": 0.31496062992125984
        },
        {
          "duration": 0.049999950000000126,
          "durationTicks": 21,
          "midi": 40,
          "name": "E2",
          "ticks": 32595,
          "time": 77.60706525,
          "velocity": 0.3937007874015748
        },
        {
          "duration": 0.049999950000000126,
          "durationTicks": 21,
          "midi": 42,
          "name": "F#2",
          "ticks": 32595,
          "time": 77.60706525,
          "velocity": 0.6141732283464567
        },
        {
          "duration": 0.049999950000000126,
          "durationTicks": 21,
          "midi": 40,
          "name": "E2",
          "ticks": 32610,
          "time": 77.6427795,
          "velocity": 0.47244094488188976
        },
        {
          "duration": 0.04999995000001434,
          "durationTicks": 21,
          "midi": 40,
          "name": "E2",
          "ticks": 32625,
          "time": 77.67849375,
          "velocity": 0.5511811023622047
        },
        {
          "duration": 0.049999950000000126,
          "durationTicks": 21,
          "midi": 52,
          "name": "E3",
          "ticks": 32640,
          "time": 77.71420800000001,
          "velocity": 0.6929133858267716
        },
        {
          "duration": 0.049999950000000126,
          "durationTicks": 21,
          "midi": 48,
          "name": "C3",
          "ticks": 32640,
          "time": 77.71420800000001,
          "velocity": 0.7716535433070866
        },
        {
          "duration": 0.049999950000000126,
          "durationTicks": 21,
          "midi": 40,
          "name": "E2",
          "ticks": 32640,
          "time": 77.71420800000001,
          "velocity": 0.7716535433070866
        },
        {
          "duration": 0.1119046499999854,
          "durationTicks": 47,
          "midi": 36,
          "name": "C2",
          "ticks": 32640,
          "time": 77.71420800000001,
          "velocity": 0.8503937007874016
        },
        {
          "duration": 0.049999950000000126,
          "durationTicks": 21,
          "midi": 55,
          "name": "G3",
          "ticks": 32715,
          "time": 77.89277925,
          "velocity": 0.7716535433070866
        },
        {
          "duration": 0.049999950000000126,
          "durationTicks": 21,
          "midi": 45,
          "name": "A2",
          "ticks": 32715,
          "time": 77.89277925,
          "velocity": 0.7716535433070866
        },
        {
          "duration": 0.049999950000000126,
          "durationTicks": 21,
          "midi": 40,
          "name": "E2",
          "ticks": 32715,
          "time": 77.89277925,
          "velocity": 0.7716535433070866
        },
        {
          "duration": 0.049999950000000126,
          "durationTicks": 21,
          "midi": 40,
          "name": "E2",
          "ticks": 32760,
          "time": 77.99992200000001,
          "velocity": 0.7716535433070866
        },
        {
          "duration": 0.049999950000000126,
          "durationTicks": 21,
          "midi": 48,
          "name": "C3",
          "ticks": 32835,
          "time": 78.17849325,
          "velocity": 0.6929133858267716
        },
        {
          "duration": 0.049999950000000126,
          "durationTicks": 21,
          "midi": 47,
          "name": "B2",
          "ticks": 32880,
          "time": 78.28563600000001,
          "velocity": 0.7716535433070866
        },
        {
          "duration": 0.049999950000000126,
          "durationTicks": 21,
          "midi": 40,
          "name": "E2",
          "ticks": 32880,
          "time": 78.28563600000001,
          "velocity": 0.5511811023622047
        },
        {
          "duration": 0.1119046499999854,
          "durationTicks": 47,
          "midi": 36,
          "name": "C2",
          "ticks": 32880,
          "time": 78.28563600000001,
          "velocity": 0.8503937007874016
        },
        {
          "duration": 0.049999950000000126,
          "durationTicks": 21,
          "midi": 40,
          "name": "E2",
          "ticks": 32925,
          "time": 78.39277875,
          "velocity": 0.23622047244094488
        },
        {
          "duration": 0.06904755000000762,
          "durationTicks": 29,
          "midi": 40,
          "name": "E2",
          "ticks": 32940,
          "time": 78.428493,
          "velocity": 0.31496062992125984
        },
        {
          "duration": 0.04999995000001434,
          "durationTicks": 21,
          "midi": 45,
          "name": "A2",
          "ticks": 32955,
          "time": 78.46420725,
          "velocity": 0.7716535433070866
        },
        {
          "duration": 0.04999995000001434,
          "durationTicks": 21,
          "midi": 40,
          "name": "E2",
          "ticks": 32955,
          "time": 78.46420725,
          "velocity": 0.3937007874015748
        },
        {
          "duration": 0.049999950000000126,
          "durationTicks": 21,
          "midi": 40,
          "name": "E2",
          "ticks": 32985,
          "time": 78.53563575000001,
          "velocity": 0.5511811023622047
        },
        {
          "duration": 0.049999950000000126,
          "durationTicks": 21,
          "midi": 49,
          "name": "C#3",
          "ticks": 33000,
          "time": 78.57135000000001,
          "velocity": 0.7716535433070866
        },
        {
          "duration": 0.049999950000000126,
          "durationTicks": 21,
          "midi": 45,
          "name": "A2",
          "ticks": 33000,
          "time": 78.57135000000001,
          "velocity": 0.7716535433070866
        },
        {
          "duration": 0.049999950000000126,
          "durationTicks": 21,
          "midi": 40,
          "name": "E2",
          "ticks": 33000,
          "time": 78.57135000000001,
          "velocity": 0.7716535433070866
        },
        {
          "duration": 0.04999995000001434,
          "durationTicks": 21,
          "midi": 43,
          "name": "G2",
          "ticks": 33075,
          "time": 78.74992125,
          "velocity": 0.7716535433070866
        },
        {
          "duration": 0.04999995000001434,
          "durationTicks": 21,
          "midi": 40,
          "name": "E2",
          "ticks": 33075,
          "time": 78.74992125,
          "velocity": 0.7716535433070866
        }
      ],
      "endOfTrackTicks": 33096
    },
    {
      "channel": 1,
      "controlChanges": {
        "7": [
          {
            "number": 7,
            "ticks": 0,
            "time": 0,
            "value": 0.7874015748031497
          },
          {
            "number": 7,
            "ticks": 0,
            "time": 0,
            "value": 0.7086614173228346
          }
        ],
        "10": [
          {
            "number": 10,
            "ticks": 0,
            "time": 0,
            "value": 0.31496062992125984
          }
        ]
      },
      "pitchBends": [],
      "instrument": {
        "family": "bass",
        "number": 35,
        "name": "fretless bass"
      },
      "name": "Bass",
      "notes": [
        {
          "duration": 0.55952325,
          "durationTicks": 235,
          "midi": 41,
          "name": "F2",
          "ticks": 480,
          "time": 1.142856,
          "velocity": 0.7716535433070866
        },
        {
          "duration": 0.56904705,
          "durationTicks": 239,
          "midi": 36,
          "name": "C2",
          "ticks": 720,
          "time": 1.7142840000000001,
          "velocity": 0.5669291338582677
        },
        {
          "duration": 0.27142829999999973,
          "durationTicks": 114,
          "midi": 29,
          "name": "F1",
          "ticks": 960,
          "time": 2.285712,
          "velocity": 0.6771653543307087
        },
        {
          "duration": 0.28333305,
          "durationTicks": 119,
          "midi": 29,
          "name": "F1",
          "ticks": 1080,
          "time": 2.571426,
          "velocity": 0.6771653543307087
        },
        {
          "duration": 0.28333305,
          "durationTicks": 119,
          "midi": 31,
          "name": "G1",
          "ticks": 1200,
          "time": 2.8571400000000002,
          "velocity": 0.6141732283464567
        },
        {
          "duration": 0.28333305,
          "durationTicks": 119,
          "midi": 33,
          "name": "A1",
          "ticks": 1320,
          "time": 3.1428540000000003,
          "velocity": 0.7244094488188977
        },
        {
          "duration": 0.6023803499999998,
          "durationTicks": 253,
          "midi": 34,
          "name": "A#1",
          "ticks": 1440,
          "time": 3.4285680000000003,
          "velocity": 0.5826771653543307
        },
        {
          "duration": 0.5976184500000006,
          "durationTicks": 251,
          "midi": 41,
          "name": "F2",
          "ticks": 1682,
          "time": 4.0047579,
          "velocity": 0.6299212598425197
        },
        {
          "duration": 0.2833330500000004,
          "durationTicks": 119,
          "midi": 34,
          "name": "A#1",
          "ticks": 1920,
          "time": 4.571424,
          "velocity": 0.5826771653543307
        },
        {
          "duration": 0.28333304999999953,
          "durationTicks": 119,
          "midi": 29,
          "name": "F1",
          "ticks": 2040,
          "time": 4.857138000000001,
          "velocity": 0.6299212598425197
        },
        {
          "duration": 0.2833330500000004,
          "durationTicks": 119,
          "midi": 31,
          "name": "G1",
          "ticks": 2160,
          "time": 5.142852,
          "velocity": 0.6220472440944882
        },
        {
          "duration": 0.2833330500000004,
          "durationTicks": 119,
          "midi": 34,
          "name": "A#1",
          "ticks": 2280,
          "time": 5.428566,
          "velocity": 0.6456692913385826
        },
        {
          "duration": 0.4619043000000005,
          "durationTicks": 194,
          "midi": 41,
          "name": "F2",
          "ticks": 2400,
          "time": 5.7142800000000005,
          "velocity": 0.5984251968503937
        },
        {
          "duration": 0.10476180000000035,
          "durationTicks": 44,
          "midi": 34,
          "name": "A#1",
          "ticks": 2595,
          "time": 6.17856525,
          "velocity": 0.5669291338582677
        },
        {
          "duration": 0.56904705,
          "durationTicks": 239,
          "midi": 36,
          "name": "C2",
          "ticks": 2640,
          "time": 6.2857080000000005,
          "velocity": 0.5669291338582677
        },
        {
          "duration": 0.56904705,
          "durationTicks": 239,
          "midi": 29,
          "name": "F1",
          "ticks": 2880,
          "time": 6.857136000000001,
          "velocity": 0.6456692913385826
        },
        {
          "duration": 0.56904705,
          "durationTicks": 239,
          "midi": 36,
          "name": "C2",
          "ticks": 3120,
          "time": 7.428564000000001,
          "velocity": 0.6456692913385826
        },
        {
          "duration": 0.2476187999999997,
          "durationTicks": 104,
          "midi": 34,
          "name": "A#1",
          "ticks": 3360,
          "time": 7.999992000000001,
          "velocity": 0.6456692913385826
        },
        {
          "duration": 0.2476187999999997,
          "durationTicks": 104,
          "midi": 34,
          "name": "A#1",
          "ticks": 3480,
          "time": 8.285706000000001,
          "velocity": 0.6456692913385826
        },
        {
          "duration": 0.14047605000000019,
          "durationTicks": 59,
          "midi": 41,
          "name": "F2",
          "ticks": 3600,
          "time": 8.57142,
          "velocity": 0.6456692913385826
        },
        {
          "duration": 0.31904729999999937,
          "durationTicks": 134,
          "midi": 41,
          "name": "F2",
          "ticks": 3675,
          "time": 8.74999125,
          "velocity": 0.6456692913385826
        },
        {
          "duration": 0.39047579999999904,
          "durationTicks": 164,
          "midi": 29,
          "name": "F1",
          "ticks": 3795,
          "time": 9.035705250000001,
          "velocity": 0.6456692913385826
        },
        {
          "duration": 0.28333304999999953,
          "durationTicks": 119,
          "midi": 36,
          "name": "C2",
          "ticks": 3960,
          "time": 9.428562000000001,
          "velocity": 0.6456692913385826
        },
        {
          "duration": 0.28333304999999953,
          "durationTicks": 119,
          "midi": 38,
          "name": "D2",
          "ticks": 4080,
          "time": 9.714276000000002,
          "velocity": 0.6456692913385826
        },
        {
          "duration": 0.2833330500000013,
          "durationTicks": 119,
          "midi": 40,
          "name": "E2",
          "ticks": 4200,
          "time": 9.99999,
          "velocity": 0.6456692913385826
        },
        {
          "duration": 0.5595232500000016,
          "durationTicks": 235,
          "midi": 41,
          "name": "F2",
          "ticks": 4320,
          "time": 10.285704,
          "velocity": 0.7716535433070866
        },
        {
          "duration": 0.5690470500000018,
          "durationTicks": 239,
          "midi": 36,
          "name": "C2",
          "ticks": 4560,
          "time": 10.857132,
          "velocity": 0.5669291338582677
        },
        {
          "duration": 0.2714283000000002,
          "durationTicks": 114,
          "midi": 29,
          "name": "F1",
          "ticks": 4800,
          "time": 11.428560000000001,
          "velocity": 0.6771653543307087
        },
        {
          "duration": 0.28333304999999953,
          "durationTicks": 119,
          "midi": 29,
          "name": "F1",
          "ticks": 4920,
          "time": 11.714274000000001,
          "velocity": 0.6771653543307087
        },
        {
          "duration": 0.28333304999999953,
          "durationTicks": 119,
          "midi": 31,
          "name": "G1",
          "ticks": 5040,
          "time": 11.999988000000002,
          "velocity": 0.6141732283464567
        },
        {
          "duration": 0.2833330500000013,
          "durationTicks": 119,
          "midi": 33,
          "name": "A1",
          "ticks": 5160,
          "time": 12.285702,
          "velocity": 0.7244094488188977
        },
        {
          "duration": 0.6023803500000007,
          "durationTicks": 253,
          "midi": 34,
          "name": "A#1",
          "ticks": 5280,
          "time": 12.571416000000001,
          "velocity": 0.5826771653543307
        },
        {
          "duration": 0.5976184500000006,
          "durationTicks": 251,
          "midi": 41,
          "name": "F2",
          "ticks": 5522,
          "time": 13.1476059,
          "velocity": 0.6299212598425197
        },
        {
          "duration": 0.28333304999999953,
          "durationTicks": 119,
          "midi": 34,
          "name": "A#1",
          "ticks": 5760,
          "time": 13.714272000000001,
          "velocity": 0.5826771653543307
        },
        {
          "duration": 0.28333304999999953,
          "durationTicks": 119,
          "midi": 29,
          "name": "F1",
          "ticks": 5880,
          "time": 13.999986000000002,
          "velocity": 0.5669291338582677
        },
        {
          "duration": 0.28333304999999953,
          "durationTicks": 119,
          "midi": 31,
          "name": "G1",
          "ticks": 6000,
          "time": 14.285700000000002,
          "velocity": 0.5669291338582677
        },
        {
          "duration": 0.2833330500000013,
          "durationTicks": 119,
          "midi": 34,
          "name": "A#1",
          "ticks": 6120,
          "time": 14.571414,
          "velocity": 0.5669291338582677
        },
        {
          "duration": 0.4619043000000005,
          "durationTicks": 194,
          "midi": 41,
          "name": "F2",
          "ticks": 6240,
          "time": 14.857128000000001,
          "velocity": 0.5984251968503937
        },
        {
          "duration": 0.10476180000000035,
          "durationTicks": 44,
          "midi": 34,
          "name": "A#1",
          "ticks": 6435,
          "time": 15.32141325,
          "velocity": 0.5669291338582677
        },
        {
          "duration": 0.5690470500000018,
          "durationTicks": 239,
          "midi": 36,
          "name": "C2",
          "ticks": 6480,
          "time": 15.428556,
          "velocity": 0.5669291338582677
        },
        {
          "duration": 0.5690470500000018,
          "durationTicks": 239,
          "midi": 29,
          "name": "F1",
          "ticks": 6720,
          "time": 15.999984000000001,
          "velocity": 0.6456692913385826
        },
        {
          "duration": 0.5690470499999982,
          "durationTicks": 239,
          "midi": 36,
          "name": "C2",
          "ticks": 6960,
          "time": 16.571412000000002,
          "velocity": 0.6456692913385826
        },
        {
          "duration": 0.24761880000000147,
          "durationTicks": 104,
          "midi": 34,
          "name": "A#1",
          "ticks": 7200,
          "time": 17.14284,
          "velocity": 0.6456692913385826
        },
        {
          "duration": 0.24761880000000147,
          "durationTicks": 104,
          "midi": 34,
          "name": "A#1",
          "ticks": 7320,
          "time": 17.428554000000002,
          "velocity": 0.6456692913385826
        },
        {
          "duration": 0.28333304999999953,
          "durationTicks": 119,
          "midi": 32,
          "name": "G#1",
          "ticks": 7440,
          "time": 17.714268,
          "velocity": 0.6456692913385826
        },
        {
          "duration": 0.28333304999999953,
          "durationTicks": 119,
          "midi": 31,
          "name": "G1",
          "ticks": 7560,
          "time": 17.999982000000003,
          "velocity": 0.6456692913385826
        },
        {
          "duration": 0.6047612999999998,
          "durationTicks": 254,
          "midi": 29,
          "name": "F1",
          "ticks": 7635,
          "time": 18.17855325,
          "velocity": 0.6456692913385826
        },
        {
          "duration": 0.5333327999999966,
          "durationTicks": 224,
          "midi": 36,
          "name": "C2",
          "ticks": 7920,
          "time": 18.857124000000002,
          "velocity": 0.5748031496062992
        },
        {
          "duration": 0.24761879999999792,
          "durationTicks": 104,
          "midi": 34,
          "name": "A#1",
          "ticks": 8160,
          "time": 19.428552000000003,
          "velocity": 0.6456692913385826
        },
        {
          "duration": 0.24761879999999792,
          "durationTicks": 104,
          "midi": 34,
          "name": "A#1",
          "ticks": 8280,
          "time": 19.714266000000002,
          "velocity": 0.6456692913385826
        },
        {
          "duration": 0.28333304999999953,
          "durationTicks": 119,
          "midi": 32,
          "name": "G#1",
          "ticks": 8400,
          "time": 19.99998,
          "velocity": 0.6456692913385826
        },
        {
          "duration": 0.283333049999996,
          "durationTicks": 119,
          "midi": 31,
          "name": "G1",
          "ticks": 8520,
          "time": 20.285694000000003,
          "velocity": 0.6456692913385826
        },
        {
          "duration": 0.6047612999999998,
          "durationTicks": 254,
          "midi": 29,
          "name": "F1",
          "ticks": 8595,
          "time": 20.46426525,
          "velocity": 0.6456692913385826
        },
        {
          "duration": 0.49999950000000126,
          "durationTicks": 210,
          "midi": 34,
          "name": "A#1",
          "ticks": 9120,
          "time": 21.714264,
          "velocity": 0.6299212598425197
        },
        {
          "duration": 0.10476179999999502,
          "durationTicks": 44,
          "midi": 40,
          "name": "E2",
          "ticks": 9315,
          "time": 22.178549250000003,
          "velocity": 0.5354330708661418
        },
        {
          "duration": 0.5690470499999982,
          "durationTicks": 239,
          "midi": 41,
          "name": "F2",
          "ticks": 9360,
          "time": 22.285692,
          "velocity": 0.6220472440944882
        },
        {
          "duration": 0.5666660999999991,
          "durationTicks": 238,
          "midi": 34,
          "name": "A#1",
          "ticks": 9600,
          "time": 22.857120000000002,
          "velocity": 0.6299212598425197
        },
        {
          "duration": 0.283333049999996,
          "durationTicks": 119,
          "midi": 29,
          "name": "F1",
          "ticks": 9840,
          "time": 23.428548000000003,
          "velocity": 0.6220472440944882
        },
        {
          "duration": 0.28333304999999953,
          "durationTicks": 119,
          "midi": 34,
          "name": "A#1",
          "ticks": 9960,
          "time": 23.714262,
          "velocity": 0.6220472440944882
        },
        {
          "duration": 0.5761898999999993,
          "durationTicks": 242,
          "midi": 41,
          "name": "F2",
          "ticks": 10080,
          "time": 23.999976000000004,
          "velocity": 0.6456692913385826
        },
        {
          "duration": 0.5690470499999982,
          "durationTicks": 239,
          "midi": 36,
          "name": "C2",
          "ticks": 10320,
          "time": 24.571404,
          "velocity": 0.6141732283464567
        },
        {
          "duration": 0.5690470499999982,
          "durationTicks": 239,
          "midi": 29,
          "name": "F1",
          "ticks": 10560,
          "time": 25.142832000000002,
          "velocity": 0.6456692913385826
        },
        {
          "duration": 0.5690470499999982,
          "durationTicks": 239,
          "midi": 33,
          "name": "A1",
          "ticks": 10800,
          "time": 25.714260000000003,
          "velocity": 0.6456692913385826
        },
        {
          "duration": 0.49999950000000126,
          "durationTicks": 210,
          "midi": 34,
          "name": "A#1",
          "ticks": 11040,
          "time": 26.285688,
          "velocity": 0.6299212598425197
        },
        {
          "duration": 0.10476179999999502,
          "durationTicks": 44,
          "midi": 40,
          "name": "E2",
          "ticks": 11235,
          "time": 26.749973250000004,
          "velocity": 0.5354330708661418
        },
        {
          "duration": 0.5690470499999982,
          "durationTicks": 239,
          "midi": 41,
          "name": "F2",
          "ticks": 11280,
          "time": 26.857116,
          "velocity": 0.6220472440944882
        },
        {
          "duration": 0.5666660999999991,
          "durationTicks": 238,
          "midi": 34,
          "name": "A#1",
          "ticks": 11520,
          "time": 27.428544000000002,
          "velocity": 0.6299212598425197
        },
        {
          "duration": 0.283333049999996,
          "durationTicks": 119,
          "midi": 29,
          "name": "F1",
          "ticks": 11760,
          "time": 27.999972000000003,
          "velocity": 0.6220472440944882
        },
        {
          "duration": 0.28333304999999953,
          "durationTicks": 119,
          "midi": 34,
          "name": "A#1",
          "ticks": 11880,
          "time": 28.285686000000002,
          "velocity": 0.6220472440944882
        },
        {
          "duration": 0.5690470499999947,
          "durationTicks": 239,
          "midi": 36,
          "name": "C2",
          "ticks": 12000,
          "time": 28.571400000000004,
          "velocity": 0.6929133858267716
        },
        {
          "duration": 0.5333328000000002,
          "durationTicks": 224,
          "midi": 31,
          "name": "G1",
          "ticks": 12240,
          "time": 29.142828,
          "velocity": 0.6929133858267716
        },
        {
          "duration": 0.578570850000002,
          "durationTicks": 243,
          "midi": 41,
          "name": "F2",
          "ticks": 12480,
          "time": 29.714256000000002,
          "velocity": 0.6929133858267716
        },
        {
          "duration": 0.283333049999996,
          "durationTicks": 119,
          "midi": 36,
          "name": "C2",
          "ticks": 12720,
          "time": 30.285684000000003,
          "velocity": 0.6771653543307087
        },
        {
          "duration": 0.28333304999999953,
          "durationTicks": 119,
          "midi": 35,
          "name": "B1",
          "ticks": 12840,
          "time": 30.571398000000002,
          "velocity": 0.6771653543307087
        },
        {
          "duration": 0.5690470499999982,
          "durationTicks": 239,
          "midi": 34,
          "name": "A#1",
          "ticks": 12960,
          "time": 30.857112,
          "velocity": 0.6929133858267716
        },
        {
          "duration": 0.5690470499999982,
          "durationTicks": 239,
          "midi": 41,
          "name": "F2",
          "ticks": 13200,
          "time": 31.42854,
          "velocity": 0.6141732283464567
        },
        {
          "duration": 0.5690470499999947,
          "durationTicks": 239,
          "midi": 34,
          "name": "A#1",
          "ticks": 13440,
          "time": 31.999968000000003,
          "velocity": 0.6141732283464567
        },
        {
          "duration": 0.2833330500000031,
          "durationTicks": 119,
          "midi": 35,
          "name": "B1",
          "ticks": 13680,
          "time": 32.571396,
          "velocity": 0.6141732283464567
        },
        {
          "duration": 0.283333049999996,
          "durationTicks": 119,
          "midi": 36,
          "name": "C2",
          "ticks": 13800,
          "time": 32.857110000000006,
          "velocity": 0.6141732283464567
        },
        {
          "duration": 0.5690470499999947,
          "durationTicks": 239,
          "midi": 37,
          "name": "C#2",
          "ticks": 13920,
          "time": 33.142824000000005,
          "velocity": 0.6141732283464567
        },
        {
          "duration": 0.5690470500000018,
          "durationTicks": 239,
          "midi": 33,
          "name": "A1",
          "ticks": 14160,
          "time": 33.714252,
          "velocity": 0.6141732283464567
        },
        {
          "duration": 0.5690470500000018,
          "durationTicks": 239,
          "midi": 38,
          "name": "D2",
          "ticks": 14400,
          "time": 34.28568,
          "velocity": 0.6141732283464567
        },
        {
          "duration": 0.283333049999996,
          "durationTicks": 119,
          "midi": 45,
          "name": "A2",
          "ticks": 14640,
          "time": 34.857108000000004,
          "velocity": 0.6141732283464567
        },
        {
          "duration": 0.283333049999996,
          "durationTicks": 119,
          "midi": 44,
          "name": "G#2",
          "ticks": 14760,
          "time": 35.142822,
          "velocity": 0.6141732283464567
        },
        {
          "duration": 0.3547615499999992,
          "durationTicks": 149,
          "midi": 31,
          "name": "G1",
          "ticks": 14880,
          "time": 35.428536,
          "velocity": 0.84251968503937
        },
        {
          "duration": 0.16904745000000077,
          "durationTicks": 71,
          "midi": 31,
          "name": "G1",
          "ticks": 15075,
          "time": 35.892821250000004,
          "velocity": 0.84251968503937
        },
        {
          "duration": 0.3547615499999992,
          "durationTicks": 149,
          "midi": 31,
          "name": "G1",
          "ticks": 15360,
          "time": 36.571392,
          "velocity": 0.84251968503937
        },
        {
          "duration": 0.20952359999999004,
          "durationTicks": 88,
          "midi": 31,
          "name": "G1",
          "ticks": 15555,
          "time": 37.035677250000006,
          "velocity": 0.84251968503937
        },
        {
          "duration": 0.39047579999999726,
          "durationTicks": 164,
          "midi": 36,
          "name": "C2",
          "ticks": 15840,
          "time": 37.714248000000005,
          "velocity": 0.84251968503937
        },
        {
          "duration": 0.2238092999999992,
          "durationTicks": 94,
          "midi": 36,
          "name": "C2",
          "ticks": 16035,
          "time": 38.17853325,
          "velocity": 0.84251968503937
        },
        {
          "duration": 0.12857129999999017,
          "durationTicks": 54,
          "midi": 36,
          "name": "C2",
          "ticks": 16320,
          "time": 38.85710400000001,
          "velocity": 0.7795275590551181
        },
        {
          "duration": 0.32142824999999675,
          "durationTicks": 135,
          "midi": 36,
          "name": "C2",
          "ticks": 16440,
          "time": 39.142818000000005,
          "velocity": 0.8267716535433071
        },
        {
          "duration": 0.2833330500000031,
          "durationTicks": 119,
          "midi": 38,
          "name": "D2",
          "ticks": 16560,
          "time": 39.428532000000004,
          "velocity": 0.8267716535433071
        },
        {
          "duration": 0.2833330500000031,
          "durationTicks": 119,
          "midi": 40,
          "name": "E2",
          "ticks": 16680,
          "time": 39.714246,
          "velocity": 0.7716535433070866
        },
        {
          "duration": 0.5595232500000051,
          "durationTicks": 235,
          "midi": 41,
          "name": "F2",
          "ticks": 16800,
          "time": 39.99996,
          "velocity": 0.7716535433070866
        },
        {
          "duration": 0.5690470500000018,
          "durationTicks": 239,
          "midi": 36,
          "name": "C2",
          "ticks": 17040,
          "time": 40.571388000000006,
          "velocity": 0.5669291338582677
        },
        {
          "duration": 0.2714282999999966,
          "durationTicks": 114,
          "midi": 29,
          "name": "F1",
          "ticks": 17280,
          "time": 41.142816,
          "velocity": 0.6771653543307087
        },
        {
          "duration": 0.2833330500000031,
          "durationTicks": 119,
          "midi": 29,
          "name": "F1",
          "ticks": 17400,
          "time": 41.42853,
          "velocity": 0.6771653543307087
        },
        {
          "duration": 0.2833330500000031,
          "durationTicks": 119,
          "midi": 31,
          "name": "G1",
          "ticks": 17520,
          "time": 41.714244,
          "velocity": 0.6141732283464567
        },
        {
          "duration": 0.283333049999996,
          "durationTicks": 119,
          "midi": 33,
          "name": "A1",
          "ticks": 17640,
          "time": 41.99995800000001,
          "velocity": 0.7244094488188977
        },
        {
          "duration": 0.6023803499999971,
          "durationTicks": 253,
          "midi": 34,
          "name": "A#1",
          "ticks": 17760,
          "time": 42.285672000000005,
          "velocity": 0.5826771653543307
        },
        {
          "duration": 0.5976184499999917,
          "durationTicks": 251,
          "midi": 41,
          "name": "F2",
          "ticks": 18002,
          "time": 42.86186190000001,
          "velocity": 0.6299212598425197
        },
        {
          "duration": 0.2833330500000031,
          "durationTicks": 119,
          "midi": 34,
          "name": "A#1",
          "ticks": 18240,
          "time": 43.428528,
          "velocity": 0.5826771653543307
        },
        {
          "duration": 0.2833330500000031,
          "durationTicks": 119,
          "midi": 29,
          "name": "F1",
          "ticks": 18360,
          "time": 43.714242000000006,
          "velocity": 0.6299212598425197
        },
        {
          "duration": 0.2833330500000031,
          "durationTicks": 119,
          "midi": 31,
          "name": "G1",
          "ticks": 18480,
          "time": 43.999956000000005,
          "velocity": 0.6220472440944882
        },
        {
          "duration": 0.2833330500000031,
          "durationTicks": 119,
          "midi": 34,
          "name": "A#1",
          "ticks": 18600,
          "time": 44.28567,
          "velocity": 0.6456692913385826
        },
        {
          "duration": 0.4619043000000005,
          "durationTicks": 194,
          "midi": 41,
          "name": "F2",
          "ticks": 18720,
          "time": 44.571384,
          "velocity": 0.5984251968503937
        },
        {
          "duration": 0.10476179999999857,
          "durationTicks": 44,
          "midi": 34,
          "name": "A#1",
          "ticks": 18915,
          "time": 45.035669250000005,
          "velocity": 0.5669291338582677
        },
        {
          "duration": 0.5690470500000018,
          "durationTicks": 239,
          "midi": 36,
          "name": "C2",
          "ticks": 18960,
          "time": 45.142812000000006,
          "velocity": 0.5669291338582677
        },
        {
          "duration": 0.5690470500000018,
          "durationTicks": 239,
          "midi": 29,
          "name": "F1",
          "ticks": 19200,
          "time": 45.714240000000004,
          "velocity": 0.6456692913385826
        },
        {
          "duration": 0.5690470500000018,
          "durationTicks": 239,
          "midi": 36,
          "name": "C2",
          "ticks": 19440,
          "time": 46.285668,
          "velocity": 0.6456692913385826
        },
        {
          "duration": 0.24761879999999792,
          "durationTicks": 104,
          "midi": 34,
          "name": "A#1",
          "ticks": 19680,
          "time": 46.857096000000006,
          "velocity": 0.6456692913385826
        },
        {
          "duration": 0.24761880000000502,
          "durationTicks": 104,
          "midi": 34,
          "name": "A#1",
          "ticks": 19800,
          "time": 47.142810000000004,
          "velocity": 0.6456692913385826
        },
        {
          "duration": 0.14047605000000374,
          "durationTicks": 59,
          "midi": 41,
          "name": "F2",
          "ticks": 19920,
          "time": 47.428524,
          "velocity": 0.6456692913385826
        },
        {
          "duration": 0.31904730000000825,
          "durationTicks": 134,
          "midi": 41,
          "name": "F2",
          "ticks": 19995,
          "time": 47.60709525,
          "velocity": 0.6456692913385826
        },
        {
          "duration": 0.39047579999999726,
          "durationTicks": 164,
          "midi": 29,
          "name": "F1",
          "ticks": 20115,
          "time": 47.892809250000006,
          "velocity": 0.6456692913385826
        },
        {
          "duration": 0.2833330500000031,
          "durationTicks": 119,
          "midi": 36,
          "name": "C2",
          "ticks": 20280,
          "time": 48.285666000000006,
          "velocity": 0.6456692913385826
        },
        {
          "duration": 0.2833330500000031,
          "durationTicks": 119,
          "midi": 38,
          "name": "D2",
          "ticks": 20400,
          "time": 48.571380000000005,
          "velocity": 0.6456692913385826
        },
        {
          "duration": 0.2833330500000031,
          "durationTicks": 119,
          "midi": 40,
          "name": "E2",
          "ticks": 20520,
          "time": 48.857094000000004,
          "velocity": 0.6456692913385826
        },
        {
          "duration": 0.5595232500000051,
          "durationTicks": 235,
          "midi": 41,
          "name": "F2",
          "ticks": 20640,
          "time": 49.142808,
          "velocity": 0.7716535433070866
        },
        {
          "duration": 0.5690470500000018,
          "durationTicks": 239,
          "midi": 36,
          "name": "C2",
          "ticks": 20880,
          "time": 49.71423600000001,
          "velocity": 0.5669291338582677
        },
        {
          "duration": 0.2714282999999966,
          "durationTicks": 114,
          "midi": 29,
          "name": "F1",
          "ticks": 21120,
          "time": 50.285664000000004,
          "velocity": 0.6771653543307087
        },
        {
          "duration": 0.2833330500000031,
          "durationTicks": 119,
          "midi": 29,
          "name": "F1",
          "ticks": 21240,
          "time": 50.571378,
          "velocity": 0.6771653543307087
        },
        {
          "duration": 0.2833330500000031,
          "durationTicks": 119,
          "midi": 31,
          "name": "G1",
          "ticks": 21360,
          "time": 50.857092,
          "velocity": 0.6141732283464567
        },
        {
          "duration": 0.283333049999996,
          "durationTicks": 119,
          "midi": 33,
          "name": "A1",
          "ticks": 21480,
          "time": 51.14280600000001,
          "velocity": 0.7244094488188977
        },
        {
          "duration": 0.6023803499999971,
          "durationTicks": 253,
          "midi": 34,
          "name": "A#1",
          "ticks": 21600,
          "time": 51.428520000000006,
          "velocity": 0.5826771653543307
        },
        {
          "duration": 0.5976184499999917,
          "durationTicks": 251,
          "midi": 41,
          "name": "F2",
          "ticks": 21842,
          "time": 52.00470990000001,
          "velocity": 0.6299212598425197
        },
        {
          "duration": 0.2833330500000031,
          "durationTicks": 119,
          "midi": 34,
          "name": "A#1",
          "ticks": 22080,
          "time": 52.571376,
          "velocity": 0.5826771653543307
        },
        {
          "duration": 0.2833330500000031,
          "durationTicks": 119,
          "midi": 29,
          "name": "F1",
          "ticks": 22200,
          "time": 52.85709000000001,
          "velocity": 0.5669291338582677
        },
        {
          "duration": 0.2833330500000031,
          "durationTicks": 119,
          "midi": 31,
          "name": "G1",
          "ticks": 22320,
          "time": 53.142804000000005,
          "velocity": 0.5669291338582677
        },
        {
          "duration": 0.2833330500000031,
          "durationTicks": 119,
          "midi": 34,
          "name": "A#1",
          "ticks": 22440,
          "time": 53.428518000000004,
          "velocity": 0.5669291338582677
        },
        {
          "duration": 0.4619043000000005,
          "durationTicks": 194,
          "midi": 41,
          "name": "F2",
          "ticks": 22560,
          "time": 53.714232,
          "velocity": 0.5984251968503937
        },
        {
          "duration": 0.10476179999999857,
          "durationTicks": 44,
          "midi": 34,
          "name": "A#1",
          "ticks": 22755,
          "time": 54.178517250000006,
          "velocity": 0.5669291338582677
        },
        {
          "duration": 0.5690470500000018,
          "durationTicks": 239,
          "midi": 36,
          "name": "C2",
          "ticks": 22800,
          "time": 54.28566000000001,
          "velocity": 0.5669291338582677
        },
        {
          "duration": 0.5690470500000018,
          "durationTicks": 239,
          "midi": 29,
          "name": "F1",
          "ticks": 23040,
          "time": 54.857088000000005,
          "velocity": 0.6456692913385826
        },
        {
          "duration": 0.5690470500000018,
          "durationTicks": 239,
          "midi": 36,
          "name": "C2",
          "ticks": 23280,
          "time": 55.428516,
          "velocity": 0.6456692913385826
        },
        {
          "duration": 0.24761879999999792,
          "durationTicks": 104,
          "midi": 34,
          "name": "A#1",
          "ticks": 23520,
          "time": 55.999944000000006,
          "velocity": 0.6456692913385826
        },
        {
          "duration": 0.24761880000000502,
          "durationTicks": 104,
          "midi": 34,
          "name": "A#1",
          "ticks": 23640,
          "time": 56.285658000000005,
          "velocity": 0.6456692913385826
        },
        {
          "duration": 0.2833330500000031,
          "durationTicks": 119,
          "midi": 32,
          "name": "G#1",
          "ticks": 23760,
          "time": 56.571372000000004,
          "velocity": 0.6456692913385826
        },
        {
          "duration": 0.2833330500000031,
          "durationTicks": 119,
          "midi": 31,
          "name": "G1",
          "ticks": 23880,
          "time": 56.857086,
          "velocity": 0.6456692913385826
        },
        {
          "duration": 0.6047612999999998,
          "durationTicks": 254,
          "midi": 29,
          "name": "F1",
          "ticks": 23955,
          "time": 57.03565725000001,
          "velocity": 0.6456692913385826
        },
        {
          "duration": 0.5333328000000037,
          "durationTicks": 224,
          "midi": 36,
          "name": "C2",
          "ticks": 24240,
          "time": 57.714228000000006,
          "velocity": 0.5748031496062992
        },
        {
          "duration": 0.24761880000000502,
          "durationTicks": 104,
          "midi": 34,
          "name": "A#1",
          "ticks": 24480,
          "time": 58.285656,
          "velocity": 0.6456692913385826
        },
        {
          "duration": 0.24761880000000502,
          "durationTicks": 104,
          "midi": 34,
          "name": "A#1",
          "ticks": 24600,
          "time": 58.57137,
          "velocity": 0.6456692913385826
        },
        {
          "duration": 0.283333049999996,
          "durationTicks": 119,
          "midi": 32,
          "name": "G#1",
          "ticks": 24720,
          "time": 58.85708400000001,
          "velocity": 0.6456692913385826
        },
        {
          "duration": 0.2833330500000031,
          "durationTicks": 119,
          "midi": 31,
          "name": "G1",
          "ticks": 24840,
          "time": 59.142798000000006,
          "velocity": 0.6456692913385826
        },
        {
          "duration": 0.6047613000000069,
          "durationTicks": 254,
          "midi": 29,
          "name": "F1",
          "ticks": 24915,
          "time": 59.321369250000004,
          "velocity": 0.6456692913385826
        },
        {
          "duration": 0.49999950000000126,
          "durationTicks": 210,
          "midi": 34,
          "name": "A#1",
          "ticks": 25440,
          "time": 60.57136800000001,
          "velocity": 0.6299212598425197
        },
        {
          "duration": 0.10476180000000568,
          "durationTicks": 44,
          "midi": 40,
          "name": "E2",
          "ticks": 25635,
          "time": 61.03565325,
          "velocity": 0.5354330708661418
        },
        {
          "duration": 0.5690470500000018,
          "durationTicks": 239,
          "midi": 41,
          "name": "F2",
          "ticks": 25680,
          "time": 61.142796000000004,
          "velocity": 0.6220472440944882
        },
        {
          "duration": 0.5666660999999991,
          "durationTicks": 238,
          "midi": 34,
          "name": "A#1",
          "ticks": 25920,
          "time": 61.714224,
          "velocity": 0.6299212598425197
        },
        {
          "duration": 0.2833330500000031,
          "durationTicks": 119,
          "midi": 29,
          "name": "F1",
          "ticks": 26160,
          "time": 62.285652000000006,
          "velocity": 0.6220472440944882
        },
        {
          "duration": 0.2833330500000031,
          "durationTicks": 119,
          "midi": 34,
          "name": "A#1",
          "ticks": 26280,
          "time": 62.571366000000005,
          "velocity": 0.6220472440944882
        },
        {
          "duration": 0.5761899000000028,
          "durationTicks": 242,
          "midi": 41,
          "name": "F2",
          "ticks": 26400,
          "time": 62.85708,
          "velocity": 0.6456692913385826
        },
        {
          "duration": 0.5690470500000018,
          "durationTicks": 239,
          "midi": 36,
          "name": "C2",
          "ticks": 26640,
          "time": 63.42850800000001,
          "velocity": 0.6141732283464567
        },
        {
          "duration": 0.5690470500000089,
          "durationTicks": 239,
          "midi": 29,
          "name": "F1",
          "ticks": 26880,
          "time": 63.999936000000005,
          "velocity": 0.6456692913385826
        },
        {
          "duration": 0.5690470500000089,
          "durationTicks": 239,
          "midi": 33,
          "name": "A1",
          "ticks": 27120,
          "time": 64.571364,
          "velocity": 0.6456692913385826
        },
        {
          "duration": 0.49999950000000126,
          "durationTicks": 210,
          "midi": 34,
          "name": "A#1",
          "ticks": 27360,
          "time": 65.142792,
          "velocity": 0.6299212598425197
        },
        {
          "duration": 0.10476180000000568,
          "durationTicks": 44,
          "midi": 40,
          "name": "E2",
          "ticks": 27555,
          "time": 65.60707725,
          "velocity": 0.5354330708661418
        },
        {
          "duration": 0.5690470499999947,
          "durationTicks": 239,
          "midi": 41,
          "name": "F2",
          "ticks": 27600,
          "time": 65.71422000000001,
          "velocity": 0.6220472440944882
        },
        {
          "duration": 0.566666099999992,
          "durationTicks": 238,
          "midi": 34,
          "name": "A#1",
          "ticks": 27840,
          "time": 66.28564800000001,
          "velocity": 0.6299212598425197
        },
        {
          "duration": 0.283333049999996,
          "durationTicks": 119,
          "midi": 29,
          "name": "F1",
          "ticks": 28080,
          "time": 66.857076,
          "velocity": 0.6220472440944882
        },
        {
          "duration": 0.283333049999996,
          "durationTicks": 119,
          "midi": 34,
          "name": "A#1",
          "ticks": 28200,
          "time": 67.14279,
          "velocity": 0.6220472440944882
        },
        {
          "duration": 0.5690470500000089,
          "durationTicks": 239,
          "midi": 36,
          "name": "C2",
          "ticks": 28320,
          "time": 67.428504,
          "velocity": 0.6929133858267716
        },
        {
          "duration": 0.5333328000000108,
          "durationTicks": 224,
          "midi": 31,
          "name": "G1",
          "ticks": 28560,
          "time": 67.999932,
          "velocity": 0.6929133858267716
        },
        {
          "duration": 0.5785708500000055,
          "durationTicks": 243,
          "midi": 41,
          "name": "F2",
          "ticks": 28800,
          "time": 68.57136,
          "velocity": 0.8188976377952756
        },
        {
          "duration": 0.283333049999996,
          "durationTicks": 119,
          "midi": 36,
          "name": "C2",
          "ticks": 29040,
          "time": 69.14278800000001,
          "velocity": 0.6771653543307087
        },
        {
          "duration": 0.283333049999996,
          "durationTicks": 119,
          "midi": 35,
          "name": "B1",
          "ticks": 29160,
          "time": 69.42850200000001,
          "velocity": 0.6771653543307087
        },
        {
          "duration": 0.5690470499999947,
          "durationTicks": 239,
          "midi": 34,
          "name": "A#1",
          "ticks": 29280,
          "time": 69.71421600000001,
          "velocity": 0.6929133858267716
        },
        {
          "duration": 0.5690470500000089,
          "durationTicks": 239,
          "midi": 41,
          "name": "F2",
          "ticks": 29520,
          "time": 70.285644,
          "velocity": 0.6141732283464567
        },
        {
          "duration": 0.5690470500000089,
          "durationTicks": 239,
          "midi": 34,
          "name": "A#1",
          "ticks": 29760,
          "time": 70.857072,
          "velocity": 0.6141732283464567
        },
        {
          "duration": 0.2833330500000102,
          "durationTicks": 119,
          "midi": 35,
          "name": "B1",
          "ticks": 30000,
          "time": 71.4285,
          "velocity": 0.6141732283464567
        },
        {
          "duration": 0.283333049999996,
          "durationTicks": 119,
          "midi": 36,
          "name": "C2",
          "ticks": 30120,
          "time": 71.71421400000001,
          "velocity": 0.6141732283464567
        },
        {
          "duration": 0.5690470499999947,
          "durationTicks": 239,
          "midi": 37,
          "name": "C#2",
          "ticks": 30240,
          "time": 71.99992800000001,
          "velocity": 0.6141732283464567
        },
        {
          "duration": 0.5690470499999947,
          "durationTicks": 239,
          "midi": 33,
          "name": "A1",
          "ticks": 30480,
          "time": 72.57135600000001,
          "velocity": 0.6141732283464567
        },
        {
          "duration": 0.5690470500000089,
          "durationTicks": 239,
          "midi": 38,
          "name": "D2",
          "ticks": 30720,
          "time": 73.142784,
          "velocity": 0.6141732283464567
        },
        {
          "duration": 0.2833330500000102,
          "durationTicks": 119,
          "midi": 45,
          "name": "A2",
          "ticks": 30960,
          "time": 73.714212,
          "velocity": 0.6141732283464567
        },
        {
          "duration": 0.2833330500000102,
          "durationTicks": 119,
          "midi": 44,
          "name": "G#2",
          "ticks": 31080,
          "time": 73.999926,
          "velocity": 0.6141732283464567
        },
        {
          "duration": 0.3547615500000063,
          "durationTicks": 149,
          "midi": 31,
          "name": "G1",
          "ticks": 31200,
          "time": 74.28564,
          "velocity": 0.84251968503937
        },
        {
          "duration": 0.16904744999999366,
          "durationTicks": 71,
          "midi": 31,
          "name": "G1",
          "ticks": 31395,
          "time": 74.74992525,
          "velocity": 0.84251968503937
        },
        {
          "duration": 0.3547615499999921,
          "durationTicks": 149,
          "midi": 31,
          "name": "G1",
          "ticks": 31680,
          "time": 75.42849600000001,
          "velocity": 0.84251968503937
        },
        {
          "duration": 0.20952359999999715,
          "durationTicks": 88,
          "midi": 31,
          "name": "G1",
          "ticks": 31875,
          "time": 75.89278125000001,
          "velocity": 0.84251968503937
        },
        {
          "duration": 0.39047580000000437,
          "durationTicks": 164,
          "midi": 36,
          "name": "C2",
          "ticks": 32160,
          "time": 76.571352,
          "velocity": 0.84251968503937
        },
        {
          "duration": 0.2238092999999992,
          "durationTicks": 94,
          "midi": 36,
          "name": "C2",
          "ticks": 32355,
          "time": 77.03563725000001,
          "velocity": 0.84251968503937
        },
        {
          "duration": 0.12857129999999017,
          "durationTicks": 54,
          "midi": 36,
          "name": "C2",
          "ticks": 32640,
          "time": 77.71420800000001,
          "velocity": 0.7795275590551181
        },
        {
          "duration": 0.32142824999999675,
          "durationTicks": 135,
          "midi": 36,
          "name": "C2",
          "ticks": 32760,
          "time": 77.99992200000001,
          "velocity": 0.8267716535433071
        },
        {
          "duration": 0.283333049999996,
          "durationTicks": 119,
          "midi": 38,
          "name": "D2",
          "ticks": 32880,
          "time": 78.28563600000001,
          "velocity": 0.8267716535433071
        },
        {
          "duration": 0.283333049999996,
          "durationTicks": 119,
          "midi": 40,
          "name": "E2",
          "ticks": 33000,
          "time": 78.57135000000001,
          "velocity": 0.7716535433070866
        }
      ],
      "endOfTrackTicks": 33119
    },
    {
      "channel": 2,
      "controlChanges": {
        "7": [
          {
            "number": 7,
            "ticks": 3360,
            "time": 7.999992000000001,
            "value": 0.6692913385826772
          },
          {
            "number": 7,
            "ticks": 19680,
            "time": 46.857096000000006,
            "value": 0.6929133858267716
          }
        ],
        "10": [
          {
            "number": 10,
            "ticks": 3360,
            "time": 7.999992000000001,
            "value": 0.7086614173228346
          },
          {
            "number": 10,
            "ticks": 19680,
            "time": 46.857096000000006,
            "value": 0.7086614173228346
          }
        ],
        "91": [
          {
            "number": 91,
            "ticks": 3360,
            "time": 7.999992000000001,
            "value": 0.6299212598425197
          },
          {
            "number": 91,
            "ticks": 19680,
            "time": 46.857096000000006,
            "value": 0.6299212598425197
          }
        ]
      },
      "pitchBends": [
        {
          "ticks": 3943,
          "time": 9.388085850000001,
          "value": -1
        },
        {
          "ticks": 4119,
          "time": 9.807133050000001,
          "value": -0.96875
        },
        {
          "ticks": 4130,
          "time": 9.8333235,
          "value": -0.9140625
        },
        {
          "ticks": 4142,
          "time": 9.861894900000001,
          "value": -0.859375
        },
        {
          "ticks": 4153,
          "time": 9.88808535,
          "value": -0.8359375
        },
        {
          "ticks": 4165,
          "time": 9.916656750000001,
          "value": -0.78125
        },
        {
          "ticks": 4177,
          "time": 9.94522815,
          "value": -0.71875
        },
        {
          "ticks": 4188,
          "time": 9.9714186,
          "value": -0.6640625
        },
        {
          "ticks": 4200,
          "time": 9.99999,
          "value": -0.609375
        },
        {
          "ticks": 4211,
          "time": 10.026180450000002,
          "value": -0.5859375
        },
        {
          "ticks": 4223,
          "time": 10.054751850000002,
          "value": -0.5
        },
        {
          "ticks": 4235,
          "time": 10.08332325,
          "value": -0.4453125
        },
        {
          "ticks": 4247,
          "time": 10.11189465,
          "value": -0.359375
        },
        {
          "ticks": 4258,
          "time": 10.138085100000001,
          "value": -0.25
        },
        {
          "ticks": 4270,
          "time": 10.166656500000002,
          "value": -0.1640625
        },
        {
          "ticks": 4282,
          "time": 10.195227899999999,
          "value": -0.0546875
        },
        {
          "ticks": 4293,
          "time": 10.22141835,
          "value": 0
        },
        {
          "ticks": 20263,
          "time": 48.24518985,
          "value": -1
        },
        {
          "ticks": 20439,
          "time": 48.664237050000004,
          "value": -0.96875
        },
        {
          "ticks": 20450,
          "time": 48.6904275,
          "value": -0.9140625
        },
        {
          "ticks": 20462,
          "time": 48.71899890000001,
          "value": -0.859375
        },
        {
          "ticks": 20473,
          "time": 48.74518935,
          "value": -0.8359375
        },
        {
          "ticks": 20485,
          "time": 48.77376075000001,
          "value": -0.78125
        },
        {
          "ticks": 20497,
          "time": 48.802332150000005,
          "value": -0.71875
        },
        {
          "ticks": 20508,
          "time": 48.82852260000001,
          "value": -0.6640625
        },
        {
          "ticks": 20520,
          "time": 48.857094000000004,
          "value": -0.609375
        },
        {
          "ticks": 20531,
          "time": 48.883284450000005,
          "value": -0.5859375
        },
        {
          "ticks": 20543,
          "time": 48.91185585,
          "value": -0.5
        },
        {
          "ticks": 20555,
          "time": 48.94042725,
          "value": -0.4453125
        },
        {
          "ticks": 20567,
          "time": 48.96899865000001,
          "value": -0.359375
        },
        {
          "ticks": 20578,
          "time": 48.9951891,
          "value": -0.25
        },
        {
          "ticks": 20590,
          "time": 49.02376050000001,
          "value": -0.1640625
        },
        {
          "ticks": 20602,
          "time": 49.052331900000006,
          "value": -0.0546875
        },
        {
          "ticks": 20613,
          "time": 49.07852235000001,
          "value": 0
        }
      ],
      "instrument": {
        "family": "reed",
        "number": 65,
        "name": "alto sax"
      },
      "name": "Sax",
      "notes": [
        {
          "duration": 0.8476182000000012,
          "durationTicks": 356,
          "midi": 69,
          "name": "A4",
          "ticks": 3958,
          "time": 9.423800100000001,
          "velocity": 1
        },
        {
          "duration": 0.14999985000000038,
          "durationTicks": 63,
          "midi": 69,
          "name": "A4",
          "ticks": 4320,
          "time": 10.285704,
          "velocity": 1
        },
        {
          "duration": 0.20714264999999976,
          "durationTicks": 87,
          "midi": 69,
          "name": "A4",
          "ticks": 4440,
          "time": 10.571418000000001,
          "velocity": 1
        },
        {
          "duration": 0.13809510000000103,
          "durationTicks": 58,
          "midi": 67,
          "name": "G4",
          "ticks": 4515,
          "time": 10.74998925,
          "velocity": 0.952755905511811
        },
        {
          "duration": 0.1761903000000018,
          "durationTicks": 74,
          "midi": 69,
          "name": "A4",
          "ticks": 4560,
          "time": 10.857132,
          "velocity": 0.905511811023622
        },
        {
          "duration": 0.18095220000000012,
          "durationTicks": 76,
          "midi": 69,
          "name": "A4",
          "ticks": 4680,
          "time": 11.142846,
          "velocity": 1
        },
        {
          "duration": 0.10952369999999867,
          "durationTicks": 46,
          "midi": 67,
          "name": "G4",
          "ticks": 4755,
          "time": 11.321417250000001,
          "velocity": 0.952755905511811
        },
        {
          "duration": 0.17619030000000002,
          "durationTicks": 74,
          "midi": 69,
          "name": "A4",
          "ticks": 4800,
          "time": 11.428560000000001,
          "velocity": 0.905511811023622
        },
        {
          "duration": 0.10476180000000035,
          "durationTicks": 44,
          "midi": 67,
          "name": "G4",
          "ticks": 4875,
          "time": 11.60713125,
          "velocity": 0.905511811023622
        },
        {
          "duration": 0.19285694999999947,
          "durationTicks": 81,
          "midi": 68,
          "name": "G#4",
          "ticks": 4920,
          "time": 11.714274000000001,
          "velocity": 0.8976377952755905
        },
        {
          "duration": 0.29523780000000066,
          "durationTicks": 124,
          "midi": 69,
          "name": "A4",
          "ticks": 4995,
          "time": 11.89284525,
          "velocity": 0.952755905511811
        },
        {
          "duration": 0.14523795000000028,
          "durationTicks": 61,
          "midi": 67,
          "name": "G4",
          "ticks": 5100,
          "time": 12.142845000000001,
          "velocity": 0.905511811023622
        },
        {
          "duration": 0.24761880000000147,
          "durationTicks": 104,
          "midi": 65,
          "name": "F4",
          "ticks": 5160,
          "time": 12.285702,
          "velocity": 0.952755905511811
        },
        {
          "duration": 0.14047605000000019,
          "durationTicks": 59,
          "midi": 62,
          "name": "D4",
          "ticks": 5280,
          "time": 12.571416000000001,
          "velocity": 0.984251968503937
        },
        {
          "duration": 0.17857124999999918,
          "durationTicks": 75,
          "midi": 62,
          "name": "D4",
          "ticks": 5402,
          "time": 12.861891900000002,
          "velocity": 0.937007874015748
        },
        {
          "duration": 0.1357141500000001,
          "durationTicks": 57,
          "midi": 60,
          "name": "C4",
          "ticks": 5475,
          "time": 13.03570125,
          "velocity": 0.7716535433070866
        },
        {
          "duration": 0.18809505000000115,
          "durationTicks": 79,
          "midi": 62,
          "name": "D4",
          "ticks": 5520,
          "time": 13.142844,
          "velocity": 0.937007874015748
        },
        {
          "duration": 0.17857125000000096,
          "durationTicks": 75,
          "midi": 62,
          "name": "D4",
          "ticks": 5640,
          "time": 13.428558,
          "velocity": 0.937007874015748
        },
        {
          "duration": 0.11428559999999877,
          "durationTicks": 48,
          "midi": 60,
          "name": "C4",
          "ticks": 5715,
          "time": 13.607129250000002,
          "velocity": 0.8346456692913385
        },
        {
          "duration": 0.17619030000000002,
          "durationTicks": 74,
          "midi": 62,
          "name": "D4",
          "ticks": 5760,
          "time": 13.714272000000001,
          "velocity": 0.905511811023622
        },
        {
          "duration": 0.1666665000000016,
          "durationTicks": 70,
          "midi": 60,
          "name": "C4",
          "ticks": 5835,
          "time": 13.89284325,
          "velocity": 0.9133858267716536
        },
        {
          "duration": 0.17619030000000002,
          "durationTicks": 74,
          "midi": 61,
          "name": "C#4",
          "ticks": 5880,
          "time": 13.999986000000002,
          "velocity": 0.952755905511811
        },
        {
          "duration": 0.2833330500000013,
          "durationTicks": 119,
          "midi": 62,
          "name": "D4",
          "ticks": 5955,
          "time": 14.17855725,
          "velocity": 0.9606299212598425
        },
        {
          "duration": 0.10476180000000035,
          "durationTicks": 44,
          "midi": 65,
          "name": "F4",
          "ticks": 6075,
          "time": 14.464271250000001,
          "velocity": 0.9763779527559056
        },
        {
          "duration": 0.21190454999999986,
          "durationTicks": 89,
          "midi": 62,
          "name": "D4",
          "ticks": 6120,
          "time": 14.571414,
          "velocity": 0.905511811023622
        },
        {
          "duration": 0.033333300000000676,
          "durationTicks": 14,
          "midi": 64,
          "name": "E4",
          "ticks": 6230,
          "time": 14.8333185,
          "velocity": 0.9291338582677166
        },
        {
          "duration": 0.17619030000000002,
          "durationTicks": 74,
          "midi": 65,
          "name": "F4",
          "ticks": 6240,
          "time": 14.857128000000001,
          "velocity": 0.9291338582677166
        },
        {
          "duration": 0.2285711999999993,
          "durationTicks": 96,
          "midi": 65,
          "name": "F4",
          "ticks": 6360,
          "time": 15.142842000000002,
          "velocity": 0.8346456692913385
        },
        {
          "duration": 0.14047605000000019,
          "durationTicks": 59,
          "midi": 67,
          "name": "G4",
          "ticks": 6435,
          "time": 15.32141325,
          "velocity": 0.8188976377952756
        },
        {
          "duration": 0.1761903000000018,
          "durationTicks": 74,
          "midi": 69,
          "name": "A4",
          "ticks": 6480,
          "time": 15.428556,
          "velocity": 0.905511811023622
        },
        {
          "duration": 0.13095225000000177,
          "durationTicks": 55,
          "midi": 69,
          "name": "A4",
          "ticks": 6600,
          "time": 15.71427,
          "velocity": 0.889763779527559
        },
        {
          "duration": 0.10476180000000035,
          "durationTicks": 44,
          "midi": 67,
          "name": "G4",
          "ticks": 6675,
          "time": 15.892841250000002,
          "velocity": 0.8188976377952756
        },
        {
          "duration": 0.033333300000000676,
          "durationTicks": 14,
          "midi": 68,
          "name": "G#4",
          "ticks": 6705,
          "time": 15.964269750000001,
          "velocity": 0.9763779527559056
        },
        {
          "duration": 0.21190454999999986,
          "durationTicks": 89,
          "midi": 69,
          "name": "A4",
          "ticks": 6720,
          "time": 15.999984000000001,
          "velocity": 0.905511811023622
        },
        {
          "duration": 0.1357141499999983,
          "durationTicks": 57,
          "midi": 67,
          "name": "G4",
          "ticks": 6795,
          "time": 16.178555250000002,
          "velocity": 0.905511811023622
        },
        {
          "duration": 0.11428560000000232,
          "durationTicks": 48,
          "midi": 68,
          "name": "G#4",
          "ticks": 6840,
          "time": 16.285698,
          "velocity": 0.8661417322834646
        },
        {
          "duration": 0.31904730000000114,
          "durationTicks": 134,
          "midi": 69,
          "name": "A4",
          "ticks": 6910,
          "time": 16.4523645,
          "velocity": 0.952755905511811
        },
        {
          "duration": 0.09523800000000193,
          "durationTicks": 40,
          "midi": 67,
          "name": "G4",
          "ticks": 7035,
          "time": 16.74998325,
          "velocity": 1
        },
        {
          "duration": 0.1761903000000018,
          "durationTicks": 74,
          "midi": 65,
          "name": "F4",
          "ticks": 7080,
          "time": 16.857126,
          "velocity": 0.9291338582677166
        },
        {
          "duration": 0.0333332999999989,
          "durationTicks": 14,
          "midi": 58,
          "name": "A#3",
          "ticks": 7185,
          "time": 17.10712575,
          "velocity": 0.84251968503937
        },
        {
          "duration": 0.1761903000000018,
          "durationTicks": 74,
          "midi": 60,
          "name": "C4",
          "ticks": 7200,
          "time": 17.14284,
          "velocity": 0.8661417322834646
        },
        {
          "duration": 0.10476180000000213,
          "durationTicks": 44,
          "midi": 62,
          "name": "D4",
          "ticks": 7275,
          "time": 17.32141125,
          "velocity": 0.8188976377952756
        },
        {
          "duration": 0.2238092999999992,
          "durationTicks": 94,
          "midi": 65,
          "name": "F4",
          "ticks": 7320,
          "time": 17.428554000000002,
          "velocity": 0.8582677165354331
        },
        {
          "duration": 0.10476179999999857,
          "durationTicks": 44,
          "midi": 67,
          "name": "G4",
          "ticks": 7395,
          "time": 17.607125250000003,
          "velocity": 0.905511811023622
        },
        {
          "duration": 0.1761903000000018,
          "durationTicks": 74,
          "midi": 68,
          "name": "G#4",
          "ticks": 7440,
          "time": 17.714268,
          "velocity": 0.8188976377952756
        },
        {
          "duration": 0.24761880000000147,
          "durationTicks": 104,
          "midi": 67,
          "name": "G4",
          "ticks": 7515,
          "time": 17.89283925,
          "velocity": 0.9212598425196851
        },
        {
          "duration": 0.10476180000000213,
          "durationTicks": 44,
          "midi": 65,
          "name": "F4",
          "ticks": 7635,
          "time": 18.17855325,
          "velocity": 0.9212598425196851
        },
        {
          "duration": 0.14047604999999663,
          "durationTicks": 59,
          "midi": 62,
          "name": "D4",
          "ticks": 8115,
          "time": 19.321409250000002,
          "velocity": 0.7874015748031497
        },
        {
          "duration": 0.1761902999999947,
          "durationTicks": 74,
          "midi": 60,
          "name": "C4",
          "ticks": 8160,
          "time": 19.428552000000003,
          "velocity": 0.8661417322834646
        },
        {
          "duration": 0.10476179999999857,
          "durationTicks": 44,
          "midi": 62,
          "name": "D4",
          "ticks": 8235,
          "time": 19.60712325,
          "velocity": 0.8188976377952756
        },
        {
          "duration": 0.2238092999999992,
          "durationTicks": 94,
          "midi": 65,
          "name": "F4",
          "ticks": 8280,
          "time": 19.714266000000002,
          "velocity": 0.8582677165354331
        },
        {
          "duration": 0.10476179999999502,
          "durationTicks": 44,
          "midi": 67,
          "name": "G4",
          "ticks": 8355,
          "time": 19.892837250000003,
          "velocity": 0.905511811023622
        },
        {
          "duration": 0.17619029999999825,
          "durationTicks": 74,
          "midi": 68,
          "name": "G#4",
          "ticks": 8400,
          "time": 19.99998,
          "velocity": 0.8188976377952756
        },
        {
          "duration": 0.24761879999999792,
          "durationTicks": 104,
          "midi": 67,
          "name": "G4",
          "ticks": 8475,
          "time": 20.17855125,
          "velocity": 0.9212598425196851
        },
        {
          "duration": 0.10476179999999857,
          "durationTicks": 44,
          "midi": 65,
          "name": "F4",
          "ticks": 8595,
          "time": 20.46426525,
          "velocity": 0.9212598425196851
        },
        {
          "duration": 0.8476181999999994,
          "durationTicks": 356,
          "midi": 69,
          "name": "A4",
          "ticks": 20278,
          "time": 48.2809041,
          "velocity": 1
        },
        {
          "duration": 0.14999985000000038,
          "durationTicks": 63,
          "midi": 69,
          "name": "A4",
          "ticks": 20640,
          "time": 49.142808,
          "velocity": 1
        },
        {
          "duration": 0.20714265000000154,
          "durationTicks": 87,
          "midi": 69,
          "name": "A4",
          "ticks": 20760,
          "time": 49.428522,
          "velocity": 1
        },
        {
          "duration": 0.13809509999999392,
          "durationTicks": 58,
          "midi": 67,
          "name": "G4",
          "ticks": 20835,
          "time": 49.607093250000005,
          "velocity": 0.952755905511811
        },
        {
          "duration": 0.1761903000000018,
          "durationTicks": 74,
          "midi": 69,
          "name": "A4",
          "ticks": 20880,
          "time": 49.71423600000001,
          "velocity": 0.905511811023622
        },
        {
          "duration": 0.180952199999993,
          "durationTicks": 76,
          "midi": 69,
          "name": "A4",
          "ticks": 21000,
          "time": 49.999950000000005,
          "velocity": 1
        },
        {
          "duration": 0.10952369999999689,
          "durationTicks": 46,
          "midi": 67,
          "name": "G4",
          "ticks": 21075,
          "time": 50.17852125,
          "velocity": 0.952755905511811
        },
        {
          "duration": 0.1761903000000018,
          "durationTicks": 74,
          "midi": 69,
          "name": "A4",
          "ticks": 21120,
          "time": 50.285664000000004,
          "velocity": 0.905511811023622
        },
        {
          "duration": 0.10476180000000568,
          "durationTicks": 44,
          "midi": 67,
          "name": "G4",
          "ticks": 21195,
          "time": 50.46423525,
          "velocity": 0.905511811023622
        },
        {
          "duration": 0.19285695000000658,
          "durationTicks": 81,
          "midi": 68,
          "name": "G#4",
          "ticks": 21240,
          "time": 50.571378,
          "velocity": 0.8976377952755905
        },
        {
          "duration": 0.29523779999999533,
          "durationTicks": 124,
          "midi": 69,
          "name": "A4",
          "ticks": 21315,
          "time": 50.74994925000001,
          "velocity": 0.952755905511811
        },
        {
          "duration": 0.14523795000000206,
          "durationTicks": 61,
          "midi": 67,
          "name": "G4",
          "ticks": 21420,
          "time": 50.999949,
          "velocity": 0.905511811023622
        },
        {
          "duration": 0.24761879999999792,
          "durationTicks": 104,
          "midi": 65,
          "name": "F4",
          "ticks": 21480,
          "time": 51.14280600000001,
          "velocity": 0.952755905511811
        },
        {
          "duration": 0.14047605000000374,
          "durationTicks": 59,
          "midi": 62,
          "name": "D4",
          "ticks": 21600,
          "time": 51.428520000000006,
          "velocity": 0.984251968503937
        },
        {
          "duration": 0.1785712499999974,
          "durationTicks": 75,
          "midi": 62,
          "name": "D4",
          "ticks": 21722,
          "time": 51.71899590000001,
          "velocity": 0.937007874015748
        },
        {
          "duration": 0.1357141499999983,
          "durationTicks": 57,
          "midi": 60,
          "name": "C4",
          "ticks": 21795,
          "time": 51.89280525,
          "velocity": 0.7716535433070866
        },
        {
          "duration": 0.18809505000000115,
          "durationTicks": 79,
          "midi": 62,
          "name": "D4",
          "ticks": 21840,
          "time": 51.999948,
          "velocity": 0.937007874015748
        },
        {
          "duration": 0.1785712500000045,
          "durationTicks": 75,
          "midi": 62,
          "name": "D4",
          "ticks": 21960,
          "time": 52.285662,
          "velocity": 0.937007874015748
        },
        {
          "duration": 0.11428560000000232,
          "durationTicks": 48,
          "midi": 60,
          "name": "C4",
          "ticks": 22035,
          "time": 52.46423325000001,
          "velocity": 0.8346456692913385
        },
        {
          "duration": 0.1761903000000089,
          "durationTicks": 74,
          "midi": 62,
          "name": "D4",
          "ticks": 22080,
          "time": 52.571376,
          "velocity": 0.905511811023622
        },
        {
          "duration": 0.16666650000000516,
          "durationTicks": 70,
          "midi": 60,
          "name": "C4",
          "ticks": 22155,
          "time": 52.749947250000005,
          "velocity": 0.9133858267716536
        },
        {
          "duration": 0.1761903000000018,
          "durationTicks": 74,
          "midi": 61,
          "name": "C#4",
          "ticks": 22200,
          "time": 52.85709000000001,
          "velocity": 0.952755905511811
        },
        {
          "duration": 0.2833330500000031,
          "durationTicks": 119,
          "midi": 62,
          "name": "D4",
          "ticks": 22275,
          "time": 53.035661250000004,
          "velocity": 0.9606299212598425
        },
        {
          "duration": 0.10476180000000568,
          "durationTicks": 44,
          "midi": 65,
          "name": "F4",
          "ticks": 22395,
          "time": 53.32137525,
          "velocity": 0.9763779527559056
        },
        {
          "duration": 0.21190454999999986,
          "durationTicks": 89,
          "midi": 62,
          "name": "D4",
          "ticks": 22440,
          "time": 53.428518000000004,
          "velocity": 0.905511811023622
        },
        {
          "duration": 0.03333330000000245,
          "durationTicks": 14,
          "midi": 64,
          "name": "E4",
          "ticks": 22550,
          "time": 53.690422500000004,
          "velocity": 0.9291338582677166
        },
        {
          "duration": 0.1761903000000018,
          "durationTicks": 74,
          "midi": 65,
          "name": "F4",
          "ticks": 22560,
          "time": 53.714232,
          "velocity": 0.9291338582677166
        },
        {
          "duration": 0.22857120000000464,
          "durationTicks": 96,
          "midi": 65,
          "name": "F4",
          "ticks": 22680,
          "time": 53.999946,
          "velocity": 0.8346456692913385
        },
        {
          "duration": 0.14047605000000374,
          "durationTicks": 59,
          "midi": 67,
          "name": "G4",
          "ticks": 22755,
          "time": 54.178517250000006,
          "velocity": 0.8188976377952756
        },
        {
          "duration": 0.1761903000000018,
          "durationTicks": 74,
          "midi": 69,
          "name": "A4",
          "ticks": 22800,
          "time": 54.28566000000001,
          "velocity": 0.905511811023622
        },
        {
          "duration": 0.13095225,
          "durationTicks": 55,
          "midi": 69,
          "name": "A4",
          "ticks": 22920,
          "time": 54.571374000000006,
          "velocity": 0.889763779527559
        },
        {
          "duration": 0.10476180000000568,
          "durationTicks": 44,
          "midi": 67,
          "name": "G4",
          "ticks": 22995,
          "time": 54.74994525,
          "velocity": 0.8188976377952756
        },
        {
          "duration": 0.03333330000000245,
          "durationTicks": 14,
          "midi": 68,
          "name": "G#4",
          "ticks": 23025,
          "time": 54.82137375000001,
          "velocity": 0.9763779527559056
        },
        {
          "duration": 0.21190454999999986,
          "durationTicks": 89,
          "midi": 69,
          "name": "A4",
          "ticks": 23040,
          "time": 54.857088000000005,
          "velocity": 0.905511811023622
        },
        {
          "duration": 0.1357141499999983,
          "durationTicks": 57,
          "midi": 67,
          "name": "G4",
          "ticks": 23115,
          "time": 55.03565925,
          "velocity": 0.905511811023622
        },
        {
          "duration": 0.11428560000000232,
          "durationTicks": 48,
          "midi": 68,
          "name": "G#4",
          "ticks": 23160,
          "time": 55.142802,
          "velocity": 0.8661417322834646
        },
        {
          "duration": 0.31904729999999404,
          "durationTicks": 134,
          "midi": 69,
          "name": "A4",
          "ticks": 23230,
          "time": 55.30946850000001,
          "velocity": 0.952755905511811
        },
        {
          "duration": 0.09523800000000193,
          "durationTicks": 40,
          "midi": 67,
          "name": "G4",
          "ticks": 23355,
          "time": 55.607087250000006,
          "velocity": 1
        },
        {
          "duration": 0.1761903000000018,
          "durationTicks": 74,
          "midi": 65,
          "name": "F4",
          "ticks": 23400,
          "time": 55.71423000000001,
          "velocity": 0.9291338582677166
        },
        {
          "duration": 0.03333330000000245,
          "durationTicks": 14,
          "midi": 58,
          "name": "A#3",
          "ticks": 23505,
          "time": 55.96422975,
          "velocity": 0.84251968503937
        },
        {
          "duration": 0.1761903000000018,
          "durationTicks": 74,
          "midi": 60,
          "name": "C4",
          "ticks": 23520,
          "time": 55.999944000000006,
          "velocity": 0.8661417322834646
        },
        {
          "duration": 0.10476180000000568,
          "durationTicks": 44,
          "midi": 62,
          "name": "D4",
          "ticks": 23595,
          "time": 56.178515250000004,
          "velocity": 0.8188976377952756
        },
        {
          "duration": 0.2238092999999992,
          "durationTicks": 94,
          "midi": 65,
          "name": "F4",
          "ticks": 23640,
          "time": 56.285658000000005,
          "velocity": 0.8582677165354331
        },
        {
          "duration": 0.10476180000000568,
          "durationTicks": 44,
          "midi": 67,
          "name": "G4",
          "ticks": 23715,
          "time": 56.46422925,
          "velocity": 0.905511811023622
        },
        {
          "duration": 0.1761903000000018,
          "durationTicks": 74,
          "midi": 68,
          "name": "G#4",
          "ticks": 23760,
          "time": 56.571372000000004,
          "velocity": 0.8188976377952756
        },
        {
          "duration": 0.24761880000000502,
          "durationTicks": 104,
          "midi": 67,
          "name": "G4",
          "ticks": 23835,
          "time": 56.74994325,
          "velocity": 0.9212598425196851
        },
        {
          "duration": 0.10476179999999857,
          "durationTicks": 44,
          "midi": 65,
          "name": "F4",
          "ticks": 23955,
          "time": 57.03565725000001,
          "velocity": 0.9212598425196851
        },
        {
          "duration": 0.14047605000000374,
          "durationTicks": 59,
          "midi": 62,
          "name": "D4",
          "ticks": 24435,
          "time": 58.17851325,
          "velocity": 0.7874015748031497
        },
        {
          "duration": 0.1761903000000018,
          "durationTicks": 74,
          "midi": 60,
          "name": "C4",
          "ticks": 24480,
          "time": 58.285656,
          "velocity": 0.8661417322834646
        },
        {
          "duration": 0.10476179999999857,
          "durationTicks": 44,
          "midi": 62,
          "name": "D4",
          "ticks": 24555,
          "time": 58.46422725000001,
          "velocity": 0.8188976377952756
        },
        {
          "duration": 0.2238092999999992,
          "durationTicks": 94,
          "midi": 65,
          "name": "F4",
          "ticks": 24600,
          "time": 58.57137,
          "velocity": 0.8582677165354331
        },
        {
          "duration": 0.10476179999999857,
          "durationTicks": 44,
          "midi": 67,
          "name": "G4",
          "ticks": 24675,
          "time": 58.749941250000006,
          "velocity": 0.905511811023622
        },
        {
          "duration": 0.1761903000000018,
          "durationTicks": 74,
          "midi": 68,
          "name": "G#4",
          "ticks": 24720,
          "time": 58.85708400000001,
          "velocity": 0.8188976377952756
        },
        {
          "duration": 0.24761880000000502,
          "durationTicks": 104,
          "midi": 67,
          "name": "G4",
          "ticks": 24795,
          "time": 59.035655250000005,
          "velocity": 0.9212598425196851
        },
        {
          "duration": 0.10476180000000568,
          "durationTicks": 44,
          "midi": 65,
          "name": "F4",
          "ticks": 24915,
          "time": 59.321369250000004,
          "velocity": 0.9212598425196851
        }
      ],
      "endOfTrackTicks": 24959
    },
    {
      "channel": 4,
      "controlChanges": {
        "7": [
          {
            "number": 7,
            "ticks": 0,
            "time": 0,
            "value": 0.5748031496062992
          },
          {
            "number": 7,
            "ticks": 0,
            "time": 0,
            "value": 0.5748031496062992
          }
        ],
        "10": [
          {
            "number": 10,
            "ticks": 0,
            "time": 0,
            "value": 0.23622047244094488
          }
        ],
        "91": [
          {
            "number": 91,
            "ticks": 0,
            "time": 0,
            "value": 0.6299212598425197
          }
        ]
      },
      "pitchBends": [],
      "instrument": {
        "family": "piano",
        "number": 0,
        "name": "acoustic grand piano"
      },
      "name": "BG Piano",
      "notes": [
        {
          "duration": 0.35476154999999987,
          "durationTicks": 149,
          "midi": 53,
          "name": "F3",
          "ticks": 480,
          "time": 1.142856,
          "velocity": 0.8188976377952756
        },
        {
          "duration": 0.06904754999999985,
          "durationTicks": 29,
          "midi": 57,
          "name": "A3",
          "ticks": 600,
          "time": 1.4285700000000001,
          "velocity": 0.8188976377952756
        },
        {
          "duration": 0.09047609999999984,
          "durationTicks": 38,
          "midi": 60,
          "name": "C4",
          "ticks": 600,
          "time": 1.4285700000000001,
          "velocity": 0.5984251968503937
        },
        {
          "duration": 0.09047609999999984,
          "durationTicks": 38,
          "midi": 65,
          "name": "F4",
          "ticks": 600,
          "time": 1.4285700000000001,
          "velocity": 0.8188976377952756
        },
        {
          "duration": 0.22142835000000005,
          "durationTicks": 93,
          "midi": 57,
          "name": "A3",
          "ticks": 720,
          "time": 1.7142840000000001,
          "velocity": 0.7716535433070866
        },
        {
          "duration": 0.24285689999999982,
          "durationTicks": 102,
          "midi": 60,
          "name": "C4",
          "ticks": 720,
          "time": 1.7142840000000001,
          "velocity": 0.5511811023622047
        },
        {
          "duration": 0.24047595,
          "durationTicks": 101,
          "midi": 65,
          "name": "F4",
          "ticks": 720,
          "time": 1.7142840000000001,
          "velocity": 0.7716535433070866
        },
        {
          "duration": 0.5428566000000004,
          "durationTicks": 228,
          "midi": 48,
          "name": "C3",
          "ticks": 720,
          "time": 1.7142840000000001,
          "velocity": 0.7716535433070866
        },
        {
          "duration": 0.3904758000000004,
          "durationTicks": 164,
          "midi": 53,
          "name": "F3",
          "ticks": 960,
          "time": 2.285712,
          "velocity": 0.7716535433070866
        },
        {
          "duration": 0.14047605000000019,
          "durationTicks": 59,
          "midi": 60,
          "name": "C4",
          "ticks": 960,
          "time": 2.285712,
          "velocity": 0.6141732283464567
        },
        {
          "duration": 0.14047605000000019,
          "durationTicks": 59,
          "midi": 57,
          "name": "A3",
          "ticks": 960,
          "time": 2.285712,
          "velocity": 0.8582677165354331
        },
        {
          "duration": 0.14047605000000019,
          "durationTicks": 59,
          "midi": 65,
          "name": "F4",
          "ticks": 960,
          "time": 2.285712,
          "velocity": 0.8188976377952756
        },
        {
          "duration": 0.04047615000000038,
          "durationTicks": 17,
          "midi": 57,
          "name": "A3",
          "ticks": 1035,
          "time": 2.4642832500000003,
          "velocity": 0.7086614173228346
        },
        {
          "duration": 0.05714279999999983,
          "durationTicks": 24,
          "midi": 60,
          "name": "C4",
          "ticks": 1035,
          "time": 2.4642832500000003,
          "velocity": 0.6929133858267716
        },
        {
          "duration": 0.05714279999999983,
          "durationTicks": 24,
          "midi": 65,
          "name": "F4",
          "ticks": 1035,
          "time": 2.4642832500000003,
          "velocity": 0.7244094488188977
        },
        {
          "duration": 0.12380939999999985,
          "durationTicks": 52,
          "midi": 65,
          "name": "F4",
          "ticks": 1155,
          "time": 2.7499972500000003,
          "velocity": 0.905511811023622
        },
        {
          "duration": 0.1047617999999999,
          "durationTicks": 44,
          "midi": 57,
          "name": "A3",
          "ticks": 1155,
          "time": 2.7499972500000003,
          "velocity": 0.8188976377952756
        },
        {
          "duration": 0.1047617999999999,
          "durationTicks": 44,
          "midi": 60,
          "name": "C4",
          "ticks": 1155,
          "time": 2.7499972500000003,
          "velocity": 0.5984251968503937
        },
        {
          "duration": 0.2380950000000004,
          "durationTicks": 100,
          "midi": 48,
          "name": "C3",
          "ticks": 1200,
          "time": 2.8571400000000002,
          "velocity": 0.8188976377952756
        },
        {
          "duration": 0.07142850000000012,
          "durationTicks": 30,
          "midi": 57,
          "name": "A3",
          "ticks": 1275,
          "time": 3.0357112500000003,
          "velocity": 0.8582677165354331
        },
        {
          "duration": 0.07380944999999972,
          "durationTicks": 31,
          "midi": 60,
          "name": "C4",
          "ticks": 1275,
          "time": 3.0357112500000003,
          "velocity": 0.5984251968503937
        },
        {
          "duration": 0.07380944999999972,
          "durationTicks": 31,
          "midi": 65,
          "name": "F4",
          "ticks": 1275,
          "time": 3.0357112500000003,
          "velocity": 0.905511811023622
        },
        {
          "duration": 0.24761880000000014,
          "durationTicks": 104,
          "midi": 47,
          "name": "B2",
          "ticks": 1320,
          "time": 3.1428540000000003,
          "velocity": 0.7716535433070866
        },
        {
          "duration": 0.3833329500000002,
          "durationTicks": 161,
          "midi": 46,
          "name": "A#2",
          "ticks": 1440,
          "time": 3.4285680000000003,
          "velocity": 0.8188976377952756
        },
        {
          "duration": 0.14047605000000019,
          "durationTicks": 59,
          "midi": 58,
          "name": "A#3",
          "ticks": 1560,
          "time": 3.7142820000000003,
          "velocity": 0.6771653543307087
        },
        {
          "duration": 0.14047605000000019,
          "durationTicks": 59,
          "midi": 62,
          "name": "D4",
          "ticks": 1560,
          "time": 3.7142820000000003,
          "velocity": 0.7716535433070866
        },
        {
          "duration": 0.14047605000000019,
          "durationTicks": 59,
          "midi": 65,
          "name": "F4",
          "ticks": 1560,
          "time": 3.7142820000000003,
          "velocity": 0.7716535433070866
        },
        {
          "duration": 0.3404758499999998,
          "durationTicks": 143,
          "midi": 41,
          "name": "F2",
          "ticks": 1680,
          "time": 3.9999960000000003,
          "velocity": 0.905511811023622
        },
        {
          "duration": 0.22857120000000108,
          "durationTicks": 96,
          "midi": 58,
          "name": "A#3",
          "ticks": 1800,
          "time": 4.28571,
          "velocity": 0.6299212598425197
        },
        {
          "duration": 0.2571426000000008,
          "durationTicks": 108,
          "midi": 62,
          "name": "D4",
          "ticks": 1800,
          "time": 4.28571,
          "velocity": 0.7716535433070866
        },
        {
          "duration": 0.2238093000000001,
          "durationTicks": 94,
          "midi": 65,
          "name": "F4",
          "ticks": 1800,
          "time": 4.28571,
          "velocity": 0.7244094488188977
        },
        {
          "duration": 0.3309520500000005,
          "durationTicks": 139,
          "midi": 46,
          "name": "A#2",
          "ticks": 1920,
          "time": 4.571424,
          "velocity": 0.7716535433070866
        },
        {
          "duration": 0.06190469999999948,
          "durationTicks": 26,
          "midi": 58,
          "name": "A#3",
          "ticks": 2040,
          "time": 4.857138000000001,
          "velocity": 0.5984251968503937
        },
        {
          "duration": 0.08809515000000001,
          "durationTicks": 37,
          "midi": 62,
          "name": "D4",
          "ticks": 2040,
          "time": 4.857138000000001,
          "velocity": 0.6771653543307087
        },
        {
          "duration": 0.08095229999999987,
          "durationTicks": 34,
          "midi": 65,
          "name": "F4",
          "ticks": 2040,
          "time": 4.857138000000001,
          "velocity": 0.6771653543307087
        },
        {
          "duration": 0.09999990000000114,
          "durationTicks": 42,
          "midi": 58,
          "name": "A#3",
          "ticks": 2115,
          "time": 5.03570925,
          "velocity": 0.5039370078740157
        },
        {
          "duration": 0.09999990000000114,
          "durationTicks": 42,
          "midi": 53,
          "name": "F3",
          "ticks": 2115,
          "time": 5.03570925,
          "velocity": 0.6299212598425197
        },
        {
          "duration": 0.1119046500000005,
          "durationTicks": 47,
          "midi": 62,
          "name": "D4",
          "ticks": 2115,
          "time": 5.03570925,
          "velocity": 0.7244094488188977
        },
        {
          "duration": 0.18809505000000026,
          "durationTicks": 79,
          "midi": 41,
          "name": "F2",
          "ticks": 2160,
          "time": 5.142852,
          "velocity": 0.905511811023622
        },
        {
          "duration": 0.07380944999999972,
          "durationTicks": 31,
          "midi": 53,
          "name": "F3",
          "ticks": 2235,
          "time": 5.3214232500000005,
          "velocity": 0.7401574803149606
        },
        {
          "duration": 0.07142849999999967,
          "durationTicks": 30,
          "midi": 58,
          "name": "A#3",
          "ticks": 2235,
          "time": 5.3214232500000005,
          "velocity": 0.7086614173228346
        },
        {
          "duration": 0.1023808500000003,
          "durationTicks": 43,
          "midi": 62,
          "name": "D4",
          "ticks": 2235,
          "time": 5.3214232500000005,
          "velocity": 0.8346456692913385
        },
        {
          "duration": 0.1023808500000003,
          "durationTicks": 43,
          "midi": 46,
          "name": "A#2",
          "ticks": 2280,
          "time": 5.428566,
          "velocity": 0.6299212598425197
        },
        {
          "duration": 0.3547615500000001,
          "durationTicks": 149,
          "midi": 53,
          "name": "F3",
          "ticks": 2400,
          "time": 5.7142800000000005,
          "velocity": 0.8188976377952756
        },
        {
          "duration": 0.06904754999999962,
          "durationTicks": 29,
          "midi": 57,
          "name": "A3",
          "ticks": 2520,
          "time": 5.999994000000001,
          "velocity": 0.8188976377952756
        },
        {
          "duration": 0.09047609999999917,
          "durationTicks": 38,
          "midi": 60,
          "name": "C4",
          "ticks": 2520,
          "time": 5.999994000000001,
          "velocity": 0.5984251968503937
        },
        {
          "duration": 0.09047609999999917,
          "durationTicks": 38,
          "midi": 65,
          "name": "F4",
          "ticks": 2520,
          "time": 5.999994000000001,
          "velocity": 0.8188976377952756
        },
        {
          "duration": 0.22142835000000005,
          "durationTicks": 93,
          "midi": 57,
          "name": "A3",
          "ticks": 2640,
          "time": 6.2857080000000005,
          "velocity": 0.7716535433070866
        },
        {
          "duration": 0.2428569000000005,
          "durationTicks": 102,
          "midi": 60,
          "name": "C4",
          "ticks": 2640,
          "time": 6.2857080000000005,
          "velocity": 0.5511811023622047
        },
        {
          "duration": 0.24047594999999955,
          "durationTicks": 101,
          "midi": 65,
          "name": "F4",
          "ticks": 2640,
          "time": 6.2857080000000005,
          "velocity": 0.7716535433070866
        },
        {
          "duration": 0.5428565999999995,
          "durationTicks": 228,
          "midi": 48,
          "name": "C3",
          "ticks": 2640,
          "time": 6.2857080000000005,
          "velocity": 0.7716535433070866
        },
        {
          "duration": 0.39047579999999993,
          "durationTicks": 164,
          "midi": 53,
          "name": "F3",
          "ticks": 2880,
          "time": 6.857136000000001,
          "velocity": 0.7716535433070866
        },
        {
          "duration": 0.14047605000000019,
          "durationTicks": 59,
          "midi": 60,
          "name": "C4",
          "ticks": 2880,
          "time": 6.857136000000001,
          "velocity": 0.6141732283464567
        },
        {
          "duration": 0.14047605000000019,
          "durationTicks": 59,
          "midi": 57,
          "name": "A3",
          "ticks": 2880,
          "time": 6.857136000000001,
          "velocity": 0.8582677165354331
        },
        {
          "duration": 0.14047605000000019,
          "durationTicks": 59,
          "midi": 65,
          "name": "F4",
          "ticks": 2880,
          "time": 6.857136000000001,
          "velocity": 0.8188976377952756
        },
        {
          "duration": 0.04047614999999993,
          "durationTicks": 17,
          "midi": 57,
          "name": "A3",
          "ticks": 2955,
          "time": 7.035707250000001,
          "velocity": 0.7086614173228346
        },
        {
          "duration": 0.05714279999999938,
          "durationTicks": 24,
          "midi": 60,
          "name": "C4",
          "ticks": 2955,
          "time": 7.035707250000001,
          "velocity": 0.6929133858267716
        },
        {
          "duration": 0.05714279999999938,
          "durationTicks": 24,
          "midi": 65,
          "name": "F4",
          "ticks": 2955,
          "time": 7.035707250000001,
          "velocity": 0.7244094488188977
        },
        {
          "duration": 0.12380940000000074,
          "durationTicks": 52,
          "midi": 65,
          "name": "F4",
          "ticks": 3075,
          "time": 7.32142125,
          "velocity": 0.905511811023622
        },
        {
          "duration": 0.10476180000000035,
          "durationTicks": 44,
          "midi": 57,
          "name": "A3",
          "ticks": 3075,
          "time": 7.32142125,
          "velocity": 0.8188976377952756
        },
        {
          "duration": 0.10476180000000035,
          "durationTicks": 44,
          "midi": 60,
          "name": "C4",
          "ticks": 3075,
          "time": 7.32142125,
          "velocity": 0.5984251968503937
        },
        {
          "duration": 0.2380949999999995,
          "durationTicks": 100,
          "midi": 48,
          "name": "C3",
          "ticks": 3120,
          "time": 7.428564000000001,
          "velocity": 0.8188976377952756
        },
        {
          "duration": 0.07142849999999967,
          "durationTicks": 30,
          "midi": 57,
          "name": "A3",
          "ticks": 3195,
          "time": 7.607135250000001,
          "velocity": 0.8582677165354331
        },
        {
          "duration": 0.07380944999999972,
          "durationTicks": 31,
          "midi": 60,
          "name": "C4",
          "ticks": 3195,
          "time": 7.607135250000001,
          "velocity": 0.5984251968503937
        },
        {
          "duration": 0.07380944999999972,
          "durationTicks": 31,
          "midi": 65,
          "name": "F4",
          "ticks": 3195,
          "time": 7.607135250000001,
          "velocity": 0.905511811023622
        },
        {
          "duration": 0.24761880000000058,
          "durationTicks": 104,
          "midi": 47,
          "name": "B2",
          "ticks": 3240,
          "time": 7.714278,
          "velocity": 0.7716535433070866
        },
        {
          "duration": 0.6119041499999991,
          "durationTicks": 257,
          "midi": 46,
          "name": "A#2",
          "ticks": 3360,
          "time": 7.999992000000001,
          "velocity": 0.7244094488188977
        },
        {
          "duration": 0.12380939999999896,
          "durationTicks": 52,
          "midi": 58,
          "name": "A#3",
          "ticks": 3480,
          "time": 8.285706000000001,
          "velocity": 0.7086614173228346
        },
        {
          "duration": 0.10714274999999951,
          "durationTicks": 45,
          "midi": 62,
          "name": "D4",
          "ticks": 3480,
          "time": 8.285706000000001,
          "velocity": 0.7244094488188977
        },
        {
          "duration": 0.11428559999999877,
          "durationTicks": 48,
          "midi": 65,
          "name": "F4",
          "ticks": 3480,
          "time": 8.285706000000001,
          "velocity": 0.8188976377952756
        },
        {
          "duration": 0.06428565000000042,
          "durationTicks": 27,
          "midi": 70,
          "name": "A#4",
          "ticks": 3600,
          "time": 8.57142,
          "velocity": 0.8503937007874016
        },
        {
          "duration": 0.06904755000000051,
          "durationTicks": 29,
          "midi": 65,
          "name": "F4",
          "ticks": 3600,
          "time": 8.57142,
          "velocity": 0.905511811023622
        },
        {
          "duration": 0.0499999500000019,
          "durationTicks": 21,
          "midi": 62,
          "name": "D4",
          "ticks": 3600,
          "time": 8.57142,
          "velocity": 0.7716535433070866
        },
        {
          "duration": 0.5738089500000001,
          "durationTicks": 241,
          "midi": 53,
          "name": "F3",
          "ticks": 3606,
          "time": 8.5857057,
          "velocity": 1
        },
        {
          "duration": 0.07619039999999977,
          "durationTicks": 32,
          "midi": 62,
          "name": "D4",
          "ticks": 3675,
          "time": 8.74999125,
          "velocity": 0.7244094488188977
        },
        {
          "duration": 0.06904755000000051,
          "durationTicks": 29,
          "midi": 65,
          "name": "F4",
          "ticks": 3675,
          "time": 8.74999125,
          "velocity": 0.905511811023622
        },
        {
          "duration": 0.06666659999999958,
          "durationTicks": 28,
          "midi": 70,
          "name": "A#4",
          "ticks": 3675,
          "time": 8.74999125,
          "velocity": 0.8740157480314961
        },
        {
          "duration": 0.08095229999999987,
          "durationTicks": 34,
          "midi": 69,
          "name": "A4",
          "ticks": 3795,
          "time": 9.035705250000001,
          "velocity": 0.952755905511811
        },
        {
          "duration": 0.08571419999999996,
          "durationTicks": 36,
          "midi": 65,
          "name": "F4",
          "ticks": 3795,
          "time": 9.035705250000001,
          "velocity": 0.8188976377952756
        },
        {
          "duration": 0.07857134999999893,
          "durationTicks": 33,
          "midi": 60,
          "name": "C4",
          "ticks": 3795,
          "time": 9.035705250000001,
          "velocity": 0.7716535433070866
        },
        {
          "duration": 0.28333304999999953,
          "durationTicks": 119,
          "midi": 41,
          "name": "F2",
          "ticks": 3840,
          "time": 9.142848,
          "velocity": 0.7244094488188977
        },
        {
          "duration": 0.28333304999999953,
          "durationTicks": 119,
          "midi": 45,
          "name": "A2",
          "ticks": 3960,
          "time": 9.428562000000001,
          "velocity": 0.7244094488188977
        },
        {
          "duration": 0.28333304999999953,
          "durationTicks": 119,
          "midi": 48,
          "name": "C3",
          "ticks": 4080,
          "time": 9.714276000000002,
          "velocity": 0.8267716535433071
        },
        {
          "duration": 0.2833330500000013,
          "durationTicks": 119,
          "midi": 51,
          "name": "D#3",
          "ticks": 4200,
          "time": 9.99999,
          "velocity": 0.7480314960629921
        },
        {
          "duration": 0.354761550000001,
          "durationTicks": 149,
          "midi": 53,
          "name": "F3",
          "ticks": 4320,
          "time": 10.285704,
          "velocity": 0.8188976377952756
        },
        {
          "duration": 0.06904755000000051,
          "durationTicks": 29,
          "midi": 57,
          "name": "A3",
          "ticks": 4440,
          "time": 10.571418000000001,
          "velocity": 0.8188976377952756
        },
        {
          "duration": 0.09047610000000006,
          "durationTicks": 38,
          "midi": 60,
          "name": "C4",
          "ticks": 4440,
          "time": 10.571418000000001,
          "velocity": 0.5984251968503937
        },
        {
          "duration": 0.09047610000000006,
          "durationTicks": 38,
          "midi": 65,
          "name": "F4",
          "ticks": 4440,
          "time": 10.571418000000001,
          "velocity": 0.8188976377952756
        },
        {
          "duration": 0.22142835000000005,
          "durationTicks": 93,
          "midi": 57,
          "name": "A3",
          "ticks": 4560,
          "time": 10.857132,
          "velocity": 0.7716535433070866
        },
        {
          "duration": 0.24285690000000137,
          "durationTicks": 102,
          "midi": 60,
          "name": "C4",
          "ticks": 4560,
          "time": 10.857132,
          "velocity": 0.5511811023622047
        },
        {
          "duration": 0.24047595000000221,
          "durationTicks": 101,
          "midi": 65,
          "name": "F4",
          "ticks": 4560,
          "time": 10.857132,
          "velocity": 0.7716535433070866
        },
        {
          "duration": 0.5428566000000004,
          "durationTicks": 228,
          "midi": 48,
          "name": "C3",
          "ticks": 4560,
          "time": 10.857132,
          "velocity": 0.7716535433070866
        },
        {
          "duration": 0.3904758000000008,
          "durationTicks": 164,
          "midi": 53,
          "name": "F3",
          "ticks": 4800,
          "time": 11.428560000000001,
          "velocity": 0.7716535433070866
        },
        {
          "duration": 0.14047605000000019,
          "durationTicks": 59,
          "midi": 60,
          "name": "C4",
          "ticks": 4800,
          "time": 11.428560000000001,
          "velocity": 0.6141732283464567
        },
        {
          "duration": 0.14047605000000019,
          "durationTicks": 59,
          "midi": 57,
          "name": "A3",
          "ticks": 4800,
          "time": 11.428560000000001,
          "velocity": 0.8582677165354331
        },
        {
          "duration": 0.14047605000000019,
          "durationTicks": 59,
          "midi": 65,
          "name": "F4",
          "ticks": 4800,
          "time": 11.428560000000001,
          "velocity": 0.8188976377952756
        },
        {
          "duration": 0.04047614999999993,
          "durationTicks": 17,
          "midi": 57,
          "name": "A3",
          "ticks": 4875,
          "time": 11.60713125,
          "velocity": 0.7086614173228346
        },
        {
          "duration": 0.05714280000000116,
          "durationTicks": 24,
          "midi": 60,
          "name": "C4",
          "ticks": 4875,
          "time": 11.60713125,
          "velocity": 0.6929133858267716
        },
        {
          "duration": 0.05714280000000116,
          "durationTicks": 24,
          "midi": 65,
          "name": "F4",
          "ticks": 4875,
          "time": 11.60713125,
          "velocity": 0.7244094488188977
        },
        {
          "duration": 0.12380939999999896,
          "durationTicks": 52,
          "midi": 65,
          "name": "F4",
          "ticks": 4995,
          "time": 11.89284525,
          "velocity": 0.905511811023622
        },
        {
          "duration": 0.10476180000000035,
          "durationTicks": 44,
          "midi": 57,
          "name": "A3",
          "ticks": 4995,
          "time": 11.89284525,
          "velocity": 0.8188976377952756
        },
        {
          "duration": 0.10476180000000035,
          "durationTicks": 44,
          "midi": 60,
          "name": "C4",
          "ticks": 4995,
          "time": 11.89284525,
          "velocity": 0.5984251968503937
        },
        {
          "duration": 0.2380949999999995,
          "durationTicks": 100,
          "midi": 48,
          "name": "C3",
          "ticks": 5040,
          "time": 11.999988000000002,
          "velocity": 0.8188976377952756
        },
        {
          "duration": 0.07142849999999967,
          "durationTicks": 30,
          "midi": 57,
          "name": "A3",
          "ticks": 5115,
          "time": 12.178559250000001,
          "velocity": 0.8582677165354331
        },
        {
          "duration": 0.07380945000000061,
          "durationTicks": 31,
          "midi": 60,
          "name": "C4",
          "ticks": 5115,
          "time": 12.178559250000001,
          "velocity": 0.5984251968503937
        },
        {
          "duration": 0.07380945000000061,
          "durationTicks": 31,
          "midi": 65,
          "name": "F4",
          "ticks": 5115,
          "time": 12.178559250000001,
          "velocity": 0.905511811023622
        },
        {
          "duration": 0.24761880000000147,
          "durationTicks": 104,
          "midi": 47,
          "name": "B2",
          "ticks": 5160,
          "time": 12.285702,
          "velocity": 0.7716535433070866
        },
        {
          "duration": 0.3833329499999998,
          "durationTicks": 161,
          "midi": 46,
          "name": "A#2",
          "ticks": 5280,
          "time": 12.571416000000001,
          "velocity": 0.8188976377952756
        },
        {
          "duration": 0.14047605000000019,
          "durationTicks": 59,
          "midi": 58,
          "name": "A#3",
          "ticks": 5400,
          "time": 12.857130000000002,
          "velocity": 0.6771653543307087
        },
        {
          "duration": 0.14047605000000019,
          "durationTicks": 59,
          "midi": 62,
          "name": "D4",
          "ticks": 5400,
          "time": 12.857130000000002,
          "velocity": 0.7716535433070866
        },
        {
          "duration": 0.14047605000000019,
          "durationTicks": 59,
          "midi": 65,
          "name": "F4",
          "ticks": 5400,
          "time": 12.857130000000002,
          "velocity": 0.7716535433070866
        },
        {
          "duration": 0.223809300000001,
          "durationTicks": 94,
          "midi": 53,
          "name": "F3",
          "ticks": 5520,
          "time": 13.142844,
          "velocity": 0.6456692913385826
        },
        {
          "duration": 0.2285711999999993,
          "durationTicks": 96,
          "midi": 58,
          "name": "A#3",
          "ticks": 5520,
          "time": 13.142844,
          "velocity": 0.6299212598425197
        },
        {
          "duration": 0.2571425999999999,
          "durationTicks": 108,
          "midi": 62,
          "name": "D4",
          "ticks": 5520,
          "time": 13.142844,
          "velocity": 0.7716535433070866
        },
        {
          "duration": 0.34047585000000247,
          "durationTicks": 143,
          "midi": 41,
          "name": "F2",
          "ticks": 5520,
          "time": 13.142844,
          "velocity": 0.905511811023622
        },
        {
          "duration": 0.2285711999999993,
          "durationTicks": 96,
          "midi": 50,
          "name": "D3",
          "ticks": 5640,
          "time": 13.428558,
          "velocity": 0.6299212598425197
        },
        {
          "duration": 0.2285711999999993,
          "durationTicks": 96,
          "midi": 58,
          "name": "A#3",
          "ticks": 5760,
          "time": 13.714272000000001,
          "velocity": 0.7874015748031497
        },
        {
          "duration": 0.2285711999999993,
          "durationTicks": 96,
          "midi": 65,
          "name": "F4",
          "ticks": 5760,
          "time": 13.714272000000001,
          "velocity": 0.7874015748031497
        },
        {
          "duration": 0.3309520499999987,
          "durationTicks": 139,
          "midi": 46,
          "name": "A#2",
          "ticks": 5760,
          "time": 13.714272000000001,
          "velocity": 0.7716535433070866
        },
        {
          "duration": 0.06190469999999948,
          "durationTicks": 26,
          "midi": 58,
          "name": "A#3",
          "ticks": 5880,
          "time": 13.999986000000002,
          "velocity": 0.5984251968503937
        },
        {
          "duration": 0.08809514999999912,
          "durationTicks": 37,
          "midi": 62,
          "name": "D4",
          "ticks": 5880,
          "time": 13.999986000000002,
          "velocity": 0.6771653543307087
        },
        {
          "duration": 0.08095229999999987,
          "durationTicks": 34,
          "midi": 65,
          "name": "F4",
          "ticks": 5880,
          "time": 13.999986000000002,
          "velocity": 0.6771653543307087
        },
        {
          "duration": 0.09999990000000025,
          "durationTicks": 42,
          "midi": 58,
          "name": "A#3",
          "ticks": 5955,
          "time": 14.17855725,
          "velocity": 0.5039370078740157
        },
        {
          "duration": 0.09999990000000025,
          "durationTicks": 42,
          "midi": 53,
          "name": "F3",
          "ticks": 5955,
          "time": 14.17855725,
          "velocity": 0.6299212598425197
        },
        {
          "duration": 0.1119046499999996,
          "durationTicks": 47,
          "midi": 62,
          "name": "D4",
          "ticks": 5955,
          "time": 14.17855725,
          "velocity": 0.7244094488188977
        },
        {
          "duration": 0.18809504999999938,
          "durationTicks": 79,
          "midi": 41,
          "name": "F2",
          "ticks": 6000,
          "time": 14.285700000000002,
          "velocity": 0.905511811023622
        },
        {
          "duration": 0.07380945000000061,
          "durationTicks": 31,
          "midi": 53,
          "name": "F3",
          "ticks": 6075,
          "time": 14.464271250000001,
          "velocity": 0.7401574803149606
        },
        {
          "duration": 0.07142849999999967,
          "durationTicks": 30,
          "midi": 58,
          "name": "A#3",
          "ticks": 6075,
          "time": 14.464271250000001,
          "velocity": 0.7086614173228346
        },
        {
          "duration": 0.10238084999999941,
          "durationTicks": 43,
          "midi": 62,
          "name": "D4",
          "ticks": 6075,
          "time": 14.464271250000001,
          "velocity": 0.8346456692913385
        },
        {
          "duration": 0.10238085000000119,
          "durationTicks": 43,
          "midi": 46,
          "name": "A#2",
          "ticks": 6120,
          "time": 14.571414,
          "velocity": 0.6299212598425197
        },
        {
          "duration": 0.354761550000001,
          "durationTicks": 149,
          "midi": 53,
          "name": "F3",
          "ticks": 6240,
          "time": 14.857128000000001,
          "velocity": 0.8188976377952756
        },
        {
          "duration": 0.06904755000000051,
          "durationTicks": 29,
          "midi": 57,
          "name": "A3",
          "ticks": 6360,
          "time": 15.142842000000002,
          "velocity": 0.8188976377952756
        },
        {
          "duration": 0.09047610000000006,
          "durationTicks": 38,
          "midi": 60,
          "name": "C4",
          "ticks": 6360,
          "time": 15.142842000000002,
          "velocity": 0.5984251968503937
        },
        {
          "duration": 0.09047610000000006,
          "durationTicks": 38,
          "midi": 65,
          "name": "F4",
          "ticks": 6360,
          "time": 15.142842000000002,
          "velocity": 0.8188976377952756
        },
        {
          "duration": 0.22142835000000005,
          "durationTicks": 93,
          "midi": 57,
          "name": "A3",
          "ticks": 6480,
          "time": 15.428556,
          "velocity": 0.7716535433070866
        },
        {
          "duration": 0.24285690000000137,
          "durationTicks": 102,
          "midi": 60,
          "name": "C4",
          "ticks": 6480,
          "time": 15.428556,
          "velocity": 0.5511811023622047
        },
        {
          "duration": 0.24047595000000221,
          "durationTicks": 101,
          "midi": 65,
          "name": "F4",
          "ticks": 6480,
          "time": 15.428556,
          "velocity": 0.7716535433070866
        },
        {
          "duration": 0.5428566000000004,
          "durationTicks": 228,
          "midi": 48,
          "name": "C3",
          "ticks": 6480,
          "time": 15.428556,
          "velocity": 0.7716535433070866
        },
        {
          "duration": 0.3904758000000008,
          "durationTicks": 164,
          "midi": 53,
          "name": "F3",
          "ticks": 6720,
          "time": 15.999984000000001,
          "velocity": 0.7716535433070866
        },
        {
          "duration": 0.14047605000000019,
          "durationTicks": 59,
          "midi": 60,
          "name": "C4",
          "ticks": 6720,
          "time": 15.999984000000001,
          "velocity": 0.6141732283464567
        },
        {
          "duration": 0.14047605000000019,
          "durationTicks": 59,
          "midi": 57,
          "name": "A3",
          "ticks": 6720,
          "time": 15.999984000000001,
          "velocity": 0.8582677165354331
        },
        {
          "duration": 0.14047605000000019,
          "durationTicks": 59,
          "midi": 65,
          "name": "F4",
          "ticks": 6720,
          "time": 15.999984000000001,
          "velocity": 0.8188976377952756
        },
        {
          "duration": 0.04047614999999993,
          "durationTicks": 17,
          "midi": 57,
          "name": "A3",
          "ticks": 6795,
          "time": 16.178555250000002,
          "velocity": 0.7086614173228346
        },
        {
          "duration": 0.05714280000000116,
          "durationTicks": 24,
          "midi": 60,
          "name": "C4",
          "ticks": 6795,
          "time": 16.178555250000002,
          "velocity": 0.6929133858267716
        },
        {
          "duration": 0.05714280000000116,
          "durationTicks": 24,
          "midi": 65,
          "name": "F4",
          "ticks": 6795,
          "time": 16.178555250000002,
          "velocity": 0.7244094488188977
        },
        {
          "duration": 0.12380939999999896,
          "durationTicks": 52,
          "midi": 65,
          "name": "F4",
          "ticks": 6915,
          "time": 16.46426925,
          "velocity": 0.905511811023622
        },
        {
          "duration": 0.10476180000000213,
          "durationTicks": 44,
          "midi": 57,
          "name": "A3",
          "ticks": 6915,
          "time": 16.46426925,
          "velocity": 0.8188976377952756
        },
        {
          "duration": 0.10476180000000213,
          "durationTicks": 44,
          "midi": 60,
          "name": "C4",
          "ticks": 6915,
          "time": 16.46426925,
          "velocity": 0.5984251968503937
        },
        {
          "duration": 0.23809500000000128,
          "durationTicks": 100,
          "midi": 48,
          "name": "C3",
          "ticks": 6960,
          "time": 16.571412000000002,
          "velocity": 0.8188976377952756
        },
        {
          "duration": 0.07142850000000323,
          "durationTicks": 30,
          "midi": 57,
          "name": "A3",
          "ticks": 7035,
          "time": 16.74998325,
          "velocity": 0.8582677165354331
        },
        {
          "duration": 0.07380945000000239,
          "durationTicks": 31,
          "midi": 60,
          "name": "C4",
          "ticks": 7035,
          "time": 16.74998325,
          "velocity": 0.5984251968503937
        },
        {
          "duration": 0.07380945000000239,
          "durationTicks": 31,
          "midi": 65,
          "name": "F4",
          "ticks": 7035,
          "time": 16.74998325,
          "velocity": 0.905511811023622
        },
        {
          "duration": 0.24761880000000147,
          "durationTicks": 104,
          "midi": 47,
          "name": "B2",
          "ticks": 7080,
          "time": 16.857126,
          "velocity": 0.7716535433070866
        },
        {
          "duration": 0.14047605000000019,
          "durationTicks": 59,
          "midi": 53,
          "name": "F3",
          "ticks": 7200,
          "time": 17.14284,
          "velocity": 0.7874015748031497
        },
        {
          "duration": 0.6119041500000009,
          "durationTicks": 257,
          "midi": 46,
          "name": "A#2",
          "ticks": 7200,
          "time": 17.14284,
          "velocity": 0.7244094488188977
        },
        {
          "duration": 0.12380939999999896,
          "durationTicks": 52,
          "midi": 58,
          "name": "A#3",
          "ticks": 7275,
          "time": 17.32141125,
          "velocity": 0.7874015748031497
        },
        {
          "duration": 0.17619029999999825,
          "durationTicks": 74,
          "midi": 62,
          "name": "D4",
          "ticks": 7320,
          "time": 17.428554000000002,
          "velocity": 0.8031496062992126
        },
        {
          "duration": 0.11428559999999877,
          "durationTicks": 48,
          "midi": 67,
          "name": "G4",
          "ticks": 7395,
          "time": 17.607125250000003,
          "velocity": 0.8188976377952756
        },
        {
          "duration": 0.06428565000000219,
          "durationTicks": 27,
          "midi": 70,
          "name": "A#4",
          "ticks": 7440,
          "time": 17.714268,
          "velocity": 0.7716535433070866
        },
        {
          "duration": 0.06904755000000051,
          "durationTicks": 29,
          "midi": 65,
          "name": "F4",
          "ticks": 7440,
          "time": 17.714268,
          "velocity": 0.8267716535433071
        },
        {
          "duration": 0.049999950000000126,
          "durationTicks": 21,
          "midi": 62,
          "name": "D4",
          "ticks": 7440,
          "time": 17.714268,
          "velocity": 0.6929133858267716
        },
        {
          "duration": 0.5738089500000036,
          "durationTicks": 241,
          "midi": 53,
          "name": "F3",
          "ticks": 7446,
          "time": 17.7285537,
          "velocity": 1
        },
        {
          "duration": 0.076190399999998,
          "durationTicks": 32,
          "midi": 62,
          "name": "D4",
          "ticks": 7515,
          "time": 17.89283925,
          "velocity": 0.6456692913385826
        },
        {
          "duration": 0.06904755000000051,
          "durationTicks": 29,
          "midi": 65,
          "name": "F4",
          "ticks": 7515,
          "time": 17.89283925,
          "velocity": 0.8267716535433071
        },
        {
          "duration": 0.06666660000000135,
          "durationTicks": 28,
          "midi": 70,
          "name": "A#4",
          "ticks": 7515,
          "time": 17.89283925,
          "velocity": 0.7952755905511811
        },
        {
          "duration": 0.08095229999999987,
          "durationTicks": 34,
          "midi": 69,
          "name": "A4",
          "ticks": 7635,
          "time": 18.17855325,
          "velocity": 0.952755905511811
        },
        {
          "duration": 0.08571420000000174,
          "durationTicks": 36,
          "midi": 65,
          "name": "F4",
          "ticks": 7635,
          "time": 18.17855325,
          "velocity": 0.8188976377952756
        },
        {
          "duration": 0.0785713500000007,
          "durationTicks": 33,
          "midi": 60,
          "name": "C4",
          "ticks": 7635,
          "time": 18.17855325,
          "velocity": 0.7716535433070866
        },
        {
          "duration": 0.28333304999999953,
          "durationTicks": 119,
          "midi": 41,
          "name": "F2",
          "ticks": 7680,
          "time": 18.285696,
          "velocity": 0.7244094488188977
        },
        {
          "duration": 0.1357141499999983,
          "durationTicks": 57,
          "midi": 69,
          "name": "A4",
          "ticks": 7753,
          "time": 18.45950535,
          "velocity": 0.7559055118110236
        },
        {
          "duration": 0.12619035000000167,
          "durationTicks": 53,
          "midi": 72,
          "name": "C5",
          "ticks": 7778,
          "time": 18.5190291,
          "velocity": 0.7086614173228346
        },
        {
          "duration": 0.29523780000000244,
          "durationTicks": 124,
          "midi": 77,
          "name": "F5",
          "ticks": 7800,
          "time": 18.57141,
          "velocity": 0.937007874015748
        },
        {
          "duration": 0.28333304999999953,
          "durationTicks": 119,
          "midi": 45,
          "name": "A2",
          "ticks": 7800,
          "time": 18.57141,
          "velocity": 0.7244094488188977
        },
        {
          "duration": 0.15714269999999786,
          "durationTicks": 66,
          "midi": 75,
          "name": "D#5",
          "ticks": 7875,
          "time": 18.74998125,
          "velocity": 0.8818897637795275
        },
        {
          "duration": 0.283333049999996,
          "durationTicks": 119,
          "midi": 48,
          "name": "C3",
          "ticks": 7920,
          "time": 18.857124000000002,
          "velocity": 0.8267716535433071
        },
        {
          "duration": 0.11190465000000316,
          "durationTicks": 47,
          "midi": 74,
          "name": "D5",
          "ticks": 7995,
          "time": 19.03569525,
          "velocity": 0.7716535433070866
        },
        {
          "duration": 0.28333304999999953,
          "durationTicks": 119,
          "midi": 72,
          "name": "C5",
          "ticks": 8040,
          "time": 19.142838,
          "velocity": 0.7716535433070866
        },
        {
          "duration": 0.28333304999999953,
          "durationTicks": 119,
          "midi": 51,
          "name": "D#3",
          "ticks": 8040,
          "time": 19.142838,
          "velocity": 0.8267716535433071
        },
        {
          "duration": 0.14047604999999663,
          "durationTicks": 59,
          "midi": 53,
          "name": "F3",
          "ticks": 8160,
          "time": 19.428552000000003,
          "velocity": 0.7874015748031497
        },
        {
          "duration": 0.6119041499999973,
          "durationTicks": 257,
          "midi": 46,
          "name": "A#2",
          "ticks": 8160,
          "time": 19.428552000000003,
          "velocity": 0.7244094488188977
        },
        {
          "duration": 0.12380940000000251,
          "durationTicks": 52,
          "midi": 58,
          "name": "A#3",
          "ticks": 8235,
          "time": 19.60712325,
          "velocity": 0.7874015748031497
        },
        {
          "duration": 0.17619029999999825,
          "durationTicks": 74,
          "midi": 62,
          "name": "D4",
          "ticks": 8280,
          "time": 19.714266000000002,
          "velocity": 0.8031496062992126
        },
        {
          "duration": 0.11428559999999877,
          "durationTicks": 48,
          "midi": 67,
          "name": "G4",
          "ticks": 8355,
          "time": 19.892837250000003,
          "velocity": 0.8188976377952756
        },
        {
          "duration": 0.049999950000000126,
          "durationTicks": 21,
          "midi": 74,
          "name": "D5",
          "ticks": 8400,
          "time": 19.99998,
          "velocity": 0.6929133858267716
        },
        {
          "duration": 0.06428564999999864,
          "durationTicks": 27,
          "midi": 70,
          "name": "A#4",
          "ticks": 8400,
          "time": 19.99998,
          "velocity": 0.7716535433070866
        },
        {
          "duration": 0.06904755000000051,
          "durationTicks": 29,
          "midi": 65,
          "name": "F4",
          "ticks": 8400,
          "time": 19.99998,
          "velocity": 0.8267716535433071
        },
        {
          "duration": 0.5738089500000036,
          "durationTicks": 241,
          "midi": 53,
          "name": "F3",
          "ticks": 8406,
          "time": 20.0142657,
          "velocity": 1
        },
        {
          "duration": 0.06904754999999696,
          "durationTicks": 29,
          "midi": 74,
          "name": "D5",
          "ticks": 8475,
          "time": 20.17855125,
          "velocity": 0.8267716535433071
        },
        {
          "duration": 0.076190399999998,
          "durationTicks": 32,
          "midi": 62,
          "name": "D4",
          "ticks": 8475,
          "time": 20.17855125,
          "velocity": 0.6456692913385826
        },
        {
          "duration": 0.06666660000000135,
          "durationTicks": 28,
          "midi": 70,
          "name": "A#4",
          "ticks": 8475,
          "time": 20.17855125,
          "velocity": 0.7952755905511811
        },
        {
          "duration": 0.07857135000000426,
          "durationTicks": 33,
          "midi": 72,
          "name": "C5",
          "ticks": 8595,
          "time": 20.46426525,
          "velocity": 0.7716535433070866
        },
        {
          "duration": 0.08095229999999987,
          "durationTicks": 34,
          "midi": 69,
          "name": "A4",
          "ticks": 8595,
          "time": 20.46426525,
          "velocity": 0.952755905511811
        },
        {
          "duration": 0.08571420000000174,
          "durationTicks": 36,
          "midi": 65,
          "name": "F4",
          "ticks": 8595,
          "time": 20.46426525,
          "velocity": 0.8188976377952756
        },
        {
          "duration": 0.19047600000000386,
          "durationTicks": 80,
          "midi": 46,
          "name": "A#2",
          "ticks": 9120,
          "time": 21.714264,
          "velocity": 0.5354330708661418
        },
        {
          "duration": 0.3547615499999992,
          "durationTicks": 149,
          "midi": 65,
          "name": "F4",
          "ticks": 9195,
          "time": 21.89283525,
          "velocity": 0.5984251968503937
        },
        {
          "duration": 0.3547615499999992,
          "durationTicks": 149,
          "midi": 58,
          "name": "A#3",
          "ticks": 9195,
          "time": 21.89283525,
          "velocity": 0.5826771653543307
        },
        {
          "duration": 0.3547615499999992,
          "durationTicks": 149,
          "midi": 62,
          "name": "D4",
          "ticks": 9195,
          "time": 21.89283525,
          "velocity": 0.5984251968503937
        },
        {
          "duration": 0.25476164999999895,
          "durationTicks": 107,
          "midi": 46,
          "name": "A#2",
          "ticks": 9240,
          "time": 21.999978000000002,
          "velocity": 0.6141732283464567
        },
        {
          "duration": 0.28333304999999953,
          "durationTicks": 119,
          "midi": 65,
          "name": "F4",
          "ticks": 9360,
          "time": 22.285692,
          "velocity": 0.6141732283464567
        },
        {
          "duration": 0.3190472999999976,
          "durationTicks": 134,
          "midi": 62,
          "name": "D4",
          "ticks": 9360,
          "time": 22.285692,
          "velocity": 0.6141732283464567
        },
        {
          "duration": 0.16904745000000077,
          "durationTicks": 71,
          "midi": 41,
          "name": "F2",
          "ticks": 9360,
          "time": 22.285692,
          "velocity": 0.6456692913385826
        },
        {
          "duration": 0.283333049999996,
          "durationTicks": 119,
          "midi": 58,
          "name": "A#3",
          "ticks": 9480,
          "time": 22.571406000000003,
          "velocity": 0.6771653543307087
        },
        {
          "duration": 0.34285679999999985,
          "durationTicks": 144,
          "midi": 41,
          "name": "F2",
          "ticks": 9480,
          "time": 22.571406000000003,
          "velocity": 0.6456692913385826
        },
        {
          "duration": 0.17857125000000096,
          "durationTicks": 75,
          "midi": 46,
          "name": "A#2",
          "ticks": 9600,
          "time": 22.857120000000002,
          "velocity": 0.5826771653543307
        },
        {
          "duration": 0.14047604999999663,
          "durationTicks": 59,
          "midi": 62,
          "name": "D4",
          "ticks": 9600,
          "time": 22.857120000000002,
          "velocity": 0.6220472440944882
        },
        {
          "duration": 0.14047604999999663,
          "durationTicks": 59,
          "midi": 65,
          "name": "F4",
          "ticks": 9600,
          "time": 22.857120000000002,
          "velocity": 0.7952755905511811
        },
        {
          "duration": 0.1119046499999996,
          "durationTicks": 47,
          "midi": 70,
          "name": "A#4",
          "ticks": 9600,
          "time": 22.857120000000002,
          "velocity": 0.7637795275590551
        },
        {
          "duration": 0.1333332000000027,
          "durationTicks": 56,
          "midi": 46,
          "name": "A#2",
          "ticks": 9720,
          "time": 23.142834,
          "velocity": 0.8031496062992126
        },
        {
          "duration": 0.17619029999999825,
          "durationTicks": 74,
          "midi": 62,
          "name": "D4",
          "ticks": 9795,
          "time": 23.32140525,
          "velocity": 0.8976377952755905
        },
        {
          "duration": 0.21190454999999986,
          "durationTicks": 89,
          "midi": 65,
          "name": "F4",
          "ticks": 9795,
          "time": 23.32140525,
          "velocity": 0.84251968503937
        },
        {
          "duration": 0.17619029999999825,
          "durationTicks": 74,
          "midi": 70,
          "name": "A#4",
          "ticks": 9795,
          "time": 23.32140525,
          "velocity": 0.7716535433070866
        },
        {
          "duration": 0.283333049999996,
          "durationTicks": 119,
          "midi": 41,
          "name": "F2",
          "ticks": 9840,
          "time": 23.428548000000003,
          "velocity": 0.9921259842519685
        },
        {
          "duration": 0.21190454999999986,
          "durationTicks": 89,
          "midi": 70,
          "name": "A#4",
          "ticks": 9915,
          "time": 23.60711925,
          "velocity": 0.6771653543307087
        },
        {
          "duration": 0.21190454999999986,
          "durationTicks": 89,
          "midi": 65,
          "name": "F4",
          "ticks": 9915,
          "time": 23.60711925,
          "velocity": 0.7952755905511811
        },
        {
          "duration": 0.24761880000000147,
          "durationTicks": 104,
          "midi": 62,
          "name": "D4",
          "ticks": 9915,
          "time": 23.60711925,
          "velocity": 0.6771653543307087
        },
        {
          "duration": 0.28333304999999953,
          "durationTicks": 119,
          "midi": 36,
          "name": "C2",
          "ticks": 9960,
          "time": 23.714262,
          "velocity": 0.7244094488188977
        },
        {
          "duration": 0.35476154999999565,
          "durationTicks": 149,
          "midi": 41,
          "name": "F2",
          "ticks": 10080,
          "time": 23.999976000000004,
          "velocity": 0.7244094488188977
        },
        {
          "duration": 0.17380935000000264,
          "durationTicks": 73,
          "midi": 64,
          "name": "E4",
          "ticks": 10155,
          "time": 24.17854725,
          "velocity": 0.8582677165354331
        },
        {
          "duration": 0.1999998000000005,
          "durationTicks": 84,
          "midi": 69,
          "name": "A4",
          "ticks": 10155,
          "time": 24.17854725,
          "velocity": 0.8661417322834646
        },
        {
          "duration": 0.14047605000000019,
          "durationTicks": 59,
          "midi": 62,
          "name": "D4",
          "ticks": 10320,
          "time": 24.571404,
          "velocity": 0.905511811023622
        },
        {
          "duration": 0.14047605000000019,
          "durationTicks": 59,
          "midi": 65,
          "name": "F4",
          "ticks": 10320,
          "time": 24.571404,
          "velocity": 0.9212598425196851
        },
        {
          "duration": 0.14047605000000019,
          "durationTicks": 59,
          "midi": 69,
          "name": "A4",
          "ticks": 10320,
          "time": 24.571404,
          "velocity": 0.9212598425196851
        },
        {
          "duration": 0.28333304999999953,
          "durationTicks": 119,
          "midi": 48,
          "name": "C3",
          "ticks": 10320,
          "time": 24.571404,
          "velocity": 0.8031496062992126
        },
        {
          "duration": 0.14047604999999663,
          "durationTicks": 59,
          "midi": 69,
          "name": "A4",
          "ticks": 10440,
          "time": 24.857118000000003,
          "velocity": 0.9212598425196851
        },
        {
          "duration": 0.14047604999999663,
          "durationTicks": 59,
          "midi": 62,
          "name": "D4",
          "ticks": 10440,
          "time": 24.857118000000003,
          "velocity": 0.905511811023622
        },
        {
          "duration": 0.14047604999999663,
          "durationTicks": 59,
          "midi": 65,
          "name": "F4",
          "ticks": 10440,
          "time": 24.857118000000003,
          "velocity": 0.905511811023622
        },
        {
          "duration": 0.14047604999999663,
          "durationTicks": 59,
          "midi": 60,
          "name": "C4",
          "ticks": 10560,
          "time": 25.142832000000002,
          "velocity": 0.6535433070866141
        },
        {
          "duration": 0.14047604999999663,
          "durationTicks": 59,
          "midi": 65,
          "name": "F4",
          "ticks": 10560,
          "time": 25.142832000000002,
          "velocity": 0.7952755905511811
        },
        {
          "duration": 0.14047604999999663,
          "durationTicks": 59,
          "midi": 69,
          "name": "A4",
          "ticks": 10560,
          "time": 25.142832000000002,
          "velocity": 0.8031496062992126
        },
        {
          "duration": 0.28333304999999953,
          "durationTicks": 119,
          "midi": 53,
          "name": "F3",
          "ticks": 10560,
          "time": 25.142832000000002,
          "velocity": 0.6456692913385826
        },
        {
          "duration": 0.08333325000000258,
          "durationTicks": 35,
          "midi": 60,
          "name": "C4",
          "ticks": 10633,
          "time": 25.31664135,
          "velocity": 0.9448818897637795
        },
        {
          "duration": 0.0785713500000007,
          "durationTicks": 33,
          "midi": 65,
          "name": "F4",
          "ticks": 10635,
          "time": 25.321403250000003,
          "velocity": 0.937007874015748
        },
        {
          "duration": 0.0880951500000009,
          "durationTicks": 37,
          "midi": 69,
          "name": "A4",
          "ticks": 10635,
          "time": 25.321403250000003,
          "velocity": 0.8661417322834646
        },
        {
          "duration": 0.17619029999999825,
          "durationTicks": 74,
          "midi": 62,
          "name": "D4",
          "ticks": 10755,
          "time": 25.60711725,
          "velocity": 0.8110236220472441
        },
        {
          "duration": 0.17619029999999825,
          "durationTicks": 74,
          "midi": 65,
          "name": "F4",
          "ticks": 10755,
          "time": 25.60711725,
          "velocity": 0.7480314960629921
        },
        {
          "duration": 0.14047605000000019,
          "durationTicks": 59,
          "midi": 69,
          "name": "A4",
          "ticks": 10755,
          "time": 25.60711725,
          "velocity": 0.8031496062992126
        },
        {
          "duration": 0.283333049999996,
          "durationTicks": 119,
          "midi": 48,
          "name": "C3",
          "ticks": 10800,
          "time": 25.714260000000003,
          "velocity": 0.7795275590551181
        },
        {
          "duration": 0.28333304999999953,
          "durationTicks": 119,
          "midi": 47,
          "name": "B2",
          "ticks": 10920,
          "time": 25.999974,
          "velocity": 0.968503937007874
        },
        {
          "duration": 0.19047600000000386,
          "durationTicks": 80,
          "midi": 46,
          "name": "A#2",
          "ticks": 11040,
          "time": 26.285688,
          "velocity": 0.6929133858267716
        },
        {
          "duration": 0.49761854999999855,
          "durationTicks": 209,
          "midi": 65,
          "name": "F4",
          "ticks": 11115,
          "time": 26.46425925,
          "velocity": 0.8346456692913385
        },
        {
          "duration": 0.3547615499999992,
          "durationTicks": 149,
          "midi": 58,
          "name": "A#3",
          "ticks": 11115,
          "time": 26.46425925,
          "velocity": 0.8188976377952756
        },
        {
          "duration": 0.3547615499999992,
          "durationTicks": 149,
          "midi": 62,
          "name": "D4",
          "ticks": 11115,
          "time": 26.46425925,
          "velocity": 0.8346456692913385
        },
        {
          "duration": 0.25476164999999895,
          "durationTicks": 107,
          "midi": 46,
          "name": "A#2",
          "ticks": 11160,
          "time": 26.571402000000003,
          "velocity": 0.8503937007874016
        },
        {
          "duration": 0.28333304999999953,
          "durationTicks": 119,
          "midi": 65,
          "name": "F4",
          "ticks": 11280,
          "time": 26.857116,
          "velocity": 0.9291338582677166
        },
        {
          "duration": 0.3190472999999976,
          "durationTicks": 134,
          "midi": 62,
          "name": "D4",
          "ticks": 11280,
          "time": 26.857116,
          "velocity": 0.8503937007874016
        },
        {
          "duration": 0.16904745000000077,
          "durationTicks": 71,
          "midi": 41,
          "name": "F2",
          "ticks": 11280,
          "time": 26.857116,
          "velocity": 0.8031496062992126
        },
        {
          "duration": 0.283333049999996,
          "durationTicks": 119,
          "midi": 58,
          "name": "A#3",
          "ticks": 11400,
          "time": 27.142830000000004,
          "velocity": 0.9921259842519685
        },
        {
          "duration": 0.34285679999999985,
          "durationTicks": 144,
          "midi": 41,
          "name": "F2",
          "ticks": 11400,
          "time": 27.142830000000004,
          "velocity": 0.8818897637795275
        },
        {
          "duration": 0.17857125000000096,
          "durationTicks": 75,
          "midi": 46,
          "name": "A#2",
          "ticks": 11520,
          "time": 27.428544000000002,
          "velocity": 0.8976377952755905
        },
        {
          "duration": 0.14047604999999663,
          "durationTicks": 59,
          "midi": 62,
          "name": "D4",
          "ticks": 11520,
          "time": 27.428544000000002,
          "velocity": 0.937007874015748
        },
        {
          "duration": 0.14047604999999663,
          "durationTicks": 59,
          "midi": 65,
          "name": "F4",
          "ticks": 11520,
          "time": 27.428544000000002,
          "velocity": 0.7952755905511811
        },
        {
          "duration": 0.1119046499999996,
          "durationTicks": 47,
          "midi": 70,
          "name": "A#4",
          "ticks": 11520,
          "time": 27.428544000000002,
          "velocity": 0.7637795275590551
        },
        {
          "duration": 0.1333332000000027,
          "durationTicks": 56,
          "midi": 46,
          "name": "A#2",
          "ticks": 11640,
          "time": 27.714258,
          "velocity": 0.8031496062992126
        },
        {
          "duration": 0.17619029999999825,
          "durationTicks": 74,
          "midi": 62,
          "name": "D4",
          "ticks": 11715,
          "time": 27.892829250000002,
          "velocity": 1
        },
        {
          "duration": 0.21190454999999986,
          "durationTicks": 89,
          "midi": 65,
          "name": "F4",
          "ticks": 11715,
          "time": 27.892829250000002,
          "velocity": 0.9212598425196851
        },
        {
          "duration": 0.17619029999999825,
          "durationTicks": 74,
          "midi": 70,
          "name": "A#4",
          "ticks": 11715,
          "time": 27.892829250000002,
          "velocity": 0.9291338582677166
        },
        {
          "duration": 0.283333049999996,
          "durationTicks": 119,
          "midi": 41,
          "name": "F2",
          "ticks": 11760,
          "time": 27.999972000000003,
          "velocity": 0.9133858267716536
        },
        {
          "duration": 0.21190454999999986,
          "durationTicks": 89,
          "midi": 70,
          "name": "A#4",
          "ticks": 11835,
          "time": 28.17854325,
          "velocity": 0.9133858267716536
        },
        {
          "duration": 0.21190454999999986,
          "durationTicks": 89,
          "midi": 65,
          "name": "F4",
          "ticks": 11835,
          "time": 28.17854325,
          "velocity": 0.7952755905511811
        },
        {
          "duration": 0.24761880000000147,
          "durationTicks": 104,
          "midi": 62,
          "name": "D4",
          "ticks": 11835,
          "time": 28.17854325,
          "velocity": 0.6771653543307087
        },
        {
          "duration": 0.28333304999999953,
          "durationTicks": 119,
          "midi": 36,
          "name": "C2",
          "ticks": 11880,
          "time": 28.285686000000002,
          "velocity": 0.9212598425196851
        },
        {
          "duration": 0.38095199999999707,
          "durationTicks": 160,
          "midi": 55,
          "name": "G3",
          "ticks": 12000,
          "time": 28.571400000000004,
          "velocity": 0.905511811023622
        },
        {
          "duration": 0.12380939999999896,
          "durationTicks": 52,
          "midi": 60,
          "name": "C4",
          "ticks": 12120,
          "time": 28.857114000000003,
          "velocity": 0.7716535433070866
        },
        {
          "duration": 0.15476175000000225,
          "durationTicks": 65,
          "midi": 64,
          "name": "E4",
          "ticks": 12122,
          "time": 28.8618759,
          "velocity": 0.8976377952755905
        },
        {
          "duration": 0.3809520000000006,
          "durationTicks": 160,
          "midi": 48,
          "name": "C3",
          "ticks": 12240,
          "time": 29.142828,
          "velocity": 0.905511811023622
        },
        {
          "duration": 0.13809510000000103,
          "durationTicks": 58,
          "midi": 55,
          "name": "G3",
          "ticks": 12240,
          "time": 29.142828,
          "velocity": 0.8582677165354331
        },
        {
          "duration": 0.3357139499999988,
          "durationTicks": 141,
          "midi": 60,
          "name": "C4",
          "ticks": 12240,
          "time": 29.142828,
          "velocity": 0.7874015748031497
        },
        {
          "duration": 0.4047615000000029,
          "durationTicks": 170,
          "midi": 64,
          "name": "E4",
          "ticks": 12240,
          "time": 29.142828,
          "velocity": 0.952755905511811
        },
        {
          "duration": 0.11904750000000064,
          "durationTicks": 50,
          "midi": 55,
          "name": "G3",
          "ticks": 12360,
          "time": 29.428542000000004,
          "velocity": 0.8188976377952756
        },
        {
          "duration": 0.38095199999999707,
          "durationTicks": 160,
          "midi": 41,
          "name": "F2",
          "ticks": 12480,
          "time": 29.714256000000002,
          "velocity": 0.905511811023622
        },
        {
          "duration": 0.16428555000000244,
          "durationTicks": 69,
          "midi": 53,
          "name": "F3",
          "ticks": 12480,
          "time": 29.714256000000002,
          "velocity": 0.952755905511811
        },
        {
          "duration": 0.13333319999999915,
          "durationTicks": 56,
          "midi": 57,
          "name": "A3",
          "ticks": 12480,
          "time": 29.714256000000002,
          "velocity": 0.905511811023622
        },
        {
          "duration": 0.15952365000000057,
          "durationTicks": 67,
          "midi": 60,
          "name": "C4",
          "ticks": 12480,
          "time": 29.714256000000002,
          "velocity": 0.7559055118110236
        },
        {
          "duration": 0.10238085000000297,
          "durationTicks": 43,
          "midi": 57,
          "name": "A3",
          "ticks": 12600,
          "time": 29.99997,
          "velocity": 0.8582677165354331
        },
        {
          "duration": 0.13809510000000103,
          "durationTicks": 58,
          "midi": 60,
          "name": "C4",
          "ticks": 12600,
          "time": 29.99997,
          "velocity": 0.7559055118110236
        },
        {
          "duration": 0.1357141499999983,
          "durationTicks": 57,
          "midi": 65,
          "name": "F4",
          "ticks": 12600,
          "time": 29.99997,
          "velocity": 0.937007874015748
        },
        {
          "duration": 0.38095199999999707,
          "durationTicks": 160,
          "midi": 48,
          "name": "C3",
          "ticks": 12720,
          "time": 30.285684000000003,
          "velocity": 0.905511811023622
        },
        {
          "duration": 0.07142849999999967,
          "durationTicks": 30,
          "midi": 55,
          "name": "G3",
          "ticks": 12720,
          "time": 30.285684000000003,
          "velocity": 0.905511811023622
        },
        {
          "duration": 0.16190459999999973,
          "durationTicks": 68,
          "midi": 60,
          "name": "C4",
          "ticks": 12720,
          "time": 30.285684000000003,
          "velocity": 0.7244094488188977
        },
        {
          "duration": 0.14999985000000038,
          "durationTicks": 63,
          "midi": 64,
          "name": "E4",
          "ticks": 12720,
          "time": 30.285684000000003,
          "velocity": 0.952755905511811
        },
        {
          "duration": 0.31904730000000114,
          "durationTicks": 134,
          "midi": 53,
          "name": "F3",
          "ticks": 12795,
          "time": 30.46425525,
          "velocity": 0.84251968503937
        },
        {
          "duration": 0.31904730000000114,
          "durationTicks": 134,
          "midi": 62,
          "name": "D4",
          "ticks": 12795,
          "time": 30.46425525,
          "velocity": 0.952755905511811
        },
        {
          "duration": 0.28333304999999953,
          "durationTicks": 119,
          "midi": 47,
          "name": "B2",
          "ticks": 12840,
          "time": 30.571398000000002,
          "velocity": 0.905511811023622
        },
        {
          "duration": 0.530951850000001,
          "durationTicks": 223,
          "midi": 46,
          "name": "A#2",
          "ticks": 12960,
          "time": 30.857112,
          "velocity": 0.7716535433070866
        },
        {
          "duration": 0.2119045499999963,
          "durationTicks": 89,
          "midi": 58,
          "name": "A#3",
          "ticks": 13080,
          "time": 31.142826000000003,
          "velocity": 0.7244094488188977
        },
        {
          "duration": 0.2119045499999963,
          "durationTicks": 89,
          "midi": 53,
          "name": "F3",
          "ticks": 13080,
          "time": 31.142826000000003,
          "velocity": 0.8503937007874016
        },
        {
          "duration": 0.2119045500000034,
          "durationTicks": 89,
          "midi": 62,
          "name": "D4",
          "ticks": 13082,
          "time": 31.1475879,
          "velocity": 0.8976377952755905
        },
        {
          "duration": 0.5261899500000027,
          "durationTicks": 221,
          "midi": 41,
          "name": "F2",
          "ticks": 13200,
          "time": 31.42854,
          "velocity": 0.7401574803149606
        },
        {
          "duration": 0.10476179999999857,
          "durationTicks": 44,
          "midi": 58,
          "name": "A#3",
          "ticks": 13200,
          "time": 31.42854,
          "velocity": 0.7716535433070866
        },
        {
          "duration": 0.26428544999999914,
          "durationTicks": 111,
          "midi": 53,
          "name": "F3",
          "ticks": 13200,
          "time": 31.42854,
          "velocity": 0.8503937007874016
        },
        {
          "duration": 0.25714260000000166,
          "durationTicks": 108,
          "midi": 62,
          "name": "D4",
          "ticks": 13202,
          "time": 31.433301900000004,
          "velocity": 0.8818897637795275
        },
        {
          "duration": 0.15238079999999954,
          "durationTicks": 64,
          "midi": 46,
          "name": "A#2",
          "ticks": 13290,
          "time": 31.642825500000004,
          "velocity": 0.8188976377952756
        },
        {
          "duration": 0.5690470499999947,
          "durationTicks": 239,
          "midi": 46,
          "name": "A#2",
          "ticks": 13440,
          "time": 31.999968000000003,
          "velocity": 0.6299212598425197
        },
        {
          "duration": 0.16904745000000077,
          "durationTicks": 71,
          "midi": 65,
          "name": "F4",
          "ticks": 13440,
          "time": 31.999968000000003,
          "velocity": 0.8503937007874016
        },
        {
          "duration": 0.12380939999999896,
          "durationTicks": 52,
          "midi": 58,
          "name": "A#3",
          "ticks": 13440,
          "time": 31.999968000000003,
          "velocity": 0.6929133858267716
        },
        {
          "duration": 0.2428568999999996,
          "durationTicks": 102,
          "midi": 62,
          "name": "D4",
          "ticks": 13440,
          "time": 31.999968000000003,
          "velocity": 0.8503937007874016
        },
        {
          "duration": 0.109523700000004,
          "durationTicks": 46,
          "midi": 58,
          "name": "A#3",
          "ticks": 13560,
          "time": 32.285682,
          "velocity": 0.5826771653543307
        },
        {
          "duration": 0.08571419999999819,
          "durationTicks": 36,
          "midi": 58,
          "name": "A#3",
          "ticks": 13635,
          "time": 32.464253250000006,
          "velocity": 0.8031496062992126
        },
        {
          "duration": 0.14523795000000206,
          "durationTicks": 61,
          "midi": 62,
          "name": "D4",
          "ticks": 13635,
          "time": 32.464253250000006,
          "velocity": 0.8188976377952756
        },
        {
          "duration": 0.11666654999999793,
          "durationTicks": 49,
          "midi": 65,
          "name": "F4",
          "ticks": 13635,
          "time": 32.464253250000006,
          "velocity": 0.8188976377952756
        },
        {
          "duration": 0.2833330500000031,
          "durationTicks": 119,
          "midi": 41,
          "name": "F2",
          "ticks": 13680,
          "time": 32.571396,
          "velocity": 0.7244094488188977
        },
        {
          "duration": 0.0904760999999965,
          "durationTicks": 38,
          "midi": 58,
          "name": "A#3",
          "ticks": 13755,
          "time": 32.749967250000005,
          "velocity": 0.8031496062992126
        },
        {
          "duration": 0.12142844999999625,
          "durationTicks": 51,
          "midi": 62,
          "name": "D4",
          "ticks": 13755,
          "time": 32.749967250000005,
          "velocity": 0.8582677165354331
        },
        {
          "duration": 0.10238084999999586,
          "durationTicks": 43,
          "midi": 65,
          "name": "F4",
          "ticks": 13755,
          "time": 32.749967250000005,
          "velocity": 0.9212598425196851
        },
        {
          "duration": 0.283333049999996,
          "durationTicks": 119,
          "midi": 44,
          "name": "G#2",
          "ticks": 13800,
          "time": 32.857110000000006,
          "velocity": 0.8031496062992126
        },
        {
          "duration": 0.283333049999996,
          "durationTicks": 119,
          "midi": 45,
          "name": "A2",
          "ticks": 13920,
          "time": 33.142824000000005,
          "velocity": 0.7874015748031497
        },
        {
          "duration": 0.10714275000000129,
          "durationTicks": 45,
          "midi": 61,
          "name": "C#4",
          "ticks": 13920,
          "time": 33.142824000000005,
          "velocity": 0.7874015748031497
        },
        {
          "duration": 0.14999985000000038,
          "durationTicks": 63,
          "midi": 64,
          "name": "E4",
          "ticks": 13920,
          "time": 33.142824000000005,
          "velocity": 0.8976377952755905
        },
        {
          "duration": 0.13095225,
          "durationTicks": 55,
          "midi": 69,
          "name": "A4",
          "ticks": 13920,
          "time": 33.142824000000005,
          "velocity": 0.9291338582677166
        },
        {
          "duration": 0.0904760999999965,
          "durationTicks": 38,
          "midi": 61,
          "name": "C#4",
          "ticks": 14040,
          "time": 33.428538,
          "velocity": 0.8346456692913385
        },
        {
          "duration": 0.1547617499999987,
          "durationTicks": 65,
          "midi": 64,
          "name": "E4",
          "ticks": 14040,
          "time": 33.428538,
          "velocity": 0.8031496062992126
        },
        {
          "duration": 0.14761889999999767,
          "durationTicks": 62,
          "midi": 69,
          "name": "A4",
          "ticks": 14040,
          "time": 33.428538,
          "velocity": 0.8503937007874016
        },
        {
          "duration": 0.25714260000000166,
          "durationTicks": 108,
          "midi": 69,
          "name": "A4",
          "ticks": 14160,
          "time": 33.714252,
          "velocity": 0.8818897637795275
        },
        {
          "duration": 0.18809505000000115,
          "durationTicks": 79,
          "midi": 61,
          "name": "C#4",
          "ticks": 14160,
          "time": 33.714252,
          "velocity": 0.8503937007874016
        },
        {
          "duration": 0.2619045,
          "durationTicks": 110,
          "midi": 64,
          "name": "E4",
          "ticks": 14160,
          "time": 33.714252,
          "velocity": 0.8503937007874016
        },
        {
          "duration": 0.15952365000000412,
          "durationTicks": 67,
          "midi": 67,
          "name": "G4",
          "ticks": 14235,
          "time": 33.89282325,
          "velocity": 0.952755905511811
        },
        {
          "duration": 0.31904730000000114,
          "durationTicks": 134,
          "midi": 45,
          "name": "A2",
          "ticks": 14280,
          "time": 33.999966,
          "velocity": 0.952755905511811
        },
        {
          "duration": 0.31904730000000114,
          "durationTicks": 134,
          "midi": 65,
          "name": "F4",
          "ticks": 14370,
          "time": 34.2142515,
          "velocity": 0.9448818897637795
        },
        {
          "duration": 0.31904730000000114,
          "durationTicks": 134,
          "midi": 57,
          "name": "A3",
          "ticks": 14370,
          "time": 34.2142515,
          "velocity": 0.952755905511811
        },
        {
          "duration": 0.3547615499999992,
          "durationTicks": 149,
          "midi": 62,
          "name": "D4",
          "ticks": 14370,
          "time": 34.2142515,
          "velocity": 0.8188976377952756
        },
        {
          "duration": 0.21190454999999275,
          "durationTicks": 89,
          "midi": 53,
          "name": "F3",
          "ticks": 14520,
          "time": 34.571394000000005,
          "velocity": 0.9448818897637795
        },
        {
          "duration": 0.21190454999999986,
          "durationTicks": 89,
          "midi": 57,
          "name": "A3",
          "ticks": 14595,
          "time": 34.74996525,
          "velocity": 0.8661417322834646
        },
        {
          "duration": 0.14047604999999663,
          "durationTicks": 59,
          "midi": 62,
          "name": "D4",
          "ticks": 14595,
          "time": 34.74996525,
          "velocity": 0.8661417322834646
        },
        {
          "duration": 0.14047604999999663,
          "durationTicks": 59,
          "midi": 65,
          "name": "F4",
          "ticks": 14595,
          "time": 34.74996525,
          "velocity": 0.9448818897637795
        },
        {
          "duration": 0.21190454999999986,
          "durationTicks": 89,
          "midi": 53,
          "name": "F3",
          "ticks": 14715,
          "time": 35.03567925,
          "velocity": 0.9448818897637795
        },
        {
          "duration": 0.21190454999999986,
          "durationTicks": 89,
          "midi": 57,
          "name": "A3",
          "ticks": 14715,
          "time": 35.03567925,
          "velocity": 0.9448818897637795
        },
        {
          "duration": 0.21190454999999986,
          "durationTicks": 89,
          "midi": 62,
          "name": "D4",
          "ticks": 14715,
          "time": 35.03567925,
          "velocity": 0.9448818897637795
        },
        {
          "duration": 0.27857114999999766,
          "durationTicks": 117,
          "midi": 43,
          "name": "G2",
          "ticks": 14880,
          "time": 35.428536,
          "velocity": 0.952755905511811
        },
        {
          "duration": 0.23333310000000296,
          "durationTicks": 98,
          "midi": 59,
          "name": "B3",
          "ticks": 14880,
          "time": 35.428536,
          "velocity": 0.905511811023622
        },
        {
          "duration": 0.27619020000000205,
          "durationTicks": 116,
          "midi": 62,
          "name": "D4",
          "ticks": 14880,
          "time": 35.428536,
          "velocity": 0.905511811023622
        },
        {
          "duration": 0.27142830000000373,
          "durationTicks": 114,
          "midi": 67,
          "name": "G4",
          "ticks": 14880,
          "time": 35.428536,
          "velocity": 0.952755905511811
        },
        {
          "duration": 0.17142839999999637,
          "durationTicks": 72,
          "midi": 67,
          "name": "G4",
          "ticks": 15075,
          "time": 35.892821250000004,
          "velocity": 1
        },
        {
          "duration": 0.14761889999999767,
          "durationTicks": 62,
          "midi": 62,
          "name": "D4",
          "ticks": 15075,
          "time": 35.892821250000004,
          "velocity": 0.952755905511811
        },
        {
          "duration": 0.11666654999999793,
          "durationTicks": 49,
          "midi": 59,
          "name": "B3",
          "ticks": 15075,
          "time": 35.892821250000004,
          "velocity": 1
        },
        {
          "duration": 0.16666649999999805,
          "durationTicks": 70,
          "midi": 43,
          "name": "G2",
          "ticks": 15075,
          "time": 35.892821250000004,
          "velocity": 0.952755905511811
        },
        {
          "duration": 0.2880949500000014,
          "durationTicks": 121,
          "midi": 43,
          "name": "G2",
          "ticks": 15360,
          "time": 36.571392,
          "velocity": 0.952755905511811
        },
        {
          "duration": 0.25714260000000166,
          "durationTicks": 108,
          "midi": 59,
          "name": "B3",
          "ticks": 15360,
          "time": 36.571392,
          "velocity": 0.952755905511811
        },
        {
          "duration": 0.269047350000001,
          "durationTicks": 113,
          "midi": 62,
          "name": "D4",
          "ticks": 15360,
          "time": 36.571392,
          "velocity": 0.905511811023622
        },
        {
          "duration": 0.2666663999999983,
          "durationTicks": 112,
          "midi": 67,
          "name": "G4",
          "ticks": 15360,
          "time": 36.571392,
          "velocity": 1
        },
        {
          "duration": 0.18333315000000283,
          "durationTicks": 77,
          "midi": 43,
          "name": "G2",
          "ticks": 15555,
          "time": 37.035677250000006,
          "velocity": 1
        },
        {
          "duration": 0.14047604999999663,
          "durationTicks": 59,
          "midi": 59,
          "name": "B3",
          "ticks": 15555,
          "time": 37.035677250000006,
          "velocity": 1
        },
        {
          "duration": 0.14285699999999935,
          "durationTicks": 60,
          "midi": 62,
          "name": "D4",
          "ticks": 15555,
          "time": 37.035677250000006,
          "velocity": 1
        },
        {
          "duration": 0.152380799999996,
          "durationTicks": 64,
          "midi": 67,
          "name": "G4",
          "ticks": 15555,
          "time": 37.035677250000006,
          "velocity": 1
        },
        {
          "duration": 0.34761869999999817,
          "durationTicks": 146,
          "midi": 48,
          "name": "C3",
          "ticks": 15840,
          "time": 37.714248000000005,
          "velocity": 0.8188976377952756
        },
        {
          "duration": 0.1119046499999996,
          "durationTicks": 47,
          "midi": 60,
          "name": "C4",
          "ticks": 15840,
          "time": 37.714248000000005,
          "velocity": 0.6141732283464567
        },
        {
          "duration": 0.13809509999999392,
          "durationTicks": 58,
          "midi": 64,
          "name": "E4",
          "ticks": 15840,
          "time": 37.714248000000005,
          "velocity": 0.905511811023622
        },
        {
          "duration": 0.152380799999996,
          "durationTicks": 64,
          "midi": 67,
          "name": "G4",
          "ticks": 15840,
          "time": 37.714248000000005,
          "velocity": 0.952755905511811
        },
        {
          "duration": 0.08095229999999987,
          "durationTicks": 34,
          "midi": 60,
          "name": "C4",
          "ticks": 15960,
          "time": 37.999962000000004,
          "velocity": 0.5669291338582677
        },
        {
          "duration": 0.11190465000000671,
          "durationTicks": 47,
          "midi": 64,
          "name": "E4",
          "ticks": 15960,
          "time": 37.999962000000004,
          "velocity": 0.905511811023622
        },
        {
          "duration": 0.14285699999999935,
          "durationTicks": 60,
          "midi": 67,
          "name": "G4",
          "ticks": 15960,
          "time": 37.999962000000004,
          "velocity": 1
        },
        {
          "duration": 0.08571420000000529,
          "durationTicks": 36,
          "midi": 60,
          "name": "C4",
          "ticks": 16080,
          "time": 38.285676,
          "velocity": 0.5826771653543307
        },
        {
          "duration": 0.0904760999999965,
          "durationTicks": 38,
          "midi": 64,
          "name": "E4",
          "ticks": 16080,
          "time": 38.285676,
          "velocity": 0.952755905511811
        },
        {
          "duration": 0.1333332000000027,
          "durationTicks": 56,
          "midi": 67,
          "name": "G4",
          "ticks": 16080,
          "time": 38.285676,
          "velocity": 1
        },
        {
          "duration": 0.33809490000000153,
          "durationTicks": 142,
          "midi": 48,
          "name": "C3",
          "ticks": 16080,
          "time": 38.285676,
          "velocity": 0.6299212598425197
        },
        {
          "duration": 0.11190465000000671,
          "durationTicks": 47,
          "midi": 64,
          "name": "E4",
          "ticks": 16200,
          "time": 38.57139,
          "velocity": 0.952755905511811
        },
        {
          "duration": 0.09047610000000361,
          "durationTicks": 38,
          "midi": 60,
          "name": "C4",
          "ticks": 16200,
          "time": 38.57139,
          "velocity": 0.6299212598425197
        },
        {
          "duration": 0.14999984999999327,
          "durationTicks": 63,
          "midi": 67,
          "name": "G4",
          "ticks": 16202,
          "time": 38.576151900000006,
          "velocity": 1
        },
        {
          "duration": 0.07619040000000155,
          "durationTicks": 32,
          "midi": 58,
          "name": "A#3",
          "ticks": 16320,
          "time": 38.85710400000001,
          "velocity": 0.6141732283464567
        },
        {
          "duration": 0.43571384999999907,
          "durationTicks": 183,
          "midi": 48,
          "name": "C3",
          "ticks": 16320,
          "time": 38.85710400000001,
          "velocity": 0.5826771653543307
        },
        {
          "duration": 0.10238084999999586,
          "durationTicks": 43,
          "midi": 64,
          "name": "E4",
          "ticks": 16320,
          "time": 38.85710400000001,
          "velocity": 0.952755905511811
        },
        {
          "duration": 0.12380939999999896,
          "durationTicks": 52,
          "midi": 69,
          "name": "A4",
          "ticks": 16320,
          "time": 38.85710400000001,
          "velocity": 1
        },
        {
          "duration": 0.10952369999999689,
          "durationTicks": 46,
          "midi": 64,
          "name": "E4",
          "ticks": 16440,
          "time": 39.142818000000005,
          "velocity": 0.952755905511811
        },
        {
          "duration": 0.10476179999999857,
          "durationTicks": 44,
          "midi": 58,
          "name": "A#3",
          "ticks": 16440,
          "time": 39.142818000000005,
          "velocity": 0.6299212598425197
        },
        {
          "duration": 0.16666649999999805,
          "durationTicks": 70,
          "midi": 69,
          "name": "A4",
          "ticks": 16440,
          "time": 39.142818000000005,
          "velocity": 0.952755905511811
        },
        {
          "duration": 0.07619040000000155,
          "durationTicks": 32,
          "midi": 64,
          "name": "E4",
          "ticks": 16560,
          "time": 39.428532000000004,
          "velocity": 0.8582677165354331
        },
        {
          "duration": 0.08095229999999987,
          "durationTicks": 34,
          "midi": 58,
          "name": "A#3",
          "ticks": 16560,
          "time": 39.428532000000004,
          "velocity": 0.6141732283464567
        },
        {
          "duration": 0.12619035000000167,
          "durationTicks": 53,
          "midi": 69,
          "name": "A4",
          "ticks": 16561,
          "time": 39.43091295,
          "velocity": 0.952755905511811
        },
        {
          "duration": 0.10476179999999857,
          "durationTicks": 44,
          "midi": 69,
          "name": "A4",
          "ticks": 16673,
          "time": 39.697579350000005,
          "velocity": 0.905511811023622
        },
        {
          "duration": 0.08095229999999987,
          "durationTicks": 34,
          "midi": 64,
          "name": "E4",
          "ticks": 16680,
          "time": 39.714246,
          "velocity": 0.905511811023622
        },
        {
          "duration": 0.08333324999999547,
          "durationTicks": 35,
          "midi": 58,
          "name": "A#3",
          "ticks": 16680,
          "time": 39.714246,
          "velocity": 0.5984251968503937
        },
        {
          "duration": 0.3547615500000063,
          "durationTicks": 149,
          "midi": 53,
          "name": "F3",
          "ticks": 16800,
          "time": 39.99996,
          "velocity": 0.8188976377952756
        },
        {
          "duration": 0.06904755000000762,
          "durationTicks": 29,
          "midi": 57,
          "name": "A3",
          "ticks": 16920,
          "time": 40.285674,
          "velocity": 0.8188976377952756
        },
        {
          "duration": 0.09047610000000361,
          "durationTicks": 38,
          "midi": 60,
          "name": "C4",
          "ticks": 16920,
          "time": 40.285674,
          "velocity": 0.5984251968503937
        },
        {
          "duration": 0.09047610000000361,
          "durationTicks": 38,
          "midi": 65,
          "name": "F4",
          "ticks": 16920,
          "time": 40.285674,
          "velocity": 0.8188976377952756
        },
        {
          "duration": 0.2214283499999965,
          "durationTicks": 93,
          "midi": 57,
          "name": "A3",
          "ticks": 17040,
          "time": 40.571388000000006,
          "velocity": 0.7716535433070866
        },
        {
          "duration": 0.2428568999999925,
          "durationTicks": 102,
          "midi": 60,
          "name": "C4",
          "ticks": 17040,
          "time": 40.571388000000006,
          "velocity": 0.5511811023622047
        },
        {
          "duration": 0.24047594999999689,
          "durationTicks": 101,
          "midi": 65,
          "name": "F4",
          "ticks": 17040,
          "time": 40.571388000000006,
          "velocity": 0.7716535433070866
        },
        {
          "duration": 0.5428566000000004,
          "durationTicks": 228,
          "midi": 48,
          "name": "C3",
          "ticks": 17040,
          "time": 40.571388000000006,
          "velocity": 0.7716535433070866
        },
        {
          "duration": 0.39047580000000437,
          "durationTicks": 164,
          "midi": 53,
          "name": "F3",
          "ticks": 17280,
          "time": 41.142816,
          "velocity": 0.7716535433070866
        },
        {
          "duration": 0.14047605000000374,
          "durationTicks": 59,
          "midi": 60,
          "name": "C4",
          "ticks": 17280,
          "time": 41.142816,
          "velocity": 0.6141732283464567
        },
        {
          "duration": 0.14047605000000374,
          "durationTicks": 59,
          "midi": 57,
          "name": "A3",
          "ticks": 17280,
          "time": 41.142816,
          "velocity": 0.8582677165354331
        },
        {
          "duration": 0.14047605000000374,
          "durationTicks": 59,
          "midi": 65,
          "name": "F4",
          "ticks": 17280,
          "time": 41.142816,
          "velocity": 0.8188976377952756
        },
        {
          "duration": 0.040476150000003486,
          "durationTicks": 17,
          "midi": 57,
          "name": "A3",
          "ticks": 17355,
          "time": 41.32138725,
          "velocity": 0.7086614173228346
        },
        {
          "duration": 0.05714280000000116,
          "durationTicks": 24,
          "midi": 60,
          "name": "C4",
          "ticks": 17355,
          "time": 41.32138725,
          "velocity": 0.6929133858267716
        },
        {
          "duration": 0.05714280000000116,
          "durationTicks": 24,
          "midi": 65,
          "name": "F4",
          "ticks": 17355,
          "time": 41.32138725,
          "velocity": 0.7244094488188977
        },
        {
          "duration": 0.12380939999999896,
          "durationTicks": 52,
          "midi": 65,
          "name": "F4",
          "ticks": 17475,
          "time": 41.60710125000001,
          "velocity": 0.905511811023622
        },
        {
          "duration": 0.10476179999999857,
          "durationTicks": 44,
          "midi": 57,
          "name": "A3",
          "ticks": 17475,
          "time": 41.60710125000001,
          "velocity": 0.8188976377952756
        },
        {
          "duration": 0.10476179999999857,
          "durationTicks": 44,
          "midi": 60,
          "name": "C4",
          "ticks": 17475,
          "time": 41.60710125000001,
          "velocity": 0.5984251968503937
        },
        {
          "duration": 0.23809500000000838,
          "durationTicks": 100,
          "midi": 48,
          "name": "C3",
          "ticks": 17520,
          "time": 41.714244,
          "velocity": 0.8188976377952756
        },
        {
          "duration": 0.07142849999999612,
          "durationTicks": 30,
          "midi": 57,
          "name": "A3",
          "ticks": 17595,
          "time": 41.892815250000005,
          "velocity": 0.8582677165354331
        },
        {
          "duration": 0.07380944999999883,
          "durationTicks": 31,
          "midi": 60,
          "name": "C4",
          "ticks": 17595,
          "time": 41.892815250000005,
          "velocity": 0.5984251968503937
        },
        {
          "duration": 0.07380944999999883,
          "durationTicks": 31,
          "midi": 65,
          "name": "F4",
          "ticks": 17595,
          "time": 41.892815250000005,
          "velocity": 0.905511811023622
        },
        {
          "duration": 0.24761879999999792,
          "durationTicks": 104,
          "midi": 47,
          "name": "B2",
          "ticks": 17640,
          "time": 41.99995800000001,
          "velocity": 0.7716535433070866
        },
        {
          "duration": 0.38333294999999623,
          "durationTicks": 161,
          "midi": 46,
          "name": "A#2",
          "ticks": 17760,
          "time": 42.285672000000005,
          "velocity": 0.8188976377952756
        },
        {
          "duration": 0.14047605000000374,
          "durationTicks": 59,
          "midi": 58,
          "name": "A#3",
          "ticks": 17880,
          "time": 42.571386000000004,
          "velocity": 0.6771653543307087
        },
        {
          "duration": 0.14047605000000374,
          "durationTicks": 59,
          "midi": 62,
          "name": "D4",
          "ticks": 17880,
          "time": 42.571386000000004,
          "velocity": 0.7716535433070866
        },
        {
          "duration": 0.14047605000000374,
          "durationTicks": 59,
          "midi": 65,
          "name": "F4",
          "ticks": 17880,
          "time": 42.571386000000004,
          "velocity": 0.7716535433070866
        },
        {
          "duration": 0.34047584999999714,
          "durationTicks": 143,
          "midi": 41,
          "name": "F2",
          "ticks": 18000,
          "time": 42.8571,
          "velocity": 0.905511811023622
        },
        {
          "duration": 0.22857120000000464,
          "durationTicks": 96,
          "midi": 58,
          "name": "A#3",
          "ticks": 18120,
          "time": 43.142814,
          "velocity": 0.6299212598425197
        },
        {
          "duration": 0.25714260000000166,
          "durationTicks": 108,
          "midi": 62,
          "name": "D4",
          "ticks": 18120,
          "time": 43.142814,
          "velocity": 0.7716535433070866
        },
        {
          "duration": 0.2238092999999992,
          "durationTicks": 94,
          "midi": 65,
          "name": "F4",
          "ticks": 18120,
          "time": 43.142814,
          "velocity": 0.7244094488188977
        },
        {
          "duration": 0.3309520500000005,
          "durationTicks": 139,
          "midi": 46,
          "name": "A#2",
          "ticks": 18240,
          "time": 43.428528,
          "velocity": 0.7716535433070866
        },
        {
          "duration": 0.06190469999999948,
          "durationTicks": 26,
          "midi": 58,
          "name": "A#3",
          "ticks": 18360,
          "time": 43.714242000000006,
          "velocity": 0.5984251968503937
        },
        {
          "duration": 0.0880951500000009,
          "durationTicks": 37,
          "midi": 62,
          "name": "D4",
          "ticks": 18360,
          "time": 43.714242000000006,
          "velocity": 0.6771653543307087
        },
        {
          "duration": 0.08095229999999987,
          "durationTicks": 34,
          "midi": 65,
          "name": "F4",
          "ticks": 18360,
          "time": 43.714242000000006,
          "velocity": 0.6771653543307087
        },
        {
          "duration": 0.09999990000000025,
          "durationTicks": 42,
          "midi": 58,
          "name": "A#3",
          "ticks": 18435,
          "time": 43.89281325,
          "velocity": 0.5039370078740157
        },
        {
          "duration": 0.09999990000000025,
          "durationTicks": 42,
          "midi": 53,
          "name": "F3",
          "ticks": 18435,
          "time": 43.89281325,
          "velocity": 0.6299212598425197
        },
        {
          "duration": 0.11190465000000671,
          "durationTicks": 47,
          "midi": 62,
          "name": "D4",
          "ticks": 18435,
          "time": 43.89281325,
          "velocity": 0.7244094488188977
        },
        {
          "duration": 0.18809505000000115,
          "durationTicks": 79,
          "midi": 41,
          "name": "F2",
          "ticks": 18480,
          "time": 43.999956000000005,
          "velocity": 0.905511811023622
        },
        {
          "duration": 0.07380944999999883,
          "durationTicks": 31,
          "midi": 53,
          "name": "F3",
          "ticks": 18555,
          "time": 44.17852725,
          "velocity": 0.7401574803149606
        },
        {
          "duration": 0.07142850000000323,
          "durationTicks": 30,
          "midi": 58,
          "name": "A#3",
          "ticks": 18555,
          "time": 44.17852725,
          "velocity": 0.7086614173228346
        },
        {
          "duration": 0.10238084999999586,
          "durationTicks": 43,
          "midi": 62,
          "name": "D4",
          "ticks": 18555,
          "time": 44.17852725,
          "velocity": 0.8346456692913385
        },
        {
          "duration": 0.10238084999999586,
          "durationTicks": 43,
          "midi": 46,
          "name": "A#2",
          "ticks": 18600,
          "time": 44.28567,
          "velocity": 0.6299212598425197
        },
        {
          "duration": 0.3547615500000063,
          "durationTicks": 149,
          "midi": 53,
          "name": "F3",
          "ticks": 18720,
          "time": 44.571384,
          "velocity": 0.8188976377952756
        },
        {
          "duration": 0.06904755000000762,
          "durationTicks": 29,
          "midi": 57,
          "name": "A3",
          "ticks": 18840,
          "time": 44.857098,
          "velocity": 0.8188976377952756
        },
        {
          "duration": 0.09047610000000361,
          "durationTicks": 38,
          "midi": 60,
          "name": "C4",
          "ticks": 18840,
          "time": 44.857098,
          "velocity": 0.5984251968503937
        },
        {
          "duration": 0.09047610000000361,
          "durationTicks": 38,
          "midi": 65,
          "name": "F4",
          "ticks": 18840,
          "time": 44.857098,
          "velocity": 0.8188976377952756
        },
        {
          "duration": 0.2214283499999965,
          "durationTicks": 93,
          "midi": 57,
          "name": "A3",
          "ticks": 18960,
          "time": 45.142812000000006,
          "velocity": 0.7716535433070866
        },
        {
          "duration": 0.2428568999999925,
          "durationTicks": 102,
          "midi": 60,
          "name": "C4",
          "ticks": 18960,
          "time": 45.142812000000006,
          "velocity": 0.5511811023622047
        },
        {
          "duration": 0.24047594999999689,
          "durationTicks": 101,
          "midi": 65,
          "name": "F4",
          "ticks": 18960,
          "time": 45.142812000000006,
          "velocity": 0.7716535433070866
        },
        {
          "duration": 0.5428566000000004,
          "durationTicks": 228,
          "midi": 48,
          "name": "C3",
          "ticks": 18960,
          "time": 45.142812000000006,
          "velocity": 0.7716535433070866
        },
        {
          "duration": 0.39047580000000437,
          "durationTicks": 164,
          "midi": 53,
          "name": "F3",
          "ticks": 19200,
          "time": 45.714240000000004,
          "velocity": 0.7716535433070866
        },
        {
          "duration": 0.14047605000000374,
          "durationTicks": 59,
          "midi": 60,
          "name": "C4",
          "ticks": 19200,
          "time": 45.714240000000004,
          "velocity": 0.6141732283464567
        },
        {
          "duration": 0.14047605000000374,
          "durationTicks": 59,
          "midi": 57,
          "name": "A3",
          "ticks": 19200,
          "time": 45.714240000000004,
          "velocity": 0.8582677165354331
        },
        {
          "duration": 0.14047605000000374,
          "durationTicks": 59,
          "midi": 65,
          "name": "F4",
          "ticks": 19200,
          "time": 45.714240000000004,
          "velocity": 0.8188976377952756
        },
        {
          "duration": 0.040476150000003486,
          "durationTicks": 17,
          "midi": 57,
          "name": "A3",
          "ticks": 19275,
          "time": 45.89281125,
          "velocity": 0.7086614173228346
        },
        {
          "duration": 0.05714280000000116,
          "durationTicks": 24,
          "midi": 60,
          "name": "C4",
          "ticks": 19275,
          "time": 45.89281125,
          "velocity": 0.6929133858267716
        },
        {
          "duration": 0.05714280000000116,
          "durationTicks": 24,
          "midi": 65,
          "name": "F4",
          "ticks": 19275,
          "time": 45.89281125,
          "velocity": 0.7244094488188977
        },
        {
          "duration": 0.12380939999999896,
          "durationTicks": 52,
          "midi": 65,
          "name": "F4",
          "ticks": 19395,
          "time": 46.17852525000001,
          "velocity": 0.905511811023622
        },
        {
          "duration": 0.10476179999999857,
          "durationTicks": 44,
          "midi": 57,
          "name": "A3",
          "ticks": 19395,
          "time": 46.17852525000001,
          "velocity": 0.8188976377952756
        },
        {
          "duration": 0.10476179999999857,
          "durationTicks": 44,
          "midi": 60,
          "name": "C4",
          "ticks": 19395,
          "time": 46.17852525000001,
          "velocity": 0.5984251968503937
        },
        {
          "duration": 0.23809500000000838,
          "durationTicks": 100,
          "midi": 48,
          "name": "C3",
          "ticks": 19440,
          "time": 46.285668,
          "velocity": 0.8188976377952756
        },
        {
          "duration": 0.07142849999999612,
          "durationTicks": 30,
          "midi": 57,
          "name": "A3",
          "ticks": 19515,
          "time": 46.464239250000006,
          "velocity": 0.8582677165354331
        },
        {
          "duration": 0.07380944999999883,
          "durationTicks": 31,
          "midi": 60,
          "name": "C4",
          "ticks": 19515,
          "time": 46.464239250000006,
          "velocity": 0.5984251968503937
        },
        {
          "duration": 0.07380944999999883,
          "durationTicks": 31,
          "midi": 65,
          "name": "F4",
          "ticks": 19515,
          "time": 46.464239250000006,
          "velocity": 0.905511811023622
        },
        {
          "duration": 0.24761879999999792,
          "durationTicks": 104,
          "midi": 47,
          "name": "B2",
          "ticks": 19560,
          "time": 46.57138200000001,
          "velocity": 0.7716535433070866
        },
        {
          "duration": 0.6119041500000009,
          "durationTicks": 257,
          "midi": 46,
          "name": "A#2",
          "ticks": 19680,
          "time": 46.857096000000006,
          "velocity": 0.7244094488188977
        },
        {
          "duration": 0.12380939999999896,
          "durationTicks": 52,
          "midi": 58,
          "name": "A#3",
          "ticks": 19800,
          "time": 47.142810000000004,
          "velocity": 0.7086614173228346
        },
        {
          "duration": 0.10714275000000129,
          "durationTicks": 45,
          "midi": 62,
          "name": "D4",
          "ticks": 19800,
          "time": 47.142810000000004,
          "velocity": 0.7244094488188977
        },
        {
          "duration": 0.11428560000000232,
          "durationTicks": 48,
          "midi": 65,
          "name": "F4",
          "ticks": 19800,
          "time": 47.142810000000004,
          "velocity": 0.8188976377952756
        },
        {
          "duration": 0.06428565000000219,
          "durationTicks": 27,
          "midi": 70,
          "name": "A#4",
          "ticks": 19920,
          "time": 47.428524,
          "velocity": 0.8503937007874016
        },
        {
          "duration": 0.06904755000000051,
          "durationTicks": 29,
          "midi": 65,
          "name": "F4",
          "ticks": 19920,
          "time": 47.428524,
          "velocity": 0.905511811023622
        },
        {
          "duration": 0.04999995000000723,
          "durationTicks": 21,
          "midi": 62,
          "name": "D4",
          "ticks": 19920,
          "time": 47.428524,
          "velocity": 0.7716535433070866
        },
        {
          "duration": 0.5738089500000001,
          "durationTicks": 241,
          "midi": 53,
          "name": "F3",
          "ticks": 19926,
          "time": 47.442809700000005,
          "velocity": 1
        },
        {
          "duration": 0.07619040000000865,
          "durationTicks": 32,
          "midi": 62,
          "name": "D4",
          "ticks": 19995,
          "time": 47.60709525,
          "velocity": 0.7244094488188977
        },
        {
          "duration": 0.06904755000000762,
          "durationTicks": 29,
          "midi": 65,
          "name": "F4",
          "ticks": 19995,
          "time": 47.60709525,
          "velocity": 0.905511811023622
        },
        {
          "duration": 0.0666665999999978,
          "durationTicks": 28,
          "midi": 70,
          "name": "A#4",
          "ticks": 19995,
          "time": 47.60709525,
          "velocity": 0.8740157480314961
        },
        {
          "duration": 0.08095229999999987,
          "durationTicks": 34,
          "midi": 69,
          "name": "A4",
          "ticks": 20115,
          "time": 47.892809250000006,
          "velocity": 0.952755905511811
        },
        {
          "duration": 0.08571419999999819,
          "durationTicks": 36,
          "midi": 65,
          "name": "F4",
          "ticks": 20115,
          "time": 47.892809250000006,
          "velocity": 0.8188976377952756
        },
        {
          "duration": 0.07857134999999715,
          "durationTicks": 33,
          "midi": 60,
          "name": "C4",
          "ticks": 20115,
          "time": 47.892809250000006,
          "velocity": 0.7716535433070866
        },
        {
          "duration": 0.283333049999996,
          "durationTicks": 119,
          "midi": 41,
          "name": "F2",
          "ticks": 20160,
          "time": 47.99995200000001,
          "velocity": 0.7244094488188977
        },
        {
          "duration": 0.2833330500000031,
          "durationTicks": 119,
          "midi": 45,
          "name": "A2",
          "ticks": 20280,
          "time": 48.285666000000006,
          "velocity": 0.7244094488188977
        },
        {
          "duration": 0.2833330500000031,
          "durationTicks": 119,
          "midi": 48,
          "name": "C3",
          "ticks": 20400,
          "time": 48.571380000000005,
          "velocity": 0.8267716535433071
        },
        {
          "duration": 0.2833330500000031,
          "durationTicks": 119,
          "midi": 51,
          "name": "D#3",
          "ticks": 20520,
          "time": 48.857094000000004,
          "velocity": 0.7480314960629921
        },
        {
          "duration": 0.3547615500000063,
          "durationTicks": 149,
          "midi": 53,
          "name": "F3",
          "ticks": 20640,
          "time": 49.142808,
          "velocity": 0.8188976377952756
        },
        {
          "duration": 0.06904755000000762,
          "durationTicks": 29,
          "midi": 57,
          "name": "A3",
          "ticks": 20760,
          "time": 49.428522,
          "velocity": 0.8188976377952756
        },
        {
          "duration": 0.09047610000000361,
          "durationTicks": 38,
          "midi": 60,
          "name": "C4",
          "ticks": 20760,
          "time": 49.428522,
          "velocity": 0.5984251968503937
        },
        {
          "duration": 0.09047610000000361,
          "durationTicks": 38,
          "midi": 65,
          "name": "F4",
          "ticks": 20760,
          "time": 49.428522,
          "velocity": 0.8188976377952756
        },
        {
          "duration": 0.2214283499999965,
          "durationTicks": 93,
          "midi": 57,
          "name": "A3",
          "ticks": 20880,
          "time": 49.71423600000001,
          "velocity": 0.7716535433070866
        },
        {
          "duration": 0.2428568999999925,
          "durationTicks": 102,
          "midi": 60,
          "name": "C4",
          "ticks": 20880,
          "time": 49.71423600000001,
          "velocity": 0.5511811023622047
        },
        {
          "duration": 0.24047594999999689,
          "durationTicks": 101,
          "midi": 65,
          "name": "F4",
          "ticks": 20880,
          "time": 49.71423600000001,
          "velocity": 0.7716535433070866
        },
        {
          "duration": 0.5428566000000004,
          "durationTicks": 228,
          "midi": 48,
          "name": "C3",
          "ticks": 20880,
          "time": 49.71423600000001,
          "velocity": 0.7716535433070866
        },
        {
          "duration": 0.39047580000000437,
          "durationTicks": 164,
          "midi": 53,
          "name": "F3",
          "ticks": 21120,
          "time": 50.285664000000004,
          "velocity": 0.7716535433070866
        },
        {
          "duration": 0.14047605000000374,
          "durationTicks": 59,
          "midi": 60,
          "name": "C4",
          "ticks": 21120,
          "time": 50.285664000000004,
          "velocity": 0.6141732283464567
        },
        {
          "duration": 0.14047605000000374,
          "durationTicks": 59,
          "midi": 57,
          "name": "A3",
          "ticks": 21120,
          "time": 50.285664000000004,
          "velocity": 0.8582677165354331
        },
        {
          "duration": 0.14047605000000374,
          "durationTicks": 59,
          "midi": 65,
          "name": "F4",
          "ticks": 21120,
          "time": 50.285664000000004,
          "velocity": 0.8188976377952756
        },
        {
          "duration": 0.040476150000003486,
          "durationTicks": 17,
          "midi": 57,
          "name": "A3",
          "ticks": 21195,
          "time": 50.46423525,
          "velocity": 0.7086614173228346
        },
        {
          "duration": 0.05714280000000116,
          "durationTicks": 24,
          "midi": 60,
          "name": "C4",
          "ticks": 21195,
          "time": 50.46423525,
          "velocity": 0.6929133858267716
        },
        {
          "duration": 0.05714280000000116,
          "durationTicks": 24,
          "midi": 65,
          "name": "F4",
          "ticks": 21195,
          "time": 50.46423525,
          "velocity": 0.7244094488188977
        },
        {
          "duration": 0.12380939999999896,
          "durationTicks": 52,
          "midi": 65,
          "name": "F4",
          "ticks": 21315,
          "time": 50.74994925000001,
          "velocity": 0.905511811023622
        },
        {
          "duration": 0.10476179999999857,
          "durationTicks": 44,
          "midi": 57,
          "name": "A3",
          "ticks": 21315,
          "time": 50.74994925000001,
          "velocity": 0.8188976377952756
        },
        {
          "duration": 0.10476179999999857,
          "durationTicks": 44,
          "midi": 60,
          "name": "C4",
          "ticks": 21315,
          "time": 50.74994925000001,
          "velocity": 0.5984251968503937
        },
        {
          "duration": 0.23809500000000838,
          "durationTicks": 100,
          "midi": 48,
          "name": "C3",
          "ticks": 21360,
          "time": 50.857092,
          "velocity": 0.8188976377952756
        },
        {
          "duration": 0.07142849999999612,
          "durationTicks": 30,
          "midi": 57,
          "name": "A3",
          "ticks": 21435,
          "time": 51.035663250000006,
          "velocity": 0.8582677165354331
        },
        {
          "duration": 0.07380944999999883,
          "durationTicks": 31,
          "midi": 60,
          "name": "C4",
          "ticks": 21435,
          "time": 51.035663250000006,
          "velocity": 0.5984251968503937
        },
        {
          "duration": 0.07380944999999883,
          "durationTicks": 31,
          "midi": 65,
          "name": "F4",
          "ticks": 21435,
          "time": 51.035663250000006,
          "velocity": 0.905511811023622
        },
        {
          "duration": 0.24761879999999792,
          "durationTicks": 104,
          "midi": 47,
          "name": "B2",
          "ticks": 21480,
          "time": 51.14280600000001,
          "velocity": 0.7716535433070866
        },
        {
          "duration": 0.38333294999999623,
          "durationTicks": 161,
          "midi": 46,
          "name": "A#2",
          "ticks": 21600,
          "time": 51.428520000000006,
          "velocity": 0.8188976377952756
        },
        {
          "duration": 0.14047605000000374,
          "durationTicks": 59,
          "midi": 58,
          "name": "A#3",
          "ticks": 21720,
          "time": 51.714234000000005,
          "velocity": 0.6771653543307087
        },
        {
          "duration": 0.14047605000000374,
          "durationTicks": 59,
          "midi": 62,
          "name": "D4",
          "ticks": 21720,
          "time": 51.714234000000005,
          "velocity": 0.7716535433070866
        },
        {
          "duration": 0.14047605000000374,
          "durationTicks": 59,
          "midi": 65,
          "name": "F4",
          "ticks": 21720,
          "time": 51.714234000000005,
          "velocity": 0.7716535433070866
        },
        {
          "duration": 0.2238092999999992,
          "durationTicks": 94,
          "midi": 53,
          "name": "F3",
          "ticks": 21840,
          "time": 51.999948,
          "velocity": 0.6456692913385826
        },
        {
          "duration": 0.22857120000000464,
          "durationTicks": 96,
          "midi": 58,
          "name": "A#3",
          "ticks": 21840,
          "time": 51.999948,
          "velocity": 0.6299212598425197
        },
        {
          "duration": 0.25714260000000166,
          "durationTicks": 108,
          "midi": 62,
          "name": "D4",
          "ticks": 21840,
          "time": 51.999948,
          "velocity": 0.7716535433070866
        },
        {
          "duration": 0.34047584999999714,
          "durationTicks": 143,
          "midi": 41,
          "name": "F2",
          "ticks": 21840,
          "time": 51.999948,
          "velocity": 0.905511811023622
        },
        {
          "duration": 0.22857120000000464,
          "durationTicks": 96,
          "midi": 50,
          "name": "D3",
          "ticks": 21960,
          "time": 52.285662,
          "velocity": 0.6299212598425197
        },
        {
          "duration": 0.22857120000000464,
          "durationTicks": 96,
          "midi": 58,
          "name": "A#3",
          "ticks": 22080,
          "time": 52.571376,
          "velocity": 0.7874015748031497
        },
        {
          "duration": 0.22857120000000464,
          "durationTicks": 96,
          "midi": 65,
          "name": "F4",
          "ticks": 22080,
          "time": 52.571376,
          "velocity": 0.7874015748031497
        },
        {
          "duration": 0.3309520500000005,
          "durationTicks": 139,
          "midi": 46,
          "name": "A#2",
          "ticks": 22080,
          "time": 52.571376,
          "velocity": 0.7716535433070866
        },
        {
          "duration": 0.06190469999999948,
          "durationTicks": 26,
          "midi": 58,
          "name": "A#3",
          "ticks": 22200,
          "time": 52.85709000000001,
          "velocity": 0.5984251968503937
        },
        {
          "duration": 0.0880951500000009,
          "durationTicks": 37,
          "midi": 62,
          "name": "D4",
          "ticks": 22200,
          "time": 52.85709000000001,
          "velocity": 0.6771653543307087
        },
        {
          "duration": 0.08095229999999987,
          "durationTicks": 34,
          "midi": 65,
          "name": "F4",
          "ticks": 22200,
          "time": 52.85709000000001,
          "velocity": 0.6771653543307087
        },
        {
          "duration": 0.09999990000000025,
          "durationTicks": 42,
          "midi": 58,
          "name": "A#3",
          "ticks": 22275,
          "time": 53.035661250000004,
          "velocity": 0.5039370078740157
        },
        {
          "duration": 0.09999990000000025,
          "durationTicks": 42,
          "midi": 53,
          "name": "F3",
          "ticks": 22275,
          "time": 53.035661250000004,
          "velocity": 0.6299212598425197
        },
        {
          "duration": 0.11190465000000671,
          "durationTicks": 47,
          "midi": 62,
          "name": "D4",
          "ticks": 22275,
          "time": 53.035661250000004,
          "velocity": 0.7244094488188977
        },
        {
          "duration": 0.18809505000000115,
          "durationTicks": 79,
          "midi": 41,
          "name": "F2",
          "ticks": 22320,
          "time": 53.142804000000005,
          "velocity": 0.905511811023622
        },
        {
          "duration": 0.07380944999999883,
          "durationTicks": 31,
          "midi": 53,
          "name": "F3",
          "ticks": 22395,
          "time": 53.32137525,
          "velocity": 0.7401574803149606
        },
        {
          "duration": 0.07142850000000323,
          "durationTicks": 30,
          "midi": 58,
          "name": "A#3",
          "ticks": 22395,
          "time": 53.32137525,
          "velocity": 0.7086614173228346
        },
        {
          "duration": 0.10238084999999586,
          "durationTicks": 43,
          "midi": 62,
          "name": "D4",
          "ticks": 22395,
          "time": 53.32137525,
          "velocity": 0.8346456692913385
        },
        {
          "duration": 0.10238084999999586,
          "durationTicks": 43,
          "midi": 46,
          "name": "A#2",
          "ticks": 22440,
          "time": 53.428518000000004,
          "velocity": 0.6299212598425197
        },
        {
          "duration": 0.3547615500000063,
          "durationTicks": 149,
          "midi": 53,
          "name": "F3",
          "ticks": 22560,
          "time": 53.714232,
          "velocity": 0.8188976377952756
        },
        {
          "duration": 0.06904755000000762,
          "durationTicks": 29,
          "midi": 57,
          "name": "A3",
          "ticks": 22680,
          "time": 53.999946,
          "velocity": 0.8188976377952756
        },
        {
          "duration": 0.09047610000000361,
          "durationTicks": 38,
          "midi": 60,
          "name": "C4",
          "ticks": 22680,
          "time": 53.999946,
          "velocity": 0.5984251968503937
        },
        {
          "duration": 0.09047610000000361,
          "durationTicks": 38,
          "midi": 65,
          "name": "F4",
          "ticks": 22680,
          "time": 53.999946,
          "velocity": 0.8188976377952756
        },
        {
          "duration": 0.2214283499999965,
          "durationTicks": 93,
          "midi": 57,
          "name": "A3",
          "ticks": 22800,
          "time": 54.28566000000001,
          "velocity": 0.7716535433070866
        },
        {
          "duration": 0.2428568999999925,
          "durationTicks": 102,
          "midi": 60,
          "name": "C4",
          "ticks": 22800,
          "time": 54.28566000000001,
          "velocity": 0.5511811023622047
        },
        {
          "duration": 0.24047594999999689,
          "durationTicks": 101,
          "midi": 65,
          "name": "F4",
          "ticks": 22800,
          "time": 54.28566000000001,
          "velocity": 0.7716535433070866
        },
        {
          "duration": 0.5428566000000004,
          "durationTicks": 228,
          "midi": 48,
          "name": "C3",
          "ticks": 22800,
          "time": 54.28566000000001,
          "velocity": 0.7716535433070866
        },
        {
          "duration": 0.39047580000000437,
          "durationTicks": 164,
          "midi": 53,
          "name": "F3",
          "ticks": 23040,
          "time": 54.857088000000005,
          "velocity": 0.7716535433070866
        },
        {
          "duration": 0.14047605000000374,
          "durationTicks": 59,
          "midi": 60,
          "name": "C4",
          "ticks": 23040,
          "time": 54.857088000000005,
          "velocity": 0.6141732283464567
        },
        {
          "duration": 0.14047605000000374,
          "durationTicks": 59,
          "midi": 57,
          "name": "A3",
          "ticks": 23040,
          "time": 54.857088000000005,
          "velocity": 0.8582677165354331
        },
        {
          "duration": 0.14047605000000374,
          "durationTicks": 59,
          "midi": 65,
          "name": "F4",
          "ticks": 23040,
          "time": 54.857088000000005,
          "velocity": 0.8188976377952756
        },
        {
          "duration": 0.040476150000003486,
          "durationTicks": 17,
          "midi": 57,
          "name": "A3",
          "ticks": 23115,
          "time": 55.03565925,
          "velocity": 0.7086614173228346
        },
        {
          "duration": 0.05714280000000116,
          "durationTicks": 24,
          "midi": 60,
          "name": "C4",
          "ticks": 23115,
          "time": 55.03565925,
          "velocity": 0.6929133858267716
        },
        {
          "duration": 0.05714280000000116,
          "durationTicks": 24,
          "midi": 65,
          "name": "F4",
          "ticks": 23115,
          "time": 55.03565925,
          "velocity": 0.7244094488188977
        },
        {
          "duration": 0.12380939999999896,
          "durationTicks": 52,
          "midi": 65,
          "name": "F4",
          "ticks": 23235,
          "time": 55.32137325000001,
          "velocity": 0.905511811023622
        },
        {
          "duration": 0.10476179999999857,
          "durationTicks": 44,
          "midi": 57,
          "name": "A3",
          "ticks": 23235,
          "time": 55.32137325000001,
          "velocity": 0.8188976377952756
        },
        {
          "duration": 0.10476179999999857,
          "durationTicks": 44,
          "midi": 60,
          "name": "C4",
          "ticks": 23235,
          "time": 55.32137325000001,
          "velocity": 0.5984251968503937
        },
        {
          "duration": 0.23809500000000838,
          "durationTicks": 100,
          "midi": 48,
          "name": "C3",
          "ticks": 23280,
          "time": 55.428516,
          "velocity": 0.8188976377952756
        },
        {
          "duration": 0.07142849999999612,
          "durationTicks": 30,
          "midi": 57,
          "name": "A3",
          "ticks": 23355,
          "time": 55.607087250000006,
          "velocity": 0.8582677165354331
        },
        {
          "duration": 0.07380944999999883,
          "durationTicks": 31,
          "midi": 60,
          "name": "C4",
          "ticks": 23355,
          "time": 55.607087250000006,
          "velocity": 0.5984251968503937
        },
        {
          "duration": 0.07380944999999883,
          "durationTicks": 31,
          "midi": 65,
          "name": "F4",
          "ticks": 23355,
          "time": 55.607087250000006,
          "velocity": 0.905511811023622
        },
        {
          "duration": 0.24761879999999792,
          "durationTicks": 104,
          "midi": 47,
          "name": "B2",
          "ticks": 23400,
          "time": 55.71423000000001,
          "velocity": 0.7716535433070866
        },
        {
          "duration": 0.14047605000000374,
          "durationTicks": 59,
          "midi": 53,
          "name": "F3",
          "ticks": 23520,
          "time": 55.999944000000006,
          "velocity": 0.7874015748031497
        },
        {
          "duration": 0.6119041500000009,
          "durationTicks": 257,
          "midi": 46,
          "name": "A#2",
          "ticks": 23520,
          "time": 55.999944000000006,
          "velocity": 0.7244094488188977
        },
        {
          "duration": 0.12380939999999896,
          "durationTicks": 52,
          "midi": 58,
          "name": "A#3",
          "ticks": 23595,
          "time": 56.178515250000004,
          "velocity": 0.7874015748031497
        },
        {
          "duration": 0.1761903000000018,
          "durationTicks": 74,
          "midi": 62,
          "name": "D4",
          "ticks": 23640,
          "time": 56.285658000000005,
          "velocity": 0.8031496062992126
        },
        {
          "duration": 0.11428560000000232,
          "durationTicks": 48,
          "midi": 67,
          "name": "G4",
          "ticks": 23715,
          "time": 56.46422925,
          "velocity": 0.8188976377952756
        },
        {
          "duration": 0.06428565000000219,
          "durationTicks": 27,
          "midi": 70,
          "name": "A#4",
          "ticks": 23760,
          "time": 56.571372000000004,
          "velocity": 0.7716535433070866
        },
        {
          "duration": 0.06904755000000051,
          "durationTicks": 29,
          "midi": 65,
          "name": "F4",
          "ticks": 23760,
          "time": 56.571372000000004,
          "velocity": 0.8267716535433071
        },
        {
          "duration": 0.04999995000000723,
          "durationTicks": 21,
          "midi": 62,
          "name": "D4",
          "ticks": 23760,
          "time": 56.571372000000004,
          "velocity": 0.6929133858267716
        },
        {
          "duration": 0.5738089500000001,
          "durationTicks": 241,
          "midi": 53,
          "name": "F3",
          "ticks": 23766,
          "time": 56.585657700000006,
          "velocity": 1
        },
        {
          "duration": 0.07619040000000865,
          "durationTicks": 32,
          "midi": 62,
          "name": "D4",
          "ticks": 23835,
          "time": 56.74994325,
          "velocity": 0.6456692913385826
        },
        {
          "duration": 0.06904755000000762,
          "durationTicks": 29,
          "midi": 65,
          "name": "F4",
          "ticks": 23835,
          "time": 56.74994325,
          "velocity": 0.8267716535433071
        },
        {
          "duration": 0.0666665999999978,
          "durationTicks": 28,
          "midi": 70,
          "name": "A#4",
          "ticks": 23835,
          "time": 56.74994325,
          "velocity": 0.7952755905511811
        },
        {
          "duration": 0.08095229999999987,
          "durationTicks": 34,
          "midi": 69,
          "name": "A4",
          "ticks": 23955,
          "time": 57.03565725000001,
          "velocity": 0.952755905511811
        },
        {
          "duration": 0.08571419999999819,
          "durationTicks": 36,
          "midi": 65,
          "name": "F4",
          "ticks": 23955,
          "time": 57.03565725000001,
          "velocity": 0.8188976377952756
        },
        {
          "duration": 0.07857134999999715,
          "durationTicks": 33,
          "midi": 60,
          "name": "C4",
          "ticks": 23955,
          "time": 57.03565725000001,
          "velocity": 0.7716535433070866
        },
        {
          "duration": 0.283333049999996,
          "durationTicks": 119,
          "midi": 41,
          "name": "F2",
          "ticks": 24000,
          "time": 57.14280000000001,
          "velocity": 0.7244094488188977
        },
        {
          "duration": 0.13571415000000542,
          "durationTicks": 57,
          "midi": 69,
          "name": "A4",
          "ticks": 24073,
          "time": 57.31660935,
          "velocity": 0.7559055118110236
        },
        {
          "duration": 0.12619035000000167,
          "durationTicks": 53,
          "midi": 72,
          "name": "C5",
          "ticks": 24098,
          "time": 57.376133100000004,
          "velocity": 0.7086614173228346
        },
        {
          "duration": 0.29523779999999533,
          "durationTicks": 124,
          "midi": 77,
          "name": "F5",
          "ticks": 24120,
          "time": 57.42851400000001,
          "velocity": 0.937007874015748
        },
        {
          "duration": 0.2833330500000031,
          "durationTicks": 119,
          "midi": 45,
          "name": "A2",
          "ticks": 24120,
          "time": 57.42851400000001,
          "velocity": 0.7244094488188977
        },
        {
          "duration": 0.1571427000000014,
          "durationTicks": 66,
          "midi": 75,
          "name": "D#5",
          "ticks": 24195,
          "time": 57.607085250000004,
          "velocity": 0.8818897637795275
        },
        {
          "duration": 0.2833330500000031,
          "durationTicks": 119,
          "midi": 48,
          "name": "C3",
          "ticks": 24240,
          "time": 57.714228000000006,
          "velocity": 0.8267716535433071
        },
        {
          "duration": 0.11190465000000671,
          "durationTicks": 47,
          "midi": 74,
          "name": "D5",
          "ticks": 24315,
          "time": 57.89279925,
          "velocity": 0.7716535433070866
        },
        {
          "duration": 0.2833330500000031,
          "durationTicks": 119,
          "midi": 72,
          "name": "C5",
          "ticks": 24360,
          "time": 57.999942000000004,
          "velocity": 0.7716535433070866
        },
        {
          "duration": 0.2833330500000031,
          "durationTicks": 119,
          "midi": 51,
          "name": "D#3",
          "ticks": 24360,
          "time": 57.999942000000004,
          "velocity": 0.8267716535433071
        },
        {
          "duration": 0.14047605000000374,
          "durationTicks": 59,
          "midi": 53,
          "name": "F3",
          "ticks": 24480,
          "time": 58.285656,
          "velocity": 0.7874015748031497
        },
        {
          "duration": 0.611904150000008,
          "durationTicks": 257,
          "midi": 46,
          "name": "A#2",
          "ticks": 24480,
          "time": 58.285656,
          "velocity": 0.7244094488188977
        },
        {
          "duration": 0.12380939999999896,
          "durationTicks": 52,
          "midi": 58,
          "name": "A#3",
          "ticks": 24555,
          "time": 58.46422725000001,
          "velocity": 0.7874015748031497
        },
        {
          "duration": 0.1761903000000018,
          "durationTicks": 74,
          "midi": 62,
          "name": "D4",
          "ticks": 24600,
          "time": 58.57137,
          "velocity": 0.8031496062992126
        },
        {
          "duration": 0.11428560000000232,
          "durationTicks": 48,
          "midi": 67,
          "name": "G4",
          "ticks": 24675,
          "time": 58.749941250000006,
          "velocity": 0.8188976377952756
        },
        {
          "duration": 0.049999950000000126,
          "durationTicks": 21,
          "midi": 74,
          "name": "D5",
          "ticks": 24720,
          "time": 58.85708400000001,
          "velocity": 0.6929133858267716
        },
        {
          "duration": 0.06428564999999509,
          "durationTicks": 27,
          "midi": 70,
          "name": "A#4",
          "ticks": 24720,
          "time": 58.85708400000001,
          "velocity": 0.7716535433070866
        },
        {
          "duration": 0.06904755000000051,
          "durationTicks": 29,
          "midi": 65,
          "name": "F4",
          "ticks": 24720,
          "time": 58.85708400000001,
          "velocity": 0.8267716535433071
        },
        {
          "duration": 0.573808949999993,
          "durationTicks": 241,
          "midi": 53,
          "name": "F3",
          "ticks": 24726,
          "time": 58.87136970000001,
          "velocity": 1
        },
        {
          "duration": 0.06904755000000051,
          "durationTicks": 29,
          "midi": 74,
          "name": "D5",
          "ticks": 24795,
          "time": 59.035655250000005,
          "velocity": 0.8267716535433071
        },
        {
          "duration": 0.07619040000000155,
          "durationTicks": 32,
          "midi": 62,
          "name": "D4",
          "ticks": 24795,
          "time": 59.035655250000005,
          "velocity": 0.6456692913385826
        },
        {
          "duration": 0.0666665999999978,
          "durationTicks": 28,
          "midi": 70,
          "name": "A#4",
          "ticks": 24795,
          "time": 59.035655250000005,
          "velocity": 0.7952755905511811
        },
        {
          "duration": 0.07857135000000426,
          "durationTicks": 33,
          "midi": 72,
          "name": "C5",
          "ticks": 24915,
          "time": 59.321369250000004,
          "velocity": 0.7716535433070866
        },
        {
          "duration": 0.08095229999999987,
          "durationTicks": 34,
          "midi": 69,
          "name": "A4",
          "ticks": 24915,
          "time": 59.321369250000004,
          "velocity": 0.952755905511811
        },
        {
          "duration": 0.08571420000000529,
          "durationTicks": 36,
          "midi": 65,
          "name": "F4",
          "ticks": 24915,
          "time": 59.321369250000004,
          "velocity": 0.8188976377952756
        },
        {
          "duration": 0.19047599999999676,
          "durationTicks": 80,
          "midi": 46,
          "name": "A#2",
          "ticks": 25440,
          "time": 60.57136800000001,
          "velocity": 0.5354330708661418
        },
        {
          "duration": 0.3547615500000063,
          "durationTicks": 149,
          "midi": 65,
          "name": "F4",
          "ticks": 25515,
          "time": 60.749939250000004,
          "velocity": 0.5984251968503937
        },
        {
          "duration": 0.3547615500000063,
          "durationTicks": 149,
          "midi": 58,
          "name": "A#3",
          "ticks": 25515,
          "time": 60.749939250000004,
          "velocity": 0.5826771653543307
        },
        {
          "duration": 0.3547615500000063,
          "durationTicks": 149,
          "midi": 62,
          "name": "D4",
          "ticks": 25515,
          "time": 60.749939250000004,
          "velocity": 0.5984251968503937
        },
        {
          "duration": 0.25476165000000606,
          "durationTicks": 107,
          "midi": 46,
          "name": "A#2",
          "ticks": 25560,
          "time": 60.857082000000005,
          "velocity": 0.6141732283464567
        },
        {
          "duration": 0.2833330500000031,
          "durationTicks": 119,
          "midi": 65,
          "name": "F4",
          "ticks": 25680,
          "time": 61.142796000000004,
          "velocity": 0.6141732283464567
        },
        {
          "duration": 0.31904730000000114,
          "durationTicks": 134,
          "midi": 62,
          "name": "D4",
          "ticks": 25680,
          "time": 61.142796000000004,
          "velocity": 0.6141732283464567
        },
        {
          "duration": 0.16904745000000077,
          "durationTicks": 71,
          "midi": 41,
          "name": "F2",
          "ticks": 25680,
          "time": 61.142796000000004,
          "velocity": 0.6456692913385826
        },
        {
          "duration": 0.2833330500000031,
          "durationTicks": 119,
          "midi": 58,
          "name": "A#3",
          "ticks": 25800,
          "time": 61.42851,
          "velocity": 0.6771653543307087
        },
        {
          "duration": 0.34285679999999985,
          "durationTicks": 144,
          "midi": 41,
          "name": "F2",
          "ticks": 25800,
          "time": 61.42851,
          "velocity": 0.6456692913385826
        },
        {
          "duration": 0.1785712500000045,
          "durationTicks": 75,
          "midi": 46,
          "name": "A#2",
          "ticks": 25920,
          "time": 61.714224,
          "velocity": 0.5826771653543307
        },
        {
          "duration": 0.14047605000000374,
          "durationTicks": 59,
          "midi": 62,
          "name": "D4",
          "ticks": 25920,
          "time": 61.714224,
          "velocity": 0.6220472440944882
        },
        {
          "duration": 0.14047605000000374,
          "durationTicks": 59,
          "midi": 65,
          "name": "F4",
          "ticks": 25920,
          "time": 61.714224,
          "velocity": 0.7952755905511811
        },
        {
          "duration": 0.11190465000000671,
          "durationTicks": 47,
          "midi": 70,
          "name": "A#4",
          "ticks": 25920,
          "time": 61.714224,
          "velocity": 0.7637795275590551
        },
        {
          "duration": 0.1333331999999956,
          "durationTicks": 56,
          "midi": 46,
          "name": "A#2",
          "ticks": 26040,
          "time": 61.99993800000001,
          "velocity": 0.8031496062992126
        },
        {
          "duration": 0.1761903000000018,
          "durationTicks": 74,
          "midi": 62,
          "name": "D4",
          "ticks": 26115,
          "time": 62.178509250000005,
          "velocity": 0.8976377952755905
        },
        {
          "duration": 0.21190454999999986,
          "durationTicks": 89,
          "midi": 65,
          "name": "F4",
          "ticks": 26115,
          "time": 62.178509250000005,
          "velocity": 0.84251968503937
        },
        {
          "duration": 0.1761903000000018,
          "durationTicks": 74,
          "midi": 70,
          "name": "A#4",
          "ticks": 26115,
          "time": 62.178509250000005,
          "velocity": 0.7716535433070866
        },
        {
          "duration": 0.2833330500000031,
          "durationTicks": 119,
          "midi": 41,
          "name": "F2",
          "ticks": 26160,
          "time": 62.285652000000006,
          "velocity": 0.9921259842519685
        },
        {
          "duration": 0.21190455000000696,
          "durationTicks": 89,
          "midi": 70,
          "name": "A#4",
          "ticks": 26235,
          "time": 62.46422325,
          "velocity": 0.6771653543307087
        },
        {
          "duration": 0.21190455000000696,
          "durationTicks": 89,
          "midi": 65,
          "name": "F4",
          "ticks": 26235,
          "time": 62.46422325,
          "velocity": 0.7952755905511811
        },
        {
          "duration": 0.24761880000000502,
          "durationTicks": 104,
          "midi": 62,
          "name": "D4",
          "ticks": 26235,
          "time": 62.46422325,
          "velocity": 0.6771653543307087
        },
        {
          "duration": 0.2833330500000031,
          "durationTicks": 119,
          "midi": 36,
          "name": "C2",
          "ticks": 26280,
          "time": 62.571366000000005,
          "velocity": 0.7244094488188977
        },
        {
          "duration": 0.3547615500000063,
          "durationTicks": 149,
          "midi": 41,
          "name": "F2",
          "ticks": 26400,
          "time": 62.85708,
          "velocity": 0.7244094488188977
        },
        {
          "duration": 0.17380934999999198,
          "durationTicks": 73,
          "midi": 64,
          "name": "E4",
          "ticks": 26475,
          "time": 63.03565125000001,
          "velocity": 0.8582677165354331
        },
        {
          "duration": 0.1999997999999934,
          "durationTicks": 84,
          "midi": 69,
          "name": "A4",
          "ticks": 26475,
          "time": 63.03565125000001,
          "velocity": 0.8661417322834646
        },
        {
          "duration": 0.14047604999999663,
          "durationTicks": 59,
          "midi": 62,
          "name": "D4",
          "ticks": 26640,
          "time": 63.42850800000001,
          "velocity": 0.905511811023622
        },
        {
          "duration": 0.14047604999999663,
          "durationTicks": 59,
          "midi": 65,
          "name": "F4",
          "ticks": 26640,
          "time": 63.42850800000001,
          "velocity": 0.9212598425196851
        },
        {
          "duration": 0.14047604999999663,
          "durationTicks": 59,
          "midi": 69,
          "name": "A4",
          "ticks": 26640,
          "time": 63.42850800000001,
          "velocity": 0.9212598425196851
        },
        {
          "duration": 0.283333049999996,
          "durationTicks": 119,
          "midi": 48,
          "name": "C3",
          "ticks": 26640,
          "time": 63.42850800000001,
          "velocity": 0.8031496062992126
        },
        {
          "duration": 0.14047605000000374,
          "durationTicks": 59,
          "midi": 69,
          "name": "A4",
          "ticks": 26760,
          "time": 63.71422200000001,
          "velocity": 0.9212598425196851
        },
        {
          "duration": 0.14047605000000374,
          "durationTicks": 59,
          "midi": 62,
          "name": "D4",
          "ticks": 26760,
          "time": 63.71422200000001,
          "velocity": 0.905511811023622
        },
        {
          "duration": 0.14047605000000374,
          "durationTicks": 59,
          "midi": 65,
          "name": "F4",
          "ticks": 26760,
          "time": 63.71422200000001,
          "velocity": 0.905511811023622
        },
        {
          "duration": 0.14047605000000374,
          "durationTicks": 59,
          "midi": 60,
          "name": "C4",
          "ticks": 26880,
          "time": 63.999936000000005,
          "velocity": 0.6535433070866141
        },
        {
          "duration": 0.14047605000000374,
          "durationTicks": 59,
          "midi": 65,
          "name": "F4",
          "ticks": 26880,
          "time": 63.999936000000005,
          "velocity": 0.7952755905511811
        },
        {
          "duration": 0.14047605000000374,
          "durationTicks": 59,
          "midi": 69,
          "name": "A4",
          "ticks": 26880,
          "time": 63.999936000000005,
          "velocity": 0.8031496062992126
        },
        {
          "duration": 0.283333049999996,
          "durationTicks": 119,
          "midi": 53,
          "name": "F3",
          "ticks": 26880,
          "time": 63.999936000000005,
          "velocity": 0.6456692913385826
        },
        {
          "duration": 0.08333324999999547,
          "durationTicks": 35,
          "midi": 60,
          "name": "C4",
          "ticks": 26953,
          "time": 64.17374535,
          "velocity": 0.9448818897637795
        },
        {
          "duration": 0.07857134999999005,
          "durationTicks": 33,
          "midi": 65,
          "name": "F4",
          "ticks": 26955,
          "time": 64.17850725000001,
          "velocity": 0.937007874015748
        },
        {
          "duration": 0.0880951500000009,
          "durationTicks": 37,
          "midi": 69,
          "name": "A4",
          "ticks": 26955,
          "time": 64.17850725000001,
          "velocity": 0.8661417322834646
        },
        {
          "duration": 0.1761903000000018,
          "durationTicks": 74,
          "midi": 62,
          "name": "D4",
          "ticks": 27075,
          "time": 64.46422125000001,
          "velocity": 0.8110236220472441
        },
        {
          "duration": 0.1761903000000018,
          "durationTicks": 74,
          "midi": 65,
          "name": "F4",
          "ticks": 27075,
          "time": 64.46422125000001,
          "velocity": 0.7480314960629921
        },
        {
          "duration": 0.14047605000000374,
          "durationTicks": 59,
          "midi": 69,
          "name": "A4",
          "ticks": 27075,
          "time": 64.46422125000001,
          "velocity": 0.8031496062992126
        },
        {
          "duration": 0.2833330500000102,
          "durationTicks": 119,
          "midi": 48,
          "name": "C3",
          "ticks": 27120,
          "time": 64.571364,
          "velocity": 0.7795275590551181
        },
        {
          "duration": 0.2833330500000102,
          "durationTicks": 119,
          "midi": 47,
          "name": "B2",
          "ticks": 27240,
          "time": 64.857078,
          "velocity": 0.968503937007874
        },
        {
          "duration": 0.19047600000000386,
          "durationTicks": 80,
          "midi": 46,
          "name": "A#2",
          "ticks": 27360,
          "time": 65.142792,
          "velocity": 0.6929133858267716
        },
        {
          "duration": 0.49761854999999855,
          "durationTicks": 209,
          "midi": 65,
          "name": "F4",
          "ticks": 27435,
          "time": 65.32136325,
          "velocity": 0.8346456692913385
        },
        {
          "duration": 0.3547615500000063,
          "durationTicks": 149,
          "midi": 58,
          "name": "A#3",
          "ticks": 27435,
          "time": 65.32136325,
          "velocity": 0.8188976377952756
        },
        {
          "duration": 0.3547615500000063,
          "durationTicks": 149,
          "midi": 62,
          "name": "D4",
          "ticks": 27435,
          "time": 65.32136325,
          "velocity": 0.8346456692913385
        },
        {
          "duration": 0.25476165000000606,
          "durationTicks": 107,
          "midi": 46,
          "name": "A#2",
          "ticks": 27480,
          "time": 65.428506,
          "velocity": 0.8503937007874016
        },
        {
          "duration": 0.283333049999996,
          "durationTicks": 119,
          "midi": 65,
          "name": "F4",
          "ticks": 27600,
          "time": 65.71422000000001,
          "velocity": 0.9291338582677166
        },
        {
          "duration": 0.31904729999999404,
          "durationTicks": 134,
          "midi": 62,
          "name": "D4",
          "ticks": 27600,
          "time": 65.71422000000001,
          "velocity": 0.8503937007874016
        },
        {
          "duration": 0.16904744999999366,
          "durationTicks": 71,
          "midi": 41,
          "name": "F2",
          "ticks": 27600,
          "time": 65.71422000000001,
          "velocity": 0.8031496062992126
        },
        {
          "duration": 0.283333049999996,
          "durationTicks": 119,
          "midi": 58,
          "name": "A#3",
          "ticks": 27720,
          "time": 65.99993400000001,
          "velocity": 0.9921259842519685
        },
        {
          "duration": 0.34285679999999275,
          "durationTicks": 144,
          "midi": 41,
          "name": "F2",
          "ticks": 27720,
          "time": 65.99993400000001,
          "velocity": 0.8818897637795275
        },
        {
          "duration": 0.1785712499999903,
          "durationTicks": 75,
          "midi": 46,
          "name": "A#2",
          "ticks": 27840,
          "time": 66.28564800000001,
          "velocity": 0.8976377952755905
        },
        {
          "duration": 0.14047605000000374,
          "durationTicks": 59,
          "midi": 62,
          "name": "D4",
          "ticks": 27840,
          "time": 66.28564800000001,
          "velocity": 0.937007874015748
        },
        {
          "duration": 0.14047605000000374,
          "durationTicks": 59,
          "midi": 65,
          "name": "F4",
          "ticks": 27840,
          "time": 66.28564800000001,
          "velocity": 0.7952755905511811
        },
        {
          "duration": 0.1119046499999996,
          "durationTicks": 47,
          "midi": 70,
          "name": "A#4",
          "ticks": 27840,
          "time": 66.28564800000001,
          "velocity": 0.7637795275590551
        },
        {
          "duration": 0.1333331999999956,
          "durationTicks": 56,
          "midi": 46,
          "name": "A#2",
          "ticks": 27960,
          "time": 66.57136200000001,
          "velocity": 0.8031496062992126
        },
        {
          "duration": 0.1761903000000018,
          "durationTicks": 74,
          "midi": 62,
          "name": "D4",
          "ticks": 28035,
          "time": 66.74993325000001,
          "velocity": 1
        },
        {
          "duration": 0.21190454999999986,
          "durationTicks": 89,
          "midi": 65,
          "name": "F4",
          "ticks": 28035,
          "time": 66.74993325000001,
          "velocity": 0.9212598425196851
        },
        {
          "duration": 0.1761903000000018,
          "durationTicks": 74,
          "midi": 70,
          "name": "A#4",
          "ticks": 28035,
          "time": 66.74993325000001,
          "velocity": 0.9291338582677166
        },
        {
          "duration": 0.283333049999996,
          "durationTicks": 119,
          "midi": 41,
          "name": "F2",
          "ticks": 28080,
          "time": 66.857076,
          "velocity": 0.9133858267716536
        },
        {
          "duration": 0.21190454999999986,
          "durationTicks": 89,
          "midi": 70,
          "name": "A#4",
          "ticks": 28155,
          "time": 67.03564725000001,
          "velocity": 0.9133858267716536
        },
        {
          "duration": 0.21190454999999986,
          "durationTicks": 89,
          "midi": 65,
          "name": "F4",
          "ticks": 28155,
          "time": 67.03564725000001,
          "velocity": 0.7952755905511811
        },
        {
          "duration": 0.24761879999999792,
          "durationTicks": 104,
          "midi": 62,
          "name": "D4",
          "ticks": 28155,
          "time": 67.03564725000001,
          "velocity": 0.6771653543307087
        },
        {
          "duration": 0.283333049999996,
          "durationTicks": 119,
          "midi": 36,
          "name": "C2",
          "ticks": 28200,
          "time": 67.14279,
          "velocity": 0.9212598425196851
        },
        {
          "duration": 0.38095200000000773,
          "durationTicks": 160,
          "midi": 55,
          "name": "G3",
          "ticks": 28320,
          "time": 67.428504,
          "velocity": 0.905511811023622
        },
        {
          "duration": 0.12380939999999896,
          "durationTicks": 52,
          "midi": 60,
          "name": "C4",
          "ticks": 28440,
          "time": 67.714218,
          "velocity": 0.7716535433070866
        },
        {
          "duration": 0.1547617500000058,
          "durationTicks": 65,
          "midi": 64,
          "name": "E4",
          "ticks": 28442,
          "time": 67.71897990000001,
          "velocity": 0.8976377952755905
        },
        {
          "duration": 0.38095200000000773,
          "durationTicks": 160,
          "midi": 48,
          "name": "C3",
          "ticks": 28560,
          "time": 67.999932,
          "velocity": 0.905511811023622
        },
        {
          "duration": 0.13809510000000103,
          "durationTicks": 58,
          "midi": 55,
          "name": "G3",
          "ticks": 28560,
          "time": 67.999932,
          "velocity": 0.8582677165354331
        },
        {
          "duration": 0.33571395000001303,
          "durationTicks": 141,
          "midi": 60,
          "name": "C4",
          "ticks": 28560,
          "time": 67.999932,
          "velocity": 0.7874015748031497
        },
        {
          "duration": 0.40476150000000644,
          "durationTicks": 170,
          "midi": 64,
          "name": "E4",
          "ticks": 28560,
          "time": 67.999932,
          "velocity": 0.952755905511811
        },
        {
          "duration": 0.11904750000000774,
          "durationTicks": 50,
          "midi": 55,
          "name": "G3",
          "ticks": 28680,
          "time": 68.285646,
          "velocity": 0.8188976377952756
        },
        {
          "duration": 0.38095200000000773,
          "durationTicks": 160,
          "midi": 41,
          "name": "F2",
          "ticks": 28800,
          "time": 68.57136,
          "velocity": 0.905511811023622
        },
        {
          "duration": 0.16428555000000244,
          "durationTicks": 69,
          "midi": 53,
          "name": "F3",
          "ticks": 28800,
          "time": 68.57136,
          "velocity": 0.952755905511811
        },
        {
          "duration": 0.1333332000000098,
          "durationTicks": 56,
          "midi": 57,
          "name": "A3",
          "ticks": 28800,
          "time": 68.57136,
          "velocity": 0.905511811023622
        },
        {
          "duration": 0.15952365000001123,
          "durationTicks": 67,
          "midi": 60,
          "name": "C4",
          "ticks": 28800,
          "time": 68.57136,
          "velocity": 0.7559055118110236
        },
        {
          "duration": 0.10238084999998875,
          "durationTicks": 43,
          "midi": 57,
          "name": "A3",
          "ticks": 28920,
          "time": 68.85707400000001,
          "velocity": 0.8582677165354331
        },
        {
          "duration": 0.13809509999998681,
          "durationTicks": 58,
          "midi": 60,
          "name": "C4",
          "ticks": 28920,
          "time": 68.85707400000001,
          "velocity": 0.7559055118110236
        },
        {
          "duration": 0.1357141499999983,
          "durationTicks": 57,
          "midi": 65,
          "name": "F4",
          "ticks": 28920,
          "time": 68.85707400000001,
          "velocity": 0.937007874015748
        },
        {
          "duration": 0.3809519999999935,
          "durationTicks": 160,
          "midi": 48,
          "name": "C3",
          "ticks": 29040,
          "time": 69.14278800000001,
          "velocity": 0.905511811023622
        },
        {
          "duration": 0.07142849999999612,
          "durationTicks": 30,
          "midi": 55,
          "name": "G3",
          "ticks": 29040,
          "time": 69.14278800000001,
          "velocity": 0.905511811023622
        },
        {
          "duration": 0.16190459999999973,
          "durationTicks": 68,
          "midi": 60,
          "name": "C4",
          "ticks": 29040,
          "time": 69.14278800000001,
          "velocity": 0.7244094488188977
        },
        {
          "duration": 0.14999985000000038,
          "durationTicks": 63,
          "midi": 64,
          "name": "E4",
          "ticks": 29040,
          "time": 69.14278800000001,
          "velocity": 0.952755905511811
        },
        {
          "duration": 0.31904730000000825,
          "durationTicks": 134,
          "midi": 53,
          "name": "F3",
          "ticks": 29115,
          "time": 69.32135925,
          "velocity": 0.84251968503937
        },
        {
          "duration": 0.31904730000000825,
          "durationTicks": 134,
          "midi": 62,
          "name": "D4",
          "ticks": 29115,
          "time": 69.32135925,
          "velocity": 0.952755905511811
        },
        {
          "duration": 0.283333049999996,
          "durationTicks": 119,
          "midi": 47,
          "name": "B2",
          "ticks": 29160,
          "time": 69.42850200000001,
          "velocity": 0.905511811023622
        },
        {
          "duration": 0.5309518499999939,
          "durationTicks": 223,
          "midi": 46,
          "name": "A#2",
          "ticks": 29280,
          "time": 69.71421600000001,
          "velocity": 0.7716535433070866
        },
        {
          "duration": 0.21190454999999986,
          "durationTicks": 89,
          "midi": 58,
          "name": "A#3",
          "ticks": 29400,
          "time": 69.99993,
          "velocity": 0.7244094488188977
        },
        {
          "duration": 0.21190454999999986,
          "durationTicks": 89,
          "midi": 53,
          "name": "F3",
          "ticks": 29400,
          "time": 69.99993,
          "velocity": 0.8503937007874016
        },
        {
          "duration": 0.21190454999998565,
          "durationTicks": 89,
          "midi": 62,
          "name": "D4",
          "ticks": 29402,
          "time": 70.00469190000001,
          "velocity": 0.8976377952755905
        },
        {
          "duration": 0.5261899500000027,
          "durationTicks": 221,
          "midi": 41,
          "name": "F2",
          "ticks": 29520,
          "time": 70.285644,
          "velocity": 0.7401574803149606
        },
        {
          "duration": 0.10476180000000568,
          "durationTicks": 44,
          "midi": 58,
          "name": "A#3",
          "ticks": 29520,
          "time": 70.285644,
          "velocity": 0.7716535433070866
        },
        {
          "duration": 0.2642854500000027,
          "durationTicks": 111,
          "midi": 53,
          "name": "F3",
          "ticks": 29520,
          "time": 70.285644,
          "velocity": 0.8503937007874016
        },
        {
          "duration": 0.25714259999999456,
          "durationTicks": 108,
          "midi": 62,
          "name": "D4",
          "ticks": 29522,
          "time": 70.29040590000001,
          "velocity": 0.8818897637795275
        },
        {
          "duration": 0.1523808000000031,
          "durationTicks": 64,
          "midi": 46,
          "name": "A#2",
          "ticks": 29610,
          "time": 70.49992950000001,
          "velocity": 0.8188976377952756
        },
        {
          "duration": 0.5690470500000089,
          "durationTicks": 239,
          "midi": 46,
          "name": "A#2",
          "ticks": 29760,
          "time": 70.857072,
          "velocity": 0.6299212598425197
        },
        {
          "duration": 0.16904745000000787,
          "durationTicks": 71,
          "midi": 65,
          "name": "F4",
          "ticks": 29760,
          "time": 70.857072,
          "velocity": 0.8503937007874016
        },
        {
          "duration": 0.12380939999999896,
          "durationTicks": 52,
          "midi": 58,
          "name": "A#3",
          "ticks": 29760,
          "time": 70.857072,
          "velocity": 0.6929133858267716
        },
        {
          "duration": 0.2428569000000067,
          "durationTicks": 102,
          "midi": 62,
          "name": "D4",
          "ticks": 29760,
          "time": 70.857072,
          "velocity": 0.8503937007874016
        },
        {
          "duration": 0.10952369999999689,
          "durationTicks": 46,
          "midi": 58,
          "name": "A#3",
          "ticks": 29880,
          "time": 71.142786,
          "velocity": 0.5826771653543307
        },
        {
          "duration": 0.08571419999999819,
          "durationTicks": 36,
          "midi": 58,
          "name": "A#3",
          "ticks": 29955,
          "time": 71.32135725,
          "velocity": 0.8031496062992126
        },
        {
          "duration": 0.14523794999999495,
          "durationTicks": 61,
          "midi": 62,
          "name": "D4",
          "ticks": 29955,
          "time": 71.32135725,
          "velocity": 0.8188976377952756
        },
        {
          "duration": 0.11666655000000503,
          "durationTicks": 49,
          "midi": 65,
          "name": "F4",
          "ticks": 29955,
          "time": 71.32135725,
          "velocity": 0.8188976377952756
        },
        {
          "duration": 0.2833330500000102,
          "durationTicks": 119,
          "midi": 41,
          "name": "F2",
          "ticks": 30000,
          "time": 71.4285,
          "velocity": 0.7244094488188977
        },
        {
          "duration": 0.09047610000000361,
          "durationTicks": 38,
          "midi": 58,
          "name": "A#3",
          "ticks": 30075,
          "time": 71.60707125,
          "velocity": 0.8031496062992126
        },
        {
          "duration": 0.12142845000001046,
          "durationTicks": 51,
          "midi": 62,
          "name": "D4",
          "ticks": 30075,
          "time": 71.60707125,
          "velocity": 0.8582677165354331
        },
        {
          "duration": 0.10238085000000297,
          "durationTicks": 43,
          "midi": 65,
          "name": "F4",
          "ticks": 30075,
          "time": 71.60707125,
          "velocity": 0.9212598425196851
        },
        {
          "duration": 0.283333049999996,
          "durationTicks": 119,
          "midi": 44,
          "name": "G#2",
          "ticks": 30120,
          "time": 71.71421400000001,
          "velocity": 0.8031496062992126
        },
        {
          "duration": 0.283333049999996,
          "durationTicks": 119,
          "midi": 45,
          "name": "A2",
          "ticks": 30240,
          "time": 71.99992800000001,
          "velocity": 0.7874015748031497
        },
        {
          "duration": 0.10714274999999418,
          "durationTicks": 45,
          "midi": 61,
          "name": "C#4",
          "ticks": 30240,
          "time": 71.99992800000001,
          "velocity": 0.7874015748031497
        },
        {
          "duration": 0.14999985000000038,
          "durationTicks": 63,
          "midi": 64,
          "name": "E4",
          "ticks": 30240,
          "time": 71.99992800000001,
          "velocity": 0.8976377952755905
        },
        {
          "duration": 0.1309522499999929,
          "durationTicks": 55,
          "midi": 69,
          "name": "A4",
          "ticks": 30240,
          "time": 71.99992800000001,
          "velocity": 0.9291338582677166
        },
        {
          "duration": 0.0904760999999894,
          "durationTicks": 38,
          "midi": 61,
          "name": "C#4",
          "ticks": 30360,
          "time": 72.28564200000001,
          "velocity": 0.8346456692913385
        },
        {
          "duration": 0.1547617499999916,
          "durationTicks": 65,
          "midi": 64,
          "name": "E4",
          "ticks": 30360,
          "time": 72.28564200000001,
          "velocity": 0.8031496062992126
        },
        {
          "duration": 0.14761889999999767,
          "durationTicks": 62,
          "midi": 69,
          "name": "A4",
          "ticks": 30360,
          "time": 72.28564200000001,
          "velocity": 0.8503937007874016
        },
        {
          "duration": 0.25714259999999456,
          "durationTicks": 108,
          "midi": 69,
          "name": "A4",
          "ticks": 30480,
          "time": 72.57135600000001,
          "velocity": 0.8818897637795275
        },
        {
          "duration": 0.18809505000000115,
          "durationTicks": 79,
          "midi": 61,
          "name": "C#4",
          "ticks": 30480,
          "time": 72.57135600000001,
          "velocity": 0.8503937007874016
        },
        {
          "duration": 0.2619045,
          "durationTicks": 110,
          "midi": 64,
          "name": "E4",
          "ticks": 30480,
          "time": 72.57135600000001,
          "velocity": 0.8503937007874016
        },
        {
          "duration": 0.15952365000001123,
          "durationTicks": 67,
          "midi": 67,
          "name": "G4",
          "ticks": 30555,
          "time": 72.74992725,
          "velocity": 0.952755905511811
        },
        {
          "duration": 0.31904729999999404,
          "durationTicks": 134,
          "midi": 45,
          "name": "A2",
          "ticks": 30600,
          "time": 72.85707000000001,
          "velocity": 0.952755905511811
        },
        {
          "duration": 0.31904729999999404,
          "durationTicks": 134,
          "midi": 65,
          "name": "F4",
          "ticks": 30690,
          "time": 73.07135550000001,
          "velocity": 0.9448818897637795
        },
        {
          "duration": 0.31904729999999404,
          "durationTicks": 134,
          "midi": 57,
          "name": "A3",
          "ticks": 30690,
          "time": 73.07135550000001,
          "velocity": 0.952755905511811
        },
        {
          "duration": 0.3547615499999921,
          "durationTicks": 149,
          "midi": 62,
          "name": "D4",
          "ticks": 30690,
          "time": 73.07135550000001,
          "velocity": 0.8188976377952756
        },
        {
          "duration": 0.21190454999999986,
          "durationTicks": 89,
          "midi": 53,
          "name": "F3",
          "ticks": 30840,
          "time": 73.428498,
          "velocity": 0.9448818897637795
        },
        {
          "duration": 0.21190454999999986,
          "durationTicks": 89,
          "midi": 57,
          "name": "A3",
          "ticks": 30915,
          "time": 73.60706925000001,
          "velocity": 0.8661417322834646
        },
        {
          "duration": 0.14047605000000374,
          "durationTicks": 59,
          "midi": 62,
          "name": "D4",
          "ticks": 30915,
          "time": 73.60706925000001,
          "velocity": 0.8661417322834646
        },
        {
          "duration": 0.14047605000000374,
          "durationTicks": 59,
          "midi": 65,
          "name": "F4",
          "ticks": 30915,
          "time": 73.60706925000001,
          "velocity": 0.9448818897637795
        },
        {
          "duration": 0.21190454999999986,
          "durationTicks": 89,
          "midi": 53,
          "name": "F3",
          "ticks": 31035,
          "time": 73.89278325000001,
          "velocity": 0.9448818897637795
        },
        {
          "duration": 0.21190454999999986,
          "durationTicks": 89,
          "midi": 57,
          "name": "A3",
          "ticks": 31035,
          "time": 73.89278325000001,
          "velocity": 0.9448818897637795
        },
        {
          "duration": 0.21190454999999986,
          "durationTicks": 89,
          "midi": 62,
          "name": "D4",
          "ticks": 31035,
          "time": 73.89278325000001,
          "velocity": 0.9448818897637795
        },
        {
          "duration": 0.27857115000000476,
          "durationTicks": 117,
          "midi": 43,
          "name": "G2",
          "ticks": 31200,
          "time": 74.28564,
          "velocity": 0.952755905511811
        },
        {
          "duration": 0.23333310000001006,
          "durationTicks": 98,
          "midi": 59,
          "name": "B3",
          "ticks": 31200,
          "time": 74.28564,
          "velocity": 0.905511811023622
        },
        {
          "duration": 0.27619020000000205,
          "durationTicks": 116,
          "midi": 62,
          "name": "D4",
          "ticks": 31200,
          "time": 74.28564,
          "velocity": 0.905511811023622
        },
        {
          "duration": 0.2714282999999966,
          "durationTicks": 114,
          "midi": 67,
          "name": "G4",
          "ticks": 31200,
          "time": 74.28564,
          "velocity": 0.952755905511811
        },
        {
          "duration": 0.17142840000001058,
          "durationTicks": 72,
          "midi": 67,
          "name": "G4",
          "ticks": 31395,
          "time": 74.74992525,
          "velocity": 1
        },
        {
          "duration": 0.14761889999999767,
          "durationTicks": 62,
          "midi": 62,
          "name": "D4",
          "ticks": 31395,
          "time": 74.74992525,
          "velocity": 0.952755905511811
        },
        {
          "duration": 0.11666655000000503,
          "durationTicks": 49,
          "midi": 59,
          "name": "B3",
          "ticks": 31395,
          "time": 74.74992525,
          "velocity": 1
        },
        {
          "duration": 0.16666649999999095,
          "durationTicks": 70,
          "midi": 43,
          "name": "G2",
          "ticks": 31395,
          "time": 74.74992525,
          "velocity": 0.952755905511811
        },
        {
          "duration": 0.2880949500000014,
          "durationTicks": 121,
          "midi": 43,
          "name": "G2",
          "ticks": 31680,
          "time": 75.42849600000001,
          "velocity": 0.952755905511811
        },
        {
          "duration": 0.25714259999999456,
          "durationTicks": 108,
          "midi": 59,
          "name": "B3",
          "ticks": 31680,
          "time": 75.42849600000001,
          "velocity": 0.952755905511811
        },
        {
          "duration": 0.2690473499999939,
          "durationTicks": 113,
          "midi": 62,
          "name": "D4",
          "ticks": 31680,
          "time": 75.42849600000001,
          "velocity": 0.905511811023622
        },
        {
          "duration": 0.2666663999999912,
          "durationTicks": 112,
          "midi": 67,
          "name": "G4",
          "ticks": 31680,
          "time": 75.42849600000001,
          "velocity": 1
        },
        {
          "duration": 0.18333314999999573,
          "durationTicks": 77,
          "midi": 43,
          "name": "G2",
          "ticks": 31875,
          "time": 75.89278125000001,
          "velocity": 1
        },
        {
          "duration": 0.14047604999998953,
          "durationTicks": 59,
          "midi": 59,
          "name": "B3",
          "ticks": 31875,
          "time": 75.89278125000001,
          "velocity": 1
        },
        {
          "duration": 0.14285699999999224,
          "durationTicks": 60,
          "midi": 62,
          "name": "D4",
          "ticks": 31875,
          "time": 75.89278125000001,
          "velocity": 1
        },
        {
          "duration": 0.1523808000000031,
          "durationTicks": 64,
          "midi": 67,
          "name": "G4",
          "ticks": 31875,
          "time": 75.89278125000001,
          "velocity": 1
        },
        {
          "duration": 0.34761869999999817,
          "durationTicks": 146,
          "midi": 48,
          "name": "C3",
          "ticks": 32160,
          "time": 76.571352,
          "velocity": 0.8188976377952756
        },
        {
          "duration": 0.1119046499999996,
          "durationTicks": 47,
          "midi": 60,
          "name": "C4",
          "ticks": 32160,
          "time": 76.571352,
          "velocity": 0.6141732283464567
        },
        {
          "duration": 0.13809510000000103,
          "durationTicks": 58,
          "midi": 64,
          "name": "E4",
          "ticks": 32160,
          "time": 76.571352,
          "velocity": 0.905511811023622
        },
        {
          "duration": 0.1523808000000031,
          "durationTicks": 64,
          "midi": 67,
          "name": "G4",
          "ticks": 32160,
          "time": 76.571352,
          "velocity": 0.952755905511811
        },
        {
          "duration": 0.08095230000000697,
          "durationTicks": 34,
          "midi": 60,
          "name": "C4",
          "ticks": 32280,
          "time": 76.857066,
          "velocity": 0.5669291338582677
        },
        {
          "duration": 0.1119046499999996,
          "durationTicks": 47,
          "midi": 64,
          "name": "E4",
          "ticks": 32280,
          "time": 76.857066,
          "velocity": 0.905511811023622
        },
        {
          "duration": 0.14285700000000645,
          "durationTicks": 60,
          "midi": 67,
          "name": "G4",
          "ticks": 32280,
          "time": 76.857066,
          "velocity": 1
        },
        {
          "duration": 0.0857142000000124,
          "durationTicks": 36,
          "midi": 60,
          "name": "C4",
          "ticks": 32400,
          "time": 77.14278,
          "velocity": 0.5826771653543307
        },
        {
          "duration": 0.09047610000000361,
          "durationTicks": 38,
          "midi": 64,
          "name": "E4",
          "ticks": 32400,
          "time": 77.14278,
          "velocity": 0.952755905511811
        },
        {
          "duration": 0.1333331999999956,
          "durationTicks": 56,
          "midi": 67,
          "name": "G4",
          "ticks": 32400,
          "time": 77.14278,
          "velocity": 1
        },
        {
          "duration": 0.33809490000000153,
          "durationTicks": 142,
          "midi": 48,
          "name": "C3",
          "ticks": 32400,
          "time": 77.14278,
          "velocity": 0.6299212598425197
        },
        {
          "duration": 0.1119046499999996,
          "durationTicks": 47,
          "midi": 64,
          "name": "E4",
          "ticks": 32520,
          "time": 77.428494,
          "velocity": 0.952755905511811
        },
        {
          "duration": 0.09047610000000361,
          "durationTicks": 38,
          "midi": 60,
          "name": "C4",
          "ticks": 32520,
          "time": 77.428494,
          "velocity": 0.6299212598425197
        },
        {
          "duration": 0.14999985000000038,
          "durationTicks": 63,
          "midi": 67,
          "name": "G4",
          "ticks": 32522,
          "time": 77.4332559,
          "velocity": 1
        },
        {
          "duration": 0.07619039999998733,
          "durationTicks": 32,
          "midi": 58,
          "name": "A#3",
          "ticks": 32640,
          "time": 77.71420800000001,
          "velocity": 0.6141732283464567
        },
        {
          "duration": 0.43571384999998486,
          "durationTicks": 183,
          "midi": 48,
          "name": "C3",
          "ticks": 32640,
          "time": 77.71420800000001,
          "velocity": 0.5826771653543307
        },
        {
          "duration": 0.10238085000000297,
          "durationTicks": 43,
          "midi": 64,
          "name": "E4",
          "ticks": 32640,
          "time": 77.71420800000001,
          "velocity": 0.952755905511811
        },
        {
          "duration": 0.12380939999999896,
          "durationTicks": 52,
          "midi": 69,
          "name": "A4",
          "ticks": 32640,
          "time": 77.71420800000001,
          "velocity": 1
        },
        {
          "duration": 0.10952369999999689,
          "durationTicks": 46,
          "midi": 64,
          "name": "E4",
          "ticks": 32760,
          "time": 77.99992200000001,
          "velocity": 0.952755905511811
        },
        {
          "duration": 0.10476179999999147,
          "durationTicks": 44,
          "midi": 58,
          "name": "A#3",
          "ticks": 32760,
          "time": 77.99992200000001,
          "velocity": 0.6299212598425197
        },
        {
          "duration": 0.16666649999999095,
          "durationTicks": 70,
          "midi": 69,
          "name": "A4",
          "ticks": 32760,
          "time": 77.99992200000001,
          "velocity": 0.952755905511811
        },
        {
          "duration": 0.07619039999998733,
          "durationTicks": 32,
          "midi": 64,
          "name": "E4",
          "ticks": 32880,
          "time": 78.28563600000001,
          "velocity": 0.8582677165354331
        },
        {
          "duration": 0.08095230000000697,
          "durationTicks": 34,
          "midi": 58,
          "name": "A#3",
          "ticks": 32880,
          "time": 78.28563600000001,
          "velocity": 0.6141732283464567
        },
        {
          "duration": 0.12619035000000167,
          "durationTicks": 53,
          "midi": 69,
          "name": "A4",
          "ticks": 32881,
          "time": 78.28801695,
          "velocity": 0.952755905511811
        },
        {
          "duration": 0.10476180000000568,
          "durationTicks": 44,
          "midi": 69,
          "name": "A4",
          "ticks": 32993,
          "time": 78.55468335,
          "velocity": 0.905511811023622
        },
        {
          "duration": 0.08095230000000697,
          "durationTicks": 34,
          "midi": 64,
          "name": "E4",
          "ticks": 33000,
          "time": 78.57135000000001,
          "velocity": 0.905511811023622
        },
        {
          "duration": 0.08333324999999547,
          "durationTicks": 35,
          "midi": 58,
          "name": "A#3",
          "ticks": 33000,
          "time": 78.57135000000001,
          "velocity": 0.5984251968503937
        }
      ],
      "endOfTrackTicks": 33037
    },
    {
      "channel": 5,
      "controlChanges": {
        "7": [
          {
            "number": 7,
            "ticks": 0,
            "time": 0,
            "value": 0.8818897637795275
          },
          {
            "number": 7,
            "ticks": 8641,
            "time": 20.573788950000004,
            "value": 0.8818897637795275
          },
          {
            "number": 7,
            "ticks": 24961,
            "time": 59.43089295,
            "value": 0.905511811023622
          }
        ],
        "91": [
          {
            "number": 91,
            "ticks": 8641,
            "time": 20.573788950000004,
            "value": 0.5511811023622047
          },
          {
            "number": 91,
            "ticks": 24961,
            "time": 59.43089295,
            "value": 0.5511811023622047
          }
        ]
      },
      "pitchBends": [
        {
          "ticks": 12346,
          "time": 29.395208700000005,
          "value": -0.21875
        },
        {
          "ticks": 12358,
          "time": 29.423780100000002,
          "value": -0.4453125
        },
        {
          "ticks": 12369,
          "time": 29.449970550000003,
          "value": -0.6640625
        },
        {
          "ticks": 12381,
          "time": 29.47854195,
          "value": -0.8359375
        },
        {
          "ticks": 12391,
          "time": 29.502351450000003,
          "value": -0.96875
        },
        {
          "ticks": 12402,
          "time": 29.5285419,
          "value": -1
        },
        {
          "ticks": 12439,
          "time": 29.61663705,
          "value": -0.96875
        },
        {
          "ticks": 12451,
          "time": 29.645208450000005,
          "value": -0.8359375
        },
        {
          "ticks": 12464,
          "time": 29.6761608,
          "value": -0.5859375
        },
        {
          "ticks": 12475,
          "time": 29.70235125,
          "value": -0.390625
        },
        {
          "ticks": 12486,
          "time": 29.7285417,
          "value": -0.25
        },
        {
          "ticks": 12499,
          "time": 29.75949405,
          "value": -0.140625
        },
        {
          "ticks": 12511,
          "time": 29.788065450000005,
          "value": -0.03125
        },
        {
          "ticks": 12525,
          "time": 29.821398750000004,
          "value": 0
        },
        {
          "ticks": 28666,
          "time": 68.2523127,
          "value": -0.21875
        },
        {
          "ticks": 28678,
          "time": 68.28088410000001,
          "value": -0.4453125
        },
        {
          "ticks": 28689,
          "time": 68.30707455,
          "value": -0.6640625
        },
        {
          "ticks": 28701,
          "time": 68.33564595000001,
          "value": -0.8359375
        },
        {
          "ticks": 28711,
          "time": 68.35945545,
          "value": -0.96875
        },
        {
          "ticks": 28722,
          "time": 68.3856459,
          "value": -1
        },
        {
          "ticks": 28759,
          "time": 68.47374105,
          "value": -0.96875
        },
        {
          "ticks": 28771,
          "time": 68.50231245,
          "value": -0.8359375
        },
        {
          "ticks": 28784,
          "time": 68.53326480000001,
          "value": -0.5859375
        },
        {
          "ticks": 28795,
          "time": 68.55945525000001,
          "value": -0.390625
        },
        {
          "ticks": 28806,
          "time": 68.58564570000001,
          "value": -0.25
        },
        {
          "ticks": 28819,
          "time": 68.61659805000001,
          "value": -0.140625
        },
        {
          "ticks": 28831,
          "time": 68.64516945,
          "value": -0.03125
        },
        {
          "ticks": 28845,
          "time": 68.67850275,
          "value": 0
        }
      ],
      "instrument": {
        "family": "brass",
        "number": 59,
        "name": "muted trumpet"
      },
      "name": "",
      "notes": [
        {
          "duration": 0.28809495000000496,
          "durationTicks": 121,
          "midi": 62,
          "name": "D4",
          "ticks": 9120,
          "time": 21.714264,
          "velocity": 0.8582677165354331
        },
        {
          "duration": 0.19523790000000218,
          "durationTicks": 82,
          "midi": 65,
          "name": "F4",
          "ticks": 9240,
          "time": 21.999978000000002,
          "velocity": 0.905511811023622
        },
        {
          "duration": 0.03333329999999535,
          "durationTicks": 14,
          "midi": 61,
          "name": "C#4",
          "ticks": 9345,
          "time": 22.249977750000003,
          "velocity": 0.7086614173228346
        },
        {
          "duration": 0.2880949500000014,
          "durationTicks": 121,
          "midi": 62,
          "name": "D4",
          "ticks": 9360,
          "time": 22.285692,
          "velocity": 0.8740157480314961
        },
        {
          "duration": 0.2119045499999963,
          "durationTicks": 89,
          "midi": 65,
          "name": "F4",
          "ticks": 9480,
          "time": 22.571406000000003,
          "velocity": 0.8582677165354331
        },
        {
          "duration": 0.3047615999999991,
          "durationTicks": 128,
          "midi": 62,
          "name": "D4",
          "ticks": 9600,
          "time": 22.857120000000002,
          "velocity": 0.905511811023622
        },
        {
          "duration": 0.1666665000000016,
          "durationTicks": 70,
          "midi": 65,
          "name": "F4",
          "ticks": 9720,
          "time": 23.142834,
          "velocity": 0.8031496062992126
        },
        {
          "duration": 0.3190472999999976,
          "durationTicks": 134,
          "midi": 68,
          "name": "G#4",
          "ticks": 9795,
          "time": 23.32140525,
          "velocity": 0.952755905511811
        },
        {
          "duration": 0.12619035000000167,
          "durationTicks": 53,
          "midi": 67,
          "name": "G4",
          "ticks": 9915,
          "time": 23.60711925,
          "velocity": 0.905511811023622
        },
        {
          "duration": 0.14523795000000206,
          "durationTicks": 61,
          "midi": 65,
          "name": "F4",
          "ticks": 9960,
          "time": 23.714262,
          "velocity": 0.9212598425196851
        },
        {
          "duration": 0.283333049999996,
          "durationTicks": 119,
          "midi": 60,
          "name": "C4",
          "ticks": 10035,
          "time": 23.892833250000002,
          "velocity": 0.7716535433070866
        },
        {
          "duration": 0.28809495000000496,
          "durationTicks": 121,
          "midi": 62,
          "name": "D4",
          "ticks": 11040,
          "time": 26.285688,
          "velocity": 0.8582677165354331
        },
        {
          "duration": 0.19523790000000218,
          "durationTicks": 82,
          "midi": 65,
          "name": "F4",
          "ticks": 11160,
          "time": 26.571402000000003,
          "velocity": 0.905511811023622
        },
        {
          "duration": 0.03333329999999535,
          "durationTicks": 14,
          "midi": 61,
          "name": "C#4",
          "ticks": 11265,
          "time": 26.821401750000003,
          "velocity": 0.7086614173228346
        },
        {
          "duration": 0.2880949500000014,
          "durationTicks": 121,
          "midi": 62,
          "name": "D4",
          "ticks": 11280,
          "time": 26.857116,
          "velocity": 0.8740157480314961
        },
        {
          "duration": 0.2119045499999963,
          "durationTicks": 89,
          "midi": 65,
          "name": "F4",
          "ticks": 11400,
          "time": 27.142830000000004,
          "velocity": 0.8582677165354331
        },
        {
          "duration": 0.3047615999999991,
          "durationTicks": 128,
          "midi": 62,
          "name": "D4",
          "ticks": 11520,
          "time": 27.428544000000002,
          "velocity": 0.905511811023622
        },
        {
          "duration": 0.1666665000000016,
          "durationTicks": 70,
          "midi": 65,
          "name": "F4",
          "ticks": 11640,
          "time": 27.714258,
          "velocity": 0.8031496062992126
        },
        {
          "duration": 0.3190472999999976,
          "durationTicks": 134,
          "midi": 68,
          "name": "G#4",
          "ticks": 11715,
          "time": 27.892829250000002,
          "velocity": 0.952755905511811
        },
        {
          "duration": 0.12619035000000167,
          "durationTicks": 53,
          "midi": 67,
          "name": "G4",
          "ticks": 11835,
          "time": 28.17854325,
          "velocity": 0.905511811023622
        },
        {
          "duration": 0.14523795000000206,
          "durationTicks": 61,
          "midi": 65,
          "name": "F4",
          "ticks": 11880,
          "time": 28.285686000000002,
          "velocity": 0.9212598425196851
        },
        {
          "duration": 0.283333049999996,
          "durationTicks": 119,
          "midi": 67,
          "name": "G4",
          "ticks": 11955,
          "time": 28.464257250000003,
          "velocity": 0.7716535433070866
        },
        {
          "duration": 0.31904730000000114,
          "durationTicks": 134,
          "midi": 69,
          "name": "A4",
          "ticks": 12435,
          "time": 29.60711325,
          "velocity": 0.952755905511811
        },
        {
          "duration": 0.2595235500000008,
          "durationTicks": 109,
          "midi": 69,
          "name": "A4",
          "ticks": 12600,
          "time": 29.99997,
          "velocity": 0.8582677165354331
        },
        {
          "duration": 0.15238079999999954,
          "durationTicks": 64,
          "midi": 67,
          "name": "G4",
          "ticks": 12720,
          "time": 30.285684000000003,
          "velocity": 0.952755905511811
        },
        {
          "duration": 0.31904730000000114,
          "durationTicks": 134,
          "midi": 65,
          "name": "F4",
          "ticks": 12795,
          "time": 30.46425525,
          "velocity": 0.8188976377952756
        },
        {
          "duration": 0.24761880000000147,
          "durationTicks": 104,
          "midi": 62,
          "name": "D4",
          "ticks": 12960,
          "time": 30.857112,
          "velocity": 0.8976377952755905
        },
        {
          "duration": 0.24761879999999792,
          "durationTicks": 104,
          "midi": 65,
          "name": "F4",
          "ticks": 13080,
          "time": 31.142826000000003,
          "velocity": 0.8188976377952756
        },
        {
          "duration": 0.21190454999999986,
          "durationTicks": 89,
          "midi": 62,
          "name": "D4",
          "ticks": 13200,
          "time": 31.42854,
          "velocity": 0.8976377952755905
        },
        {
          "duration": 0.2119045499999963,
          "durationTicks": 89,
          "midi": 65,
          "name": "F4",
          "ticks": 13275,
          "time": 31.607111250000003,
          "velocity": 0.8031496062992126
        },
        {
          "duration": 0.24761879999999792,
          "durationTicks": 104,
          "midi": 62,
          "name": "D4",
          "ticks": 13395,
          "time": 31.89282525,
          "velocity": 0.8188976377952756
        },
        {
          "duration": 0.03333330000000245,
          "durationTicks": 14,
          "midi": 67,
          "name": "G4",
          "ticks": 13890,
          "time": 33.0713955,
          "velocity": 0.8188976377952756
        },
        {
          "duration": 0.03333330000000245,
          "durationTicks": 14,
          "midi": 68,
          "name": "G#4",
          "ticks": 13905,
          "time": 33.10710975,
          "velocity": 0.8188976377952756
        },
        {
          "duration": 0.21190454999999986,
          "durationTicks": 89,
          "midi": 69,
          "name": "A4",
          "ticks": 13920,
          "time": 33.142824000000005,
          "velocity": 0.8818897637795275
        },
        {
          "duration": 0.21190454999999986,
          "durationTicks": 89,
          "midi": 69,
          "name": "A4",
          "ticks": 14040,
          "time": 33.428538,
          "velocity": 0.84251968503937
        },
        {
          "duration": 0.21190454999999986,
          "durationTicks": 89,
          "midi": 69,
          "name": "A4",
          "ticks": 14160,
          "time": 33.714252,
          "velocity": 0.9133858267716536
        },
        {
          "duration": 0.21190454999999986,
          "durationTicks": 89,
          "midi": 67,
          "name": "G4",
          "ticks": 14235,
          "time": 33.89282325,
          "velocity": 0.8976377952755905
        },
        {
          "duration": 0.31904729999999404,
          "durationTicks": 134,
          "midi": 65,
          "name": "F4",
          "ticks": 14355,
          "time": 34.178537250000005,
          "velocity": 0.8346456692913385
        },
        {
          "duration": 0.1761903000000018,
          "durationTicks": 74,
          "midi": 65,
          "name": "F4",
          "ticks": 14760,
          "time": 35.142822,
          "velocity": 0.8976377952755905
        },
        {
          "duration": 0.12142845000000335,
          "durationTicks": 51,
          "midi": 66,
          "name": "F#4",
          "ticks": 14835,
          "time": 35.32139325,
          "velocity": 0.7874015748031497
        },
        {
          "duration": 0.21190454999999986,
          "durationTicks": 89,
          "midi": 67,
          "name": "G4",
          "ticks": 14880,
          "time": 35.428536,
          "velocity": 1
        },
        {
          "duration": 0.1761903000000018,
          "durationTicks": 74,
          "midi": 69,
          "name": "A4",
          "ticks": 15000,
          "time": 35.71425,
          "velocity": 0.9212598425196851
        },
        {
          "duration": 0.09761895000000465,
          "durationTicks": 41,
          "midi": 67,
          "name": "G4",
          "ticks": 15069,
          "time": 35.87853555,
          "velocity": 0.9212598425196851
        },
        {
          "duration": 0.20714264999999443,
          "durationTicks": 87,
          "midi": 65,
          "name": "F4",
          "ticks": 15240,
          "time": 36.285678000000004,
          "velocity": 0.7716535433070866
        },
        {
          "duration": 0.10714275000000129,
          "durationTicks": 45,
          "midi": 66,
          "name": "F#4",
          "ticks": 15315,
          "time": 36.46424925,
          "velocity": 0.7244094488188977
        },
        {
          "duration": 0.18571409999999844,
          "durationTicks": 78,
          "midi": 67,
          "name": "G4",
          "ticks": 15360,
          "time": 36.571392,
          "velocity": 1
        },
        {
          "duration": 0.14047605000000374,
          "durationTicks": 59,
          "midi": 69,
          "name": "A4",
          "ticks": 15480,
          "time": 36.857106,
          "velocity": 0.9212598425196851
        },
        {
          "duration": 0.09523800000000193,
          "durationTicks": 40,
          "midi": 67,
          "name": "G4",
          "ticks": 15551,
          "time": 37.02615345,
          "velocity": 0.8740157480314961
        },
        {
          "duration": 0.20714264999999443,
          "durationTicks": 87,
          "midi": 65,
          "name": "F4",
          "ticks": 15720,
          "time": 37.428534000000006,
          "velocity": 0.7716535433070866
        },
        {
          "duration": 0.10714275000000129,
          "durationTicks": 45,
          "midi": 66,
          "name": "F#4",
          "ticks": 15795,
          "time": 37.607105250000004,
          "velocity": 0.7244094488188977
        },
        {
          "duration": 0.18571409999999844,
          "durationTicks": 78,
          "midi": 67,
          "name": "G4",
          "ticks": 15840,
          "time": 37.714248000000005,
          "velocity": 1
        },
        {
          "duration": 0.18571409999999844,
          "durationTicks": 78,
          "midi": 67,
          "name": "G4",
          "ticks": 15960,
          "time": 37.999962000000004,
          "velocity": 0.9212598425196851
        },
        {
          "duration": 0.18571410000000554,
          "durationTicks": 78,
          "midi": 67,
          "name": "G4",
          "ticks": 16080,
          "time": 38.285676,
          "velocity": 1
        },
        {
          "duration": 0.18571410000000554,
          "durationTicks": 78,
          "midi": 67,
          "name": "G4",
          "ticks": 16200,
          "time": 38.57139,
          "velocity": 0.9212598425196851
        },
        {
          "duration": 0.03333330000000245,
          "durationTicks": 14,
          "midi": 68,
          "name": "G#4",
          "ticks": 16305,
          "time": 38.82138975,
          "velocity": 1
        },
        {
          "duration": 0.1761903000000018,
          "durationTicks": 74,
          "midi": 69,
          "name": "A4",
          "ticks": 16320,
          "time": 38.85710400000001,
          "velocity": 1
        },
        {
          "duration": 0.03333330000000245,
          "durationTicks": 14,
          "midi": 68,
          "name": "G#4",
          "ticks": 16430,
          "time": 39.1190085,
          "velocity": 0.9212598425196851
        },
        {
          "duration": 0.29999970000000076,
          "durationTicks": 126,
          "midi": 69,
          "name": "A4",
          "ticks": 16442,
          "time": 39.147579900000004,
          "velocity": 1
        },
        {
          "duration": 0.1976188499999978,
          "durationTicks": 83,
          "midi": 67,
          "name": "G4",
          "ticks": 16560,
          "time": 39.428532000000004,
          "velocity": 0.952755905511811
        },
        {
          "duration": 0.1309522500000071,
          "durationTicks": 55,
          "midi": 65,
          "name": "F4",
          "ticks": 16635,
          "time": 39.60710325,
          "velocity": 1
        },
        {
          "duration": 0.2880949499999943,
          "durationTicks": 121,
          "midi": 62,
          "name": "D4",
          "ticks": 25440,
          "time": 60.57136800000001,
          "velocity": 0.8582677165354331
        },
        {
          "duration": 0.19523790000000218,
          "durationTicks": 82,
          "midi": 65,
          "name": "F4",
          "ticks": 25560,
          "time": 60.857082000000005,
          "velocity": 0.905511811023622
        },
        {
          "duration": 0.03333330000000245,
          "durationTicks": 14,
          "midi": 61,
          "name": "C#4",
          "ticks": 25665,
          "time": 61.107081750000006,
          "velocity": 0.7086614173228346
        },
        {
          "duration": 0.2880949500000014,
          "durationTicks": 121,
          "midi": 62,
          "name": "D4",
          "ticks": 25680,
          "time": 61.142796000000004,
          "velocity": 0.8740157480314961
        },
        {
          "duration": 0.21190455000000696,
          "durationTicks": 89,
          "midi": 65,
          "name": "F4",
          "ticks": 25800,
          "time": 61.42851,
          "velocity": 0.8582677165354331
        },
        {
          "duration": 0.3047615999999991,
          "durationTicks": 128,
          "midi": 62,
          "name": "D4",
          "ticks": 25920,
          "time": 61.714224,
          "velocity": 0.905511811023622
        },
        {
          "duration": 0.16666649999999805,
          "durationTicks": 70,
          "midi": 65,
          "name": "F4",
          "ticks": 26040,
          "time": 61.99993800000001,
          "velocity": 0.8031496062992126
        },
        {
          "duration": 0.31904730000000114,
          "durationTicks": 134,
          "midi": 68,
          "name": "G#4",
          "ticks": 26115,
          "time": 62.178509250000005,
          "velocity": 0.952755905511811
        },
        {
          "duration": 0.12619035000000167,
          "durationTicks": 53,
          "midi": 67,
          "name": "G4",
          "ticks": 26235,
          "time": 62.46422325,
          "velocity": 0.905511811023622
        },
        {
          "duration": 0.14523794999999495,
          "durationTicks": 61,
          "midi": 65,
          "name": "F4",
          "ticks": 26280,
          "time": 62.571366000000005,
          "velocity": 0.9212598425196851
        },
        {
          "duration": 0.2833330500000031,
          "durationTicks": 119,
          "midi": 60,
          "name": "C4",
          "ticks": 26355,
          "time": 62.74993725,
          "velocity": 0.7716535433070866
        },
        {
          "duration": 0.2880949500000014,
          "durationTicks": 121,
          "midi": 62,
          "name": "D4",
          "ticks": 27360,
          "time": 65.142792,
          "velocity": 0.8582677165354331
        },
        {
          "duration": 0.1952379000000093,
          "durationTicks": 82,
          "midi": 65,
          "name": "F4",
          "ticks": 27480,
          "time": 65.428506,
          "velocity": 0.905511811023622
        },
        {
          "duration": 0.03333330000000956,
          "durationTicks": 14,
          "midi": 61,
          "name": "C#4",
          "ticks": 27585,
          "time": 65.67850575,
          "velocity": 0.7086614173228346
        },
        {
          "duration": 0.2880949499999872,
          "durationTicks": 121,
          "midi": 62,
          "name": "D4",
          "ticks": 27600,
          "time": 65.71422000000001,
          "velocity": 0.8740157480314961
        },
        {
          "duration": 0.21190454999999986,
          "durationTicks": 89,
          "midi": 65,
          "name": "F4",
          "ticks": 27720,
          "time": 65.99993400000001,
          "velocity": 0.8582677165354331
        },
        {
          "duration": 0.304761599999992,
          "durationTicks": 128,
          "midi": 62,
          "name": "D4",
          "ticks": 27840,
          "time": 66.28564800000001,
          "velocity": 0.905511811023622
        },
        {
          "duration": 0.16666650000000516,
          "durationTicks": 70,
          "midi": 65,
          "name": "F4",
          "ticks": 27960,
          "time": 66.57136200000001,
          "velocity": 0.8031496062992126
        },
        {
          "duration": 0.31904729999999404,
          "durationTicks": 134,
          "midi": 68,
          "name": "G#4",
          "ticks": 28035,
          "time": 66.74993325000001,
          "velocity": 0.952755905511811
        },
        {
          "duration": 0.12619034999998746,
          "durationTicks": 53,
          "midi": 67,
          "name": "G4",
          "ticks": 28155,
          "time": 67.03564725000001,
          "velocity": 0.905511811023622
        },
        {
          "duration": 0.14523794999999495,
          "durationTicks": 61,
          "midi": 65,
          "name": "F4",
          "ticks": 28200,
          "time": 67.14279,
          "velocity": 0.9212598425196851
        },
        {
          "duration": 0.283333049999996,
          "durationTicks": 119,
          "midi": 67,
          "name": "G4",
          "ticks": 28275,
          "time": 67.32136125000001,
          "velocity": 0.7716535433070866
        },
        {
          "duration": 0.31904730000000825,
          "durationTicks": 134,
          "midi": 69,
          "name": "A4",
          "ticks": 28755,
          "time": 68.46421725,
          "velocity": 0.952755905511811
        },
        {
          "duration": 0.25952354999999727,
          "durationTicks": 109,
          "midi": 69,
          "name": "A4",
          "ticks": 28920,
          "time": 68.85707400000001,
          "velocity": 0.8582677165354331
        },
        {
          "duration": 0.15238079999998888,
          "durationTicks": 64,
          "midi": 67,
          "name": "G4",
          "ticks": 29040,
          "time": 69.14278800000001,
          "velocity": 0.952755905511811
        },
        {
          "duration": 0.31904730000000825,
          "durationTicks": 134,
          "midi": 65,
          "name": "F4",
          "ticks": 29115,
          "time": 69.32135925,
          "velocity": 0.8188976377952756
        },
        {
          "duration": 0.24761879999999792,
          "durationTicks": 104,
          "midi": 62,
          "name": "D4",
          "ticks": 29280,
          "time": 69.71421600000001,
          "velocity": 0.8976377952755905
        },
        {
          "duration": 0.24761879999999792,
          "durationTicks": 104,
          "midi": 65,
          "name": "F4",
          "ticks": 29400,
          "time": 69.99993,
          "velocity": 0.8188976377952756
        },
        {
          "duration": 0.21190454999999986,
          "durationTicks": 89,
          "midi": 62,
          "name": "D4",
          "ticks": 29520,
          "time": 70.285644,
          "velocity": 0.8976377952755905
        },
        {
          "duration": 0.21190454999999986,
          "durationTicks": 89,
          "midi": 65,
          "name": "F4",
          "ticks": 29595,
          "time": 70.46421525000001,
          "velocity": 0.8031496062992126
        },
        {
          "duration": 0.24761879999999792,
          "durationTicks": 104,
          "midi": 62,
          "name": "D4",
          "ticks": 29715,
          "time": 70.74992925000001,
          "velocity": 0.8188976377952756
        },
        {
          "duration": 0.03333330000000956,
          "durationTicks": 14,
          "midi": 67,
          "name": "G4",
          "ticks": 30210,
          "time": 71.9284995,
          "velocity": 0.8188976377952756
        },
        {
          "duration": 0.03333330000000956,
          "durationTicks": 14,
          "midi": 68,
          "name": "G#4",
          "ticks": 30225,
          "time": 71.96421375,
          "velocity": 0.8188976377952756
        },
        {
          "duration": 0.21190454999999986,
          "durationTicks": 89,
          "midi": 69,
          "name": "A4",
          "ticks": 30240,
          "time": 71.99992800000001,
          "velocity": 0.8818897637795275
        },
        {
          "duration": 0.21190454999999986,
          "durationTicks": 89,
          "midi": 69,
          "name": "A4",
          "ticks": 30360,
          "time": 72.28564200000001,
          "velocity": 0.84251968503937
        },
        {
          "duration": 0.21190454999999986,
          "durationTicks": 89,
          "midi": 69,
          "name": "A4",
          "ticks": 30480,
          "time": 72.57135600000001,
          "velocity": 0.9133858267716536
        },
        {
          "duration": 0.21190455000001407,
          "durationTicks": 89,
          "midi": 67,
          "name": "G4",
          "ticks": 30555,
          "time": 72.74992725,
          "velocity": 0.8976377952755905
        },
        {
          "duration": 0.31904729999999404,
          "durationTicks": 134,
          "midi": 65,
          "name": "F4",
          "ticks": 30675,
          "time": 73.03564125000001,
          "velocity": 0.8346456692913385
        },
        {
          "duration": 0.1761903000000018,
          "durationTicks": 74,
          "midi": 65,
          "name": "F4",
          "ticks": 31080,
          "time": 73.999926,
          "velocity": 0.8976377952755905
        },
        {
          "duration": 0.12142844999999625,
          "durationTicks": 51,
          "midi": 66,
          "name": "F#4",
          "ticks": 31155,
          "time": 74.17849725,
          "velocity": 0.7874015748031497
        },
        {
          "duration": 0.21190455000001407,
          "durationTicks": 89,
          "midi": 67,
          "name": "G4",
          "ticks": 31200,
          "time": 74.28564,
          "velocity": 1
        },
        {
          "duration": 0.1761903000000018,
          "durationTicks": 74,
          "midi": 69,
          "name": "A4",
          "ticks": 31320,
          "time": 74.571354,
          "velocity": 0.9212598425196851
        },
        {
          "duration": 0.09761895000001175,
          "durationTicks": 41,
          "midi": 67,
          "name": "G4",
          "ticks": 31389,
          "time": 74.73563955,
          "velocity": 0.9212598425196851
        },
        {
          "duration": 0.20714265000000864,
          "durationTicks": 87,
          "midi": 65,
          "name": "F4",
          "ticks": 31560,
          "time": 75.14278200000001,
          "velocity": 0.7716535433070866
        },
        {
          "duration": 0.10714275000000839,
          "durationTicks": 45,
          "midi": 66,
          "name": "F#4",
          "ticks": 31635,
          "time": 75.32135325,
          "velocity": 0.7244094488188977
        },
        {
          "duration": 0.18571409999998423,
          "durationTicks": 78,
          "midi": 67,
          "name": "G4",
          "ticks": 31680,
          "time": 75.42849600000001,
          "velocity": 1
        },
        {
          "duration": 0.14047605000000374,
          "durationTicks": 59,
          "midi": 69,
          "name": "A4",
          "ticks": 31800,
          "time": 75.71421000000001,
          "velocity": 0.9212598425196851
        },
        {
          "duration": 0.09523800000000904,
          "durationTicks": 40,
          "midi": 67,
          "name": "G4",
          "ticks": 31871,
          "time": 75.88325745,
          "velocity": 0.8740157480314961
        },
        {
          "duration": 0.20714265000000864,
          "durationTicks": 87,
          "midi": 65,
          "name": "F4",
          "ticks": 32040,
          "time": 76.285638,
          "velocity": 0.7716535433070866
        },
        {
          "duration": 0.10714274999999418,
          "durationTicks": 45,
          "midi": 66,
          "name": "F#4",
          "ticks": 32115,
          "time": 76.46420925000001,
          "velocity": 0.7244094488188977
        },
        {
          "duration": 0.18571409999999844,
          "durationTicks": 78,
          "midi": 67,
          "name": "G4",
          "ticks": 32160,
          "time": 76.571352,
          "velocity": 1
        },
        {
          "duration": 0.18571409999999844,
          "durationTicks": 78,
          "midi": 67,
          "name": "G4",
          "ticks": 32280,
          "time": 76.857066,
          "velocity": 0.9212598425196851
        },
        {
          "duration": 0.18571409999999844,
          "durationTicks": 78,
          "midi": 67,
          "name": "G4",
          "ticks": 32400,
          "time": 77.14278,
          "velocity": 1
        },
        {
          "duration": 0.18571409999999844,
          "durationTicks": 78,
          "midi": 67,
          "name": "G4",
          "ticks": 32520,
          "time": 77.428494,
          "velocity": 0.9212598425196851
        },
        {
          "duration": 0.03333330000000956,
          "durationTicks": 14,
          "midi": 68,
          "name": "G#4",
          "ticks": 32625,
          "time": 77.67849375,
          "velocity": 1
        },
        {
          "duration": 0.1357141499999983,
          "durationTicks": 57,
          "midi": 69,
          "name": "A4",
          "ticks": 32640,
          "time": 77.71420800000001,
          "velocity": 1
        },
        {
          "duration": 0.03333329999999535,
          "durationTicks": 14,
          "midi": 68,
          "name": "G#4",
          "ticks": 32750,
          "time": 77.97611250000001,
          "velocity": 0.9212598425196851
        },
        {
          "duration": 0.29999970000000076,
          "durationTicks": 126,
          "midi": 69,
          "name": "A4",
          "ticks": 32762,
          "time": 78.0046839,
          "velocity": 1
        },
        {
          "duration": 0.1976188499999978,
          "durationTicks": 83,
          "midi": 67,
          "name": "G4",
          "ticks": 32880,
          "time": 78.28563600000001,
          "velocity": 0.952755905511811
        },
        {
          "duration": 0.1309522499999929,
          "durationTicks": 55,
          "midi": 65,
          "name": "F4",
          "ticks": 32955,
          "time": 78.46420725,
          "velocity": 1
        }
      ],
      "endOfTrackTicks": 33010
    }
  ]
}
