{
  "header": {
    "keySignatures": [
      {
        "key": "D",
        "scale": "major",
        "ticks": 0
      }
    ],
    "meta": [],
    "name": "",
    "ppq": 1024,
    "tempos": [
      {
        "bpm": 172.00010320006191,
        "ticks": 0
      },
      {
        "bpm": 172.00010320006191,
        "ticks": 0
      },
      {
        "bpm": 171.97249586549458,
        "ticks": 0
      },
      {
        "bpm": 171.97249586549458,
        "ticks": 4096
      },
      {
        "bpm": 171.97249586549458,
        "ticks": 6144
      },
      {
        "bpm": 171.44522610767902,
        "ticks": 6400
      },
      {
        "bpm": 170.97670442402222,
        "ticks": 6656
      },
      {
        "bpm": 170.44921891645433,
        "ticks": 6912
      },
      {
        "bpm": 169.97985738689965,
        "ticks": 7168
      },
      {
        "bpm": 169.45323090826932,
        "ticks": 7424
      },
      {
        "bpm": 168.98361985444876,
        "ticks": 7680
      },
      {
        "bpm": 168.45699012280514,
        "ticks": 7936
      },
      {
        "bpm": 171.97249586549458,
        "ticks": 8192
      },
      {
        "bpm": 171.97249586549458,
        "ticks": 10240
      },
      {
        "bpm": 171.44522610767902,
        "ticks": 10496
      },
      {
        "bpm": 170.97670442402222,
        "ticks": 10752
      },
      {
        "bpm": 170.44921891645433,
        "ticks": 11008
      },
      {
        "bpm": 169.97985738689965,
        "ticks": 11264
      },
      {
        "bpm": 169.45323090826932,
        "ticks": 11520
      },
      {
        "bpm": 168.98361985444876,
        "ticks": 11776
      },
      {
        "bpm": 168.45699012280514,
        "ticks": 12032
      },
      {
        "bpm": 171.97249586549458,
        "ticks": 12288
      },
      {
        "bpm": 171.97249586549458,
        "ticks": 22528
      },
      {
        "bpm": 170.97670442402222,
        "ticks": 22784
      },
      {
        "bpm": 169.97985738689965,
        "ticks": 23040
      },
      {
        "bpm": 168.98361985444876,
        "ticks": 23296
      },
      {
        "bpm": 168.45699012280514,
        "ticks": 23552
      },
      {
        "bpm": 167.46024214751014,
        "ticks": 23808
      },
      {
        "bpm": 166.4641353020492,
        "ticks": 24064
      },
      {
        "bpm": 165.4679433437762,
        "ticks": 24320
      },
      {
        "bpm": 171.97249586549458,
        "ticks": 24832
      },
      {
        "bpm": 171.97249586549458,
        "ticks": 30720
      },
      {
        "bpm": 170.97670442402222,
        "ticks": 30976
      },
      {
        "bpm": 169.97985738689965,
        "ticks": 31232
      },
      {
        "bpm": 168.98361985444876,
        "ticks": 31488
      },
      {
        "bpm": 168.45699012280514,
        "ticks": 31744
      },
      {
        "bpm": 167.46024214751014,
        "ticks": 32000
      },
      {
        "bpm": 166.4641353020492,
        "ticks": 32256
      },
      {
        "bpm": 165.4679433437762,
        "ticks": 32512
      },
      {
        "bpm": 171.97249586549458,
        "ticks": 33024
      },
      {
        "bpm": 171.97249586549458,
        "ticks": 51200
      },
      {
        "bpm": 170.97670442402222,
        "ticks": 51456
      },
      {
        "bpm": 169.97985738689965,
        "ticks": 51712
      },
      {
        "bpm": 168.98361985444876,
        "ticks": 51968
      },
      {
        "bpm": 168.45699012280514,
        "ticks": 52224
      },
      {
        "bpm": 167.46024214751014,
        "ticks": 52480
      },
      {
        "bpm": 166.4641353020492,
        "ticks": 52736
      },
      {
        "bpm": 165.4679433437762,
        "ticks": 52992
      },
      {
        "bpm": 171.97249586549458,
        "ticks": 53504
      },
      {
        "bpm": 171.97249586549458,
        "ticks": 75776
      },
      {
        "bpm": 171.44522610767902,
        "ticks": 76032
      },
      {
        "bpm": 170.97670442402222,
        "ticks": 76288
      },
      {
        "bpm": 170.44921891645433,
        "ticks": 76544
      },
      {
        "bpm": 169.97985738689965,
        "ticks": 76800
      },
      {
        "bpm": 169.45323090826932,
        "ticks": 77056
      },
      {
        "bpm": 168.98361985444876,
        "ticks": 77312
      },
      {
        "bpm": 168.45699012280514,
        "ticks": 77568
      },
      {
        "bpm": 171.97249586549458,
        "ticks": 77824
      },
      {
        "bpm": 171.97249586549458,
        "ticks": 102400
      },
      {
        "bpm": 171.97249586549458,
        "ticks": 104448
      },
      {
        "bpm": 171.44522610767902,
        "ticks": 104704
      },
      {
        "bpm": 170.97670442402222,
        "ticks": 104960
      },
      {
        "bpm": 170.44921891645433,
        "ticks": 105216
      },
      {
        "bpm": 169.97985738689965,
        "ticks": 105472
      },
      {
        "bpm": 169.45323090826932,
        "ticks": 105728
      },
      {
        "bpm": 168.98361985444876,
        "ticks": 105984
      },
      {
        "bpm": 168.45699012280514,
        "ticks": 106240
      },
      {
        "bpm": 171.97249586549458,
        "ticks": 106496
      },
      {
        "bpm": 171.97249586549458,
        "ticks": 108544
      },
      {
        "bpm": 171.44522610767902,
        "ticks": 108800
      },
      {
        "bpm": 170.97670442402222,
        "ticks": 109056
      },
      {
        "bpm": 170.44921891645433,
        "ticks": 109312
      },
      {
        "bpm": 169.97985738689965,
        "ticks": 109568
      },
      {
        "bpm": 169.45323090826932,
        "ticks": 109824
      },
      {
        "bpm": 168.98361985444876,
        "ticks": 110080
      },
      {
        "bpm": 168.45699012280514,
        "ticks": 110336
      },
      {
        "bpm": 171.97249586549458,
        "ticks": 110592
      },
      {
        "bpm": 171.97249586549458,
        "ticks": 120832
      },
      {
        "bpm": 170.97670442402222,
        "ticks": 121088
      },
      {
        "bpm": 169.97985738689965,
        "ticks": 121344
      },
      {
        "bpm": 168.98361985444876,
        "ticks": 121600
      },
      {
        "bpm": 168.45699012280514,
        "ticks": 121856
      },
      {
        "bpm": 167.46024214751014,
        "ticks": 122112
      },
      {
        "bpm": 166.4641353020492,
        "ticks": 122368
      },
      {
        "bpm": 165.4679433437762,
        "ticks": 122624
      },
      {
        "bpm": 171.97249586549458,
        "ticks": 123136
      },
      {
        "bpm": 171.97249586549458,
        "ticks": 129024
      },
      {
        "bpm": 170.97670442402222,
        "ticks": 129280
      },
      {
        "bpm": 169.97985738689965,
        "ticks": 129536
      },
      {
        "bpm": 168.98361985444876,
        "ticks": 129792
      },
      {
        "bpm": 168.45699012280514,
        "ticks": 130048
      },
      {
        "bpm": 167.46024214751014,
        "ticks": 130304
      },
      {
        "bpm": 166.4641353020492,
        "ticks": 130560
      },
      {
        "bpm": 165.4679433437762,
        "ticks": 130816
      },
      {
        "bpm": 171.97249586549458,
        "ticks": 131328
      },
      {
        "bpm": 171.97249586549458,
        "ticks": 149504
      },
      {
        "bpm": 170.97670442402222,
        "ticks": 149760
      },
      {
        "bpm": 169.97985738689965,
        "ticks": 150016
      },
      {
        "bpm": 168.98361985444876,
        "ticks": 150272
      },
      {
        "bpm": 168.45699012280514,
        "ticks": 150528
      },
      {
        "bpm": 167.46024214751014,
        "ticks": 150784
      },
      {
        "bpm": 166.4641353020492,
        "ticks": 151040
      },
      {
        "bpm": 165.4679433437762,
        "ticks": 151296
      },
      {
        "bpm": 171.97249586549458,
        "ticks": 151808
      },
      {
        "bpm": 171.97249586549458,
        "ticks": 174080
      },
      {
        "bpm": 171.44522610767902,
        "ticks": 174336
      },
      {
        "bpm": 170.97670442402222,
        "ticks": 174592
      },
      {
        "bpm": 170.44921891645433,
        "ticks": 174848
      },
      {
        "bpm": 169.97985738689965,
        "ticks": 175104
      },
      {
        "bpm": 169.45323090826932,
        "ticks": 175360
      },
      {
        "bpm": 168.98361985444876,
        "ticks": 175616
      },
      {
        "bpm": 168.45699012280514,
        "ticks": 175872
      },
      {
        "bpm": 171.97249586549458,
        "ticks": 176128
      }
    ],
    "timeSignatures": [
      {
        "ticks": 0,
        "timeSignature": [
          4,
          4
        ],
        "measures": 0
      }
    ]
  },
  "tracks": [
    {
      "channel": 0,
      "controlChanges": {
        "7": [
          {
            "number": 7,
            "ticks": 0,
            "time": 0,
            "value": 0.7952755905511811
          },
          {
            "number": 7,
            "ticks": 0,
            "time": 0,
            "value": 0.8031496062992126
          },
          {
            "number": 7,
            "ticks": 0,
            "time": 0,
            "value": 0.8661417322834646
          },
          {
            "number": 7,
            "ticks": 4028,
            "time": 1.37240332421875,
            "value": 0.8031496062992126
          }
        ],
        "10": [
          {
            "number": 10,
            "ticks": 0,
            "time": 0,
            "value": 0.5039370078740157
          }
        ]
      },
      "pitchBends": [],
      "instrument": {
        "family": "piano",
        "number": 0,
        "name": "acoustic grand piano"
      },
      "name": "SmartMusic SoftSynth",
      "notes": [
        {
          "duration": 0.16149929882812497,
          "durationTicks": 474,
          "midi": 72,
          "name": "C5",
          "ticks": 2579,
          "time": 0.8787061005859376,
          "velocity": 0.5039370078740157
        },
        {
          "duration": 0.16149929882812497,
          "durationTicks": 474,
          "midi": 73,
          "name": "C#5",
          "ticks": 3084,
          "time": 1.05076758984375,
          "velocity": 0.5118110236220472
        },
        {
          "duration": 0.17240220507812487,
          "durationTicks": 506,
          "midi": 76,
          "name": "E5",
          "ticks": 3589,
          "time": 1.2228290791015626,
          "velocity": 0.5039370078740157
        },
        {
          "duration": 0.18432725878906253,
          "durationTicks": 541,
          "midi": 76,
          "name": "E5",
          "ticks": 4100,
          "time": 1.39693486328125,
          "velocity": 0.48031496062992124
        },
        {
          "duration": 0.18432725878906253,
          "durationTicks": 541,
          "midi": 81,
          "name": "A5",
          "ticks": 4100,
          "time": 1.39693486328125,
          "velocity": 0.5590551181102362
        },
        {
          "duration": 0.17410578417968758,
          "durationTicks": 511,
          "midi": 33,
          "name": "A1",
          "ticks": 4100,
          "time": 1.39693486328125,
          "velocity": 0.5433070866141733
        },
        {
          "duration": 0.17274292089843746,
          "durationTicks": 507,
          "midi": 76,
          "name": "E5",
          "ticks": 4642,
          "time": 1.581602837890625,
          "velocity": 0.4409448818897638
        },
        {
          "duration": 0.17274292089843746,
          "durationTicks": 507,
          "midi": 81,
          "name": "A5",
          "ticks": 4642,
          "time": 1.581602837890625,
          "velocity": 0.5196850393700787
        },
        {
          "duration": 0.17172077343749992,
          "durationTicks": 504,
          "midi": 76,
          "name": "E5",
          "ticks": 5150,
          "time": 1.754686474609375,
          "velocity": 0.44881889763779526
        },
        {
          "duration": 0.17172077343749992,
          "durationTicks": 504,
          "midi": 81,
          "name": "A5",
          "ticks": 5150,
          "time": 1.754686474609375,
          "velocity": 0.5275590551181102
        },
        {
          "duration": 0.17342435253906263,
          "durationTicks": 509,
          "midi": 76,
          "name": "E5",
          "ticks": 5655,
          "time": 1.9267479638671876,
          "velocity": 0.4409448818897638
        },
        {
          "duration": 0.17342435253906263,
          "durationTicks": 509,
          "midi": 81,
          "name": "A5",
          "ticks": 5655,
          "time": 1.9267479638671876,
          "velocity": 0.5196850393700787
        },
        {
          "duration": 0.16345855371093787,
          "durationTicks": 479,
          "midi": 76,
          "name": "E5",
          "ticks": 6165,
          "time": 2.1005130322265626,
          "velocity": 0.4645669291338583
        },
        {
          "duration": 0.17372832128906301,
          "durationTicks": 509,
          "midi": 81,
          "name": "A5",
          "ticks": 6165,
          "time": 2.1005130322265626,
          "velocity": 0.5433070866141733
        },
        {
          "duration": 0.16269124218749997,
          "durationTicks": 474,
          "midi": 78,
          "name": "F#5",
          "ticks": 6675,
          "time": 2.274584053710938,
          "velocity": 0.5039370078740157
        },
        {
          "duration": 0.16363891796875008,
          "durationTicks": 474,
          "midi": 76,
          "name": "E5",
          "ticks": 7180,
          "time": 2.44794326953125,
          "velocity": 0.5118110236220472
        },
        {
          "duration": 0.1652931777343749,
          "durationTicks": 476,
          "midi": 78,
          "name": "F#5",
          "ticks": 7685,
          "time": 2.6223062109375004,
          "velocity": 0.5039370078740157
        },
        {
          "duration": 0.18432725878906275,
          "durationTicks": 541,
          "midi": 72,
          "name": "C5",
          "ticks": 8196,
          "time": 2.79974486328125,
          "velocity": 0.48031496062992124
        },
        {
          "duration": 0.18432725878906275,
          "durationTicks": 541,
          "midi": 76,
          "name": "E5",
          "ticks": 8196,
          "time": 2.79974486328125,
          "velocity": 0.5590551181102362
        },
        {
          "duration": 0.1741057841796878,
          "durationTicks": 511,
          "midi": 38,
          "name": "D2",
          "ticks": 8196,
          "time": 2.79974486328125,
          "velocity": 0.5433070866141733
        },
        {
          "duration": 0.17274292089843746,
          "durationTicks": 507,
          "midi": 72,
          "name": "C5",
          "ticks": 8738,
          "time": 2.984412837890625,
          "velocity": 0.4409448818897638
        },
        {
          "duration": 0.17274292089843746,
          "durationTicks": 507,
          "midi": 76,
          "name": "E5",
          "ticks": 8738,
          "time": 2.984412837890625,
          "velocity": 0.5196850393700787
        },
        {
          "duration": 0.17172077343750036,
          "durationTicks": 504,
          "midi": 72,
          "name": "C5",
          "ticks": 9246,
          "time": 3.157496474609375,
          "velocity": 0.44881889763779526
        },
        {
          "duration": 0.17172077343750036,
          "durationTicks": 504,
          "midi": 76,
          "name": "E5",
          "ticks": 9246,
          "time": 3.157496474609375,
          "velocity": 0.5275590551181102
        },
        {
          "duration": 0.1734243525390622,
          "durationTicks": 509,
          "midi": 72,
          "name": "C5",
          "ticks": 9751,
          "time": 3.3295579638671877,
          "velocity": 0.4409448818897638
        },
        {
          "duration": 0.1734243525390622,
          "durationTicks": 509,
          "midi": 76,
          "name": "E5",
          "ticks": 9751,
          "time": 3.3295579638671877,
          "velocity": 0.5196850393700787
        },
        {
          "duration": 0.16345855371093787,
          "durationTicks": 479,
          "midi": 72,
          "name": "C5",
          "ticks": 10261,
          "time": 3.5033230322265623,
          "velocity": 0.4645669291338583
        },
        {
          "duration": 0.17372832128906301,
          "durationTicks": 509,
          "midi": 76,
          "name": "E5",
          "ticks": 10261,
          "time": 3.5033230322265623,
          "velocity": 0.5433070866141733
        },
        {
          "duration": 0.16269124218749997,
          "durationTicks": 474,
          "midi": 78,
          "name": "F#5",
          "ticks": 10771,
          "time": 3.6773940537109375,
          "velocity": 0.5039370078740157
        },
        {
          "duration": 0.16363891796875052,
          "durationTicks": 474,
          "midi": 76,
          "name": "E5",
          "ticks": 11276,
          "time": 3.85075326953125,
          "velocity": 0.5118110236220472
        },
        {
          "duration": 0.1652931777343749,
          "durationTicks": 476,
          "midi": 78,
          "name": "F#5",
          "ticks": 11781,
          "time": 4.0251162109375,
          "velocity": 0.5039370078740157
        },
        {
          "duration": 0.17410578417968736,
          "durationTicks": 511,
          "midi": 76,
          "name": "E5",
          "ticks": 12292,
          "time": 4.20255486328125,
          "velocity": 0.48031496062992124
        },
        {
          "duration": 0.18432725878906187,
          "durationTicks": 541,
          "midi": 81,
          "name": "A5",
          "ticks": 12292,
          "time": 4.20255486328125,
          "velocity": 0.5905511811023622
        },
        {
          "duration": 0.17410578417968736,
          "durationTicks": 511,
          "midi": 33,
          "name": "A1",
          "ticks": 12292,
          "time": 4.20255486328125,
          "velocity": 0.5433070866141733
        },
        {
          "duration": 0.1625214462890625,
          "durationTicks": 477,
          "midi": 78,
          "name": "F#5",
          "ticks": 12834,
          "time": 4.387222837890625,
          "velocity": 0.5039370078740157
        },
        {
          "duration": 0.16149929882812497,
          "durationTicks": 474,
          "midi": 76,
          "name": "E5",
          "ticks": 13342,
          "time": 4.560306474609375,
          "velocity": 0.5118110236220472
        },
        {
          "duration": 0.16320287792968813,
          "durationTicks": 479,
          "midi": 78,
          "name": "F#5",
          "ticks": 13847,
          "time": 4.732367963867187,
          "velocity": 0.5039370078740157
        },
        {
          "duration": 0.16320287792968724,
          "durationTicks": 479,
          "midi": 76,
          "name": "E5",
          "ticks": 14357,
          "time": 4.906133032226562,
          "velocity": 0.4645669291338583
        },
        {
          "duration": 0.17342435253906263,
          "durationTicks": 509,
          "midi": 81,
          "name": "A5",
          "ticks": 14357,
          "time": 4.906133032226562,
          "velocity": 0.5748031496062992
        },
        {
          "duration": 0.1107326416015626,
          "durationTicks": 325,
          "midi": 33,
          "name": "A1",
          "ticks": 14357,
          "time": 4.906133032226562,
          "velocity": 0.5275590551181102
        },
        {
          "duration": 0.10494047265625017,
          "durationTicks": 308,
          "midi": 32,
          "name": "G#1",
          "ticks": 14703,
          "time": 5.024020706054687,
          "velocity": 0.5039370078740157
        },
        {
          "duration": 0.16149929882812408,
          "durationTicks": 474,
          "midi": 78,
          "name": "F#5",
          "ticks": 14867,
          "time": 5.079898100585938,
          "velocity": 0.5039370078740157
        },
        {
          "duration": 0.10868834667968752,
          "durationTicks": 319,
          "midi": 31,
          "name": "G1",
          "ticks": 15032,
          "time": 5.1361162109375,
          "velocity": 0.5039370078740157
        },
        {
          "duration": 0.16149929882812497,
          "durationTicks": 474,
          "midi": 76,
          "name": "E5",
          "ticks": 15372,
          "time": 5.25195958984375,
          "velocity": 0.5118110236220472
        },
        {
          "duration": 0.10868834667968752,
          "durationTicks": 319,
          "midi": 30,
          "name": "F#1",
          "ticks": 15372,
          "time": 5.25195958984375,
          "velocity": 0.5118110236220472
        },
        {
          "duration": 0.10528118847656298,
          "durationTicks": 309,
          "midi": 29,
          "name": "F1",
          "ticks": 15712,
          "time": 5.3678029687499995,
          "velocity": 0.5039370078740157
        },
        {
          "duration": 0.1621807304687497,
          "durationTicks": 476,
          "midi": 78,
          "name": "F#5",
          "ticks": 15877,
          "time": 5.424021079101562,
          "velocity": 0.5039370078740157
        },
        {
          "duration": 0.10936977832031314,
          "durationTicks": 321,
          "midi": 28,
          "name": "E1",
          "ticks": 16042,
          "time": 5.480239189453124,
          "velocity": 0.49606299212598426
        },
        {
          "duration": 0.0436116249999996,
          "durationTicks": 128,
          "midi": 84,
          "name": "C6",
          "ticks": 16768,
          "time": 5.727598875,
          "velocity": 0.5511811023622047
        },
        {
          "duration": 0.07836463867187504,
          "durationTicks": 230,
          "midi": 78,
          "name": "F#5",
          "ticks": 16896,
          "time": 5.7712105,
          "velocity": 0.5039370078740157
        },
        {
          "duration": 0.0875639658203129,
          "durationTicks": 257,
          "midi": 84,
          "name": "C6",
          "ticks": 16896,
          "time": 5.7712105,
          "velocity": 0.5511811023622047
        },
        {
          "duration": 0.17172077343750036,
          "durationTicks": 504,
          "midi": 85,
          "name": "C#6",
          "ticks": 16904,
          "time": 5.773936226562499,
          "velocity": 0.5511811023622047
        },
        {
          "duration": 0.172742920898437,
          "durationTicks": 507,
          "midi": 40,
          "name": "E2",
          "ticks": 16930,
          "time": 5.782794837890625,
          "velocity": 0.5039370078740157
        },
        {
          "duration": 1.1424201455078125,
          "durationTicks": 3353,
          "midi": 79,
          "name": "G5",
          "ticks": 17126,
          "time": 5.849575138671875,
          "velocity": 0.5039370078740157
        },
        {
          "duration": 1.1424201455078125,
          "durationTicks": 3353,
          "midi": 85,
          "name": "C#6",
          "ticks": 17126,
          "time": 5.849575138671875,
          "velocity": 0.5118110236220472
        },
        {
          "duration": 0.17172077343749947,
          "durationTicks": 504,
          "midi": 40,
          "name": "E2",
          "ticks": 17438,
          "time": 5.955878474609375,
          "velocity": 0.5118110236220472
        },
        {
          "duration": 0.17342435253906263,
          "durationTicks": 509,
          "midi": 40,
          "name": "E2",
          "ticks": 17943,
          "time": 6.127939963867187,
          "velocity": 0.5039370078740157
        },
        {
          "duration": 0.17342435253906174,
          "durationTicks": 509,
          "midi": 40,
          "name": "E2",
          "ticks": 18453,
          "time": 6.301705032226563,
          "velocity": 0.5275590551181102
        },
        {
          "duration": 0.17172077343749947,
          "durationTicks": 504,
          "midi": 40,
          "name": "E2",
          "ticks": 18963,
          "time": 6.475470100585937,
          "velocity": 0.5039370078740157
        },
        {
          "duration": 0.17172077343750036,
          "durationTicks": 504,
          "midi": 40,
          "name": "E2",
          "ticks": 19468,
          "time": 6.64753158984375,
          "velocity": 0.5118110236220472
        },
        {
          "duration": 0.1621807304687506,
          "durationTicks": 476,
          "midi": 40,
          "name": "E2",
          "ticks": 19973,
          "time": 6.819593079101562,
          "velocity": 0.5039370078740157
        },
        {
          "duration": 0.14821138183593785,
          "durationTicks": 435,
          "midi": 74,
          "name": "D5",
          "ticks": 20484,
          "time": 6.993698863281249,
          "velocity": 0.5433070866141733
        },
        {
          "duration": 0.18432725878906275,
          "durationTicks": 541,
          "midi": 38,
          "name": "D2",
          "ticks": 20484,
          "time": 6.993698863281249,
          "velocity": 0.5433070866141733
        },
        {
          "duration": 0.1625214462890625,
          "durationTicks": 477,
          "midi": 38,
          "name": "D2",
          "ticks": 21026,
          "time": 7.178366837890625,
          "velocity": 0.5039370078740157
        },
        {
          "duration": 0.0872232499999992,
          "durationTicks": 256,
          "midi": 72,
          "name": "C5",
          "ticks": 21504,
          "time": 7.341229,
          "velocity": 0.5118110236220472
        },
        {
          "duration": 0.17172077343750036,
          "durationTicks": 504,
          "midi": 42,
          "name": "F#2",
          "ticks": 21534,
          "time": 7.351450474609375,
          "velocity": 0.5118110236220472
        },
        {
          "duration": 0.2708690771484372,
          "durationTicks": 795,
          "midi": 73,
          "name": "C#5",
          "ticks": 21733,
          "time": 7.4192529228515625,
          "velocity": 0.4645669291338583
        },
        {
          "duration": 0.16320287792968635,
          "durationTicks": 479,
          "midi": 42,
          "name": "F#2",
          "ticks": 22039,
          "time": 7.523511963867188,
          "velocity": 0.5039370078740157
        },
        {
          "duration": 0.13661374999999953,
          "durationTicks": 400,
          "midi": 74,
          "name": "D5",
          "ticks": 22549,
          "time": 7.6972770322265625,
          "velocity": 0.5275590551181102
        },
        {
          "duration": 0.1740042470703127,
          "durationTicks": 509,
          "midi": 45,
          "name": "A2",
          "ticks": 22549,
          "time": 7.6972770322265625,
          "velocity": 0.5275590551181102
        },
        {
          "duration": 0.16387415917968706,
          "durationTicks": 474,
          "midi": 45,
          "name": "A2",
          "ticks": 23059,
          "time": 7.871625989257812,
          "velocity": 0.5039370078740157
        },
        {
          "duration": 0.08695654296874977,
          "durationTicks": 250,
          "midi": 72,
          "name": "C5",
          "ticks": 23552,
          "time": 8.042088249999999,
          "velocity": 0.5118110236220472
        },
        {
          "duration": 0.16534577734375056,
          "durationTicks": 474,
          "midi": 47,
          "name": "B2",
          "ticks": 23564,
          "time": 8.0462621640625,
          "velocity": 0.5118110236220472
        },
        {
          "duration": 0.2814654375000014,
          "durationTicks": 800,
          "midi": 73,
          "name": "C#5",
          "ticks": 23776,
          "time": 8.1200013125,
          "velocity": 0.4645669291338583
        },
        {
          "duration": 0.16802415820312433,
          "durationTicks": 476,
          "midi": 45,
          "name": "A2",
          "ticks": 24069,
          "time": 8.222465201171875,
          "velocity": 0.5039370078740157
        },
        {
          "duration": 0.18770243457031377,
          "durationTicks": 541,
          "midi": 38,
          "name": "D2",
          "ticks": 24580,
          "time": 8.4028831875,
          "velocity": 0.5433070866141733
        },
        {
          "duration": 0.1625214462890625,
          "durationTicks": 477,
          "midi": 74,
          "name": "D5",
          "ticks": 25122,
          "time": 8.590926337890627,
          "velocity": 0.5039370078740157
        },
        {
          "duration": 0.1625214462890625,
          "durationTicks": 477,
          "midi": 38,
          "name": "D2",
          "ticks": 25122,
          "time": 8.590926337890627,
          "velocity": 0.5039370078740157
        },
        {
          "duration": 0.08756396582031378,
          "durationTicks": 257,
          "midi": 72,
          "name": "C5",
          "ticks": 25600,
          "time": 8.7537885,
          "velocity": 0.5118110236220472
        },
        {
          "duration": 0.17172077343749947,
          "durationTicks": 504,
          "midi": 42,
          "name": "F#2",
          "ticks": 25630,
          "time": 8.764009974609376,
          "velocity": 0.5118110236220472
        },
        {
          "duration": 0.2705283613281253,
          "durationTicks": 794,
          "midi": 73,
          "name": "C#5",
          "ticks": 25830,
          "time": 8.832153138671876,
          "velocity": 0.4645669291338583
        },
        {
          "duration": 0.16320287792968813,
          "durationTicks": 479,
          "midi": 42,
          "name": "F#2",
          "ticks": 26135,
          "time": 8.936071463867188,
          "velocity": 0.5039370078740157
        },
        {
          "duration": 0.13628632812500108,
          "durationTicks": 400,
          "midi": 74,
          "name": "D5",
          "ticks": 26645,
          "time": 9.109836532226563,
          "velocity": 0.5275590551181102
        },
        {
          "duration": 0.17342435253906352,
          "durationTicks": 509,
          "midi": 45,
          "name": "A2",
          "ticks": 26645,
          "time": 9.109836532226563,
          "velocity": 0.5275590551181102
        },
        {
          "duration": 0.16149929882812408,
          "durationTicks": 474,
          "midi": 45,
          "name": "A2",
          "ticks": 27155,
          "time": 9.28360160058594,
          "velocity": 0.5039370078740157
        },
        {
          "duration": 0.08654181835937536,
          "durationTicks": 254,
          "midi": 72,
          "name": "C5",
          "ticks": 27648,
          "time": 9.451574500000001,
          "velocity": 0.5118110236220472
        },
        {
          "duration": 0.16149929882812408,
          "durationTicks": 474,
          "midi": 47,
          "name": "B2",
          "ticks": 27660,
          "time": 9.455663089843751,
          "velocity": 0.5118110236220472
        },
        {
          "duration": 0.2715505087890637,
          "durationTicks": 797,
          "midi": 73,
          "name": "C#5",
          "ticks": 27875,
          "time": 9.528916991210938,
          "velocity": 0.4645669291338583
        },
        {
          "duration": 0.1621807304687497,
          "durationTicks": 476,
          "midi": 45,
          "name": "A2",
          "ticks": 28165,
          "time": 9.627724579101564,
          "velocity": 0.5039370078740157
        },
        {
          "duration": 0.18432725878906275,
          "durationTicks": 541,
          "midi": 76,
          "name": "E5",
          "ticks": 28676,
          "time": 9.801830363281251,
          "velocity": 0.48031496062992124
        },
        {
          "duration": 0.18432725878906275,
          "durationTicks": 541,
          "midi": 81,
          "name": "A5",
          "ticks": 28676,
          "time": 9.801830363281251,
          "velocity": 0.5590551181102362
        },
        {
          "duration": 0.18432725878906275,
          "durationTicks": 541,
          "midi": 33,
          "name": "A1",
          "ticks": 28676,
          "time": 9.801830363281251,
          "velocity": 0.5433070866141733
        },
        {
          "duration": 0.1727429208984379,
          "durationTicks": 507,
          "midi": 76,
          "name": "E5",
          "ticks": 29218,
          "time": 9.986498337890627,
          "velocity": 0.4409448818897638
        },
        {
          "duration": 0.1727429208984379,
          "durationTicks": 507,
          "midi": 81,
          "name": "A5",
          "ticks": 29218,
          "time": 9.986498337890627,
          "velocity": 0.5196850393700787
        },
        {
          "duration": 0.1625214462890625,
          "durationTicks": 477,
          "midi": 33,
          "name": "A1",
          "ticks": 29218,
          "time": 9.986498337890627,
          "velocity": 0.5039370078740157
        },
        {
          "duration": 0.16149929882812586,
          "durationTicks": 474,
          "midi": 76,
          "name": "E5",
          "ticks": 29726,
          "time": 10.159581974609376,
          "velocity": 0.44881889763779526
        },
        {
          "duration": 0.17172077343750125,
          "durationTicks": 504,
          "midi": 81,
          "name": "A5",
          "ticks": 29726,
          "time": 10.159581974609376,
          "velocity": 0.5590551181102362
        },
        {
          "duration": 0.17172077343750125,
          "durationTicks": 504,
          "midi": 37,
          "name": "C#2",
          "ticks": 29726,
          "time": 10.159581974609376,
          "velocity": 0.5118110236220472
        },
        {
          "duration": 0.16320287792968813,
          "durationTicks": 479,
          "midi": 75,
          "name": "D#5",
          "ticks": 30231,
          "time": 10.331643463867188,
          "velocity": 0.4409448818897638
        },
        {
          "duration": 0.17342435253906352,
          "durationTicks": 509,
          "midi": 80,
          "name": "G#5",
          "ticks": 30231,
          "time": 10.331643463867188,
          "velocity": 0.5511811023622047
        },
        {
          "duration": 0.16320287792968813,
          "durationTicks": 479,
          "midi": 37,
          "name": "C#2",
          "ticks": 30231,
          "time": 10.331643463867188,
          "velocity": 0.5039370078740157
        },
        {
          "duration": 0.17400424707031092,
          "durationTicks": 509,
          "midi": 76,
          "name": "E5",
          "ticks": 30741,
          "time": 10.505408532226562,
          "velocity": 0.4645669291338583
        },
        {
          "duration": 0.17400424707031092,
          "durationTicks": 509,
          "midi": 81,
          "name": "A5",
          "ticks": 30741,
          "time": 10.505408532226562,
          "velocity": 0.5748031496062992
        },
        {
          "duration": 0.17400424707031092,
          "durationTicks": 509,
          "midi": 40,
          "name": "E2",
          "ticks": 30741,
          "time": 10.505408532226562,
          "velocity": 0.5275590551181102
        },
        {
          "duration": 0.16387415917968795,
          "durationTicks": 474,
          "midi": 76,
          "name": "E5",
          "ticks": 31251,
          "time": 10.679757489257812,
          "velocity": 0.4409448818897638
        },
        {
          "duration": 0.17428834863281217,
          "durationTicks": 504,
          "midi": 81,
          "name": "A5",
          "ticks": 31251,
          "time": 10.679757489257812,
          "velocity": 0.5511811023622047
        },
        {
          "duration": 0.16387415917968795,
          "durationTicks": 474,
          "midi": 40,
          "name": "E2",
          "ticks": 31251,
          "time": 10.679757489257812,
          "velocity": 0.5039370078740157
        },
        {
          "duration": 0.16534577734375056,
          "durationTicks": 474,
          "midi": 75,
          "name": "D#5",
          "ticks": 31756,
          "time": 10.8543936640625,
          "velocity": 0.44881889763779526
        },
        {
          "duration": 0.17585104687500142,
          "durationTicks": 504,
          "midi": 80,
          "name": "G#5",
          "ticks": 31756,
          "time": 10.8543936640625,
          "velocity": 0.5590551181102362
        },
        {
          "duration": 0.16534577734375056,
          "durationTicks": 474,
          "midi": 42,
          "name": "F#2",
          "ticks": 31756,
          "time": 10.8543936640625,
          "velocity": 0.5118110236220472
        },
        {
          "duration": 0.16802415820312433,
          "durationTicks": 476,
          "midi": 76,
          "name": "E5",
          "ticks": 32261,
          "time": 11.030596701171875,
          "velocity": 0.4409448818897638
        },
        {
          "duration": 0.17864743945312433,
          "durationTicks": 506,
          "midi": 81,
          "name": "A5",
          "ticks": 32261,
          "time": 11.030596701171875,
          "velocity": 0.5511811023622047
        },
        {
          "duration": 0.16802415820312433,
          "durationTicks": 476,
          "midi": 40,
          "name": "E2",
          "ticks": 32261,
          "time": 11.030596701171875,
          "velocity": 0.5039370078740157
        },
        {
          "duration": 0.18770243457031377,
          "durationTicks": 541,
          "midi": 33,
          "name": "A1",
          "ticks": 32772,
          "time": 11.2110146875,
          "velocity": 0.5433070866141733
        },
        {
          "duration": 0.1625214462890625,
          "durationTicks": 477,
          "midi": 84,
          "name": "C6",
          "ticks": 33314,
          "time": 11.399057837890627,
          "velocity": 0.5039370078740157
        },
        {
          "duration": 0.1625214462890625,
          "durationTicks": 477,
          "midi": 33,
          "name": "A1",
          "ticks": 33314,
          "time": 11.399057837890627,
          "velocity": 0.5039370078740157
        },
        {
          "duration": 0.16149929882812586,
          "durationTicks": 474,
          "midi": 81,
          "name": "A5",
          "ticks": 33822,
          "time": 11.572141474609376,
          "velocity": 0.5118110236220472
        },
        {
          "duration": 0.17172077343749947,
          "durationTicks": 504,
          "midi": 37,
          "name": "C#2",
          "ticks": 33822,
          "time": 11.572141474609376,
          "velocity": 0.5118110236220472
        },
        {
          "duration": 0.16320287792968813,
          "durationTicks": 479,
          "midi": 79,
          "name": "G5",
          "ticks": 34327,
          "time": 11.744202963867188,
          "velocity": 0.5039370078740157
        },
        {
          "duration": 0.16320287792968813,
          "durationTicks": 479,
          "midi": 37,
          "name": "C#2",
          "ticks": 34327,
          "time": 11.744202963867188,
          "velocity": 0.5039370078740157
        },
        {
          "duration": 0.16320287792968635,
          "durationTicks": 479,
          "midi": 76,
          "name": "E5",
          "ticks": 34837,
          "time": 11.917968032226565,
          "velocity": 0.5275590551181102
        },
        {
          "duration": 0.17342435253906174,
          "durationTicks": 509,
          "midi": 40,
          "name": "E2",
          "ticks": 34837,
          "time": 11.917968032226565,
          "velocity": 0.5275590551181102
        },
        {
          "duration": 0.16149929882812408,
          "durationTicks": 474,
          "midi": 74,
          "name": "D5",
          "ticks": 35347,
          "time": 12.09173310058594,
          "velocity": 0.5039370078740157
        },
        {
          "duration": 0.16149929882812408,
          "durationTicks": 474,
          "midi": 40,
          "name": "E2",
          "ticks": 35347,
          "time": 12.09173310058594,
          "velocity": 0.5039370078740157
        },
        {
          "duration": 0.16149929882812408,
          "durationTicks": 474,
          "midi": 72,
          "name": "C5",
          "ticks": 35852,
          "time": 12.263794589843751,
          "velocity": 0.5118110236220472
        },
        {
          "duration": 0.16149929882812408,
          "durationTicks": 474,
          "midi": 42,
          "name": "F#2",
          "ticks": 35852,
          "time": 12.263794589843751,
          "velocity": 0.5118110236220472
        },
        {
          "duration": 0.1621807304687497,
          "durationTicks": 476,
          "midi": 69,
          "name": "A4",
          "ticks": 36357,
          "time": 12.435856079101564,
          "velocity": 0.5039370078740157
        },
        {
          "duration": 0.1724022050781251,
          "durationTicks": 506,
          "midi": 40,
          "name": "E2",
          "ticks": 36357,
          "time": 12.435856079101564,
          "velocity": 0.5039370078740157
        },
        {
          "duration": 0.0872232499999992,
          "durationTicks": 256,
          "midi": 73,
          "name": "C#5",
          "ticks": 36864,
          "time": 12.608599000000002,
          "velocity": 0.5433070866141733
        },
        {
          "duration": 0.18432725878906275,
          "durationTicks": 541,
          "midi": 40,
          "name": "E2",
          "ticks": 36868,
          "time": 12.609961863281251,
          "velocity": 0.5433070866141733
        },
        {
          "duration": 0.2708690771484381,
          "durationTicks": 795,
          "midi": 74,
          "name": "D5",
          "ticks": 37093,
          "time": 12.686622922851564,
          "velocity": 0.4645669291338583
        },
        {
          "duration": 0.1625214462890625,
          "durationTicks": 477,
          "midi": 40,
          "name": "E2",
          "ticks": 37410,
          "time": 12.794629837890627,
          "velocity": 0.5039370078740157
        },
        {
          "duration": 0.08688253417968639,
          "durationTicks": 255,
          "midi": 73,
          "name": "C#5",
          "ticks": 37888,
          "time": 12.957492000000002,
          "velocity": 0.5118110236220472
        },
        {
          "duration": 0.17172077343750125,
          "durationTicks": 504,
          "midi": 44,
          "name": "G#2",
          "ticks": 37918,
          "time": 12.967713474609376,
          "velocity": 0.5118110236220472
        },
        {
          "duration": 0.2712097929687509,
          "durationTicks": 796,
          "midi": 74,
          "name": "D5",
          "ticks": 38116,
          "time": 13.035175207031251,
          "velocity": 0.4645669291338583
        },
        {
          "duration": 0.16320287792968635,
          "durationTicks": 479,
          "midi": 44,
          "name": "G#2",
          "ticks": 38423,
          "time": 13.13977496386719,
          "velocity": 0.5039370078740157
        },
        {
          "duration": 0.08654181835937358,
          "durationTicks": 254,
          "midi": 73,
          "name": "C#5",
          "ticks": 38912,
          "time": 13.306385000000002,
          "velocity": 0.5275590551181102
        },
        {
          "duration": 0.17342435253906174,
          "durationTicks": 509,
          "midi": 47,
          "name": "B2",
          "ticks": 38933,
          "time": 13.313540032226564,
          "velocity": 0.5275590551181102
        },
        {
          "duration": 0.09710400878906178,
          "durationTicks": 285,
          "midi": 74,
          "name": "D5",
          "ticks": 39139,
          "time": 13.383727491210939,
          "velocity": 0.4645669291338583
        },
        {
          "duration": 0.16149929882812586,
          "durationTicks": 474,
          "midi": 74,
          "name": "D5",
          "ticks": 39443,
          "time": 13.487305100585939,
          "velocity": 0.5039370078740157
        },
        {
          "duration": 0.16149929882812586,
          "durationTicks": 474,
          "midi": 47,
          "name": "B2",
          "ticks": 39443,
          "time": 13.487305100585939,
          "velocity": 0.5039370078740157
        },
        {
          "duration": 0.16149929882812586,
          "durationTicks": 474,
          "midi": 72,
          "name": "C5",
          "ticks": 39948,
          "time": 13.659366589843751,
          "velocity": 0.5118110236220472
        },
        {
          "duration": 0.16149929882812586,
          "durationTicks": 474,
          "midi": 49,
          "name": "C#3",
          "ticks": 39948,
          "time": 13.659366589843751,
          "velocity": 0.5118110236220472
        },
        {
          "duration": 0.16218073046875148,
          "durationTicks": 476,
          "midi": 69,
          "name": "A4",
          "ticks": 40453,
          "time": 13.831428079101563,
          "velocity": 0.5039370078740157
        },
        {
          "duration": 0.16218073046875148,
          "durationTicks": 476,
          "midi": 47,
          "name": "B2",
          "ticks": 40453,
          "time": 13.831428079101563,
          "velocity": 0.5039370078740157
        },
        {
          "duration": 0.18432725878906275,
          "durationTicks": 541,
          "midi": 38,
          "name": "D2",
          "ticks": 40964,
          "time": 14.00553386328125,
          "velocity": 0.5433070866141733
        },
        {
          "duration": 0.1625214462890625,
          "durationTicks": 477,
          "midi": 69,
          "name": "A4",
          "ticks": 41506,
          "time": 14.190201837890626,
          "velocity": 0.5039370078740157
        },
        {
          "duration": 0.1625214462890625,
          "durationTicks": 477,
          "midi": 38,
          "name": "D2",
          "ticks": 41506,
          "time": 14.190201837890626,
          "velocity": 0.5039370078740157
        },
        {
          "duration": 0.16149929882812408,
          "durationTicks": 474,
          "midi": 67,
          "name": "G4",
          "ticks": 42014,
          "time": 14.363285474609377,
          "velocity": 0.5118110236220472
        },
        {
          "duration": 0.17172077343749947,
          "durationTicks": 504,
          "midi": 42,
          "name": "F#2",
          "ticks": 42014,
          "time": 14.363285474609377,
          "velocity": 0.5118110236220472
        },
        {
          "duration": 0.16320287792968635,
          "durationTicks": 479,
          "midi": 64,
          "name": "E4",
          "ticks": 42519,
          "time": 14.53534696386719,
          "velocity": 0.5039370078740157
        },
        {
          "duration": 0.16320287792968635,
          "durationTicks": 479,
          "midi": 42,
          "name": "F#2",
          "ticks": 42519,
          "time": 14.53534696386719,
          "velocity": 0.5039370078740157
        },
        {
          "duration": 0.16320287792968813,
          "durationTicks": 479,
          "midi": 63,
          "name": "D#4",
          "ticks": 43029,
          "time": 14.709112032226564,
          "velocity": 0.5275590551181102
        },
        {
          "duration": 0.17342435253906174,
          "durationTicks": 509,
          "midi": 45,
          "name": "A2",
          "ticks": 43029,
          "time": 14.709112032226564,
          "velocity": 0.5275590551181102
        },
        {
          "duration": 0.16149929882812586,
          "durationTicks": 474,
          "midi": 62,
          "name": "D4",
          "ticks": 43539,
          "time": 14.882877100585938,
          "velocity": 0.5039370078740157
        },
        {
          "duration": 0.16149929882812586,
          "durationTicks": 474,
          "midi": 45,
          "name": "A2",
          "ticks": 43539,
          "time": 14.882877100585938,
          "velocity": 0.5039370078740157
        },
        {
          "duration": 0.16149929882812586,
          "durationTicks": 474,
          "midi": 60,
          "name": "C4",
          "ticks": 44044,
          "time": 15.05493858984375,
          "velocity": 0.5118110236220472
        },
        {
          "duration": 0.16149929882812586,
          "durationTicks": 474,
          "midi": 47,
          "name": "B2",
          "ticks": 44044,
          "time": 15.05493858984375,
          "velocity": 0.5118110236220472
        },
        {
          "duration": 0.16218073046874792,
          "durationTicks": 476,
          "midi": 57,
          "name": "A3",
          "ticks": 44549,
          "time": 15.227000079101565,
          "velocity": 0.5039370078740157
        },
        {
          "duration": 0.16218073046874792,
          "durationTicks": 476,
          "midi": 45,
          "name": "A2",
          "ticks": 44549,
          "time": 15.227000079101565,
          "velocity": 0.5039370078740157
        },
        {
          "duration": 0.18432725878906098,
          "durationTicks": 541,
          "midi": 33,
          "name": "A1",
          "ticks": 45060,
          "time": 15.401105863281252,
          "velocity": 0.5433070866141733
        },
        {
          "duration": 0.1625214462890625,
          "durationTicks": 477,
          "midi": 73,
          "name": "C#5",
          "ticks": 45602,
          "time": 15.585773837890628,
          "velocity": 0.5039370078740157
        },
        {
          "duration": 0.1625214462890625,
          "durationTicks": 477,
          "midi": 33,
          "name": "A1",
          "ticks": 45602,
          "time": 15.585773837890628,
          "velocity": 0.5039370078740157
        },
        {
          "duration": 0.16149929882812408,
          "durationTicks": 474,
          "midi": 76,
          "name": "E5",
          "ticks": 46110,
          "time": 15.758857474609377,
          "velocity": 0.5118110236220472
        },
        {
          "duration": 0.17172077343749947,
          "durationTicks": 504,
          "midi": 37,
          "name": "C#2",
          "ticks": 46110,
          "time": 15.758857474609377,
          "velocity": 0.5118110236220472
        },
        {
          "duration": 0.16320287792968813,
          "durationTicks": 479,
          "midi": 81,
          "name": "A5",
          "ticks": 46615,
          "time": 15.930918963867189,
          "velocity": 0.5039370078740157
        },
        {
          "duration": 0.16320287792968813,
          "durationTicks": 479,
          "midi": 37,
          "name": "C#2",
          "ticks": 46615,
          "time": 15.930918963867189,
          "velocity": 0.5039370078740157
        },
        {
          "duration": 0.16320287792968458,
          "durationTicks": 479,
          "midi": 79,
          "name": "G5",
          "ticks": 47125,
          "time": 16.104684032226565,
          "velocity": 0.5275590551181102
        },
        {
          "duration": 0.17342435253906174,
          "durationTicks": 509,
          "midi": 38,
          "name": "D2",
          "ticks": 47125,
          "time": 16.104684032226565,
          "velocity": 0.5275590551181102
        },
        {
          "duration": 0.16149929882812586,
          "durationTicks": 474,
          "midi": 76,
          "name": "E5",
          "ticks": 47635,
          "time": 16.278449100585938,
          "velocity": 0.5039370078740157
        },
        {
          "duration": 0.16149929882812586,
          "durationTicks": 474,
          "midi": 38,
          "name": "D2",
          "ticks": 47635,
          "time": 16.278449100585938,
          "velocity": 0.5039370078740157
        },
        {
          "duration": 0.16149929882812586,
          "durationTicks": 474,
          "midi": 74,
          "name": "D5",
          "ticks": 48140,
          "time": 16.450510589843752,
          "velocity": 0.5118110236220472
        },
        {
          "duration": 0.17172077343749947,
          "durationTicks": 504,
          "midi": 39,
          "name": "D#2",
          "ticks": 48140,
          "time": 16.450510589843752,
          "velocity": 0.5118110236220472
        },
        {
          "duration": 0.16218073046874792,
          "durationTicks": 476,
          "midi": 72,
          "name": "C5",
          "ticks": 48645,
          "time": 16.622572079101566,
          "velocity": 0.5039370078740157
        },
        {
          "duration": 0.16218073046874792,
          "durationTicks": 476,
          "midi": 39,
          "name": "D#2",
          "ticks": 48645,
          "time": 16.622572079101566,
          "velocity": 0.5039370078740157
        },
        {
          "duration": 0.3574108955078117,
          "durationTicks": 1049,
          "midi": 69,
          "name": "A4",
          "ticks": 49156,
          "time": 16.796677863281253,
          "velocity": 0.5433070866141733
        },
        {
          "duration": 0.17274292089843968,
          "durationTicks": 507,
          "midi": 40,
          "name": "E2",
          "ticks": 49698,
          "time": 16.981345837890625,
          "velocity": 0.5039370078740157
        },
        {
          "duration": 0.17172077343749947,
          "durationTicks": 504,
          "midi": 40,
          "name": "E2",
          "ticks": 50206,
          "time": 17.154429474609376,
          "velocity": 0.5118110236220472
        },
        {
          "duration": 0.8776006767578117,
          "durationTicks": 2536,
          "midi": 64,
          "name": "E4",
          "ticks": 50711,
          "time": 17.32649096386719,
          "velocity": 0.5039370078740157
        },
        {
          "duration": 0.17342435253906174,
          "durationTicks": 509,
          "midi": 40,
          "name": "E2",
          "ticks": 50711,
          "time": 17.32649096386719,
          "velocity": 0.5039370078740157
        },
        {
          "duration": 0.17400424707031448,
          "durationTicks": 509,
          "midi": 40,
          "name": "E2",
          "ticks": 51221,
          "time": 17.500256032226567,
          "velocity": 0.5275590551181102
        },
        {
          "duration": 0.17428834863281395,
          "durationTicks": 504,
          "midi": 40,
          "name": "E2",
          "ticks": 51731,
          "time": 17.674604989257816,
          "velocity": 0.5039370078740157
        },
        {
          "duration": 0.17585104687499964,
          "durationTicks": 504,
          "midi": 40,
          "name": "E2",
          "ticks": 52236,
          "time": 17.8492411640625,
          "velocity": 0.5118110236220472
        },
        {
          "duration": 0.16802415820312788,
          "durationTicks": 476,
          "midi": 40,
          "name": "E2",
          "ticks": 52741,
          "time": 18.025444201171876,
          "velocity": 0.5039370078740157
        },
        {
          "duration": 0.187702434570312,
          "durationTicks": 541,
          "midi": 57,
          "name": "A3",
          "ticks": 53252,
          "time": 18.205862187500003,
          "velocity": 0.3858267716535433
        },
        {
          "duration": 0.187702434570312,
          "durationTicks": 541,
          "midi": 64,
          "name": "E4",
          "ticks": 53252,
          "time": 18.205862187500003,
          "velocity": 0.4645669291338583
        },
        {
          "duration": 0.187702434570312,
          "durationTicks": 541,
          "midi": 33,
          "name": "A1",
          "ticks": 53252,
          "time": 18.205862187500003,
          "velocity": 0.5433070866141733
        },
        {
          "duration": 0.17274292089843613,
          "durationTicks": 507,
          "midi": 57,
          "name": "A3",
          "ticks": 53794,
          "time": 18.39390533789063,
          "velocity": 0.3464566929133858
        },
        {
          "duration": 0.17274292089843613,
          "durationTicks": 507,
          "midi": 64,
          "name": "E4",
          "ticks": 53794,
          "time": 18.39390533789063,
          "velocity": 0.4566929133858268
        },
        {
          "duration": 0.1625214462890625,
          "durationTicks": 477,
          "midi": 33,
          "name": "A1",
          "ticks": 53794,
          "time": 18.39390533789063,
          "velocity": 0.5039370078740157
        },
        {
          "duration": 0.17172077343749947,
          "durationTicks": 504,
          "midi": 57,
          "name": "A3",
          "ticks": 54302,
          "time": 18.56698897460938,
          "velocity": 0.48031496062992124
        },
        {
          "duration": 0.17172077343749947,
          "durationTicks": 504,
          "midi": 66,
          "name": "F#4",
          "ticks": 54302,
          "time": 18.56698897460938,
          "velocity": 0.5905511811023622
        },
        {
          "duration": 0.17172077343749947,
          "durationTicks": 504,
          "midi": 37,
          "name": "C#2",
          "ticks": 54302,
          "time": 18.56698897460938,
          "velocity": 0.5118110236220472
        },
        {
          "duration": 0.17342435253906174,
          "durationTicks": 509,
          "midi": 57,
          "name": "A3",
          "ticks": 54807,
          "time": 18.73905046386719,
          "velocity": 0.3464566929133858
        },
        {
          "duration": 0.17342435253906174,
          "durationTicks": 509,
          "midi": 64,
          "name": "E4",
          "ticks": 54807,
          "time": 18.73905046386719,
          "velocity": 0.4566929133858268
        },
        {
          "duration": 0.16320287792968813,
          "durationTicks": 479,
          "midi": 37,
          "name": "C#2",
          "ticks": 54807,
          "time": 18.73905046386719,
          "velocity": 0.5039370078740157
        },
        {
          "duration": 0.17342435253906174,
          "durationTicks": 509,
          "midi": 57,
          "name": "A3",
          "ticks": 55317,
          "time": 18.912815532226567,
          "velocity": 0.3700787401574803
        },
        {
          "duration": 0.17342435253906174,
          "durationTicks": 509,
          "midi": 64,
          "name": "E4",
          "ticks": 55317,
          "time": 18.912815532226567,
          "velocity": 0.44881889763779526
        },
        {
          "duration": 0.17342435253906174,
          "durationTicks": 509,
          "midi": 40,
          "name": "E2",
          "ticks": 55317,
          "time": 18.912815532226567,
          "velocity": 0.5275590551181102
        },
        {
          "duration": 0.17172077343750303,
          "durationTicks": 504,
          "midi": 57,
          "name": "A3",
          "ticks": 55827,
          "time": 19.08658060058594,
          "velocity": 0.3464566929133858
        },
        {
          "duration": 0.17172077343750303,
          "durationTicks": 504,
          "midi": 64,
          "name": "E4",
          "ticks": 55827,
          "time": 19.08658060058594,
          "velocity": 0.4566929133858268
        },
        {
          "duration": 0.16149929882812586,
          "durationTicks": 474,
          "midi": 40,
          "name": "E2",
          "ticks": 55827,
          "time": 19.08658060058594,
          "velocity": 0.5039370078740157
        },
        {
          "duration": 0.17172077343749947,
          "durationTicks": 504,
          "midi": 57,
          "name": "A3",
          "ticks": 56332,
          "time": 19.258642089843754,
          "velocity": 0.48031496062992124
        },
        {
          "duration": 0.17172077343749947,
          "durationTicks": 504,
          "midi": 66,
          "name": "F#4",
          "ticks": 56332,
          "time": 19.258642089843754,
          "velocity": 0.5905511811023622
        },
        {
          "duration": 0.17172077343749947,
          "durationTicks": 504,
          "midi": 42,
          "name": "F#2",
          "ticks": 56332,
          "time": 19.258642089843754,
          "velocity": 0.5118110236220472
        },
        {
          "duration": 0.17240220507812154,
          "durationTicks": 506,
          "midi": 57,
          "name": "A3",
          "ticks": 56837,
          "time": 19.430703579101568,
          "velocity": 0.3464566929133858
        },
        {
          "duration": 0.17240220507812154,
          "durationTicks": 506,
          "midi": 64,
          "name": "E4",
          "ticks": 56837,
          "time": 19.430703579101568,
          "velocity": 0.4566929133858268
        },
        {
          "duration": 0.16218073046874792,
          "durationTicks": 476,
          "midi": 42,
          "name": "F#2",
          "ticks": 56837,
          "time": 19.430703579101568,
          "velocity": 0.5039370078740157
        },
        {
          "duration": 0.18432725878906098,
          "durationTicks": 541,
          "midi": 57,
          "name": "A3",
          "ticks": 57348,
          "time": 19.604809363281255,
          "velocity": 0.3858267716535433
        },
        {
          "duration": 0.18432725878906098,
          "durationTicks": 541,
          "midi": 64,
          "name": "E4",
          "ticks": 57348,
          "time": 19.604809363281255,
          "velocity": 0.4645669291338583
        },
        {
          "duration": 0.18432725878906098,
          "durationTicks": 541,
          "midi": 45,
          "name": "A2",
          "ticks": 57348,
          "time": 19.604809363281255,
          "velocity": 0.5433070866141733
        },
        {
          "duration": 0.1625214462890625,
          "durationTicks": 477,
          "midi": 57,
          "name": "A3",
          "ticks": 57890,
          "time": 19.789477337890627,
          "velocity": 0.3464566929133858
        },
        {
          "duration": 0.17274292089843968,
          "durationTicks": 507,
          "midi": 64,
          "name": "E4",
          "ticks": 57890,
          "time": 19.789477337890627,
          "velocity": 0.4566929133858268
        },
        {
          "duration": 0.17274292089843968,
          "durationTicks": 507,
          "midi": 45,
          "name": "A2",
          "ticks": 57890,
          "time": 19.789477337890627,
          "velocity": 0.5039370078740157
        },
        {
          "duration": 0.17172077343749947,
          "durationTicks": 504,
          "midi": 57,
          "name": "A3",
          "ticks": 58398,
          "time": 19.962560974609378,
          "velocity": 0.48031496062992124
        },
        {
          "duration": 0.17172077343749947,
          "durationTicks": 504,
          "midi": 66,
          "name": "F#4",
          "ticks": 58398,
          "time": 19.962560974609378,
          "velocity": 0.5905511811023622
        },
        {
          "duration": 0.17172077343749947,
          "durationTicks": 504,
          "midi": 42,
          "name": "F#2",
          "ticks": 58398,
          "time": 19.962560974609378,
          "velocity": 0.5118110236220472
        },
        {
          "duration": 0.17342435253906174,
          "durationTicks": 509,
          "midi": 57,
          "name": "A3",
          "ticks": 58903,
          "time": 20.134622463867192,
          "velocity": 0.3464566929133858
        },
        {
          "duration": 0.17342435253906174,
          "durationTicks": 509,
          "midi": 64,
          "name": "E4",
          "ticks": 58903,
          "time": 20.134622463867192,
          "velocity": 0.4566929133858268
        },
        {
          "duration": 0.16320287792968813,
          "durationTicks": 479,
          "midi": 42,
          "name": "F#2",
          "ticks": 58903,
          "time": 20.134622463867192,
          "velocity": 0.5039370078740157
        },
        {
          "duration": 0.1734243525390653,
          "durationTicks": 509,
          "midi": 57,
          "name": "A3",
          "ticks": 59413,
          "time": 20.308387532226565,
          "velocity": 0.49606299212598426
        },
        {
          "duration": 0.1734243525390653,
          "durationTicks": 509,
          "midi": 67,
          "name": "G4",
          "ticks": 59413,
          "time": 20.308387532226565,
          "velocity": 0.6062992125984252
        },
        {
          "duration": 0.1734243525390653,
          "durationTicks": 509,
          "midi": 40,
          "name": "E2",
          "ticks": 59413,
          "time": 20.308387532226565,
          "velocity": 0.5275590551181102
        },
        {
          "duration": 0.17172077343749947,
          "durationTicks": 504,
          "midi": 57,
          "name": "A3",
          "ticks": 59923,
          "time": 20.48215260058594,
          "velocity": 0.3464566929133858
        },
        {
          "duration": 0.17172077343749947,
          "durationTicks": 504,
          "midi": 64,
          "name": "E4",
          "ticks": 59923,
          "time": 20.48215260058594,
          "velocity": 0.4566929133858268
        },
        {
          "duration": 0.16149929882812586,
          "durationTicks": 474,
          "midi": 40,
          "name": "E2",
          "ticks": 59923,
          "time": 20.48215260058594,
          "velocity": 0.5039370078740157
        },
        {
          "duration": 0.17172077343749947,
          "durationTicks": 504,
          "midi": 57,
          "name": "A3",
          "ticks": 60428,
          "time": 20.654214089843755,
          "velocity": 0.48031496062992124
        },
        {
          "duration": 0.17172077343749947,
          "durationTicks": 504,
          "midi": 66,
          "name": "F#4",
          "ticks": 60428,
          "time": 20.654214089843755,
          "velocity": 0.5905511811023622
        },
        {
          "duration": 0.17172077343749947,
          "durationTicks": 504,
          "midi": 37,
          "name": "C#2",
          "ticks": 60428,
          "time": 20.654214089843755,
          "velocity": 0.5118110236220472
        },
        {
          "duration": 0.1724022050781251,
          "durationTicks": 506,
          "midi": 57,
          "name": "A3",
          "ticks": 60933,
          "time": 20.826275579101566,
          "velocity": 0.3464566929133858
        },
        {
          "duration": 0.1724022050781251,
          "durationTicks": 506,
          "midi": 64,
          "name": "E4",
          "ticks": 60933,
          "time": 20.826275579101566,
          "velocity": 0.4566929133858268
        },
        {
          "duration": 0.16218073046875148,
          "durationTicks": 476,
          "midi": 37,
          "name": "C#2",
          "ticks": 60933,
          "time": 20.826275579101566,
          "velocity": 0.5039370078740157
        },
        {
          "duration": 0.18432725878906453,
          "durationTicks": 541,
          "midi": 57,
          "name": "A3",
          "ticks": 61444,
          "time": 21.000381363281253,
          "velocity": 0.3858267716535433
        },
        {
          "duration": 0.18432725878906453,
          "durationTicks": 541,
          "midi": 64,
          "name": "E4",
          "ticks": 61444,
          "time": 21.000381363281253,
          "velocity": 0.4645669291338583
        },
        {
          "duration": 0.18432725878906453,
          "durationTicks": 541,
          "midi": 33,
          "name": "A1",
          "ticks": 61444,
          "time": 21.000381363281253,
          "velocity": 0.5433070866141733
        },
        {
          "duration": 0.17274292089843613,
          "durationTicks": 507,
          "midi": 57,
          "name": "A3",
          "ticks": 61986,
          "time": 21.18504933789063,
          "velocity": 0.3464566929133858
        },
        {
          "duration": 0.17274292089843613,
          "durationTicks": 507,
          "midi": 64,
          "name": "E4",
          "ticks": 61986,
          "time": 21.18504933789063,
          "velocity": 0.4566929133858268
        },
        {
          "duration": 0.1625214462890625,
          "durationTicks": 477,
          "midi": 33,
          "name": "A1",
          "ticks": 61986,
          "time": 21.18504933789063,
          "velocity": 0.5039370078740157
        },
        {
          "duration": 0.17172077343749947,
          "durationTicks": 504,
          "midi": 57,
          "name": "A3",
          "ticks": 62494,
          "time": 21.35813297460938,
          "velocity": 0.48031496062992124
        },
        {
          "duration": 0.17172077343749947,
          "durationTicks": 504,
          "midi": 66,
          "name": "F#4",
          "ticks": 62494,
          "time": 21.35813297460938,
          "velocity": 0.5905511811023622
        },
        {
          "duration": 0.17172077343749947,
          "durationTicks": 504,
          "midi": 37,
          "name": "C#2",
          "ticks": 62494,
          "time": 21.35813297460938,
          "velocity": 0.5118110236220472
        },
        {
          "duration": 0.1734243525390653,
          "durationTicks": 509,
          "midi": 57,
          "name": "A3",
          "ticks": 62999,
          "time": 21.53019446386719,
          "velocity": 0.3464566929133858
        },
        {
          "duration": 0.1734243525390653,
          "durationTicks": 509,
          "midi": 64,
          "name": "E4",
          "ticks": 62999,
          "time": 21.53019446386719,
          "velocity": 0.4566929133858268
        },
        {
          "duration": 0.16320287792968813,
          "durationTicks": 479,
          "midi": 37,
          "name": "C#2",
          "ticks": 62999,
          "time": 21.53019446386719,
          "velocity": 0.5039370078740157
        },
        {
          "duration": 0.17342435253906174,
          "durationTicks": 509,
          "midi": 57,
          "name": "A3",
          "ticks": 63509,
          "time": 21.703959532226566,
          "velocity": 0.3700787401574803
        },
        {
          "duration": 0.17342435253906174,
          "durationTicks": 509,
          "midi": 64,
          "name": "E4",
          "ticks": 63509,
          "time": 21.703959532226566,
          "velocity": 0.44881889763779526
        },
        {
          "duration": 0.17342435253906174,
          "durationTicks": 509,
          "midi": 40,
          "name": "E2",
          "ticks": 63509,
          "time": 21.703959532226566,
          "velocity": 0.5275590551181102
        },
        {
          "duration": 0.17172077343749947,
          "durationTicks": 504,
          "midi": 57,
          "name": "A3",
          "ticks": 64019,
          "time": 21.877724600585942,
          "velocity": 0.3464566929133858
        },
        {
          "duration": 0.17172077343749947,
          "durationTicks": 504,
          "midi": 64,
          "name": "E4",
          "ticks": 64019,
          "time": 21.877724600585942,
          "velocity": 0.4566929133858268
        },
        {
          "duration": 0.1614992988281223,
          "durationTicks": 474,
          "midi": 40,
          "name": "E2",
          "ticks": 64019,
          "time": 21.877724600585942,
          "velocity": 0.5039370078740157
        },
        {
          "duration": 0.17172077343749947,
          "durationTicks": 504,
          "midi": 57,
          "name": "A3",
          "ticks": 64524,
          "time": 22.049786089843753,
          "velocity": 0.48031496062992124
        },
        {
          "duration": 0.17172077343749947,
          "durationTicks": 504,
          "midi": 66,
          "name": "F#4",
          "ticks": 64524,
          "time": 22.049786089843753,
          "velocity": 0.5905511811023622
        },
        {
          "duration": 0.17172077343749947,
          "durationTicks": 504,
          "midi": 42,
          "name": "F#2",
          "ticks": 64524,
          "time": 22.049786089843753,
          "velocity": 0.5118110236220472
        },
        {
          "duration": 0.1724022050781251,
          "durationTicks": 506,
          "midi": 57,
          "name": "A3",
          "ticks": 65029,
          "time": 22.221847579101567,
          "velocity": 0.3464566929133858
        },
        {
          "duration": 0.1724022050781251,
          "durationTicks": 506,
          "midi": 64,
          "name": "E4",
          "ticks": 65029,
          "time": 22.221847579101567,
          "velocity": 0.4566929133858268
        },
        {
          "duration": 0.16218073046874792,
          "durationTicks": 476,
          "midi": 42,
          "name": "F#2",
          "ticks": 65029,
          "time": 22.221847579101567,
          "velocity": 0.5039370078740157
        },
        {
          "duration": 0.18432725878906098,
          "durationTicks": 541,
          "midi": 57,
          "name": "A3",
          "ticks": 65540,
          "time": 22.395953363281254,
          "velocity": 0.3858267716535433
        },
        {
          "duration": 0.18432725878906098,
          "durationTicks": 541,
          "midi": 64,
          "name": "E4",
          "ticks": 65540,
          "time": 22.395953363281254,
          "velocity": 0.4645669291338583
        },
        {
          "duration": 0.18432725878906098,
          "durationTicks": 541,
          "midi": 45,
          "name": "A2",
          "ticks": 65540,
          "time": 22.395953363281254,
          "velocity": 0.5433070866141733
        },
        {
          "duration": 0.1625214462890625,
          "durationTicks": 477,
          "midi": 57,
          "name": "A3",
          "ticks": 66082,
          "time": 22.58062133789063,
          "velocity": 0.3464566929133858
        },
        {
          "duration": 0.17274292089843613,
          "durationTicks": 507,
          "midi": 64,
          "name": "E4",
          "ticks": 66082,
          "time": 22.58062133789063,
          "velocity": 0.4566929133858268
        },
        {
          "duration": 0.17274292089843613,
          "durationTicks": 507,
          "midi": 45,
          "name": "A2",
          "ticks": 66082,
          "time": 22.58062133789063,
          "velocity": 0.5039370078740157
        },
        {
          "duration": 0.17172077343749947,
          "durationTicks": 504,
          "midi": 57,
          "name": "A3",
          "ticks": 66590,
          "time": 22.753704974609377,
          "velocity": 0.48031496062992124
        },
        {
          "duration": 0.17172077343749947,
          "durationTicks": 504,
          "midi": 66,
          "name": "F#4",
          "ticks": 66590,
          "time": 22.753704974609377,
          "velocity": 0.5905511811023622
        },
        {
          "duration": 0.17172077343749947,
          "durationTicks": 504,
          "midi": 42,
          "name": "F#2",
          "ticks": 66590,
          "time": 22.753704974609377,
          "velocity": 0.5118110236220472
        },
        {
          "duration": 0.17342435253906174,
          "durationTicks": 509,
          "midi": 57,
          "name": "A3",
          "ticks": 67095,
          "time": 22.92576646386719,
          "velocity": 0.3464566929133858
        },
        {
          "duration": 0.17342435253906174,
          "durationTicks": 509,
          "midi": 64,
          "name": "E4",
          "ticks": 67095,
          "time": 22.92576646386719,
          "velocity": 0.4566929133858268
        },
        {
          "duration": 0.16320287792968813,
          "durationTicks": 479,
          "midi": 42,
          "name": "F#2",
          "ticks": 67095,
          "time": 22.92576646386719,
          "velocity": 0.5039370078740157
        },
        {
          "duration": 0.17342435253906174,
          "durationTicks": 509,
          "midi": 57,
          "name": "A3",
          "ticks": 67605,
          "time": 23.099531532226568,
          "velocity": 0.49606299212598426
        },
        {
          "duration": 0.17342435253906174,
          "durationTicks": 509,
          "midi": 67,
          "name": "G4",
          "ticks": 67605,
          "time": 23.099531532226568,
          "velocity": 0.6062992125984252
        },
        {
          "duration": 0.17342435253906174,
          "durationTicks": 509,
          "midi": 40,
          "name": "E2",
          "ticks": 67605,
          "time": 23.099531532226568,
          "velocity": 0.5275590551181102
        },
        {
          "duration": 0.17172077343750303,
          "durationTicks": 504,
          "midi": 57,
          "name": "A3",
          "ticks": 68115,
          "time": 23.27329660058594,
          "velocity": 0.3464566929133858
        },
        {
          "duration": 0.17172077343750303,
          "durationTicks": 504,
          "midi": 64,
          "name": "E4",
          "ticks": 68115,
          "time": 23.27329660058594,
          "velocity": 0.4566929133858268
        },
        {
          "duration": 0.16149929882812586,
          "durationTicks": 474,
          "midi": 40,
          "name": "E2",
          "ticks": 68115,
          "time": 23.27329660058594,
          "velocity": 0.5039370078740157
        },
        {
          "duration": 0.17172077343749947,
          "durationTicks": 504,
          "midi": 57,
          "name": "A3",
          "ticks": 68620,
          "time": 23.445358089843754,
          "velocity": 0.48031496062992124
        },
        {
          "duration": 0.17172077343749947,
          "durationTicks": 504,
          "midi": 66,
          "name": "F#4",
          "ticks": 68620,
          "time": 23.445358089843754,
          "velocity": 0.5905511811023622
        },
        {
          "duration": 0.17172077343749947,
          "durationTicks": 504,
          "midi": 37,
          "name": "C#2",
          "ticks": 68620,
          "time": 23.445358089843754,
          "velocity": 0.5118110236220472
        },
        {
          "duration": 0.1829643955078133,
          "durationTicks": 537,
          "midi": 57,
          "name": "A3",
          "ticks": 69125,
          "time": 23.617419579101565,
          "velocity": 0.3464566929133858
        },
        {
          "duration": 0.1724022050781251,
          "durationTicks": 506,
          "midi": 64,
          "name": "E4",
          "ticks": 69125,
          "time": 23.617419579101565,
          "velocity": 0.4566929133858268
        },
        {
          "duration": 0.16218073046875148,
          "durationTicks": 476,
          "midi": 37,
          "name": "C#2",
          "ticks": 69125,
          "time": 23.617419579101565,
          "velocity": 0.5039370078740157
        },
        {
          "duration": 0.18432725878906453,
          "durationTicks": 541,
          "midi": 62,
          "name": "D4",
          "ticks": 69636,
          "time": 23.791525363281252,
          "velocity": 0.3858267716535433
        },
        {
          "duration": 0.18432725878906453,
          "durationTicks": 541,
          "midi": 69,
          "name": "A4",
          "ticks": 69636,
          "time": 23.791525363281252,
          "velocity": 0.49606299212598426
        },
        {
          "duration": 0.18432725878906453,
          "durationTicks": 541,
          "midi": 38,
          "name": "D2",
          "ticks": 69636,
          "time": 23.791525363281252,
          "velocity": 0.5433070866141733
        },
        {
          "duration": 0.17274292089843968,
          "durationTicks": 507,
          "midi": 62,
          "name": "D4",
          "ticks": 70178,
          "time": 23.976193337890628,
          "velocity": 0.3464566929133858
        },
        {
          "duration": 0.17274292089843968,
          "durationTicks": 507,
          "midi": 69,
          "name": "A4",
          "ticks": 70178,
          "time": 23.976193337890628,
          "velocity": 0.4566929133858268
        },
        {
          "duration": 0.1625214462890625,
          "durationTicks": 477,
          "midi": 38,
          "name": "D2",
          "ticks": 70178,
          "time": 23.976193337890628,
          "velocity": 0.5039370078740157
        },
        {
          "duration": 0.17172077343749947,
          "durationTicks": 504,
          "midi": 62,
          "name": "D4",
          "ticks": 70686,
          "time": 24.14927697460938,
          "velocity": 0.48031496062992124
        },
        {
          "duration": 0.17172077343749947,
          "durationTicks": 504,
          "midi": 71,
          "name": "B4",
          "ticks": 70686,
          "time": 24.14927697460938,
          "velocity": 0.5905511811023622
        },
        {
          "duration": 0.17172077343749947,
          "durationTicks": 504,
          "midi": 30,
          "name": "F#1",
          "ticks": 70686,
          "time": 24.14927697460938,
          "velocity": 0.5118110236220472
        },
        {
          "duration": 0.17342435253906174,
          "durationTicks": 509,
          "midi": 62,
          "name": "D4",
          "ticks": 71191,
          "time": 24.321338463867193,
          "velocity": 0.3464566929133858
        },
        {
          "duration": 0.17342435253906174,
          "durationTicks": 509,
          "midi": 69,
          "name": "A4",
          "ticks": 71191,
          "time": 24.321338463867193,
          "velocity": 0.4566929133858268
        },
        {
          "duration": 0.16320287792968458,
          "durationTicks": 479,
          "midi": 30,
          "name": "F#1",
          "ticks": 71191,
          "time": 24.321338463867193,
          "velocity": 0.5039370078740157
        },
        {
          "duration": 0.1734243525390653,
          "durationTicks": 509,
          "midi": 62,
          "name": "D4",
          "ticks": 71701,
          "time": 24.495103532226565,
          "velocity": 0.3700787401574803
        },
        {
          "duration": 0.1734243525390653,
          "durationTicks": 509,
          "midi": 69,
          "name": "A4",
          "ticks": 71701,
          "time": 24.495103532226565,
          "velocity": 0.44881889763779526
        },
        {
          "duration": 0.1734243525390653,
          "durationTicks": 509,
          "midi": 31,
          "name": "G1",
          "ticks": 71701,
          "time": 24.495103532226565,
          "velocity": 0.5275590551181102
        },
        {
          "duration": 0.17172077343749947,
          "durationTicks": 504,
          "midi": 62,
          "name": "D4",
          "ticks": 72211,
          "time": 24.66886860058594,
          "velocity": 0.3464566929133858
        },
        {
          "duration": 0.17172077343749947,
          "durationTicks": 504,
          "midi": 69,
          "name": "A4",
          "ticks": 72211,
          "time": 24.66886860058594,
          "velocity": 0.4566929133858268
        },
        {
          "duration": 0.16149929882812586,
          "durationTicks": 474,
          "midi": 31,
          "name": "G1",
          "ticks": 72211,
          "time": 24.66886860058594,
          "velocity": 0.5039370078740157
        },
        {
          "duration": 0.17172077343749947,
          "durationTicks": 504,
          "midi": 62,
          "name": "D4",
          "ticks": 72716,
          "time": 24.840930089843752,
          "velocity": 0.48031496062992124
        },
        {
          "duration": 0.17172077343749947,
          "durationTicks": 504,
          "midi": 71,
          "name": "B4",
          "ticks": 72716,
          "time": 24.840930089843752,
          "velocity": 0.5905511811023622
        },
        {
          "duration": 0.17172077343749947,
          "durationTicks": 504,
          "midi": 32,
          "name": "G#1",
          "ticks": 72716,
          "time": 24.840930089843752,
          "velocity": 0.5118110236220472
        },
        {
          "duration": 0.1724022050781251,
          "durationTicks": 506,
          "midi": 62,
          "name": "D4",
          "ticks": 73221,
          "time": 25.012991579101566,
          "velocity": 0.3464566929133858
        },
        {
          "duration": 0.1724022050781251,
          "durationTicks": 506,
          "midi": 69,
          "name": "A4",
          "ticks": 73221,
          "time": 25.012991579101566,
          "velocity": 0.4566929133858268
        },
        {
          "duration": 0.16218073046874792,
          "durationTicks": 476,
          "midi": 32,
          "name": "G#1",
          "ticks": 73221,
          "time": 25.012991579101566,
          "velocity": 0.5039370078740157
        },
        {
          "duration": 0.18432725878906098,
          "durationTicks": 541,
          "midi": 62,
          "name": "D4",
          "ticks": 73732,
          "time": 25.187097363281254,
          "velocity": 0.3858267716535433
        },
        {
          "duration": 0.18432725878906098,
          "durationTicks": 541,
          "midi": 69,
          "name": "A4",
          "ticks": 73732,
          "time": 25.187097363281254,
          "velocity": 0.4645669291338583
        },
        {
          "duration": 0.18432725878906098,
          "durationTicks": 541,
          "midi": 33,
          "name": "A1",
          "ticks": 73732,
          "time": 25.187097363281254,
          "velocity": 0.5433070866141733
        },
        {
          "duration": 0.17274292089843613,
          "durationTicks": 507,
          "midi": 62,
          "name": "D4",
          "ticks": 74274,
          "time": 25.37176533789063,
          "velocity": 0.3464566929133858
        },
        {
          "duration": 0.17274292089843613,
          "durationTicks": 507,
          "midi": 69,
          "name": "A4",
          "ticks": 74274,
          "time": 25.37176533789063,
          "velocity": 0.4566929133858268
        },
        {
          "duration": 0.1625214462890625,
          "durationTicks": 477,
          "midi": 33,
          "name": "A1",
          "ticks": 74274,
          "time": 25.37176533789063,
          "velocity": 0.5039370078740157
        },
        {
          "duration": 0.17172077343749947,
          "durationTicks": 504,
          "midi": 62,
          "name": "D4",
          "ticks": 74782,
          "time": 25.54484897460938,
          "velocity": 0.48031496062992124
        },
        {
          "duration": 0.17172077343749947,
          "durationTicks": 504,
          "midi": 71,
          "name": "B4",
          "ticks": 74782,
          "time": 25.54484897460938,
          "velocity": 0.5905511811023622
        },
        {
          "duration": 0.17172077343749947,
          "durationTicks": 504,
          "midi": 35,
          "name": "B1",
          "ticks": 74782,
          "time": 25.54484897460938,
          "velocity": 0.5118110236220472
        },
        {
          "duration": 0.17342435253906174,
          "durationTicks": 509,
          "midi": 62,
          "name": "D4",
          "ticks": 75287,
          "time": 25.71691046386719,
          "velocity": 0.3464566929133858
        },
        {
          "duration": 0.17342435253906174,
          "durationTicks": 509,
          "midi": 69,
          "name": "A4",
          "ticks": 75287,
          "time": 25.71691046386719,
          "velocity": 0.4566929133858268
        },
        {
          "duration": 0.16320287792968813,
          "durationTicks": 479,
          "midi": 35,
          "name": "B1",
          "ticks": 75287,
          "time": 25.71691046386719,
          "velocity": 0.5039370078740157
        },
        {
          "duration": 0.17372832128906168,
          "durationTicks": 509,
          "midi": 62,
          "name": "D4",
          "ticks": 75797,
          "time": 25.890675532226567,
          "velocity": 0.49606299212598426
        },
        {
          "duration": 0.17372832128906168,
          "durationTicks": 509,
          "midi": 72,
          "name": "C5",
          "ticks": 75797,
          "time": 25.890675532226567,
          "velocity": 0.6062992125984252
        },
        {
          "duration": 0.17372832128906168,
          "durationTicks": 509,
          "midi": 36,
          "name": "C2",
          "ticks": 75797,
          "time": 25.890675532226567,
          "velocity": 0.5275590551181102
        },
        {
          "duration": 0.17301450585937772,
          "durationTicks": 504,
          "midi": 62,
          "name": "D4",
          "ticks": 76307,
          "time": 26.06474655371094,
          "velocity": 0.3464566929133858
        },
        {
          "duration": 0.17301450585937772,
          "durationTicks": 504,
          "midi": 69,
          "name": "A4",
          "ticks": 76307,
          "time": 26.06474655371094,
          "velocity": 0.4566929133858268
        },
        {
          "duration": 0.16269124218750264,
          "durationTicks": 474,
          "midi": 36,
          "name": "C2",
          "ticks": 76307,
          "time": 26.06474655371094,
          "velocity": 0.5039370078740157
        },
        {
          "duration": 0.1740161992187481,
          "durationTicks": 504,
          "midi": 62,
          "name": "D4",
          "ticks": 76812,
          "time": 26.238105769531256,
          "velocity": 0.48031496062992124
        },
        {
          "duration": 0.1740161992187481,
          "durationTicks": 504,
          "midi": 71,
          "name": "B4",
          "ticks": 76812,
          "time": 26.238105769531256,
          "velocity": 0.5905511811023622
        },
        {
          "duration": 0.16363891796874697,
          "durationTicks": 474,
          "midi": 37,
          "name": "C#2",
          "ticks": 76812,
          "time": 26.238105769531256,
          "velocity": 0.5118110236220472
        },
        {
          "duration": 0.1862972636718716,
          "durationTicks": 537,
          "midi": 62,
          "name": "D4",
          "ticks": 77317,
          "time": 26.412468710937503,
          "velocity": 0.3464566929133858
        },
        {
          "duration": 0.17572796289062254,
          "durationTicks": 506,
          "midi": 69,
          "name": "A4",
          "ticks": 77317,
          "time": 26.412468710937503,
          "velocity": 0.4566929133858268
        },
        {
          "duration": 0.16529317773437313,
          "durationTicks": 476,
          "midi": 38,
          "name": "D2",
          "ticks": 77317,
          "time": 26.412468710937503,
          "velocity": 0.5039370078740157
        },
        {
          "duration": 0.18432725878906098,
          "durationTicks": 541,
          "midi": 57,
          "name": "A3",
          "ticks": 77828,
          "time": 26.589907363281252,
          "velocity": 0.3858267716535433
        },
        {
          "duration": 0.18432725878906098,
          "durationTicks": 541,
          "midi": 64,
          "name": "E4",
          "ticks": 77828,
          "time": 26.589907363281252,
          "velocity": 0.49606299212598426
        },
        {
          "duration": 0.18432725878906098,
          "durationTicks": 541,
          "midi": 33,
          "name": "A1",
          "ticks": 77828,
          "time": 26.589907363281252,
          "velocity": 0.5433070866141733
        },
        {
          "duration": 0.17274292089843968,
          "durationTicks": 507,
          "midi": 57,
          "name": "A3",
          "ticks": 78370,
          "time": 26.774575337890624,
          "velocity": 0.3464566929133858
        },
        {
          "duration": 0.17274292089843968,
          "durationTicks": 507,
          "midi": 64,
          "name": "E4",
          "ticks": 78370,
          "time": 26.774575337890624,
          "velocity": 0.4566929133858268
        },
        {
          "duration": 0.1625214462890625,
          "durationTicks": 477,
          "midi": 33,
          "name": "A1",
          "ticks": 78370,
          "time": 26.774575337890624,
          "velocity": 0.5039370078740157
        },
        {
          "duration": 0.17172077343749947,
          "durationTicks": 504,
          "midi": 57,
          "name": "A3",
          "ticks": 78878,
          "time": 26.947658974609375,
          "velocity": 0.48031496062992124
        },
        {
          "duration": 0.17172077343749947,
          "durationTicks": 504,
          "midi": 66,
          "name": "F#4",
          "ticks": 78878,
          "time": 26.947658974609375,
          "velocity": 0.5905511811023622
        },
        {
          "duration": 0.17172077343749947,
          "durationTicks": 504,
          "midi": 37,
          "name": "C#2",
          "ticks": 78878,
          "time": 26.947658974609375,
          "velocity": 0.5118110236220472
        },
        {
          "duration": 0.17342435253906174,
          "durationTicks": 509,
          "midi": 57,
          "name": "A3",
          "ticks": 79383,
          "time": 27.11972046386719,
          "velocity": 0.3464566929133858
        },
        {
          "duration": 0.17342435253906174,
          "durationTicks": 509,
          "midi": 64,
          "name": "E4",
          "ticks": 79383,
          "time": 27.11972046386719,
          "velocity": 0.4566929133858268
        },
        {
          "duration": 0.16320287792968813,
          "durationTicks": 479,
          "midi": 37,
          "name": "C#2",
          "ticks": 79383,
          "time": 27.11972046386719,
          "velocity": 0.5039370078740157
        },
        {
          "duration": 0.1734243525390653,
          "durationTicks": 509,
          "midi": 57,
          "name": "A3",
          "ticks": 79893,
          "time": 27.293485532226562,
          "velocity": 0.3700787401574803
        },
        {
          "duration": 0.1734243525390653,
          "durationTicks": 509,
          "midi": 64,
          "name": "E4",
          "ticks": 79893,
          "time": 27.293485532226562,
          "velocity": 0.44881889763779526
        },
        {
          "duration": 0.1734243525390653,
          "durationTicks": 509,
          "midi": 40,
          "name": "E2",
          "ticks": 79893,
          "time": 27.293485532226562,
          "velocity": 0.5275590551181102
        },
        {
          "duration": 0.17172077343749947,
          "durationTicks": 504,
          "midi": 57,
          "name": "A3",
          "ticks": 80403,
          "time": 27.46725060058594,
          "velocity": 0.3464566929133858
        },
        {
          "duration": 0.17172077343749947,
          "durationTicks": 504,
          "midi": 64,
          "name": "E4",
          "ticks": 80403,
          "time": 27.46725060058594,
          "velocity": 0.4566929133858268
        },
        {
          "duration": 0.16149929882812586,
          "durationTicks": 474,
          "midi": 40,
          "name": "E2",
          "ticks": 80403,
          "time": 27.46725060058594,
          "velocity": 0.5039370078740157
        },
        {
          "duration": 0.17172077343749947,
          "durationTicks": 504,
          "midi": 57,
          "name": "A3",
          "ticks": 80908,
          "time": 27.639312089843752,
          "velocity": 0.48031496062992124
        },
        {
          "duration": 0.17172077343749947,
          "durationTicks": 504,
          "midi": 66,
          "name": "F#4",
          "ticks": 80908,
          "time": 27.639312089843752,
          "velocity": 0.5905511811023622
        },
        {
          "duration": 0.17172077343749947,
          "durationTicks": 504,
          "midi": 42,
          "name": "F#2",
          "ticks": 80908,
          "time": 27.639312089843752,
          "velocity": 0.5118110236220472
        },
        {
          "duration": 0.1724022050781251,
          "durationTicks": 506,
          "midi": 57,
          "name": "A3",
          "ticks": 81413,
          "time": 27.811373579101563,
          "velocity": 0.3464566929133858
        },
        {
          "duration": 0.1724022050781251,
          "durationTicks": 506,
          "midi": 64,
          "name": "E4",
          "ticks": 81413,
          "time": 27.811373579101563,
          "velocity": 0.4566929133858268
        },
        {
          "duration": 0.16218073046875148,
          "durationTicks": 476,
          "midi": 42,
          "name": "F#2",
          "ticks": 81413,
          "time": 27.811373579101563,
          "velocity": 0.5039370078740157
        },
        {
          "duration": 0.18432725878906453,
          "durationTicks": 541,
          "midi": 57,
          "name": "A3",
          "ticks": 81924,
          "time": 27.98547936328125,
          "velocity": 0.3858267716535433
        },
        {
          "duration": 0.18432725878906453,
          "durationTicks": 541,
          "midi": 64,
          "name": "E4",
          "ticks": 81924,
          "time": 27.98547936328125,
          "velocity": 0.4645669291338583
        },
        {
          "duration": 0.18432725878906453,
          "durationTicks": 541,
          "midi": 43,
          "name": "G2",
          "ticks": 81924,
          "time": 27.98547936328125,
          "velocity": 0.5433070866141733
        },
        {
          "duration": 0.17274292089843613,
          "durationTicks": 507,
          "midi": 57,
          "name": "A3",
          "ticks": 82466,
          "time": 28.170147337890626,
          "velocity": 0.3464566929133858
        },
        {
          "duration": 0.17274292089843613,
          "durationTicks": 507,
          "midi": 64,
          "name": "E4",
          "ticks": 82466,
          "time": 28.170147337890626,
          "velocity": 0.4566929133858268
        },
        {
          "duration": 0.1625214462890625,
          "durationTicks": 477,
          "midi": 43,
          "name": "G2",
          "ticks": 82466,
          "time": 28.170147337890626,
          "velocity": 0.5039370078740157
        },
        {
          "duration": 0.17172077343749947,
          "durationTicks": 504,
          "midi": 57,
          "name": "A3",
          "ticks": 82974,
          "time": 28.343230974609376,
          "velocity": 0.48031496062992124
        },
        {
          "duration": 0.17172077343749947,
          "durationTicks": 504,
          "midi": 66,
          "name": "F#4",
          "ticks": 82974,
          "time": 28.343230974609376,
          "velocity": 0.5905511811023622
        },
        {
          "duration": 0.17172077343749947,
          "durationTicks": 504,
          "midi": 42,
          "name": "F#2",
          "ticks": 82974,
          "time": 28.343230974609376,
          "velocity": 0.5118110236220472
        },
        {
          "duration": 0.17342435253906174,
          "durationTicks": 509,
          "midi": 57,
          "name": "A3",
          "ticks": 83479,
          "time": 28.51529246386719,
          "velocity": 0.3464566929133858
        },
        {
          "duration": 0.17342435253906174,
          "durationTicks": 509,
          "midi": 64,
          "name": "E4",
          "ticks": 83479,
          "time": 28.51529246386719,
          "velocity": 0.4566929133858268
        },
        {
          "duration": 0.16320287792968458,
          "durationTicks": 479,
          "midi": 42,
          "name": "F#2",
          "ticks": 83479,
          "time": 28.51529246386719,
          "velocity": 0.5039370078740157
        },
        {
          "duration": 0.17342435253906174,
          "durationTicks": 509,
          "midi": 57,
          "name": "A3",
          "ticks": 83989,
          "time": 28.689057532226563,
          "velocity": 0.49606299212598426
        },
        {
          "duration": 0.17342435253906174,
          "durationTicks": 509,
          "midi": 67,
          "name": "G4",
          "ticks": 83989,
          "time": 28.689057532226563,
          "velocity": 0.6062992125984252
        },
        {
          "duration": 0.17342435253906174,
          "durationTicks": 509,
          "midi": 40,
          "name": "E2",
          "ticks": 83989,
          "time": 28.689057532226563,
          "velocity": 0.5275590551181102
        },
        {
          "duration": 0.17172077343749947,
          "durationTicks": 504,
          "midi": 57,
          "name": "A3",
          "ticks": 84499,
          "time": 28.86282260058594,
          "velocity": 0.3464566929133858
        },
        {
          "duration": 0.17172077343749947,
          "durationTicks": 504,
          "midi": 64,
          "name": "E4",
          "ticks": 84499,
          "time": 28.86282260058594,
          "velocity": 0.4566929133858268
        },
        {
          "duration": 0.1614992988281223,
          "durationTicks": 474,
          "midi": 40,
          "name": "E2",
          "ticks": 84499,
          "time": 28.86282260058594,
          "velocity": 0.5039370078740157
        },
        {
          "duration": 0.17172077343749947,
          "durationTicks": 504,
          "midi": 57,
          "name": "A3",
          "ticks": 85004,
          "time": 29.03488408984375,
          "velocity": 0.48031496062992124
        },
        {
          "duration": 0.17172077343749947,
          "durationTicks": 504,
          "midi": 66,
          "name": "F#4",
          "ticks": 85004,
          "time": 29.03488408984375,
          "velocity": 0.5905511811023622
        },
        {
          "duration": 0.17172077343749947,
          "durationTicks": 504,
          "midi": 37,
          "name": "C#2",
          "ticks": 85004,
          "time": 29.03488408984375,
          "velocity": 0.5118110236220472
        },
        {
          "duration": 0.1829643955078133,
          "durationTicks": 537,
          "midi": 57,
          "name": "A3",
          "ticks": 85509,
          "time": 29.206945579101564,
          "velocity": 0.3464566929133858
        },
        {
          "duration": 0.1724022050781251,
          "durationTicks": 506,
          "midi": 64,
          "name": "E4",
          "ticks": 85509,
          "time": 29.206945579101564,
          "velocity": 0.4566929133858268
        },
        {
          "duration": 0.16218073046874792,
          "durationTicks": 476,
          "midi": 37,
          "name": "C#2",
          "ticks": 85509,
          "time": 29.206945579101564,
          "velocity": 0.5039370078740157
        },
        {
          "duration": 0.18432725878906098,
          "durationTicks": 541,
          "midi": 64,
          "name": "E4",
          "ticks": 86020,
          "time": 29.38105136328125,
          "velocity": 0.3858267716535433
        },
        {
          "duration": 0.18432725878906098,
          "durationTicks": 541,
          "midi": 71,
          "name": "B4",
          "ticks": 86020,
          "time": 29.38105136328125,
          "velocity": 0.49606299212598426
        },
        {
          "duration": 0.18432725878906098,
          "durationTicks": 541,
          "midi": 40,
          "name": "E2",
          "ticks": 86020,
          "time": 29.38105136328125,
          "velocity": 0.5433070866141733
        },
        {
          "duration": 0.17274292089843613,
          "durationTicks": 507,
          "midi": 64,
          "name": "E4",
          "ticks": 86562,
          "time": 29.565719337890627,
          "velocity": 0.3464566929133858
        },
        {
          "duration": 0.17274292089843613,
          "durationTicks": 507,
          "midi": 71,
          "name": "B4",
          "ticks": 86562,
          "time": 29.565719337890627,
          "velocity": 0.4566929133858268
        },
        {
          "duration": 0.1625214462890625,
          "durationTicks": 477,
          "midi": 40,
          "name": "E2",
          "ticks": 86562,
          "time": 29.565719337890627,
          "velocity": 0.5039370078740157
        },
        {
          "duration": 0.17172077343749947,
          "durationTicks": 504,
          "midi": 64,
          "name": "E4",
          "ticks": 87070,
          "time": 29.738802974609378,
          "velocity": 0.48031496062992124
        },
        {
          "duration": 0.17172077343749947,
          "durationTicks": 504,
          "midi": 73,
          "name": "C#5",
          "ticks": 87070,
          "time": 29.738802974609378,
          "velocity": 0.5905511811023622
        },
        {
          "duration": 0.17172077343749947,
          "durationTicks": 504,
          "midi": 44,
          "name": "G#2",
          "ticks": 87070,
          "time": 29.738802974609378,
          "velocity": 0.5118110236220472
        },
        {
          "duration": 0.17342435253906174,
          "durationTicks": 509,
          "midi": 64,
          "name": "E4",
          "ticks": 87575,
          "time": 29.91086446386719,
          "velocity": 0.3464566929133858
        },
        {
          "duration": 0.17342435253906174,
          "durationTicks": 509,
          "midi": 71,
          "name": "B4",
          "ticks": 87575,
          "time": 29.91086446386719,
          "velocity": 0.4566929133858268
        },
        {
          "duration": 0.16320287792968813,
          "durationTicks": 479,
          "midi": 44,
          "name": "G#2",
          "ticks": 87575,
          "time": 29.91086446386719,
          "velocity": 0.5039370078740157
        },
        {
          "duration": 0.17342435253906174,
          "durationTicks": 509,
          "midi": 64,
          "name": "E4",
          "ticks": 88085,
          "time": 30.084629532226565,
          "velocity": 0.3700787401574803
        },
        {
          "duration": 0.17342435253906174,
          "durationTicks": 509,
          "midi": 71,
          "name": "B4",
          "ticks": 88085,
          "time": 30.084629532226565,
          "velocity": 0.44881889763779526
        },
        {
          "duration": 0.17342435253906174,
          "durationTicks": 509,
          "midi": 45,
          "name": "A2",
          "ticks": 88085,
          "time": 30.084629532226565,
          "velocity": 0.5275590551181102
        },
        {
          "duration": 0.17172077343749947,
          "durationTicks": 504,
          "midi": 64,
          "name": "E4",
          "ticks": 88595,
          "time": 30.258394600585937,
          "velocity": 0.3464566929133858
        },
        {
          "duration": 0.17172077343749947,
          "durationTicks": 504,
          "midi": 71,
          "name": "B4",
          "ticks": 88595,
          "time": 30.258394600585937,
          "velocity": 0.4566929133858268
        },
        {
          "duration": 0.16149929882812586,
          "durationTicks": 474,
          "midi": 45,
          "name": "A2",
          "ticks": 88595,
          "time": 30.258394600585937,
          "velocity": 0.5039370078740157
        },
        {
          "duration": 0.17172077343749947,
          "durationTicks": 504,
          "midi": 64,
          "name": "E4",
          "ticks": 89100,
          "time": 30.43045608984375,
          "velocity": 0.48031496062992124
        },
        {
          "duration": 0.17172077343749947,
          "durationTicks": 504,
          "midi": 73,
          "name": "C#5",
          "ticks": 89100,
          "time": 30.43045608984375,
          "velocity": 0.5905511811023622
        },
        {
          "duration": 0.16149929882812586,
          "durationTicks": 474,
          "midi": 46,
          "name": "A#2",
          "ticks": 89100,
          "time": 30.43045608984375,
          "velocity": 0.5118110236220472
        },
        {
          "duration": 0.18296439550780974,
          "durationTicks": 537,
          "midi": 64,
          "name": "E4",
          "ticks": 89605,
          "time": 30.602517579101566,
          "velocity": 0.3464566929133858
        },
        {
          "duration": 0.17240220507812154,
          "durationTicks": 506,
          "midi": 71,
          "name": "B4",
          "ticks": 89605,
          "time": 30.602517579101566,
          "velocity": 0.4566929133858268
        },
        {
          "duration": 0.16218073046874792,
          "durationTicks": 476,
          "midi": 47,
          "name": "B2",
          "ticks": 89605,
          "time": 30.602517579101566,
          "velocity": 0.5039370078740157
        },
        {
          "duration": 0.18432725878906098,
          "durationTicks": 541,
          "midi": 62,
          "name": "D4",
          "ticks": 90116,
          "time": 30.776623363281253,
          "velocity": 0.3858267716535433
        },
        {
          "duration": 0.18432725878906098,
          "durationTicks": 541,
          "midi": 69,
          "name": "A4",
          "ticks": 90116,
          "time": 30.776623363281253,
          "velocity": 0.49606299212598426
        },
        {
          "duration": 0.18432725878906098,
          "durationTicks": 541,
          "midi": 38,
          "name": "D2",
          "ticks": 90116,
          "time": 30.776623363281253,
          "velocity": 0.5433070866141733
        },
        {
          "duration": 0.17274292089843968,
          "durationTicks": 507,
          "midi": 62,
          "name": "D4",
          "ticks": 90658,
          "time": 30.961291337890625,
          "velocity": 0.3464566929133858
        },
        {
          "duration": 0.17274292089843968,
          "durationTicks": 507,
          "midi": 69,
          "name": "A4",
          "ticks": 90658,
          "time": 30.961291337890625,
          "velocity": 0.4566929133858268
        },
        {
          "duration": 0.1625214462890625,
          "durationTicks": 477,
          "midi": 38,
          "name": "D2",
          "ticks": 90658,
          "time": 30.961291337890625,
          "velocity": 0.5039370078740157
        },
        {
          "duration": 0.17172077343749947,
          "durationTicks": 504,
          "midi": 62,
          "name": "D4",
          "ticks": 91166,
          "time": 31.134374974609376,
          "velocity": 0.48031496062992124
        },
        {
          "duration": 0.17172077343749947,
          "durationTicks": 504,
          "midi": 71,
          "name": "B4",
          "ticks": 91166,
          "time": 31.134374974609376,
          "velocity": 0.5905511811023622
        },
        {
          "duration": 0.17172077343749947,
          "durationTicks": 504,
          "midi": 42,
          "name": "F#2",
          "ticks": 91166,
          "time": 31.134374974609376,
          "velocity": 0.5118110236220472
        },
        {
          "duration": 0.17342435253906174,
          "durationTicks": 509,
          "midi": 62,
          "name": "D4",
          "ticks": 91671,
          "time": 31.30643646386719,
          "velocity": 0.3464566929133858
        },
        {
          "duration": 0.17342435253906174,
          "durationTicks": 509,
          "midi": 69,
          "name": "A4",
          "ticks": 91671,
          "time": 31.30643646386719,
          "velocity": 0.4566929133858268
        },
        {
          "duration": 0.16320287792968813,
          "durationTicks": 479,
          "midi": 42,
          "name": "F#2",
          "ticks": 91671,
          "time": 31.30643646386719,
          "velocity": 0.5039370078740157
        },
        {
          "duration": 0.17342435253906174,
          "durationTicks": 509,
          "midi": 62,
          "name": "D4",
          "ticks": 92181,
          "time": 31.480201532226562,
          "velocity": 0.3700787401574803
        },
        {
          "duration": 0.17342435253906174,
          "durationTicks": 509,
          "midi": 69,
          "name": "A4",
          "ticks": 92181,
          "time": 31.480201532226562,
          "velocity": 0.44881889763779526
        },
        {
          "duration": 0.17342435253906174,
          "durationTicks": 509,
          "midi": 43,
          "name": "G2",
          "ticks": 92181,
          "time": 31.480201532226562,
          "velocity": 0.5275590551181102
        },
        {
          "duration": 0.17172077343749947,
          "durationTicks": 504,
          "midi": 62,
          "name": "D4",
          "ticks": 92691,
          "time": 31.65396660058594,
          "velocity": 0.3464566929133858
        },
        {
          "duration": 0.17172077343749947,
          "durationTicks": 504,
          "midi": 69,
          "name": "A4",
          "ticks": 92691,
          "time": 31.65396660058594,
          "velocity": 0.4566929133858268
        },
        {
          "duration": 0.16149929882812586,
          "durationTicks": 474,
          "midi": 43,
          "name": "G2",
          "ticks": 92691,
          "time": 31.65396660058594,
          "velocity": 0.5039370078740157
        },
        {
          "duration": 0.17172077343749947,
          "durationTicks": 504,
          "midi": 62,
          "name": "D4",
          "ticks": 93196,
          "time": 31.826028089843753,
          "velocity": 0.48031496062992124
        },
        {
          "duration": 0.17172077343749947,
          "durationTicks": 504,
          "midi": 71,
          "name": "B4",
          "ticks": 93196,
          "time": 31.826028089843753,
          "velocity": 0.5905511811023622
        },
        {
          "duration": 0.17172077343749947,
          "durationTicks": 504,
          "midi": 44,
          "name": "G#2",
          "ticks": 93196,
          "time": 31.826028089843753,
          "velocity": 0.5118110236220472
        },
        {
          "duration": 0.1829643955078133,
          "durationTicks": 537,
          "midi": 62,
          "name": "D4",
          "ticks": 93701,
          "time": 31.998089579101563,
          "velocity": 0.3464566929133858
        },
        {
          "duration": 0.1724022050781251,
          "durationTicks": 506,
          "midi": 69,
          "name": "A4",
          "ticks": 93701,
          "time": 31.998089579101563,
          "velocity": 0.4566929133858268
        },
        {
          "duration": 0.16218073046875148,
          "durationTicks": 476,
          "midi": 44,
          "name": "G#2",
          "ticks": 93701,
          "time": 31.998089579101563,
          "velocity": 0.5039370078740157
        },
        {
          "duration": 0.18432725878906098,
          "durationTicks": 541,
          "midi": 57,
          "name": "A3",
          "ticks": 94212,
          "time": 32.172195363281254,
          "velocity": 0.3858267716535433
        },
        {
          "duration": 0.18432725878906098,
          "durationTicks": 541,
          "midi": 64,
          "name": "E4",
          "ticks": 94212,
          "time": 32.172195363281254,
          "velocity": 0.49606299212598426
        },
        {
          "duration": 0.18432725878906098,
          "durationTicks": 541,
          "midi": 45,
          "name": "A2",
          "ticks": 94212,
          "time": 32.172195363281254,
          "velocity": 0.5433070866141733
        },
        {
          "duration": 0.1625214462890625,
          "durationTicks": 477,
          "midi": 57,
          "name": "A3",
          "ticks": 94754,
          "time": 32.35686333789063,
          "velocity": 0.3464566929133858
        },
        {
          "duration": 0.17274292089843613,
          "durationTicks": 507,
          "midi": 64,
          "name": "E4",
          "ticks": 94754,
          "time": 32.35686333789063,
          "velocity": 0.4566929133858268
        },
        {
          "duration": 0.17274292089843613,
          "durationTicks": 507,
          "midi": 45,
          "name": "A2",
          "ticks": 94754,
          "time": 32.35686333789063,
          "velocity": 0.5039370078740157
        },
        {
          "duration": 0.17172077343749947,
          "durationTicks": 504,
          "midi": 57,
          "name": "A3",
          "ticks": 95262,
          "time": 32.52994697460937,
          "velocity": 0.48031496062992124
        },
        {
          "duration": 0.17172077343749947,
          "durationTicks": 504,
          "midi": 66,
          "name": "F#4",
          "ticks": 95262,
          "time": 32.52994697460937,
          "velocity": 0.5905511811023622
        },
        {
          "duration": 0.17172077343749947,
          "durationTicks": 504,
          "midi": 43,
          "name": "G2",
          "ticks": 95262,
          "time": 32.52994697460937,
          "velocity": 0.5118110236220472
        },
        {
          "duration": 0.1734243525390653,
          "durationTicks": 509,
          "midi": 57,
          "name": "A3",
          "ticks": 95767,
          "time": 32.70200846386719,
          "velocity": 0.3464566929133858
        },
        {
          "duration": 0.1734243525390653,
          "durationTicks": 509,
          "midi": 64,
          "name": "E4",
          "ticks": 95767,
          "time": 32.70200846386719,
          "velocity": 0.4566929133858268
        },
        {
          "duration": 0.16320287792969168,
          "durationTicks": 479,
          "midi": 43,
          "name": "G2",
          "ticks": 95767,
          "time": 32.70200846386719,
          "velocity": 0.5039370078740157
        },
        {
          "duration": 0.1734243525390653,
          "durationTicks": 509,
          "midi": 57,
          "name": "A3",
          "ticks": 96277,
          "time": 32.87577353222656,
          "velocity": 0.3700787401574803
        },
        {
          "duration": 0.1734243525390653,
          "durationTicks": 509,
          "midi": 64,
          "name": "E4",
          "ticks": 96277,
          "time": 32.87577353222656,
          "velocity": 0.44881889763779526
        },
        {
          "duration": 0.1734243525390653,
          "durationTicks": 509,
          "midi": 42,
          "name": "F#2",
          "ticks": 96277,
          "time": 32.87577353222656,
          "velocity": 0.5275590551181102
        },
        {
          "duration": 0.17172077343749947,
          "durationTicks": 504,
          "midi": 57,
          "name": "A3",
          "ticks": 96787,
          "time": 33.04953860058594,
          "velocity": 0.3464566929133858
        },
        {
          "duration": 0.17172077343749947,
          "durationTicks": 504,
          "midi": 64,
          "name": "E4",
          "ticks": 96787,
          "time": 33.04953860058594,
          "velocity": 0.4566929133858268
        },
        {
          "duration": 0.16149929882812586,
          "durationTicks": 474,
          "midi": 42,
          "name": "F#2",
          "ticks": 96787,
          "time": 33.04953860058594,
          "velocity": 0.5039370078740157
        },
        {
          "duration": 0.17172077343749947,
          "durationTicks": 504,
          "midi": 57,
          "name": "A3",
          "ticks": 97292,
          "time": 33.221600089843754,
          "velocity": 0.48031496062992124
        },
        {
          "duration": 0.17172077343749947,
          "durationTicks": 504,
          "midi": 66,
          "name": "F#4",
          "ticks": 97292,
          "time": 33.221600089843754,
          "velocity": 0.5905511811023622
        },
        {
          "duration": 0.17172077343749947,
          "durationTicks": 504,
          "midi": 41,
          "name": "F2",
          "ticks": 97292,
          "time": 33.221600089843754,
          "velocity": 0.5118110236220472
        },
        {
          "duration": 0.18296439550781685,
          "durationTicks": 537,
          "midi": 57,
          "name": "A3",
          "ticks": 97797,
          "time": 33.39366157910156,
          "velocity": 0.3464566929133858
        },
        {
          "duration": 0.17240220507812865,
          "durationTicks": 506,
          "midi": 64,
          "name": "E4",
          "ticks": 97797,
          "time": 33.39366157910156,
          "velocity": 0.4566929133858268
        },
        {
          "duration": 0.16218073046875503,
          "durationTicks": 476,
          "midi": 41,
          "name": "F2",
          "ticks": 97797,
          "time": 33.39366157910156,
          "velocity": 0.5039370078740157
        },
        {
          "duration": 0.17274292089843613,
          "durationTicks": 507,
          "midi": 64,
          "name": "E4",
          "ticks": 98850,
          "time": 33.752435337890624,
          "velocity": 0.47244094488188976
        },
        {
          "duration": 0.17274292089843613,
          "durationTicks": 507,
          "midi": 71,
          "name": "B4",
          "ticks": 98850,
          "time": 33.752435337890624,
          "velocity": 0.5826771653543307
        },
        {
          "duration": 0.17274292089843613,
          "durationTicks": 507,
          "midi": 40,
          "name": "E2",
          "ticks": 98850,
          "time": 33.752435337890624,
          "velocity": 0.6299212598425197
        },
        {
          "duration": 0.17172077343749947,
          "durationTicks": 504,
          "midi": 64,
          "name": "E4",
          "ticks": 99358,
          "time": 33.925518974609375,
          "velocity": 0.48031496062992124
        },
        {
          "duration": 0.17172077343749947,
          "durationTicks": 504,
          "midi": 71,
          "name": "B4",
          "ticks": 99358,
          "time": 33.925518974609375,
          "velocity": 0.5590551181102362
        },
        {
          "duration": 0.17172077343749947,
          "durationTicks": 504,
          "midi": 40,
          "name": "E2",
          "ticks": 99358,
          "time": 33.925518974609375,
          "velocity": 0.6377952755905512
        },
        {
          "duration": 0.1734243525390653,
          "durationTicks": 509,
          "midi": 64,
          "name": "E4",
          "ticks": 99863,
          "time": 34.09758046386719,
          "velocity": 0.47244094488188976
        },
        {
          "duration": 0.1734243525390653,
          "durationTicks": 509,
          "midi": 71,
          "name": "B4",
          "ticks": 99863,
          "time": 34.09758046386719,
          "velocity": 0.5511811023622047
        },
        {
          "duration": 0.1734243525390653,
          "durationTicks": 509,
          "midi": 40,
          "name": "E2",
          "ticks": 99863,
          "time": 34.09758046386719,
          "velocity": 0.6299212598425197
        },
        {
          "duration": 0.1839865429687535,
          "durationTicks": 540,
          "midi": 64,
          "name": "E4",
          "ticks": 100373,
          "time": 34.27134553222656,
          "velocity": 0.5748031496062992
        },
        {
          "duration": 0.1734243525390653,
          "durationTicks": 509,
          "midi": 71,
          "name": "B4",
          "ticks": 100373,
          "time": 34.27134553222656,
          "velocity": 0.6535433070866141
        },
        {
          "duration": 0.16320287792969168,
          "durationTicks": 479,
          "midi": 40,
          "name": "E2",
          "ticks": 100373,
          "time": 34.27134553222656,
          "velocity": 0.7322834645669292
        },
        {
          "duration": 0.18228296386718768,
          "durationTicks": 535,
          "midi": 72,
          "name": "C5",
          "ticks": 100883,
          "time": 34.44511060058594,
          "velocity": 0.4094488188976378
        },
        {
          "duration": 0.18228296386719478,
          "durationTicks": 535,
          "midi": 73,
          "name": "C#5",
          "ticks": 101388,
          "time": 34.61717208984375,
          "velocity": 0.41732283464566927
        },
        {
          "duration": 0.18296439550781685,
          "durationTicks": 537,
          "midi": 76,
          "name": "E5",
          "ticks": 101893,
          "time": 34.78923357910156,
          "velocity": 0.4094488188976378
        },
        {
          "duration": 0.18432725878906098,
          "durationTicks": 541,
          "midi": 76,
          "name": "E5",
          "ticks": 102404,
          "time": 34.96333936328126,
          "velocity": 0.48031496062992124
        },
        {
          "duration": 0.18432725878906098,
          "durationTicks": 541,
          "midi": 81,
          "name": "A5",
          "ticks": 102404,
          "time": 34.96333936328126,
          "velocity": 0.5590551181102362
        },
        {
          "duration": 0.17410578417968736,
          "durationTicks": 511,
          "midi": 33,
          "name": "A1",
          "ticks": 102404,
          "time": 34.96333936328126,
          "velocity": 0.5433070866141733
        },
        {
          "duration": 0.17274292089843613,
          "durationTicks": 507,
          "midi": 76,
          "name": "E5",
          "ticks": 102946,
          "time": 35.14800733789063,
          "velocity": 0.4409448818897638
        },
        {
          "duration": 0.17274292089843613,
          "durationTicks": 507,
          "midi": 81,
          "name": "A5",
          "ticks": 102946,
          "time": 35.14800733789063,
          "velocity": 0.5196850393700787
        },
        {
          "duration": 0.17172077343749947,
          "durationTicks": 504,
          "midi": 76,
          "name": "E5",
          "ticks": 103454,
          "time": 35.32109097460938,
          "velocity": 0.44881889763779526
        },
        {
          "duration": 0.17172077343749947,
          "durationTicks": 504,
          "midi": 81,
          "name": "A5",
          "ticks": 103454,
          "time": 35.32109097460938,
          "velocity": 0.5275590551181102
        },
        {
          "duration": 0.1734243525390653,
          "durationTicks": 509,
          "midi": 76,
          "name": "E5",
          "ticks": 103959,
          "time": 35.49315246386719,
          "velocity": 0.4409448818897638
        },
        {
          "duration": 0.1734243525390653,
          "durationTicks": 509,
          "midi": 81,
          "name": "A5",
          "ticks": 103959,
          "time": 35.49315246386719,
          "velocity": 0.5196850393700787
        },
        {
          "duration": 0.16345855371093876,
          "durationTicks": 479,
          "midi": 76,
          "name": "E5",
          "ticks": 104469,
          "time": 35.66691753222657,
          "velocity": 0.4645669291338583
        },
        {
          "duration": 0.17372832128906168,
          "durationTicks": 509,
          "midi": 81,
          "name": "A5",
          "ticks": 104469,
          "time": 35.66691753222657,
          "velocity": 0.5433070866141733
        },
        {
          "duration": 0.16269124218749909,
          "durationTicks": 474,
          "midi": 78,
          "name": "F#5",
          "ticks": 104979,
          "time": 35.84098855371094,
          "velocity": 0.5039370078740157
        },
        {
          "duration": 0.16363891796874697,
          "durationTicks": 474,
          "midi": 76,
          "name": "E5",
          "ticks": 105484,
          "time": 36.014347769531255,
          "velocity": 0.5118110236220472
        },
        {
          "duration": 0.16529317773437668,
          "durationTicks": 476,
          "midi": 78,
          "name": "F#5",
          "ticks": 105989,
          "time": 36.18871071093751,
          "velocity": 0.5039370078740157
        },
        {
          "duration": 0.18432725878906098,
          "durationTicks": 541,
          "midi": 72,
          "name": "C5",
          "ticks": 106500,
          "time": 36.36614936328126,
          "velocity": 0.48031496062992124
        },
        {
          "duration": 0.18432725878906098,
          "durationTicks": 541,
          "midi": 76,
          "name": "E5",
          "ticks": 106500,
          "time": 36.36614936328126,
          "velocity": 0.5590551181102362
        },
        {
          "duration": 0.17410578417968736,
          "durationTicks": 511,
          "midi": 38,
          "name": "D2",
          "ticks": 106500,
          "time": 36.36614936328126,
          "velocity": 0.5433070866141733
        },
        {
          "duration": 0.17274292089843613,
          "durationTicks": 507,
          "midi": 72,
          "name": "C5",
          "ticks": 107042,
          "time": 36.550817337890635,
          "velocity": 0.4409448818897638
        },
        {
          "duration": 0.17274292089843613,
          "durationTicks": 507,
          "midi": 76,
          "name": "E5",
          "ticks": 107042,
          "time": 36.550817337890635,
          "velocity": 0.5196850393700787
        },
        {
          "duration": 0.17172077343749947,
          "durationTicks": 504,
          "midi": 72,
          "name": "C5",
          "ticks": 107550,
          "time": 36.723900974609386,
          "velocity": 0.44881889763779526
        },
        {
          "duration": 0.17172077343749947,
          "durationTicks": 504,
          "midi": 76,
          "name": "E5",
          "ticks": 107550,
          "time": 36.723900974609386,
          "velocity": 0.5275590551181102
        },
        {
          "duration": 0.1734243525390653,
          "durationTicks": 509,
          "midi": 72,
          "name": "C5",
          "ticks": 108055,
          "time": 36.89596246386719,
          "velocity": 0.4409448818897638
        },
        {
          "duration": 0.1734243525390653,
          "durationTicks": 509,
          "midi": 76,
          "name": "E5",
          "ticks": 108055,
          "time": 36.89596246386719,
          "velocity": 0.5196850393700787
        },
        {
          "duration": 0.16345855371093876,
          "durationTicks": 479,
          "midi": 72,
          "name": "C5",
          "ticks": 108565,
          "time": 37.06972753222657,
          "velocity": 0.4645669291338583
        },
        {
          "duration": 0.17372832128906168,
          "durationTicks": 509,
          "midi": 76,
          "name": "E5",
          "ticks": 108565,
          "time": 37.06972753222657,
          "velocity": 0.5433070866141733
        },
        {
          "duration": 0.16269124218749909,
          "durationTicks": 474,
          "midi": 78,
          "name": "F#5",
          "ticks": 109075,
          "time": 37.243798553710945,
          "velocity": 0.5039370078740157
        },
        {
          "duration": 0.16363891796874697,
          "durationTicks": 474,
          "midi": 76,
          "name": "E5",
          "ticks": 109580,
          "time": 37.41715776953126,
          "velocity": 0.5118110236220472
        },
        {
          "duration": 0.16529317773437668,
          "durationTicks": 476,
          "midi": 78,
          "name": "F#5",
          "ticks": 110085,
          "time": 37.59152071093751,
          "velocity": 0.5039370078740157
        },
        {
          "duration": 0.17410578417968736,
          "durationTicks": 511,
          "midi": 76,
          "name": "E5",
          "ticks": 110596,
          "time": 37.76895936328126,
          "velocity": 0.48031496062992124
        },
        {
          "duration": 0.18432725878906098,
          "durationTicks": 541,
          "midi": 81,
          "name": "A5",
          "ticks": 110596,
          "time": 37.76895936328126,
          "velocity": 0.5905511811023622
        },
        {
          "duration": 0.17410578417968736,
          "durationTicks": 511,
          "midi": 33,
          "name": "A1",
          "ticks": 110596,
          "time": 37.76895936328126,
          "velocity": 0.5433070866141733
        },
        {
          "duration": 0.1625214462890625,
          "durationTicks": 477,
          "midi": 78,
          "name": "F#5",
          "ticks": 111138,
          "time": 37.95362733789064,
          "velocity": 0.5039370078740157
        },
        {
          "duration": 0.16149929882812586,
          "durationTicks": 474,
          "midi": 76,
          "name": "E5",
          "ticks": 111646,
          "time": 38.12671097460939,
          "velocity": 0.5118110236220472
        },
        {
          "duration": 0.16320287792969168,
          "durationTicks": 479,
          "midi": 78,
          "name": "F#5",
          "ticks": 112151,
          "time": 38.298772463867195,
          "velocity": 0.5039370078740157
        },
        {
          "duration": 0.16320287792968458,
          "durationTicks": 479,
          "midi": 76,
          "name": "E5",
          "ticks": 112661,
          "time": 38.472537532226575,
          "velocity": 0.4645669291338583
        },
        {
          "duration": 0.1734243525390582,
          "durationTicks": 509,
          "midi": 81,
          "name": "A5",
          "ticks": 112661,
          "time": 38.472537532226575,
          "velocity": 0.5748031496062992
        },
        {
          "duration": 0.11073264160155816,
          "durationTicks": 325,
          "midi": 33,
          "name": "A1",
          "ticks": 112661,
          "time": 38.472537532226575,
          "velocity": 0.5275590551181102
        },
        {
          "duration": 0.10494047265625284,
          "durationTicks": 308,
          "midi": 32,
          "name": "G#1",
          "ticks": 113007,
          "time": 38.5904252060547,
          "velocity": 0.5039370078740157
        },
        {
          "duration": 0.16149929882812586,
          "durationTicks": 474,
          "midi": 78,
          "name": "F#5",
          "ticks": 113171,
          "time": 38.64630260058595,
          "velocity": 0.5039370078740157
        },
        {
          "duration": 0.10868834667968486,
          "durationTicks": 319,
          "midi": 31,
          "name": "G1",
          "ticks": 113336,
          "time": 38.70252071093751,
          "velocity": 0.5039370078740157
        },
        {
          "duration": 0.16149929882812586,
          "durationTicks": 474,
          "midi": 76,
          "name": "E5",
          "ticks": 113676,
          "time": 38.81836408984376,
          "velocity": 0.5118110236220472
        },
        {
          "duration": 0.10868834667968486,
          "durationTicks": 319,
          "midi": 30,
          "name": "F#1",
          "ticks": 113676,
          "time": 38.81836408984376,
          "velocity": 0.5118110236220472
        },
        {
          "duration": 0.10528118847656032,
          "durationTicks": 309,
          "midi": 29,
          "name": "F1",
          "ticks": 114016,
          "time": 38.93420746875001,
          "velocity": 0.5039370078740157
        },
        {
          "duration": 0.16218073046874792,
          "durationTicks": 476,
          "midi": 78,
          "name": "F#5",
          "ticks": 114181,
          "time": 38.990425579101576,
          "velocity": 0.5039370078740157
        },
        {
          "duration": 0.10936977832031403,
          "durationTicks": 321,
          "midi": 28,
          "name": "E1",
          "ticks": 114346,
          "time": 39.046643689453134,
          "velocity": 0.49606299212598426
        },
        {
          "duration": 0.04361162500000404,
          "durationTicks": 128,
          "midi": 84,
          "name": "C6",
          "ticks": 115072,
          "time": 39.29400337500001,
          "velocity": 0.5511811023622047
        },
        {
          "duration": 0.07836463867187149,
          "durationTicks": 230,
          "midi": 78,
          "name": "F#5",
          "ticks": 115200,
          "time": 39.337615000000014,
          "velocity": 0.5039370078740157
        },
        {
          "duration": 0.08756396582030845,
          "durationTicks": 257,
          "midi": 84,
          "name": "C6",
          "ticks": 115200,
          "time": 39.337615000000014,
          "velocity": 0.5511811023622047
        },
        {
          "duration": 0.17172077343749947,
          "durationTicks": 504,
          "midi": 85,
          "name": "C#6",
          "ticks": 115208,
          "time": 39.34034072656251,
          "velocity": 0.5511811023622047
        },
        {
          "duration": 0.17274292089843613,
          "durationTicks": 507,
          "midi": 40,
          "name": "E2",
          "ticks": 115234,
          "time": 39.34919933789064,
          "velocity": 0.5039370078740157
        },
        {
          "duration": 1.1424201455078133,
          "durationTicks": 3353,
          "midi": 79,
          "name": "G5",
          "ticks": 115430,
          "time": 39.415979638671885,
          "velocity": 0.5039370078740157
        },
        {
          "duration": 1.1424201455078133,
          "durationTicks": 3353,
          "midi": 85,
          "name": "C#6",
          "ticks": 115430,
          "time": 39.415979638671885,
          "velocity": 0.5118110236220472
        },
        {
          "duration": 0.17172077343750658,
          "durationTicks": 504,
          "midi": 40,
          "name": "E2",
          "ticks": 115742,
          "time": 39.52228297460938,
          "velocity": 0.5118110236220472
        },
        {
          "duration": 0.1734243525390653,
          "durationTicks": 509,
          "midi": 40,
          "name": "E2",
          "ticks": 116247,
          "time": 39.694344463867196,
          "velocity": 0.5039370078740157
        },
        {
          "duration": 0.1734243525390582,
          "durationTicks": 509,
          "midi": 40,
          "name": "E2",
          "ticks": 116757,
          "time": 39.868109532226576,
          "velocity": 0.5275590551181102
        },
        {
          "duration": 0.17172077343749947,
          "durationTicks": 504,
          "midi": 40,
          "name": "E2",
          "ticks": 117267,
          "time": 40.04187460058595,
          "velocity": 0.5039370078740157
        },
        {
          "duration": 0.17172077343749947,
          "durationTicks": 504,
          "midi": 40,
          "name": "E2",
          "ticks": 117772,
          "time": 40.21393608984376,
          "velocity": 0.5118110236220472
        },
        {
          "duration": 0.16218073046875503,
          "durationTicks": 476,
          "midi": 40,
          "name": "E2",
          "ticks": 118277,
          "time": 40.38599757910157,
          "velocity": 0.5039370078740157
        },
        {
          "duration": 0.1482113818359423,
          "durationTicks": 435,
          "midi": 74,
          "name": "D5",
          "ticks": 118788,
          "time": 40.56010336328126,
          "velocity": 0.5433070866141733
        },
        {
          "duration": 0.18432725878906808,
          "durationTicks": 541,
          "midi": 38,
          "name": "D2",
          "ticks": 118788,
          "time": 40.56010336328126,
          "velocity": 0.5433070866141733
        },
        {
          "duration": 0.1625214462890625,
          "durationTicks": 477,
          "midi": 38,
          "name": "D2",
          "ticks": 119330,
          "time": 40.74477133789063,
          "velocity": 0.5039370078740157
        },
        {
          "duration": 0.08722325000000097,
          "durationTicks": 256,
          "midi": 72,
          "name": "C5",
          "ticks": 119808,
          "time": 40.90763350000001,
          "velocity": 0.5118110236220472
        },
        {
          "duration": 0.17172077343749947,
          "durationTicks": 504,
          "midi": 42,
          "name": "F#2",
          "ticks": 119838,
          "time": 40.917854974609384,
          "velocity": 0.5118110236220472
        },
        {
          "duration": 0.2708690771484328,
          "durationTicks": 795,
          "midi": 73,
          "name": "C#5",
          "ticks": 120037,
          "time": 40.985657422851574,
          "velocity": 0.4645669291338583
        },
        {
          "duration": 0.16320287792968458,
          "durationTicks": 479,
          "midi": 42,
          "name": "F#2",
          "ticks": 120343,
          "time": 41.0899164638672,
          "velocity": 0.5039370078740157
        },
        {
          "duration": 0.1366137500000022,
          "durationTicks": 400,
          "midi": 74,
          "name": "D5",
          "ticks": 120853,
          "time": 41.26368153222657,
          "velocity": 0.5275590551181102
        },
        {
          "duration": 0.17400424707030737,
          "durationTicks": 509,
          "midi": 45,
          "name": "A2",
          "ticks": 120853,
          "time": 41.26368153222657,
          "velocity": 0.5275590551181102
        },
        {
          "duration": 0.1638741591796844,
          "durationTicks": 474,
          "midi": 45,
          "name": "A2",
          "ticks": 121363,
          "time": 41.43803048925782,
          "velocity": 0.5039370078740157
        },
        {
          "duration": 0.08695654296874977,
          "durationTicks": 250,
          "midi": 72,
          "name": "C5",
          "ticks": 121856,
          "time": 41.60849275,
          "velocity": 0.5118110236220472
        },
        {
          "duration": 0.16534577734375233,
          "durationTicks": 474,
          "midi": 47,
          "name": "B2",
          "ticks": 121868,
          "time": 41.6126666640625,
          "velocity": 0.5118110236220472
        },
        {
          "duration": 0.2814654374999961,
          "durationTicks": 800,
          "midi": 73,
          "name": "C#5",
          "ticks": 122080,
          "time": 41.686405812500006,
          "velocity": 0.4645669291338583
        },
        {
          "duration": 0.16802415820311722,
          "durationTicks": 476,
          "midi": 45,
          "name": "A2",
          "ticks": 122373,
          "time": 41.78886970117188,
          "velocity": 0.5039370078740157
        },
        {
          "duration": 0.187702434570312,
          "durationTicks": 541,
          "midi": 38,
          "name": "D2",
          "ticks": 122884,
          "time": 41.9692876875,
          "velocity": 0.5433070866141733
        },
        {
          "duration": 0.1625214462890625,
          "durationTicks": 477,
          "midi": 74,
          "name": "D5",
          "ticks": 123426,
          "time": 42.157330837890626,
          "velocity": 0.5039370078740157
        },
        {
          "duration": 0.1625214462890625,
          "durationTicks": 477,
          "midi": 38,
          "name": "D2",
          "ticks": 123426,
          "time": 42.157330837890626,
          "velocity": 0.5039370078740157
        },
        {
          "duration": 0.08756396582030845,
          "durationTicks": 257,
          "midi": 72,
          "name": "C5",
          "ticks": 123904,
          "time": 42.320193,
          "velocity": 0.5118110236220472
        },
        {
          "duration": 0.17172077343749947,
          "durationTicks": 504,
          "midi": 42,
          "name": "F#2",
          "ticks": 123934,
          "time": 42.33041447460938,
          "velocity": 0.5118110236220472
        },
        {
          "duration": 0.2705283613281253,
          "durationTicks": 794,
          "midi": 73,
          "name": "C#5",
          "ticks": 124134,
          "time": 42.398557638671875,
          "velocity": 0.4645669291338583
        },
        {
          "duration": 0.16320287792968458,
          "durationTicks": 479,
          "midi": 42,
          "name": "F#2",
          "ticks": 124439,
          "time": 42.50247596386719,
          "velocity": 0.5039370078740157
        },
        {
          "duration": 0.13628632812499575,
          "durationTicks": 400,
          "midi": 74,
          "name": "D5",
          "ticks": 124949,
          "time": 42.676241032226564,
          "velocity": 0.5275590551181102
        },
        {
          "duration": 0.1734243525390582,
          "durationTicks": 509,
          "midi": 45,
          "name": "A2",
          "ticks": 124949,
          "time": 42.676241032226564,
          "velocity": 0.5275590551181102
        },
        {
          "duration": 0.16149929882812586,
          "durationTicks": 474,
          "midi": 45,
          "name": "A2",
          "ticks": 125459,
          "time": 42.85000610058594,
          "velocity": 0.5039370078740157
        },
        {
          "duration": 0.08654181835937891,
          "durationTicks": 254,
          "midi": 72,
          "name": "C5",
          "ticks": 125952,
          "time": 43.017979,
          "velocity": 0.5118110236220472
        },
        {
          "duration": 0.16149929882812586,
          "durationTicks": 474,
          "midi": 47,
          "name": "B2",
          "ticks": 125964,
          "time": 43.02206758984375,
          "velocity": 0.5118110236220472
        },
        {
          "duration": 0.27155050878906195,
          "durationTicks": 797,
          "midi": 73,
          "name": "C#5",
          "ticks": 126179,
          "time": 43.09532149121094,
          "velocity": 0.4645669291338583
        },
        {
          "duration": 0.16218073046874792,
          "durationTicks": 476,
          "midi": 45,
          "name": "A2",
          "ticks": 126469,
          "time": 43.194129079101565,
          "velocity": 0.5039370078740157
        },
        {
          "duration": 0.18432725878906098,
          "durationTicks": 541,
          "midi": 76,
          "name": "E5",
          "ticks": 126980,
          "time": 43.36823486328125,
          "velocity": 0.48031496062992124
        },
        {
          "duration": 0.18432725878906098,
          "durationTicks": 541,
          "midi": 81,
          "name": "A5",
          "ticks": 126980,
          "time": 43.36823486328125,
          "velocity": 0.5590551181102362
        },
        {
          "duration": 0.18432725878906098,
          "durationTicks": 541,
          "midi": 33,
          "name": "A1",
          "ticks": 126980,
          "time": 43.36823486328125,
          "velocity": 0.5433070866141733
        },
        {
          "duration": 0.17274292089843613,
          "durationTicks": 507,
          "midi": 76,
          "name": "E5",
          "ticks": 127522,
          "time": 43.55290283789063,
          "velocity": 0.4409448818897638
        },
        {
          "duration": 0.17274292089843613,
          "durationTicks": 507,
          "midi": 81,
          "name": "A5",
          "ticks": 127522,
          "time": 43.55290283789063,
          "velocity": 0.5196850393700787
        },
        {
          "duration": 0.1625214462890625,
          "durationTicks": 477,
          "midi": 33,
          "name": "A1",
          "ticks": 127522,
          "time": 43.55290283789063,
          "velocity": 0.5039370078740157
        },
        {
          "duration": 0.16149929882811875,
          "durationTicks": 474,
          "midi": 76,
          "name": "E5",
          "ticks": 128030,
          "time": 43.72598647460938,
          "velocity": 0.44881889763779526
        },
        {
          "duration": 0.17172077343749947,
          "durationTicks": 504,
          "midi": 81,
          "name": "A5",
          "ticks": 128030,
          "time": 43.72598647460938,
          "velocity": 0.5590551181102362
        },
        {
          "duration": 0.17172077343749947,
          "durationTicks": 504,
          "midi": 37,
          "name": "C#2",
          "ticks": 128030,
          "time": 43.72598647460938,
          "velocity": 0.5118110236220472
        },
        {
          "duration": 0.16320287792969168,
          "durationTicks": 479,
          "midi": 75,
          "name": "D#5",
          "ticks": 128535,
          "time": 43.898047963867185,
          "velocity": 0.4409448818897638
        },
        {
          "duration": 0.1734243525390653,
          "durationTicks": 509,
          "midi": 80,
          "name": "G#5",
          "ticks": 128535,
          "time": 43.898047963867185,
          "velocity": 0.5511811023622047
        },
        {
          "duration": 0.16320287792969168,
          "durationTicks": 479,
          "midi": 37,
          "name": "C#2",
          "ticks": 128535,
          "time": 43.898047963867185,
          "velocity": 0.5039370078740157
        },
        {
          "duration": 0.17400424707030737,
          "durationTicks": 509,
          "midi": 76,
          "name": "E5",
          "ticks": 129045,
          "time": 44.071813032226565,
          "velocity": 0.4645669291338583
        },
        {
          "duration": 0.17400424707030737,
          "durationTicks": 509,
          "midi": 81,
          "name": "A5",
          "ticks": 129045,
          "time": 44.071813032226565,
          "velocity": 0.5748031496062992
        },
        {
          "duration": 0.17400424707030737,
          "durationTicks": 509,
          "midi": 40,
          "name": "E2",
          "ticks": 129045,
          "time": 44.071813032226565,
          "velocity": 0.5275590551181102
        },
        {
          "duration": 0.1638741591796844,
          "durationTicks": 474,
          "midi": 76,
          "name": "E5",
          "ticks": 129555,
          "time": 44.246161989257814,
          "velocity": 0.4409448818897638
        },
        {
          "duration": 0.17428834863280684,
          "durationTicks": 504,
          "midi": 81,
          "name": "A5",
          "ticks": 129555,
          "time": 44.246161989257814,
          "velocity": 0.5511811023622047
        },
        {
          "duration": 0.1638741591796844,
          "durationTicks": 474,
          "midi": 40,
          "name": "E2",
          "ticks": 129555,
          "time": 44.246161989257814,
          "velocity": 0.5039370078740157
        },
        {
          "duration": 0.16534577734375233,
          "durationTicks": 474,
          "midi": 75,
          "name": "D#5",
          "ticks": 130060,
          "time": 44.4207981640625,
          "velocity": 0.44881889763779526
        },
        {
          "duration": 0.1758510468750032,
          "durationTicks": 504,
          "midi": 80,
          "name": "G#5",
          "ticks": 130060,
          "time": 44.4207981640625,
          "velocity": 0.5590551181102362
        },
        {
          "duration": 0.16534577734375233,
          "durationTicks": 474,
          "midi": 42,
          "name": "F#2",
          "ticks": 130060,
          "time": 44.4207981640625,
          "velocity": 0.5118110236220472
        },
        {
          "duration": 0.16802415820311722,
          "durationTicks": 476,
          "midi": 76,
          "name": "E5",
          "ticks": 130565,
          "time": 44.59700120117188,
          "velocity": 0.4409448818897638
        },
        {
          "duration": 0.17864743945312256,
          "durationTicks": 506,
          "midi": 81,
          "name": "A5",
          "ticks": 130565,
          "time": 44.59700120117188,
          "velocity": 0.5511811023622047
        },
        {
          "duration": 0.16802415820311722,
          "durationTicks": 476,
          "midi": 40,
          "name": "E2",
          "ticks": 130565,
          "time": 44.59700120117188,
          "velocity": 0.5039370078740157
        },
        {
          "duration": 0.187702434570312,
          "durationTicks": 541,
          "midi": 33,
          "name": "A1",
          "ticks": 131076,
          "time": 44.777419187499994,
          "velocity": 0.5433070866141733
        },
        {
          "duration": 0.1625214462890625,
          "durationTicks": 477,
          "midi": 84,
          "name": "C6",
          "ticks": 131618,
          "time": 44.96546233789062,
          "velocity": 0.5039370078740157
        },
        {
          "duration": 0.1625214462890625,
          "durationTicks": 477,
          "midi": 33,
          "name": "A1",
          "ticks": 131618,
          "time": 44.96546233789062,
          "velocity": 0.5039370078740157
        },
        {
          "duration": 0.16149929882812586,
          "durationTicks": 474,
          "midi": 81,
          "name": "A5",
          "ticks": 132126,
          "time": 45.13854597460937,
          "velocity": 0.5118110236220472
        },
        {
          "duration": 0.17172077343749947,
          "durationTicks": 504,
          "midi": 37,
          "name": "C#2",
          "ticks": 132126,
          "time": 45.13854597460937,
          "velocity": 0.5118110236220472
        },
        {
          "duration": 0.16320287792968458,
          "durationTicks": 479,
          "midi": 79,
          "name": "G5",
          "ticks": 132631,
          "time": 45.310607463867186,
          "velocity": 0.5039370078740157
        },
        {
          "duration": 0.16320287792968458,
          "durationTicks": 479,
          "midi": 37,
          "name": "C#2",
          "ticks": 132631,
          "time": 45.310607463867186,
          "velocity": 0.5039370078740157
        },
        {
          "duration": 0.16320287792968458,
          "durationTicks": 479,
          "midi": 76,
          "name": "E5",
          "ticks": 133141,
          "time": 45.48437253222656,
          "velocity": 0.5275590551181102
        },
        {
          "duration": 0.1734243525390582,
          "durationTicks": 509,
          "midi": 40,
          "name": "E2",
          "ticks": 133141,
          "time": 45.48437253222656,
          "velocity": 0.5275590551181102
        },
        {
          "duration": 0.16149929882812586,
          "durationTicks": 474,
          "midi": 74,
          "name": "D5",
          "ticks": 133651,
          "time": 45.65813760058593,
          "velocity": 0.5039370078740157
        },
        {
          "duration": 0.16149929882812586,
          "durationTicks": 474,
          "midi": 40,
          "name": "E2",
          "ticks": 133651,
          "time": 45.65813760058593,
          "velocity": 0.5039370078740157
        },
        {
          "duration": 0.16149929882812586,
          "durationTicks": 474,
          "midi": 72,
          "name": "C5",
          "ticks": 134156,
          "time": 45.830199089843745,
          "velocity": 0.5118110236220472
        },
        {
          "duration": 0.16149929882812586,
          "durationTicks": 474,
          "midi": 42,
          "name": "F#2",
          "ticks": 134156,
          "time": 45.830199089843745,
          "velocity": 0.5118110236220472
        },
        {
          "duration": 0.16218073046874792,
          "durationTicks": 476,
          "midi": 69,
          "name": "A4",
          "ticks": 134661,
          "time": 46.00226057910156,
          "velocity": 0.5039370078740157
        },
        {
          "duration": 0.17240220507812154,
          "durationTicks": 506,
          "midi": 40,
          "name": "E2",
          "ticks": 134661,
          "time": 46.00226057910156,
          "velocity": 0.5039370078740157
        },
        {
          "duration": 0.08722325000000097,
          "durationTicks": 256,
          "midi": 73,
          "name": "C#5",
          "ticks": 135168,
          "time": 46.175003499999995,
          "velocity": 0.5433070866141733
        },
        {
          "duration": 0.18432725878906098,
          "durationTicks": 541,
          "midi": 40,
          "name": "E2",
          "ticks": 135172,
          "time": 46.17636636328125,
          "velocity": 0.5433070866141733
        },
        {
          "duration": 0.2708690771484328,
          "durationTicks": 795,
          "midi": 74,
          "name": "D5",
          "ticks": 135397,
          "time": 46.25302742285156,
          "velocity": 0.4645669291338583
        },
        {
          "duration": 0.1625214462890625,
          "durationTicks": 477,
          "midi": 40,
          "name": "E2",
          "ticks": 135714,
          "time": 46.36103433789062,
          "velocity": 0.5039370078740157
        },
        {
          "duration": 0.0868825341796935,
          "durationTicks": 255,
          "midi": 73,
          "name": "C#5",
          "ticks": 136192,
          "time": 46.52389649999999,
          "velocity": 0.5118110236220472
        },
        {
          "duration": 0.17172077343749947,
          "durationTicks": 504,
          "midi": 44,
          "name": "G#2",
          "ticks": 136222,
          "time": 46.53411797460937,
          "velocity": 0.5118110236220472
        },
        {
          "duration": 0.27120979296875447,
          "durationTicks": 796,
          "midi": 74,
          "name": "D5",
          "ticks": 136420,
          "time": 46.60157970703124,
          "velocity": 0.4645669291338583
        },
        {
          "duration": 0.16320287792969168,
          "durationTicks": 479,
          "midi": 44,
          "name": "G#2",
          "ticks": 136727,
          "time": 46.70617946386718,
          "velocity": 0.5039370078740157
        },
        {
          "duration": 0.0865418183593718,
          "durationTicks": 254,
          "midi": 73,
          "name": "C#5",
          "ticks": 137216,
          "time": 46.872789499999996,
          "velocity": 0.5275590551181102
        },
        {
          "duration": 0.1734243525390582,
          "durationTicks": 509,
          "midi": 47,
          "name": "B2",
          "ticks": 137237,
          "time": 46.87994453222656,
          "velocity": 0.5275590551181102
        },
        {
          "duration": 0.09710400878906711,
          "durationTicks": 285,
          "midi": 74,
          "name": "D5",
          "ticks": 137443,
          "time": 46.95013199121093,
          "velocity": 0.4645669291338583
        },
        {
          "duration": 0.16149929882812586,
          "durationTicks": 474,
          "midi": 74,
          "name": "D5",
          "ticks": 137747,
          "time": 47.05370960058593,
          "velocity": 0.5039370078740157
        },
        {
          "duration": 0.16149929882812586,
          "durationTicks": 474,
          "midi": 47,
          "name": "B2",
          "ticks": 137747,
          "time": 47.05370960058593,
          "velocity": 0.5039370078740157
        },
        {
          "duration": 0.16149929882812586,
          "durationTicks": 474,
          "midi": 72,
          "name": "C5",
          "ticks": 138252,
          "time": 47.22577108984375,
          "velocity": 0.5118110236220472
        },
        {
          "duration": 0.16149929882812586,
          "durationTicks": 474,
          "midi": 49,
          "name": "C#3",
          "ticks": 138252,
          "time": 47.22577108984375,
          "velocity": 0.5118110236220472
        },
        {
          "duration": 0.16218073046874792,
          "durationTicks": 476,
          "midi": 69,
          "name": "A4",
          "ticks": 138757,
          "time": 47.39783257910156,
          "velocity": 0.5039370078740157
        },
        {
          "duration": 0.16218073046874792,
          "durationTicks": 476,
          "midi": 47,
          "name": "B2",
          "ticks": 138757,
          "time": 47.39783257910156,
          "velocity": 0.5039370078740157
        },
        {
          "duration": 0.18432725878906098,
          "durationTicks": 541,
          "midi": 38,
          "name": "D2",
          "ticks": 139268,
          "time": 47.57193836328125,
          "velocity": 0.5433070866141733
        },
        {
          "duration": 0.1625214462890625,
          "durationTicks": 477,
          "midi": 69,
          "name": "A4",
          "ticks": 139810,
          "time": 47.75660633789062,
          "velocity": 0.5039370078740157
        },
        {
          "duration": 0.1625214462890625,
          "durationTicks": 477,
          "midi": 38,
          "name": "D2",
          "ticks": 139810,
          "time": 47.75660633789062,
          "velocity": 0.5039370078740157
        },
        {
          "duration": 0.16149929882812586,
          "durationTicks": 474,
          "midi": 67,
          "name": "G4",
          "ticks": 140318,
          "time": 47.92968997460937,
          "velocity": 0.5118110236220472
        },
        {
          "duration": 0.17172077343750658,
          "durationTicks": 504,
          "midi": 42,
          "name": "F#2",
          "ticks": 140318,
          "time": 47.92968997460937,
          "velocity": 0.5118110236220472
        },
        {
          "duration": 0.16320287792969168,
          "durationTicks": 479,
          "midi": 64,
          "name": "E4",
          "ticks": 140823,
          "time": 48.10175146386718,
          "velocity": 0.5039370078740157
        },
        {
          "duration": 0.16320287792969168,
          "durationTicks": 479,
          "midi": 42,
          "name": "F#2",
          "ticks": 140823,
          "time": 48.10175146386718,
          "velocity": 0.5039370078740157
        },
        {
          "duration": 0.16320287792968458,
          "durationTicks": 479,
          "midi": 63,
          "name": "D#4",
          "ticks": 141333,
          "time": 48.27551653222656,
          "velocity": 0.5275590551181102
        },
        {
          "duration": 0.1734243525390582,
          "durationTicks": 509,
          "midi": 45,
          "name": "A2",
          "ticks": 141333,
          "time": 48.27551653222656,
          "velocity": 0.5275590551181102
        },
        {
          "duration": 0.16149929882812586,
          "durationTicks": 474,
          "midi": 62,
          "name": "D4",
          "ticks": 141843,
          "time": 48.449281600585934,
          "velocity": 0.5039370078740157
        },
        {
          "duration": 0.16149929882812586,
          "durationTicks": 474,
          "midi": 45,
          "name": "A2",
          "ticks": 141843,
          "time": 48.449281600585934,
          "velocity": 0.5039370078740157
        },
        {
          "duration": 0.16149929882811875,
          "durationTicks": 474,
          "midi": 60,
          "name": "C4",
          "ticks": 142348,
          "time": 48.62134308984375,
          "velocity": 0.5118110236220472
        },
        {
          "duration": 0.16149929882811875,
          "durationTicks": 474,
          "midi": 47,
          "name": "B2",
          "ticks": 142348,
          "time": 48.62134308984375,
          "velocity": 0.5118110236220472
        },
        {
          "duration": 0.16218073046875503,
          "durationTicks": 476,
          "midi": 57,
          "name": "A3",
          "ticks": 142853,
          "time": 48.793404579101555,
          "velocity": 0.5039370078740157
        },
        {
          "duration": 0.16218073046875503,
          "durationTicks": 476,
          "midi": 45,
          "name": "A2",
          "ticks": 142853,
          "time": 48.793404579101555,
          "velocity": 0.5039370078740157
        },
        {
          "duration": 0.18432725878906808,
          "durationTicks": 541,
          "midi": 33,
          "name": "A1",
          "ticks": 143364,
          "time": 48.96751036328124,
          "velocity": 0.5433070866141733
        },
        {
          "duration": 0.1625214462890625,
          "durationTicks": 477,
          "midi": 73,
          "name": "C#5",
          "ticks": 143906,
          "time": 49.15217833789062,
          "velocity": 0.5039370078740157
        },
        {
          "duration": 0.1625214462890625,
          "durationTicks": 477,
          "midi": 33,
          "name": "A1",
          "ticks": 143906,
          "time": 49.15217833789062,
          "velocity": 0.5039370078740157
        },
        {
          "duration": 0.16149929882812586,
          "durationTicks": 474,
          "midi": 76,
          "name": "E5",
          "ticks": 144414,
          "time": 49.32526197460937,
          "velocity": 0.5118110236220472
        },
        {
          "duration": 0.17172077343749947,
          "durationTicks": 504,
          "midi": 37,
          "name": "C#2",
          "ticks": 144414,
          "time": 49.32526197460937,
          "velocity": 0.5118110236220472
        },
        {
          "duration": 0.16320287792968458,
          "durationTicks": 479,
          "midi": 81,
          "name": "A5",
          "ticks": 144919,
          "time": 49.49732346386718,
          "velocity": 0.5039370078740157
        },
        {
          "duration": 0.16320287792968458,
          "durationTicks": 479,
          "midi": 37,
          "name": "C#2",
          "ticks": 144919,
          "time": 49.49732346386718,
          "velocity": 0.5039370078740157
        },
        {
          "duration": 0.16320287792969168,
          "durationTicks": 479,
          "midi": 79,
          "name": "G5",
          "ticks": 145429,
          "time": 49.671088532226555,
          "velocity": 0.5275590551181102
        },
        {
          "duration": 0.1734243525390653,
          "durationTicks": 509,
          "midi": 38,
          "name": "D2",
          "ticks": 145429,
          "time": 49.671088532226555,
          "velocity": 0.5275590551181102
        },
        {
          "duration": 0.16149929882811875,
          "durationTicks": 474,
          "midi": 76,
          "name": "E5",
          "ticks": 145939,
          "time": 49.844853600585935,
          "velocity": 0.5039370078740157
        },
        {
          "duration": 0.16149929882811875,
          "durationTicks": 474,
          "midi": 38,
          "name": "D2",
          "ticks": 145939,
          "time": 49.844853600585935,
          "velocity": 0.5039370078740157
        },
        {
          "duration": 0.16149929882812586,
          "durationTicks": 474,
          "midi": 74,
          "name": "D5",
          "ticks": 146444,
          "time": 50.01691508984374,
          "velocity": 0.5118110236220472
        },
        {
          "duration": 0.17172077343750658,
          "durationTicks": 504,
          "midi": 39,
          "name": "D#2",
          "ticks": 146444,
          "time": 50.01691508984374,
          "velocity": 0.5118110236220472
        },
        {
          "duration": 0.16218073046875503,
          "durationTicks": 476,
          "midi": 72,
          "name": "C5",
          "ticks": 146949,
          "time": 50.188976579101556,
          "velocity": 0.5039370078740157
        },
        {
          "duration": 0.16218073046875503,
          "durationTicks": 476,
          "midi": 39,
          "name": "D#2",
          "ticks": 146949,
          "time": 50.188976579101556,
          "velocity": 0.5039370078740157
        },
        {
          "duration": 0.3574108955078117,
          "durationTicks": 1049,
          "midi": 69,
          "name": "A4",
          "ticks": 147460,
          "time": 50.363082363281244,
          "velocity": 0.5433070866141733
        },
        {
          "duration": 0.17274292089843613,
          "durationTicks": 507,
          "midi": 40,
          "name": "E2",
          "ticks": 148002,
          "time": 50.54775033789062,
          "velocity": 0.5039370078740157
        },
        {
          "duration": 0.17172077343749947,
          "durationTicks": 504,
          "midi": 40,
          "name": "E2",
          "ticks": 148510,
          "time": 50.72083397460937,
          "velocity": 0.5118110236220472
        },
        {
          "duration": 0.8776006767578082,
          "durationTicks": 2536,
          "midi": 64,
          "name": "E4",
          "ticks": 149015,
          "time": 50.892895463867184,
          "velocity": 0.5039370078740157
        },
        {
          "duration": 0.1734243525390582,
          "durationTicks": 509,
          "midi": 40,
          "name": "E2",
          "ticks": 149015,
          "time": 50.892895463867184,
          "velocity": 0.5039370078740157
        },
        {
          "duration": 0.17400424707030737,
          "durationTicks": 509,
          "midi": 40,
          "name": "E2",
          "ticks": 149525,
          "time": 51.06666053222656,
          "velocity": 0.5275590551181102
        },
        {
          "duration": 0.17428834863280684,
          "durationTicks": 504,
          "midi": 40,
          "name": "E2",
          "ticks": 150035,
          "time": 51.241009489257806,
          "velocity": 0.5039370078740157
        },
        {
          "duration": 0.1758510468750032,
          "durationTicks": 504,
          "midi": 40,
          "name": "E2",
          "ticks": 150540,
          "time": 51.41564566406249,
          "velocity": 0.5118110236220472
        },
        {
          "duration": 0.16802415820311722,
          "durationTicks": 476,
          "midi": 40,
          "name": "E2",
          "ticks": 151045,
          "time": 51.59184870117187,
          "velocity": 0.5039370078740157
        },
        {
          "duration": 0.187702434570312,
          "durationTicks": 541,
          "midi": 57,
          "name": "A3",
          "ticks": 151556,
          "time": 51.772266687499986,
          "velocity": 0.3858267716535433
        },
        {
          "duration": 0.187702434570312,
          "durationTicks": 541,
          "midi": 64,
          "name": "E4",
          "ticks": 151556,
          "time": 51.772266687499986,
          "velocity": 0.4645669291338583
        },
        {
          "duration": 0.187702434570312,
          "durationTicks": 541,
          "midi": 33,
          "name": "A1",
          "ticks": 151556,
          "time": 51.772266687499986,
          "velocity": 0.5433070866141733
        },
        {
          "duration": 0.17274292089843613,
          "durationTicks": 507,
          "midi": 57,
          "name": "A3",
          "ticks": 152098,
          "time": 51.96030983789061,
          "velocity": 0.3464566929133858
        },
        {
          "duration": 0.17274292089843613,
          "durationTicks": 507,
          "midi": 64,
          "name": "E4",
          "ticks": 152098,
          "time": 51.96030983789061,
          "velocity": 0.4566929133858268
        },
        {
          "duration": 0.1625214462890625,
          "durationTicks": 477,
          "midi": 33,
          "name": "A1",
          "ticks": 152098,
          "time": 51.96030983789061,
          "velocity": 0.5039370078740157
        },
        {
          "duration": 0.17172077343749947,
          "durationTicks": 504,
          "midi": 57,
          "name": "A3",
          "ticks": 152606,
          "time": 52.13339347460936,
          "velocity": 0.48031496062992124
        },
        {
          "duration": 0.17172077343749947,
          "durationTicks": 504,
          "midi": 66,
          "name": "F#4",
          "ticks": 152606,
          "time": 52.13339347460936,
          "velocity": 0.5905511811023622
        },
        {
          "duration": 0.17172077343749947,
          "durationTicks": 504,
          "midi": 37,
          "name": "C#2",
          "ticks": 152606,
          "time": 52.13339347460936,
          "velocity": 0.5118110236220472
        },
        {
          "duration": 0.1734243525390582,
          "durationTicks": 509,
          "midi": 57,
          "name": "A3",
          "ticks": 153111,
          "time": 52.30545496386718,
          "velocity": 0.3464566929133858
        },
        {
          "duration": 0.1734243525390582,
          "durationTicks": 509,
          "midi": 64,
          "name": "E4",
          "ticks": 153111,
          "time": 52.30545496386718,
          "velocity": 0.4566929133858268
        },
        {
          "duration": 0.16320287792968458,
          "durationTicks": 479,
          "midi": 37,
          "name": "C#2",
          "ticks": 153111,
          "time": 52.30545496386718,
          "velocity": 0.5039370078740157
        },
        {
          "duration": 0.1734243525390582,
          "durationTicks": 509,
          "midi": 57,
          "name": "A3",
          "ticks": 153621,
          "time": 52.47922003222655,
          "velocity": 0.3700787401574803
        },
        {
          "duration": 0.1734243525390582,
          "durationTicks": 509,
          "midi": 64,
          "name": "E4",
          "ticks": 153621,
          "time": 52.47922003222655,
          "velocity": 0.44881889763779526
        },
        {
          "duration": 0.1734243525390582,
          "durationTicks": 509,
          "midi": 40,
          "name": "E2",
          "ticks": 153621,
          "time": 52.47922003222655,
          "velocity": 0.5275590551181102
        },
        {
          "duration": 0.17172077343749947,
          "durationTicks": 504,
          "midi": 57,
          "name": "A3",
          "ticks": 154131,
          "time": 52.65298510058592,
          "velocity": 0.3464566929133858
        },
        {
          "duration": 0.17172077343749947,
          "durationTicks": 504,
          "midi": 64,
          "name": "E4",
          "ticks": 154131,
          "time": 52.65298510058592,
          "velocity": 0.4566929133858268
        },
        {
          "duration": 0.16149929882812586,
          "durationTicks": 474,
          "midi": 40,
          "name": "E2",
          "ticks": 154131,
          "time": 52.65298510058592,
          "velocity": 0.5039370078740157
        },
        {
          "duration": 0.17172077343749947,
          "durationTicks": 504,
          "midi": 57,
          "name": "A3",
          "ticks": 154636,
          "time": 52.82504658984374,
          "velocity": 0.48031496062992124
        },
        {
          "duration": 0.17172077343749947,
          "durationTicks": 504,
          "midi": 66,
          "name": "F#4",
          "ticks": 154636,
          "time": 52.82504658984374,
          "velocity": 0.5905511811023622
        },
        {
          "duration": 0.17172077343749947,
          "durationTicks": 504,
          "midi": 42,
          "name": "F#2",
          "ticks": 154636,
          "time": 52.82504658984374,
          "velocity": 0.5118110236220472
        },
        {
          "duration": 0.17240220507812154,
          "durationTicks": 506,
          "midi": 57,
          "name": "A3",
          "ticks": 155141,
          "time": 52.99710807910155,
          "velocity": 0.3464566929133858
        },
        {
          "duration": 0.17240220507812154,
          "durationTicks": 506,
          "midi": 64,
          "name": "E4",
          "ticks": 155141,
          "time": 52.99710807910155,
          "velocity": 0.4566929133858268
        },
        {
          "duration": 0.16218073046874792,
          "durationTicks": 476,
          "midi": 42,
          "name": "F#2",
          "ticks": 155141,
          "time": 52.99710807910155,
          "velocity": 0.5039370078740157
        },
        {
          "duration": 0.18432725878906098,
          "durationTicks": 541,
          "midi": 57,
          "name": "A3",
          "ticks": 155652,
          "time": 53.17121386328124,
          "velocity": 0.3858267716535433
        },
        {
          "duration": 0.18432725878906098,
          "durationTicks": 541,
          "midi": 64,
          "name": "E4",
          "ticks": 155652,
          "time": 53.17121386328124,
          "velocity": 0.4645669291338583
        },
        {
          "duration": 0.18432725878906098,
          "durationTicks": 541,
          "midi": 45,
          "name": "A2",
          "ticks": 155652,
          "time": 53.17121386328124,
          "velocity": 0.5433070866141733
        },
        {
          "duration": 0.1625214462890625,
          "durationTicks": 477,
          "midi": 57,
          "name": "A3",
          "ticks": 156194,
          "time": 53.355881837890614,
          "velocity": 0.3464566929133858
        },
        {
          "duration": 0.17274292089843613,
          "durationTicks": 507,
          "midi": 64,
          "name": "E4",
          "ticks": 156194,
          "time": 53.355881837890614,
          "velocity": 0.4566929133858268
        },
        {
          "duration": 0.17274292089843613,
          "durationTicks": 507,
          "midi": 45,
          "name": "A2",
          "ticks": 156194,
          "time": 53.355881837890614,
          "velocity": 0.5039370078740157
        },
        {
          "duration": 0.17172077343749947,
          "durationTicks": 504,
          "midi": 57,
          "name": "A3",
          "ticks": 156702,
          "time": 53.528965474609365,
          "velocity": 0.48031496062992124
        },
        {
          "duration": 0.17172077343749947,
          "durationTicks": 504,
          "midi": 66,
          "name": "F#4",
          "ticks": 156702,
          "time": 53.528965474609365,
          "velocity": 0.5905511811023622
        },
        {
          "duration": 0.17172077343749947,
          "durationTicks": 504,
          "midi": 42,
          "name": "F#2",
          "ticks": 156702,
          "time": 53.528965474609365,
          "velocity": 0.5118110236220472
        },
        {
          "duration": 0.1734243525390653,
          "durationTicks": 509,
          "midi": 57,
          "name": "A3",
          "ticks": 157207,
          "time": 53.70102696386717,
          "velocity": 0.3464566929133858
        },
        {
          "duration": 0.1734243525390653,
          "durationTicks": 509,
          "midi": 64,
          "name": "E4",
          "ticks": 157207,
          "time": 53.70102696386717,
          "velocity": 0.4566929133858268
        },
        {
          "duration": 0.16320287792969168,
          "durationTicks": 479,
          "midi": 42,
          "name": "F#2",
          "ticks": 157207,
          "time": 53.70102696386717,
          "velocity": 0.5039370078740157
        },
        {
          "duration": 0.1734243525390582,
          "durationTicks": 509,
          "midi": 57,
          "name": "A3",
          "ticks": 157717,
          "time": 53.87479203222655,
          "velocity": 0.49606299212598426
        },
        {
          "duration": 0.1734243525390582,
          "durationTicks": 509,
          "midi": 67,
          "name": "G4",
          "ticks": 157717,
          "time": 53.87479203222655,
          "velocity": 0.6062992125984252
        },
        {
          "duration": 0.1734243525390582,
          "durationTicks": 509,
          "midi": 40,
          "name": "E2",
          "ticks": 157717,
          "time": 53.87479203222655,
          "velocity": 0.5275590551181102
        },
        {
          "duration": 0.17172077343749947,
          "durationTicks": 504,
          "midi": 57,
          "name": "A3",
          "ticks": 158227,
          "time": 54.048557100585924,
          "velocity": 0.3464566929133858
        },
        {
          "duration": 0.17172077343749947,
          "durationTicks": 504,
          "midi": 64,
          "name": "E4",
          "ticks": 158227,
          "time": 54.048557100585924,
          "velocity": 0.4566929133858268
        },
        {
          "duration": 0.16149929882812586,
          "durationTicks": 474,
          "midi": 40,
          "name": "E2",
          "ticks": 158227,
          "time": 54.048557100585924,
          "velocity": 0.5039370078740157
        },
        {
          "duration": 0.17172077343749947,
          "durationTicks": 504,
          "midi": 57,
          "name": "A3",
          "ticks": 158732,
          "time": 54.22061858984374,
          "velocity": 0.48031496062992124
        },
        {
          "duration": 0.17172077343749947,
          "durationTicks": 504,
          "midi": 66,
          "name": "F#4",
          "ticks": 158732,
          "time": 54.22061858984374,
          "velocity": 0.5905511811023622
        },
        {
          "duration": 0.17172077343749947,
          "durationTicks": 504,
          "midi": 37,
          "name": "C#2",
          "ticks": 158732,
          "time": 54.22061858984374,
          "velocity": 0.5118110236220472
        },
        {
          "duration": 0.17240220507812154,
          "durationTicks": 506,
          "midi": 57,
          "name": "A3",
          "ticks": 159237,
          "time": 54.39268007910155,
          "velocity": 0.3464566929133858
        },
        {
          "duration": 0.17240220507812154,
          "durationTicks": 506,
          "midi": 64,
          "name": "E4",
          "ticks": 159237,
          "time": 54.39268007910155,
          "velocity": 0.4566929133858268
        },
        {
          "duration": 0.16218073046874792,
          "durationTicks": 476,
          "midi": 37,
          "name": "C#2",
          "ticks": 159237,
          "time": 54.39268007910155,
          "velocity": 0.5039370078740157
        },
        {
          "duration": 0.18432725878906098,
          "durationTicks": 541,
          "midi": 57,
          "name": "A3",
          "ticks": 159748,
          "time": 54.56678586328124,
          "velocity": 0.3858267716535433
        },
        {
          "duration": 0.18432725878906098,
          "durationTicks": 541,
          "midi": 64,
          "name": "E4",
          "ticks": 159748,
          "time": 54.56678586328124,
          "velocity": 0.4645669291338583
        },
        {
          "duration": 0.18432725878906098,
          "durationTicks": 541,
          "midi": 33,
          "name": "A1",
          "ticks": 159748,
          "time": 54.56678586328124,
          "velocity": 0.5433070866141733
        },
        {
          "duration": 0.17274292089844323,
          "durationTicks": 507,
          "midi": 57,
          "name": "A3",
          "ticks": 160290,
          "time": 54.75145383789061,
          "velocity": 0.3464566929133858
        },
        {
          "duration": 0.17274292089844323,
          "durationTicks": 507,
          "midi": 64,
          "name": "E4",
          "ticks": 160290,
          "time": 54.75145383789061,
          "velocity": 0.4566929133858268
        },
        {
          "duration": 0.1625214462890625,
          "durationTicks": 477,
          "midi": 33,
          "name": "A1",
          "ticks": 160290,
          "time": 54.75145383789061,
          "velocity": 0.5039370078740157
        },
        {
          "duration": 0.17172077343750658,
          "durationTicks": 504,
          "midi": 57,
          "name": "A3",
          "ticks": 160798,
          "time": 54.92453747460936,
          "velocity": 0.48031496062992124
        },
        {
          "duration": 0.17172077343750658,
          "durationTicks": 504,
          "midi": 66,
          "name": "F#4",
          "ticks": 160798,
          "time": 54.92453747460936,
          "velocity": 0.5905511811023622
        },
        {
          "duration": 0.17172077343750658,
          "durationTicks": 504,
          "midi": 37,
          "name": "C#2",
          "ticks": 160798,
          "time": 54.92453747460936,
          "velocity": 0.5118110236220472
        },
        {
          "duration": 0.1734243525390653,
          "durationTicks": 509,
          "midi": 57,
          "name": "A3",
          "ticks": 161303,
          "time": 55.09659896386717,
          "velocity": 0.3464566929133858
        },
        {
          "duration": 0.1734243525390653,
          "durationTicks": 509,
          "midi": 64,
          "name": "E4",
          "ticks": 161303,
          "time": 55.09659896386717,
          "velocity": 0.4566929133858268
        },
        {
          "duration": 0.16320287792969168,
          "durationTicks": 479,
          "midi": 37,
          "name": "C#2",
          "ticks": 161303,
          "time": 55.09659896386717,
          "velocity": 0.5039370078740157
        },
        {
          "duration": 0.1734243525390582,
          "durationTicks": 509,
          "midi": 57,
          "name": "A3",
          "ticks": 161813,
          "time": 55.27036403222655,
          "velocity": 0.3700787401574803
        },
        {
          "duration": 0.1734243525390582,
          "durationTicks": 509,
          "midi": 64,
          "name": "E4",
          "ticks": 161813,
          "time": 55.27036403222655,
          "velocity": 0.44881889763779526
        },
        {
          "duration": 0.1734243525390582,
          "durationTicks": 509,
          "midi": 40,
          "name": "E2",
          "ticks": 161813,
          "time": 55.27036403222655,
          "velocity": 0.5275590551181102
        },
        {
          "duration": 0.17172077343749947,
          "durationTicks": 504,
          "midi": 57,
          "name": "A3",
          "ticks": 162323,
          "time": 55.444129100585926,
          "velocity": 0.3464566929133858
        },
        {
          "duration": 0.17172077343749947,
          "durationTicks": 504,
          "midi": 64,
          "name": "E4",
          "ticks": 162323,
          "time": 55.444129100585926,
          "velocity": 0.4566929133858268
        },
        {
          "duration": 0.16149929882812586,
          "durationTicks": 474,
          "midi": 40,
          "name": "E2",
          "ticks": 162323,
          "time": 55.444129100585926,
          "velocity": 0.5039370078740157
        },
        {
          "duration": 0.17172077343749947,
          "durationTicks": 504,
          "midi": 57,
          "name": "A3",
          "ticks": 162828,
          "time": 55.61619058984374,
          "velocity": 0.48031496062992124
        },
        {
          "duration": 0.17172077343749947,
          "durationTicks": 504,
          "midi": 66,
          "name": "F#4",
          "ticks": 162828,
          "time": 55.61619058984374,
          "velocity": 0.5905511811023622
        },
        {
          "duration": 0.17172077343749947,
          "durationTicks": 504,
          "midi": 42,
          "name": "F#2",
          "ticks": 162828,
          "time": 55.61619058984374,
          "velocity": 0.5118110236220472
        },
        {
          "duration": 0.17240220507812865,
          "durationTicks": 506,
          "midi": 57,
          "name": "A3",
          "ticks": 163333,
          "time": 55.78825207910155,
          "velocity": 0.3464566929133858
        },
        {
          "duration": 0.17240220507812865,
          "durationTicks": 506,
          "midi": 64,
          "name": "E4",
          "ticks": 163333,
          "time": 55.78825207910155,
          "velocity": 0.4566929133858268
        },
        {
          "duration": 0.16218073046875503,
          "durationTicks": 476,
          "midi": 42,
          "name": "F#2",
          "ticks": 163333,
          "time": 55.78825207910155,
          "velocity": 0.5039370078740157
        },
        {
          "duration": 0.18432725878906808,
          "durationTicks": 541,
          "midi": 57,
          "name": "A3",
          "ticks": 163844,
          "time": 55.962357863281234,
          "velocity": 0.3858267716535433
        },
        {
          "duration": 0.18432725878906808,
          "durationTicks": 541,
          "midi": 64,
          "name": "E4",
          "ticks": 163844,
          "time": 55.962357863281234,
          "velocity": 0.4645669291338583
        },
        {
          "duration": 0.18432725878906808,
          "durationTicks": 541,
          "midi": 45,
          "name": "A2",
          "ticks": 163844,
          "time": 55.962357863281234,
          "velocity": 0.5433070866141733
        },
        {
          "duration": 0.1625214462890625,
          "durationTicks": 477,
          "midi": 57,
          "name": "A3",
          "ticks": 164386,
          "time": 56.14702583789061,
          "velocity": 0.3464566929133858
        },
        {
          "duration": 0.17274292089844323,
          "durationTicks": 507,
          "midi": 64,
          "name": "E4",
          "ticks": 164386,
          "time": 56.14702583789061,
          "velocity": 0.4566929133858268
        },
        {
          "duration": 0.17274292089844323,
          "durationTicks": 507,
          "midi": 45,
          "name": "A2",
          "ticks": 164386,
          "time": 56.14702583789061,
          "velocity": 0.5039370078740157
        },
        {
          "duration": 0.17172077343749947,
          "durationTicks": 504,
          "midi": 57,
          "name": "A3",
          "ticks": 164894,
          "time": 56.32010947460936,
          "velocity": 0.48031496062992124
        },
        {
          "duration": 0.17172077343749947,
          "durationTicks": 504,
          "midi": 66,
          "name": "F#4",
          "ticks": 164894,
          "time": 56.32010947460936,
          "velocity": 0.5905511811023622
        },
        {
          "duration": 0.17172077343749947,
          "durationTicks": 504,
          "midi": 42,
          "name": "F#2",
          "ticks": 164894,
          "time": 56.32010947460936,
          "velocity": 0.5118110236220472
        },
        {
          "duration": 0.1734243525390653,
          "durationTicks": 509,
          "midi": 57,
          "name": "A3",
          "ticks": 165399,
          "time": 56.492170963867174,
          "velocity": 0.3464566929133858
        },
        {
          "duration": 0.1734243525390653,
          "durationTicks": 509,
          "midi": 64,
          "name": "E4",
          "ticks": 165399,
          "time": 56.492170963867174,
          "velocity": 0.4566929133858268
        },
        {
          "duration": 0.16320287792968458,
          "durationTicks": 479,
          "midi": 42,
          "name": "F#2",
          "ticks": 165399,
          "time": 56.492170963867174,
          "velocity": 0.5039370078740157
        },
        {
          "duration": 0.1734243525390653,
          "durationTicks": 509,
          "midi": 57,
          "name": "A3",
          "ticks": 165909,
          "time": 56.66593603222655,
          "velocity": 0.49606299212598426
        },
        {
          "duration": 0.1734243525390653,
          "durationTicks": 509,
          "midi": 67,
          "name": "G4",
          "ticks": 165909,
          "time": 56.66593603222655,
          "velocity": 0.6062992125984252
        },
        {
          "duration": 0.1734243525390653,
          "durationTicks": 509,
          "midi": 40,
          "name": "E2",
          "ticks": 165909,
          "time": 56.66593603222655,
          "velocity": 0.5275590551181102
        },
        {
          "duration": 0.17172077343749947,
          "durationTicks": 504,
          "midi": 57,
          "name": "A3",
          "ticks": 166419,
          "time": 56.83970110058593,
          "velocity": 0.3464566929133858
        },
        {
          "duration": 0.17172077343749947,
          "durationTicks": 504,
          "midi": 64,
          "name": "E4",
          "ticks": 166419,
          "time": 56.83970110058593,
          "velocity": 0.4566929133858268
        },
        {
          "duration": 0.16149929882811875,
          "durationTicks": 474,
          "midi": 40,
          "name": "E2",
          "ticks": 166419,
          "time": 56.83970110058593,
          "velocity": 0.5039370078740157
        },
        {
          "duration": 0.17172077343750658,
          "durationTicks": 504,
          "midi": 57,
          "name": "A3",
          "ticks": 166924,
          "time": 57.011762589843734,
          "velocity": 0.48031496062992124
        },
        {
          "duration": 0.17172077343750658,
          "durationTicks": 504,
          "midi": 66,
          "name": "F#4",
          "ticks": 166924,
          "time": 57.011762589843734,
          "velocity": 0.5905511811023622
        },
        {
          "duration": 0.17172077343750658,
          "durationTicks": 504,
          "midi": 37,
          "name": "C#2",
          "ticks": 166924,
          "time": 57.011762589843734,
          "velocity": 0.5118110236220472
        },
        {
          "duration": 0.18296439550781685,
          "durationTicks": 537,
          "midi": 57,
          "name": "A3",
          "ticks": 167429,
          "time": 57.18382407910155,
          "velocity": 0.3464566929133858
        },
        {
          "duration": 0.17240220507812865,
          "durationTicks": 506,
          "midi": 64,
          "name": "E4",
          "ticks": 167429,
          "time": 57.18382407910155,
          "velocity": 0.4566929133858268
        },
        {
          "duration": 0.16218073046875503,
          "durationTicks": 476,
          "midi": 37,
          "name": "C#2",
          "ticks": 167429,
          "time": 57.18382407910155,
          "velocity": 0.5039370078740157
        },
        {
          "duration": 0.18432725878906098,
          "durationTicks": 541,
          "midi": 62,
          "name": "D4",
          "ticks": 167940,
          "time": 57.357929863281235,
          "velocity": 0.3858267716535433
        },
        {
          "duration": 0.18432725878906098,
          "durationTicks": 541,
          "midi": 69,
          "name": "A4",
          "ticks": 167940,
          "time": 57.357929863281235,
          "velocity": 0.49606299212598426
        },
        {
          "duration": 0.18432725878906098,
          "durationTicks": 541,
          "midi": 38,
          "name": "D2",
          "ticks": 167940,
          "time": 57.357929863281235,
          "velocity": 0.5433070866141733
        },
        {
          "duration": 0.17274292089843613,
          "durationTicks": 507,
          "midi": 62,
          "name": "D4",
          "ticks": 168482,
          "time": 57.54259783789061,
          "velocity": 0.3464566929133858
        },
        {
          "duration": 0.17274292089843613,
          "durationTicks": 507,
          "midi": 69,
          "name": "A4",
          "ticks": 168482,
          "time": 57.54259783789061,
          "velocity": 0.4566929133858268
        },
        {
          "duration": 0.1625214462890625,
          "durationTicks": 477,
          "midi": 38,
          "name": "D2",
          "ticks": 168482,
          "time": 57.54259783789061,
          "velocity": 0.5039370078740157
        },
        {
          "duration": 0.17172077343749947,
          "durationTicks": 504,
          "midi": 62,
          "name": "D4",
          "ticks": 168990,
          "time": 57.71568147460936,
          "velocity": 0.48031496062992124
        },
        {
          "duration": 0.17172077343749947,
          "durationTicks": 504,
          "midi": 71,
          "name": "B4",
          "ticks": 168990,
          "time": 57.71568147460936,
          "velocity": 0.5905511811023622
        },
        {
          "duration": 0.17172077343749947,
          "durationTicks": 504,
          "midi": 30,
          "name": "F#1",
          "ticks": 168990,
          "time": 57.71568147460936,
          "velocity": 0.5118110236220472
        },
        {
          "duration": 0.1734243525390582,
          "durationTicks": 509,
          "midi": 62,
          "name": "D4",
          "ticks": 169495,
          "time": 57.887742963867176,
          "velocity": 0.3464566929133858
        },
        {
          "duration": 0.1734243525390582,
          "durationTicks": 509,
          "midi": 69,
          "name": "A4",
          "ticks": 169495,
          "time": 57.887742963867176,
          "velocity": 0.4566929133858268
        },
        {
          "duration": 0.16320287792968458,
          "durationTicks": 479,
          "midi": 30,
          "name": "F#1",
          "ticks": 169495,
          "time": 57.887742963867176,
          "velocity": 0.5039370078740157
        },
        {
          "duration": 0.1734243525390653,
          "durationTicks": 509,
          "midi": 62,
          "name": "D4",
          "ticks": 170005,
          "time": 58.06150803222655,
          "velocity": 0.3700787401574803
        },
        {
          "duration": 0.1734243525390653,
          "durationTicks": 509,
          "midi": 69,
          "name": "A4",
          "ticks": 170005,
          "time": 58.06150803222655,
          "velocity": 0.44881889763779526
        },
        {
          "duration": 0.1734243525390653,
          "durationTicks": 509,
          "midi": 31,
          "name": "G1",
          "ticks": 170005,
          "time": 58.06150803222655,
          "velocity": 0.5275590551181102
        },
        {
          "duration": 0.17172077343749947,
          "durationTicks": 504,
          "midi": 62,
          "name": "D4",
          "ticks": 170515,
          "time": 58.23527310058593,
          "velocity": 0.3464566929133858
        },
        {
          "duration": 0.17172077343749947,
          "durationTicks": 504,
          "midi": 69,
          "name": "A4",
          "ticks": 170515,
          "time": 58.23527310058593,
          "velocity": 0.4566929133858268
        },
        {
          "duration": 0.16149929882811875,
          "durationTicks": 474,
          "midi": 31,
          "name": "G1",
          "ticks": 170515,
          "time": 58.23527310058593,
          "velocity": 0.5039370078740157
        },
        {
          "duration": 0.17172077343749947,
          "durationTicks": 504,
          "midi": 62,
          "name": "D4",
          "ticks": 171020,
          "time": 58.407334589843735,
          "velocity": 0.48031496062992124
        },
        {
          "duration": 0.17172077343749947,
          "durationTicks": 504,
          "midi": 71,
          "name": "B4",
          "ticks": 171020,
          "time": 58.407334589843735,
          "velocity": 0.5905511811023622
        },
        {
          "duration": 0.17172077343749947,
          "durationTicks": 504,
          "midi": 32,
          "name": "G#1",
          "ticks": 171020,
          "time": 58.407334589843735,
          "velocity": 0.5118110236220472
        },
        {
          "duration": 0.17240220507812154,
          "durationTicks": 506,
          "midi": 62,
          "name": "D4",
          "ticks": 171525,
          "time": 58.57939607910155,
          "velocity": 0.3464566929133858
        },
        {
          "duration": 0.17240220507812154,
          "durationTicks": 506,
          "midi": 69,
          "name": "A4",
          "ticks": 171525,
          "time": 58.57939607910155,
          "velocity": 0.4566929133858268
        },
        {
          "duration": 0.16218073046874792,
          "durationTicks": 476,
          "midi": 32,
          "name": "G#1",
          "ticks": 171525,
          "time": 58.57939607910155,
          "velocity": 0.5039370078740157
        },
        {
          "duration": 0.18432725878906098,
          "durationTicks": 541,
          "midi": 62,
          "name": "D4",
          "ticks": 172036,
          "time": 58.75350186328124,
          "velocity": 0.3858267716535433
        },
        {
          "duration": 0.18432725878906098,
          "durationTicks": 541,
          "midi": 69,
          "name": "A4",
          "ticks": 172036,
          "time": 58.75350186328124,
          "velocity": 0.4645669291338583
        },
        {
          "duration": 0.18432725878906098,
          "durationTicks": 541,
          "midi": 33,
          "name": "A1",
          "ticks": 172036,
          "time": 58.75350186328124,
          "velocity": 0.5433070866141733
        },
        {
          "duration": 0.17274292089843613,
          "durationTicks": 507,
          "midi": 62,
          "name": "D4",
          "ticks": 172578,
          "time": 58.93816983789061,
          "velocity": 0.3464566929133858
        },
        {
          "duration": 0.17274292089843613,
          "durationTicks": 507,
          "midi": 69,
          "name": "A4",
          "ticks": 172578,
          "time": 58.93816983789061,
          "velocity": 0.4566929133858268
        },
        {
          "duration": 0.1625214462890625,
          "durationTicks": 477,
          "midi": 33,
          "name": "A1",
          "ticks": 172578,
          "time": 58.93816983789061,
          "velocity": 0.5039370078740157
        },
        {
          "duration": 0.17172077343749947,
          "durationTicks": 504,
          "midi": 62,
          "name": "D4",
          "ticks": 173086,
          "time": 59.11125347460936,
          "velocity": 0.48031496062992124
        },
        {
          "duration": 0.17172077343749947,
          "durationTicks": 504,
          "midi": 71,
          "name": "B4",
          "ticks": 173086,
          "time": 59.11125347460936,
          "velocity": 0.5905511811023622
        },
        {
          "duration": 0.17172077343749947,
          "durationTicks": 504,
          "midi": 35,
          "name": "B1",
          "ticks": 173086,
          "time": 59.11125347460936,
          "velocity": 0.5118110236220472
        },
        {
          "duration": 0.1734243525390582,
          "durationTicks": 509,
          "midi": 62,
          "name": "D4",
          "ticks": 173591,
          "time": 59.28331496386718,
          "velocity": 0.3464566929133858
        },
        {
          "duration": 0.1734243525390582,
          "durationTicks": 509,
          "midi": 69,
          "name": "A4",
          "ticks": 173591,
          "time": 59.28331496386718,
          "velocity": 0.4566929133858268
        },
        {
          "duration": 0.16320287792968458,
          "durationTicks": 479,
          "midi": 35,
          "name": "B1",
          "ticks": 173591,
          "time": 59.28331496386718,
          "velocity": 0.5039370078740157
        },
        {
          "duration": 0.17372832128906168,
          "durationTicks": 509,
          "midi": 62,
          "name": "D4",
          "ticks": 174101,
          "time": 59.45708003222655,
          "velocity": 0.49606299212598426
        },
        {
          "duration": 0.17372832128906168,
          "durationTicks": 509,
          "midi": 72,
          "name": "C5",
          "ticks": 174101,
          "time": 59.45708003222655,
          "velocity": 0.6062992125984252
        },
        {
          "duration": 0.17372832128906168,
          "durationTicks": 509,
          "midi": 36,
          "name": "C2",
          "ticks": 174101,
          "time": 59.45708003222655,
          "velocity": 0.5275590551181102
        },
        {
          "duration": 0.17301450585937062,
          "durationTicks": 504,
          "midi": 62,
          "name": "D4",
          "ticks": 174611,
          "time": 59.63115105371092,
          "velocity": 0.3464566929133858
        },
        {
          "duration": 0.17301450585937062,
          "durationTicks": 504,
          "midi": 69,
          "name": "A4",
          "ticks": 174611,
          "time": 59.63115105371092,
          "velocity": 0.4566929133858268
        },
        {
          "duration": 0.16269124218749909,
          "durationTicks": 474,
          "midi": 36,
          "name": "C2",
          "ticks": 174611,
          "time": 59.63115105371092,
          "velocity": 0.5039370078740157
        },
        {
          "duration": 0.1740161992187481,
          "durationTicks": 504,
          "midi": 62,
          "name": "D4",
          "ticks": 175116,
          "time": 59.804510269531235,
          "velocity": 0.48031496062992124
        },
        {
          "duration": 0.1740161992187481,
          "durationTicks": 504,
          "midi": 71,
          "name": "B4",
          "ticks": 175116,
          "time": 59.804510269531235,
          "velocity": 0.5905511811023622
        },
        {
          "duration": 0.16363891796874697,
          "durationTicks": 474,
          "midi": 37,
          "name": "C#2",
          "ticks": 175116,
          "time": 59.804510269531235,
          "velocity": 0.5118110236220472
        },
        {
          "duration": 0.18629726367187516,
          "durationTicks": 537,
          "midi": 62,
          "name": "D4",
          "ticks": 175621,
          "time": 59.978873210937486,
          "velocity": 0.3464566929133858
        },
        {
          "duration": 0.1757279628906261,
          "durationTicks": 506,
          "midi": 69,
          "name": "A4",
          "ticks": 175621,
          "time": 59.978873210937486,
          "velocity": 0.4566929133858268
        },
        {
          "duration": 0.16529317773437668,
          "durationTicks": 476,
          "midi": 38,
          "name": "D2",
          "ticks": 175621,
          "time": 59.978873210937486,
          "velocity": 0.5039370078740157
        },
        {
          "duration": 0.18432725878906098,
          "durationTicks": 541,
          "midi": 57,
          "name": "A3",
          "ticks": 176132,
          "time": 60.15631186328124,
          "velocity": 0.3858267716535433
        },
        {
          "duration": 0.18432725878906098,
          "durationTicks": 541,
          "midi": 64,
          "name": "E4",
          "ticks": 176132,
          "time": 60.15631186328124,
          "velocity": 0.49606299212598426
        },
        {
          "duration": 0.18432725878906098,
          "durationTicks": 541,
          "midi": 33,
          "name": "A1",
          "ticks": 176132,
          "time": 60.15631186328124,
          "velocity": 0.5433070866141733
        },
        {
          "duration": 0.17274292089843613,
          "durationTicks": 507,
          "midi": 57,
          "name": "A3",
          "ticks": 176674,
          "time": 60.340979837890615,
          "velocity": 0.3464566929133858
        },
        {
          "duration": 0.17274292089843613,
          "durationTicks": 507,
          "midi": 64,
          "name": "E4",
          "ticks": 176674,
          "time": 60.340979837890615,
          "velocity": 0.4566929133858268
        },
        {
          "duration": 0.1625214462890625,
          "durationTicks": 477,
          "midi": 33,
          "name": "A1",
          "ticks": 176674,
          "time": 60.340979837890615,
          "velocity": 0.5039370078740157
        },
        {
          "duration": 0.17172077343749947,
          "durationTicks": 504,
          "midi": 57,
          "name": "A3",
          "ticks": 177182,
          "time": 60.514063474609365,
          "velocity": 0.48031496062992124
        },
        {
          "duration": 0.17172077343749947,
          "durationTicks": 504,
          "midi": 66,
          "name": "F#4",
          "ticks": 177182,
          "time": 60.514063474609365,
          "velocity": 0.5905511811023622
        },
        {
          "duration": 0.17172077343749947,
          "durationTicks": 504,
          "midi": 37,
          "name": "C#2",
          "ticks": 177182,
          "time": 60.514063474609365,
          "velocity": 0.5118110236220472
        },
        {
          "duration": 0.1734243525390653,
          "durationTicks": 509,
          "midi": 57,
          "name": "A3",
          "ticks": 177687,
          "time": 60.68612496386717,
          "velocity": 0.3464566929133858
        },
        {
          "duration": 0.1734243525390653,
          "durationTicks": 509,
          "midi": 64,
          "name": "E4",
          "ticks": 177687,
          "time": 60.68612496386717,
          "velocity": 0.4566929133858268
        },
        {
          "duration": 0.16320287792969168,
          "durationTicks": 479,
          "midi": 37,
          "name": "C#2",
          "ticks": 177687,
          "time": 60.68612496386717,
          "velocity": 0.5039370078740157
        },
        {
          "duration": 0.1734243525390582,
          "durationTicks": 509,
          "midi": 57,
          "name": "A3",
          "ticks": 178197,
          "time": 60.85989003222655,
          "velocity": 0.3700787401574803
        },
        {
          "duration": 0.1734243525390582,
          "durationTicks": 509,
          "midi": 64,
          "name": "E4",
          "ticks": 178197,
          "time": 60.85989003222655,
          "velocity": 0.44881889763779526
        },
        {
          "duration": 0.1734243525390582,
          "durationTicks": 509,
          "midi": 40,
          "name": "E2",
          "ticks": 178197,
          "time": 60.85989003222655,
          "velocity": 0.5275590551181102
        },
        {
          "duration": 0.17172077343749947,
          "durationTicks": 504,
          "midi": 57,
          "name": "A3",
          "ticks": 178707,
          "time": 61.033655100585925,
          "velocity": 0.3464566929133858
        },
        {
          "duration": 0.17172077343749947,
          "durationTicks": 504,
          "midi": 64,
          "name": "E4",
          "ticks": 178707,
          "time": 61.033655100585925,
          "velocity": 0.4566929133858268
        },
        {
          "duration": 0.16149929882812586,
          "durationTicks": 474,
          "midi": 40,
          "name": "E2",
          "ticks": 178707,
          "time": 61.033655100585925,
          "velocity": 0.5039370078740157
        },
        {
          "duration": 0.17172077343749947,
          "durationTicks": 504,
          "midi": 57,
          "name": "A3",
          "ticks": 179212,
          "time": 61.20571658984374,
          "velocity": 0.48031496062992124
        },
        {
          "duration": 0.17172077343749947,
          "durationTicks": 504,
          "midi": 66,
          "name": "F#4",
          "ticks": 179212,
          "time": 61.20571658984374,
          "velocity": 0.5905511811023622
        },
        {
          "duration": 0.17172077343749947,
          "durationTicks": 504,
          "midi": 42,
          "name": "F#2",
          "ticks": 179212,
          "time": 61.20571658984374,
          "velocity": 0.5118110236220472
        },
        {
          "duration": 0.17240220507812154,
          "durationTicks": 506,
          "midi": 57,
          "name": "A3",
          "ticks": 179717,
          "time": 61.37777807910155,
          "velocity": 0.3464566929133858
        },
        {
          "duration": 0.17240220507812154,
          "durationTicks": 506,
          "midi": 64,
          "name": "E4",
          "ticks": 179717,
          "time": 61.37777807910155,
          "velocity": 0.4566929133858268
        },
        {
          "duration": 0.16218073046874792,
          "durationTicks": 476,
          "midi": 42,
          "name": "F#2",
          "ticks": 179717,
          "time": 61.37777807910155,
          "velocity": 0.5039370078740157
        },
        {
          "duration": 0.18432725878906098,
          "durationTicks": 541,
          "midi": 57,
          "name": "A3",
          "ticks": 180228,
          "time": 61.55188386328124,
          "velocity": 0.3858267716535433
        },
        {
          "duration": 0.18432725878906098,
          "durationTicks": 541,
          "midi": 64,
          "name": "E4",
          "ticks": 180228,
          "time": 61.55188386328124,
          "velocity": 0.4645669291338583
        },
        {
          "duration": 0.18432725878906098,
          "durationTicks": 541,
          "midi": 43,
          "name": "G2",
          "ticks": 180228,
          "time": 61.55188386328124,
          "velocity": 0.5433070866141733
        },
        {
          "duration": 0.17274292089843613,
          "durationTicks": 507,
          "midi": 57,
          "name": "A3",
          "ticks": 180770,
          "time": 61.736551837890616,
          "velocity": 0.3464566929133858
        },
        {
          "duration": 0.17274292089843613,
          "durationTicks": 507,
          "midi": 64,
          "name": "E4",
          "ticks": 180770,
          "time": 61.736551837890616,
          "velocity": 0.4566929133858268
        },
        {
          "duration": 0.1625214462890625,
          "durationTicks": 477,
          "midi": 43,
          "name": "G2",
          "ticks": 180770,
          "time": 61.736551837890616,
          "velocity": 0.5039370078740157
        },
        {
          "duration": 0.17172077343750658,
          "durationTicks": 504,
          "midi": 57,
          "name": "A3",
          "ticks": 181278,
          "time": 61.90963547460936,
          "velocity": 0.48031496062992124
        },
        {
          "duration": 0.17172077343750658,
          "durationTicks": 504,
          "midi": 66,
          "name": "F#4",
          "ticks": 181278,
          "time": 61.90963547460936,
          "velocity": 0.5905511811023622
        },
        {
          "duration": 0.17172077343750658,
          "durationTicks": 504,
          "midi": 42,
          "name": "F#2",
          "ticks": 181278,
          "time": 61.90963547460936,
          "velocity": 0.5118110236220472
        },
        {
          "duration": 0.1734243525390653,
          "durationTicks": 509,
          "midi": 57,
          "name": "A3",
          "ticks": 181783,
          "time": 62.081696963867174,
          "velocity": 0.3464566929133858
        },
        {
          "duration": 0.1734243525390653,
          "durationTicks": 509,
          "midi": 64,
          "name": "E4",
          "ticks": 181783,
          "time": 62.081696963867174,
          "velocity": 0.4566929133858268
        },
        {
          "duration": 0.16320287792969168,
          "durationTicks": 479,
          "midi": 42,
          "name": "F#2",
          "ticks": 181783,
          "time": 62.081696963867174,
          "velocity": 0.5039370078740157
        },
        {
          "duration": 0.1734243525390582,
          "durationTicks": 509,
          "midi": 57,
          "name": "A3",
          "ticks": 182293,
          "time": 62.25546203222655,
          "velocity": 0.49606299212598426
        },
        {
          "duration": 0.1734243525390582,
          "durationTicks": 509,
          "midi": 67,
          "name": "G4",
          "ticks": 182293,
          "time": 62.25546203222655,
          "velocity": 0.6062992125984252
        },
        {
          "duration": 0.1734243525390582,
          "durationTicks": 509,
          "midi": 40,
          "name": "E2",
          "ticks": 182293,
          "time": 62.25546203222655,
          "velocity": 0.5275590551181102
        },
        {
          "duration": 0.17172077343749947,
          "durationTicks": 504,
          "midi": 57,
          "name": "A3",
          "ticks": 182803,
          "time": 62.429227100585926,
          "velocity": 0.3464566929133858
        },
        {
          "duration": 0.17172077343749947,
          "durationTicks": 504,
          "midi": 64,
          "name": "E4",
          "ticks": 182803,
          "time": 62.429227100585926,
          "velocity": 0.4566929133858268
        },
        {
          "duration": 0.16149929882812586,
          "durationTicks": 474,
          "midi": 40,
          "name": "E2",
          "ticks": 182803,
          "time": 62.429227100585926,
          "velocity": 0.5039370078740157
        },
        {
          "duration": 0.17172077343749947,
          "durationTicks": 504,
          "midi": 57,
          "name": "A3",
          "ticks": 183308,
          "time": 62.60128858984374,
          "velocity": 0.48031496062992124
        },
        {
          "duration": 0.17172077343749947,
          "durationTicks": 504,
          "midi": 66,
          "name": "F#4",
          "ticks": 183308,
          "time": 62.60128858984374,
          "velocity": 0.5905511811023622
        },
        {
          "duration": 0.17172077343749947,
          "durationTicks": 504,
          "midi": 37,
          "name": "C#2",
          "ticks": 183308,
          "time": 62.60128858984374,
          "velocity": 0.5118110236220472
        },
        {
          "duration": 0.18296439550781685,
          "durationTicks": 537,
          "midi": 57,
          "name": "A3",
          "ticks": 183813,
          "time": 62.77335007910155,
          "velocity": 0.3464566929133858
        },
        {
          "duration": 0.17240220507812865,
          "durationTicks": 506,
          "midi": 64,
          "name": "E4",
          "ticks": 183813,
          "time": 62.77335007910155,
          "velocity": 0.4566929133858268
        },
        {
          "duration": 0.16218073046875503,
          "durationTicks": 476,
          "midi": 37,
          "name": "C#2",
          "ticks": 183813,
          "time": 62.77335007910155,
          "velocity": 0.5039370078740157
        },
        {
          "duration": 0.18432725878906808,
          "durationTicks": 541,
          "midi": 64,
          "name": "E4",
          "ticks": 184324,
          "time": 62.947455863281235,
          "velocity": 0.3858267716535433
        },
        {
          "duration": 0.18432725878906808,
          "durationTicks": 541,
          "midi": 71,
          "name": "B4",
          "ticks": 184324,
          "time": 62.947455863281235,
          "velocity": 0.49606299212598426
        },
        {
          "duration": 0.18432725878906808,
          "durationTicks": 541,
          "midi": 40,
          "name": "E2",
          "ticks": 184324,
          "time": 62.947455863281235,
          "velocity": 0.5433070866141733
        },
        {
          "duration": 0.17274292089844323,
          "durationTicks": 507,
          "midi": 64,
          "name": "E4",
          "ticks": 184866,
          "time": 63.13212383789061,
          "velocity": 0.3464566929133858
        },
        {
          "duration": 0.17274292089844323,
          "durationTicks": 507,
          "midi": 71,
          "name": "B4",
          "ticks": 184866,
          "time": 63.13212383789061,
          "velocity": 0.4566929133858268
        },
        {
          "duration": 0.1625214462890625,
          "durationTicks": 477,
          "midi": 40,
          "name": "E2",
          "ticks": 184866,
          "time": 63.13212383789061,
          "velocity": 0.5039370078740157
        },
        {
          "duration": 0.17172077343749947,
          "durationTicks": 504,
          "midi": 64,
          "name": "E4",
          "ticks": 185374,
          "time": 63.30520747460936,
          "velocity": 0.48031496062992124
        },
        {
          "duration": 0.17172077343749947,
          "durationTicks": 504,
          "midi": 73,
          "name": "C#5",
          "ticks": 185374,
          "time": 63.30520747460936,
          "velocity": 0.5905511811023622
        },
        {
          "duration": 0.17172077343749947,
          "durationTicks": 504,
          "midi": 44,
          "name": "G#2",
          "ticks": 185374,
          "time": 63.30520747460936,
          "velocity": 0.5118110236220472
        },
        {
          "duration": 0.1734243525390653,
          "durationTicks": 509,
          "midi": 64,
          "name": "E4",
          "ticks": 185879,
          "time": 63.477268963867175,
          "velocity": 0.3464566929133858
        },
        {
          "duration": 0.1734243525390653,
          "durationTicks": 509,
          "midi": 71,
          "name": "B4",
          "ticks": 185879,
          "time": 63.477268963867175,
          "velocity": 0.4566929133858268
        },
        {
          "duration": 0.16320287792968458,
          "durationTicks": 479,
          "midi": 44,
          "name": "G#2",
          "ticks": 185879,
          "time": 63.477268963867175,
          "velocity": 0.5039370078740157
        },
        {
          "duration": 0.1734243525390653,
          "durationTicks": 509,
          "midi": 64,
          "name": "E4",
          "ticks": 186389,
          "time": 63.65103403222655,
          "velocity": 0.3700787401574803
        },
        {
          "duration": 0.1734243525390653,
          "durationTicks": 509,
          "midi": 71,
          "name": "B4",
          "ticks": 186389,
          "time": 63.65103403222655,
          "velocity": 0.44881889763779526
        },
        {
          "duration": 0.1734243525390653,
          "durationTicks": 509,
          "midi": 45,
          "name": "A2",
          "ticks": 186389,
          "time": 63.65103403222655,
          "velocity": 0.5275590551181102
        },
        {
          "duration": 0.17172077343749947,
          "durationTicks": 504,
          "midi": 64,
          "name": "E4",
          "ticks": 186899,
          "time": 63.82479910058593,
          "velocity": 0.3464566929133858
        },
        {
          "duration": 0.17172077343749947,
          "durationTicks": 504,
          "midi": 71,
          "name": "B4",
          "ticks": 186899,
          "time": 63.82479910058593,
          "velocity": 0.4566929133858268
        },
        {
          "duration": 0.16149929882812586,
          "durationTicks": 474,
          "midi": 45,
          "name": "A2",
          "ticks": 186899,
          "time": 63.82479910058593,
          "velocity": 0.5039370078740157
        },
        {
          "duration": 0.17172077343749947,
          "durationTicks": 504,
          "midi": 64,
          "name": "E4",
          "ticks": 187404,
          "time": 63.996860589843735,
          "velocity": 0.48031496062992124
        },
        {
          "duration": 0.17172077343749947,
          "durationTicks": 504,
          "midi": 73,
          "name": "C#5",
          "ticks": 187404,
          "time": 63.996860589843735,
          "velocity": 0.5905511811023622
        },
        {
          "duration": 0.16149929882813296,
          "durationTicks": 474,
          "midi": 46,
          "name": "A#2",
          "ticks": 187404,
          "time": 63.996860589843735,
          "velocity": 0.5118110236220472
        },
        {
          "duration": 0.18296439550780974,
          "durationTicks": 537,
          "midi": 64,
          "name": "E4",
          "ticks": 187909,
          "time": 64.16892207910155,
          "velocity": 0.3464566929133858
        },
        {
          "duration": 0.17240220507812865,
          "durationTicks": 506,
          "midi": 71,
          "name": "B4",
          "ticks": 187909,
          "time": 64.16892207910155,
          "velocity": 0.4566929133858268
        },
        {
          "duration": 0.16218073046874792,
          "durationTicks": 476,
          "midi": 47,
          "name": "B2",
          "ticks": 187909,
          "time": 64.16892207910155,
          "velocity": 0.5039370078740157
        },
        {
          "duration": 0.18432725878906808,
          "durationTicks": 541,
          "midi": 62,
          "name": "D4",
          "ticks": 188420,
          "time": 64.34302786328124,
          "velocity": 0.3858267716535433
        },
        {
          "duration": 0.18432725878906808,
          "durationTicks": 541,
          "midi": 69,
          "name": "A4",
          "ticks": 188420,
          "time": 64.34302786328124,
          "velocity": 0.49606299212598426
        },
        {
          "duration": 0.18432725878906808,
          "durationTicks": 541,
          "midi": 38,
          "name": "D2",
          "ticks": 188420,
          "time": 64.34302786328124,
          "velocity": 0.5433070866141733
        },
        {
          "duration": 0.17274292089842902,
          "durationTicks": 507,
          "midi": 62,
          "name": "D4",
          "ticks": 188962,
          "time": 64.52769583789062,
          "velocity": 0.3464566929133858
        },
        {
          "duration": 0.17274292089842902,
          "durationTicks": 507,
          "midi": 69,
          "name": "A4",
          "ticks": 188962,
          "time": 64.52769583789062,
          "velocity": 0.4566929133858268
        },
        {
          "duration": 0.1625214462890625,
          "durationTicks": 477,
          "midi": 38,
          "name": "D2",
          "ticks": 188962,
          "time": 64.52769583789062,
          "velocity": 0.5039370078740157
        },
        {
          "duration": 0.17172077343749947,
          "durationTicks": 504,
          "midi": 62,
          "name": "D4",
          "ticks": 189470,
          "time": 64.70077947460936,
          "velocity": 0.48031496062992124
        },
        {
          "duration": 0.17172077343749947,
          "durationTicks": 504,
          "midi": 71,
          "name": "B4",
          "ticks": 189470,
          "time": 64.70077947460936,
          "velocity": 0.5905511811023622
        },
        {
          "duration": 0.17172077343749947,
          "durationTicks": 504,
          "midi": 42,
          "name": "F#2",
          "ticks": 189470,
          "time": 64.70077947460936,
          "velocity": 0.5118110236220472
        },
        {
          "duration": 0.1734243525390582,
          "durationTicks": 509,
          "midi": 62,
          "name": "D4",
          "ticks": 189975,
          "time": 64.87284096386718,
          "velocity": 0.3464566929133858
        },
        {
          "duration": 0.1734243525390582,
          "durationTicks": 509,
          "midi": 69,
          "name": "A4",
          "ticks": 189975,
          "time": 64.87284096386718,
          "velocity": 0.4566929133858268
        },
        {
          "duration": 0.16320287792969168,
          "durationTicks": 479,
          "midi": 42,
          "name": "F#2",
          "ticks": 189975,
          "time": 64.87284096386718,
          "velocity": 0.5039370078740157
        },
        {
          "duration": 0.1734243525390582,
          "durationTicks": 509,
          "midi": 62,
          "name": "D4",
          "ticks": 190485,
          "time": 65.04660603222655,
          "velocity": 0.3700787401574803
        },
        {
          "duration": 0.1734243525390582,
          "durationTicks": 509,
          "midi": 69,
          "name": "A4",
          "ticks": 190485,
          "time": 65.04660603222655,
          "velocity": 0.44881889763779526
        },
        {
          "duration": 0.1734243525390582,
          "durationTicks": 509,
          "midi": 43,
          "name": "G2",
          "ticks": 190485,
          "time": 65.04660603222655,
          "velocity": 0.5275590551181102
        },
        {
          "duration": 0.17172077343749947,
          "durationTicks": 504,
          "midi": 62,
          "name": "D4",
          "ticks": 190995,
          "time": 65.22037110058592,
          "velocity": 0.3464566929133858
        },
        {
          "duration": 0.17172077343749947,
          "durationTicks": 504,
          "midi": 69,
          "name": "A4",
          "ticks": 190995,
          "time": 65.22037110058592,
          "velocity": 0.4566929133858268
        },
        {
          "duration": 0.16149929882813296,
          "durationTicks": 474,
          "midi": 43,
          "name": "G2",
          "ticks": 190995,
          "time": 65.22037110058592,
          "velocity": 0.5039370078740157
        },
        {
          "duration": 0.17172077343749947,
          "durationTicks": 504,
          "midi": 62,
          "name": "D4",
          "ticks": 191500,
          "time": 65.39243258984374,
          "velocity": 0.48031496062992124
        },
        {
          "duration": 0.17172077343749947,
          "durationTicks": 504,
          "midi": 71,
          "name": "B4",
          "ticks": 191500,
          "time": 65.39243258984374,
          "velocity": 0.5905511811023622
        },
        {
          "duration": 0.17172077343749947,
          "durationTicks": 504,
          "midi": 44,
          "name": "G#2",
          "ticks": 191500,
          "time": 65.39243258984374,
          "velocity": 0.5118110236220472
        },
        {
          "duration": 0.18296439550780974,
          "durationTicks": 537,
          "midi": 62,
          "name": "D4",
          "ticks": 192005,
          "time": 65.56449407910155,
          "velocity": 0.3464566929133858
        },
        {
          "duration": 0.17240220507812865,
          "durationTicks": 506,
          "midi": 69,
          "name": "A4",
          "ticks": 192005,
          "time": 65.56449407910155,
          "velocity": 0.4566929133858268
        },
        {
          "duration": 0.16218073046874792,
          "durationTicks": 476,
          "midi": 44,
          "name": "G#2",
          "ticks": 192005,
          "time": 65.56449407910155,
          "velocity": 0.5039370078740157
        },
        {
          "duration": 0.18432725878906808,
          "durationTicks": 541,
          "midi": 57,
          "name": "A3",
          "ticks": 192516,
          "time": 65.73859986328124,
          "velocity": 0.3858267716535433
        },
        {
          "duration": 0.18432725878906808,
          "durationTicks": 541,
          "midi": 64,
          "name": "E4",
          "ticks": 192516,
          "time": 65.73859986328124,
          "velocity": 0.49606299212598426
        },
        {
          "duration": 0.18432725878906808,
          "durationTicks": 541,
          "midi": 45,
          "name": "A2",
          "ticks": 192516,
          "time": 65.73859986328124,
          "velocity": 0.5433070866141733
        },
        {
          "duration": 0.1625214462890483,
          "durationTicks": 477,
          "midi": 57,
          "name": "A3",
          "ticks": 193058,
          "time": 65.92326783789062,
          "velocity": 0.3464566929133858
        },
        {
          "duration": 0.17274292089842902,
          "durationTicks": 507,
          "midi": 64,
          "name": "E4",
          "ticks": 193058,
          "time": 65.92326783789062,
          "velocity": 0.4566929133858268
        },
        {
          "duration": 0.17274292089842902,
          "durationTicks": 507,
          "midi": 45,
          "name": "A2",
          "ticks": 193058,
          "time": 65.92326783789062,
          "velocity": 0.5039370078740157
        },
        {
          "duration": 0.17172077343749947,
          "durationTicks": 504,
          "midi": 57,
          "name": "A3",
          "ticks": 193566,
          "time": 66.09635147460936,
          "velocity": 0.48031496062992124
        },
        {
          "duration": 0.17172077343749947,
          "durationTicks": 504,
          "midi": 66,
          "name": "F#4",
          "ticks": 193566,
          "time": 66.09635147460936,
          "velocity": 0.5905511811023622
        },
        {
          "duration": 0.17172077343749947,
          "durationTicks": 504,
          "midi": 43,
          "name": "G2",
          "ticks": 193566,
          "time": 66.09635147460936,
          "velocity": 0.5118110236220472
        },
        {
          "duration": 0.1734243525390582,
          "durationTicks": 509,
          "midi": 57,
          "name": "A3",
          "ticks": 194071,
          "time": 66.26841296386718,
          "velocity": 0.3464566929133858
        },
        {
          "duration": 0.1734243525390582,
          "durationTicks": 509,
          "midi": 64,
          "name": "E4",
          "ticks": 194071,
          "time": 66.26841296386718,
          "velocity": 0.4566929133858268
        },
        {
          "duration": 0.16320287792969168,
          "durationTicks": 479,
          "midi": 43,
          "name": "G2",
          "ticks": 194071,
          "time": 66.26841296386718,
          "velocity": 0.5039370078740157
        },
        {
          "duration": 0.1734243525390582,
          "durationTicks": 509,
          "midi": 57,
          "name": "A3",
          "ticks": 194581,
          "time": 66.44217803222655,
          "velocity": 0.3700787401574803
        },
        {
          "duration": 0.1734243525390582,
          "durationTicks": 509,
          "midi": 64,
          "name": "E4",
          "ticks": 194581,
          "time": 66.44217803222655,
          "velocity": 0.44881889763779526
        },
        {
          "duration": 0.1734243525390582,
          "durationTicks": 509,
          "midi": 42,
          "name": "F#2",
          "ticks": 194581,
          "time": 66.44217803222655,
          "velocity": 0.5275590551181102
        },
        {
          "duration": 0.17172077343749947,
          "durationTicks": 504,
          "midi": 57,
          "name": "A3",
          "ticks": 195091,
          "time": 66.61594310058592,
          "velocity": 0.3464566929133858
        },
        {
          "duration": 0.17172077343749947,
          "durationTicks": 504,
          "midi": 64,
          "name": "E4",
          "ticks": 195091,
          "time": 66.61594310058592,
          "velocity": 0.4566929133858268
        },
        {
          "duration": 0.16149929882813296,
          "durationTicks": 474,
          "midi": 42,
          "name": "F#2",
          "ticks": 195091,
          "time": 66.61594310058592,
          "velocity": 0.5039370078740157
        },
        {
          "duration": 0.17172077343749947,
          "durationTicks": 504,
          "midi": 57,
          "name": "A3",
          "ticks": 195596,
          "time": 66.78800458984374,
          "velocity": 0.48031496062992124
        },
        {
          "duration": 0.17172077343749947,
          "durationTicks": 504,
          "midi": 66,
          "name": "F#4",
          "ticks": 195596,
          "time": 66.78800458984374,
          "velocity": 0.5905511811023622
        },
        {
          "duration": 0.17172077343749947,
          "durationTicks": 504,
          "midi": 41,
          "name": "F2",
          "ticks": 195596,
          "time": 66.78800458984374,
          "velocity": 0.5118110236220472
        },
        {
          "duration": 0.18296439550780974,
          "durationTicks": 537,
          "midi": 57,
          "name": "A3",
          "ticks": 196101,
          "time": 66.96006607910155,
          "velocity": 0.3464566929133858
        },
        {
          "duration": 0.17240220507812865,
          "durationTicks": 506,
          "midi": 64,
          "name": "E4",
          "ticks": 196101,
          "time": 66.96006607910155,
          "velocity": 0.4566929133858268
        },
        {
          "duration": 0.16218073046874792,
          "durationTicks": 476,
          "midi": 41,
          "name": "F2",
          "ticks": 196101,
          "time": 66.96006607910155,
          "velocity": 0.5039370078740157
        },
        {
          "duration": 0.17274292089844323,
          "durationTicks": 507,
          "midi": 64,
          "name": "E4",
          "ticks": 197154,
          "time": 67.31883983789061,
          "velocity": 0.47244094488188976
        },
        {
          "duration": 0.17274292089844323,
          "durationTicks": 507,
          "midi": 71,
          "name": "B4",
          "ticks": 197154,
          "time": 67.31883983789061,
          "velocity": 0.5826771653543307
        },
        {
          "duration": 0.17274292089844323,
          "durationTicks": 507,
          "midi": 40,
          "name": "E2",
          "ticks": 197154,
          "time": 67.31883983789061,
          "velocity": 0.6299212598425197
        },
        {
          "duration": 0.17172077343749947,
          "durationTicks": 504,
          "midi": 64,
          "name": "E4",
          "ticks": 197662,
          "time": 67.49192347460937,
          "velocity": 0.48031496062992124
        },
        {
          "duration": 0.17172077343749947,
          "durationTicks": 504,
          "midi": 71,
          "name": "B4",
          "ticks": 197662,
          "time": 67.49192347460937,
          "velocity": 0.5590551181102362
        },
        {
          "duration": 0.17172077343749947,
          "durationTicks": 504,
          "midi": 40,
          "name": "E2",
          "ticks": 197662,
          "time": 67.49192347460937,
          "velocity": 0.6377952755905512
        },
        {
          "duration": 0.1734243525390582,
          "durationTicks": 509,
          "midi": 64,
          "name": "E4",
          "ticks": 198167,
          "time": 67.66398496386718,
          "velocity": 0.47244094488188976
        },
        {
          "duration": 0.1734243525390582,
          "durationTicks": 509,
          "midi": 71,
          "name": "B4",
          "ticks": 198167,
          "time": 67.66398496386718,
          "velocity": 0.5511811023622047
        },
        {
          "duration": 0.1734243525390582,
          "durationTicks": 509,
          "midi": 40,
          "name": "E2",
          "ticks": 198167,
          "time": 67.66398496386718,
          "velocity": 0.6299212598425197
        },
        {
          "duration": 0.1839865429687535,
          "durationTicks": 540,
          "midi": 64,
          "name": "E4",
          "ticks": 198677,
          "time": 67.83775003222655,
          "velocity": 0.5748031496062992
        },
        {
          "duration": 0.1734243525390582,
          "durationTicks": 509,
          "midi": 71,
          "name": "B4",
          "ticks": 198677,
          "time": 67.83775003222655,
          "velocity": 0.6535433070866141
        },
        {
          "duration": 0.16320287792969168,
          "durationTicks": 479,
          "midi": 40,
          "name": "E2",
          "ticks": 198677,
          "time": 67.83775003222655,
          "velocity": 0.7322834645669292
        },
        {
          "duration": 0.18228296386719478,
          "durationTicks": 535,
          "midi": 72,
          "name": "C5",
          "ticks": 199187,
          "time": 68.01151510058592,
          "velocity": 0.4094488188976378
        },
        {
          "duration": 0.18228296386718057,
          "durationTicks": 535,
          "midi": 73,
          "name": "C#5",
          "ticks": 199692,
          "time": 68.18357658984374,
          "velocity": 0.41732283464566927
        },
        {
          "duration": 0.18296439550780974,
          "durationTicks": 537,
          "midi": 76,
          "name": "E5",
          "ticks": 200197,
          "time": 68.35563807910155,
          "velocity": 0.4094488188976378
        }
      ],
      "endOfTrackTicks": 200735
    }
  ]
}
