{
  "header": {
    "keySignatures": [
      {
        "key": "G",
        "scale": "major",
        "ticks": 0
      }
    ],
    "meta": [],
    "name": "",
    "ppq": 1024,
    "tempos": [
      {
        "bpm": 78.0003822018728,
        "ticks": 0
      },
      {
        "bpm": 77.98791187365958,
        "ticks": 0
      },
      {
        "bpm": 78.0003822018728,
        "ticks": 0
      },
      {
        "bpm": 77.98791187365958,
        "ticks": 0
      },
      {
        "bpm": 77.98791187365958,
        "ticks": 2048
      },
      {
        "bpm": 77.46043385589003,
        "ticks": 2304
      },
      {
        "bpm": 76.99187607387627,
        "ticks": 2560
      },
      {
        "bpm": 76.46438862260874,
        "ticks": 2816
      },
      {
        "bpm": 75.99592661833326,
        "ticks": 3072
      },
      {
        "bpm": 75.4683756061054,
        "ticks": 3328
      },
      {
        "bpm": 74.99990625011719,
        "ticks": 3584
      },
      {
        "bpm": 74.47245574164016,
        "ticks": 3840
      },
      {
        "bpm": 77.98791187365958,
        "ticks": 4352
      },
      {
        "bpm": 77.98791187365958,
        "ticks": 10240
      },
      {
        "bpm": 77.46043385589003,
        "ticks": 10496
      },
      {
        "bpm": 76.99187607387627,
        "ticks": 10752
      },
      {
        "bpm": 76.46438862260874,
        "ticks": 11008
      },
      {
        "bpm": 75.99592661833326,
        "ticks": 11264
      },
      {
        "bpm": 75.4683756061054,
        "ticks": 11520
      },
      {
        "bpm": 74.99990625011719,
        "ticks": 11776
      },
      {
        "bpm": 74.47245574164016,
        "ticks": 12032
      },
      {
        "bpm": 77.98791187365958,
        "ticks": 12544
      },
      {
        "bpm": 77.98791187365958,
        "ticks": 18432
      },
      {
        "bpm": 77.46043385589003,
        "ticks": 18688
      },
      {
        "bpm": 76.99187607387627,
        "ticks": 18944
      },
      {
        "bpm": 76.46438862260874,
        "ticks": 19200
      },
      {
        "bpm": 75.99592661833326,
        "ticks": 19456
      },
      {
        "bpm": 75.4683756061054,
        "ticks": 19712
      },
      {
        "bpm": 74.99990625011719,
        "ticks": 19968
      },
      {
        "bpm": 74.47245574164016,
        "ticks": 20224
      },
      {
        "bpm": 77.98791187365958,
        "ticks": 20736
      },
      {
        "bpm": 77.98791187365958,
        "ticks": 32767
      },
      {
        "bpm": 78.0003822018728,
        "ticks": 32768
      },
      {
        "bpm": 77.98791187365958,
        "ticks": 32768
      },
      {
        "bpm": 77.98791187365958,
        "ticks": 34816
      },
      {
        "bpm": 77.46043385589003,
        "ticks": 35072
      },
      {
        "bpm": 76.99187607387627,
        "ticks": 35328
      },
      {
        "bpm": 76.46438862260874,
        "ticks": 35584
      },
      {
        "bpm": 75.99592661833326,
        "ticks": 35840
      },
      {
        "bpm": 75.4683756061054,
        "ticks": 36096
      },
      {
        "bpm": 74.99990625011719,
        "ticks": 36352
      },
      {
        "bpm": 74.47245574164016,
        "ticks": 36608
      },
      {
        "bpm": 77.98791187365958,
        "ticks": 37120
      },
      {
        "bpm": 77.98791187365958,
        "ticks": 43008
      },
      {
        "bpm": 77.46043385589003,
        "ticks": 43264
      },
      {
        "bpm": 76.99187607387627,
        "ticks": 43520
      },
      {
        "bpm": 76.46438862260874,
        "ticks": 43776
      },
      {
        "bpm": 75.99592661833326,
        "ticks": 44032
      },
      {
        "bpm": 75.4683756061054,
        "ticks": 44288
      },
      {
        "bpm": 74.99990625011719,
        "ticks": 44544
      },
      {
        "bpm": 74.47245574164016,
        "ticks": 44800
      },
      {
        "bpm": 77.98791187365958,
        "ticks": 45312
      },
      {
        "bpm": 77.98791187365958,
        "ticks": 51200
      },
      {
        "bpm": 77.46043385589003,
        "ticks": 51456
      },
      {
        "bpm": 76.99187607387627,
        "ticks": 51712
      },
      {
        "bpm": 76.46438862260874,
        "ticks": 51968
      },
      {
        "bpm": 75.99592661833326,
        "ticks": 52224
      },
      {
        "bpm": 75.4683756061054,
        "ticks": 52480
      },
      {
        "bpm": 74.99990625011719,
        "ticks": 52736
      },
      {
        "bpm": 74.47245574164016,
        "ticks": 52992
      },
      {
        "bpm": 77.98791187365958,
        "ticks": 53504
      }
    ],
    "timeSignatures": [
      {
        "ticks": 0,
        "timeSignature": [
          4,
          4
        ],
        "measures": 0
      }
    ]
  },
  "tracks": [
    {
      "channel": 0,
      "controlChanges": {
        "7": [
          {
            "number": 7,
            "ticks": 0,
            "time": 0,
            "value": 0.7952755905511811
          },
          {
            "number": 7,
            "ticks": 0,
            "time": 0,
            "value": 0.8031496062992126
          },
          {
            "number": 7,
            "ticks": 0,
            "time": 0,
            "value": 0.8661417322834646
          },
          {
            "number": 7,
            "ticks": 10,
            "time": 0.00751318359375,
            "value": 0.8031496062992126
          },
          {
            "number": 7,
            "ticks": 10,
            "time": 0.00751318359375,
            "value": 0.8661417322834646
          },
          {
            "number": 7,
            "ticks": 32768,
            "time": 24.753942749999997,
            "value": 0.8031496062992126
          },
          {
            "number": 7,
            "ticks": 32768,
            "time": 24.753942749999997,
            "value": 0.8661417322834646
          },
          {
            "number": 7,
            "ticks": 32778,
            "time": 24.761455933593748,
            "value": 0.8031496062992126
          },
          {
            "number": 7,
            "ticks": 32778,
            "time": 24.761455933593748,
            "value": 0.8661417322834646
          }
        ],
        "10": [
          {
            "number": 10,
            "ticks": 0,
            "time": 0,
            "value": 0.5039370078740157
          }
        ]
      },
      "pitchBends": [],
      "instrument": {
        "family": "piano",
        "number": 0,
        "name": "acoustic grand piano"
      },
      "name": "SmartMusic SoftSynth",
      "notes": [
        {
          "duration": 0.379415771484375,
          "durationTicks": 505,
          "midi": 67,
          "name": "G4",
          "ticks": 10,
          "time": 0.00751318359375,
          "velocity": 0.5433070866141733
        },
        {
          "duration": 3.104935032226563,
          "durationTicks": 4085,
          "midi": 55,
          "name": "G3",
          "ticks": 10,
          "time": 0.00751318359375,
          "velocity": 0.4409448818897638
        },
        {
          "duration": 3.104935032226563,
          "durationTicks": 4085,
          "midi": 59,
          "name": "B3",
          "ticks": 10,
          "time": 0.00751318359375,
          "velocity": 0.4409448818897638
        },
        {
          "duration": 3.104935032226563,
          "durationTicks": 4085,
          "midi": 62,
          "name": "D4",
          "ticks": 10,
          "time": 0.00751318359375,
          "velocity": 0.5511811023622047
        },
        {
          "duration": 0.358378857421875,
          "durationTicks": 477,
          "midi": 69,
          "name": "A4",
          "ticks": 546,
          "time": 0.41021982421875,
          "velocity": 0.5039370078740157
        },
        {
          "duration": 0.35612490234375005,
          "durationTicks": 474,
          "midi": 71,
          "name": "B4",
          "ticks": 1054,
          "time": 0.79188955078125,
          "velocity": 0.5118110236220472
        },
        {
          "duration": 0.359881494140625,
          "durationTicks": 479,
          "midi": 74,
          "name": "D5",
          "ticks": 1559,
          "time": 1.171305322265625,
          "velocity": 0.5039370078740157
        },
        {
          "duration": 0.3611298496093751,
          "durationTicks": 479,
          "midi": 69,
          "name": "A4",
          "ticks": 2069,
          "time": 1.554477685546875,
          "velocity": 0.5275590551181102
        },
        {
          "duration": 0.08904145605468727,
          "durationTicks": 117,
          "midi": 64,
          "name": "E4",
          "ticks": 2560,
          "time": 1.92468475,
          "velocity": 0.5039370078740157
        },
        {
          "duration": 0.3110865009765629,
          "durationTicks": 407,
          "midi": 71,
          "name": "B4",
          "ticks": 2665,
          "time": 2.0045937490234373,
          "velocity": 0.4645669291338583
        },
        {
          "duration": 0.3666991738281249,
          "durationTicks": 474,
          "midi": 69,
          "name": "A4",
          "ticks": 3084,
          "time": 2.3249323906250003,
          "velocity": 0.5118110236220472
        },
        {
          "duration": 0.37312043554687513,
          "durationTicks": 476,
          "midi": 74,
          "name": "D5",
          "ticks": 3589,
          "time": 2.715724254882813,
          "velocity": 0.5039370078740157
        },
        {
          "duration": 0.39286106835937495,
          "durationTicks": 511,
          "midi": 79,
          "name": "G5",
          "ticks": 4100,
          "time": 3.1163821367187503,
          "velocity": 0.5433070866141733
        },
        {
          "duration": 3.0825807949218755,
          "durationTicks": 4091,
          "midi": 55,
          "name": "G3",
          "ticks": 4100,
          "time": 3.1163821367187503,
          "velocity": 0.4409448818897638
        },
        {
          "duration": 3.0825807949218755,
          "durationTicks": 4091,
          "midi": 60,
          "name": "C4",
          "ticks": 4100,
          "time": 3.1163821367187503,
          "velocity": 0.4409448818897638
        },
        {
          "duration": 3.0600412441406255,
          "durationTicks": 4061,
          "midi": 66,
          "name": "F#4",
          "ticks": 4100,
          "time": 3.1163821367187503,
          "velocity": 0.5511811023622047
        },
        {
          "duration": 0.3583788574218749,
          "durationTicks": 477,
          "midi": 78,
          "name": "F#5",
          "ticks": 4642,
          "time": 3.5325340742187503,
          "velocity": 0.5039370078740157
        },
        {
          "duration": 0.3561249023437498,
          "durationTicks": 474,
          "midi": 74,
          "name": "D5",
          "ticks": 5150,
          "time": 3.9142038007812503,
          "velocity": 0.5118110236220472
        },
        {
          "duration": 0.359881494140625,
          "durationTicks": 479,
          "midi": 71,
          "name": "B4",
          "ticks": 5655,
          "time": 4.293619572265626,
          "velocity": 0.5039370078740157
        },
        {
          "duration": 0.359881494140625,
          "durationTicks": 479,
          "midi": 74,
          "name": "D5",
          "ticks": 6165,
          "time": 4.676791935546875,
          "velocity": 0.5275590551181102
        },
        {
          "duration": 0.3561249023437494,
          "durationTicks": 474,
          "midi": 72,
          "name": "C5",
          "ticks": 6675,
          "time": 5.059964298828126,
          "velocity": 0.5039370078740157
        },
        {
          "duration": 0.3561249023437494,
          "durationTicks": 474,
          "midi": 64,
          "name": "E4",
          "ticks": 7180,
          "time": 5.439380070312501,
          "velocity": 0.5118110236220472
        },
        {
          "duration": 0.38016708984375036,
          "durationTicks": 506,
          "midi": 66,
          "name": "F#4",
          "ticks": 7685,
          "time": 5.8187958417968755,
          "velocity": 0.5039370078740157
        },
        {
          "duration": 0.38392368164062596,
          "durationTicks": 511,
          "midi": 67,
          "name": "G4",
          "ticks": 8196,
          "time": 6.2027195234375,
          "velocity": 0.5433070866141733
        },
        {
          "duration": 3.1094429423828114,
          "durationTicks": 4091,
          "midi": 55,
          "name": "G3",
          "ticks": 8196,
          "time": 6.2027195234375,
          "velocity": 0.4409448818897638
        },
        {
          "duration": 3.1094429423828114,
          "durationTicks": 4091,
          "midi": 59,
          "name": "B3",
          "ticks": 8196,
          "time": 6.2027195234375,
          "velocity": 0.4409448818897638
        },
        {
          "duration": 3.1094429423828114,
          "durationTicks": 4091,
          "midi": 62,
          "name": "D4",
          "ticks": 8196,
          "time": 6.2027195234375,
          "velocity": 0.5511811023622047
        },
        {
          "duration": 0.3583788574218749,
          "durationTicks": 477,
          "midi": 69,
          "name": "A4",
          "ticks": 8738,
          "time": 6.60993407421875,
          "velocity": 0.5039370078740157
        },
        {
          "duration": 0.3561249023437494,
          "durationTicks": 474,
          "midi": 71,
          "name": "B4",
          "ticks": 9246,
          "time": 6.991603800781251,
          "velocity": 0.5118110236220472
        },
        {
          "duration": 0.359881494140625,
          "durationTicks": 479,
          "midi": 74,
          "name": "D5",
          "ticks": 9751,
          "time": 7.3710195722656255,
          "velocity": 0.5039370078740157
        },
        {
          "duration": 0.361129849609374,
          "durationTicks": 479,
          "midi": 69,
          "name": "A4",
          "ticks": 10261,
          "time": 7.754191935546875,
          "velocity": 0.5275590551181102
        },
        {
          "duration": 0.08828041796875041,
          "durationTicks": 116,
          "midi": 64,
          "name": "E4",
          "ticks": 10752,
          "time": 8.124399,
          "velocity": 0.5039370078740157
        },
        {
          "duration": 0.31184753906249973,
          "durationTicks": 408,
          "midi": 71,
          "name": "B4",
          "ticks": 10856,
          "time": 8.2035469609375,
          "velocity": 0.4645669291338583
        },
        {
          "duration": 0.3666991738281258,
          "durationTicks": 474,
          "midi": 69,
          "name": "A4",
          "ticks": 11276,
          "time": 8.524646640624999,
          "velocity": 0.5118110236220472
        },
        {
          "duration": 0.37312043554687513,
          "durationTicks": 476,
          "midi": 74,
          "name": "D5",
          "ticks": 11781,
          "time": 8.915438504882811,
          "velocity": 0.5039370078740157
        },
        {
          "duration": 0.39286106835937495,
          "durationTicks": 511,
          "midi": 79,
          "name": "G5",
          "ticks": 12292,
          "time": 9.31609638671875,
          "velocity": 0.5433070866141733
        },
        {
          "duration": 3.082580794921874,
          "durationTicks": 4091,
          "midi": 55,
          "name": "G3",
          "ticks": 12292,
          "time": 9.31609638671875,
          "velocity": 0.4409448818897638
        },
        {
          "duration": 3.082580794921874,
          "durationTicks": 4091,
          "midi": 60,
          "name": "C4",
          "ticks": 12292,
          "time": 9.31609638671875,
          "velocity": 0.4409448818897638
        },
        {
          "duration": 3.082580794921874,
          "durationTicks": 4091,
          "midi": 66,
          "name": "F#4",
          "ticks": 12292,
          "time": 9.31609638671875,
          "velocity": 0.5511811023622047
        },
        {
          "duration": 0.35837885742187403,
          "durationTicks": 477,
          "midi": 78,
          "name": "F#5",
          "ticks": 12834,
          "time": 9.73224832421875,
          "velocity": 0.5039370078740157
        },
        {
          "duration": 0.3561249023437494,
          "durationTicks": 474,
          "midi": 74,
          "name": "D5",
          "ticks": 13342,
          "time": 10.11391805078125,
          "velocity": 0.5118110236220472
        },
        {
          "duration": 0.359881494140625,
          "durationTicks": 479,
          "midi": 81,
          "name": "A5",
          "ticks": 13847,
          "time": 10.493333822265624,
          "velocity": 0.5039370078740157
        },
        {
          "duration": 0.35988149414062676,
          "durationTicks": 479,
          "midi": 79,
          "name": "G5",
          "ticks": 14357,
          "time": 10.876506185546873,
          "velocity": 0.5275590551181102
        },
        {
          "duration": 0.35612490234375116,
          "durationTicks": 474,
          "midi": 78,
          "name": "F#5",
          "ticks": 14867,
          "time": 11.259678548828123,
          "velocity": 0.5039370078740157
        },
        {
          "duration": 0.3839236816406242,
          "durationTicks": 511,
          "midi": 67,
          "name": "G4",
          "ticks": 16388,
          "time": 12.4024337734375,
          "velocity": 0.5433070866141733
        },
        {
          "duration": 3.1094429423828096,
          "durationTicks": 4091,
          "midi": 55,
          "name": "G3",
          "ticks": 16388,
          "time": 12.4024337734375,
          "velocity": 0.4409448818897638
        },
        {
          "duration": 3.1094429423828096,
          "durationTicks": 4091,
          "midi": 59,
          "name": "B3",
          "ticks": 16388,
          "time": 12.4024337734375,
          "velocity": 0.4409448818897638
        },
        {
          "duration": 3.1094429423828096,
          "durationTicks": 4091,
          "midi": 62,
          "name": "D4",
          "ticks": 16388,
          "time": 12.4024337734375,
          "velocity": 0.5511811023622047
        },
        {
          "duration": 0.3583788574218758,
          "durationTicks": 477,
          "midi": 69,
          "name": "A4",
          "ticks": 16930,
          "time": 12.809648324218749,
          "velocity": 0.5039370078740157
        },
        {
          "duration": 0.35612490234375116,
          "durationTicks": 474,
          "midi": 71,
          "name": "B4",
          "ticks": 17438,
          "time": 13.191318050781248,
          "velocity": 0.5118110236220472
        },
        {
          "duration": 0.35988149414062676,
          "durationTicks": 479,
          "midi": 74,
          "name": "D5",
          "ticks": 17943,
          "time": 13.570733822265623,
          "velocity": 0.5039370078740157
        },
        {
          "duration": 0.36112984960937666,
          "durationTicks": 479,
          "midi": 69,
          "name": "A4",
          "ticks": 18453,
          "time": 13.953906185546872,
          "velocity": 0.5275590551181102
        },
        {
          "duration": 0.08980249414062413,
          "durationTicks": 118,
          "midi": 64,
          "name": "E4",
          "ticks": 18944,
          "time": 14.324113249999998,
          "velocity": 0.5039370078740157
        },
        {
          "duration": 0.31032546289062424,
          "durationTicks": 406,
          "midi": 71,
          "name": "B4",
          "ticks": 19050,
          "time": 14.404783287109373,
          "velocity": 0.4645669291338583
        },
        {
          "duration": 0.3666991738281258,
          "durationTicks": 474,
          "midi": 69,
          "name": "A4",
          "ticks": 19468,
          "time": 14.724360890624997,
          "velocity": 0.5118110236220472
        },
        {
          "duration": 0.37312043554687513,
          "durationTicks": 476,
          "midi": 74,
          "name": "D5",
          "ticks": 19973,
          "time": 15.115152754882809,
          "velocity": 0.5039370078740157
        },
        {
          "duration": 0.39286106835937495,
          "durationTicks": 511,
          "midi": 79,
          "name": "G5",
          "ticks": 20484,
          "time": 15.515810636718747,
          "velocity": 0.5433070866141733
        },
        {
          "duration": 3.082580794921874,
          "durationTicks": 4091,
          "midi": 55,
          "name": "G3",
          "ticks": 20484,
          "time": 15.515810636718747,
          "velocity": 0.4409448818897638
        },
        {
          "duration": 3.082580794921874,
          "durationTicks": 4091,
          "midi": 60,
          "name": "C4",
          "ticks": 20484,
          "time": 15.515810636718747,
          "velocity": 0.4409448818897638
        },
        {
          "duration": 3.060041244140624,
          "durationTicks": 4061,
          "midi": 66,
          "name": "F#4",
          "ticks": 20484,
          "time": 15.515810636718747,
          "velocity": 0.5511811023622047
        },
        {
          "duration": 0.3583788574218758,
          "durationTicks": 477,
          "midi": 78,
          "name": "F#5",
          "ticks": 21026,
          "time": 15.931962574218748,
          "velocity": 0.5039370078740157
        },
        {
          "duration": 0.35612490234375116,
          "durationTicks": 474,
          "midi": 74,
          "name": "D5",
          "ticks": 21534,
          "time": 16.313632300781247,
          "velocity": 0.5118110236220472
        },
        {
          "duration": 0.3598814941406232,
          "durationTicks": 479,
          "midi": 71,
          "name": "B4",
          "ticks": 22039,
          "time": 16.693048072265622,
          "velocity": 0.5039370078740157
        },
        {
          "duration": 0.3598814941406232,
          "durationTicks": 479,
          "midi": 74,
          "name": "D5",
          "ticks": 22549,
          "time": 17.076220435546873,
          "velocity": 0.5275590551181102
        },
        {
          "duration": 0.3561249023437476,
          "durationTicks": 474,
          "midi": 72,
          "name": "C5",
          "ticks": 23059,
          "time": 17.459392798828123,
          "velocity": 0.5039370078740157
        },
        {
          "duration": 0.3561249023437476,
          "durationTicks": 474,
          "midi": 64,
          "name": "E4",
          "ticks": 23564,
          "time": 17.838808570312498,
          "velocity": 0.5118110236220472
        },
        {
          "duration": 0.3801670898437486,
          "durationTicks": 506,
          "midi": 66,
          "name": "F#4",
          "ticks": 24069,
          "time": 18.218224341796873,
          "velocity": 0.5039370078740157
        },
        {
          "duration": 0.3839236816406242,
          "durationTicks": 511,
          "midi": 67,
          "name": "G4",
          "ticks": 24580,
          "time": 18.602148023437497,
          "velocity": 0.5433070866141733
        },
        {
          "duration": 3.073643408203125,
          "durationTicks": 4091,
          "midi": 55,
          "name": "G3",
          "ticks": 24580,
          "time": 18.602148023437497,
          "velocity": 0.4409448818897638
        },
        {
          "duration": 3.073643408203125,
          "durationTicks": 4091,
          "midi": 59,
          "name": "B3",
          "ticks": 24580,
          "time": 18.602148023437497,
          "velocity": 0.4409448818897638
        },
        {
          "duration": 3.073643408203125,
          "durationTicks": 4091,
          "midi": 62,
          "name": "D4",
          "ticks": 24580,
          "time": 18.602148023437497,
          "velocity": 0.5511811023622047
        },
        {
          "duration": 0.35837885742187225,
          "durationTicks": 477,
          "midi": 69,
          "name": "A4",
          "ticks": 25122,
          "time": 19.00936257421875,
          "velocity": 0.5039370078740157
        },
        {
          "duration": 0.3561249023437476,
          "durationTicks": 474,
          "midi": 71,
          "name": "B4",
          "ticks": 25630,
          "time": 19.391032300781248,
          "velocity": 0.5118110236220472
        },
        {
          "duration": 0.3598814941406232,
          "durationTicks": 479,
          "midi": 74,
          "name": "D5",
          "ticks": 26135,
          "time": 19.770448072265623,
          "velocity": 0.5039370078740157
        },
        {
          "duration": 0.35988149414062676,
          "durationTicks": 479,
          "midi": 69,
          "name": "A4",
          "ticks": 26645,
          "time": 20.15362043554687,
          "velocity": 0.5275590551181102
        },
        {
          "duration": 0.08865556640624916,
          "durationTicks": 118,
          "midi": 64,
          "name": "E4",
          "ticks": 27136,
          "time": 20.52251775,
          "velocity": 0.5039370078740157
        },
        {
          "duration": 0.30503525390625086,
          "durationTicks": 406,
          "midi": 71,
          "name": "B4",
          "ticks": 27242,
          "time": 20.602157496093746,
          "velocity": 0.4645669291338583
        },
        {
          "duration": 0.3561249023437476,
          "durationTicks": 474,
          "midi": 69,
          "name": "A4",
          "ticks": 27660,
          "time": 20.9162085703125,
          "velocity": 0.5118110236220472
        },
        {
          "duration": 0.35762753906249856,
          "durationTicks": 476,
          "midi": 74,
          "name": "D5",
          "ticks": 28165,
          "time": 21.295624341796874,
          "velocity": 0.5039370078740157
        },
        {
          "duration": 0.3839236816406242,
          "durationTicks": 511,
          "midi": 79,
          "name": "G5",
          "ticks": 28676,
          "time": 21.679548023437498,
          "velocity": 0.5433070866141733
        },
        {
          "duration": 3.073643408203125,
          "durationTicks": 4091,
          "midi": 55,
          "name": "G3",
          "ticks": 28676,
          "time": 21.679548023437498,
          "velocity": 0.4409448818897638
        },
        {
          "duration": 3.073643408203125,
          "durationTicks": 4091,
          "midi": 60,
          "name": "C4",
          "ticks": 28676,
          "time": 21.679548023437498,
          "velocity": 0.4409448818897638
        },
        {
          "duration": 3.073643408203125,
          "durationTicks": 4091,
          "midi": 66,
          "name": "F#4",
          "ticks": 28676,
          "time": 21.679548023437498,
          "velocity": 0.5511811023622047
        },
        {
          "duration": 0.3583788574218758,
          "durationTicks": 477,
          "midi": 78,
          "name": "F#5",
          "ticks": 29218,
          "time": 22.086762574218746,
          "velocity": 0.5039370078740157
        },
        {
          "duration": 0.35612490234375116,
          "durationTicks": 474,
          "midi": 79,
          "name": "G5",
          "ticks": 29726,
          "time": 22.468432300781245,
          "velocity": 0.5118110236220472
        },
        {
          "duration": 0.35988149414062676,
          "durationTicks": 479,
          "midi": 74,
          "name": "D5",
          "ticks": 30231,
          "time": 22.84784807226562,
          "velocity": 0.5039370078740157
        },
        {
          "duration": 1.138998632812502,
          "durationTicks": 1516,
          "midi": 67,
          "name": "G4",
          "ticks": 31251,
          "time": 23.61419279882812,
          "velocity": 0.5039370078740157
        },
        {
          "duration": 0.3794157714843749,
          "durationTicks": 505,
          "midi": 67,
          "name": "G4",
          "ticks": 32778,
          "time": 24.761455933593748,
          "velocity": 0.5433070866141733
        },
        {
          "duration": 3.1049350322265603,
          "durationTicks": 4085,
          "midi": 55,
          "name": "G3",
          "ticks": 32778,
          "time": 24.761455933593748,
          "velocity": 0.4409448818897638
        },
        {
          "duration": 3.1049350322265603,
          "durationTicks": 4085,
          "midi": 59,
          "name": "B3",
          "ticks": 32778,
          "time": 24.761455933593748,
          "velocity": 0.4409448818897638
        },
        {
          "duration": 3.1049350322265603,
          "durationTicks": 4085,
          "midi": 62,
          "name": "D4",
          "ticks": 32778,
          "time": 24.761455933593748,
          "velocity": 0.5511811023622047
        },
        {
          "duration": 0.3583788574218758,
          "durationTicks": 477,
          "midi": 69,
          "name": "A4",
          "ticks": 33314,
          "time": 25.164162574218746,
          "velocity": 0.5039370078740157
        },
        {
          "duration": 0.35612490234375116,
          "durationTicks": 474,
          "midi": 71,
          "name": "B4",
          "ticks": 33822,
          "time": 25.545832300781246,
          "velocity": 0.5118110236220472
        },
        {
          "duration": 0.35988149414062676,
          "durationTicks": 479,
          "midi": 74,
          "name": "D5",
          "ticks": 34327,
          "time": 25.92524807226562,
          "velocity": 0.5039370078740157
        },
        {
          "duration": 0.3611298496093731,
          "durationTicks": 479,
          "midi": 69,
          "name": "A4",
          "ticks": 34837,
          "time": 26.30842043554687,
          "velocity": 0.5275590551181102
        },
        {
          "duration": 0.08904145605468727,
          "durationTicks": 117,
          "midi": 64,
          "name": "E4",
          "ticks": 35328,
          "time": 26.678627499999997,
          "velocity": 0.5039370078740157
        },
        {
          "duration": 0.3110865009765611,
          "durationTicks": 407,
          "midi": 71,
          "name": "B4",
          "ticks": 35433,
          "time": 26.758536499023435,
          "velocity": 0.4645669291338583
        },
        {
          "duration": 0.366699173828124,
          "durationTicks": 474,
          "midi": 69,
          "name": "A4",
          "ticks": 35852,
          "time": 27.078875140624998,
          "velocity": 0.5118110236220472
        },
        {
          "duration": 0.37312043554687335,
          "durationTicks": 476,
          "midi": 74,
          "name": "D5",
          "ticks": 36357,
          "time": 27.46966700488281,
          "velocity": 0.5039370078740157
        },
        {
          "duration": 0.39286106835937673,
          "durationTicks": 511,
          "midi": 79,
          "name": "G5",
          "ticks": 36868,
          "time": 27.870324886718745,
          "velocity": 0.5433070866141733
        },
        {
          "duration": 3.0825807949218778,
          "durationTicks": 4091,
          "midi": 55,
          "name": "G3",
          "ticks": 36868,
          "time": 27.870324886718745,
          "velocity": 0.4409448818897638
        },
        {
          "duration": 3.0825807949218778,
          "durationTicks": 4091,
          "midi": 60,
          "name": "C4",
          "ticks": 36868,
          "time": 27.870324886718745,
          "velocity": 0.4409448818897638
        },
        {
          "duration": 3.0600412441406277,
          "durationTicks": 4061,
          "midi": 66,
          "name": "F#4",
          "ticks": 36868,
          "time": 27.870324886718745,
          "velocity": 0.5511811023622047
        },
        {
          "duration": 0.3583788574218758,
          "durationTicks": 477,
          "midi": 78,
          "name": "F#5",
          "ticks": 37410,
          "time": 28.286476824218745,
          "velocity": 0.5039370078740157
        },
        {
          "duration": 0.35612490234375116,
          "durationTicks": 474,
          "midi": 74,
          "name": "D5",
          "ticks": 37918,
          "time": 28.668146550781245,
          "velocity": 0.5118110236220472
        },
        {
          "duration": 0.35988149414062676,
          "durationTicks": 479,
          "midi": 71,
          "name": "B4",
          "ticks": 38423,
          "time": 29.04756232226562,
          "velocity": 0.5039370078740157
        },
        {
          "duration": 0.35988149414062676,
          "durationTicks": 479,
          "midi": 74,
          "name": "D5",
          "ticks": 38933,
          "time": 29.43073468554687,
          "velocity": 0.5275590551181102
        },
        {
          "duration": 0.35612490234375116,
          "durationTicks": 474,
          "midi": 72,
          "name": "C5",
          "ticks": 39443,
          "time": 29.81390704882812,
          "velocity": 0.5039370078740157
        },
        {
          "duration": 0.35612490234375116,
          "durationTicks": 474,
          "midi": 64,
          "name": "E4",
          "ticks": 39948,
          "time": 30.193322820312495,
          "velocity": 0.5118110236220472
        },
        {
          "duration": 0.38016708984375214,
          "durationTicks": 506,
          "midi": 66,
          "name": "F#4",
          "ticks": 40453,
          "time": 30.57273859179687,
          "velocity": 0.5039370078740157
        },
        {
          "duration": 0.38392368164062773,
          "durationTicks": 511,
          "midi": 67,
          "name": "G4",
          "ticks": 40964,
          "time": 30.956662273437495,
          "velocity": 0.5433070866141733
        },
        {
          "duration": 3.1094429423828203,
          "durationTicks": 4091,
          "midi": 55,
          "name": "G3",
          "ticks": 40964,
          "time": 30.956662273437495,
          "velocity": 0.4409448818897638
        },
        {
          "duration": 3.1094429423828203,
          "durationTicks": 4091,
          "midi": 59,
          "name": "B3",
          "ticks": 40964,
          "time": 30.956662273437495,
          "velocity": 0.4409448818897638
        },
        {
          "duration": 3.1094429423828203,
          "durationTicks": 4091,
          "midi": 62,
          "name": "D4",
          "ticks": 40964,
          "time": 30.956662273437495,
          "velocity": 0.5511811023622047
        },
        {
          "duration": 0.3583788574218758,
          "durationTicks": 477,
          "midi": 69,
          "name": "A4",
          "ticks": 41506,
          "time": 31.363876824218746,
          "velocity": 0.5039370078740157
        },
        {
          "duration": 0.3561249023437476,
          "durationTicks": 474,
          "midi": 71,
          "name": "B4",
          "ticks": 42014,
          "time": 31.745546550781246,
          "velocity": 0.5118110236220472
        },
        {
          "duration": 0.3598814941406232,
          "durationTicks": 479,
          "midi": 74,
          "name": "D5",
          "ticks": 42519,
          "time": 32.124962322265624,
          "velocity": 0.5039370078740157
        },
        {
          "duration": 0.36112984960937666,
          "durationTicks": 479,
          "midi": 69,
          "name": "A4",
          "ticks": 43029,
          "time": 32.50813468554687,
          "velocity": 0.5275590551181102
        },
        {
          "duration": 0.08828041796874686,
          "durationTicks": 116,
          "midi": 64,
          "name": "E4",
          "ticks": 43520,
          "time": 32.87834175,
          "velocity": 0.5039370078740157
        },
        {
          "duration": 0.31184753906250506,
          "durationTicks": 408,
          "midi": 71,
          "name": "B4",
          "ticks": 43624,
          "time": 32.957489710937494,
          "velocity": 0.4645669291338583
        },
        {
          "duration": 0.366699173828124,
          "durationTicks": 474,
          "midi": 69,
          "name": "A4",
          "ticks": 44044,
          "time": 33.278589390625,
          "velocity": 0.5118110236220472
        },
        {
          "duration": 0.37312043554687335,
          "durationTicks": 476,
          "midi": 74,
          "name": "D5",
          "ticks": 44549,
          "time": 33.669381254882815,
          "velocity": 0.5039370078740157
        },
        {
          "duration": 0.3928610683593732,
          "durationTicks": 511,
          "midi": 79,
          "name": "G5",
          "ticks": 45060,
          "time": 34.070039136718755,
          "velocity": 0.5433070866141733
        },
        {
          "duration": 3.082580794921874,
          "durationTicks": 4091,
          "midi": 55,
          "name": "G3",
          "ticks": 45060,
          "time": 34.070039136718755,
          "velocity": 0.4409448818897638
        },
        {
          "duration": 3.082580794921874,
          "durationTicks": 4091,
          "midi": 60,
          "name": "C4",
          "ticks": 45060,
          "time": 34.070039136718755,
          "velocity": 0.4409448818897638
        },
        {
          "duration": 3.082580794921874,
          "durationTicks": 4091,
          "midi": 66,
          "name": "F#4",
          "ticks": 45060,
          "time": 34.070039136718755,
          "velocity": 0.5511811023622047
        },
        {
          "duration": 0.3583788574218758,
          "durationTicks": 477,
          "midi": 78,
          "name": "F#5",
          "ticks": 45602,
          "time": 34.48619107421875,
          "velocity": 0.5039370078740157
        },
        {
          "duration": 0.35612490234375116,
          "durationTicks": 474,
          "midi": 74,
          "name": "D5",
          "ticks": 46110,
          "time": 34.86786080078125,
          "velocity": 0.5118110236220472
        },
        {
          "duration": 0.3598814941406232,
          "durationTicks": 479,
          "midi": 81,
          "name": "A5",
          "ticks": 46615,
          "time": 35.247276572265626,
          "velocity": 0.5039370078740157
        },
        {
          "duration": 0.3598814941406232,
          "durationTicks": 479,
          "midi": 79,
          "name": "G5",
          "ticks": 47125,
          "time": 35.63044893554688,
          "velocity": 0.5275590551181102
        },
        {
          "duration": 0.35612490234375116,
          "durationTicks": 474,
          "midi": 78,
          "name": "F#5",
          "ticks": 47635,
          "time": 36.01362129882813,
          "velocity": 0.5039370078740157
        },
        {
          "duration": 0.3839236816406242,
          "durationTicks": 511,
          "midi": 67,
          "name": "G4",
          "ticks": 49156,
          "time": 37.1563765234375,
          "velocity": 0.5433070866141733
        },
        {
          "duration": 3.1094429423828203,
          "durationTicks": 4091,
          "midi": 55,
          "name": "G3",
          "ticks": 49156,
          "time": 37.1563765234375,
          "velocity": 0.4409448818897638
        },
        {
          "duration": 3.1094429423828203,
          "durationTicks": 4091,
          "midi": 59,
          "name": "B3",
          "ticks": 49156,
          "time": 37.1563765234375,
          "velocity": 0.4409448818897638
        },
        {
          "duration": 3.1094429423828203,
          "durationTicks": 4091,
          "midi": 62,
          "name": "D4",
          "ticks": 49156,
          "time": 37.1563765234375,
          "velocity": 0.5511811023622047
        },
        {
          "duration": 0.3583788574218758,
          "durationTicks": 477,
          "midi": 69,
          "name": "A4",
          "ticks": 49698,
          "time": 37.56359107421875,
          "velocity": 0.5039370078740157
        },
        {
          "duration": 0.35612490234374405,
          "durationTicks": 474,
          "midi": 71,
          "name": "B4",
          "ticks": 50206,
          "time": 37.945260800781256,
          "velocity": 0.5118110236220472
        },
        {
          "duration": 0.3598814941406232,
          "durationTicks": 479,
          "midi": 74,
          "name": "D5",
          "ticks": 50711,
          "time": 38.32467657226563,
          "velocity": 0.5039370078740157
        },
        {
          "duration": 0.36112984960937666,
          "durationTicks": 479,
          "midi": 69,
          "name": "A4",
          "ticks": 51221,
          "time": 38.70784893554688,
          "velocity": 0.5275590551181102
        },
        {
          "duration": 0.08980249414062769,
          "durationTicks": 118,
          "midi": 64,
          "name": "E4",
          "ticks": 51712,
          "time": 39.078056000000004,
          "velocity": 0.5039370078740157
        },
        {
          "duration": 0.31032546289062424,
          "durationTicks": 406,
          "midi": 71,
          "name": "B4",
          "ticks": 51818,
          "time": 39.15872603710938,
          "velocity": 0.4645669291338583
        },
        {
          "duration": 0.366699173828124,
          "durationTicks": 474,
          "midi": 69,
          "name": "A4",
          "ticks": 52236,
          "time": 39.47830364062501,
          "velocity": 0.5118110236220472
        },
        {
          "duration": 0.37312043554687335,
          "durationTicks": 476,
          "midi": 74,
          "name": "D5",
          "ticks": 52741,
          "time": 39.86909550488282,
          "velocity": 0.5039370078740157
        },
        {
          "duration": 0.3928610683593732,
          "durationTicks": 511,
          "midi": 79,
          "name": "G5",
          "ticks": 53252,
          "time": 40.26975338671876,
          "velocity": 0.5433070866141733
        },
        {
          "duration": 3.082580794921874,
          "durationTicks": 4091,
          "midi": 55,
          "name": "G3",
          "ticks": 53252,
          "time": 40.26975338671876,
          "velocity": 0.4409448818897638
        },
        {
          "duration": 3.082580794921874,
          "durationTicks": 4091,
          "midi": 60,
          "name": "C4",
          "ticks": 53252,
          "time": 40.26975338671876,
          "velocity": 0.4409448818897638
        },
        {
          "duration": 3.0600412441406206,
          "durationTicks": 4061,
          "midi": 66,
          "name": "F#4",
          "ticks": 53252,
          "time": 40.26975338671876,
          "velocity": 0.5511811023622047
        },
        {
          "duration": 0.3583788574218758,
          "durationTicks": 477,
          "midi": 78,
          "name": "F#5",
          "ticks": 53794,
          "time": 40.68590532421876,
          "velocity": 0.5039370078740157
        },
        {
          "duration": 0.35612490234375116,
          "durationTicks": 474,
          "midi": 74,
          "name": "D5",
          "ticks": 54302,
          "time": 41.06757505078126,
          "velocity": 0.5118110236220472
        },
        {
          "duration": 0.3598814941406232,
          "durationTicks": 479,
          "midi": 71,
          "name": "B4",
          "ticks": 54807,
          "time": 41.44699082226563,
          "velocity": 0.5039370078740157
        },
        {
          "duration": 0.3598814941406232,
          "durationTicks": 479,
          "midi": 74,
          "name": "D5",
          "ticks": 55317,
          "time": 41.83016318554689,
          "velocity": 0.5275590551181102
        },
        {
          "duration": 0.35612490234375116,
          "durationTicks": 474,
          "midi": 72,
          "name": "C5",
          "ticks": 55827,
          "time": 42.213335548828134,
          "velocity": 0.5039370078740157
        },
        {
          "duration": 0.35612490234375116,
          "durationTicks": 474,
          "midi": 64,
          "name": "E4",
          "ticks": 56332,
          "time": 42.59275132031251,
          "velocity": 0.5118110236220472
        },
        {
          "duration": 0.38016708984375214,
          "durationTicks": 506,
          "midi": 66,
          "name": "F#4",
          "ticks": 56837,
          "time": 42.972167091796884,
          "velocity": 0.5039370078740157
        },
        {
          "duration": 0.3839236816406242,
          "durationTicks": 511,
          "midi": 67,
          "name": "G4",
          "ticks": 57348,
          "time": 43.35609077343751,
          "velocity": 0.5433070866141733
        },
        {
          "duration": 3.073643408203125,
          "durationTicks": 4091,
          "midi": 55,
          "name": "G3",
          "ticks": 57348,
          "time": 43.35609077343751,
          "velocity": 0.4409448818897638
        },
        {
          "duration": 3.073643408203125,
          "durationTicks": 4091,
          "midi": 59,
          "name": "B3",
          "ticks": 57348,
          "time": 43.35609077343751,
          "velocity": 0.4409448818897638
        },
        {
          "duration": 3.073643408203125,
          "durationTicks": 4091,
          "midi": 62,
          "name": "D4",
          "ticks": 57348,
          "time": 43.35609077343751,
          "velocity": 0.5511811023622047
        },
        {
          "duration": 0.3583788574218687,
          "durationTicks": 477,
          "midi": 69,
          "name": "A4",
          "ticks": 57890,
          "time": 43.76330532421876,
          "velocity": 0.5039370078740157
        },
        {
          "duration": 0.35612490234374405,
          "durationTicks": 474,
          "midi": 71,
          "name": "B4",
          "ticks": 58398,
          "time": 44.14497505078126,
          "velocity": 0.5118110236220472
        },
        {
          "duration": 0.3598814941406232,
          "durationTicks": 479,
          "midi": 74,
          "name": "D5",
          "ticks": 58903,
          "time": 44.52439082226564,
          "velocity": 0.5039370078740157
        },
        {
          "duration": 0.3598814941406232,
          "durationTicks": 479,
          "midi": 69,
          "name": "A4",
          "ticks": 59413,
          "time": 44.907563185546884,
          "velocity": 0.5275590551181102
        },
        {
          "duration": 0.08865556640624561,
          "durationTicks": 118,
          "midi": 64,
          "name": "E4",
          "ticks": 59904,
          "time": 45.27646050000001,
          "velocity": 0.5039370078740157
        },
        {
          "duration": 0.3050352539062473,
          "durationTicks": 406,
          "midi": 71,
          "name": "B4",
          "ticks": 60010,
          "time": 45.35610024609376,
          "velocity": 0.4645669291338583
        },
        {
          "duration": 0.35612490234374405,
          "durationTicks": 474,
          "midi": 69,
          "name": "A4",
          "ticks": 60428,
          "time": 45.67015132031251,
          "velocity": 0.5118110236220472
        },
        {
          "duration": 0.35762753906249856,
          "durationTicks": 476,
          "midi": 74,
          "name": "D5",
          "ticks": 60933,
          "time": 46.04956709179689,
          "velocity": 0.5039370078740157
        },
        {
          "duration": 0.3839236816406242,
          "durationTicks": 511,
          "midi": 79,
          "name": "G5",
          "ticks": 61444,
          "time": 46.43349077343751,
          "velocity": 0.5433070866141733
        },
        {
          "duration": 3.073643408203125,
          "durationTicks": 4091,
          "midi": 55,
          "name": "G3",
          "ticks": 61444,
          "time": 46.43349077343751,
          "velocity": 0.4409448818897638
        },
        {
          "duration": 3.073643408203125,
          "durationTicks": 4091,
          "midi": 60,
          "name": "C4",
          "ticks": 61444,
          "time": 46.43349077343751,
          "velocity": 0.4409448818897638
        },
        {
          "duration": 3.073643408203125,
          "durationTicks": 4091,
          "midi": 66,
          "name": "F#4",
          "ticks": 61444,
          "time": 46.43349077343751,
          "velocity": 0.5511811023622047
        },
        {
          "duration": 0.3583788574218758,
          "durationTicks": 477,
          "midi": 78,
          "name": "F#5",
          "ticks": 61986,
          "time": 46.84070532421876,
          "velocity": 0.5039370078740157
        },
        {
          "duration": 0.35612490234375116,
          "durationTicks": 474,
          "midi": 79,
          "name": "G5",
          "ticks": 62494,
          "time": 47.22237505078126,
          "velocity": 0.5118110236220472
        },
        {
          "duration": 0.3598814941406232,
          "durationTicks": 479,
          "midi": 74,
          "name": "D5",
          "ticks": 62999,
          "time": 47.601790822265635,
          "velocity": 0.5039370078740157
        },
        {
          "duration": 1.138998632812502,
          "durationTicks": 1516,
          "midi": 67,
          "name": "G4",
          "ticks": 64019,
          "time": 48.368135548828135,
          "velocity": 0.5039370078740157
        }
      ],
      "endOfTrackTicks": 65536
    }
  ]
}
