{
  "header": {
    "keySignatures": [
      {
        "key": "Eb",
        "scale": "major",
        "ticks": 0
      }
    ],
    "meta": [],
    "name": "",
    "ppq": 1024,
    "tempos": [
      {
        "bpm": 76.00006586672374,
        "ticks": 0
      },
      {
        "bpm": 76.00006586672374,
        "ticks": 0
      },
      {
        "bpm": 126.000126000126,
        "ticks": 18432
      },
      {
        "bpm": 126.000126000126,
        "ticks": 264192
      }
    ],
    "timeSignatures": [
      {
        "ticks": 0,
        "timeSignature": [
          4,
          4
        ],
        "measures": 0
      },
      {
        "ticks": 12288,
        "timeSignature": [
          2,
          4
        ],
        "measures": 3
      },
      {
        "ticks": 14336,
        "timeSignature": [
          4,
          4
        ],
        "measures": 4
      }
    ]
  },
  "tracks": [
    {
      "channel": 0,
      "controlChanges": {},
      "pitchBends": [],
      "instrument": {
        "family": "piano",
        "number": 0,
        "name": "acoustic grand piano"
      },
      "name": "Acoustic Grand Piano",
      "notes": [
        {
          "duration": 0.7894730000000001,
          "durationTicks": 1024,
          "midi": 72,
          "name": "C5",
          "ticks": 0,
          "time": 0,
          "velocity": 0.5039370078740157
        },
        {
          "duration": 1.5789460000000002,
          "durationTicks": 2048,
          "midi": 60,
          "name": "C4",
          "ticks": 0,
          "time": 0,
          "velocity": 0.5039370078740157
        },
        {
          "duration": 1.5789460000000002,
          "durationTicks": 2048,
          "midi": 63,
          "name": "D#4",
          "ticks": 0,
          "time": 0,
          "velocity": 0.5039370078740157
        },
        {
          "duration": 1.5789460000000002,
          "durationTicks": 2048,
          "midi": 67,
          "name": "G4",
          "ticks": 0,
          "time": 0,
          "velocity": 0.5039370078740157
        },
        {
          "duration": 0.7894730000000001,
          "durationTicks": 1024,
          "midi": 75,
          "name": "D#5",
          "ticks": 1024,
          "time": 0.7894730000000001,
          "velocity": 0.5039370078740157
        },
        {
          "duration": 0.5921047499999998,
          "durationTicks": 768,
          "midi": 77,
          "name": "F5",
          "ticks": 2048,
          "time": 1.5789460000000002,
          "velocity": 0.5039370078740157
        },
        {
          "duration": 1.5789460000000002,
          "durationTicks": 2048,
          "midi": 60,
          "name": "C4",
          "ticks": 2048,
          "time": 1.5789460000000002,
          "velocity": 0.5039370078740157
        },
        {
          "duration": 1.5789460000000002,
          "durationTicks": 2048,
          "midi": 65,
          "name": "F4",
          "ticks": 2048,
          "time": 1.5789460000000002,
          "velocity": 0.5039370078740157
        },
        {
          "duration": 1.5789460000000002,
          "durationTicks": 2048,
          "midi": 68,
          "name": "G#4",
          "ticks": 2048,
          "time": 1.5789460000000002,
          "velocity": 0.5039370078740157
        },
        {
          "duration": 0.5921047500000003,
          "durationTicks": 768,
          "midi": 75,
          "name": "D#5",
          "ticks": 2816,
          "time": 2.17105075,
          "velocity": 0.5039370078740157
        },
        {
          "duration": 0.39473650000000005,
          "durationTicks": 512,
          "midi": 77,
          "name": "F5",
          "ticks": 3584,
          "time": 2.7631555000000003,
          "velocity": 0.5039370078740157
        },
        {
          "duration": 0.39473650000000005,
          "durationTicks": 512,
          "midi": 77,
          "name": "F5",
          "ticks": 4096,
          "time": 3.1578920000000004,
          "velocity": 0.5039370078740157
        },
        {
          "duration": 1.5789460000000002,
          "durationTicks": 2048,
          "midi": 58,
          "name": "A#3",
          "ticks": 4096,
          "time": 3.1578920000000004,
          "velocity": 0.5039370078740157
        },
        {
          "duration": 1.5789460000000002,
          "durationTicks": 2048,
          "midi": 62,
          "name": "D4",
          "ticks": 4096,
          "time": 3.1578920000000004,
          "velocity": 0.5039370078740157
        },
        {
          "duration": 1.5789460000000002,
          "durationTicks": 2048,
          "midi": 65,
          "name": "F4",
          "ticks": 4096,
          "time": 3.1578920000000004,
          "velocity": 0.5039370078740157
        },
        {
          "duration": 0.39473650000000005,
          "durationTicks": 512,
          "midi": 77,
          "name": "F5",
          "ticks": 4608,
          "time": 3.5526285000000004,
          "velocity": 0.5039370078740157
        },
        {
          "duration": 0.3947364999999996,
          "durationTicks": 512,
          "midi": 82,
          "name": "A#5",
          "ticks": 5120,
          "time": 3.9473650000000005,
          "velocity": 0.5039370078740157
        },
        {
          "duration": 0.3947365000000005,
          "durationTicks": 512,
          "midi": 80,
          "name": "G#5",
          "ticks": 5632,
          "time": 4.3421015,
          "velocity": 0.5039370078740157
        },
        {
          "duration": 0.19736825000000024,
          "durationTicks": 256,
          "midi": 79,
          "name": "G5",
          "ticks": 6144,
          "time": 4.7368380000000005,
          "velocity": 0.5039370078740157
        },
        {
          "duration": 1.5789460000000002,
          "durationTicks": 2048,
          "midi": 63,
          "name": "D#4",
          "ticks": 6144,
          "time": 4.7368380000000005,
          "velocity": 0.5039370078740157
        },
        {
          "duration": 1.5789460000000002,
          "durationTicks": 2048,
          "midi": 70,
          "name": "A#4",
          "ticks": 6144,
          "time": 4.7368380000000005,
          "velocity": 0.5039370078740157
        },
        {
          "duration": 0.3947364999999996,
          "durationTicks": 512,
          "midi": 77,
          "name": "F5",
          "ticks": 6400,
          "time": 4.934206250000001,
          "velocity": 0.5039370078740157
        },
        {
          "duration": 0.9868412500000003,
          "durationTicks": 1280,
          "midi": 79,
          "name": "G5",
          "ticks": 6912,
          "time": 5.32894275,
          "velocity": 0.5039370078740157
        },
        {
          "duration": 0.7894730000000001,
          "durationTicks": 1024,
          "midi": 79,
          "name": "G5",
          "ticks": 8192,
          "time": 6.315784000000001,
          "velocity": 0.5039370078740157
        },
        {
          "duration": 1.5789460000000002,
          "durationTicks": 2048,
          "midi": 60,
          "name": "C4",
          "ticks": 8192,
          "time": 6.315784000000001,
          "velocity": 0.5039370078740157
        },
        {
          "duration": 1.5789460000000002,
          "durationTicks": 2048,
          "midi": 63,
          "name": "D#4",
          "ticks": 8192,
          "time": 6.315784000000001,
          "velocity": 0.5039370078740157
        },
        {
          "duration": 1.5789460000000002,
          "durationTicks": 2048,
          "midi": 67,
          "name": "G4",
          "ticks": 8192,
          "time": 6.315784000000001,
          "velocity": 0.5039370078740157
        },
        {
          "duration": 0.7894730000000001,
          "durationTicks": 1024,
          "midi": 82,
          "name": "A#5",
          "ticks": 9216,
          "time": 7.105257000000001,
          "velocity": 0.5039370078740157
        },
        {
          "duration": 0.5921047500000007,
          "durationTicks": 768,
          "midi": 84,
          "name": "C6",
          "ticks": 10240,
          "time": 7.894730000000001,
          "velocity": 0.5039370078740157
        },
        {
          "duration": 1.5789460000000002,
          "durationTicks": 2048,
          "midi": 63,
          "name": "D#4",
          "ticks": 10240,
          "time": 7.894730000000001,
          "velocity": 0.5039370078740157
        },
        {
          "duration": 1.5789460000000002,
          "durationTicks": 2048,
          "midi": 65,
          "name": "F4",
          "ticks": 10240,
          "time": 7.894730000000001,
          "velocity": 0.5039370078740157
        },
        {
          "duration": 1.5789460000000002,
          "durationTicks": 2048,
          "midi": 68,
          "name": "G#4",
          "ticks": 10240,
          "time": 7.894730000000001,
          "velocity": 0.5039370078740157
        },
        {
          "duration": 1.5789460000000002,
          "durationTicks": 2048,
          "midi": 72,
          "name": "C5",
          "ticks": 10240,
          "time": 7.894730000000001,
          "velocity": 0.5039370078740157
        },
        {
          "duration": 0.592104749999999,
          "durationTicks": 768,
          "midi": 77,
          "name": "F5",
          "ticks": 11008,
          "time": 8.486834750000002,
          "velocity": 0.5039370078740157
        },
        {
          "duration": 0.3947365000000005,
          "durationTicks": 512,
          "midi": 75,
          "name": "D#5",
          "ticks": 11776,
          "time": 9.0789395,
          "velocity": 0.5039370078740157
        },
        {
          "duration": 0.3947365000000005,
          "durationTicks": 512,
          "midi": 82,
          "name": "A#5",
          "ticks": 12288,
          "time": 9.473676000000001,
          "velocity": 0.5039370078740157
        },
        {
          "duration": 1.5789460000000002,
          "durationTicks": 2048,
          "midi": 74,
          "name": "D5",
          "ticks": 12288,
          "time": 9.473676000000001,
          "velocity": 0.5039370078740157
        },
        {
          "duration": 1.5789460000000002,
          "durationTicks": 2048,
          "midi": 62,
          "name": "D4",
          "ticks": 12288,
          "time": 9.473676000000001,
          "velocity": 0.5039370078740157
        },
        {
          "duration": 1.5789460000000002,
          "durationTicks": 2048,
          "midi": 65,
          "name": "F4",
          "ticks": 12288,
          "time": 9.473676000000001,
          "velocity": 0.5039370078740157
        },
        {
          "duration": 1.5789460000000002,
          "durationTicks": 2048,
          "midi": 67,
          "name": "G4",
          "ticks": 12288,
          "time": 9.473676000000001,
          "velocity": 0.5039370078740157
        },
        {
          "duration": 1.5789460000000002,
          "durationTicks": 2048,
          "midi": 70,
          "name": "A#4",
          "ticks": 12288,
          "time": 9.473676000000001,
          "velocity": 0.5039370078740157
        },
        {
          "duration": 0.3947365000000005,
          "durationTicks": 512,
          "midi": 82,
          "name": "A#5",
          "ticks": 12800,
          "time": 9.868412500000002,
          "velocity": 0.5039370078740157
        },
        {
          "duration": 0.3947364999999987,
          "durationTicks": 512,
          "midi": 79,
          "name": "G5",
          "ticks": 13312,
          "time": 10.263149000000002,
          "velocity": 0.5039370078740157
        },
        {
          "duration": 0.3947365000000005,
          "durationTicks": 512,
          "midi": 82,
          "name": "A#5",
          "ticks": 13824,
          "time": 10.6578855,
          "velocity": 0.5039370078740157
        },
        {
          "duration": 0.5921047500000007,
          "durationTicks": 768,
          "midi": 82,
          "name": "A#5",
          "ticks": 14336,
          "time": 11.052622000000001,
          "velocity": 0.5039370078740157
        },
        {
          "duration": 3.1578920000000004,
          "durationTicks": 4096,
          "midi": 67,
          "name": "G4",
          "ticks": 14336,
          "time": 11.052622000000001,
          "velocity": 0.5039370078740157
        },
        {
          "duration": 3.1578920000000004,
          "durationTicks": 4096,
          "midi": 68,
          "name": "G#4",
          "ticks": 14336,
          "time": 11.052622000000001,
          "velocity": 0.5039370078740157
        },
        {
          "duration": 3.1578920000000004,
          "durationTicks": 4096,
          "midi": 72,
          "name": "C5",
          "ticks": 14336,
          "time": 11.052622000000001,
          "velocity": 0.5039370078740157
        },
        {
          "duration": 3.1578920000000004,
          "durationTicks": 4096,
          "midi": 75,
          "name": "D#5",
          "ticks": 14336,
          "time": 11.052622000000001,
          "velocity": 0.5039370078740157
        },
        {
          "duration": 2.5657872499999996,
          "durationTicks": 3328,
          "midi": 84,
          "name": "C6",
          "ticks": 15104,
          "time": 11.644726750000002,
          "velocity": 0.5039370078740157
        },
        {
          "duration": 0.4761900000000008,
          "durationTicks": 1024,
          "midi": 60,
          "name": "C4",
          "ticks": 18432,
          "time": 14.210514000000002,
          "velocity": 0.5039370078740157
        },
        {
          "duration": 0.2380949999999995,
          "durationTicks": 512,
          "midi": 48,
          "name": "C3",
          "ticks": 18432,
          "time": 14.210514000000002,
          "velocity": 0.5039370078740157
        },
        {
          "duration": 0.23809500000000128,
          "durationTicks": 512,
          "midi": 48,
          "name": "C3",
          "ticks": 18944,
          "time": 14.448609000000001,
          "velocity": 0.5039370078740157
        },
        {
          "duration": 0.476189999999999,
          "durationTicks": 1024,
          "midi": 63,
          "name": "D#4",
          "ticks": 19456,
          "time": 14.686704000000002,
          "velocity": 0.5039370078740157
        },
        {
          "duration": 0.2380949999999995,
          "durationTicks": 512,
          "midi": 48,
          "name": "C3",
          "ticks": 19456,
          "time": 14.686704000000002,
          "velocity": 0.5039370078740157
        },
        {
          "duration": 0.2380949999999995,
          "durationTicks": 512,
          "midi": 51,
          "name": "D#3",
          "ticks": 19968,
          "time": 14.924799000000002,
          "velocity": 0.5039370078740157
        },
        {
          "duration": 0.35714250000000014,
          "durationTicks": 768,
          "midi": 56,
          "name": "G#3",
          "ticks": 20480,
          "time": 15.162894000000001,
          "velocity": 0.5039370078740157
        },
        {
          "duration": 0.35714250000000014,
          "durationTicks": 768,
          "midi": 60,
          "name": "C4",
          "ticks": 20480,
          "time": 15.162894000000001,
          "velocity": 0.5039370078740157
        },
        {
          "duration": 0.35714250000000014,
          "durationTicks": 768,
          "midi": 65,
          "name": "F4",
          "ticks": 20480,
          "time": 15.162894000000001,
          "velocity": 0.5039370078740157
        },
        {
          "duration": 0.11904750000000064,
          "durationTicks": 256,
          "midi": 53,
          "name": "F3",
          "ticks": 20480,
          "time": 15.162894000000001,
          "velocity": 0.5039370078740157
        },
        {
          "duration": 0.11904749999999886,
          "durationTicks": 256,
          "midi": 53,
          "name": "F3",
          "ticks": 20736,
          "time": 15.281941500000002,
          "velocity": 0.5039370078740157
        },
        {
          "duration": 0.35714250000000014,
          "durationTicks": 768,
          "midi": 63,
          "name": "D#4",
          "ticks": 21248,
          "time": 15.520036500000002,
          "velocity": 0.5039370078740157
        },
        {
          "duration": 0.2380949999999995,
          "durationTicks": 512,
          "midi": 53,
          "name": "F3",
          "ticks": 21248,
          "time": 15.520036500000002,
          "velocity": 0.5039370078740157
        },
        {
          "duration": 0.11904750000000064,
          "durationTicks": 256,
          "midi": 53,
          "name": "F3",
          "ticks": 21760,
          "time": 15.758131500000001,
          "velocity": 0.5039370078740157
        },
        {
          "duration": 0.23809500000000128,
          "durationTicks": 512,
          "midi": 65,
          "name": "F4",
          "ticks": 22016,
          "time": 15.877179000000002,
          "velocity": 0.5039370078740157
        },
        {
          "duration": 0.23809500000000128,
          "durationTicks": 512,
          "midi": 48,
          "name": "C3",
          "ticks": 22016,
          "time": 15.877179000000002,
          "velocity": 0.5039370078740157
        },
        {
          "duration": 0.23809499999999773,
          "durationTicks": 512,
          "midi": 58,
          "name": "A#3",
          "ticks": 22528,
          "time": 16.115274000000003,
          "velocity": 0.5039370078740157
        },
        {
          "duration": 0.23809499999999773,
          "durationTicks": 512,
          "midi": 62,
          "name": "D4",
          "ticks": 22528,
          "time": 16.115274000000003,
          "velocity": 0.5039370078740157
        },
        {
          "duration": 0.23809499999999773,
          "durationTicks": 512,
          "midi": 65,
          "name": "F4",
          "ticks": 22528,
          "time": 16.115274000000003,
          "velocity": 0.5039370078740157
        },
        {
          "duration": 0.23809499999999773,
          "durationTicks": 512,
          "midi": 46,
          "name": "A#2",
          "ticks": 22528,
          "time": 16.115274000000003,
          "velocity": 0.5039370078740157
        },
        {
          "duration": 0.23809500000000128,
          "durationTicks": 512,
          "midi": 65,
          "name": "F4",
          "ticks": 23040,
          "time": 16.353369,
          "velocity": 0.5039370078740157
        },
        {
          "duration": 0.23809500000000128,
          "durationTicks": 512,
          "midi": 46,
          "name": "A#2",
          "ticks": 23040,
          "time": 16.353369,
          "velocity": 0.5039370078740157
        },
        {
          "duration": 0.23809500000000128,
          "durationTicks": 512,
          "midi": 70,
          "name": "A#4",
          "ticks": 23552,
          "time": 16.591464000000002,
          "velocity": 0.5039370078740157
        },
        {
          "duration": 0.23809500000000128,
          "durationTicks": 512,
          "midi": 46,
          "name": "A#2",
          "ticks": 23552,
          "time": 16.591464000000002,
          "velocity": 0.5039370078740157
        },
        {
          "duration": 0.23809499999999773,
          "durationTicks": 512,
          "midi": 68,
          "name": "G#4",
          "ticks": 24064,
          "time": 16.829559000000003,
          "velocity": 0.5039370078740157
        },
        {
          "duration": 0.23809499999999773,
          "durationTicks": 512,
          "midi": 50,
          "name": "D3",
          "ticks": 24064,
          "time": 16.829559000000003,
          "velocity": 0.5039370078740157
        },
        {
          "duration": 0.11904750000000064,
          "durationTicks": 256,
          "midi": 67,
          "name": "G4",
          "ticks": 24576,
          "time": 17.067654,
          "velocity": 0.5039370078740157
        },
        {
          "duration": 0.11904750000000064,
          "durationTicks": 256,
          "midi": 51,
          "name": "D#3",
          "ticks": 24576,
          "time": 17.067654,
          "velocity": 0.5039370078740157
        },
        {
          "duration": 0.23809500000000128,
          "durationTicks": 512,
          "midi": 65,
          "name": "F4",
          "ticks": 24832,
          "time": 17.1867015,
          "velocity": 0.5039370078740157
        },
        {
          "duration": 0.11904750000000064,
          "durationTicks": 256,
          "midi": 51,
          "name": "D#3",
          "ticks": 24832,
          "time": 17.1867015,
          "velocity": 0.5039370078740157
        },
        {
          "duration": 0.5952374999999996,
          "durationTicks": 1280,
          "midi": 67,
          "name": "G4",
          "ticks": 25344,
          "time": 17.424796500000003,
          "velocity": 0.5039370078740157
        },
        {
          "duration": 0.11904749999999709,
          "durationTicks": 256,
          "midi": 51,
          "name": "D#3",
          "ticks": 25344,
          "time": 17.424796500000003,
          "velocity": 0.5039370078740157
        },
        {
          "duration": 0.23809500000000128,
          "durationTicks": 512,
          "midi": 51,
          "name": "D#3",
          "ticks": 25600,
          "time": 17.543844,
          "velocity": 0.5039370078740157
        },
        {
          "duration": 0.23809500000000128,
          "durationTicks": 512,
          "midi": 50,
          "name": "D3",
          "ticks": 26112,
          "time": 17.781939,
          "velocity": 0.5039370078740157
        },
        {
          "duration": 0.476189999999999,
          "durationTicks": 1024,
          "midi": 63,
          "name": "D#4",
          "ticks": 26624,
          "time": 18.020034000000003,
          "velocity": 0.5039370078740157
        },
        {
          "duration": 0.476189999999999,
          "durationTicks": 1024,
          "midi": 67,
          "name": "G4",
          "ticks": 26624,
          "time": 18.020034000000003,
          "velocity": 0.5039370078740157
        },
        {
          "duration": 0.23809500000000128,
          "durationTicks": 512,
          "midi": 48,
          "name": "C3",
          "ticks": 26624,
          "time": 18.020034000000003,
          "velocity": 0.5039370078740157
        },
        {
          "duration": 0.23809499999999773,
          "durationTicks": 512,
          "midi": 48,
          "name": "C3",
          "ticks": 27136,
          "time": 18.258129000000004,
          "velocity": 0.5039370078740157
        },
        {
          "duration": 0.476189999999999,
          "durationTicks": 1024,
          "midi": 70,
          "name": "A#4",
          "ticks": 27648,
          "time": 18.496224,
          "velocity": 0.5039370078740157
        },
        {
          "duration": 0.23809500000000128,
          "durationTicks": 512,
          "midi": 48,
          "name": "C3",
          "ticks": 27648,
          "time": 18.496224,
          "velocity": 0.5039370078740157
        },
        {
          "duration": 0.23809499999999773,
          "durationTicks": 512,
          "midi": 51,
          "name": "D#3",
          "ticks": 28160,
          "time": 18.734319000000003,
          "velocity": 0.5039370078740157
        },
        {
          "duration": 0.3571425000000019,
          "durationTicks": 768,
          "midi": 65,
          "name": "F4",
          "ticks": 28672,
          "time": 18.972414,
          "velocity": 0.5039370078740157
        },
        {
          "duration": 0.3571425000000019,
          "durationTicks": 768,
          "midi": 68,
          "name": "G#4",
          "ticks": 28672,
          "time": 18.972414,
          "velocity": 0.5039370078740157
        },
        {
          "duration": 0.3571425000000019,
          "durationTicks": 768,
          "midi": 72,
          "name": "C5",
          "ticks": 28672,
          "time": 18.972414,
          "velocity": 0.5039370078740157
        },
        {
          "duration": 0.11904750000000064,
          "durationTicks": 256,
          "midi": 53,
          "name": "F3",
          "ticks": 28672,
          "time": 18.972414,
          "velocity": 0.5039370078740157
        },
        {
          "duration": 0.11904750000000064,
          "durationTicks": 256,
          "midi": 53,
          "name": "F3",
          "ticks": 28928,
          "time": 19.0914615,
          "velocity": 0.5039370078740157
        },
        {
          "duration": 0.35714249999999836,
          "durationTicks": 768,
          "midi": 65,
          "name": "F4",
          "ticks": 29440,
          "time": 19.329556500000002,
          "velocity": 0.5039370078740157
        },
        {
          "duration": 0.23809500000000128,
          "durationTicks": 512,
          "midi": 53,
          "name": "F3",
          "ticks": 29440,
          "time": 19.329556500000002,
          "velocity": 0.5039370078740157
        },
        {
          "duration": 0.11904749999999709,
          "durationTicks": 256,
          "midi": 53,
          "name": "F3",
          "ticks": 29952,
          "time": 19.567651500000004,
          "velocity": 0.5039370078740157
        },
        {
          "duration": 0.23809500000000128,
          "durationTicks": 512,
          "midi": 63,
          "name": "D#4",
          "ticks": 30208,
          "time": 19.686699,
          "velocity": 0.5039370078740157
        },
        {
          "duration": 0.23809500000000128,
          "durationTicks": 512,
          "midi": 48,
          "name": "C3",
          "ticks": 30208,
          "time": 19.686699,
          "velocity": 0.5039370078740157
        },
        {
          "duration": 0.23809499999999773,
          "durationTicks": 512,
          "midi": 62,
          "name": "D4",
          "ticks": 30720,
          "time": 19.924794000000002,
          "velocity": 0.5039370078740157
        },
        {
          "duration": 0.23809499999999773,
          "durationTicks": 512,
          "midi": 65,
          "name": "F4",
          "ticks": 30720,
          "time": 19.924794000000002,
          "velocity": 0.5039370078740157
        },
        {
          "duration": 0.23809499999999773,
          "durationTicks": 512,
          "midi": 70,
          "name": "A#4",
          "ticks": 30720,
          "time": 19.924794000000002,
          "velocity": 0.5039370078740157
        },
        {
          "duration": 0.23809499999999773,
          "durationTicks": 512,
          "midi": 46,
          "name": "A#2",
          "ticks": 30720,
          "time": 19.924794000000002,
          "velocity": 0.5039370078740157
        },
        {
          "duration": 0.23809500000000128,
          "durationTicks": 512,
          "midi": 62,
          "name": "D4",
          "ticks": 31232,
          "time": 20.162889,
          "velocity": 0.5039370078740157
        },
        {
          "duration": 0.23809500000000128,
          "durationTicks": 512,
          "midi": 65,
          "name": "F4",
          "ticks": 31232,
          "time": 20.162889,
          "velocity": 0.5039370078740157
        },
        {
          "duration": 0.23809500000000128,
          "durationTicks": 512,
          "midi": 70,
          "name": "A#4",
          "ticks": 31232,
          "time": 20.162889,
          "velocity": 0.5039370078740157
        },
        {
          "duration": 0.23809500000000128,
          "durationTicks": 512,
          "midi": 46,
          "name": "A#2",
          "ticks": 31232,
          "time": 20.162889,
          "velocity": 0.5039370078740157
        },
        {
          "duration": 0.23809500000000128,
          "durationTicks": 512,
          "midi": 62,
          "name": "D4",
          "ticks": 31744,
          "time": 20.400984,
          "velocity": 0.5039370078740157
        },
        {
          "duration": 0.23809500000000128,
          "durationTicks": 512,
          "midi": 65,
          "name": "F4",
          "ticks": 31744,
          "time": 20.400984,
          "velocity": 0.5039370078740157
        },
        {
          "duration": 0.23809500000000128,
          "durationTicks": 512,
          "midi": 67,
          "name": "G4",
          "ticks": 31744,
          "time": 20.400984,
          "velocity": 0.5039370078740157
        },
        {
          "duration": 0.23809500000000128,
          "durationTicks": 512,
          "midi": 46,
          "name": "A#2",
          "ticks": 31744,
          "time": 20.400984,
          "velocity": 0.5039370078740157
        },
        {
          "duration": 0.23809500000000128,
          "durationTicks": 512,
          "midi": 62,
          "name": "D4",
          "ticks": 32256,
          "time": 20.639079000000002,
          "velocity": 0.5039370078740157
        },
        {
          "duration": 0.23809500000000128,
          "durationTicks": 512,
          "midi": 65,
          "name": "F4",
          "ticks": 32256,
          "time": 20.639079000000002,
          "velocity": 0.5039370078740157
        },
        {
          "duration": 0.23809500000000128,
          "durationTicks": 512,
          "midi": 70,
          "name": "A#4",
          "ticks": 32256,
          "time": 20.639079000000002,
          "velocity": 0.5039370078740157
        },
        {
          "duration": 0.23809500000000128,
          "durationTicks": 512,
          "midi": 47,
          "name": "B2",
          "ticks": 32256,
          "time": 20.639079000000002,
          "velocity": 0.5039370078740157
        },
        {
          "duration": 0.35714249999999836,
          "durationTicks": 768,
          "midi": 67,
          "name": "G4",
          "ticks": 32768,
          "time": 20.877174000000004,
          "velocity": 0.5039370078740157
        },
        {
          "duration": 0.35714249999999836,
          "durationTicks": 768,
          "midi": 70,
          "name": "A#4",
          "ticks": 32768,
          "time": 20.877174000000004,
          "velocity": 0.5039370078740157
        },
        {
          "duration": 0.11904749999999709,
          "durationTicks": 256,
          "midi": 48,
          "name": "C3",
          "ticks": 32768,
          "time": 20.877174000000004,
          "velocity": 0.5039370078740157
        },
        {
          "duration": 0.23809500000000128,
          "durationTicks": 512,
          "midi": 48,
          "name": "C3",
          "ticks": 33024,
          "time": 20.9962215,
          "velocity": 0.5039370078740157
        },
        {
          "duration": 0.5952374999999996,
          "durationTicks": 1280,
          "midi": 67,
          "name": "G4",
          "ticks": 33536,
          "time": 21.234316500000002,
          "velocity": 0.5039370078740157
        },
        {
          "duration": 0.5952374999999996,
          "durationTicks": 1280,
          "midi": 72,
          "name": "C5",
          "ticks": 33536,
          "time": 21.234316500000002,
          "velocity": 0.5039370078740157
        },
        {
          "duration": 0.11904750000000064,
          "durationTicks": 256,
          "midi": 48,
          "name": "C3",
          "ticks": 33536,
          "time": 21.234316500000002,
          "velocity": 0.5039370078740157
        },
        {
          "duration": 0.476189999999999,
          "durationTicks": 1024,
          "midi": 46,
          "name": "A#2",
          "ticks": 33792,
          "time": 21.353364000000003,
          "velocity": 0.5039370078740157
        },
        {
          "duration": 1.9047599999999996,
          "durationTicks": 4096,
          "midi": 51,
          "name": "D#3",
          "ticks": 34816,
          "time": 21.829554,
          "velocity": 0.5039370078740157
        },
        {
          "duration": 1.9047599999999996,
          "durationTicks": 4096,
          "midi": 55,
          "name": "G3",
          "ticks": 34816,
          "time": 21.829554,
          "velocity": 0.5039370078740157
        },
        {
          "duration": 1.9047599999999996,
          "durationTicks": 4096,
          "midi": 58,
          "name": "A#3",
          "ticks": 34816,
          "time": 21.829554,
          "velocity": 0.5039370078740157
        },
        {
          "duration": 0.23809499999999773,
          "durationTicks": 512,
          "midi": 75,
          "name": "D#5",
          "ticks": 35840,
          "time": 22.305744000000004,
          "velocity": 0.5039370078740157
        },
        {
          "duration": 0.11904749999999709,
          "durationTicks": 256,
          "midi": 70,
          "name": "A#4",
          "ticks": 36352,
          "time": 22.543839000000002,
          "velocity": 0.5039370078740157
        },
        {
          "duration": 0.5952375000000032,
          "durationTicks": 1280,
          "midi": 70,
          "name": "A#4",
          "ticks": 36608,
          "time": 22.6628865,
          "velocity": 0.5039370078740157
        },
        {
          "duration": 0.23809499999999773,
          "durationTicks": 512,
          "midi": 75,
          "name": "D#5",
          "ticks": 38400,
          "time": 23.496219000000004,
          "velocity": 0.5039370078740157
        },
        {
          "duration": 0.35714249999999836,
          "durationTicks": 768,
          "midi": 75,
          "name": "D#5",
          "ticks": 38912,
          "time": 23.734314,
          "velocity": 0.5039370078740157
        },
        {
          "duration": 1.9047599999999996,
          "durationTicks": 4096,
          "midi": 46,
          "name": "A#2",
          "ticks": 38912,
          "time": 23.734314,
          "velocity": 0.5039370078740157
        },
        {
          "duration": 1.9047599999999996,
          "durationTicks": 4096,
          "midi": 50,
          "name": "D3",
          "ticks": 38912,
          "time": 23.734314,
          "velocity": 0.5039370078740157
        },
        {
          "duration": 1.9047599999999996,
          "durationTicks": 4096,
          "midi": 53,
          "name": "F3",
          "ticks": 38912,
          "time": 23.734314,
          "velocity": 0.5039370078740157
        },
        {
          "duration": 1.9047599999999996,
          "durationTicks": 4096,
          "midi": 58,
          "name": "A#3",
          "ticks": 38912,
          "time": 23.734314,
          "velocity": 0.5039370078740157
        },
        {
          "duration": 0.3571425000000019,
          "durationTicks": 768,
          "midi": 77,
          "name": "F5",
          "ticks": 39680,
          "time": 24.0914565,
          "velocity": 0.5039370078740157
        },
        {
          "duration": 0.23809500000000128,
          "durationTicks": 512,
          "midi": 70,
          "name": "A#4",
          "ticks": 40448,
          "time": 24.448599,
          "velocity": 0.5039370078740157
        },
        {
          "duration": 0.476189999999999,
          "durationTicks": 1024,
          "midi": 70,
          "name": "A#4",
          "ticks": 40960,
          "time": 24.686694000000003,
          "velocity": 0.5039370078740157
        },
        {
          "duration": 0.23809500000000128,
          "durationTicks": 512,
          "midi": 70,
          "name": "A#4",
          "ticks": 42496,
          "time": 25.400979,
          "velocity": 0.5039370078740157
        },
        {
          "duration": 0.3571425000000019,
          "durationTicks": 768,
          "midi": 79,
          "name": "G5",
          "ticks": 43008,
          "time": 25.639074,
          "velocity": 0.5039370078740157
        },
        {
          "duration": 0.9523800000000016,
          "durationTicks": 2048,
          "midi": 48,
          "name": "C3",
          "ticks": 43008,
          "time": 25.639074,
          "velocity": 0.5039370078740157
        },
        {
          "duration": 0.9523800000000016,
          "durationTicks": 2048,
          "midi": 51,
          "name": "D#3",
          "ticks": 43008,
          "time": 25.639074,
          "velocity": 0.5039370078740157
        },
        {
          "duration": 0.9523800000000016,
          "durationTicks": 2048,
          "midi": 55,
          "name": "G3",
          "ticks": 43008,
          "time": 25.639074,
          "velocity": 0.5039370078740157
        },
        {
          "duration": 0.35714249999999836,
          "durationTicks": 768,
          "midi": 80,
          "name": "G#5",
          "ticks": 43776,
          "time": 25.996216500000003,
          "velocity": 0.5039370078740157
        },
        {
          "duration": 0.23809500000000128,
          "durationTicks": 512,
          "midi": 79,
          "name": "G5",
          "ticks": 44544,
          "time": 26.353359,
          "velocity": 0.5039370078740157
        },
        {
          "duration": 0.35714249999999836,
          "durationTicks": 768,
          "midi": 77,
          "name": "F5",
          "ticks": 45056,
          "time": 26.591454000000002,
          "velocity": 0.5039370078740157
        },
        {
          "duration": 0.9523800000000016,
          "durationTicks": 2048,
          "midi": 46,
          "name": "A#2",
          "ticks": 45056,
          "time": 26.591454000000002,
          "velocity": 0.5039370078740157
        },
        {
          "duration": 0.9523800000000016,
          "durationTicks": 2048,
          "midi": 50,
          "name": "D3",
          "ticks": 45056,
          "time": 26.591454000000002,
          "velocity": 0.5039370078740157
        },
        {
          "duration": 0.9523800000000016,
          "durationTicks": 2048,
          "midi": 53,
          "name": "F3",
          "ticks": 45056,
          "time": 26.591454000000002,
          "velocity": 0.5039370078740157
        },
        {
          "duration": 0.9523800000000016,
          "durationTicks": 2048,
          "midi": 55,
          "name": "G3",
          "ticks": 45056,
          "time": 26.591454000000002,
          "velocity": 0.5039370078740157
        },
        {
          "duration": 0.3571425000000019,
          "durationTicks": 768,
          "midi": 75,
          "name": "D#5",
          "ticks": 45824,
          "time": 26.9485965,
          "velocity": 0.5039370078740157
        },
        {
          "duration": 0.23809500000000128,
          "durationTicks": 512,
          "midi": 77,
          "name": "F5",
          "ticks": 46592,
          "time": 27.305739000000003,
          "velocity": 0.5039370078740157
        },
        {
          "duration": 0.35714249999999836,
          "durationTicks": 768,
          "midi": 79,
          "name": "G5",
          "ticks": 47104,
          "time": 27.543834000000004,
          "velocity": 0.5039370078740157
        },
        {
          "duration": 1.904759999999996,
          "durationTicks": 4096,
          "midi": 44,
          "name": "G#2",
          "ticks": 47104,
          "time": 27.543834000000004,
          "velocity": 0.5039370078740157
        },
        {
          "duration": 1.904759999999996,
          "durationTicks": 4096,
          "midi": 48,
          "name": "C3",
          "ticks": 47104,
          "time": 27.543834000000004,
          "velocity": 0.5039370078740157
        },
        {
          "duration": 1.904759999999996,
          "durationTicks": 4096,
          "midi": 51,
          "name": "D#3",
          "ticks": 47104,
          "time": 27.543834000000004,
          "velocity": 0.5039370078740157
        },
        {
          "duration": 1.904759999999996,
          "durationTicks": 4096,
          "midi": 55,
          "name": "G3",
          "ticks": 47104,
          "time": 27.543834000000004,
          "velocity": 0.5039370078740157
        },
        {
          "duration": 0.35714249999999836,
          "durationTicks": 768,
          "midi": 80,
          "name": "G#5",
          "ticks": 47872,
          "time": 27.900976500000002,
          "velocity": 0.5039370078740157
        },
        {
          "duration": 0.23809500000000128,
          "durationTicks": 512,
          "midi": 79,
          "name": "G5",
          "ticks": 48640,
          "time": 28.258119,
          "velocity": 0.5039370078740157
        },
        {
          "duration": 0.476189999999999,
          "durationTicks": 1024,
          "midi": 72,
          "name": "C5",
          "ticks": 49152,
          "time": 28.496214000000002,
          "velocity": 0.5039370078740157
        },
        {
          "duration": 0.11904749999999709,
          "durationTicks": 256,
          "midi": 72,
          "name": "C5",
          "ticks": 50688,
          "time": 29.210499000000002,
          "velocity": 0.5039370078740157
        },
        {
          "duration": 0.11904750000000064,
          "durationTicks": 256,
          "midi": 74,
          "name": "D5",
          "ticks": 50944,
          "time": 29.3295465,
          "velocity": 0.5039370078740157
        },
        {
          "duration": 0.3571425000000019,
          "durationTicks": 768,
          "midi": 75,
          "name": "D#5",
          "ticks": 51200,
          "time": 29.448594,
          "velocity": 0.5039370078740157
        },
        {
          "duration": 0.9523800000000051,
          "durationTicks": 2048,
          "midi": 46,
          "name": "A#2",
          "ticks": 51200,
          "time": 29.448594,
          "velocity": 0.5039370078740157
        },
        {
          "duration": 0.9523800000000051,
          "durationTicks": 2048,
          "midi": 51,
          "name": "D#3",
          "ticks": 51200,
          "time": 29.448594,
          "velocity": 0.5039370078740157
        },
        {
          "duration": 0.9523800000000051,
          "durationTicks": 2048,
          "midi": 53,
          "name": "F3",
          "ticks": 51200,
          "time": 29.448594,
          "velocity": 0.5039370078740157
        },
        {
          "duration": 0.3571425000000019,
          "durationTicks": 768,
          "midi": 75,
          "name": "D#5",
          "ticks": 51968,
          "time": 29.805736500000002,
          "velocity": 0.5039370078740157
        },
        {
          "duration": 0.23809500000000128,
          "durationTicks": 512,
          "midi": 74,
          "name": "D5",
          "ticks": 52736,
          "time": 30.162879000000004,
          "velocity": 0.5039370078740157
        },
        {
          "duration": 0.47618999999999545,
          "durationTicks": 1024,
          "midi": 74,
          "name": "D5",
          "ticks": 53248,
          "time": 30.400974000000005,
          "velocity": 0.5039370078740157
        },
        {
          "duration": 0.952379999999998,
          "durationTicks": 2048,
          "midi": 46,
          "name": "A#2",
          "ticks": 53248,
          "time": 30.400974000000005,
          "velocity": 0.5039370078740157
        },
        {
          "duration": 0.952379999999998,
          "durationTicks": 2048,
          "midi": 50,
          "name": "D3",
          "ticks": 53248,
          "time": 30.400974000000005,
          "velocity": 0.5039370078740157
        },
        {
          "duration": 0.952379999999998,
          "durationTicks": 2048,
          "midi": 53,
          "name": "F3",
          "ticks": 53248,
          "time": 30.400974000000005,
          "velocity": 0.5039370078740157
        },
        {
          "duration": 0.11904750000000064,
          "durationTicks": 256,
          "midi": 75,
          "name": "D#5",
          "ticks": 54784,
          "time": 31.115259000000002,
          "velocity": 0.5039370078740157
        },
        {
          "duration": 0.11904750000000064,
          "durationTicks": 256,
          "midi": 77,
          "name": "F5",
          "ticks": 55040,
          "time": 31.234306500000002,
          "velocity": 0.5039370078740157
        },
        {
          "duration": 0.3571425000000019,
          "durationTicks": 768,
          "midi": 80,
          "name": "G#5",
          "ticks": 55296,
          "time": 31.353354000000003,
          "velocity": 0.5039370078740157
        },
        {
          "duration": 0.952379999999998,
          "durationTicks": 2048,
          "midi": 51,
          "name": "D#3",
          "ticks": 55296,
          "time": 31.353354000000003,
          "velocity": 0.5039370078740157
        },
        {
          "duration": 0.952379999999998,
          "durationTicks": 2048,
          "midi": 58,
          "name": "A#3",
          "ticks": 55296,
          "time": 31.353354000000003,
          "velocity": 0.5039370078740157
        },
        {
          "duration": 0.3571424999999948,
          "durationTicks": 768,
          "midi": 79,
          "name": "G5",
          "ticks": 56064,
          "time": 31.710496500000005,
          "velocity": 0.5039370078740157
        },
        {
          "duration": 0.23809500000000128,
          "durationTicks": 512,
          "midi": 77,
          "name": "F5",
          "ticks": 56832,
          "time": 32.067639,
          "velocity": 0.5039370078740157
        },
        {
          "duration": 0.47619000000000256,
          "durationTicks": 1024,
          "midi": 75,
          "name": "D#5",
          "ticks": 57344,
          "time": 32.305734,
          "velocity": 0.5039370078740157
        },
        {
          "duration": 0.952379999999998,
          "durationTicks": 2048,
          "midi": 48,
          "name": "C3",
          "ticks": 57344,
          "time": 32.305734,
          "velocity": 0.5039370078740157
        },
        {
          "duration": 0.952379999999998,
          "durationTicks": 2048,
          "midi": 58,
          "name": "A#3",
          "ticks": 57344,
          "time": 32.305734,
          "velocity": 0.5039370078740157
        },
        {
          "duration": 0.23809499999999417,
          "durationTicks": 512,
          "midi": 79,
          "name": "G5",
          "ticks": 58880,
          "time": 33.020019000000005,
          "velocity": 0.5039370078740157
        },
        {
          "duration": 0.3571425000000019,
          "durationTicks": 768,
          "midi": 79,
          "name": "G5",
          "ticks": 59392,
          "time": 33.258114,
          "velocity": 0.5039370078740157
        },
        {
          "duration": 1.9047600000000031,
          "durationTicks": 4096,
          "midi": 50,
          "name": "D3",
          "ticks": 59392,
          "time": 33.258114,
          "velocity": 0.5039370078740157
        },
        {
          "duration": 1.9047600000000031,
          "durationTicks": 4096,
          "midi": 60,
          "name": "C4",
          "ticks": 59392,
          "time": 33.258114,
          "velocity": 0.5039370078740157
        },
        {
          "duration": 0.3571425000000019,
          "durationTicks": 768,
          "midi": 77,
          "name": "F5",
          "ticks": 60160,
          "time": 33.6152565,
          "velocity": 0.5039370078740157
        },
        {
          "duration": 0.23809500000000128,
          "durationTicks": 512,
          "midi": 76,
          "name": "E5",
          "ticks": 60928,
          "time": 33.972399,
          "velocity": 0.5039370078740157
        },
        {
          "duration": 0.47618999999999545,
          "durationTicks": 1024,
          "midi": 77,
          "name": "F5",
          "ticks": 61440,
          "time": 34.210494000000004,
          "velocity": 0.5039370078740157
        },
        {
          "duration": 0.47619000000000256,
          "durationTicks": 1024,
          "midi": 72,
          "name": "C5",
          "ticks": 62464,
          "time": 34.686684,
          "velocity": 0.5039370078740157
        },
        {
          "duration": 0.7142849999999967,
          "durationTicks": 1536,
          "midi": 72,
          "name": "C5",
          "ticks": 63488,
          "time": 35.162874,
          "velocity": 0.5039370078740157
        },
        {
          "duration": 0.952379999999998,
          "durationTicks": 2048,
          "midi": 65,
          "name": "F4",
          "ticks": 63488,
          "time": 35.162874,
          "velocity": 0.5039370078740157
        },
        {
          "duration": 0.952379999999998,
          "durationTicks": 2048,
          "midi": 69,
          "name": "A4",
          "ticks": 63488,
          "time": 35.162874,
          "velocity": 0.5039370078740157
        },
        {
          "duration": 0.952379999999998,
          "durationTicks": 2048,
          "midi": 43,
          "name": "G2",
          "ticks": 63488,
          "time": 35.162874,
          "velocity": 0.5039370078740157
        },
        {
          "duration": 0.23809500000000128,
          "durationTicks": 512,
          "midi": 74,
          "name": "D5",
          "ticks": 65024,
          "time": 35.877159,
          "velocity": 0.5039370078740157
        },
        {
          "duration": 0.9523800000000051,
          "durationTicks": 2048,
          "midi": 74,
          "name": "D5",
          "ticks": 65536,
          "time": 36.115254,
          "velocity": 0.5039370078740157
        },
        {
          "duration": 0.9523800000000051,
          "durationTicks": 2048,
          "midi": 67,
          "name": "G4",
          "ticks": 65536,
          "time": 36.115254,
          "velocity": 0.5039370078740157
        },
        {
          "duration": 0.9523800000000051,
          "durationTicks": 2048,
          "midi": 71,
          "name": "B4",
          "ticks": 65536,
          "time": 36.115254,
          "velocity": 0.5039370078740157
        },
        {
          "duration": 0.9523800000000051,
          "durationTicks": 2048,
          "midi": 43,
          "name": "G2",
          "ticks": 65536,
          "time": 36.115254,
          "velocity": 0.5039370078740157
        },
        {
          "duration": 1.904759999999996,
          "durationTicks": 4096,
          "midi": 51,
          "name": "D#3",
          "ticks": 67584,
          "time": 37.067634000000005,
          "velocity": 0.5039370078740157
        },
        {
          "duration": 1.904759999999996,
          "durationTicks": 4096,
          "midi": 55,
          "name": "G3",
          "ticks": 67584,
          "time": 37.067634000000005,
          "velocity": 0.5039370078740157
        },
        {
          "duration": 1.904759999999996,
          "durationTicks": 4096,
          "midi": 58,
          "name": "A#3",
          "ticks": 67584,
          "time": 37.067634000000005,
          "velocity": 0.5039370078740157
        },
        {
          "duration": 0.23809500000000128,
          "durationTicks": 512,
          "midi": 75,
          "name": "D#5",
          "ticks": 68608,
          "time": 37.543824,
          "velocity": 0.5039370078740157
        },
        {
          "duration": 0.11904750000000064,
          "durationTicks": 256,
          "midi": 70,
          "name": "A#4",
          "ticks": 69120,
          "time": 37.781919,
          "velocity": 0.5039370078740157
        },
        {
          "duration": 0.5952374999999961,
          "durationTicks": 1280,
          "midi": 70,
          "name": "A#4",
          "ticks": 69376,
          "time": 37.9009665,
          "velocity": 0.5039370078740157
        },
        {
          "duration": 0.23809500000000128,
          "durationTicks": 512,
          "midi": 75,
          "name": "D#5",
          "ticks": 71168,
          "time": 38.734299,
          "velocity": 0.5039370078740157
        },
        {
          "duration": 0.3571425000000019,
          "durationTicks": 768,
          "midi": 75,
          "name": "D#5",
          "ticks": 71680,
          "time": 38.972394,
          "velocity": 0.5039370078740157
        },
        {
          "duration": 1.9047600000000031,
          "durationTicks": 4096,
          "midi": 46,
          "name": "A#2",
          "ticks": 71680,
          "time": 38.972394,
          "velocity": 0.5039370078740157
        },
        {
          "duration": 1.9047600000000031,
          "durationTicks": 4096,
          "midi": 50,
          "name": "D3",
          "ticks": 71680,
          "time": 38.972394,
          "velocity": 0.5039370078740157
        },
        {
          "duration": 1.9047600000000031,
          "durationTicks": 4096,
          "midi": 53,
          "name": "F3",
          "ticks": 71680,
          "time": 38.972394,
          "velocity": 0.5039370078740157
        },
        {
          "duration": 1.9047600000000031,
          "durationTicks": 4096,
          "midi": 58,
          "name": "A#3",
          "ticks": 71680,
          "time": 38.972394,
          "velocity": 0.5039370078740157
        },
        {
          "duration": 0.3571425000000019,
          "durationTicks": 768,
          "midi": 77,
          "name": "F5",
          "ticks": 72448,
          "time": 39.3295365,
          "velocity": 0.5039370078740157
        },
        {
          "duration": 0.23809499999999417,
          "durationTicks": 512,
          "midi": 70,
          "name": "A#4",
          "ticks": 73216,
          "time": 39.686679000000005,
          "velocity": 0.5039370078740157
        },
        {
          "duration": 0.47619000000000256,
          "durationTicks": 1024,
          "midi": 70,
          "name": "A#4",
          "ticks": 73728,
          "time": 39.924774,
          "velocity": 0.5039370078740157
        },
        {
          "duration": 0.23809500000000128,
          "durationTicks": 512,
          "midi": 70,
          "name": "A#4",
          "ticks": 75264,
          "time": 40.639059,
          "velocity": 0.5039370078740157
        },
        {
          "duration": 0.3571424999999948,
          "durationTicks": 768,
          "midi": 79,
          "name": "G5",
          "ticks": 75776,
          "time": 40.877154000000004,
          "velocity": 0.5039370078740157
        },
        {
          "duration": 0.952379999999998,
          "durationTicks": 2048,
          "midi": 48,
          "name": "C3",
          "ticks": 75776,
          "time": 40.877154000000004,
          "velocity": 0.5039370078740157
        },
        {
          "duration": 0.952379999999998,
          "durationTicks": 2048,
          "midi": 51,
          "name": "D#3",
          "ticks": 75776,
          "time": 40.877154000000004,
          "velocity": 0.5039370078740157
        },
        {
          "duration": 0.952379999999998,
          "durationTicks": 2048,
          "midi": 55,
          "name": "G3",
          "ticks": 75776,
          "time": 40.877154000000004,
          "velocity": 0.5039370078740157
        },
        {
          "duration": 0.3571425000000019,
          "durationTicks": 768,
          "midi": 80,
          "name": "G#5",
          "ticks": 76544,
          "time": 41.2342965,
          "velocity": 0.5039370078740157
        },
        {
          "duration": 0.23809500000000128,
          "durationTicks": 512,
          "midi": 79,
          "name": "G5",
          "ticks": 77312,
          "time": 41.591439,
          "velocity": 0.5039370078740157
        },
        {
          "duration": 0.3571425000000019,
          "durationTicks": 768,
          "midi": 77,
          "name": "F5",
          "ticks": 77824,
          "time": 41.829534,
          "velocity": 0.5039370078740157
        },
        {
          "duration": 0.952379999999998,
          "durationTicks": 2048,
          "midi": 46,
          "name": "A#2",
          "ticks": 77824,
          "time": 41.829534,
          "velocity": 0.5039370078740157
        },
        {
          "duration": 0.952379999999998,
          "durationTicks": 2048,
          "midi": 50,
          "name": "D3",
          "ticks": 77824,
          "time": 41.829534,
          "velocity": 0.5039370078740157
        },
        {
          "duration": 0.952379999999998,
          "durationTicks": 2048,
          "midi": 53,
          "name": "F3",
          "ticks": 77824,
          "time": 41.829534,
          "velocity": 0.5039370078740157
        },
        {
          "duration": 0.952379999999998,
          "durationTicks": 2048,
          "midi": 55,
          "name": "G3",
          "ticks": 77824,
          "time": 41.829534,
          "velocity": 0.5039370078740157
        },
        {
          "duration": 0.3571424999999948,
          "durationTicks": 768,
          "midi": 75,
          "name": "D#5",
          "ticks": 78592,
          "time": 42.186676500000004,
          "velocity": 0.5039370078740157
        },
        {
          "duration": 0.23809500000000128,
          "durationTicks": 512,
          "midi": 77,
          "name": "F5",
          "ticks": 79360,
          "time": 42.543819,
          "velocity": 0.5039370078740157
        },
        {
          "duration": 0.3571425000000019,
          "durationTicks": 768,
          "midi": 79,
          "name": "G5",
          "ticks": 79872,
          "time": 42.781914,
          "velocity": 0.5039370078740157
        },
        {
          "duration": 1.9047600000000031,
          "durationTicks": 4096,
          "midi": 44,
          "name": "G#2",
          "ticks": 79872,
          "time": 42.781914,
          "velocity": 0.5039370078740157
        },
        {
          "duration": 1.9047600000000031,
          "durationTicks": 4096,
          "midi": 48,
          "name": "C3",
          "ticks": 79872,
          "time": 42.781914,
          "velocity": 0.5039370078740157
        },
        {
          "duration": 1.9047600000000031,
          "durationTicks": 4096,
          "midi": 51,
          "name": "D#3",
          "ticks": 79872,
          "time": 42.781914,
          "velocity": 0.5039370078740157
        },
        {
          "duration": 1.9047600000000031,
          "durationTicks": 4096,
          "midi": 55,
          "name": "G3",
          "ticks": 79872,
          "time": 42.781914,
          "velocity": 0.5039370078740157
        },
        {
          "duration": 0.3571425000000019,
          "durationTicks": 768,
          "midi": 80,
          "name": "G#5",
          "ticks": 80640,
          "time": 43.1390565,
          "velocity": 0.5039370078740157
        },
        {
          "duration": 0.23809499999999417,
          "durationTicks": 512,
          "midi": 79,
          "name": "G5",
          "ticks": 81408,
          "time": 43.496199000000004,
          "velocity": 0.5039370078740157
        },
        {
          "duration": 0.47619000000000256,
          "durationTicks": 1024,
          "midi": 72,
          "name": "C5",
          "ticks": 81920,
          "time": 43.734294,
          "velocity": 0.5039370078740157
        },
        {
          "duration": 0.11904750000000064,
          "durationTicks": 256,
          "midi": 72,
          "name": "C5",
          "ticks": 83456,
          "time": 44.448579,
          "velocity": 0.5039370078740157
        },
        {
          "duration": 0.11904750000000064,
          "durationTicks": 256,
          "midi": 74,
          "name": "D5",
          "ticks": 83712,
          "time": 44.5676265,
          "velocity": 0.5039370078740157
        },
        {
          "duration": 0.3571424999999948,
          "durationTicks": 768,
          "midi": 75,
          "name": "D#5",
          "ticks": 83968,
          "time": 44.686674000000004,
          "velocity": 0.5039370078740157
        },
        {
          "duration": 0.952379999999998,
          "durationTicks": 2048,
          "midi": 46,
          "name": "A#2",
          "ticks": 83968,
          "time": 44.686674000000004,
          "velocity": 0.5039370078740157
        },
        {
          "duration": 0.952379999999998,
          "durationTicks": 2048,
          "midi": 51,
          "name": "D#3",
          "ticks": 83968,
          "time": 44.686674000000004,
          "velocity": 0.5039370078740157
        },
        {
          "duration": 0.952379999999998,
          "durationTicks": 2048,
          "midi": 53,
          "name": "F3",
          "ticks": 83968,
          "time": 44.686674000000004,
          "velocity": 0.5039370078740157
        },
        {
          "duration": 0.3571425000000019,
          "durationTicks": 768,
          "midi": 75,
          "name": "D#5",
          "ticks": 84736,
          "time": 45.0438165,
          "velocity": 0.5039370078740157
        },
        {
          "duration": 0.23809500000000128,
          "durationTicks": 512,
          "midi": 74,
          "name": "D5",
          "ticks": 85504,
          "time": 45.400959,
          "velocity": 0.5039370078740157
        },
        {
          "duration": 0.47619000000000256,
          "durationTicks": 1024,
          "midi": 74,
          "name": "D5",
          "ticks": 86016,
          "time": 45.639054,
          "velocity": 0.5039370078740157
        },
        {
          "duration": 0.9523800000000051,
          "durationTicks": 2048,
          "midi": 46,
          "name": "A#2",
          "ticks": 86016,
          "time": 45.639054,
          "velocity": 0.5039370078740157
        },
        {
          "duration": 0.9523800000000051,
          "durationTicks": 2048,
          "midi": 50,
          "name": "D3",
          "ticks": 86016,
          "time": 45.639054,
          "velocity": 0.5039370078740157
        },
        {
          "duration": 0.9523800000000051,
          "durationTicks": 2048,
          "midi": 53,
          "name": "F3",
          "ticks": 86016,
          "time": 45.639054,
          "velocity": 0.5039370078740157
        },
        {
          "duration": 0.11904750000000064,
          "durationTicks": 256,
          "midi": 75,
          "name": "D#5",
          "ticks": 87552,
          "time": 46.353339000000005,
          "velocity": 0.5039370078740157
        },
        {
          "duration": 0.11904750000000064,
          "durationTicks": 256,
          "midi": 77,
          "name": "F5",
          "ticks": 87808,
          "time": 46.472386500000006,
          "velocity": 0.5039370078740157
        },
        {
          "duration": 0.3571424999999948,
          "durationTicks": 768,
          "midi": 80,
          "name": "G#5",
          "ticks": 88064,
          "time": 46.59143400000001,
          "velocity": 0.5039370078740157
        },
        {
          "duration": 0.952379999999998,
          "durationTicks": 2048,
          "midi": 51,
          "name": "D#3",
          "ticks": 88064,
          "time": 46.59143400000001,
          "velocity": 0.5039370078740157
        },
        {
          "duration": 0.952379999999998,
          "durationTicks": 2048,
          "midi": 58,
          "name": "A#3",
          "ticks": 88064,
          "time": 46.59143400000001,
          "velocity": 0.5039370078740157
        },
        {
          "duration": 0.3571425000000019,
          "durationTicks": 768,
          "midi": 79,
          "name": "G5",
          "ticks": 88832,
          "time": 46.9485765,
          "velocity": 0.5039370078740157
        },
        {
          "duration": 0.23809500000000128,
          "durationTicks": 512,
          "midi": 77,
          "name": "F5",
          "ticks": 89600,
          "time": 47.305719,
          "velocity": 0.5039370078740157
        },
        {
          "duration": 0.47618999999999545,
          "durationTicks": 1024,
          "midi": 75,
          "name": "D#5",
          "ticks": 90112,
          "time": 47.543814000000005,
          "velocity": 0.5039370078740157
        },
        {
          "duration": 0.952379999999998,
          "durationTicks": 2048,
          "midi": 48,
          "name": "C3",
          "ticks": 90112,
          "time": 47.543814000000005,
          "velocity": 0.5039370078740157
        },
        {
          "duration": 0.952379999999998,
          "durationTicks": 2048,
          "midi": 58,
          "name": "A#3",
          "ticks": 90112,
          "time": 47.543814000000005,
          "velocity": 0.5039370078740157
        },
        {
          "duration": 0.23809500000000128,
          "durationTicks": 512,
          "midi": 79,
          "name": "G5",
          "ticks": 91648,
          "time": 48.258099,
          "velocity": 0.5039370078740157
        },
        {
          "duration": 0.3571425000000019,
          "durationTicks": 768,
          "midi": 79,
          "name": "G5",
          "ticks": 92160,
          "time": 48.496194,
          "velocity": 0.5039370078740157
        },
        {
          "duration": 1.9047600000000031,
          "durationTicks": 4096,
          "midi": 50,
          "name": "D3",
          "ticks": 92160,
          "time": 48.496194,
          "velocity": 0.5039370078740157
        },
        {
          "duration": 1.9047600000000031,
          "durationTicks": 4096,
          "midi": 60,
          "name": "C4",
          "ticks": 92160,
          "time": 48.496194,
          "velocity": 0.5039370078740157
        },
        {
          "duration": 0.3571425000000019,
          "durationTicks": 768,
          "midi": 77,
          "name": "F5",
          "ticks": 92928,
          "time": 48.853336500000005,
          "velocity": 0.5039370078740157
        },
        {
          "duration": 0.23809499999999417,
          "durationTicks": 512,
          "midi": 76,
          "name": "E5",
          "ticks": 93696,
          "time": 49.21047900000001,
          "velocity": 0.5039370078740157
        },
        {
          "duration": 0.3571425000000019,
          "durationTicks": 768,
          "midi": 77,
          "name": "F5",
          "ticks": 94208,
          "time": 49.448574,
          "velocity": 0.5039370078740157
        },
        {
          "duration": 0.3571425000000019,
          "durationTicks": 768,
          "midi": 79,
          "name": "G5",
          "ticks": 94976,
          "time": 49.8057165,
          "velocity": 0.5039370078740157
        },
        {
          "duration": 0.23809500000000128,
          "durationTicks": 512,
          "midi": 80,
          "name": "G#5",
          "ticks": 95744,
          "time": 50.162859000000005,
          "velocity": 0.5039370078740157
        },
        {
          "duration": 1.4285700000000006,
          "durationTicks": 3072,
          "midi": 79,
          "name": "G5",
          "ticks": 96256,
          "time": 50.400954000000006,
          "velocity": 0.5039370078740157
        },
        {
          "duration": 0.47618999999999545,
          "durationTicks": 1024,
          "midi": 69,
          "name": "A4",
          "ticks": 96256,
          "time": 50.400954000000006,
          "velocity": 0.5039370078740157
        },
        {
          "duration": 0.47618999999999545,
          "durationTicks": 1024,
          "midi": 72,
          "name": "C5",
          "ticks": 96256,
          "time": 50.400954000000006,
          "velocity": 0.5039370078740157
        },
        {
          "duration": 0.47618999999999545,
          "durationTicks": 1024,
          "midi": 43,
          "name": "G2",
          "ticks": 96256,
          "time": 50.400954000000006,
          "velocity": 0.5039370078740157
        },
        {
          "duration": 0.47619000000000256,
          "durationTicks": 1024,
          "midi": 67,
          "name": "G4",
          "ticks": 97280,
          "time": 50.877144,
          "velocity": 0.5039370078740157
        },
        {
          "duration": 0.47619000000000256,
          "durationTicks": 1024,
          "midi": 71,
          "name": "B4",
          "ticks": 97280,
          "time": 50.877144,
          "velocity": 0.5039370078740157
        },
        {
          "duration": 0.47619000000000256,
          "durationTicks": 1024,
          "midi": 43,
          "name": "G2",
          "ticks": 97280,
          "time": 50.877144,
          "velocity": 0.5039370078740157
        },
        {
          "duration": 0.47619000000000256,
          "durationTicks": 1024,
          "midi": 69,
          "name": "A4",
          "ticks": 98304,
          "time": 51.353334000000004,
          "velocity": 0.5039370078740157
        },
        {
          "duration": 0.47619000000000256,
          "durationTicks": 1024,
          "midi": 72,
          "name": "C5",
          "ticks": 98304,
          "time": 51.353334000000004,
          "velocity": 0.5039370078740157
        },
        {
          "duration": 0.47619000000000256,
          "durationTicks": 1024,
          "midi": 43,
          "name": "G2",
          "ticks": 98304,
          "time": 51.353334000000004,
          "velocity": 0.5039370078740157
        },
        {
          "duration": 0.47618999999999545,
          "durationTicks": 1024,
          "midi": 71,
          "name": "B4",
          "ticks": 99328,
          "time": 51.829524000000006,
          "velocity": 0.5039370078740157
        },
        {
          "duration": 0.47618999999999545,
          "durationTicks": 1024,
          "midi": 74,
          "name": "D5",
          "ticks": 99328,
          "time": 51.829524000000006,
          "velocity": 0.5039370078740157
        },
        {
          "duration": 0.47618999999999545,
          "durationTicks": 1024,
          "midi": 43,
          "name": "G2",
          "ticks": 99328,
          "time": 51.829524000000006,
          "velocity": 0.5039370078740157
        },
        {
          "duration": 0.3571425000000019,
          "durationTicks": 768,
          "midi": 75,
          "name": "D#5",
          "ticks": 100352,
          "time": 52.305714,
          "velocity": 0.5039370078740157
        },
        {
          "duration": 1.9047600000000031,
          "durationTicks": 4096,
          "midi": 67,
          "name": "G4",
          "ticks": 100352,
          "time": 52.305714,
          "velocity": 0.5039370078740157
        },
        {
          "duration": 1.9047600000000031,
          "durationTicks": 4096,
          "midi": 72,
          "name": "C5",
          "ticks": 100352,
          "time": 52.305714,
          "velocity": 0.5039370078740157
        },
        {
          "duration": 0.23809500000000128,
          "durationTicks": 512,
          "midi": 44,
          "name": "G#2",
          "ticks": 100352,
          "time": 52.305714,
          "velocity": 0.5039370078740157
        },
        {
          "duration": 0.23809500000000128,
          "durationTicks": 512,
          "midi": 44,
          "name": "G#2",
          "ticks": 100864,
          "time": 52.543809,
          "velocity": 0.5039370078740157
        },
        {
          "duration": 0.3571425000000019,
          "durationTicks": 768,
          "midi": 75,
          "name": "D#5",
          "ticks": 101120,
          "time": 52.662856500000004,
          "velocity": 0.5039370078740157
        },
        {
          "duration": 0.23809500000000128,
          "durationTicks": 512,
          "midi": 44,
          "name": "G#2",
          "ticks": 101376,
          "time": 52.781904000000004,
          "velocity": 0.5039370078740157
        },
        {
          "duration": 0.23809500000000128,
          "durationTicks": 512,
          "midi": 74,
          "name": "D5",
          "ticks": 101888,
          "time": 53.019999000000006,
          "velocity": 0.5039370078740157
        },
        {
          "duration": 0.23809500000000128,
          "durationTicks": 512,
          "midi": 44,
          "name": "G#2",
          "ticks": 101888,
          "time": 53.019999000000006,
          "velocity": 0.5039370078740157
        },
        {
          "duration": 0.3571424999999948,
          "durationTicks": 768,
          "midi": 75,
          "name": "D#5",
          "ticks": 102400,
          "time": 53.25809400000001,
          "velocity": 0.5039370078740157
        },
        {
          "duration": 0.23809499999999417,
          "durationTicks": 512,
          "midi": 44,
          "name": "G#2",
          "ticks": 102400,
          "time": 53.25809400000001,
          "velocity": 0.5039370078740157
        },
        {
          "duration": 0.23809500000000128,
          "durationTicks": 512,
          "midi": 44,
          "name": "G#2",
          "ticks": 102912,
          "time": 53.496189,
          "velocity": 0.5039370078740157
        },
        {
          "duration": 0.3571425000000019,
          "durationTicks": 768,
          "midi": 75,
          "name": "D#5",
          "ticks": 103168,
          "time": 53.6152365,
          "velocity": 0.5039370078740157
        },
        {
          "duration": 0.23809500000000128,
          "durationTicks": 512,
          "midi": 44,
          "name": "G#2",
          "ticks": 103424,
          "time": 53.734284,
          "velocity": 0.5039370078740157
        },
        {
          "duration": 0.23809500000000128,
          "durationTicks": 512,
          "midi": 74,
          "name": "D5",
          "ticks": 103936,
          "time": 53.972379000000004,
          "velocity": 0.5039370078740157
        },
        {
          "duration": 0.23809500000000128,
          "durationTicks": 512,
          "midi": 44,
          "name": "G#2",
          "ticks": 103936,
          "time": 53.972379000000004,
          "velocity": 0.5039370078740157
        },
        {
          "duration": 0.3571425000000019,
          "durationTicks": 768,
          "midi": 77,
          "name": "F5",
          "ticks": 104448,
          "time": 54.210474000000005,
          "velocity": 0.5039370078740157
        },
        {
          "duration": 0.952379999999998,
          "durationTicks": 2048,
          "midi": 70,
          "name": "A#4",
          "ticks": 104448,
          "time": 54.210474000000005,
          "velocity": 0.5039370078740157
        },
        {
          "duration": 0.952379999999998,
          "durationTicks": 2048,
          "midi": 74,
          "name": "D5",
          "ticks": 104448,
          "time": 54.210474000000005,
          "velocity": 0.5039370078740157
        },
        {
          "duration": 0.23809500000000128,
          "durationTicks": 512,
          "midi": 43,
          "name": "G2",
          "ticks": 104448,
          "time": 54.210474000000005,
          "velocity": 0.5039370078740157
        },
        {
          "duration": 0.23809499999999417,
          "durationTicks": 512,
          "midi": 43,
          "name": "G2",
          "ticks": 104960,
          "time": 54.448569000000006,
          "velocity": 0.5039370078740157
        },
        {
          "duration": 0.3571424999999948,
          "durationTicks": 768,
          "midi": 77,
          "name": "F5",
          "ticks": 105216,
          "time": 54.56761650000001,
          "velocity": 0.5039370078740157
        },
        {
          "duration": 0.23809500000000128,
          "durationTicks": 512,
          "midi": 43,
          "name": "G2",
          "ticks": 105472,
          "time": 54.686664,
          "velocity": 0.5039370078740157
        },
        {
          "duration": 0.23809500000000128,
          "durationTicks": 512,
          "midi": 75,
          "name": "D#5",
          "ticks": 105984,
          "time": 54.924759,
          "velocity": 0.5039370078740157
        },
        {
          "duration": 0.23809500000000128,
          "durationTicks": 512,
          "midi": 43,
          "name": "G2",
          "ticks": 105984,
          "time": 54.924759,
          "velocity": 0.5039370078740157
        },
        {
          "duration": 0.3571425000000019,
          "durationTicks": 768,
          "midi": 74,
          "name": "D5",
          "ticks": 106496,
          "time": 55.162854,
          "velocity": 0.5039370078740157
        },
        {
          "duration": 0.952379999999998,
          "durationTicks": 2048,
          "midi": 67,
          "name": "G4",
          "ticks": 106496,
          "time": 55.162854,
          "velocity": 0.5039370078740157
        },
        {
          "duration": 0.952379999999998,
          "durationTicks": 2048,
          "midi": 70,
          "name": "A#4",
          "ticks": 106496,
          "time": 55.162854,
          "velocity": 0.5039370078740157
        },
        {
          "duration": 0.23809500000000128,
          "durationTicks": 512,
          "midi": 48,
          "name": "C3",
          "ticks": 106496,
          "time": 55.162854,
          "velocity": 0.5039370078740157
        },
        {
          "duration": 0.23809500000000128,
          "durationTicks": 512,
          "midi": 48,
          "name": "C3",
          "ticks": 107008,
          "time": 55.400949000000004,
          "velocity": 0.5039370078740157
        },
        {
          "duration": 0.3571425000000019,
          "durationTicks": 768,
          "midi": 72,
          "name": "C5",
          "ticks": 107264,
          "time": 55.519996500000005,
          "velocity": 0.5039370078740157
        },
        {
          "duration": 0.23809500000000128,
          "durationTicks": 512,
          "midi": 48,
          "name": "C3",
          "ticks": 107520,
          "time": 55.639044000000005,
          "velocity": 0.5039370078740157
        },
        {
          "duration": 0.23809499999999417,
          "durationTicks": 512,
          "midi": 74,
          "name": "D5",
          "ticks": 108032,
          "time": 55.87713900000001,
          "velocity": 0.5039370078740157
        },
        {
          "duration": 0.23809499999999417,
          "durationTicks": 512,
          "midi": 48,
          "name": "C3",
          "ticks": 108032,
          "time": 55.87713900000001,
          "velocity": 0.5039370078740157
        },
        {
          "duration": 0.3571425000000019,
          "durationTicks": 768,
          "midi": 75,
          "name": "D#5",
          "ticks": 108544,
          "time": 56.115234,
          "velocity": 0.5039370078740157
        },
        {
          "duration": 0.9523800000000051,
          "durationTicks": 2048,
          "midi": 68,
          "name": "G#4",
          "ticks": 108544,
          "time": 56.115234,
          "velocity": 0.5039370078740157
        },
        {
          "duration": 0.9523800000000051,
          "durationTicks": 2048,
          "midi": 72,
          "name": "C5",
          "ticks": 108544,
          "time": 56.115234,
          "velocity": 0.5039370078740157
        },
        {
          "duration": 0.23809500000000128,
          "durationTicks": 512,
          "midi": 41,
          "name": "F2",
          "ticks": 108544,
          "time": 56.115234,
          "velocity": 0.5039370078740157
        },
        {
          "duration": 0.23809500000000128,
          "durationTicks": 512,
          "midi": 41,
          "name": "F2",
          "ticks": 109056,
          "time": 56.353329,
          "velocity": 0.5039370078740157
        },
        {
          "duration": 0.3571425000000019,
          "durationTicks": 768,
          "midi": 75,
          "name": "D#5",
          "ticks": 109312,
          "time": 56.4723765,
          "velocity": 0.5039370078740157
        },
        {
          "duration": 0.23809500000000128,
          "durationTicks": 512,
          "midi": 41,
          "name": "F2",
          "ticks": 109568,
          "time": 56.591424,
          "velocity": 0.5039370078740157
        },
        {
          "duration": 0.23809500000000128,
          "durationTicks": 512,
          "midi": 74,
          "name": "D5",
          "ticks": 110080,
          "time": 56.829519000000005,
          "velocity": 0.5039370078740157
        },
        {
          "duration": 0.23809500000000128,
          "durationTicks": 512,
          "midi": 41,
          "name": "F2",
          "ticks": 110080,
          "time": 56.829519000000005,
          "velocity": 0.5039370078740157
        },
        {
          "duration": 0.3571424999999948,
          "durationTicks": 768,
          "midi": 77,
          "name": "F5",
          "ticks": 110592,
          "time": 57.067614000000006,
          "velocity": 0.5039370078740157
        },
        {
          "duration": 0.952379999999998,
          "durationTicks": 2048,
          "midi": 68,
          "name": "G#4",
          "ticks": 110592,
          "time": 57.067614000000006,
          "velocity": 0.5039370078740157
        },
        {
          "duration": 0.952379999999998,
          "durationTicks": 2048,
          "midi": 72,
          "name": "C5",
          "ticks": 110592,
          "time": 57.067614000000006,
          "velocity": 0.5039370078740157
        },
        {
          "duration": 0.23809499999999417,
          "durationTicks": 512,
          "midi": 46,
          "name": "A#2",
          "ticks": 110592,
          "time": 57.067614000000006,
          "velocity": 0.5039370078740157
        },
        {
          "duration": 0.23809500000000128,
          "durationTicks": 512,
          "midi": 46,
          "name": "A#2",
          "ticks": 111104,
          "time": 57.305709,
          "velocity": 0.5039370078740157
        },
        {
          "duration": 0.3571425000000019,
          "durationTicks": 768,
          "midi": 74,
          "name": "D5",
          "ticks": 111360,
          "time": 57.4247565,
          "velocity": 0.5039370078740157
        },
        {
          "duration": 0.23809500000000128,
          "durationTicks": 512,
          "midi": 46,
          "name": "A#2",
          "ticks": 111616,
          "time": 57.543804,
          "velocity": 0.5039370078740157
        },
        {
          "duration": 0.23809500000000128,
          "durationTicks": 512,
          "midi": 72,
          "name": "C5",
          "ticks": 112128,
          "time": 57.781899,
          "velocity": 0.5039370078740157
        },
        {
          "duration": 0.23809500000000128,
          "durationTicks": 512,
          "midi": 46,
          "name": "A#2",
          "ticks": 112128,
          "time": 57.781899,
          "velocity": 0.5039370078740157
        },
        {
          "duration": 0.47619000000000256,
          "durationTicks": 1024,
          "midi": 73,
          "name": "C#5",
          "ticks": 112640,
          "time": 58.019994000000004,
          "velocity": 0.5039370078740157
        },
        {
          "duration": 0.47619000000000256,
          "durationTicks": 1024,
          "midi": 77,
          "name": "F5",
          "ticks": 112640,
          "time": 58.019994000000004,
          "velocity": 0.5039370078740157
        },
        {
          "duration": 0.952379999999998,
          "durationTicks": 2048,
          "midi": 70,
          "name": "A#4",
          "ticks": 112640,
          "time": 58.019994000000004,
          "velocity": 0.5039370078740157
        },
        {
          "duration": 0.23809500000000128,
          "durationTicks": 512,
          "midi": 46,
          "name": "A#2",
          "ticks": 112640,
          "time": 58.019994000000004,
          "velocity": 0.5039370078740157
        },
        {
          "duration": 0.23809500000000128,
          "durationTicks": 512,
          "midi": 46,
          "name": "A#2",
          "ticks": 113152,
          "time": 58.258089000000005,
          "velocity": 0.5039370078740157
        },
        {
          "duration": 0.47618999999999545,
          "durationTicks": 1024,
          "midi": 75,
          "name": "D#5",
          "ticks": 113664,
          "time": 58.49618400000001,
          "velocity": 0.5039370078740157
        },
        {
          "duration": 0.47618999999999545,
          "durationTicks": 1024,
          "midi": 79,
          "name": "G5",
          "ticks": 113664,
          "time": 58.49618400000001,
          "velocity": 0.5039370078740157
        },
        {
          "duration": 0.23809499999999417,
          "durationTicks": 512,
          "midi": 53,
          "name": "F3",
          "ticks": 113664,
          "time": 58.49618400000001,
          "velocity": 0.5039370078740157
        },
        {
          "duration": 0.23809500000000128,
          "durationTicks": 512,
          "midi": 52,
          "name": "E3",
          "ticks": 114176,
          "time": 58.734279,
          "velocity": 0.5039370078740157
        },
        {
          "duration": 0.47619000000000256,
          "durationTicks": 1024,
          "midi": 77,
          "name": "F5",
          "ticks": 114688,
          "time": 58.972374,
          "velocity": 0.5039370078740157
        },
        {
          "duration": 0.47619000000000256,
          "durationTicks": 1024,
          "midi": 80,
          "name": "G#5",
          "ticks": 114688,
          "time": 58.972374,
          "velocity": 0.5039370078740157
        },
        {
          "duration": 0.23809500000000128,
          "durationTicks": 512,
          "midi": 51,
          "name": "D#3",
          "ticks": 114688,
          "time": 58.972374,
          "velocity": 0.5039370078740157
        },
        {
          "duration": 0.23809500000000128,
          "durationTicks": 512,
          "midi": 51,
          "name": "D#3",
          "ticks": 115200,
          "time": 59.210469,
          "velocity": 0.5039370078740157
        },
        {
          "duration": 0.47619000000000256,
          "durationTicks": 1024,
          "midi": 79,
          "name": "G5",
          "ticks": 115712,
          "time": 59.448564000000005,
          "velocity": 0.5039370078740157
        },
        {
          "duration": 0.47619000000000256,
          "durationTicks": 1024,
          "midi": 82,
          "name": "A#5",
          "ticks": 115712,
          "time": 59.448564000000005,
          "velocity": 0.5039370078740157
        },
        {
          "duration": 0.23809500000000128,
          "durationTicks": 512,
          "midi": 46,
          "name": "A#2",
          "ticks": 115712,
          "time": 59.448564000000005,
          "velocity": 0.5039370078740157
        },
        {
          "duration": 0.23809500000000128,
          "durationTicks": 512,
          "midi": 45,
          "name": "A2",
          "ticks": 116224,
          "time": 59.686659000000006,
          "velocity": 0.5039370078740157
        },
        {
          "duration": 0.3571424999999948,
          "durationTicks": 768,
          "midi": 72,
          "name": "C5",
          "ticks": 116736,
          "time": 59.92475400000001,
          "velocity": 0.5039370078740157
        },
        {
          "duration": 0.3571424999999948,
          "durationTicks": 768,
          "midi": 75,
          "name": "D#5",
          "ticks": 116736,
          "time": 59.92475400000001,
          "velocity": 0.5039370078740157
        },
        {
          "duration": 0.23809499999999417,
          "durationTicks": 512,
          "midi": 44,
          "name": "G#2",
          "ticks": 116736,
          "time": 59.92475400000001,
          "velocity": 0.5039370078740157
        },
        {
          "duration": 0.23809500000000128,
          "durationTicks": 512,
          "midi": 44,
          "name": "G#2",
          "ticks": 117248,
          "time": 60.162849,
          "velocity": 0.5039370078740157
        },
        {
          "duration": 0.3571425000000019,
          "durationTicks": 768,
          "midi": 72,
          "name": "C5",
          "ticks": 117504,
          "time": 60.2818965,
          "velocity": 0.5039370078740157
        },
        {
          "duration": 0.3571425000000019,
          "durationTicks": 768,
          "midi": 75,
          "name": "D#5",
          "ticks": 117504,
          "time": 60.2818965,
          "velocity": 0.5039370078740157
        },
        {
          "duration": 0.23809500000000128,
          "durationTicks": 512,
          "midi": 44,
          "name": "G#2",
          "ticks": 117760,
          "time": 60.400944,
          "velocity": 0.5039370078740157
        },
        {
          "duration": 0.23809500000000128,
          "durationTicks": 512,
          "midi": 70,
          "name": "A#4",
          "ticks": 118272,
          "time": 60.639039000000004,
          "velocity": 0.5039370078740157
        },
        {
          "duration": 0.23809500000000128,
          "durationTicks": 512,
          "midi": 74,
          "name": "D5",
          "ticks": 118272,
          "time": 60.639039000000004,
          "velocity": 0.5039370078740157
        },
        {
          "duration": 0.23809500000000128,
          "durationTicks": 512,
          "midi": 44,
          "name": "G#2",
          "ticks": 118272,
          "time": 60.639039000000004,
          "velocity": 0.5039370078740157
        },
        {
          "duration": 0.3571425000000019,
          "durationTicks": 768,
          "midi": 72,
          "name": "C5",
          "ticks": 118784,
          "time": 60.877134000000005,
          "velocity": 0.5039370078740157
        },
        {
          "duration": 0.3571425000000019,
          "durationTicks": 768,
          "midi": 75,
          "name": "D#5",
          "ticks": 118784,
          "time": 60.877134000000005,
          "velocity": 0.5039370078740157
        },
        {
          "duration": 0.23809500000000128,
          "durationTicks": 512,
          "midi": 44,
          "name": "G#2",
          "ticks": 118784,
          "time": 60.877134000000005,
          "velocity": 0.5039370078740157
        },
        {
          "duration": 0.23809499999999417,
          "durationTicks": 512,
          "midi": 44,
          "name": "G#2",
          "ticks": 119296,
          "time": 61.11522900000001,
          "velocity": 0.5039370078740157
        },
        {
          "duration": 0.3571424999999948,
          "durationTicks": 768,
          "midi": 72,
          "name": "C5",
          "ticks": 119552,
          "time": 61.23427650000001,
          "velocity": 0.5039370078740157
        },
        {
          "duration": 0.3571424999999948,
          "durationTicks": 768,
          "midi": 75,
          "name": "D#5",
          "ticks": 119552,
          "time": 61.23427650000001,
          "velocity": 0.5039370078740157
        },
        {
          "duration": 0.23809500000000128,
          "durationTicks": 512,
          "midi": 44,
          "name": "G#2",
          "ticks": 119808,
          "time": 61.353324,
          "velocity": 0.5039370078740157
        },
        {
          "duration": 0.23809500000000128,
          "durationTicks": 512,
          "midi": 70,
          "name": "A#4",
          "ticks": 120320,
          "time": 61.591419,
          "velocity": 0.5039370078740157
        },
        {
          "duration": 0.23809500000000128,
          "durationTicks": 512,
          "midi": 74,
          "name": "D5",
          "ticks": 120320,
          "time": 61.591419,
          "velocity": 0.5039370078740157
        },
        {
          "duration": 0.23809500000000128,
          "durationTicks": 512,
          "midi": 44,
          "name": "G#2",
          "ticks": 120320,
          "time": 61.591419,
          "velocity": 0.5039370078740157
        },
        {
          "duration": 0.3571425000000019,
          "durationTicks": 768,
          "midi": 74,
          "name": "D5",
          "ticks": 120832,
          "time": 61.829514,
          "velocity": 0.5039370078740157
        },
        {
          "duration": 0.3571425000000019,
          "durationTicks": 768,
          "midi": 77,
          "name": "F5",
          "ticks": 120832,
          "time": 61.829514,
          "velocity": 0.5039370078740157
        },
        {
          "duration": 0.23809500000000128,
          "durationTicks": 512,
          "midi": 43,
          "name": "G2",
          "ticks": 120832,
          "time": 61.829514,
          "velocity": 0.5039370078740157
        },
        {
          "duration": 0.23809500000000128,
          "durationTicks": 512,
          "midi": 43,
          "name": "G2",
          "ticks": 121344,
          "time": 62.067609000000004,
          "velocity": 0.5039370078740157
        },
        {
          "duration": 0.3571425000000019,
          "durationTicks": 768,
          "midi": 74,
          "name": "D5",
          "ticks": 121600,
          "time": 62.186656500000005,
          "velocity": 0.5039370078740157
        },
        {
          "duration": 0.3571425000000019,
          "durationTicks": 768,
          "midi": 77,
          "name": "F5",
          "ticks": 121600,
          "time": 62.186656500000005,
          "velocity": 0.5039370078740157
        },
        {
          "duration": 0.23809500000000128,
          "durationTicks": 512,
          "midi": 43,
          "name": "G2",
          "ticks": 121856,
          "time": 62.305704000000006,
          "velocity": 0.5039370078740157
        },
        {
          "duration": 0.23809499999999417,
          "durationTicks": 512,
          "midi": 72,
          "name": "C5",
          "ticks": 122368,
          "time": 62.54379900000001,
          "velocity": 0.5039370078740157
        },
        {
          "duration": 0.23809499999999417,
          "durationTicks": 512,
          "midi": 75,
          "name": "D#5",
          "ticks": 122368,
          "time": 62.54379900000001,
          "velocity": 0.5039370078740157
        },
        {
          "duration": 0.23809499999999417,
          "durationTicks": 512,
          "midi": 43,
          "name": "G2",
          "ticks": 122368,
          "time": 62.54379900000001,
          "velocity": 0.5039370078740157
        },
        {
          "duration": 0.3571425000000019,
          "durationTicks": 768,
          "midi": 70,
          "name": "A#4",
          "ticks": 122880,
          "time": 62.781894,
          "velocity": 0.5039370078740157
        },
        {
          "duration": 0.3571425000000019,
          "durationTicks": 768,
          "midi": 74,
          "name": "D5",
          "ticks": 122880,
          "time": 62.781894,
          "velocity": 0.5039370078740157
        },
        {
          "duration": 0.23809500000000128,
          "durationTicks": 512,
          "midi": 48,
          "name": "C3",
          "ticks": 122880,
          "time": 62.781894,
          "velocity": 0.5039370078740157
        },
        {
          "duration": 0.23809500000000128,
          "durationTicks": 512,
          "midi": 48,
          "name": "C3",
          "ticks": 123392,
          "time": 63.019989,
          "velocity": 0.5039370078740157
        },
        {
          "duration": 0.3571425000000019,
          "durationTicks": 768,
          "midi": 72,
          "name": "C5",
          "ticks": 123648,
          "time": 63.1390365,
          "velocity": 0.5039370078740157
        },
        {
          "duration": 0.3571425000000019,
          "durationTicks": 768,
          "midi": 75,
          "name": "D#5",
          "ticks": 123648,
          "time": 63.1390365,
          "velocity": 0.5039370078740157
        },
        {
          "duration": 0.23809500000000128,
          "durationTicks": 512,
          "midi": 48,
          "name": "C3",
          "ticks": 123904,
          "time": 63.258084000000004,
          "velocity": 0.5039370078740157
        },
        {
          "duration": 0.23809500000000128,
          "durationTicks": 512,
          "midi": 74,
          "name": "D5",
          "ticks": 124416,
          "time": 63.496179000000005,
          "velocity": 0.5039370078740157
        },
        {
          "duration": 0.23809500000000128,
          "durationTicks": 512,
          "midi": 77,
          "name": "F5",
          "ticks": 124416,
          "time": 63.496179000000005,
          "velocity": 0.5039370078740157
        },
        {
          "duration": 0.23809500000000128,
          "durationTicks": 512,
          "midi": 48,
          "name": "C3",
          "ticks": 124416,
          "time": 63.496179000000005,
          "velocity": 0.5039370078740157
        },
        {
          "duration": 0.3571424999999877,
          "durationTicks": 768,
          "midi": 72,
          "name": "C5",
          "ticks": 124928,
          "time": 63.734274000000006,
          "velocity": 0.5039370078740157
        },
        {
          "duration": 0.3571424999999877,
          "durationTicks": 768,
          "midi": 74,
          "name": "D5",
          "ticks": 124928,
          "time": 63.734274000000006,
          "velocity": 0.5039370078740157
        },
        {
          "duration": 0.3571424999999877,
          "durationTicks": 768,
          "midi": 79,
          "name": "G5",
          "ticks": 124928,
          "time": 63.734274000000006,
          "velocity": 0.5039370078740157
        },
        {
          "duration": 0.23809499999999417,
          "durationTicks": 512,
          "midi": 50,
          "name": "D3",
          "ticks": 124928,
          "time": 63.734274000000006,
          "velocity": 0.5039370078740157
        },
        {
          "duration": 0.23809500000000128,
          "durationTicks": 512,
          "midi": 50,
          "name": "D3",
          "ticks": 125440,
          "time": 63.972369,
          "velocity": 0.5039370078740157
        },
        {
          "duration": 0.357142500000009,
          "durationTicks": 768,
          "midi": 72,
          "name": "C5",
          "ticks": 125696,
          "time": 64.0914165,
          "velocity": 0.5039370078740157
        },
        {
          "duration": 0.357142500000009,
          "durationTicks": 768,
          "midi": 74,
          "name": "D5",
          "ticks": 125696,
          "time": 64.0914165,
          "velocity": 0.5039370078740157
        },
        {
          "duration": 0.357142500000009,
          "durationTicks": 768,
          "midi": 80,
          "name": "G#5",
          "ticks": 125696,
          "time": 64.0914165,
          "velocity": 0.5039370078740157
        },
        {
          "duration": 0.23809500000000128,
          "durationTicks": 512,
          "midi": 50,
          "name": "D3",
          "ticks": 125952,
          "time": 64.210464,
          "velocity": 0.5039370078740157
        },
        {
          "duration": 0.23809500000000128,
          "durationTicks": 512,
          "midi": 72,
          "name": "C5",
          "ticks": 126464,
          "time": 64.448559,
          "velocity": 0.5039370078740157
        },
        {
          "duration": 0.23809500000000128,
          "durationTicks": 512,
          "midi": 74,
          "name": "D5",
          "ticks": 126464,
          "time": 64.448559,
          "velocity": 0.5039370078740157
        },
        {
          "duration": 0.23809500000000128,
          "durationTicks": 512,
          "midi": 79,
          "name": "G5",
          "ticks": 126464,
          "time": 64.448559,
          "velocity": 0.5039370078740157
        },
        {
          "duration": 0.23809500000000128,
          "durationTicks": 512,
          "midi": 50,
          "name": "D3",
          "ticks": 126464,
          "time": 64.448559,
          "velocity": 0.5039370078740157
        },
        {
          "duration": 0.3571424999999948,
          "durationTicks": 768,
          "midi": 72,
          "name": "C5",
          "ticks": 126976,
          "time": 64.686654,
          "velocity": 0.5039370078740157
        },
        {
          "duration": 0.3571424999999948,
          "durationTicks": 768,
          "midi": 74,
          "name": "D5",
          "ticks": 126976,
          "time": 64.686654,
          "velocity": 0.5039370078740157
        },
        {
          "duration": 0.3571424999999948,
          "durationTicks": 768,
          "midi": 77,
          "name": "F5",
          "ticks": 126976,
          "time": 64.686654,
          "velocity": 0.5039370078740157
        },
        {
          "duration": 0.23809500000000128,
          "durationTicks": 512,
          "midi": 50,
          "name": "D3",
          "ticks": 126976,
          "time": 64.686654,
          "velocity": 0.5039370078740157
        },
        {
          "duration": 0.23809500000000128,
          "durationTicks": 512,
          "midi": 50,
          "name": "D3",
          "ticks": 127488,
          "time": 64.924749,
          "velocity": 0.5039370078740157
        },
        {
          "duration": 0.3571424999999948,
          "durationTicks": 768,
          "midi": 72,
          "name": "C5",
          "ticks": 127744,
          "time": 65.0437965,
          "velocity": 0.5039370078740157
        },
        {
          "duration": 0.3571424999999948,
          "durationTicks": 768,
          "midi": 75,
          "name": "D#5",
          "ticks": 127744,
          "time": 65.0437965,
          "velocity": 0.5039370078740157
        },
        {
          "duration": 0.23809499999998707,
          "durationTicks": 512,
          "midi": 50,
          "name": "D3",
          "ticks": 128000,
          "time": 65.162844,
          "velocity": 0.5039370078740157
        },
        {
          "duration": 0.23809500000000128,
          "durationTicks": 512,
          "midi": 72,
          "name": "C5",
          "ticks": 128512,
          "time": 65.400939,
          "velocity": 0.5039370078740157
        },
        {
          "duration": 0.23809500000000128,
          "durationTicks": 512,
          "midi": 74,
          "name": "D5",
          "ticks": 128512,
          "time": 65.400939,
          "velocity": 0.5039370078740157
        },
        {
          "duration": 0.23809500000000128,
          "durationTicks": 512,
          "midi": 77,
          "name": "F5",
          "ticks": 128512,
          "time": 65.400939,
          "velocity": 0.5039370078740157
        },
        {
          "duration": 0.23809500000000128,
          "durationTicks": 512,
          "midi": 50,
          "name": "D3",
          "ticks": 128512,
          "time": 65.400939,
          "velocity": 0.5039370078740157
        },
        {
          "duration": 0.9523800000000051,
          "durationTicks": 2048,
          "midi": 69,
          "name": "A4",
          "ticks": 129024,
          "time": 65.639034,
          "velocity": 0.5039370078740157
        },
        {
          "duration": 0.9523800000000051,
          "durationTicks": 2048,
          "midi": 72,
          "name": "C5",
          "ticks": 129024,
          "time": 65.639034,
          "velocity": 0.5039370078740157
        },
        {
          "duration": 0.9523800000000051,
          "durationTicks": 2048,
          "midi": 77,
          "name": "F5",
          "ticks": 129024,
          "time": 65.639034,
          "velocity": 0.5039370078740157
        },
        {
          "duration": 0.9523800000000051,
          "durationTicks": 2048,
          "midi": 79,
          "name": "G5",
          "ticks": 129024,
          "time": 65.639034,
          "velocity": 0.5039370078740157
        },
        {
          "duration": 0.9523800000000051,
          "durationTicks": 2048,
          "midi": 43,
          "name": "G2",
          "ticks": 129024,
          "time": 65.639034,
          "velocity": 0.5039370078740157
        },
        {
          "duration": 0.3571424999999948,
          "durationTicks": 768,
          "midi": 71,
          "name": "B4",
          "ticks": 131072,
          "time": 66.591414,
          "velocity": 0.5039370078740157
        },
        {
          "duration": 0.3571424999999948,
          "durationTicks": 768,
          "midi": 74,
          "name": "D5",
          "ticks": 131072,
          "time": 66.591414,
          "velocity": 0.5039370078740157
        },
        {
          "duration": 0.3571424999999948,
          "durationTicks": 768,
          "midi": 79,
          "name": "G5",
          "ticks": 131072,
          "time": 66.591414,
          "velocity": 0.5039370078740157
        },
        {
          "duration": 0.3571424999999948,
          "durationTicks": 768,
          "midi": 43,
          "name": "G2",
          "ticks": 131072,
          "time": 66.591414,
          "velocity": 0.5039370078740157
        },
        {
          "duration": 0.357142500000009,
          "durationTicks": 768,
          "midi": 72,
          "name": "C5",
          "ticks": 131840,
          "time": 66.9485565,
          "velocity": 0.5039370078740157
        },
        {
          "duration": 0.357142500000009,
          "durationTicks": 768,
          "midi": 77,
          "name": "F5",
          "ticks": 131840,
          "time": 66.9485565,
          "velocity": 0.5039370078740157
        },
        {
          "duration": 0.357142500000009,
          "durationTicks": 768,
          "midi": 81,
          "name": "A5",
          "ticks": 131840,
          "time": 66.9485565,
          "velocity": 0.5039370078740157
        },
        {
          "duration": 0.357142500000009,
          "durationTicks": 768,
          "midi": 43,
          "name": "G2",
          "ticks": 131840,
          "time": 66.9485565,
          "velocity": 0.5039370078740157
        },
        {
          "duration": 0.23809500000000128,
          "durationTicks": 512,
          "midi": 74,
          "name": "D5",
          "ticks": 132608,
          "time": 67.305699,
          "velocity": 0.5039370078740157
        },
        {
          "duration": 0.23809500000000128,
          "durationTicks": 512,
          "midi": 79,
          "name": "G5",
          "ticks": 132608,
          "time": 67.305699,
          "velocity": 0.5039370078740157
        },
        {
          "duration": 0.23809500000000128,
          "durationTicks": 512,
          "midi": 83,
          "name": "B5",
          "ticks": 132608,
          "time": 67.305699,
          "velocity": 0.5039370078740157
        },
        {
          "duration": 0.23809500000000128,
          "durationTicks": 512,
          "midi": 43,
          "name": "G2",
          "ticks": 132608,
          "time": 67.305699,
          "velocity": 0.5039370078740157
        },
        {
          "duration": 0.47618999999998834,
          "durationTicks": 1024,
          "midi": 72,
          "name": "C5",
          "ticks": 133120,
          "time": 67.543794,
          "velocity": 0.5039370078740157
        },
        {
          "duration": 0.23809500000000128,
          "durationTicks": 512,
          "midi": 48,
          "name": "C3",
          "ticks": 133120,
          "time": 67.543794,
          "velocity": 0.5039370078740157
        },
        {
          "duration": 0.23809499999998707,
          "durationTicks": 512,
          "midi": 48,
          "name": "C3",
          "ticks": 133632,
          "time": 67.781889,
          "velocity": 0.5039370078740157
        },
        {
          "duration": 0.47619000000000256,
          "durationTicks": 1024,
          "midi": 67,
          "name": "G4",
          "ticks": 134144,
          "time": 68.019984,
          "velocity": 0.5039370078740157
        },
        {
          "duration": 0.47619000000000256,
          "durationTicks": 1024,
          "midi": 72,
          "name": "C5",
          "ticks": 134144,
          "time": 68.019984,
          "velocity": 0.5039370078740157
        },
        {
          "duration": 0.47619000000000256,
          "durationTicks": 1024,
          "midi": 75,
          "name": "D#5",
          "ticks": 134144,
          "time": 68.019984,
          "velocity": 0.5039370078740157
        },
        {
          "duration": 0.23809500000000128,
          "durationTicks": 512,
          "midi": 48,
          "name": "C3",
          "ticks": 134144,
          "time": 68.019984,
          "velocity": 0.5039370078740157
        },
        {
          "duration": 0.23809500000000128,
          "durationTicks": 512,
          "midi": 51,
          "name": "D#3",
          "ticks": 134656,
          "time": 68.258079,
          "velocity": 0.5039370078740157
        },
        {
          "duration": 0.357142500000009,
          "durationTicks": 768,
          "midi": 77,
          "name": "F5",
          "ticks": 135168,
          "time": 68.496174,
          "velocity": 0.5039370078740157
        },
        {
          "duration": 0.9523800000000051,
          "durationTicks": 2048,
          "midi": 68,
          "name": "G#4",
          "ticks": 135168,
          "time": 68.496174,
          "velocity": 0.5039370078740157
        },
        {
          "duration": 0.9523800000000051,
          "durationTicks": 2048,
          "midi": 72,
          "name": "C5",
          "ticks": 135168,
          "time": 68.496174,
          "velocity": 0.5039370078740157
        },
        {
          "duration": 0.11904750000000774,
          "durationTicks": 256,
          "midi": 53,
          "name": "F3",
          "ticks": 135168,
          "time": 68.496174,
          "velocity": 0.5039370078740157
        },
        {
          "duration": 0.11904749999999353,
          "durationTicks": 256,
          "midi": 53,
          "name": "F3",
          "ticks": 135424,
          "time": 68.6152215,
          "velocity": 0.5039370078740157
        },
        {
          "duration": 0.3571424999999948,
          "durationTicks": 768,
          "midi": 75,
          "name": "D#5",
          "ticks": 135936,
          "time": 68.8533165,
          "velocity": 0.5039370078740157
        },
        {
          "duration": 0.23809500000000128,
          "durationTicks": 512,
          "midi": 53,
          "name": "F3",
          "ticks": 135936,
          "time": 68.8533165,
          "velocity": 0.5039370078740157
        },
        {
          "duration": 0.11904749999999353,
          "durationTicks": 256,
          "midi": 53,
          "name": "F3",
          "ticks": 136448,
          "time": 69.0914115,
          "velocity": 0.5039370078740157
        },
        {
          "duration": 0.23809500000000128,
          "durationTicks": 512,
          "midi": 77,
          "name": "F5",
          "ticks": 136704,
          "time": 69.210459,
          "velocity": 0.5039370078740157
        },
        {
          "duration": 0.23809500000000128,
          "durationTicks": 512,
          "midi": 48,
          "name": "C3",
          "ticks": 136704,
          "time": 69.210459,
          "velocity": 0.5039370078740157
        },
        {
          "duration": 0.23809500000000128,
          "durationTicks": 512,
          "midi": 77,
          "name": "F5",
          "ticks": 137216,
          "time": 69.448554,
          "velocity": 0.5039370078740157
        },
        {
          "duration": 0.23809500000000128,
          "durationTicks": 512,
          "midi": 46,
          "name": "A#2",
          "ticks": 137216,
          "time": 69.448554,
          "velocity": 0.5039370078740157
        },
        {
          "duration": 0.23809500000000128,
          "durationTicks": 512,
          "midi": 77,
          "name": "F5",
          "ticks": 137728,
          "time": 69.686649,
          "velocity": 0.5039370078740157
        },
        {
          "duration": 0.23809500000000128,
          "durationTicks": 512,
          "midi": 46,
          "name": "A#2",
          "ticks": 137728,
          "time": 69.686649,
          "velocity": 0.5039370078740157
        },
        {
          "duration": 0.23809500000000128,
          "durationTicks": 512,
          "midi": 82,
          "name": "A#5",
          "ticks": 138240,
          "time": 69.924744,
          "velocity": 0.5039370078740157
        },
        {
          "duration": 0.23809500000000128,
          "durationTicks": 512,
          "midi": 46,
          "name": "A#2",
          "ticks": 138240,
          "time": 69.924744,
          "velocity": 0.5039370078740157
        },
        {
          "duration": 0.23809500000000128,
          "durationTicks": 512,
          "midi": 80,
          "name": "G#5",
          "ticks": 138752,
          "time": 70.162839,
          "velocity": 0.5039370078740157
        },
        {
          "duration": 0.23809500000000128,
          "durationTicks": 512,
          "midi": 50,
          "name": "D3",
          "ticks": 138752,
          "time": 70.162839,
          "velocity": 0.5039370078740157
        },
        {
          "duration": 0.11904749999999353,
          "durationTicks": 256,
          "midi": 79,
          "name": "G5",
          "ticks": 139264,
          "time": 70.400934,
          "velocity": 0.5039370078740157
        },
        {
          "duration": 0.11904749999999353,
          "durationTicks": 256,
          "midi": 51,
          "name": "D#3",
          "ticks": 139264,
          "time": 70.400934,
          "velocity": 0.5039370078740157
        },
        {
          "duration": 0.23809500000000128,
          "durationTicks": 512,
          "midi": 77,
          "name": "F5",
          "ticks": 139520,
          "time": 70.5199815,
          "velocity": 0.5039370078740157
        },
        {
          "duration": 0.11904749999999353,
          "durationTicks": 256,
          "midi": 51,
          "name": "D#3",
          "ticks": 139520,
          "time": 70.5199815,
          "velocity": 0.5039370078740157
        },
        {
          "duration": 0.5952374999999961,
          "durationTicks": 1280,
          "midi": 79,
          "name": "G5",
          "ticks": 140032,
          "time": 70.7580765,
          "velocity": 0.5039370078740157
        },
        {
          "duration": 0.11904749999999353,
          "durationTicks": 256,
          "midi": 51,
          "name": "D#3",
          "ticks": 140032,
          "time": 70.7580765,
          "velocity": 0.5039370078740157
        },
        {
          "duration": 0.23809500000000128,
          "durationTicks": 512,
          "midi": 51,
          "name": "D#3",
          "ticks": 140288,
          "time": 70.877124,
          "velocity": 0.5039370078740157
        },
        {
          "duration": 0.23809500000000128,
          "durationTicks": 512,
          "midi": 50,
          "name": "D3",
          "ticks": 140800,
          "time": 71.115219,
          "velocity": 0.5039370078740157
        },
        {
          "duration": 0.47619000000000256,
          "durationTicks": 1024,
          "midi": 75,
          "name": "D#5",
          "ticks": 141312,
          "time": 71.353314,
          "velocity": 0.5039370078740157
        },
        {
          "duration": 0.47619000000000256,
          "durationTicks": 1024,
          "midi": 79,
          "name": "G5",
          "ticks": 141312,
          "time": 71.353314,
          "velocity": 0.5039370078740157
        },
        {
          "duration": 0.23809500000000128,
          "durationTicks": 512,
          "midi": 48,
          "name": "C3",
          "ticks": 141312,
          "time": 71.353314,
          "velocity": 0.5039370078740157
        },
        {
          "duration": 0.23809500000000128,
          "durationTicks": 512,
          "midi": 48,
          "name": "C3",
          "ticks": 141824,
          "time": 71.591409,
          "velocity": 0.5039370078740157
        },
        {
          "duration": 0.47619000000000256,
          "durationTicks": 1024,
          "midi": 75,
          "name": "D#5",
          "ticks": 142336,
          "time": 71.829504,
          "velocity": 0.5039370078740157
        },
        {
          "duration": 0.47619000000000256,
          "durationTicks": 1024,
          "midi": 79,
          "name": "G5",
          "ticks": 142336,
          "time": 71.829504,
          "velocity": 0.5039370078740157
        },
        {
          "duration": 0.47619000000000256,
          "durationTicks": 1024,
          "midi": 82,
          "name": "A#5",
          "ticks": 142336,
          "time": 71.829504,
          "velocity": 0.5039370078740157
        },
        {
          "duration": 0.23809500000000128,
          "durationTicks": 512,
          "midi": 48,
          "name": "C3",
          "ticks": 142336,
          "time": 71.829504,
          "velocity": 0.5039370078740157
        },
        {
          "duration": 0.23809500000000128,
          "durationTicks": 512,
          "midi": 51,
          "name": "D#3",
          "ticks": 142848,
          "time": 72.067599,
          "velocity": 0.5039370078740157
        },
        {
          "duration": 0.3571424999999948,
          "durationTicks": 768,
          "midi": 75,
          "name": "D#5",
          "ticks": 143360,
          "time": 72.305694,
          "velocity": 0.5039370078740157
        },
        {
          "duration": 0.3571424999999948,
          "durationTicks": 768,
          "midi": 80,
          "name": "G#5",
          "ticks": 143360,
          "time": 72.305694,
          "velocity": 0.5039370078740157
        },
        {
          "duration": 0.3571424999999948,
          "durationTicks": 768,
          "midi": 84,
          "name": "C6",
          "ticks": 143360,
          "time": 72.305694,
          "velocity": 0.5039370078740157
        },
        {
          "duration": 0.11904749999999353,
          "durationTicks": 256,
          "midi": 53,
          "name": "F3",
          "ticks": 143360,
          "time": 72.305694,
          "velocity": 0.5039370078740157
        },
        {
          "duration": 0.11904750000000774,
          "durationTicks": 256,
          "midi": 53,
          "name": "F3",
          "ticks": 143616,
          "time": 72.4247415,
          "velocity": 0.5039370078740157
        },
        {
          "duration": 0.357142500000009,
          "durationTicks": 768,
          "midi": 77,
          "name": "F5",
          "ticks": 144128,
          "time": 72.6628365,
          "velocity": 0.5039370078740157
        },
        {
          "duration": 0.23809500000000128,
          "durationTicks": 512,
          "midi": 53,
          "name": "F3",
          "ticks": 144128,
          "time": 72.6628365,
          "velocity": 0.5039370078740157
        },
        {
          "duration": 0.11904750000000774,
          "durationTicks": 256,
          "midi": 53,
          "name": "F3",
          "ticks": 144640,
          "time": 72.9009315,
          "velocity": 0.5039370078740157
        },
        {
          "duration": 0.23809499999998707,
          "durationTicks": 512,
          "midi": 75,
          "name": "D#5",
          "ticks": 144896,
          "time": 73.019979,
          "velocity": 0.5039370078740157
        },
        {
          "duration": 0.23809499999998707,
          "durationTicks": 512,
          "midi": 48,
          "name": "C3",
          "ticks": 144896,
          "time": 73.019979,
          "velocity": 0.5039370078740157
        },
        {
          "duration": 0.23809500000000128,
          "durationTicks": 512,
          "midi": 74,
          "name": "D5",
          "ticks": 145408,
          "time": 73.258074,
          "velocity": 0.5039370078740157
        },
        {
          "duration": 0.23809500000000128,
          "durationTicks": 512,
          "midi": 46,
          "name": "A#2",
          "ticks": 145408,
          "time": 73.258074,
          "velocity": 0.5039370078740157
        },
        {
          "duration": 0.23809500000000128,
          "durationTicks": 512,
          "midi": 74,
          "name": "D5",
          "ticks": 145920,
          "time": 73.496169,
          "velocity": 0.5039370078740157
        },
        {
          "duration": 0.23809500000000128,
          "durationTicks": 512,
          "midi": 46,
          "name": "A#2",
          "ticks": 145920,
          "time": 73.496169,
          "velocity": 0.5039370078740157
        },
        {
          "duration": 0.23809500000000128,
          "durationTicks": 512,
          "midi": 72,
          "name": "C5",
          "ticks": 146432,
          "time": 73.734264,
          "velocity": 0.5039370078740157
        },
        {
          "duration": 0.23809500000000128,
          "durationTicks": 512,
          "midi": 46,
          "name": "A#2",
          "ticks": 146432,
          "time": 73.734264,
          "velocity": 0.5039370078740157
        },
        {
          "duration": 0.23809500000000128,
          "durationTicks": 512,
          "midi": 74,
          "name": "D5",
          "ticks": 146944,
          "time": 73.972359,
          "velocity": 0.5039370078740157
        },
        {
          "duration": 0.23809500000000128,
          "durationTicks": 512,
          "midi": 50,
          "name": "D3",
          "ticks": 146944,
          "time": 73.972359,
          "velocity": 0.5039370078740157
        },
        {
          "duration": 0.11904750000000774,
          "durationTicks": 256,
          "midi": 77,
          "name": "F5",
          "ticks": 147456,
          "time": 74.210454,
          "velocity": 0.5039370078740157
        },
        {
          "duration": 0.47619000000000256,
          "durationTicks": 1024,
          "midi": 51,
          "name": "D#3",
          "ticks": 147456,
          "time": 74.210454,
          "velocity": 0.5039370078740157
        },
        {
          "duration": 0.23809499999998707,
          "durationTicks": 512,
          "midi": 75,
          "name": "D#5",
          "ticks": 147712,
          "time": 74.3295015,
          "velocity": 0.5039370078740157
        },
        {
          "duration": 0.5952375000000103,
          "durationTicks": 1280,
          "midi": 75,
          "name": "D#5",
          "ticks": 148224,
          "time": 74.5675965,
          "velocity": 0.5039370078740157
        },
        {
          "duration": 0.47619000000000256,
          "durationTicks": 1024,
          "midi": 50,
          "name": "D3",
          "ticks": 148480,
          "time": 74.686644,
          "velocity": 0.5039370078740157
        },
        {
          "duration": 0.47619000000000256,
          "durationTicks": 1024,
          "midi": 72,
          "name": "C5",
          "ticks": 149504,
          "time": 75.162834,
          "velocity": 0.5039370078740157
        },
        {
          "duration": 0.23809500000000128,
          "durationTicks": 512,
          "midi": 48,
          "name": "C3",
          "ticks": 149504,
          "time": 75.162834,
          "velocity": 0.5039370078740157
        },
        {
          "duration": 0.23809500000000128,
          "durationTicks": 512,
          "midi": 48,
          "name": "C3",
          "ticks": 150016,
          "time": 75.400929,
          "velocity": 0.5039370078740157
        },
        {
          "duration": 0.47618999999998834,
          "durationTicks": 1024,
          "midi": 67,
          "name": "G4",
          "ticks": 150528,
          "time": 75.639024,
          "velocity": 0.5039370078740157
        },
        {
          "duration": 0.47618999999998834,
          "durationTicks": 1024,
          "midi": 72,
          "name": "C5",
          "ticks": 150528,
          "time": 75.639024,
          "velocity": 0.5039370078740157
        },
        {
          "duration": 0.47618999999998834,
          "durationTicks": 1024,
          "midi": 75,
          "name": "D#5",
          "ticks": 150528,
          "time": 75.639024,
          "velocity": 0.5039370078740157
        },
        {
          "duration": 0.23809499999998707,
          "durationTicks": 512,
          "midi": 48,
          "name": "C3",
          "ticks": 150528,
          "time": 75.639024,
          "velocity": 0.5039370078740157
        },
        {
          "duration": 0.23809500000000128,
          "durationTicks": 512,
          "midi": 51,
          "name": "D#3",
          "ticks": 151040,
          "time": 75.877119,
          "velocity": 0.5039370078740157
        },
        {
          "duration": 0.357142500000009,
          "durationTicks": 768,
          "midi": 77,
          "name": "F5",
          "ticks": 151552,
          "time": 76.115214,
          "velocity": 0.5039370078740157
        },
        {
          "duration": 0.9523800000000051,
          "durationTicks": 2048,
          "midi": 68,
          "name": "G#4",
          "ticks": 151552,
          "time": 76.115214,
          "velocity": 0.5039370078740157
        },
        {
          "duration": 0.9523800000000051,
          "durationTicks": 2048,
          "midi": 72,
          "name": "C5",
          "ticks": 151552,
          "time": 76.115214,
          "velocity": 0.5039370078740157
        },
        {
          "duration": 0.11904750000000774,
          "durationTicks": 256,
          "midi": 53,
          "name": "F3",
          "ticks": 151552,
          "time": 76.115214,
          "velocity": 0.5039370078740157
        },
        {
          "duration": 0.11904749999999353,
          "durationTicks": 256,
          "midi": 53,
          "name": "F3",
          "ticks": 151808,
          "time": 76.2342615,
          "velocity": 0.5039370078740157
        },
        {
          "duration": 0.3571424999999948,
          "durationTicks": 768,
          "midi": 75,
          "name": "D#5",
          "ticks": 152320,
          "time": 76.4723565,
          "velocity": 0.5039370078740157
        },
        {
          "duration": 0.23809500000000128,
          "durationTicks": 512,
          "midi": 53,
          "name": "F3",
          "ticks": 152320,
          "time": 76.4723565,
          "velocity": 0.5039370078740157
        },
        {
          "duration": 0.11904749999999353,
          "durationTicks": 256,
          "midi": 53,
          "name": "F3",
          "ticks": 152832,
          "time": 76.7104515,
          "velocity": 0.5039370078740157
        },
        {
          "duration": 0.23809500000000128,
          "durationTicks": 512,
          "midi": 77,
          "name": "F5",
          "ticks": 153088,
          "time": 76.829499,
          "velocity": 0.5039370078740157
        },
        {
          "duration": 0.23809500000000128,
          "durationTicks": 512,
          "midi": 48,
          "name": "C3",
          "ticks": 153088,
          "time": 76.829499,
          "velocity": 0.5039370078740157
        },
        {
          "duration": 0.23809500000000128,
          "durationTicks": 512,
          "midi": 77,
          "name": "F5",
          "ticks": 153600,
          "time": 77.067594,
          "velocity": 0.5039370078740157
        },
        {
          "duration": 0.23809500000000128,
          "durationTicks": 512,
          "midi": 46,
          "name": "A#2",
          "ticks": 153600,
          "time": 77.067594,
          "velocity": 0.5039370078740157
        },
        {
          "duration": 0.23809500000000128,
          "durationTicks": 512,
          "midi": 77,
          "name": "F5",
          "ticks": 154112,
          "time": 77.305689,
          "velocity": 0.5039370078740157
        },
        {
          "duration": 0.23809500000000128,
          "durationTicks": 512,
          "midi": 46,
          "name": "A#2",
          "ticks": 154112,
          "time": 77.305689,
          "velocity": 0.5039370078740157
        },
        {
          "duration": 0.23809500000000128,
          "durationTicks": 512,
          "midi": 82,
          "name": "A#5",
          "ticks": 154624,
          "time": 77.543784,
          "velocity": 0.5039370078740157
        },
        {
          "duration": 0.23809500000000128,
          "durationTicks": 512,
          "midi": 46,
          "name": "A#2",
          "ticks": 154624,
          "time": 77.543784,
          "velocity": 0.5039370078740157
        },
        {
          "duration": 0.23809500000000128,
          "durationTicks": 512,
          "midi": 80,
          "name": "G#5",
          "ticks": 155136,
          "time": 77.781879,
          "velocity": 0.5039370078740157
        },
        {
          "duration": 0.23809500000000128,
          "durationTicks": 512,
          "midi": 50,
          "name": "D3",
          "ticks": 155136,
          "time": 77.781879,
          "velocity": 0.5039370078740157
        },
        {
          "duration": 0.11904749999999353,
          "durationTicks": 256,
          "midi": 79,
          "name": "G5",
          "ticks": 155648,
          "time": 78.019974,
          "velocity": 0.5039370078740157
        },
        {
          "duration": 0.11904749999999353,
          "durationTicks": 256,
          "midi": 51,
          "name": "D#3",
          "ticks": 155648,
          "time": 78.019974,
          "velocity": 0.5039370078740157
        },
        {
          "duration": 0.23809500000000128,
          "durationTicks": 512,
          "midi": 77,
          "name": "F5",
          "ticks": 155904,
          "time": 78.1390215,
          "velocity": 0.5039370078740157
        },
        {
          "duration": 0.11904750000000774,
          "durationTicks": 256,
          "midi": 51,
          "name": "D#3",
          "ticks": 155904,
          "time": 78.1390215,
          "velocity": 0.5039370078740157
        },
        {
          "duration": 0.5952375000000103,
          "durationTicks": 1280,
          "midi": 79,
          "name": "G5",
          "ticks": 156416,
          "time": 78.3771165,
          "velocity": 0.5039370078740157
        },
        {
          "duration": 0.11904750000000774,
          "durationTicks": 256,
          "midi": 51,
          "name": "D#3",
          "ticks": 156416,
          "time": 78.3771165,
          "velocity": 0.5039370078740157
        },
        {
          "duration": 0.23809500000000128,
          "durationTicks": 512,
          "midi": 51,
          "name": "D#3",
          "ticks": 156672,
          "time": 78.49616400000001,
          "velocity": 0.5039370078740157
        },
        {
          "duration": 0.23809500000000128,
          "durationTicks": 512,
          "midi": 50,
          "name": "D3",
          "ticks": 157184,
          "time": 78.73425900000001,
          "velocity": 0.5039370078740157
        },
        {
          "duration": 0.47618999999998834,
          "durationTicks": 1024,
          "midi": 75,
          "name": "D#5",
          "ticks": 157696,
          "time": 78.97235400000001,
          "velocity": 0.5039370078740157
        },
        {
          "duration": 0.47618999999998834,
          "durationTicks": 1024,
          "midi": 79,
          "name": "G5",
          "ticks": 157696,
          "time": 78.97235400000001,
          "velocity": 0.5039370078740157
        },
        {
          "duration": 0.23809499999998707,
          "durationTicks": 512,
          "midi": 48,
          "name": "C3",
          "ticks": 157696,
          "time": 78.97235400000001,
          "velocity": 0.5039370078740157
        },
        {
          "duration": 0.23809500000000128,
          "durationTicks": 512,
          "midi": 48,
          "name": "C3",
          "ticks": 158208,
          "time": 79.210449,
          "velocity": 0.5039370078740157
        },
        {
          "duration": 0.47619000000000256,
          "durationTicks": 1024,
          "midi": 75,
          "name": "D#5",
          "ticks": 158720,
          "time": 79.448544,
          "velocity": 0.5039370078740157
        },
        {
          "duration": 0.47619000000000256,
          "durationTicks": 1024,
          "midi": 79,
          "name": "G5",
          "ticks": 158720,
          "time": 79.448544,
          "velocity": 0.5039370078740157
        },
        {
          "duration": 0.47619000000000256,
          "durationTicks": 1024,
          "midi": 82,
          "name": "A#5",
          "ticks": 158720,
          "time": 79.448544,
          "velocity": 0.5039370078740157
        },
        {
          "duration": 0.23809500000000128,
          "durationTicks": 512,
          "midi": 48,
          "name": "C3",
          "ticks": 158720,
          "time": 79.448544,
          "velocity": 0.5039370078740157
        },
        {
          "duration": 0.23809500000000128,
          "durationTicks": 512,
          "midi": 51,
          "name": "D#3",
          "ticks": 159232,
          "time": 79.686639,
          "velocity": 0.5039370078740157
        },
        {
          "duration": 0.357142500000009,
          "durationTicks": 768,
          "midi": 75,
          "name": "D#5",
          "ticks": 159744,
          "time": 79.924734,
          "velocity": 0.5039370078740157
        },
        {
          "duration": 0.357142500000009,
          "durationTicks": 768,
          "midi": 80,
          "name": "G#5",
          "ticks": 159744,
          "time": 79.924734,
          "velocity": 0.5039370078740157
        },
        {
          "duration": 0.357142500000009,
          "durationTicks": 768,
          "midi": 84,
          "name": "C6",
          "ticks": 159744,
          "time": 79.924734,
          "velocity": 0.5039370078740157
        },
        {
          "duration": 0.11904750000000774,
          "durationTicks": 256,
          "midi": 53,
          "name": "F3",
          "ticks": 159744,
          "time": 79.924734,
          "velocity": 0.5039370078740157
        },
        {
          "duration": 0.11904749999999353,
          "durationTicks": 256,
          "midi": 53,
          "name": "F3",
          "ticks": 160000,
          "time": 80.04378150000001,
          "velocity": 0.5039370078740157
        },
        {
          "duration": 0.3571424999999948,
          "durationTicks": 768,
          "midi": 77,
          "name": "F5",
          "ticks": 160512,
          "time": 80.28187650000001,
          "velocity": 0.5039370078740157
        },
        {
          "duration": 0.23809499999998707,
          "durationTicks": 512,
          "midi": 53,
          "name": "F3",
          "ticks": 160512,
          "time": 80.28187650000001,
          "velocity": 0.5039370078740157
        },
        {
          "duration": 0.11904750000000774,
          "durationTicks": 256,
          "midi": 53,
          "name": "F3",
          "ticks": 161024,
          "time": 80.5199715,
          "velocity": 0.5039370078740157
        },
        {
          "duration": 0.23809500000000128,
          "durationTicks": 512,
          "midi": 75,
          "name": "D#5",
          "ticks": 161280,
          "time": 80.639019,
          "velocity": 0.5039370078740157
        },
        {
          "duration": 0.23809500000000128,
          "durationTicks": 512,
          "midi": 48,
          "name": "C3",
          "ticks": 161280,
          "time": 80.639019,
          "velocity": 0.5039370078740157
        },
        {
          "duration": 0.23809500000000128,
          "durationTicks": 512,
          "midi": 74,
          "name": "D5",
          "ticks": 161792,
          "time": 80.877114,
          "velocity": 0.5039370078740157
        },
        {
          "duration": 0.23809500000000128,
          "durationTicks": 512,
          "midi": 77,
          "name": "F5",
          "ticks": 161792,
          "time": 80.877114,
          "velocity": 0.5039370078740157
        },
        {
          "duration": 0.23809500000000128,
          "durationTicks": 512,
          "midi": 82,
          "name": "A#5",
          "ticks": 161792,
          "time": 80.877114,
          "velocity": 0.5039370078740157
        },
        {
          "duration": 0.23809500000000128,
          "durationTicks": 512,
          "midi": 46,
          "name": "A#2",
          "ticks": 161792,
          "time": 80.877114,
          "velocity": 0.5039370078740157
        },
        {
          "duration": 0.23809500000000128,
          "durationTicks": 512,
          "midi": 74,
          "name": "D5",
          "ticks": 162304,
          "time": 81.11520900000001,
          "velocity": 0.5039370078740157
        },
        {
          "duration": 0.23809500000000128,
          "durationTicks": 512,
          "midi": 77,
          "name": "F5",
          "ticks": 162304,
          "time": 81.11520900000001,
          "velocity": 0.5039370078740157
        },
        {
          "duration": 0.23809500000000128,
          "durationTicks": 512,
          "midi": 82,
          "name": "A#5",
          "ticks": 162304,
          "time": 81.11520900000001,
          "velocity": 0.5039370078740157
        },
        {
          "duration": 0.23809500000000128,
          "durationTicks": 512,
          "midi": 46,
          "name": "A#2",
          "ticks": 162304,
          "time": 81.11520900000001,
          "velocity": 0.5039370078740157
        },
        {
          "duration": 0.23809500000000128,
          "durationTicks": 512,
          "midi": 74,
          "name": "D5",
          "ticks": 162816,
          "time": 81.35330400000001,
          "velocity": 0.5039370078740157
        },
        {
          "duration": 0.23809500000000128,
          "durationTicks": 512,
          "midi": 77,
          "name": "F5",
          "ticks": 162816,
          "time": 81.35330400000001,
          "velocity": 0.5039370078740157
        },
        {
          "duration": 0.23809500000000128,
          "durationTicks": 512,
          "midi": 79,
          "name": "G5",
          "ticks": 162816,
          "time": 81.35330400000001,
          "velocity": 0.5039370078740157
        },
        {
          "duration": 0.23809500000000128,
          "durationTicks": 512,
          "midi": 46,
          "name": "A#2",
          "ticks": 162816,
          "time": 81.35330400000001,
          "velocity": 0.5039370078740157
        },
        {
          "duration": 0.23809499999998707,
          "durationTicks": 512,
          "midi": 74,
          "name": "D5",
          "ticks": 163328,
          "time": 81.59139900000001,
          "velocity": 0.5039370078740157
        },
        {
          "duration": 0.23809499999998707,
          "durationTicks": 512,
          "midi": 77,
          "name": "F5",
          "ticks": 163328,
          "time": 81.59139900000001,
          "velocity": 0.5039370078740157
        },
        {
          "duration": 0.23809499999998707,
          "durationTicks": 512,
          "midi": 82,
          "name": "A#5",
          "ticks": 163328,
          "time": 81.59139900000001,
          "velocity": 0.5039370078740157
        },
        {
          "duration": 0.23809499999998707,
          "durationTicks": 512,
          "midi": 47,
          "name": "B2",
          "ticks": 163328,
          "time": 81.59139900000001,
          "velocity": 0.5039370078740157
        },
        {
          "duration": 0.357142500000009,
          "durationTicks": 768,
          "midi": 74,
          "name": "D5",
          "ticks": 163840,
          "time": 81.829494,
          "velocity": 0.5039370078740157
        },
        {
          "duration": 0.357142500000009,
          "durationTicks": 768,
          "midi": 77,
          "name": "F5",
          "ticks": 163840,
          "time": 81.829494,
          "velocity": 0.5039370078740157
        },
        {
          "duration": 0.357142500000009,
          "durationTicks": 768,
          "midi": 82,
          "name": "A#5",
          "ticks": 163840,
          "time": 81.829494,
          "velocity": 0.5039370078740157
        },
        {
          "duration": 0.11904750000000774,
          "durationTicks": 256,
          "midi": 48,
          "name": "C3",
          "ticks": 163840,
          "time": 81.829494,
          "velocity": 0.5039370078740157
        },
        {
          "duration": 0.23809500000000128,
          "durationTicks": 512,
          "midi": 48,
          "name": "C3",
          "ticks": 164096,
          "time": 81.9485415,
          "velocity": 0.5039370078740157
        },
        {
          "duration": 0.5952374999999961,
          "durationTicks": 1280,
          "midi": 75,
          "name": "D#5",
          "ticks": 164608,
          "time": 82.1866365,
          "velocity": 0.5039370078740157
        },
        {
          "duration": 0.5952374999999961,
          "durationTicks": 1280,
          "midi": 79,
          "name": "G5",
          "ticks": 164608,
          "time": 82.1866365,
          "velocity": 0.5039370078740157
        },
        {
          "duration": 0.5952374999999961,
          "durationTicks": 1280,
          "midi": 84,
          "name": "C6",
          "ticks": 164608,
          "time": 82.1866365,
          "velocity": 0.5039370078740157
        },
        {
          "duration": 0.11904749999999353,
          "durationTicks": 256,
          "midi": 48,
          "name": "C3",
          "ticks": 164608,
          "time": 82.1866365,
          "velocity": 0.5039370078740157
        },
        {
          "duration": 0.47619000000000256,
          "durationTicks": 1024,
          "midi": 46,
          "name": "A#2",
          "ticks": 164864,
          "time": 82.305684,
          "velocity": 0.5039370078740157
        },
        {
          "duration": 0.47619000000000256,
          "durationTicks": 1024,
          "midi": 72,
          "name": "C5",
          "ticks": 165888,
          "time": 82.781874,
          "velocity": 0.5039370078740157
        },
        {
          "duration": 0.23809500000000128,
          "durationTicks": 512,
          "midi": 48,
          "name": "C3",
          "ticks": 165888,
          "time": 82.781874,
          "velocity": 0.5039370078740157
        },
        {
          "duration": 0.23809500000000128,
          "durationTicks": 512,
          "midi": 48,
          "name": "C3",
          "ticks": 166400,
          "time": 83.019969,
          "velocity": 0.5039370078740157
        },
        {
          "duration": 0.47619000000000256,
          "durationTicks": 1024,
          "midi": 67,
          "name": "G4",
          "ticks": 166912,
          "time": 83.258064,
          "velocity": 0.5039370078740157
        },
        {
          "duration": 0.47619000000000256,
          "durationTicks": 1024,
          "midi": 72,
          "name": "C5",
          "ticks": 166912,
          "time": 83.258064,
          "velocity": 0.5039370078740157
        },
        {
          "duration": 0.47619000000000256,
          "durationTicks": 1024,
          "midi": 75,
          "name": "D#5",
          "ticks": 166912,
          "time": 83.258064,
          "velocity": 0.5039370078740157
        },
        {
          "duration": 0.23809500000000128,
          "durationTicks": 512,
          "midi": 48,
          "name": "C3",
          "ticks": 166912,
          "time": 83.258064,
          "velocity": 0.5039370078740157
        },
        {
          "duration": 0.23809500000000128,
          "durationTicks": 512,
          "midi": 51,
          "name": "D#3",
          "ticks": 167424,
          "time": 83.496159,
          "velocity": 0.5039370078740157
        },
        {
          "duration": 0.3571424999999948,
          "durationTicks": 768,
          "midi": 77,
          "name": "F5",
          "ticks": 167936,
          "time": 83.734254,
          "velocity": 0.5039370078740157
        },
        {
          "duration": 0.9523799999999909,
          "durationTicks": 2048,
          "midi": 68,
          "name": "G#4",
          "ticks": 167936,
          "time": 83.734254,
          "velocity": 0.5039370078740157
        },
        {
          "duration": 0.9523799999999909,
          "durationTicks": 2048,
          "midi": 72,
          "name": "C5",
          "ticks": 167936,
          "time": 83.734254,
          "velocity": 0.5039370078740157
        },
        {
          "duration": 0.11904749999999353,
          "durationTicks": 256,
          "midi": 53,
          "name": "F3",
          "ticks": 167936,
          "time": 83.734254,
          "velocity": 0.5039370078740157
        },
        {
          "duration": 0.11904750000000774,
          "durationTicks": 256,
          "midi": 53,
          "name": "F3",
          "ticks": 168192,
          "time": 83.8533015,
          "velocity": 0.5039370078740157
        },
        {
          "duration": 0.3571424999999948,
          "durationTicks": 768,
          "midi": 75,
          "name": "D#5",
          "ticks": 168704,
          "time": 84.0913965,
          "velocity": 0.5039370078740157
        },
        {
          "duration": 0.23809500000000128,
          "durationTicks": 512,
          "midi": 53,
          "name": "F3",
          "ticks": 168704,
          "time": 84.0913965,
          "velocity": 0.5039370078740157
        },
        {
          "duration": 0.11904749999999353,
          "durationTicks": 256,
          "midi": 53,
          "name": "F3",
          "ticks": 169216,
          "time": 84.3294915,
          "velocity": 0.5039370078740157
        },
        {
          "duration": 0.23809500000000128,
          "durationTicks": 512,
          "midi": 77,
          "name": "F5",
          "ticks": 169472,
          "time": 84.448539,
          "velocity": 0.5039370078740157
        },
        {
          "duration": 0.23809500000000128,
          "durationTicks": 512,
          "midi": 48,
          "name": "C3",
          "ticks": 169472,
          "time": 84.448539,
          "velocity": 0.5039370078740157
        },
        {
          "duration": 0.23809500000000128,
          "durationTicks": 512,
          "midi": 77,
          "name": "F5",
          "ticks": 169984,
          "time": 84.686634,
          "velocity": 0.5039370078740157
        },
        {
          "duration": 0.23809500000000128,
          "durationTicks": 512,
          "midi": 46,
          "name": "A#2",
          "ticks": 169984,
          "time": 84.686634,
          "velocity": 0.5039370078740157
        },
        {
          "duration": 0.23809500000000128,
          "durationTicks": 512,
          "midi": 77,
          "name": "F5",
          "ticks": 170496,
          "time": 84.924729,
          "velocity": 0.5039370078740157
        },
        {
          "duration": 0.23809500000000128,
          "durationTicks": 512,
          "midi": 46,
          "name": "A#2",
          "ticks": 170496,
          "time": 84.924729,
          "velocity": 0.5039370078740157
        },
        {
          "duration": 0.23809500000000128,
          "durationTicks": 512,
          "midi": 82,
          "name": "A#5",
          "ticks": 171008,
          "time": 85.162824,
          "velocity": 0.5039370078740157
        },
        {
          "duration": 0.23809500000000128,
          "durationTicks": 512,
          "midi": 46,
          "name": "A#2",
          "ticks": 171008,
          "time": 85.162824,
          "velocity": 0.5039370078740157
        },
        {
          "duration": 0.23809500000000128,
          "durationTicks": 512,
          "midi": 80,
          "name": "G#5",
          "ticks": 171520,
          "time": 85.400919,
          "velocity": 0.5039370078740157
        },
        {
          "duration": 0.23809500000000128,
          "durationTicks": 512,
          "midi": 50,
          "name": "D3",
          "ticks": 171520,
          "time": 85.400919,
          "velocity": 0.5039370078740157
        },
        {
          "duration": 0.11904750000000774,
          "durationTicks": 256,
          "midi": 79,
          "name": "G5",
          "ticks": 172032,
          "time": 85.639014,
          "velocity": 0.5039370078740157
        },
        {
          "duration": 0.11904750000000774,
          "durationTicks": 256,
          "midi": 51,
          "name": "D#3",
          "ticks": 172032,
          "time": 85.639014,
          "velocity": 0.5039370078740157
        },
        {
          "duration": 0.23809499999998707,
          "durationTicks": 512,
          "midi": 77,
          "name": "F5",
          "ticks": 172288,
          "time": 85.75806150000001,
          "velocity": 0.5039370078740157
        },
        {
          "duration": 0.11904749999999353,
          "durationTicks": 256,
          "midi": 51,
          "name": "D#3",
          "ticks": 172288,
          "time": 85.75806150000001,
          "velocity": 0.5039370078740157
        },
        {
          "duration": 0.5952375000000103,
          "durationTicks": 1280,
          "midi": 79,
          "name": "G5",
          "ticks": 172800,
          "time": 85.9961565,
          "velocity": 0.5039370078740157
        },
        {
          "duration": 0.11904750000000774,
          "durationTicks": 256,
          "midi": 51,
          "name": "D#3",
          "ticks": 172800,
          "time": 85.9961565,
          "velocity": 0.5039370078740157
        },
        {
          "duration": 0.23809500000000128,
          "durationTicks": 512,
          "midi": 51,
          "name": "D#3",
          "ticks": 173056,
          "time": 86.115204,
          "velocity": 0.5039370078740157
        },
        {
          "duration": 0.23809500000000128,
          "durationTicks": 512,
          "midi": 50,
          "name": "D3",
          "ticks": 173568,
          "time": 86.353299,
          "velocity": 0.5039370078740157
        },
        {
          "duration": 0.47619000000000256,
          "durationTicks": 1024,
          "midi": 75,
          "name": "D#5",
          "ticks": 174080,
          "time": 86.59139400000001,
          "velocity": 0.5039370078740157
        },
        {
          "duration": 0.47619000000000256,
          "durationTicks": 1024,
          "midi": 79,
          "name": "G5",
          "ticks": 174080,
          "time": 86.59139400000001,
          "velocity": 0.5039370078740157
        },
        {
          "duration": 0.23809500000000128,
          "durationTicks": 512,
          "midi": 48,
          "name": "C3",
          "ticks": 174080,
          "time": 86.59139400000001,
          "velocity": 0.5039370078740157
        },
        {
          "duration": 0.23809500000000128,
          "durationTicks": 512,
          "midi": 48,
          "name": "C3",
          "ticks": 174592,
          "time": 86.82948900000001,
          "velocity": 0.5039370078740157
        },
        {
          "duration": 0.47618999999998834,
          "durationTicks": 1024,
          "midi": 75,
          "name": "D#5",
          "ticks": 175104,
          "time": 87.06758400000001,
          "velocity": 0.5039370078740157
        },
        {
          "duration": 0.47618999999998834,
          "durationTicks": 1024,
          "midi": 79,
          "name": "G5",
          "ticks": 175104,
          "time": 87.06758400000001,
          "velocity": 0.5039370078740157
        },
        {
          "duration": 0.47618999999998834,
          "durationTicks": 1024,
          "midi": 82,
          "name": "A#5",
          "ticks": 175104,
          "time": 87.06758400000001,
          "velocity": 0.5039370078740157
        },
        {
          "duration": 0.23809499999998707,
          "durationTicks": 512,
          "midi": 48,
          "name": "C3",
          "ticks": 175104,
          "time": 87.06758400000001,
          "velocity": 0.5039370078740157
        },
        {
          "duration": 0.23809500000000128,
          "durationTicks": 512,
          "midi": 51,
          "name": "D#3",
          "ticks": 175616,
          "time": 87.305679,
          "velocity": 0.5039370078740157
        },
        {
          "duration": 0.357142500000009,
          "durationTicks": 768,
          "midi": 75,
          "name": "D#5",
          "ticks": 176128,
          "time": 87.543774,
          "velocity": 0.5039370078740157
        },
        {
          "duration": 0.357142500000009,
          "durationTicks": 768,
          "midi": 80,
          "name": "G#5",
          "ticks": 176128,
          "time": 87.543774,
          "velocity": 0.5039370078740157
        },
        {
          "duration": 0.357142500000009,
          "durationTicks": 768,
          "midi": 84,
          "name": "C6",
          "ticks": 176128,
          "time": 87.543774,
          "velocity": 0.5039370078740157
        },
        {
          "duration": 0.11904750000000774,
          "durationTicks": 256,
          "midi": 53,
          "name": "F3",
          "ticks": 176128,
          "time": 87.543774,
          "velocity": 0.5039370078740157
        },
        {
          "duration": 0.11904749999999353,
          "durationTicks": 256,
          "midi": 53,
          "name": "F3",
          "ticks": 176384,
          "time": 87.6628215,
          "velocity": 0.5039370078740157
        },
        {
          "duration": 0.3571424999999948,
          "durationTicks": 768,
          "midi": 77,
          "name": "F5",
          "ticks": 176896,
          "time": 87.90091650000001,
          "velocity": 0.5039370078740157
        },
        {
          "duration": 0.23809500000000128,
          "durationTicks": 512,
          "midi": 53,
          "name": "F3",
          "ticks": 176896,
          "time": 87.90091650000001,
          "velocity": 0.5039370078740157
        },
        {
          "duration": 0.11904749999999353,
          "durationTicks": 256,
          "midi": 53,
          "name": "F3",
          "ticks": 177408,
          "time": 88.13901150000001,
          "velocity": 0.5039370078740157
        },
        {
          "duration": 0.23809500000000128,
          "durationTicks": 512,
          "midi": 75,
          "name": "D#5",
          "ticks": 177664,
          "time": 88.258059,
          "velocity": 0.5039370078740157
        },
        {
          "duration": 0.23809500000000128,
          "durationTicks": 512,
          "midi": 48,
          "name": "C3",
          "ticks": 177664,
          "time": 88.258059,
          "velocity": 0.5039370078740157
        },
        {
          "duration": 0.23809500000000128,
          "durationTicks": 512,
          "midi": 74,
          "name": "D5",
          "ticks": 178176,
          "time": 88.496154,
          "velocity": 0.5039370078740157
        },
        {
          "duration": 0.23809500000000128,
          "durationTicks": 512,
          "midi": 77,
          "name": "F5",
          "ticks": 178176,
          "time": 88.496154,
          "velocity": 0.5039370078740157
        },
        {
          "duration": 0.23809500000000128,
          "durationTicks": 512,
          "midi": 82,
          "name": "A#5",
          "ticks": 178176,
          "time": 88.496154,
          "velocity": 0.5039370078740157
        },
        {
          "duration": 0.23809500000000128,
          "durationTicks": 512,
          "midi": 46,
          "name": "A#2",
          "ticks": 178176,
          "time": 88.496154,
          "velocity": 0.5039370078740157
        },
        {
          "duration": 0.23809500000000128,
          "durationTicks": 512,
          "midi": 74,
          "name": "D5",
          "ticks": 178688,
          "time": 88.734249,
          "velocity": 0.5039370078740157
        },
        {
          "duration": 0.23809500000000128,
          "durationTicks": 512,
          "midi": 77,
          "name": "F5",
          "ticks": 178688,
          "time": 88.734249,
          "velocity": 0.5039370078740157
        },
        {
          "duration": 0.23809500000000128,
          "durationTicks": 512,
          "midi": 82,
          "name": "A#5",
          "ticks": 178688,
          "time": 88.734249,
          "velocity": 0.5039370078740157
        },
        {
          "duration": 0.23809500000000128,
          "durationTicks": 512,
          "midi": 46,
          "name": "A#2",
          "ticks": 178688,
          "time": 88.734249,
          "velocity": 0.5039370078740157
        },
        {
          "duration": 0.23809500000000128,
          "durationTicks": 512,
          "midi": 74,
          "name": "D5",
          "ticks": 179200,
          "time": 88.972344,
          "velocity": 0.5039370078740157
        },
        {
          "duration": 0.23809500000000128,
          "durationTicks": 512,
          "midi": 77,
          "name": "F5",
          "ticks": 179200,
          "time": 88.972344,
          "velocity": 0.5039370078740157
        },
        {
          "duration": 0.23809500000000128,
          "durationTicks": 512,
          "midi": 79,
          "name": "G5",
          "ticks": 179200,
          "time": 88.972344,
          "velocity": 0.5039370078740157
        },
        {
          "duration": 0.23809500000000128,
          "durationTicks": 512,
          "midi": 43,
          "name": "G2",
          "ticks": 179200,
          "time": 88.972344,
          "velocity": 0.5039370078740157
        },
        {
          "duration": 0.23809500000000128,
          "durationTicks": 512,
          "midi": 74,
          "name": "D5",
          "ticks": 179712,
          "time": 89.21043900000001,
          "velocity": 0.5039370078740157
        },
        {
          "duration": 0.23809500000000128,
          "durationTicks": 512,
          "midi": 77,
          "name": "F5",
          "ticks": 179712,
          "time": 89.21043900000001,
          "velocity": 0.5039370078740157
        },
        {
          "duration": 0.23809500000000128,
          "durationTicks": 512,
          "midi": 82,
          "name": "A#5",
          "ticks": 179712,
          "time": 89.21043900000001,
          "velocity": 0.5039370078740157
        },
        {
          "duration": 0.23809500000000128,
          "durationTicks": 512,
          "midi": 46,
          "name": "A#2",
          "ticks": 179712,
          "time": 89.21043900000001,
          "velocity": 0.5039370078740157
        },
        {
          "duration": 0.3571424999999948,
          "durationTicks": 768,
          "midi": 74,
          "name": "D5",
          "ticks": 180224,
          "time": 89.44853400000001,
          "velocity": 0.5039370078740157
        },
        {
          "duration": 0.3571424999999948,
          "durationTicks": 768,
          "midi": 77,
          "name": "F5",
          "ticks": 180224,
          "time": 89.44853400000001,
          "velocity": 0.5039370078740157
        },
        {
          "duration": 0.3571424999999948,
          "durationTicks": 768,
          "midi": 82,
          "name": "A#5",
          "ticks": 180224,
          "time": 89.44853400000001,
          "velocity": 0.5039370078740157
        },
        {
          "duration": 0.3571424999999948,
          "durationTicks": 768,
          "midi": 46,
          "name": "A#2",
          "ticks": 180224,
          "time": 89.44853400000001,
          "velocity": 0.5039370078740157
        },
        {
          "duration": 0.5952374999999961,
          "durationTicks": 1280,
          "midi": 75,
          "name": "D#5",
          "ticks": 180992,
          "time": 89.8056765,
          "velocity": 0.5039370078740157
        },
        {
          "duration": 0.5952374999999961,
          "durationTicks": 1280,
          "midi": 79,
          "name": "G5",
          "ticks": 180992,
          "time": 89.8056765,
          "velocity": 0.5039370078740157
        },
        {
          "duration": 0.5952374999999961,
          "durationTicks": 1280,
          "midi": 84,
          "name": "C6",
          "ticks": 180992,
          "time": 89.8056765,
          "velocity": 0.5039370078740157
        },
        {
          "duration": 0.5952374999999961,
          "durationTicks": 1280,
          "midi": 48,
          "name": "C3",
          "ticks": 180992,
          "time": 89.8056765,
          "velocity": 0.5039370078740157
        },
        {
          "duration": 0.11904750000000774,
          "durationTicks": 256,
          "midi": 43,
          "name": "G2",
          "ticks": 182272,
          "time": 90.400914,
          "velocity": 0.5039370078740157
        },
        {
          "duration": 0.11904749999999353,
          "durationTicks": 256,
          "midi": 46,
          "name": "A#2",
          "ticks": 182528,
          "time": 90.51996150000001,
          "velocity": 0.5039370078740157
        },
        {
          "duration": 0.11904750000000774,
          "durationTicks": 256,
          "midi": 48,
          "name": "C3",
          "ticks": 182784,
          "time": 90.639009,
          "velocity": 0.5039370078740157
        },
        {
          "duration": 0.11904749999999353,
          "durationTicks": 256,
          "midi": 43,
          "name": "G2",
          "ticks": 183040,
          "time": 90.75805650000001,
          "velocity": 0.5039370078740157
        },
        {
          "duration": 0.11904750000000774,
          "durationTicks": 256,
          "midi": 41,
          "name": "F2",
          "ticks": 183296,
          "time": 90.877104,
          "velocity": 0.5039370078740157
        },
        {
          "duration": 0.47619000000000256,
          "durationTicks": 1024,
          "midi": 36,
          "name": "C2",
          "ticks": 183296,
          "time": 90.877104,
          "velocity": 0.5039370078740157
        },
        {
          "duration": 0.11904749999999353,
          "durationTicks": 256,
          "midi": 43,
          "name": "G2",
          "ticks": 183552,
          "time": 90.99615150000001,
          "velocity": 0.5039370078740157
        },
        {
          "duration": 0.11904749999999353,
          "durationTicks": 256,
          "midi": 46,
          "name": "A#2",
          "ticks": 183808,
          "time": 91.115199,
          "velocity": 0.5039370078740157
        },
        {
          "duration": 0.11904750000000774,
          "durationTicks": 256,
          "midi": 48,
          "name": "C3",
          "ticks": 184064,
          "time": 91.2342465,
          "velocity": 0.5039370078740157
        },
        {
          "duration": 0.11904749999999353,
          "durationTicks": 256,
          "midi": 43,
          "name": "G2",
          "ticks": 184320,
          "time": 91.353294,
          "velocity": 0.5039370078740157
        },
        {
          "duration": 0.11904750000000774,
          "durationTicks": 256,
          "midi": 46,
          "name": "A#2",
          "ticks": 184576,
          "time": 91.4723415,
          "velocity": 0.5039370078740157
        },
        {
          "duration": 0.11904749999999353,
          "durationTicks": 256,
          "midi": 48,
          "name": "C3",
          "ticks": 184832,
          "time": 91.591389,
          "velocity": 0.5039370078740157
        },
        {
          "duration": 0.11904750000000774,
          "durationTicks": 256,
          "midi": 43,
          "name": "G2",
          "ticks": 185088,
          "time": 91.7104365,
          "velocity": 0.5039370078740157
        },
        {
          "duration": 0.11904749999999353,
          "durationTicks": 256,
          "midi": 41,
          "name": "F2",
          "ticks": 185344,
          "time": 91.82948400000001,
          "velocity": 0.5039370078740157
        },
        {
          "duration": 0.47619000000000256,
          "durationTicks": 1024,
          "midi": 36,
          "name": "C2",
          "ticks": 185344,
          "time": 91.82948400000001,
          "velocity": 0.5039370078740157
        },
        {
          "duration": 0.11904750000000774,
          "durationTicks": 256,
          "midi": 43,
          "name": "G2",
          "ticks": 185600,
          "time": 91.9485315,
          "velocity": 0.5039370078740157
        },
        {
          "duration": 0.11904749999999353,
          "durationTicks": 256,
          "midi": 46,
          "name": "A#2",
          "ticks": 185856,
          "time": 92.06757900000001,
          "velocity": 0.5039370078740157
        },
        {
          "duration": 0.11904750000000774,
          "durationTicks": 256,
          "midi": 48,
          "name": "C3",
          "ticks": 186112,
          "time": 92.1866265,
          "velocity": 0.5039370078740157
        },
        {
          "duration": 0.11904749999999353,
          "durationTicks": 256,
          "midi": 43,
          "name": "G2",
          "ticks": 186368,
          "time": 92.30567400000001,
          "velocity": 0.5039370078740157
        },
        {
          "duration": 0.11904749999999353,
          "durationTicks": 256,
          "midi": 46,
          "name": "A#2",
          "ticks": 186624,
          "time": 92.4247215,
          "velocity": 0.5039370078740157
        },
        {
          "duration": 0.11904750000000774,
          "durationTicks": 256,
          "midi": 48,
          "name": "C3",
          "ticks": 186880,
          "time": 92.543769,
          "velocity": 0.5039370078740157
        },
        {
          "duration": 0.11904749999999353,
          "durationTicks": 256,
          "midi": 43,
          "name": "G2",
          "ticks": 187136,
          "time": 92.6628165,
          "velocity": 0.5039370078740157
        },
        {
          "duration": 0.11904750000000774,
          "durationTicks": 256,
          "midi": 41,
          "name": "F2",
          "ticks": 187392,
          "time": 92.781864,
          "velocity": 0.5039370078740157
        },
        {
          "duration": 0.47619000000000256,
          "durationTicks": 1024,
          "midi": 36,
          "name": "C2",
          "ticks": 187392,
          "time": 92.781864,
          "velocity": 0.5039370078740157
        },
        {
          "duration": 0.11904749999999353,
          "durationTicks": 256,
          "midi": 43,
          "name": "G2",
          "ticks": 187648,
          "time": 92.9009115,
          "velocity": 0.5039370078740157
        },
        {
          "duration": 0.11904750000000774,
          "durationTicks": 256,
          "midi": 46,
          "name": "A#2",
          "ticks": 187904,
          "time": 93.019959,
          "velocity": 0.5039370078740157
        },
        {
          "duration": 0.11904749999999353,
          "durationTicks": 256,
          "midi": 48,
          "name": "C3",
          "ticks": 188160,
          "time": 93.13900650000001,
          "velocity": 0.5039370078740157
        },
        {
          "duration": 0.11904750000000774,
          "durationTicks": 256,
          "midi": 43,
          "name": "G2",
          "ticks": 188416,
          "time": 93.258054,
          "velocity": 0.5039370078740157
        },
        {
          "duration": 0.11904749999999353,
          "durationTicks": 256,
          "midi": 46,
          "name": "A#2",
          "ticks": 188672,
          "time": 93.37710150000001,
          "velocity": 0.5039370078740157
        },
        {
          "duration": 0.11904750000000774,
          "durationTicks": 256,
          "midi": 48,
          "name": "C3",
          "ticks": 188928,
          "time": 93.496149,
          "velocity": 0.5039370078740157
        },
        {
          "duration": 0.11904749999999353,
          "durationTicks": 256,
          "midi": 43,
          "name": "G2",
          "ticks": 189184,
          "time": 93.61519650000001,
          "velocity": 0.5039370078740157
        },
        {
          "duration": 0.11904749999999353,
          "durationTicks": 256,
          "midi": 41,
          "name": "F2",
          "ticks": 189440,
          "time": 93.734244,
          "velocity": 0.5039370078740157
        },
        {
          "duration": 0.47619000000000256,
          "durationTicks": 1024,
          "midi": 36,
          "name": "C2",
          "ticks": 189440,
          "time": 93.734244,
          "velocity": 0.5039370078740157
        },
        {
          "duration": 0.11904750000000774,
          "durationTicks": 256,
          "midi": 43,
          "name": "G2",
          "ticks": 189696,
          "time": 93.8532915,
          "velocity": 0.5039370078740157
        },
        {
          "duration": 0.11904749999999353,
          "durationTicks": 256,
          "midi": 46,
          "name": "A#2",
          "ticks": 189952,
          "time": 93.972339,
          "velocity": 0.5039370078740157
        },
        {
          "duration": 0.11904750000000774,
          "durationTicks": 256,
          "midi": 48,
          "name": "C3",
          "ticks": 190208,
          "time": 94.0913865,
          "velocity": 0.5039370078740157
        },
        {
          "duration": 0.11904749999999353,
          "durationTicks": 256,
          "midi": 39,
          "name": "D#2",
          "ticks": 190464,
          "time": 94.210434,
          "velocity": 0.5039370078740157
        },
        {
          "duration": 0.11904750000000774,
          "durationTicks": 256,
          "midi": 42,
          "name": "F#2",
          "ticks": 190720,
          "time": 94.3294815,
          "velocity": 0.5039370078740157
        },
        {
          "duration": 0.11904749999999353,
          "durationTicks": 256,
          "midi": 44,
          "name": "G#2",
          "ticks": 190976,
          "time": 94.44852900000001,
          "velocity": 0.5039370078740157
        },
        {
          "duration": 0.11904750000000774,
          "durationTicks": 256,
          "midi": 39,
          "name": "D#2",
          "ticks": 191232,
          "time": 94.5675765,
          "velocity": 0.5039370078740157
        },
        {
          "duration": 0.11904749999999353,
          "durationTicks": 256,
          "midi": 37,
          "name": "C#2",
          "ticks": 191488,
          "time": 94.68662400000001,
          "velocity": 0.5039370078740157
        },
        {
          "duration": 0.47618999999998834,
          "durationTicks": 1024,
          "midi": 32,
          "name": "G#1",
          "ticks": 191488,
          "time": 94.68662400000001,
          "velocity": 0.5039370078740157
        },
        {
          "duration": 0.11904750000000774,
          "durationTicks": 256,
          "midi": 39,
          "name": "D#2",
          "ticks": 191744,
          "time": 94.8056715,
          "velocity": 0.5039370078740157
        },
        {
          "duration": 0.11904749999999353,
          "durationTicks": 256,
          "midi": 42,
          "name": "F#2",
          "ticks": 192000,
          "time": 94.92471900000001,
          "velocity": 0.5039370078740157
        },
        {
          "duration": 0.11904749999999353,
          "durationTicks": 256,
          "midi": 44,
          "name": "G#2",
          "ticks": 192256,
          "time": 95.0437665,
          "velocity": 0.5039370078740157
        },
        {
          "duration": 0.11904750000000774,
          "durationTicks": 256,
          "midi": 39,
          "name": "D#2",
          "ticks": 192512,
          "time": 95.162814,
          "velocity": 0.5039370078740157
        },
        {
          "duration": 0.11904749999999353,
          "durationTicks": 256,
          "midi": 42,
          "name": "F#2",
          "ticks": 192768,
          "time": 95.2818615,
          "velocity": 0.5039370078740157
        },
        {
          "duration": 0.11904750000000774,
          "durationTicks": 256,
          "midi": 44,
          "name": "G#2",
          "ticks": 193024,
          "time": 95.400909,
          "velocity": 0.5039370078740157
        },
        {
          "duration": 0.11904749999999353,
          "durationTicks": 256,
          "midi": 39,
          "name": "D#2",
          "ticks": 193280,
          "time": 95.5199565,
          "velocity": 0.5039370078740157
        },
        {
          "duration": 0.11904750000000774,
          "durationTicks": 256,
          "midi": 37,
          "name": "C#2",
          "ticks": 193536,
          "time": 95.639004,
          "velocity": 0.5039370078740157
        },
        {
          "duration": 0.47619000000000256,
          "durationTicks": 1024,
          "midi": 32,
          "name": "G#1",
          "ticks": 193536,
          "time": 95.639004,
          "velocity": 0.5039370078740157
        },
        {
          "duration": 0.11904749999999353,
          "durationTicks": 256,
          "midi": 39,
          "name": "D#2",
          "ticks": 193792,
          "time": 95.75805150000001,
          "velocity": 0.5039370078740157
        },
        {
          "duration": 0.11904750000000774,
          "durationTicks": 256,
          "midi": 42,
          "name": "F#2",
          "ticks": 194048,
          "time": 95.877099,
          "velocity": 0.5039370078740157
        },
        {
          "duration": 0.11904749999999353,
          "durationTicks": 256,
          "midi": 44,
          "name": "G#2",
          "ticks": 194304,
          "time": 95.99614650000001,
          "velocity": 0.5039370078740157
        },
        {
          "duration": 0.11904750000000774,
          "durationTicks": 256,
          "midi": 41,
          "name": "F2",
          "ticks": 194560,
          "time": 96.115194,
          "velocity": 0.5039370078740157
        },
        {
          "duration": 0.11904749999999353,
          "durationTicks": 256,
          "midi": 44,
          "name": "G#2",
          "ticks": 194816,
          "time": 96.23424150000001,
          "velocity": 0.5039370078740157
        },
        {
          "duration": 0.11904749999999353,
          "durationTicks": 256,
          "midi": 46,
          "name": "A#2",
          "ticks": 195072,
          "time": 96.353289,
          "velocity": 0.5039370078740157
        },
        {
          "duration": 0.11904750000000774,
          "durationTicks": 256,
          "midi": 41,
          "name": "F2",
          "ticks": 195328,
          "time": 96.4723365,
          "velocity": 0.5039370078740157
        },
        {
          "duration": 0.11904749999999353,
          "durationTicks": 256,
          "midi": 39,
          "name": "D#2",
          "ticks": 195584,
          "time": 96.591384,
          "velocity": 0.5039370078740157
        },
        {
          "duration": 0.47619000000000256,
          "durationTicks": 1024,
          "midi": 34,
          "name": "A#1",
          "ticks": 195584,
          "time": 96.591384,
          "velocity": 0.5039370078740157
        },
        {
          "duration": 0.11904750000000774,
          "durationTicks": 256,
          "midi": 41,
          "name": "F2",
          "ticks": 195840,
          "time": 96.7104315,
          "velocity": 0.5039370078740157
        },
        {
          "duration": 0.11904749999999353,
          "durationTicks": 256,
          "midi": 44,
          "name": "G#2",
          "ticks": 196096,
          "time": 96.829479,
          "velocity": 0.5039370078740157
        },
        {
          "duration": 0.11904750000000774,
          "durationTicks": 256,
          "midi": 46,
          "name": "A#2",
          "ticks": 196352,
          "time": 96.9485265,
          "velocity": 0.5039370078740157
        },
        {
          "duration": 0.11904749999999353,
          "durationTicks": 256,
          "midi": 41,
          "name": "F2",
          "ticks": 196608,
          "time": 97.06757400000001,
          "velocity": 0.5039370078740157
        },
        {
          "duration": 0.11904750000000774,
          "durationTicks": 256,
          "midi": 44,
          "name": "G#2",
          "ticks": 196864,
          "time": 97.1866215,
          "velocity": 0.5039370078740157
        },
        {
          "duration": 0.11904749999999353,
          "durationTicks": 256,
          "midi": 46,
          "name": "A#2",
          "ticks": 197120,
          "time": 97.30566900000001,
          "velocity": 0.5039370078740157
        },
        {
          "duration": 0.11904750000000774,
          "durationTicks": 256,
          "midi": 41,
          "name": "F2",
          "ticks": 197376,
          "time": 97.4247165,
          "velocity": 0.5039370078740157
        },
        {
          "duration": 0.11904749999999353,
          "durationTicks": 256,
          "midi": 39,
          "name": "D#2",
          "ticks": 197632,
          "time": 97.54376400000001,
          "velocity": 0.5039370078740157
        },
        {
          "duration": 0.47618999999998834,
          "durationTicks": 1024,
          "midi": 34,
          "name": "A#1",
          "ticks": 197632,
          "time": 97.54376400000001,
          "velocity": 0.5039370078740157
        },
        {
          "duration": 0.11904749999999353,
          "durationTicks": 256,
          "midi": 41,
          "name": "F2",
          "ticks": 197888,
          "time": 97.6628115,
          "velocity": 0.5039370078740157
        },
        {
          "duration": 0.11904750000000774,
          "durationTicks": 256,
          "midi": 44,
          "name": "G#2",
          "ticks": 198144,
          "time": 97.781859,
          "velocity": 0.5039370078740157
        },
        {
          "duration": 0.11904749999999353,
          "durationTicks": 256,
          "midi": 46,
          "name": "A#2",
          "ticks": 198400,
          "time": 97.9009065,
          "velocity": 0.5039370078740157
        },
        {
          "duration": 0.11904750000000774,
          "durationTicks": 256,
          "midi": 43,
          "name": "G2",
          "ticks": 198656,
          "time": 98.019954,
          "velocity": 0.5039370078740157
        },
        {
          "duration": 0.11904749999999353,
          "durationTicks": 256,
          "midi": 46,
          "name": "A#2",
          "ticks": 198912,
          "time": 98.1390015,
          "velocity": 0.5039370078740157
        },
        {
          "duration": 0.11904750000000774,
          "durationTicks": 256,
          "midi": 48,
          "name": "C3",
          "ticks": 199168,
          "time": 98.258049,
          "velocity": 0.5039370078740157
        },
        {
          "duration": 0.11904749999999353,
          "durationTicks": 256,
          "midi": 43,
          "name": "G2",
          "ticks": 199424,
          "time": 98.37709650000001,
          "velocity": 0.5039370078740157
        },
        {
          "duration": 0.11904750000000774,
          "durationTicks": 256,
          "midi": 41,
          "name": "F2",
          "ticks": 199680,
          "time": 98.496144,
          "velocity": 0.5039370078740157
        },
        {
          "duration": 0.47619000000000256,
          "durationTicks": 1024,
          "midi": 36,
          "name": "C2",
          "ticks": 199680,
          "time": 98.496144,
          "velocity": 0.5039370078740157
        },
        {
          "duration": 0.11904749999999353,
          "durationTicks": 256,
          "midi": 43,
          "name": "G2",
          "ticks": 199936,
          "time": 98.61519150000001,
          "velocity": 0.5039370078740157
        },
        {
          "duration": 0.11904750000000774,
          "durationTicks": 256,
          "midi": 46,
          "name": "A#2",
          "ticks": 200192,
          "time": 98.734239,
          "velocity": 0.5039370078740157
        },
        {
          "duration": 0.11904749999999353,
          "durationTicks": 256,
          "midi": 48,
          "name": "C3",
          "ticks": 200448,
          "time": 98.85328650000001,
          "velocity": 0.5039370078740157
        },
        {
          "duration": 0.11904749999999353,
          "durationTicks": 256,
          "midi": 43,
          "name": "G2",
          "ticks": 200704,
          "time": 98.972334,
          "velocity": 0.5039370078740157
        },
        {
          "duration": 0.11904750000000774,
          "durationTicks": 256,
          "midi": 46,
          "name": "A#2",
          "ticks": 200960,
          "time": 99.0913815,
          "velocity": 0.5039370078740157
        },
        {
          "duration": 0.11904749999999353,
          "durationTicks": 256,
          "midi": 48,
          "name": "C3",
          "ticks": 201216,
          "time": 99.210429,
          "velocity": 0.5039370078740157
        },
        {
          "duration": 0.11904750000000774,
          "durationTicks": 256,
          "midi": 43,
          "name": "G2",
          "ticks": 201472,
          "time": 99.3294765,
          "velocity": 0.5039370078740157
        },
        {
          "duration": 0.11904749999999353,
          "durationTicks": 256,
          "midi": 41,
          "name": "F2",
          "ticks": 201728,
          "time": 99.448524,
          "velocity": 0.5039370078740157
        },
        {
          "duration": 0.47619000000000256,
          "durationTicks": 1024,
          "midi": 36,
          "name": "C2",
          "ticks": 201728,
          "time": 99.448524,
          "velocity": 0.5039370078740157
        },
        {
          "duration": 0.11904750000000774,
          "durationTicks": 256,
          "midi": 43,
          "name": "G2",
          "ticks": 201984,
          "time": 99.5675715,
          "velocity": 0.5039370078740157
        },
        {
          "duration": 0.11904749999999353,
          "durationTicks": 256,
          "midi": 46,
          "name": "A#2",
          "ticks": 202240,
          "time": 99.68661900000001,
          "velocity": 0.5039370078740157
        },
        {
          "duration": 0.11904750000000774,
          "durationTicks": 256,
          "midi": 48,
          "name": "C3",
          "ticks": 202496,
          "time": 99.8056665,
          "velocity": 0.5039370078740157
        },
        {
          "duration": 0.11904749999999353,
          "durationTicks": 256,
          "midi": 43,
          "name": "G2",
          "ticks": 202752,
          "time": 99.92471400000001,
          "velocity": 0.5039370078740157
        },
        {
          "duration": 0.11904750000000774,
          "durationTicks": 256,
          "midi": 46,
          "name": "A#2",
          "ticks": 203008,
          "time": 100.0437615,
          "velocity": 0.5039370078740157
        },
        {
          "duration": 0.11904749999999353,
          "durationTicks": 256,
          "midi": 48,
          "name": "C3",
          "ticks": 203264,
          "time": 100.16280900000001,
          "velocity": 0.5039370078740157
        },
        {
          "duration": 0.11904749999999353,
          "durationTicks": 256,
          "midi": 43,
          "name": "G2",
          "ticks": 203520,
          "time": 100.2818565,
          "velocity": 0.5039370078740157
        },
        {
          "duration": 0.11904750000000774,
          "durationTicks": 256,
          "midi": 41,
          "name": "F2",
          "ticks": 203776,
          "time": 100.400904,
          "velocity": 0.5039370078740157
        },
        {
          "duration": 0.47619000000000256,
          "durationTicks": 1024,
          "midi": 36,
          "name": "C2",
          "ticks": 203776,
          "time": 100.400904,
          "velocity": 0.5039370078740157
        },
        {
          "duration": 0.11904749999999353,
          "durationTicks": 256,
          "midi": 43,
          "name": "G2",
          "ticks": 204032,
          "time": 100.5199515,
          "velocity": 0.5039370078740157
        },
        {
          "duration": 0.11904750000000774,
          "durationTicks": 256,
          "midi": 46,
          "name": "A#2",
          "ticks": 204288,
          "time": 100.638999,
          "velocity": 0.5039370078740157
        },
        {
          "duration": 0.11904749999999353,
          "durationTicks": 256,
          "midi": 48,
          "name": "C3",
          "ticks": 204544,
          "time": 100.7580465,
          "velocity": 0.5039370078740157
        },
        {
          "duration": 0.11904750000000774,
          "durationTicks": 256,
          "midi": 43,
          "name": "G2",
          "ticks": 204800,
          "time": 100.877094,
          "velocity": 0.5039370078740157
        },
        {
          "duration": 0.11904749999999353,
          "durationTicks": 256,
          "midi": 46,
          "name": "A#2",
          "ticks": 205056,
          "time": 100.99614150000001,
          "velocity": 0.5039370078740157
        },
        {
          "duration": 0.11904750000000774,
          "durationTicks": 256,
          "midi": 48,
          "name": "C3",
          "ticks": 205312,
          "time": 101.115189,
          "velocity": 0.5039370078740157
        },
        {
          "duration": 0.11904749999999353,
          "durationTicks": 256,
          "midi": 43,
          "name": "G2",
          "ticks": 205568,
          "time": 101.23423650000001,
          "velocity": 0.5039370078740157
        },
        {
          "duration": 0.11904750000000774,
          "durationTicks": 256,
          "midi": 41,
          "name": "F2",
          "ticks": 205824,
          "time": 101.353284,
          "velocity": 0.5039370078740157
        },
        {
          "duration": 0.47619000000000256,
          "durationTicks": 1024,
          "midi": 36,
          "name": "C2",
          "ticks": 205824,
          "time": 101.353284,
          "velocity": 0.5039370078740157
        },
        {
          "duration": 0.11904749999999353,
          "durationTicks": 256,
          "midi": 43,
          "name": "G2",
          "ticks": 206080,
          "time": 101.47233150000001,
          "velocity": 0.5039370078740157
        },
        {
          "duration": 0.11904749999999353,
          "durationTicks": 256,
          "midi": 46,
          "name": "A#2",
          "ticks": 206336,
          "time": 101.591379,
          "velocity": 0.5039370078740157
        },
        {
          "duration": 0.11904750000000774,
          "durationTicks": 256,
          "midi": 48,
          "name": "C3",
          "ticks": 206592,
          "time": 101.7104265,
          "velocity": 0.5039370078740157
        },
        {
          "duration": 0.11904749999999353,
          "durationTicks": 256,
          "midi": 39,
          "name": "D#2",
          "ticks": 206848,
          "time": 101.829474,
          "velocity": 0.5039370078740157
        },
        {
          "duration": 0.11904750000000774,
          "durationTicks": 256,
          "midi": 42,
          "name": "F#2",
          "ticks": 207104,
          "time": 101.9485215,
          "velocity": 0.5039370078740157
        },
        {
          "duration": 0.11904749999999353,
          "durationTicks": 256,
          "midi": 44,
          "name": "G#2",
          "ticks": 207360,
          "time": 102.067569,
          "velocity": 0.5039370078740157
        },
        {
          "duration": 0.11904750000000774,
          "durationTicks": 256,
          "midi": 39,
          "name": "D#2",
          "ticks": 207616,
          "time": 102.1866165,
          "velocity": 0.5039370078740157
        },
        {
          "duration": 0.11904749999999353,
          "durationTicks": 256,
          "midi": 37,
          "name": "C#2",
          "ticks": 207872,
          "time": 102.30566400000001,
          "velocity": 0.5039370078740157
        },
        {
          "duration": 0.47619000000000256,
          "durationTicks": 1024,
          "midi": 32,
          "name": "G#1",
          "ticks": 207872,
          "time": 102.30566400000001,
          "velocity": 0.5039370078740157
        },
        {
          "duration": 0.11904750000000774,
          "durationTicks": 256,
          "midi": 39,
          "name": "D#2",
          "ticks": 208128,
          "time": 102.4247115,
          "velocity": 0.5039370078740157
        },
        {
          "duration": 0.11904749999999353,
          "durationTicks": 256,
          "midi": 42,
          "name": "F#2",
          "ticks": 208384,
          "time": 102.54375900000001,
          "velocity": 0.5039370078740157
        },
        {
          "duration": 0.11904750000000774,
          "durationTicks": 256,
          "midi": 44,
          "name": "G#2",
          "ticks": 208640,
          "time": 102.6628065,
          "velocity": 0.5039370078740157
        },
        {
          "duration": 0.11904749999999353,
          "durationTicks": 256,
          "midi": 39,
          "name": "D#2",
          "ticks": 208896,
          "time": 102.78185400000001,
          "velocity": 0.5039370078740157
        },
        {
          "duration": 0.11904749999999353,
          "durationTicks": 256,
          "midi": 42,
          "name": "F#2",
          "ticks": 209152,
          "time": 102.9009015,
          "velocity": 0.5039370078740157
        },
        {
          "duration": 0.11904750000000774,
          "durationTicks": 256,
          "midi": 44,
          "name": "G#2",
          "ticks": 209408,
          "time": 103.019949,
          "velocity": 0.5039370078740157
        },
        {
          "duration": 0.11904749999999353,
          "durationTicks": 256,
          "midi": 39,
          "name": "D#2",
          "ticks": 209664,
          "time": 103.1389965,
          "velocity": 0.5039370078740157
        },
        {
          "duration": 0.11904750000000774,
          "durationTicks": 256,
          "midi": 37,
          "name": "C#2",
          "ticks": 209920,
          "time": 103.258044,
          "velocity": 0.5039370078740157
        },
        {
          "duration": 0.47619000000000256,
          "durationTicks": 1024,
          "midi": 32,
          "name": "G#1",
          "ticks": 209920,
          "time": 103.258044,
          "velocity": 0.5039370078740157
        },
        {
          "duration": 0.11904749999999353,
          "durationTicks": 256,
          "midi": 39,
          "name": "D#2",
          "ticks": 210176,
          "time": 103.3770915,
          "velocity": 0.5039370078740157
        },
        {
          "duration": 0.11904750000000774,
          "durationTicks": 256,
          "midi": 42,
          "name": "F#2",
          "ticks": 210432,
          "time": 103.496139,
          "velocity": 0.5039370078740157
        },
        {
          "duration": 0.11904749999999353,
          "durationTicks": 256,
          "midi": 44,
          "name": "G#2",
          "ticks": 210688,
          "time": 103.61518650000001,
          "velocity": 0.5039370078740157
        },
        {
          "duration": 0.11904750000000774,
          "durationTicks": 256,
          "midi": 41,
          "name": "F2",
          "ticks": 210944,
          "time": 103.734234,
          "velocity": 0.5039370078740157
        },
        {
          "duration": 0.11904749999999353,
          "durationTicks": 256,
          "midi": 44,
          "name": "G#2",
          "ticks": 211200,
          "time": 103.85328150000001,
          "velocity": 0.5039370078740157
        },
        {
          "duration": 0.11904750000000774,
          "durationTicks": 256,
          "midi": 46,
          "name": "A#2",
          "ticks": 211456,
          "time": 103.972329,
          "velocity": 0.5039370078740157
        },
        {
          "duration": 0.11904749999999353,
          "durationTicks": 256,
          "midi": 41,
          "name": "F2",
          "ticks": 211712,
          "time": 104.09137650000001,
          "velocity": 0.5039370078740157
        },
        {
          "duration": 0.11904749999999353,
          "durationTicks": 256,
          "midi": 39,
          "name": "D#2",
          "ticks": 211968,
          "time": 104.210424,
          "velocity": 0.5039370078740157
        },
        {
          "duration": 0.47619000000000256,
          "durationTicks": 1024,
          "midi": 34,
          "name": "A#1",
          "ticks": 211968,
          "time": 104.210424,
          "velocity": 0.5039370078740157
        },
        {
          "duration": 0.11904750000000774,
          "durationTicks": 256,
          "midi": 41,
          "name": "F2",
          "ticks": 212224,
          "time": 104.3294715,
          "velocity": 0.5039370078740157
        },
        {
          "duration": 0.11904749999999353,
          "durationTicks": 256,
          "midi": 44,
          "name": "G#2",
          "ticks": 212480,
          "time": 104.448519,
          "velocity": 0.5039370078740157
        },
        {
          "duration": 0.11904750000000774,
          "durationTicks": 256,
          "midi": 46,
          "name": "A#2",
          "ticks": 212736,
          "time": 104.5675665,
          "velocity": 0.5039370078740157
        },
        {
          "duration": 0.11904749999999353,
          "durationTicks": 256,
          "midi": 41,
          "name": "F2",
          "ticks": 212992,
          "time": 104.686614,
          "velocity": 0.5039370078740157
        },
        {
          "duration": 0.11904750000000774,
          "durationTicks": 256,
          "midi": 44,
          "name": "G#2",
          "ticks": 213248,
          "time": 104.8056615,
          "velocity": 0.5039370078740157
        },
        {
          "duration": 0.11904749999999353,
          "durationTicks": 256,
          "midi": 46,
          "name": "A#2",
          "ticks": 213504,
          "time": 104.92470900000001,
          "velocity": 0.5039370078740157
        },
        {
          "duration": 0.11904750000000774,
          "durationTicks": 256,
          "midi": 41,
          "name": "F2",
          "ticks": 213760,
          "time": 105.0437565,
          "velocity": 0.5039370078740157
        },
        {
          "duration": 0.11904749999999353,
          "durationTicks": 256,
          "midi": 39,
          "name": "D#2",
          "ticks": 214016,
          "time": 105.16280400000001,
          "velocity": 0.5039370078740157
        },
        {
          "duration": 0.47619000000000256,
          "durationTicks": 1024,
          "midi": 34,
          "name": "A#1",
          "ticks": 214016,
          "time": 105.16280400000001,
          "velocity": 0.5039370078740157
        },
        {
          "duration": 0.11904750000000774,
          "durationTicks": 256,
          "midi": 41,
          "name": "F2",
          "ticks": 214272,
          "time": 105.2818515,
          "velocity": 0.5039370078740157
        },
        {
          "duration": 0.11904749999999353,
          "durationTicks": 256,
          "midi": 44,
          "name": "G#2",
          "ticks": 214528,
          "time": 105.40089900000001,
          "velocity": 0.5039370078740157
        },
        {
          "duration": 0.11904750000000774,
          "durationTicks": 256,
          "midi": 46,
          "name": "A#2",
          "ticks": 214784,
          "time": 105.5199465,
          "velocity": 0.5039370078740157
        },
        {
          "duration": 0.23809499999998707,
          "durationTicks": 512,
          "midi": 63,
          "name": "D#4",
          "ticks": 215040,
          "time": 105.63899400000001,
          "velocity": 0.5039370078740157
        },
        {
          "duration": 0.23809499999998707,
          "durationTicks": 512,
          "midi": 67,
          "name": "G4",
          "ticks": 215040,
          "time": 105.63899400000001,
          "velocity": 0.5039370078740157
        },
        {
          "duration": 0.23809499999998707,
          "durationTicks": 512,
          "midi": 68,
          "name": "G#4",
          "ticks": 215040,
          "time": 105.63899400000001,
          "velocity": 0.5039370078740157
        },
        {
          "duration": 0.23809499999998707,
          "durationTicks": 512,
          "midi": 72,
          "name": "C5",
          "ticks": 215040,
          "time": 105.63899400000001,
          "velocity": 0.5039370078740157
        },
        {
          "duration": 0.23809499999998707,
          "durationTicks": 512,
          "midi": 41,
          "name": "F2",
          "ticks": 215040,
          "time": 105.63899400000001,
          "velocity": 0.5039370078740157
        },
        {
          "duration": 0.357142500000009,
          "durationTicks": 768,
          "midi": 63,
          "name": "D#4",
          "ticks": 215552,
          "time": 105.877089,
          "velocity": 0.5039370078740157
        },
        {
          "duration": 0.357142500000009,
          "durationTicks": 768,
          "midi": 67,
          "name": "G4",
          "ticks": 215552,
          "time": 105.877089,
          "velocity": 0.5039370078740157
        },
        {
          "duration": 0.357142500000009,
          "durationTicks": 768,
          "midi": 68,
          "name": "G#4",
          "ticks": 215552,
          "time": 105.877089,
          "velocity": 0.5039370078740157
        },
        {
          "duration": 0.357142500000009,
          "durationTicks": 768,
          "midi": 72,
          "name": "C5",
          "ticks": 215552,
          "time": 105.877089,
          "velocity": 0.5039370078740157
        },
        {
          "duration": 0.23809500000000128,
          "durationTicks": 512,
          "midi": 41,
          "name": "F2",
          "ticks": 215552,
          "time": 105.877089,
          "velocity": 0.5039370078740157
        },
        {
          "duration": 0.23809500000000128,
          "durationTicks": 512,
          "midi": 41,
          "name": "F2",
          "ticks": 216064,
          "time": 106.115184,
          "velocity": 0.5039370078740157
        },
        {
          "duration": 0.3571424999999948,
          "durationTicks": 768,
          "midi": 63,
          "name": "D#4",
          "ticks": 216320,
          "time": 106.2342315,
          "velocity": 0.5039370078740157
        },
        {
          "duration": 0.3571424999999948,
          "durationTicks": 768,
          "midi": 67,
          "name": "G4",
          "ticks": 216320,
          "time": 106.2342315,
          "velocity": 0.5039370078740157
        },
        {
          "duration": 0.3571424999999948,
          "durationTicks": 768,
          "midi": 68,
          "name": "G#4",
          "ticks": 216320,
          "time": 106.2342315,
          "velocity": 0.5039370078740157
        },
        {
          "duration": 0.3571424999999948,
          "durationTicks": 768,
          "midi": 72,
          "name": "C5",
          "ticks": 216320,
          "time": 106.2342315,
          "velocity": 0.5039370078740157
        },
        {
          "duration": 0.357142500000009,
          "durationTicks": 768,
          "midi": 41,
          "name": "F2",
          "ticks": 216576,
          "time": 106.353279,
          "velocity": 0.5039370078740157
        },
        {
          "duration": 0.47619000000000256,
          "durationTicks": 1024,
          "midi": 60,
          "name": "C4",
          "ticks": 217088,
          "time": 106.591374,
          "velocity": 0.5039370078740157
        },
        {
          "duration": 0.47619000000000256,
          "durationTicks": 1024,
          "midi": 67,
          "name": "G4",
          "ticks": 217088,
          "time": 106.591374,
          "velocity": 0.5039370078740157
        },
        {
          "duration": 0.23809500000000128,
          "durationTicks": 512,
          "midi": 41,
          "name": "F2",
          "ticks": 217344,
          "time": 106.71042150000001,
          "velocity": 0.5039370078740157
        },
        {
          "duration": 0.11904749999999353,
          "durationTicks": 256,
          "midi": 41,
          "name": "F2",
          "ticks": 217856,
          "time": 106.94851650000001,
          "velocity": 0.5039370078740157
        },
        {
          "duration": 0.47619000000000256,
          "durationTicks": 1024,
          "midi": 60,
          "name": "C4",
          "ticks": 218112,
          "time": 107.067564,
          "velocity": 0.5039370078740157
        },
        {
          "duration": 0.47619000000000256,
          "durationTicks": 1024,
          "midi": 65,
          "name": "F4",
          "ticks": 218112,
          "time": 107.067564,
          "velocity": 0.5039370078740157
        },
        {
          "duration": 0.23809500000000128,
          "durationTicks": 512,
          "midi": 41,
          "name": "F2",
          "ticks": 218112,
          "time": 107.067564,
          "velocity": 0.5039370078740157
        },
        {
          "duration": 0.23809500000000128,
          "durationTicks": 512,
          "midi": 42,
          "name": "F#2",
          "ticks": 218624,
          "time": 107.305659,
          "velocity": 0.5039370078740157
        },
        {
          "duration": 0.9523799999999909,
          "durationTicks": 2048,
          "midi": 65,
          "name": "F4",
          "ticks": 219136,
          "time": 107.543754,
          "velocity": 0.5039370078740157
        },
        {
          "duration": 0.9523799999999909,
          "durationTicks": 2048,
          "midi": 72,
          "name": "C5",
          "ticks": 219136,
          "time": 107.543754,
          "velocity": 0.5039370078740157
        },
        {
          "duration": 0.23809500000000128,
          "durationTicks": 512,
          "midi": 43,
          "name": "G2",
          "ticks": 219136,
          "time": 107.543754,
          "velocity": 0.5039370078740157
        },
        {
          "duration": 0.23809500000000128,
          "durationTicks": 512,
          "midi": 43,
          "name": "G2",
          "ticks": 219648,
          "time": 107.78184900000001,
          "velocity": 0.5039370078740157
        },
        {
          "duration": 0.23809500000000128,
          "durationTicks": 512,
          "midi": 43,
          "name": "G2",
          "ticks": 220160,
          "time": 108.01994400000001,
          "velocity": 0.5039370078740157
        },
        {
          "duration": 0.11904749999999353,
          "durationTicks": 256,
          "midi": 43,
          "name": "G2",
          "ticks": 220672,
          "time": 108.25803900000001,
          "velocity": 0.5039370078740157
        },
        {
          "duration": 0.23809500000000128,
          "durationTicks": 512,
          "midi": 43,
          "name": "G2",
          "ticks": 220928,
          "time": 108.3770865,
          "velocity": 0.5039370078740157
        },
        {
          "duration": 0.47619000000000256,
          "durationTicks": 1024,
          "midi": 55,
          "name": "G3",
          "ticks": 221184,
          "time": 108.496134,
          "velocity": 0.5039370078740157
        },
        {
          "duration": 0.47619000000000256,
          "durationTicks": 1024,
          "midi": 60,
          "name": "C4",
          "ticks": 221184,
          "time": 108.496134,
          "velocity": 0.5039370078740157
        },
        {
          "duration": 0.23809500000000128,
          "durationTicks": 512,
          "midi": 43,
          "name": "G2",
          "ticks": 221440,
          "time": 108.6151815,
          "velocity": 0.5039370078740157
        },
        {
          "duration": 0.11904749999999353,
          "durationTicks": 256,
          "midi": 43,
          "name": "G2",
          "ticks": 221952,
          "time": 108.8532765,
          "velocity": 0.5039370078740157
        },
        {
          "duration": 0.47619000000000256,
          "durationTicks": 1024,
          "midi": 55,
          "name": "G3",
          "ticks": 222208,
          "time": 108.972324,
          "velocity": 0.5039370078740157
        },
        {
          "duration": 0.47619000000000256,
          "durationTicks": 1024,
          "midi": 60,
          "name": "C4",
          "ticks": 222208,
          "time": 108.972324,
          "velocity": 0.5039370078740157
        },
        {
          "duration": 0.23809500000000128,
          "durationTicks": 512,
          "midi": 43,
          "name": "G2",
          "ticks": 222208,
          "time": 108.972324,
          "velocity": 0.5039370078740157
        },
        {
          "duration": 0.23809500000000128,
          "durationTicks": 512,
          "midi": 43,
          "name": "G2",
          "ticks": 222720,
          "time": 109.210419,
          "velocity": 0.5039370078740157
        },
        {
          "duration": 0.9523800000000051,
          "durationTicks": 2048,
          "midi": 60,
          "name": "C4",
          "ticks": 223232,
          "time": 109.448514,
          "velocity": 0.5039370078740157
        },
        {
          "duration": 0.9523800000000051,
          "durationTicks": 2048,
          "midi": 67,
          "name": "G4",
          "ticks": 223232,
          "time": 109.448514,
          "velocity": 0.5039370078740157
        },
        {
          "duration": 0.23809500000000128,
          "durationTicks": 512,
          "midi": 44,
          "name": "G#2",
          "ticks": 223232,
          "time": 109.448514,
          "velocity": 0.5039370078740157
        },
        {
          "duration": 0.23809500000000128,
          "durationTicks": 512,
          "midi": 44,
          "name": "G#2",
          "ticks": 223744,
          "time": 109.686609,
          "velocity": 0.5039370078740157
        },
        {
          "duration": 0.23809500000000128,
          "durationTicks": 512,
          "midi": 44,
          "name": "G#2",
          "ticks": 224256,
          "time": 109.924704,
          "velocity": 0.5039370078740157
        },
        {
          "duration": 0.11904749999999353,
          "durationTicks": 256,
          "midi": 44,
          "name": "G#2",
          "ticks": 224768,
          "time": 110.162799,
          "velocity": 0.5039370078740157
        },
        {
          "duration": 0.23809500000000128,
          "durationTicks": 512,
          "midi": 44,
          "name": "G#2",
          "ticks": 225024,
          "time": 110.2818465,
          "velocity": 0.5039370078740157
        },
        {
          "duration": 0.47619000000000256,
          "durationTicks": 1024,
          "midi": 60,
          "name": "C4",
          "ticks": 225280,
          "time": 110.40089400000001,
          "velocity": 0.5039370078740157
        },
        {
          "duration": 0.47619000000000256,
          "durationTicks": 1024,
          "midi": 67,
          "name": "G4",
          "ticks": 225280,
          "time": 110.40089400000001,
          "velocity": 0.5039370078740157
        },
        {
          "duration": 0.23809500000000128,
          "durationTicks": 512,
          "midi": 44,
          "name": "G#2",
          "ticks": 225536,
          "time": 110.5199415,
          "velocity": 0.5039370078740157
        },
        {
          "duration": 0.11904750000000774,
          "durationTicks": 256,
          "midi": 44,
          "name": "G#2",
          "ticks": 226048,
          "time": 110.7580365,
          "velocity": 0.5039370078740157
        },
        {
          "duration": 0.47618999999998834,
          "durationTicks": 1024,
          "midi": 60,
          "name": "C4",
          "ticks": 226304,
          "time": 110.87708400000001,
          "velocity": 0.5039370078740157
        },
        {
          "duration": 0.47618999999998834,
          "durationTicks": 1024,
          "midi": 65,
          "name": "F4",
          "ticks": 226304,
          "time": 110.87708400000001,
          "velocity": 0.5039370078740157
        },
        {
          "duration": 0.23809499999998707,
          "durationTicks": 512,
          "midi": 44,
          "name": "G#2",
          "ticks": 226304,
          "time": 110.87708400000001,
          "velocity": 0.5039370078740157
        },
        {
          "duration": 0.23809500000000128,
          "durationTicks": 512,
          "midi": 44,
          "name": "G#2",
          "ticks": 226816,
          "time": 111.115179,
          "velocity": 0.5039370078740157
        },
        {
          "duration": 0.7142850000000038,
          "durationTicks": 1536,
          "midi": 65,
          "name": "F4",
          "ticks": 227328,
          "time": 111.353274,
          "velocity": 0.5039370078740157
        },
        {
          "duration": 0.7142850000000038,
          "durationTicks": 1536,
          "midi": 72,
          "name": "C5",
          "ticks": 227328,
          "time": 111.353274,
          "velocity": 0.5039370078740157
        },
        {
          "duration": 0.23809500000000128,
          "durationTicks": 512,
          "midi": 43,
          "name": "G2",
          "ticks": 227328,
          "time": 111.353274,
          "velocity": 0.5039370078740157
        },
        {
          "duration": 0.23809500000000128,
          "durationTicks": 512,
          "midi": 43,
          "name": "G2",
          "ticks": 227840,
          "time": 111.591369,
          "velocity": 0.5039370078740157
        },
        {
          "duration": 0.23809500000000128,
          "durationTicks": 512,
          "midi": 43,
          "name": "G2",
          "ticks": 228352,
          "time": 111.829464,
          "velocity": 0.5039370078740157
        },
        {
          "duration": 1.1904750000000064,
          "durationTicks": 2560,
          "midi": 70,
          "name": "A#4",
          "ticks": 228864,
          "time": 112.067559,
          "velocity": 0.5039370078740157
        },
        {
          "duration": 0.11904750000000774,
          "durationTicks": 256,
          "midi": 43,
          "name": "G2",
          "ticks": 228864,
          "time": 112.067559,
          "velocity": 0.5039370078740157
        },
        {
          "duration": 0.23809499999998707,
          "durationTicks": 512,
          "midi": 43,
          "name": "G2",
          "ticks": 229120,
          "time": 112.18660650000001,
          "velocity": 0.5039370078740157
        },
        {
          "duration": 0.47619000000000256,
          "durationTicks": 1024,
          "midi": 62,
          "name": "D4",
          "ticks": 229376,
          "time": 112.305654,
          "velocity": 0.5039370078740157
        },
        {
          "duration": 0.23809500000000128,
          "durationTicks": 512,
          "midi": 43,
          "name": "G2",
          "ticks": 229632,
          "time": 112.4247015,
          "velocity": 0.5039370078740157
        },
        {
          "duration": 0.11904750000000774,
          "durationTicks": 256,
          "midi": 43,
          "name": "G2",
          "ticks": 230144,
          "time": 112.6627965,
          "velocity": 0.5039370078740157
        },
        {
          "duration": 0.47619000000000256,
          "durationTicks": 1024,
          "midi": 62,
          "name": "D4",
          "ticks": 230400,
          "time": 112.781844,
          "velocity": 0.5039370078740157
        },
        {
          "duration": 0.23809500000000128,
          "durationTicks": 512,
          "midi": 43,
          "name": "G2",
          "ticks": 230400,
          "time": 112.781844,
          "velocity": 0.5039370078740157
        },
        {
          "duration": 0.23809500000000128,
          "durationTicks": 512,
          "midi": 43,
          "name": "G2",
          "ticks": 230912,
          "time": 113.01993900000001,
          "velocity": 0.5039370078740157
        },
        {
          "duration": 0.7142849999999896,
          "durationTicks": 1536,
          "midi": 60,
          "name": "C4",
          "ticks": 231424,
          "time": 113.25803400000001,
          "velocity": 0.5039370078740157
        },
        {
          "duration": 0.7142849999999896,
          "durationTicks": 1536,
          "midi": 67,
          "name": "G4",
          "ticks": 231424,
          "time": 113.25803400000001,
          "velocity": 0.5039370078740157
        },
        {
          "duration": 0.23809500000000128,
          "durationTicks": 512,
          "midi": 41,
          "name": "F2",
          "ticks": 231424,
          "time": 113.25803400000001,
          "velocity": 0.5039370078740157
        },
        {
          "duration": 0.23809499999998707,
          "durationTicks": 512,
          "midi": 41,
          "name": "F2",
          "ticks": 231936,
          "time": 113.49612900000001,
          "velocity": 0.5039370078740157
        },
        {
          "duration": 0.23809500000000128,
          "durationTicks": 512,
          "midi": 41,
          "name": "F2",
          "ticks": 232448,
          "time": 113.734224,
          "velocity": 0.5039370078740157
        },
        {
          "duration": 0.23809500000000128,
          "durationTicks": 512,
          "midi": 60,
          "name": "C4",
          "ticks": 232960,
          "time": 113.972319,
          "velocity": 0.5039370078740157
        },
        {
          "duration": 0.11904750000000774,
          "durationTicks": 256,
          "midi": 41,
          "name": "F2",
          "ticks": 232960,
          "time": 113.972319,
          "velocity": 0.5039370078740157
        },
        {
          "duration": 0.23809500000000128,
          "durationTicks": 512,
          "midi": 41,
          "name": "F2",
          "ticks": 233216,
          "time": 114.0913665,
          "velocity": 0.5039370078740157
        },
        {
          "duration": 0.47619000000000256,
          "durationTicks": 1024,
          "midi": 67,
          "name": "G4",
          "ticks": 233472,
          "time": 114.210414,
          "velocity": 0.5039370078740157
        },
        {
          "duration": 0.23809500000000128,
          "durationTicks": 512,
          "midi": 41,
          "name": "F2",
          "ticks": 233728,
          "time": 114.32946150000001,
          "velocity": 0.5039370078740157
        },
        {
          "duration": 0.11904749999999353,
          "durationTicks": 256,
          "midi": 41,
          "name": "F2",
          "ticks": 234240,
          "time": 114.56755650000001,
          "velocity": 0.5039370078740157
        },
        {
          "duration": 0.47619000000000256,
          "durationTicks": 1024,
          "midi": 65,
          "name": "F4",
          "ticks": 234496,
          "time": 114.686604,
          "velocity": 0.5039370078740157
        },
        {
          "duration": 0.23809500000000128,
          "durationTicks": 512,
          "midi": 41,
          "name": "F2",
          "ticks": 234496,
          "time": 114.686604,
          "velocity": 0.5039370078740157
        },
        {
          "duration": 0.23809500000000128,
          "durationTicks": 512,
          "midi": 41,
          "name": "F2",
          "ticks": 235008,
          "time": 114.924699,
          "velocity": 0.5039370078740157
        },
        {
          "duration": 0.9523800000000051,
          "durationTicks": 2048,
          "midi": 65,
          "name": "F4",
          "ticks": 235520,
          "time": 115.162794,
          "velocity": 0.5039370078740157
        },
        {
          "duration": 0.9523800000000051,
          "durationTicks": 2048,
          "midi": 72,
          "name": "C5",
          "ticks": 235520,
          "time": 115.162794,
          "velocity": 0.5039370078740157
        },
        {
          "duration": 0.23809500000000128,
          "durationTicks": 512,
          "midi": 43,
          "name": "G2",
          "ticks": 235520,
          "time": 115.162794,
          "velocity": 0.5039370078740157
        },
        {
          "duration": 0.23809500000000128,
          "durationTicks": 512,
          "midi": 43,
          "name": "G2",
          "ticks": 236032,
          "time": 115.400889,
          "velocity": 0.5039370078740157
        },
        {
          "duration": 0.23809500000000128,
          "durationTicks": 512,
          "midi": 43,
          "name": "G2",
          "ticks": 236544,
          "time": 115.63898400000001,
          "velocity": 0.5039370078740157
        },
        {
          "duration": 0.11904749999999353,
          "durationTicks": 256,
          "midi": 43,
          "name": "G2",
          "ticks": 237056,
          "time": 115.87707900000001,
          "velocity": 0.5039370078740157
        },
        {
          "duration": 0.23809500000000128,
          "durationTicks": 512,
          "midi": 43,
          "name": "G2",
          "ticks": 237312,
          "time": 115.9961265,
          "velocity": 0.5039370078740157
        },
        {
          "duration": 0.23809500000000128,
          "durationTicks": 512,
          "midi": 43,
          "name": "G2",
          "ticks": 237824,
          "time": 116.2342215,
          "velocity": 0.5039370078740157
        },
        {
          "duration": 0.11904749999999353,
          "durationTicks": 256,
          "midi": 43,
          "name": "G2",
          "ticks": 238336,
          "time": 116.4723165,
          "velocity": 0.5039370078740157
        },
        {
          "duration": 0.47619000000000256,
          "durationTicks": 1024,
          "midi": 62,
          "name": "D4",
          "ticks": 238592,
          "time": 116.591364,
          "velocity": 0.5039370078740157
        },
        {
          "duration": 0.47619000000000256,
          "durationTicks": 1024,
          "midi": 70,
          "name": "A#4",
          "ticks": 238592,
          "time": 116.591364,
          "velocity": 0.5039370078740157
        },
        {
          "duration": 0.23809500000000128,
          "durationTicks": 512,
          "midi": 43,
          "name": "G2",
          "ticks": 238592,
          "time": 116.591364,
          "velocity": 0.5039370078740157
        },
        {
          "duration": 0.23809500000000128,
          "durationTicks": 512,
          "midi": 43,
          "name": "G2",
          "ticks": 239104,
          "time": 116.829459,
          "velocity": 0.5039370078740157
        },
        {
          "duration": 3.3333300000000037,
          "durationTicks": 7168,
          "midi": 63,
          "name": "D#4",
          "ticks": 239616,
          "time": 117.067554,
          "velocity": 0.5039370078740157
        },
        {
          "duration": 3.3333300000000037,
          "durationTicks": 7168,
          "midi": 70,
          "name": "A#4",
          "ticks": 239616,
          "time": 117.067554,
          "velocity": 0.5039370078740157
        },
        {
          "duration": 3.3333300000000037,
          "durationTicks": 7168,
          "midi": 74,
          "name": "D5",
          "ticks": 239616,
          "time": 117.067554,
          "velocity": 0.5039370078740157
        },
        {
          "duration": 0.23809500000000128,
          "durationTicks": 512,
          "midi": 44,
          "name": "G#2",
          "ticks": 239616,
          "time": 117.067554,
          "velocity": 0.5039370078740157
        },
        {
          "duration": 0.23809500000000128,
          "durationTicks": 512,
          "midi": 44,
          "name": "G#2",
          "ticks": 240128,
          "time": 117.305649,
          "velocity": 0.5039370078740157
        },
        {
          "duration": 0.23809500000000128,
          "durationTicks": 512,
          "midi": 44,
          "name": "G#2",
          "ticks": 240640,
          "time": 117.543744,
          "velocity": 0.5039370078740157
        },
        {
          "duration": 0.11904749999999353,
          "durationTicks": 256,
          "midi": 44,
          "name": "G#2",
          "ticks": 241152,
          "time": 117.781839,
          "velocity": 0.5039370078740157
        },
        {
          "duration": 0.23809500000000128,
          "durationTicks": 512,
          "midi": 44,
          "name": "G#2",
          "ticks": 241408,
          "time": 117.9008865,
          "velocity": 0.5039370078740157
        },
        {
          "duration": 0.23809500000000128,
          "durationTicks": 512,
          "midi": 44,
          "name": "G#2",
          "ticks": 241920,
          "time": 118.1389815,
          "velocity": 0.5039370078740157
        },
        {
          "duration": 0.11904750000000774,
          "durationTicks": 256,
          "midi": 44,
          "name": "G#2",
          "ticks": 242432,
          "time": 118.3770765,
          "velocity": 0.5039370078740157
        },
        {
          "duration": 0.23809500000000128,
          "durationTicks": 512,
          "midi": 44,
          "name": "G#2",
          "ticks": 242688,
          "time": 118.49612400000001,
          "velocity": 0.5039370078740157
        },
        {
          "duration": 0.23809499999998707,
          "durationTicks": 512,
          "midi": 44,
          "name": "G#2",
          "ticks": 243200,
          "time": 118.73421900000001,
          "velocity": 0.5039370078740157
        },
        {
          "duration": 0.23809500000000128,
          "durationTicks": 512,
          "midi": 46,
          "name": "A#2",
          "ticks": 243712,
          "time": 118.972314,
          "velocity": 0.5039370078740157
        },
        {
          "duration": 0.23809500000000128,
          "durationTicks": 512,
          "midi": 46,
          "name": "A#2",
          "ticks": 244224,
          "time": 119.210409,
          "velocity": 0.5039370078740157
        },
        {
          "duration": 0.23809500000000128,
          "durationTicks": 512,
          "midi": 46,
          "name": "A#2",
          "ticks": 244736,
          "time": 119.448504,
          "velocity": 0.5039370078740157
        },
        {
          "duration": 0.23809500000000128,
          "durationTicks": 512,
          "midi": 46,
          "name": "A#2",
          "ticks": 245248,
          "time": 119.686599,
          "velocity": 0.5039370078740157
        },
        {
          "duration": 0.47619000000000256,
          "durationTicks": 1024,
          "midi": 46,
          "name": "A#2",
          "ticks": 245760,
          "time": 119.924694,
          "velocity": 0.5039370078740157
        },
        {
          "duration": 0.47619000000000256,
          "durationTicks": 1024,
          "midi": 47,
          "name": "B2",
          "ticks": 246784,
          "time": 120.400884,
          "velocity": 0.5039370078740157
        },
        {
          "duration": 0.47619000000000256,
          "durationTicks": 1024,
          "midi": 60,
          "name": "C4",
          "ticks": 247808,
          "time": 120.87707400000001,
          "velocity": 0.5039370078740157
        },
        {
          "duration": 0.23809500000000128,
          "durationTicks": 512,
          "midi": 48,
          "name": "C3",
          "ticks": 247808,
          "time": 120.87707400000001,
          "velocity": 0.5039370078740157
        },
        {
          "duration": 0.23809500000000128,
          "durationTicks": 512,
          "midi": 48,
          "name": "C3",
          "ticks": 248320,
          "time": 121.11516900000001,
          "velocity": 0.5039370078740157
        },
        {
          "duration": 0.47618999999998834,
          "durationTicks": 1024,
          "midi": 63,
          "name": "D#4",
          "ticks": 248832,
          "time": 121.35326400000001,
          "velocity": 0.5039370078740157
        },
        {
          "duration": 0.23809499999998707,
          "durationTicks": 512,
          "midi": 48,
          "name": "C3",
          "ticks": 248832,
          "time": 121.35326400000001,
          "velocity": 0.5039370078740157
        },
        {
          "duration": 0.23809500000000128,
          "durationTicks": 512,
          "midi": 51,
          "name": "D#3",
          "ticks": 249344,
          "time": 121.591359,
          "velocity": 0.5039370078740157
        },
        {
          "duration": 0.357142500000009,
          "durationTicks": 768,
          "midi": 56,
          "name": "G#3",
          "ticks": 249856,
          "time": 121.829454,
          "velocity": 0.5039370078740157
        },
        {
          "duration": 0.357142500000009,
          "durationTicks": 768,
          "midi": 60,
          "name": "C4",
          "ticks": 249856,
          "time": 121.829454,
          "velocity": 0.5039370078740157
        },
        {
          "duration": 0.357142500000009,
          "durationTicks": 768,
          "midi": 65,
          "name": "F4",
          "ticks": 249856,
          "time": 121.829454,
          "velocity": 0.5039370078740157
        },
        {
          "duration": 0.11904750000000774,
          "durationTicks": 256,
          "midi": 53,
          "name": "F3",
          "ticks": 249856,
          "time": 121.829454,
          "velocity": 0.5039370078740157
        },
        {
          "duration": 0.11904749999999353,
          "durationTicks": 256,
          "midi": 53,
          "name": "F3",
          "ticks": 250112,
          "time": 121.9485015,
          "velocity": 0.5039370078740157
        },
        {
          "duration": 0.3571424999999948,
          "durationTicks": 768,
          "midi": 63,
          "name": "D#4",
          "ticks": 250624,
          "time": 122.18659650000001,
          "velocity": 0.5039370078740157
        },
        {
          "duration": 0.23809500000000128,
          "durationTicks": 512,
          "midi": 53,
          "name": "F3",
          "ticks": 250624,
          "time": 122.18659650000001,
          "velocity": 0.5039370078740157
        },
        {
          "duration": 0.11904749999999353,
          "durationTicks": 256,
          "midi": 53,
          "name": "F3",
          "ticks": 251136,
          "time": 122.42469150000001,
          "velocity": 0.5039370078740157
        },
        {
          "duration": 0.23809500000000128,
          "durationTicks": 512,
          "midi": 65,
          "name": "F4",
          "ticks": 251392,
          "time": 122.543739,
          "velocity": 0.5039370078740157
        },
        {
          "duration": 0.23809500000000128,
          "durationTicks": 512,
          "midi": 48,
          "name": "C3",
          "ticks": 251392,
          "time": 122.543739,
          "velocity": 0.5039370078740157
        },
        {
          "duration": 0.23809500000000128,
          "durationTicks": 512,
          "midi": 58,
          "name": "A#3",
          "ticks": 251904,
          "time": 122.781834,
          "velocity": 0.5039370078740157
        },
        {
          "duration": 0.23809500000000128,
          "durationTicks": 512,
          "midi": 62,
          "name": "D4",
          "ticks": 251904,
          "time": 122.781834,
          "velocity": 0.5039370078740157
        },
        {
          "duration": 0.23809500000000128,
          "durationTicks": 512,
          "midi": 65,
          "name": "F4",
          "ticks": 251904,
          "time": 122.781834,
          "velocity": 0.5039370078740157
        },
        {
          "duration": 0.23809500000000128,
          "durationTicks": 512,
          "midi": 46,
          "name": "A#2",
          "ticks": 251904,
          "time": 122.781834,
          "velocity": 0.5039370078740157
        },
        {
          "duration": 0.23809500000000128,
          "durationTicks": 512,
          "midi": 65,
          "name": "F4",
          "ticks": 252416,
          "time": 123.019929,
          "velocity": 0.5039370078740157
        },
        {
          "duration": 0.23809500000000128,
          "durationTicks": 512,
          "midi": 46,
          "name": "A#2",
          "ticks": 252416,
          "time": 123.019929,
          "velocity": 0.5039370078740157
        },
        {
          "duration": 0.23809500000000128,
          "durationTicks": 512,
          "midi": 70,
          "name": "A#4",
          "ticks": 252928,
          "time": 123.258024,
          "velocity": 0.5039370078740157
        },
        {
          "duration": 0.23809500000000128,
          "durationTicks": 512,
          "midi": 46,
          "name": "A#2",
          "ticks": 252928,
          "time": 123.258024,
          "velocity": 0.5039370078740157
        },
        {
          "duration": 0.23809500000000128,
          "durationTicks": 512,
          "midi": 68,
          "name": "G#4",
          "ticks": 253440,
          "time": 123.49611900000001,
          "velocity": 0.5039370078740157
        },
        {
          "duration": 0.23809500000000128,
          "durationTicks": 512,
          "midi": 50,
          "name": "D3",
          "ticks": 253440,
          "time": 123.49611900000001,
          "velocity": 0.5039370078740157
        },
        {
          "duration": 0.11904749999999353,
          "durationTicks": 256,
          "midi": 67,
          "name": "G4",
          "ticks": 253952,
          "time": 123.73421400000001,
          "velocity": 0.5039370078740157
        },
        {
          "duration": 0.11904749999999353,
          "durationTicks": 256,
          "midi": 51,
          "name": "D#3",
          "ticks": 253952,
          "time": 123.73421400000001,
          "velocity": 0.5039370078740157
        },
        {
          "duration": 0.23809500000000128,
          "durationTicks": 512,
          "midi": 65,
          "name": "F4",
          "ticks": 254208,
          "time": 123.8532615,
          "velocity": 0.5039370078740157
        },
        {
          "duration": 0.11904750000000774,
          "durationTicks": 256,
          "midi": 51,
          "name": "D#3",
          "ticks": 254208,
          "time": 123.8532615,
          "velocity": 0.5039370078740157
        },
        {
          "duration": 0.5952374999999961,
          "durationTicks": 1280,
          "midi": 67,
          "name": "G4",
          "ticks": 254720,
          "time": 124.0913565,
          "velocity": 0.5039370078740157
        },
        {
          "duration": 0.11904749999999353,
          "durationTicks": 256,
          "midi": 51,
          "name": "D#3",
          "ticks": 254720,
          "time": 124.0913565,
          "velocity": 0.5039370078740157
        },
        {
          "duration": 0.23809500000000128,
          "durationTicks": 512,
          "midi": 51,
          "name": "D#3",
          "ticks": 254976,
          "time": 124.210404,
          "velocity": 0.5039370078740157
        },
        {
          "duration": 0.23809500000000128,
          "durationTicks": 512,
          "midi": 50,
          "name": "D3",
          "ticks": 255488,
          "time": 124.448499,
          "velocity": 0.5039370078740157
        },
        {
          "duration": 0.47619000000000256,
          "durationTicks": 1024,
          "midi": 63,
          "name": "D#4",
          "ticks": 256000,
          "time": 124.686594,
          "velocity": 0.5039370078740157
        },
        {
          "duration": 0.47619000000000256,
          "durationTicks": 1024,
          "midi": 67,
          "name": "G4",
          "ticks": 256000,
          "time": 124.686594,
          "velocity": 0.5039370078740157
        },
        {
          "duration": 0.23809500000000128,
          "durationTicks": 512,
          "midi": 48,
          "name": "C3",
          "ticks": 256000,
          "time": 124.686594,
          "velocity": 0.5039370078740157
        },
        {
          "duration": 0.23809500000000128,
          "durationTicks": 512,
          "midi": 48,
          "name": "C3",
          "ticks": 256512,
          "time": 124.924689,
          "velocity": 0.5039370078740157
        },
        {
          "duration": 0.47619000000000256,
          "durationTicks": 1024,
          "midi": 70,
          "name": "A#4",
          "ticks": 257024,
          "time": 125.162784,
          "velocity": 0.5039370078740157
        },
        {
          "duration": 0.23809500000000128,
          "durationTicks": 512,
          "midi": 48,
          "name": "C3",
          "ticks": 257024,
          "time": 125.162784,
          "velocity": 0.5039370078740157
        },
        {
          "duration": 0.23809500000000128,
          "durationTicks": 512,
          "midi": 51,
          "name": "D#3",
          "ticks": 257536,
          "time": 125.400879,
          "velocity": 0.5039370078740157
        },
        {
          "duration": 0.3571424999999948,
          "durationTicks": 768,
          "midi": 65,
          "name": "F4",
          "ticks": 258048,
          "time": 125.638974,
          "velocity": 0.5039370078740157
        },
        {
          "duration": 0.3571424999999948,
          "durationTicks": 768,
          "midi": 68,
          "name": "G#4",
          "ticks": 258048,
          "time": 125.638974,
          "velocity": 0.5039370078740157
        },
        {
          "duration": 0.3571424999999948,
          "durationTicks": 768,
          "midi": 72,
          "name": "C5",
          "ticks": 258048,
          "time": 125.638974,
          "velocity": 0.5039370078740157
        },
        {
          "duration": 0.11904749999999353,
          "durationTicks": 256,
          "midi": 53,
          "name": "F3",
          "ticks": 258048,
          "time": 125.638974,
          "velocity": 0.5039370078740157
        },
        {
          "duration": 0.11904750000000774,
          "durationTicks": 256,
          "midi": 53,
          "name": "F3",
          "ticks": 258304,
          "time": 125.7580215,
          "velocity": 0.5039370078740157
        },
        {
          "duration": 0.357142500000009,
          "durationTicks": 768,
          "midi": 65,
          "name": "F4",
          "ticks": 258816,
          "time": 125.9961165,
          "velocity": 0.5039370078740157
        },
        {
          "duration": 0.23809500000000128,
          "durationTicks": 512,
          "midi": 53,
          "name": "F3",
          "ticks": 258816,
          "time": 125.9961165,
          "velocity": 0.5039370078740157
        },
        {
          "duration": 0.11904750000000774,
          "durationTicks": 256,
          "midi": 53,
          "name": "F3",
          "ticks": 259328,
          "time": 126.2342115,
          "velocity": 0.5039370078740157
        },
        {
          "duration": 0.23809500000000128,
          "durationTicks": 512,
          "midi": 63,
          "name": "D#4",
          "ticks": 259584,
          "time": 126.35325900000001,
          "velocity": 0.5039370078740157
        },
        {
          "duration": 0.23809500000000128,
          "durationTicks": 512,
          "midi": 48,
          "name": "C3",
          "ticks": 259584,
          "time": 126.35325900000001,
          "velocity": 0.5039370078740157
        },
        {
          "duration": 0.23809500000000128,
          "durationTicks": 512,
          "midi": 62,
          "name": "D4",
          "ticks": 260096,
          "time": 126.59135400000001,
          "velocity": 0.5039370078740157
        },
        {
          "duration": 0.23809500000000128,
          "durationTicks": 512,
          "midi": 65,
          "name": "F4",
          "ticks": 260096,
          "time": 126.59135400000001,
          "velocity": 0.5039370078740157
        },
        {
          "duration": 0.23809500000000128,
          "durationTicks": 512,
          "midi": 70,
          "name": "A#4",
          "ticks": 260096,
          "time": 126.59135400000001,
          "velocity": 0.5039370078740157
        },
        {
          "duration": 0.23809500000000128,
          "durationTicks": 512,
          "midi": 46,
          "name": "A#2",
          "ticks": 260096,
          "time": 126.59135400000001,
          "velocity": 0.5039370078740157
        },
        {
          "duration": 0.23809499999998707,
          "durationTicks": 512,
          "midi": 62,
          "name": "D4",
          "ticks": 260608,
          "time": 126.82944900000001,
          "velocity": 0.5039370078740157
        },
        {
          "duration": 0.23809499999998707,
          "durationTicks": 512,
          "midi": 65,
          "name": "F4",
          "ticks": 260608,
          "time": 126.82944900000001,
          "velocity": 0.5039370078740157
        },
        {
          "duration": 0.23809499999998707,
          "durationTicks": 512,
          "midi": 70,
          "name": "A#4",
          "ticks": 260608,
          "time": 126.82944900000001,
          "velocity": 0.5039370078740157
        },
        {
          "duration": 0.23809499999998707,
          "durationTicks": 512,
          "midi": 46,
          "name": "A#2",
          "ticks": 260608,
          "time": 126.82944900000001,
          "velocity": 0.5039370078740157
        },
        {
          "duration": 0.23809500000000128,
          "durationTicks": 512,
          "midi": 62,
          "name": "D4",
          "ticks": 261120,
          "time": 127.067544,
          "velocity": 0.5039370078740157
        },
        {
          "duration": 0.23809500000000128,
          "durationTicks": 512,
          "midi": 65,
          "name": "F4",
          "ticks": 261120,
          "time": 127.067544,
          "velocity": 0.5039370078740157
        },
        {
          "duration": 0.23809500000000128,
          "durationTicks": 512,
          "midi": 67,
          "name": "G4",
          "ticks": 261120,
          "time": 127.067544,
          "velocity": 0.5039370078740157
        },
        {
          "duration": 0.23809500000000128,
          "durationTicks": 512,
          "midi": 46,
          "name": "A#2",
          "ticks": 261120,
          "time": 127.067544,
          "velocity": 0.5039370078740157
        },
        {
          "duration": 0.23809500000000128,
          "durationTicks": 512,
          "midi": 62,
          "name": "D4",
          "ticks": 261632,
          "time": 127.305639,
          "velocity": 0.5039370078740157
        },
        {
          "duration": 0.23809500000000128,
          "durationTicks": 512,
          "midi": 65,
          "name": "F4",
          "ticks": 261632,
          "time": 127.305639,
          "velocity": 0.5039370078740157
        },
        {
          "duration": 0.23809500000000128,
          "durationTicks": 512,
          "midi": 70,
          "name": "A#4",
          "ticks": 261632,
          "time": 127.305639,
          "velocity": 0.5039370078740157
        },
        {
          "duration": 0.23809500000000128,
          "durationTicks": 512,
          "midi": 47,
          "name": "B2",
          "ticks": 261632,
          "time": 127.305639,
          "velocity": 0.5039370078740157
        },
        {
          "duration": 0.357142500000009,
          "durationTicks": 768,
          "midi": 67,
          "name": "G4",
          "ticks": 262144,
          "time": 127.543734,
          "velocity": 0.5039370078740157
        },
        {
          "duration": 0.357142500000009,
          "durationTicks": 768,
          "midi": 70,
          "name": "A#4",
          "ticks": 262144,
          "time": 127.543734,
          "velocity": 0.5039370078740157
        },
        {
          "duration": 0.11904750000000774,
          "durationTicks": 256,
          "midi": 48,
          "name": "C3",
          "ticks": 262144,
          "time": 127.543734,
          "velocity": 0.5039370078740157
        },
        {
          "duration": 0.23809500000000128,
          "durationTicks": 512,
          "midi": 48,
          "name": "C3",
          "ticks": 262400,
          "time": 127.66278150000001,
          "velocity": 0.5039370078740157
        },
        {
          "duration": 0.5952374999999961,
          "durationTicks": 1280,
          "midi": 67,
          "name": "G4",
          "ticks": 262912,
          "time": 127.90087650000001,
          "velocity": 0.5039370078740157
        },
        {
          "duration": 0.5952374999999961,
          "durationTicks": 1280,
          "midi": 72,
          "name": "C5",
          "ticks": 262912,
          "time": 127.90087650000001,
          "velocity": 0.5039370078740157
        },
        {
          "duration": 0.11904749999999353,
          "durationTicks": 256,
          "midi": 48,
          "name": "C3",
          "ticks": 262912,
          "time": 127.90087650000001,
          "velocity": 0.5039370078740157
        },
        {
          "duration": 0.47619000000000256,
          "durationTicks": 1024,
          "midi": 46,
          "name": "A#2",
          "ticks": 263168,
          "time": 128.019924,
          "velocity": 0.5039370078740157
        },
        {
          "duration": 0.47619000000000256,
          "durationTicks": 1024,
          "midi": 60,
          "name": "C4",
          "ticks": 264192,
          "time": 128.496114,
          "velocity": 0.5039370078740157
        },
        {
          "duration": 0.23809499999998707,
          "durationTicks": 512,
          "midi": 48,
          "name": "C3",
          "ticks": 264192,
          "time": 128.496114,
          "velocity": 0.5039370078740157
        },
        {
          "duration": 0.2380950000000155,
          "durationTicks": 512,
          "midi": 48,
          "name": "C3",
          "ticks": 264704,
          "time": 128.734209,
          "velocity": 0.5039370078740157
        },
        {
          "duration": 0.47619000000000256,
          "durationTicks": 1024,
          "midi": 63,
          "name": "D#4",
          "ticks": 265216,
          "time": 128.972304,
          "velocity": 0.5039370078740157
        },
        {
          "duration": 0.23809499999998707,
          "durationTicks": 512,
          "midi": 48,
          "name": "C3",
          "ticks": 265216,
          "time": 128.972304,
          "velocity": 0.5039370078740157
        },
        {
          "duration": 0.2380950000000155,
          "durationTicks": 512,
          "midi": 51,
          "name": "D#3",
          "ticks": 265728,
          "time": 129.210399,
          "velocity": 0.5039370078740157
        },
        {
          "duration": 0.3571424999999806,
          "durationTicks": 768,
          "midi": 56,
          "name": "G#3",
          "ticks": 266240,
          "time": 129.448494,
          "velocity": 0.5039370078740157
        },
        {
          "duration": 0.3571424999999806,
          "durationTicks": 768,
          "midi": 60,
          "name": "C4",
          "ticks": 266240,
          "time": 129.448494,
          "velocity": 0.5039370078740157
        },
        {
          "duration": 0.3571424999999806,
          "durationTicks": 768,
          "midi": 65,
          "name": "F4",
          "ticks": 266240,
          "time": 129.448494,
          "velocity": 0.5039370078740157
        },
        {
          "duration": 0.11904749999999353,
          "durationTicks": 256,
          "midi": 53,
          "name": "F3",
          "ticks": 266240,
          "time": 129.448494,
          "velocity": 0.5039370078740157
        },
        {
          "duration": 0.11904749999999353,
          "durationTicks": 256,
          "midi": 53,
          "name": "F3",
          "ticks": 266496,
          "time": 129.5675415,
          "velocity": 0.5039370078740157
        },
        {
          "duration": 0.357142500000009,
          "durationTicks": 768,
          "midi": 63,
          "name": "D#4",
          "ticks": 267008,
          "time": 129.8056365,
          "velocity": 0.5039370078740157
        },
        {
          "duration": 0.2380950000000155,
          "durationTicks": 512,
          "midi": 53,
          "name": "F3",
          "ticks": 267008,
          "time": 129.8056365,
          "velocity": 0.5039370078740157
        },
        {
          "duration": 0.11904749999999353,
          "durationTicks": 256,
          "midi": 53,
          "name": "F3",
          "ticks": 267520,
          "time": 130.0437315,
          "velocity": 0.5039370078740157
        },
        {
          "duration": 0.2380950000000155,
          "durationTicks": 512,
          "midi": 65,
          "name": "F4",
          "ticks": 267776,
          "time": 130.162779,
          "velocity": 0.5039370078740157
        },
        {
          "duration": 0.2380950000000155,
          "durationTicks": 512,
          "midi": 48,
          "name": "C3",
          "ticks": 267776,
          "time": 130.162779,
          "velocity": 0.5039370078740157
        },
        {
          "duration": 0.23809499999998707,
          "durationTicks": 512,
          "midi": 58,
          "name": "A#3",
          "ticks": 268288,
          "time": 130.40087400000002,
          "velocity": 0.5039370078740157
        },
        {
          "duration": 0.23809499999998707,
          "durationTicks": 512,
          "midi": 62,
          "name": "D4",
          "ticks": 268288,
          "time": 130.40087400000002,
          "velocity": 0.5039370078740157
        },
        {
          "duration": 0.23809499999998707,
          "durationTicks": 512,
          "midi": 65,
          "name": "F4",
          "ticks": 268288,
          "time": 130.40087400000002,
          "velocity": 0.5039370078740157
        },
        {
          "duration": 0.23809499999998707,
          "durationTicks": 512,
          "midi": 46,
          "name": "A#2",
          "ticks": 268288,
          "time": 130.40087400000002,
          "velocity": 0.5039370078740157
        },
        {
          "duration": 0.2380950000000155,
          "durationTicks": 512,
          "midi": 65,
          "name": "F4",
          "ticks": 268800,
          "time": 130.638969,
          "velocity": 0.5039370078740157
        },
        {
          "duration": 0.2380950000000155,
          "durationTicks": 512,
          "midi": 46,
          "name": "A#2",
          "ticks": 268800,
          "time": 130.638969,
          "velocity": 0.5039370078740157
        },
        {
          "duration": 0.23809499999998707,
          "durationTicks": 512,
          "midi": 70,
          "name": "A#4",
          "ticks": 269312,
          "time": 130.87706400000002,
          "velocity": 0.5039370078740157
        },
        {
          "duration": 0.23809499999998707,
          "durationTicks": 512,
          "midi": 46,
          "name": "A#2",
          "ticks": 269312,
          "time": 130.87706400000002,
          "velocity": 0.5039370078740157
        },
        {
          "duration": 0.23809499999998707,
          "durationTicks": 512,
          "midi": 68,
          "name": "G#4",
          "ticks": 269824,
          "time": 131.115159,
          "velocity": 0.5039370078740157
        },
        {
          "duration": 0.23809499999998707,
          "durationTicks": 512,
          "midi": 50,
          "name": "D3",
          "ticks": 269824,
          "time": 131.115159,
          "velocity": 0.5039370078740157
        },
        {
          "duration": 0.11904750000002196,
          "durationTicks": 256,
          "midi": 67,
          "name": "G4",
          "ticks": 270336,
          "time": 131.353254,
          "velocity": 0.5039370078740157
        },
        {
          "duration": 0.11904750000002196,
          "durationTicks": 256,
          "midi": 51,
          "name": "D#3",
          "ticks": 270336,
          "time": 131.353254,
          "velocity": 0.5039370078740157
        },
        {
          "duration": 0.23809499999998707,
          "durationTicks": 512,
          "midi": 65,
          "name": "F4",
          "ticks": 270592,
          "time": 131.47230150000001,
          "velocity": 0.5039370078740157
        },
        {
          "duration": 0.11904749999999353,
          "durationTicks": 256,
          "midi": 51,
          "name": "D#3",
          "ticks": 270592,
          "time": 131.47230150000001,
          "velocity": 0.5039370078740157
        },
        {
          "duration": 0.5952374999999961,
          "durationTicks": 1280,
          "midi": 67,
          "name": "G4",
          "ticks": 271104,
          "time": 131.7103965,
          "velocity": 0.5039370078740157
        },
        {
          "duration": 0.11904749999999353,
          "durationTicks": 256,
          "midi": 51,
          "name": "D#3",
          "ticks": 271104,
          "time": 131.7103965,
          "velocity": 0.5039370078740157
        },
        {
          "duration": 0.2380950000000155,
          "durationTicks": 512,
          "midi": 51,
          "name": "D#3",
          "ticks": 271360,
          "time": 131.829444,
          "velocity": 0.5039370078740157
        },
        {
          "duration": 0.23809499999998707,
          "durationTicks": 512,
          "midi": 50,
          "name": "D3",
          "ticks": 271872,
          "time": 132.067539,
          "velocity": 0.5039370078740157
        },
        {
          "duration": 0.47619000000000256,
          "durationTicks": 1024,
          "midi": 63,
          "name": "D#4",
          "ticks": 272384,
          "time": 132.305634,
          "velocity": 0.5039370078740157
        },
        {
          "duration": 0.47619000000000256,
          "durationTicks": 1024,
          "midi": 67,
          "name": "G4",
          "ticks": 272384,
          "time": 132.305634,
          "velocity": 0.5039370078740157
        },
        {
          "duration": 0.2380950000000155,
          "durationTicks": 512,
          "midi": 48,
          "name": "C3",
          "ticks": 272384,
          "time": 132.305634,
          "velocity": 0.5039370078740157
        },
        {
          "duration": 0.23809499999998707,
          "durationTicks": 512,
          "midi": 48,
          "name": "C3",
          "ticks": 272896,
          "time": 132.543729,
          "velocity": 0.5039370078740157
        },
        {
          "duration": 0.47619000000000256,
          "durationTicks": 1024,
          "midi": 70,
          "name": "A#4",
          "ticks": 273408,
          "time": 132.781824,
          "velocity": 0.5039370078740157
        },
        {
          "duration": 0.2380950000000155,
          "durationTicks": 512,
          "midi": 48,
          "name": "C3",
          "ticks": 273408,
          "time": 132.781824,
          "velocity": 0.5039370078740157
        },
        {
          "duration": 0.23809499999998707,
          "durationTicks": 512,
          "midi": 51,
          "name": "D#3",
          "ticks": 273920,
          "time": 133.01991900000002,
          "velocity": 0.5039370078740157
        },
        {
          "duration": 0.357142500000009,
          "durationTicks": 768,
          "midi": 65,
          "name": "F4",
          "ticks": 274432,
          "time": 133.258014,
          "velocity": 0.5039370078740157
        },
        {
          "duration": 0.357142500000009,
          "durationTicks": 768,
          "midi": 68,
          "name": "G#4",
          "ticks": 274432,
          "time": 133.258014,
          "velocity": 0.5039370078740157
        },
        {
          "duration": 0.357142500000009,
          "durationTicks": 768,
          "midi": 72,
          "name": "C5",
          "ticks": 274432,
          "time": 133.258014,
          "velocity": 0.5039370078740157
        },
        {
          "duration": 0.11904749999999353,
          "durationTicks": 256,
          "midi": 53,
          "name": "F3",
          "ticks": 274432,
          "time": 133.258014,
          "velocity": 0.5039370078740157
        },
        {
          "duration": 0.11904750000002196,
          "durationTicks": 256,
          "midi": 53,
          "name": "F3",
          "ticks": 274688,
          "time": 133.3770615,
          "velocity": 0.5039370078740157
        },
        {
          "duration": 0.3571424999999806,
          "durationTicks": 768,
          "midi": 65,
          "name": "F4",
          "ticks": 275200,
          "time": 133.6151565,
          "velocity": 0.5039370078740157
        },
        {
          "duration": 0.23809499999998707,
          "durationTicks": 512,
          "midi": 53,
          "name": "F3",
          "ticks": 275200,
          "time": 133.6151565,
          "velocity": 0.5039370078740157
        },
        {
          "duration": 0.11904749999999353,
          "durationTicks": 256,
          "midi": 53,
          "name": "F3",
          "ticks": 275712,
          "time": 133.8532515,
          "velocity": 0.5039370078740157
        },
        {
          "duration": 0.2380950000000155,
          "durationTicks": 512,
          "midi": 63,
          "name": "D#4",
          "ticks": 275968,
          "time": 133.972299,
          "velocity": 0.5039370078740157
        },
        {
          "duration": 0.2380950000000155,
          "durationTicks": 512,
          "midi": 48,
          "name": "C3",
          "ticks": 275968,
          "time": 133.972299,
          "velocity": 0.5039370078740157
        },
        {
          "duration": 0.23809499999998707,
          "durationTicks": 512,
          "midi": 62,
          "name": "D4",
          "ticks": 276480,
          "time": 134.210394,
          "velocity": 0.5039370078740157
        },
        {
          "duration": 0.23809499999998707,
          "durationTicks": 512,
          "midi": 65,
          "name": "F4",
          "ticks": 276480,
          "time": 134.210394,
          "velocity": 0.5039370078740157
        },
        {
          "duration": 0.23809499999998707,
          "durationTicks": 512,
          "midi": 70,
          "name": "A#4",
          "ticks": 276480,
          "time": 134.210394,
          "velocity": 0.5039370078740157
        },
        {
          "duration": 0.23809499999998707,
          "durationTicks": 512,
          "midi": 46,
          "name": "A#2",
          "ticks": 276480,
          "time": 134.210394,
          "velocity": 0.5039370078740157
        },
        {
          "duration": 0.2380950000000155,
          "durationTicks": 512,
          "midi": 62,
          "name": "D4",
          "ticks": 276992,
          "time": 134.448489,
          "velocity": 0.5039370078740157
        },
        {
          "duration": 0.2380950000000155,
          "durationTicks": 512,
          "midi": 65,
          "name": "F4",
          "ticks": 276992,
          "time": 134.448489,
          "velocity": 0.5039370078740157
        },
        {
          "duration": 0.2380950000000155,
          "durationTicks": 512,
          "midi": 70,
          "name": "A#4",
          "ticks": 276992,
          "time": 134.448489,
          "velocity": 0.5039370078740157
        },
        {
          "duration": 0.2380950000000155,
          "durationTicks": 512,
          "midi": 46,
          "name": "A#2",
          "ticks": 276992,
          "time": 134.448489,
          "velocity": 0.5039370078740157
        },
        {
          "duration": 0.23809499999998707,
          "durationTicks": 512,
          "midi": 62,
          "name": "D4",
          "ticks": 277504,
          "time": 134.686584,
          "velocity": 0.5039370078740157
        },
        {
          "duration": 0.23809499999998707,
          "durationTicks": 512,
          "midi": 65,
          "name": "F4",
          "ticks": 277504,
          "time": 134.686584,
          "velocity": 0.5039370078740157
        },
        {
          "duration": 0.23809499999998707,
          "durationTicks": 512,
          "midi": 67,
          "name": "G4",
          "ticks": 277504,
          "time": 134.686584,
          "velocity": 0.5039370078740157
        },
        {
          "duration": 0.23809499999998707,
          "durationTicks": 512,
          "midi": 46,
          "name": "A#2",
          "ticks": 277504,
          "time": 134.686584,
          "velocity": 0.5039370078740157
        },
        {
          "duration": 0.2380950000000155,
          "durationTicks": 512,
          "midi": 62,
          "name": "D4",
          "ticks": 278016,
          "time": 134.924679,
          "velocity": 0.5039370078740157
        },
        {
          "duration": 0.2380950000000155,
          "durationTicks": 512,
          "midi": 65,
          "name": "F4",
          "ticks": 278016,
          "time": 134.924679,
          "velocity": 0.5039370078740157
        },
        {
          "duration": 0.2380950000000155,
          "durationTicks": 512,
          "midi": 70,
          "name": "A#4",
          "ticks": 278016,
          "time": 134.924679,
          "velocity": 0.5039370078740157
        },
        {
          "duration": 0.2380950000000155,
          "durationTicks": 512,
          "midi": 47,
          "name": "B2",
          "ticks": 278016,
          "time": 134.924679,
          "velocity": 0.5039370078740157
        },
        {
          "duration": 0.3571424999999806,
          "durationTicks": 768,
          "midi": 67,
          "name": "G4",
          "ticks": 278528,
          "time": 135.162774,
          "velocity": 0.5039370078740157
        },
        {
          "duration": 0.3571424999999806,
          "durationTicks": 768,
          "midi": 70,
          "name": "A#4",
          "ticks": 278528,
          "time": 135.162774,
          "velocity": 0.5039370078740157
        },
        {
          "duration": 0.11904749999999353,
          "durationTicks": 256,
          "midi": 48,
          "name": "C3",
          "ticks": 278528,
          "time": 135.162774,
          "velocity": 0.5039370078740157
        },
        {
          "duration": 0.23809499999998707,
          "durationTicks": 512,
          "midi": 48,
          "name": "C3",
          "ticks": 278784,
          "time": 135.2818215,
          "velocity": 0.5039370078740157
        },
        {
          "duration": 0.5952375000000245,
          "durationTicks": 1280,
          "midi": 67,
          "name": "G4",
          "ticks": 279296,
          "time": 135.5199165,
          "velocity": 0.5039370078740157
        },
        {
          "duration": 0.5952375000000245,
          "durationTicks": 1280,
          "midi": 72,
          "name": "C5",
          "ticks": 279296,
          "time": 135.5199165,
          "velocity": 0.5039370078740157
        },
        {
          "duration": 0.11904750000002196,
          "durationTicks": 256,
          "midi": 48,
          "name": "C3",
          "ticks": 279296,
          "time": 135.5199165,
          "velocity": 0.5039370078740157
        },
        {
          "duration": 0.47619000000000256,
          "durationTicks": 1024,
          "midi": 46,
          "name": "A#2",
          "ticks": 279552,
          "time": 135.63896400000002,
          "velocity": 0.5039370078740157
        },
        {
          "duration": 1.9047599999999818,
          "durationTicks": 4096,
          "midi": 51,
          "name": "D#3",
          "ticks": 280576,
          "time": 136.11515400000002,
          "velocity": 0.5039370078740157
        },
        {
          "duration": 1.9047599999999818,
          "durationTicks": 4096,
          "midi": 55,
          "name": "G3",
          "ticks": 280576,
          "time": 136.11515400000002,
          "velocity": 0.5039370078740157
        },
        {
          "duration": 1.9047599999999818,
          "durationTicks": 4096,
          "midi": 58,
          "name": "A#3",
          "ticks": 280576,
          "time": 136.11515400000002,
          "velocity": 0.5039370078740157
        },
        {
          "duration": 0.2380950000000155,
          "durationTicks": 512,
          "midi": 75,
          "name": "D#5",
          "ticks": 281600,
          "time": 136.591344,
          "velocity": 0.5039370078740157
        },
        {
          "duration": 0.11904749999999353,
          "durationTicks": 256,
          "midi": 70,
          "name": "A#4",
          "ticks": 282112,
          "time": 136.829439,
          "velocity": 0.5039370078740157
        },
        {
          "duration": 0.5952374999999961,
          "durationTicks": 1280,
          "midi": 70,
          "name": "A#4",
          "ticks": 282368,
          "time": 136.9484865,
          "velocity": 0.5039370078740157
        },
        {
          "duration": 0.23809499999998707,
          "durationTicks": 512,
          "midi": 75,
          "name": "D#5",
          "ticks": 284160,
          "time": 137.781819,
          "velocity": 0.5039370078740157
        },
        {
          "duration": 0.357142500000009,
          "durationTicks": 768,
          "midi": 75,
          "name": "D#5",
          "ticks": 284672,
          "time": 138.019914,
          "velocity": 0.5039370078740157
        },
        {
          "duration": 1.9047600000000102,
          "durationTicks": 4096,
          "midi": 46,
          "name": "A#2",
          "ticks": 284672,
          "time": 138.019914,
          "velocity": 0.5039370078740157
        },
        {
          "duration": 1.9047600000000102,
          "durationTicks": 4096,
          "midi": 50,
          "name": "D3",
          "ticks": 284672,
          "time": 138.019914,
          "velocity": 0.5039370078740157
        },
        {
          "duration": 1.9047600000000102,
          "durationTicks": 4096,
          "midi": 53,
          "name": "F3",
          "ticks": 284672,
          "time": 138.019914,
          "velocity": 0.5039370078740157
        },
        {
          "duration": 1.9047600000000102,
          "durationTicks": 4096,
          "midi": 58,
          "name": "A#3",
          "ticks": 284672,
          "time": 138.019914,
          "velocity": 0.5039370078740157
        },
        {
          "duration": 0.357142500000009,
          "durationTicks": 768,
          "midi": 77,
          "name": "F5",
          "ticks": 285440,
          "time": 138.3770565,
          "velocity": 0.5039370078740157
        },
        {
          "duration": 0.23809499999998707,
          "durationTicks": 512,
          "midi": 70,
          "name": "A#4",
          "ticks": 286208,
          "time": 138.73419900000002,
          "velocity": 0.5039370078740157
        },
        {
          "duration": 0.47619000000000256,
          "durationTicks": 1024,
          "midi": 70,
          "name": "A#4",
          "ticks": 286720,
          "time": 138.972294,
          "velocity": 0.5039370078740157
        },
        {
          "duration": 0.2380950000000155,
          "durationTicks": 512,
          "midi": 70,
          "name": "A#4",
          "ticks": 288256,
          "time": 139.686579,
          "velocity": 0.5039370078740157
        },
        {
          "duration": 0.3571424999999806,
          "durationTicks": 768,
          "midi": 79,
          "name": "G5",
          "ticks": 288768,
          "time": 139.924674,
          "velocity": 0.5039370078740157
        },
        {
          "duration": 0.9523800000000051,
          "durationTicks": 2048,
          "midi": 48,
          "name": "C3",
          "ticks": 288768,
          "time": 139.924674,
          "velocity": 0.5039370078740157
        },
        {
          "duration": 0.9523800000000051,
          "durationTicks": 2048,
          "midi": 51,
          "name": "D#3",
          "ticks": 288768,
          "time": 139.924674,
          "velocity": 0.5039370078740157
        },
        {
          "duration": 0.9523800000000051,
          "durationTicks": 2048,
          "midi": 55,
          "name": "G3",
          "ticks": 288768,
          "time": 139.924674,
          "velocity": 0.5039370078740157
        },
        {
          "duration": 0.357142500000009,
          "durationTicks": 768,
          "midi": 80,
          "name": "G#5",
          "ticks": 289536,
          "time": 140.2818165,
          "velocity": 0.5039370078740157
        },
        {
          "duration": 0.2380950000000155,
          "durationTicks": 512,
          "midi": 79,
          "name": "G5",
          "ticks": 290304,
          "time": 140.638959,
          "velocity": 0.5039370078740157
        },
        {
          "duration": 0.3571424999999806,
          "durationTicks": 768,
          "midi": 77,
          "name": "F5",
          "ticks": 290816,
          "time": 140.87705400000002,
          "velocity": 0.5039370078740157
        },
        {
          "duration": 0.9523799999999767,
          "durationTicks": 2048,
          "midi": 46,
          "name": "A#2",
          "ticks": 290816,
          "time": 140.87705400000002,
          "velocity": 0.5039370078740157
        },
        {
          "duration": 0.9523799999999767,
          "durationTicks": 2048,
          "midi": 50,
          "name": "D3",
          "ticks": 290816,
          "time": 140.87705400000002,
          "velocity": 0.5039370078740157
        },
        {
          "duration": 0.9523799999999767,
          "durationTicks": 2048,
          "midi": 53,
          "name": "F3",
          "ticks": 290816,
          "time": 140.87705400000002,
          "velocity": 0.5039370078740157
        },
        {
          "duration": 0.9523799999999767,
          "durationTicks": 2048,
          "midi": 55,
          "name": "G3",
          "ticks": 290816,
          "time": 140.87705400000002,
          "velocity": 0.5039370078740157
        },
        {
          "duration": 0.357142500000009,
          "durationTicks": 768,
          "midi": 75,
          "name": "D#5",
          "ticks": 291584,
          "time": 141.2341965,
          "velocity": 0.5039370078740157
        },
        {
          "duration": 0.23809499999998707,
          "durationTicks": 512,
          "midi": 77,
          "name": "F5",
          "ticks": 292352,
          "time": 141.591339,
          "velocity": 0.5039370078740157
        },
        {
          "duration": 0.357142500000009,
          "durationTicks": 768,
          "midi": 79,
          "name": "G5",
          "ticks": 292864,
          "time": 141.829434,
          "velocity": 0.5039370078740157
        },
        {
          "duration": 1.9047600000000102,
          "durationTicks": 4096,
          "midi": 44,
          "name": "G#2",
          "ticks": 292864,
          "time": 141.829434,
          "velocity": 0.5039370078740157
        },
        {
          "duration": 1.9047600000000102,
          "durationTicks": 4096,
          "midi": 48,
          "name": "C3",
          "ticks": 292864,
          "time": 141.829434,
          "velocity": 0.5039370078740157
        },
        {
          "duration": 1.9047600000000102,
          "durationTicks": 4096,
          "midi": 51,
          "name": "D#3",
          "ticks": 292864,
          "time": 141.829434,
          "velocity": 0.5039370078740157
        },
        {
          "duration": 1.9047600000000102,
          "durationTicks": 4096,
          "midi": 55,
          "name": "G3",
          "ticks": 292864,
          "time": 141.829434,
          "velocity": 0.5039370078740157
        },
        {
          "duration": 0.357142500000009,
          "durationTicks": 768,
          "midi": 80,
          "name": "G#5",
          "ticks": 293632,
          "time": 142.1865765,
          "velocity": 0.5039370078740157
        },
        {
          "duration": 0.23809499999998707,
          "durationTicks": 512,
          "midi": 79,
          "name": "G5",
          "ticks": 294400,
          "time": 142.543719,
          "velocity": 0.5039370078740157
        },
        {
          "duration": 0.47619000000000256,
          "durationTicks": 1024,
          "midi": 72,
          "name": "C5",
          "ticks": 294912,
          "time": 142.781814,
          "velocity": 0.5039370078740157
        },
        {
          "duration": 0.11904749999999353,
          "durationTicks": 256,
          "midi": 72,
          "name": "C5",
          "ticks": 296448,
          "time": 143.49609900000002,
          "velocity": 0.5039370078740157
        },
        {
          "duration": 0.11904749999999353,
          "durationTicks": 256,
          "midi": 74,
          "name": "D5",
          "ticks": 296704,
          "time": 143.6151465,
          "velocity": 0.5039370078740157
        },
        {
          "duration": 0.357142500000009,
          "durationTicks": 768,
          "midi": 75,
          "name": "D#5",
          "ticks": 296960,
          "time": 143.734194,
          "velocity": 0.5039370078740157
        },
        {
          "duration": 0.9523800000000051,
          "durationTicks": 2048,
          "midi": 46,
          "name": "A#2",
          "ticks": 296960,
          "time": 143.734194,
          "velocity": 0.5039370078740157
        },
        {
          "duration": 0.9523800000000051,
          "durationTicks": 2048,
          "midi": 51,
          "name": "D#3",
          "ticks": 296960,
          "time": 143.734194,
          "velocity": 0.5039370078740157
        },
        {
          "duration": 0.9523800000000051,
          "durationTicks": 2048,
          "midi": 53,
          "name": "F3",
          "ticks": 296960,
          "time": 143.734194,
          "velocity": 0.5039370078740157
        },
        {
          "duration": 0.357142500000009,
          "durationTicks": 768,
          "midi": 75,
          "name": "D#5",
          "ticks": 297728,
          "time": 144.0913365,
          "velocity": 0.5039370078740157
        },
        {
          "duration": 0.23809499999998707,
          "durationTicks": 512,
          "midi": 74,
          "name": "D5",
          "ticks": 298496,
          "time": 144.44847900000002,
          "velocity": 0.5039370078740157
        },
        {
          "duration": 0.47619000000000256,
          "durationTicks": 1024,
          "midi": 74,
          "name": "D5",
          "ticks": 299008,
          "time": 144.686574,
          "velocity": 0.5039370078740157
        },
        {
          "duration": 0.9523800000000051,
          "durationTicks": 2048,
          "midi": 46,
          "name": "A#2",
          "ticks": 299008,
          "time": 144.686574,
          "velocity": 0.5039370078740157
        },
        {
          "duration": 0.9523800000000051,
          "durationTicks": 2048,
          "midi": 50,
          "name": "D3",
          "ticks": 299008,
          "time": 144.686574,
          "velocity": 0.5039370078740157
        },
        {
          "duration": 0.9523800000000051,
          "durationTicks": 2048,
          "midi": 53,
          "name": "F3",
          "ticks": 299008,
          "time": 144.686574,
          "velocity": 0.5039370078740157
        },
        {
          "duration": 0.11904749999999353,
          "durationTicks": 256,
          "midi": 75,
          "name": "D#5",
          "ticks": 300544,
          "time": 145.400859,
          "velocity": 0.5039370078740157
        },
        {
          "duration": 0.11904750000002196,
          "durationTicks": 256,
          "midi": 77,
          "name": "F5",
          "ticks": 300800,
          "time": 145.5199065,
          "velocity": 0.5039370078740157
        },
        {
          "duration": 0.357142500000009,
          "durationTicks": 768,
          "midi": 80,
          "name": "G#5",
          "ticks": 301056,
          "time": 145.638954,
          "velocity": 0.5039370078740157
        },
        {
          "duration": 0.9523800000000051,
          "durationTicks": 2048,
          "midi": 51,
          "name": "D#3",
          "ticks": 301056,
          "time": 145.638954,
          "velocity": 0.5039370078740157
        },
        {
          "duration": 0.9523800000000051,
          "durationTicks": 2048,
          "midi": 58,
          "name": "A#3",
          "ticks": 301056,
          "time": 145.638954,
          "velocity": 0.5039370078740157
        },
        {
          "duration": 0.3571424999999806,
          "durationTicks": 768,
          "midi": 79,
          "name": "G5",
          "ticks": 301824,
          "time": 145.99609650000002,
          "velocity": 0.5039370078740157
        },
        {
          "duration": 0.2380950000000155,
          "durationTicks": 512,
          "midi": 77,
          "name": "F5",
          "ticks": 302592,
          "time": 146.353239,
          "velocity": 0.5039370078740157
        },
        {
          "duration": 0.47618999999997413,
          "durationTicks": 1024,
          "midi": 75,
          "name": "D#5",
          "ticks": 303104,
          "time": 146.59133400000002,
          "velocity": 0.5039370078740157
        },
        {
          "duration": 0.9523799999999767,
          "durationTicks": 2048,
          "midi": 48,
          "name": "C3",
          "ticks": 303104,
          "time": 146.59133400000002,
          "velocity": 0.5039370078740157
        },
        {
          "duration": 0.9523799999999767,
          "durationTicks": 2048,
          "midi": 58,
          "name": "A#3",
          "ticks": 303104,
          "time": 146.59133400000002,
          "velocity": 0.5039370078740157
        },
        {
          "duration": 0.23809499999998707,
          "durationTicks": 512,
          "midi": 79,
          "name": "G5",
          "ticks": 304640,
          "time": 147.305619,
          "velocity": 0.5039370078740157
        },
        {
          "duration": 0.357142500000009,
          "durationTicks": 768,
          "midi": 79,
          "name": "G5",
          "ticks": 305152,
          "time": 147.543714,
          "velocity": 0.5039370078740157
        },
        {
          "duration": 1.9047600000000102,
          "durationTicks": 4096,
          "midi": 50,
          "name": "D3",
          "ticks": 305152,
          "time": 147.543714,
          "velocity": 0.5039370078740157
        },
        {
          "duration": 1.9047600000000102,
          "durationTicks": 4096,
          "midi": 60,
          "name": "C4",
          "ticks": 305152,
          "time": 147.543714,
          "velocity": 0.5039370078740157
        },
        {
          "duration": 0.357142500000009,
          "durationTicks": 768,
          "midi": 77,
          "name": "F5",
          "ticks": 305920,
          "time": 147.9008565,
          "velocity": 0.5039370078740157
        },
        {
          "duration": 0.23809499999998707,
          "durationTicks": 512,
          "midi": 76,
          "name": "E5",
          "ticks": 306688,
          "time": 148.257999,
          "velocity": 0.5039370078740157
        },
        {
          "duration": 0.47619000000000256,
          "durationTicks": 1024,
          "midi": 77,
          "name": "F5",
          "ticks": 307200,
          "time": 148.496094,
          "velocity": 0.5039370078740157
        },
        {
          "duration": 0.47619000000000256,
          "durationTicks": 1024,
          "midi": 72,
          "name": "C5",
          "ticks": 308224,
          "time": 148.972284,
          "velocity": 0.5039370078740157
        },
        {
          "duration": 0.7142849999999896,
          "durationTicks": 1536,
          "midi": 72,
          "name": "C5",
          "ticks": 309248,
          "time": 149.448474,
          "velocity": 0.5039370078740157
        },
        {
          "duration": 0.9523800000000051,
          "durationTicks": 2048,
          "midi": 65,
          "name": "F4",
          "ticks": 309248,
          "time": 149.448474,
          "velocity": 0.5039370078740157
        },
        {
          "duration": 0.9523800000000051,
          "durationTicks": 2048,
          "midi": 69,
          "name": "A4",
          "ticks": 309248,
          "time": 149.448474,
          "velocity": 0.5039370078740157
        },
        {
          "duration": 0.9523800000000051,
          "durationTicks": 2048,
          "midi": 43,
          "name": "G2",
          "ticks": 309248,
          "time": 149.448474,
          "velocity": 0.5039370078740157
        },
        {
          "duration": 0.2380950000000155,
          "durationTicks": 512,
          "midi": 74,
          "name": "D5",
          "ticks": 310784,
          "time": 150.162759,
          "velocity": 0.5039370078740157
        },
        {
          "duration": 0.9523800000000051,
          "durationTicks": 2048,
          "midi": 74,
          "name": "D5",
          "ticks": 311296,
          "time": 150.400854,
          "velocity": 0.5039370078740157
        },
        {
          "duration": 0.9523800000000051,
          "durationTicks": 2048,
          "midi": 67,
          "name": "G4",
          "ticks": 311296,
          "time": 150.400854,
          "velocity": 0.5039370078740157
        },
        {
          "duration": 0.9523800000000051,
          "durationTicks": 2048,
          "midi": 71,
          "name": "B4",
          "ticks": 311296,
          "time": 150.400854,
          "velocity": 0.5039370078740157
        },
        {
          "duration": 0.9523800000000051,
          "durationTicks": 2048,
          "midi": 43,
          "name": "G2",
          "ticks": 311296,
          "time": 150.400854,
          "velocity": 0.5039370078740157
        },
        {
          "duration": 1.9047599999999818,
          "durationTicks": 4096,
          "midi": 51,
          "name": "D#3",
          "ticks": 313344,
          "time": 151.35323400000001,
          "velocity": 0.5039370078740157
        },
        {
          "duration": 1.9047599999999818,
          "durationTicks": 4096,
          "midi": 55,
          "name": "G3",
          "ticks": 313344,
          "time": 151.35323400000001,
          "velocity": 0.5039370078740157
        },
        {
          "duration": 1.9047599999999818,
          "durationTicks": 4096,
          "midi": 58,
          "name": "A#3",
          "ticks": 313344,
          "time": 151.35323400000001,
          "velocity": 0.5039370078740157
        },
        {
          "duration": 0.23809499999998707,
          "durationTicks": 512,
          "midi": 75,
          "name": "D#5",
          "ticks": 314368,
          "time": 151.82942400000002,
          "velocity": 0.5039370078740157
        },
        {
          "duration": 0.11904749999999353,
          "durationTicks": 256,
          "midi": 70,
          "name": "A#4",
          "ticks": 314880,
          "time": 152.067519,
          "velocity": 0.5039370078740157
        },
        {
          "duration": 0.5952374999999961,
          "durationTicks": 1280,
          "midi": 70,
          "name": "A#4",
          "ticks": 315136,
          "time": 152.1865665,
          "velocity": 0.5039370078740157
        },
        {
          "duration": 0.23809499999998707,
          "durationTicks": 512,
          "midi": 75,
          "name": "D#5",
          "ticks": 316928,
          "time": 153.019899,
          "velocity": 0.5039370078740157
        },
        {
          "duration": 0.357142500000009,
          "durationTicks": 768,
          "midi": 75,
          "name": "D#5",
          "ticks": 317440,
          "time": 153.257994,
          "velocity": 0.5039370078740157
        },
        {
          "duration": 1.9047600000000102,
          "durationTicks": 4096,
          "midi": 46,
          "name": "A#2",
          "ticks": 317440,
          "time": 153.257994,
          "velocity": 0.5039370078740157
        },
        {
          "duration": 1.9047600000000102,
          "durationTicks": 4096,
          "midi": 50,
          "name": "D3",
          "ticks": 317440,
          "time": 153.257994,
          "velocity": 0.5039370078740157
        },
        {
          "duration": 1.9047600000000102,
          "durationTicks": 4096,
          "midi": 53,
          "name": "F3",
          "ticks": 317440,
          "time": 153.257994,
          "velocity": 0.5039370078740157
        },
        {
          "duration": 1.9047600000000102,
          "durationTicks": 4096,
          "midi": 58,
          "name": "A#3",
          "ticks": 317440,
          "time": 153.257994,
          "velocity": 0.5039370078740157
        },
        {
          "duration": 0.357142500000009,
          "durationTicks": 768,
          "midi": 77,
          "name": "F5",
          "ticks": 318208,
          "time": 153.6151365,
          "velocity": 0.5039370078740157
        },
        {
          "duration": 0.23809499999998707,
          "durationTicks": 512,
          "midi": 70,
          "name": "A#4",
          "ticks": 318976,
          "time": 153.97227900000001,
          "velocity": 0.5039370078740157
        },
        {
          "duration": 0.47619000000000256,
          "durationTicks": 1024,
          "midi": 70,
          "name": "A#4",
          "ticks": 319488,
          "time": 154.210374,
          "velocity": 0.5039370078740157
        },
        {
          "duration": 0.23809499999998707,
          "durationTicks": 512,
          "midi": 70,
          "name": "A#4",
          "ticks": 321024,
          "time": 154.92465900000002,
          "velocity": 0.5039370078740157
        },
        {
          "duration": 0.357142500000009,
          "durationTicks": 768,
          "midi": 79,
          "name": "G5",
          "ticks": 321536,
          "time": 155.162754,
          "velocity": 0.5039370078740157
        },
        {
          "duration": 0.9523800000000051,
          "durationTicks": 2048,
          "midi": 48,
          "name": "C3",
          "ticks": 321536,
          "time": 155.162754,
          "velocity": 0.5039370078740157
        },
        {
          "duration": 0.9523800000000051,
          "durationTicks": 2048,
          "midi": 51,
          "name": "D#3",
          "ticks": 321536,
          "time": 155.162754,
          "velocity": 0.5039370078740157
        },
        {
          "duration": 0.9523800000000051,
          "durationTicks": 2048,
          "midi": 55,
          "name": "G3",
          "ticks": 321536,
          "time": 155.162754,
          "velocity": 0.5039370078740157
        },
        {
          "duration": 0.3571424999999806,
          "durationTicks": 768,
          "midi": 80,
          "name": "G#5",
          "ticks": 322304,
          "time": 155.51989650000002,
          "velocity": 0.5039370078740157
        },
        {
          "duration": 0.2380950000000155,
          "durationTicks": 512,
          "midi": 79,
          "name": "G5",
          "ticks": 323072,
          "time": 155.877039,
          "velocity": 0.5039370078740157
        },
        {
          "duration": 0.357142500000009,
          "durationTicks": 768,
          "midi": 77,
          "name": "F5",
          "ticks": 323584,
          "time": 156.115134,
          "velocity": 0.5039370078740157
        },
        {
          "duration": 0.9523800000000051,
          "durationTicks": 2048,
          "midi": 46,
          "name": "A#2",
          "ticks": 323584,
          "time": 156.115134,
          "velocity": 0.5039370078740157
        },
        {
          "duration": 0.9523800000000051,
          "durationTicks": 2048,
          "midi": 50,
          "name": "D3",
          "ticks": 323584,
          "time": 156.115134,
          "velocity": 0.5039370078740157
        },
        {
          "duration": 0.9523800000000051,
          "durationTicks": 2048,
          "midi": 53,
          "name": "F3",
          "ticks": 323584,
          "time": 156.115134,
          "velocity": 0.5039370078740157
        },
        {
          "duration": 0.9523800000000051,
          "durationTicks": 2048,
          "midi": 55,
          "name": "G3",
          "ticks": 323584,
          "time": 156.115134,
          "velocity": 0.5039370078740157
        },
        {
          "duration": 0.3571424999999806,
          "durationTicks": 768,
          "midi": 75,
          "name": "D#5",
          "ticks": 324352,
          "time": 156.47227650000002,
          "velocity": 0.5039370078740157
        },
        {
          "duration": 0.2380950000000155,
          "durationTicks": 512,
          "midi": 77,
          "name": "F5",
          "ticks": 325120,
          "time": 156.829419,
          "velocity": 0.5039370078740157
        },
        {
          "duration": 0.3571424999999806,
          "durationTicks": 768,
          "midi": 79,
          "name": "G5",
          "ticks": 325632,
          "time": 157.06751400000002,
          "velocity": 0.5039370078740157
        },
        {
          "duration": 1.9047599999999818,
          "durationTicks": 4096,
          "midi": 44,
          "name": "G#2",
          "ticks": 325632,
          "time": 157.06751400000002,
          "velocity": 0.5039370078740157
        },
        {
          "duration": 1.9047599999999818,
          "durationTicks": 4096,
          "midi": 48,
          "name": "C3",
          "ticks": 325632,
          "time": 157.06751400000002,
          "velocity": 0.5039370078740157
        },
        {
          "duration": 1.9047599999999818,
          "durationTicks": 4096,
          "midi": 51,
          "name": "D#3",
          "ticks": 325632,
          "time": 157.06751400000002,
          "velocity": 0.5039370078740157
        },
        {
          "duration": 1.9047599999999818,
          "durationTicks": 4096,
          "midi": 55,
          "name": "G3",
          "ticks": 325632,
          "time": 157.06751400000002,
          "velocity": 0.5039370078740157
        },
        {
          "duration": 0.357142500000009,
          "durationTicks": 768,
          "midi": 80,
          "name": "G#5",
          "ticks": 326400,
          "time": 157.4246565,
          "velocity": 0.5039370078740157
        },
        {
          "duration": 0.23809499999998707,
          "durationTicks": 512,
          "midi": 79,
          "name": "G5",
          "ticks": 327168,
          "time": 157.781799,
          "velocity": 0.5039370078740157
        },
        {
          "duration": 0.47619000000000256,
          "durationTicks": 1024,
          "midi": 72,
          "name": "C5",
          "ticks": 327680,
          "time": 158.019894,
          "velocity": 0.5039370078740157
        },
        {
          "duration": 0.11904749999999353,
          "durationTicks": 256,
          "midi": 72,
          "name": "C5",
          "ticks": 329216,
          "time": 158.734179,
          "velocity": 0.5039370078740157
        },
        {
          "duration": 0.11904749999999353,
          "durationTicks": 256,
          "midi": 74,
          "name": "D5",
          "ticks": 329472,
          "time": 158.8532265,
          "velocity": 0.5039370078740157
        },
        {
          "duration": 0.357142500000009,
          "durationTicks": 768,
          "midi": 75,
          "name": "D#5",
          "ticks": 329728,
          "time": 158.972274,
          "velocity": 0.5039370078740157
        },
        {
          "duration": 0.9523800000000051,
          "durationTicks": 2048,
          "midi": 46,
          "name": "A#2",
          "ticks": 329728,
          "time": 158.972274,
          "velocity": 0.5039370078740157
        },
        {
          "duration": 0.9523800000000051,
          "durationTicks": 2048,
          "midi": 51,
          "name": "D#3",
          "ticks": 329728,
          "time": 158.972274,
          "velocity": 0.5039370078740157
        },
        {
          "duration": 0.9523800000000051,
          "durationTicks": 2048,
          "midi": 53,
          "name": "F3",
          "ticks": 329728,
          "time": 158.972274,
          "velocity": 0.5039370078740157
        },
        {
          "duration": 0.357142500000009,
          "durationTicks": 768,
          "midi": 75,
          "name": "D#5",
          "ticks": 330496,
          "time": 159.3294165,
          "velocity": 0.5039370078740157
        },
        {
          "duration": 0.23809499999998707,
          "durationTicks": 512,
          "midi": 74,
          "name": "D5",
          "ticks": 331264,
          "time": 159.68655900000002,
          "velocity": 0.5039370078740157
        },
        {
          "duration": 0.47619000000000256,
          "durationTicks": 1024,
          "midi": 74,
          "name": "D5",
          "ticks": 331776,
          "time": 159.924654,
          "velocity": 0.5039370078740157
        },
        {
          "duration": 0.9523800000000051,
          "durationTicks": 2048,
          "midi": 46,
          "name": "A#2",
          "ticks": 331776,
          "time": 159.924654,
          "velocity": 0.5039370078740157
        },
        {
          "duration": 0.9523800000000051,
          "durationTicks": 2048,
          "midi": 50,
          "name": "D3",
          "ticks": 331776,
          "time": 159.924654,
          "velocity": 0.5039370078740157
        },
        {
          "duration": 0.9523800000000051,
          "durationTicks": 2048,
          "midi": 53,
          "name": "F3",
          "ticks": 331776,
          "time": 159.924654,
          "velocity": 0.5039370078740157
        },
        {
          "duration": 0.11904750000002196,
          "durationTicks": 256,
          "midi": 75,
          "name": "D#5",
          "ticks": 333312,
          "time": 160.638939,
          "velocity": 0.5039370078740157
        },
        {
          "duration": 0.11904749999999353,
          "durationTicks": 256,
          "midi": 77,
          "name": "F5",
          "ticks": 333568,
          "time": 160.75798650000002,
          "velocity": 0.5039370078740157
        },
        {
          "duration": 0.3571424999999806,
          "durationTicks": 768,
          "midi": 80,
          "name": "G#5",
          "ticks": 333824,
          "time": 160.877034,
          "velocity": 0.5039370078740157
        },
        {
          "duration": 0.9523800000000051,
          "durationTicks": 2048,
          "midi": 51,
          "name": "D#3",
          "ticks": 333824,
          "time": 160.877034,
          "velocity": 0.5039370078740157
        },
        {
          "duration": 0.9523800000000051,
          "durationTicks": 2048,
          "midi": 58,
          "name": "A#3",
          "ticks": 333824,
          "time": 160.877034,
          "velocity": 0.5039370078740157
        },
        {
          "duration": 0.357142500000009,
          "durationTicks": 768,
          "midi": 79,
          "name": "G5",
          "ticks": 334592,
          "time": 161.2341765,
          "velocity": 0.5039370078740157
        },
        {
          "duration": 0.2380950000000155,
          "durationTicks": 512,
          "midi": 77,
          "name": "F5",
          "ticks": 335360,
          "time": 161.591319,
          "velocity": 0.5039370078740157
        },
        {
          "duration": 0.47619000000000256,
          "durationTicks": 1024,
          "midi": 75,
          "name": "D#5",
          "ticks": 335872,
          "time": 161.829414,
          "velocity": 0.5039370078740157
        },
        {
          "duration": 0.9523799999999767,
          "durationTicks": 2048,
          "midi": 48,
          "name": "C3",
          "ticks": 335872,
          "time": 161.829414,
          "velocity": 0.5039370078740157
        },
        {
          "duration": 0.9523799999999767,
          "durationTicks": 2048,
          "midi": 58,
          "name": "A#3",
          "ticks": 335872,
          "time": 161.829414,
          "velocity": 0.5039370078740157
        },
        {
          "duration": 0.23809499999998707,
          "durationTicks": 512,
          "midi": 79,
          "name": "G5",
          "ticks": 337408,
          "time": 162.543699,
          "velocity": 0.5039370078740157
        },
        {
          "duration": 0.357142500000009,
          "durationTicks": 768,
          "midi": 79,
          "name": "G5",
          "ticks": 337920,
          "time": 162.781794,
          "velocity": 0.5039370078740157
        },
        {
          "duration": 1.9047600000000102,
          "durationTicks": 4096,
          "midi": 50,
          "name": "D3",
          "ticks": 337920,
          "time": 162.781794,
          "velocity": 0.5039370078740157
        },
        {
          "duration": 1.9047600000000102,
          "durationTicks": 4096,
          "midi": 60,
          "name": "C4",
          "ticks": 337920,
          "time": 162.781794,
          "velocity": 0.5039370078740157
        },
        {
          "duration": 0.357142500000009,
          "durationTicks": 768,
          "midi": 77,
          "name": "F5",
          "ticks": 338688,
          "time": 163.1389365,
          "velocity": 0.5039370078740157
        },
        {
          "duration": 0.23809499999998707,
          "durationTicks": 512,
          "midi": 76,
          "name": "E5",
          "ticks": 339456,
          "time": 163.496079,
          "velocity": 0.5039370078740157
        },
        {
          "duration": 0.357142500000009,
          "durationTicks": 768,
          "midi": 77,
          "name": "F5",
          "ticks": 339968,
          "time": 163.734174,
          "velocity": 0.5039370078740157
        },
        {
          "duration": 0.357142500000009,
          "durationTicks": 768,
          "midi": 79,
          "name": "G5",
          "ticks": 340736,
          "time": 164.0913165,
          "velocity": 0.5039370078740157
        },
        {
          "duration": 0.23809499999998707,
          "durationTicks": 512,
          "midi": 80,
          "name": "G#5",
          "ticks": 341504,
          "time": 164.448459,
          "velocity": 0.5039370078740157
        },
        {
          "duration": 1.4285700000000077,
          "durationTicks": 3072,
          "midi": 79,
          "name": "G5",
          "ticks": 342016,
          "time": 164.686554,
          "velocity": 0.5039370078740157
        },
        {
          "duration": 0.47619000000000256,
          "durationTicks": 1024,
          "midi": 69,
          "name": "A4",
          "ticks": 342016,
          "time": 164.686554,
          "velocity": 0.5039370078740157
        },
        {
          "duration": 0.47619000000000256,
          "durationTicks": 1024,
          "midi": 72,
          "name": "C5",
          "ticks": 342016,
          "time": 164.686554,
          "velocity": 0.5039370078740157
        },
        {
          "duration": 0.47619000000000256,
          "durationTicks": 1024,
          "midi": 43,
          "name": "G2",
          "ticks": 342016,
          "time": 164.686554,
          "velocity": 0.5039370078740157
        },
        {
          "duration": 0.47619000000000256,
          "durationTicks": 1024,
          "midi": 67,
          "name": "G4",
          "ticks": 343040,
          "time": 165.162744,
          "velocity": 0.5039370078740157
        },
        {
          "duration": 0.47619000000000256,
          "durationTicks": 1024,
          "midi": 71,
          "name": "B4",
          "ticks": 343040,
          "time": 165.162744,
          "velocity": 0.5039370078740157
        },
        {
          "duration": 0.47619000000000256,
          "durationTicks": 1024,
          "midi": 43,
          "name": "G2",
          "ticks": 343040,
          "time": 165.162744,
          "velocity": 0.5039370078740157
        },
        {
          "duration": 0.47619000000000256,
          "durationTicks": 1024,
          "midi": 69,
          "name": "A4",
          "ticks": 344064,
          "time": 165.638934,
          "velocity": 0.5039370078740157
        },
        {
          "duration": 0.47619000000000256,
          "durationTicks": 1024,
          "midi": 72,
          "name": "C5",
          "ticks": 344064,
          "time": 165.638934,
          "velocity": 0.5039370078740157
        },
        {
          "duration": 0.47619000000000256,
          "durationTicks": 1024,
          "midi": 43,
          "name": "G2",
          "ticks": 344064,
          "time": 165.638934,
          "velocity": 0.5039370078740157
        },
        {
          "duration": 0.47619000000000256,
          "durationTicks": 1024,
          "midi": 71,
          "name": "B4",
          "ticks": 345088,
          "time": 166.115124,
          "velocity": 0.5039370078740157
        },
        {
          "duration": 0.47619000000000256,
          "durationTicks": 1024,
          "midi": 74,
          "name": "D5",
          "ticks": 345088,
          "time": 166.115124,
          "velocity": 0.5039370078740157
        },
        {
          "duration": 0.47619000000000256,
          "durationTicks": 1024,
          "midi": 43,
          "name": "G2",
          "ticks": 345088,
          "time": 166.115124,
          "velocity": 0.5039370078740157
        },
        {
          "duration": 0.357142500000009,
          "durationTicks": 768,
          "midi": 75,
          "name": "D#5",
          "ticks": 346112,
          "time": 166.591314,
          "velocity": 0.5039370078740157
        },
        {
          "duration": 1.9047600000000102,
          "durationTicks": 4096,
          "midi": 67,
          "name": "G4",
          "ticks": 346112,
          "time": 166.591314,
          "velocity": 0.5039370078740157
        },
        {
          "duration": 1.9047600000000102,
          "durationTicks": 4096,
          "midi": 72,
          "name": "C5",
          "ticks": 346112,
          "time": 166.591314,
          "velocity": 0.5039370078740157
        },
        {
          "duration": 0.23809499999998707,
          "durationTicks": 512,
          "midi": 44,
          "name": "G#2",
          "ticks": 346112,
          "time": 166.591314,
          "velocity": 0.5039370078740157
        },
        {
          "duration": 0.2380950000000155,
          "durationTicks": 512,
          "midi": 44,
          "name": "G#2",
          "ticks": 346624,
          "time": 166.829409,
          "velocity": 0.5039370078740157
        },
        {
          "duration": 0.3571424999999806,
          "durationTicks": 768,
          "midi": 75,
          "name": "D#5",
          "ticks": 346880,
          "time": 166.94845650000002,
          "velocity": 0.5039370078740157
        },
        {
          "duration": 0.23809499999998707,
          "durationTicks": 512,
          "midi": 44,
          "name": "G#2",
          "ticks": 347136,
          "time": 167.067504,
          "velocity": 0.5039370078740157
        },
        {
          "duration": 0.2380950000000155,
          "durationTicks": 512,
          "midi": 74,
          "name": "D5",
          "ticks": 347648,
          "time": 167.305599,
          "velocity": 0.5039370078740157
        },
        {
          "duration": 0.2380950000000155,
          "durationTicks": 512,
          "midi": 44,
          "name": "G#2",
          "ticks": 347648,
          "time": 167.305599,
          "velocity": 0.5039370078740157
        },
        {
          "duration": 0.3571424999999806,
          "durationTicks": 768,
          "midi": 75,
          "name": "D#5",
          "ticks": 348160,
          "time": 167.54369400000002,
          "velocity": 0.5039370078740157
        },
        {
          "duration": 0.23809499999998707,
          "durationTicks": 512,
          "midi": 44,
          "name": "G#2",
          "ticks": 348160,
          "time": 167.54369400000002,
          "velocity": 0.5039370078740157
        },
        {
          "duration": 0.23809499999998707,
          "durationTicks": 512,
          "midi": 44,
          "name": "G#2",
          "ticks": 348672,
          "time": 167.781789,
          "velocity": 0.5039370078740157
        },
        {
          "duration": 0.357142500000009,
          "durationTicks": 768,
          "midi": 75,
          "name": "D#5",
          "ticks": 348928,
          "time": 167.9008365,
          "velocity": 0.5039370078740157
        },
        {
          "duration": 0.2380950000000155,
          "durationTicks": 512,
          "midi": 44,
          "name": "G#2",
          "ticks": 349184,
          "time": 168.019884,
          "velocity": 0.5039370078740157
        },
        {
          "duration": 0.2380950000000155,
          "durationTicks": 512,
          "midi": 74,
          "name": "D5",
          "ticks": 349696,
          "time": 168.257979,
          "velocity": 0.5039370078740157
        },
        {
          "duration": 0.2380950000000155,
          "durationTicks": 512,
          "midi": 44,
          "name": "G#2",
          "ticks": 349696,
          "time": 168.257979,
          "velocity": 0.5039370078740157
        },
        {
          "duration": 0.3571424999999806,
          "durationTicks": 768,
          "midi": 77,
          "name": "F5",
          "ticks": 350208,
          "time": 168.49607400000002,
          "velocity": 0.5039370078740157
        },
        {
          "duration": 0.9523799999999767,
          "durationTicks": 2048,
          "midi": 70,
          "name": "A#4",
          "ticks": 350208,
          "time": 168.49607400000002,
          "velocity": 0.5039370078740157
        },
        {
          "duration": 0.9523799999999767,
          "durationTicks": 2048,
          "midi": 74,
          "name": "D5",
          "ticks": 350208,
          "time": 168.49607400000002,
          "velocity": 0.5039370078740157
        },
        {
          "duration": 0.23809499999998707,
          "durationTicks": 512,
          "midi": 43,
          "name": "G2",
          "ticks": 350208,
          "time": 168.49607400000002,
          "velocity": 0.5039370078740157
        },
        {
          "duration": 0.23809499999998707,
          "durationTicks": 512,
          "midi": 43,
          "name": "G2",
          "ticks": 350720,
          "time": 168.734169,
          "velocity": 0.5039370078740157
        },
        {
          "duration": 0.357142500000009,
          "durationTicks": 768,
          "midi": 77,
          "name": "F5",
          "ticks": 350976,
          "time": 168.8532165,
          "velocity": 0.5039370078740157
        },
        {
          "duration": 0.2380950000000155,
          "durationTicks": 512,
          "midi": 43,
          "name": "G2",
          "ticks": 351232,
          "time": 168.972264,
          "velocity": 0.5039370078740157
        },
        {
          "duration": 0.23809499999998707,
          "durationTicks": 512,
          "midi": 75,
          "name": "D#5",
          "ticks": 351744,
          "time": 169.210359,
          "velocity": 0.5039370078740157
        },
        {
          "duration": 0.23809499999998707,
          "durationTicks": 512,
          "midi": 43,
          "name": "G2",
          "ticks": 351744,
          "time": 169.210359,
          "velocity": 0.5039370078740157
        },
        {
          "duration": 0.357142500000009,
          "durationTicks": 768,
          "midi": 74,
          "name": "D5",
          "ticks": 352256,
          "time": 169.448454,
          "velocity": 0.5039370078740157
        },
        {
          "duration": 0.9523800000000051,
          "durationTicks": 2048,
          "midi": 67,
          "name": "G4",
          "ticks": 352256,
          "time": 169.448454,
          "velocity": 0.5039370078740157
        },
        {
          "duration": 0.9523800000000051,
          "durationTicks": 2048,
          "midi": 70,
          "name": "A#4",
          "ticks": 352256,
          "time": 169.448454,
          "velocity": 0.5039370078740157
        },
        {
          "duration": 0.2380950000000155,
          "durationTicks": 512,
          "midi": 48,
          "name": "C3",
          "ticks": 352256,
          "time": 169.448454,
          "velocity": 0.5039370078740157
        },
        {
          "duration": 0.23809499999998707,
          "durationTicks": 512,
          "midi": 48,
          "name": "C3",
          "ticks": 352768,
          "time": 169.686549,
          "velocity": 0.5039370078740157
        },
        {
          "duration": 0.357142500000009,
          "durationTicks": 768,
          "midi": 72,
          "name": "C5",
          "ticks": 353024,
          "time": 169.8055965,
          "velocity": 0.5039370078740157
        },
        {
          "duration": 0.2380950000000155,
          "durationTicks": 512,
          "midi": 48,
          "name": "C3",
          "ticks": 353280,
          "time": 169.924644,
          "velocity": 0.5039370078740157
        },
        {
          "duration": 0.23809499999998707,
          "durationTicks": 512,
          "midi": 74,
          "name": "D5",
          "ticks": 353792,
          "time": 170.16273900000002,
          "velocity": 0.5039370078740157
        },
        {
          "duration": 0.23809499999998707,
          "durationTicks": 512,
          "midi": 48,
          "name": "C3",
          "ticks": 353792,
          "time": 170.16273900000002,
          "velocity": 0.5039370078740157
        },
        {
          "duration": 0.357142500000009,
          "durationTicks": 768,
          "midi": 75,
          "name": "D#5",
          "ticks": 354304,
          "time": 170.400834,
          "velocity": 0.5039370078740157
        },
        {
          "duration": 0.9523800000000051,
          "durationTicks": 2048,
          "midi": 68,
          "name": "G#4",
          "ticks": 354304,
          "time": 170.400834,
          "velocity": 0.5039370078740157
        },
        {
          "duration": 0.9523800000000051,
          "durationTicks": 2048,
          "midi": 72,
          "name": "C5",
          "ticks": 354304,
          "time": 170.400834,
          "velocity": 0.5039370078740157
        },
        {
          "duration": 0.2380950000000155,
          "durationTicks": 512,
          "midi": 41,
          "name": "F2",
          "ticks": 354304,
          "time": 170.400834,
          "velocity": 0.5039370078740157
        },
        {
          "duration": 0.23809499999998707,
          "durationTicks": 512,
          "midi": 41,
          "name": "F2",
          "ticks": 354816,
          "time": 170.63892900000002,
          "velocity": 0.5039370078740157
        },
        {
          "duration": 0.3571424999999806,
          "durationTicks": 768,
          "midi": 75,
          "name": "D#5",
          "ticks": 355072,
          "time": 170.7579765,
          "velocity": 0.5039370078740157
        },
        {
          "duration": 0.23809499999998707,
          "durationTicks": 512,
          "midi": 41,
          "name": "F2",
          "ticks": 355328,
          "time": 170.877024,
          "velocity": 0.5039370078740157
        },
        {
          "duration": 0.2380950000000155,
          "durationTicks": 512,
          "midi": 74,
          "name": "D5",
          "ticks": 355840,
          "time": 171.115119,
          "velocity": 0.5039370078740157
        },
        {
          "duration": 0.2380950000000155,
          "durationTicks": 512,
          "midi": 41,
          "name": "F2",
          "ticks": 355840,
          "time": 171.115119,
          "velocity": 0.5039370078740157
        },
        {
          "duration": 0.3571424999999806,
          "durationTicks": 768,
          "midi": 77,
          "name": "F5",
          "ticks": 356352,
          "time": 171.353214,
          "velocity": 0.5039370078740157
        },
        {
          "duration": 0.9523800000000051,
          "durationTicks": 2048,
          "midi": 68,
          "name": "G#4",
          "ticks": 356352,
          "time": 171.353214,
          "velocity": 0.5039370078740157
        },
        {
          "duration": 0.9523800000000051,
          "durationTicks": 2048,
          "midi": 72,
          "name": "C5",
          "ticks": 356352,
          "time": 171.353214,
          "velocity": 0.5039370078740157
        },
        {
          "duration": 0.23809499999998707,
          "durationTicks": 512,
          "midi": 46,
          "name": "A#2",
          "ticks": 356352,
          "time": 171.353214,
          "velocity": 0.5039370078740157
        },
        {
          "duration": 0.2380950000000155,
          "durationTicks": 512,
          "midi": 46,
          "name": "A#2",
          "ticks": 356864,
          "time": 171.591309,
          "velocity": 0.5039370078740157
        },
        {
          "duration": 0.357142500000009,
          "durationTicks": 768,
          "midi": 74,
          "name": "D5",
          "ticks": 357120,
          "time": 171.7103565,
          "velocity": 0.5039370078740157
        },
        {
          "duration": 0.23809499999998707,
          "durationTicks": 512,
          "midi": 46,
          "name": "A#2",
          "ticks": 357376,
          "time": 171.829404,
          "velocity": 0.5039370078740157
        },
        {
          "duration": 0.2380950000000155,
          "durationTicks": 512,
          "midi": 72,
          "name": "C5",
          "ticks": 357888,
          "time": 172.067499,
          "velocity": 0.5039370078740157
        },
        {
          "duration": 0.2380950000000155,
          "durationTicks": 512,
          "midi": 46,
          "name": "A#2",
          "ticks": 357888,
          "time": 172.067499,
          "velocity": 0.5039370078740157
        },
        {
          "duration": 0.47619000000000256,
          "durationTicks": 1024,
          "midi": 73,
          "name": "C#5",
          "ticks": 358400,
          "time": 172.305594,
          "velocity": 0.5039370078740157
        },
        {
          "duration": 0.47619000000000256,
          "durationTicks": 1024,
          "midi": 77,
          "name": "F5",
          "ticks": 358400,
          "time": 172.305594,
          "velocity": 0.5039370078740157
        },
        {
          "duration": 0.9523799999999767,
          "durationTicks": 2048,
          "midi": 70,
          "name": "A#4",
          "ticks": 358400,
          "time": 172.305594,
          "velocity": 0.5039370078740157
        },
        {
          "duration": 0.23809499999998707,
          "durationTicks": 512,
          "midi": 46,
          "name": "A#2",
          "ticks": 358400,
          "time": 172.305594,
          "velocity": 0.5039370078740157
        },
        {
          "duration": 0.2380950000000155,
          "durationTicks": 512,
          "midi": 46,
          "name": "A#2",
          "ticks": 358912,
          "time": 172.543689,
          "velocity": 0.5039370078740157
        },
        {
          "duration": 0.47618999999997413,
          "durationTicks": 1024,
          "midi": 75,
          "name": "D#5",
          "ticks": 359424,
          "time": 172.78178400000002,
          "velocity": 0.5039370078740157
        },
        {
          "duration": 0.47618999999997413,
          "durationTicks": 1024,
          "midi": 79,
          "name": "G5",
          "ticks": 359424,
          "time": 172.78178400000002,
          "velocity": 0.5039370078740157
        },
        {
          "duration": 0.23809499999998707,
          "durationTicks": 512,
          "midi": 53,
          "name": "F3",
          "ticks": 359424,
          "time": 172.78178400000002,
          "velocity": 0.5039370078740157
        },
        {
          "duration": 0.23809499999998707,
          "durationTicks": 512,
          "midi": 52,
          "name": "E3",
          "ticks": 359936,
          "time": 173.019879,
          "velocity": 0.5039370078740157
        },
        {
          "duration": 0.476190000000031,
          "durationTicks": 1024,
          "midi": 77,
          "name": "F5",
          "ticks": 360448,
          "time": 173.257974,
          "velocity": 0.5039370078740157
        },
        {
          "duration": 0.476190000000031,
          "durationTicks": 1024,
          "midi": 80,
          "name": "G#5",
          "ticks": 360448,
          "time": 173.257974,
          "velocity": 0.5039370078740157
        },
        {
          "duration": 0.2380950000000155,
          "durationTicks": 512,
          "midi": 51,
          "name": "D#3",
          "ticks": 360448,
          "time": 173.257974,
          "velocity": 0.5039370078740157
        },
        {
          "duration": 0.2380950000000155,
          "durationTicks": 512,
          "midi": 51,
          "name": "D#3",
          "ticks": 360960,
          "time": 173.496069,
          "velocity": 0.5039370078740157
        },
        {
          "duration": 0.47618999999997413,
          "durationTicks": 1024,
          "midi": 79,
          "name": "G5",
          "ticks": 361472,
          "time": 173.73416400000002,
          "velocity": 0.5039370078740157
        },
        {
          "duration": 0.47618999999997413,
          "durationTicks": 1024,
          "midi": 82,
          "name": "A#5",
          "ticks": 361472,
          "time": 173.73416400000002,
          "velocity": 0.5039370078740157
        },
        {
          "duration": 0.23809499999998707,
          "durationTicks": 512,
          "midi": 46,
          "name": "A#2",
          "ticks": 361472,
          "time": 173.73416400000002,
          "velocity": 0.5039370078740157
        },
        {
          "duration": 0.23809499999998707,
          "durationTicks": 512,
          "midi": 45,
          "name": "A2",
          "ticks": 361984,
          "time": 173.972259,
          "velocity": 0.5039370078740157
        },
        {
          "duration": 0.357142500000009,
          "durationTicks": 768,
          "midi": 72,
          "name": "C5",
          "ticks": 362496,
          "time": 174.210354,
          "velocity": 0.5039370078740157
        },
        {
          "duration": 0.357142500000009,
          "durationTicks": 768,
          "midi": 75,
          "name": "D#5",
          "ticks": 362496,
          "time": 174.210354,
          "velocity": 0.5039370078740157
        },
        {
          "duration": 0.2380950000000155,
          "durationTicks": 512,
          "midi": 44,
          "name": "G#2",
          "ticks": 362496,
          "time": 174.210354,
          "velocity": 0.5039370078740157
        },
        {
          "duration": 0.23809499999998707,
          "durationTicks": 512,
          "midi": 44,
          "name": "G#2",
          "ticks": 363008,
          "time": 174.448449,
          "velocity": 0.5039370078740157
        },
        {
          "duration": 0.357142500000009,
          "durationTicks": 768,
          "midi": 72,
          "name": "C5",
          "ticks": 363264,
          "time": 174.5674965,
          "velocity": 0.5039370078740157
        },
        {
          "duration": 0.357142500000009,
          "durationTicks": 768,
          "midi": 75,
          "name": "D#5",
          "ticks": 363264,
          "time": 174.5674965,
          "velocity": 0.5039370078740157
        },
        {
          "duration": 0.2380950000000155,
          "durationTicks": 512,
          "midi": 44,
          "name": "G#2",
          "ticks": 363520,
          "time": 174.686544,
          "velocity": 0.5039370078740157
        },
        {
          "duration": 0.23809499999998707,
          "durationTicks": 512,
          "midi": 70,
          "name": "A#4",
          "ticks": 364032,
          "time": 174.924639,
          "velocity": 0.5039370078740157
        },
        {
          "duration": 0.23809499999998707,
          "durationTicks": 512,
          "midi": 74,
          "name": "D5",
          "ticks": 364032,
          "time": 174.924639,
          "velocity": 0.5039370078740157
        },
        {
          "duration": 0.23809499999998707,
          "durationTicks": 512,
          "midi": 44,
          "name": "G#2",
          "ticks": 364032,
          "time": 174.924639,
          "velocity": 0.5039370078740157
        },
        {
          "duration": 0.357142500000009,
          "durationTicks": 768,
          "midi": 72,
          "name": "C5",
          "ticks": 364544,
          "time": 175.162734,
          "velocity": 0.5039370078740157
        },
        {
          "duration": 0.357142500000009,
          "durationTicks": 768,
          "midi": 75,
          "name": "D#5",
          "ticks": 364544,
          "time": 175.162734,
          "velocity": 0.5039370078740157
        },
        {
          "duration": 0.2380950000000155,
          "durationTicks": 512,
          "midi": 44,
          "name": "G#2",
          "ticks": 364544,
          "time": 175.162734,
          "velocity": 0.5039370078740157
        },
        {
          "duration": 0.23809499999998707,
          "durationTicks": 512,
          "midi": 44,
          "name": "G#2",
          "ticks": 365056,
          "time": 175.40082900000002,
          "velocity": 0.5039370078740157
        },
        {
          "duration": 0.357142500000009,
          "durationTicks": 768,
          "midi": 72,
          "name": "C5",
          "ticks": 365312,
          "time": 175.5198765,
          "velocity": 0.5039370078740157
        },
        {
          "duration": 0.357142500000009,
          "durationTicks": 768,
          "midi": 75,
          "name": "D#5",
          "ticks": 365312,
          "time": 175.5198765,
          "velocity": 0.5039370078740157
        },
        {
          "duration": 0.2380950000000155,
          "durationTicks": 512,
          "midi": 44,
          "name": "G#2",
          "ticks": 365568,
          "time": 175.638924,
          "velocity": 0.5039370078740157
        },
        {
          "duration": 0.23809499999998707,
          "durationTicks": 512,
          "midi": 70,
          "name": "A#4",
          "ticks": 366080,
          "time": 175.87701900000002,
          "velocity": 0.5039370078740157
        },
        {
          "duration": 0.23809499999998707,
          "durationTicks": 512,
          "midi": 74,
          "name": "D5",
          "ticks": 366080,
          "time": 175.87701900000002,
          "velocity": 0.5039370078740157
        },
        {
          "duration": 0.23809499999998707,
          "durationTicks": 512,
          "midi": 44,
          "name": "G#2",
          "ticks": 366080,
          "time": 175.87701900000002,
          "velocity": 0.5039370078740157
        },
        {
          "duration": 0.357142500000009,
          "durationTicks": 768,
          "midi": 74,
          "name": "D5",
          "ticks": 366592,
          "time": 176.115114,
          "velocity": 0.5039370078740157
        },
        {
          "duration": 0.357142500000009,
          "durationTicks": 768,
          "midi": 77,
          "name": "F5",
          "ticks": 366592,
          "time": 176.115114,
          "velocity": 0.5039370078740157
        },
        {
          "duration": 0.23809499999998707,
          "durationTicks": 512,
          "midi": 43,
          "name": "G2",
          "ticks": 366592,
          "time": 176.115114,
          "velocity": 0.5039370078740157
        },
        {
          "duration": 0.2380950000000155,
          "durationTicks": 512,
          "midi": 43,
          "name": "G2",
          "ticks": 367104,
          "time": 176.353209,
          "velocity": 0.5039370078740157
        },
        {
          "duration": 0.357142500000009,
          "durationTicks": 768,
          "midi": 74,
          "name": "D5",
          "ticks": 367360,
          "time": 176.47225650000001,
          "velocity": 0.5039370078740157
        },
        {
          "duration": 0.357142500000009,
          "durationTicks": 768,
          "midi": 77,
          "name": "F5",
          "ticks": 367360,
          "time": 176.47225650000001,
          "velocity": 0.5039370078740157
        },
        {
          "duration": 0.2380950000000155,
          "durationTicks": 512,
          "midi": 43,
          "name": "G2",
          "ticks": 367616,
          "time": 176.591304,
          "velocity": 0.5039370078740157
        },
        {
          "duration": 0.23809499999998707,
          "durationTicks": 512,
          "midi": 72,
          "name": "C5",
          "ticks": 368128,
          "time": 176.82939900000002,
          "velocity": 0.5039370078740157
        },
        {
          "duration": 0.23809499999998707,
          "durationTicks": 512,
          "midi": 75,
          "name": "D#5",
          "ticks": 368128,
          "time": 176.82939900000002,
          "velocity": 0.5039370078740157
        },
        {
          "duration": 0.23809499999998707,
          "durationTicks": 512,
          "midi": 43,
          "name": "G2",
          "ticks": 368128,
          "time": 176.82939900000002,
          "velocity": 0.5039370078740157
        },
        {
          "duration": 0.357142500000009,
          "durationTicks": 768,
          "midi": 70,
          "name": "A#4",
          "ticks": 368640,
          "time": 177.067494,
          "velocity": 0.5039370078740157
        },
        {
          "duration": 0.357142500000009,
          "durationTicks": 768,
          "midi": 74,
          "name": "D5",
          "ticks": 368640,
          "time": 177.067494,
          "velocity": 0.5039370078740157
        },
        {
          "duration": 0.23809499999998707,
          "durationTicks": 512,
          "midi": 48,
          "name": "C3",
          "ticks": 368640,
          "time": 177.067494,
          "velocity": 0.5039370078740157
        },
        {
          "duration": 0.2380950000000155,
          "durationTicks": 512,
          "midi": 48,
          "name": "C3",
          "ticks": 369152,
          "time": 177.305589,
          "velocity": 0.5039370078740157
        },
        {
          "duration": 0.3571424999999806,
          "durationTicks": 768,
          "midi": 72,
          "name": "C5",
          "ticks": 369408,
          "time": 177.42463650000002,
          "velocity": 0.5039370078740157
        },
        {
          "duration": 0.3571424999999806,
          "durationTicks": 768,
          "midi": 75,
          "name": "D#5",
          "ticks": 369408,
          "time": 177.42463650000002,
          "velocity": 0.5039370078740157
        },
        {
          "duration": 0.23809499999998707,
          "durationTicks": 512,
          "midi": 48,
          "name": "C3",
          "ticks": 369664,
          "time": 177.543684,
          "velocity": 0.5039370078740157
        },
        {
          "duration": 0.2380950000000155,
          "durationTicks": 512,
          "midi": 74,
          "name": "D5",
          "ticks": 370176,
          "time": 177.781779,
          "velocity": 0.5039370078740157
        },
        {
          "duration": 0.2380950000000155,
          "durationTicks": 512,
          "midi": 77,
          "name": "F5",
          "ticks": 370176,
          "time": 177.781779,
          "velocity": 0.5039370078740157
        },
        {
          "duration": 0.2380950000000155,
          "durationTicks": 512,
          "midi": 48,
          "name": "C3",
          "ticks": 370176,
          "time": 177.781779,
          "velocity": 0.5039370078740157
        },
        {
          "duration": 0.3571424999999806,
          "durationTicks": 768,
          "midi": 72,
          "name": "C5",
          "ticks": 370688,
          "time": 178.01987400000002,
          "velocity": 0.5039370078740157
        },
        {
          "duration": 0.3571424999999806,
          "durationTicks": 768,
          "midi": 74,
          "name": "D5",
          "ticks": 370688,
          "time": 178.01987400000002,
          "velocity": 0.5039370078740157
        },
        {
          "duration": 0.3571424999999806,
          "durationTicks": 768,
          "midi": 79,
          "name": "G5",
          "ticks": 370688,
          "time": 178.01987400000002,
          "velocity": 0.5039370078740157
        },
        {
          "duration": 0.23809499999998707,
          "durationTicks": 512,
          "midi": 50,
          "name": "D3",
          "ticks": 370688,
          "time": 178.01987400000002,
          "velocity": 0.5039370078740157
        },
        {
          "duration": 0.23809499999998707,
          "durationTicks": 512,
          "midi": 50,
          "name": "D3",
          "ticks": 371200,
          "time": 178.257969,
          "velocity": 0.5039370078740157
        },
        {
          "duration": 0.357142500000009,
          "durationTicks": 768,
          "midi": 72,
          "name": "C5",
          "ticks": 371456,
          "time": 178.3770165,
          "velocity": 0.5039370078740157
        },
        {
          "duration": 0.357142500000009,
          "durationTicks": 768,
          "midi": 74,
          "name": "D5",
          "ticks": 371456,
          "time": 178.3770165,
          "velocity": 0.5039370078740157
        },
        {
          "duration": 0.357142500000009,
          "durationTicks": 768,
          "midi": 80,
          "name": "G#5",
          "ticks": 371456,
          "time": 178.3770165,
          "velocity": 0.5039370078740157
        },
        {
          "duration": 0.2380950000000155,
          "durationTicks": 512,
          "midi": 50,
          "name": "D3",
          "ticks": 371712,
          "time": 178.496064,
          "velocity": 0.5039370078740157
        },
        {
          "duration": 0.2380950000000155,
          "durationTicks": 512,
          "midi": 72,
          "name": "C5",
          "ticks": 372224,
          "time": 178.734159,
          "velocity": 0.5039370078740157
        },
        {
          "duration": 0.2380950000000155,
          "durationTicks": 512,
          "midi": 74,
          "name": "D5",
          "ticks": 372224,
          "time": 178.734159,
          "velocity": 0.5039370078740157
        },
        {
          "duration": 0.2380950000000155,
          "durationTicks": 512,
          "midi": 79,
          "name": "G5",
          "ticks": 372224,
          "time": 178.734159,
          "velocity": 0.5039370078740157
        },
        {
          "duration": 0.2380950000000155,
          "durationTicks": 512,
          "midi": 50,
          "name": "D3",
          "ticks": 372224,
          "time": 178.734159,
          "velocity": 0.5039370078740157
        },
        {
          "duration": 0.3571424999999806,
          "durationTicks": 768,
          "midi": 72,
          "name": "C5",
          "ticks": 372736,
          "time": 178.97225400000002,
          "velocity": 0.5039370078740157
        },
        {
          "duration": 0.3571424999999806,
          "durationTicks": 768,
          "midi": 74,
          "name": "D5",
          "ticks": 372736,
          "time": 178.97225400000002,
          "velocity": 0.5039370078740157
        },
        {
          "duration": 0.3571424999999806,
          "durationTicks": 768,
          "midi": 77,
          "name": "F5",
          "ticks": 372736,
          "time": 178.97225400000002,
          "velocity": 0.5039370078740157
        },
        {
          "duration": 0.23809499999998707,
          "durationTicks": 512,
          "midi": 50,
          "name": "D3",
          "ticks": 372736,
          "time": 178.97225400000002,
          "velocity": 0.5039370078740157
        },
        {
          "duration": 0.23809499999998707,
          "durationTicks": 512,
          "midi": 50,
          "name": "D3",
          "ticks": 373248,
          "time": 179.210349,
          "velocity": 0.5039370078740157
        },
        {
          "duration": 0.357142500000009,
          "durationTicks": 768,
          "midi": 72,
          "name": "C5",
          "ticks": 373504,
          "time": 179.3293965,
          "velocity": 0.5039370078740157
        },
        {
          "duration": 0.357142500000009,
          "durationTicks": 768,
          "midi": 75,
          "name": "D#5",
          "ticks": 373504,
          "time": 179.3293965,
          "velocity": 0.5039370078740157
        },
        {
          "duration": 0.2380950000000155,
          "durationTicks": 512,
          "midi": 50,
          "name": "D3",
          "ticks": 373760,
          "time": 179.448444,
          "velocity": 0.5039370078740157
        },
        {
          "duration": 0.23809499999998707,
          "durationTicks": 512,
          "midi": 72,
          "name": "C5",
          "ticks": 374272,
          "time": 179.686539,
          "velocity": 0.5039370078740157
        },
        {
          "duration": 0.23809499999998707,
          "durationTicks": 512,
          "midi": 74,
          "name": "D5",
          "ticks": 374272,
          "time": 179.686539,
          "velocity": 0.5039370078740157
        },
        {
          "duration": 0.23809499999998707,
          "durationTicks": 512,
          "midi": 77,
          "name": "F5",
          "ticks": 374272,
          "time": 179.686539,
          "velocity": 0.5039370078740157
        },
        {
          "duration": 0.23809499999998707,
          "durationTicks": 512,
          "midi": 50,
          "name": "D3",
          "ticks": 374272,
          "time": 179.686539,
          "velocity": 0.5039370078740157
        },
        {
          "duration": 0.9523800000000051,
          "durationTicks": 2048,
          "midi": 69,
          "name": "A4",
          "ticks": 374784,
          "time": 179.924634,
          "velocity": 0.5039370078740157
        },
        {
          "duration": 0.9523800000000051,
          "durationTicks": 2048,
          "midi": 72,
          "name": "C5",
          "ticks": 374784,
          "time": 179.924634,
          "velocity": 0.5039370078740157
        },
        {
          "duration": 0.9523800000000051,
          "durationTicks": 2048,
          "midi": 77,
          "name": "F5",
          "ticks": 374784,
          "time": 179.924634,
          "velocity": 0.5039370078740157
        },
        {
          "duration": 0.9523800000000051,
          "durationTicks": 2048,
          "midi": 79,
          "name": "G5",
          "ticks": 374784,
          "time": 179.924634,
          "velocity": 0.5039370078740157
        },
        {
          "duration": 0.9523800000000051,
          "durationTicks": 2048,
          "midi": 43,
          "name": "G2",
          "ticks": 374784,
          "time": 179.924634,
          "velocity": 0.5039370078740157
        },
        {
          "duration": 0.357142500000009,
          "durationTicks": 768,
          "midi": 71,
          "name": "B4",
          "ticks": 376832,
          "time": 180.877014,
          "velocity": 0.5039370078740157
        },
        {
          "duration": 0.357142500000009,
          "durationTicks": 768,
          "midi": 74,
          "name": "D5",
          "ticks": 376832,
          "time": 180.877014,
          "velocity": 0.5039370078740157
        },
        {
          "duration": 0.357142500000009,
          "durationTicks": 768,
          "midi": 79,
          "name": "G5",
          "ticks": 376832,
          "time": 180.877014,
          "velocity": 0.5039370078740157
        },
        {
          "duration": 0.357142500000009,
          "durationTicks": 768,
          "midi": 43,
          "name": "G2",
          "ticks": 376832,
          "time": 180.877014,
          "velocity": 0.5039370078740157
        },
        {
          "duration": 0.3571424999999806,
          "durationTicks": 768,
          "midi": 72,
          "name": "C5",
          "ticks": 377600,
          "time": 181.2341565,
          "velocity": 0.5039370078740157
        },
        {
          "duration": 0.3571424999999806,
          "durationTicks": 768,
          "midi": 77,
          "name": "F5",
          "ticks": 377600,
          "time": 181.2341565,
          "velocity": 0.5039370078740157
        },
        {
          "duration": 0.3571424999999806,
          "durationTicks": 768,
          "midi": 81,
          "name": "A5",
          "ticks": 377600,
          "time": 181.2341565,
          "velocity": 0.5039370078740157
        },
        {
          "duration": 0.3571424999999806,
          "durationTicks": 768,
          "midi": 43,
          "name": "G2",
          "ticks": 377600,
          "time": 181.2341565,
          "velocity": 0.5039370078740157
        },
        {
          "duration": 0.2380950000000155,
          "durationTicks": 512,
          "midi": 74,
          "name": "D5",
          "ticks": 378368,
          "time": 181.591299,
          "velocity": 0.5039370078740157
        },
        {
          "duration": 0.2380950000000155,
          "durationTicks": 512,
          "midi": 79,
          "name": "G5",
          "ticks": 378368,
          "time": 181.591299,
          "velocity": 0.5039370078740157
        },
        {
          "duration": 0.2380950000000155,
          "durationTicks": 512,
          "midi": 83,
          "name": "B5",
          "ticks": 378368,
          "time": 181.591299,
          "velocity": 0.5039370078740157
        },
        {
          "duration": 0.2380950000000155,
          "durationTicks": 512,
          "midi": 43,
          "name": "G2",
          "ticks": 378368,
          "time": 181.591299,
          "velocity": 0.5039370078740157
        },
        {
          "duration": 0.47619000000000256,
          "durationTicks": 1024,
          "midi": 72,
          "name": "C5",
          "ticks": 378880,
          "time": 181.829394,
          "velocity": 0.5039370078740157
        },
        {
          "duration": 0.2380950000000155,
          "durationTicks": 512,
          "midi": 48,
          "name": "C3",
          "ticks": 378880,
          "time": 181.829394,
          "velocity": 0.5039370078740157
        },
        {
          "duration": 0.23809499999998707,
          "durationTicks": 512,
          "midi": 48,
          "name": "C3",
          "ticks": 379392,
          "time": 182.06748900000002,
          "velocity": 0.5039370078740157
        },
        {
          "duration": 0.47619000000000256,
          "durationTicks": 1024,
          "midi": 67,
          "name": "G4",
          "ticks": 379904,
          "time": 182.305584,
          "velocity": 0.5039370078740157
        },
        {
          "duration": 0.47619000000000256,
          "durationTicks": 1024,
          "midi": 72,
          "name": "C5",
          "ticks": 379904,
          "time": 182.305584,
          "velocity": 0.5039370078740157
        },
        {
          "duration": 0.47619000000000256,
          "durationTicks": 1024,
          "midi": 75,
          "name": "D#5",
          "ticks": 379904,
          "time": 182.305584,
          "velocity": 0.5039370078740157
        },
        {
          "duration": 0.23809499999998707,
          "durationTicks": 512,
          "midi": 48,
          "name": "C3",
          "ticks": 379904,
          "time": 182.305584,
          "velocity": 0.5039370078740157
        },
        {
          "duration": 0.2380950000000155,
          "durationTicks": 512,
          "midi": 51,
          "name": "D#3",
          "ticks": 380416,
          "time": 182.543679,
          "velocity": 0.5039370078740157
        },
        {
          "duration": 0.3571424999999806,
          "durationTicks": 768,
          "midi": 77,
          "name": "F5",
          "ticks": 380928,
          "time": 182.781774,
          "velocity": 0.5039370078740157
        },
        {
          "duration": 0.9523799999999767,
          "durationTicks": 2048,
          "midi": 68,
          "name": "G#4",
          "ticks": 380928,
          "time": 182.781774,
          "velocity": 0.5039370078740157
        },
        {
          "duration": 0.9523799999999767,
          "durationTicks": 2048,
          "midi": 72,
          "name": "C5",
          "ticks": 380928,
          "time": 182.781774,
          "velocity": 0.5039370078740157
        },
        {
          "duration": 0.11904749999999353,
          "durationTicks": 256,
          "midi": 53,
          "name": "F3",
          "ticks": 380928,
          "time": 182.781774,
          "velocity": 0.5039370078740157
        },
        {
          "duration": 0.11904749999999353,
          "durationTicks": 256,
          "midi": 53,
          "name": "F3",
          "ticks": 381184,
          "time": 182.9008215,
          "velocity": 0.5039370078740157
        },
        {
          "duration": 0.357142500000009,
          "durationTicks": 768,
          "midi": 75,
          "name": "D#5",
          "ticks": 381696,
          "time": 183.1389165,
          "velocity": 0.5039370078740157
        },
        {
          "duration": 0.2380950000000155,
          "durationTicks": 512,
          "midi": 53,
          "name": "F3",
          "ticks": 381696,
          "time": 183.1389165,
          "velocity": 0.5039370078740157
        },
        {
          "duration": 0.11904749999999353,
          "durationTicks": 256,
          "midi": 53,
          "name": "F3",
          "ticks": 382208,
          "time": 183.3770115,
          "velocity": 0.5039370078740157
        },
        {
          "duration": 0.23809499999998707,
          "durationTicks": 512,
          "midi": 77,
          "name": "F5",
          "ticks": 382464,
          "time": 183.496059,
          "velocity": 0.5039370078740157
        },
        {
          "duration": 0.23809499999998707,
          "durationTicks": 512,
          "midi": 48,
          "name": "C3",
          "ticks": 382464,
          "time": 183.496059,
          "velocity": 0.5039370078740157
        },
        {
          "duration": 0.2380950000000155,
          "durationTicks": 512,
          "midi": 77,
          "name": "F5",
          "ticks": 382976,
          "time": 183.734154,
          "velocity": 0.5039370078740157
        },
        {
          "duration": 0.2380950000000155,
          "durationTicks": 512,
          "midi": 46,
          "name": "A#2",
          "ticks": 382976,
          "time": 183.734154,
          "velocity": 0.5039370078740157
        },
        {
          "duration": 0.2380950000000155,
          "durationTicks": 512,
          "midi": 77,
          "name": "F5",
          "ticks": 383488,
          "time": 183.972249,
          "velocity": 0.5039370078740157
        },
        {
          "duration": 0.2380950000000155,
          "durationTicks": 512,
          "midi": 46,
          "name": "A#2",
          "ticks": 383488,
          "time": 183.972249,
          "velocity": 0.5039370078740157
        },
        {
          "duration": 0.23809499999998707,
          "durationTicks": 512,
          "midi": 82,
          "name": "A#5",
          "ticks": 384000,
          "time": 184.21034400000002,
          "velocity": 0.5039370078740157
        },
        {
          "duration": 0.23809499999998707,
          "durationTicks": 512,
          "midi": 46,
          "name": "A#2",
          "ticks": 384000,
          "time": 184.21034400000002,
          "velocity": 0.5039370078740157
        },
        {
          "duration": 0.23809499999998707,
          "durationTicks": 512,
          "midi": 80,
          "name": "G#5",
          "ticks": 384512,
          "time": 184.448439,
          "velocity": 0.5039370078740157
        },
        {
          "duration": 0.23809499999998707,
          "durationTicks": 512,
          "midi": 50,
          "name": "D3",
          "ticks": 384512,
          "time": 184.448439,
          "velocity": 0.5039370078740157
        },
        {
          "duration": 0.11904750000002196,
          "durationTicks": 256,
          "midi": 79,
          "name": "G5",
          "ticks": 385024,
          "time": 184.686534,
          "velocity": 0.5039370078740157
        },
        {
          "duration": 0.11904750000002196,
          "durationTicks": 256,
          "midi": 51,
          "name": "D#3",
          "ticks": 385024,
          "time": 184.686534,
          "velocity": 0.5039370078740157
        },
        {
          "duration": 0.23809499999998707,
          "durationTicks": 512,
          "midi": 77,
          "name": "F5",
          "ticks": 385280,
          "time": 184.80558150000002,
          "velocity": 0.5039370078740157
        },
        {
          "duration": 0.11904749999999353,
          "durationTicks": 256,
          "midi": 51,
          "name": "D#3",
          "ticks": 385280,
          "time": 184.80558150000002,
          "velocity": 0.5039370078740157
        },
        {
          "duration": 0.5952374999999961,
          "durationTicks": 1280,
          "midi": 79,
          "name": "G5",
          "ticks": 385792,
          "time": 185.0436765,
          "velocity": 0.5039370078740157
        },
        {
          "duration": 0.11904749999999353,
          "durationTicks": 256,
          "midi": 51,
          "name": "D#3",
          "ticks": 385792,
          "time": 185.0436765,
          "velocity": 0.5039370078740157
        },
        {
          "duration": 0.2380950000000155,
          "durationTicks": 512,
          "midi": 51,
          "name": "D#3",
          "ticks": 386048,
          "time": 185.162724,
          "velocity": 0.5039370078740157
        },
        {
          "duration": 0.23809499999998707,
          "durationTicks": 512,
          "midi": 50,
          "name": "D3",
          "ticks": 386560,
          "time": 185.400819,
          "velocity": 0.5039370078740157
        },
        {
          "duration": 0.47619000000000256,
          "durationTicks": 1024,
          "midi": 75,
          "name": "D#5",
          "ticks": 387072,
          "time": 185.638914,
          "velocity": 0.5039370078740157
        },
        {
          "duration": 0.47619000000000256,
          "durationTicks": 1024,
          "midi": 79,
          "name": "G5",
          "ticks": 387072,
          "time": 185.638914,
          "velocity": 0.5039370078740157
        },
        {
          "duration": 0.2380950000000155,
          "durationTicks": 512,
          "midi": 48,
          "name": "C3",
          "ticks": 387072,
          "time": 185.638914,
          "velocity": 0.5039370078740157
        },
        {
          "duration": 0.23809499999998707,
          "durationTicks": 512,
          "midi": 48,
          "name": "C3",
          "ticks": 387584,
          "time": 185.87700900000002,
          "velocity": 0.5039370078740157
        },
        {
          "duration": 0.47619000000000256,
          "durationTicks": 1024,
          "midi": 75,
          "name": "D#5",
          "ticks": 388096,
          "time": 186.115104,
          "velocity": 0.5039370078740157
        },
        {
          "duration": 0.47619000000000256,
          "durationTicks": 1024,
          "midi": 79,
          "name": "G5",
          "ticks": 388096,
          "time": 186.115104,
          "velocity": 0.5039370078740157
        },
        {
          "duration": 0.47619000000000256,
          "durationTicks": 1024,
          "midi": 82,
          "name": "A#5",
          "ticks": 388096,
          "time": 186.115104,
          "velocity": 0.5039370078740157
        },
        {
          "duration": 0.2380950000000155,
          "durationTicks": 512,
          "midi": 48,
          "name": "C3",
          "ticks": 388096,
          "time": 186.115104,
          "velocity": 0.5039370078740157
        },
        {
          "duration": 0.23809499999998707,
          "durationTicks": 512,
          "midi": 51,
          "name": "D#3",
          "ticks": 388608,
          "time": 186.35319900000002,
          "velocity": 0.5039370078740157
        },
        {
          "duration": 0.357142500000009,
          "durationTicks": 768,
          "midi": 75,
          "name": "D#5",
          "ticks": 389120,
          "time": 186.591294,
          "velocity": 0.5039370078740157
        },
        {
          "duration": 0.357142500000009,
          "durationTicks": 768,
          "midi": 80,
          "name": "G#5",
          "ticks": 389120,
          "time": 186.591294,
          "velocity": 0.5039370078740157
        },
        {
          "duration": 0.357142500000009,
          "durationTicks": 768,
          "midi": 84,
          "name": "C6",
          "ticks": 389120,
          "time": 186.591294,
          "velocity": 0.5039370078740157
        },
        {
          "duration": 0.11904749999999353,
          "durationTicks": 256,
          "midi": 53,
          "name": "F3",
          "ticks": 389120,
          "time": 186.591294,
          "velocity": 0.5039370078740157
        },
        {
          "duration": 0.11904749999999353,
          "durationTicks": 256,
          "midi": 53,
          "name": "F3",
          "ticks": 389376,
          "time": 186.7103415,
          "velocity": 0.5039370078740157
        },
        {
          "duration": 0.357142500000009,
          "durationTicks": 768,
          "midi": 77,
          "name": "F5",
          "ticks": 389888,
          "time": 186.9484365,
          "velocity": 0.5039370078740157
        },
        {
          "duration": 0.23809499999998707,
          "durationTicks": 512,
          "midi": 53,
          "name": "F3",
          "ticks": 389888,
          "time": 186.9484365,
          "velocity": 0.5039370078740157
        },
        {
          "duration": 0.11904750000002196,
          "durationTicks": 256,
          "midi": 53,
          "name": "F3",
          "ticks": 390400,
          "time": 187.1865315,
          "velocity": 0.5039370078740157
        },
        {
          "duration": 0.23809499999998707,
          "durationTicks": 512,
          "midi": 75,
          "name": "D#5",
          "ticks": 390656,
          "time": 187.30557900000002,
          "velocity": 0.5039370078740157
        },
        {
          "duration": 0.23809499999998707,
          "durationTicks": 512,
          "midi": 48,
          "name": "C3",
          "ticks": 390656,
          "time": 187.30557900000002,
          "velocity": 0.5039370078740157
        },
        {
          "duration": 0.23809499999998707,
          "durationTicks": 512,
          "midi": 74,
          "name": "D5",
          "ticks": 391168,
          "time": 187.543674,
          "velocity": 0.5039370078740157
        },
        {
          "duration": 0.23809499999998707,
          "durationTicks": 512,
          "midi": 46,
          "name": "A#2",
          "ticks": 391168,
          "time": 187.543674,
          "velocity": 0.5039370078740157
        },
        {
          "duration": 0.2380950000000155,
          "durationTicks": 512,
          "midi": 74,
          "name": "D5",
          "ticks": 391680,
          "time": 187.781769,
          "velocity": 0.5039370078740157
        },
        {
          "duration": 0.2380950000000155,
          "durationTicks": 512,
          "midi": 46,
          "name": "A#2",
          "ticks": 391680,
          "time": 187.781769,
          "velocity": 0.5039370078740157
        },
        {
          "duration": 0.23809499999998707,
          "durationTicks": 512,
          "midi": 72,
          "name": "C5",
          "ticks": 392192,
          "time": 188.019864,
          "velocity": 0.5039370078740157
        },
        {
          "duration": 0.23809499999998707,
          "durationTicks": 512,
          "midi": 46,
          "name": "A#2",
          "ticks": 392192,
          "time": 188.019864,
          "velocity": 0.5039370078740157
        },
        {
          "duration": 0.2380950000000155,
          "durationTicks": 512,
          "midi": 74,
          "name": "D5",
          "ticks": 392704,
          "time": 188.257959,
          "velocity": 0.5039370078740157
        },
        {
          "duration": 0.2380950000000155,
          "durationTicks": 512,
          "midi": 50,
          "name": "D3",
          "ticks": 392704,
          "time": 188.257959,
          "velocity": 0.5039370078740157
        },
        {
          "duration": 0.11904749999999353,
          "durationTicks": 256,
          "midi": 77,
          "name": "F5",
          "ticks": 393216,
          "time": 188.49605400000002,
          "velocity": 0.5039370078740157
        },
        {
          "duration": 0.47618999999997413,
          "durationTicks": 1024,
          "midi": 51,
          "name": "D#3",
          "ticks": 393216,
          "time": 188.49605400000002,
          "velocity": 0.5039370078740157
        },
        {
          "duration": 0.23809499999998707,
          "durationTicks": 512,
          "midi": 75,
          "name": "D#5",
          "ticks": 393472,
          "time": 188.6151015,
          "velocity": 0.5039370078740157
        },
        {
          "duration": 0.5952375000000245,
          "durationTicks": 1280,
          "midi": 75,
          "name": "D#5",
          "ticks": 393984,
          "time": 188.8531965,
          "velocity": 0.5039370078740157
        },
        {
          "duration": 0.476190000000031,
          "durationTicks": 1024,
          "midi": 50,
          "name": "D3",
          "ticks": 394240,
          "time": 188.972244,
          "velocity": 0.5039370078740157
        },
        {
          "duration": 0.47618999999997413,
          "durationTicks": 1024,
          "midi": 72,
          "name": "C5",
          "ticks": 395264,
          "time": 189.44843400000002,
          "velocity": 0.5039370078740157
        },
        {
          "duration": 0.23809499999998707,
          "durationTicks": 512,
          "midi": 48,
          "name": "C3",
          "ticks": 395264,
          "time": 189.44843400000002,
          "velocity": 0.5039370078740157
        },
        {
          "duration": 0.23809499999998707,
          "durationTicks": 512,
          "midi": 48,
          "name": "C3",
          "ticks": 395776,
          "time": 189.686529,
          "velocity": 0.5039370078740157
        },
        {
          "duration": 0.47619000000000256,
          "durationTicks": 1024,
          "midi": 67,
          "name": "G4",
          "ticks": 396288,
          "time": 189.924624,
          "velocity": 0.5039370078740157
        },
        {
          "duration": 0.47619000000000256,
          "durationTicks": 1024,
          "midi": 72,
          "name": "C5",
          "ticks": 396288,
          "time": 189.924624,
          "velocity": 0.5039370078740157
        },
        {
          "duration": 0.47619000000000256,
          "durationTicks": 1024,
          "midi": 75,
          "name": "D#5",
          "ticks": 396288,
          "time": 189.924624,
          "velocity": 0.5039370078740157
        },
        {
          "duration": 0.2380950000000155,
          "durationTicks": 512,
          "midi": 48,
          "name": "C3",
          "ticks": 396288,
          "time": 189.924624,
          "velocity": 0.5039370078740157
        },
        {
          "duration": 0.23809499999998707,
          "durationTicks": 512,
          "midi": 51,
          "name": "D#3",
          "ticks": 396800,
          "time": 190.162719,
          "velocity": 0.5039370078740157
        },
        {
          "duration": 0.357142500000009,
          "durationTicks": 768,
          "midi": 77,
          "name": "F5",
          "ticks": 397312,
          "time": 190.400814,
          "velocity": 0.5039370078740157
        },
        {
          "duration": 0.9523800000000051,
          "durationTicks": 2048,
          "midi": 68,
          "name": "G#4",
          "ticks": 397312,
          "time": 190.400814,
          "velocity": 0.5039370078740157
        },
        {
          "duration": 0.9523800000000051,
          "durationTicks": 2048,
          "midi": 72,
          "name": "C5",
          "ticks": 397312,
          "time": 190.400814,
          "velocity": 0.5039370078740157
        },
        {
          "duration": 0.11904749999999353,
          "durationTicks": 256,
          "midi": 53,
          "name": "F3",
          "ticks": 397312,
          "time": 190.400814,
          "velocity": 0.5039370078740157
        },
        {
          "duration": 0.11904750000002196,
          "durationTicks": 256,
          "midi": 53,
          "name": "F3",
          "ticks": 397568,
          "time": 190.5198615,
          "velocity": 0.5039370078740157
        },
        {
          "duration": 0.357142500000009,
          "durationTicks": 768,
          "midi": 75,
          "name": "D#5",
          "ticks": 398080,
          "time": 190.7579565,
          "velocity": 0.5039370078740157
        },
        {
          "duration": 0.2380950000000155,
          "durationTicks": 512,
          "midi": 53,
          "name": "F3",
          "ticks": 398080,
          "time": 190.7579565,
          "velocity": 0.5039370078740157
        },
        {
          "duration": 0.11904749999999353,
          "durationTicks": 256,
          "midi": 53,
          "name": "F3",
          "ticks": 398592,
          "time": 190.99605150000002,
          "velocity": 0.5039370078740157
        },
        {
          "duration": 0.23809499999998707,
          "durationTicks": 512,
          "midi": 77,
          "name": "F5",
          "ticks": 398848,
          "time": 191.11509900000001,
          "velocity": 0.5039370078740157
        },
        {
          "duration": 0.23809499999998707,
          "durationTicks": 512,
          "midi": 48,
          "name": "C3",
          "ticks": 398848,
          "time": 191.11509900000001,
          "velocity": 0.5039370078740157
        },
        {
          "duration": 0.2380950000000155,
          "durationTicks": 512,
          "midi": 77,
          "name": "F5",
          "ticks": 399360,
          "time": 191.353194,
          "velocity": 0.5039370078740157
        },
        {
          "duration": 0.2380950000000155,
          "durationTicks": 512,
          "midi": 46,
          "name": "A#2",
          "ticks": 399360,
          "time": 191.353194,
          "velocity": 0.5039370078740157
        },
        {
          "duration": 0.23809499999998707,
          "durationTicks": 512,
          "midi": 77,
          "name": "F5",
          "ticks": 399872,
          "time": 191.59128900000002,
          "velocity": 0.5039370078740157
        },
        {
          "duration": 0.23809499999998707,
          "durationTicks": 512,
          "midi": 46,
          "name": "A#2",
          "ticks": 399872,
          "time": 191.59128900000002,
          "velocity": 0.5039370078740157
        },
        {
          "duration": 0.23809499999998707,
          "durationTicks": 512,
          "midi": 82,
          "name": "A#5",
          "ticks": 400384,
          "time": 191.829384,
          "velocity": 0.5039370078740157
        },
        {
          "duration": 0.23809499999998707,
          "durationTicks": 512,
          "midi": 46,
          "name": "A#2",
          "ticks": 400384,
          "time": 191.829384,
          "velocity": 0.5039370078740157
        },
        {
          "duration": 0.2380950000000155,
          "durationTicks": 512,
          "midi": 80,
          "name": "G#5",
          "ticks": 400896,
          "time": 192.067479,
          "velocity": 0.5039370078740157
        },
        {
          "duration": 0.2380950000000155,
          "durationTicks": 512,
          "midi": 50,
          "name": "D3",
          "ticks": 400896,
          "time": 192.067479,
          "velocity": 0.5039370078740157
        },
        {
          "duration": 0.11904749999999353,
          "durationTicks": 256,
          "midi": 79,
          "name": "G5",
          "ticks": 401408,
          "time": 192.305574,
          "velocity": 0.5039370078740157
        },
        {
          "duration": 0.11904749999999353,
          "durationTicks": 256,
          "midi": 51,
          "name": "D#3",
          "ticks": 401408,
          "time": 192.305574,
          "velocity": 0.5039370078740157
        },
        {
          "duration": 0.23809499999998707,
          "durationTicks": 512,
          "midi": 77,
          "name": "F5",
          "ticks": 401664,
          "time": 192.4246215,
          "velocity": 0.5039370078740157
        },
        {
          "duration": 0.11904750000002196,
          "durationTicks": 256,
          "midi": 51,
          "name": "D#3",
          "ticks": 401664,
          "time": 192.4246215,
          "velocity": 0.5039370078740157
        },
        {
          "duration": 0.5952375000000245,
          "durationTicks": 1280,
          "midi": 79,
          "name": "G5",
          "ticks": 402176,
          "time": 192.6627165,
          "velocity": 0.5039370078740157
        },
        {
          "duration": 0.11904750000002196,
          "durationTicks": 256,
          "midi": 51,
          "name": "D#3",
          "ticks": 402176,
          "time": 192.6627165,
          "velocity": 0.5039370078740157
        },
        {
          "duration": 0.23809499999998707,
          "durationTicks": 512,
          "midi": 51,
          "name": "D#3",
          "ticks": 402432,
          "time": 192.781764,
          "velocity": 0.5039370078740157
        },
        {
          "duration": 0.2380950000000155,
          "durationTicks": 512,
          "midi": 50,
          "name": "D3",
          "ticks": 402944,
          "time": 193.019859,
          "velocity": 0.5039370078740157
        },
        {
          "duration": 0.47619000000000256,
          "durationTicks": 1024,
          "midi": 75,
          "name": "D#5",
          "ticks": 403456,
          "time": 193.257954,
          "velocity": 0.5039370078740157
        },
        {
          "duration": 0.47619000000000256,
          "durationTicks": 1024,
          "midi": 79,
          "name": "G5",
          "ticks": 403456,
          "time": 193.257954,
          "velocity": 0.5039370078740157
        },
        {
          "duration": 0.23809499999998707,
          "durationTicks": 512,
          "midi": 48,
          "name": "C3",
          "ticks": 403456,
          "time": 193.257954,
          "velocity": 0.5039370078740157
        },
        {
          "duration": 0.2380950000000155,
          "durationTicks": 512,
          "midi": 48,
          "name": "C3",
          "ticks": 403968,
          "time": 193.496049,
          "velocity": 0.5039370078740157
        },
        {
          "duration": 0.47618999999997413,
          "durationTicks": 1024,
          "midi": 75,
          "name": "D#5",
          "ticks": 404480,
          "time": 193.73414400000001,
          "velocity": 0.5039370078740157
        },
        {
          "duration": 0.47618999999997413,
          "durationTicks": 1024,
          "midi": 79,
          "name": "G5",
          "ticks": 404480,
          "time": 193.73414400000001,
          "velocity": 0.5039370078740157
        },
        {
          "duration": 0.47618999999997413,
          "durationTicks": 1024,
          "midi": 82,
          "name": "A#5",
          "ticks": 404480,
          "time": 193.73414400000001,
          "velocity": 0.5039370078740157
        },
        {
          "duration": 0.23809499999998707,
          "durationTicks": 512,
          "midi": 48,
          "name": "C3",
          "ticks": 404480,
          "time": 193.73414400000001,
          "velocity": 0.5039370078740157
        },
        {
          "duration": 0.23809499999998707,
          "durationTicks": 512,
          "midi": 51,
          "name": "D#3",
          "ticks": 404992,
          "time": 193.972239,
          "velocity": 0.5039370078740157
        },
        {
          "duration": 0.357142500000009,
          "durationTicks": 768,
          "midi": 75,
          "name": "D#5",
          "ticks": 405504,
          "time": 194.210334,
          "velocity": 0.5039370078740157
        },
        {
          "duration": 0.357142500000009,
          "durationTicks": 768,
          "midi": 80,
          "name": "G#5",
          "ticks": 405504,
          "time": 194.210334,
          "velocity": 0.5039370078740157
        },
        {
          "duration": 0.357142500000009,
          "durationTicks": 768,
          "midi": 84,
          "name": "C6",
          "ticks": 405504,
          "time": 194.210334,
          "velocity": 0.5039370078740157
        },
        {
          "duration": 0.11904750000002196,
          "durationTicks": 256,
          "midi": 53,
          "name": "F3",
          "ticks": 405504,
          "time": 194.210334,
          "velocity": 0.5039370078740157
        },
        {
          "duration": 0.11904749999999353,
          "durationTicks": 256,
          "midi": 53,
          "name": "F3",
          "ticks": 405760,
          "time": 194.3293815,
          "velocity": 0.5039370078740157
        },
        {
          "duration": 0.357142500000009,
          "durationTicks": 768,
          "midi": 77,
          "name": "F5",
          "ticks": 406272,
          "time": 194.5674765,
          "velocity": 0.5039370078740157
        },
        {
          "duration": 0.23809499999998707,
          "durationTicks": 512,
          "midi": 53,
          "name": "F3",
          "ticks": 406272,
          "time": 194.5674765,
          "velocity": 0.5039370078740157
        },
        {
          "duration": 0.11904750000002196,
          "durationTicks": 256,
          "midi": 53,
          "name": "F3",
          "ticks": 406784,
          "time": 194.80557149999999,
          "velocity": 0.5039370078740157
        },
        {
          "duration": 0.23809499999998707,
          "durationTicks": 512,
          "midi": 75,
          "name": "D#5",
          "ticks": 407040,
          "time": 194.924619,
          "velocity": 0.5039370078740157
        },
        {
          "duration": 0.23809499999998707,
          "durationTicks": 512,
          "midi": 48,
          "name": "C3",
          "ticks": 407040,
          "time": 194.924619,
          "velocity": 0.5039370078740157
        },
        {
          "duration": 0.2380950000000155,
          "durationTicks": 512,
          "midi": 74,
          "name": "D5",
          "ticks": 407552,
          "time": 195.162714,
          "velocity": 0.5039370078740157
        },
        {
          "duration": 0.2380950000000155,
          "durationTicks": 512,
          "midi": 77,
          "name": "F5",
          "ticks": 407552,
          "time": 195.162714,
          "velocity": 0.5039370078740157
        },
        {
          "duration": 0.2380950000000155,
          "durationTicks": 512,
          "midi": 82,
          "name": "A#5",
          "ticks": 407552,
          "time": 195.162714,
          "velocity": 0.5039370078740157
        },
        {
          "duration": 0.2380950000000155,
          "durationTicks": 512,
          "midi": 46,
          "name": "A#2",
          "ticks": 407552,
          "time": 195.162714,
          "velocity": 0.5039370078740157
        },
        {
          "duration": 0.2380950000000155,
          "durationTicks": 512,
          "midi": 74,
          "name": "D5",
          "ticks": 408064,
          "time": 195.400809,
          "velocity": 0.5039370078740157
        },
        {
          "duration": 0.2380950000000155,
          "durationTicks": 512,
          "midi": 77,
          "name": "F5",
          "ticks": 408064,
          "time": 195.400809,
          "velocity": 0.5039370078740157
        },
        {
          "duration": 0.2380950000000155,
          "durationTicks": 512,
          "midi": 82,
          "name": "A#5",
          "ticks": 408064,
          "time": 195.400809,
          "velocity": 0.5039370078740157
        },
        {
          "duration": 0.2380950000000155,
          "durationTicks": 512,
          "midi": 46,
          "name": "A#2",
          "ticks": 408064,
          "time": 195.400809,
          "velocity": 0.5039370078740157
        },
        {
          "duration": 0.23809499999998707,
          "durationTicks": 512,
          "midi": 74,
          "name": "D5",
          "ticks": 408576,
          "time": 195.63890400000003,
          "velocity": 0.5039370078740157
        },
        {
          "duration": 0.23809499999998707,
          "durationTicks": 512,
          "midi": 77,
          "name": "F5",
          "ticks": 408576,
          "time": 195.63890400000003,
          "velocity": 0.5039370078740157
        },
        {
          "duration": 0.23809499999998707,
          "durationTicks": 512,
          "midi": 79,
          "name": "G5",
          "ticks": 408576,
          "time": 195.63890400000003,
          "velocity": 0.5039370078740157
        },
        {
          "duration": 0.23809499999998707,
          "durationTicks": 512,
          "midi": 46,
          "name": "A#2",
          "ticks": 408576,
          "time": 195.63890400000003,
          "velocity": 0.5039370078740157
        },
        {
          "duration": 0.23809499999998707,
          "durationTicks": 512,
          "midi": 74,
          "name": "D5",
          "ticks": 409088,
          "time": 195.876999,
          "velocity": 0.5039370078740157
        },
        {
          "duration": 0.23809499999998707,
          "durationTicks": 512,
          "midi": 77,
          "name": "F5",
          "ticks": 409088,
          "time": 195.876999,
          "velocity": 0.5039370078740157
        },
        {
          "duration": 0.23809499999998707,
          "durationTicks": 512,
          "midi": 82,
          "name": "A#5",
          "ticks": 409088,
          "time": 195.876999,
          "velocity": 0.5039370078740157
        },
        {
          "duration": 0.23809499999998707,
          "durationTicks": 512,
          "midi": 47,
          "name": "B2",
          "ticks": 409088,
          "time": 195.876999,
          "velocity": 0.5039370078740157
        },
        {
          "duration": 0.357142500000009,
          "durationTicks": 768,
          "midi": 74,
          "name": "D5",
          "ticks": 409600,
          "time": 196.115094,
          "velocity": 0.5039370078740157
        },
        {
          "duration": 0.357142500000009,
          "durationTicks": 768,
          "midi": 77,
          "name": "F5",
          "ticks": 409600,
          "time": 196.115094,
          "velocity": 0.5039370078740157
        },
        {
          "duration": 0.357142500000009,
          "durationTicks": 768,
          "midi": 82,
          "name": "A#5",
          "ticks": 409600,
          "time": 196.115094,
          "velocity": 0.5039370078740157
        },
        {
          "duration": 0.11904750000002196,
          "durationTicks": 256,
          "midi": 48,
          "name": "C3",
          "ticks": 409600,
          "time": 196.115094,
          "velocity": 0.5039370078740157
        },
        {
          "duration": 0.23809499999998707,
          "durationTicks": 512,
          "midi": 48,
          "name": "C3",
          "ticks": 409856,
          "time": 196.23414150000002,
          "velocity": 0.5039370078740157
        },
        {
          "duration": 0.5952374999999961,
          "durationTicks": 1280,
          "midi": 75,
          "name": "D#5",
          "ticks": 410368,
          "time": 196.4722365,
          "velocity": 0.5039370078740157
        },
        {
          "duration": 0.5952374999999961,
          "durationTicks": 1280,
          "midi": 79,
          "name": "G5",
          "ticks": 410368,
          "time": 196.4722365,
          "velocity": 0.5039370078740157
        },
        {
          "duration": 0.5952374999999961,
          "durationTicks": 1280,
          "midi": 84,
          "name": "C6",
          "ticks": 410368,
          "time": 196.4722365,
          "velocity": 0.5039370078740157
        },
        {
          "duration": 0.11904749999999353,
          "durationTicks": 256,
          "midi": 48,
          "name": "C3",
          "ticks": 410368,
          "time": 196.4722365,
          "velocity": 0.5039370078740157
        },
        {
          "duration": 0.47619000000000256,
          "durationTicks": 1024,
          "midi": 46,
          "name": "A#2",
          "ticks": 410624,
          "time": 196.591284,
          "velocity": 0.5039370078740157
        },
        {
          "duration": 0.47619000000000256,
          "durationTicks": 1024,
          "midi": 72,
          "name": "C5",
          "ticks": 411648,
          "time": 197.067474,
          "velocity": 0.5039370078740157
        },
        {
          "duration": 0.23809499999998707,
          "durationTicks": 512,
          "midi": 48,
          "name": "C3",
          "ticks": 411648,
          "time": 197.067474,
          "velocity": 0.5039370078740157
        },
        {
          "duration": 0.2380950000000155,
          "durationTicks": 512,
          "midi": 48,
          "name": "C3",
          "ticks": 412160,
          "time": 197.305569,
          "velocity": 0.5039370078740157
        },
        {
          "duration": 0.47619000000000256,
          "durationTicks": 1024,
          "midi": 67,
          "name": "G4",
          "ticks": 412672,
          "time": 197.543664,
          "velocity": 0.5039370078740157
        },
        {
          "duration": 0.47619000000000256,
          "durationTicks": 1024,
          "midi": 72,
          "name": "C5",
          "ticks": 412672,
          "time": 197.543664,
          "velocity": 0.5039370078740157
        },
        {
          "duration": 0.47619000000000256,
          "durationTicks": 1024,
          "midi": 75,
          "name": "D#5",
          "ticks": 412672,
          "time": 197.543664,
          "velocity": 0.5039370078740157
        },
        {
          "duration": 0.2380950000000155,
          "durationTicks": 512,
          "midi": 48,
          "name": "C3",
          "ticks": 412672,
          "time": 197.543664,
          "velocity": 0.5039370078740157
        },
        {
          "duration": 0.23809499999998707,
          "durationTicks": 512,
          "midi": 51,
          "name": "D#3",
          "ticks": 413184,
          "time": 197.78175900000002,
          "velocity": 0.5039370078740157
        },
        {
          "duration": 0.357142500000009,
          "durationTicks": 768,
          "midi": 77,
          "name": "F5",
          "ticks": 413696,
          "time": 198.019854,
          "velocity": 0.5039370078740157
        },
        {
          "duration": 0.9523800000000051,
          "durationTicks": 2048,
          "midi": 68,
          "name": "G#4",
          "ticks": 413696,
          "time": 198.019854,
          "velocity": 0.5039370078740157
        },
        {
          "duration": 0.9523800000000051,
          "durationTicks": 2048,
          "midi": 72,
          "name": "C5",
          "ticks": 413696,
          "time": 198.019854,
          "velocity": 0.5039370078740157
        },
        {
          "duration": 0.11904749999999353,
          "durationTicks": 256,
          "midi": 53,
          "name": "F3",
          "ticks": 413696,
          "time": 198.019854,
          "velocity": 0.5039370078740157
        },
        {
          "duration": 0.11904749999999353,
          "durationTicks": 256,
          "midi": 53,
          "name": "F3",
          "ticks": 413952,
          "time": 198.1389015,
          "velocity": 0.5039370078740157
        },
        {
          "duration": 0.3571424999999806,
          "durationTicks": 768,
          "midi": 75,
          "name": "D#5",
          "ticks": 414464,
          "time": 198.37699650000002,
          "velocity": 0.5039370078740157
        },
        {
          "duration": 0.23809499999998707,
          "durationTicks": 512,
          "midi": 53,
          "name": "F3",
          "ticks": 414464,
          "time": 198.37699650000002,
          "velocity": 0.5039370078740157
        },
        {
          "duration": 0.11904749999999353,
          "durationTicks": 256,
          "midi": 53,
          "name": "F3",
          "ticks": 414976,
          "time": 198.6150915,
          "velocity": 0.5039370078740157
        },
        {
          "duration": 0.2380950000000155,
          "durationTicks": 512,
          "midi": 77,
          "name": "F5",
          "ticks": 415232,
          "time": 198.734139,
          "velocity": 0.5039370078740157
        },
        {
          "duration": 0.2380950000000155,
          "durationTicks": 512,
          "midi": 48,
          "name": "C3",
          "ticks": 415232,
          "time": 198.734139,
          "velocity": 0.5039370078740157
        },
        {
          "duration": 0.23809499999998707,
          "durationTicks": 512,
          "midi": 77,
          "name": "F5",
          "ticks": 415744,
          "time": 198.97223400000001,
          "velocity": 0.5039370078740157
        },
        {
          "duration": 0.23809499999998707,
          "durationTicks": 512,
          "midi": 46,
          "name": "A#2",
          "ticks": 415744,
          "time": 198.97223400000001,
          "velocity": 0.5039370078740157
        },
        {
          "duration": 0.23809499999998707,
          "durationTicks": 512,
          "midi": 77,
          "name": "F5",
          "ticks": 416256,
          "time": 199.210329,
          "velocity": 0.5039370078740157
        },
        {
          "duration": 0.23809499999998707,
          "durationTicks": 512,
          "midi": 46,
          "name": "A#2",
          "ticks": 416256,
          "time": 199.210329,
          "velocity": 0.5039370078740157
        },
        {
          "duration": 0.2380950000000155,
          "durationTicks": 512,
          "midi": 82,
          "name": "A#5",
          "ticks": 416768,
          "time": 199.448424,
          "velocity": 0.5039370078740157
        },
        {
          "duration": 0.2380950000000155,
          "durationTicks": 512,
          "midi": 46,
          "name": "A#2",
          "ticks": 416768,
          "time": 199.448424,
          "velocity": 0.5039370078740157
        },
        {
          "duration": 0.2380950000000155,
          "durationTicks": 512,
          "midi": 80,
          "name": "G#5",
          "ticks": 417280,
          "time": 199.686519,
          "velocity": 0.5039370078740157
        },
        {
          "duration": 0.2380950000000155,
          "durationTicks": 512,
          "midi": 50,
          "name": "D3",
          "ticks": 417280,
          "time": 199.686519,
          "velocity": 0.5039370078740157
        },
        {
          "duration": 0.11904749999999353,
          "durationTicks": 256,
          "midi": 79,
          "name": "G5",
          "ticks": 417792,
          "time": 199.92461400000002,
          "velocity": 0.5039370078740157
        },
        {
          "duration": 0.11904749999999353,
          "durationTicks": 256,
          "midi": 51,
          "name": "D#3",
          "ticks": 417792,
          "time": 199.92461400000002,
          "velocity": 0.5039370078740157
        },
        {
          "duration": 0.23809499999998707,
          "durationTicks": 512,
          "midi": 77,
          "name": "F5",
          "ticks": 418048,
          "time": 200.0436615,
          "velocity": 0.5039370078740157
        },
        {
          "duration": 0.11904749999999353,
          "durationTicks": 256,
          "midi": 51,
          "name": "D#3",
          "ticks": 418048,
          "time": 200.0436615,
          "velocity": 0.5039370078740157
        },
        {
          "duration": 0.5952375000000245,
          "durationTicks": 1280,
          "midi": 79,
          "name": "G5",
          "ticks": 418560,
          "time": 200.2817565,
          "velocity": 0.5039370078740157
        },
        {
          "duration": 0.11904749999999353,
          "durationTicks": 256,
          "midi": 51,
          "name": "D#3",
          "ticks": 418560,
          "time": 200.2817565,
          "velocity": 0.5039370078740157
        },
        {
          "duration": 0.2380950000000155,
          "durationTicks": 512,
          "midi": 51,
          "name": "D#3",
          "ticks": 418816,
          "time": 200.400804,
          "velocity": 0.5039370078740157
        },
        {
          "duration": 0.2380950000000155,
          "durationTicks": 512,
          "midi": 50,
          "name": "D3",
          "ticks": 419328,
          "time": 200.638899,
          "velocity": 0.5039370078740157
        },
        {
          "duration": 0.47618999999997413,
          "durationTicks": 1024,
          "midi": 75,
          "name": "D#5",
          "ticks": 419840,
          "time": 200.87699400000002,
          "velocity": 0.5039370078740157
        },
        {
          "duration": 0.47618999999997413,
          "durationTicks": 1024,
          "midi": 79,
          "name": "G5",
          "ticks": 419840,
          "time": 200.87699400000002,
          "velocity": 0.5039370078740157
        },
        {
          "duration": 0.23809499999998707,
          "durationTicks": 512,
          "midi": 48,
          "name": "C3",
          "ticks": 419840,
          "time": 200.87699400000002,
          "velocity": 0.5039370078740157
        },
        {
          "duration": 0.23809499999998707,
          "durationTicks": 512,
          "midi": 48,
          "name": "C3",
          "ticks": 420352,
          "time": 201.115089,
          "velocity": 0.5039370078740157
        },
        {
          "duration": 0.47619000000000256,
          "durationTicks": 1024,
          "midi": 75,
          "name": "D#5",
          "ticks": 420864,
          "time": 201.353184,
          "velocity": 0.5039370078740157
        },
        {
          "duration": 0.47619000000000256,
          "durationTicks": 1024,
          "midi": 79,
          "name": "G5",
          "ticks": 420864,
          "time": 201.353184,
          "velocity": 0.5039370078740157
        },
        {
          "duration": 0.47619000000000256,
          "durationTicks": 1024,
          "midi": 82,
          "name": "A#5",
          "ticks": 420864,
          "time": 201.353184,
          "velocity": 0.5039370078740157
        },
        {
          "duration": 0.23809499999998707,
          "durationTicks": 512,
          "midi": 48,
          "name": "C3",
          "ticks": 420864,
          "time": 201.353184,
          "velocity": 0.5039370078740157
        },
        {
          "duration": 0.2380950000000155,
          "durationTicks": 512,
          "midi": 51,
          "name": "D#3",
          "ticks": 421376,
          "time": 201.591279,
          "velocity": 0.5039370078740157
        },
        {
          "duration": 0.357142500000009,
          "durationTicks": 768,
          "midi": 75,
          "name": "D#5",
          "ticks": 421888,
          "time": 201.829374,
          "velocity": 0.5039370078740157
        },
        {
          "duration": 0.357142500000009,
          "durationTicks": 768,
          "midi": 80,
          "name": "G#5",
          "ticks": 421888,
          "time": 201.829374,
          "velocity": 0.5039370078740157
        },
        {
          "duration": 0.357142500000009,
          "durationTicks": 768,
          "midi": 84,
          "name": "C6",
          "ticks": 421888,
          "time": 201.829374,
          "velocity": 0.5039370078740157
        },
        {
          "duration": 0.11904749999999353,
          "durationTicks": 256,
          "midi": 53,
          "name": "F3",
          "ticks": 421888,
          "time": 201.829374,
          "velocity": 0.5039370078740157
        },
        {
          "duration": 0.11904750000002196,
          "durationTicks": 256,
          "midi": 53,
          "name": "F3",
          "ticks": 422144,
          "time": 201.9484215,
          "velocity": 0.5039370078740157
        },
        {
          "duration": 0.3571424999999806,
          "durationTicks": 768,
          "midi": 77,
          "name": "F5",
          "ticks": 422656,
          "time": 202.1865165,
          "velocity": 0.5039370078740157
        },
        {
          "duration": 0.2380950000000155,
          "durationTicks": 512,
          "midi": 53,
          "name": "F3",
          "ticks": 422656,
          "time": 202.1865165,
          "velocity": 0.5039370078740157
        },
        {
          "duration": 0.11904749999996511,
          "durationTicks": 256,
          "midi": 53,
          "name": "F3",
          "ticks": 423168,
          "time": 202.42461150000003,
          "velocity": 0.5039370078740157
        },
        {
          "duration": 0.2380950000000155,
          "durationTicks": 512,
          "midi": 75,
          "name": "D#5",
          "ticks": 423424,
          "time": 202.543659,
          "velocity": 0.5039370078740157
        },
        {
          "duration": 0.2380950000000155,
          "durationTicks": 512,
          "midi": 48,
          "name": "C3",
          "ticks": 423424,
          "time": 202.543659,
          "velocity": 0.5039370078740157
        },
        {
          "duration": 0.2380950000000155,
          "durationTicks": 512,
          "midi": 74,
          "name": "D5",
          "ticks": 423936,
          "time": 202.781754,
          "velocity": 0.5039370078740157
        },
        {
          "duration": 0.2380950000000155,
          "durationTicks": 512,
          "midi": 77,
          "name": "F5",
          "ticks": 423936,
          "time": 202.781754,
          "velocity": 0.5039370078740157
        },
        {
          "duration": 0.2380950000000155,
          "durationTicks": 512,
          "midi": 82,
          "name": "A#5",
          "ticks": 423936,
          "time": 202.781754,
          "velocity": 0.5039370078740157
        },
        {
          "duration": 0.2380950000000155,
          "durationTicks": 512,
          "midi": 41,
          "name": "F2",
          "ticks": 423936,
          "time": 202.781754,
          "velocity": 0.5039370078740157
        },
        {
          "duration": 0.23809499999998707,
          "durationTicks": 512,
          "midi": 74,
          "name": "D5",
          "ticks": 424448,
          "time": 203.01984900000002,
          "velocity": 0.5039370078740157
        },
        {
          "duration": 0.23809499999998707,
          "durationTicks": 512,
          "midi": 77,
          "name": "F5",
          "ticks": 424448,
          "time": 203.01984900000002,
          "velocity": 0.5039370078740157
        },
        {
          "duration": 0.23809499999998707,
          "durationTicks": 512,
          "midi": 82,
          "name": "A#5",
          "ticks": 424448,
          "time": 203.01984900000002,
          "velocity": 0.5039370078740157
        },
        {
          "duration": 0.23809499999998707,
          "durationTicks": 512,
          "midi": 41,
          "name": "F2",
          "ticks": 424448,
          "time": 203.01984900000002,
          "velocity": 0.5039370078740157
        },
        {
          "duration": 0.23809499999998707,
          "durationTicks": 512,
          "midi": 74,
          "name": "D5",
          "ticks": 424960,
          "time": 203.257944,
          "velocity": 0.5039370078740157
        },
        {
          "duration": 0.23809499999998707,
          "durationTicks": 512,
          "midi": 77,
          "name": "F5",
          "ticks": 424960,
          "time": 203.257944,
          "velocity": 0.5039370078740157
        },
        {
          "duration": 0.23809499999998707,
          "durationTicks": 512,
          "midi": 79,
          "name": "G5",
          "ticks": 424960,
          "time": 203.257944,
          "velocity": 0.5039370078740157
        },
        {
          "duration": 0.23809499999998707,
          "durationTicks": 512,
          "midi": 43,
          "name": "G2",
          "ticks": 424960,
          "time": 203.257944,
          "velocity": 0.5039370078740157
        },
        {
          "duration": 0.2380950000000155,
          "durationTicks": 512,
          "midi": 74,
          "name": "D5",
          "ticks": 425472,
          "time": 203.496039,
          "velocity": 0.5039370078740157
        },
        {
          "duration": 0.2380950000000155,
          "durationTicks": 512,
          "midi": 77,
          "name": "F5",
          "ticks": 425472,
          "time": 203.496039,
          "velocity": 0.5039370078740157
        },
        {
          "duration": 0.2380950000000155,
          "durationTicks": 512,
          "midi": 82,
          "name": "A#5",
          "ticks": 425472,
          "time": 203.496039,
          "velocity": 0.5039370078740157
        },
        {
          "duration": 0.2380950000000155,
          "durationTicks": 512,
          "midi": 43,
          "name": "G2",
          "ticks": 425472,
          "time": 203.496039,
          "velocity": 0.5039370078740157
        },
        {
          "duration": 0.3571424999999806,
          "durationTicks": 768,
          "midi": 74,
          "name": "D5",
          "ticks": 425984,
          "time": 203.734134,
          "velocity": 0.5039370078740157
        },
        {
          "duration": 0.3571424999999806,
          "durationTicks": 768,
          "midi": 77,
          "name": "F5",
          "ticks": 425984,
          "time": 203.734134,
          "velocity": 0.5039370078740157
        },
        {
          "duration": 0.3571424999999806,
          "durationTicks": 768,
          "midi": 82,
          "name": "A#5",
          "ticks": 425984,
          "time": 203.734134,
          "velocity": 0.5039370078740157
        },
        {
          "duration": 0.2380950000000155,
          "durationTicks": 512,
          "midi": 44,
          "name": "G#2",
          "ticks": 425984,
          "time": 203.734134,
          "velocity": 0.5039370078740157
        },
        {
          "duration": 0.23809499999998707,
          "durationTicks": 512,
          "midi": 44,
          "name": "G#2",
          "ticks": 426496,
          "time": 203.97222900000003,
          "velocity": 0.5039370078740157
        },
        {
          "duration": 0.5952374999999961,
          "durationTicks": 1280,
          "midi": 75,
          "name": "D#5",
          "ticks": 426752,
          "time": 204.0912765,
          "velocity": 0.5039370078740157
        },
        {
          "duration": 0.5952374999999961,
          "durationTicks": 1280,
          "midi": 79,
          "name": "G5",
          "ticks": 426752,
          "time": 204.0912765,
          "velocity": 0.5039370078740157
        },
        {
          "duration": 0.5952374999999961,
          "durationTicks": 1280,
          "midi": 84,
          "name": "C6",
          "ticks": 426752,
          "time": 204.0912765,
          "velocity": 0.5039370078740157
        },
        {
          "duration": 0.23809499999998707,
          "durationTicks": 512,
          "midi": 46,
          "name": "A#2",
          "ticks": 427008,
          "time": 204.210324,
          "velocity": 0.5039370078740157
        },
        {
          "duration": 0.23809499999998707,
          "durationTicks": 512,
          "midi": 46,
          "name": "A#2",
          "ticks": 427520,
          "time": 204.448419,
          "velocity": 0.5039370078740157
        },
        {
          "duration": 0.357142500000009,
          "durationTicks": 768,
          "midi": 75,
          "name": "D#5",
          "ticks": 428032,
          "time": 204.686514,
          "velocity": 0.5039370078740157
        },
        {
          "duration": 1.9047600000000102,
          "durationTicks": 4096,
          "midi": 67,
          "name": "G4",
          "ticks": 428032,
          "time": 204.686514,
          "velocity": 0.5039370078740157
        },
        {
          "duration": 1.9047600000000102,
          "durationTicks": 4096,
          "midi": 72,
          "name": "C5",
          "ticks": 428032,
          "time": 204.686514,
          "velocity": 0.5039370078740157
        },
        {
          "duration": 0.2380950000000155,
          "durationTicks": 512,
          "midi": 44,
          "name": "G#2",
          "ticks": 428032,
          "time": 204.686514,
          "velocity": 0.5039370078740157
        },
        {
          "duration": 0.2380950000000155,
          "durationTicks": 512,
          "midi": 44,
          "name": "G#2",
          "ticks": 428544,
          "time": 204.924609,
          "velocity": 0.5039370078740157
        },
        {
          "duration": 0.357142500000009,
          "durationTicks": 768,
          "midi": 75,
          "name": "D#5",
          "ticks": 428800,
          "time": 205.0436565,
          "velocity": 0.5039370078740157
        },
        {
          "duration": 0.23809499999998707,
          "durationTicks": 512,
          "midi": 44,
          "name": "G#2",
          "ticks": 429056,
          "time": 205.16270400000002,
          "velocity": 0.5039370078740157
        },
        {
          "duration": 0.23809499999998707,
          "durationTicks": 512,
          "midi": 74,
          "name": "D5",
          "ticks": 429568,
          "time": 205.400799,
          "velocity": 0.5039370078740157
        },
        {
          "duration": 0.23809499999998707,
          "durationTicks": 512,
          "midi": 44,
          "name": "G#2",
          "ticks": 429568,
          "time": 205.400799,
          "velocity": 0.5039370078740157
        },
        {
          "duration": 0.357142500000009,
          "durationTicks": 768,
          "midi": 75,
          "name": "D#5",
          "ticks": 430080,
          "time": 205.638894,
          "velocity": 0.5039370078740157
        },
        {
          "duration": 0.2380950000000155,
          "durationTicks": 512,
          "midi": 44,
          "name": "G#2",
          "ticks": 430080,
          "time": 205.638894,
          "velocity": 0.5039370078740157
        },
        {
          "duration": 0.2380950000000155,
          "durationTicks": 512,
          "midi": 44,
          "name": "G#2",
          "ticks": 430592,
          "time": 205.876989,
          "velocity": 0.5039370078740157
        },
        {
          "duration": 0.357142500000009,
          "durationTicks": 768,
          "midi": 75,
          "name": "D#5",
          "ticks": 430848,
          "time": 205.9960365,
          "velocity": 0.5039370078740157
        },
        {
          "duration": 0.23809499999998707,
          "durationTicks": 512,
          "midi": 44,
          "name": "G#2",
          "ticks": 431104,
          "time": 206.11508400000002,
          "velocity": 0.5039370078740157
        },
        {
          "duration": 0.23809499999998707,
          "durationTicks": 512,
          "midi": 74,
          "name": "D5",
          "ticks": 431616,
          "time": 206.353179,
          "velocity": 0.5039370078740157
        },
        {
          "duration": 0.23809499999998707,
          "durationTicks": 512,
          "midi": 44,
          "name": "G#2",
          "ticks": 431616,
          "time": 206.353179,
          "velocity": 0.5039370078740157
        },
        {
          "duration": 0.357142500000009,
          "durationTicks": 768,
          "midi": 77,
          "name": "F5",
          "ticks": 432128,
          "time": 206.591274,
          "velocity": 0.5039370078740157
        },
        {
          "duration": 0.9523800000000051,
          "durationTicks": 2048,
          "midi": 70,
          "name": "A#4",
          "ticks": 432128,
          "time": 206.591274,
          "velocity": 0.5039370078740157
        },
        {
          "duration": 0.9523800000000051,
          "durationTicks": 2048,
          "midi": 74,
          "name": "D5",
          "ticks": 432128,
          "time": 206.591274,
          "velocity": 0.5039370078740157
        },
        {
          "duration": 0.23809499999998707,
          "durationTicks": 512,
          "midi": 43,
          "name": "G2",
          "ticks": 432128,
          "time": 206.591274,
          "velocity": 0.5039370078740157
        },
        {
          "duration": 0.2380950000000155,
          "durationTicks": 512,
          "midi": 43,
          "name": "G2",
          "ticks": 432640,
          "time": 206.82936899999999,
          "velocity": 0.5039370078740157
        },
        {
          "duration": 0.357142500000009,
          "durationTicks": 768,
          "midi": 77,
          "name": "F5",
          "ticks": 432896,
          "time": 206.9484165,
          "velocity": 0.5039370078740157
        },
        {
          "duration": 0.2380950000000155,
          "durationTicks": 512,
          "midi": 43,
          "name": "G2",
          "ticks": 433152,
          "time": 207.067464,
          "velocity": 0.5039370078740157
        },
        {
          "duration": 0.23809499999998707,
          "durationTicks": 512,
          "midi": 75,
          "name": "D#5",
          "ticks": 433664,
          "time": 207.30555900000002,
          "velocity": 0.5039370078740157
        },
        {
          "duration": 0.23809499999998707,
          "durationTicks": 512,
          "midi": 43,
          "name": "G2",
          "ticks": 433664,
          "time": 207.30555900000002,
          "velocity": 0.5039370078740157
        },
        {
          "duration": 0.357142500000009,
          "durationTicks": 768,
          "midi": 74,
          "name": "D5",
          "ticks": 434176,
          "time": 207.543654,
          "velocity": 0.5039370078740157
        },
        {
          "duration": 0.9523800000000051,
          "durationTicks": 2048,
          "midi": 67,
          "name": "G4",
          "ticks": 434176,
          "time": 207.543654,
          "velocity": 0.5039370078740157
        },
        {
          "duration": 0.9523800000000051,
          "durationTicks": 2048,
          "midi": 70,
          "name": "A#4",
          "ticks": 434176,
          "time": 207.543654,
          "velocity": 0.5039370078740157
        },
        {
          "duration": 0.23809499999998707,
          "durationTicks": 512,
          "midi": 48,
          "name": "C3",
          "ticks": 434176,
          "time": 207.543654,
          "velocity": 0.5039370078740157
        },
        {
          "duration": 0.2380950000000155,
          "durationTicks": 512,
          "midi": 48,
          "name": "C3",
          "ticks": 434688,
          "time": 207.781749,
          "velocity": 0.5039370078740157
        },
        {
          "duration": 0.357142500000009,
          "durationTicks": 768,
          "midi": 72,
          "name": "C5",
          "ticks": 434944,
          "time": 207.9007965,
          "velocity": 0.5039370078740157
        },
        {
          "duration": 0.2380950000000155,
          "durationTicks": 512,
          "midi": 48,
          "name": "C3",
          "ticks": 435200,
          "time": 208.019844,
          "velocity": 0.5039370078740157
        },
        {
          "duration": 0.23809499999998707,
          "durationTicks": 512,
          "midi": 74,
          "name": "D5",
          "ticks": 435712,
          "time": 208.25793900000002,
          "velocity": 0.5039370078740157
        },
        {
          "duration": 0.23809499999998707,
          "durationTicks": 512,
          "midi": 48,
          "name": "C3",
          "ticks": 435712,
          "time": 208.25793900000002,
          "velocity": 0.5039370078740157
        },
        {
          "duration": 0.357142500000009,
          "durationTicks": 768,
          "midi": 75,
          "name": "D#5",
          "ticks": 436224,
          "time": 208.496034,
          "velocity": 0.5039370078740157
        },
        {
          "duration": 0.9523800000000051,
          "durationTicks": 2048,
          "midi": 68,
          "name": "G#4",
          "ticks": 436224,
          "time": 208.496034,
          "velocity": 0.5039370078740157
        },
        {
          "duration": 0.9523800000000051,
          "durationTicks": 2048,
          "midi": 72,
          "name": "C5",
          "ticks": 436224,
          "time": 208.496034,
          "velocity": 0.5039370078740157
        },
        {
          "duration": 0.23809499999998707,
          "durationTicks": 512,
          "midi": 41,
          "name": "F2",
          "ticks": 436224,
          "time": 208.496034,
          "velocity": 0.5039370078740157
        },
        {
          "duration": 0.2380950000000155,
          "durationTicks": 512,
          "midi": 41,
          "name": "F2",
          "ticks": 436736,
          "time": 208.734129,
          "velocity": 0.5039370078740157
        },
        {
          "duration": 0.357142500000009,
          "durationTicks": 768,
          "midi": 75,
          "name": "D#5",
          "ticks": 436992,
          "time": 208.85317650000002,
          "velocity": 0.5039370078740157
        },
        {
          "duration": 0.2380950000000155,
          "durationTicks": 512,
          "midi": 41,
          "name": "F2",
          "ticks": 437248,
          "time": 208.972224,
          "velocity": 0.5039370078740157
        },
        {
          "duration": 0.23809499999998707,
          "durationTicks": 512,
          "midi": 74,
          "name": "D5",
          "ticks": 437760,
          "time": 209.21031900000003,
          "velocity": 0.5039370078740157
        },
        {
          "duration": 0.23809499999998707,
          "durationTicks": 512,
          "midi": 41,
          "name": "F2",
          "ticks": 437760,
          "time": 209.21031900000003,
          "velocity": 0.5039370078740157
        },
        {
          "duration": 0.357142500000009,
          "durationTicks": 768,
          "midi": 77,
          "name": "F5",
          "ticks": 438272,
          "time": 209.448414,
          "velocity": 0.5039370078740157
        },
        {
          "duration": 0.9523800000000051,
          "durationTicks": 2048,
          "midi": 68,
          "name": "G#4",
          "ticks": 438272,
          "time": 209.448414,
          "velocity": 0.5039370078740157
        },
        {
          "duration": 0.9523800000000051,
          "durationTicks": 2048,
          "midi": 72,
          "name": "C5",
          "ticks": 438272,
          "time": 209.448414,
          "velocity": 0.5039370078740157
        },
        {
          "duration": 0.23809499999998707,
          "durationTicks": 512,
          "midi": 46,
          "name": "A#2",
          "ticks": 438272,
          "time": 209.448414,
          "velocity": 0.5039370078740157
        },
        {
          "duration": 0.23809499999998707,
          "durationTicks": 512,
          "midi": 46,
          "name": "A#2",
          "ticks": 438784,
          "time": 209.686509,
          "velocity": 0.5039370078740157
        },
        {
          "duration": 0.3571424999999806,
          "durationTicks": 768,
          "midi": 74,
          "name": "D5",
          "ticks": 439040,
          "time": 209.80555650000002,
          "velocity": 0.5039370078740157
        },
        {
          "duration": 0.2380950000000155,
          "durationTicks": 512,
          "midi": 46,
          "name": "A#2",
          "ticks": 439296,
          "time": 209.924604,
          "velocity": 0.5039370078740157
        },
        {
          "duration": 0.2380950000000155,
          "durationTicks": 512,
          "midi": 72,
          "name": "C5",
          "ticks": 439808,
          "time": 210.162699,
          "velocity": 0.5039370078740157
        },
        {
          "duration": 0.2380950000000155,
          "durationTicks": 512,
          "midi": 46,
          "name": "A#2",
          "ticks": 439808,
          "time": 210.162699,
          "velocity": 0.5039370078740157
        },
        {
          "duration": 0.47618999999997413,
          "durationTicks": 1024,
          "midi": 73,
          "name": "C#5",
          "ticks": 440320,
          "time": 210.40079400000002,
          "velocity": 0.5039370078740157
        },
        {
          "duration": 0.47618999999997413,
          "durationTicks": 1024,
          "midi": 77,
          "name": "F5",
          "ticks": 440320,
          "time": 210.40079400000002,
          "velocity": 0.5039370078740157
        },
        {
          "duration": 0.9523800000000051,
          "durationTicks": 2048,
          "midi": 70,
          "name": "A#4",
          "ticks": 440320,
          "time": 210.40079400000002,
          "velocity": 0.5039370078740157
        },
        {
          "duration": 0.23809499999998707,
          "durationTicks": 512,
          "midi": 46,
          "name": "A#2",
          "ticks": 440320,
          "time": 210.40079400000002,
          "velocity": 0.5039370078740157
        },
        {
          "duration": 0.23809499999998707,
          "durationTicks": 512,
          "midi": 46,
          "name": "A#2",
          "ticks": 440832,
          "time": 210.638889,
          "velocity": 0.5039370078740157
        },
        {
          "duration": 0.476190000000031,
          "durationTicks": 1024,
          "midi": 75,
          "name": "D#5",
          "ticks": 441344,
          "time": 210.876984,
          "velocity": 0.5039370078740157
        },
        {
          "duration": 0.476190000000031,
          "durationTicks": 1024,
          "midi": 79,
          "name": "G5",
          "ticks": 441344,
          "time": 210.876984,
          "velocity": 0.5039370078740157
        },
        {
          "duration": 0.2380950000000155,
          "durationTicks": 512,
          "midi": 53,
          "name": "F3",
          "ticks": 441344,
          "time": 210.876984,
          "velocity": 0.5039370078740157
        },
        {
          "duration": 0.2380950000000155,
          "durationTicks": 512,
          "midi": 52,
          "name": "E3",
          "ticks": 441856,
          "time": 211.115079,
          "velocity": 0.5039370078740157
        },
        {
          "duration": 0.47618999999997413,
          "durationTicks": 1024,
          "midi": 77,
          "name": "F5",
          "ticks": 442368,
          "time": 211.35317400000002,
          "velocity": 0.5039370078740157
        },
        {
          "duration": 0.47618999999997413,
          "durationTicks": 1024,
          "midi": 80,
          "name": "G#5",
          "ticks": 442368,
          "time": 211.35317400000002,
          "velocity": 0.5039370078740157
        },
        {
          "duration": 0.23809499999998707,
          "durationTicks": 512,
          "midi": 51,
          "name": "D#3",
          "ticks": 442368,
          "time": 211.35317400000002,
          "velocity": 0.5039370078740157
        },
        {
          "duration": 0.23809499999998707,
          "durationTicks": 512,
          "midi": 51,
          "name": "D#3",
          "ticks": 442880,
          "time": 211.591269,
          "velocity": 0.5039370078740157
        },
        {
          "duration": 0.47619000000000256,
          "durationTicks": 1024,
          "midi": 79,
          "name": "G5",
          "ticks": 443392,
          "time": 211.829364,
          "velocity": 0.5039370078740157
        },
        {
          "duration": 0.47619000000000256,
          "durationTicks": 1024,
          "midi": 82,
          "name": "A#5",
          "ticks": 443392,
          "time": 211.829364,
          "velocity": 0.5039370078740157
        },
        {
          "duration": 0.23809499999998707,
          "durationTicks": 512,
          "midi": 46,
          "name": "A#2",
          "ticks": 443392,
          "time": 211.829364,
          "velocity": 0.5039370078740157
        },
        {
          "duration": 0.2380950000000155,
          "durationTicks": 512,
          "midi": 45,
          "name": "A2",
          "ticks": 443904,
          "time": 212.06745899999999,
          "velocity": 0.5039370078740157
        },
        {
          "duration": 0.357142500000009,
          "durationTicks": 768,
          "midi": 72,
          "name": "C5",
          "ticks": 444416,
          "time": 212.305554,
          "velocity": 0.5039370078740157
        },
        {
          "duration": 0.357142500000009,
          "durationTicks": 768,
          "midi": 75,
          "name": "D#5",
          "ticks": 444416,
          "time": 212.305554,
          "velocity": 0.5039370078740157
        },
        {
          "duration": 0.2380950000000155,
          "durationTicks": 512,
          "midi": 44,
          "name": "G#2",
          "ticks": 444416,
          "time": 212.305554,
          "velocity": 0.5039370078740157
        },
        {
          "duration": 0.23809499999998707,
          "durationTicks": 512,
          "midi": 44,
          "name": "G#2",
          "ticks": 444928,
          "time": 212.54364900000002,
          "velocity": 0.5039370078740157
        },
        {
          "duration": 0.3571424999999806,
          "durationTicks": 768,
          "midi": 72,
          "name": "C5",
          "ticks": 445184,
          "time": 212.6626965,
          "velocity": 0.5039370078740157
        },
        {
          "duration": 0.3571424999999806,
          "durationTicks": 768,
          "midi": 75,
          "name": "D#5",
          "ticks": 445184,
          "time": 212.6626965,
          "velocity": 0.5039370078740157
        },
        {
          "duration": 0.23809499999998707,
          "durationTicks": 512,
          "midi": 44,
          "name": "G#2",
          "ticks": 445440,
          "time": 212.781744,
          "velocity": 0.5039370078740157
        },
        {
          "duration": 0.2380950000000155,
          "durationTicks": 512,
          "midi": 70,
          "name": "A#4",
          "ticks": 445952,
          "time": 213.019839,
          "velocity": 0.5039370078740157
        },
        {
          "duration": 0.2380950000000155,
          "durationTicks": 512,
          "midi": 74,
          "name": "D5",
          "ticks": 445952,
          "time": 213.019839,
          "velocity": 0.5039370078740157
        },
        {
          "duration": 0.2380950000000155,
          "durationTicks": 512,
          "midi": 44,
          "name": "G#2",
          "ticks": 445952,
          "time": 213.019839,
          "velocity": 0.5039370078740157
        },
        {
          "duration": 0.3571424999999806,
          "durationTicks": 768,
          "midi": 72,
          "name": "C5",
          "ticks": 446464,
          "time": 213.257934,
          "velocity": 0.5039370078740157
        },
        {
          "duration": 0.3571424999999806,
          "durationTicks": 768,
          "midi": 75,
          "name": "D#5",
          "ticks": 446464,
          "time": 213.257934,
          "velocity": 0.5039370078740157
        },
        {
          "duration": 0.2380950000000155,
          "durationTicks": 512,
          "midi": 44,
          "name": "G#2",
          "ticks": 446464,
          "time": 213.257934,
          "velocity": 0.5039370078740157
        },
        {
          "duration": 0.23809499999998707,
          "durationTicks": 512,
          "midi": 44,
          "name": "G#2",
          "ticks": 446976,
          "time": 213.49602900000002,
          "velocity": 0.5039370078740157
        },
        {
          "duration": 0.357142500000009,
          "durationTicks": 768,
          "midi": 72,
          "name": "C5",
          "ticks": 447232,
          "time": 213.6150765,
          "velocity": 0.5039370078740157
        },
        {
          "duration": 0.357142500000009,
          "durationTicks": 768,
          "midi": 75,
          "name": "D#5",
          "ticks": 447232,
          "time": 213.6150765,
          "velocity": 0.5039370078740157
        },
        {
          "duration": 0.23809499999998707,
          "durationTicks": 512,
          "midi": 44,
          "name": "G#2",
          "ticks": 447488,
          "time": 213.734124,
          "velocity": 0.5039370078740157
        },
        {
          "duration": 0.2380950000000155,
          "durationTicks": 512,
          "midi": 70,
          "name": "A#4",
          "ticks": 448000,
          "time": 213.972219,
          "velocity": 0.5039370078740157
        },
        {
          "duration": 0.2380950000000155,
          "durationTicks": 512,
          "midi": 74,
          "name": "D5",
          "ticks": 448000,
          "time": 213.972219,
          "velocity": 0.5039370078740157
        },
        {
          "duration": 0.2380950000000155,
          "durationTicks": 512,
          "midi": 44,
          "name": "G#2",
          "ticks": 448000,
          "time": 213.972219,
          "velocity": 0.5039370078740157
        },
        {
          "duration": 0.3571424999999806,
          "durationTicks": 768,
          "midi": 74,
          "name": "D5",
          "ticks": 448512,
          "time": 214.210314,
          "velocity": 0.5039370078740157
        },
        {
          "duration": 0.3571424999999806,
          "durationTicks": 768,
          "midi": 77,
          "name": "F5",
          "ticks": 448512,
          "time": 214.210314,
          "velocity": 0.5039370078740157
        },
        {
          "duration": 0.2380950000000155,
          "durationTicks": 512,
          "midi": 43,
          "name": "G2",
          "ticks": 448512,
          "time": 214.210314,
          "velocity": 0.5039370078740157
        },
        {
          "duration": 0.23809499999998707,
          "durationTicks": 512,
          "midi": 43,
          "name": "G2",
          "ticks": 449024,
          "time": 214.44840900000003,
          "velocity": 0.5039370078740157
        },
        {
          "duration": 0.357142500000009,
          "durationTicks": 768,
          "midi": 74,
          "name": "D5",
          "ticks": 449280,
          "time": 214.5674565,
          "velocity": 0.5039370078740157
        },
        {
          "duration": 0.357142500000009,
          "durationTicks": 768,
          "midi": 77,
          "name": "F5",
          "ticks": 449280,
          "time": 214.5674565,
          "velocity": 0.5039370078740157
        },
        {
          "duration": 0.23809499999998707,
          "durationTicks": 512,
          "midi": 43,
          "name": "G2",
          "ticks": 449536,
          "time": 214.686504,
          "velocity": 0.5039370078740157
        },
        {
          "duration": 0.23809499999998707,
          "durationTicks": 512,
          "midi": 72,
          "name": "C5",
          "ticks": 450048,
          "time": 214.924599,
          "velocity": 0.5039370078740157
        },
        {
          "duration": 0.23809499999998707,
          "durationTicks": 512,
          "midi": 75,
          "name": "D#5",
          "ticks": 450048,
          "time": 214.924599,
          "velocity": 0.5039370078740157
        },
        {
          "duration": 0.23809499999998707,
          "durationTicks": 512,
          "midi": 43,
          "name": "G2",
          "ticks": 450048,
          "time": 214.924599,
          "velocity": 0.5039370078740157
        },
        {
          "duration": 0.357142500000009,
          "durationTicks": 768,
          "midi": 70,
          "name": "A#4",
          "ticks": 450560,
          "time": 215.162694,
          "velocity": 0.5039370078740157
        },
        {
          "duration": 0.357142500000009,
          "durationTicks": 768,
          "midi": 74,
          "name": "D5",
          "ticks": 450560,
          "time": 215.162694,
          "velocity": 0.5039370078740157
        },
        {
          "duration": 0.2380950000000155,
          "durationTicks": 512,
          "midi": 48,
          "name": "C3",
          "ticks": 450560,
          "time": 215.162694,
          "velocity": 0.5039370078740157
        },
        {
          "duration": 0.2380950000000155,
          "durationTicks": 512,
          "midi": 48,
          "name": "C3",
          "ticks": 451072,
          "time": 215.400789,
          "velocity": 0.5039370078740157
        },
        {
          "duration": 0.357142500000009,
          "durationTicks": 768,
          "midi": 72,
          "name": "C5",
          "ticks": 451328,
          "time": 215.5198365,
          "velocity": 0.5039370078740157
        },
        {
          "duration": 0.357142500000009,
          "durationTicks": 768,
          "midi": 75,
          "name": "D#5",
          "ticks": 451328,
          "time": 215.5198365,
          "velocity": 0.5039370078740157
        },
        {
          "duration": 0.23809499999998707,
          "durationTicks": 512,
          "midi": 48,
          "name": "C3",
          "ticks": 451584,
          "time": 215.63888400000002,
          "velocity": 0.5039370078740157
        },
        {
          "duration": 0.23809499999998707,
          "durationTicks": 512,
          "midi": 74,
          "name": "D5",
          "ticks": 452096,
          "time": 215.876979,
          "velocity": 0.5039370078740157
        },
        {
          "duration": 0.23809499999998707,
          "durationTicks": 512,
          "midi": 77,
          "name": "F5",
          "ticks": 452096,
          "time": 215.876979,
          "velocity": 0.5039370078740157
        },
        {
          "duration": 0.23809499999998707,
          "durationTicks": 512,
          "midi": 48,
          "name": "C3",
          "ticks": 452096,
          "time": 215.876979,
          "velocity": 0.5039370078740157
        },
        {
          "duration": 0.357142500000009,
          "durationTicks": 768,
          "midi": 72,
          "name": "C5",
          "ticks": 452608,
          "time": 216.115074,
          "velocity": 0.5039370078740157
        },
        {
          "duration": 0.357142500000009,
          "durationTicks": 768,
          "midi": 74,
          "name": "D5",
          "ticks": 452608,
          "time": 216.115074,
          "velocity": 0.5039370078740157
        },
        {
          "duration": 0.357142500000009,
          "durationTicks": 768,
          "midi": 79,
          "name": "G5",
          "ticks": 452608,
          "time": 216.115074,
          "velocity": 0.5039370078740157
        },
        {
          "duration": 0.2380950000000155,
          "durationTicks": 512,
          "midi": 50,
          "name": "D3",
          "ticks": 452608,
          "time": 216.115074,
          "velocity": 0.5039370078740157
        },
        {
          "duration": 0.2380950000000155,
          "durationTicks": 512,
          "midi": 50,
          "name": "D3",
          "ticks": 453120,
          "time": 216.353169,
          "velocity": 0.5039370078740157
        },
        {
          "duration": 0.357142500000009,
          "durationTicks": 768,
          "midi": 72,
          "name": "C5",
          "ticks": 453376,
          "time": 216.4722165,
          "velocity": 0.5039370078740157
        },
        {
          "duration": 0.357142500000009,
          "durationTicks": 768,
          "midi": 74,
          "name": "D5",
          "ticks": 453376,
          "time": 216.4722165,
          "velocity": 0.5039370078740157
        },
        {
          "duration": 0.357142500000009,
          "durationTicks": 768,
          "midi": 80,
          "name": "G#5",
          "ticks": 453376,
          "time": 216.4722165,
          "velocity": 0.5039370078740157
        },
        {
          "duration": 0.23809499999998707,
          "durationTicks": 512,
          "midi": 50,
          "name": "D3",
          "ticks": 453632,
          "time": 216.59126400000002,
          "velocity": 0.5039370078740157
        },
        {
          "duration": 0.23809499999998707,
          "durationTicks": 512,
          "midi": 72,
          "name": "C5",
          "ticks": 454144,
          "time": 216.829359,
          "velocity": 0.5039370078740157
        },
        {
          "duration": 0.23809499999998707,
          "durationTicks": 512,
          "midi": 74,
          "name": "D5",
          "ticks": 454144,
          "time": 216.829359,
          "velocity": 0.5039370078740157
        },
        {
          "duration": 0.23809499999998707,
          "durationTicks": 512,
          "midi": 79,
          "name": "G5",
          "ticks": 454144,
          "time": 216.829359,
          "velocity": 0.5039370078740157
        },
        {
          "duration": 0.23809499999998707,
          "durationTicks": 512,
          "midi": 50,
          "name": "D3",
          "ticks": 454144,
          "time": 216.829359,
          "velocity": 0.5039370078740157
        },
        {
          "duration": 0.357142500000009,
          "durationTicks": 768,
          "midi": 72,
          "name": "C5",
          "ticks": 454656,
          "time": 217.067454,
          "velocity": 0.5039370078740157
        },
        {
          "duration": 0.357142500000009,
          "durationTicks": 768,
          "midi": 74,
          "name": "D5",
          "ticks": 454656,
          "time": 217.067454,
          "velocity": 0.5039370078740157
        },
        {
          "duration": 0.357142500000009,
          "durationTicks": 768,
          "midi": 77,
          "name": "F5",
          "ticks": 454656,
          "time": 217.067454,
          "velocity": 0.5039370078740157
        },
        {
          "duration": 0.23809499999998707,
          "durationTicks": 512,
          "midi": 50,
          "name": "D3",
          "ticks": 454656,
          "time": 217.067454,
          "velocity": 0.5039370078740157
        },
        {
          "duration": 0.2380950000000155,
          "durationTicks": 512,
          "midi": 50,
          "name": "D3",
          "ticks": 455168,
          "time": 217.30554899999998,
          "velocity": 0.5039370078740157
        },
        {
          "duration": 0.357142500000009,
          "durationTicks": 768,
          "midi": 72,
          "name": "C5",
          "ticks": 455424,
          "time": 217.4245965,
          "velocity": 0.5039370078740157
        },
        {
          "duration": 0.357142500000009,
          "durationTicks": 768,
          "midi": 75,
          "name": "D#5",
          "ticks": 455424,
          "time": 217.4245965,
          "velocity": 0.5039370078740157
        },
        {
          "duration": 0.2380950000000155,
          "durationTicks": 512,
          "midi": 50,
          "name": "D3",
          "ticks": 455680,
          "time": 217.543644,
          "velocity": 0.5039370078740157
        },
        {
          "duration": 0.23809499999998707,
          "durationTicks": 512,
          "midi": 72,
          "name": "C5",
          "ticks": 456192,
          "time": 217.78173900000002,
          "velocity": 0.5039370078740157
        },
        {
          "duration": 0.23809499999998707,
          "durationTicks": 512,
          "midi": 74,
          "name": "D5",
          "ticks": 456192,
          "time": 217.78173900000002,
          "velocity": 0.5039370078740157
        },
        {
          "duration": 0.23809499999998707,
          "durationTicks": 512,
          "midi": 77,
          "name": "F5",
          "ticks": 456192,
          "time": 217.78173900000002,
          "velocity": 0.5039370078740157
        },
        {
          "duration": 0.23809499999998707,
          "durationTicks": 512,
          "midi": 50,
          "name": "D3",
          "ticks": 456192,
          "time": 217.78173900000002,
          "velocity": 0.5039370078740157
        },
        {
          "duration": 0.9523800000000051,
          "durationTicks": 2048,
          "midi": 69,
          "name": "A4",
          "ticks": 456704,
          "time": 218.019834,
          "velocity": 0.5039370078740157
        },
        {
          "duration": 0.9523800000000051,
          "durationTicks": 2048,
          "midi": 72,
          "name": "C5",
          "ticks": 456704,
          "time": 218.019834,
          "velocity": 0.5039370078740157
        },
        {
          "duration": 0.9523800000000051,
          "durationTicks": 2048,
          "midi": 77,
          "name": "F5",
          "ticks": 456704,
          "time": 218.019834,
          "velocity": 0.5039370078740157
        },
        {
          "duration": 0.9523800000000051,
          "durationTicks": 2048,
          "midi": 79,
          "name": "G5",
          "ticks": 456704,
          "time": 218.019834,
          "velocity": 0.5039370078740157
        },
        {
          "duration": 0.9523800000000051,
          "durationTicks": 2048,
          "midi": 43,
          "name": "G2",
          "ticks": 456704,
          "time": 218.019834,
          "velocity": 0.5039370078740157
        },
        {
          "duration": 0.357142500000009,
          "durationTicks": 768,
          "midi": 71,
          "name": "B4",
          "ticks": 458752,
          "time": 218.972214,
          "velocity": 0.5039370078740157
        },
        {
          "duration": 0.357142500000009,
          "durationTicks": 768,
          "midi": 74,
          "name": "D5",
          "ticks": 458752,
          "time": 218.972214,
          "velocity": 0.5039370078740157
        },
        {
          "duration": 0.357142500000009,
          "durationTicks": 768,
          "midi": 79,
          "name": "G5",
          "ticks": 458752,
          "time": 218.972214,
          "velocity": 0.5039370078740157
        },
        {
          "duration": 0.357142500000009,
          "durationTicks": 768,
          "midi": 43,
          "name": "G2",
          "ticks": 458752,
          "time": 218.972214,
          "velocity": 0.5039370078740157
        },
        {
          "duration": 0.357142500000009,
          "durationTicks": 768,
          "midi": 72,
          "name": "C5",
          "ticks": 459520,
          "time": 219.32935650000002,
          "velocity": 0.5039370078740157
        },
        {
          "duration": 0.357142500000009,
          "durationTicks": 768,
          "midi": 77,
          "name": "F5",
          "ticks": 459520,
          "time": 219.32935650000002,
          "velocity": 0.5039370078740157
        },
        {
          "duration": 0.357142500000009,
          "durationTicks": 768,
          "midi": 81,
          "name": "A5",
          "ticks": 459520,
          "time": 219.32935650000002,
          "velocity": 0.5039370078740157
        },
        {
          "duration": 0.357142500000009,
          "durationTicks": 768,
          "midi": 43,
          "name": "G2",
          "ticks": 459520,
          "time": 219.32935650000002,
          "velocity": 0.5039370078740157
        },
        {
          "duration": 0.23809499999998707,
          "durationTicks": 512,
          "midi": 74,
          "name": "D5",
          "ticks": 460288,
          "time": 219.68649900000003,
          "velocity": 0.5039370078740157
        },
        {
          "duration": 0.23809499999998707,
          "durationTicks": 512,
          "midi": 79,
          "name": "G5",
          "ticks": 460288,
          "time": 219.68649900000003,
          "velocity": 0.5039370078740157
        },
        {
          "duration": 0.23809499999998707,
          "durationTicks": 512,
          "midi": 83,
          "name": "B5",
          "ticks": 460288,
          "time": 219.68649900000003,
          "velocity": 0.5039370078740157
        },
        {
          "duration": 0.23809499999998707,
          "durationTicks": 512,
          "midi": 43,
          "name": "G2",
          "ticks": 460288,
          "time": 219.68649900000003,
          "velocity": 0.5039370078740157
        },
        {
          "duration": 0.47618999999997413,
          "durationTicks": 1024,
          "midi": 72,
          "name": "C5",
          "ticks": 460800,
          "time": 219.924594,
          "velocity": 0.5039370078740157
        },
        {
          "duration": 0.23809499999998707,
          "durationTicks": 512,
          "midi": 48,
          "name": "C3",
          "ticks": 460800,
          "time": 219.924594,
          "velocity": 0.5039370078740157
        },
        {
          "duration": 0.23809499999998707,
          "durationTicks": 512,
          "midi": 48,
          "name": "C3",
          "ticks": 461312,
          "time": 220.162689,
          "velocity": 0.5039370078740157
        },
        {
          "duration": 0.476190000000031,
          "durationTicks": 1024,
          "midi": 67,
          "name": "G4",
          "ticks": 461824,
          "time": 220.400784,
          "velocity": 0.5039370078740157
        },
        {
          "duration": 0.476190000000031,
          "durationTicks": 1024,
          "midi": 72,
          "name": "C5",
          "ticks": 461824,
          "time": 220.400784,
          "velocity": 0.5039370078740157
        },
        {
          "duration": 0.476190000000031,
          "durationTicks": 1024,
          "midi": 75,
          "name": "D#5",
          "ticks": 461824,
          "time": 220.400784,
          "velocity": 0.5039370078740157
        },
        {
          "duration": 0.2380950000000155,
          "durationTicks": 512,
          "midi": 48,
          "name": "C3",
          "ticks": 461824,
          "time": 220.400784,
          "velocity": 0.5039370078740157
        },
        {
          "duration": 0.2380950000000155,
          "durationTicks": 512,
          "midi": 51,
          "name": "D#3",
          "ticks": 462336,
          "time": 220.638879,
          "velocity": 0.5039370078740157
        },
        {
          "duration": 0.357142500000009,
          "durationTicks": 768,
          "midi": 77,
          "name": "F5",
          "ticks": 462848,
          "time": 220.87697400000002,
          "velocity": 0.5039370078740157
        },
        {
          "duration": 0.9523800000000051,
          "durationTicks": 2048,
          "midi": 68,
          "name": "G#4",
          "ticks": 462848,
          "time": 220.87697400000002,
          "velocity": 0.5039370078740157
        },
        {
          "duration": 0.9523800000000051,
          "durationTicks": 2048,
          "midi": 72,
          "name": "C5",
          "ticks": 462848,
          "time": 220.87697400000002,
          "velocity": 0.5039370078740157
        },
        {
          "duration": 0.11904749999999353,
          "durationTicks": 256,
          "midi": 53,
          "name": "F3",
          "ticks": 462848,
          "time": 220.87697400000002,
          "velocity": 0.5039370078740157
        },
        {
          "duration": 0.11904749999999353,
          "durationTicks": 256,
          "midi": 53,
          "name": "F3",
          "ticks": 463104,
          "time": 220.9960215,
          "velocity": 0.5039370078740157
        },
        {
          "duration": 0.3571424999999806,
          "durationTicks": 768,
          "midi": 75,
          "name": "D#5",
          "ticks": 463616,
          "time": 221.23411650000003,
          "velocity": 0.5039370078740157
        },
        {
          "duration": 0.23809499999998707,
          "durationTicks": 512,
          "midi": 53,
          "name": "F3",
          "ticks": 463616,
          "time": 221.23411650000003,
          "velocity": 0.5039370078740157
        },
        {
          "duration": 0.11904749999999353,
          "durationTicks": 256,
          "midi": 53,
          "name": "F3",
          "ticks": 464128,
          "time": 221.47221150000001,
          "velocity": 0.5039370078740157
        },
        {
          "duration": 0.2380950000000155,
          "durationTicks": 512,
          "midi": 77,
          "name": "F5",
          "ticks": 464384,
          "time": 221.591259,
          "velocity": 0.5039370078740157
        },
        {
          "duration": 0.2380950000000155,
          "durationTicks": 512,
          "midi": 48,
          "name": "C3",
          "ticks": 464384,
          "time": 221.591259,
          "velocity": 0.5039370078740157
        },
        {
          "duration": 0.23809499999998707,
          "durationTicks": 512,
          "midi": 77,
          "name": "F5",
          "ticks": 464896,
          "time": 221.82935400000002,
          "velocity": 0.5039370078740157
        },
        {
          "duration": 0.23809499999998707,
          "durationTicks": 512,
          "midi": 46,
          "name": "A#2",
          "ticks": 464896,
          "time": 221.82935400000002,
          "velocity": 0.5039370078740157
        },
        {
          "duration": 0.23809499999998707,
          "durationTicks": 512,
          "midi": 77,
          "name": "F5",
          "ticks": 465408,
          "time": 222.067449,
          "velocity": 0.5039370078740157
        },
        {
          "duration": 0.23809499999998707,
          "durationTicks": 512,
          "midi": 46,
          "name": "A#2",
          "ticks": 465408,
          "time": 222.067449,
          "velocity": 0.5039370078740157
        },
        {
          "duration": 0.2380950000000155,
          "durationTicks": 512,
          "midi": 82,
          "name": "A#5",
          "ticks": 465920,
          "time": 222.305544,
          "velocity": 0.5039370078740157
        },
        {
          "duration": 0.2380950000000155,
          "durationTicks": 512,
          "midi": 46,
          "name": "A#2",
          "ticks": 465920,
          "time": 222.305544,
          "velocity": 0.5039370078740157
        },
        {
          "duration": 0.23809499999998707,
          "durationTicks": 512,
          "midi": 80,
          "name": "G#5",
          "ticks": 466432,
          "time": 222.543639,
          "velocity": 0.5039370078740157
        },
        {
          "duration": 0.23809499999998707,
          "durationTicks": 512,
          "midi": 50,
          "name": "D3",
          "ticks": 466432,
          "time": 222.543639,
          "velocity": 0.5039370078740157
        },
        {
          "duration": 0.11904749999999353,
          "durationTicks": 256,
          "midi": 79,
          "name": "G5",
          "ticks": 466944,
          "time": 222.781734,
          "velocity": 0.5039370078740157
        },
        {
          "duration": 0.11904749999999353,
          "durationTicks": 256,
          "midi": 51,
          "name": "D#3",
          "ticks": 466944,
          "time": 222.781734,
          "velocity": 0.5039370078740157
        },
        {
          "duration": 0.2380950000000155,
          "durationTicks": 512,
          "midi": 77,
          "name": "F5",
          "ticks": 467200,
          "time": 222.9007815,
          "velocity": 0.5039370078740157
        },
        {
          "duration": 0.11904750000002196,
          "durationTicks": 256,
          "midi": 51,
          "name": "D#3",
          "ticks": 467200,
          "time": 222.9007815,
          "velocity": 0.5039370078740157
        },
        {
          "duration": 0.5952374999999961,
          "durationTicks": 1280,
          "midi": 79,
          "name": "G5",
          "ticks": 467712,
          "time": 223.1388765,
          "velocity": 0.5039370078740157
        },
        {
          "duration": 0.11904749999999353,
          "durationTicks": 256,
          "midi": 51,
          "name": "D#3",
          "ticks": 467712,
          "time": 223.1388765,
          "velocity": 0.5039370078740157
        },
        {
          "duration": 0.23809499999998707,
          "durationTicks": 512,
          "midi": 51,
          "name": "D#3",
          "ticks": 467968,
          "time": 223.257924,
          "velocity": 0.5039370078740157
        },
        {
          "duration": 0.2380950000000155,
          "durationTicks": 512,
          "midi": 50,
          "name": "D3",
          "ticks": 468480,
          "time": 223.496019,
          "velocity": 0.5039370078740157
        },
        {
          "duration": 0.47619000000000256,
          "durationTicks": 1024,
          "midi": 75,
          "name": "D#5",
          "ticks": 468992,
          "time": 223.734114,
          "velocity": 0.5039370078740157
        },
        {
          "duration": 0.47619000000000256,
          "durationTicks": 1024,
          "midi": 79,
          "name": "G5",
          "ticks": 468992,
          "time": 223.734114,
          "velocity": 0.5039370078740157
        },
        {
          "duration": 0.2380950000000155,
          "durationTicks": 512,
          "midi": 48,
          "name": "C3",
          "ticks": 468992,
          "time": 223.734114,
          "velocity": 0.5039370078740157
        },
        {
          "duration": 0.23809499999998707,
          "durationTicks": 512,
          "midi": 48,
          "name": "C3",
          "ticks": 469504,
          "time": 223.97220900000002,
          "velocity": 0.5039370078740157
        },
        {
          "duration": 0.47619000000000256,
          "durationTicks": 1024,
          "midi": 75,
          "name": "D#5",
          "ticks": 470016,
          "time": 224.210304,
          "velocity": 0.5039370078740157
        },
        {
          "duration": 0.47619000000000256,
          "durationTicks": 1024,
          "midi": 79,
          "name": "G5",
          "ticks": 470016,
          "time": 224.210304,
          "velocity": 0.5039370078740157
        },
        {
          "duration": 0.47619000000000256,
          "durationTicks": 1024,
          "midi": 82,
          "name": "A#5",
          "ticks": 470016,
          "time": 224.210304,
          "velocity": 0.5039370078740157
        },
        {
          "duration": 0.23809499999998707,
          "durationTicks": 512,
          "midi": 48,
          "name": "C3",
          "ticks": 470016,
          "time": 224.210304,
          "velocity": 0.5039370078740157
        },
        {
          "duration": 0.2380950000000155,
          "durationTicks": 512,
          "midi": 51,
          "name": "D#3",
          "ticks": 470528,
          "time": 224.448399,
          "velocity": 0.5039370078740157
        },
        {
          "duration": 0.3571424999999806,
          "durationTicks": 768,
          "midi": 75,
          "name": "D#5",
          "ticks": 471040,
          "time": 224.686494,
          "velocity": 0.5039370078740157
        },
        {
          "duration": 0.3571424999999806,
          "durationTicks": 768,
          "midi": 80,
          "name": "G#5",
          "ticks": 471040,
          "time": 224.686494,
          "velocity": 0.5039370078740157
        },
        {
          "duration": 0.3571424999999806,
          "durationTicks": 768,
          "midi": 84,
          "name": "C6",
          "ticks": 471040,
          "time": 224.686494,
          "velocity": 0.5039370078740157
        },
        {
          "duration": 0.11904749999999353,
          "durationTicks": 256,
          "midi": 53,
          "name": "F3",
          "ticks": 471040,
          "time": 224.686494,
          "velocity": 0.5039370078740157
        },
        {
          "duration": 0.11904750000002196,
          "durationTicks": 256,
          "midi": 53,
          "name": "F3",
          "ticks": 471296,
          "time": 224.8055415,
          "velocity": 0.5039370078740157
        },
        {
          "duration": 0.357142500000009,
          "durationTicks": 768,
          "midi": 77,
          "name": "F5",
          "ticks": 471808,
          "time": 225.0436365,
          "velocity": 0.5039370078740157
        },
        {
          "duration": 0.2380950000000155,
          "durationTicks": 512,
          "midi": 53,
          "name": "F3",
          "ticks": 471808,
          "time": 225.0436365,
          "velocity": 0.5039370078740157
        },
        {
          "duration": 0.11904749999999353,
          "durationTicks": 256,
          "midi": 53,
          "name": "F3",
          "ticks": 472320,
          "time": 225.2817315,
          "velocity": 0.5039370078740157
        },
        {
          "duration": 0.23809499999998707,
          "durationTicks": 512,
          "midi": 75,
          "name": "D#5",
          "ticks": 472576,
          "time": 225.400779,
          "velocity": 0.5039370078740157
        },
        {
          "duration": 0.23809499999998707,
          "durationTicks": 512,
          "midi": 48,
          "name": "C3",
          "ticks": 472576,
          "time": 225.400779,
          "velocity": 0.5039370078740157
        },
        {
          "duration": 0.2380950000000155,
          "durationTicks": 512,
          "midi": 74,
          "name": "D5",
          "ticks": 473088,
          "time": 225.638874,
          "velocity": 0.5039370078740157
        },
        {
          "duration": 0.2380950000000155,
          "durationTicks": 512,
          "midi": 46,
          "name": "A#2",
          "ticks": 473088,
          "time": 225.638874,
          "velocity": 0.5039370078740157
        },
        {
          "duration": 0.2380950000000155,
          "durationTicks": 512,
          "midi": 74,
          "name": "D5",
          "ticks": 473600,
          "time": 225.876969,
          "velocity": 0.5039370078740157
        },
        {
          "duration": 0.2380950000000155,
          "durationTicks": 512,
          "midi": 46,
          "name": "A#2",
          "ticks": 473600,
          "time": 225.876969,
          "velocity": 0.5039370078740157
        },
        {
          "duration": 0.23809499999998707,
          "durationTicks": 512,
          "midi": 72,
          "name": "C5",
          "ticks": 474112,
          "time": 226.11506400000002,
          "velocity": 0.5039370078740157
        },
        {
          "duration": 0.23809499999998707,
          "durationTicks": 512,
          "midi": 46,
          "name": "A#2",
          "ticks": 474112,
          "time": 226.11506400000002,
          "velocity": 0.5039370078740157
        },
        {
          "duration": 0.23809499999998707,
          "durationTicks": 512,
          "midi": 74,
          "name": "D5",
          "ticks": 474624,
          "time": 226.353159,
          "velocity": 0.5039370078740157
        },
        {
          "duration": 0.23809499999998707,
          "durationTicks": 512,
          "midi": 50,
          "name": "D3",
          "ticks": 474624,
          "time": 226.353159,
          "velocity": 0.5039370078740157
        },
        {
          "duration": 0.11904750000002196,
          "durationTicks": 256,
          "midi": 77,
          "name": "F5",
          "ticks": 475136,
          "time": 226.591254,
          "velocity": 0.5039370078740157
        },
        {
          "duration": 0.476190000000031,
          "durationTicks": 1024,
          "midi": 51,
          "name": "D#3",
          "ticks": 475136,
          "time": 226.591254,
          "velocity": 0.5039370078740157
        },
        {
          "duration": 0.23809499999998707,
          "durationTicks": 512,
          "midi": 75,
          "name": "D#5",
          "ticks": 475392,
          "time": 226.7103015,
          "velocity": 0.5039370078740157
        },
        {
          "duration": 0.5952374999999961,
          "durationTicks": 1280,
          "midi": 75,
          "name": "D#5",
          "ticks": 475904,
          "time": 226.9483965,
          "velocity": 0.5039370078740157
        },
        {
          "duration": 0.47618999999997413,
          "durationTicks": 1024,
          "midi": 50,
          "name": "D3",
          "ticks": 476160,
          "time": 227.06744400000002,
          "velocity": 0.5039370078740157
        },
        {
          "duration": 0.47619000000000256,
          "durationTicks": 1024,
          "midi": 72,
          "name": "C5",
          "ticks": 477184,
          "time": 227.543634,
          "velocity": 0.5039370078740157
        },
        {
          "duration": 0.2380950000000155,
          "durationTicks": 512,
          "midi": 48,
          "name": "C3",
          "ticks": 477184,
          "time": 227.543634,
          "velocity": 0.5039370078740157
        },
        {
          "duration": 0.23809499999998707,
          "durationTicks": 512,
          "midi": 48,
          "name": "C3",
          "ticks": 477696,
          "time": 227.781729,
          "velocity": 0.5039370078740157
        },
        {
          "duration": 0.47619000000000256,
          "durationTicks": 1024,
          "midi": 67,
          "name": "G4",
          "ticks": 478208,
          "time": 228.019824,
          "velocity": 0.5039370078740157
        },
        {
          "duration": 0.47619000000000256,
          "durationTicks": 1024,
          "midi": 72,
          "name": "C5",
          "ticks": 478208,
          "time": 228.019824,
          "velocity": 0.5039370078740157
        },
        {
          "duration": 0.47619000000000256,
          "durationTicks": 1024,
          "midi": 75,
          "name": "D#5",
          "ticks": 478208,
          "time": 228.019824,
          "velocity": 0.5039370078740157
        },
        {
          "duration": 0.2380950000000155,
          "durationTicks": 512,
          "midi": 48,
          "name": "C3",
          "ticks": 478208,
          "time": 228.019824,
          "velocity": 0.5039370078740157
        },
        {
          "duration": 0.23809499999998707,
          "durationTicks": 512,
          "midi": 51,
          "name": "D#3",
          "ticks": 478720,
          "time": 228.25791900000002,
          "velocity": 0.5039370078740157
        },
        {
          "duration": 0.357142500000009,
          "durationTicks": 768,
          "midi": 77,
          "name": "F5",
          "ticks": 479232,
          "time": 228.496014,
          "velocity": 0.5039370078740157
        },
        {
          "duration": 0.9523800000000051,
          "durationTicks": 2048,
          "midi": 68,
          "name": "G#4",
          "ticks": 479232,
          "time": 228.496014,
          "velocity": 0.5039370078740157
        },
        {
          "duration": 0.9523800000000051,
          "durationTicks": 2048,
          "midi": 72,
          "name": "C5",
          "ticks": 479232,
          "time": 228.496014,
          "velocity": 0.5039370078740157
        },
        {
          "duration": 0.11904750000002196,
          "durationTicks": 256,
          "midi": 53,
          "name": "F3",
          "ticks": 479232,
          "time": 228.496014,
          "velocity": 0.5039370078740157
        },
        {
          "duration": 0.11904749999996511,
          "durationTicks": 256,
          "midi": 53,
          "name": "F3",
          "ticks": 479488,
          "time": 228.61506150000002,
          "velocity": 0.5039370078740157
        },
        {
          "duration": 0.357142500000009,
          "durationTicks": 768,
          "midi": 75,
          "name": "D#5",
          "ticks": 480000,
          "time": 228.8531565,
          "velocity": 0.5039370078740157
        },
        {
          "duration": 0.23809499999998707,
          "durationTicks": 512,
          "midi": 53,
          "name": "F3",
          "ticks": 480000,
          "time": 228.8531565,
          "velocity": 0.5039370078740157
        },
        {
          "duration": 0.11904750000002196,
          "durationTicks": 256,
          "midi": 53,
          "name": "F3",
          "ticks": 480512,
          "time": 229.0912515,
          "velocity": 0.5039370078740157
        },
        {
          "duration": 0.23809499999998707,
          "durationTicks": 512,
          "midi": 77,
          "name": "F5",
          "ticks": 480768,
          "time": 229.21029900000002,
          "velocity": 0.5039370078740157
        },
        {
          "duration": 0.23809499999998707,
          "durationTicks": 512,
          "midi": 48,
          "name": "C3",
          "ticks": 480768,
          "time": 229.21029900000002,
          "velocity": 0.5039370078740157
        },
        {
          "duration": 0.23809499999998707,
          "durationTicks": 512,
          "midi": 77,
          "name": "F5",
          "ticks": 481280,
          "time": 229.448394,
          "velocity": 0.5039370078740157
        },
        {
          "duration": 0.23809499999998707,
          "durationTicks": 512,
          "midi": 46,
          "name": "A#2",
          "ticks": 481280,
          "time": 229.448394,
          "velocity": 0.5039370078740157
        },
        {
          "duration": 0.2380950000000155,
          "durationTicks": 512,
          "midi": 77,
          "name": "F5",
          "ticks": 481792,
          "time": 229.686489,
          "velocity": 0.5039370078740157
        },
        {
          "duration": 0.2380950000000155,
          "durationTicks": 512,
          "midi": 46,
          "name": "A#2",
          "ticks": 481792,
          "time": 229.686489,
          "velocity": 0.5039370078740157
        },
        {
          "duration": 0.2380950000000155,
          "durationTicks": 512,
          "midi": 82,
          "name": "A#5",
          "ticks": 482304,
          "time": 229.924584,
          "velocity": 0.5039370078740157
        },
        {
          "duration": 0.2380950000000155,
          "durationTicks": 512,
          "midi": 46,
          "name": "A#2",
          "ticks": 482304,
          "time": 229.924584,
          "velocity": 0.5039370078740157
        },
        {
          "duration": 0.23809499999998707,
          "durationTicks": 512,
          "midi": 80,
          "name": "G#5",
          "ticks": 482816,
          "time": 230.16267900000003,
          "velocity": 0.5039370078740157
        },
        {
          "duration": 0.23809499999998707,
          "durationTicks": 512,
          "midi": 50,
          "name": "D3",
          "ticks": 482816,
          "time": 230.16267900000003,
          "velocity": 0.5039370078740157
        },
        {
          "duration": 0.11904749999999353,
          "durationTicks": 256,
          "midi": 79,
          "name": "G5",
          "ticks": 483328,
          "time": 230.400774,
          "velocity": 0.5039370078740157
        },
        {
          "duration": 0.11904749999999353,
          "durationTicks": 256,
          "midi": 51,
          "name": "D#3",
          "ticks": 483328,
          "time": 230.400774,
          "velocity": 0.5039370078740157
        },
        {
          "duration": 0.2380950000000155,
          "durationTicks": 512,
          "midi": 77,
          "name": "F5",
          "ticks": 483584,
          "time": 230.5198215,
          "velocity": 0.5039370078740157
        },
        {
          "duration": 0.11904749999999353,
          "durationTicks": 256,
          "midi": 51,
          "name": "D#3",
          "ticks": 483584,
          "time": 230.5198215,
          "velocity": 0.5039370078740157
        },
        {
          "duration": 0.5952374999999961,
          "durationTicks": 1280,
          "midi": 79,
          "name": "G5",
          "ticks": 484096,
          "time": 230.75791650000002,
          "velocity": 0.5039370078740157
        },
        {
          "duration": 0.11904749999996511,
          "durationTicks": 256,
          "midi": 51,
          "name": "D#3",
          "ticks": 484096,
          "time": 230.75791650000002,
          "velocity": 0.5039370078740157
        },
        {
          "duration": 0.2380950000000155,
          "durationTicks": 512,
          "midi": 51,
          "name": "D#3",
          "ticks": 484352,
          "time": 230.876964,
          "velocity": 0.5039370078740157
        },
        {
          "duration": 0.2380950000000155,
          "durationTicks": 512,
          "midi": 50,
          "name": "D3",
          "ticks": 484864,
          "time": 231.115059,
          "velocity": 0.5039370078740157
        },
        {
          "duration": 0.47618999999997413,
          "durationTicks": 1024,
          "midi": 75,
          "name": "D#5",
          "ticks": 485376,
          "time": 231.35315400000002,
          "velocity": 0.5039370078740157
        },
        {
          "duration": 0.47618999999997413,
          "durationTicks": 1024,
          "midi": 79,
          "name": "G5",
          "ticks": 485376,
          "time": 231.35315400000002,
          "velocity": 0.5039370078740157
        },
        {
          "duration": 0.23809499999998707,
          "durationTicks": 512,
          "midi": 48,
          "name": "C3",
          "ticks": 485376,
          "time": 231.35315400000002,
          "velocity": 0.5039370078740157
        },
        {
          "duration": 0.23809499999998707,
          "durationTicks": 512,
          "midi": 48,
          "name": "C3",
          "ticks": 485888,
          "time": 231.591249,
          "velocity": 0.5039370078740157
        },
        {
          "duration": 0.476190000000031,
          "durationTicks": 1024,
          "midi": 75,
          "name": "D#5",
          "ticks": 486400,
          "time": 231.829344,
          "velocity": 0.5039370078740157
        },
        {
          "duration": 0.476190000000031,
          "durationTicks": 1024,
          "midi": 79,
          "name": "G5",
          "ticks": 486400,
          "time": 231.829344,
          "velocity": 0.5039370078740157
        },
        {
          "duration": 0.476190000000031,
          "durationTicks": 1024,
          "midi": 82,
          "name": "A#5",
          "ticks": 486400,
          "time": 231.829344,
          "velocity": 0.5039370078740157
        },
        {
          "duration": 0.2380950000000155,
          "durationTicks": 512,
          "midi": 48,
          "name": "C3",
          "ticks": 486400,
          "time": 231.829344,
          "velocity": 0.5039370078740157
        },
        {
          "duration": 0.2380950000000155,
          "durationTicks": 512,
          "midi": 51,
          "name": "D#3",
          "ticks": 486912,
          "time": 232.067439,
          "velocity": 0.5039370078740157
        },
        {
          "duration": 0.3571424999999806,
          "durationTicks": 768,
          "midi": 75,
          "name": "D#5",
          "ticks": 487424,
          "time": 232.30553400000002,
          "velocity": 0.5039370078740157
        },
        {
          "duration": 0.3571424999999806,
          "durationTicks": 768,
          "midi": 80,
          "name": "G#5",
          "ticks": 487424,
          "time": 232.30553400000002,
          "velocity": 0.5039370078740157
        },
        {
          "duration": 0.3571424999999806,
          "durationTicks": 768,
          "midi": 84,
          "name": "C6",
          "ticks": 487424,
          "time": 232.30553400000002,
          "velocity": 0.5039370078740157
        },
        {
          "duration": 0.11904749999996511,
          "durationTicks": 256,
          "midi": 53,
          "name": "F3",
          "ticks": 487424,
          "time": 232.30553400000002,
          "velocity": 0.5039370078740157
        },
        {
          "duration": 0.11904750000002196,
          "durationTicks": 256,
          "midi": 53,
          "name": "F3",
          "ticks": 487680,
          "time": 232.4245815,
          "velocity": 0.5039370078740157
        },
        {
          "duration": 0.357142500000009,
          "durationTicks": 768,
          "midi": 77,
          "name": "F5",
          "ticks": 488192,
          "time": 232.6626765,
          "velocity": 0.5039370078740157
        },
        {
          "duration": 0.2380950000000155,
          "durationTicks": 512,
          "midi": 53,
          "name": "F3",
          "ticks": 488192,
          "time": 232.6626765,
          "velocity": 0.5039370078740157
        },
        {
          "duration": 0.11904749999999353,
          "durationTicks": 256,
          "midi": 53,
          "name": "F3",
          "ticks": 488704,
          "time": 232.90077150000002,
          "velocity": 0.5039370078740157
        },
        {
          "duration": 0.23809499999998707,
          "durationTicks": 512,
          "midi": 75,
          "name": "D#5",
          "ticks": 488960,
          "time": 233.019819,
          "velocity": 0.5039370078740157
        },
        {
          "duration": 0.23809499999998707,
          "durationTicks": 512,
          "midi": 48,
          "name": "C3",
          "ticks": 488960,
          "time": 233.019819,
          "velocity": 0.5039370078740157
        },
        {
          "duration": 0.2380950000000155,
          "durationTicks": 512,
          "midi": 74,
          "name": "D5",
          "ticks": 489472,
          "time": 233.257914,
          "velocity": 0.5039370078740157
        },
        {
          "duration": 0.2380950000000155,
          "durationTicks": 512,
          "midi": 77,
          "name": "F5",
          "ticks": 489472,
          "time": 233.257914,
          "velocity": 0.5039370078740157
        },
        {
          "duration": 0.2380950000000155,
          "durationTicks": 512,
          "midi": 82,
          "name": "A#5",
          "ticks": 489472,
          "time": 233.257914,
          "velocity": 0.5039370078740157
        },
        {
          "duration": 0.2380950000000155,
          "durationTicks": 512,
          "midi": 46,
          "name": "A#2",
          "ticks": 489472,
          "time": 233.257914,
          "velocity": 0.5039370078740157
        },
        {
          "duration": 0.23809499999998707,
          "durationTicks": 512,
          "midi": 74,
          "name": "D5",
          "ticks": 489984,
          "time": 233.49600900000002,
          "velocity": 0.5039370078740157
        },
        {
          "duration": 0.23809499999998707,
          "durationTicks": 512,
          "midi": 77,
          "name": "F5",
          "ticks": 489984,
          "time": 233.49600900000002,
          "velocity": 0.5039370078740157
        },
        {
          "duration": 0.23809499999998707,
          "durationTicks": 512,
          "midi": 82,
          "name": "A#5",
          "ticks": 489984,
          "time": 233.49600900000002,
          "velocity": 0.5039370078740157
        },
        {
          "duration": 0.23809499999998707,
          "durationTicks": 512,
          "midi": 46,
          "name": "A#2",
          "ticks": 489984,
          "time": 233.49600900000002,
          "velocity": 0.5039370078740157
        },
        {
          "duration": 0.23809499999998707,
          "durationTicks": 512,
          "midi": 74,
          "name": "D5",
          "ticks": 490496,
          "time": 233.734104,
          "velocity": 0.5039370078740157
        },
        {
          "duration": 0.23809499999998707,
          "durationTicks": 512,
          "midi": 77,
          "name": "F5",
          "ticks": 490496,
          "time": 233.734104,
          "velocity": 0.5039370078740157
        },
        {
          "duration": 0.23809499999998707,
          "durationTicks": 512,
          "midi": 79,
          "name": "G5",
          "ticks": 490496,
          "time": 233.734104,
          "velocity": 0.5039370078740157
        },
        {
          "duration": 0.23809499999998707,
          "durationTicks": 512,
          "midi": 46,
          "name": "A#2",
          "ticks": 490496,
          "time": 233.734104,
          "velocity": 0.5039370078740157
        },
        {
          "duration": 0.2380950000000155,
          "durationTicks": 512,
          "midi": 74,
          "name": "D5",
          "ticks": 491008,
          "time": 233.972199,
          "velocity": 0.5039370078740157
        },
        {
          "duration": 0.2380950000000155,
          "durationTicks": 512,
          "midi": 77,
          "name": "F5",
          "ticks": 491008,
          "time": 233.972199,
          "velocity": 0.5039370078740157
        },
        {
          "duration": 0.2380950000000155,
          "durationTicks": 512,
          "midi": 82,
          "name": "A#5",
          "ticks": 491008,
          "time": 233.972199,
          "velocity": 0.5039370078740157
        },
        {
          "duration": 0.2380950000000155,
          "durationTicks": 512,
          "midi": 47,
          "name": "B2",
          "ticks": 491008,
          "time": 233.972199,
          "velocity": 0.5039370078740157
        },
        {
          "duration": 0.3571424999999806,
          "durationTicks": 768,
          "midi": 74,
          "name": "D5",
          "ticks": 491520,
          "time": 234.210294,
          "velocity": 0.5039370078740157
        },
        {
          "duration": 0.3571424999999806,
          "durationTicks": 768,
          "midi": 77,
          "name": "F5",
          "ticks": 491520,
          "time": 234.210294,
          "velocity": 0.5039370078740157
        },
        {
          "duration": 0.3571424999999806,
          "durationTicks": 768,
          "midi": 82,
          "name": "A#5",
          "ticks": 491520,
          "time": 234.210294,
          "velocity": 0.5039370078740157
        },
        {
          "duration": 0.11904749999999353,
          "durationTicks": 256,
          "midi": 48,
          "name": "C3",
          "ticks": 491520,
          "time": 234.210294,
          "velocity": 0.5039370078740157
        },
        {
          "duration": 0.23809499999998707,
          "durationTicks": 512,
          "midi": 48,
          "name": "C3",
          "ticks": 491776,
          "time": 234.3293415,
          "velocity": 0.5039370078740157
        },
        {
          "duration": 0.5952375000000245,
          "durationTicks": 1280,
          "midi": 75,
          "name": "D#5",
          "ticks": 492288,
          "time": 234.56743649999999,
          "velocity": 0.5039370078740157
        },
        {
          "duration": 0.5952375000000245,
          "durationTicks": 1280,
          "midi": 79,
          "name": "G5",
          "ticks": 492288,
          "time": 234.56743649999999,
          "velocity": 0.5039370078740157
        },
        {
          "duration": 0.5952375000000245,
          "durationTicks": 1280,
          "midi": 84,
          "name": "C6",
          "ticks": 492288,
          "time": 234.56743649999999,
          "velocity": 0.5039370078740157
        },
        {
          "duration": 0.11904750000002196,
          "durationTicks": 256,
          "midi": 48,
          "name": "C3",
          "ticks": 492288,
          "time": 234.56743649999999,
          "velocity": 0.5039370078740157
        },
        {
          "duration": 0.47619000000000256,
          "durationTicks": 1024,
          "midi": 46,
          "name": "A#2",
          "ticks": 492544,
          "time": 234.686484,
          "velocity": 0.5039370078740157
        },
        {
          "duration": 0.47619000000000256,
          "durationTicks": 1024,
          "midi": 72,
          "name": "C5",
          "ticks": 493568,
          "time": 235.162674,
          "velocity": 0.5039370078740157
        },
        {
          "duration": 0.2380950000000155,
          "durationTicks": 512,
          "midi": 48,
          "name": "C3",
          "ticks": 493568,
          "time": 235.162674,
          "velocity": 0.5039370078740157
        },
        {
          "duration": 0.23809499999998707,
          "durationTicks": 512,
          "midi": 48,
          "name": "C3",
          "ticks": 494080,
          "time": 235.40076900000003,
          "velocity": 0.5039370078740157
        },
        {
          "duration": 0.47618999999997413,
          "durationTicks": 1024,
          "midi": 67,
          "name": "G4",
          "ticks": 494592,
          "time": 235.638864,
          "velocity": 0.5039370078740157
        },
        {
          "duration": 0.47618999999997413,
          "durationTicks": 1024,
          "midi": 72,
          "name": "C5",
          "ticks": 494592,
          "time": 235.638864,
          "velocity": 0.5039370078740157
        },
        {
          "duration": 0.47618999999997413,
          "durationTicks": 1024,
          "midi": 75,
          "name": "D#5",
          "ticks": 494592,
          "time": 235.638864,
          "velocity": 0.5039370078740157
        },
        {
          "duration": 0.23809499999998707,
          "durationTicks": 512,
          "midi": 48,
          "name": "C3",
          "ticks": 494592,
          "time": 235.638864,
          "velocity": 0.5039370078740157
        },
        {
          "duration": 0.23809499999998707,
          "durationTicks": 512,
          "midi": 51,
          "name": "D#3",
          "ticks": 495104,
          "time": 235.876959,
          "velocity": 0.5039370078740157
        },
        {
          "duration": 0.357142500000009,
          "durationTicks": 768,
          "midi": 77,
          "name": "F5",
          "ticks": 495616,
          "time": 236.115054,
          "velocity": 0.5039370078740157
        },
        {
          "duration": 0.9523800000000051,
          "durationTicks": 2048,
          "midi": 68,
          "name": "G#4",
          "ticks": 495616,
          "time": 236.115054,
          "velocity": 0.5039370078740157
        },
        {
          "duration": 0.9523800000000051,
          "durationTicks": 2048,
          "midi": 72,
          "name": "C5",
          "ticks": 495616,
          "time": 236.115054,
          "velocity": 0.5039370078740157
        },
        {
          "duration": 0.11904750000002196,
          "durationTicks": 256,
          "midi": 53,
          "name": "F3",
          "ticks": 495616,
          "time": 236.115054,
          "velocity": 0.5039370078740157
        },
        {
          "duration": 0.11904749999999353,
          "durationTicks": 256,
          "midi": 53,
          "name": "F3",
          "ticks": 495872,
          "time": 236.2341015,
          "velocity": 0.5039370078740157
        },
        {
          "duration": 0.357142500000009,
          "durationTicks": 768,
          "midi": 75,
          "name": "D#5",
          "ticks": 496384,
          "time": 236.4721965,
          "velocity": 0.5039370078740157
        },
        {
          "duration": 0.2380950000000155,
          "durationTicks": 512,
          "midi": 53,
          "name": "F3",
          "ticks": 496384,
          "time": 236.4721965,
          "velocity": 0.5039370078740157
        },
        {
          "duration": 0.11904749999999353,
          "durationTicks": 256,
          "midi": 53,
          "name": "F3",
          "ticks": 496896,
          "time": 236.7102915,
          "velocity": 0.5039370078740157
        },
        {
          "duration": 0.23809499999998707,
          "durationTicks": 512,
          "midi": 77,
          "name": "F5",
          "ticks": 497152,
          "time": 236.829339,
          "velocity": 0.5039370078740157
        },
        {
          "duration": 0.23809499999998707,
          "durationTicks": 512,
          "midi": 48,
          "name": "C3",
          "ticks": 497152,
          "time": 236.829339,
          "velocity": 0.5039370078740157
        },
        {
          "duration": 0.2380950000000155,
          "durationTicks": 512,
          "midi": 77,
          "name": "F5",
          "ticks": 497664,
          "time": 237.067434,
          "velocity": 0.5039370078740157
        },
        {
          "duration": 0.2380950000000155,
          "durationTicks": 512,
          "midi": 46,
          "name": "A#2",
          "ticks": 497664,
          "time": 237.067434,
          "velocity": 0.5039370078740157
        },
        {
          "duration": 0.2380950000000155,
          "durationTicks": 512,
          "midi": 77,
          "name": "F5",
          "ticks": 498176,
          "time": 237.305529,
          "velocity": 0.5039370078740157
        },
        {
          "duration": 0.2380950000000155,
          "durationTicks": 512,
          "midi": 46,
          "name": "A#2",
          "ticks": 498176,
          "time": 237.305529,
          "velocity": 0.5039370078740157
        },
        {
          "duration": 0.23809499999998707,
          "durationTicks": 512,
          "midi": 82,
          "name": "A#5",
          "ticks": 498688,
          "time": 237.54362400000002,
          "velocity": 0.5039370078740157
        },
        {
          "duration": 0.23809499999998707,
          "durationTicks": 512,
          "midi": 46,
          "name": "A#2",
          "ticks": 498688,
          "time": 237.54362400000002,
          "velocity": 0.5039370078740157
        },
        {
          "duration": 0.23809499999998707,
          "durationTicks": 512,
          "midi": 80,
          "name": "G#5",
          "ticks": 499200,
          "time": 237.781719,
          "velocity": 0.5039370078740157
        },
        {
          "duration": 0.23809499999998707,
          "durationTicks": 512,
          "midi": 50,
          "name": "D3",
          "ticks": 499200,
          "time": 237.781719,
          "velocity": 0.5039370078740157
        },
        {
          "duration": 0.11904750000002196,
          "durationTicks": 256,
          "midi": 79,
          "name": "G5",
          "ticks": 499712,
          "time": 238.019814,
          "velocity": 0.5039370078740157
        },
        {
          "duration": 0.11904750000002196,
          "durationTicks": 256,
          "midi": 51,
          "name": "D#3",
          "ticks": 499712,
          "time": 238.019814,
          "velocity": 0.5039370078740157
        },
        {
          "duration": 0.23809499999998707,
          "durationTicks": 512,
          "midi": 77,
          "name": "F5",
          "ticks": 499968,
          "time": 238.13886150000002,
          "velocity": 0.5039370078740157
        },
        {
          "duration": 0.11904749999999353,
          "durationTicks": 256,
          "midi": 51,
          "name": "D#3",
          "ticks": 499968,
          "time": 238.13886150000002,
          "velocity": 0.5039370078740157
        },
        {
          "duration": 0.5952374999999961,
          "durationTicks": 1280,
          "midi": 79,
          "name": "G5",
          "ticks": 500480,
          "time": 238.3769565,
          "velocity": 0.5039370078740157
        },
        {
          "duration": 0.11904749999999353,
          "durationTicks": 256,
          "midi": 51,
          "name": "D#3",
          "ticks": 500480,
          "time": 238.3769565,
          "velocity": 0.5039370078740157
        },
        {
          "duration": 0.2380950000000155,
          "durationTicks": 512,
          "midi": 51,
          "name": "D#3",
          "ticks": 500736,
          "time": 238.496004,
          "velocity": 0.5039370078740157
        },
        {
          "duration": 0.23809499999998707,
          "durationTicks": 512,
          "midi": 50,
          "name": "D3",
          "ticks": 501248,
          "time": 238.73409900000001,
          "velocity": 0.5039370078740157
        },
        {
          "duration": 0.47619000000000256,
          "durationTicks": 1024,
          "midi": 75,
          "name": "D#5",
          "ticks": 501760,
          "time": 238.972194,
          "velocity": 0.5039370078740157
        },
        {
          "duration": 0.47619000000000256,
          "durationTicks": 1024,
          "midi": 79,
          "name": "G5",
          "ticks": 501760,
          "time": 238.972194,
          "velocity": 0.5039370078740157
        },
        {
          "duration": 0.23809499999998707,
          "durationTicks": 512,
          "midi": 48,
          "name": "C3",
          "ticks": 501760,
          "time": 238.972194,
          "velocity": 0.5039370078740157
        },
        {
          "duration": 0.2380950000000155,
          "durationTicks": 512,
          "midi": 48,
          "name": "C3",
          "ticks": 502272,
          "time": 239.210289,
          "velocity": 0.5039370078740157
        },
        {
          "duration": 0.47619000000000256,
          "durationTicks": 1024,
          "midi": 75,
          "name": "D#5",
          "ticks": 502784,
          "time": 239.448384,
          "velocity": 0.5039370078740157
        },
        {
          "duration": 0.47619000000000256,
          "durationTicks": 1024,
          "midi": 79,
          "name": "G5",
          "ticks": 502784,
          "time": 239.448384,
          "velocity": 0.5039370078740157
        },
        {
          "duration": 0.47619000000000256,
          "durationTicks": 1024,
          "midi": 82,
          "name": "A#5",
          "ticks": 502784,
          "time": 239.448384,
          "velocity": 0.5039370078740157
        },
        {
          "duration": 0.2380950000000155,
          "durationTicks": 512,
          "midi": 48,
          "name": "C3",
          "ticks": 502784,
          "time": 239.448384,
          "velocity": 0.5039370078740157
        },
        {
          "duration": 0.23809499999998707,
          "durationTicks": 512,
          "midi": 51,
          "name": "D#3",
          "ticks": 503296,
          "time": 239.68647900000002,
          "velocity": 0.5039370078740157
        },
        {
          "duration": 0.357142500000009,
          "durationTicks": 768,
          "midi": 75,
          "name": "D#5",
          "ticks": 503808,
          "time": 239.924574,
          "velocity": 0.5039370078740157
        },
        {
          "duration": 0.357142500000009,
          "durationTicks": 768,
          "midi": 80,
          "name": "G#5",
          "ticks": 503808,
          "time": 239.924574,
          "velocity": 0.5039370078740157
        },
        {
          "duration": 0.357142500000009,
          "durationTicks": 768,
          "midi": 84,
          "name": "C6",
          "ticks": 503808,
          "time": 239.924574,
          "velocity": 0.5039370078740157
        },
        {
          "duration": 0.11904749999999353,
          "durationTicks": 256,
          "midi": 53,
          "name": "F3",
          "ticks": 503808,
          "time": 239.924574,
          "velocity": 0.5039370078740157
        },
        {
          "duration": 0.11904749999999353,
          "durationTicks": 256,
          "midi": 53,
          "name": "F3",
          "ticks": 504064,
          "time": 240.0436215,
          "velocity": 0.5039370078740157
        },
        {
          "duration": 0.357142500000009,
          "durationTicks": 768,
          "midi": 77,
          "name": "F5",
          "ticks": 504576,
          "time": 240.28171650000002,
          "velocity": 0.5039370078740157
        },
        {
          "duration": 0.23809499999998707,
          "durationTicks": 512,
          "midi": 53,
          "name": "F3",
          "ticks": 504576,
          "time": 240.28171650000002,
          "velocity": 0.5039370078740157
        },
        {
          "duration": 0.11904750000002196,
          "durationTicks": 256,
          "midi": 53,
          "name": "F3",
          "ticks": 505088,
          "time": 240.5198115,
          "velocity": 0.5039370078740157
        },
        {
          "duration": 0.23809499999998707,
          "durationTicks": 512,
          "midi": 75,
          "name": "D#5",
          "ticks": 505344,
          "time": 240.63885900000002,
          "velocity": 0.5039370078740157
        },
        {
          "duration": 0.23809499999998707,
          "durationTicks": 512,
          "midi": 48,
          "name": "C3",
          "ticks": 505344,
          "time": 240.63885900000002,
          "velocity": 0.5039370078740157
        },
        {
          "duration": 0.23809499999998707,
          "durationTicks": 512,
          "midi": 74,
          "name": "D5",
          "ticks": 505856,
          "time": 240.876954,
          "velocity": 0.5039370078740157
        },
        {
          "duration": 0.23809499999998707,
          "durationTicks": 512,
          "midi": 77,
          "name": "F5",
          "ticks": 505856,
          "time": 240.876954,
          "velocity": 0.5039370078740157
        },
        {
          "duration": 0.23809499999998707,
          "durationTicks": 512,
          "midi": 82,
          "name": "A#5",
          "ticks": 505856,
          "time": 240.876954,
          "velocity": 0.5039370078740157
        },
        {
          "duration": 0.23809499999998707,
          "durationTicks": 512,
          "midi": 46,
          "name": "A#2",
          "ticks": 505856,
          "time": 240.876954,
          "velocity": 0.5039370078740157
        },
        {
          "duration": 0.23809499999998707,
          "durationTicks": 512,
          "midi": 74,
          "name": "D5",
          "ticks": 506368,
          "time": 241.115049,
          "velocity": 0.5039370078740157
        },
        {
          "duration": 0.23809499999998707,
          "durationTicks": 512,
          "midi": 77,
          "name": "F5",
          "ticks": 506368,
          "time": 241.115049,
          "velocity": 0.5039370078740157
        },
        {
          "duration": 0.23809499999998707,
          "durationTicks": 512,
          "midi": 82,
          "name": "A#5",
          "ticks": 506368,
          "time": 241.115049,
          "velocity": 0.5039370078740157
        },
        {
          "duration": 0.23809499999998707,
          "durationTicks": 512,
          "midi": 46,
          "name": "A#2",
          "ticks": 506368,
          "time": 241.115049,
          "velocity": 0.5039370078740157
        },
        {
          "duration": 0.2380950000000155,
          "durationTicks": 512,
          "midi": 74,
          "name": "D5",
          "ticks": 506880,
          "time": 241.353144,
          "velocity": 0.5039370078740157
        },
        {
          "duration": 0.2380950000000155,
          "durationTicks": 512,
          "midi": 77,
          "name": "F5",
          "ticks": 506880,
          "time": 241.353144,
          "velocity": 0.5039370078740157
        },
        {
          "duration": 0.2380950000000155,
          "durationTicks": 512,
          "midi": 79,
          "name": "G5",
          "ticks": 506880,
          "time": 241.353144,
          "velocity": 0.5039370078740157
        },
        {
          "duration": 0.2380950000000155,
          "durationTicks": 512,
          "midi": 43,
          "name": "G2",
          "ticks": 506880,
          "time": 241.353144,
          "velocity": 0.5039370078740157
        },
        {
          "duration": 0.2380950000000155,
          "durationTicks": 512,
          "midi": 74,
          "name": "D5",
          "ticks": 507392,
          "time": 241.591239,
          "velocity": 0.5039370078740157
        },
        {
          "duration": 0.2380950000000155,
          "durationTicks": 512,
          "midi": 77,
          "name": "F5",
          "ticks": 507392,
          "time": 241.591239,
          "velocity": 0.5039370078740157
        },
        {
          "duration": 0.2380950000000155,
          "durationTicks": 512,
          "midi": 82,
          "name": "A#5",
          "ticks": 507392,
          "time": 241.591239,
          "velocity": 0.5039370078740157
        },
        {
          "duration": 0.2380950000000155,
          "durationTicks": 512,
          "midi": 46,
          "name": "A#2",
          "ticks": 507392,
          "time": 241.591239,
          "velocity": 0.5039370078740157
        },
        {
          "duration": 0.357142500000009,
          "durationTicks": 768,
          "midi": 74,
          "name": "D5",
          "ticks": 507904,
          "time": 241.82933400000002,
          "velocity": 0.5039370078740157
        },
        {
          "duration": 0.357142500000009,
          "durationTicks": 768,
          "midi": 77,
          "name": "F5",
          "ticks": 507904,
          "time": 241.82933400000002,
          "velocity": 0.5039370078740157
        },
        {
          "duration": 0.357142500000009,
          "durationTicks": 768,
          "midi": 82,
          "name": "A#5",
          "ticks": 507904,
          "time": 241.82933400000002,
          "velocity": 0.5039370078740157
        },
        {
          "duration": 0.357142500000009,
          "durationTicks": 768,
          "midi": 46,
          "name": "A#2",
          "ticks": 507904,
          "time": 241.82933400000002,
          "velocity": 0.5039370078740157
        },
        {
          "duration": 0.5952374999999961,
          "durationTicks": 1280,
          "midi": 75,
          "name": "D#5",
          "ticks": 508672,
          "time": 242.18647650000003,
          "velocity": 0.5039370078740157
        },
        {
          "duration": 0.5952374999999961,
          "durationTicks": 1280,
          "midi": 79,
          "name": "G5",
          "ticks": 508672,
          "time": 242.18647650000003,
          "velocity": 0.5039370078740157
        },
        {
          "duration": 0.5952374999999961,
          "durationTicks": 1280,
          "midi": 84,
          "name": "C6",
          "ticks": 508672,
          "time": 242.18647650000003,
          "velocity": 0.5039370078740157
        },
        {
          "duration": 0.5952374999999961,
          "durationTicks": 1280,
          "midi": 48,
          "name": "C3",
          "ticks": 508672,
          "time": 242.18647650000003,
          "velocity": 0.5039370078740157
        }
      ],
      "endOfTrackTicks": 509952
    }
  ]
}
