{
  "header": {
    "keySignatures": [
      {
        "key": "C",
        "scale": "major",
        "ticks": 0
      }
    ],
    "meta": [],
    "name": "",
    "ppq": 1024,
    "tempos": [
      {
        "bpm": 144.00023040036865,
        "ticks": 0
      }
    ],
    "timeSignatures": [
      {
        "ticks": 0,
        "timeSignature": [
          4,
          4
        ],
        "measures": 0
      }
    ]
  },
  "tracks": [
    {
      "channel": 0,
      "controlChanges": {},
      "pitchBends": [],
      "instrument": {
        "family": "piano",
        "number": 0,
        "name": "acoustic grand piano"
      },
      "name": "Acoustic Grand Piano",
      "notes": [
        {
          "duration": 0.277912966796875,
          "durationTicks": 683,
          "midi": 79,
          "name": "G5",
          "ticks": 0,
          "time": 0,
          "velocity": 0.5039370078740157
        },
        {
          "duration": 0.277912966796875,
          "durationTicks": 683,
          "midi": 84,
          "name": "C6",
          "ticks": 0,
          "time": 0,
          "velocity": 0.5039370078740157
        },
        {
          "duration": 0.277912966796875,
          "durationTicks": 683,
          "midi": 88,
          "name": "E6",
          "ticks": 0,
          "time": 0,
          "velocity": 0.5039370078740157
        },
        {
          "duration": 0.138753033203125,
          "durationTicks": 341,
          "midi": 79,
          "name": "G5",
          "ticks": 683,
          "time": 0.277912966796875,
          "velocity": 0.5039370078740157
        },
        {
          "duration": 0.138753033203125,
          "durationTicks": 341,
          "midi": 84,
          "name": "C6",
          "ticks": 683,
          "time": 0.277912966796875,
          "velocity": 0.5039370078740157
        },
        {
          "duration": 0.138753033203125,
          "durationTicks": 341,
          "midi": 88,
          "name": "E6",
          "ticks": 683,
          "time": 0.277912966796875,
          "velocity": 0.5039370078740157
        },
        {
          "duration": 0.416666,
          "durationTicks": 1024,
          "midi": 79,
          "name": "G5",
          "ticks": 1024,
          "time": 0.416666,
          "velocity": 0.5039370078740157
        },
        {
          "duration": 0.416666,
          "durationTicks": 1024,
          "midi": 83,
          "name": "B5",
          "ticks": 1024,
          "time": 0.416666,
          "velocity": 0.5039370078740157
        },
        {
          "duration": 0.416666,
          "durationTicks": 1024,
          "midi": 86,
          "name": "D6",
          "ticks": 1024,
          "time": 0.416666,
          "velocity": 0.5039370078740157
        },
        {
          "duration": 0.416666,
          "durationTicks": 1024,
          "midi": 79,
          "name": "G5",
          "ticks": 2048,
          "time": 0.833332,
          "velocity": 0.5039370078740157
        },
        {
          "duration": 0.416666,
          "durationTicks": 1024,
          "midi": 81,
          "name": "A5",
          "ticks": 2048,
          "time": 0.833332,
          "velocity": 0.5039370078740157
        },
        {
          "duration": 0.416666,
          "durationTicks": 1024,
          "midi": 84,
          "name": "C6",
          "ticks": 2048,
          "time": 0.833332,
          "velocity": 0.5039370078740157
        },
        {
          "duration": 0.27791296679687494,
          "durationTicks": 683,
          "midi": 79,
          "name": "G5",
          "ticks": 3072,
          "time": 1.249998,
          "velocity": 0.5039370078740157
        },
        {
          "duration": 0.27791296679687494,
          "durationTicks": 683,
          "midi": 83,
          "name": "B5",
          "ticks": 3072,
          "time": 1.249998,
          "velocity": 0.5039370078740157
        },
        {
          "duration": 0.27791296679687494,
          "durationTicks": 683,
          "midi": 86,
          "name": "D6",
          "ticks": 3072,
          "time": 1.249998,
          "velocity": 0.5039370078740157
        },
        {
          "duration": 0.5554190332031252,
          "durationTicks": 1365,
          "midi": 79,
          "name": "G5",
          "ticks": 3755,
          "time": 1.5279109667968749,
          "velocity": 0.5039370078740157
        },
        {
          "duration": 0.5554190332031252,
          "durationTicks": 1365,
          "midi": 81,
          "name": "A5",
          "ticks": 3755,
          "time": 1.5279109667968749,
          "velocity": 0.5039370078740157
        },
        {
          "duration": 0.5554190332031252,
          "durationTicks": 1365,
          "midi": 84,
          "name": "C6",
          "ticks": 3755,
          "time": 1.5279109667968749,
          "velocity": 0.5039370078740157
        },
        {
          "duration": 0.2779129667968747,
          "durationTicks": 683,
          "midi": 79,
          "name": "G5",
          "ticks": 5120,
          "time": 2.08333,
          "velocity": 0.5039370078740157
        },
        {
          "duration": 0.2779129667968747,
          "durationTicks": 683,
          "midi": 81,
          "name": "A5",
          "ticks": 5120,
          "time": 2.08333,
          "velocity": 0.5039370078740157
        },
        {
          "duration": 0.2779129667968747,
          "durationTicks": 683,
          "midi": 84,
          "name": "C6",
          "ticks": 5120,
          "time": 2.08333,
          "velocity": 0.5039370078740157
        },
        {
          "duration": 0.13875303320312504,
          "durationTicks": 341,
          "midi": 79,
          "name": "G5",
          "ticks": 5803,
          "time": 2.361242966796875,
          "velocity": 0.5039370078740157
        },
        {
          "duration": 0.13875303320312504,
          "durationTicks": 341,
          "midi": 83,
          "name": "B5",
          "ticks": 5803,
          "time": 2.361242966796875,
          "velocity": 0.5039370078740157
        },
        {
          "duration": 0.13875303320312504,
          "durationTicks": 341,
          "midi": 86,
          "name": "D6",
          "ticks": 5803,
          "time": 2.361242966796875,
          "velocity": 0.5039370078740157
        },
        {
          "duration": 0.1387530332031246,
          "durationTicks": 341,
          "midi": 79,
          "name": "G5",
          "ticks": 6827,
          "time": 2.777908966796875,
          "velocity": 0.5039370078740157
        },
        {
          "duration": 0.1387530332031246,
          "durationTicks": 341,
          "midi": 83,
          "name": "B5",
          "ticks": 6827,
          "time": 2.777908966796875,
          "velocity": 0.5039370078740157
        },
        {
          "duration": 0.1387530332031246,
          "durationTicks": 341,
          "midi": 86,
          "name": "D6",
          "ticks": 6827,
          "time": 2.777908966796875,
          "velocity": 0.5039370078740157
        },
        {
          "duration": 0.4166660000000002,
          "durationTicks": 1024,
          "midi": 79,
          "name": "G5",
          "ticks": 7851,
          "time": 3.194574966796875,
          "velocity": 0.5039370078740157
        },
        {
          "duration": 0.4166660000000002,
          "durationTicks": 1024,
          "midi": 84,
          "name": "C6",
          "ticks": 7851,
          "time": 3.194574966796875,
          "velocity": 0.5039370078740157
        },
        {
          "duration": 0.4166660000000002,
          "durationTicks": 1024,
          "midi": 88,
          "name": "E6",
          "ticks": 7851,
          "time": 3.194574966796875,
          "velocity": 0.5039370078740157
        },
        {
          "duration": 0.8333320000000004,
          "durationTicks": 2048,
          "midi": 48,
          "name": "C3",
          "ticks": 7851,
          "time": 3.194574966796875,
          "velocity": 0.5039370078740157
        },
        {
          "duration": 0.13875303320312504,
          "durationTicks": 341,
          "midi": 79,
          "name": "G5",
          "ticks": 8875,
          "time": 3.611240966796875,
          "velocity": 0.5039370078740157
        },
        {
          "duration": 0.13875303320312504,
          "durationTicks": 341,
          "midi": 84,
          "name": "C6",
          "ticks": 8875,
          "time": 3.611240966796875,
          "velocity": 0.5039370078740157
        },
        {
          "duration": 0.13875303320312504,
          "durationTicks": 341,
          "midi": 88,
          "name": "E6",
          "ticks": 8875,
          "time": 3.611240966796875,
          "velocity": 0.5039370078740157
        },
        {
          "duration": 0.4166660000000002,
          "durationTicks": 1024,
          "midi": 79,
          "name": "G5",
          "ticks": 9216,
          "time": 3.749994,
          "velocity": 0.5039370078740157
        },
        {
          "duration": 0.4166660000000002,
          "durationTicks": 1024,
          "midi": 83,
          "name": "B5",
          "ticks": 9216,
          "time": 3.749994,
          "velocity": 0.5039370078740157
        },
        {
          "duration": 0.4166660000000002,
          "durationTicks": 1024,
          "midi": 86,
          "name": "D6",
          "ticks": 9216,
          "time": 3.749994,
          "velocity": 0.5039370078740157
        },
        {
          "duration": 0.13875303320312504,
          "durationTicks": 341,
          "midi": 48,
          "name": "C3",
          "ticks": 9899,
          "time": 4.027906966796875,
          "velocity": 0.5039370078740157
        },
        {
          "duration": 0.4166659999999993,
          "durationTicks": 1024,
          "midi": 79,
          "name": "G5",
          "ticks": 10240,
          "time": 4.16666,
          "velocity": 0.5039370078740157
        },
        {
          "duration": 0.4166659999999993,
          "durationTicks": 1024,
          "midi": 81,
          "name": "A5",
          "ticks": 10240,
          "time": 4.16666,
          "velocity": 0.5039370078740157
        },
        {
          "duration": 0.4166659999999993,
          "durationTicks": 1024,
          "midi": 84,
          "name": "C6",
          "ticks": 10240,
          "time": 4.16666,
          "velocity": 0.5039370078740157
        },
        {
          "duration": 0.6945789667968745,
          "durationTicks": 1707,
          "midi": 45,
          "name": "A2",
          "ticks": 10240,
          "time": 4.16666,
          "velocity": 0.5039370078740157
        },
        {
          "duration": 0.27791296679687516,
          "durationTicks": 683,
          "midi": 79,
          "name": "G5",
          "ticks": 11264,
          "time": 4.583326,
          "velocity": 0.5039370078740157
        },
        {
          "duration": 0.27791296679687516,
          "durationTicks": 683,
          "midi": 83,
          "name": "B5",
          "ticks": 11264,
          "time": 4.583326,
          "velocity": 0.5039370078740157
        },
        {
          "duration": 0.27791296679687516,
          "durationTicks": 683,
          "midi": 86,
          "name": "D6",
          "ticks": 11264,
          "time": 4.583326,
          "velocity": 0.5039370078740157
        },
        {
          "duration": 0.5554190332031252,
          "durationTicks": 1365,
          "midi": 79,
          "name": "G5",
          "ticks": 11947,
          "time": 4.861238966796875,
          "velocity": 0.5039370078740157
        },
        {
          "duration": 0.5554190332031252,
          "durationTicks": 1365,
          "midi": 81,
          "name": "A5",
          "ticks": 11947,
          "time": 4.861238966796875,
          "velocity": 0.5039370078740157
        },
        {
          "duration": 0.5554190332031252,
          "durationTicks": 1365,
          "midi": 84,
          "name": "C6",
          "ticks": 11947,
          "time": 4.861238966796875,
          "velocity": 0.5039370078740157
        },
        {
          "duration": 0.13875303320312504,
          "durationTicks": 341,
          "midi": 45,
          "name": "A2",
          "ticks": 11947,
          "time": 4.861238966796875,
          "velocity": 0.5039370078740157
        },
        {
          "duration": 0.6945789667968754,
          "durationTicks": 1707,
          "midi": 50,
          "name": "D3",
          "ticks": 12288,
          "time": 4.999992,
          "velocity": 0.5039370078740157
        },
        {
          "duration": 0.27791296679687516,
          "durationTicks": 683,
          "midi": 79,
          "name": "G5",
          "ticks": 13312,
          "time": 5.416658,
          "velocity": 0.5039370078740157
        },
        {
          "duration": 0.27791296679687516,
          "durationTicks": 683,
          "midi": 81,
          "name": "A5",
          "ticks": 13312,
          "time": 5.416658,
          "velocity": 0.5039370078740157
        },
        {
          "duration": 0.27791296679687516,
          "durationTicks": 683,
          "midi": 84,
          "name": "C6",
          "ticks": 13312,
          "time": 5.416658,
          "velocity": 0.5039370078740157
        },
        {
          "duration": 0.13875303320312415,
          "durationTicks": 341,
          "midi": 79,
          "name": "G5",
          "ticks": 13995,
          "time": 5.694570966796875,
          "velocity": 0.5039370078740157
        },
        {
          "duration": 0.13875303320312415,
          "durationTicks": 341,
          "midi": 83,
          "name": "B5",
          "ticks": 13995,
          "time": 5.694570966796875,
          "velocity": 0.5039370078740157
        },
        {
          "duration": 0.13875303320312415,
          "durationTicks": 341,
          "midi": 86,
          "name": "D6",
          "ticks": 13995,
          "time": 5.694570966796875,
          "velocity": 0.5039370078740157
        },
        {
          "duration": 0.13875303320312415,
          "durationTicks": 341,
          "midi": 50,
          "name": "D3",
          "ticks": 13995,
          "time": 5.694570966796875,
          "velocity": 0.5039370078740157
        },
        {
          "duration": 0.6945789667968754,
          "durationTicks": 1707,
          "midi": 43,
          "name": "G2",
          "ticks": 14336,
          "time": 5.833323999999999,
          "velocity": 0.5039370078740157
        },
        {
          "duration": 0.13875303320312504,
          "durationTicks": 341,
          "midi": 79,
          "name": "G5",
          "ticks": 15019,
          "time": 6.1112369667968744,
          "velocity": 0.5039370078740157
        },
        {
          "duration": 0.13875303320312504,
          "durationTicks": 341,
          "midi": 83,
          "name": "B5",
          "ticks": 15019,
          "time": 6.1112369667968744,
          "velocity": 0.5039370078740157
        },
        {
          "duration": 0.13875303320312504,
          "durationTicks": 341,
          "midi": 86,
          "name": "D6",
          "ticks": 15019,
          "time": 6.1112369667968744,
          "velocity": 0.5039370078740157
        },
        {
          "duration": 0.4166660000000002,
          "durationTicks": 1024,
          "midi": 79,
          "name": "G5",
          "ticks": 16043,
          "time": 6.527902966796875,
          "velocity": 0.5039370078740157
        },
        {
          "duration": 0.4166660000000002,
          "durationTicks": 1024,
          "midi": 84,
          "name": "C6",
          "ticks": 16043,
          "time": 6.527902966796875,
          "velocity": 0.5039370078740157
        },
        {
          "duration": 0.4166660000000002,
          "durationTicks": 1024,
          "midi": 88,
          "name": "E6",
          "ticks": 16043,
          "time": 6.527902966796875,
          "velocity": 0.5039370078740157
        },
        {
          "duration": 0.13875303320312504,
          "durationTicks": 341,
          "midi": 43,
          "name": "G2",
          "ticks": 16043,
          "time": 6.527902966796875,
          "velocity": 0.5039370078740157
        },
        {
          "duration": 0.6945789667968754,
          "durationTicks": 1707,
          "midi": 45,
          "name": "A2",
          "ticks": 16384,
          "time": 6.666656,
          "velocity": 0.5039370078740157
        },
        {
          "duration": 0.13875303320312504,
          "durationTicks": 341,
          "midi": 79,
          "name": "G5",
          "ticks": 17067,
          "time": 6.944568966796875,
          "velocity": 0.5039370078740157
        },
        {
          "duration": 0.13875303320312504,
          "durationTicks": 341,
          "midi": 84,
          "name": "C6",
          "ticks": 17067,
          "time": 6.944568966796875,
          "velocity": 0.5039370078740157
        },
        {
          "duration": 0.13875303320312504,
          "durationTicks": 341,
          "midi": 88,
          "name": "E6",
          "ticks": 17067,
          "time": 6.944568966796875,
          "velocity": 0.5039370078740157
        },
        {
          "duration": 0.4166660000000002,
          "durationTicks": 1024,
          "midi": 79,
          "name": "G5",
          "ticks": 17408,
          "time": 7.083322,
          "velocity": 0.5039370078740157
        },
        {
          "duration": 0.4166660000000002,
          "durationTicks": 1024,
          "midi": 83,
          "name": "B5",
          "ticks": 17408,
          "time": 7.083322,
          "velocity": 0.5039370078740157
        },
        {
          "duration": 0.4166660000000002,
          "durationTicks": 1024,
          "midi": 86,
          "name": "D6",
          "ticks": 17408,
          "time": 7.083322,
          "velocity": 0.5039370078740157
        },
        {
          "duration": 0.13875303320312504,
          "durationTicks": 341,
          "midi": 45,
          "name": "A2",
          "ticks": 18091,
          "time": 7.361234966796875,
          "velocity": 0.5039370078740157
        },
        {
          "duration": 0.4166659999999993,
          "durationTicks": 1024,
          "midi": 79,
          "name": "G5",
          "ticks": 18432,
          "time": 7.499988,
          "velocity": 0.5039370078740157
        },
        {
          "duration": 0.4166659999999993,
          "durationTicks": 1024,
          "midi": 81,
          "name": "A5",
          "ticks": 18432,
          "time": 7.499988,
          "velocity": 0.5039370078740157
        },
        {
          "duration": 0.4166659999999993,
          "durationTicks": 1024,
          "midi": 84,
          "name": "C6",
          "ticks": 18432,
          "time": 7.499988,
          "velocity": 0.5039370078740157
        },
        {
          "duration": 0.6945789667968754,
          "durationTicks": 1707,
          "midi": 52,
          "name": "E3",
          "ticks": 18432,
          "time": 7.499988,
          "velocity": 0.5039370078740157
        },
        {
          "duration": 0.27791296679687605,
          "durationTicks": 683,
          "midi": 79,
          "name": "G5",
          "ticks": 19456,
          "time": 7.916653999999999,
          "velocity": 0.5039370078740157
        },
        {
          "duration": 0.27791296679687605,
          "durationTicks": 683,
          "midi": 83,
          "name": "B5",
          "ticks": 19456,
          "time": 7.916653999999999,
          "velocity": 0.5039370078740157
        },
        {
          "duration": 0.27791296679687605,
          "durationTicks": 683,
          "midi": 86,
          "name": "D6",
          "ticks": 19456,
          "time": 7.916653999999999,
          "velocity": 0.5039370078740157
        },
        {
          "duration": 0.5554190332031244,
          "durationTicks": 1365,
          "midi": 79,
          "name": "G5",
          "ticks": 20139,
          "time": 8.194566966796875,
          "velocity": 0.5039370078740157
        },
        {
          "duration": 0.5554190332031244,
          "durationTicks": 1365,
          "midi": 81,
          "name": "A5",
          "ticks": 20139,
          "time": 8.194566966796875,
          "velocity": 0.5039370078740157
        },
        {
          "duration": 0.5554190332031244,
          "durationTicks": 1365,
          "midi": 84,
          "name": "C6",
          "ticks": 20139,
          "time": 8.194566966796875,
          "velocity": 0.5039370078740157
        },
        {
          "duration": 0.13875303320312504,
          "durationTicks": 341,
          "midi": 52,
          "name": "E3",
          "ticks": 20139,
          "time": 8.194566966796875,
          "velocity": 0.5039370078740157
        },
        {
          "duration": 0.6945789667968736,
          "durationTicks": 1707,
          "midi": 50,
          "name": "D3",
          "ticks": 20480,
          "time": 8.33332,
          "velocity": 0.5039370078740157
        },
        {
          "duration": 0.2779129667968743,
          "durationTicks": 683,
          "midi": 79,
          "name": "G5",
          "ticks": 21504,
          "time": 8.749986,
          "velocity": 0.5039370078740157
        },
        {
          "duration": 0.2779129667968743,
          "durationTicks": 683,
          "midi": 81,
          "name": "A5",
          "ticks": 21504,
          "time": 8.749986,
          "velocity": 0.5039370078740157
        },
        {
          "duration": 0.2779129667968743,
          "durationTicks": 683,
          "midi": 84,
          "name": "C6",
          "ticks": 21504,
          "time": 8.749986,
          "velocity": 0.5039370078740157
        },
        {
          "duration": 0.13875303320312504,
          "durationTicks": 341,
          "midi": 79,
          "name": "G5",
          "ticks": 22187,
          "time": 9.027898966796874,
          "velocity": 0.5039370078740157
        },
        {
          "duration": 0.13875303320312504,
          "durationTicks": 341,
          "midi": 83,
          "name": "B5",
          "ticks": 22187,
          "time": 9.027898966796874,
          "velocity": 0.5039370078740157
        },
        {
          "duration": 0.13875303320312504,
          "durationTicks": 341,
          "midi": 86,
          "name": "D6",
          "ticks": 22187,
          "time": 9.027898966796874,
          "velocity": 0.5039370078740157
        },
        {
          "duration": 0.13875303320312504,
          "durationTicks": 341,
          "midi": 50,
          "name": "D3",
          "ticks": 22187,
          "time": 9.027898966796874,
          "velocity": 0.5039370078740157
        },
        {
          "duration": 0.6945789667968754,
          "durationTicks": 1707,
          "midi": 43,
          "name": "G2",
          "ticks": 22528,
          "time": 9.166652,
          "velocity": 0.5039370078740157
        },
        {
          "duration": 0.13875303320312504,
          "durationTicks": 341,
          "midi": 79,
          "name": "G5",
          "ticks": 23211,
          "time": 9.444564966796875,
          "velocity": 0.5039370078740157
        },
        {
          "duration": 0.13875303320312504,
          "durationTicks": 341,
          "midi": 83,
          "name": "B5",
          "ticks": 23211,
          "time": 9.444564966796875,
          "velocity": 0.5039370078740157
        },
        {
          "duration": 0.13875303320312504,
          "durationTicks": 341,
          "midi": 86,
          "name": "D6",
          "ticks": 23211,
          "time": 9.444564966796875,
          "velocity": 0.5039370078740157
        },
        {
          "duration": 0.4166659999999993,
          "durationTicks": 1024,
          "midi": 79,
          "name": "G5",
          "ticks": 24235,
          "time": 9.861230966796874,
          "velocity": 0.5039370078740157
        },
        {
          "duration": 0.4166659999999993,
          "durationTicks": 1024,
          "midi": 84,
          "name": "C6",
          "ticks": 24235,
          "time": 9.861230966796874,
          "velocity": 0.5039370078740157
        },
        {
          "duration": 0.4166659999999993,
          "durationTicks": 1024,
          "midi": 88,
          "name": "E6",
          "ticks": 24235,
          "time": 9.861230966796874,
          "velocity": 0.5039370078740157
        },
        {
          "duration": 0.8333320000000004,
          "durationTicks": 2048,
          "midi": 48,
          "name": "C3",
          "ticks": 24235,
          "time": 9.861230966796874,
          "velocity": 0.5039370078740157
        },
        {
          "duration": 0.13875303320312504,
          "durationTicks": 341,
          "midi": 79,
          "name": "G5",
          "ticks": 25259,
          "time": 10.277896966796874,
          "velocity": 0.5039370078740157
        },
        {
          "duration": 0.13875303320312504,
          "durationTicks": 341,
          "midi": 84,
          "name": "C6",
          "ticks": 25259,
          "time": 10.277896966796874,
          "velocity": 0.5039370078740157
        },
        {
          "duration": 0.13875303320312504,
          "durationTicks": 341,
          "midi": 88,
          "name": "E6",
          "ticks": 25259,
          "time": 10.277896966796874,
          "velocity": 0.5039370078740157
        },
        {
          "duration": 0.4166660000000011,
          "durationTicks": 1024,
          "midi": 79,
          "name": "G5",
          "ticks": 25600,
          "time": 10.416649999999999,
          "velocity": 0.5039370078740157
        },
        {
          "duration": 0.4166660000000011,
          "durationTicks": 1024,
          "midi": 83,
          "name": "B5",
          "ticks": 25600,
          "time": 10.416649999999999,
          "velocity": 0.5039370078740157
        },
        {
          "duration": 0.4166660000000011,
          "durationTicks": 1024,
          "midi": 86,
          "name": "D6",
          "ticks": 25600,
          "time": 10.416649999999999,
          "velocity": 0.5039370078740157
        },
        {
          "duration": 0.13875303320312504,
          "durationTicks": 341,
          "midi": 48,
          "name": "C3",
          "ticks": 26283,
          "time": 10.694562966796875,
          "velocity": 0.5039370078740157
        },
        {
          "duration": 0.4166659999999993,
          "durationTicks": 1024,
          "midi": 79,
          "name": "G5",
          "ticks": 26624,
          "time": 10.833316,
          "velocity": 0.5039370078740157
        },
        {
          "duration": 0.4166659999999993,
          "durationTicks": 1024,
          "midi": 81,
          "name": "A5",
          "ticks": 26624,
          "time": 10.833316,
          "velocity": 0.5039370078740157
        },
        {
          "duration": 0.4166659999999993,
          "durationTicks": 1024,
          "midi": 84,
          "name": "C6",
          "ticks": 26624,
          "time": 10.833316,
          "velocity": 0.5039370078740157
        },
        {
          "duration": 0.6945789667968754,
          "durationTicks": 1707,
          "midi": 45,
          "name": "A2",
          "ticks": 26624,
          "time": 10.833316,
          "velocity": 0.5039370078740157
        },
        {
          "duration": 0.27791296679687605,
          "durationTicks": 683,
          "midi": 79,
          "name": "G5",
          "ticks": 27648,
          "time": 11.249982,
          "velocity": 0.5039370078740157
        },
        {
          "duration": 0.27791296679687605,
          "durationTicks": 683,
          "midi": 83,
          "name": "B5",
          "ticks": 27648,
          "time": 11.249982,
          "velocity": 0.5039370078740157
        },
        {
          "duration": 0.27791296679687605,
          "durationTicks": 683,
          "midi": 86,
          "name": "D6",
          "ticks": 27648,
          "time": 11.249982,
          "velocity": 0.5039370078740157
        },
        {
          "duration": 0.5554190332031244,
          "durationTicks": 1365,
          "midi": 79,
          "name": "G5",
          "ticks": 28331,
          "time": 11.527894966796875,
          "velocity": 0.5039370078740157
        },
        {
          "duration": 0.5554190332031244,
          "durationTicks": 1365,
          "midi": 81,
          "name": "A5",
          "ticks": 28331,
          "time": 11.527894966796875,
          "velocity": 0.5039370078740157
        },
        {
          "duration": 0.5554190332031244,
          "durationTicks": 1365,
          "midi": 84,
          "name": "C6",
          "ticks": 28331,
          "time": 11.527894966796875,
          "velocity": 0.5039370078740157
        },
        {
          "duration": 0.13875303320312327,
          "durationTicks": 341,
          "midi": 45,
          "name": "A2",
          "ticks": 28331,
          "time": 11.527894966796875,
          "velocity": 0.5039370078740157
        },
        {
          "duration": 0.6945789667968754,
          "durationTicks": 1707,
          "midi": 50,
          "name": "D3",
          "ticks": 28672,
          "time": 11.666647999999999,
          "velocity": 0.5039370078740157
        },
        {
          "duration": 0.2779129667968743,
          "durationTicks": 683,
          "midi": 79,
          "name": "G5",
          "ticks": 29696,
          "time": 12.083314,
          "velocity": 0.5039370078740157
        },
        {
          "duration": 0.2779129667968743,
          "durationTicks": 683,
          "midi": 81,
          "name": "A5",
          "ticks": 29696,
          "time": 12.083314,
          "velocity": 0.5039370078740157
        },
        {
          "duration": 0.2779129667968743,
          "durationTicks": 683,
          "midi": 84,
          "name": "C6",
          "ticks": 29696,
          "time": 12.083314,
          "velocity": 0.5039370078740157
        },
        {
          "duration": 0.13875303320312504,
          "durationTicks": 341,
          "midi": 79,
          "name": "G5",
          "ticks": 30379,
          "time": 12.361226966796874,
          "velocity": 0.5039370078740157
        },
        {
          "duration": 0.13875303320312504,
          "durationTicks": 341,
          "midi": 83,
          "name": "B5",
          "ticks": 30379,
          "time": 12.361226966796874,
          "velocity": 0.5039370078740157
        },
        {
          "duration": 0.13875303320312504,
          "durationTicks": 341,
          "midi": 86,
          "name": "D6",
          "ticks": 30379,
          "time": 12.361226966796874,
          "velocity": 0.5039370078740157
        },
        {
          "duration": 0.13875303320312504,
          "durationTicks": 341,
          "midi": 50,
          "name": "D3",
          "ticks": 30379,
          "time": 12.361226966796874,
          "velocity": 0.5039370078740157
        },
        {
          "duration": 0.6945789667968754,
          "durationTicks": 1707,
          "midi": 43,
          "name": "G2",
          "ticks": 30720,
          "time": 12.499979999999999,
          "velocity": 0.5039370078740157
        },
        {
          "duration": 0.13875303320312504,
          "durationTicks": 341,
          "midi": 79,
          "name": "G5",
          "ticks": 31403,
          "time": 12.777892966796875,
          "velocity": 0.5039370078740157
        },
        {
          "duration": 0.13875303320312504,
          "durationTicks": 341,
          "midi": 83,
          "name": "B5",
          "ticks": 31403,
          "time": 12.777892966796875,
          "velocity": 0.5039370078740157
        },
        {
          "duration": 0.13875303320312504,
          "durationTicks": 341,
          "midi": 86,
          "name": "D6",
          "ticks": 31403,
          "time": 12.777892966796875,
          "velocity": 0.5039370078740157
        },
        {
          "duration": 0.4166659999999993,
          "durationTicks": 1024,
          "midi": 79,
          "name": "G5",
          "ticks": 32427,
          "time": 13.194558966796874,
          "velocity": 0.5039370078740157
        },
        {
          "duration": 0.4166659999999993,
          "durationTicks": 1024,
          "midi": 84,
          "name": "C6",
          "ticks": 32427,
          "time": 13.194558966796874,
          "velocity": 0.5039370078740157
        },
        {
          "duration": 0.4166659999999993,
          "durationTicks": 1024,
          "midi": 88,
          "name": "E6",
          "ticks": 32427,
          "time": 13.194558966796874,
          "velocity": 0.5039370078740157
        },
        {
          "duration": 0.13875303320312504,
          "durationTicks": 341,
          "midi": 43,
          "name": "G2",
          "ticks": 32427,
          "time": 13.194558966796874,
          "velocity": 0.5039370078740157
        },
        {
          "duration": 0.6945789667968754,
          "durationTicks": 1707,
          "midi": 45,
          "name": "A2",
          "ticks": 32768,
          "time": 13.333312,
          "velocity": 0.5039370078740157
        },
        {
          "duration": 0.13875303320312504,
          "durationTicks": 341,
          "midi": 79,
          "name": "G5",
          "ticks": 33451,
          "time": 13.611224966796874,
          "velocity": 0.5039370078740157
        },
        {
          "duration": 0.13875303320312504,
          "durationTicks": 341,
          "midi": 84,
          "name": "C6",
          "ticks": 33451,
          "time": 13.611224966796874,
          "velocity": 0.5039370078740157
        },
        {
          "duration": 0.13875303320312504,
          "durationTicks": 341,
          "midi": 88,
          "name": "E6",
          "ticks": 33451,
          "time": 13.611224966796874,
          "velocity": 0.5039370078740157
        },
        {
          "duration": 0.4166660000000011,
          "durationTicks": 1024,
          "midi": 79,
          "name": "G5",
          "ticks": 33792,
          "time": 13.749977999999999,
          "velocity": 0.5039370078740157
        },
        {
          "duration": 0.4166660000000011,
          "durationTicks": 1024,
          "midi": 83,
          "name": "B5",
          "ticks": 33792,
          "time": 13.749977999999999,
          "velocity": 0.5039370078740157
        },
        {
          "duration": 0.4166660000000011,
          "durationTicks": 1024,
          "midi": 86,
          "name": "D6",
          "ticks": 33792,
          "time": 13.749977999999999,
          "velocity": 0.5039370078740157
        },
        {
          "duration": 0.13875303320312504,
          "durationTicks": 341,
          "midi": 45,
          "name": "A2",
          "ticks": 34475,
          "time": 14.027890966796875,
          "velocity": 0.5039370078740157
        },
        {
          "duration": 0.4166659999999993,
          "durationTicks": 1024,
          "midi": 79,
          "name": "G5",
          "ticks": 34816,
          "time": 14.166644,
          "velocity": 0.5039370078740157
        },
        {
          "duration": 0.4166659999999993,
          "durationTicks": 1024,
          "midi": 81,
          "name": "A5",
          "ticks": 34816,
          "time": 14.166644,
          "velocity": 0.5039370078740157
        },
        {
          "duration": 0.4166659999999993,
          "durationTicks": 1024,
          "midi": 84,
          "name": "C6",
          "ticks": 34816,
          "time": 14.166644,
          "velocity": 0.5039370078740157
        },
        {
          "duration": 0.6945789667968754,
          "durationTicks": 1707,
          "midi": 52,
          "name": "E3",
          "ticks": 34816,
          "time": 14.166644,
          "velocity": 0.5039370078740157
        },
        {
          "duration": 0.27791296679687605,
          "durationTicks": 683,
          "midi": 79,
          "name": "G5",
          "ticks": 35840,
          "time": 14.583309999999999,
          "velocity": 0.5039370078740157
        },
        {
          "duration": 0.27791296679687605,
          "durationTicks": 683,
          "midi": 83,
          "name": "B5",
          "ticks": 35840,
          "time": 14.583309999999999,
          "velocity": 0.5039370078740157
        },
        {
          "duration": 0.27791296679687605,
          "durationTicks": 683,
          "midi": 86,
          "name": "D6",
          "ticks": 35840,
          "time": 14.583309999999999,
          "velocity": 0.5039370078740157
        },
        {
          "duration": 0.5554190332031244,
          "durationTicks": 1365,
          "midi": 79,
          "name": "G5",
          "ticks": 36523,
          "time": 14.861222966796875,
          "velocity": 0.5039370078740157
        },
        {
          "duration": 0.5554190332031244,
          "durationTicks": 1365,
          "midi": 81,
          "name": "A5",
          "ticks": 36523,
          "time": 14.861222966796875,
          "velocity": 0.5039370078740157
        },
        {
          "duration": 0.5554190332031244,
          "durationTicks": 1365,
          "midi": 84,
          "name": "C6",
          "ticks": 36523,
          "time": 14.861222966796875,
          "velocity": 0.5039370078740157
        },
        {
          "duration": 0.13875303320312504,
          "durationTicks": 341,
          "midi": 52,
          "name": "E3",
          "ticks": 36523,
          "time": 14.861222966796875,
          "velocity": 0.5039370078740157
        },
        {
          "duration": 0.6945789667968736,
          "durationTicks": 1707,
          "midi": 50,
          "name": "D3",
          "ticks": 36864,
          "time": 14.999976,
          "velocity": 0.5039370078740157
        },
        {
          "duration": 0.2779129667968743,
          "durationTicks": 683,
          "midi": 79,
          "name": "G5",
          "ticks": 37888,
          "time": 15.416642,
          "velocity": 0.5039370078740157
        },
        {
          "duration": 0.2779129667968743,
          "durationTicks": 683,
          "midi": 81,
          "name": "A5",
          "ticks": 37888,
          "time": 15.416642,
          "velocity": 0.5039370078740157
        },
        {
          "duration": 0.2779129667968743,
          "durationTicks": 683,
          "midi": 84,
          "name": "C6",
          "ticks": 37888,
          "time": 15.416642,
          "velocity": 0.5039370078740157
        },
        {
          "duration": 0.13875303320312504,
          "durationTicks": 341,
          "midi": 79,
          "name": "G5",
          "ticks": 38571,
          "time": 15.694554966796874,
          "velocity": 0.5039370078740157
        },
        {
          "duration": 0.13875303320312504,
          "durationTicks": 341,
          "midi": 83,
          "name": "B5",
          "ticks": 38571,
          "time": 15.694554966796874,
          "velocity": 0.5039370078740157
        },
        {
          "duration": 0.13875303320312504,
          "durationTicks": 341,
          "midi": 86,
          "name": "D6",
          "ticks": 38571,
          "time": 15.694554966796874,
          "velocity": 0.5039370078740157
        },
        {
          "duration": 0.13875303320312504,
          "durationTicks": 341,
          "midi": 50,
          "name": "D3",
          "ticks": 38571,
          "time": 15.694554966796874,
          "velocity": 0.5039370078740157
        },
        {
          "duration": 0.27791296679687605,
          "durationTicks": 683,
          "midi": 43,
          "name": "G2",
          "ticks": 38912,
          "time": 15.833307999999999,
          "velocity": 0.5039370078740157
        },
        {
          "duration": 0.13875303320312327,
          "durationTicks": 341,
          "midi": 79,
          "name": "G5",
          "ticks": 39595,
          "time": 16.111220966796875,
          "velocity": 0.5039370078740157
        },
        {
          "duration": 0.13875303320312327,
          "durationTicks": 341,
          "midi": 83,
          "name": "B5",
          "ticks": 39595,
          "time": 16.111220966796875,
          "velocity": 0.5039370078740157
        },
        {
          "duration": 0.13875303320312327,
          "durationTicks": 341,
          "midi": 86,
          "name": "D6",
          "ticks": 39595,
          "time": 16.111220966796875,
          "velocity": 0.5039370078740157
        },
        {
          "duration": 0.13875303320312327,
          "durationTicks": 341,
          "midi": 45,
          "name": "A2",
          "ticks": 39595,
          "time": 16.111220966796875,
          "velocity": 0.5039370078740157
        },
        {
          "duration": 0.27791296679687605,
          "durationTicks": 683,
          "midi": 43,
          "name": "G2",
          "ticks": 39936,
          "time": 16.249973999999998,
          "velocity": 0.5039370078740157
        },
        {
          "duration": 0.4166659999999993,
          "durationTicks": 1024,
          "midi": 67,
          "name": "G4",
          "ticks": 40619,
          "time": 16.527886966796874,
          "velocity": 0.5039370078740157
        },
        {
          "duration": 0.4166659999999993,
          "durationTicks": 1024,
          "midi": 72,
          "name": "C5",
          "ticks": 40619,
          "time": 16.527886966796874,
          "velocity": 0.5039370078740157
        },
        {
          "duration": 0.4166659999999993,
          "durationTicks": 1024,
          "midi": 76,
          "name": "E5",
          "ticks": 40619,
          "time": 16.527886966796874,
          "velocity": 0.5039370078740157
        },
        {
          "duration": 0.8333319999999986,
          "durationTicks": 2048,
          "midi": 48,
          "name": "C3",
          "ticks": 40619,
          "time": 16.527886966796874,
          "velocity": 0.5039370078740157
        },
        {
          "duration": 0.13875303320312682,
          "durationTicks": 341,
          "midi": 67,
          "name": "G4",
          "ticks": 41643,
          "time": 16.944552966796874,
          "velocity": 0.5039370078740157
        },
        {
          "duration": 0.13875303320312682,
          "durationTicks": 341,
          "midi": 72,
          "name": "C5",
          "ticks": 41643,
          "time": 16.944552966796874,
          "velocity": 0.5039370078740157
        },
        {
          "duration": 0.13875303320312682,
          "durationTicks": 341,
          "midi": 76,
          "name": "E5",
          "ticks": 41643,
          "time": 16.944552966796874,
          "velocity": 0.5039370078740157
        },
        {
          "duration": 0.4166659999999993,
          "durationTicks": 1024,
          "midi": 67,
          "name": "G4",
          "ticks": 41984,
          "time": 17.083306,
          "velocity": 0.5039370078740157
        },
        {
          "duration": 0.4166659999999993,
          "durationTicks": 1024,
          "midi": 71,
          "name": "B4",
          "ticks": 41984,
          "time": 17.083306,
          "velocity": 0.5039370078740157
        },
        {
          "duration": 0.4166659999999993,
          "durationTicks": 1024,
          "midi": 74,
          "name": "D5",
          "ticks": 41984,
          "time": 17.083306,
          "velocity": 0.5039370078740157
        },
        {
          "duration": 0.13875303320312682,
          "durationTicks": 341,
          "midi": 48,
          "name": "C3",
          "ticks": 42667,
          "time": 17.361218966796873,
          "velocity": 0.5039370078740157
        },
        {
          "duration": 0.4166659999999993,
          "durationTicks": 1024,
          "midi": 67,
          "name": "G4",
          "ticks": 43008,
          "time": 17.499972,
          "velocity": 0.5039370078740157
        },
        {
          "duration": 0.4166659999999993,
          "durationTicks": 1024,
          "midi": 69,
          "name": "A4",
          "ticks": 43008,
          "time": 17.499972,
          "velocity": 0.5039370078740157
        },
        {
          "duration": 0.4166659999999993,
          "durationTicks": 1024,
          "midi": 72,
          "name": "C5",
          "ticks": 43008,
          "time": 17.499972,
          "velocity": 0.5039370078740157
        },
        {
          "duration": 0.6945789667968754,
          "durationTicks": 1707,
          "midi": 45,
          "name": "A2",
          "ticks": 43008,
          "time": 17.499972,
          "velocity": 0.5039370078740157
        },
        {
          "duration": 0.27791296679687605,
          "durationTicks": 683,
          "midi": 67,
          "name": "G4",
          "ticks": 44032,
          "time": 17.916638,
          "velocity": 0.5039370078740157
        },
        {
          "duration": 0.27791296679687605,
          "durationTicks": 683,
          "midi": 71,
          "name": "B4",
          "ticks": 44032,
          "time": 17.916638,
          "velocity": 0.5039370078740157
        },
        {
          "duration": 0.27791296679687605,
          "durationTicks": 683,
          "midi": 74,
          "name": "D5",
          "ticks": 44032,
          "time": 17.916638,
          "velocity": 0.5039370078740157
        },
        {
          "duration": 0.5554190332031226,
          "durationTicks": 1365,
          "midi": 67,
          "name": "G4",
          "ticks": 44715,
          "time": 18.194550966796875,
          "velocity": 0.5039370078740157
        },
        {
          "duration": 0.5554190332031226,
          "durationTicks": 1365,
          "midi": 69,
          "name": "A4",
          "ticks": 44715,
          "time": 18.194550966796875,
          "velocity": 0.5039370078740157
        },
        {
          "duration": 0.5554190332031226,
          "durationTicks": 1365,
          "midi": 72,
          "name": "C5",
          "ticks": 44715,
          "time": 18.194550966796875,
          "velocity": 0.5039370078740157
        },
        {
          "duration": 0.13875303320312327,
          "durationTicks": 341,
          "midi": 45,
          "name": "A2",
          "ticks": 44715,
          "time": 18.194550966796875,
          "velocity": 0.5039370078740157
        },
        {
          "duration": 0.6945789667968754,
          "durationTicks": 1707,
          "midi": 50,
          "name": "D3",
          "ticks": 45056,
          "time": 18.333304,
          "velocity": 0.5039370078740157
        },
        {
          "duration": 0.27791296679687605,
          "durationTicks": 683,
          "midi": 67,
          "name": "G4",
          "ticks": 46080,
          "time": 18.749969999999998,
          "velocity": 0.5039370078740157
        },
        {
          "duration": 0.27791296679687605,
          "durationTicks": 683,
          "midi": 69,
          "name": "A4",
          "ticks": 46080,
          "time": 18.749969999999998,
          "velocity": 0.5039370078740157
        },
        {
          "duration": 0.27791296679687605,
          "durationTicks": 683,
          "midi": 72,
          "name": "C5",
          "ticks": 46080,
          "time": 18.749969999999998,
          "velocity": 0.5039370078740157
        },
        {
          "duration": 0.13875303320312682,
          "durationTicks": 341,
          "midi": 67,
          "name": "G4",
          "ticks": 46763,
          "time": 19.027882966796874,
          "velocity": 0.5039370078740157
        },
        {
          "duration": 0.13875303320312682,
          "durationTicks": 341,
          "midi": 71,
          "name": "B4",
          "ticks": 46763,
          "time": 19.027882966796874,
          "velocity": 0.5039370078740157
        },
        {
          "duration": 0.13875303320312682,
          "durationTicks": 341,
          "midi": 74,
          "name": "D5",
          "ticks": 46763,
          "time": 19.027882966796874,
          "velocity": 0.5039370078740157
        },
        {
          "duration": 0.13875303320312682,
          "durationTicks": 341,
          "midi": 50,
          "name": "D3",
          "ticks": 46763,
          "time": 19.027882966796874,
          "velocity": 0.5039370078740157
        },
        {
          "duration": 0.6945789667968754,
          "durationTicks": 1707,
          "midi": 43,
          "name": "G2",
          "ticks": 47104,
          "time": 19.166636,
          "velocity": 0.5039370078740157
        },
        {
          "duration": 0.13875303320312682,
          "durationTicks": 341,
          "midi": 67,
          "name": "G4",
          "ticks": 47787,
          "time": 19.444548966796873,
          "velocity": 0.5039370078740157
        },
        {
          "duration": 0.13875303320312682,
          "durationTicks": 341,
          "midi": 71,
          "name": "B4",
          "ticks": 47787,
          "time": 19.444548966796873,
          "velocity": 0.5039370078740157
        },
        {
          "duration": 0.13875303320312682,
          "durationTicks": 341,
          "midi": 74,
          "name": "D5",
          "ticks": 47787,
          "time": 19.444548966796873,
          "velocity": 0.5039370078740157
        },
        {
          "duration": 0.4166659999999993,
          "durationTicks": 1024,
          "midi": 67,
          "name": "G4",
          "ticks": 48811,
          "time": 19.861214966796876,
          "velocity": 0.5039370078740157
        },
        {
          "duration": 0.4166659999999993,
          "durationTicks": 1024,
          "midi": 72,
          "name": "C5",
          "ticks": 48811,
          "time": 19.861214966796876,
          "velocity": 0.5039370078740157
        },
        {
          "duration": 0.4166659999999993,
          "durationTicks": 1024,
          "midi": 76,
          "name": "E5",
          "ticks": 48811,
          "time": 19.861214966796876,
          "velocity": 0.5039370078740157
        },
        {
          "duration": 0.13875303320312327,
          "durationTicks": 341,
          "midi": 43,
          "name": "G2",
          "ticks": 48811,
          "time": 19.861214966796876,
          "velocity": 0.5039370078740157
        },
        {
          "duration": 0.6945789667968754,
          "durationTicks": 1707,
          "midi": 45,
          "name": "A2",
          "ticks": 49152,
          "time": 19.999968,
          "velocity": 0.5039370078740157
        },
        {
          "duration": 0.13875303320312327,
          "durationTicks": 341,
          "midi": 67,
          "name": "G4",
          "ticks": 49835,
          "time": 20.277880966796875,
          "velocity": 0.5039370078740157
        },
        {
          "duration": 0.13875303320312327,
          "durationTicks": 341,
          "midi": 72,
          "name": "C5",
          "ticks": 49835,
          "time": 20.277880966796875,
          "velocity": 0.5039370078740157
        },
        {
          "duration": 0.13875303320312327,
          "durationTicks": 341,
          "midi": 76,
          "name": "E5",
          "ticks": 49835,
          "time": 20.277880966796875,
          "velocity": 0.5039370078740157
        },
        {
          "duration": 0.4166659999999993,
          "durationTicks": 1024,
          "midi": 67,
          "name": "G4",
          "ticks": 50176,
          "time": 20.416634,
          "velocity": 0.5039370078740157
        },
        {
          "duration": 0.4166659999999993,
          "durationTicks": 1024,
          "midi": 71,
          "name": "B4",
          "ticks": 50176,
          "time": 20.416634,
          "velocity": 0.5039370078740157
        },
        {
          "duration": 0.4166659999999993,
          "durationTicks": 1024,
          "midi": 74,
          "name": "D5",
          "ticks": 50176,
          "time": 20.416634,
          "velocity": 0.5039370078740157
        },
        {
          "duration": 0.13875303320312327,
          "durationTicks": 341,
          "midi": 45,
          "name": "A2",
          "ticks": 50859,
          "time": 20.694546966796874,
          "velocity": 0.5039370078740157
        },
        {
          "duration": 0.41666600000000287,
          "durationTicks": 1024,
          "midi": 67,
          "name": "G4",
          "ticks": 51200,
          "time": 20.833299999999998,
          "velocity": 0.5039370078740157
        },
        {
          "duration": 0.41666600000000287,
          "durationTicks": 1024,
          "midi": 69,
          "name": "A4",
          "ticks": 51200,
          "time": 20.833299999999998,
          "velocity": 0.5039370078740157
        },
        {
          "duration": 0.41666600000000287,
          "durationTicks": 1024,
          "midi": 72,
          "name": "C5",
          "ticks": 51200,
          "time": 20.833299999999998,
          "velocity": 0.5039370078740157
        },
        {
          "duration": 0.6945789667968754,
          "durationTicks": 1707,
          "midi": 52,
          "name": "E3",
          "ticks": 51200,
          "time": 20.833299999999998,
          "velocity": 0.5039370078740157
        },
        {
          "duration": 0.2779129667968725,
          "durationTicks": 683,
          "midi": 67,
          "name": "G4",
          "ticks": 52224,
          "time": 21.249966,
          "velocity": 0.5039370078740157
        },
        {
          "duration": 0.2779129667968725,
          "durationTicks": 683,
          "midi": 71,
          "name": "B4",
          "ticks": 52224,
          "time": 21.249966,
          "velocity": 0.5039370078740157
        },
        {
          "duration": 0.2779129667968725,
          "durationTicks": 683,
          "midi": 74,
          "name": "D5",
          "ticks": 52224,
          "time": 21.249966,
          "velocity": 0.5039370078740157
        },
        {
          "duration": 0.5554190332031261,
          "durationTicks": 1365,
          "midi": 67,
          "name": "G4",
          "ticks": 52907,
          "time": 21.527878966796873,
          "velocity": 0.5039370078740157
        },
        {
          "duration": 0.5554190332031261,
          "durationTicks": 1365,
          "midi": 69,
          "name": "A4",
          "ticks": 52907,
          "time": 21.527878966796873,
          "velocity": 0.5039370078740157
        },
        {
          "duration": 0.5554190332031261,
          "durationTicks": 1365,
          "midi": 72,
          "name": "C5",
          "ticks": 52907,
          "time": 21.527878966796873,
          "velocity": 0.5039370078740157
        },
        {
          "duration": 0.13875303320312682,
          "durationTicks": 341,
          "midi": 52,
          "name": "E3",
          "ticks": 52907,
          "time": 21.527878966796873,
          "velocity": 0.5039370078740157
        },
        {
          "duration": 0.6945789667968754,
          "durationTicks": 1707,
          "midi": 50,
          "name": "D3",
          "ticks": 53248,
          "time": 21.666632,
          "velocity": 0.5039370078740157
        },
        {
          "duration": 0.27791296679687605,
          "durationTicks": 683,
          "midi": 67,
          "name": "G4",
          "ticks": 54272,
          "time": 22.083298,
          "velocity": 0.5039370078740157
        },
        {
          "duration": 0.27791296679687605,
          "durationTicks": 683,
          "midi": 69,
          "name": "A4",
          "ticks": 54272,
          "time": 22.083298,
          "velocity": 0.5039370078740157
        },
        {
          "duration": 0.27791296679687605,
          "durationTicks": 683,
          "midi": 72,
          "name": "C5",
          "ticks": 54272,
          "time": 22.083298,
          "velocity": 0.5039370078740157
        },
        {
          "duration": 0.13875303320312327,
          "durationTicks": 341,
          "midi": 67,
          "name": "G4",
          "ticks": 54955,
          "time": 22.361210966796875,
          "velocity": 0.5039370078740157
        },
        {
          "duration": 0.13875303320312327,
          "durationTicks": 341,
          "midi": 71,
          "name": "B4",
          "ticks": 54955,
          "time": 22.361210966796875,
          "velocity": 0.5039370078740157
        },
        {
          "duration": 0.13875303320312327,
          "durationTicks": 341,
          "midi": 74,
          "name": "D5",
          "ticks": 54955,
          "time": 22.361210966796875,
          "velocity": 0.5039370078740157
        },
        {
          "duration": 0.13875303320312327,
          "durationTicks": 341,
          "midi": 50,
          "name": "D3",
          "ticks": 54955,
          "time": 22.361210966796875,
          "velocity": 0.5039370078740157
        },
        {
          "duration": 0.6945789667968754,
          "durationTicks": 1707,
          "midi": 43,
          "name": "G2",
          "ticks": 55296,
          "time": 22.499964,
          "velocity": 0.5039370078740157
        },
        {
          "duration": 0.13875303320312327,
          "durationTicks": 341,
          "midi": 67,
          "name": "G4",
          "ticks": 55979,
          "time": 22.777876966796875,
          "velocity": 0.5039370078740157
        },
        {
          "duration": 0.13875303320312327,
          "durationTicks": 341,
          "midi": 71,
          "name": "B4",
          "ticks": 55979,
          "time": 22.777876966796875,
          "velocity": 0.5039370078740157
        },
        {
          "duration": 0.13875303320312327,
          "durationTicks": 341,
          "midi": 74,
          "name": "D5",
          "ticks": 55979,
          "time": 22.777876966796875,
          "velocity": 0.5039370078740157
        },
        {
          "duration": 0.4166659999999993,
          "durationTicks": 1024,
          "midi": 67,
          "name": "G4",
          "ticks": 57003,
          "time": 23.194542966796874,
          "velocity": 0.5039370078740157
        },
        {
          "duration": 0.4166659999999993,
          "durationTicks": 1024,
          "midi": 72,
          "name": "C5",
          "ticks": 57003,
          "time": 23.194542966796874,
          "velocity": 0.5039370078740157
        },
        {
          "duration": 0.4166659999999993,
          "durationTicks": 1024,
          "midi": 76,
          "name": "E5",
          "ticks": 57003,
          "time": 23.194542966796874,
          "velocity": 0.5039370078740157
        },
        {
          "duration": 0.8333319999999986,
          "durationTicks": 2048,
          "midi": 48,
          "name": "C3",
          "ticks": 57003,
          "time": 23.194542966796874,
          "velocity": 0.5039370078740157
        },
        {
          "duration": 0.13875303320312682,
          "durationTicks": 341,
          "midi": 67,
          "name": "G4",
          "ticks": 58027,
          "time": 23.611208966796873,
          "velocity": 0.5039370078740157
        },
        {
          "duration": 0.2779129667968725,
          "durationTicks": 683,
          "midi": 69,
          "name": "A4",
          "ticks": 58368,
          "time": 23.749962,
          "velocity": 0.5039370078740157
        },
        {
          "duration": 0.13875303320312682,
          "durationTicks": 341,
          "midi": 72,
          "name": "C5",
          "ticks": 59051,
          "time": 24.027874966796873,
          "velocity": 0.5039370078740157
        },
        {
          "duration": 0.13875303320312682,
          "durationTicks": 341,
          "midi": 48,
          "name": "C3",
          "ticks": 59051,
          "time": 24.027874966796873,
          "velocity": 0.5039370078740157
        },
        {
          "duration": 0.27791296679687605,
          "durationTicks": 683,
          "midi": 75,
          "name": "D#5",
          "ticks": 59392,
          "time": 24.166628,
          "velocity": 0.5039370078740157
        },
        {
          "duration": 0.6945789667968754,
          "durationTicks": 1707,
          "midi": 45,
          "name": "A2",
          "ticks": 59392,
          "time": 24.166628,
          "velocity": 0.5039370078740157
        },
        {
          "duration": 0.13875303320312327,
          "durationTicks": 341,
          "midi": 76,
          "name": "E5",
          "ticks": 60075,
          "time": 24.444540966796875,
          "velocity": 0.5039370078740157
        },
        {
          "duration": 0.27791296679687605,
          "durationTicks": 683,
          "midi": 77,
          "name": "F5",
          "ticks": 60416,
          "time": 24.583294,
          "velocity": 0.5039370078740157
        },
        {
          "duration": 0.13875303320312327,
          "durationTicks": 341,
          "midi": 78,
          "name": "F#5",
          "ticks": 61099,
          "time": 24.861206966796875,
          "velocity": 0.5039370078740157
        },
        {
          "duration": 0.13875303320312327,
          "durationTicks": 341,
          "midi": 45,
          "name": "A2",
          "ticks": 61099,
          "time": 24.861206966796875,
          "velocity": 0.5039370078740157
        },
        {
          "duration": 0.27791296679687605,
          "durationTicks": 683,
          "midi": 69,
          "name": "A4",
          "ticks": 61440,
          "time": 24.999959999999998,
          "velocity": 0.5039370078740157
        },
        {
          "duration": 0.27791296679687605,
          "durationTicks": 683,
          "midi": 72,
          "name": "C5",
          "ticks": 61440,
          "time": 24.999959999999998,
          "velocity": 0.5039370078740157
        },
        {
          "duration": 0.27791296679687605,
          "durationTicks": 683,
          "midi": 77,
          "name": "F5",
          "ticks": 61440,
          "time": 24.999959999999998,
          "velocity": 0.5039370078740157
        },
        {
          "duration": 0.27791296679687605,
          "durationTicks": 683,
          "midi": 79,
          "name": "G5",
          "ticks": 61440,
          "time": 24.999959999999998,
          "velocity": 0.5039370078740157
        },
        {
          "duration": 0.6945789667968754,
          "durationTicks": 1707,
          "midi": 50,
          "name": "D3",
          "ticks": 61440,
          "time": 24.999959999999998,
          "velocity": 0.5039370078740157
        },
        {
          "duration": 0.5554190332031261,
          "durationTicks": 1365,
          "midi": 69,
          "name": "A4",
          "ticks": 62123,
          "time": 25.277872966796874,
          "velocity": 0.5039370078740157
        },
        {
          "duration": 0.5554190332031261,
          "durationTicks": 1365,
          "midi": 72,
          "name": "C5",
          "ticks": 62123,
          "time": 25.277872966796874,
          "velocity": 0.5039370078740157
        },
        {
          "duration": 0.5554190332031261,
          "durationTicks": 1365,
          "midi": 76,
          "name": "E5",
          "ticks": 62123,
          "time": 25.277872966796874,
          "velocity": 0.5039370078740157
        },
        {
          "duration": 0.13875303320312682,
          "durationTicks": 341,
          "midi": 50,
          "name": "D3",
          "ticks": 63147,
          "time": 25.694538966796873,
          "velocity": 0.5039370078740157
        },
        {
          "duration": 0.13875303320312327,
          "durationTicks": 341,
          "midi": 75,
          "name": "D#5",
          "ticks": 63488,
          "time": 25.833292,
          "velocity": 0.5039370078740157
        },
        {
          "duration": 0.6945789667968754,
          "durationTicks": 1707,
          "midi": 43,
          "name": "G2",
          "ticks": 63488,
          "time": 25.833292,
          "velocity": 0.5039370078740157
        },
        {
          "duration": 0.13915993359374923,
          "durationTicks": 342,
          "midi": 74,
          "name": "D5",
          "ticks": 63829,
          "time": 25.972045033203123,
          "velocity": 0.5039370078740157
        },
        {
          "duration": 0.13875303320312682,
          "durationTicks": 341,
          "midi": 72,
          "name": "C5",
          "ticks": 64171,
          "time": 26.111204966796873,
          "velocity": 0.5039370078740157
        },
        {
          "duration": 0.27791296679687605,
          "durationTicks": 683,
          "midi": 74,
          "name": "D5",
          "ticks": 64512,
          "time": 26.249958,
          "velocity": 0.5039370078740157
        },
        {
          "duration": 0.13875303320312327,
          "durationTicks": 341,
          "midi": 72,
          "name": "C5",
          "ticks": 65195,
          "time": 26.527870966796876,
          "velocity": 0.5039370078740157
        },
        {
          "duration": 0.13875303320312327,
          "durationTicks": 341,
          "midi": 43,
          "name": "G2",
          "ticks": 65195,
          "time": 26.527870966796876,
          "velocity": 0.5039370078740157
        },
        {
          "duration": 0.6945789667968754,
          "durationTicks": 1707,
          "midi": 45,
          "name": "A2",
          "ticks": 65536,
          "time": 26.666624,
          "velocity": 0.5039370078740157
        },
        {
          "duration": 0.13875303320312327,
          "durationTicks": 341,
          "midi": 80,
          "name": "G#5",
          "ticks": 66219,
          "time": 26.944536966796875,
          "velocity": 0.5039370078740157
        },
        {
          "duration": 0.13875303320312682,
          "durationTicks": 341,
          "midi": 81,
          "name": "A5",
          "ticks": 66560,
          "time": 27.083289999999998,
          "velocity": 0.5039370078740157
        },
        {
          "duration": 0.13875303320312327,
          "durationTicks": 341,
          "midi": 79,
          "name": "G5",
          "ticks": 67243,
          "time": 27.361202966796874,
          "velocity": 0.5039370078740157
        },
        {
          "duration": 0.13875303320312327,
          "durationTicks": 341,
          "midi": 45,
          "name": "A2",
          "ticks": 67243,
          "time": 27.361202966796874,
          "velocity": 0.5039370078740157
        },
        {
          "duration": 0.27791296679687605,
          "durationTicks": 683,
          "midi": 75,
          "name": "D#5",
          "ticks": 67584,
          "time": 27.499955999999997,
          "velocity": 0.5039370078740157
        },
        {
          "duration": 0.6945789667968754,
          "durationTicks": 1707,
          "midi": 52,
          "name": "E3",
          "ticks": 67584,
          "time": 27.499955999999997,
          "velocity": 0.5039370078740157
        },
        {
          "duration": 0.13875303320312682,
          "durationTicks": 341,
          "midi": 74,
          "name": "D5",
          "ticks": 68267,
          "time": 27.777868966796873,
          "velocity": 0.5039370078740157
        },
        {
          "duration": 0.2779129667968725,
          "durationTicks": 683,
          "midi": 72,
          "name": "C5",
          "ticks": 68608,
          "time": 27.916622,
          "velocity": 0.5039370078740157
        },
        {
          "duration": 0.13875303320312682,
          "durationTicks": 341,
          "midi": 69,
          "name": "A4",
          "ticks": 69291,
          "time": 28.194534966796873,
          "velocity": 0.5039370078740157
        },
        {
          "duration": 0.13875303320312682,
          "durationTicks": 341,
          "midi": 52,
          "name": "E3",
          "ticks": 69291,
          "time": 28.194534966796873,
          "velocity": 0.5039370078740157
        },
        {
          "duration": 0.2779129667968725,
          "durationTicks": 683,
          "midi": 72,
          "name": "C5",
          "ticks": 69632,
          "time": 28.333288,
          "velocity": 0.5039370078740157
        },
        {
          "duration": 0.4166659999999993,
          "durationTicks": 1024,
          "midi": 67,
          "name": "G4",
          "ticks": 69632,
          "time": 28.333288,
          "velocity": 0.5039370078740157
        },
        {
          "duration": 0.4166659999999993,
          "durationTicks": 1024,
          "midi": 69,
          "name": "A4",
          "ticks": 69632,
          "time": 28.333288,
          "velocity": 0.5039370078740157
        },
        {
          "duration": 0.6945789667968754,
          "durationTicks": 1707,
          "midi": 50,
          "name": "D3",
          "ticks": 69632,
          "time": 28.333288,
          "velocity": 0.5039370078740157
        },
        {
          "duration": 0.13875303320312682,
          "durationTicks": 341,
          "midi": 69,
          "name": "A4",
          "ticks": 70315,
          "time": 28.611200966796872,
          "velocity": 0.5039370078740157
        },
        {
          "duration": 0.27791296679687605,
          "durationTicks": 683,
          "midi": 72,
          "name": "C5",
          "ticks": 70656,
          "time": 28.749954,
          "velocity": 0.5039370078740157
        },
        {
          "duration": 0.5554190332031226,
          "durationTicks": 1365,
          "midi": 74,
          "name": "D5",
          "ticks": 71339,
          "time": 29.027866966796875,
          "velocity": 0.5039370078740157
        },
        {
          "duration": 0.13875303320312327,
          "durationTicks": 341,
          "midi": 67,
          "name": "G4",
          "ticks": 71339,
          "time": 29.027866966796875,
          "velocity": 0.5039370078740157
        },
        {
          "duration": 0.13875303320312327,
          "durationTicks": 341,
          "midi": 71,
          "name": "B4",
          "ticks": 71339,
          "time": 29.027866966796875,
          "velocity": 0.5039370078740157
        },
        {
          "duration": 0.13875303320312327,
          "durationTicks": 341,
          "midi": 50,
          "name": "D3",
          "ticks": 71339,
          "time": 29.027866966796875,
          "velocity": 0.5039370078740157
        },
        {
          "duration": 0.27791296679687605,
          "durationTicks": 683,
          "midi": 43,
          "name": "G2",
          "ticks": 71680,
          "time": 29.166619999999998,
          "velocity": 0.5039370078740157
        },
        {
          "duration": 0.13875303320312327,
          "durationTicks": 341,
          "midi": 67,
          "name": "G4",
          "ticks": 72363,
          "time": 29.444532966796874,
          "velocity": 0.5039370078740157
        },
        {
          "duration": 0.13875303320312327,
          "durationTicks": 341,
          "midi": 71,
          "name": "B4",
          "ticks": 72363,
          "time": 29.444532966796874,
          "velocity": 0.5039370078740157
        },
        {
          "duration": 0.13875303320312327,
          "durationTicks": 341,
          "midi": 45,
          "name": "A2",
          "ticks": 72363,
          "time": 29.444532966796874,
          "velocity": 0.5039370078740157
        },
        {
          "duration": 0.27791296679687605,
          "durationTicks": 683,
          "midi": 43,
          "name": "G2",
          "ticks": 72704,
          "time": 29.583285999999998,
          "velocity": 0.5039370078740157
        },
        {
          "duration": 0.4166659999999993,
          "durationTicks": 1024,
          "midi": 67,
          "name": "G4",
          "ticks": 73387,
          "time": 29.861198966796874,
          "velocity": 0.5039370078740157
        },
        {
          "duration": 0.4166659999999993,
          "durationTicks": 1024,
          "midi": 72,
          "name": "C5",
          "ticks": 73387,
          "time": 29.861198966796874,
          "velocity": 0.5039370078740157
        },
        {
          "duration": 0.4166659999999993,
          "durationTicks": 1024,
          "midi": 76,
          "name": "E5",
          "ticks": 73387,
          "time": 29.861198966796874,
          "velocity": 0.5039370078740157
        },
        {
          "duration": 0.8333319999999986,
          "durationTicks": 2048,
          "midi": 48,
          "name": "C3",
          "ticks": 73387,
          "time": 29.861198966796874,
          "velocity": 0.5039370078740157
        },
        {
          "duration": 0.13875303320312682,
          "durationTicks": 341,
          "midi": 67,
          "name": "G4",
          "ticks": 74411,
          "time": 30.277864966796873,
          "velocity": 0.5039370078740157
        },
        {
          "duration": 0.2779129667968725,
          "durationTicks": 683,
          "midi": 69,
          "name": "A4",
          "ticks": 74752,
          "time": 30.416618,
          "velocity": 0.5039370078740157
        },
        {
          "duration": 0.13875303320312682,
          "durationTicks": 341,
          "midi": 72,
          "name": "C5",
          "ticks": 75435,
          "time": 30.694530966796872,
          "velocity": 0.5039370078740157
        },
        {
          "duration": 0.13875303320312682,
          "durationTicks": 341,
          "midi": 48,
          "name": "C3",
          "ticks": 75435,
          "time": 30.694530966796872,
          "velocity": 0.5039370078740157
        },
        {
          "duration": 0.27791296679687605,
          "durationTicks": 683,
          "midi": 75,
          "name": "D#5",
          "ticks": 75776,
          "time": 30.833284,
          "velocity": 0.5039370078740157
        },
        {
          "duration": 0.6945789667968754,
          "durationTicks": 1707,
          "midi": 45,
          "name": "A2",
          "ticks": 75776,
          "time": 30.833284,
          "velocity": 0.5039370078740157
        },
        {
          "duration": 0.13875303320312327,
          "durationTicks": 341,
          "midi": 76,
          "name": "E5",
          "ticks": 76459,
          "time": 31.111196966796875,
          "velocity": 0.5039370078740157
        },
        {
          "duration": 0.27791296679687605,
          "durationTicks": 683,
          "midi": 77,
          "name": "F5",
          "ticks": 76800,
          "time": 31.24995,
          "velocity": 0.5039370078740157
        },
        {
          "duration": 0.13875303320312327,
          "durationTicks": 341,
          "midi": 78,
          "name": "F#5",
          "ticks": 77483,
          "time": 31.527862966796874,
          "velocity": 0.5039370078740157
        },
        {
          "duration": 0.13875303320312327,
          "durationTicks": 341,
          "midi": 45,
          "name": "A2",
          "ticks": 77483,
          "time": 31.527862966796874,
          "velocity": 0.5039370078740157
        },
        {
          "duration": 0.27791296679687605,
          "durationTicks": 683,
          "midi": 69,
          "name": "A4",
          "ticks": 77824,
          "time": 31.666615999999998,
          "velocity": 0.5039370078740157
        },
        {
          "duration": 0.27791296679687605,
          "durationTicks": 683,
          "midi": 72,
          "name": "C5",
          "ticks": 77824,
          "time": 31.666615999999998,
          "velocity": 0.5039370078740157
        },
        {
          "duration": 0.27791296679687605,
          "durationTicks": 683,
          "midi": 77,
          "name": "F5",
          "ticks": 77824,
          "time": 31.666615999999998,
          "velocity": 0.5039370078740157
        },
        {
          "duration": 0.27791296679687605,
          "durationTicks": 683,
          "midi": 79,
          "name": "G5",
          "ticks": 77824,
          "time": 31.666615999999998,
          "velocity": 0.5039370078740157
        },
        {
          "duration": 0.6945789667968754,
          "durationTicks": 1707,
          "midi": 50,
          "name": "D3",
          "ticks": 77824,
          "time": 31.666615999999998,
          "velocity": 0.5039370078740157
        },
        {
          "duration": 0.5554190332031226,
          "durationTicks": 1365,
          "midi": 69,
          "name": "A4",
          "ticks": 78507,
          "time": 31.944528966796874,
          "velocity": 0.5039370078740157
        },
        {
          "duration": 0.5554190332031226,
          "durationTicks": 1365,
          "midi": 72,
          "name": "C5",
          "ticks": 78507,
          "time": 31.944528966796874,
          "velocity": 0.5039370078740157
        },
        {
          "duration": 0.5554190332031226,
          "durationTicks": 1365,
          "midi": 76,
          "name": "E5",
          "ticks": 78507,
          "time": 31.944528966796874,
          "velocity": 0.5039370078740157
        },
        {
          "duration": 0.13875303320312327,
          "durationTicks": 341,
          "midi": 50,
          "name": "D3",
          "ticks": 79531,
          "time": 32.36119496679687,
          "velocity": 0.5039370078740157
        },
        {
          "duration": 0.13875303320313037,
          "durationTicks": 341,
          "midi": 75,
          "name": "D#5",
          "ticks": 79872,
          "time": 32.499947999999996,
          "velocity": 0.5039370078740157
        },
        {
          "duration": 0.6945789667968754,
          "durationTicks": 1707,
          "midi": 43,
          "name": "G2",
          "ticks": 79872,
          "time": 32.499947999999996,
          "velocity": 0.5039370078740157
        },
        {
          "duration": 0.13915993359374568,
          "durationTicks": 342,
          "midi": 74,
          "name": "D5",
          "ticks": 80213,
          "time": 32.63870103320313,
          "velocity": 0.5039370078740157
        },
        {
          "duration": 0.13875303320312327,
          "durationTicks": 341,
          "midi": 72,
          "name": "C5",
          "ticks": 80555,
          "time": 32.77786096679687,
          "velocity": 0.5039370078740157
        },
        {
          "duration": 0.27791296679687605,
          "durationTicks": 683,
          "midi": 74,
          "name": "D5",
          "ticks": 80896,
          "time": 32.916613999999996,
          "velocity": 0.5039370078740157
        },
        {
          "duration": 0.13875303320313037,
          "durationTicks": 341,
          "midi": 72,
          "name": "C5",
          "ticks": 81579,
          "time": 33.19452696679687,
          "velocity": 0.5039370078740157
        },
        {
          "duration": 0.13875303320313037,
          "durationTicks": 341,
          "midi": 43,
          "name": "G2",
          "ticks": 81579,
          "time": 33.19452696679687,
          "velocity": 0.5039370078740157
        },
        {
          "duration": 0.6945789667968683,
          "durationTicks": 1707,
          "midi": 45,
          "name": "A2",
          "ticks": 81920,
          "time": 33.33328,
          "velocity": 0.5039370078740157
        },
        {
          "duration": 0.13875303320313037,
          "durationTicks": 341,
          "midi": 80,
          "name": "G#5",
          "ticks": 82603,
          "time": 33.61119296679687,
          "velocity": 0.5039370078740157
        },
        {
          "duration": 0.13875303320312327,
          "durationTicks": 341,
          "midi": 81,
          "name": "A5",
          "ticks": 82944,
          "time": 33.749946,
          "velocity": 0.5039370078740157
        },
        {
          "duration": 0.13875303320313037,
          "durationTicks": 341,
          "midi": 79,
          "name": "G5",
          "ticks": 83627,
          "time": 34.02785896679687,
          "velocity": 0.5039370078740157
        },
        {
          "duration": 0.13875303320313037,
          "durationTicks": 341,
          "midi": 45,
          "name": "A2",
          "ticks": 83627,
          "time": 34.02785896679687,
          "velocity": 0.5039370078740157
        },
        {
          "duration": 0.27791296679687605,
          "durationTicks": 683,
          "midi": 75,
          "name": "D#5",
          "ticks": 83968,
          "time": 34.166612,
          "velocity": 0.5039370078740157
        },
        {
          "duration": 0.6945789667968754,
          "durationTicks": 1707,
          "midi": 52,
          "name": "E3",
          "ticks": 83968,
          "time": 34.166612,
          "velocity": 0.5039370078740157
        },
        {
          "duration": 0.13875303320312327,
          "durationTicks": 341,
          "midi": 74,
          "name": "D5",
          "ticks": 84651,
          "time": 34.44452496679688,
          "velocity": 0.5039370078740157
        },
        {
          "duration": 0.27791296679687605,
          "durationTicks": 683,
          "midi": 72,
          "name": "C5",
          "ticks": 84992,
          "time": 34.583278,
          "velocity": 0.5039370078740157
        },
        {
          "duration": 0.13875303320312327,
          "durationTicks": 341,
          "midi": 69,
          "name": "A4",
          "ticks": 85675,
          "time": 34.861190966796876,
          "velocity": 0.5039370078740157
        },
        {
          "duration": 0.13875303320312327,
          "durationTicks": 341,
          "midi": 52,
          "name": "E3",
          "ticks": 85675,
          "time": 34.861190966796876,
          "velocity": 0.5039370078740157
        },
        {
          "duration": 0.27791296679687605,
          "durationTicks": 683,
          "midi": 72,
          "name": "C5",
          "ticks": 86016,
          "time": 34.999944,
          "velocity": 0.5039370078740157
        },
        {
          "duration": 0.4166659999999993,
          "durationTicks": 1024,
          "midi": 67,
          "name": "G4",
          "ticks": 86016,
          "time": 34.999944,
          "velocity": 0.5039370078740157
        },
        {
          "duration": 0.4166659999999993,
          "durationTicks": 1024,
          "midi": 69,
          "name": "A4",
          "ticks": 86016,
          "time": 34.999944,
          "velocity": 0.5039370078740157
        },
        {
          "duration": 0.6945789667968754,
          "durationTicks": 1707,
          "midi": 50,
          "name": "D3",
          "ticks": 86016,
          "time": 34.999944,
          "velocity": 0.5039370078740157
        },
        {
          "duration": 0.13875303320312327,
          "durationTicks": 341,
          "midi": 69,
          "name": "A4",
          "ticks": 86699,
          "time": 35.277856966796875,
          "velocity": 0.5039370078740157
        },
        {
          "duration": 0.27791296679687605,
          "durationTicks": 683,
          "midi": 72,
          "name": "C5",
          "ticks": 87040,
          "time": 35.41661,
          "velocity": 0.5039370078740157
        },
        {
          "duration": 0.5554190332031226,
          "durationTicks": 1365,
          "midi": 74,
          "name": "D5",
          "ticks": 87723,
          "time": 35.694522966796875,
          "velocity": 0.5039370078740157
        },
        {
          "duration": 0.13875303320312327,
          "durationTicks": 341,
          "midi": 67,
          "name": "G4",
          "ticks": 87723,
          "time": 35.694522966796875,
          "velocity": 0.5039370078740157
        },
        {
          "duration": 0.13875303320312327,
          "durationTicks": 341,
          "midi": 71,
          "name": "B4",
          "ticks": 87723,
          "time": 35.694522966796875,
          "velocity": 0.5039370078740157
        },
        {
          "duration": 0.13875303320312327,
          "durationTicks": 341,
          "midi": 50,
          "name": "D3",
          "ticks": 87723,
          "time": 35.694522966796875,
          "velocity": 0.5039370078740157
        },
        {
          "duration": 0.27791296679687605,
          "durationTicks": 683,
          "midi": 43,
          "name": "G2",
          "ticks": 88064,
          "time": 35.833276,
          "velocity": 0.5039370078740157
        },
        {
          "duration": 0.13875303320312327,
          "durationTicks": 341,
          "midi": 67,
          "name": "G4",
          "ticks": 88747,
          "time": 36.111188966796874,
          "velocity": 0.5039370078740157
        },
        {
          "duration": 0.13875303320312327,
          "durationTicks": 341,
          "midi": 71,
          "name": "B4",
          "ticks": 88747,
          "time": 36.111188966796874,
          "velocity": 0.5039370078740157
        },
        {
          "duration": 0.13875303320312327,
          "durationTicks": 341,
          "midi": 45,
          "name": "A2",
          "ticks": 88747,
          "time": 36.111188966796874,
          "velocity": 0.5039370078740157
        },
        {
          "duration": 0.27791296679687605,
          "durationTicks": 683,
          "midi": 43,
          "name": "G2",
          "ticks": 89088,
          "time": 36.249942,
          "velocity": 0.5039370078740157
        },
        {
          "duration": 0.4166659999999993,
          "durationTicks": 1024,
          "midi": 65,
          "name": "F4",
          "ticks": 89771,
          "time": 36.52785496679687,
          "velocity": 0.5039370078740157
        },
        {
          "duration": 0.4166659999999993,
          "durationTicks": 1024,
          "midi": 69,
          "name": "A4",
          "ticks": 89771,
          "time": 36.52785496679687,
          "velocity": 0.5039370078740157
        },
        {
          "duration": 0.4166659999999993,
          "durationTicks": 1024,
          "midi": 72,
          "name": "C5",
          "ticks": 89771,
          "time": 36.52785496679687,
          "velocity": 0.5039370078740157
        },
        {
          "duration": 0.8333319999999986,
          "durationTicks": 2048,
          "midi": 41,
          "name": "F2",
          "ticks": 89771,
          "time": 36.52785496679687,
          "velocity": 0.5039370078740157
        },
        {
          "duration": 0.13875303320312327,
          "durationTicks": 341,
          "midi": 75,
          "name": "D#5",
          "ticks": 90795,
          "time": 36.94452096679687,
          "velocity": 0.5039370078740157
        },
        {
          "duration": 0.27791296679687605,
          "durationTicks": 683,
          "midi": 74,
          "name": "D5",
          "ticks": 91136,
          "time": 37.083273999999996,
          "velocity": 0.5039370078740157
        },
        {
          "duration": 0.13875303320312327,
          "durationTicks": 341,
          "midi": 72,
          "name": "C5",
          "ticks": 91819,
          "time": 37.36118696679687,
          "velocity": 0.5039370078740157
        },
        {
          "duration": 0.13875303320312327,
          "durationTicks": 341,
          "midi": 41,
          "name": "F2",
          "ticks": 91819,
          "time": 37.36118696679687,
          "velocity": 0.5039370078740157
        },
        {
          "duration": 0.27791296679687605,
          "durationTicks": 683,
          "midi": 74,
          "name": "D5",
          "ticks": 92160,
          "time": 37.499939999999995,
          "velocity": 0.5039370078740157
        },
        {
          "duration": 0.6945789667968754,
          "durationTicks": 1707,
          "midi": 41,
          "name": "F2",
          "ticks": 92160,
          "time": 37.499939999999995,
          "velocity": 0.5039370078740157
        },
        {
          "duration": 0.13875303320313037,
          "durationTicks": 341,
          "midi": 72,
          "name": "C5",
          "ticks": 92843,
          "time": 37.77785296679687,
          "velocity": 0.5039370078740157
        },
        {
          "duration": 0.27791296679686894,
          "durationTicks": 683,
          "midi": 81,
          "name": "A5",
          "ticks": 93184,
          "time": 37.916606,
          "velocity": 0.5039370078740157
        },
        {
          "duration": 0.13875303320313037,
          "durationTicks": 341,
          "midi": 72,
          "name": "C5",
          "ticks": 93867,
          "time": 38.19451896679687,
          "velocity": 0.5039370078740157
        },
        {
          "duration": 0.13875303320313037,
          "durationTicks": 341,
          "midi": 41,
          "name": "F2",
          "ticks": 93867,
          "time": 38.19451896679687,
          "velocity": 0.5039370078740157
        },
        {
          "duration": 0.6945789667968754,
          "durationTicks": 1707,
          "midi": 42,
          "name": "F#2",
          "ticks": 94208,
          "time": 38.333272,
          "velocity": 0.5039370078740157
        },
        {
          "duration": 0.13875303320313037,
          "durationTicks": 341,
          "midi": 75,
          "name": "D#5",
          "ticks": 94891,
          "time": 38.61118496679687,
          "velocity": 0.5039370078740157
        },
        {
          "duration": 0.27791296679687605,
          "durationTicks": 683,
          "midi": 74,
          "name": "D5",
          "ticks": 95232,
          "time": 38.749938,
          "velocity": 0.5039370078740157
        },
        {
          "duration": 0.13875303320312327,
          "durationTicks": 341,
          "midi": 72,
          "name": "C5",
          "ticks": 95915,
          "time": 39.027850966796876,
          "velocity": 0.5039370078740157
        },
        {
          "duration": 0.13875303320312327,
          "durationTicks": 341,
          "midi": 42,
          "name": "F#2",
          "ticks": 95915,
          "time": 39.027850966796876,
          "velocity": 0.5039370078740157
        },
        {
          "duration": 0.27791296679687605,
          "durationTicks": 683,
          "midi": 84,
          "name": "C6",
          "ticks": 96256,
          "time": 39.166604,
          "velocity": 0.5039370078740157
        },
        {
          "duration": 0.6945789667968754,
          "durationTicks": 1707,
          "midi": 42,
          "name": "F#2",
          "ticks": 96256,
          "time": 39.166604,
          "velocity": 0.5039370078740157
        },
        {
          "duration": 0.13875303320312327,
          "durationTicks": 341,
          "midi": 81,
          "name": "A5",
          "ticks": 96939,
          "time": 39.444516966796876,
          "velocity": 0.5039370078740157
        },
        {
          "duration": 0.27791296679687605,
          "durationTicks": 683,
          "midi": 72,
          "name": "C5",
          "ticks": 97280,
          "time": 39.58327,
          "velocity": 0.5039370078740157
        },
        {
          "duration": 0.13875303320312327,
          "durationTicks": 341,
          "midi": 75,
          "name": "D#5",
          "ticks": 97963,
          "time": 39.861182966796875,
          "velocity": 0.5039370078740157
        },
        {
          "duration": 0.13875303320312327,
          "durationTicks": 341,
          "midi": 42,
          "name": "F#2",
          "ticks": 97963,
          "time": 39.861182966796875,
          "velocity": 0.5039370078740157
        },
        {
          "duration": 0.4166659999999993,
          "durationTicks": 1024,
          "midi": 67,
          "name": "G4",
          "ticks": 98304,
          "time": 39.999936,
          "velocity": 0.5039370078740157
        },
        {
          "duration": 0.4166659999999993,
          "durationTicks": 1024,
          "midi": 72,
          "name": "C5",
          "ticks": 98304,
          "time": 39.999936,
          "velocity": 0.5039370078740157
        },
        {
          "duration": 0.4166659999999993,
          "durationTicks": 1024,
          "midi": 76,
          "name": "E5",
          "ticks": 98304,
          "time": 39.999936,
          "velocity": 0.5039370078740157
        },
        {
          "duration": 0.6945789667968754,
          "durationTicks": 1707,
          "midi": 43,
          "name": "G2",
          "ticks": 98304,
          "time": 39.999936,
          "velocity": 0.5039370078740157
        },
        {
          "duration": 0.4166659999999993,
          "durationTicks": 1024,
          "midi": 67,
          "name": "G4",
          "ticks": 99328,
          "time": 40.416602,
          "velocity": 0.5039370078740157
        },
        {
          "duration": 0.4166659999999993,
          "durationTicks": 1024,
          "midi": 72,
          "name": "C5",
          "ticks": 99328,
          "time": 40.416602,
          "velocity": 0.5039370078740157
        },
        {
          "duration": 0.4166659999999993,
          "durationTicks": 1024,
          "midi": 76,
          "name": "E5",
          "ticks": 99328,
          "time": 40.416602,
          "velocity": 0.5039370078740157
        },
        {
          "duration": 0.13875303320312327,
          "durationTicks": 341,
          "midi": 43,
          "name": "G2",
          "ticks": 100011,
          "time": 40.69451496679687,
          "velocity": 0.5039370078740157
        },
        {
          "duration": 0.27791296679687605,
          "durationTicks": 683,
          "midi": 65,
          "name": "F4",
          "ticks": 100352,
          "time": 40.833268,
          "velocity": 0.5039370078740157
        },
        {
          "duration": 0.27791296679687605,
          "durationTicks": 683,
          "midi": 71,
          "name": "B4",
          "ticks": 100352,
          "time": 40.833268,
          "velocity": 0.5039370078740157
        },
        {
          "duration": 0.27791296679687605,
          "durationTicks": 683,
          "midi": 74,
          "name": "D5",
          "ticks": 100352,
          "time": 40.833268,
          "velocity": 0.5039370078740157
        },
        {
          "duration": 0.27791296679687605,
          "durationTicks": 683,
          "midi": 44,
          "name": "G#2",
          "ticks": 100352,
          "time": 40.833268,
          "velocity": 0.5039370078740157
        },
        {
          "duration": 0.13875303320312327,
          "durationTicks": 341,
          "midi": 65,
          "name": "F4",
          "ticks": 101035,
          "time": 41.11118096679687,
          "velocity": 0.5039370078740157
        },
        {
          "duration": 0.13875303320312327,
          "durationTicks": 341,
          "midi": 71,
          "name": "B4",
          "ticks": 101035,
          "time": 41.11118096679687,
          "velocity": 0.5039370078740157
        },
        {
          "duration": 0.13875303320312327,
          "durationTicks": 341,
          "midi": 74,
          "name": "D5",
          "ticks": 101035,
          "time": 41.11118096679687,
          "velocity": 0.5039370078740157
        },
        {
          "duration": 0.13875303320312327,
          "durationTicks": 341,
          "midi": 44,
          "name": "G#2",
          "ticks": 101035,
          "time": 41.11118096679687,
          "velocity": 0.5039370078740157
        },
        {
          "duration": 0.5554190332031226,
          "durationTicks": 1365,
          "midi": 64,
          "name": "E4",
          "ticks": 102059,
          "time": 41.52784696679687,
          "velocity": 0.5039370078740157
        },
        {
          "duration": 0.5554190332031226,
          "durationTicks": 1365,
          "midi": 69,
          "name": "A4",
          "ticks": 102059,
          "time": 41.52784696679687,
          "velocity": 0.5039370078740157
        },
        {
          "duration": 0.5554190332031226,
          "durationTicks": 1365,
          "midi": 72,
          "name": "C5",
          "ticks": 102059,
          "time": 41.52784696679687,
          "velocity": 0.5039370078740157
        },
        {
          "duration": 0.13875303320312327,
          "durationTicks": 341,
          "midi": 45,
          "name": "A2",
          "ticks": 102059,
          "time": 41.52784696679687,
          "velocity": 0.5039370078740157
        },
        {
          "duration": 0.6945789667968754,
          "durationTicks": 1707,
          "midi": 45,
          "name": "A2",
          "ticks": 102400,
          "time": 41.666599999999995,
          "velocity": 0.5039370078740157
        },
        {
          "duration": 0.4166660000000064,
          "durationTicks": 1024,
          "midi": 64,
          "name": "E4",
          "ticks": 103424,
          "time": 42.083265999999995,
          "velocity": 0.5039370078740157
        },
        {
          "duration": 0.4166660000000064,
          "durationTicks": 1024,
          "midi": 69,
          "name": "A4",
          "ticks": 103424,
          "time": 42.083265999999995,
          "velocity": 0.5039370078740157
        },
        {
          "duration": 0.4166660000000064,
          "durationTicks": 1024,
          "midi": 72,
          "name": "C5",
          "ticks": 103424,
          "time": 42.083265999999995,
          "velocity": 0.5039370078740157
        },
        {
          "duration": 0.13875303320313037,
          "durationTicks": 341,
          "midi": 45,
          "name": "A2",
          "ticks": 104107,
          "time": 42.36117896679687,
          "velocity": 0.5039370078740157
        },
        {
          "duration": 0.27791296679686894,
          "durationTicks": 683,
          "midi": 62,
          "name": "D4",
          "ticks": 104448,
          "time": 42.499932,
          "velocity": 0.5039370078740157
        },
        {
          "duration": 0.27791296679686894,
          "durationTicks": 683,
          "midi": 65,
          "name": "F4",
          "ticks": 104448,
          "time": 42.499932,
          "velocity": 0.5039370078740157
        },
        {
          "duration": 0.27791296679686894,
          "durationTicks": 683,
          "midi": 70,
          "name": "A#4",
          "ticks": 104448,
          "time": 42.499932,
          "velocity": 0.5039370078740157
        },
        {
          "duration": 0.27791296679686894,
          "durationTicks": 683,
          "midi": 43,
          "name": "G2",
          "ticks": 104448,
          "time": 42.499932,
          "velocity": 0.5039370078740157
        },
        {
          "duration": 0.13875303320313037,
          "durationTicks": 341,
          "midi": 62,
          "name": "D4",
          "ticks": 105131,
          "time": 42.77784496679687,
          "velocity": 0.5039370078740157
        },
        {
          "duration": 0.13875303320313037,
          "durationTicks": 341,
          "midi": 65,
          "name": "F4",
          "ticks": 105131,
          "time": 42.77784496679687,
          "velocity": 0.5039370078740157
        },
        {
          "duration": 0.13875303320313037,
          "durationTicks": 341,
          "midi": 70,
          "name": "A#4",
          "ticks": 105131,
          "time": 42.77784496679687,
          "velocity": 0.5039370078740157
        },
        {
          "duration": 0.13875303320313037,
          "durationTicks": 341,
          "midi": 48,
          "name": "C3",
          "ticks": 105131,
          "time": 42.77784496679687,
          "velocity": 0.5039370078740157
        },
        {
          "duration": 2.22208303320312,
          "durationTicks": 5461,
          "midi": 60,
          "name": "C4",
          "ticks": 106155,
          "time": 43.19451096679688,
          "velocity": 0.5039370078740157
        },
        {
          "duration": 2.22208303320312,
          "durationTicks": 5461,
          "midi": 65,
          "name": "F4",
          "ticks": 106155,
          "time": 43.19451096679688,
          "velocity": 0.5039370078740157
        },
        {
          "duration": 2.22208303320312,
          "durationTicks": 5461,
          "midi": 69,
          "name": "A4",
          "ticks": 106155,
          "time": 43.19451096679688,
          "velocity": 0.5039370078740157
        },
        {
          "duration": 2.22208303320312,
          "durationTicks": 5461,
          "midi": 41,
          "name": "F2",
          "ticks": 106155,
          "time": 43.19451096679688,
          "velocity": 0.5039370078740157
        },
        {
          "duration": 0.13875303320312327,
          "durationTicks": 341,
          "midi": 81,
          "name": "A5",
          "ticks": 113323,
          "time": 46.11117296679687,
          "velocity": 0.5039370078740157
        },
        {
          "duration": 0.13875303320312327,
          "durationTicks": 341,
          "midi": 84,
          "name": "C6",
          "ticks": 113323,
          "time": 46.11117296679687,
          "velocity": 0.5039370078740157
        },
        {
          "duration": 0.13875303320312327,
          "durationTicks": 341,
          "midi": 45,
          "name": "A2",
          "ticks": 113323,
          "time": 46.11117296679687,
          "velocity": 0.5039370078740157
        },
        {
          "duration": 0.27791296679687605,
          "durationTicks": 683,
          "midi": 83,
          "name": "B5",
          "ticks": 113664,
          "time": 46.249925999999995,
          "velocity": 0.5039370078740157
        },
        {
          "duration": 0.27791296679687605,
          "durationTicks": 683,
          "midi": 86,
          "name": "D6",
          "ticks": 113664,
          "time": 46.249925999999995,
          "velocity": 0.5039370078740157
        },
        {
          "duration": 0.27791296679687605,
          "durationTicks": 683,
          "midi": 47,
          "name": "B2",
          "ticks": 113664,
          "time": 46.249925999999995,
          "velocity": 0.5039370078740157
        },
        {
          "duration": 0.4166659999999993,
          "durationTicks": 1024,
          "midi": 79,
          "name": "G5",
          "ticks": 114347,
          "time": 46.52783896679687,
          "velocity": 0.5039370078740157
        },
        {
          "duration": 0.4166659999999993,
          "durationTicks": 1024,
          "midi": 84,
          "name": "C6",
          "ticks": 114347,
          "time": 46.52783896679687,
          "velocity": 0.5039370078740157
        },
        {
          "duration": 0.4166659999999993,
          "durationTicks": 1024,
          "midi": 88,
          "name": "E6",
          "ticks": 114347,
          "time": 46.52783896679687,
          "velocity": 0.5039370078740157
        },
        {
          "duration": 0.8333319999999986,
          "durationTicks": 2048,
          "midi": 48,
          "name": "C3",
          "ticks": 114347,
          "time": 46.52783896679687,
          "velocity": 0.5039370078740157
        },
        {
          "duration": 0.13875303320313037,
          "durationTicks": 341,
          "midi": 79,
          "name": "G5",
          "ticks": 115371,
          "time": 46.94450496679687,
          "velocity": 0.5039370078740157
        },
        {
          "duration": 0.13875303320313037,
          "durationTicks": 341,
          "midi": 84,
          "name": "C6",
          "ticks": 115371,
          "time": 46.94450496679687,
          "velocity": 0.5039370078740157
        },
        {
          "duration": 0.13875303320313037,
          "durationTicks": 341,
          "midi": 88,
          "name": "E6",
          "ticks": 115371,
          "time": 46.94450496679687,
          "velocity": 0.5039370078740157
        },
        {
          "duration": 0.4166659999999993,
          "durationTicks": 1024,
          "midi": 79,
          "name": "G5",
          "ticks": 115712,
          "time": 47.083258,
          "velocity": 0.5039370078740157
        },
        {
          "duration": 0.4166659999999993,
          "durationTicks": 1024,
          "midi": 83,
          "name": "B5",
          "ticks": 115712,
          "time": 47.083258,
          "velocity": 0.5039370078740157
        },
        {
          "duration": 0.4166659999999993,
          "durationTicks": 1024,
          "midi": 86,
          "name": "D6",
          "ticks": 115712,
          "time": 47.083258,
          "velocity": 0.5039370078740157
        },
        {
          "duration": 0.13875303320313037,
          "durationTicks": 341,
          "midi": 48,
          "name": "C3",
          "ticks": 116395,
          "time": 47.36117096679687,
          "velocity": 0.5039370078740157
        },
        {
          "duration": 0.4166659999999993,
          "durationTicks": 1024,
          "midi": 79,
          "name": "G5",
          "ticks": 116736,
          "time": 47.499924,
          "velocity": 0.5039370078740157
        },
        {
          "duration": 0.4166659999999993,
          "durationTicks": 1024,
          "midi": 81,
          "name": "A5",
          "ticks": 116736,
          "time": 47.499924,
          "velocity": 0.5039370078740157
        },
        {
          "duration": 0.4166659999999993,
          "durationTicks": 1024,
          "midi": 84,
          "name": "C6",
          "ticks": 116736,
          "time": 47.499924,
          "velocity": 0.5039370078740157
        },
        {
          "duration": 0.6945789667968754,
          "durationTicks": 1707,
          "midi": 45,
          "name": "A2",
          "ticks": 116736,
          "time": 47.499924,
          "velocity": 0.5039370078740157
        },
        {
          "duration": 0.27791296679687605,
          "durationTicks": 683,
          "midi": 79,
          "name": "G5",
          "ticks": 117760,
          "time": 47.91659,
          "velocity": 0.5039370078740157
        },
        {
          "duration": 0.27791296679687605,
          "durationTicks": 683,
          "midi": 83,
          "name": "B5",
          "ticks": 117760,
          "time": 47.91659,
          "velocity": 0.5039370078740157
        },
        {
          "duration": 0.27791296679687605,
          "durationTicks": 683,
          "midi": 86,
          "name": "D6",
          "ticks": 117760,
          "time": 47.91659,
          "velocity": 0.5039370078740157
        },
        {
          "duration": 0.5554190332031226,
          "durationTicks": 1365,
          "midi": 79,
          "name": "G5",
          "ticks": 118443,
          "time": 48.194502966796875,
          "velocity": 0.5039370078740157
        },
        {
          "duration": 0.5554190332031226,
          "durationTicks": 1365,
          "midi": 81,
          "name": "A5",
          "ticks": 118443,
          "time": 48.194502966796875,
          "velocity": 0.5039370078740157
        },
        {
          "duration": 0.5554190332031226,
          "durationTicks": 1365,
          "midi": 84,
          "name": "C6",
          "ticks": 118443,
          "time": 48.194502966796875,
          "velocity": 0.5039370078740157
        },
        {
          "duration": 0.13875303320312327,
          "durationTicks": 341,
          "midi": 45,
          "name": "A2",
          "ticks": 118443,
          "time": 48.194502966796875,
          "velocity": 0.5039370078740157
        },
        {
          "duration": 0.6945789667968754,
          "durationTicks": 1707,
          "midi": 50,
          "name": "D3",
          "ticks": 118784,
          "time": 48.333256,
          "velocity": 0.5039370078740157
        },
        {
          "duration": 0.27791296679687605,
          "durationTicks": 683,
          "midi": 79,
          "name": "G5",
          "ticks": 119808,
          "time": 48.749922,
          "velocity": 0.5039370078740157
        },
        {
          "duration": 0.27791296679687605,
          "durationTicks": 683,
          "midi": 81,
          "name": "A5",
          "ticks": 119808,
          "time": 48.749922,
          "velocity": 0.5039370078740157
        },
        {
          "duration": 0.27791296679687605,
          "durationTicks": 683,
          "midi": 84,
          "name": "C6",
          "ticks": 119808,
          "time": 48.749922,
          "velocity": 0.5039370078740157
        },
        {
          "duration": 0.13875303320312327,
          "durationTicks": 341,
          "midi": 79,
          "name": "G5",
          "ticks": 120491,
          "time": 49.027834966796874,
          "velocity": 0.5039370078740157
        },
        {
          "duration": 0.13875303320312327,
          "durationTicks": 341,
          "midi": 83,
          "name": "B5",
          "ticks": 120491,
          "time": 49.027834966796874,
          "velocity": 0.5039370078740157
        },
        {
          "duration": 0.13875303320312327,
          "durationTicks": 341,
          "midi": 86,
          "name": "D6",
          "ticks": 120491,
          "time": 49.027834966796874,
          "velocity": 0.5039370078740157
        },
        {
          "duration": 0.13875303320312327,
          "durationTicks": 341,
          "midi": 50,
          "name": "D3",
          "ticks": 120491,
          "time": 49.027834966796874,
          "velocity": 0.5039370078740157
        },
        {
          "duration": 0.6945789667968754,
          "durationTicks": 1707,
          "midi": 43,
          "name": "G2",
          "ticks": 120832,
          "time": 49.166588,
          "velocity": 0.5039370078740157
        },
        {
          "duration": 0.13875303320312327,
          "durationTicks": 341,
          "midi": 79,
          "name": "G5",
          "ticks": 121515,
          "time": 49.44450096679687,
          "velocity": 0.5039370078740157
        },
        {
          "duration": 0.13875303320312327,
          "durationTicks": 341,
          "midi": 83,
          "name": "B5",
          "ticks": 121515,
          "time": 49.44450096679687,
          "velocity": 0.5039370078740157
        },
        {
          "duration": 0.13875303320312327,
          "durationTicks": 341,
          "midi": 86,
          "name": "D6",
          "ticks": 121515,
          "time": 49.44450096679687,
          "velocity": 0.5039370078740157
        },
        {
          "duration": 0.4166659999999993,
          "durationTicks": 1024,
          "midi": 79,
          "name": "G5",
          "ticks": 122539,
          "time": 49.86116696679687,
          "velocity": 0.5039370078740157
        },
        {
          "duration": 0.4166659999999993,
          "durationTicks": 1024,
          "midi": 84,
          "name": "C6",
          "ticks": 122539,
          "time": 49.86116696679687,
          "velocity": 0.5039370078740157
        },
        {
          "duration": 0.4166659999999993,
          "durationTicks": 1024,
          "midi": 88,
          "name": "E6",
          "ticks": 122539,
          "time": 49.86116696679687,
          "velocity": 0.5039370078740157
        },
        {
          "duration": 0.13875303320312327,
          "durationTicks": 341,
          "midi": 43,
          "name": "G2",
          "ticks": 122539,
          "time": 49.86116696679687,
          "velocity": 0.5039370078740157
        },
        {
          "duration": 0.6945789667968754,
          "durationTicks": 1707,
          "midi": 45,
          "name": "A2",
          "ticks": 122880,
          "time": 49.999919999999996,
          "velocity": 0.5039370078740157
        },
        {
          "duration": 0.13875303320312327,
          "durationTicks": 341,
          "midi": 79,
          "name": "G5",
          "ticks": 123563,
          "time": 50.27783296679687,
          "velocity": 0.5039370078740157
        },
        {
          "duration": 0.13875303320312327,
          "durationTicks": 341,
          "midi": 84,
          "name": "C6",
          "ticks": 123563,
          "time": 50.27783296679687,
          "velocity": 0.5039370078740157
        },
        {
          "duration": 0.13875303320312327,
          "durationTicks": 341,
          "midi": 88,
          "name": "E6",
          "ticks": 123563,
          "time": 50.27783296679687,
          "velocity": 0.5039370078740157
        },
        {
          "duration": 0.4166659999999993,
          "durationTicks": 1024,
          "midi": 79,
          "name": "G5",
          "ticks": 123904,
          "time": 50.416585999999995,
          "velocity": 0.5039370078740157
        },
        {
          "duration": 0.4166659999999993,
          "durationTicks": 1024,
          "midi": 83,
          "name": "B5",
          "ticks": 123904,
          "time": 50.416585999999995,
          "velocity": 0.5039370078740157
        },
        {
          "duration": 0.4166659999999993,
          "durationTicks": 1024,
          "midi": 86,
          "name": "D6",
          "ticks": 123904,
          "time": 50.416585999999995,
          "velocity": 0.5039370078740157
        },
        {
          "duration": 0.13875303320312327,
          "durationTicks": 341,
          "midi": 45,
          "name": "A2",
          "ticks": 124587,
          "time": 50.69449896679687,
          "velocity": 0.5039370078740157
        },
        {
          "duration": 0.4166660000000064,
          "durationTicks": 1024,
          "midi": 79,
          "name": "G5",
          "ticks": 124928,
          "time": 50.833251999999995,
          "velocity": 0.5039370078740157
        },
        {
          "duration": 0.4166660000000064,
          "durationTicks": 1024,
          "midi": 81,
          "name": "A5",
          "ticks": 124928,
          "time": 50.833251999999995,
          "velocity": 0.5039370078740157
        },
        {
          "duration": 0.4166660000000064,
          "durationTicks": 1024,
          "midi": 84,
          "name": "C6",
          "ticks": 124928,
          "time": 50.833251999999995,
          "velocity": 0.5039370078740157
        },
        {
          "duration": 0.6945789667968754,
          "durationTicks": 1707,
          "midi": 52,
          "name": "E3",
          "ticks": 124928,
          "time": 50.833251999999995,
          "velocity": 0.5039370078740157
        },
        {
          "duration": 0.27791296679686894,
          "durationTicks": 683,
          "midi": 79,
          "name": "G5",
          "ticks": 125952,
          "time": 51.249918,
          "velocity": 0.5039370078740157
        },
        {
          "duration": 0.27791296679686894,
          "durationTicks": 683,
          "midi": 83,
          "name": "B5",
          "ticks": 125952,
          "time": 51.249918,
          "velocity": 0.5039370078740157
        },
        {
          "duration": 0.27791296679686894,
          "durationTicks": 683,
          "midi": 86,
          "name": "D6",
          "ticks": 125952,
          "time": 51.249918,
          "velocity": 0.5039370078740157
        },
        {
          "duration": 0.5554190332031297,
          "durationTicks": 1365,
          "midi": 79,
          "name": "G5",
          "ticks": 126635,
          "time": 51.52783096679687,
          "velocity": 0.5039370078740157
        },
        {
          "duration": 0.5554190332031297,
          "durationTicks": 1365,
          "midi": 81,
          "name": "A5",
          "ticks": 126635,
          "time": 51.52783096679687,
          "velocity": 0.5039370078740157
        },
        {
          "duration": 0.5554190332031297,
          "durationTicks": 1365,
          "midi": 84,
          "name": "C6",
          "ticks": 126635,
          "time": 51.52783096679687,
          "velocity": 0.5039370078740157
        },
        {
          "duration": 0.13875303320313037,
          "durationTicks": 341,
          "midi": 52,
          "name": "E3",
          "ticks": 126635,
          "time": 51.52783096679687,
          "velocity": 0.5039370078740157
        },
        {
          "duration": 0.6945789667968754,
          "durationTicks": 1707,
          "midi": 50,
          "name": "D3",
          "ticks": 126976,
          "time": 51.666584,
          "velocity": 0.5039370078740157
        },
        {
          "duration": 0.27791296679687605,
          "durationTicks": 683,
          "midi": 79,
          "name": "G5",
          "ticks": 128000,
          "time": 52.08325,
          "velocity": 0.5039370078740157
        },
        {
          "duration": 0.27791296679687605,
          "durationTicks": 683,
          "midi": 81,
          "name": "A5",
          "ticks": 128000,
          "time": 52.08325,
          "velocity": 0.5039370078740157
        },
        {
          "duration": 0.27791296679687605,
          "durationTicks": 683,
          "midi": 84,
          "name": "C6",
          "ticks": 128000,
          "time": 52.08325,
          "velocity": 0.5039370078740157
        },
        {
          "duration": 0.13875303320312327,
          "durationTicks": 341,
          "midi": 79,
          "name": "G5",
          "ticks": 128683,
          "time": 52.361162966796876,
          "velocity": 0.5039370078740157
        },
        {
          "duration": 0.13875303320312327,
          "durationTicks": 341,
          "midi": 83,
          "name": "B5",
          "ticks": 128683,
          "time": 52.361162966796876,
          "velocity": 0.5039370078740157
        },
        {
          "duration": 0.13875303320312327,
          "durationTicks": 341,
          "midi": 86,
          "name": "D6",
          "ticks": 128683,
          "time": 52.361162966796876,
          "velocity": 0.5039370078740157
        },
        {
          "duration": 0.13875303320312327,
          "durationTicks": 341,
          "midi": 50,
          "name": "D3",
          "ticks": 128683,
          "time": 52.361162966796876,
          "velocity": 0.5039370078740157
        },
        {
          "duration": 0.6945789667968754,
          "durationTicks": 1707,
          "midi": 43,
          "name": "G2",
          "ticks": 129024,
          "time": 52.499916,
          "velocity": 0.5039370078740157
        },
        {
          "duration": 0.13875303320312327,
          "durationTicks": 341,
          "midi": 79,
          "name": "G5",
          "ticks": 129707,
          "time": 52.777828966796875,
          "velocity": 0.5039370078740157
        },
        {
          "duration": 0.13875303320312327,
          "durationTicks": 341,
          "midi": 83,
          "name": "B5",
          "ticks": 129707,
          "time": 52.777828966796875,
          "velocity": 0.5039370078740157
        },
        {
          "duration": 0.13875303320312327,
          "durationTicks": 341,
          "midi": 86,
          "name": "D6",
          "ticks": 129707,
          "time": 52.777828966796875,
          "velocity": 0.5039370078740157
        },
        {
          "duration": 0.4166659999999993,
          "durationTicks": 1024,
          "midi": 79,
          "name": "G5",
          "ticks": 130731,
          "time": 53.194494966796874,
          "velocity": 0.5039370078740157
        },
        {
          "duration": 0.4166659999999993,
          "durationTicks": 1024,
          "midi": 84,
          "name": "C6",
          "ticks": 130731,
          "time": 53.194494966796874,
          "velocity": 0.5039370078740157
        },
        {
          "duration": 0.4166659999999993,
          "durationTicks": 1024,
          "midi": 88,
          "name": "E6",
          "ticks": 130731,
          "time": 53.194494966796874,
          "velocity": 0.5039370078740157
        },
        {
          "duration": 0.8333319999999986,
          "durationTicks": 2048,
          "midi": 48,
          "name": "C3",
          "ticks": 130731,
          "time": 53.194494966796874,
          "velocity": 0.5039370078740157
        },
        {
          "duration": 0.13875303320312327,
          "durationTicks": 341,
          "midi": 79,
          "name": "G5",
          "ticks": 131755,
          "time": 53.611160966796874,
          "velocity": 0.5039370078740157
        },
        {
          "duration": 0.13875303320312327,
          "durationTicks": 341,
          "midi": 84,
          "name": "C6",
          "ticks": 131755,
          "time": 53.611160966796874,
          "velocity": 0.5039370078740157
        },
        {
          "duration": 0.13875303320312327,
          "durationTicks": 341,
          "midi": 88,
          "name": "E6",
          "ticks": 131755,
          "time": 53.611160966796874,
          "velocity": 0.5039370078740157
        },
        {
          "duration": 0.4166659999999993,
          "durationTicks": 1024,
          "midi": 79,
          "name": "G5",
          "ticks": 132096,
          "time": 53.749914,
          "velocity": 0.5039370078740157
        },
        {
          "duration": 0.4166659999999993,
          "durationTicks": 1024,
          "midi": 83,
          "name": "B5",
          "ticks": 132096,
          "time": 53.749914,
          "velocity": 0.5039370078740157
        },
        {
          "duration": 0.4166659999999993,
          "durationTicks": 1024,
          "midi": 86,
          "name": "D6",
          "ticks": 132096,
          "time": 53.749914,
          "velocity": 0.5039370078740157
        },
        {
          "duration": 0.13875303320312327,
          "durationTicks": 341,
          "midi": 48,
          "name": "C3",
          "ticks": 132779,
          "time": 54.02782696679687,
          "velocity": 0.5039370078740157
        },
        {
          "duration": 0.4166659999999993,
          "durationTicks": 1024,
          "midi": 79,
          "name": "G5",
          "ticks": 133120,
          "time": 54.166579999999996,
          "velocity": 0.5039370078740157
        },
        {
          "duration": 0.4166659999999993,
          "durationTicks": 1024,
          "midi": 81,
          "name": "A5",
          "ticks": 133120,
          "time": 54.166579999999996,
          "velocity": 0.5039370078740157
        },
        {
          "duration": 0.4166659999999993,
          "durationTicks": 1024,
          "midi": 84,
          "name": "C6",
          "ticks": 133120,
          "time": 54.166579999999996,
          "velocity": 0.5039370078740157
        },
        {
          "duration": 0.6945789667968754,
          "durationTicks": 1707,
          "midi": 45,
          "name": "A2",
          "ticks": 133120,
          "time": 54.166579999999996,
          "velocity": 0.5039370078740157
        },
        {
          "duration": 0.27791296679687605,
          "durationTicks": 683,
          "midi": 79,
          "name": "G5",
          "ticks": 134144,
          "time": 54.583245999999995,
          "velocity": 0.5039370078740157
        },
        {
          "duration": 0.27791296679687605,
          "durationTicks": 683,
          "midi": 83,
          "name": "B5",
          "ticks": 134144,
          "time": 54.583245999999995,
          "velocity": 0.5039370078740157
        },
        {
          "duration": 0.27791296679687605,
          "durationTicks": 683,
          "midi": 86,
          "name": "D6",
          "ticks": 134144,
          "time": 54.583245999999995,
          "velocity": 0.5039370078740157
        },
        {
          "duration": 0.5554190332031226,
          "durationTicks": 1365,
          "midi": 79,
          "name": "G5",
          "ticks": 134827,
          "time": 54.86115896679687,
          "velocity": 0.5039370078740157
        },
        {
          "duration": 0.5554190332031226,
          "durationTicks": 1365,
          "midi": 81,
          "name": "A5",
          "ticks": 134827,
          "time": 54.86115896679687,
          "velocity": 0.5039370078740157
        },
        {
          "duration": 0.5554190332031226,
          "durationTicks": 1365,
          "midi": 84,
          "name": "C6",
          "ticks": 134827,
          "time": 54.86115896679687,
          "velocity": 0.5039370078740157
        },
        {
          "duration": 0.13875303320312327,
          "durationTicks": 341,
          "midi": 45,
          "name": "A2",
          "ticks": 134827,
          "time": 54.86115896679687,
          "velocity": 0.5039370078740157
        },
        {
          "duration": 0.6945789667968754,
          "durationTicks": 1707,
          "midi": 50,
          "name": "D3",
          "ticks": 135168,
          "time": 54.999911999999995,
          "velocity": 0.5039370078740157
        },
        {
          "duration": 0.27791296679687605,
          "durationTicks": 683,
          "midi": 79,
          "name": "G5",
          "ticks": 136192,
          "time": 55.416577999999994,
          "velocity": 0.5039370078740157
        },
        {
          "duration": 0.27791296679687605,
          "durationTicks": 683,
          "midi": 81,
          "name": "A5",
          "ticks": 136192,
          "time": 55.416577999999994,
          "velocity": 0.5039370078740157
        },
        {
          "duration": 0.27791296679687605,
          "durationTicks": 683,
          "midi": 84,
          "name": "C6",
          "ticks": 136192,
          "time": 55.416577999999994,
          "velocity": 0.5039370078740157
        },
        {
          "duration": 0.13875303320313037,
          "durationTicks": 341,
          "midi": 79,
          "name": "G5",
          "ticks": 136875,
          "time": 55.69449096679687,
          "velocity": 0.5039370078740157
        },
        {
          "duration": 0.13875303320313037,
          "durationTicks": 341,
          "midi": 83,
          "name": "B5",
          "ticks": 136875,
          "time": 55.69449096679687,
          "velocity": 0.5039370078740157
        },
        {
          "duration": 0.13875303320313037,
          "durationTicks": 341,
          "midi": 86,
          "name": "D6",
          "ticks": 136875,
          "time": 55.69449096679687,
          "velocity": 0.5039370078740157
        },
        {
          "duration": 0.13875303320313037,
          "durationTicks": 341,
          "midi": 50,
          "name": "D3",
          "ticks": 136875,
          "time": 55.69449096679687,
          "velocity": 0.5039370078740157
        },
        {
          "duration": 0.6945789667968754,
          "durationTicks": 1707,
          "midi": 43,
          "name": "G2",
          "ticks": 137216,
          "time": 55.833244,
          "velocity": 0.5039370078740157
        },
        {
          "duration": 0.13875303320313037,
          "durationTicks": 341,
          "midi": 79,
          "name": "G5",
          "ticks": 137899,
          "time": 56.11115696679687,
          "velocity": 0.5039370078740157
        },
        {
          "duration": 0.13875303320313037,
          "durationTicks": 341,
          "midi": 83,
          "name": "B5",
          "ticks": 137899,
          "time": 56.11115696679687,
          "velocity": 0.5039370078740157
        },
        {
          "duration": 0.13875303320313037,
          "durationTicks": 341,
          "midi": 86,
          "name": "D6",
          "ticks": 137899,
          "time": 56.11115696679687,
          "velocity": 0.5039370078740157
        },
        {
          "duration": 0.4166659999999993,
          "durationTicks": 1024,
          "midi": 79,
          "name": "G5",
          "ticks": 138923,
          "time": 56.527822966796876,
          "velocity": 0.5039370078740157
        },
        {
          "duration": 0.4166659999999993,
          "durationTicks": 1024,
          "midi": 84,
          "name": "C6",
          "ticks": 138923,
          "time": 56.527822966796876,
          "velocity": 0.5039370078740157
        },
        {
          "duration": 0.4166659999999993,
          "durationTicks": 1024,
          "midi": 88,
          "name": "E6",
          "ticks": 138923,
          "time": 56.527822966796876,
          "velocity": 0.5039370078740157
        },
        {
          "duration": 0.13875303320312327,
          "durationTicks": 341,
          "midi": 43,
          "name": "G2",
          "ticks": 138923,
          "time": 56.527822966796876,
          "velocity": 0.5039370078740157
        },
        {
          "duration": 0.6945789667968754,
          "durationTicks": 1707,
          "midi": 45,
          "name": "A2",
          "ticks": 139264,
          "time": 56.666576,
          "velocity": 0.5039370078740157
        },
        {
          "duration": 0.13875303320312327,
          "durationTicks": 341,
          "midi": 79,
          "name": "G5",
          "ticks": 139947,
          "time": 56.944488966796875,
          "velocity": 0.5039370078740157
        },
        {
          "duration": 0.13875303320312327,
          "durationTicks": 341,
          "midi": 84,
          "name": "C6",
          "ticks": 139947,
          "time": 56.944488966796875,
          "velocity": 0.5039370078740157
        },
        {
          "duration": 0.13875303320312327,
          "durationTicks": 341,
          "midi": 88,
          "name": "E6",
          "ticks": 139947,
          "time": 56.944488966796875,
          "velocity": 0.5039370078740157
        },
        {
          "duration": 0.4166659999999993,
          "durationTicks": 1024,
          "midi": 79,
          "name": "G5",
          "ticks": 140288,
          "time": 57.083242,
          "velocity": 0.5039370078740157
        },
        {
          "duration": 0.4166659999999993,
          "durationTicks": 1024,
          "midi": 83,
          "name": "B5",
          "ticks": 140288,
          "time": 57.083242,
          "velocity": 0.5039370078740157
        },
        {
          "duration": 0.4166659999999993,
          "durationTicks": 1024,
          "midi": 86,
          "name": "D6",
          "ticks": 140288,
          "time": 57.083242,
          "velocity": 0.5039370078740157
        },
        {
          "duration": 0.13875303320312327,
          "durationTicks": 341,
          "midi": 45,
          "name": "A2",
          "ticks": 140971,
          "time": 57.361154966796875,
          "velocity": 0.5039370078740157
        },
        {
          "duration": 0.4166659999999993,
          "durationTicks": 1024,
          "midi": 79,
          "name": "G5",
          "ticks": 141312,
          "time": 57.499908,
          "velocity": 0.5039370078740157
        },
        {
          "duration": 0.4166659999999993,
          "durationTicks": 1024,
          "midi": 81,
          "name": "A5",
          "ticks": 141312,
          "time": 57.499908,
          "velocity": 0.5039370078740157
        },
        {
          "duration": 0.4166659999999993,
          "durationTicks": 1024,
          "midi": 84,
          "name": "C6",
          "ticks": 141312,
          "time": 57.499908,
          "velocity": 0.5039370078740157
        },
        {
          "duration": 0.6945789667968754,
          "durationTicks": 1707,
          "midi": 52,
          "name": "E3",
          "ticks": 141312,
          "time": 57.499908,
          "velocity": 0.5039370078740157
        },
        {
          "duration": 0.27791296679687605,
          "durationTicks": 683,
          "midi": 79,
          "name": "G5",
          "ticks": 142336,
          "time": 57.916574,
          "velocity": 0.5039370078740157
        },
        {
          "duration": 0.27791296679687605,
          "durationTicks": 683,
          "midi": 83,
          "name": "B5",
          "ticks": 142336,
          "time": 57.916574,
          "velocity": 0.5039370078740157
        },
        {
          "duration": 0.27791296679687605,
          "durationTicks": 683,
          "midi": 86,
          "name": "D6",
          "ticks": 142336,
          "time": 57.916574,
          "velocity": 0.5039370078740157
        },
        {
          "duration": 0.5554190332031226,
          "durationTicks": 1365,
          "midi": 79,
          "name": "G5",
          "ticks": 143019,
          "time": 58.19448696679687,
          "velocity": 0.5039370078740157
        },
        {
          "duration": 0.5554190332031226,
          "durationTicks": 1365,
          "midi": 81,
          "name": "A5",
          "ticks": 143019,
          "time": 58.19448696679687,
          "velocity": 0.5039370078740157
        },
        {
          "duration": 0.5554190332031226,
          "durationTicks": 1365,
          "midi": 84,
          "name": "C6",
          "ticks": 143019,
          "time": 58.19448696679687,
          "velocity": 0.5039370078740157
        },
        {
          "duration": 0.13875303320312327,
          "durationTicks": 341,
          "midi": 52,
          "name": "E3",
          "ticks": 143019,
          "time": 58.19448696679687,
          "velocity": 0.5039370078740157
        },
        {
          "duration": 0.6945789667968754,
          "durationTicks": 1707,
          "midi": 50,
          "name": "D3",
          "ticks": 143360,
          "time": 58.333239999999996,
          "velocity": 0.5039370078740157
        },
        {
          "duration": 0.27791296679687605,
          "durationTicks": 683,
          "midi": 79,
          "name": "G5",
          "ticks": 144384,
          "time": 58.749905999999996,
          "velocity": 0.5039370078740157
        },
        {
          "duration": 0.27791296679687605,
          "durationTicks": 683,
          "midi": 81,
          "name": "A5",
          "ticks": 144384,
          "time": 58.749905999999996,
          "velocity": 0.5039370078740157
        },
        {
          "duration": 0.27791296679687605,
          "durationTicks": 683,
          "midi": 84,
          "name": "C6",
          "ticks": 144384,
          "time": 58.749905999999996,
          "velocity": 0.5039370078740157
        },
        {
          "duration": 0.13875303320312327,
          "durationTicks": 341,
          "midi": 79,
          "name": "G5",
          "ticks": 145067,
          "time": 59.02781896679687,
          "velocity": 0.5039370078740157
        },
        {
          "duration": 0.13875303320312327,
          "durationTicks": 341,
          "midi": 83,
          "name": "B5",
          "ticks": 145067,
          "time": 59.02781896679687,
          "velocity": 0.5039370078740157
        },
        {
          "duration": 0.13875303320312327,
          "durationTicks": 341,
          "midi": 86,
          "name": "D6",
          "ticks": 145067,
          "time": 59.02781896679687,
          "velocity": 0.5039370078740157
        },
        {
          "duration": 0.13875303320312327,
          "durationTicks": 341,
          "midi": 50,
          "name": "D3",
          "ticks": 145067,
          "time": 59.02781896679687,
          "velocity": 0.5039370078740157
        },
        {
          "duration": 0.27791296679687605,
          "durationTicks": 683,
          "midi": 43,
          "name": "G2",
          "ticks": 145408,
          "time": 59.166571999999995,
          "velocity": 0.5039370078740157
        },
        {
          "duration": 0.13875303320312327,
          "durationTicks": 341,
          "midi": 79,
          "name": "G5",
          "ticks": 146091,
          "time": 59.44448496679687,
          "velocity": 0.5039370078740157
        },
        {
          "duration": 0.13875303320312327,
          "durationTicks": 341,
          "midi": 83,
          "name": "B5",
          "ticks": 146091,
          "time": 59.44448496679687,
          "velocity": 0.5039370078740157
        },
        {
          "duration": 0.13875303320312327,
          "durationTicks": 341,
          "midi": 86,
          "name": "D6",
          "ticks": 146091,
          "time": 59.44448496679687,
          "velocity": 0.5039370078740157
        },
        {
          "duration": 0.13875303320312327,
          "durationTicks": 341,
          "midi": 45,
          "name": "A2",
          "ticks": 146091,
          "time": 59.44448496679687,
          "velocity": 0.5039370078740157
        },
        {
          "duration": 0.27791296679687605,
          "durationTicks": 683,
          "midi": 43,
          "name": "G2",
          "ticks": 146432,
          "time": 59.583237999999994,
          "velocity": 0.5039370078740157
        },
        {
          "duration": 0.4166659999999993,
          "durationTicks": 1024,
          "midi": 67,
          "name": "G4",
          "ticks": 147115,
          "time": 59.86115096679687,
          "velocity": 0.5039370078740157
        },
        {
          "duration": 0.4166659999999993,
          "durationTicks": 1024,
          "midi": 72,
          "name": "C5",
          "ticks": 147115,
          "time": 59.86115096679687,
          "velocity": 0.5039370078740157
        },
        {
          "duration": 0.4166659999999993,
          "durationTicks": 1024,
          "midi": 76,
          "name": "E5",
          "ticks": 147115,
          "time": 59.86115096679687,
          "velocity": 0.5039370078740157
        },
        {
          "duration": 0.8333319999999986,
          "durationTicks": 2048,
          "midi": 48,
          "name": "C3",
          "ticks": 147115,
          "time": 59.86115096679687,
          "velocity": 0.5039370078740157
        },
        {
          "duration": 0.13875303320313037,
          "durationTicks": 341,
          "midi": 67,
          "name": "G4",
          "ticks": 148139,
          "time": 60.27781696679687,
          "velocity": 0.5039370078740157
        },
        {
          "duration": 0.13875303320313037,
          "durationTicks": 341,
          "midi": 72,
          "name": "C5",
          "ticks": 148139,
          "time": 60.27781696679687,
          "velocity": 0.5039370078740157
        },
        {
          "duration": 0.13875303320313037,
          "durationTicks": 341,
          "midi": 76,
          "name": "E5",
          "ticks": 148139,
          "time": 60.27781696679687,
          "velocity": 0.5039370078740157
        },
        {
          "duration": 0.4166659999999993,
          "durationTicks": 1024,
          "midi": 67,
          "name": "G4",
          "ticks": 148480,
          "time": 60.41657,
          "velocity": 0.5039370078740157
        },
        {
          "duration": 0.4166659999999993,
          "durationTicks": 1024,
          "midi": 71,
          "name": "B4",
          "ticks": 148480,
          "time": 60.41657,
          "velocity": 0.5039370078740157
        },
        {
          "duration": 0.4166659999999993,
          "durationTicks": 1024,
          "midi": 74,
          "name": "D5",
          "ticks": 148480,
          "time": 60.41657,
          "velocity": 0.5039370078740157
        },
        {
          "duration": 0.13875303320313037,
          "durationTicks": 341,
          "midi": 48,
          "name": "C3",
          "ticks": 149163,
          "time": 60.69448296679687,
          "velocity": 0.5039370078740157
        },
        {
          "duration": 0.4166659999999993,
          "durationTicks": 1024,
          "midi": 67,
          "name": "G4",
          "ticks": 149504,
          "time": 60.833236,
          "velocity": 0.5039370078740157
        },
        {
          "duration": 0.4166659999999993,
          "durationTicks": 1024,
          "midi": 69,
          "name": "A4",
          "ticks": 149504,
          "time": 60.833236,
          "velocity": 0.5039370078740157
        },
        {
          "duration": 0.4166659999999993,
          "durationTicks": 1024,
          "midi": 72,
          "name": "C5",
          "ticks": 149504,
          "time": 60.833236,
          "velocity": 0.5039370078740157
        },
        {
          "duration": 0.6945789667968754,
          "durationTicks": 1707,
          "midi": 45,
          "name": "A2",
          "ticks": 149504,
          "time": 60.833236,
          "velocity": 0.5039370078740157
        },
        {
          "duration": 0.27791296679687605,
          "durationTicks": 683,
          "midi": 67,
          "name": "G4",
          "ticks": 150528,
          "time": 61.249902,
          "velocity": 0.5039370078740157
        },
        {
          "duration": 0.27791296679687605,
          "durationTicks": 683,
          "midi": 71,
          "name": "B4",
          "ticks": 150528,
          "time": 61.249902,
          "velocity": 0.5039370078740157
        },
        {
          "duration": 0.27791296679687605,
          "durationTicks": 683,
          "midi": 74,
          "name": "D5",
          "ticks": 150528,
          "time": 61.249902,
          "velocity": 0.5039370078740157
        },
        {
          "duration": 0.5554190332031226,
          "durationTicks": 1365,
          "midi": 67,
          "name": "G4",
          "ticks": 151211,
          "time": 61.527814966796875,
          "velocity": 0.5039370078740157
        },
        {
          "duration": 0.5554190332031226,
          "durationTicks": 1365,
          "midi": 69,
          "name": "A4",
          "ticks": 151211,
          "time": 61.527814966796875,
          "velocity": 0.5039370078740157
        },
        {
          "duration": 0.5554190332031226,
          "durationTicks": 1365,
          "midi": 72,
          "name": "C5",
          "ticks": 151211,
          "time": 61.527814966796875,
          "velocity": 0.5039370078740157
        },
        {
          "duration": 0.13875303320312327,
          "durationTicks": 341,
          "midi": 45,
          "name": "A2",
          "ticks": 151211,
          "time": 61.527814966796875,
          "velocity": 0.5039370078740157
        },
        {
          "duration": 0.6945789667968754,
          "durationTicks": 1707,
          "midi": 50,
          "name": "D3",
          "ticks": 151552,
          "time": 61.666568,
          "velocity": 0.5039370078740157
        },
        {
          "duration": 0.27791296679687605,
          "durationTicks": 683,
          "midi": 67,
          "name": "G4",
          "ticks": 152576,
          "time": 62.083234,
          "velocity": 0.5039370078740157
        },
        {
          "duration": 0.27791296679687605,
          "durationTicks": 683,
          "midi": 69,
          "name": "A4",
          "ticks": 152576,
          "time": 62.083234,
          "velocity": 0.5039370078740157
        },
        {
          "duration": 0.27791296679687605,
          "durationTicks": 683,
          "midi": 72,
          "name": "C5",
          "ticks": 152576,
          "time": 62.083234,
          "velocity": 0.5039370078740157
        },
        {
          "duration": 0.13875303320312327,
          "durationTicks": 341,
          "midi": 67,
          "name": "G4",
          "ticks": 153259,
          "time": 62.36114696679687,
          "velocity": 0.5039370078740157
        },
        {
          "duration": 0.13875303320312327,
          "durationTicks": 341,
          "midi": 71,
          "name": "B4",
          "ticks": 153259,
          "time": 62.36114696679687,
          "velocity": 0.5039370078740157
        },
        {
          "duration": 0.13875303320312327,
          "durationTicks": 341,
          "midi": 74,
          "name": "D5",
          "ticks": 153259,
          "time": 62.36114696679687,
          "velocity": 0.5039370078740157
        },
        {
          "duration": 0.13875303320312327,
          "durationTicks": 341,
          "midi": 50,
          "name": "D3",
          "ticks": 153259,
          "time": 62.36114696679687,
          "velocity": 0.5039370078740157
        },
        {
          "duration": 0.6945789667968754,
          "durationTicks": 1707,
          "midi": 43,
          "name": "G2",
          "ticks": 153600,
          "time": 62.4999,
          "velocity": 0.5039370078740157
        },
        {
          "duration": 0.13875303320312327,
          "durationTicks": 341,
          "midi": 67,
          "name": "G4",
          "ticks": 154283,
          "time": 62.77781296679687,
          "velocity": 0.5039370078740157
        },
        {
          "duration": 0.13875303320312327,
          "durationTicks": 341,
          "midi": 71,
          "name": "B4",
          "ticks": 154283,
          "time": 62.77781296679687,
          "velocity": 0.5039370078740157
        },
        {
          "duration": 0.13875303320312327,
          "durationTicks": 341,
          "midi": 74,
          "name": "D5",
          "ticks": 154283,
          "time": 62.77781296679687,
          "velocity": 0.5039370078740157
        },
        {
          "duration": 0.4166659999999993,
          "durationTicks": 1024,
          "midi": 67,
          "name": "G4",
          "ticks": 155307,
          "time": 63.19447896679687,
          "velocity": 0.5039370078740157
        },
        {
          "duration": 0.4166659999999993,
          "durationTicks": 1024,
          "midi": 72,
          "name": "C5",
          "ticks": 155307,
          "time": 63.19447896679687,
          "velocity": 0.5039370078740157
        },
        {
          "duration": 0.4166659999999993,
          "durationTicks": 1024,
          "midi": 76,
          "name": "E5",
          "ticks": 155307,
          "time": 63.19447896679687,
          "velocity": 0.5039370078740157
        },
        {
          "duration": 0.13875303320312327,
          "durationTicks": 341,
          "midi": 43,
          "name": "G2",
          "ticks": 155307,
          "time": 63.19447896679687,
          "velocity": 0.5039370078740157
        },
        {
          "duration": 0.6945789667968825,
          "durationTicks": 1707,
          "midi": 45,
          "name": "A2",
          "ticks": 155648,
          "time": 63.333231999999995,
          "velocity": 0.5039370078740157
        },
        {
          "duration": 0.13875303320312327,
          "durationTicks": 341,
          "midi": 67,
          "name": "G4",
          "ticks": 156331,
          "time": 63.61114496679687,
          "velocity": 0.5039370078740157
        },
        {
          "duration": 0.13875303320312327,
          "durationTicks": 341,
          "midi": 72,
          "name": "C5",
          "ticks": 156331,
          "time": 63.61114496679687,
          "velocity": 0.5039370078740157
        },
        {
          "duration": 0.13875303320312327,
          "durationTicks": 341,
          "midi": 76,
          "name": "E5",
          "ticks": 156331,
          "time": 63.61114496679687,
          "velocity": 0.5039370078740157
        },
        {
          "duration": 0.4166659999999993,
          "durationTicks": 1024,
          "midi": 67,
          "name": "G4",
          "ticks": 156672,
          "time": 63.749897999999995,
          "velocity": 0.5039370078740157
        },
        {
          "duration": 0.4166659999999993,
          "durationTicks": 1024,
          "midi": 71,
          "name": "B4",
          "ticks": 156672,
          "time": 63.749897999999995,
          "velocity": 0.5039370078740157
        },
        {
          "duration": 0.4166659999999993,
          "durationTicks": 1024,
          "midi": 74,
          "name": "D5",
          "ticks": 156672,
          "time": 63.749897999999995,
          "velocity": 0.5039370078740157
        },
        {
          "duration": 0.13875303320311616,
          "durationTicks": 341,
          "midi": 45,
          "name": "A2",
          "ticks": 157355,
          "time": 64.02781096679688,
          "velocity": 0.5039370078740157
        },
        {
          "duration": 0.4166660000000064,
          "durationTicks": 1024,
          "midi": 67,
          "name": "G4",
          "ticks": 157696,
          "time": 64.166564,
          "velocity": 0.5039370078740157
        },
        {
          "duration": 0.4166660000000064,
          "durationTicks": 1024,
          "midi": 69,
          "name": "A4",
          "ticks": 157696,
          "time": 64.166564,
          "velocity": 0.5039370078740157
        },
        {
          "duration": 0.4166660000000064,
          "durationTicks": 1024,
          "midi": 72,
          "name": "C5",
          "ticks": 157696,
          "time": 64.166564,
          "velocity": 0.5039370078740157
        },
        {
          "duration": 0.6945789667968825,
          "durationTicks": 1707,
          "midi": 52,
          "name": "E3",
          "ticks": 157696,
          "time": 64.166564,
          "velocity": 0.5039370078740157
        },
        {
          "duration": 0.27791296679687605,
          "durationTicks": 683,
          "midi": 67,
          "name": "G4",
          "ticks": 158720,
          "time": 64.58323,
          "velocity": 0.5039370078740157
        },
        {
          "duration": 0.27791296679687605,
          "durationTicks": 683,
          "midi": 71,
          "name": "B4",
          "ticks": 158720,
          "time": 64.58323,
          "velocity": 0.5039370078740157
        },
        {
          "duration": 0.27791296679687605,
          "durationTicks": 683,
          "midi": 74,
          "name": "D5",
          "ticks": 158720,
          "time": 64.58323,
          "velocity": 0.5039370078740157
        },
        {
          "duration": 0.5554190332031226,
          "durationTicks": 1365,
          "midi": 67,
          "name": "G4",
          "ticks": 159403,
          "time": 64.86114296679688,
          "velocity": 0.5039370078740157
        },
        {
          "duration": 0.5554190332031226,
          "durationTicks": 1365,
          "midi": 69,
          "name": "A4",
          "ticks": 159403,
          "time": 64.86114296679688,
          "velocity": 0.5039370078740157
        },
        {
          "duration": 0.5554190332031226,
          "durationTicks": 1365,
          "midi": 72,
          "name": "C5",
          "ticks": 159403,
          "time": 64.86114296679688,
          "velocity": 0.5039370078740157
        },
        {
          "duration": 0.13875303320311616,
          "durationTicks": 341,
          "midi": 52,
          "name": "E3",
          "ticks": 159403,
          "time": 64.86114296679688,
          "velocity": 0.5039370078740157
        },
        {
          "duration": 0.6945789667968825,
          "durationTicks": 1707,
          "midi": 50,
          "name": "D3",
          "ticks": 159744,
          "time": 64.99989599999999,
          "velocity": 0.5039370078740157
        },
        {
          "duration": 0.27791296679687605,
          "durationTicks": 683,
          "midi": 67,
          "name": "G4",
          "ticks": 160768,
          "time": 65.416562,
          "velocity": 0.5039370078740157
        },
        {
          "duration": 0.27791296679687605,
          "durationTicks": 683,
          "midi": 69,
          "name": "A4",
          "ticks": 160768,
          "time": 65.416562,
          "velocity": 0.5039370078740157
        },
        {
          "duration": 0.27791296679687605,
          "durationTicks": 683,
          "midi": 72,
          "name": "C5",
          "ticks": 160768,
          "time": 65.416562,
          "velocity": 0.5039370078740157
        },
        {
          "duration": 0.13875303320311616,
          "durationTicks": 341,
          "midi": 67,
          "name": "G4",
          "ticks": 161451,
          "time": 65.69447496679688,
          "velocity": 0.5039370078740157
        },
        {
          "duration": 0.13875303320311616,
          "durationTicks": 341,
          "midi": 71,
          "name": "B4",
          "ticks": 161451,
          "time": 65.69447496679688,
          "velocity": 0.5039370078740157
        },
        {
          "duration": 0.13875303320311616,
          "durationTicks": 341,
          "midi": 74,
          "name": "D5",
          "ticks": 161451,
          "time": 65.69447496679688,
          "velocity": 0.5039370078740157
        },
        {
          "duration": 0.13875303320311616,
          "durationTicks": 341,
          "midi": 50,
          "name": "D3",
          "ticks": 161451,
          "time": 65.69447496679688,
          "velocity": 0.5039370078740157
        },
        {
          "duration": 0.6945789667968825,
          "durationTicks": 1707,
          "midi": 43,
          "name": "G2",
          "ticks": 161792,
          "time": 65.83322799999999,
          "velocity": 0.5039370078740157
        },
        {
          "duration": 0.13875303320313037,
          "durationTicks": 341,
          "midi": 67,
          "name": "G4",
          "ticks": 162475,
          "time": 66.11114096679687,
          "velocity": 0.5039370078740157
        },
        {
          "duration": 0.13875303320313037,
          "durationTicks": 341,
          "midi": 71,
          "name": "B4",
          "ticks": 162475,
          "time": 66.11114096679687,
          "velocity": 0.5039370078740157
        },
        {
          "duration": 0.13875303320313037,
          "durationTicks": 341,
          "midi": 74,
          "name": "D5",
          "ticks": 162475,
          "time": 66.11114096679687,
          "velocity": 0.5039370078740157
        },
        {
          "duration": 0.4166659999999922,
          "durationTicks": 1024,
          "midi": 67,
          "name": "G4",
          "ticks": 163499,
          "time": 66.52780696679687,
          "velocity": 0.5039370078740157
        },
        {
          "duration": 0.4166659999999922,
          "durationTicks": 1024,
          "midi": 72,
          "name": "C5",
          "ticks": 163499,
          "time": 66.52780696679687,
          "velocity": 0.5039370078740157
        },
        {
          "duration": 0.4166659999999922,
          "durationTicks": 1024,
          "midi": 76,
          "name": "E5",
          "ticks": 163499,
          "time": 66.52780696679687,
          "velocity": 0.5039370078740157
        },
        {
          "duration": 0.8333319999999986,
          "durationTicks": 2048,
          "midi": 48,
          "name": "C3",
          "ticks": 163499,
          "time": 66.52780696679687,
          "velocity": 0.5039370078740157
        },
        {
          "duration": 0.13875303320313037,
          "durationTicks": 341,
          "midi": 67,
          "name": "G4",
          "ticks": 164523,
          "time": 66.94447296679687,
          "velocity": 0.5039370078740157
        },
        {
          "duration": 0.27791296679687605,
          "durationTicks": 683,
          "midi": 69,
          "name": "A4",
          "ticks": 164864,
          "time": 67.083226,
          "velocity": 0.5039370078740157
        },
        {
          "duration": 0.13875303320313037,
          "durationTicks": 341,
          "midi": 72,
          "name": "C5",
          "ticks": 165547,
          "time": 67.36113896679687,
          "velocity": 0.5039370078740157
        },
        {
          "duration": 0.13875303320313037,
          "durationTicks": 341,
          "midi": 48,
          "name": "C3",
          "ticks": 165547,
          "time": 67.36113896679687,
          "velocity": 0.5039370078740157
        },
        {
          "duration": 0.27791296679687605,
          "durationTicks": 683,
          "midi": 75,
          "name": "D#5",
          "ticks": 165888,
          "time": 67.499892,
          "velocity": 0.5039370078740157
        },
        {
          "duration": 0.6945789667968683,
          "durationTicks": 1707,
          "midi": 45,
          "name": "A2",
          "ticks": 165888,
          "time": 67.499892,
          "velocity": 0.5039370078740157
        },
        {
          "duration": 0.13875303320311616,
          "durationTicks": 341,
          "midi": 76,
          "name": "E5",
          "ticks": 166571,
          "time": 67.77780496679688,
          "velocity": 0.5039370078740157
        },
        {
          "duration": 0.27791296679687605,
          "durationTicks": 683,
          "midi": 77,
          "name": "F5",
          "ticks": 166912,
          "time": 67.916558,
          "velocity": 0.5039370078740157
        },
        {
          "duration": 0.13875303320313037,
          "durationTicks": 341,
          "midi": 78,
          "name": "F#5",
          "ticks": 167595,
          "time": 68.19447096679687,
          "velocity": 0.5039370078740157
        },
        {
          "duration": 0.13875303320313037,
          "durationTicks": 341,
          "midi": 45,
          "name": "A2",
          "ticks": 167595,
          "time": 68.19447096679687,
          "velocity": 0.5039370078740157
        },
        {
          "duration": 0.27791296679687605,
          "durationTicks": 683,
          "midi": 69,
          "name": "A4",
          "ticks": 167936,
          "time": 68.333224,
          "velocity": 0.5039370078740157
        },
        {
          "duration": 0.27791296679687605,
          "durationTicks": 683,
          "midi": 72,
          "name": "C5",
          "ticks": 167936,
          "time": 68.333224,
          "velocity": 0.5039370078740157
        },
        {
          "duration": 0.27791296679687605,
          "durationTicks": 683,
          "midi": 77,
          "name": "F5",
          "ticks": 167936,
          "time": 68.333224,
          "velocity": 0.5039370078740157
        },
        {
          "duration": 0.27791296679687605,
          "durationTicks": 683,
          "midi": 79,
          "name": "G5",
          "ticks": 167936,
          "time": 68.333224,
          "velocity": 0.5039370078740157
        },
        {
          "duration": 0.6945789667968683,
          "durationTicks": 1707,
          "midi": 50,
          "name": "D3",
          "ticks": 167936,
          "time": 68.333224,
          "velocity": 0.5039370078740157
        },
        {
          "duration": 0.5554190332031226,
          "durationTicks": 1365,
          "midi": 69,
          "name": "A4",
          "ticks": 168619,
          "time": 68.61113696679688,
          "velocity": 0.5039370078740157
        },
        {
          "duration": 0.5554190332031226,
          "durationTicks": 1365,
          "midi": 72,
          "name": "C5",
          "ticks": 168619,
          "time": 68.61113696679688,
          "velocity": 0.5039370078740157
        },
        {
          "duration": 0.5554190332031226,
          "durationTicks": 1365,
          "midi": 76,
          "name": "E5",
          "ticks": 168619,
          "time": 68.61113696679688,
          "velocity": 0.5039370078740157
        },
        {
          "duration": 0.13875303320313037,
          "durationTicks": 341,
          "midi": 50,
          "name": "D3",
          "ticks": 169643,
          "time": 69.02780296679687,
          "velocity": 0.5039370078740157
        },
        {
          "duration": 0.13875303320311616,
          "durationTicks": 341,
          "midi": 75,
          "name": "D#5",
          "ticks": 169984,
          "time": 69.166556,
          "velocity": 0.5039370078740157
        },
        {
          "duration": 0.6945789667968683,
          "durationTicks": 1707,
          "midi": 43,
          "name": "G2",
          "ticks": 169984,
          "time": 69.166556,
          "velocity": 0.5039370078740157
        },
        {
          "duration": 0.1391599335937599,
          "durationTicks": 342,
          "midi": 74,
          "name": "D5",
          "ticks": 170325,
          "time": 69.30530903320312,
          "velocity": 0.5039370078740157
        },
        {
          "duration": 0.13875303320311616,
          "durationTicks": 341,
          "midi": 72,
          "name": "C5",
          "ticks": 170667,
          "time": 69.44446896679688,
          "velocity": 0.5039370078740157
        },
        {
          "duration": 0.27791296679687605,
          "durationTicks": 683,
          "midi": 74,
          "name": "D5",
          "ticks": 171008,
          "time": 69.58322199999999,
          "velocity": 0.5039370078740157
        },
        {
          "duration": 0.13875303320313037,
          "durationTicks": 341,
          "midi": 72,
          "name": "C5",
          "ticks": 171691,
          "time": 69.86113496679687,
          "velocity": 0.5039370078740157
        },
        {
          "duration": 0.13875303320313037,
          "durationTicks": 341,
          "midi": 43,
          "name": "G2",
          "ticks": 171691,
          "time": 69.86113496679687,
          "velocity": 0.5039370078740157
        },
        {
          "duration": 0.6945789667968683,
          "durationTicks": 1707,
          "midi": 45,
          "name": "A2",
          "ticks": 172032,
          "time": 69.999888,
          "velocity": 0.5039370078740157
        },
        {
          "duration": 0.13875303320311616,
          "durationTicks": 341,
          "midi": 80,
          "name": "G#5",
          "ticks": 172715,
          "time": 70.27780096679687,
          "velocity": 0.5039370078740157
        },
        {
          "duration": 0.13875303320313037,
          "durationTicks": 341,
          "midi": 81,
          "name": "A5",
          "ticks": 173056,
          "time": 70.41655399999999,
          "velocity": 0.5039370078740157
        },
        {
          "duration": 0.13875303320313037,
          "durationTicks": 341,
          "midi": 79,
          "name": "G5",
          "ticks": 173739,
          "time": 70.69446696679687,
          "velocity": 0.5039370078740157
        },
        {
          "duration": 0.13875303320313037,
          "durationTicks": 341,
          "midi": 45,
          "name": "A2",
          "ticks": 173739,
          "time": 70.69446696679687,
          "velocity": 0.5039370078740157
        },
        {
          "duration": 0.27791296679687605,
          "durationTicks": 683,
          "midi": 75,
          "name": "D#5",
          "ticks": 174080,
          "time": 70.83322,
          "velocity": 0.5039370078740157
        },
        {
          "duration": 0.6945789667968683,
          "durationTicks": 1707,
          "midi": 52,
          "name": "E3",
          "ticks": 174080,
          "time": 70.83322,
          "velocity": 0.5039370078740157
        },
        {
          "duration": 0.13875303320313037,
          "durationTicks": 341,
          "midi": 74,
          "name": "D5",
          "ticks": 174763,
          "time": 71.11113296679687,
          "velocity": 0.5039370078740157
        },
        {
          "duration": 0.27791296679686184,
          "durationTicks": 683,
          "midi": 72,
          "name": "C5",
          "ticks": 175104,
          "time": 71.249886,
          "velocity": 0.5039370078740157
        },
        {
          "duration": 0.13875303320313037,
          "durationTicks": 341,
          "midi": 69,
          "name": "A4",
          "ticks": 175787,
          "time": 71.52779896679687,
          "velocity": 0.5039370078740157
        },
        {
          "duration": 0.13875303320313037,
          "durationTicks": 341,
          "midi": 52,
          "name": "E3",
          "ticks": 175787,
          "time": 71.52779896679687,
          "velocity": 0.5039370078740157
        },
        {
          "duration": 0.27791296679687605,
          "durationTicks": 683,
          "midi": 72,
          "name": "C5",
          "ticks": 176128,
          "time": 71.666552,
          "velocity": 0.5039370078740157
        },
        {
          "duration": 0.4166660000000064,
          "durationTicks": 1024,
          "midi": 67,
          "name": "G4",
          "ticks": 176128,
          "time": 71.666552,
          "velocity": 0.5039370078740157
        },
        {
          "duration": 0.4166660000000064,
          "durationTicks": 1024,
          "midi": 69,
          "name": "A4",
          "ticks": 176128,
          "time": 71.666552,
          "velocity": 0.5039370078740157
        },
        {
          "duration": 0.6945789667968825,
          "durationTicks": 1707,
          "midi": 50,
          "name": "D3",
          "ticks": 176128,
          "time": 71.666552,
          "velocity": 0.5039370078740157
        },
        {
          "duration": 0.13875303320313037,
          "durationTicks": 341,
          "midi": 69,
          "name": "A4",
          "ticks": 176811,
          "time": 71.94446496679687,
          "velocity": 0.5039370078740157
        },
        {
          "duration": 0.27791296679687605,
          "durationTicks": 683,
          "midi": 72,
          "name": "C5",
          "ticks": 177152,
          "time": 72.083218,
          "velocity": 0.5039370078740157
        },
        {
          "duration": 0.5554190332031226,
          "durationTicks": 1365,
          "midi": 74,
          "name": "D5",
          "ticks": 177835,
          "time": 72.36113096679688,
          "velocity": 0.5039370078740157
        },
        {
          "duration": 0.13875303320311616,
          "durationTicks": 341,
          "midi": 67,
          "name": "G4",
          "ticks": 177835,
          "time": 72.36113096679688,
          "velocity": 0.5039370078740157
        },
        {
          "duration": 0.13875303320311616,
          "durationTicks": 341,
          "midi": 71,
          "name": "B4",
          "ticks": 177835,
          "time": 72.36113096679688,
          "velocity": 0.5039370078740157
        },
        {
          "duration": 0.13875303320311616,
          "durationTicks": 341,
          "midi": 50,
          "name": "D3",
          "ticks": 177835,
          "time": 72.36113096679688,
          "velocity": 0.5039370078740157
        },
        {
          "duration": 0.27791296679687605,
          "durationTicks": 683,
          "midi": 43,
          "name": "G2",
          "ticks": 178176,
          "time": 72.499884,
          "velocity": 0.5039370078740157
        },
        {
          "duration": 0.13875303320313037,
          "durationTicks": 341,
          "midi": 67,
          "name": "G4",
          "ticks": 178859,
          "time": 72.77779696679687,
          "velocity": 0.5039370078740157
        },
        {
          "duration": 0.13875303320313037,
          "durationTicks": 341,
          "midi": 71,
          "name": "B4",
          "ticks": 178859,
          "time": 72.77779696679687,
          "velocity": 0.5039370078740157
        },
        {
          "duration": 0.13875303320313037,
          "durationTicks": 341,
          "midi": 45,
          "name": "A2",
          "ticks": 178859,
          "time": 72.77779696679687,
          "velocity": 0.5039370078740157
        },
        {
          "duration": 0.27791296679687605,
          "durationTicks": 683,
          "midi": 43,
          "name": "G2",
          "ticks": 179200,
          "time": 72.91655,
          "velocity": 0.5039370078740157
        },
        {
          "duration": 0.4166659999999922,
          "durationTicks": 1024,
          "midi": 67,
          "name": "G4",
          "ticks": 179883,
          "time": 73.19446296679688,
          "velocity": 0.5039370078740157
        },
        {
          "duration": 0.4166659999999922,
          "durationTicks": 1024,
          "midi": 72,
          "name": "C5",
          "ticks": 179883,
          "time": 73.19446296679688,
          "velocity": 0.5039370078740157
        },
        {
          "duration": 0.4166659999999922,
          "durationTicks": 1024,
          "midi": 76,
          "name": "E5",
          "ticks": 179883,
          "time": 73.19446296679688,
          "velocity": 0.5039370078740157
        },
        {
          "duration": 0.8333319999999986,
          "durationTicks": 2048,
          "midi": 48,
          "name": "C3",
          "ticks": 179883,
          "time": 73.19446296679688,
          "velocity": 0.5039370078740157
        },
        {
          "duration": 0.13875303320313037,
          "durationTicks": 341,
          "midi": 67,
          "name": "G4",
          "ticks": 180907,
          "time": 73.61112896679687,
          "velocity": 0.5039370078740157
        },
        {
          "duration": 0.27791296679687605,
          "durationTicks": 683,
          "midi": 69,
          "name": "A4",
          "ticks": 181248,
          "time": 73.749882,
          "velocity": 0.5039370078740157
        },
        {
          "duration": 0.13875303320311616,
          "durationTicks": 341,
          "midi": 72,
          "name": "C5",
          "ticks": 181931,
          "time": 74.02779496679688,
          "velocity": 0.5039370078740157
        },
        {
          "duration": 0.13875303320311616,
          "durationTicks": 341,
          "midi": 48,
          "name": "C3",
          "ticks": 181931,
          "time": 74.02779496679688,
          "velocity": 0.5039370078740157
        },
        {
          "duration": 0.27791296679687605,
          "durationTicks": 683,
          "midi": 75,
          "name": "D#5",
          "ticks": 182272,
          "time": 74.16654799999999,
          "velocity": 0.5039370078740157
        },
        {
          "duration": 0.6945789667968825,
          "durationTicks": 1707,
          "midi": 45,
          "name": "A2",
          "ticks": 182272,
          "time": 74.16654799999999,
          "velocity": 0.5039370078740157
        },
        {
          "duration": 0.13875303320313037,
          "durationTicks": 341,
          "midi": 76,
          "name": "E5",
          "ticks": 182955,
          "time": 74.44446096679687,
          "velocity": 0.5039370078740157
        },
        {
          "duration": 0.27791296679687605,
          "durationTicks": 683,
          "midi": 77,
          "name": "F5",
          "ticks": 183296,
          "time": 74.583214,
          "velocity": 0.5039370078740157
        },
        {
          "duration": 0.13875303320311616,
          "durationTicks": 341,
          "midi": 78,
          "name": "F#5",
          "ticks": 183979,
          "time": 74.86112696679687,
          "velocity": 0.5039370078740157
        },
        {
          "duration": 0.13875303320311616,
          "durationTicks": 341,
          "midi": 45,
          "name": "A2",
          "ticks": 183979,
          "time": 74.86112696679687,
          "velocity": 0.5039370078740157
        },
        {
          "duration": 0.27791296679687605,
          "durationTicks": 683,
          "midi": 69,
          "name": "A4",
          "ticks": 184320,
          "time": 74.99987999999999,
          "velocity": 0.5039370078740157
        },
        {
          "duration": 0.27791296679687605,
          "durationTicks": 683,
          "midi": 72,
          "name": "C5",
          "ticks": 184320,
          "time": 74.99987999999999,
          "velocity": 0.5039370078740157
        },
        {
          "duration": 0.27791296679687605,
          "durationTicks": 683,
          "midi": 77,
          "name": "F5",
          "ticks": 184320,
          "time": 74.99987999999999,
          "velocity": 0.5039370078740157
        },
        {
          "duration": 0.27791296679687605,
          "durationTicks": 683,
          "midi": 79,
          "name": "G5",
          "ticks": 184320,
          "time": 74.99987999999999,
          "velocity": 0.5039370078740157
        },
        {
          "duration": 0.6945789667968825,
          "durationTicks": 1707,
          "midi": 50,
          "name": "D3",
          "ticks": 184320,
          "time": 74.99987999999999,
          "velocity": 0.5039370078740157
        },
        {
          "duration": 0.5554190332031368,
          "durationTicks": 1365,
          "midi": 69,
          "name": "A4",
          "ticks": 185003,
          "time": 75.27779296679687,
          "velocity": 0.5039370078740157
        },
        {
          "duration": 0.5554190332031368,
          "durationTicks": 1365,
          "midi": 72,
          "name": "C5",
          "ticks": 185003,
          "time": 75.27779296679687,
          "velocity": 0.5039370078740157
        },
        {
          "duration": 0.5554190332031368,
          "durationTicks": 1365,
          "midi": 76,
          "name": "E5",
          "ticks": 185003,
          "time": 75.27779296679687,
          "velocity": 0.5039370078740157
        },
        {
          "duration": 0.13875303320313037,
          "durationTicks": 341,
          "midi": 50,
          "name": "D3",
          "ticks": 186027,
          "time": 75.69445896679687,
          "velocity": 0.5039370078740157
        },
        {
          "duration": 0.13875303320311616,
          "durationTicks": 341,
          "midi": 75,
          "name": "D#5",
          "ticks": 186368,
          "time": 75.833212,
          "velocity": 0.5039370078740157
        },
        {
          "duration": 0.6945789667968683,
          "durationTicks": 1707,
          "midi": 43,
          "name": "G2",
          "ticks": 186368,
          "time": 75.833212,
          "velocity": 0.5039370078740157
        },
        {
          "duration": 0.13915993359374568,
          "durationTicks": 342,
          "midi": 74,
          "name": "D5",
          "ticks": 186709,
          "time": 75.97196503320312,
          "velocity": 0.5039370078740157
        },
        {
          "duration": 0.13875303320313037,
          "durationTicks": 341,
          "midi": 72,
          "name": "C5",
          "ticks": 187051,
          "time": 76.11112496679687,
          "velocity": 0.5039370078740157
        },
        {
          "duration": 0.27791296679687605,
          "durationTicks": 683,
          "midi": 74,
          "name": "D5",
          "ticks": 187392,
          "time": 76.249878,
          "velocity": 0.5039370078740157
        },
        {
          "duration": 0.13875303320313037,
          "durationTicks": 341,
          "midi": 72,
          "name": "C5",
          "ticks": 188075,
          "time": 76.52779096679687,
          "velocity": 0.5039370078740157
        },
        {
          "duration": 0.13875303320313037,
          "durationTicks": 341,
          "midi": 43,
          "name": "G2",
          "ticks": 188075,
          "time": 76.52779096679687,
          "velocity": 0.5039370078740157
        },
        {
          "duration": 0.6945789667968683,
          "durationTicks": 1707,
          "midi": 45,
          "name": "A2",
          "ticks": 188416,
          "time": 76.666544,
          "velocity": 0.5039370078740157
        },
        {
          "duration": 0.13875303320311616,
          "durationTicks": 341,
          "midi": 80,
          "name": "G#5",
          "ticks": 189099,
          "time": 76.94445696679688,
          "velocity": 0.5039370078740157
        },
        {
          "duration": 0.13875303320313037,
          "durationTicks": 341,
          "midi": 81,
          "name": "A5",
          "ticks": 189440,
          "time": 77.08321,
          "velocity": 0.5039370078740157
        },
        {
          "duration": 0.13875303320313037,
          "durationTicks": 341,
          "midi": 79,
          "name": "G5",
          "ticks": 190123,
          "time": 77.36112296679687,
          "velocity": 0.5039370078740157
        },
        {
          "duration": 0.13875303320313037,
          "durationTicks": 341,
          "midi": 45,
          "name": "A2",
          "ticks": 190123,
          "time": 77.36112296679687,
          "velocity": 0.5039370078740157
        },
        {
          "duration": 0.27791296679687605,
          "durationTicks": 683,
          "midi": 75,
          "name": "D#5",
          "ticks": 190464,
          "time": 77.499876,
          "velocity": 0.5039370078740157
        },
        {
          "duration": 0.6945789667968683,
          "durationTicks": 1707,
          "midi": 52,
          "name": "E3",
          "ticks": 190464,
          "time": 77.499876,
          "velocity": 0.5039370078740157
        },
        {
          "duration": 0.13875303320311616,
          "durationTicks": 341,
          "midi": 74,
          "name": "D5",
          "ticks": 191147,
          "time": 77.77778896679688,
          "velocity": 0.5039370078740157
        },
        {
          "duration": 0.27791296679687605,
          "durationTicks": 683,
          "midi": 72,
          "name": "C5",
          "ticks": 191488,
          "time": 77.91654199999999,
          "velocity": 0.5039370078740157
        },
        {
          "duration": 0.13875303320313037,
          "durationTicks": 341,
          "midi": 69,
          "name": "A4",
          "ticks": 192171,
          "time": 78.19445496679687,
          "velocity": 0.5039370078740157
        },
        {
          "duration": 0.13875303320313037,
          "durationTicks": 341,
          "midi": 52,
          "name": "E3",
          "ticks": 192171,
          "time": 78.19445496679687,
          "velocity": 0.5039370078740157
        },
        {
          "duration": 0.27791296679687605,
          "durationTicks": 683,
          "midi": 72,
          "name": "C5",
          "ticks": 192512,
          "time": 78.333208,
          "velocity": 0.5039370078740157
        },
        {
          "duration": 0.4166659999999922,
          "durationTicks": 1024,
          "midi": 67,
          "name": "G4",
          "ticks": 192512,
          "time": 78.333208,
          "velocity": 0.5039370078740157
        },
        {
          "duration": 0.4166659999999922,
          "durationTicks": 1024,
          "midi": 69,
          "name": "A4",
          "ticks": 192512,
          "time": 78.333208,
          "velocity": 0.5039370078740157
        },
        {
          "duration": 0.6945789667968683,
          "durationTicks": 1707,
          "midi": 50,
          "name": "D3",
          "ticks": 192512,
          "time": 78.333208,
          "velocity": 0.5039370078740157
        },
        {
          "duration": 0.13875303320311616,
          "durationTicks": 341,
          "midi": 69,
          "name": "A4",
          "ticks": 193195,
          "time": 78.61112096679688,
          "velocity": 0.5039370078740157
        },
        {
          "duration": 0.27791296679687605,
          "durationTicks": 683,
          "midi": 72,
          "name": "C5",
          "ticks": 193536,
          "time": 78.74987399999999,
          "velocity": 0.5039370078740157
        },
        {
          "duration": 0.5554190332031226,
          "durationTicks": 1365,
          "midi": 74,
          "name": "D5",
          "ticks": 194219,
          "time": 79.02778696679687,
          "velocity": 0.5039370078740157
        },
        {
          "duration": 0.13875303320313037,
          "durationTicks": 341,
          "midi": 67,
          "name": "G4",
          "ticks": 194219,
          "time": 79.02778696679687,
          "velocity": 0.5039370078740157
        },
        {
          "duration": 0.13875303320313037,
          "durationTicks": 341,
          "midi": 71,
          "name": "B4",
          "ticks": 194219,
          "time": 79.02778696679687,
          "velocity": 0.5039370078740157
        },
        {
          "duration": 0.13875303320313037,
          "durationTicks": 341,
          "midi": 50,
          "name": "D3",
          "ticks": 194219,
          "time": 79.02778696679687,
          "velocity": 0.5039370078740157
        },
        {
          "duration": 0.27791296679687605,
          "durationTicks": 683,
          "midi": 43,
          "name": "G2",
          "ticks": 194560,
          "time": 79.16654,
          "velocity": 0.5039370078740157
        },
        {
          "duration": 0.13875303320311616,
          "durationTicks": 341,
          "midi": 67,
          "name": "G4",
          "ticks": 195243,
          "time": 79.44445296679687,
          "velocity": 0.5039370078740157
        },
        {
          "duration": 0.13875303320311616,
          "durationTicks": 341,
          "midi": 71,
          "name": "B4",
          "ticks": 195243,
          "time": 79.44445296679687,
          "velocity": 0.5039370078740157
        },
        {
          "duration": 0.13875303320311616,
          "durationTicks": 341,
          "midi": 45,
          "name": "A2",
          "ticks": 195243,
          "time": 79.44445296679687,
          "velocity": 0.5039370078740157
        },
        {
          "duration": 0.27791296679687605,
          "durationTicks": 683,
          "midi": 43,
          "name": "G2",
          "ticks": 195584,
          "time": 79.58320599999999,
          "velocity": 0.5039370078740157
        },
        {
          "duration": 0.4166660000000064,
          "durationTicks": 1024,
          "midi": 65,
          "name": "F4",
          "ticks": 196267,
          "time": 79.86111896679687,
          "velocity": 0.5039370078740157
        },
        {
          "duration": 0.4166660000000064,
          "durationTicks": 1024,
          "midi": 69,
          "name": "A4",
          "ticks": 196267,
          "time": 79.86111896679687,
          "velocity": 0.5039370078740157
        },
        {
          "duration": 0.4166660000000064,
          "durationTicks": 1024,
          "midi": 72,
          "name": "C5",
          "ticks": 196267,
          "time": 79.86111896679687,
          "velocity": 0.5039370078740157
        },
        {
          "duration": 0.8333319999999986,
          "durationTicks": 2048,
          "midi": 41,
          "name": "F2",
          "ticks": 196267,
          "time": 79.86111896679687,
          "velocity": 0.5039370078740157
        },
        {
          "duration": 0.13875303320313037,
          "durationTicks": 341,
          "midi": 75,
          "name": "D#5",
          "ticks": 197291,
          "time": 80.27778496679687,
          "velocity": 0.5039370078740157
        },
        {
          "duration": 0.27791296679686184,
          "durationTicks": 683,
          "midi": 74,
          "name": "D5",
          "ticks": 197632,
          "time": 80.416538,
          "velocity": 0.5039370078740157
        },
        {
          "duration": 0.13875303320313037,
          "durationTicks": 341,
          "midi": 72,
          "name": "C5",
          "ticks": 198315,
          "time": 80.69445096679686,
          "velocity": 0.5039370078740157
        },
        {
          "duration": 0.13875303320313037,
          "durationTicks": 341,
          "midi": 41,
          "name": "F2",
          "ticks": 198315,
          "time": 80.69445096679686,
          "velocity": 0.5039370078740157
        },
        {
          "duration": 0.27791296679687605,
          "durationTicks": 683,
          "midi": 74,
          "name": "D5",
          "ticks": 198656,
          "time": 80.833204,
          "velocity": 0.5039370078740157
        },
        {
          "duration": 0.6945789667968825,
          "durationTicks": 1707,
          "midi": 41,
          "name": "F2",
          "ticks": 198656,
          "time": 80.833204,
          "velocity": 0.5039370078740157
        },
        {
          "duration": 0.13875303320313037,
          "durationTicks": 341,
          "midi": 72,
          "name": "C5",
          "ticks": 199339,
          "time": 81.11111696679687,
          "velocity": 0.5039370078740157
        },
        {
          "duration": 0.27791296679687605,
          "durationTicks": 683,
          "midi": 81,
          "name": "A5",
          "ticks": 199680,
          "time": 81.24987,
          "velocity": 0.5039370078740157
        },
        {
          "duration": 0.13875303320311616,
          "durationTicks": 341,
          "midi": 72,
          "name": "C5",
          "ticks": 200363,
          "time": 81.52778296679688,
          "velocity": 0.5039370078740157
        },
        {
          "duration": 0.13875303320311616,
          "durationTicks": 341,
          "midi": 41,
          "name": "F2",
          "ticks": 200363,
          "time": 81.52778296679688,
          "velocity": 0.5039370078740157
        },
        {
          "duration": 0.6945789667968825,
          "durationTicks": 1707,
          "midi": 42,
          "name": "F#2",
          "ticks": 200704,
          "time": 81.666536,
          "velocity": 0.5039370078740157
        },
        {
          "duration": 0.13875303320313037,
          "durationTicks": 341,
          "midi": 75,
          "name": "D#5",
          "ticks": 201387,
          "time": 81.94444896679687,
          "velocity": 0.5039370078740157
        },
        {
          "duration": 0.27791296679687605,
          "durationTicks": 683,
          "midi": 74,
          "name": "D5",
          "ticks": 201728,
          "time": 82.083202,
          "velocity": 0.5039370078740157
        },
        {
          "duration": 0.13875303320311616,
          "durationTicks": 341,
          "midi": 72,
          "name": "C5",
          "ticks": 202411,
          "time": 82.36111496679688,
          "velocity": 0.5039370078740157
        },
        {
          "duration": 0.13875303320311616,
          "durationTicks": 341,
          "midi": 42,
          "name": "F#2",
          "ticks": 202411,
          "time": 82.36111496679688,
          "velocity": 0.5039370078740157
        },
        {
          "duration": 0.27791296679687605,
          "durationTicks": 683,
          "midi": 84,
          "name": "C6",
          "ticks": 202752,
          "time": 82.49986799999999,
          "velocity": 0.5039370078740157
        },
        {
          "duration": 0.6945789667968825,
          "durationTicks": 1707,
          "midi": 42,
          "name": "F#2",
          "ticks": 202752,
          "time": 82.49986799999999,
          "velocity": 0.5039370078740157
        },
        {
          "duration": 0.13875303320313037,
          "durationTicks": 341,
          "midi": 81,
          "name": "A5",
          "ticks": 203435,
          "time": 82.77778096679687,
          "velocity": 0.5039370078740157
        },
        {
          "duration": 0.27791296679687605,
          "durationTicks": 683,
          "midi": 72,
          "name": "C5",
          "ticks": 203776,
          "time": 82.916534,
          "velocity": 0.5039370078740157
        },
        {
          "duration": 0.13875303320311616,
          "durationTicks": 341,
          "midi": 75,
          "name": "D#5",
          "ticks": 204459,
          "time": 83.19444696679687,
          "velocity": 0.5039370078740157
        },
        {
          "duration": 0.13875303320311616,
          "durationTicks": 341,
          "midi": 42,
          "name": "F#2",
          "ticks": 204459,
          "time": 83.19444696679687,
          "velocity": 0.5039370078740157
        },
        {
          "duration": 0.4166660000000064,
          "durationTicks": 1024,
          "midi": 67,
          "name": "G4",
          "ticks": 204800,
          "time": 83.33319999999999,
          "velocity": 0.5039370078740157
        },
        {
          "duration": 0.4166660000000064,
          "durationTicks": 1024,
          "midi": 72,
          "name": "C5",
          "ticks": 204800,
          "time": 83.33319999999999,
          "velocity": 0.5039370078740157
        },
        {
          "duration": 0.4166660000000064,
          "durationTicks": 1024,
          "midi": 76,
          "name": "E5",
          "ticks": 204800,
          "time": 83.33319999999999,
          "velocity": 0.5039370078740157
        },
        {
          "duration": 0.6945789667968825,
          "durationTicks": 1707,
          "midi": 43,
          "name": "G2",
          "ticks": 204800,
          "time": 83.33319999999999,
          "velocity": 0.5039370078740157
        },
        {
          "duration": 0.4166659999999922,
          "durationTicks": 1024,
          "midi": 67,
          "name": "G4",
          "ticks": 205824,
          "time": 83.749866,
          "velocity": 0.5039370078740157
        },
        {
          "duration": 0.4166659999999922,
          "durationTicks": 1024,
          "midi": 72,
          "name": "C5",
          "ticks": 205824,
          "time": 83.749866,
          "velocity": 0.5039370078740157
        },
        {
          "duration": 0.4166659999999922,
          "durationTicks": 1024,
          "midi": 76,
          "name": "E5",
          "ticks": 205824,
          "time": 83.749866,
          "velocity": 0.5039370078740157
        },
        {
          "duration": 0.13875303320311616,
          "durationTicks": 341,
          "midi": 43,
          "name": "G2",
          "ticks": 206507,
          "time": 84.02777896679687,
          "velocity": 0.5039370078740157
        },
        {
          "duration": 0.27791296679687605,
          "durationTicks": 683,
          "midi": 65,
          "name": "F4",
          "ticks": 206848,
          "time": 84.16653199999999,
          "velocity": 0.5039370078740157
        },
        {
          "duration": 0.27791296679687605,
          "durationTicks": 683,
          "midi": 71,
          "name": "B4",
          "ticks": 206848,
          "time": 84.16653199999999,
          "velocity": 0.5039370078740157
        },
        {
          "duration": 0.27791296679687605,
          "durationTicks": 683,
          "midi": 74,
          "name": "D5",
          "ticks": 206848,
          "time": 84.16653199999999,
          "velocity": 0.5039370078740157
        },
        {
          "duration": 0.27791296679687605,
          "durationTicks": 683,
          "midi": 44,
          "name": "G#2",
          "ticks": 206848,
          "time": 84.16653199999999,
          "velocity": 0.5039370078740157
        },
        {
          "duration": 0.13875303320313037,
          "durationTicks": 341,
          "midi": 65,
          "name": "F4",
          "ticks": 207531,
          "time": 84.44444496679687,
          "velocity": 0.5039370078740157
        },
        {
          "duration": 0.13875303320313037,
          "durationTicks": 341,
          "midi": 71,
          "name": "B4",
          "ticks": 207531,
          "time": 84.44444496679687,
          "velocity": 0.5039370078740157
        },
        {
          "duration": 0.13875303320313037,
          "durationTicks": 341,
          "midi": 74,
          "name": "D5",
          "ticks": 207531,
          "time": 84.44444496679687,
          "velocity": 0.5039370078740157
        },
        {
          "duration": 0.13875303320313037,
          "durationTicks": 341,
          "midi": 44,
          "name": "G#2",
          "ticks": 207531,
          "time": 84.44444496679687,
          "velocity": 0.5039370078740157
        },
        {
          "duration": 0.5554190332031226,
          "durationTicks": 1365,
          "midi": 64,
          "name": "E4",
          "ticks": 208555,
          "time": 84.86111096679687,
          "velocity": 0.5039370078740157
        },
        {
          "duration": 0.5554190332031226,
          "durationTicks": 1365,
          "midi": 69,
          "name": "A4",
          "ticks": 208555,
          "time": 84.86111096679687,
          "velocity": 0.5039370078740157
        },
        {
          "duration": 0.5554190332031226,
          "durationTicks": 1365,
          "midi": 72,
          "name": "C5",
          "ticks": 208555,
          "time": 84.86111096679687,
          "velocity": 0.5039370078740157
        },
        {
          "duration": 0.13875303320313037,
          "durationTicks": 341,
          "midi": 45,
          "name": "A2",
          "ticks": 208555,
          "time": 84.86111096679687,
          "velocity": 0.5039370078740157
        },
        {
          "duration": 0.6945789667968683,
          "durationTicks": 1707,
          "midi": 45,
          "name": "A2",
          "ticks": 208896,
          "time": 84.999864,
          "velocity": 0.5039370078740157
        },
        {
          "duration": 0.4166660000000064,
          "durationTicks": 1024,
          "midi": 64,
          "name": "E4",
          "ticks": 209920,
          "time": 85.41653,
          "velocity": 0.5039370078740157
        },
        {
          "duration": 0.4166660000000064,
          "durationTicks": 1024,
          "midi": 69,
          "name": "A4",
          "ticks": 209920,
          "time": 85.41653,
          "velocity": 0.5039370078740157
        },
        {
          "duration": 0.4166660000000064,
          "durationTicks": 1024,
          "midi": 72,
          "name": "C5",
          "ticks": 209920,
          "time": 85.41653,
          "velocity": 0.5039370078740157
        },
        {
          "duration": 0.13875303320313037,
          "durationTicks": 341,
          "midi": 45,
          "name": "A2",
          "ticks": 210603,
          "time": 85.69444296679687,
          "velocity": 0.5039370078740157
        },
        {
          "duration": 0.27791296679687605,
          "durationTicks": 683,
          "midi": 62,
          "name": "D4",
          "ticks": 210944,
          "time": 85.833196,
          "velocity": 0.5039370078740157
        },
        {
          "duration": 0.27791296679687605,
          "durationTicks": 683,
          "midi": 65,
          "name": "F4",
          "ticks": 210944,
          "time": 85.833196,
          "velocity": 0.5039370078740157
        },
        {
          "duration": 0.27791296679687605,
          "durationTicks": 683,
          "midi": 70,
          "name": "A#4",
          "ticks": 210944,
          "time": 85.833196,
          "velocity": 0.5039370078740157
        },
        {
          "duration": 0.27791296679687605,
          "durationTicks": 683,
          "midi": 43,
          "name": "G2",
          "ticks": 210944,
          "time": 85.833196,
          "velocity": 0.5039370078740157
        },
        {
          "duration": 0.13875303320311616,
          "durationTicks": 341,
          "midi": 62,
          "name": "D4",
          "ticks": 211627,
          "time": 86.11110896679688,
          "velocity": 0.5039370078740157
        },
        {
          "duration": 0.13875303320311616,
          "durationTicks": 341,
          "midi": 65,
          "name": "F4",
          "ticks": 211627,
          "time": 86.11110896679688,
          "velocity": 0.5039370078740157
        },
        {
          "duration": 0.13875303320311616,
          "durationTicks": 341,
          "midi": 70,
          "name": "A#4",
          "ticks": 211627,
          "time": 86.11110896679688,
          "velocity": 0.5039370078740157
        },
        {
          "duration": 0.13875303320311616,
          "durationTicks": 341,
          "midi": 48,
          "name": "C3",
          "ticks": 211627,
          "time": 86.11110896679688,
          "velocity": 0.5039370078740157
        },
        {
          "duration": 1.8054170332031276,
          "durationTicks": 4437,
          "midi": 60,
          "name": "C4",
          "ticks": 212651,
          "time": 86.52777496679687,
          "velocity": 0.5039370078740157
        },
        {
          "duration": 1.8054170332031276,
          "durationTicks": 4437,
          "midi": 65,
          "name": "F4",
          "ticks": 212651,
          "time": 86.52777496679687,
          "velocity": 0.5039370078740157
        },
        {
          "duration": 1.8054170332031276,
          "durationTicks": 4437,
          "midi": 69,
          "name": "A4",
          "ticks": 212651,
          "time": 86.52777496679687,
          "velocity": 0.5039370078740157
        },
        {
          "duration": 1.8054170332031276,
          "durationTicks": 4437,
          "midi": 41,
          "name": "F2",
          "ticks": 212651,
          "time": 86.52777496679687,
          "velocity": 0.5039370078740157
        },
        {
          "duration": 0.4166659999999922,
          "durationTicks": 1024,
          "midi": 60,
          "name": "C4",
          "ticks": 217088,
          "time": 88.333192,
          "velocity": 0.5039370078740157
        },
        {
          "duration": 0.4166659999999922,
          "durationTicks": 1024,
          "midi": 65,
          "name": "F4",
          "ticks": 217088,
          "time": 88.333192,
          "velocity": 0.5039370078740157
        },
        {
          "duration": 0.4166659999999922,
          "durationTicks": 1024,
          "midi": 69,
          "name": "A4",
          "ticks": 217088,
          "time": 88.333192,
          "velocity": 0.5039370078740157
        },
        {
          "duration": 0.4166659999999922,
          "durationTicks": 1024,
          "midi": 41,
          "name": "F2",
          "ticks": 217088,
          "time": 88.333192,
          "velocity": 0.5039370078740157
        },
        {
          "duration": 0.13875303320313037,
          "durationTicks": 341,
          "midi": 81,
          "name": "A5",
          "ticks": 219819,
          "time": 89.44443696679687,
          "velocity": 0.5039370078740157
        },
        {
          "duration": 0.13875303320313037,
          "durationTicks": 341,
          "midi": 84,
          "name": "C6",
          "ticks": 219819,
          "time": 89.44443696679687,
          "velocity": 0.5039370078740157
        },
        {
          "duration": 0.13875303320313037,
          "durationTicks": 341,
          "midi": 45,
          "name": "A2",
          "ticks": 219819,
          "time": 89.44443696679687,
          "velocity": 0.5039370078740157
        },
        {
          "duration": 0.27791296679687605,
          "durationTicks": 683,
          "midi": 83,
          "name": "B5",
          "ticks": 220160,
          "time": 89.58319,
          "velocity": 0.5039370078740157
        },
        {
          "duration": 0.27791296679687605,
          "durationTicks": 683,
          "midi": 86,
          "name": "D6",
          "ticks": 220160,
          "time": 89.58319,
          "velocity": 0.5039370078740157
        },
        {
          "duration": 0.27791296679687605,
          "durationTicks": 683,
          "midi": 47,
          "name": "B2",
          "ticks": 220160,
          "time": 89.58319,
          "velocity": 0.5039370078740157
        },
        {
          "duration": 0.13875303320311616,
          "durationTicks": 341,
          "midi": 79,
          "name": "G5",
          "ticks": 220843,
          "time": 89.86110296679688,
          "velocity": 0.5039370078740157
        },
        {
          "duration": 0.13875303320311616,
          "durationTicks": 341,
          "midi": 84,
          "name": "C6",
          "ticks": 220843,
          "time": 89.86110296679688,
          "velocity": 0.5039370078740157
        },
        {
          "duration": 0.13875303320311616,
          "durationTicks": 341,
          "midi": 88,
          "name": "E6",
          "ticks": 220843,
          "time": 89.86110296679688,
          "velocity": 0.5039370078740157
        },
        {
          "duration": 0.13875303320311616,
          "durationTicks": 341,
          "midi": 48,
          "name": "C3",
          "ticks": 220843,
          "time": 89.86110296679688,
          "velocity": 0.5039370078740157
        }
      ],
      "endOfTrackTicks": 221184
    }
  ]
}
