{
  "header": {
    "keySignatures": [
      {
        "key": "C",
        "scale": "major",
        "ticks": 0
      }
    ],
    "meta": [],
    "name": "",
    "ppq": 1024,
    "tempos": [
      {
        "bpm": 96,
        "ticks": 0
      }
    ],
    "timeSignatures": [
      {
        "ticks": 0,
        "timeSignature": [
          4,
          4
        ],
        "measures": 0
      }
    ]
  },
  "tracks": [
    {
      "channel": 0,
      "controlChanges": {
        "0": [
          {
            "number": 0,
            "ticks": 0,
            "time": 0,
            "value": 0
          },
          {
            "number": 0,
            "ticks": 0,
            "time": 0,
            "value": 0
          }
        ],
        "7": [
          {
            "number": 7,
            "ticks": 0,
            "time": 0,
            "value": 0.8346456692913385
          }
        ],
        "91": [
          {
            "number": 91,
            "ticks": 0,
            "time": 0,
            "value": 0.25196850393700787
          }
        ]
      },
      "pitchBends": [],
      "instrument": {
        "family": "piano",
        "number": 0,
        "name": "acoustic grand piano"
      },
      "name": "Acoustic Grand Piano",
      "notes": [
        {
          "duration": 1.217041015625,
          "durationTicks": 1994,
          "midi": 60,
          "name": "C4",
          "ticks": 0,
          "time": 0,
          "velocity": 0.6299212598425197
        },
        {
          "duration": 1.060791015625,
          "durationTicks": 1738,
          "midi": 62,
          "name": "D4",
          "ticks": 256,
          "time": 0.15625,
          "velocity": 0.6299212598425197
        },
        {
          "duration": 0.904541015625,
          "durationTicks": 1482,
          "midi": 64,
          "name": "E4",
          "ticks": 512,
          "time": 0.3125,
          "velocity": 0.6299212598425197
        },
        {
          "duration": 1.77734375,
          "durationTicks": 2912,
          "midi": 67,
          "name": "G4",
          "ticks": 768,
          "time": 0.46875,
          "velocity": 0.6299212598425197
        },
        {
          "duration": 1.62109375,
          "durationTicks": 2656,
          "midi": 72,
          "name": "C5",
          "ticks": 1024,
          "time": 0.625,
          "velocity": 0.6299212598425197
        },
        {
          "duration": 1.46484375,
          "durationTicks": 2400,
          "midi": 74,
          "name": "D5",
          "ticks": 1280,
          "time": 0.78125,
          "velocity": 0.6299212598425197
        },
        {
          "duration": 1.30859375,
          "durationTicks": 2144,
          "midi": 76,
          "name": "E5",
          "ticks": 1536,
          "time": 0.9375,
          "velocity": 0.6299212598425197
        },
        {
          "duration": 1.15234375,
          "durationTicks": 1888,
          "midi": 79,
          "name": "G5",
          "ticks": 1792,
          "time": 1.09375,
          "velocity": 0.6299212598425197
        },
        {
          "duration": 0.99609375,
          "durationTicks": 1632,
          "midi": 84,
          "name": "C6",
          "ticks": 2048,
          "time": 1.25,
          "velocity": 0.6299212598425197
        },
        {
          "duration": 1.217041015625,
          "durationTicks": 1994,
          "midi": 72,
          "name": "C5",
          "ticks": 4096,
          "time": 2.5,
          "velocity": 0.6299212598425197
        },
        {
          "duration": 1.060791015625,
          "durationTicks": 1738,
          "midi": 74,
          "name": "D5",
          "ticks": 4352,
          "time": 2.65625,
          "velocity": 0.6299212598425197
        },
        {
          "duration": 0.904541015625,
          "durationTicks": 1482,
          "midi": 76,
          "name": "E5",
          "ticks": 4608,
          "time": 2.8125,
          "velocity": 0.6299212598425197
        },
        {
          "duration": 1.77734375,
          "durationTicks": 2912,
          "midi": 79,
          "name": "G5",
          "ticks": 4864,
          "time": 2.96875,
          "velocity": 0.6299212598425197
        },
        {
          "duration": 1.62109375,
          "durationTicks": 2656,
          "midi": 84,
          "name": "C6",
          "ticks": 5120,
          "time": 3.125,
          "velocity": 0.6299212598425197
        },
        {
          "duration": 1.46484375,
          "durationTicks": 2400,
          "midi": 86,
          "name": "D6",
          "ticks": 5376,
          "time": 3.28125,
          "velocity": 0.6299212598425197
        },
        {
          "duration": 1.30859375,
          "durationTicks": 2144,
          "midi": 88,
          "name": "E6",
          "ticks": 5632,
          "time": 3.4375,
          "velocity": 0.6299212598425197
        },
        {
          "duration": 1.15234375,
          "durationTicks": 1888,
          "midi": 91,
          "name": "G6",
          "ticks": 5888,
          "time": 3.59375,
          "velocity": 0.6299212598425197
        },
        {
          "duration": 0.99609375,
          "durationTicks": 1632,
          "midi": 96,
          "name": "C7",
          "ticks": 6144,
          "time": 3.75,
          "velocity": 0.6299212598425197
        },
        {
          "duration": 1.119384765625,
          "durationTicks": 1834,
          "midi": 64,
          "name": "E4",
          "ticks": 8192,
          "time": 5,
          "velocity": 0.5039370078740157
        },
        {
          "duration": 0.494384765625,
          "durationTicks": 810,
          "midi": 67,
          "name": "G4",
          "ticks": 8192,
          "time": 5,
          "velocity": 0.5039370078740157
        },
        {
          "duration": 1.25,
          "durationTicks": 2048,
          "midi": 60,
          "name": "C4",
          "ticks": 8192,
          "time": 5,
          "velocity": 0.5039370078740157
        },
        {
          "duration": 0.494384765625,
          "durationTicks": 810,
          "midi": 72,
          "name": "C5",
          "ticks": 9216,
          "time": 5.625,
          "velocity": 0.5039370078740157
        },
        {
          "duration": 1.119384765625,
          "durationTicks": 1834,
          "midi": 62,
          "name": "D4",
          "ticks": 10240,
          "time": 6.25,
          "velocity": 0.5039370078740157
        },
        {
          "duration": 0.494384765625,
          "durationTicks": 810,
          "midi": 67,
          "name": "G4",
          "ticks": 10240,
          "time": 6.25,
          "velocity": 0.5039370078740157
        },
        {
          "duration": 0.494384765625,
          "durationTicks": 810,
          "midi": 74,
          "name": "D5",
          "ticks": 10240,
          "time": 6.25,
          "velocity": 0.5039370078740157
        },
        {
          "duration": 1.25,
          "durationTicks": 2048,
          "midi": 59,
          "name": "B3",
          "ticks": 10240,
          "time": 6.25,
          "velocity": 0.5039370078740157
        },
        {
          "duration": 0.494384765625,
          "durationTicks": 810,
          "midi": 67,
          "name": "G4",
          "ticks": 11264,
          "time": 6.875,
          "velocity": 0.5039370078740157
        },
        {
          "duration": 0.99609375,
          "durationTicks": 1632,
          "midi": 65,
          "name": "F4",
          "ticks": 12288,
          "time": 7.5,
          "velocity": 0.5039370078740157
        },
        {
          "duration": 0.99609375,
          "durationTicks": 1632,
          "midi": 69,
          "name": "A4",
          "ticks": 12288,
          "time": 7.5,
          "velocity": 0.5039370078740157
        },
        {
          "duration": 0.99609375,
          "durationTicks": 1632,
          "midi": 77,
          "name": "F5",
          "ticks": 12288,
          "time": 7.5,
          "velocity": 0.5039370078740157
        },
        {
          "duration": 0.99609375,
          "durationTicks": 1632,
          "midi": 57,
          "name": "A3",
          "ticks": 12288,
          "time": 7.5,
          "velocity": 0.48031496062992124
        },
        {
          "duration": 1.119384765625,
          "durationTicks": 1834,
          "midi": 67,
          "name": "G4",
          "ticks": 14336,
          "time": 8.75,
          "velocity": 0.5039370078740157
        },
        {
          "duration": 0.494384765625,
          "durationTicks": 810,
          "midi": 76,
          "name": "E5",
          "ticks": 14336,
          "time": 8.75,
          "velocity": 0.5039370078740157
        },
        {
          "duration": 0.99609375,
          "durationTicks": 1632,
          "midi": 59,
          "name": "B3",
          "ticks": 14336,
          "time": 8.75,
          "velocity": 0.48031496062992124
        },
        {
          "duration": 0.494384765625,
          "durationTicks": 810,
          "midi": 74,
          "name": "D5",
          "ticks": 15360,
          "time": 9.375,
          "velocity": 0.5039370078740157
        },
        {
          "duration": 1.1846923828125,
          "durationTicks": 1941,
          "midi": 65,
          "name": "F4",
          "ticks": 16384,
          "time": 10,
          "velocity": 0.5039370078740157
        },
        {
          "duration": 0.494384765625,
          "durationTicks": 810,
          "midi": 72,
          "name": "C5",
          "ticks": 16384,
          "time": 10,
          "velocity": 0.5039370078740157
        },
        {
          "duration": 1.1846923828125,
          "durationTicks": 1941,
          "midi": 57,
          "name": "A3",
          "ticks": 16384,
          "time": 10,
          "velocity": 0.48031496062992124
        },
        {
          "duration": 0.2471923828125,
          "durationTicks": 405,
          "midi": 71,
          "name": "B4",
          "ticks": 17408,
          "time": 10.625,
          "velocity": 0.5039370078740157
        },
        {
          "duration": 0.2471923828125,
          "durationTicks": 405,
          "midi": 72,
          "name": "C5",
          "ticks": 17920,
          "time": 10.9375,
          "velocity": 0.5039370078740157
        },
        {
          "duration": 1.119384765625,
          "durationTicks": 1834,
          "midi": 62,
          "name": "D4",
          "ticks": 18432,
          "time": 11.25,
          "velocity": 0.5039370078740157
        },
        {
          "duration": 0.494384765625,
          "durationTicks": 810,
          "midi": 74,
          "name": "D5",
          "ticks": 18432,
          "time": 11.25,
          "velocity": 0.5039370078740157
        },
        {
          "duration": 1.119384765625,
          "durationTicks": 1834,
          "midi": 54,
          "name": "F#3",
          "ticks": 18432,
          "time": 11.25,
          "velocity": 0.48031496062992124
        },
        {
          "duration": 0.494384765625,
          "durationTicks": 810,
          "midi": 72,
          "name": "C5",
          "ticks": 19456,
          "time": 11.875,
          "velocity": 0.5039370078740157
        },
        {
          "duration": 2.24609375,
          "durationTicks": 3680,
          "midi": 62,
          "name": "D4",
          "ticks": 20480,
          "time": 12.5,
          "velocity": 0.5039370078740157
        },
        {
          "duration": 2.24609375,
          "durationTicks": 3680,
          "midi": 67,
          "name": "G4",
          "ticks": 20480,
          "time": 12.5,
          "velocity": 0.5039370078740157
        },
        {
          "duration": 0.99609375,
          "durationTicks": 1632,
          "midi": 72,
          "name": "C5",
          "ticks": 20480,
          "time": 12.5,
          "velocity": 0.5039370078740157
        },
        {
          "duration": 2.24609375,
          "durationTicks": 3680,
          "midi": 55,
          "name": "G3",
          "ticks": 20480,
          "time": 12.5,
          "velocity": 0.48031496062992124
        },
        {
          "duration": 0.99609375,
          "durationTicks": 1632,
          "midi": 71,
          "name": "B4",
          "ticks": 22528,
          "time": 13.75,
          "velocity": 0.3700787401574803
        },
        {
          "duration": 1.119384765625,
          "durationTicks": 1834,
          "midi": 65,
          "name": "F4",
          "ticks": 24576,
          "time": 15,
          "velocity": 0.5354330708661418
        },
        {
          "duration": 0.494384765625,
          "durationTicks": 810,
          "midi": 69,
          "name": "A4",
          "ticks": 24576,
          "time": 15,
          "velocity": 0.5354330708661418
        },
        {
          "duration": 1.119384765625,
          "durationTicks": 1834,
          "midi": 53,
          "name": "F3",
          "ticks": 24576,
          "time": 15,
          "velocity": 0.5118110236220472
        },
        {
          "duration": 1.119384765625,
          "durationTicks": 1834,
          "midi": 57,
          "name": "A3",
          "ticks": 24576,
          "time": 15,
          "velocity": 0.5118110236220472
        },
        {
          "duration": 0.494384765625,
          "durationTicks": 810,
          "midi": 74,
          "name": "D5",
          "ticks": 25600,
          "time": 15.625,
          "velocity": 0.5354330708661418
        },
        {
          "duration": 1.119384765625,
          "durationTicks": 1834,
          "midi": 64,
          "name": "E4",
          "ticks": 26624,
          "time": 16.25,
          "velocity": 0.5354330708661418
        },
        {
          "duration": 0.494384765625,
          "durationTicks": 810,
          "midi": 76,
          "name": "E5",
          "ticks": 26624,
          "time": 16.25,
          "velocity": 0.5354330708661418
        },
        {
          "duration": 1.119384765625,
          "durationTicks": 1834,
          "midi": 52,
          "name": "E3",
          "ticks": 26624,
          "time": 16.25,
          "velocity": 0.5118110236220472
        },
        {
          "duration": 1.25,
          "durationTicks": 2048,
          "midi": 57,
          "name": "A3",
          "ticks": 26624,
          "time": 16.25,
          "velocity": 0.5039370078740157
        },
        {
          "duration": 0.494384765625,
          "durationTicks": 810,
          "midi": 69,
          "name": "A4",
          "ticks": 27648,
          "time": 16.875,
          "velocity": 0.5354330708661418
        },
        {
          "duration": 0.99609375,
          "durationTicks": 1632,
          "midi": 65,
          "name": "F4",
          "ticks": 28672,
          "time": 17.5,
          "velocity": 0.5354330708661418
        },
        {
          "duration": 0.99609375,
          "durationTicks": 1632,
          "midi": 69,
          "name": "A4",
          "ticks": 28672,
          "time": 17.5,
          "velocity": 0.5354330708661418
        },
        {
          "duration": 0.99609375,
          "durationTicks": 1632,
          "midi": 79,
          "name": "G5",
          "ticks": 28672,
          "time": 17.5,
          "velocity": 0.5354330708661418
        },
        {
          "duration": 0.99609375,
          "durationTicks": 1632,
          "midi": 50,
          "name": "D3",
          "ticks": 28672,
          "time": 17.5,
          "velocity": 0.5118110236220472
        },
        {
          "duration": 1.25,
          "durationTicks": 2048,
          "midi": 62,
          "name": "D4",
          "ticks": 28672,
          "time": 17.5,
          "velocity": 0.5039370078740157
        },
        {
          "duration": 1.119384765625,
          "durationTicks": 1834,
          "midi": 69,
          "name": "A4",
          "ticks": 30720,
          "time": 18.75,
          "velocity": 0.5354330708661418
        },
        {
          "duration": 0.494384765625,
          "durationTicks": 810,
          "midi": 77,
          "name": "F5",
          "ticks": 30720,
          "time": 18.75,
          "velocity": 0.5354330708661418
        },
        {
          "duration": 0.99609375,
          "durationTicks": 1632,
          "midi": 49,
          "name": "C#3",
          "ticks": 30720,
          "time": 18.75,
          "velocity": 0.5118110236220472
        },
        {
          "duration": 1.25,
          "durationTicks": 2048,
          "midi": 64,
          "name": "E4",
          "ticks": 30720,
          "time": 18.75,
          "velocity": 0.5039370078740157
        },
        {
          "duration": 0.494384765625,
          "durationTicks": 810,
          "midi": 76,
          "name": "E5",
          "ticks": 31744,
          "time": 19.375,
          "velocity": 0.5354330708661418
        },
        {
          "duration": 1.1846923828125,
          "durationTicks": 1941,
          "midi": 62,
          "name": "D4",
          "ticks": 32768,
          "time": 20,
          "velocity": 0.5354330708661418
        },
        {
          "duration": 1.1846923828125,
          "durationTicks": 1941,
          "midi": 69,
          "name": "A4",
          "ticks": 32768,
          "time": 20,
          "velocity": 0.5354330708661418
        },
        {
          "duration": 0.494384765625,
          "durationTicks": 810,
          "midi": 74,
          "name": "D5",
          "ticks": 32768,
          "time": 20,
          "velocity": 0.5354330708661418
        },
        {
          "duration": 0.99609375,
          "durationTicks": 1632,
          "midi": 50,
          "name": "D3",
          "ticks": 32768,
          "time": 20,
          "velocity": 0.5118110236220472
        },
        {
          "duration": 1.25,
          "durationTicks": 2048,
          "midi": 53,
          "name": "F3",
          "ticks": 32768,
          "time": 20,
          "velocity": 0.5039370078740157
        },
        {
          "duration": 0.2471923828125,
          "durationTicks": 405,
          "midi": 73,
          "name": "C#5",
          "ticks": 33792,
          "time": 20.625,
          "velocity": 0.5354330708661418
        },
        {
          "duration": 0.2471923828125,
          "durationTicks": 405,
          "midi": 76,
          "name": "E5",
          "ticks": 34304,
          "time": 20.9375,
          "velocity": 0.5354330708661418
        },
        {
          "duration": 1.119384765625,
          "durationTicks": 1834,
          "midi": 62,
          "name": "D4",
          "ticks": 34816,
          "time": 21.25,
          "velocity": 0.5354330708661418
        },
        {
          "duration": 0.494384765625,
          "durationTicks": 810,
          "midi": 69,
          "name": "A4",
          "ticks": 34816,
          "time": 21.25,
          "velocity": 0.5354330708661418
        },
        {
          "duration": 0.494384765625,
          "durationTicks": 810,
          "midi": 74,
          "name": "D5",
          "ticks": 34816,
          "time": 21.25,
          "velocity": 0.5354330708661418
        },
        {
          "duration": 0.99609375,
          "durationTicks": 1632,
          "midi": 54,
          "name": "F#3",
          "ticks": 34816,
          "time": 21.25,
          "velocity": 0.5118110236220472
        },
        {
          "duration": 0.494384765625,
          "durationTicks": 810,
          "midi": 69,
          "name": "A4",
          "ticks": 35840,
          "time": 21.875,
          "velocity": 0.5354330708661418
        },
        {
          "duration": 0.99609375,
          "durationTicks": 1632,
          "midi": 72,
          "name": "C5",
          "ticks": 36864,
          "time": 22.5,
          "velocity": 0.5354330708661418
        },
        {
          "duration": 0.99609375,
          "durationTicks": 1632,
          "midi": 76,
          "name": "E5",
          "ticks": 36864,
          "time": 22.5,
          "velocity": 0.5354330708661418
        },
        {
          "duration": 2.24609375,
          "durationTicks": 3680,
          "midi": 55,
          "name": "G3",
          "ticks": 36864,
          "time": 22.5,
          "velocity": 0.5118110236220472
        },
        {
          "duration": 0.99609375,
          "durationTicks": 1632,
          "midi": 71,
          "name": "B4",
          "ticks": 38912,
          "time": 23.75,
          "velocity": 0.41732283464566927
        },
        {
          "duration": 0.99609375,
          "durationTicks": 1632,
          "midi": 74,
          "name": "D5",
          "ticks": 38912,
          "time": 23.75,
          "velocity": 0.41732283464566927
        },
        {
          "duration": 1.119384765625,
          "durationTicks": 1834,
          "midi": 64,
          "name": "E4",
          "ticks": 40960,
          "time": 25,
          "velocity": 0.5354330708661418
        },
        {
          "duration": 0.494384765625,
          "durationTicks": 810,
          "midi": 67,
          "name": "G4",
          "ticks": 40960,
          "time": 25,
          "velocity": 0.5354330708661418
        },
        {
          "duration": 1.25,
          "durationTicks": 2048,
          "midi": 60,
          "name": "C4",
          "ticks": 40960,
          "time": 25,
          "velocity": 0.5039370078740157
        },
        {
          "duration": 0.494384765625,
          "durationTicks": 810,
          "midi": 72,
          "name": "C5",
          "ticks": 41984,
          "time": 25.625,
          "velocity": 0.5354330708661418
        },
        {
          "duration": 1.119384765625,
          "durationTicks": 1834,
          "midi": 62,
          "name": "D4",
          "ticks": 43008,
          "time": 26.25,
          "velocity": 0.5354330708661418
        },
        {
          "duration": 0.494384765625,
          "durationTicks": 810,
          "midi": 67,
          "name": "G4",
          "ticks": 43008,
          "time": 26.25,
          "velocity": 0.5354330708661418
        },
        {
          "duration": 0.494384765625,
          "durationTicks": 810,
          "midi": 74,
          "name": "D5",
          "ticks": 43008,
          "time": 26.25,
          "velocity": 0.5354330708661418
        },
        {
          "duration": 1.25,
          "durationTicks": 2048,
          "midi": 59,
          "name": "B3",
          "ticks": 43008,
          "time": 26.25,
          "velocity": 0.5039370078740157
        },
        {
          "duration": 0.494384765625,
          "durationTicks": 810,
          "midi": 67,
          "name": "G4",
          "ticks": 44032,
          "time": 26.875,
          "velocity": 0.5354330708661418
        },
        {
          "duration": 0.99609375,
          "durationTicks": 1632,
          "midi": 65,
          "name": "F4",
          "ticks": 45056,
          "time": 27.5,
          "velocity": 0.5354330708661418
        },
        {
          "duration": 0.99609375,
          "durationTicks": 1632,
          "midi": 69,
          "name": "A4",
          "ticks": 45056,
          "time": 27.5,
          "velocity": 0.5354330708661418
        },
        {
          "duration": 0.99609375,
          "durationTicks": 1632,
          "midi": 77,
          "name": "F5",
          "ticks": 45056,
          "time": 27.5,
          "velocity": 0.5354330708661418
        },
        {
          "duration": 0.99609375,
          "durationTicks": 1632,
          "midi": 57,
          "name": "A3",
          "ticks": 45056,
          "time": 27.5,
          "velocity": 0.5118110236220472
        },
        {
          "duration": 1.119384765625,
          "durationTicks": 1834,
          "midi": 67,
          "name": "G4",
          "ticks": 47104,
          "time": 28.75,
          "velocity": 0.5354330708661418
        },
        {
          "duration": 0.494384765625,
          "durationTicks": 810,
          "midi": 76,
          "name": "E5",
          "ticks": 47104,
          "time": 28.75,
          "velocity": 0.5354330708661418
        },
        {
          "duration": 0.99609375,
          "durationTicks": 1632,
          "midi": 59,
          "name": "B3",
          "ticks": 47104,
          "time": 28.75,
          "velocity": 0.5118110236220472
        },
        {
          "duration": 0.494384765625,
          "durationTicks": 810,
          "midi": 74,
          "name": "D5",
          "ticks": 48128,
          "time": 29.375,
          "velocity": 0.5354330708661418
        },
        {
          "duration": 1.1846923828125,
          "durationTicks": 1941,
          "midi": 65,
          "name": "F4",
          "ticks": 49152,
          "time": 30,
          "velocity": 0.5354330708661418
        },
        {
          "duration": 0.494384765625,
          "durationTicks": 810,
          "midi": 72,
          "name": "C5",
          "ticks": 49152,
          "time": 30,
          "velocity": 0.5354330708661418
        },
        {
          "duration": 1.1846923828125,
          "durationTicks": 1941,
          "midi": 57,
          "name": "A3",
          "ticks": 49152,
          "time": 30,
          "velocity": 0.5118110236220472
        },
        {
          "duration": 0.2471923828125,
          "durationTicks": 405,
          "midi": 71,
          "name": "B4",
          "ticks": 50176,
          "time": 30.625,
          "velocity": 0.5354330708661418
        },
        {
          "duration": 0.2471923828125,
          "durationTicks": 405,
          "midi": 72,
          "name": "C5",
          "ticks": 50688,
          "time": 30.9375,
          "velocity": 0.5354330708661418
        },
        {
          "duration": 1.119384765625,
          "durationTicks": 1834,
          "midi": 62,
          "name": "D4",
          "ticks": 51200,
          "time": 31.25,
          "velocity": 0.5354330708661418
        },
        {
          "duration": 0.494384765625,
          "durationTicks": 810,
          "midi": 74,
          "name": "D5",
          "ticks": 51200,
          "time": 31.25,
          "velocity": 0.5354330708661418
        },
        {
          "duration": 1.119384765625,
          "durationTicks": 1834,
          "midi": 54,
          "name": "F#3",
          "ticks": 51200,
          "time": 31.25,
          "velocity": 0.5118110236220472
        },
        {
          "duration": 0.494384765625,
          "durationTicks": 810,
          "midi": 72,
          "name": "C5",
          "ticks": 52224,
          "time": 31.875,
          "velocity": 0.5354330708661418
        },
        {
          "duration": 2.24609375,
          "durationTicks": 3680,
          "midi": 62,
          "name": "D4",
          "ticks": 53248,
          "time": 32.5,
          "velocity": 0.5354330708661418
        },
        {
          "duration": 2.24609375,
          "durationTicks": 3680,
          "midi": 67,
          "name": "G4",
          "ticks": 53248,
          "time": 32.5,
          "velocity": 0.5354330708661418
        },
        {
          "duration": 0.99609375,
          "durationTicks": 1632,
          "midi": 72,
          "name": "C5",
          "ticks": 53248,
          "time": 32.5,
          "velocity": 0.5354330708661418
        },
        {
          "duration": 2.24609375,
          "durationTicks": 3680,
          "midi": 55,
          "name": "G3",
          "ticks": 53248,
          "time": 32.5,
          "velocity": 0.5118110236220472
        },
        {
          "duration": 0.99609375,
          "durationTicks": 1632,
          "midi": 71,
          "name": "B4",
          "ticks": 55296,
          "time": 33.75,
          "velocity": 0.41732283464566927
        },
        {
          "duration": 1.119384765625,
          "durationTicks": 1834,
          "midi": 65,
          "name": "F4",
          "ticks": 57344,
          "time": 35,
          "velocity": 0.5669291338582677
        },
        {
          "duration": 0.494384765625,
          "durationTicks": 810,
          "midi": 69,
          "name": "A4",
          "ticks": 57344,
          "time": 35,
          "velocity": 0.5669291338582677
        },
        {
          "duration": 1.119384765625,
          "durationTicks": 1834,
          "midi": 53,
          "name": "F3",
          "ticks": 57344,
          "time": 35,
          "velocity": 0.5354330708661418
        },
        {
          "duration": 1.119384765625,
          "durationTicks": 1834,
          "midi": 57,
          "name": "A3",
          "ticks": 57344,
          "time": 35,
          "velocity": 0.5354330708661418
        },
        {
          "duration": 0.494384765625,
          "durationTicks": 810,
          "midi": 74,
          "name": "D5",
          "ticks": 58368,
          "time": 35.625,
          "velocity": 0.5669291338582677
        },
        {
          "duration": 1.119384765625,
          "durationTicks": 1834,
          "midi": 64,
          "name": "E4",
          "ticks": 59392,
          "time": 36.25,
          "velocity": 0.5669291338582677
        },
        {
          "duration": 0.494384765625,
          "durationTicks": 810,
          "midi": 76,
          "name": "E5",
          "ticks": 59392,
          "time": 36.25,
          "velocity": 0.5669291338582677
        },
        {
          "duration": 1.119384765625,
          "durationTicks": 1834,
          "midi": 52,
          "name": "E3",
          "ticks": 59392,
          "time": 36.25,
          "velocity": 0.5354330708661418
        },
        {
          "duration": 1.25,
          "durationTicks": 2048,
          "midi": 57,
          "name": "A3",
          "ticks": 59392,
          "time": 36.25,
          "velocity": 0.5039370078740157
        },
        {
          "duration": 0.494384765625,
          "durationTicks": 810,
          "midi": 69,
          "name": "A4",
          "ticks": 60416,
          "time": 36.875,
          "velocity": 0.5669291338582677
        },
        {
          "duration": 0.99609375,
          "durationTicks": 1632,
          "midi": 65,
          "name": "F4",
          "ticks": 61440,
          "time": 37.5,
          "velocity": 0.5669291338582677
        },
        {
          "duration": 0.99609375,
          "durationTicks": 1632,
          "midi": 69,
          "name": "A4",
          "ticks": 61440,
          "time": 37.5,
          "velocity": 0.5669291338582677
        },
        {
          "duration": 0.99609375,
          "durationTicks": 1632,
          "midi": 79,
          "name": "G5",
          "ticks": 61440,
          "time": 37.5,
          "velocity": 0.5669291338582677
        },
        {
          "duration": 0.99609375,
          "durationTicks": 1632,
          "midi": 50,
          "name": "D3",
          "ticks": 61440,
          "time": 37.5,
          "velocity": 0.5354330708661418
        },
        {
          "duration": 1.25,
          "durationTicks": 2048,
          "midi": 62,
          "name": "D4",
          "ticks": 61440,
          "time": 37.5,
          "velocity": 0.5039370078740157
        },
        {
          "duration": 1.119384765625,
          "durationTicks": 1834,
          "midi": 69,
          "name": "A4",
          "ticks": 63488,
          "time": 38.75,
          "velocity": 0.5669291338582677
        },
        {
          "duration": 0.494384765625,
          "durationTicks": 810,
          "midi": 77,
          "name": "F5",
          "ticks": 63488,
          "time": 38.75,
          "velocity": 0.5669291338582677
        },
        {
          "duration": 0.99609375,
          "durationTicks": 1632,
          "midi": 49,
          "name": "C#3",
          "ticks": 63488,
          "time": 38.75,
          "velocity": 0.5354330708661418
        },
        {
          "duration": 1.25,
          "durationTicks": 2048,
          "midi": 64,
          "name": "E4",
          "ticks": 63488,
          "time": 38.75,
          "velocity": 0.5039370078740157
        },
        {
          "duration": 0.494384765625,
          "durationTicks": 810,
          "midi": 76,
          "name": "E5",
          "ticks": 64512,
          "time": 39.375,
          "velocity": 0.5669291338582677
        },
        {
          "duration": 1.1846923828125,
          "durationTicks": 1941,
          "midi": 62,
          "name": "D4",
          "ticks": 65536,
          "time": 40,
          "velocity": 0.5669291338582677
        },
        {
          "duration": 1.1846923828125,
          "durationTicks": 1941,
          "midi": 69,
          "name": "A4",
          "ticks": 65536,
          "time": 40,
          "velocity": 0.5669291338582677
        },
        {
          "duration": 0.494384765625,
          "durationTicks": 810,
          "midi": 74,
          "name": "D5",
          "ticks": 65536,
          "time": 40,
          "velocity": 0.5669291338582677
        },
        {
          "duration": 0.99609375,
          "durationTicks": 1632,
          "midi": 50,
          "name": "D3",
          "ticks": 65536,
          "time": 40,
          "velocity": 0.5354330708661418
        },
        {
          "duration": 0.2471923828125,
          "durationTicks": 405,
          "midi": 73,
          "name": "C#5",
          "ticks": 66560,
          "time": 40.625,
          "velocity": 0.5669291338582677
        },
        {
          "duration": 0.2471923828125,
          "durationTicks": 405,
          "midi": 76,
          "name": "E5",
          "ticks": 67072,
          "time": 40.9375,
          "velocity": 0.5669291338582677
        },
        {
          "duration": 1.119384765625,
          "durationTicks": 1834,
          "midi": 62,
          "name": "D4",
          "ticks": 67584,
          "time": 41.25,
          "velocity": 0.5669291338582677
        },
        {
          "duration": 0.494384765625,
          "durationTicks": 810,
          "midi": 69,
          "name": "A4",
          "ticks": 67584,
          "time": 41.25,
          "velocity": 0.5669291338582677
        },
        {
          "duration": 0.494384765625,
          "durationTicks": 810,
          "midi": 74,
          "name": "D5",
          "ticks": 67584,
          "time": 41.25,
          "velocity": 0.5669291338582677
        },
        {
          "duration": 0.99609375,
          "durationTicks": 1632,
          "midi": 54,
          "name": "F#3",
          "ticks": 67584,
          "time": 41.25,
          "velocity": 0.5354330708661418
        },
        {
          "duration": 0.494384765625,
          "durationTicks": 810,
          "midi": 69,
          "name": "A4",
          "ticks": 68608,
          "time": 41.875,
          "velocity": 0.5669291338582677
        },
        {
          "duration": 0.99609375,
          "durationTicks": 1632,
          "midi": 72,
          "name": "C5",
          "ticks": 69632,
          "time": 42.5,
          "velocity": 0.5669291338582677
        },
        {
          "duration": 0.99609375,
          "durationTicks": 1632,
          "midi": 76,
          "name": "E5",
          "ticks": 69632,
          "time": 42.5,
          "velocity": 0.5669291338582677
        },
        {
          "duration": 2.24609375,
          "durationTicks": 3680,
          "midi": 55,
          "name": "G3",
          "ticks": 69632,
          "time": 42.5,
          "velocity": 0.5354330708661418
        },
        {
          "duration": 1.217041015625,
          "durationTicks": 1994,
          "midi": 71,
          "name": "B4",
          "ticks": 71680,
          "time": 43.75,
          "velocity": 0.5669291338582677
        },
        {
          "duration": 0.494384765625,
          "durationTicks": 810,
          "midi": 74,
          "name": "D5",
          "ticks": 71680,
          "time": 43.75,
          "velocity": 0.5669291338582677
        },
        {
          "duration": 0.592041015625,
          "durationTicks": 970,
          "midi": 74,
          "name": "D5",
          "ticks": 72704,
          "time": 44.375,
          "velocity": 0.5669291338582677
        },
        {
          "duration": 0.123291015625,
          "durationTicks": 202,
          "midi": 76,
          "name": "E5",
          "ticks": 72960,
          "time": 44.53125,
          "velocity": 0.5669291338582677
        },
        {
          "duration": 0.123291015625,
          "durationTicks": 202,
          "midi": 77,
          "name": "F5",
          "ticks": 73216,
          "time": 44.6875,
          "velocity": 0.5669291338582677
        },
        {
          "duration": 0.123291015625,
          "durationTicks": 202,
          "midi": 79,
          "name": "G5",
          "ticks": 73472,
          "time": 44.84375,
          "velocity": 0.5669291338582677
        },
        {
          "duration": 1.4971923828125,
          "durationTicks": 2453,
          "midi": 72,
          "name": "C5",
          "ticks": 73728,
          "time": 45,
          "velocity": 0.6299212598425197
        },
        {
          "duration": 1.4971923828125,
          "durationTicks": 2453,
          "midi": 81,
          "name": "A5",
          "ticks": 73728,
          "time": 45,
          "velocity": 0.6299212598425197
        },
        {
          "duration": 2.369384765625,
          "durationTicks": 3882,
          "midi": 53,
          "name": "F3",
          "ticks": 73728,
          "time": 45,
          "velocity": 0.6299212598425197
        },
        {
          "duration": 0.494384765625,
          "durationTicks": 810,
          "midi": 57,
          "name": "A3",
          "ticks": 74752,
          "time": 45.625,
          "velocity": 0.6299212598425197
        },
        {
          "duration": 0.494384765625,
          "durationTicks": 810,
          "midi": 60,
          "name": "C4",
          "ticks": 74752,
          "time": 45.625,
          "velocity": 0.6299212598425197
        },
        {
          "duration": 0.494384765625,
          "durationTicks": 810,
          "midi": 65,
          "name": "F4",
          "ticks": 74752,
          "time": 45.625,
          "velocity": 0.6299212598425197
        },
        {
          "duration": 1.119384765625,
          "durationTicks": 1834,
          "midi": 60,
          "name": "C4",
          "ticks": 75776,
          "time": 46.25,
          "velocity": 0.6299212598425197
        },
        {
          "duration": 1.119384765625,
          "durationTicks": 1834,
          "midi": 65,
          "name": "F4",
          "ticks": 75776,
          "time": 46.25,
          "velocity": 0.6299212598425197
        },
        {
          "duration": 1.119384765625,
          "durationTicks": 1834,
          "midi": 69,
          "name": "A4",
          "ticks": 75776,
          "time": 46.25,
          "velocity": 0.6299212598425197
        },
        {
          "duration": 0.494384765625,
          "durationTicks": 810,
          "midi": 72,
          "name": "C5",
          "ticks": 76800,
          "time": 46.875,
          "velocity": 0.6299212598425197
        },
        {
          "duration": 0.494384765625,
          "durationTicks": 810,
          "midi": 81,
          "name": "A5",
          "ticks": 76800,
          "time": 46.875,
          "velocity": 0.6299212598425197
        },
        {
          "duration": 2.369384765625,
          "durationTicks": 3882,
          "midi": 72,
          "name": "C5",
          "ticks": 77824,
          "time": 47.5,
          "velocity": 0.6299212598425197
        },
        {
          "duration": 1.4971923828125,
          "durationTicks": 2453,
          "midi": 79,
          "name": "G5",
          "ticks": 77824,
          "time": 47.5,
          "velocity": 0.6299212598425197
        },
        {
          "duration": 0.494384765625,
          "durationTicks": 810,
          "midi": 52,
          "name": "E3",
          "ticks": 77824,
          "time": 47.5,
          "velocity": 0.6299212598425197
        },
        {
          "duration": 0.494384765625,
          "durationTicks": 810,
          "midi": 55,
          "name": "G3",
          "ticks": 78848,
          "time": 48.125,
          "velocity": 0.6299212598425197
        },
        {
          "duration": 0.494384765625,
          "durationTicks": 810,
          "midi": 60,
          "name": "C4",
          "ticks": 78848,
          "time": 48.125,
          "velocity": 0.6299212598425197
        },
        {
          "duration": 0.494384765625,
          "durationTicks": 810,
          "midi": 64,
          "name": "E4",
          "ticks": 78848,
          "time": 48.125,
          "velocity": 0.6299212598425197
        },
        {
          "duration": 0.494384765625,
          "durationTicks": 810,
          "midi": 60,
          "name": "C4",
          "ticks": 79872,
          "time": 48.75,
          "velocity": 0.6299212598425197
        },
        {
          "duration": 0.494384765625,
          "durationTicks": 810,
          "midi": 64,
          "name": "E4",
          "ticks": 79872,
          "time": 48.75,
          "velocity": 0.6299212598425197
        },
        {
          "duration": 0.494384765625,
          "durationTicks": 810,
          "midi": 67,
          "name": "G4",
          "ticks": 79872,
          "time": 48.75,
          "velocity": 0.6299212598425197
        },
        {
          "duration": 0.494384765625,
          "durationTicks": 810,
          "midi": 76,
          "name": "E5",
          "ticks": 80896,
          "time": 49.375,
          "velocity": 0.6299212598425197
        },
        {
          "duration": 1.1846923828125,
          "durationTicks": 1941,
          "midi": 72,
          "name": "C5",
          "ticks": 81920,
          "time": 50,
          "velocity": 0.6299212598425197
        },
        {
          "duration": 0.494384765625,
          "durationTicks": 810,
          "midi": 77,
          "name": "F5",
          "ticks": 81920,
          "time": 50,
          "velocity": 0.6299212598425197
        },
        {
          "duration": 0.99609375,
          "durationTicks": 1632,
          "midi": 53,
          "name": "F3",
          "ticks": 81920,
          "time": 50,
          "velocity": 0.6299212598425197
        },
        {
          "duration": 1.25,
          "durationTicks": 2048,
          "midi": 58,
          "name": "A#3",
          "ticks": 81920,
          "time": 50,
          "velocity": 0.5039370078740157
        },
        {
          "duration": 0.2471923828125,
          "durationTicks": 405,
          "midi": 77,
          "name": "F5",
          "ticks": 82944,
          "time": 50.625,
          "velocity": 0.6299212598425197
        },
        {
          "duration": 0.2471923828125,
          "durationTicks": 405,
          "midi": 76,
          "name": "E5",
          "ticks": 83456,
          "time": 50.9375,
          "velocity": 0.6299212598425197
        },
        {
          "duration": 0.494384765625,
          "durationTicks": 810,
          "midi": 74,
          "name": "D5",
          "ticks": 83968,
          "time": 51.25,
          "velocity": 0.6299212598425197
        },
        {
          "duration": 0.99609375,
          "durationTicks": 1632,
          "midi": 52,
          "name": "E3",
          "ticks": 83968,
          "time": 51.25,
          "velocity": 0.6299212598425197
        },
        {
          "duration": 1.25,
          "durationTicks": 2048,
          "midi": 57,
          "name": "A3",
          "ticks": 83968,
          "time": 51.25,
          "velocity": 0.5039370078740157
        },
        {
          "duration": 1.25,
          "durationTicks": 2048,
          "midi": 62,
          "name": "D4",
          "ticks": 83968,
          "time": 51.25,
          "velocity": 0.5039370078740157
        },
        {
          "duration": 0.494384765625,
          "durationTicks": 810,
          "midi": 73,
          "name": "C#5",
          "ticks": 84992,
          "time": 51.875,
          "velocity": 0.6299212598425197
        },
        {
          "duration": 1.119384765625,
          "durationTicks": 1834,
          "midi": 69,
          "name": "A4",
          "ticks": 86016,
          "time": 52.5,
          "velocity": 0.6299212598425197
        },
        {
          "duration": 0.494384765625,
          "durationTicks": 810,
          "midi": 74,
          "name": "D5",
          "ticks": 86016,
          "time": 52.5,
          "velocity": 0.6299212598425197
        },
        {
          "duration": 1.25,
          "durationTicks": 2048,
          "midi": 62,
          "name": "D4",
          "ticks": 86016,
          "time": 52.5,
          "velocity": 0.5039370078740157
        },
        {
          "duration": 0.494384765625,
          "durationTicks": 810,
          "midi": 76,
          "name": "E5",
          "ticks": 87040,
          "time": 53.125,
          "velocity": 0.6299212598425197
        },
        {
          "duration": 1.119384765625,
          "durationTicks": 1834,
          "midi": 70,
          "name": "A#4",
          "ticks": 88064,
          "time": 53.75,
          "velocity": 0.6299212598425197
        },
        {
          "duration": 0.494384765625,
          "durationTicks": 810,
          "midi": 77,
          "name": "F5",
          "ticks": 88064,
          "time": 53.75,
          "velocity": 0.6299212598425197
        },
        {
          "duration": 1.25,
          "durationTicks": 2048,
          "midi": 60,
          "name": "C4",
          "ticks": 88064,
          "time": 53.75,
          "velocity": 0.5039370078740157
        },
        {
          "duration": 0.494384765625,
          "durationTicks": 810,
          "midi": 79,
          "name": "G5",
          "ticks": 89088,
          "time": 54.375,
          "velocity": 0.6299212598425197
        },
        {
          "duration": 1.4971923828125,
          "durationTicks": 2453,
          "midi": 77,
          "name": "F5",
          "ticks": 90112,
          "time": 55,
          "velocity": 0.6299212598425197
        },
        {
          "duration": 1.4971923828125,
          "durationTicks": 2453,
          "midi": 82,
          "name": "A#5",
          "ticks": 90112,
          "time": 55,
          "velocity": 0.6299212598425197
        },
        {
          "duration": 0.494384765625,
          "durationTicks": 810,
          "midi": 51,
          "name": "D#3",
          "ticks": 90112,
          "time": 55,
          "velocity": 0.6299212598425197
        },
        {
          "duration": 0.494384765625,
          "durationTicks": 810,
          "midi": 55,
          "name": "G3",
          "ticks": 91136,
          "time": 55.625,
          "velocity": 0.6299212598425197
        },
        {
          "duration": 0.494384765625,
          "durationTicks": 810,
          "midi": 58,
          "name": "A#3",
          "ticks": 91136,
          "time": 55.625,
          "velocity": 0.6299212598425197
        },
        {
          "duration": 0.494384765625,
          "durationTicks": 810,
          "midi": 63,
          "name": "D#4",
          "ticks": 91136,
          "time": 55.625,
          "velocity": 0.6299212598425197
        },
        {
          "duration": 1.119384765625,
          "durationTicks": 1834,
          "midi": 58,
          "name": "A#3",
          "ticks": 92160,
          "time": 56.25,
          "velocity": 0.6299212598425197
        },
        {
          "duration": 1.119384765625,
          "durationTicks": 1834,
          "midi": 63,
          "name": "D#4",
          "ticks": 92160,
          "time": 56.25,
          "velocity": 0.6299212598425197
        },
        {
          "duration": 1.119384765625,
          "durationTicks": 1834,
          "midi": 67,
          "name": "G4",
          "ticks": 92160,
          "time": 56.25,
          "velocity": 0.6299212598425197
        },
        {
          "duration": 0.494384765625,
          "durationTicks": 810,
          "midi": 82,
          "name": "A#5",
          "ticks": 93184,
          "time": 56.875,
          "velocity": 0.6299212598425197
        },
        {
          "duration": 1.4971923828125,
          "durationTicks": 2453,
          "midi": 77,
          "name": "F5",
          "ticks": 94208,
          "time": 57.5,
          "velocity": 0.6299212598425197
        },
        {
          "duration": 1.4971923828125,
          "durationTicks": 2453,
          "midi": 81,
          "name": "A5",
          "ticks": 94208,
          "time": 57.5,
          "velocity": 0.6299212598425197
        },
        {
          "duration": 0.494384765625,
          "durationTicks": 810,
          "midi": 50,
          "name": "D3",
          "ticks": 94208,
          "time": 57.5,
          "velocity": 0.6299212598425197
        },
        {
          "duration": 0.494384765625,
          "durationTicks": 810,
          "midi": 57,
          "name": "A3",
          "ticks": 95232,
          "time": 58.125,
          "velocity": 0.6299212598425197
        },
        {
          "duration": 0.494384765625,
          "durationTicks": 810,
          "midi": 62,
          "name": "D4",
          "ticks": 95232,
          "time": 58.125,
          "velocity": 0.6299212598425197
        },
        {
          "duration": 0.494384765625,
          "durationTicks": 810,
          "midi": 65,
          "name": "F4",
          "ticks": 95232,
          "time": 58.125,
          "velocity": 0.6299212598425197
        },
        {
          "duration": 1.119384765625,
          "durationTicks": 1834,
          "midi": 62,
          "name": "D4",
          "ticks": 96256,
          "time": 58.75,
          "velocity": 0.6299212598425197
        },
        {
          "duration": 1.119384765625,
          "durationTicks": 1834,
          "midi": 65,
          "name": "F4",
          "ticks": 96256,
          "time": 58.75,
          "velocity": 0.6299212598425197
        },
        {
          "duration": 1.119384765625,
          "durationTicks": 1834,
          "midi": 69,
          "name": "A4",
          "ticks": 96256,
          "time": 58.75,
          "velocity": 0.6299212598425197
        },
        {
          "duration": 0.494384765625,
          "durationTicks": 810,
          "midi": 77,
          "name": "F5",
          "ticks": 97280,
          "time": 59.375,
          "velocity": 0.6299212598425197
        },
        {
          "duration": 1.1846923828125,
          "durationTicks": 1941,
          "midi": 68,
          "name": "G#4",
          "ticks": 98304,
          "time": 60,
          "velocity": 0.6299212598425197
        },
        {
          "duration": 1.1846923828125,
          "durationTicks": 1941,
          "midi": 72,
          "name": "C5",
          "ticks": 98304,
          "time": 60,
          "velocity": 0.6299212598425197
        },
        {
          "duration": 0.494384765625,
          "durationTicks": 810,
          "midi": 79,
          "name": "G5",
          "ticks": 98304,
          "time": 60,
          "velocity": 0.6299212598425197
        },
        {
          "duration": 0.99609375,
          "durationTicks": 1632,
          "midi": 56,
          "name": "G#3",
          "ticks": 98304,
          "time": 60,
          "velocity": 0.6299212598425197
        },
        {
          "duration": 0.2471923828125,
          "durationTicks": 405,
          "midi": 79,
          "name": "G5",
          "ticks": 99328,
          "time": 60.625,
          "velocity": 0.6299212598425197
        },
        {
          "duration": 0.2471923828125,
          "durationTicks": 405,
          "midi": 80,
          "name": "G#5",
          "ticks": 99840,
          "time": 60.9375,
          "velocity": 0.6299212598425197
        },
        {
          "duration": 1.1846923828125,
          "durationTicks": 1941,
          "midi": 68,
          "name": "G#4",
          "ticks": 100352,
          "time": 61.25,
          "velocity": 0.6299212598425197
        },
        {
          "duration": 1.1846923828125,
          "durationTicks": 1941,
          "midi": 72,
          "name": "C5",
          "ticks": 100352,
          "time": 61.25,
          "velocity": 0.6299212598425197
        },
        {
          "duration": 0.494384765625,
          "durationTicks": 810,
          "midi": 79,
          "name": "G5",
          "ticks": 100352,
          "time": 61.25,
          "velocity": 0.6299212598425197
        },
        {
          "duration": 0.99609375,
          "durationTicks": 1632,
          "midi": 56,
          "name": "G#3",
          "ticks": 100352,
          "time": 61.25,
          "velocity": 0.6299212598425197
        },
        {
          "duration": 0.2471923828125,
          "durationTicks": 405,
          "midi": 79,
          "name": "G5",
          "ticks": 101376,
          "time": 61.875,
          "velocity": 0.6299212598425197
        },
        {
          "duration": 0.2471923828125,
          "durationTicks": 405,
          "midi": 80,
          "name": "G#5",
          "ticks": 101888,
          "time": 62.1875,
          "velocity": 0.6299212598425197
        },
        {
          "duration": 2.369384765625,
          "durationTicks": 3882,
          "midi": 67,
          "name": "G4",
          "ticks": 102400,
          "time": 62.5,
          "velocity": 0.6299212598425197
        },
        {
          "duration": 1.119384765625,
          "durationTicks": 1834,
          "midi": 74,
          "name": "D5",
          "ticks": 102400,
          "time": 62.5,
          "velocity": 0.6299212598425197
        },
        {
          "duration": 0.494384765625,
          "durationTicks": 810,
          "midi": 79,
          "name": "G5",
          "ticks": 102400,
          "time": 62.5,
          "velocity": 0.6299212598425197
        },
        {
          "duration": 1.998291015625,
          "durationTicks": 3274,
          "midi": 55,
          "name": "G3",
          "ticks": 102400,
          "time": 62.5,
          "velocity": 0.6299212598425197
        },
        {
          "duration": 0.494384765625,
          "durationTicks": 810,
          "midi": 77,
          "name": "F5",
          "ticks": 103424,
          "time": 63.125,
          "velocity": 0.5669291338582677
        },
        {
          "duration": 1.119384765625,
          "durationTicks": 1834,
          "midi": 71,
          "name": "B4",
          "ticks": 104448,
          "time": 63.75,
          "velocity": 0.5039370078740157
        },
        {
          "duration": 0.494384765625,
          "durationTicks": 810,
          "midi": 76,
          "name": "E5",
          "ticks": 104448,
          "time": 63.75,
          "velocity": 0.5039370078740157
        },
        {
          "duration": 0.494384765625,
          "durationTicks": 810,
          "midi": 74,
          "name": "D5",
          "ticks": 105472,
          "time": 64.375,
          "velocity": 0.4409448818897638
        },
        {
          "duration": 0.625,
          "durationTicks": 1024,
          "midi": 60,
          "name": "C4",
          "ticks": 106496,
          "time": 65,
          "velocity": 0.6299212598425197
        },
        {
          "duration": 0.625,
          "durationTicks": 1024,
          "midi": 64,
          "name": "E4",
          "ticks": 106496,
          "time": 65,
          "velocity": 0.6299212598425197
        },
        {
          "duration": 0.625,
          "durationTicks": 1024,
          "midi": 67,
          "name": "G4",
          "ticks": 106496,
          "time": 65,
          "velocity": 0.6929133858267716
        },
        {
          "duration": 0.15625,
          "durationTicks": 256,
          "midi": 48,
          "name": "C3",
          "ticks": 106496,
          "time": 65,
          "velocity": 0.6299212598425197
        },
        {
          "duration": 0.01953125,
          "durationTicks": 32,
          "midi": 52,
          "name": "E3",
          "ticks": 106752,
          "time": 65.15625,
          "velocity": 0.6299212598425197
        },
        {
          "duration": 0.15625,
          "durationTicks": 256,
          "midi": 55,
          "name": "G3",
          "ticks": 107008,
          "time": 65.3125,
          "velocity": 0.6299212598425197
        },
        {
          "duration": 0.15625,
          "durationTicks": 256,
          "midi": 60,
          "name": "C4",
          "ticks": 107264,
          "time": 65.46875,
          "velocity": 0.6299212598425197
        },
        {
          "duration": 0.625,
          "durationTicks": 1024,
          "midi": 64,
          "name": "E4",
          "ticks": 107520,
          "time": 65.625,
          "velocity": 0.6299212598425197
        },
        {
          "duration": 0.625,
          "durationTicks": 1024,
          "midi": 67,
          "name": "G4",
          "ticks": 107520,
          "time": 65.625,
          "velocity": 0.6299212598425197
        },
        {
          "duration": 0.625,
          "durationTicks": 1024,
          "midi": 72,
          "name": "C5",
          "ticks": 107520,
          "time": 65.625,
          "velocity": 0.6929133858267716
        },
        {
          "duration": 0.15625,
          "durationTicks": 256,
          "midi": 48,
          "name": "C3",
          "ticks": 107520,
          "time": 65.625,
          "velocity": 0.6299212598425197
        },
        {
          "duration": 0.01953125,
          "durationTicks": 32,
          "midi": 52,
          "name": "E3",
          "ticks": 107776,
          "time": 65.78125,
          "velocity": 0.6299212598425197
        },
        {
          "duration": 0.15625,
          "durationTicks": 256,
          "midi": 55,
          "name": "G3",
          "ticks": 108032,
          "time": 65.9375,
          "velocity": 0.6299212598425197
        },
        {
          "duration": 0.15625,
          "durationTicks": 256,
          "midi": 60,
          "name": "C4",
          "ticks": 108288,
          "time": 66.09375,
          "velocity": 0.6299212598425197
        },
        {
          "duration": 0.625,
          "durationTicks": 1024,
          "midi": 67,
          "name": "G4",
          "ticks": 108544,
          "time": 66.25,
          "velocity": 0.6299212598425197
        },
        {
          "duration": 0.625,
          "durationTicks": 1024,
          "midi": 71,
          "name": "B4",
          "ticks": 108544,
          "time": 66.25,
          "velocity": 0.6299212598425197
        },
        {
          "duration": 0.625,
          "durationTicks": 1024,
          "midi": 74,
          "name": "D5",
          "ticks": 108544,
          "time": 66.25,
          "velocity": 0.6929133858267716
        },
        {
          "duration": 0.15625,
          "durationTicks": 256,
          "midi": 47,
          "name": "B2",
          "ticks": 108544,
          "time": 66.25,
          "velocity": 0.6299212598425197
        },
        {
          "duration": 0.01953125,
          "durationTicks": 32,
          "midi": 50,
          "name": "D3",
          "ticks": 108800,
          "time": 66.40625,
          "velocity": 0.6299212598425197
        },
        {
          "duration": 0.15625,
          "durationTicks": 256,
          "midi": 55,
          "name": "G3",
          "ticks": 109056,
          "time": 66.5625,
          "velocity": 0.6299212598425197
        },
        {
          "duration": 0.15625,
          "durationTicks": 256,
          "midi": 59,
          "name": "B3",
          "ticks": 109312,
          "time": 66.71875,
          "velocity": 0.6299212598425197
        },
        {
          "duration": 0.625,
          "durationTicks": 1024,
          "midi": 59,
          "name": "B3",
          "ticks": 109568,
          "time": 66.875,
          "velocity": 0.6299212598425197
        },
        {
          "duration": 0.625,
          "durationTicks": 1024,
          "midi": 62,
          "name": "D4",
          "ticks": 109568,
          "time": 66.875,
          "velocity": 0.6299212598425197
        },
        {
          "duration": 0.625,
          "durationTicks": 1024,
          "midi": 67,
          "name": "G4",
          "ticks": 109568,
          "time": 66.875,
          "velocity": 0.6929133858267716
        },
        {
          "duration": 0.15625,
          "durationTicks": 256,
          "midi": 47,
          "name": "B2",
          "ticks": 109568,
          "time": 66.875,
          "velocity": 0.6299212598425197
        },
        {
          "duration": 0.01953125,
          "durationTicks": 32,
          "midi": 50,
          "name": "D3",
          "ticks": 109824,
          "time": 67.03125,
          "velocity": 0.6299212598425197
        },
        {
          "duration": 0.15625,
          "durationTicks": 256,
          "midi": 55,
          "name": "G3",
          "ticks": 110080,
          "time": 67.1875,
          "velocity": 0.6299212598425197
        },
        {
          "duration": 0.15625,
          "durationTicks": 256,
          "midi": 59,
          "name": "B3",
          "ticks": 110336,
          "time": 67.34375,
          "velocity": 0.6299212598425197
        },
        {
          "duration": 0.99609375,
          "durationTicks": 1632,
          "midi": 65,
          "name": "F4",
          "ticks": 110592,
          "time": 67.5,
          "velocity": 0.6299212598425197
        },
        {
          "duration": 0.99609375,
          "durationTicks": 1632,
          "midi": 69,
          "name": "A4",
          "ticks": 110592,
          "time": 67.5,
          "velocity": 0.6299212598425197
        },
        {
          "duration": 0.99609375,
          "durationTicks": 1632,
          "midi": 77,
          "name": "F5",
          "ticks": 110592,
          "time": 67.5,
          "velocity": 0.6929133858267716
        },
        {
          "duration": 0.15625,
          "durationTicks": 256,
          "midi": 45,
          "name": "A2",
          "ticks": 110592,
          "time": 67.5,
          "velocity": 0.6299212598425197
        },
        {
          "duration": 0.01953125,
          "durationTicks": 32,
          "midi": 48,
          "name": "C3",
          "ticks": 110848,
          "time": 67.65625,
          "velocity": 0.6299212598425197
        },
        {
          "duration": 0.15625,
          "durationTicks": 256,
          "midi": 53,
          "name": "F3",
          "ticks": 111104,
          "time": 67.8125,
          "velocity": 0.6299212598425197
        },
        {
          "duration": 0.15625,
          "durationTicks": 256,
          "midi": 57,
          "name": "A3",
          "ticks": 111360,
          "time": 67.96875,
          "velocity": 0.6299212598425197
        },
        {
          "duration": 0.15625,
          "durationTicks": 256,
          "midi": 45,
          "name": "A2",
          "ticks": 111616,
          "time": 68.125,
          "velocity": 0.6299212598425197
        },
        {
          "duration": 0.01953125,
          "durationTicks": 32,
          "midi": 48,
          "name": "C3",
          "ticks": 111872,
          "time": 68.28125,
          "velocity": 0.6299212598425197
        },
        {
          "duration": 0.15625,
          "durationTicks": 256,
          "midi": 53,
          "name": "F3",
          "ticks": 112128,
          "time": 68.4375,
          "velocity": 0.6299212598425197
        },
        {
          "duration": 0.15625,
          "durationTicks": 256,
          "midi": 57,
          "name": "A3",
          "ticks": 112384,
          "time": 68.59375,
          "velocity": 0.6299212598425197
        },
        {
          "duration": 0.494384765625,
          "durationTicks": 810,
          "midi": 67,
          "name": "G4",
          "ticks": 112640,
          "time": 68.75,
          "velocity": 0.6299212598425197
        },
        {
          "duration": 0.494384765625,
          "durationTicks": 810,
          "midi": 71,
          "name": "B4",
          "ticks": 112640,
          "time": 68.75,
          "velocity": 0.6299212598425197
        },
        {
          "duration": 0.494384765625,
          "durationTicks": 810,
          "midi": 76,
          "name": "E5",
          "ticks": 112640,
          "time": 68.75,
          "velocity": 0.6929133858267716
        },
        {
          "duration": 0.15625,
          "durationTicks": 256,
          "midi": 43,
          "name": "G2",
          "ticks": 112640,
          "time": 68.75,
          "velocity": 0.6299212598425197
        },
        {
          "duration": 0.15625,
          "durationTicks": 256,
          "midi": 47,
          "name": "B2",
          "ticks": 112896,
          "time": 68.90625,
          "velocity": 0.6299212598425197
        },
        {
          "duration": 0.01953125,
          "durationTicks": 32,
          "midi": 50,
          "name": "D3",
          "ticks": 113152,
          "time": 69.0625,
          "velocity": 0.6299212598425197
        },
        {
          "duration": 0.15625,
          "durationTicks": 256,
          "midi": 55,
          "name": "G3",
          "ticks": 113408,
          "time": 69.21875,
          "velocity": 0.6299212598425197
        },
        {
          "duration": 0.494384765625,
          "durationTicks": 810,
          "midi": 67,
          "name": "G4",
          "ticks": 113664,
          "time": 69.375,
          "velocity": 0.6299212598425197
        },
        {
          "duration": 0.494384765625,
          "durationTicks": 810,
          "midi": 71,
          "name": "B4",
          "ticks": 113664,
          "time": 69.375,
          "velocity": 0.6299212598425197
        },
        {
          "duration": 0.494384765625,
          "durationTicks": 810,
          "midi": 74,
          "name": "D5",
          "ticks": 113664,
          "time": 69.375,
          "velocity": 0.6929133858267716
        },
        {
          "duration": 0.15625,
          "durationTicks": 256,
          "midi": 43,
          "name": "G2",
          "ticks": 113664,
          "time": 69.375,
          "velocity": 0.6299212598425197
        },
        {
          "duration": 0.15625,
          "durationTicks": 256,
          "midi": 47,
          "name": "B2",
          "ticks": 113920,
          "time": 69.53125,
          "velocity": 0.6299212598425197
        },
        {
          "duration": 0.01953125,
          "durationTicks": 32,
          "midi": 50,
          "name": "D3",
          "ticks": 114176,
          "time": 69.6875,
          "velocity": 0.6299212598425197
        },
        {
          "duration": 0.15625,
          "durationTicks": 256,
          "midi": 55,
          "name": "G3",
          "ticks": 114432,
          "time": 69.84375,
          "velocity": 0.6299212598425197
        },
        {
          "duration": 0.625,
          "durationTicks": 1024,
          "midi": 65,
          "name": "F4",
          "ticks": 114688,
          "time": 70,
          "velocity": 0.6299212598425197
        },
        {
          "duration": 0.625,
          "durationTicks": 1024,
          "midi": 69,
          "name": "A4",
          "ticks": 114688,
          "time": 70,
          "velocity": 0.6299212598425197
        },
        {
          "duration": 0.625,
          "durationTicks": 1024,
          "midi": 72,
          "name": "C5",
          "ticks": 114688,
          "time": 70,
          "velocity": 0.6614173228346457
        },
        {
          "duration": 0.15625,
          "durationTicks": 256,
          "midi": 45,
          "name": "A2",
          "ticks": 114688,
          "time": 70,
          "velocity": 0.6299212598425197
        },
        {
          "duration": 0.01953125,
          "durationTicks": 32,
          "midi": 48,
          "name": "C3",
          "ticks": 114944,
          "time": 70.15625,
          "velocity": 0.6299212598425197
        },
        {
          "duration": 0.15625,
          "durationTicks": 256,
          "midi": 53,
          "name": "F3",
          "ticks": 115200,
          "time": 70.3125,
          "velocity": 0.6299212598425197
        },
        {
          "duration": 0.15625,
          "durationTicks": 256,
          "midi": 57,
          "name": "A3",
          "ticks": 115456,
          "time": 70.46875,
          "velocity": 0.6299212598425197
        },
        {
          "duration": 0.625,
          "durationTicks": 1024,
          "midi": 65,
          "name": "F4",
          "ticks": 115712,
          "time": 70.625,
          "velocity": 0.6299212598425197
        },
        {
          "duration": 0.625,
          "durationTicks": 1024,
          "midi": 69,
          "name": "A4",
          "ticks": 115712,
          "time": 70.625,
          "velocity": 0.6299212598425197
        },
        {
          "duration": 0.3125,
          "durationTicks": 512,
          "midi": 71,
          "name": "B4",
          "ticks": 115712,
          "time": 70.625,
          "velocity": 0.6614173228346457
        },
        {
          "duration": 0.15625,
          "durationTicks": 256,
          "midi": 45,
          "name": "A2",
          "ticks": 115712,
          "time": 70.625,
          "velocity": 0.6299212598425197
        },
        {
          "duration": 0.01953125,
          "durationTicks": 32,
          "midi": 48,
          "name": "C3",
          "ticks": 115968,
          "time": 70.78125,
          "velocity": 0.6299212598425197
        },
        {
          "duration": 0.3125,
          "durationTicks": 512,
          "midi": 72,
          "name": "C5",
          "ticks": 116224,
          "time": 70.9375,
          "velocity": 0.6614173228346457
        },
        {
          "duration": 0.15625,
          "durationTicks": 256,
          "midi": 53,
          "name": "F3",
          "ticks": 116224,
          "time": 70.9375,
          "velocity": 0.6299212598425197
        },
        {
          "duration": 0.15625,
          "durationTicks": 256,
          "midi": 57,
          "name": "A3",
          "ticks": 116480,
          "time": 71.09375,
          "velocity": 0.6299212598425197
        },
        {
          "duration": 0.625,
          "durationTicks": 1024,
          "midi": 66,
          "name": "F#4",
          "ticks": 116736,
          "time": 71.25,
          "velocity": 0.6299212598425197
        },
        {
          "duration": 0.625,
          "durationTicks": 1024,
          "midi": 69,
          "name": "A4",
          "ticks": 116736,
          "time": 71.25,
          "velocity": 0.6299212598425197
        },
        {
          "duration": 0.625,
          "durationTicks": 1024,
          "midi": 74,
          "name": "D5",
          "ticks": 116736,
          "time": 71.25,
          "velocity": 0.6614173228346457
        },
        {
          "duration": 0.15625,
          "durationTicks": 256,
          "midi": 45,
          "name": "A2",
          "ticks": 116736,
          "time": 71.25,
          "velocity": 0.6299212598425197
        },
        {
          "duration": 0.01953125,
          "durationTicks": 32,
          "midi": 48,
          "name": "C3",
          "ticks": 116992,
          "time": 71.40625,
          "velocity": 0.6299212598425197
        },
        {
          "duration": 0.15625,
          "durationTicks": 256,
          "midi": 54,
          "name": "F#3",
          "ticks": 117248,
          "time": 71.5625,
          "velocity": 0.6299212598425197
        },
        {
          "duration": 0.15625,
          "durationTicks": 256,
          "midi": 57,
          "name": "A3",
          "ticks": 117504,
          "time": 71.71875,
          "velocity": 0.6299212598425197
        },
        {
          "duration": 0.625,
          "durationTicks": 1024,
          "midi": 60,
          "name": "C4",
          "ticks": 117760,
          "time": 71.875,
          "velocity": 0.6299212598425197
        },
        {
          "duration": 0.625,
          "durationTicks": 1024,
          "midi": 69,
          "name": "A4",
          "ticks": 117760,
          "time": 71.875,
          "velocity": 0.6299212598425197
        },
        {
          "duration": 0.625,
          "durationTicks": 1024,
          "midi": 72,
          "name": "C5",
          "ticks": 117760,
          "time": 71.875,
          "velocity": 0.6614173228346457
        },
        {
          "duration": 0.15625,
          "durationTicks": 256,
          "midi": 45,
          "name": "A2",
          "ticks": 117760,
          "time": 71.875,
          "velocity": 0.6299212598425197
        },
        {
          "duration": 0.01953125,
          "durationTicks": 32,
          "midi": 48,
          "name": "C3",
          "ticks": 118016,
          "time": 72.03125,
          "velocity": 0.6299212598425197
        },
        {
          "duration": 0.15625,
          "durationTicks": 256,
          "midi": 54,
          "name": "F#3",
          "ticks": 118272,
          "time": 72.1875,
          "velocity": 0.6299212598425197
        },
        {
          "duration": 0.15625,
          "durationTicks": 256,
          "midi": 57,
          "name": "A3",
          "ticks": 118528,
          "time": 72.34375,
          "velocity": 0.6299212598425197
        },
        {
          "duration": 1.25,
          "durationTicks": 2048,
          "midi": 67,
          "name": "G4",
          "ticks": 118784,
          "time": 72.5,
          "velocity": 0.6299212598425197
        },
        {
          "duration": 1.25,
          "durationTicks": 2048,
          "midi": 72,
          "name": "C5",
          "ticks": 118784,
          "time": 72.5,
          "velocity": 0.6614173228346457
        },
        {
          "duration": 0.15625,
          "durationTicks": 256,
          "midi": 43,
          "name": "G2",
          "ticks": 118784,
          "time": 72.5,
          "velocity": 0.6299212598425197
        },
        {
          "duration": 0.15625,
          "durationTicks": 256,
          "midi": 47,
          "name": "B2",
          "ticks": 119040,
          "time": 72.65625,
          "velocity": 0.6299212598425197
        },
        {
          "duration": 0.01953125,
          "durationTicks": 32,
          "midi": 50,
          "name": "D3",
          "ticks": 119296,
          "time": 72.8125,
          "velocity": 0.6299212598425197
        },
        {
          "duration": 0.15625,
          "durationTicks": 256,
          "midi": 55,
          "name": "G3",
          "ticks": 119552,
          "time": 72.96875,
          "velocity": 0.6299212598425197
        },
        {
          "duration": 0.15625,
          "durationTicks": 256,
          "midi": 43,
          "name": "G2",
          "ticks": 119808,
          "time": 73.125,
          "velocity": 0.6299212598425197
        },
        {
          "duration": 0.15625,
          "durationTicks": 256,
          "midi": 47,
          "name": "B2",
          "ticks": 120064,
          "time": 73.28125,
          "velocity": 0.6299212598425197
        },
        {
          "duration": 0.01953125,
          "durationTicks": 32,
          "midi": 50,
          "name": "D3",
          "ticks": 120320,
          "time": 73.4375,
          "velocity": 0.6299212598425197
        },
        {
          "duration": 0.15625,
          "durationTicks": 256,
          "midi": 55,
          "name": "G3",
          "ticks": 120576,
          "time": 73.59375,
          "velocity": 0.6299212598425197
        },
        {
          "duration": 1.25,
          "durationTicks": 2048,
          "midi": 62,
          "name": "D4",
          "ticks": 120832,
          "time": 73.75,
          "velocity": 0.6299212598425197
        },
        {
          "duration": 1.25,
          "durationTicks": 2048,
          "midi": 71,
          "name": "B4",
          "ticks": 120832,
          "time": 73.75,
          "velocity": 0.6614173228346457
        },
        {
          "duration": 0.15625,
          "durationTicks": 256,
          "midi": 43,
          "name": "G2",
          "ticks": 120832,
          "time": 73.75,
          "velocity": 0.6299212598425197
        },
        {
          "duration": 0.15625,
          "durationTicks": 256,
          "midi": 47,
          "name": "B2",
          "ticks": 121088,
          "time": 73.90625,
          "velocity": 0.6299212598425197
        },
        {
          "duration": 0.01953125,
          "durationTicks": 32,
          "midi": 50,
          "name": "D3",
          "ticks": 121344,
          "time": 74.0625,
          "velocity": 0.6299212598425197
        },
        {
          "duration": 0.15625,
          "durationTicks": 256,
          "midi": 55,
          "name": "G3",
          "ticks": 121600,
          "time": 74.21875,
          "velocity": 0.6299212598425197
        },
        {
          "duration": 0.01953125,
          "durationTicks": 32,
          "midi": 50,
          "name": "D3",
          "ticks": 121856,
          "time": 74.375,
          "velocity": 0.6299212598425197
        },
        {
          "duration": 0.15625,
          "durationTicks": 256,
          "midi": 55,
          "name": "G3",
          "ticks": 122112,
          "time": 74.53125,
          "velocity": 0.6299212598425197
        },
        {
          "duration": 0.15625,
          "durationTicks": 256,
          "midi": 59,
          "name": "B3",
          "ticks": 122368,
          "time": 74.6875,
          "velocity": 0.6299212598425197
        },
        {
          "duration": 0.15625,
          "durationTicks": 256,
          "midi": 62,
          "name": "D4",
          "ticks": 122624,
          "time": 74.84375,
          "velocity": 0.6299212598425197
        },
        {
          "duration": 0.46875,
          "durationTicks": 768,
          "midi": 62,
          "name": "D4",
          "ticks": 122880,
          "time": 75,
          "velocity": 0.6299212598425197
        },
        {
          "duration": 0.625,
          "durationTicks": 1024,
          "midi": 69,
          "name": "A4",
          "ticks": 122880,
          "time": 75,
          "velocity": 0.6614173228346457
        },
        {
          "duration": 0.15625,
          "durationTicks": 256,
          "midi": 53,
          "name": "F3",
          "ticks": 122880,
          "time": 75,
          "velocity": 0.6299212598425197
        },
        {
          "duration": 0.15625,
          "durationTicks": 256,
          "midi": 57,
          "name": "A3",
          "ticks": 123136,
          "time": 75.15625,
          "velocity": 0.6299212598425197
        },
        {
          "duration": 0.3125,
          "durationTicks": 512,
          "midi": 62,
          "name": "D4",
          "ticks": 123392,
          "time": 75.3125,
          "velocity": 0.6299212598425197
        },
        {
          "duration": 0.15625,
          "durationTicks": 256,
          "midi": 65,
          "name": "F4",
          "ticks": 123648,
          "time": 75.46875,
          "velocity": 0.6299212598425197
        },
        {
          "duration": 0.625,
          "durationTicks": 1024,
          "midi": 65,
          "name": "F4",
          "ticks": 123904,
          "time": 75.625,
          "velocity": 0.6299212598425197
        },
        {
          "duration": 0.625,
          "durationTicks": 1024,
          "midi": 74,
          "name": "D5",
          "ticks": 123904,
          "time": 75.625,
          "velocity": 0.6614173228346457
        },
        {
          "duration": 0.15625,
          "durationTicks": 256,
          "midi": 53,
          "name": "F3",
          "ticks": 123904,
          "time": 75.625,
          "velocity": 0.6299212598425197
        },
        {
          "duration": 0.15625,
          "durationTicks": 256,
          "midi": 57,
          "name": "A3",
          "ticks": 124160,
          "time": 75.78125,
          "velocity": 0.6299212598425197
        },
        {
          "duration": 0.15625,
          "durationTicks": 256,
          "midi": 62,
          "name": "D4",
          "ticks": 124416,
          "time": 75.9375,
          "velocity": 0.6299212598425197
        },
        {
          "duration": 0.15625,
          "durationTicks": 256,
          "midi": 65,
          "name": "F4",
          "ticks": 124672,
          "time": 76.09375,
          "velocity": 0.6299212598425197
        },
        {
          "duration": 0.625,
          "durationTicks": 1024,
          "midi": 64,
          "name": "E4",
          "ticks": 124928,
          "time": 76.25,
          "velocity": 0.6299212598425197
        },
        {
          "duration": 0.625,
          "durationTicks": 1024,
          "midi": 69,
          "name": "A4",
          "ticks": 124928,
          "time": 76.25,
          "velocity": 0.6299212598425197
        },
        {
          "duration": 0.625,
          "durationTicks": 1024,
          "midi": 76,
          "name": "E5",
          "ticks": 124928,
          "time": 76.25,
          "velocity": 0.6614173228346457
        },
        {
          "duration": 0.01953125,
          "durationTicks": 32,
          "midi": 52,
          "name": "E3",
          "ticks": 124928,
          "time": 76.25,
          "velocity": 0.6299212598425197
        },
        {
          "duration": 0.15625,
          "durationTicks": 256,
          "midi": 57,
          "name": "A3",
          "ticks": 125184,
          "time": 76.40625,
          "velocity": 0.6299212598425197
        },
        {
          "duration": 0.15625,
          "durationTicks": 256,
          "midi": 62,
          "name": "D4",
          "ticks": 125440,
          "time": 76.5625,
          "velocity": 0.6299212598425197
        },
        {
          "duration": 0.15625,
          "durationTicks": 256,
          "midi": 64,
          "name": "E4",
          "ticks": 125696,
          "time": 76.71875,
          "velocity": 0.6299212598425197
        },
        {
          "duration": 0.3125,
          "durationTicks": 512,
          "midi": 57,
          "name": "A3",
          "ticks": 125952,
          "time": 76.875,
          "velocity": 0.6299212598425197
        },
        {
          "duration": 0.625,
          "durationTicks": 1024,
          "midi": 69,
          "name": "A4",
          "ticks": 125952,
          "time": 76.875,
          "velocity": 0.6614173228346457
        },
        {
          "duration": 0.01953125,
          "durationTicks": 32,
          "midi": 52,
          "name": "E3",
          "ticks": 125952,
          "time": 76.875,
          "velocity": 0.6299212598425197
        },
        {
          "duration": 0.46875,
          "durationTicks": 768,
          "midi": 57,
          "name": "A3",
          "ticks": 126208,
          "time": 77.03125,
          "velocity": 0.6299212598425197
        },
        {
          "duration": 0.15625,
          "durationTicks": 256,
          "midi": 62,
          "name": "D4",
          "ticks": 126464,
          "time": 77.1875,
          "velocity": 0.6299212598425197
        },
        {
          "duration": 0.15625,
          "durationTicks": 256,
          "midi": 64,
          "name": "E4",
          "ticks": 126720,
          "time": 77.34375,
          "velocity": 0.6299212598425197
        },
        {
          "duration": 1.25,
          "durationTicks": 2048,
          "midi": 69,
          "name": "A4",
          "ticks": 126976,
          "time": 77.5,
          "velocity": 0.6299212598425197
        },
        {
          "duration": 1.25,
          "durationTicks": 2048,
          "midi": 74,
          "name": "D5",
          "ticks": 126976,
          "time": 77.5,
          "velocity": 0.6299212598425197
        },
        {
          "duration": 1.25,
          "durationTicks": 2048,
          "midi": 79,
          "name": "G5",
          "ticks": 126976,
          "time": 77.5,
          "velocity": 0.6614173228346457
        },
        {
          "duration": 0.01953125,
          "durationTicks": 32,
          "midi": 50,
          "name": "D3",
          "ticks": 126976,
          "time": 77.5,
          "velocity": 0.6299212598425197
        },
        {
          "duration": 0.15625,
          "durationTicks": 256,
          "midi": 53,
          "name": "F3",
          "ticks": 127232,
          "time": 77.65625,
          "velocity": 0.6299212598425197
        },
        {
          "duration": 0.15625,
          "durationTicks": 256,
          "midi": 57,
          "name": "A3",
          "ticks": 127488,
          "time": 77.8125,
          "velocity": 0.6299212598425197
        },
        {
          "duration": 0.15625,
          "durationTicks": 256,
          "midi": 62,
          "name": "D4",
          "ticks": 127744,
          "time": 77.96875,
          "velocity": 0.6299212598425197
        },
        {
          "duration": 0.01953125,
          "durationTicks": 32,
          "midi": 50,
          "name": "D3",
          "ticks": 128000,
          "time": 78.125,
          "velocity": 0.6299212598425197
        },
        {
          "duration": 0.15625,
          "durationTicks": 256,
          "midi": 53,
          "name": "F3",
          "ticks": 128256,
          "time": 78.28125,
          "velocity": 0.6299212598425197
        },
        {
          "duration": 0.15625,
          "durationTicks": 256,
          "midi": 57,
          "name": "A3",
          "ticks": 128512,
          "time": 78.4375,
          "velocity": 0.6299212598425197
        },
        {
          "duration": 0.15625,
          "durationTicks": 256,
          "midi": 62,
          "name": "D4",
          "ticks": 128768,
          "time": 78.59375,
          "velocity": 0.6299212598425197
        },
        {
          "duration": 0.625,
          "durationTicks": 1024,
          "midi": 69,
          "name": "A4",
          "ticks": 129024,
          "time": 78.75,
          "velocity": 0.6299212598425197
        },
        {
          "duration": 0.625,
          "durationTicks": 1024,
          "midi": 73,
          "name": "C#5",
          "ticks": 129024,
          "time": 78.75,
          "velocity": 0.6299212598425197
        },
        {
          "duration": 0.625,
          "durationTicks": 1024,
          "midi": 77,
          "name": "F5",
          "ticks": 129024,
          "time": 78.75,
          "velocity": 0.6614173228346457
        },
        {
          "duration": 0.15625,
          "durationTicks": 256,
          "midi": 45,
          "name": "A2",
          "ticks": 129024,
          "time": 78.75,
          "velocity": 0.6299212598425197
        },
        {
          "duration": 0.01953125,
          "durationTicks": 32,
          "midi": 52,
          "name": "E3",
          "ticks": 129280,
          "time": 78.90625,
          "velocity": 0.6299212598425197
        },
        {
          "duration": 0.15625,
          "durationTicks": 256,
          "midi": 57,
          "name": "A3",
          "ticks": 129536,
          "time": 79.0625,
          "velocity": 0.6299212598425197
        },
        {
          "duration": 0.15625,
          "durationTicks": 256,
          "midi": 61,
          "name": "C#4",
          "ticks": 129792,
          "time": 79.21875,
          "velocity": 0.6299212598425197
        },
        {
          "duration": 0.625,
          "durationTicks": 1024,
          "midi": 64,
          "name": "E4",
          "ticks": 130048,
          "time": 79.375,
          "velocity": 0.6299212598425197
        },
        {
          "duration": 0.625,
          "durationTicks": 1024,
          "midi": 69,
          "name": "A4",
          "ticks": 130048,
          "time": 79.375,
          "velocity": 0.6299212598425197
        },
        {
          "duration": 0.625,
          "durationTicks": 1024,
          "midi": 76,
          "name": "E5",
          "ticks": 130048,
          "time": 79.375,
          "velocity": 0.6614173228346457
        },
        {
          "duration": 0.15625,
          "durationTicks": 256,
          "midi": 45,
          "name": "A2",
          "ticks": 130048,
          "time": 79.375,
          "velocity": 0.6299212598425197
        },
        {
          "duration": 0.01953125,
          "durationTicks": 32,
          "midi": 52,
          "name": "E3",
          "ticks": 130304,
          "time": 79.53125,
          "velocity": 0.6299212598425197
        },
        {
          "duration": 0.15625,
          "durationTicks": 256,
          "midi": 57,
          "name": "A3",
          "ticks": 130560,
          "time": 79.6875,
          "velocity": 0.6299212598425197
        },
        {
          "duration": 0.15625,
          "durationTicks": 256,
          "midi": 61,
          "name": "C#4",
          "ticks": 130816,
          "time": 79.84375,
          "velocity": 0.6299212598425197
        },
        {
          "duration": 0.625,
          "durationTicks": 1024,
          "midi": 65,
          "name": "F4",
          "ticks": 131072,
          "time": 80,
          "velocity": 0.6299212598425197
        },
        {
          "duration": 0.625,
          "durationTicks": 1024,
          "midi": 69,
          "name": "A4",
          "ticks": 131072,
          "time": 80,
          "velocity": 0.6299212598425197
        },
        {
          "duration": 0.625,
          "durationTicks": 1024,
          "midi": 74,
          "name": "D5",
          "ticks": 131072,
          "time": 80,
          "velocity": 0.6614173228346457
        },
        {
          "duration": 0.01953125,
          "durationTicks": 32,
          "midi": 50,
          "name": "D3",
          "ticks": 131072,
          "time": 80,
          "velocity": 0.6299212598425197
        },
        {
          "duration": 0.15625,
          "durationTicks": 256,
          "midi": 53,
          "name": "F3",
          "ticks": 131328,
          "time": 80.15625,
          "velocity": 0.6299212598425197
        },
        {
          "duration": 0.15625,
          "durationTicks": 256,
          "midi": 57,
          "name": "A3",
          "ticks": 131584,
          "time": 80.3125,
          "velocity": 0.6299212598425197
        },
        {
          "duration": 0.15625,
          "durationTicks": 256,
          "midi": 62,
          "name": "D4",
          "ticks": 131840,
          "time": 80.46875,
          "velocity": 0.6299212598425197
        },
        {
          "duration": 0.625,
          "durationTicks": 1024,
          "midi": 65,
          "name": "F4",
          "ticks": 132096,
          "time": 80.625,
          "velocity": 0.6299212598425197
        },
        {
          "duration": 0.625,
          "durationTicks": 1024,
          "midi": 69,
          "name": "A4",
          "ticks": 132096,
          "time": 80.625,
          "velocity": 0.6299212598425197
        },
        {
          "duration": 0.3125,
          "durationTicks": 512,
          "midi": 73,
          "name": "C#5",
          "ticks": 132096,
          "time": 80.625,
          "velocity": 0.6614173228346457
        },
        {
          "duration": 0.01953125,
          "durationTicks": 32,
          "midi": 50,
          "name": "D3",
          "ticks": 132096,
          "time": 80.625,
          "velocity": 0.6299212598425197
        },
        {
          "duration": 0.15625,
          "durationTicks": 256,
          "midi": 53,
          "name": "F3",
          "ticks": 132352,
          "time": 80.78125,
          "velocity": 0.6299212598425197
        },
        {
          "duration": 0.3125,
          "durationTicks": 512,
          "midi": 76,
          "name": "E5",
          "ticks": 132608,
          "time": 80.9375,
          "velocity": 0.6614173228346457
        },
        {
          "duration": 0.15625,
          "durationTicks": 256,
          "midi": 57,
          "name": "A3",
          "ticks": 132608,
          "time": 80.9375,
          "velocity": 0.6299212598425197
        },
        {
          "duration": 0.15625,
          "durationTicks": 256,
          "midi": 62,
          "name": "D4",
          "ticks": 132864,
          "time": 81.09375,
          "velocity": 0.6299212598425197
        },
        {
          "duration": 0.625,
          "durationTicks": 1024,
          "midi": 66,
          "name": "F#4",
          "ticks": 133120,
          "time": 81.25,
          "velocity": 0.6299212598425197
        },
        {
          "duration": 0.625,
          "durationTicks": 1024,
          "midi": 69,
          "name": "A4",
          "ticks": 133120,
          "time": 81.25,
          "velocity": 0.6299212598425197
        },
        {
          "duration": 0.625,
          "durationTicks": 1024,
          "midi": 74,
          "name": "D5",
          "ticks": 133120,
          "time": 81.25,
          "velocity": 0.6614173228346457
        },
        {
          "duration": 0.15625,
          "durationTicks": 256,
          "midi": 45,
          "name": "A2",
          "ticks": 133120,
          "time": 81.25,
          "velocity": 0.6299212598425197
        },
        {
          "duration": 0.01953125,
          "durationTicks": 32,
          "midi": 50,
          "name": "D3",
          "ticks": 133376,
          "time": 81.40625,
          "velocity": 0.6299212598425197
        },
        {
          "duration": 0.15625,
          "durationTicks": 256,
          "midi": 54,
          "name": "F#3",
          "ticks": 133632,
          "time": 81.5625,
          "velocity": 0.6299212598425197
        },
        {
          "duration": 0.15625,
          "durationTicks": 256,
          "midi": 57,
          "name": "A3",
          "ticks": 133888,
          "time": 81.71875,
          "velocity": 0.6299212598425197
        },
        {
          "duration": 0.625,
          "durationTicks": 1024,
          "midi": 62,
          "name": "D4",
          "ticks": 134144,
          "time": 81.875,
          "velocity": 0.6299212598425197
        },
        {
          "duration": 0.625,
          "durationTicks": 1024,
          "midi": 66,
          "name": "F#4",
          "ticks": 134144,
          "time": 81.875,
          "velocity": 0.6299212598425197
        },
        {
          "duration": 0.625,
          "durationTicks": 1024,
          "midi": 69,
          "name": "A4",
          "ticks": 134144,
          "time": 81.875,
          "velocity": 0.6614173228346457
        },
        {
          "duration": 0.15625,
          "durationTicks": 256,
          "midi": 45,
          "name": "A2",
          "ticks": 134144,
          "time": 81.875,
          "velocity": 0.6299212598425197
        },
        {
          "duration": 0.01953125,
          "durationTicks": 32,
          "midi": 50,
          "name": "D3",
          "ticks": 134400,
          "time": 82.03125,
          "velocity": 0.6299212598425197
        },
        {
          "duration": 0.15625,
          "durationTicks": 256,
          "midi": 54,
          "name": "F#3",
          "ticks": 134656,
          "time": 82.1875,
          "velocity": 0.6299212598425197
        },
        {
          "duration": 0.15625,
          "durationTicks": 256,
          "midi": 57,
          "name": "A3",
          "ticks": 134912,
          "time": 82.34375,
          "velocity": 0.6299212598425197
        },
        {
          "duration": 1.25,
          "durationTicks": 2048,
          "midi": 67,
          "name": "G4",
          "ticks": 135168,
          "time": 82.5,
          "velocity": 0.6299212598425197
        },
        {
          "duration": 1.25,
          "durationTicks": 2048,
          "midi": 76,
          "name": "E5",
          "ticks": 135168,
          "time": 82.5,
          "velocity": 0.6614173228346457
        },
        {
          "duration": 0.15625,
          "durationTicks": 256,
          "midi": 43,
          "name": "G2",
          "ticks": 135168,
          "time": 82.5,
          "velocity": 0.6299212598425197
        },
        {
          "duration": 0.15625,
          "durationTicks": 256,
          "midi": 47,
          "name": "B2",
          "ticks": 135424,
          "time": 82.65625,
          "velocity": 0.6299212598425197
        },
        {
          "duration": 0.01953125,
          "durationTicks": 32,
          "midi": 50,
          "name": "D3",
          "ticks": 135680,
          "time": 82.8125,
          "velocity": 0.6299212598425197
        },
        {
          "duration": 0.15625,
          "durationTicks": 256,
          "midi": 55,
          "name": "G3",
          "ticks": 135936,
          "time": 82.96875,
          "velocity": 0.6299212598425197
        },
        {
          "duration": 0.15625,
          "durationTicks": 256,
          "midi": 43,
          "name": "G2",
          "ticks": 136192,
          "time": 83.125,
          "velocity": 0.6299212598425197
        },
        {
          "duration": 0.15625,
          "durationTicks": 256,
          "midi": 47,
          "name": "B2",
          "ticks": 136448,
          "time": 83.28125,
          "velocity": 0.6299212598425197
        },
        {
          "duration": 0.01953125,
          "durationTicks": 32,
          "midi": 50,
          "name": "D3",
          "ticks": 136704,
          "time": 83.4375,
          "velocity": 0.6299212598425197
        },
        {
          "duration": 0.15625,
          "durationTicks": 256,
          "midi": 55,
          "name": "G3",
          "ticks": 136960,
          "time": 83.59375,
          "velocity": 0.6299212598425197
        },
        {
          "duration": 1.25,
          "durationTicks": 2048,
          "midi": 67,
          "name": "G4",
          "ticks": 137216,
          "time": 83.75,
          "velocity": 0.6299212598425197
        },
        {
          "duration": 1.25,
          "durationTicks": 2048,
          "midi": 74,
          "name": "D5",
          "ticks": 137216,
          "time": 83.75,
          "velocity": 0.6614173228346457
        },
        {
          "duration": 0.15625,
          "durationTicks": 256,
          "midi": 47,
          "name": "B2",
          "ticks": 137216,
          "time": 83.75,
          "velocity": 0.6299212598425197
        },
        {
          "duration": 0.01953125,
          "durationTicks": 32,
          "midi": 50,
          "name": "D3",
          "ticks": 137472,
          "time": 83.90625,
          "velocity": 0.6299212598425197
        },
        {
          "duration": 0.15625,
          "durationTicks": 256,
          "midi": 55,
          "name": "G3",
          "ticks": 137728,
          "time": 84.0625,
          "velocity": 0.6299212598425197
        },
        {
          "duration": 0.15625,
          "durationTicks": 256,
          "midi": 59,
          "name": "B3",
          "ticks": 137984,
          "time": 84.21875,
          "velocity": 0.6299212598425197
        },
        {
          "duration": 0.01953125,
          "durationTicks": 32,
          "midi": 50,
          "name": "D3",
          "ticks": 138240,
          "time": 84.375,
          "velocity": 0.6299212598425197
        },
        {
          "duration": 0.15625,
          "durationTicks": 256,
          "midi": 55,
          "name": "G3",
          "ticks": 138496,
          "time": 84.53125,
          "velocity": 0.6299212598425197
        },
        {
          "duration": 0.15625,
          "durationTicks": 256,
          "midi": 59,
          "name": "B3",
          "ticks": 138752,
          "time": 84.6875,
          "velocity": 0.6299212598425197
        },
        {
          "duration": 0.15625,
          "durationTicks": 256,
          "midi": 62,
          "name": "D4",
          "ticks": 139008,
          "time": 84.84375,
          "velocity": 0.6299212598425197
        },
        {
          "duration": 0.625,
          "durationTicks": 1024,
          "midi": 67,
          "name": "G4",
          "ticks": 139264,
          "time": 85,
          "velocity": 0.6929133858267716
        },
        {
          "duration": 0.625,
          "durationTicks": 1024,
          "midi": 79,
          "name": "G5",
          "ticks": 139264,
          "time": 85,
          "velocity": 0.7244094488188977
        },
        {
          "duration": 0.15625,
          "durationTicks": 256,
          "midi": 48,
          "name": "C3",
          "ticks": 139264,
          "time": 85,
          "velocity": 0.6929133858267716
        },
        {
          "duration": 0.01953125,
          "durationTicks": 32,
          "midi": 52,
          "name": "E3",
          "ticks": 139520,
          "time": 85.15625,
          "velocity": 0.6929133858267716
        },
        {
          "duration": 0.15625,
          "durationTicks": 256,
          "midi": 55,
          "name": "G3",
          "ticks": 139776,
          "time": 85.3125,
          "velocity": 0.6929133858267716
        },
        {
          "duration": 0.15625,
          "durationTicks": 256,
          "midi": 60,
          "name": "C4",
          "ticks": 140032,
          "time": 85.46875,
          "velocity": 0.6929133858267716
        },
        {
          "duration": 0.625,
          "durationTicks": 1024,
          "midi": 72,
          "name": "C5",
          "ticks": 140288,
          "time": 85.625,
          "velocity": 0.6929133858267716
        },
        {
          "duration": 0.625,
          "durationTicks": 1024,
          "midi": 84,
          "name": "C6",
          "ticks": 140288,
          "time": 85.625,
          "velocity": 0.7244094488188977
        },
        {
          "duration": 0.15625,
          "durationTicks": 256,
          "midi": 48,
          "name": "C3",
          "ticks": 140288,
          "time": 85.625,
          "velocity": 0.6929133858267716
        },
        {
          "duration": 0.01953125,
          "durationTicks": 32,
          "midi": 52,
          "name": "E3",
          "ticks": 140544,
          "time": 85.78125,
          "velocity": 0.6929133858267716
        },
        {
          "duration": 0.15625,
          "durationTicks": 256,
          "midi": 55,
          "name": "G3",
          "ticks": 140800,
          "time": 85.9375,
          "velocity": 0.6929133858267716
        },
        {
          "duration": 0.15625,
          "durationTicks": 256,
          "midi": 60,
          "name": "C4",
          "ticks": 141056,
          "time": 86.09375,
          "velocity": 0.6929133858267716
        },
        {
          "duration": 0.625,
          "durationTicks": 1024,
          "midi": 74,
          "name": "D5",
          "ticks": 141312,
          "time": 86.25,
          "velocity": 0.6929133858267716
        },
        {
          "duration": 0.625,
          "durationTicks": 1024,
          "midi": 86,
          "name": "D6",
          "ticks": 141312,
          "time": 86.25,
          "velocity": 0.7244094488188977
        },
        {
          "duration": 0.15625,
          "durationTicks": 256,
          "midi": 47,
          "name": "B2",
          "ticks": 141312,
          "time": 86.25,
          "velocity": 0.6929133858267716
        },
        {
          "duration": 0.01953125,
          "durationTicks": 32,
          "midi": 50,
          "name": "D3",
          "ticks": 141568,
          "time": 86.40625,
          "velocity": 0.6929133858267716
        },
        {
          "duration": 0.15625,
          "durationTicks": 256,
          "midi": 55,
          "name": "G3",
          "ticks": 141824,
          "time": 86.5625,
          "velocity": 0.6929133858267716
        },
        {
          "duration": 0.15625,
          "durationTicks": 256,
          "midi": 59,
          "name": "B3",
          "ticks": 142080,
          "time": 86.71875,
          "velocity": 0.6929133858267716
        },
        {
          "duration": 0.625,
          "durationTicks": 1024,
          "midi": 67,
          "name": "G4",
          "ticks": 142336,
          "time": 86.875,
          "velocity": 0.6929133858267716
        },
        {
          "duration": 0.625,
          "durationTicks": 1024,
          "midi": 79,
          "name": "G5",
          "ticks": 142336,
          "time": 86.875,
          "velocity": 0.7244094488188977
        },
        {
          "duration": 0.15625,
          "durationTicks": 256,
          "midi": 47,
          "name": "B2",
          "ticks": 142336,
          "time": 86.875,
          "velocity": 0.6929133858267716
        },
        {
          "duration": 0.01953125,
          "durationTicks": 32,
          "midi": 50,
          "name": "D3",
          "ticks": 142592,
          "time": 87.03125,
          "velocity": 0.6929133858267716
        },
        {
          "duration": 0.15625,
          "durationTicks": 256,
          "midi": 55,
          "name": "G3",
          "ticks": 142848,
          "time": 87.1875,
          "velocity": 0.6929133858267716
        },
        {
          "duration": 0.15625,
          "durationTicks": 256,
          "midi": 59,
          "name": "B3",
          "ticks": 143104,
          "time": 87.34375,
          "velocity": 0.6929133858267716
        },
        {
          "duration": 0.99609375,
          "durationTicks": 1632,
          "midi": 77,
          "name": "F5",
          "ticks": 143360,
          "time": 87.5,
          "velocity": 0.6929133858267716
        },
        {
          "duration": 0.99609375,
          "durationTicks": 1632,
          "midi": 89,
          "name": "F6",
          "ticks": 143360,
          "time": 87.5,
          "velocity": 0.7244094488188977
        },
        {
          "duration": 0.15625,
          "durationTicks": 256,
          "midi": 45,
          "name": "A2",
          "ticks": 143360,
          "time": 87.5,
          "velocity": 0.6929133858267716
        },
        {
          "duration": 0.01953125,
          "durationTicks": 32,
          "midi": 48,
          "name": "C3",
          "ticks": 143616,
          "time": 87.65625,
          "velocity": 0.6929133858267716
        },
        {
          "duration": 0.15625,
          "durationTicks": 256,
          "midi": 53,
          "name": "F3",
          "ticks": 143872,
          "time": 87.8125,
          "velocity": 0.6929133858267716
        },
        {
          "duration": 0.15625,
          "durationTicks": 256,
          "midi": 57,
          "name": "A3",
          "ticks": 144128,
          "time": 87.96875,
          "velocity": 0.6929133858267716
        },
        {
          "duration": 0.15625,
          "durationTicks": 256,
          "midi": 45,
          "name": "A2",
          "ticks": 144384,
          "time": 88.125,
          "velocity": 0.6929133858267716
        },
        {
          "duration": 0.01953125,
          "durationTicks": 32,
          "midi": 48,
          "name": "C3",
          "ticks": 144640,
          "time": 88.28125,
          "velocity": 0.6929133858267716
        },
        {
          "duration": 0.15625,
          "durationTicks": 256,
          "midi": 53,
          "name": "F3",
          "ticks": 144896,
          "time": 88.4375,
          "velocity": 0.6929133858267716
        },
        {
          "duration": 0.15625,
          "durationTicks": 256,
          "midi": 57,
          "name": "A3",
          "ticks": 145152,
          "time": 88.59375,
          "velocity": 0.6929133858267716
        },
        {
          "duration": 0.494384765625,
          "durationTicks": 810,
          "midi": 76,
          "name": "E5",
          "ticks": 145408,
          "time": 88.75,
          "velocity": 0.6929133858267716
        },
        {
          "duration": 0.494384765625,
          "durationTicks": 810,
          "midi": 88,
          "name": "E6",
          "ticks": 145408,
          "time": 88.75,
          "velocity": 0.7244094488188977
        },
        {
          "duration": 0.15625,
          "durationTicks": 256,
          "midi": 43,
          "name": "G2",
          "ticks": 145408,
          "time": 88.75,
          "velocity": 0.6929133858267716
        },
        {
          "duration": 0.15625,
          "durationTicks": 256,
          "midi": 47,
          "name": "B2",
          "ticks": 145664,
          "time": 88.90625,
          "velocity": 0.6929133858267716
        },
        {
          "duration": 0.01953125,
          "durationTicks": 32,
          "midi": 50,
          "name": "D3",
          "ticks": 145920,
          "time": 89.0625,
          "velocity": 0.6929133858267716
        },
        {
          "duration": 0.15625,
          "durationTicks": 256,
          "midi": 55,
          "name": "G3",
          "ticks": 146176,
          "time": 89.21875,
          "velocity": 0.6929133858267716
        },
        {
          "duration": 0.494384765625,
          "durationTicks": 810,
          "midi": 74,
          "name": "D5",
          "ticks": 146432,
          "time": 89.375,
          "velocity": 0.6929133858267716
        },
        {
          "duration": 0.494384765625,
          "durationTicks": 810,
          "midi": 86,
          "name": "D6",
          "ticks": 146432,
          "time": 89.375,
          "velocity": 0.7244094488188977
        },
        {
          "duration": 0.15625,
          "durationTicks": 256,
          "midi": 43,
          "name": "G2",
          "ticks": 146432,
          "time": 89.375,
          "velocity": 0.6929133858267716
        },
        {
          "duration": 0.15625,
          "durationTicks": 256,
          "midi": 47,
          "name": "B2",
          "ticks": 146688,
          "time": 89.53125,
          "velocity": 0.6929133858267716
        },
        {
          "duration": 0.01953125,
          "durationTicks": 32,
          "midi": 50,
          "name": "D3",
          "ticks": 146944,
          "time": 89.6875,
          "velocity": 0.6929133858267716
        },
        {
          "duration": 0.15625,
          "durationTicks": 256,
          "midi": 55,
          "name": "G3",
          "ticks": 147200,
          "time": 89.84375,
          "velocity": 0.6929133858267716
        },
        {
          "duration": 0.625,
          "durationTicks": 1024,
          "midi": 72,
          "name": "C5",
          "ticks": 147456,
          "time": 90,
          "velocity": 0.6929133858267716
        },
        {
          "duration": 0.625,
          "durationTicks": 1024,
          "midi": 81,
          "name": "A5",
          "ticks": 147456,
          "time": 90,
          "velocity": 0.5039370078740157
        },
        {
          "duration": 0.625,
          "durationTicks": 1024,
          "midi": 84,
          "name": "C6",
          "ticks": 147456,
          "time": 90,
          "velocity": 0.7244094488188977
        },
        {
          "duration": 0.15625,
          "durationTicks": 256,
          "midi": 45,
          "name": "A2",
          "ticks": 147456,
          "time": 90,
          "velocity": 0.6929133858267716
        },
        {
          "duration": 0.01953125,
          "durationTicks": 32,
          "midi": 48,
          "name": "C3",
          "ticks": 147712,
          "time": 90.15625,
          "velocity": 0.6929133858267716
        },
        {
          "duration": 0.15625,
          "durationTicks": 256,
          "midi": 53,
          "name": "F3",
          "ticks": 147968,
          "time": 90.3125,
          "velocity": 0.6929133858267716
        },
        {
          "duration": 0.15625,
          "durationTicks": 256,
          "midi": 57,
          "name": "A3",
          "ticks": 148224,
          "time": 90.46875,
          "velocity": 0.6929133858267716
        },
        {
          "duration": 0.3125,
          "durationTicks": 512,
          "midi": 71,
          "name": "B4",
          "ticks": 148480,
          "time": 90.625,
          "velocity": 0.6929133858267716
        },
        {
          "duration": 0.3125,
          "durationTicks": 512,
          "midi": 81,
          "name": "A5",
          "ticks": 148480,
          "time": 90.625,
          "velocity": 0.5039370078740157
        },
        {
          "duration": 0.3125,
          "durationTicks": 512,
          "midi": 83,
          "name": "B5",
          "ticks": 148480,
          "time": 90.625,
          "velocity": 0.7244094488188977
        },
        {
          "duration": 0.15625,
          "durationTicks": 256,
          "midi": 45,
          "name": "A2",
          "ticks": 148480,
          "time": 90.625,
          "velocity": 0.6929133858267716
        },
        {
          "duration": 0.01953125,
          "durationTicks": 32,
          "midi": 48,
          "name": "C3",
          "ticks": 148736,
          "time": 90.78125,
          "velocity": 0.6929133858267716
        },
        {
          "duration": 0.3125,
          "durationTicks": 512,
          "midi": 72,
          "name": "C5",
          "ticks": 148992,
          "time": 90.9375,
          "velocity": 0.6929133858267716
        },
        {
          "duration": 0.3125,
          "durationTicks": 512,
          "midi": 84,
          "name": "C6",
          "ticks": 148992,
          "time": 90.9375,
          "velocity": 0.7244094488188977
        },
        {
          "duration": 0.15625,
          "durationTicks": 256,
          "midi": 53,
          "name": "F3",
          "ticks": 148992,
          "time": 90.9375,
          "velocity": 0.6929133858267716
        },
        {
          "duration": 0.15625,
          "durationTicks": 256,
          "midi": 57,
          "name": "A3",
          "ticks": 149248,
          "time": 91.09375,
          "velocity": 0.6929133858267716
        },
        {
          "duration": 0.625,
          "durationTicks": 1024,
          "midi": 74,
          "name": "D5",
          "ticks": 149504,
          "time": 91.25,
          "velocity": 0.6929133858267716
        },
        {
          "duration": 0.625,
          "durationTicks": 1024,
          "midi": 81,
          "name": "A5",
          "ticks": 149504,
          "time": 91.25,
          "velocity": 0.5039370078740157
        },
        {
          "duration": 0.625,
          "durationTicks": 1024,
          "midi": 86,
          "name": "D6",
          "ticks": 149504,
          "time": 91.25,
          "velocity": 0.7244094488188977
        },
        {
          "duration": 0.15625,
          "durationTicks": 256,
          "midi": 45,
          "name": "A2",
          "ticks": 149504,
          "time": 91.25,
          "velocity": 0.6929133858267716
        },
        {
          "duration": 0.01953125,
          "durationTicks": 32,
          "midi": 48,
          "name": "C3",
          "ticks": 149760,
          "time": 91.40625,
          "velocity": 0.6929133858267716
        },
        {
          "duration": 0.15625,
          "durationTicks": 256,
          "midi": 54,
          "name": "F#3",
          "ticks": 150016,
          "time": 91.5625,
          "velocity": 0.6929133858267716
        },
        {
          "duration": 0.15625,
          "durationTicks": 256,
          "midi": 57,
          "name": "A3",
          "ticks": 150272,
          "time": 91.71875,
          "velocity": 0.6929133858267716
        },
        {
          "duration": 0.625,
          "durationTicks": 1024,
          "midi": 72,
          "name": "C5",
          "ticks": 150528,
          "time": 91.875,
          "velocity": 0.6929133858267716
        },
        {
          "duration": 0.625,
          "durationTicks": 1024,
          "midi": 81,
          "name": "A5",
          "ticks": 150528,
          "time": 91.875,
          "velocity": 0.5039370078740157
        },
        {
          "duration": 0.625,
          "durationTicks": 1024,
          "midi": 84,
          "name": "C6",
          "ticks": 150528,
          "time": 91.875,
          "velocity": 0.7244094488188977
        },
        {
          "duration": 0.15625,
          "durationTicks": 256,
          "midi": 45,
          "name": "A2",
          "ticks": 150528,
          "time": 91.875,
          "velocity": 0.6929133858267716
        },
        {
          "duration": 0.01953125,
          "durationTicks": 32,
          "midi": 48,
          "name": "C3",
          "ticks": 150784,
          "time": 92.03125,
          "velocity": 0.6929133858267716
        },
        {
          "duration": 0.15625,
          "durationTicks": 256,
          "midi": 54,
          "name": "F#3",
          "ticks": 151040,
          "time": 92.1875,
          "velocity": 0.6929133858267716
        },
        {
          "duration": 0.15625,
          "durationTicks": 256,
          "midi": 57,
          "name": "A3",
          "ticks": 151296,
          "time": 92.34375,
          "velocity": 0.6929133858267716
        },
        {
          "duration": 1.25,
          "durationTicks": 2048,
          "midi": 72,
          "name": "C5",
          "ticks": 151552,
          "time": 92.5,
          "velocity": 0.6929133858267716
        },
        {
          "duration": 1.25,
          "durationTicks": 2048,
          "midi": 79,
          "name": "G5",
          "ticks": 151552,
          "time": 92.5,
          "velocity": 0.5039370078740157
        },
        {
          "duration": 1.25,
          "durationTicks": 2048,
          "midi": 84,
          "name": "C6",
          "ticks": 151552,
          "time": 92.5,
          "velocity": 0.7244094488188977
        },
        {
          "duration": 0.15625,
          "durationTicks": 256,
          "midi": 43,
          "name": "G2",
          "ticks": 151552,
          "time": 92.5,
          "velocity": 0.6929133858267716
        },
        {
          "duration": 0.15625,
          "durationTicks": 256,
          "midi": 47,
          "name": "B2",
          "ticks": 151808,
          "time": 92.65625,
          "velocity": 0.6929133858267716
        },
        {
          "duration": 0.01953125,
          "durationTicks": 32,
          "midi": 50,
          "name": "D3",
          "ticks": 152064,
          "time": 92.8125,
          "velocity": 0.6929133858267716
        },
        {
          "duration": 0.15625,
          "durationTicks": 256,
          "midi": 55,
          "name": "G3",
          "ticks": 152320,
          "time": 92.96875,
          "velocity": 0.6929133858267716
        },
        {
          "duration": 0.15625,
          "durationTicks": 256,
          "midi": 43,
          "name": "G2",
          "ticks": 152576,
          "time": 93.125,
          "velocity": 0.6929133858267716
        },
        {
          "duration": 0.15625,
          "durationTicks": 256,
          "midi": 47,
          "name": "B2",
          "ticks": 152832,
          "time": 93.28125,
          "velocity": 0.6929133858267716
        },
        {
          "duration": 0.01953125,
          "durationTicks": 32,
          "midi": 50,
          "name": "D3",
          "ticks": 153088,
          "time": 93.4375,
          "velocity": 0.6929133858267716
        },
        {
          "duration": 0.15625,
          "durationTicks": 256,
          "midi": 55,
          "name": "G3",
          "ticks": 153344,
          "time": 93.59375,
          "velocity": 0.6929133858267716
        },
        {
          "duration": 1.25,
          "durationTicks": 2048,
          "midi": 71,
          "name": "B4",
          "ticks": 153600,
          "time": 93.75,
          "velocity": 0.6929133858267716
        },
        {
          "duration": 1.25,
          "durationTicks": 2048,
          "midi": 74,
          "name": "D5",
          "ticks": 153600,
          "time": 93.75,
          "velocity": 0.5039370078740157
        },
        {
          "duration": 1.25,
          "durationTicks": 2048,
          "midi": 83,
          "name": "B5",
          "ticks": 153600,
          "time": 93.75,
          "velocity": 0.7244094488188977
        },
        {
          "duration": 0.15625,
          "durationTicks": 256,
          "midi": 43,
          "name": "G2",
          "ticks": 153600,
          "time": 93.75,
          "velocity": 0.6929133858267716
        },
        {
          "duration": 0.15625,
          "durationTicks": 256,
          "midi": 47,
          "name": "B2",
          "ticks": 153856,
          "time": 93.90625,
          "velocity": 0.6929133858267716
        },
        {
          "duration": 0.01953125,
          "durationTicks": 32,
          "midi": 50,
          "name": "D3",
          "ticks": 154112,
          "time": 94.0625,
          "velocity": 0.6929133858267716
        },
        {
          "duration": 0.15625,
          "durationTicks": 256,
          "midi": 55,
          "name": "G3",
          "ticks": 154368,
          "time": 94.21875,
          "velocity": 0.6929133858267716
        },
        {
          "duration": 0.01953125,
          "durationTicks": 32,
          "midi": 50,
          "name": "D3",
          "ticks": 154624,
          "time": 94.375,
          "velocity": 0.6929133858267716
        },
        {
          "duration": 0.15625,
          "durationTicks": 256,
          "midi": 55,
          "name": "G3",
          "ticks": 154880,
          "time": 94.53125,
          "velocity": 0.6929133858267716
        },
        {
          "duration": 0.15625,
          "durationTicks": 256,
          "midi": 59,
          "name": "B3",
          "ticks": 155136,
          "time": 94.6875,
          "velocity": 0.6929133858267716
        },
        {
          "duration": 0.15625,
          "durationTicks": 256,
          "midi": 62,
          "name": "D4",
          "ticks": 155392,
          "time": 94.84375,
          "velocity": 0.6929133858267716
        },
        {
          "duration": 0.625,
          "durationTicks": 1024,
          "midi": 69,
          "name": "A4",
          "ticks": 155648,
          "time": 95,
          "velocity": 0.6929133858267716
        },
        {
          "duration": 0.625,
          "durationTicks": 1024,
          "midi": 74,
          "name": "D5",
          "ticks": 155648,
          "time": 95,
          "velocity": 0.5039370078740157
        },
        {
          "duration": 0.625,
          "durationTicks": 1024,
          "midi": 81,
          "name": "A5",
          "ticks": 155648,
          "time": 95,
          "velocity": 0.7244094488188977
        },
        {
          "duration": 0.15625,
          "durationTicks": 256,
          "midi": 53,
          "name": "F3",
          "ticks": 155648,
          "time": 95,
          "velocity": 0.6929133858267716
        },
        {
          "duration": 0.15625,
          "durationTicks": 256,
          "midi": 57,
          "name": "A3",
          "ticks": 155904,
          "time": 95.15625,
          "velocity": 0.6929133858267716
        },
        {
          "duration": 0.15625,
          "durationTicks": 256,
          "midi": 62,
          "name": "D4",
          "ticks": 156160,
          "time": 95.3125,
          "velocity": 0.6929133858267716
        },
        {
          "duration": 0.15625,
          "durationTicks": 256,
          "midi": 65,
          "name": "F4",
          "ticks": 156416,
          "time": 95.46875,
          "velocity": 0.6929133858267716
        },
        {
          "duration": 0.625,
          "durationTicks": 1024,
          "midi": 74,
          "name": "D5",
          "ticks": 156672,
          "time": 95.625,
          "velocity": 0.6929133858267716
        },
        {
          "duration": 0.625,
          "durationTicks": 1024,
          "midi": 77,
          "name": "F5",
          "ticks": 156672,
          "time": 95.625,
          "velocity": 0.5039370078740157
        },
        {
          "duration": 0.625,
          "durationTicks": 1024,
          "midi": 86,
          "name": "D6",
          "ticks": 156672,
          "time": 95.625,
          "velocity": 0.7244094488188977
        },
        {
          "duration": 0.15625,
          "durationTicks": 256,
          "midi": 53,
          "name": "F3",
          "ticks": 156672,
          "time": 95.625,
          "velocity": 0.6929133858267716
        },
        {
          "duration": 0.15625,
          "durationTicks": 256,
          "midi": 57,
          "name": "A3",
          "ticks": 156928,
          "time": 95.78125,
          "velocity": 0.6929133858267716
        },
        {
          "duration": 0.15625,
          "durationTicks": 256,
          "midi": 62,
          "name": "D4",
          "ticks": 157184,
          "time": 95.9375,
          "velocity": 0.6929133858267716
        },
        {
          "duration": 0.15625,
          "durationTicks": 256,
          "midi": 65,
          "name": "F4",
          "ticks": 157440,
          "time": 96.09375,
          "velocity": 0.6929133858267716
        },
        {
          "duration": 0.625,
          "durationTicks": 1024,
          "midi": 76,
          "name": "E5",
          "ticks": 157696,
          "time": 96.25,
          "velocity": 0.7244094488188977
        },
        {
          "duration": 0.625,
          "durationTicks": 1024,
          "midi": 81,
          "name": "A5",
          "ticks": 157696,
          "time": 96.25,
          "velocity": 0.5039370078740157
        },
        {
          "duration": 0.625,
          "durationTicks": 1024,
          "midi": 88,
          "name": "E6",
          "ticks": 157696,
          "time": 96.25,
          "velocity": 0.7244094488188977
        },
        {
          "duration": 0.01953125,
          "durationTicks": 32,
          "midi": 52,
          "name": "E3",
          "ticks": 157696,
          "time": 96.25,
          "velocity": 0.6929133858267716
        },
        {
          "duration": 0.15625,
          "durationTicks": 256,
          "midi": 57,
          "name": "A3",
          "ticks": 157952,
          "time": 96.40625,
          "velocity": 0.6929133858267716
        },
        {
          "duration": 0.15625,
          "durationTicks": 256,
          "midi": 62,
          "name": "D4",
          "ticks": 158208,
          "time": 96.5625,
          "velocity": 0.6929133858267716
        },
        {
          "duration": 0.15625,
          "durationTicks": 256,
          "midi": 64,
          "name": "E4",
          "ticks": 158464,
          "time": 96.71875,
          "velocity": 0.6929133858267716
        },
        {
          "duration": 0.625,
          "durationTicks": 1024,
          "midi": 69,
          "name": "A4",
          "ticks": 158720,
          "time": 96.875,
          "velocity": 0.6929133858267716
        },
        {
          "duration": 0.625,
          "durationTicks": 1024,
          "midi": 81,
          "name": "A5",
          "ticks": 158720,
          "time": 96.875,
          "velocity": 0.7244094488188977
        },
        {
          "duration": 0.01953125,
          "durationTicks": 32,
          "midi": 52,
          "name": "E3",
          "ticks": 158720,
          "time": 96.875,
          "velocity": 0.6929133858267716
        },
        {
          "duration": 0.15625,
          "durationTicks": 256,
          "midi": 57,
          "name": "A3",
          "ticks": 158976,
          "time": 97.03125,
          "velocity": 0.6929133858267716
        },
        {
          "duration": 0.15625,
          "durationTicks": 256,
          "midi": 62,
          "name": "D4",
          "ticks": 159232,
          "time": 97.1875,
          "velocity": 0.6929133858267716
        },
        {
          "duration": 0.15625,
          "durationTicks": 256,
          "midi": 64,
          "name": "E4",
          "ticks": 159488,
          "time": 97.34375,
          "velocity": 0.6929133858267716
        },
        {
          "duration": 1.25,
          "durationTicks": 2048,
          "midi": 79,
          "name": "G5",
          "ticks": 159744,
          "time": 97.5,
          "velocity": 0.6929133858267716
        },
        {
          "duration": 1.25,
          "durationTicks": 2048,
          "midi": 86,
          "name": "D6",
          "ticks": 159744,
          "time": 97.5,
          "velocity": 0.5039370078740157
        },
        {
          "duration": 1.25,
          "durationTicks": 2048,
          "midi": 91,
          "name": "G6",
          "ticks": 159744,
          "time": 97.5,
          "velocity": 0.7244094488188977
        },
        {
          "duration": 0.01953125,
          "durationTicks": 32,
          "midi": 50,
          "name": "D3",
          "ticks": 159744,
          "time": 97.5,
          "velocity": 0.6929133858267716
        },
        {
          "duration": 0.15625,
          "durationTicks": 256,
          "midi": 53,
          "name": "F3",
          "ticks": 160000,
          "time": 97.65625,
          "velocity": 0.6929133858267716
        },
        {
          "duration": 0.15625,
          "durationTicks": 256,
          "midi": 57,
          "name": "A3",
          "ticks": 160256,
          "time": 97.8125,
          "velocity": 0.6929133858267716
        },
        {
          "duration": 0.15625,
          "durationTicks": 256,
          "midi": 62,
          "name": "D4",
          "ticks": 160512,
          "time": 97.96875,
          "velocity": 0.6929133858267716
        },
        {
          "duration": 0.01953125,
          "durationTicks": 32,
          "midi": 50,
          "name": "D3",
          "ticks": 160768,
          "time": 98.125,
          "velocity": 0.6929133858267716
        },
        {
          "duration": 0.15625,
          "durationTicks": 256,
          "midi": 53,
          "name": "F3",
          "ticks": 161024,
          "time": 98.28125,
          "velocity": 0.6929133858267716
        },
        {
          "duration": 0.15625,
          "durationTicks": 256,
          "midi": 57,
          "name": "A3",
          "ticks": 161280,
          "time": 98.4375,
          "velocity": 0.6929133858267716
        },
        {
          "duration": 0.15625,
          "durationTicks": 256,
          "midi": 62,
          "name": "D4",
          "ticks": 161536,
          "time": 98.59375,
          "velocity": 0.6929133858267716
        },
        {
          "duration": 0.625,
          "durationTicks": 1024,
          "midi": 77,
          "name": "F5",
          "ticks": 161792,
          "time": 98.75,
          "velocity": 0.6929133858267716
        },
        {
          "duration": 0.625,
          "durationTicks": 1024,
          "midi": 85,
          "name": "C#6",
          "ticks": 161792,
          "time": 98.75,
          "velocity": 0.5039370078740157
        },
        {
          "duration": 0.625,
          "durationTicks": 1024,
          "midi": 89,
          "name": "F6",
          "ticks": 161792,
          "time": 98.75,
          "velocity": 0.7244094488188977
        },
        {
          "duration": 0.15625,
          "durationTicks": 256,
          "midi": 45,
          "name": "A2",
          "ticks": 161792,
          "time": 98.75,
          "velocity": 0.6929133858267716
        },
        {
          "duration": 0.01953125,
          "durationTicks": 32,
          "midi": 52,
          "name": "E3",
          "ticks": 162048,
          "time": 98.90625,
          "velocity": 0.6929133858267716
        },
        {
          "duration": 0.15625,
          "durationTicks": 256,
          "midi": 57,
          "name": "A3",
          "ticks": 162304,
          "time": 99.0625,
          "velocity": 0.6929133858267716
        },
        {
          "duration": 0.15625,
          "durationTicks": 256,
          "midi": 61,
          "name": "C#4",
          "ticks": 162560,
          "time": 99.21875,
          "velocity": 0.6929133858267716
        },
        {
          "duration": 0.625,
          "durationTicks": 1024,
          "midi": 76,
          "name": "E5",
          "ticks": 162816,
          "time": 99.375,
          "velocity": 0.6929133858267716
        },
        {
          "duration": 0.625,
          "durationTicks": 1024,
          "midi": 81,
          "name": "A5",
          "ticks": 162816,
          "time": 99.375,
          "velocity": 0.5039370078740157
        },
        {
          "duration": 0.625,
          "durationTicks": 1024,
          "midi": 88,
          "name": "E6",
          "ticks": 162816,
          "time": 99.375,
          "velocity": 0.7244094488188977
        },
        {
          "duration": 0.15625,
          "durationTicks": 256,
          "midi": 45,
          "name": "A2",
          "ticks": 162816,
          "time": 99.375,
          "velocity": 0.6929133858267716
        },
        {
          "duration": 0.01953125,
          "durationTicks": 32,
          "midi": 52,
          "name": "E3",
          "ticks": 163072,
          "time": 99.53125,
          "velocity": 0.6929133858267716
        },
        {
          "duration": 0.15625,
          "durationTicks": 256,
          "midi": 57,
          "name": "A3",
          "ticks": 163328,
          "time": 99.6875,
          "velocity": 0.6929133858267716
        },
        {
          "duration": 0.15625,
          "durationTicks": 256,
          "midi": 61,
          "name": "C#4",
          "ticks": 163584,
          "time": 99.84375,
          "velocity": 0.6929133858267716
        },
        {
          "duration": 0.625,
          "durationTicks": 1024,
          "midi": 74,
          "name": "D5",
          "ticks": 163840,
          "time": 100,
          "velocity": 0.6929133858267716
        },
        {
          "duration": 0.625,
          "durationTicks": 1024,
          "midi": 81,
          "name": "A5",
          "ticks": 163840,
          "time": 100,
          "velocity": 0.5039370078740157
        },
        {
          "duration": 0.625,
          "durationTicks": 1024,
          "midi": 86,
          "name": "D6",
          "ticks": 163840,
          "time": 100,
          "velocity": 0.7244094488188977
        },
        {
          "duration": 0.01953125,
          "durationTicks": 32,
          "midi": 50,
          "name": "D3",
          "ticks": 163840,
          "time": 100,
          "velocity": 0.6929133858267716
        },
        {
          "duration": 0.15625,
          "durationTicks": 256,
          "midi": 53,
          "name": "F3",
          "ticks": 164096,
          "time": 100.15625,
          "velocity": 0.6929133858267716
        },
        {
          "duration": 0.15625,
          "durationTicks": 256,
          "midi": 57,
          "name": "A3",
          "ticks": 164352,
          "time": 100.3125,
          "velocity": 0.6929133858267716
        },
        {
          "duration": 0.15625,
          "durationTicks": 256,
          "midi": 62,
          "name": "D4",
          "ticks": 164608,
          "time": 100.46875,
          "velocity": 0.6929133858267716
        },
        {
          "duration": 0.3125,
          "durationTicks": 512,
          "midi": 73,
          "name": "C#5",
          "ticks": 164864,
          "time": 100.625,
          "velocity": 0.6929133858267716
        },
        {
          "duration": 0.3125,
          "durationTicks": 512,
          "midi": 81,
          "name": "A5",
          "ticks": 164864,
          "time": 100.625,
          "velocity": 0.5039370078740157
        },
        {
          "duration": 0.3125,
          "durationTicks": 512,
          "midi": 85,
          "name": "C#6",
          "ticks": 164864,
          "time": 100.625,
          "velocity": 0.7244094488188977
        },
        {
          "duration": 0.01953125,
          "durationTicks": 32,
          "midi": 50,
          "name": "D3",
          "ticks": 164864,
          "time": 100.625,
          "velocity": 0.6929133858267716
        },
        {
          "duration": 0.15625,
          "durationTicks": 256,
          "midi": 53,
          "name": "F3",
          "ticks": 165120,
          "time": 100.78125,
          "velocity": 0.6929133858267716
        },
        {
          "duration": 0.3125,
          "durationTicks": 512,
          "midi": 76,
          "name": "E5",
          "ticks": 165376,
          "time": 100.9375,
          "velocity": 0.6929133858267716
        },
        {
          "duration": 0.3125,
          "durationTicks": 512,
          "midi": 88,
          "name": "E6",
          "ticks": 165376,
          "time": 100.9375,
          "velocity": 0.7244094488188977
        },
        {
          "duration": 0.15625,
          "durationTicks": 256,
          "midi": 57,
          "name": "A3",
          "ticks": 165376,
          "time": 100.9375,
          "velocity": 0.6929133858267716
        },
        {
          "duration": 0.15625,
          "durationTicks": 256,
          "midi": 62,
          "name": "D4",
          "ticks": 165632,
          "time": 101.09375,
          "velocity": 0.6929133858267716
        },
        {
          "duration": 0.625,
          "durationTicks": 1024,
          "midi": 74,
          "name": "D5",
          "ticks": 165888,
          "time": 101.25,
          "velocity": 0.6929133858267716
        },
        {
          "duration": 0.625,
          "durationTicks": 1024,
          "midi": 78,
          "name": "F#5",
          "ticks": 165888,
          "time": 101.25,
          "velocity": 0.5039370078740157
        },
        {
          "duration": 0.625,
          "durationTicks": 1024,
          "midi": 86,
          "name": "D6",
          "ticks": 165888,
          "time": 101.25,
          "velocity": 0.7244094488188977
        },
        {
          "duration": 0.15625,
          "durationTicks": 256,
          "midi": 45,
          "name": "A2",
          "ticks": 165888,
          "time": 101.25,
          "velocity": 0.6929133858267716
        },
        {
          "duration": 0.01953125,
          "durationTicks": 32,
          "midi": 50,
          "name": "D3",
          "ticks": 166144,
          "time": 101.40625,
          "velocity": 0.6929133858267716
        },
        {
          "duration": 0.15625,
          "durationTicks": 256,
          "midi": 54,
          "name": "F#3",
          "ticks": 166400,
          "time": 101.5625,
          "velocity": 0.6929133858267716
        },
        {
          "duration": 0.15625,
          "durationTicks": 256,
          "midi": 57,
          "name": "A3",
          "ticks": 166656,
          "time": 101.71875,
          "velocity": 0.6929133858267716
        },
        {
          "duration": 0.625,
          "durationTicks": 1024,
          "midi": 69,
          "name": "A4",
          "ticks": 166912,
          "time": 101.875,
          "velocity": 0.6929133858267716
        },
        {
          "duration": 0.625,
          "durationTicks": 1024,
          "midi": 78,
          "name": "F#5",
          "ticks": 166912,
          "time": 101.875,
          "velocity": 0.5039370078740157
        },
        {
          "duration": 0.625,
          "durationTicks": 1024,
          "midi": 81,
          "name": "A5",
          "ticks": 166912,
          "time": 101.875,
          "velocity": 0.7244094488188977
        },
        {
          "duration": 0.15625,
          "durationTicks": 256,
          "midi": 45,
          "name": "A2",
          "ticks": 166912,
          "time": 101.875,
          "velocity": 0.6929133858267716
        },
        {
          "duration": 0.01953125,
          "durationTicks": 32,
          "midi": 50,
          "name": "D3",
          "ticks": 167168,
          "time": 102.03125,
          "velocity": 0.6929133858267716
        },
        {
          "duration": 0.15625,
          "durationTicks": 256,
          "midi": 54,
          "name": "F#3",
          "ticks": 167424,
          "time": 102.1875,
          "velocity": 0.6929133858267716
        },
        {
          "duration": 0.15625,
          "durationTicks": 256,
          "midi": 57,
          "name": "A3",
          "ticks": 167680,
          "time": 102.34375,
          "velocity": 0.6929133858267716
        },
        {
          "duration": 1.25,
          "durationTicks": 2048,
          "midi": 76,
          "name": "E5",
          "ticks": 167936,
          "time": 102.5,
          "velocity": 0.6929133858267716
        },
        {
          "duration": 1.25,
          "durationTicks": 2048,
          "midi": 79,
          "name": "G5",
          "ticks": 167936,
          "time": 102.5,
          "velocity": 0.6929133858267716
        },
        {
          "duration": 1.25,
          "durationTicks": 2048,
          "midi": 88,
          "name": "E6",
          "ticks": 167936,
          "time": 102.5,
          "velocity": 0.7244094488188977
        },
        {
          "duration": 0.15625,
          "durationTicks": 256,
          "midi": 43,
          "name": "G2",
          "ticks": 167936,
          "time": 102.5,
          "velocity": 0.6929133858267716
        },
        {
          "duration": 0.15625,
          "durationTicks": 256,
          "midi": 47,
          "name": "B2",
          "ticks": 168192,
          "time": 102.65625,
          "velocity": 0.6929133858267716
        },
        {
          "duration": 0.01953125,
          "durationTicks": 32,
          "midi": 50,
          "name": "D3",
          "ticks": 168448,
          "time": 102.8125,
          "velocity": 0.6929133858267716
        },
        {
          "duration": 0.15625,
          "durationTicks": 256,
          "midi": 55,
          "name": "G3",
          "ticks": 168704,
          "time": 102.96875,
          "velocity": 0.6929133858267716
        },
        {
          "duration": 0.15625,
          "durationTicks": 256,
          "midi": 43,
          "name": "G2",
          "ticks": 168960,
          "time": 103.125,
          "velocity": 0.6929133858267716
        },
        {
          "duration": 0.15625,
          "durationTicks": 256,
          "midi": 47,
          "name": "B2",
          "ticks": 169216,
          "time": 103.28125,
          "velocity": 0.6929133858267716
        },
        {
          "duration": 0.01953125,
          "durationTicks": 32,
          "midi": 50,
          "name": "D3",
          "ticks": 169472,
          "time": 103.4375,
          "velocity": 0.6929133858267716
        },
        {
          "duration": 0.15625,
          "durationTicks": 256,
          "midi": 55,
          "name": "G3",
          "ticks": 169728,
          "time": 103.59375,
          "velocity": 0.6929133858267716
        },
        {
          "duration": 0.625,
          "durationTicks": 1024,
          "midi": 74,
          "name": "D5",
          "ticks": 169984,
          "time": 103.75,
          "velocity": 0.6929133858267716
        },
        {
          "duration": 0.625,
          "durationTicks": 1024,
          "midi": 79,
          "name": "G5",
          "ticks": 169984,
          "time": 103.75,
          "velocity": 0.6929133858267716
        },
        {
          "duration": 0.625,
          "durationTicks": 1024,
          "midi": 86,
          "name": "D6",
          "ticks": 169984,
          "time": 103.75,
          "velocity": 0.7244094488188977
        },
        {
          "duration": 0.15625,
          "durationTicks": 256,
          "midi": 47,
          "name": "B2",
          "ticks": 169984,
          "time": 103.75,
          "velocity": 0.7559055118110236
        },
        {
          "duration": 0.01953125,
          "durationTicks": 32,
          "midi": 50,
          "name": "D3",
          "ticks": 170240,
          "time": 103.90625,
          "velocity": 0.7559055118110236
        },
        {
          "duration": 0.15625,
          "durationTicks": 256,
          "midi": 55,
          "name": "G3",
          "ticks": 170496,
          "time": 104.0625,
          "velocity": 0.7559055118110236
        },
        {
          "duration": 0.15625,
          "durationTicks": 256,
          "midi": 59,
          "name": "B3",
          "ticks": 170752,
          "time": 104.21875,
          "velocity": 0.7559055118110236
        },
        {
          "duration": 0.15625,
          "durationTicks": 256,
          "midi": 74,
          "name": "D5",
          "ticks": 171008,
          "time": 104.375,
          "velocity": 0.7559055118110236
        },
        {
          "duration": 0.15625,
          "durationTicks": 256,
          "midi": 86,
          "name": "D6",
          "ticks": 171008,
          "time": 104.375,
          "velocity": 0.7952755905511811
        },
        {
          "duration": 0.01953125,
          "durationTicks": 32,
          "midi": 50,
          "name": "D3",
          "ticks": 171008,
          "time": 104.375,
          "velocity": 0.7559055118110236
        },
        {
          "duration": 0.15625,
          "durationTicks": 256,
          "midi": 76,
          "name": "E5",
          "ticks": 171264,
          "time": 104.53125,
          "velocity": 0.7559055118110236
        },
        {
          "duration": 0.15625,
          "durationTicks": 256,
          "midi": 88,
          "name": "E6",
          "ticks": 171264,
          "time": 104.53125,
          "velocity": 0.7952755905511811
        },
        {
          "duration": 0.15625,
          "durationTicks": 256,
          "midi": 55,
          "name": "G3",
          "ticks": 171264,
          "time": 104.53125,
          "velocity": 0.7559055118110236
        },
        {
          "duration": 0.15625,
          "durationTicks": 256,
          "midi": 77,
          "name": "F5",
          "ticks": 171520,
          "time": 104.6875,
          "velocity": 0.7559055118110236
        },
        {
          "duration": 0.15625,
          "durationTicks": 256,
          "midi": 89,
          "name": "F6",
          "ticks": 171520,
          "time": 104.6875,
          "velocity": 0.7952755905511811
        },
        {
          "duration": 0.15625,
          "durationTicks": 256,
          "midi": 59,
          "name": "B3",
          "ticks": 171520,
          "time": 104.6875,
          "velocity": 0.7559055118110236
        },
        {
          "duration": 0.15625,
          "durationTicks": 256,
          "midi": 79,
          "name": "G5",
          "ticks": 171776,
          "time": 104.84375,
          "velocity": 0.7559055118110236
        },
        {
          "duration": 0.15625,
          "durationTicks": 256,
          "midi": 91,
          "name": "G6",
          "ticks": 171776,
          "time": 104.84375,
          "velocity": 0.7952755905511811
        },
        {
          "duration": 0.15625,
          "durationTicks": 256,
          "midi": 62,
          "name": "D4",
          "ticks": 171776,
          "time": 104.84375,
          "velocity": 0.7559055118110236
        },
        {
          "duration": 1.875,
          "durationTicks": 3072,
          "midi": 81,
          "name": "A5",
          "ticks": 172032,
          "time": 105,
          "velocity": 0.7559055118110236
        },
        {
          "duration": 1.875,
          "durationTicks": 3072,
          "midi": 84,
          "name": "C6",
          "ticks": 172032,
          "time": 105,
          "velocity": 0.7559055118110236
        },
        {
          "duration": 1.875,
          "durationTicks": 3072,
          "midi": 89,
          "name": "F6",
          "ticks": 172032,
          "time": 105,
          "velocity": 0.7559055118110236
        },
        {
          "duration": 1.875,
          "durationTicks": 3072,
          "midi": 93,
          "name": "A6",
          "ticks": 172032,
          "time": 105,
          "velocity": 0.8188976377952756
        },
        {
          "duration": 0.625,
          "durationTicks": 1024,
          "midi": 41,
          "name": "F2",
          "ticks": 172032,
          "time": 105,
          "velocity": 0.7559055118110236
        },
        {
          "duration": 0.625,
          "durationTicks": 1024,
          "midi": 53,
          "name": "F3",
          "ticks": 172032,
          "time": 105,
          "velocity": 0.5039370078740157
        },
        {
          "duration": 0.625,
          "durationTicks": 1024,
          "midi": 57,
          "name": "A3",
          "ticks": 173056,
          "time": 105.625,
          "velocity": 0.7559055118110236
        },
        {
          "duration": 0.625,
          "durationTicks": 1024,
          "midi": 60,
          "name": "C4",
          "ticks": 173056,
          "time": 105.625,
          "velocity": 0.7559055118110236
        },
        {
          "duration": 0.625,
          "durationTicks": 1024,
          "midi": 65,
          "name": "F4",
          "ticks": 173056,
          "time": 105.625,
          "velocity": 0.7559055118110236
        },
        {
          "duration": 1.25,
          "durationTicks": 2048,
          "midi": 60,
          "name": "C4",
          "ticks": 174080,
          "time": 106.25,
          "velocity": 0.7559055118110236
        },
        {
          "duration": 1.25,
          "durationTicks": 2048,
          "midi": 65,
          "name": "F4",
          "ticks": 174080,
          "time": 106.25,
          "velocity": 0.7559055118110236
        },
        {
          "duration": 1.25,
          "durationTicks": 2048,
          "midi": 69,
          "name": "A4",
          "ticks": 174080,
          "time": 106.25,
          "velocity": 0.7559055118110236
        },
        {
          "duration": 0.625,
          "durationTicks": 1024,
          "midi": 81,
          "name": "A5",
          "ticks": 175104,
          "time": 106.875,
          "velocity": 0.7559055118110236
        },
        {
          "duration": 0.625,
          "durationTicks": 1024,
          "midi": 93,
          "name": "A6",
          "ticks": 175104,
          "time": 106.875,
          "velocity": 0.8188976377952756
        },
        {
          "duration": 1.875,
          "durationTicks": 3072,
          "midi": 76,
          "name": "E5",
          "ticks": 176128,
          "time": 107.5,
          "velocity": 0.7559055118110236
        },
        {
          "duration": 1.875,
          "durationTicks": 3072,
          "midi": 79,
          "name": "G5",
          "ticks": 176128,
          "time": 107.5,
          "velocity": 0.7559055118110236
        },
        {
          "duration": 1.875,
          "durationTicks": 3072,
          "midi": 84,
          "name": "C6",
          "ticks": 176128,
          "time": 107.5,
          "velocity": 0.7559055118110236
        },
        {
          "duration": 1.875,
          "durationTicks": 3072,
          "midi": 91,
          "name": "G6",
          "ticks": 176128,
          "time": 107.5,
          "velocity": 0.8188976377952756
        },
        {
          "duration": 0.625,
          "durationTicks": 1024,
          "midi": 40,
          "name": "E2",
          "ticks": 176128,
          "time": 107.5,
          "velocity": 0.7559055118110236
        },
        {
          "duration": 0.625,
          "durationTicks": 1024,
          "midi": 52,
          "name": "E3",
          "ticks": 176128,
          "time": 107.5,
          "velocity": 0.7559055118110236
        },
        {
          "duration": 0.625,
          "durationTicks": 1024,
          "midi": 55,
          "name": "G3",
          "ticks": 177152,
          "time": 108.125,
          "velocity": 0.7559055118110236
        },
        {
          "duration": 0.625,
          "durationTicks": 1024,
          "midi": 60,
          "name": "C4",
          "ticks": 177152,
          "time": 108.125,
          "velocity": 0.7559055118110236
        },
        {
          "duration": 0.625,
          "durationTicks": 1024,
          "midi": 64,
          "name": "E4",
          "ticks": 177152,
          "time": 108.125,
          "velocity": 0.7559055118110236
        },
        {
          "duration": 1.25,
          "durationTicks": 2048,
          "midi": 60,
          "name": "C4",
          "ticks": 178176,
          "time": 108.75,
          "velocity": 0.7559055118110236
        },
        {
          "duration": 1.25,
          "durationTicks": 2048,
          "midi": 64,
          "name": "E4",
          "ticks": 178176,
          "time": 108.75,
          "velocity": 0.7559055118110236
        },
        {
          "duration": 1.25,
          "durationTicks": 2048,
          "midi": 67,
          "name": "G4",
          "ticks": 178176,
          "time": 108.75,
          "velocity": 0.7559055118110236
        },
        {
          "duration": 0.625,
          "durationTicks": 1024,
          "midi": 76,
          "name": "E5",
          "ticks": 179200,
          "time": 109.375,
          "velocity": 0.7559055118110236
        },
        {
          "duration": 0.625,
          "durationTicks": 1024,
          "midi": 88,
          "name": "E6",
          "ticks": 179200,
          "time": 109.375,
          "velocity": 0.8188976377952756
        },
        {
          "duration": 0.625,
          "durationTicks": 1024,
          "midi": 77,
          "name": "F5",
          "ticks": 180224,
          "time": 110,
          "velocity": 0.7559055118110236
        },
        {
          "duration": 0.625,
          "durationTicks": 1024,
          "midi": 81,
          "name": "A5",
          "ticks": 180224,
          "time": 110,
          "velocity": 0.7559055118110236
        },
        {
          "duration": 0.625,
          "durationTicks": 1024,
          "midi": 89,
          "name": "F6",
          "ticks": 180224,
          "time": 110,
          "velocity": 0.8188976377952756
        },
        {
          "duration": 0.625,
          "durationTicks": 1024,
          "midi": 46,
          "name": "A#2",
          "ticks": 180224,
          "time": 110,
          "velocity": 0.7559055118110236
        },
        {
          "duration": 0.3125,
          "durationTicks": 512,
          "midi": 77,
          "name": "F5",
          "ticks": 181248,
          "time": 110.625,
          "velocity": 0.7559055118110236
        },
        {
          "duration": 0.3125,
          "durationTicks": 512,
          "midi": 81,
          "name": "A5",
          "ticks": 181248,
          "time": 110.625,
          "velocity": 0.7559055118110236
        },
        {
          "duration": 0.3125,
          "durationTicks": 512,
          "midi": 89,
          "name": "F6",
          "ticks": 181248,
          "time": 110.625,
          "velocity": 0.8188976377952756
        },
        {
          "duration": 0.625,
          "durationTicks": 1024,
          "midi": 57,
          "name": "A3",
          "ticks": 181248,
          "time": 110.625,
          "velocity": 0.7559055118110236
        },
        {
          "duration": 0.625,
          "durationTicks": 1024,
          "midi": 62,
          "name": "D4",
          "ticks": 181248,
          "time": 110.625,
          "velocity": 0.7559055118110236
        },
        {
          "duration": 0.625,
          "durationTicks": 1024,
          "midi": 65,
          "name": "F4",
          "ticks": 181248,
          "time": 110.625,
          "velocity": 0.7559055118110236
        },
        {
          "duration": 0.3125,
          "durationTicks": 512,
          "midi": 76,
          "name": "E5",
          "ticks": 181760,
          "time": 110.9375,
          "velocity": 0.7559055118110236
        },
        {
          "duration": 0.3125,
          "durationTicks": 512,
          "midi": 88,
          "name": "E6",
          "ticks": 181760,
          "time": 110.9375,
          "velocity": 0.8188976377952756
        },
        {
          "duration": 0.625,
          "durationTicks": 1024,
          "midi": 74,
          "name": "D5",
          "ticks": 182272,
          "time": 111.25,
          "velocity": 0.7559055118110236
        },
        {
          "duration": 0.625,
          "durationTicks": 1024,
          "midi": 77,
          "name": "F5",
          "ticks": 182272,
          "time": 111.25,
          "velocity": 0.7559055118110236
        },
        {
          "duration": 0.625,
          "durationTicks": 1024,
          "midi": 86,
          "name": "D6",
          "ticks": 182272,
          "time": 111.25,
          "velocity": 0.8188976377952756
        },
        {
          "duration": 0.625,
          "durationTicks": 1024,
          "midi": 45,
          "name": "A2",
          "ticks": 182272,
          "time": 111.25,
          "velocity": 0.7559055118110236
        },
        {
          "duration": 0.625,
          "durationTicks": 1024,
          "midi": 73,
          "name": "C#5",
          "ticks": 183296,
          "time": 111.875,
          "velocity": 0.7559055118110236
        },
        {
          "duration": 0.625,
          "durationTicks": 1024,
          "midi": 76,
          "name": "E5",
          "ticks": 183296,
          "time": 111.875,
          "velocity": 0.7559055118110236
        },
        {
          "duration": 0.625,
          "durationTicks": 1024,
          "midi": 85,
          "name": "C#6",
          "ticks": 183296,
          "time": 111.875,
          "velocity": 0.8188976377952756
        },
        {
          "duration": 0.625,
          "durationTicks": 1024,
          "midi": 55,
          "name": "G3",
          "ticks": 183296,
          "time": 111.875,
          "velocity": 0.7559055118110236
        },
        {
          "duration": 0.625,
          "durationTicks": 1024,
          "midi": 64,
          "name": "E4",
          "ticks": 183296,
          "time": 111.875,
          "velocity": 0.7559055118110236
        },
        {
          "duration": 0.625,
          "durationTicks": 1024,
          "midi": 69,
          "name": "A4",
          "ticks": 183296,
          "time": 111.875,
          "velocity": 0.7559055118110236
        },
        {
          "duration": 0.625,
          "durationTicks": 1024,
          "midi": 74,
          "name": "D5",
          "ticks": 184320,
          "time": 112.5,
          "velocity": 0.7559055118110236
        },
        {
          "duration": 0.625,
          "durationTicks": 1024,
          "midi": 81,
          "name": "A5",
          "ticks": 184320,
          "time": 112.5,
          "velocity": 0.7559055118110236
        },
        {
          "duration": 0.625,
          "durationTicks": 1024,
          "midi": 86,
          "name": "D6",
          "ticks": 184320,
          "time": 112.5,
          "velocity": 0.8188976377952756
        },
        {
          "duration": 0.625,
          "durationTicks": 1024,
          "midi": 50,
          "name": "D3",
          "ticks": 184320,
          "time": 112.5,
          "velocity": 0.7559055118110236
        },
        {
          "duration": 0.625,
          "durationTicks": 1024,
          "midi": 76,
          "name": "E5",
          "ticks": 185344,
          "time": 113.125,
          "velocity": 0.7559055118110236
        },
        {
          "duration": 0.625,
          "durationTicks": 1024,
          "midi": 84,
          "name": "C6",
          "ticks": 185344,
          "time": 113.125,
          "velocity": 0.7559055118110236
        },
        {
          "duration": 0.625,
          "durationTicks": 1024,
          "midi": 88,
          "name": "E6",
          "ticks": 185344,
          "time": 113.125,
          "velocity": 0.8188976377952756
        },
        {
          "duration": 0.625,
          "durationTicks": 1024,
          "midi": 65,
          "name": "F4",
          "ticks": 185344,
          "time": 113.125,
          "velocity": 0.7559055118110236
        },
        {
          "duration": 0.625,
          "durationTicks": 1024,
          "midi": 69,
          "name": "A4",
          "ticks": 185344,
          "time": 113.125,
          "velocity": 0.7559055118110236
        },
        {
          "duration": 0.625,
          "durationTicks": 1024,
          "midi": 77,
          "name": "F5",
          "ticks": 186368,
          "time": 113.75,
          "velocity": 0.7559055118110236
        },
        {
          "duration": 0.625,
          "durationTicks": 1024,
          "midi": 86,
          "name": "D6",
          "ticks": 186368,
          "time": 113.75,
          "velocity": 0.7559055118110236
        },
        {
          "duration": 0.625,
          "durationTicks": 1024,
          "midi": 89,
          "name": "F6",
          "ticks": 186368,
          "time": 113.75,
          "velocity": 0.8188976377952756
        },
        {
          "duration": 0.625,
          "durationTicks": 1024,
          "midi": 48,
          "name": "C3",
          "ticks": 186368,
          "time": 113.75,
          "velocity": 0.7559055118110236
        },
        {
          "duration": 0.625,
          "durationTicks": 1024,
          "midi": 79,
          "name": "G5",
          "ticks": 187392,
          "time": 114.375,
          "velocity": 0.7559055118110236
        },
        {
          "duration": 0.625,
          "durationTicks": 1024,
          "midi": 84,
          "name": "C6",
          "ticks": 187392,
          "time": 114.375,
          "velocity": 0.7559055118110236
        },
        {
          "duration": 0.625,
          "durationTicks": 1024,
          "midi": 91,
          "name": "G6",
          "ticks": 187392,
          "time": 114.375,
          "velocity": 0.8188976377952756
        },
        {
          "duration": 0.625,
          "durationTicks": 1024,
          "midi": 62,
          "name": "D4",
          "ticks": 187392,
          "time": 114.375,
          "velocity": 0.7559055118110236
        },
        {
          "duration": 0.625,
          "durationTicks": 1024,
          "midi": 67,
          "name": "G4",
          "ticks": 187392,
          "time": 114.375,
          "velocity": 0.7559055118110236
        },
        {
          "duration": 1.875,
          "durationTicks": 3072,
          "midi": 82,
          "name": "A#5",
          "ticks": 188416,
          "time": 115,
          "velocity": 0.7559055118110236
        },
        {
          "duration": 1.875,
          "durationTicks": 3072,
          "midi": 86,
          "name": "D6",
          "ticks": 188416,
          "time": 115,
          "velocity": 0.7559055118110236
        },
        {
          "duration": 1.875,
          "durationTicks": 3072,
          "midi": 89,
          "name": "F6",
          "ticks": 188416,
          "time": 115,
          "velocity": 0.7559055118110236
        },
        {
          "duration": 1.875,
          "durationTicks": 3072,
          "midi": 94,
          "name": "A#6",
          "ticks": 188416,
          "time": 115,
          "velocity": 0.8188976377952756
        },
        {
          "duration": 0.625,
          "durationTicks": 1024,
          "midi": 39,
          "name": "D#2",
          "ticks": 188416,
          "time": 115,
          "velocity": 0.7559055118110236
        },
        {
          "duration": 0.625,
          "durationTicks": 1024,
          "midi": 51,
          "name": "D#3",
          "ticks": 188416,
          "time": 115,
          "velocity": 0.7559055118110236
        },
        {
          "duration": 0.625,
          "durationTicks": 1024,
          "midi": 55,
          "name": "G3",
          "ticks": 189440,
          "time": 115.625,
          "velocity": 0.7559055118110236
        },
        {
          "duration": 0.625,
          "durationTicks": 1024,
          "midi": 58,
          "name": "A#3",
          "ticks": 189440,
          "time": 115.625,
          "velocity": 0.7559055118110236
        },
        {
          "duration": 0.625,
          "durationTicks": 1024,
          "midi": 63,
          "name": "D#4",
          "ticks": 189440,
          "time": 115.625,
          "velocity": 0.7559055118110236
        },
        {
          "duration": 1.25,
          "durationTicks": 2048,
          "midi": 58,
          "name": "A#3",
          "ticks": 190464,
          "time": 116.25,
          "velocity": 0.7559055118110236
        },
        {
          "duration": 1.25,
          "durationTicks": 2048,
          "midi": 63,
          "name": "D#4",
          "ticks": 190464,
          "time": 116.25,
          "velocity": 0.7559055118110236
        },
        {
          "duration": 1.25,
          "durationTicks": 2048,
          "midi": 67,
          "name": "G4",
          "ticks": 190464,
          "time": 116.25,
          "velocity": 0.7559055118110236
        },
        {
          "duration": 0.625,
          "durationTicks": 1024,
          "midi": 82,
          "name": "A#5",
          "ticks": 191488,
          "time": 116.875,
          "velocity": 0.7559055118110236
        },
        {
          "duration": 0.625,
          "durationTicks": 1024,
          "midi": 94,
          "name": "A#6",
          "ticks": 191488,
          "time": 116.875,
          "velocity": 0.8188976377952756
        },
        {
          "duration": 1.875,
          "durationTicks": 3072,
          "midi": 77,
          "name": "F5",
          "ticks": 192512,
          "time": 117.5,
          "velocity": 0.7559055118110236
        },
        {
          "duration": 1.875,
          "durationTicks": 3072,
          "midi": 81,
          "name": "A5",
          "ticks": 192512,
          "time": 117.5,
          "velocity": 0.7559055118110236
        },
        {
          "duration": 1.875,
          "durationTicks": 3072,
          "midi": 89,
          "name": "F6",
          "ticks": 192512,
          "time": 117.5,
          "velocity": 0.7559055118110236
        },
        {
          "duration": 1.875,
          "durationTicks": 3072,
          "midi": 93,
          "name": "A6",
          "ticks": 192512,
          "time": 117.5,
          "velocity": 0.8188976377952756
        },
        {
          "duration": 0.625,
          "durationTicks": 1024,
          "midi": 38,
          "name": "D2",
          "ticks": 192512,
          "time": 117.5,
          "velocity": 0.7559055118110236
        },
        {
          "duration": 0.625,
          "durationTicks": 1024,
          "midi": 50,
          "name": "D3",
          "ticks": 192512,
          "time": 117.5,
          "velocity": 0.7559055118110236
        },
        {
          "duration": 0.625,
          "durationTicks": 1024,
          "midi": 53,
          "name": "F3",
          "ticks": 193536,
          "time": 118.125,
          "velocity": 0.7559055118110236
        },
        {
          "duration": 0.625,
          "durationTicks": 1024,
          "midi": 57,
          "name": "A3",
          "ticks": 193536,
          "time": 118.125,
          "velocity": 0.7559055118110236
        },
        {
          "duration": 0.625,
          "durationTicks": 1024,
          "midi": 62,
          "name": "D4",
          "ticks": 193536,
          "time": 118.125,
          "velocity": 0.7559055118110236
        },
        {
          "duration": 1.25,
          "durationTicks": 2048,
          "midi": 57,
          "name": "A3",
          "ticks": 194560,
          "time": 118.75,
          "velocity": 0.7559055118110236
        },
        {
          "duration": 1.25,
          "durationTicks": 2048,
          "midi": 62,
          "name": "D4",
          "ticks": 194560,
          "time": 118.75,
          "velocity": 0.7559055118110236
        },
        {
          "duration": 1.25,
          "durationTicks": 2048,
          "midi": 65,
          "name": "F4",
          "ticks": 194560,
          "time": 118.75,
          "velocity": 0.7559055118110236
        },
        {
          "duration": 0.625,
          "durationTicks": 1024,
          "midi": 77,
          "name": "F5",
          "ticks": 195584,
          "time": 119.375,
          "velocity": 0.7559055118110236
        },
        {
          "duration": 0.625,
          "durationTicks": 1024,
          "midi": 89,
          "name": "F6",
          "ticks": 195584,
          "time": 119.375,
          "velocity": 0.8188976377952756
        },
        {
          "duration": 0.625,
          "durationTicks": 1024,
          "midi": 79,
          "name": "G5",
          "ticks": 196608,
          "time": 120,
          "velocity": 0.7559055118110236
        },
        {
          "duration": 0.625,
          "durationTicks": 1024,
          "midi": 87,
          "name": "D#6",
          "ticks": 196608,
          "time": 120,
          "velocity": 0.7559055118110236
        },
        {
          "duration": 0.625,
          "durationTicks": 1024,
          "midi": 91,
          "name": "G6",
          "ticks": 196608,
          "time": 120,
          "velocity": 0.7559055118110236
        },
        {
          "duration": 0.625,
          "durationTicks": 1024,
          "midi": 44,
          "name": "G#2",
          "ticks": 196608,
          "time": 120,
          "velocity": 0.7559055118110236
        },
        {
          "duration": 0.3125,
          "durationTicks": 512,
          "midi": 79,
          "name": "G5",
          "ticks": 197632,
          "time": 120.625,
          "velocity": 0.7559055118110236
        },
        {
          "duration": 0.3125,
          "durationTicks": 512,
          "midi": 91,
          "name": "G6",
          "ticks": 197632,
          "time": 120.625,
          "velocity": 0.7559055118110236
        },
        {
          "duration": 0.625,
          "durationTicks": 1024,
          "midi": 56,
          "name": "G#3",
          "ticks": 197632,
          "time": 120.625,
          "velocity": 0.7559055118110236
        },
        {
          "duration": 0.625,
          "durationTicks": 1024,
          "midi": 60,
          "name": "C4",
          "ticks": 197632,
          "time": 120.625,
          "velocity": 0.7559055118110236
        },
        {
          "duration": 0.3125,
          "durationTicks": 512,
          "midi": 80,
          "name": "G#5",
          "ticks": 198144,
          "time": 120.9375,
          "velocity": 0.7559055118110236
        },
        {
          "duration": 0.3125,
          "durationTicks": 512,
          "midi": 92,
          "name": "G#6",
          "ticks": 198144,
          "time": 120.9375,
          "velocity": 0.7559055118110236
        },
        {
          "duration": 0.625,
          "durationTicks": 1024,
          "midi": 79,
          "name": "G5",
          "ticks": 198656,
          "time": 121.25,
          "velocity": 0.7559055118110236
        },
        {
          "duration": 0.625,
          "durationTicks": 1024,
          "midi": 87,
          "name": "D#6",
          "ticks": 198656,
          "time": 121.25,
          "velocity": 0.7559055118110236
        },
        {
          "duration": 0.625,
          "durationTicks": 1024,
          "midi": 91,
          "name": "G6",
          "ticks": 198656,
          "time": 121.25,
          "velocity": 0.7559055118110236
        },
        {
          "duration": 0.625,
          "durationTicks": 1024,
          "midi": 39,
          "name": "D#2",
          "ticks": 198656,
          "time": 121.25,
          "velocity": 0.7559055118110236
        },
        {
          "duration": 0.3125,
          "durationTicks": 512,
          "midi": 79,
          "name": "G5",
          "ticks": 199680,
          "time": 121.875,
          "velocity": 0.7559055118110236
        },
        {
          "duration": 0.3125,
          "durationTicks": 512,
          "midi": 91,
          "name": "G6",
          "ticks": 199680,
          "time": 121.875,
          "velocity": 0.7559055118110236
        },
        {
          "duration": 0.625,
          "durationTicks": 1024,
          "midi": 56,
          "name": "G#3",
          "ticks": 199680,
          "time": 121.875,
          "velocity": 0.7559055118110236
        },
        {
          "duration": 0.625,
          "durationTicks": 1024,
          "midi": 60,
          "name": "C4",
          "ticks": 199680,
          "time": 121.875,
          "velocity": 0.7559055118110236
        },
        {
          "duration": 0.3125,
          "durationTicks": 512,
          "midi": 80,
          "name": "G#5",
          "ticks": 200192,
          "time": 122.1875,
          "velocity": 0.7559055118110236
        },
        {
          "duration": 0.3125,
          "durationTicks": 512,
          "midi": 92,
          "name": "G#6",
          "ticks": 200192,
          "time": 122.1875,
          "velocity": 0.7559055118110236
        },
        {
          "duration": 0.625,
          "durationTicks": 1024,
          "midi": 79,
          "name": "G5",
          "ticks": 200704,
          "time": 122.5,
          "velocity": 0.7559055118110236
        },
        {
          "duration": 0.625,
          "durationTicks": 1024,
          "midi": 87,
          "name": "D#6",
          "ticks": 200704,
          "time": 122.5,
          "velocity": 0.7559055118110236
        },
        {
          "duration": 0.625,
          "durationTicks": 1024,
          "midi": 91,
          "name": "G6",
          "ticks": 200704,
          "time": 122.5,
          "velocity": 0.7559055118110236
        },
        {
          "duration": 0.625,
          "durationTicks": 1024,
          "midi": 44,
          "name": "G#2",
          "ticks": 200704,
          "time": 122.5,
          "velocity": 0.7559055118110236
        },
        {
          "duration": 0.625,
          "durationTicks": 1024,
          "midi": 77,
          "name": "F5",
          "ticks": 201728,
          "time": 123.125,
          "velocity": 0.7559055118110236
        },
        {
          "duration": 0.625,
          "durationTicks": 1024,
          "midi": 89,
          "name": "F6",
          "ticks": 201728,
          "time": 123.125,
          "velocity": 0.7559055118110236
        },
        {
          "duration": 0.625,
          "durationTicks": 1024,
          "midi": 56,
          "name": "G#3",
          "ticks": 201728,
          "time": 123.125,
          "velocity": 0.7559055118110236
        },
        {
          "duration": 0.625,
          "durationTicks": 1024,
          "midi": 60,
          "name": "C4",
          "ticks": 201728,
          "time": 123.125,
          "velocity": 0.7559055118110236
        },
        {
          "duration": 0.625,
          "durationTicks": 1024,
          "midi": 75,
          "name": "D#5",
          "ticks": 202752,
          "time": 123.75,
          "velocity": 0.7559055118110236
        },
        {
          "duration": 0.625,
          "durationTicks": 1024,
          "midi": 87,
          "name": "D#6",
          "ticks": 202752,
          "time": 123.75,
          "velocity": 0.7559055118110236
        },
        {
          "duration": 0.625,
          "durationTicks": 1024,
          "midi": 39,
          "name": "D#2",
          "ticks": 202752,
          "time": 123.75,
          "velocity": 0.7559055118110236
        },
        {
          "duration": 0.625,
          "durationTicks": 1024,
          "midi": 77,
          "name": "F5",
          "ticks": 203776,
          "time": 124.375,
          "velocity": 0.7559055118110236
        },
        {
          "duration": 0.625,
          "durationTicks": 1024,
          "midi": 89,
          "name": "F6",
          "ticks": 203776,
          "time": 124.375,
          "velocity": 0.7559055118110236
        },
        {
          "duration": 0.625,
          "durationTicks": 1024,
          "midi": 56,
          "name": "G#3",
          "ticks": 203776,
          "time": 124.375,
          "velocity": 0.7559055118110236
        },
        {
          "duration": 0.625,
          "durationTicks": 1024,
          "midi": 60,
          "name": "C4",
          "ticks": 203776,
          "time": 124.375,
          "velocity": 0.7559055118110236
        },
        {
          "duration": 0.625,
          "durationTicks": 1024,
          "midi": 79,
          "name": "G5",
          "ticks": 204800,
          "time": 125,
          "velocity": 0.7559055118110236
        },
        {
          "duration": 0.625,
          "durationTicks": 1024,
          "midi": 86,
          "name": "D6",
          "ticks": 204800,
          "time": 125,
          "velocity": 0.7559055118110236
        },
        {
          "duration": 0.625,
          "durationTicks": 1024,
          "midi": 91,
          "name": "G6",
          "ticks": 204800,
          "time": 125,
          "velocity": 0.7559055118110236
        },
        {
          "duration": 0.625,
          "durationTicks": 1024,
          "midi": 43,
          "name": "G2",
          "ticks": 204800,
          "time": 125,
          "velocity": 0.7559055118110236
        },
        {
          "duration": 0.3125,
          "durationTicks": 512,
          "midi": 79,
          "name": "G5",
          "ticks": 205824,
          "time": 125.625,
          "velocity": 0.7559055118110236
        },
        {
          "duration": 0.3125,
          "durationTicks": 512,
          "midi": 91,
          "name": "G6",
          "ticks": 205824,
          "time": 125.625,
          "velocity": 0.7559055118110236
        },
        {
          "duration": 0.625,
          "durationTicks": 1024,
          "midi": 55,
          "name": "G3",
          "ticks": 205824,
          "time": 125.625,
          "velocity": 0.7559055118110236
        },
        {
          "duration": 0.625,
          "durationTicks": 1024,
          "midi": 62,
          "name": "D4",
          "ticks": 205824,
          "time": 125.625,
          "velocity": 0.7559055118110236
        },
        {
          "duration": 0.3125,
          "durationTicks": 512,
          "midi": 80,
          "name": "G#5",
          "ticks": 206336,
          "time": 125.9375,
          "velocity": 0.7559055118110236
        },
        {
          "duration": 0.3125,
          "durationTicks": 512,
          "midi": 92,
          "name": "G#6",
          "ticks": 206336,
          "time": 125.9375,
          "velocity": 0.7559055118110236
        },
        {
          "duration": 0.625,
          "durationTicks": 1024,
          "midi": 79,
          "name": "G5",
          "ticks": 206848,
          "time": 126.25,
          "velocity": 0.7559055118110236
        },
        {
          "duration": 0.625,
          "durationTicks": 1024,
          "midi": 86,
          "name": "D6",
          "ticks": 206848,
          "time": 126.25,
          "velocity": 0.7559055118110236
        },
        {
          "duration": 0.625,
          "durationTicks": 1024,
          "midi": 91,
          "name": "G6",
          "ticks": 206848,
          "time": 126.25,
          "velocity": 0.7559055118110236
        },
        {
          "duration": 0.625,
          "durationTicks": 1024,
          "midi": 38,
          "name": "D2",
          "ticks": 206848,
          "time": 126.25,
          "velocity": 0.7559055118110236
        },
        {
          "duration": 0.3125,
          "durationTicks": 512,
          "midi": 79,
          "name": "G5",
          "ticks": 207872,
          "time": 126.875,
          "velocity": 0.7559055118110236
        },
        {
          "duration": 0.3125,
          "durationTicks": 512,
          "midi": 91,
          "name": "G6",
          "ticks": 207872,
          "time": 126.875,
          "velocity": 0.7559055118110236
        },
        {
          "duration": 0.625,
          "durationTicks": 1024,
          "midi": 55,
          "name": "G3",
          "ticks": 207872,
          "time": 126.875,
          "velocity": 0.7559055118110236
        },
        {
          "duration": 0.625,
          "durationTicks": 1024,
          "midi": 62,
          "name": "D4",
          "ticks": 207872,
          "time": 126.875,
          "velocity": 0.7559055118110236
        },
        {
          "duration": 0.3125,
          "durationTicks": 512,
          "midi": 80,
          "name": "G#5",
          "ticks": 208384,
          "time": 127.1875,
          "velocity": 0.7559055118110236
        },
        {
          "duration": 0.3125,
          "durationTicks": 512,
          "midi": 92,
          "name": "G#6",
          "ticks": 208384,
          "time": 127.1875,
          "velocity": 0.7559055118110236
        },
        {
          "duration": 0.625,
          "durationTicks": 1024,
          "midi": 79,
          "name": "G5",
          "ticks": 208896,
          "time": 127.5,
          "velocity": 0.7559055118110236
        },
        {
          "duration": 0.625,
          "durationTicks": 1024,
          "midi": 86,
          "name": "D6",
          "ticks": 208896,
          "time": 127.5,
          "velocity": 0.7559055118110236
        },
        {
          "duration": 0.625,
          "durationTicks": 1024,
          "midi": 91,
          "name": "G6",
          "ticks": 208896,
          "time": 127.5,
          "velocity": 0.7559055118110236
        },
        {
          "duration": 0.625,
          "durationTicks": 1024,
          "midi": 43,
          "name": "G2",
          "ticks": 208896,
          "time": 127.5,
          "velocity": 0.7559055118110236
        },
        {
          "duration": 0.625,
          "durationTicks": 1024,
          "midi": 79,
          "name": "G5",
          "ticks": 209920,
          "time": 128.125,
          "velocity": 0.7559055118110236
        },
        {
          "duration": 0.625,
          "durationTicks": 1024,
          "midi": 86,
          "name": "D6",
          "ticks": 209920,
          "time": 128.125,
          "velocity": 0.7559055118110236
        },
        {
          "duration": 0.625,
          "durationTicks": 1024,
          "midi": 91,
          "name": "G6",
          "ticks": 209920,
          "time": 128.125,
          "velocity": 0.7559055118110236
        },
        {
          "duration": 0.625,
          "durationTicks": 1024,
          "midi": 55,
          "name": "G3",
          "ticks": 209920,
          "time": 128.125,
          "velocity": 0.7559055118110236
        },
        {
          "duration": 0.625,
          "durationTicks": 1024,
          "midi": 62,
          "name": "D4",
          "ticks": 209920,
          "time": 128.125,
          "velocity": 0.7559055118110236
        },
        {
          "duration": 0.625,
          "durationTicks": 1024,
          "midi": 81,
          "name": "A5",
          "ticks": 210944,
          "time": 128.75,
          "velocity": 0.7559055118110236
        },
        {
          "duration": 0.625,
          "durationTicks": 1024,
          "midi": 89,
          "name": "F6",
          "ticks": 210944,
          "time": 128.75,
          "velocity": 0.7559055118110236
        },
        {
          "duration": 0.625,
          "durationTicks": 1024,
          "midi": 93,
          "name": "A6",
          "ticks": 210944,
          "time": 128.75,
          "velocity": 0.7559055118110236
        },
        {
          "duration": 0.625,
          "durationTicks": 1024,
          "midi": 38,
          "name": "D2",
          "ticks": 210944,
          "time": 128.75,
          "velocity": 0.7559055118110236
        },
        {
          "duration": 0.625,
          "durationTicks": 1024,
          "midi": 83,
          "name": "B5",
          "ticks": 211968,
          "time": 129.375,
          "velocity": 0.7559055118110236
        },
        {
          "duration": 0.625,
          "durationTicks": 1024,
          "midi": 91,
          "name": "G6",
          "ticks": 211968,
          "time": 129.375,
          "velocity": 0.7559055118110236
        },
        {
          "duration": 0.625,
          "durationTicks": 1024,
          "midi": 95,
          "name": "B6",
          "ticks": 211968,
          "time": 129.375,
          "velocity": 0.7559055118110236
        },
        {
          "duration": 0.625,
          "durationTicks": 1024,
          "midi": 55,
          "name": "G3",
          "ticks": 211968,
          "time": 129.375,
          "velocity": 0.7559055118110236
        },
        {
          "duration": 0.625,
          "durationTicks": 1024,
          "midi": 62,
          "name": "D4",
          "ticks": 211968,
          "time": 129.375,
          "velocity": 0.7559055118110236
        },
        {
          "duration": 2.5,
          "durationTicks": 4096,
          "midi": 84,
          "name": "C6",
          "ticks": 212992,
          "time": 130,
          "velocity": 0.7874015748031497
        },
        {
          "duration": 2.5,
          "durationTicks": 4096,
          "midi": 88,
          "name": "E6",
          "ticks": 212992,
          "time": 130,
          "velocity": 0.7874015748031497
        },
        {
          "duration": 2.5,
          "durationTicks": 4096,
          "midi": 96,
          "name": "C7",
          "ticks": 212992,
          "time": 130,
          "velocity": 0.7874015748031497
        },
        {
          "duration": 0.15625,
          "durationTicks": 256,
          "midi": 36,
          "name": "C2",
          "ticks": 212992,
          "time": 130,
          "velocity": 0.6299212598425197
        },
        {
          "duration": 0.15625,
          "durationTicks": 256,
          "midi": 38,
          "name": "D2",
          "ticks": 213248,
          "time": 130.15625,
          "velocity": 0.6299212598425197
        },
        {
          "duration": 0.15625,
          "durationTicks": 256,
          "midi": 40,
          "name": "E2",
          "ticks": 213504,
          "time": 130.3125,
          "velocity": 0.6299212598425197
        },
        {
          "duration": 0.15625,
          "durationTicks": 256,
          "midi": 43,
          "name": "G2",
          "ticks": 213760,
          "time": 130.46875,
          "velocity": 0.6299212598425197
        },
        {
          "duration": 0.15625,
          "durationTicks": 256,
          "midi": 48,
          "name": "C3",
          "ticks": 214016,
          "time": 130.625,
          "velocity": 0.6299212598425197
        },
        {
          "duration": 0.15625,
          "durationTicks": 256,
          "midi": 50,
          "name": "D3",
          "ticks": 214272,
          "time": 130.78125,
          "velocity": 0.6299212598425197
        },
        {
          "duration": 0.01953125,
          "durationTicks": 32,
          "midi": 52,
          "name": "E3",
          "ticks": 214528,
          "time": 130.9375,
          "velocity": 0.6299212598425197
        },
        {
          "duration": 0.15625,
          "durationTicks": 256,
          "midi": 55,
          "name": "G3",
          "ticks": 214784,
          "time": 131.09375,
          "velocity": 0.6299212598425197
        },
        {
          "duration": 0.15625,
          "durationTicks": 256,
          "midi": 48,
          "name": "C3",
          "ticks": 215040,
          "time": 131.25,
          "velocity": 0.6299212598425197
        },
        {
          "duration": 0.15625,
          "durationTicks": 256,
          "midi": 50,
          "name": "D3",
          "ticks": 215296,
          "time": 131.40625,
          "velocity": 0.6299212598425197
        },
        {
          "duration": 0.01953125,
          "durationTicks": 32,
          "midi": 52,
          "name": "E3",
          "ticks": 215552,
          "time": 131.5625,
          "velocity": 0.6299212598425197
        },
        {
          "duration": 0.15625,
          "durationTicks": 256,
          "midi": 55,
          "name": "G3",
          "ticks": 215808,
          "time": 131.71875,
          "velocity": 0.6299212598425197
        },
        {
          "duration": 0.15625,
          "durationTicks": 256,
          "midi": 60,
          "name": "C4",
          "ticks": 216064,
          "time": 131.875,
          "velocity": 0.6299212598425197
        },
        {
          "duration": 0.15625,
          "durationTicks": 256,
          "midi": 62,
          "name": "D4",
          "ticks": 216320,
          "time": 132.03125,
          "velocity": 0.6299212598425197
        },
        {
          "duration": 0.15625,
          "durationTicks": 256,
          "midi": 64,
          "name": "E4",
          "ticks": 216576,
          "time": 132.1875,
          "velocity": 0.6299212598425197
        },
        {
          "duration": 0.15625,
          "durationTicks": 256,
          "midi": 67,
          "name": "G4",
          "ticks": 216832,
          "time": 132.34375,
          "velocity": 0.6299212598425197
        },
        {
          "duration": 0.15625,
          "durationTicks": 256,
          "midi": 60,
          "name": "C4",
          "ticks": 217088,
          "time": 132.5,
          "velocity": 0.6299212598425197
        },
        {
          "duration": 0.15625,
          "durationTicks": 256,
          "midi": 62,
          "name": "D4",
          "ticks": 217344,
          "time": 132.65625,
          "velocity": 0.6299212598425197
        },
        {
          "duration": 0.15625,
          "durationTicks": 256,
          "midi": 64,
          "name": "E4",
          "ticks": 217600,
          "time": 132.8125,
          "velocity": 0.6299212598425197
        },
        {
          "duration": 0.15625,
          "durationTicks": 256,
          "midi": 67,
          "name": "G4",
          "ticks": 217856,
          "time": 132.96875,
          "velocity": 0.6299212598425197
        },
        {
          "duration": 0.15625,
          "durationTicks": 256,
          "midi": 72,
          "name": "C5",
          "ticks": 218112,
          "time": 133.125,
          "velocity": 0.6299212598425197
        },
        {
          "duration": 0.15625,
          "durationTicks": 256,
          "midi": 74,
          "name": "D5",
          "ticks": 218368,
          "time": 133.28125,
          "velocity": 0.6299212598425197
        },
        {
          "duration": 0.15625,
          "durationTicks": 256,
          "midi": 76,
          "name": "E5",
          "ticks": 218624,
          "time": 133.4375,
          "velocity": 0.6299212598425197
        },
        {
          "duration": 0.15625,
          "durationTicks": 256,
          "midi": 79,
          "name": "G5",
          "ticks": 218880,
          "time": 133.59375,
          "velocity": 0.6299212598425197
        },
        {
          "duration": 0.625,
          "durationTicks": 1024,
          "midi": 72,
          "name": "C5",
          "ticks": 219136,
          "time": 133.75,
          "velocity": 0.6299212598425197
        },
        {
          "duration": 0.625,
          "durationTicks": 1024,
          "midi": 74,
          "name": "D5",
          "ticks": 219392,
          "time": 133.90625,
          "velocity": 0.6299212598425197
        },
        {
          "duration": 0.625,
          "durationTicks": 1024,
          "midi": 76,
          "name": "E5",
          "ticks": 219648,
          "time": 134.0625,
          "velocity": 0.6299212598425197
        },
        {
          "duration": 0.625,
          "durationTicks": 1024,
          "midi": 79,
          "name": "G5",
          "ticks": 219904,
          "time": 134.21875,
          "velocity": 0.6299212598425197
        },
        {
          "duration": 0.625,
          "durationTicks": 1024,
          "midi": 84,
          "name": "C6",
          "ticks": 220160,
          "time": 134.375,
          "velocity": 0.6299212598425197
        },
        {
          "duration": 0.46875,
          "durationTicks": 768,
          "midi": 86,
          "name": "D6",
          "ticks": 220416,
          "time": 134.53125,
          "velocity": 0.6299212598425197
        },
        {
          "duration": 0.3125,
          "durationTicks": 512,
          "midi": 88,
          "name": "E6",
          "ticks": 220672,
          "time": 134.6875,
          "velocity": 0.6299212598425197
        },
        {
          "duration": 0.15625,
          "durationTicks": 256,
          "midi": 91,
          "name": "G6",
          "ticks": 220928,
          "time": 134.84375,
          "velocity": 0.6299212598425197
        },
        {
          "duration": 2.5,
          "durationTicks": 4096,
          "midi": 96,
          "name": "C7",
          "ticks": 221184,
          "time": 135,
          "velocity": 0.6299212598425197
        }
      ],
      "endOfTrackTicks": 225281
    }
  ]
}
