{
  "header": {
    "keySignatures": [],
    "meta": [],
    "name": "",
    "ppq": 384,
    "tempos": [
      {
        "bpm": 103.00075533887248,
        "ticks": 0
      },
      {
        "bpm": 106.00144868646538,
        "ticks": 4992
      },
      {
        "bpm": 107.00146235331883,
        "ticks": 6144
      },
      {
        "bpm": 104.0005546696249,
        "ticks": 8832
      },
      {
        "bpm": 100,
        "ticks": 9600
      },
      {
        "bpm": 105.00157502362535,
        "ticks": 10752
      },
      {
        "bpm": 100,
        "ticks": 13056
      },
      {
        "bpm": 102.00091800826208,
        "ticks": 15360
      },
      {
        "bpm": 105.00157502362535,
        "ticks": 19968
      },
      {
        "bpm": 103.00075533887248,
        "ticks": 26304
      },
      {
        "bpm": 106.00144868646538,
        "ticks": 30336
      },
      {
        "bpm": 102.00091800826208,
        "ticks": 41856
      },
      {
        "bpm": 105.00157502362535,
        "ticks": 45312
      },
      {
        "bpm": 106.00144868646538,
        "ticks": 60796
      },
      {
        "bpm": 107.00146235331883,
        "ticks": 61632
      },
      {
        "bpm": 106.00144868646538,
        "ticks": 68352
      },
      {
        "bpm": 104.0005546696249,
        "ticks": 70080
      },
      {
        "bpm": 100,
        "ticks": 71808
      },
      {
        "bpm": 103.00075533887248,
        "ticks": 72960
      },
      {
        "bpm": 105.00157502362535,
        "ticks": 80448
      },
      {
        "bpm": 103.00075533887248,
        "ticks": 85632
      },
      {
        "bpm": 98.00078400627206,
        "ticks": 93696
      },
      {
        "bpm": 94.00115934763195,
        "ticks": 94080
      },
      {
        "bpm": 85.00028333427778,
        "ticks": 94272
      },
      {
        "bpm": 70.00023333411112,
        "ticks": 94656
      }
    ],
    "timeSignatures": [
      {
        "ticks": 0,
        "timeSignature": [
          4,
          4
        ],
        "measures": 0
      }
    ]
  },
  "tracks": [
    {
      "channel": 0,
      "controlChanges": {
        "7": [
          {
            "number": 7,
            "ticks": 2012,
            "time": 3.052162083333333,
            "value": 0.7007874015748031
          }
        ],
        "10": [
          {
            "number": 10,
            "ticks": 2008,
            "time": 3.046094166666667,
            "value": 0.5039370078740157
          }
        ],
        "11": [
          {
            "number": 11,
            "ticks": 2020,
            "time": 3.064297916666667,
            "value": 1
          }
        ],
        "91": [
          {
            "number": 91,
            "ticks": 2020,
            "time": 3.064297916666667,
            "value": 0.1732283464566929
          }
        ],
        "93": [
          {
            "number": 93,
            "ticks": 2016,
            "time": 3.05823,
            "value": 0.47244094488188976
          }
        ],
        "121": [
          {
            "number": 121,
            "ticks": 1920,
            "time": 2.9126000000000003,
            "value": 0
          }
        ]
      },
      "pitchBends": [
        {
          "ticks": 2078,
          "time": 3.1522827083333333,
          "value": 0
        }
      ],
      "instrument": {
        "family": "piano",
        "number": 0,
        "name": "acoustic grand piano"
      },
      "name": "FRETLESS",
      "notes": [],
      "endOfTrackTicks": 96768
    },
    {
      "channel": 1,
      "controlChanges": {
        "0": [
          {
            "number": 0,
            "ticks": 2282,
            "time": 3.4617464583333333,
            "value": 0
          }
        ],
        "32": [
          {
            "number": 32,
            "ticks": 2282,
            "time": 3.4617464583333333,
            "value": 0
          }
        ],
        "120": [
          {
            "number": 120,
            "ticks": 95724,
            "time": 144.41426614583335,
            "value": 0
          }
        ],
        "123": [
          {
            "number": 123,
            "ticks": 95650,
            "time": 144.24908812500001,
            "value": 0
          }
        ]
      },
      "pitchBends": [],
      "instrument": {
        "family": "bass",
        "number": 35,
        "name": "fretless bass"
      },
      "name": "",
      "notes": [
        {
          "duration": 1.6808129166666665,
          "durationTicks": 1108,
          "midi": 33,
          "name": "A1",
          "ticks": 3840,
          "time": 5.825200000000001,
          "velocity": 0.905511811023622
        },
        {
          "duration": 1.5427868749999991,
          "durationTicks": 1046,
          "midi": 28,
          "name": "E1",
          "ticks": 4970,
          "time": 7.539386458333334,
          "velocity": 0.937007874015748
        },
        {
          "duration": 1.6503973437500008,
          "durationTicks": 1130,
          "midi": 33,
          "name": "A1",
          "ticks": 6122,
          "time": 9.238421197916667,
          "velocity": 0.9133858267716536
        },
        {
          "duration": 1.5553260416666657,
          "durationTicks": 1046,
          "midi": 33,
          "name": "A1",
          "ticks": 8448,
          "time": 12.635290000000001,
          "velocity": 0.905511811023622
        },
        {
          "duration": 1.6521633333333323,
          "durationTicks": 1058,
          "midi": 28,
          "name": "E1",
          "ticks": 9584,
          "time": 14.325831666666668,
          "velocity": 0.9291338582677166
        },
        {
          "duration": 1.0953705208333346,
          "durationTicks": 736,
          "midi": 33,
          "name": "A1",
          "ticks": 10750,
          "time": 16.146745,
          "velocity": 0.8740157480314961
        },
        {
          "duration": 1.7312499999999993,
          "durationTicks": 1108,
          "midi": 33,
          "name": "A1",
          "ticks": 13056,
          "time": 19.57839,
          "velocity": 0.905511811023622
        },
        {
          "duration": 1.6343749999999986,
          "durationTicks": 1046,
          "midi": 28,
          "name": "E1",
          "ticks": 14186,
          "time": 21.344015,
          "velocity": 0.9133858267716536
        },
        {
          "duration": 1.7990650000000024,
          "durationTicks": 1174,
          "midi": 33,
          "name": "A1",
          "ticks": 15338,
          "time": 23.144015,
          "velocity": 0.9133858267716536
        },
        {
          "duration": 1.6023140104166664,
          "durationTicks": 1046,
          "midi": 33,
          "name": "A1",
          "ticks": 17664,
          "time": 26.70777,
          "velocity": 0.905511811023622
        },
        {
          "duration": 1.620696197916665,
          "durationTicks": 1058,
          "midi": 28,
          "name": "E1",
          "ticks": 18800,
          "time": 28.447950416666668,
          "velocity": 0.9291338582677166
        },
        {
          "duration": 0.7946309374999991,
          "durationTicks": 534,
          "midi": 33,
          "name": "A1",
          "ticks": 19968,
          "time": 30.23715,
          "velocity": 0.9291338582677166
        },
        {
          "duration": 0.7886786458333326,
          "durationTicks": 530,
          "midi": 31,
          "name": "G1",
          "ticks": 20544,
          "time": 31.09428,
          "velocity": 0.9763779527559056
        },
        {
          "duration": 1.4850967708333336,
          "durationTicks": 998,
          "midi": 36,
          "name": "C2",
          "ticks": 21116,
          "time": 31.945457708333333,
          "velocity": 0.9763779527559056
        },
        {
          "duration": 0.7023704166666676,
          "durationTicks": 472,
          "midi": 31,
          "name": "G1",
          "ticks": 22274,
          "time": 33.668646145833335,
          "velocity": 0.9448818897637795
        },
        {
          "duration": 0.7053465624999973,
          "durationTicks": 474,
          "midi": 32,
          "name": "G#1",
          "ticks": 22850,
          "time": 34.52577614583333,
          "velocity": 0.968503937007874
        },
        {
          "duration": 1.178553749999999,
          "durationTicks": 792,
          "midi": 33,
          "name": "A1",
          "ticks": 23430,
          "time": 35.3888584375,
          "velocity": 0.9448818897637795
        },
        {
          "duration": 0.2857099999999946,
          "durationTicks": 192,
          "midi": 33,
          "name": "A1",
          "ticks": 24392,
          "time": 36.820384583333336,
          "velocity": 0.968503937007874
        },
        {
          "duration": 3.463547187499998,
          "durationTicks": 2316,
          "midi": 28,
          "name": "E1",
          "ticks": 24582,
          "time": 37.1031184375,
          "velocity": 0.952755905511811
        },
        {
          "duration": 1.6808129166666674,
          "durationTicks": 1108,
          "midi": 33,
          "name": "A1",
          "ticks": 28032,
          "time": 42.286919999999995,
          "velocity": 0.905511811023622
        },
        {
          "duration": 1.586760208333331,
          "durationTicks": 1046,
          "midi": 28,
          "name": "E1",
          "ticks": 29162,
          "time": 44.00110645833333,
          "velocity": 0.9133858267716536
        },
        {
          "duration": 1.7314635416666633,
          "durationTicks": 1174,
          "midi": 33,
          "name": "A1",
          "ticks": 30314,
          "time": 45.74866645833333,
          "velocity": 0.9133858267716536
        },
        {
          "duration": 1.5418421354166654,
          "durationTicks": 1046,
          "midi": 33,
          "name": "A1",
          "ticks": 32640,
          "time": 49.178219999999996,
          "velocity": 0.905511811023622
        },
        {
          "duration": 1.559530572916664,
          "durationTicks": 1058,
          "midi": 28,
          "name": "E1",
          "ticks": 33776,
          "time": 50.852725416666665,
          "velocity": 0.9291338582677166
        },
        {
          "duration": 0.7871354687499945,
          "durationTicks": 534,
          "midi": 33,
          "name": "A1",
          "ticks": 34944,
          "time": 52.5744,
          "velocity": 0.9291338582677166
        },
        {
          "duration": 0.7812393229166688,
          "durationTicks": 530,
          "midi": 31,
          "name": "G1",
          "ticks": 35520,
          "time": 53.423444999999994,
          "velocity": 0.9763779527559056
        },
        {
          "duration": 1.4710883854166639,
          "durationTicks": 998,
          "midi": 36,
          "name": "C2",
          "ticks": 36092,
          "time": 54.266593854166665,
          "velocity": 0.9763779527559056
        },
        {
          "duration": 0.6957452083333351,
          "durationTicks": 472,
          "midi": 31,
          "name": "G1",
          "ticks": 37250,
          "time": 55.973528072916665,
          "velocity": 0.9448818897637795
        },
        {
          "duration": 0.6986932812500015,
          "durationTicks": 474,
          "midi": 32,
          "name": "G#1",
          "ticks": 37826,
          "time": 56.82257307291666,
          "velocity": 0.968503937007874
        },
        {
          "duration": 1.167436875,
          "durationTicks": 792,
          "midi": 33,
          "name": "A1",
          "ticks": 38406,
          "time": 57.67751421875,
          "velocity": 0.9448818897637795
        },
        {
          "duration": 0.283015000000006,
          "durationTicks": 192,
          "midi": 33,
          "name": "A1",
          "ticks": 39368,
          "time": 59.09553729166666,
          "velocity": 0.968503937007874
        },
        {
          "duration": 3.4149090625000014,
          "durationTicks": 2316,
          "midi": 28,
          "name": "E1",
          "ticks": 39558,
          "time": 59.37560421875,
          "velocity": 0.952755905511811
        },
        {
          "duration": 1.697288645833325,
          "durationTicks": 1108,
          "midi": 33,
          "name": "A1",
          "ticks": 43008,
          "time": 64.52763,
          "velocity": 0.905511811023622
        },
        {
          "duration": 1.6023140104166629,
          "durationTicks": 1046,
          "midi": 28,
          "name": "E1",
          "ticks": 44138,
          "time": 66.25861932291667,
          "velocity": 0.9133858267716536
        },
        {
          "duration": 1.7479606770833271,
          "durationTicks": 1174,
          "midi": 33,
          "name": "A1",
          "ticks": 45290,
          "time": 68.02330932291667,
          "velocity": 0.9133858267716536
        },
        {
          "duration": 1.5565242708333216,
          "durationTicks": 1046,
          "midi": 33,
          "name": "A1",
          "ticks": 47616,
          "time": 71.48553000000001,
          "velocity": 0.905511811023622
        },
        {
          "duration": 1.5743811458333283,
          "durationTicks": 1058,
          "midi": 28,
          "name": "E1",
          "ticks": 48752,
          "time": 73.17598083333334,
          "velocity": 0.9291338582677166
        },
        {
          "duration": 0.7946309375000027,
          "durationTicks": 534,
          "midi": 33,
          "name": "A1",
          "ticks": 49920,
          "time": 74.91405,
          "velocity": 0.9291338582677166
        },
        {
          "duration": 0.1755926041666669,
          "durationTicks": 118,
          "midi": 34,
          "name": "A#1",
          "ticks": 50504,
          "time": 75.78308458333333,
          "velocity": 0.9921259842519685
        },
        {
          "duration": 0.18154489583332634,
          "durationTicks": 122,
          "midi": 33,
          "name": "A1",
          "ticks": 50698,
          "time": 76.07177072916667,
          "velocity": 0.952755905511811
        },
        {
          "duration": 0.2083302083333365,
          "durationTicks": 140,
          "midi": 31,
          "name": "G1",
          "ticks": 50888,
          "time": 76.35450458333334,
          "velocity": 0.968503937007874
        },
        {
          "duration": 1.1428399999999925,
          "durationTicks": 768,
          "midi": 29,
          "name": "F1",
          "ticks": 51080,
          "time": 76.64021458333335,
          "velocity": 0.968503937007874
        },
        {
          "duration": 0.3005907291666574,
          "durationTicks": 202,
          "midi": 29,
          "name": "F1",
          "ticks": 52034,
          "time": 78.05983614583334,
          "velocity": 0.9448818897637795
        },
        {
          "duration": 1.1636730208333432,
          "durationTicks": 782,
          "midi": 34,
          "name": "A#1",
          "ticks": 52236,
          "time": 78.360426875,
          "velocity": 0.9448818897637795
        },
        {
          "duration": 0.23809166666666215,
          "durationTicks": 160,
          "midi": 34,
          "name": "A#1",
          "ticks": 53182,
          "time": 79.76814385416668,
          "velocity": 0.9606299212598425
        },
        {
          "duration": 1.2351005208333277,
          "durationTicks": 830,
          "midi": 29,
          "name": "F1",
          "ticks": 53368,
          "time": 80.04492541666667,
          "velocity": 0.905511811023622
        },
        {
          "duration": 0.22321093749999932,
          "durationTicks": 150,
          "midi": 29,
          "name": "F1",
          "ticks": 54326,
          "time": 81.47049927083334,
          "velocity": 0.9763779527559056
        },
        {
          "duration": 1.2559335416666642,
          "durationTicks": 844,
          "midi": 29,
          "name": "F1",
          "ticks": 54530,
          "time": 81.77406614583334,
          "velocity": 0.9606299212598425
        },
        {
          "duration": 0.22618708333334325,
          "durationTicks": 152,
          "midi": 29,
          "name": "F1",
          "ticks": 55472,
          "time": 83.17583083333334,
          "velocity": 0.9606299212598425
        },
        {
          "duration": 1.3184326041666594,
          "durationTicks": 886,
          "midi": 41,
          "name": "F2",
          "ticks": 55672,
          "time": 83.47344541666668,
          "velocity": 0.8976377952755905
        },
        {
          "duration": 0.2976145833333419,
          "durationTicks": 200,
          "midi": 41,
          "name": "F2",
          "ticks": 56632,
          "time": 84.90199541666667,
          "velocity": 0.8740157480314961
        },
        {
          "duration": 0.7827263541666696,
          "durationTicks": 526,
          "midi": 40,
          "name": "E2",
          "ticks": 56838,
          "time": 85.20853843750001,
          "velocity": 0.8976377952755905
        },
        {
          "duration": 0.6309429166666689,
          "durationTicks": 424,
          "midi": 38,
          "name": "D2",
          "ticks": 57422,
          "time": 86.07757302083334,
          "velocity": 0.8740157480314961
        },
        {
          "duration": 0.7410603124999966,
          "durationTicks": 498,
          "midi": 36,
          "name": "C2",
          "ticks": 57972,
          "time": 86.89601312500001,
          "velocity": 0.8582677165354331
        },
        {
          "duration": 0.6845135416666608,
          "durationTicks": 460,
          "midi": 31,
          "name": "G1",
          "ticks": 58554,
          "time": 87.76207156250001,
          "velocity": 0.968503937007874
        },
        {
          "duration": 0.49404020833333107,
          "durationTicks": 332,
          "midi": 36,
          "name": "C2",
          "ticks": 59126,
          "time": 88.61324927083334,
          "velocity": 0.984251968503937
        },
        {
          "duration": 0.1994017708333189,
          "durationTicks": 134,
          "midi": 41,
          "name": "F2",
          "ticks": 59702,
          "time": 89.47037927083335,
          "velocity": 0.9763779527559056
        },
        {
          "duration": 0.17261645833333716,
          "durationTicks": 116,
          "midi": 40,
          "name": "E2",
          "ticks": 59904,
          "time": 89.77097,
          "velocity": 0.9763779527559056
        },
        {
          "duration": 0.1339265624999939,
          "durationTicks": 90,
          "midi": 38,
          "name": "D2",
          "ticks": 60100,
          "time": 90.06263229166667,
          "velocity": 0.952755905511811
        },
        {
          "duration": 0.42558885416667636,
          "durationTicks": 286,
          "midi": 36,
          "name": "C2",
          "ticks": 60292,
          "time": 90.34834229166667,
          "velocity": 0.9921259842519685
        },
        {
          "duration": 0.4674798958333355,
          "durationTicks": 316,
          "midi": 29,
          "name": "F1",
          "ticks": 60676,
          "time": 90.91976229166667,
          "velocity": 0.9763779527559056
        },
        {
          "duration": 0.40978213541666264,
          "durationTicks": 278,
          "midi": 31,
          "name": "G1",
          "ticks": 61058,
          "time": 91.48452859375,
          "velocity": 0.9763779527559056
        },
        {
          "duration": 0.6334499479166738,
          "durationTicks": 432,
          "midi": 33,
          "name": "A1",
          "ticks": 61442,
          "time": 92.05055859375,
          "velocity": 0.9921259842519685
        },
        {
          "duration": 0.6863223958333293,
          "durationTicks": 470,
          "midi": 38,
          "name": "D2",
          "ticks": 62004,
          "time": 92.87384239583334,
          "velocity": 0.9763779527559056
        },
        {
          "duration": 0.7534943750000025,
          "durationTicks": 516,
          "midi": 36,
          "name": "C2",
          "ticks": 62590,
          "time": 93.729555,
          "velocity": 0.968503937007874
        },
        {
          "duration": 0.5110911458333334,
          "durationTicks": 350,
          "midi": 31,
          "name": "G1",
          "ticks": 63168,
          "time": 94.57358552083333,
          "velocity": 0.9606299212598425
        },
        {
          "duration": 0.2774494791666626,
          "durationTicks": 190,
          "midi": 31,
          "name": "G1",
          "ticks": 63552,
          "time": 95.13432552083334,
          "velocity": 0.889763779527559
        },
        {
          "duration": 0.4818859375000102,
          "durationTicks": 330,
          "midi": 36,
          "name": "C2",
          "ticks": 63744,
          "time": 95.41469552083333,
          "velocity": 0.984251968503937
        },
        {
          "duration": 0.19567489583333497,
          "durationTicks": 134,
          "midi": 41,
          "name": "F2",
          "ticks": 64320,
          "time": 96.25580552083333,
          "velocity": 0.9763779527559056
        },
        {
          "duration": 0.16939020833332563,
          "durationTicks": 116,
          "midi": 40,
          "name": "E2",
          "ticks": 64512,
          "time": 96.53617552083334,
          "velocity": 0.9763779527559056
        },
        {
          "duration": 0.13142343750000407,
          "durationTicks": 90,
          "midi": 38,
          "name": "D2",
          "ticks": 64704,
          "time": 96.81654552083333,
          "velocity": 0.952755905511811
        },
        {
          "duration": 0.4176344791666651,
          "durationTicks": 286,
          "midi": 36,
          "name": "C2",
          "ticks": 64896,
          "time": 97.09691552083333,
          "velocity": 0.9921259842519685
        },
        {
          "duration": 0.46144229166665696,
          "durationTicks": 316,
          "midi": 29,
          "name": "F1",
          "ticks": 65280,
          "time": 97.65765552083334,
          "velocity": 0.9763779527559056
        },
        {
          "duration": 0.40595239583332443,
          "durationTicks": 278,
          "midi": 31,
          "name": "G1",
          "ticks": 65664,
          "time": 98.21839552083334,
          "velocity": 0.9763779527559056
        },
        {
          "duration": 1.682220000000001,
          "durationTicks": 1152,
          "midi": 28,
          "name": "E1",
          "ticks": 66048,
          "time": 98.77913552083334,
          "velocity": 0.9921259842519685
        },
        {
          "duration": 1.6646545833333306,
          "durationTicks": 1108,
          "midi": 33,
          "name": "A1",
          "ticks": 70656,
          "time": 105.55609052083334,
          "velocity": 0.905511811023622
        },
        {
          "duration": 1.633052708333338,
          "durationTicks": 1046,
          "midi": 28,
          "name": "E1",
          "ticks": 71786,
          "time": 107.2537978125,
          "velocity": 0.9133858267716536
        },
        {
          "duration": 1.78193499999999,
          "durationTicks": 1174,
          "midi": 33,
          "name": "A1",
          "ticks": 72938,
          "time": 109.05247552083334,
          "velocity": 0.9133858267716536
        },
        {
          "duration": 1.586760208333331,
          "durationTicks": 1046,
          "midi": 33,
          "name": "A1",
          "ticks": 75264,
          "time": 112.58197052083334,
          "velocity": 0.905511811023622
        },
        {
          "duration": 1.604963958333343,
          "durationTicks": 1058,
          "midi": 28,
          "name": "E1",
          "ticks": 76400,
          "time": 114.30525885416667,
          "velocity": 0.9291338582677166
        },
        {
          "duration": 0.810066875000004,
          "durationTicks": 534,
          "midi": 33,
          "name": "A1",
          "ticks": 77568,
          "time": 116.07709052083334,
          "velocity": 0.9291338582677166
        },
        {
          "duration": 0.803998958333338,
          "durationTicks": 530,
          "midi": 31,
          "name": "G1",
          "ticks": 78144,
          "time": 116.95087052083333,
          "velocity": 0.9763779527559056
        },
        {
          "duration": 1.5139452083333396,
          "durationTicks": 998,
          "midi": 36,
          "name": "C2",
          "ticks": 78716,
          "time": 117.81858260416666,
          "velocity": 0.9763779527559056
        },
        {
          "duration": 0.7160141666666675,
          "durationTicks": 472,
          "midi": 31,
          "name": "G1",
          "ticks": 79874,
          "time": 119.57524447916667,
          "velocity": 0.9448818897637795
        },
        {
          "duration": 0.7053465624999973,
          "durationTicks": 474,
          "midi": 32,
          "name": "G#1",
          "ticks": 80450,
          "time": 120.44896666666666,
          "velocity": 0.968503937007874
        },
        {
          "duration": 1.178553750000006,
          "durationTicks": 792,
          "midi": 33,
          "name": "A1",
          "ticks": 81030,
          "time": 121.31204895833334,
          "velocity": 0.9448818897637795
        },
        {
          "duration": 0.2857099999999946,
          "durationTicks": 192,
          "midi": 33,
          "name": "A1",
          "ticks": 81992,
          "time": 122.74357510416667,
          "velocity": 0.968503937007874
        },
        {
          "duration": 3.4463768749999986,
          "durationTicks": 2316,
          "midi": 28,
          "name": "E1",
          "ticks": 82182,
          "time": 123.02630895833333,
          "velocity": 0.952755905511811
        },
        {
          "duration": 1.6808129166666674,
          "durationTicks": 1108,
          "midi": 33,
          "name": "A1",
          "ticks": 85632,
          "time": 128.16016052083333,
          "velocity": 0.905511811023622
        },
        {
          "duration": 1.5867602083333452,
          "durationTicks": 1046,
          "midi": 28,
          "name": "E1",
          "ticks": 86762,
          "time": 129.87434697916666,
          "velocity": 0.9133858267716536
        },
        {
          "duration": 1.780933541666684,
          "durationTicks": 1174,
          "midi": 33,
          "name": "A1",
          "ticks": 87914,
          "time": 131.62190697916665,
          "velocity": 0.9133858267716536
        },
        {
          "duration": 1.5867602083333452,
          "durationTicks": 1046,
          "midi": 33,
          "name": "A1",
          "ticks": 90240,
          "time": 135.15040052083333,
          "velocity": 0.905511811023622
        },
        {
          "duration": 1.604963958333343,
          "durationTicks": 1058,
          "midi": 28,
          "name": "E1",
          "ticks": 91376,
          "time": 136.87368885416666,
          "velocity": 0.9291338582677166
        },
        {
          "duration": 3.8133950000000425,
          "durationTicks": 2304,
          "midi": 33,
          "name": "A1",
          "ticks": 92544,
          "time": 138.64552052083332,
          "velocity": 0.9291338582677166
        }
      ]
    },
    {
      "channel": 0,
      "controlChanges": {
        "0": [
          {
            "number": 0,
            "ticks": 2312,
            "time": 3.5072558333333332,
            "value": 0
          }
        ],
        "7": [
          {
            "number": 7,
            "ticks": 2036,
            "time": 3.0885695833333333,
            "value": 0.5433070866141733
          }
        ],
        "10": [
          {
            "number": 10,
            "ticks": 2032,
            "time": 3.082501666666667,
            "value": 0.5039370078740157
          }
        ],
        "11": [
          {
            "number": 11,
            "ticks": 2118,
            "time": 3.2129618750000004,
            "value": 1
          }
        ],
        "32": [
          {
            "number": 32,
            "ticks": 2312,
            "time": 3.5072558333333332,
            "value": 0
          }
        ],
        "91": [
          {
            "number": 91,
            "ticks": 2044,
            "time": 3.100705416666667,
            "value": 0.7874015748031497
          }
        ],
        "93": [
          {
            "number": 93,
            "ticks": 2040,
            "time": 3.0946375,
            "value": 0.7874015748031497
          }
        ],
        "121": [
          {
            "number": 121,
            "ticks": 1922,
            "time": 2.9156339583333333,
            "value": 0
          }
        ]
      },
      "pitchBends": [
        {
          "ticks": 2176,
          "time": 3.300946666666667,
          "value": 0
        }
      ],
      "instrument": {
        "family": "piano",
        "number": 0,
        "name": "acoustic grand piano"
      },
      "name": "SLOWSTRING",
      "notes": [],
      "endOfTrackTicks": 96768
    },
    {
      "channel": 2,
      "controlChanges": {
        "7": [
          {
            "number": 7,
            "ticks": 66504,
            "time": 99.44501427083334,
            "value": 0.5118110236220472
          },
          {
            "number": 7,
            "ticks": 66600,
            "time": 99.58519927083334,
            "value": 0.47244094488188976
          },
          {
            "number": 7,
            "ticks": 66624,
            "time": 99.62024552083334,
            "value": 0.47244094488188976
          },
          {
            "number": 7,
            "ticks": 66744,
            "time": 99.79547677083333,
            "value": 0.44881889763779526
          },
          {
            "number": 7,
            "ticks": 66840,
            "time": 99.93566177083333,
            "value": 0.4330708661417323
          },
          {
            "number": 7,
            "ticks": 66936,
            "time": 100.07584677083334,
            "value": 0.41732283464566927
          },
          {
            "number": 7,
            "ticks": 67032,
            "time": 100.21603177083334,
            "value": 0.4015748031496063
          },
          {
            "number": 7,
            "ticks": 67104,
            "time": 100.32117052083333,
            "value": 0.3858267716535433
          },
          {
            "number": 7,
            "ticks": 67176,
            "time": 100.42630927083334,
            "value": 0.36220472440944884
          },
          {
            "number": 7,
            "ticks": 67248,
            "time": 100.53144802083334,
            "value": 0.33858267716535434
          },
          {
            "number": 7,
            "ticks": 68016,
            "time": 101.65292802083334,
            "value": 0.5118110236220472
          },
          {
            "number": 7,
            "ticks": 68040,
            "time": 101.68797427083334,
            "value": 0.5433070866141733
          }
        ],
        "120": [
          {
            "number": 120,
            "ticks": 95720,
            "time": 144.40533760416668,
            "value": 0
          }
        ],
        "123": [
          {
            "number": 123,
            "ticks": 95640,
            "time": 144.22676677083336,
            "value": 0
          }
        ]
      },
      "pitchBends": [],
      "instrument": {
        "family": "ensemble",
        "number": 49,
        "name": "string ensemble 2"
      },
      "name": "",
      "notes": [
        {
          "duration": 0.3452329166666672,
          "durationTicks": 232,
          "midi": 76,
          "name": "E5",
          "ticks": 11520,
          "time": 17.29271,
          "velocity": 0.6850393700787402
        },
        {
          "duration": 0.34225677083333395,
          "durationTicks": 230,
          "midi": 75,
          "name": "D#5",
          "ticks": 11710,
          "time": 17.575443854166668,
          "velocity": 0.6299212598425197
        },
        {
          "duration": 0.3333283333333341,
          "durationTicks": 224,
          "midi": 76,
          "name": "E5",
          "ticks": 11906,
          "time": 17.867106145833333,
          "velocity": 0.7165354330708661
        },
        {
          "duration": 0.32439989583333073,
          "durationTicks": 218,
          "midi": 75,
          "name": "D#5",
          "ticks": 12090,
          "time": 18.1409115625,
          "velocity": 0.6771653543307087
        },
        {
          "duration": 0.3095191666666679,
          "durationTicks": 208,
          "midi": 76,
          "name": "E5",
          "ticks": 12274,
          "time": 18.414716979166666,
          "velocity": 0.7165354330708661
        },
        {
          "duration": 0.32439989583333073,
          "durationTicks": 218,
          "midi": 71,
          "name": "B4",
          "ticks": 12444,
          "time": 18.667689375000002,
          "velocity": 0.7165354330708661
        },
        {
          "duration": 0.3868989583333331,
          "durationTicks": 260,
          "midi": 74,
          "name": "D5",
          "ticks": 12630,
          "time": 18.9444709375,
          "velocity": 0.6692913385826772
        },
        {
          "duration": 0.3840726041666649,
          "durationTicks": 256,
          "midi": 72,
          "name": "C5",
          "ticks": 12842,
          "time": 19.259942395833335,
          "velocity": 0.7795275590551181
        },
        {
          "duration": 1.8308034374999984,
          "durationTicks": 1172,
          "midi": 69,
          "name": "A4",
          "ticks": 13050,
          "time": 19.5694615625,
          "velocity": 0.6220472440944882
        },
        {
          "duration": 1.4840772916666651,
          "durationTicks": 950,
          "midi": 57,
          "name": "A3",
          "ticks": 13052,
          "time": 19.572437708333332,
          "velocity": 0.4015748031496063
        },
        {
          "duration": 5.389024479166668,
          "durationTicks": 3472,
          "midi": 64,
          "name": "E4",
          "ticks": 13052,
          "time": 19.572437708333332,
          "velocity": 0.49606299212598426
        },
        {
          "duration": 1.8404761458333319,
          "durationTicks": 1178,
          "midi": 60,
          "name": "C4",
          "ticks": 13054,
          "time": 19.575413854166666,
          "velocity": 0.5118110236220472
        },
        {
          "duration": 1.8218749999999986,
          "durationTicks": 1166,
          "midi": 68,
          "name": "G#4",
          "ticks": 14190,
          "time": 21.350265,
          "velocity": 0.5275590551181102
        },
        {
          "duration": 1.6656249999999986,
          "durationTicks": 1066,
          "midi": 71,
          "name": "B4",
          "ticks": 14190,
          "time": 21.350265,
          "velocity": 0.6220472440944882
        },
        {
          "duration": 1.6875,
          "durationTicks": 1080,
          "midi": 52,
          "name": "E3",
          "ticks": 14196,
          "time": 21.35964,
          "velocity": 0.3937007874015748
        },
        {
          "duration": 1.9547632812500026,
          "durationTicks": 1274,
          "midi": 57,
          "name": "A3",
          "ticks": 15256,
          "time": 23.01589,
          "velocity": 0.5118110236220472
        },
        {
          "duration": 1.4825859895833347,
          "durationTicks": 966,
          "midi": 72,
          "name": "C5",
          "ticks": 15268,
          "time": 23.03464,
          "velocity": 0.4251968503937008
        },
        {
          "duration": 1.9323978645833364,
          "durationTicks": 1260,
          "midi": 69,
          "name": "A4",
          "ticks": 15286,
          "time": 23.062765,
          "velocity": 0.5118110236220472
        },
        {
          "duration": 1.7800084895833344,
          "durationTicks": 1162,
          "midi": 69,
          "name": "A4",
          "ticks": 17648,
          "time": 26.683260416666666,
          "velocity": 0.6299212598425197
        },
        {
          "duration": 4.297926041666667,
          "durationTicks": 2820,
          "midi": 64,
          "name": "E4",
          "ticks": 17648,
          "time": 26.683260416666666,
          "velocity": 0.4881889763779528
        },
        {
          "duration": 1.7309893229166669,
          "durationTicks": 1130,
          "midi": 57,
          "name": "A3",
          "ticks": 17656,
          "time": 26.695515208333333,
          "velocity": 0.6141732283464567
        },
        {
          "duration": 1.2469250520833342,
          "durationTicks": 814,
          "midi": 60,
          "name": "C4",
          "ticks": 17982,
          "time": 27.19489796875,
          "velocity": 0.33858267716535434
        },
        {
          "duration": 1.706479739583333,
          "durationTicks": 1114,
          "midi": 52,
          "name": "E3",
          "ticks": 18764,
          "time": 28.39280385416667,
          "velocity": 0.48031496062992124
        },
        {
          "duration": 1.7922632812500012,
          "durationTicks": 1170,
          "midi": 68,
          "name": "G#4",
          "ticks": 18776,
          "time": 28.411186041666667,
          "velocity": 0.5669291338582677
        },
        {
          "duration": 1.7830721875000002,
          "durationTicks": 1164,
          "midi": 71,
          "name": "B4",
          "ticks": 18778,
          "time": 28.414249739583333,
          "velocity": 0.6220472440944882
        },
        {
          "duration": 0.9614708333333333,
          "durationTicks": 644,
          "midi": 57,
          "name": "A3",
          "ticks": 19896,
          "time": 30.126856875,
          "velocity": 0.5905511811023622
        },
        {
          "duration": 0.9874681770833327,
          "durationTicks": 662,
          "midi": 69,
          "name": "A4",
          "ticks": 19914,
          "time": 30.15443015625,
          "velocity": 0.6220472440944882
        },
        {
          "duration": 0.9517544270833334,
          "durationTicks": 638,
          "midi": 60,
          "name": "C4",
          "ticks": 19914,
          "time": 30.15443015625,
          "velocity": 0.6850393700787402
        },
        {
          "duration": 0.8779630208333309,
          "durationTicks": 590,
          "midi": 55,
          "name": "G3",
          "ticks": 20544,
          "time": 31.09428,
          "velocity": 0.5433070866141733
        },
        {
          "duration": 0.7559410416666665,
          "durationTicks": 508,
          "midi": 67,
          "name": "G4",
          "ticks": 20546,
          "time": 31.097256145833335,
          "velocity": 0.6850393700787402
        },
        {
          "duration": 0.7440364583333334,
          "durationTicks": 500,
          "midi": 62,
          "name": "D4",
          "ticks": 20548,
          "time": 31.100232291666668,
          "velocity": 0.6771653543307087
        },
        {
          "duration": 0.8690345833333311,
          "durationTicks": 584,
          "midi": 71,
          "name": "B4",
          "ticks": 20548,
          "time": 31.100232291666668,
          "velocity": 0.7007874015748031
        },
        {
          "duration": 1.7559260416666689,
          "durationTicks": 1180,
          "midi": 60,
          "name": "C4",
          "ticks": 21102,
          "time": 31.9246246875,
          "velocity": 0.5984251968503937
        },
        {
          "duration": 1.6785462500000001,
          "durationTicks": 1128,
          "midi": 67,
          "name": "G4",
          "ticks": 21104,
          "time": 31.927600833333333,
          "velocity": 0.6535433070866141
        },
        {
          "duration": 1.6755701041666704,
          "durationTicks": 1126,
          "midi": 72,
          "name": "C5",
          "ticks": 21108,
          "time": 31.933553125,
          "velocity": 0.6771653543307087
        },
        {
          "duration": 1.586285729166665,
          "durationTicks": 1066,
          "midi": 64,
          "name": "E4",
          "ticks": 21108,
          "time": 31.933553125,
          "velocity": 0.6062992125984252
        },
        {
          "duration": 0.7529648958333368,
          "durationTicks": 506,
          "midi": 67,
          "name": "G4",
          "ticks": 22268,
          "time": 33.65971770833333,
          "velocity": 0.6850393700787402
        },
        {
          "duration": 1.51485822916667,
          "durationTicks": 1018,
          "midi": 71,
          "name": "B4",
          "ticks": 22276,
          "time": 33.671622291666665,
          "velocity": 0.6771653543307087
        },
        {
          "duration": 0.8392731250000054,
          "durationTicks": 564,
          "midi": 55,
          "name": "G3",
          "ticks": 22284,
          "time": 33.683526875,
          "velocity": 0.7007874015748031
        },
        {
          "duration": 1.7172361458333327,
          "durationTicks": 1154,
          "midi": 74,
          "name": "D5",
          "ticks": 22296,
          "time": 33.70138375,
          "velocity": 0.5984251968503937
        },
        {
          "duration": 0.8779630208333344,
          "durationTicks": 590,
          "midi": 56,
          "name": "G#3",
          "ticks": 22828,
          "time": 34.493038541666664,
          "velocity": 0.6692913385826772
        },
        {
          "duration": 0.776774062500003,
          "durationTicks": 522,
          "midi": 68,
          "name": "G#4",
          "ticks": 22846,
          "time": 34.51982385416667,
          "velocity": 0.6535433070866141
        },
        {
          "duration": 1.7112838541666662,
          "durationTicks": 1150,
          "midi": 57,
          "name": "A3",
          "ticks": 23394,
          "time": 35.3352878125,
          "velocity": 0.7165354330708661
        },
        {
          "duration": 1.4493830208333307,
          "durationTicks": 974,
          "midi": 64,
          "name": "E4",
          "ticks": 23396,
          "time": 35.338263958333336,
          "velocity": 0.4015748031496063
        },
        {
          "duration": 1.7023554166666628,
          "durationTicks": 1144,
          "midi": 69,
          "name": "A4",
          "ticks": 23396,
          "time": 35.338263958333336,
          "velocity": 0.47244094488188976
        },
        {
          "duration": 1.6368802083333307,
          "durationTicks": 1100,
          "midi": 72,
          "name": "C5",
          "ticks": 23400,
          "time": 35.34421625,
          "velocity": 0.5905511811023622
        },
        {
          "duration": 1.8094966666666679,
          "durationTicks": 1216,
          "midi": 71,
          "name": "B4",
          "ticks": 24512,
          "time": 36.99895333333333,
          "velocity": 0.4251968503937008
        },
        {
          "duration": 1.7678306249999949,
          "durationTicks": 1188,
          "midi": 64,
          "name": "E4",
          "ticks": 24514,
          "time": 37.00192947916667,
          "velocity": 0.36220472440944884
        },
        {
          "duration": 1.7916397916666682,
          "durationTicks": 1204,
          "midi": 68,
          "name": "G#4",
          "ticks": 24518,
          "time": 37.007881770833336,
          "velocity": 0.4645669291338583
        },
        {
          "duration": 1.8124728125000047,
          "durationTicks": 1218,
          "midi": 52,
          "name": "E3",
          "ticks": 24528,
          "time": 37.0227625,
          "velocity": 0.4645669291338583
        },
        {
          "duration": 0.3519391666666678,
          "durationTicks": 232,
          "midi": 76,
          "name": "E5",
          "ticks": 26482,
          "time": 39.93560229166666,
          "velocity": 0.47244094488188976
        },
        {
          "duration": 0.3489052083333348,
          "durationTicks": 230,
          "midi": 75,
          "name": "D#5",
          "ticks": 26674,
          "time": 40.22686229166666,
          "velocity": 0.5354330708661418
        },
        {
          "duration": 0.3398033333333288,
          "durationTicks": 224,
          "midi": 76,
          "name": "E5",
          "ticks": 26882,
          "time": 40.542393958333335,
          "velocity": 0.5984251968503937
        },
        {
          "duration": 0.330701458333337,
          "durationTicks": 218,
          "midi": 75,
          "name": "D#5",
          "ticks": 27066,
          "time": 40.821518125,
          "velocity": 0.6614173228346457
        },
        {
          "duration": 0.315531666666665,
          "durationTicks": 208,
          "midi": 76,
          "name": "E5",
          "ticks": 27250,
          "time": 41.10064229166667,
          "velocity": 0.7165354330708661
        },
        {
          "duration": 0.330701458333337,
          "durationTicks": 218,
          "midi": 71,
          "name": "B4",
          "ticks": 27420,
          "time": 41.35852875,
          "velocity": 0.7165354330708661
        },
        {
          "duration": 0.39441458333332946,
          "durationTicks": 260,
          "midi": 74,
          "name": "D5",
          "ticks": 27606,
          "time": 41.640686875,
          "velocity": 0.6692913385826772
        },
        {
          "duration": 0.3883466666666706,
          "durationTicks": 256,
          "midi": 72,
          "name": "C5",
          "ticks": 27818,
          "time": 41.96228645833333,
          "velocity": 0.7795275590551181
        },
        {
          "duration": 1.7778995833333369,
          "durationTicks": 1172,
          "midi": 69,
          "name": "A4",
          "ticks": 28026,
          "time": 42.277818124999996,
          "velocity": 0.6220472440944882
        },
        {
          "duration": 1.441130208333334,
          "durationTicks": 950,
          "midi": 57,
          "name": "A3",
          "ticks": 28028,
          "time": 42.28085208333333,
          "velocity": 0.4015748031496063
        },
        {
          "duration": 4.798339999999996,
          "durationTicks": 3188,
          "midi": 64,
          "name": "E4",
          "ticks": 28028,
          "time": 42.28085208333333,
          "velocity": 0.49606299212598426
        },
        {
          "duration": 1.7870014583333358,
          "durationTicks": 1178,
          "midi": 60,
          "name": "C4",
          "ticks": 28030,
          "time": 42.28388604166666,
          "velocity": 0.5118110236220472
        },
        {
          "duration": 1.7687977083333308,
          "durationTicks": 1166,
          "midi": 68,
          "name": "G#4",
          "ticks": 29166,
          "time": 44.007174375,
          "velocity": 0.5275590551181102
        },
        {
          "duration": 1.6170997916666678,
          "durationTicks": 1066,
          "midi": 71,
          "name": "B4",
          "ticks": 29166,
          "time": 44.007174375,
          "velocity": 0.6220472440944882
        },
        {
          "duration": 1.6383374999999987,
          "durationTicks": 1080,
          "midi": 52,
          "name": "E3",
          "ticks": 29172,
          "time": 44.01627625,
          "velocity": 0.3937007874015748
        },
        {
          "duration": 1.454917916666659,
          "durationTicks": 984,
          "midi": 57,
          "name": "A3",
          "ticks": 30232,
          "time": 45.624274166666666,
          "velocity": 0.5118110236220472
        },
        {
          "duration": 1.4278699479166619,
          "durationTicks": 966,
          "midi": 72,
          "name": "C5",
          "ticks": 30244,
          "time": 45.642477916666664,
          "velocity": 0.4251968503937008
        },
        {
          "duration": 1.4094085416666573,
          "durationTicks": 954,
          "midi": 69,
          "name": "A4",
          "ticks": 30262,
          "time": 45.66978354166667,
          "velocity": 0.5118110236220472
        },
        {
          "duration": 4.156782812499998,
          "durationTicks": 2820,
          "midi": 64,
          "name": "E4",
          "ticks": 32624,
          "time": 49.154635416666665,
          "velocity": 0.4881889763779528
        },
        {
          "duration": 1.7128303645833327,
          "durationTicks": 1162,
          "midi": 69,
          "name": "A4",
          "ticks": 32624,
          "time": 49.154635416666665,
          "velocity": 0.6299212598425197
        },
        {
          "duration": 1.6656611979166627,
          "durationTicks": 1130,
          "midi": 57,
          "name": "A3",
          "ticks": 32632,
          "time": 49.16642770833333,
          "velocity": 0.6141732283464567
        },
        {
          "duration": 1.606699739583334,
          "durationTicks": 1090,
          "midi": 60,
          "name": "C4",
          "ticks": 32640,
          "time": 49.178219999999996,
          "velocity": 0.4566929133858268
        },
        {
          "duration": 1.6420766145833312,
          "durationTicks": 1114,
          "midi": 52,
          "name": "E3",
          "ticks": 33740,
          "time": 50.79966010416666,
          "velocity": 0.48031496062992124
        },
        {
          "duration": 1.7246226562499984,
          "durationTicks": 1170,
          "midi": 68,
          "name": "G#4",
          "ticks": 33752,
          "time": 50.81734854166666,
          "velocity": 0.5669291338582677
        },
        {
          "duration": 1.7157784374999991,
          "durationTicks": 1164,
          "midi": 71,
          "name": "B4",
          "ticks": 33754,
          "time": 50.82029661458333,
          "velocity": 0.6220472440944882
        },
        {
          "duration": 0.9492794791666626,
          "durationTicks": 644,
          "midi": 57,
          "name": "A3",
          "ticks": 34872,
          "time": 52.468269375,
          "velocity": 0.5905511811023622
        },
        {
          "duration": 0.9758121354166676,
          "durationTicks": 662,
          "midi": 69,
          "name": "A4",
          "ticks": 34890,
          "time": 52.494802031249996,
          "velocity": 0.6220472440944882
        },
        {
          "duration": 0.9404352604166633,
          "durationTicks": 638,
          "midi": 60,
          "name": "C4",
          "ticks": 34890,
          "time": 52.494802031249996,
          "velocity": 0.6850393700787402
        },
        {
          "duration": 0.8696815104166689,
          "durationTicks": 590,
          "midi": 55,
          "name": "G3",
          "ticks": 35520,
          "time": 53.423444999999994,
          "velocity": 0.5433070866141733
        },
        {
          "duration": 0.748810520833338,
          "durationTicks": 508,
          "midi": 67,
          "name": "G4",
          "ticks": 35522,
          "time": 53.42639307291666,
          "velocity": 0.6850393700787402
        },
        {
          "duration": 0.7370182291666723,
          "durationTicks": 500,
          "midi": 62,
          "name": "D4",
          "ticks": 35524,
          "time": 53.42934114583333,
          "velocity": 0.6771653543307087
        },
        {
          "duration": 0.8608372916666696,
          "durationTicks": 584,
          "midi": 71,
          "name": "B4",
          "ticks": 35524,
          "time": 53.42934114583333,
          "velocity": 0.7007874015748031
        },
        {
          "duration": 1.7393630208333377,
          "durationTicks": 1180,
          "midi": 60,
          "name": "C4",
          "ticks": 36078,
          "time": 54.24595734374999,
          "velocity": 0.5984251968503937
        },
        {
          "duration": 1.6627131250000033,
          "durationTicks": 1128,
          "midi": 67,
          "name": "G4",
          "ticks": 36080,
          "time": 54.24890541666666,
          "velocity": 0.6535433070866141
        },
        {
          "duration": 1.659765052083337,
          "durationTicks": 1126,
          "midi": 72,
          "name": "C5",
          "ticks": 36084,
          "time": 54.25480156249999,
          "velocity": 0.6771653543307087
        },
        {
          "duration": 1.5713228645833368,
          "durationTicks": 1066,
          "midi": 64,
          "name": "E4",
          "ticks": 36084,
          "time": 54.25480156249999,
          "velocity": 0.6062992125984252
        },
        {
          "duration": 0.7458624479166645,
          "durationTicks": 506,
          "midi": 67,
          "name": "G4",
          "ticks": 37244,
          "time": 55.964683854166665,
          "velocity": 0.6850393700787402
        },
        {
          "duration": 1.5005691145833282,
          "durationTicks": 1018,
          "midi": 71,
          "name": "B4",
          "ticks": 37252,
          "time": 55.97647614583333,
          "velocity": 0.6771653543307087
        },
        {
          "duration": 0.8313565624999981,
          "durationTicks": 564,
          "midi": 55,
          "name": "G3",
          "ticks": 37260,
          "time": 55.9882684375,
          "velocity": 0.7007874015748031
        },
        {
          "duration": 1.701038072916667,
          "durationTicks": 1154,
          "midi": 74,
          "name": "D5",
          "ticks": 37272,
          "time": 56.005956874999995,
          "velocity": 0.5984251968503937
        },
        {
          "duration": 0.8696815104166618,
          "durationTicks": 590,
          "midi": 56,
          "name": "G#3",
          "ticks": 37804,
          "time": 56.79014427083333,
          "velocity": 0.6692913385826772
        },
        {
          "duration": 0.769447031250003,
          "durationTicks": 522,
          "midi": 68,
          "name": "G#4",
          "ticks": 37822,
          "time": 56.81667692708333,
          "velocity": 0.6535433070866141
        },
        {
          "duration": 1.695141927083334,
          "durationTicks": 1150,
          "midi": 57,
          "name": "A3",
          "ticks": 38370,
          "time": 57.624448906249995,
          "velocity": 0.7165354330708661
        },
        {
          "duration": 1.4357115104166667,
          "durationTicks": 974,
          "midi": 64,
          "name": "E4",
          "ticks": 38372,
          "time": 57.62739697916666,
          "velocity": 0.4015748031496063
        },
        {
          "duration": 1.6862977083333348,
          "durationTicks": 1144,
          "midi": 69,
          "name": "A4",
          "ticks": 38372,
          "time": 57.62739697916666,
          "velocity": 0.47244094488188976
        },
        {
          "duration": 1.6214401041666662,
          "durationTicks": 1100,
          "midi": 72,
          "name": "C5",
          "ticks": 38376,
          "time": 57.633293124999994,
          "velocity": 0.5905511811023622
        },
        {
          "duration": 1.7924283333333335,
          "durationTicks": 1216,
          "midi": 71,
          "name": "B4",
          "ticks": 39488,
          "time": 59.27242166666666,
          "velocity": 0.4251968503937008
        },
        {
          "duration": 1.7511553125000034,
          "durationTicks": 1188,
          "midi": 64,
          "name": "E4",
          "ticks": 39490,
          "time": 59.275369739583326,
          "velocity": 0.36220472440944884
        },
        {
          "duration": 1.774739895833335,
          "durationTicks": 1204,
          "midi": 68,
          "name": "G#4",
          "ticks": 39494,
          "time": 59.28126588541666,
          "velocity": 0.4645669291338583
        },
        {
          "duration": 1.79537640625,
          "durationTicks": 1218,
          "midi": 52,
          "name": "E3",
          "ticks": 39504,
          "time": 59.29600625,
          "velocity": 0.4645669291338583
        },
        {
          "duration": 1.6145688020833262,
          "durationTicks": 1054,
          "midi": 72,
          "name": "C5",
          "ticks": 43008,
          "time": 64.52763,
          "velocity": 0.6535433070866141
        },
        {
          "duration": 1.8075817708333375,
          "durationTicks": 1180,
          "midi": 57,
          "name": "A3",
          "ticks": 43008,
          "time": 64.52763,
          "velocity": 0.7401574803149606
        },
        {
          "duration": 4.559126458333338,
          "durationTicks": 2996,
          "midi": 64,
          "name": "E4",
          "ticks": 43008,
          "time": 64.52763,
          "velocity": 0.6220472440944882
        },
        {
          "duration": 1.8137091666666691,
          "durationTicks": 1184,
          "midi": 81,
          "name": "A5",
          "ticks": 43008,
          "time": 64.52763,
          "velocity": 0.7086614173228346
        },
        {
          "duration": 1.6880975520833346,
          "durationTicks": 1102,
          "midi": 56,
          "name": "G#3",
          "ticks": 44152,
          "time": 66.28006520833334,
          "velocity": 0.6062992125984252
        },
        {
          "duration": 1.7156708333333341,
          "durationTicks": 1120,
          "midi": 83,
          "name": "B5",
          "ticks": 44170,
          "time": 66.30763848958334,
          "velocity": 0.7244094488188977
        },
        {
          "duration": 1.5961866145833312,
          "durationTicks": 1042,
          "midi": 71,
          "name": "B4",
          "ticks": 44174,
          "time": 66.31376588541667,
          "velocity": 0.7322834645669292
        },
        {
          "duration": 1.1036254166666737,
          "durationTicks": 740,
          "midi": 57,
          "name": "A3",
          "ticks": 45256,
          "time": 67.97122645833333,
          "velocity": 0.7559055118110236
        },
        {
          "duration": 1.0938214583333377,
          "durationTicks": 734,
          "midi": 84,
          "name": "C6",
          "ticks": 45276,
          "time": 68.0018634375,
          "velocity": 0.6614173228346457
        },
        {
          "duration": 1.0729008854166722,
          "durationTicks": 720,
          "midi": 72,
          "name": "C5",
          "ticks": 45278,
          "time": 68.00492713541666,
          "velocity": 0.6850393700787402
        },
        {
          "duration": 0.333328333333327,
          "durationTicks": 224,
          "midi": 47,
          "name": "B2",
          "ticks": 47010,
          "time": 70.58375781250001,
          "velocity": 0.7559055118110236
        },
        {
          "duration": 0.3630897916666669,
          "durationTicks": 244,
          "midi": 59,
          "name": "B3",
          "ticks": 47012,
          "time": 70.58673395833334,
          "velocity": 0.7559055118110236
        },
        {
          "duration": 0.29463843749999796,
          "durationTicks": 198,
          "midi": 50,
          "name": "D3",
          "ticks": 47218,
          "time": 70.89327697916667,
          "velocity": 0.7874015748031497
        },
        {
          "duration": 0.3333283333333412,
          "durationTicks": 224,
          "midi": 62,
          "name": "D4",
          "ticks": 47226,
          "time": 70.9051815625,
          "velocity": 0.7874015748031497
        },
        {
          "duration": 0.33630447916667094,
          "durationTicks": 226,
          "midi": 48,
          "name": "C3",
          "ticks": 47390,
          "time": 71.14922552083334,
          "velocity": 0.7637795275590551
        },
        {
          "duration": 0.3005907291666716,
          "durationTicks": 202,
          "midi": 60,
          "name": "C4",
          "ticks": 47408,
          "time": 71.17601083333334,
          "velocity": 0.8346456692913385
        },
        {
          "duration": 1.5505719791666763,
          "durationTicks": 1042,
          "midi": 45,
          "name": "A2",
          "ticks": 47590,
          "time": 71.44684010416667,
          "velocity": 0.7244094488188977
        },
        {
          "duration": 1.7172361458333256,
          "durationTicks": 1154,
          "midi": 57,
          "name": "A3",
          "ticks": 47616,
          "time": 71.48553000000001,
          "velocity": 0.6850393700787402
        },
        {
          "duration": 1.714259999999996,
          "durationTicks": 1152,
          "midi": 81,
          "name": "A5",
          "ticks": 47616,
          "time": 71.48553000000001,
          "velocity": 0.6850393700787402
        },
        {
          "duration": 1.714259999999996,
          "durationTicks": 1152,
          "midi": 72,
          "name": "C5",
          "ticks": 47616,
          "time": 71.48553000000001,
          "velocity": 0.5748031496062992
        },
        {
          "duration": 1.6636655208333337,
          "durationTicks": 1118,
          "midi": 64,
          "name": "E4",
          "ticks": 47616,
          "time": 71.48553000000001,
          "velocity": 0.4881889763779528
        },
        {
          "duration": 2.5386523958333385,
          "durationTicks": 1706,
          "midi": 64,
          "name": "E4",
          "ticks": 48746,
          "time": 73.16705239583334,
          "velocity": 0.5984251968503937
        },
        {
          "duration": 1.6666416666666635,
          "durationTicks": 1120,
          "midi": 56,
          "name": "G#3",
          "ticks": 48752,
          "time": 73.17598083333334,
          "velocity": 0.5826771653543307
        },
        {
          "duration": 1.779735208333335,
          "durationTicks": 1196,
          "midi": 83,
          "name": "B5",
          "ticks": 48758,
          "time": 73.18490927083334,
          "velocity": 0.6377952755905512
        },
        {
          "duration": 1.5029536458333297,
          "durationTicks": 1010,
          "midi": 71,
          "name": "B4",
          "ticks": 48760,
          "time": 73.18788541666667,
          "velocity": 0.6456692913385826
        },
        {
          "duration": 1.553548125000006,
          "durationTicks": 1044,
          "midi": 40,
          "name": "E2",
          "ticks": 48762,
          "time": 73.1908615625,
          "velocity": 0.7244094488188977
        },
        {
          "duration": 0.7857024999999993,
          "durationTicks": 528,
          "midi": 45,
          "name": "A2",
          "ticks": 49890,
          "time": 74.8694078125,
          "velocity": 0.6141732283464567
        },
        {
          "duration": 0.8482015624999946,
          "durationTicks": 570,
          "midi": 57,
          "name": "A3",
          "ticks": 49892,
          "time": 74.87238395833334,
          "velocity": 0.7322834645669292
        },
        {
          "duration": 0.8422492708333351,
          "durationTicks": 566,
          "midi": 69,
          "name": "A4",
          "ticks": 49896,
          "time": 74.87833625,
          "velocity": 0.5590551181102362
        },
        {
          "duration": 0.8601061458333277,
          "durationTicks": 578,
          "midi": 81,
          "name": "A5",
          "ticks": 49900,
          "time": 74.88428854166668,
          "velocity": 0.6771653543307087
        },
        {
          "duration": 0.30356687500000135,
          "durationTicks": 204,
          "midi": 58,
          "name": "A#3",
          "ticks": 50532,
          "time": 75.82475062500001,
          "velocity": 0.952755905511811
        },
        {
          "duration": 0.2886861458333385,
          "durationTicks": 194,
          "midi": 70,
          "name": "A#4",
          "ticks": 50542,
          "time": 75.83963135416667,
          "velocity": 0.952755905511811
        },
        {
          "duration": 5.922530208333342,
          "durationTicks": 3980,
          "midi": 65,
          "name": "F4",
          "ticks": 50542,
          "time": 75.83963135416667,
          "velocity": 0.952755905511811
        },
        {
          "duration": 0.2976145833333419,
          "durationTicks": 200,
          "midi": 57,
          "name": "A3",
          "ticks": 50716,
          "time": 76.09855604166667,
          "velocity": 0.968503937007874
        },
        {
          "duration": 0.27975770833333513,
          "durationTicks": 188,
          "midi": 69,
          "name": "A4",
          "ticks": 50734,
          "time": 76.12534135416666,
          "velocity": 0.9606299212598425
        },
        {
          "duration": 0.2767815625000054,
          "durationTicks": 186,
          "midi": 55,
          "name": "G3",
          "ticks": 50890,
          "time": 76.35748072916667,
          "velocity": 0.937007874015748
        },
        {
          "duration": 0.31249531250000473,
          "durationTicks": 210,
          "midi": 67,
          "name": "G4",
          "ticks": 50894,
          "time": 76.36343302083334,
          "velocity": 0.937007874015748
        },
        {
          "duration": 6.735018020833337,
          "durationTicks": 4526,
          "midi": 53,
          "name": "F3",
          "ticks": 51056,
          "time": 76.60450083333333,
          "velocity": 0.9291338582677166
        },
        {
          "duration": 1.6279517708333344,
          "durationTicks": 1094,
          "midi": 72,
          "name": "C5",
          "ticks": 51066,
          "time": 76.61938156250001,
          "velocity": 0.9133858267716536
        },
        {
          "duration": 1.7112838541666662,
          "durationTicks": 1150,
          "midi": 69,
          "name": "A4",
          "ticks": 51068,
          "time": 76.62235770833334,
          "velocity": 0.9291338582677166
        },
        {
          "duration": 1.6368802083333236,
          "durationTicks": 1100,
          "midi": 74,
          "name": "D5",
          "ticks": 52176,
          "time": 78.27114250000001,
          "velocity": 0.9448818897637795
        },
        {
          "duration": 1.8005682291666716,
          "durationTicks": 1210,
          "midi": 70,
          "name": "A#4",
          "ticks": 52178,
          "time": 78.27411864583334,
          "velocity": 0.8976377952755905
        },
        {
          "duration": 1.7708067708333317,
          "durationTicks": 1190,
          "midi": 76,
          "name": "E5",
          "ticks": 53332,
          "time": 79.99135479166668,
          "velocity": 0.9212598425196851
        },
        {
          "duration": 1.7708067708333317,
          "durationTicks": 1190,
          "midi": 72,
          "name": "C5",
          "ticks": 53338,
          "time": 80.00028322916667,
          "velocity": 0.9291338582677166
        },
        {
          "duration": 1.5952141666666648,
          "durationTicks": 1072,
          "midi": 69,
          "name": "A4",
          "ticks": 54506,
          "time": 81.73835239583335,
          "velocity": 0.889763779527559
        },
        {
          "duration": 1.595214166666679,
          "durationTicks": 1072,
          "midi": 60,
          "name": "C4",
          "ticks": 54528,
          "time": 81.77109,
          "velocity": 0.6220472440944882
        },
        {
          "duration": 1.595214166666679,
          "durationTicks": 1072,
          "midi": 65,
          "name": "F4",
          "ticks": 54528,
          "time": 81.77109,
          "velocity": 0.7559055118110236
        },
        {
          "duration": 0.7857024999999993,
          "durationTicks": 528,
          "midi": 64,
          "name": "E4",
          "ticks": 56806,
          "time": 85.16092010416668,
          "velocity": 0.7480314960629921
        },
        {
          "duration": 0.9017721875000007,
          "durationTicks": 606,
          "midi": 72,
          "name": "C5",
          "ticks": 56812,
          "time": 85.16984854166668,
          "velocity": 0.7480314960629921
        },
        {
          "duration": 1.6249756249999905,
          "durationTicks": 1092,
          "midi": 69,
          "name": "A4",
          "ticks": 56812,
          "time": 85.16984854166668,
          "velocity": 0.7480314960629921
        },
        {
          "duration": 0.7618933333333331,
          "durationTicks": 512,
          "midi": 65,
          "name": "F4",
          "ticks": 57408,
          "time": 86.05674,
          "velocity": 0.8346456692913385
        },
        {
          "duration": 0.9315336458333263,
          "durationTicks": 626,
          "midi": 74,
          "name": "D5",
          "ticks": 57412,
          "time": 86.06269229166668,
          "velocity": 0.8346456692913385
        },
        {
          "duration": 0.7053465624999973,
          "durationTicks": 474,
          "midi": 64,
          "name": "E4",
          "ticks": 57990,
          "time": 86.9227984375,
          "velocity": 0.905511811023622
        },
        {
          "duration": 0.8243923958333426,
          "durationTicks": 554,
          "midi": 67,
          "name": "G4",
          "ticks": 57994,
          "time": 86.92875072916667,
          "velocity": 0.952755905511811
        },
        {
          "duration": 0.9017721875000007,
          "durationTicks": 606,
          "midi": 72,
          "name": "C5",
          "ticks": 57994,
          "time": 86.92875072916667,
          "velocity": 0.937007874015748
        },
        {
          "duration": 0.7321318750000074,
          "durationTicks": 492,
          "midi": 67,
          "name": "G4",
          "ticks": 58566,
          "time": 87.7799284375,
          "velocity": 0.8582677165354331
        },
        {
          "duration": 0.6993942708333378,
          "durationTicks": 470,
          "midi": 62,
          "name": "D4",
          "ticks": 58574,
          "time": 87.79183302083334,
          "velocity": 0.937007874015748
        },
        {
          "duration": 0.7589171875000034,
          "durationTicks": 510,
          "midi": 71,
          "name": "B4",
          "ticks": 58576,
          "time": 87.79480916666667,
          "velocity": 0.9291338582677166
        },
        {
          "duration": 0.9136767708333338,
          "durationTicks": 614,
          "midi": 64,
          "name": "E4",
          "ticks": 59098,
          "time": 88.57158322916668,
          "velocity": 0.9212598425196851
        },
        {
          "duration": 0.910700625000004,
          "durationTicks": 612,
          "midi": 67,
          "name": "G4",
          "ticks": 59100,
          "time": 88.574559375,
          "velocity": 0.8976377952755905
        },
        {
          "duration": 0.9047483333333446,
          "durationTicks": 608,
          "midi": 72,
          "name": "C5",
          "ticks": 59104,
          "time": 88.58051166666667,
          "velocity": 0.8818897637795275
        },
        {
          "duration": 0.6516640624999894,
          "durationTicks": 440,
          "midi": 72,
          "name": "C5",
          "ticks": 60576,
          "time": 90.77095500000001,
          "velocity": 0.8031496062992126
        },
        {
          "duration": 0.595650677083313,
          "durationTicks": 402,
          "midi": 65,
          "name": "F4",
          "ticks": 60576,
          "time": 90.77095500000001,
          "velocity": 0.8031496062992126
        },
        {
          "duration": 0.6251033333333282,
          "durationTicks": 422,
          "midi": 69,
          "name": "A4",
          "ticks": 60578,
          "time": 90.77393114583334,
          "velocity": 0.8031496062992126
        },
        {
          "duration": 0.5218089062500013,
          "durationTicks": 354,
          "midi": 71,
          "name": "B4",
          "ticks": 61024,
          "time": 91.43441135416667,
          "velocity": 0.8110236220472441
        },
        {
          "duration": 0.5630819270833314,
          "durationTicks": 382,
          "midi": 74,
          "name": "D5",
          "ticks": 61024,
          "time": 91.43441135416667,
          "velocity": 0.8110236220472441
        },
        {
          "duration": 0.5424454166666663,
          "durationTicks": 368,
          "midi": 67,
          "name": "G4",
          "ticks": 61024,
          "time": 91.43441135416667,
          "velocity": 0.8110236220472441
        },
        {
          "duration": 0.6803160416666714,
          "durationTicks": 464,
          "midi": 64,
          "name": "E4",
          "ticks": 61432,
          "time": 92.03581822916667,
          "velocity": 0.8267716535433071
        },
        {
          "duration": 0.8584402604166712,
          "durationTicks": 586,
          "midi": 72,
          "name": "C5",
          "ticks": 61434,
          "time": 92.03876630208333,
          "velocity": 0.8267716535433071
        },
        {
          "duration": 0.7240963020833391,
          "durationTicks": 494,
          "midi": 69,
          "name": "A4",
          "ticks": 61434,
          "time": 92.03876630208333,
          "velocity": 0.8267716535433071
        },
        {
          "duration": 0.8586331250000114,
          "durationTicks": 588,
          "midi": 65,
          "name": "F4",
          "ticks": 61984,
          "time": 92.8446371875,
          "velocity": 0.8346456692913385
        },
        {
          "duration": 0.791461145833324,
          "durationTicks": 542,
          "midi": 69,
          "name": "A4",
          "ticks": 61986,
          "time": 92.84755770833334,
          "velocity": 0.8346456692913385
        },
        {
          "duration": 0.6629582291666622,
          "durationTicks": 454,
          "midi": 62,
          "name": "D4",
          "ticks": 61992,
          "time": 92.85631927083334,
          "velocity": 0.8346456692913385
        },
        {
          "duration": 0.8352689583333301,
          "durationTicks": 572,
          "midi": 72,
          "name": "C5",
          "ticks": 62534,
          "time": 93.64778041666668,
          "velocity": 0.8503937007874016
        },
        {
          "duration": 0.768096979166657,
          "durationTicks": 526,
          "midi": 64,
          "name": "E4",
          "ticks": 62534,
          "time": 93.64778041666668,
          "velocity": 0.8503937007874016
        },
        {
          "duration": 1.6676173958333322,
          "durationTicks": 1142,
          "midi": 67,
          "name": "G4",
          "ticks": 62540,
          "time": 93.65654197916668,
          "velocity": 0.8503937007874016
        },
        {
          "duration": 0.8060637499999928,
          "durationTicks": 552,
          "midi": 62,
          "name": "D4",
          "ticks": 63144,
          "time": 94.53853927083334,
          "velocity": 0.8661417322834646
        },
        {
          "duration": 0.8673946874999956,
          "durationTicks": 594,
          "midi": 71,
          "name": "B4",
          "ticks": 63144,
          "time": 94.53853927083334,
          "velocity": 0.8661417322834646
        },
        {
          "duration": 0.9112025000000017,
          "durationTicks": 624,
          "midi": 67,
          "name": "G4",
          "ticks": 63728,
          "time": 95.39133135416667,
          "velocity": 0.8740157480314961
        },
        {
          "duration": 0.9053614583333314,
          "durationTicks": 620,
          "midi": 72,
          "name": "C5",
          "ticks": 63732,
          "time": 95.39717239583334,
          "velocity": 0.8740157480314961
        },
        {
          "duration": 0.8849178125000066,
          "durationTicks": 606,
          "midi": 64,
          "name": "E4",
          "ticks": 63732,
          "time": 95.39717239583334,
          "velocity": 0.8740157480314961
        },
        {
          "duration": 0.44683968750000247,
          "durationTicks": 306,
          "midi": 64,
          "name": "E4",
          "ticks": 64886,
          "time": 97.08231291666667,
          "velocity": 0.9133858267716536
        },
        {
          "duration": 0.49940906250000694,
          "durationTicks": 342,
          "midi": 67,
          "name": "G4",
          "ticks": 64886,
          "time": 97.08231291666667,
          "velocity": 0.937007874015748
        },
        {
          "duration": 0.44683968750000247,
          "durationTicks": 306,
          "midi": 72,
          "name": "C5",
          "ticks": 64886,
          "time": 97.08231291666667,
          "velocity": 0.937007874015748
        },
        {
          "duration": 0.47604489583333987,
          "durationTicks": 326,
          "midi": 65,
          "name": "F4",
          "ticks": 65284,
          "time": 97.6634965625,
          "velocity": 0.7952755905511811
        },
        {
          "duration": 0.4731243749999976,
          "durationTicks": 324,
          "midi": 72,
          "name": "C5",
          "ticks": 65286,
          "time": 97.66641708333334,
          "velocity": 0.7952755905511811
        },
        {
          "duration": 0.5753426041666643,
          "durationTicks": 394,
          "midi": 69,
          "name": "A4",
          "ticks": 65288,
          "time": 97.66933760416667,
          "velocity": 0.8976377952755905
        },
        {
          "duration": 0.4030318749999964,
          "durationTicks": 276,
          "midi": 62,
          "name": "D4",
          "ticks": 65664,
          "time": 98.21839552083334,
          "velocity": 0.8976377952755905
        },
        {
          "duration": 0.45560125000000085,
          "durationTicks": 312,
          "midi": 67,
          "name": "G4",
          "ticks": 65664,
          "time": 98.21839552083334,
          "velocity": 0.8976377952755905
        },
        {
          "duration": 0.44099864583333215,
          "durationTicks": 302,
          "midi": 71,
          "name": "B4",
          "ticks": 65664,
          "time": 98.21839552083334,
          "velocity": 0.8976377952755905
        },
        {
          "duration": 0.414713958333337,
          "durationTicks": 284,
          "midi": 74,
          "name": "D5",
          "ticks": 65664,
          "time": 98.21839552083334,
          "velocity": 0.8976377952755905
        },
        {
          "duration": 1.880815416666664,
          "durationTicks": 1288,
          "midi": 64,
          "name": "E4",
          "ticks": 66040,
          "time": 98.76745343750001,
          "velocity": 0.7637795275590551
        },
        {
          "duration": 1.5245118750000017,
          "durationTicks": 1044,
          "midi": 71,
          "name": "B4",
          "ticks": 66048,
          "time": 98.77913552083334,
          "velocity": 0.7637795275590551
        },
        {
          "duration": 1.4953066666666643,
          "durationTicks": 1024,
          "midi": 68,
          "name": "G#4",
          "ticks": 66058,
          "time": 98.793738125,
          "velocity": 0.7637795275590551
        },
        {
          "duration": 0.3419764583333347,
          "durationTicks": 232,
          "midi": 76,
          "name": "E5",
          "ticks": 69120,
          "time": 103.27563552083333,
          "velocity": 0.6850393700787402
        },
        {
          "duration": 0.33902838541666824,
          "durationTicks": 230,
          "midi": 75,
          "name": "D#5",
          "ticks": 69310,
          "time": 103.55570244791667,
          "velocity": 0.6299212598425197
        },
        {
          "duration": 0.33018416666666894,
          "durationTicks": 224,
          "midi": 76,
          "name": "E5",
          "ticks": 69506,
          "time": 103.84461359375,
          "velocity": 0.7165354330708661
        },
        {
          "duration": 0.32133994791666964,
          "durationTicks": 218,
          "midi": 75,
          "name": "D#5",
          "ticks": 69690,
          "time": 104.11583630208334,
          "velocity": 0.6771653543307087
        },
        {
          "duration": 0.30665630208333994,
          "durationTicks": 208,
          "midi": 76,
          "name": "E5",
          "ticks": 69874,
          "time": 104.38705901041666,
          "velocity": 0.7165354330708661
        },
        {
          "duration": 0.32650135416666615,
          "durationTicks": 218,
          "midi": 71,
          "name": "B4",
          "ticks": 70044,
          "time": 104.63764520833334,
          "velocity": 0.7165354330708661
        },
        {
          "duration": 0.3906229166666719,
          "durationTicks": 260,
          "midi": 74,
          "name": "D5",
          "ticks": 70230,
          "time": 104.91606989583333,
          "velocity": 0.6692913385826772
        },
        {
          "duration": 0.38461333333333414,
          "durationTicks": 256,
          "midi": 72,
          "name": "C5",
          "ticks": 70442,
          "time": 105.2345778125,
          "velocity": 0.7795275590551181
        },
        {
          "duration": 1.7616493750000046,
          "durationTicks": 1172,
          "midi": 69,
          "name": "A4",
          "ticks": 70650,
          "time": 105.54707614583333,
          "velocity": 0.6220472440944882
        },
        {
          "duration": 1.4272760416666728,
          "durationTicks": 950,
          "midi": 57,
          "name": "A3",
          "ticks": 70652,
          "time": 105.5500809375,
          "velocity": 0.4015748031496063
        },
        {
          "duration": 5.3025333333333435,
          "durationTicks": 3472,
          "midi": 64,
          "name": "E4",
          "ticks": 70652,
          "time": 105.5500809375,
          "velocity": 0.49606299212598426
        },
        {
          "duration": 1.7712647916666668,
          "durationTicks": 1178,
          "midi": 60,
          "name": "C4",
          "ticks": 70654,
          "time": 105.55308572916667,
          "velocity": 0.5118110236220472
        },
        {
          "duration": 1.6645431250000087,
          "durationTicks": 1066,
          "midi": 71,
          "name": "B4",
          "ticks": 71790,
          "time": 107.25980739583333,
          "velocity": 0.6220472440944882
        },
        {
          "duration": 1.8207931250000087,
          "durationTicks": 1166,
          "midi": 68,
          "name": "G#4",
          "ticks": 71790,
          "time": 107.25980739583333,
          "velocity": 0.5275590551181102
        },
        {
          "duration": 1.686778750000002,
          "durationTicks": 1080,
          "midi": 52,
          "name": "E3",
          "ticks": 71796,
          "time": 107.26882177083334,
          "velocity": 0.3937007874015748
        },
        {
          "duration": 1.9373656249999982,
          "durationTicks": 1274,
          "midi": 57,
          "name": "A3",
          "ticks": 72856,
          "time": 108.92435052083334,
          "velocity": 0.5118110236220472
        },
        {
          "duration": 1.4695897916666638,
          "durationTicks": 966,
          "midi": 72,
          "name": "C5",
          "ticks": 72868,
          "time": 108.94310052083334,
          "velocity": 0.4251968503937008
        },
        {
          "duration": 1.914762291666662,
          "durationTicks": 1260,
          "midi": 69,
          "name": "A4",
          "ticks": 72886,
          "time": 108.97122552083334,
          "velocity": 0.5118110236220472
        },
        {
          "duration": 1.7627297916666578,
          "durationTicks": 1162,
          "midi": 69,
          "name": "A4",
          "ticks": 75248,
          "time": 112.55769885416667,
          "velocity": 0.6299212598425197
        },
        {
          "duration": 4.277881249999993,
          "durationTicks": 2820,
          "midi": 64,
          "name": "E4",
          "ticks": 75248,
          "time": 112.55769885416667,
          "velocity": 0.4881889763779528
        },
        {
          "duration": 1.7141864583333302,
          "durationTicks": 1130,
          "midi": 57,
          "name": "A3",
          "ticks": 75256,
          "time": 112.5698346875,
          "velocity": 0.6141732283464567
        },
        {
          "duration": 1.2348210416666632,
          "durationTicks": 814,
          "midi": 60,
          "name": "C4",
          "ticks": 75582,
          "time": 113.06436989583334,
          "velocity": 0.33858267716535434
        },
        {
          "duration": 1.6899147916666664,
          "durationTicks": 1114,
          "midi": 52,
          "name": "E3",
          "ticks": 76364,
          "time": 114.25064760416667,
          "velocity": 0.48031496062992124
        },
        {
          "duration": 1.7748656250000039,
          "durationTicks": 1170,
          "midi": 68,
          "name": "G#4",
          "ticks": 76376,
          "time": 114.26885135416667,
          "velocity": 0.5669291338582677
        },
        {
          "duration": 1.765763750000005,
          "durationTicks": 1164,
          "midi": 71,
          "name": "B4",
          "ticks": 76378,
          "time": 114.2718853125,
          "velocity": 0.6220472440944882
        },
        {
          "duration": 0.9769345833333318,
          "durationTicks": 644,
          "midi": 57,
          "name": "A3",
          "ticks": 77496,
          "time": 115.96786802083334,
          "velocity": 0.5905511811023622
        },
        {
          "duration": 0.9678327083333329,
          "durationTicks": 638,
          "midi": 60,
          "name": "C4",
          "ticks": 77514,
          "time": 115.99517364583333,
          "velocity": 0.6850393700787402
        },
        {
          "duration": 1.0042402083333428,
          "durationTicks": 662,
          "midi": 69,
          "name": "A4",
          "ticks": 77514,
          "time": 115.99517364583333,
          "velocity": 0.6220472440944882
        },
        {
          "duration": 0.8950177083333415,
          "durationTicks": 590,
          "midi": 55,
          "name": "G3",
          "ticks": 78144,
          "time": 116.95087052083333,
          "velocity": 0.5433070866141733
        },
        {
          "duration": 0.7706254166666753,
          "durationTicks": 508,
          "midi": 67,
          "name": "G4",
          "ticks": 78146,
          "time": 116.95390447916667,
          "velocity": 0.6850393700787402
        },
        {
          "duration": 0.8859158333333426,
          "durationTicks": 584,
          "midi": 71,
          "name": "B4",
          "ticks": 78148,
          "time": 116.9569384375,
          "velocity": 0.7007874015748031
        },
        {
          "duration": 0.7584895833333434,
          "durationTicks": 500,
          "midi": 62,
          "name": "D4",
          "ticks": 78148,
          "time": 116.9569384375,
          "velocity": 0.6771653543307087
        },
        {
          "duration": 1.7900354166666688,
          "durationTicks": 1180,
          "midi": 60,
          "name": "C4",
          "ticks": 78702,
          "time": 117.79734489583333,
          "velocity": 0.5984251968503937
        },
        {
          "duration": 1.7111524999999972,
          "durationTicks": 1128,
          "midi": 67,
          "name": "G4",
          "ticks": 78704,
          "time": 117.80037885416667,
          "velocity": 0.6535433070866141
        },
        {
          "duration": 1.7081185416666784,
          "durationTicks": 1126,
          "midi": 72,
          "name": "C5",
          "ticks": 78708,
          "time": 117.80644677083333,
          "velocity": 0.6771653543307087
        },
        {
          "duration": 1.617099791666675,
          "durationTicks": 1066,
          "midi": 64,
          "name": "E4",
          "ticks": 78708,
          "time": 117.80644677083333,
          "velocity": 0.6062992125984252
        },
        {
          "duration": 0.7675914583333281,
          "durationTicks": 506,
          "midi": 67,
          "name": "G4",
          "ticks": 79868,
          "time": 119.56614260416667,
          "velocity": 0.6850393700787402
        },
        {
          "duration": 1.531392604166669,
          "durationTicks": 1018,
          "midi": 71,
          "name": "B4",
          "ticks": 79876,
          "time": 119.5782784375,
          "velocity": 0.6771653543307087
        },
        {
          "duration": 0.8555762499999986,
          "durationTicks": 564,
          "midi": 55,
          "name": "G3",
          "ticks": 79884,
          "time": 119.59041427083334,
          "velocity": 0.7007874015748031
        },
        {
          "duration": 1.7331923958333277,
          "durationTicks": 1154,
          "midi": 74,
          "name": "D5",
          "ticks": 79896,
          "time": 119.60861802083333,
          "velocity": 0.5984251968503937
        },
        {
          "duration": 0.8785411458333243,
          "durationTicks": 590,
          "midi": 56,
          "name": "G#3",
          "ticks": 80428,
          "time": 120.4156509375,
          "velocity": 0.6692913385826772
        },
        {
          "duration": 0.7768318749999992,
          "durationTicks": 522,
          "midi": 68,
          "name": "G#4",
          "ticks": 80446,
          "time": 120.4429565625,
          "velocity": 0.6535433070866141
        },
        {
          "duration": 1.7112838541666662,
          "durationTicks": 1150,
          "midi": 57,
          "name": "A3",
          "ticks": 80994,
          "time": 121.25847833333333,
          "velocity": 0.7165354330708661
        },
        {
          "duration": 1.7023554166666628,
          "durationTicks": 1144,
          "midi": 69,
          "name": "A4",
          "ticks": 80996,
          "time": 121.26145447916667,
          "velocity": 0.47244094488188976
        },
        {
          "duration": 1.4493830208333236,
          "durationTicks": 974,
          "midi": 64,
          "name": "E4",
          "ticks": 80996,
          "time": 121.26145447916667,
          "velocity": 0.4015748031496063
        },
        {
          "duration": 1.6368802083333378,
          "durationTicks": 1100,
          "midi": 72,
          "name": "C5",
          "ticks": 81000,
          "time": 121.26740677083333,
          "velocity": 0.5905511811023622
        },
        {
          "duration": 1.809496666666675,
          "durationTicks": 1216,
          "midi": 71,
          "name": "B4",
          "ticks": 82112,
          "time": 122.92214385416666,
          "velocity": 0.4251968503937008
        },
        {
          "duration": 1.7678306249999878,
          "durationTicks": 1188,
          "midi": 64,
          "name": "E4",
          "ticks": 82114,
          "time": 122.92512,
          "velocity": 0.36220472440944884
        },
        {
          "duration": 1.7916397916666682,
          "durationTicks": 1204,
          "midi": 68,
          "name": "G#4",
          "ticks": 82118,
          "time": 122.93107229166667,
          "velocity": 0.4645669291338583
        },
        {
          "duration": 1.8124728125000047,
          "durationTicks": 1218,
          "midi": 52,
          "name": "E3",
          "ticks": 82128,
          "time": 122.94595302083333,
          "velocity": 0.4645669291338583
        },
        {
          "duration": 1.7172204166666631,
          "durationTicks": 1132,
          "midi": 60,
          "name": "C4",
          "ticks": 85644,
          "time": 128.17836427083333,
          "velocity": 0.33070866141732286
        },
        {
          "duration": 4.684431666666654,
          "durationTicks": 3088,
          "midi": 64,
          "name": "E4",
          "ticks": 85644,
          "time": 128.17836427083333,
          "velocity": 0.3858267716535433
        },
        {
          "duration": 1.6474393750000047,
          "durationTicks": 1086,
          "midi": 69,
          "name": "A4",
          "ticks": 85644,
          "time": 128.17836427083333,
          "velocity": 0.3937007874015748
        },
        {
          "duration": 1.8658843750000074,
          "durationTicks": 1230,
          "midi": 68,
          "name": "G#4",
          "ticks": 86736,
          "time": 129.83490552083333,
          "velocity": 0.5511811023622047
        },
        {
          "duration": 1.729356249999995,
          "durationTicks": 1140,
          "midi": 71,
          "name": "B4",
          "ticks": 86740,
          "time": 129.8409734375,
          "velocity": 0.5275590551181102
        },
        {
          "duration": 1.8052052083333194,
          "durationTicks": 1190,
          "midi": 59,
          "name": "B3",
          "ticks": 86740,
          "time": 129.8409734375,
          "velocity": 0.5905511811023622
        },
        {
          "duration": 1.2742624999999919,
          "durationTicks": 840,
          "midi": 72,
          "name": "C5",
          "ticks": 87892,
          "time": 131.5885334375,
          "velocity": 0.5039370078740157
        },
        {
          "duration": 1.2833643750000192,
          "durationTicks": 846,
          "midi": 69,
          "name": "A4",
          "ticks": 87898,
          "time": 131.5976353125,
          "velocity": 0.5511811023622047
        },
        {
          "duration": 1.2408889583333291,
          "durationTicks": 818,
          "midi": 60,
          "name": "C4",
          "ticks": 87902,
          "time": 131.60370322916665,
          "velocity": 0.6377952755905512
        },
        {
          "duration": 1.74452604166666,
          "durationTicks": 1150,
          "midi": 60,
          "name": "C4",
          "ticks": 90210,
          "time": 135.10489114583334,
          "velocity": 0.5354330708661418
        },
        {
          "duration": 7.1811747916666775,
          "durationTicks": 4558,
          "midi": 64,
          "name": "E4",
          "ticks": 90218,
          "time": 135.11702697916667,
          "velocity": 0.5275590551181102
        },
        {
          "duration": 1.723288333333329,
          "durationTicks": 1136,
          "midi": 69,
          "name": "A4",
          "ticks": 90220,
          "time": 135.1200609375,
          "velocity": 0.5590551181102362
        },
        {
          "duration": 1.8052052083333194,
          "durationTicks": 1190,
          "midi": 68,
          "name": "G#4",
          "ticks": 91336,
          "time": 136.8130096875,
          "velocity": 0.5511811023622047
        },
        {
          "duration": 1.8143070833333184,
          "durationTicks": 1196,
          "midi": 71,
          "name": "B4",
          "ticks": 91338,
          "time": 136.81604364583333,
          "velocity": 0.6141732283464567
        },
        {
          "duration": 1.7718316666666567,
          "durationTicks": 1168,
          "midi": 59,
          "name": "B3",
          "ticks": 91346,
          "time": 136.82817947916666,
          "velocity": 0.6141732283464567
        },
        {
          "duration": 3.7889063541666985,
          "durationTicks": 2302,
          "midi": 57,
          "name": "A3",
          "ticks": 92516,
          "time": 138.60304510416665,
          "velocity": 0.5118110236220472
        },
        {
          "duration": 3.7692722916667094,
          "durationTicks": 2290,
          "midi": 60,
          "name": "C4",
          "ticks": 92526,
          "time": 138.61821489583332,
          "velocity": 0.6299212598425197
        },
        {
          "duration": 3.703738541666695,
          "durationTicks": 2260,
          "midi": 69,
          "name": "A4",
          "ticks": 92528,
          "time": 138.62124885416665,
          "velocity": 0.5039370078740157
        }
      ]
    },
    {
      "channel": 3,
      "controlChanges": {
        "0": [
          {
            "number": 0,
            "ticks": 2144,
            "time": 3.2524033333333335,
            "value": 0
          }
        ],
        "7": [
          {
            "number": 7,
            "ticks": 1964,
            "time": 2.9793470833333333,
            "value": 1
          }
        ],
        "10": [
          {
            "number": 10,
            "ticks": 1960,
            "time": 2.973279166666667,
            "value": 0.5039370078740157
          }
        ],
        "11": [
          {
            "number": 11,
            "ticks": 2024,
            "time": 3.0703658333333332,
            "value": 1
          }
        ],
        "32": [
          {
            "number": 32,
            "ticks": 2144,
            "time": 3.2524033333333335,
            "value": 0
          }
        ],
        "64": [
          {
            "number": 64,
            "ticks": 3980,
            "time": 6.037577083333334,
            "value": 1
          },
          {
            "number": 64,
            "ticks": 5074,
            "time": 7.693630989583334,
            "value": 0
          },
          {
            "number": 64,
            "ticks": 5138,
            "time": 7.787969322916667,
            "value": 1
          },
          {
            "number": 64,
            "ticks": 6174,
            "time": 9.314657812500002,
            "value": 0
          },
          {
            "number": 64,
            "ticks": 6440,
            "time": 9.703087083333335,
            "value": 1
          },
          {
            "number": 64,
            "ticks": 7172,
            "time": 10.771997708333334,
            "value": 0
          },
          {
            "number": 64,
            "ticks": 8614,
            "time": 12.877693229166669,
            "value": 1
          },
          {
            "number": 64,
            "ticks": 9586,
            "time": 14.328836458333333,
            "value": 0
          },
          {
            "number": 64,
            "ticks": 9758,
            "time": 14.596745,
            "value": 1
          },
          {
            "number": 64,
            "ticks": 10738,
            "time": 16.127995000000002,
            "value": 0
          },
          {
            "number": 64,
            "ticks": 10998,
            "time": 16.5159359375,
            "value": 1
          },
          {
            "number": 64,
            "ticks": 11750,
            "time": 17.634966770833334,
            "value": 0
          },
          {
            "number": 64,
            "ticks": 13226,
            "time": 19.844015,
            "value": 1
          },
          {
            "number": 64,
            "ticks": 14208,
            "time": 21.37839,
            "value": 0
          },
          {
            "number": 64,
            "ticks": 14324,
            "time": 21.559639999999998,
            "value": 1
          },
          {
            "number": 64,
            "ticks": 15330,
            "time": 23.131515,
            "value": 0
          },
          {
            "number": 64,
            "ticks": 15558,
            "time": 23.48169609375,
            "value": 1
          },
          {
            "number": 64,
            "ticks": 16314,
            "time": 24.63977390625,
            "value": 0
          },
          {
            "number": 64,
            "ticks": 17792,
            "time": 26.903846666666666,
            "value": 1
          },
          {
            "number": 64,
            "ticks": 18814,
            "time": 28.469396302083332,
            "value": 0
          },
          {
            "number": 64,
            "ticks": 18948,
            "time": 28.6746640625,
            "value": 1
          },
          {
            "number": 64,
            "ticks": 19966,
            "time": 30.234086302083334,
            "value": 0
          },
          {
            "number": 64,
            "ticks": 20134,
            "time": 30.484170104166665,
            "value": 1
          },
          {
            "number": 64,
            "ticks": 20858,
            "time": 31.561534895833333,
            "value": 0
          },
          {
            "number": 64,
            "ticks": 21324,
            "time": 32.254976875,
            "value": 1
          },
          {
            "number": 64,
            "ticks": 22308,
            "time": 33.719240625,
            "value": 0
          },
          {
            "number": 64,
            "ticks": 22402,
            "time": 33.859119479166665,
            "value": 1
          },
          {
            "number": 64,
            "ticks": 23480,
            "time": 35.46326208333333,
            "value": 0
          },
          {
            "number": 64,
            "ticks": 23632,
            "time": 35.68944916666667,
            "value": 1
          },
          {
            "number": 64,
            "ticks": 24654,
            "time": 37.2102596875,
            "value": 0
          },
          {
            "number": 64,
            "ticks": 24776,
            "time": 37.39180458333333,
            "value": 1
          },
          {
            "number": 64,
            "ticks": 26358,
            "time": 39.747496874999996,
            "value": 0
          },
          {
            "number": 64,
            "ticks": 28186,
            "time": 42.52053479166666,
            "value": 1
          },
          {
            "number": 64,
            "ticks": 29184,
            "time": 44.03448,
            "value": 0
          },
          {
            "number": 64,
            "ticks": 30706,
            "time": 46.32743348958333,
            "value": 1
          },
          {
            "number": 64,
            "ticks": 31298,
            "time": 47.20006307291666,
            "value": 0
          },
          {
            "number": 64,
            "ticks": 33234,
            "time": 50.05379765625,
            "value": 1
          },
          {
            "number": 64,
            "ticks": 33736,
            "time": 50.79376395833333,
            "value": 0
          },
          {
            "number": 64,
            "ticks": 33886,
            "time": 51.014869427083326,
            "value": 1
          },
          {
            "number": 64,
            "ticks": 34888,
            "time": 52.49185395833333,
            "value": 0
          },
          {
            "number": 64,
            "ticks": 35108,
            "time": 52.81614197916666,
            "value": 1
          },
          {
            "number": 64,
            "ticks": 36140,
            "time": 54.337347604166666,
            "value": 0
          },
          {
            "number": 64,
            "ticks": 36306,
            "time": 54.582037656249994,
            "value": 1
          },
          {
            "number": 64,
            "ticks": 37288,
            "time": 56.02954145833333,
            "value": 0
          },
          {
            "number": 64,
            "ticks": 37398,
            "time": 56.191685468749995,
            "value": 1
          },
          {
            "number": 64,
            "ticks": 38424,
            "time": 57.704046874999996,
            "value": 0
          },
          {
            "number": 64,
            "ticks": 38586,
            "time": 57.94284078125,
            "value": 1
          },
          {
            "number": 64,
            "ticks": 39578,
            "time": 59.40508494791666,
            "value": 0
          },
          {
            "number": 64,
            "ticks": 39702,
            "time": 59.587865468749996,
            "value": 1
          },
          {
            "number": 64,
            "ticks": 41422,
            "time": 62.12320817708333,
            "value": 0
          },
          {
            "number": 64,
            "ticks": 43160,
            "time": 64.76047104166666,
            "value": 1
          },
          {
            "number": 64,
            "ticks": 44192,
            "time": 66.34133916666667,
            "value": 0
          },
          {
            "number": 64,
            "ticks": 44310,
            "time": 66.52209734375,
            "value": 1
          },
          {
            "number": 64,
            "ticks": 45292,
            "time": 68.02637302083333,
            "value": 0
          },
          {
            "number": 64,
            "ticks": 45502,
            "time": 68.33974385416667,
            "value": 1
          },
          {
            "number": 64,
            "ticks": 46388,
            "time": 69.65817645833334,
            "value": 0
          },
          {
            "number": 64,
            "ticks": 47804,
            "time": 71.76528770833333,
            "value": 1
          },
          {
            "number": 64,
            "ticks": 48700,
            "time": 73.09860104166667,
            "value": 0
          },
          {
            "number": 64,
            "ticks": 48866,
            "time": 73.34562114583333,
            "value": 1
          },
          {
            "number": 64,
            "ticks": 49928,
            "time": 74.92595458333334,
            "value": 0
          },
          {
            "number": 64,
            "ticks": 50066,
            "time": 75.13130864583334,
            "value": 1
          },
          {
            "number": 64,
            "ticks": 50634,
            "time": 75.97653406250001,
            "value": 0
          },
          {
            "number": 64,
            "ticks": 51314,
            "time": 76.98842364583334,
            "value": 1
          },
          {
            "number": 64,
            "ticks": 52220,
            "time": 78.33661770833334,
            "value": 0
          },
          {
            "number": 64,
            "ticks": 52426,
            "time": 78.64316072916668,
            "value": 1
          },
          {
            "number": 64,
            "ticks": 53394,
            "time": 80.0836153125,
            "value": 0
          },
          {
            "number": 64,
            "ticks": 54856,
            "time": 82.25917791666667,
            "value": 1
          },
          {
            "number": 64,
            "ticks": 55324,
            "time": 82.95559604166667,
            "value": 0
          },
          {
            "number": 64,
            "ticks": 56100,
            "time": 84.110340625,
            "value": 1
          },
          {
            "number": 64,
            "ticks": 56338,
            "time": 84.46450197916667,
            "value": 0
          },
          {
            "number": 64,
            "ticks": 57004,
            "time": 85.45555854166668,
            "value": 1
          },
          {
            "number": 64,
            "ticks": 57582,
            "time": 86.3156646875,
            "value": 0
          },
          {
            "number": 64,
            "ticks": 57724,
            "time": 86.52697104166667,
            "value": 1
          },
          {
            "number": 64,
            "ticks": 58046,
            "time": 87.00613052083334,
            "value": 0
          },
          {
            "number": 64,
            "ticks": 58224,
            "time": 87.27100750000001,
            "value": 1
          },
          {
            "number": 64,
            "ticks": 58616,
            "time": 87.85433208333333,
            "value": 0
          },
          {
            "number": 64,
            "ticks": 58782,
            "time": 88.1013521875,
            "value": 1
          },
          {
            "number": 64,
            "ticks": 59136,
            "time": 88.62813,
            "value": 0
          },
          {
            "number": 64,
            "ticks": 61612,
            "time": 92.30114479166667,
            "value": 1
          },
          {
            "number": 64,
            "ticks": 62190,
            "time": 93.14545083333334,
            "value": 0
          },
          {
            "number": 64,
            "ticks": 62332,
            "time": 93.3528078125,
            "value": 1
          },
          {
            "number": 64,
            "ticks": 62654,
            "time": 93.82301166666667,
            "value": 0
          },
          {
            "number": 64,
            "ticks": 62832,
            "time": 94.08293802083334,
            "value": 1
          },
          {
            "number": 64,
            "ticks": 63224,
            "time": 94.65536010416668,
            "value": 0
          },
          {
            "number": 64,
            "ticks": 63390,
            "time": 94.89776333333333,
            "value": 1
          },
          {
            "number": 64,
            "ticks": 63744,
            "time": 95.41469552083333,
            "value": 0
          },
          {
            "number": 64,
            "ticks": 70776,
            "time": 105.73637802083333,
            "value": 1
          },
          {
            "number": 64,
            "ticks": 71804,
            "time": 107.2808409375,
            "value": 0
          },
          {
            "number": 64,
            "ticks": 71952,
            "time": 107.51185052083333,
            "value": 1
          },
          {
            "number": 64,
            "ticks": 73030,
            "time": 109.1930390625,
            "value": 0
          },
          {
            "number": 64,
            "ticks": 73204,
            "time": 109.4569934375,
            "value": 1
          },
          {
            "number": 64,
            "ticks": 73954,
            "time": 110.59472781250001,
            "value": 0
          },
          {
            "number": 64,
            "ticks": 75432,
            "time": 112.83682302083334,
            "value": 1
          },
          {
            "number": 64,
            "ticks": 76442,
            "time": 114.36897197916667,
            "value": 0
          },
          {
            "number": 64,
            "ticks": 76554,
            "time": 114.53887364583333,
            "value": 1
          },
          {
            "number": 64,
            "ticks": 77586,
            "time": 116.10439614583333,
            "value": 0
          },
          {
            "number": 64,
            "ticks": 77746,
            "time": 116.3471128125,
            "value": 1
          },
          {
            "number": 64,
            "ticks": 78332,
            "time": 117.23606260416668,
            "value": 0
          },
          {
            "number": 64,
            "ticks": 78932,
            "time": 118.14625010416667,
            "value": 1
          },
          {
            "number": 64,
            "ticks": 79888,
            "time": 119.5964821875,
            "value": 0
          },
          {
            "number": 64,
            "ticks": 80008,
            "time": 119.77851968750001,
            "value": 1
          },
          {
            "number": 64,
            "ticks": 81080,
            "time": 121.38645260416666,
            "value": 0
          },
          {
            "number": 64,
            "ticks": 81202,
            "time": 121.5679975,
            "value": 1
          },
          {
            "number": 64,
            "ticks": 82178,
            "time": 123.02035666666667,
            "value": 0
          },
          {
            "number": 64,
            "ticks": 82254,
            "time": 123.13345020833333,
            "value": 1
          },
          {
            "number": 64,
            "ticks": 83976,
            "time": 125.69591177083333,
            "value": 0
          },
          {
            "number": 64,
            "ticks": 85816,
            "time": 128.4392846875,
            "value": 1
          },
          {
            "number": 64,
            "ticks": 86792,
            "time": 129.91985635416665,
            "value": 0
          },
          {
            "number": 64,
            "ticks": 86884,
            "time": 130.0594184375,
            "value": 1
          },
          {
            "number": 64,
            "ticks": 87976,
            "time": 131.7159596875,
            "value": 0
          },
          {
            "number": 64,
            "ticks": 88108,
            "time": 131.9162009375,
            "value": 1
          },
          {
            "number": 64,
            "ticks": 88934,
            "time": 133.16922572916667,
            "value": 0
          },
          {
            "number": 64,
            "ticks": 90346,
            "time": 135.3112003125,
            "value": 1
          },
          {
            "number": 64,
            "ticks": 91420,
            "time": 136.94043593749998,
            "value": 0
          },
          {
            "number": 64,
            "ticks": 91512,
            "time": 137.07999802083333,
            "value": 1
          },
          {
            "number": 64,
            "ticks": 92544,
            "time": 138.64552052083332,
            "value": 0
          }
        ],
        "91": [
          {
            "number": 91,
            "ticks": 1972,
            "time": 2.991482916666667,
            "value": 0.6299212598425197
          }
        ],
        "93": [
          {
            "number": 93,
            "ticks": 1968,
            "time": 2.985415,
            "value": 0
          }
        ],
        "120": [
          {
            "number": 120,
            "ticks": 95724,
            "time": 144.41426614583335,
            "value": 0
          }
        ],
        "121": [
          {
            "number": 121,
            "ticks": 1924,
            "time": 2.918667916666667,
            "value": 0
          }
        ],
        "123": [
          {
            "number": 123,
            "ticks": 95638,
            "time": 144.2223025,
            "value": 0
          }
        ]
      },
      "pitchBends": [
        {
          "ticks": 1986,
          "time": 3.012720625,
          "value": 0
        }
      ],
      "instrument": {
        "family": "piano",
        "number": 0,
        "name": "acoustic grand piano"
      },
      "name": "MELODY",
      "notes": [
        {
          "duration": 0.3458712500000001,
          "durationTicks": 228,
          "midi": 76,
          "name": "E5",
          "ticks": 2284,
          "time": 3.464780416666667,
          "velocity": 0.7480314960629921
        },
        {
          "duration": 0.36407500000000015,
          "durationTicks": 240,
          "midi": 75,
          "name": "D#5",
          "ticks": 2494,
          "time": 3.783346041666667,
          "velocity": 0.7165354330708661
        },
        {
          "duration": 0.3549731249999999,
          "durationTicks": 234,
          "midi": 76,
          "name": "E5",
          "ticks": 2684,
          "time": 4.071572083333334,
          "velocity": 0.7401574803149606
        },
        {
          "duration": 0.3428372916666662,
          "durationTicks": 226,
          "midi": 75,
          "name": "D#5",
          "ticks": 2868,
          "time": 4.35069625,
          "velocity": 0.8031496062992126
        },
        {
          "duration": 0.3428372916666662,
          "durationTicks": 226,
          "midi": 76,
          "name": "E5",
          "ticks": 3056,
          "time": 4.635888333333334,
          "velocity": 0.8031496062992126
        },
        {
          "duration": 0.30642979166666606,
          "durationTicks": 202,
          "midi": 71,
          "name": "B4",
          "ticks": 3254,
          "time": 4.936250208333334,
          "velocity": 0.7637795275590551
        },
        {
          "duration": 0.3307014583333334,
          "durationTicks": 218,
          "midi": 74,
          "name": "D5",
          "ticks": 3444,
          "time": 5.22447625,
          "velocity": 0.7322834645669292
        },
        {
          "duration": 0.30642979166666695,
          "durationTicks": 202,
          "midi": 72,
          "name": "C5",
          "ticks": 3638,
          "time": 5.518770208333334,
          "velocity": 0.7086614173228346
        },
        {
          "duration": 0.43992395833333386,
          "durationTicks": 290,
          "midi": 69,
          "name": "A4",
          "ticks": 3840,
          "time": 5.825200000000001,
          "velocity": 0.6377952755905512
        },
        {
          "duration": 0.7615235416666666,
          "durationTicks": 502,
          "midi": 45,
          "name": "A2",
          "ticks": 3848,
          "time": 5.837335833333334,
          "velocity": 0.7086614173228346
        },
        {
          "duration": 0.6219614583333328,
          "durationTicks": 410,
          "midi": 52,
          "name": "E3",
          "ticks": 4052,
          "time": 6.146799583333334,
          "velocity": 0.5826771653543307
        },
        {
          "duration": 0.2518185416666663,
          "durationTicks": 166,
          "midi": 57,
          "name": "A3",
          "ticks": 4238,
          "time": 6.428957708333334,
          "velocity": 0.5984251968503937
        },
        {
          "duration": 0.36104104166666584,
          "durationTicks": 238,
          "midi": 60,
          "name": "C4",
          "ticks": 4418,
          "time": 6.7020139583333345,
          "velocity": 0.7401574803149606
        },
        {
          "duration": 0.3398033333333341,
          "durationTicks": 224,
          "midi": 64,
          "name": "E4",
          "ticks": 4600,
          "time": 6.978104166666666,
          "velocity": 0.8031496062992126
        },
        {
          "duration": 0.35159562500000074,
          "durationTicks": 232,
          "midi": 69,
          "name": "A4",
          "ticks": 4768,
          "time": 7.2329566666666665,
          "velocity": 0.8661417322834646
        },
        {
          "duration": 0.5703522395833334,
          "durationTicks": 386,
          "midi": 71,
          "name": "B4",
          "ticks": 4960,
          "time": 7.524216666666667,
          "velocity": 0.7401574803149606
        },
        {
          "duration": 0.283702083333333,
          "durationTicks": 192,
          "midi": 40,
          "name": "E2",
          "ticks": 4976,
          "time": 7.548488333333334,
          "velocity": 0.6220472440944882
        },
        {
          "duration": 0.3213399479166661,
          "durationTicks": 218,
          "midi": 52,
          "name": "E3",
          "ticks": 5176,
          "time": 7.843982708333334,
          "velocity": 0.6456692913385826
        },
        {
          "duration": 0.16804015624999913,
          "durationTicks": 114,
          "midi": 56,
          "name": "G#3",
          "ticks": 5368,
          "time": 8.126997708333334,
          "velocity": 0.7007874015748031
        },
        {
          "duration": 0.3920936979166676,
          "durationTicks": 266,
          "midi": 64,
          "name": "E4",
          "ticks": 5560,
          "time": 8.410012708333333,
          "velocity": 0.7874015748031497
        },
        {
          "duration": 0.33608031250000003,
          "durationTicks": 228,
          "midi": 68,
          "name": "G#4",
          "ticks": 5740,
          "time": 8.675339270833334,
          "velocity": 0.8346456692913385
        },
        {
          "duration": 0.3739644270833349,
          "durationTicks": 254,
          "midi": 71,
          "name": "B4",
          "ticks": 5922,
          "time": 8.94361390625,
          "velocity": 0.8661417322834646
        },
        {
          "duration": 0.6923287499999997,
          "durationTicks": 474,
          "midi": 72,
          "name": "C5",
          "ticks": 6132,
          "time": 9.2531615625,
          "velocity": 0.7559055118110236
        },
        {
          "duration": 0.6892429166666663,
          "durationTicks": 472,
          "midi": 45,
          "name": "A2",
          "ticks": 6148,
          "time": 9.276691041666668,
          "velocity": 0.5669291338582677
        },
        {
          "duration": 0.43223708333333377,
          "durationTicks": 296,
          "midi": 52,
          "name": "E3",
          "ticks": 6342,
          "time": 9.5599815625,
          "velocity": 0.5905511811023622
        },
        {
          "duration": 0.16354916666666774,
          "durationTicks": 112,
          "midi": 57,
          "name": "A3",
          "ticks": 6552,
          "time": 9.86663625,
          "velocity": 0.5826771653543307
        },
        {
          "duration": 0.3066546875,
          "durationTicks": 210,
          "midi": 64,
          "name": "E4",
          "ticks": 6768,
          "time": 10.182052500000001,
          "velocity": 0.6614173228346457
        },
        {
          "duration": 0.32417781250000033,
          "durationTicks": 222,
          "midi": 76,
          "name": "E5",
          "ticks": 6952,
          "time": 10.450740416666667,
          "velocity": 0.7559055118110236
        },
        {
          "duration": 0.3504625000000008,
          "durationTicks": 240,
          "midi": 75,
          "name": "D#5",
          "ticks": 7124,
          "time": 10.701905208333335,
          "velocity": 0.7086614173228346
        },
        {
          "duration": 0.33585989583333387,
          "durationTicks": 230,
          "midi": 76,
          "name": "E5",
          "ticks": 7320,
          "time": 10.988116250000001,
          "velocity": 0.7086614173228346
        },
        {
          "duration": 0.32709833333333194,
          "durationTicks": 224,
          "midi": 75,
          "name": "D#5",
          "ticks": 7500,
          "time": 11.250963125000002,
          "velocity": 0.8031496062992126
        },
        {
          "duration": 0.33878041666666725,
          "durationTicks": 232,
          "midi": 76,
          "name": "E5",
          "ticks": 7686,
          "time": 11.522571562500001,
          "velocity": 0.8661417322834646
        },
        {
          "duration": 0.37382666666666786,
          "durationTicks": 256,
          "midi": 71,
          "name": "B4",
          "ticks": 7862,
          "time": 11.779577395833334,
          "velocity": 0.8503937007874016
        },
        {
          "duration": 0.32709833333333194,
          "durationTicks": 224,
          "midi": 74,
          "name": "D5",
          "ticks": 8060,
          "time": 12.068708958333335,
          "velocity": 0.7244094488188977
        },
        {
          "duration": 0.32125729166666517,
          "durationTicks": 220,
          "midi": 72,
          "name": "C5",
          "ticks": 8258,
          "time": 12.357840520833335,
          "velocity": 0.5984251968503937
        },
        {
          "duration": 0.39134979166666817,
          "durationTicks": 268,
          "midi": 69,
          "name": "A4",
          "ticks": 8474,
          "time": 12.673256770833333,
          "velocity": 0.6062992125984252
        },
        {
          "duration": 0.6412241666666656,
          "durationTicks": 436,
          "midi": 45,
          "name": "A2",
          "ticks": 8504,
          "time": 12.717064583333334,
          "velocity": 0.4409448818897638
        },
        {
          "duration": 0.4297958333333334,
          "durationTicks": 290,
          "midi": 52,
          "name": "E3",
          "ticks": 8692,
          "time": 12.991593541666667,
          "velocity": 0.5511811023622047
        },
        {
          "duration": 0.18629708333333284,
          "durationTicks": 124,
          "midi": 57,
          "name": "A3",
          "ticks": 8856,
          "time": 13.2320875,
          "velocity": 0.6220472440944882
        },
        {
          "duration": 0.34855583333333406,
          "durationTicks": 232,
          "midi": 60,
          "name": "C4",
          "ticks": 9036,
          "time": 13.50251875,
          "velocity": 0.7716535433070866
        },
        {
          "duration": 0.34555104166666695,
          "durationTicks": 230,
          "midi": 64,
          "name": "E4",
          "ticks": 9218,
          "time": 13.775954791666667,
          "velocity": 0.8503937007874016
        },
        {
          "duration": 0.33100791666666574,
          "durationTicks": 220,
          "midi": 69,
          "name": "A4",
          "ticks": 9388,
          "time": 14.031362083333335,
          "velocity": 0.8818897637795275
        },
        {
          "duration": 0.43653833333333303,
          "durationTicks": 280,
          "midi": 71,
          "name": "B4",
          "ticks": 9584,
          "time": 14.325831666666668,
          "velocity": 0.6850393700787402
        },
        {
          "duration": 0.27500000000000036,
          "durationTicks": 176,
          "midi": 40,
          "name": "E2",
          "ticks": 9618,
          "time": 14.377995,
          "velocity": 0.6141732283464567
        },
        {
          "duration": 0.3156250000000007,
          "durationTicks": 202,
          "midi": 52,
          "name": "E3",
          "ticks": 9808,
          "time": 14.67487,
          "velocity": 0.6456692913385826
        },
        {
          "duration": 0.17812499999999964,
          "durationTicks": 114,
          "midi": 56,
          "name": "G#3",
          "ticks": 10004,
          "time": 14.98112,
          "velocity": 0.6299212598425197
        },
        {
          "duration": 0.34375,
          "durationTicks": 220,
          "midi": 64,
          "name": "E4",
          "ticks": 10200,
          "time": 15.287370000000001,
          "velocity": 0.6850393700787402
        },
        {
          "duration": 0.3343750000000014,
          "durationTicks": 214,
          "midi": 72,
          "name": "C5",
          "ticks": 10388,
          "time": 15.58112,
          "velocity": 0.7559055118110236
        },
        {
          "duration": 0.3742547916666634,
          "durationTicks": 242,
          "midi": 71,
          "name": "B4",
          "ticks": 10562,
          "time": 15.852995000000002,
          "velocity": 0.7559055118110236
        },
        {
          "duration": 0.6696328125000015,
          "durationTicks": 450,
          "midi": 69,
          "name": "A4",
          "ticks": 10774,
          "time": 16.182607604166666,
          "velocity": 0.7244094488188977
        },
        {
          "duration": 0.5446346875000003,
          "durationTicks": 366,
          "midi": 45,
          "name": "A2",
          "ticks": 10788,
          "time": 16.203440625,
          "velocity": 0.5196850393700787
        },
        {
          "duration": 0.3988035416666662,
          "durationTicks": 268,
          "midi": 52,
          "name": "E3",
          "ticks": 10968,
          "time": 16.47129375,
          "velocity": 0.5905511811023622
        },
        {
          "duration": 0.13987885416666757,
          "durationTicks": 94,
          "midi": 57,
          "name": "A3",
          "ticks": 11168,
          "time": 16.768908333333332,
          "velocity": 0.5275590551181102
        },
        {
          "duration": 0.31844760416666773,
          "durationTicks": 214,
          "midi": 76,
          "name": "E5",
          "ticks": 11558,
          "time": 17.349256770833332,
          "velocity": 0.6771653543307087
        },
        {
          "duration": 0.33928062500000067,
          "durationTicks": 228,
          "midi": 75,
          "name": "D#5",
          "ticks": 11754,
          "time": 17.6409190625,
          "velocity": 0.7401574803149606
        },
        {
          "duration": 0.32737604166666756,
          "durationTicks": 220,
          "midi": 76,
          "name": "E5",
          "ticks": 11936,
          "time": 17.911748333333332,
          "velocity": 0.8976377952755905
        },
        {
          "duration": 0.3511852083333338,
          "durationTicks": 236,
          "midi": 75,
          "name": "D#5",
          "ticks": 12108,
          "time": 18.167696875,
          "velocity": 0.8661417322834646
        },
        {
          "duration": 0.33035218750000084,
          "durationTicks": 222,
          "midi": 76,
          "name": "E5",
          "ticks": 12302,
          "time": 18.456383020833332,
          "velocity": 0.8503937007874016
        },
        {
          "duration": 0.38094666666666654,
          "durationTicks": 256,
          "midi": 71,
          "name": "B4",
          "ticks": 12472,
          "time": 18.709355416666668,
          "velocity": 0.8976377952755905
        },
        {
          "duration": 0.3243998958333343,
          "durationTicks": 218,
          "midi": 74,
          "name": "D5",
          "ticks": 12674,
          "time": 19.009946145833332,
          "velocity": 0.7874015748031497
        },
        {
          "duration": 0.36323958333333195,
          "durationTicks": 242,
          "midi": 72,
          "name": "C5",
          "ticks": 12856,
          "time": 19.280775416666668,
          "velocity": 0.6850393700787402
        },
        {
          "duration": 0.40000000000000213,
          "durationTicks": 256,
          "midi": 69,
          "name": "A4",
          "ticks": 13062,
          "time": 19.587764999999997,
          "velocity": 0.6299212598425197
        },
        {
          "duration": 0.625,
          "durationTicks": 400,
          "midi": 45,
          "name": "A2",
          "ticks": 13070,
          "time": 19.600265,
          "velocity": 0.5748031496062992
        },
        {
          "duration": 0.3656250000000014,
          "durationTicks": 234,
          "midi": 52,
          "name": "E3",
          "ticks": 13266,
          "time": 19.906515,
          "velocity": 0.4409448818897638
        },
        {
          "duration": 0.16249999999999787,
          "durationTicks": 104,
          "midi": 57,
          "name": "A3",
          "ticks": 13450,
          "time": 20.194015,
          "velocity": 0.6299212598425197
        },
        {
          "duration": 0.3374999999999986,
          "durationTicks": 216,
          "midi": 60,
          "name": "C4",
          "ticks": 13638,
          "time": 20.487765,
          "velocity": 0.6850393700787402
        },
        {
          "duration": 0.3156250000000007,
          "durationTicks": 202,
          "midi": 64,
          "name": "E4",
          "ticks": 13828,
          "time": 20.78464,
          "velocity": 0.7086614173228346
        },
        {
          "duration": 0.34375,
          "durationTicks": 220,
          "midi": 69,
          "name": "A4",
          "ticks": 14008,
          "time": 21.06589,
          "velocity": 0.7874015748031497
        },
        {
          "duration": 0.45937499999999787,
          "durationTicks": 294,
          "midi": 71,
          "name": "B4",
          "ticks": 14200,
          "time": 21.36589,
          "velocity": 0.6850393700787402
        },
        {
          "duration": 0.2687500000000007,
          "durationTicks": 172,
          "midi": 40,
          "name": "E2",
          "ticks": 14212,
          "time": 21.384639999999997,
          "velocity": 0.5826771653543307
        },
        {
          "duration": 0.296875,
          "durationTicks": 190,
          "midi": 52,
          "name": "E3",
          "ticks": 14398,
          "time": 21.675265,
          "velocity": 0.6614173228346457
        },
        {
          "duration": 0.1531249999999993,
          "durationTicks": 98,
          "midi": 56,
          "name": "G#3",
          "ticks": 14584,
          "time": 21.965889999999998,
          "velocity": 0.7559055118110236
        },
        {
          "duration": 0.3937500000000007,
          "durationTicks": 252,
          "midi": 64,
          "name": "E4",
          "ticks": 14766,
          "time": 22.250265,
          "velocity": 0.8503937007874016
        },
        {
          "duration": 0.34687499999999716,
          "durationTicks": 222,
          "midi": 68,
          "name": "G#4",
          "ticks": 14950,
          "time": 22.537765,
          "velocity": 0.8661417322834646
        },
        {
          "duration": 0.4022054687500045,
          "durationTicks": 258,
          "midi": 71,
          "name": "B4",
          "ticks": 15132,
          "time": 22.822139999999997,
          "velocity": 0.8661417322834646
        },
        {
          "duration": 0.5611471354166682,
          "durationTicks": 366,
          "midi": 72,
          "name": "C5",
          "ticks": 15344,
          "time": 23.153389999999998,
          "velocity": 0.7086614173228346
        },
        {
          "duration": 0.6035484895833356,
          "durationTicks": 394,
          "midi": 45,
          "name": "A2",
          "ticks": 15362,
          "time": 23.181453697916666,
          "velocity": 0.4566929133858268
        },
        {
          "duration": 0.3890896354166635,
          "durationTicks": 254,
          "midi": 52,
          "name": "E3",
          "ticks": 15560,
          "time": 23.48475979166667,
          "velocity": 0.5511811023622047
        },
        {
          "duration": 0.12561161458333459,
          "durationTicks": 82,
          "midi": 57,
          "name": "A3",
          "ticks": 15772,
          "time": 23.809511770833332,
          "velocity": 0.5669291338582677
        },
        {
          "duration": 0.28798760416666624,
          "durationTicks": 188,
          "midi": 64,
          "name": "E4",
          "ticks": 15962,
          "time": 24.100563072916668,
          "velocity": 0.6771653543307087
        },
        {
          "duration": 0.3339430729166679,
          "durationTicks": 218,
          "midi": 76,
          "name": "E5",
          "ticks": 16144,
          "time": 24.379359583333333,
          "velocity": 0.7559055118110236
        },
        {
          "duration": 0.35538895833333584,
          "durationTicks": 232,
          "midi": 75,
          "name": "D#5",
          "ticks": 16330,
          "time": 24.664283489583333,
          "velocity": 0.6771653543307087
        },
        {
          "duration": 0.3492615625000006,
          "durationTicks": 228,
          "midi": 76,
          "name": "E5",
          "ticks": 16518,
          "time": 24.95227109375,
          "velocity": 0.6614173228346457
        },
        {
          "duration": 0.3216882812499975,
          "durationTicks": 210,
          "midi": 75,
          "name": "D#5",
          "ticks": 16708,
          "time": 25.243322395833335,
          "velocity": 0.6614173228346457
        },
        {
          "duration": 0.4044081249999998,
          "durationTicks": 264,
          "midi": 76,
          "name": "E5",
          "ticks": 16892,
          "time": 25.525182604166666,
          "velocity": 0.7244094488188977
        },
        {
          "duration": 0.36764374999999916,
          "durationTicks": 240,
          "midi": 71,
          "name": "B4",
          "ticks": 17082,
          "time": 25.81623390625,
          "velocity": 0.7559055118110236
        },
        {
          "duration": 0.33700677083333375,
          "durationTicks": 220,
          "midi": 74,
          "name": "D5",
          "ticks": 17272,
          "time": 26.107285208333334,
          "velocity": 0.7086614173228346
        },
        {
          "duration": 0.3553889583333323,
          "durationTicks": 232,
          "midi": 72,
          "name": "C5",
          "ticks": 17466,
          "time": 26.40446390625,
          "velocity": 0.6456692913385826
        },
        {
          "duration": 0.3461978645833348,
          "durationTicks": 226,
          "midi": 69,
          "name": "A4",
          "ticks": 17674,
          "time": 26.723088489583333,
          "velocity": 0.6456692913385826
        },
        {
          "duration": 0.5300197395833344,
          "durationTicks": 346,
          "midi": 45,
          "name": "A2",
          "ticks": 17690,
          "time": 26.747598072916666,
          "velocity": 0.4645669291338583
        },
        {
          "duration": 0.30943348958333416,
          "durationTicks": 202,
          "midi": 52,
          "name": "E3",
          "ticks": 17888,
          "time": 27.050904166666665,
          "velocity": 0.4251968503937008
        },
        {
          "duration": 0.14399380208333312,
          "durationTicks": 94,
          "midi": 57,
          "name": "A3",
          "ticks": 18062,
          "time": 27.317445885416667,
          "velocity": 0.6535433070866141
        },
        {
          "duration": 0.3063697916666648,
          "durationTicks": 200,
          "midi": 60,
          "name": "C4",
          "ticks": 18248,
          "time": 27.602369791666668,
          "velocity": 0.7401574803149606
        },
        {
          "duration": 0.34619786458333124,
          "durationTicks": 226,
          "midi": 64,
          "name": "E4",
          "ticks": 18432,
          "time": 27.884230000000002,
          "velocity": 0.7874015748031497
        },
        {
          "duration": 0.3400704687499996,
          "durationTicks": 222,
          "midi": 69,
          "name": "A4",
          "ticks": 18616,
          "time": 28.166090208333333,
          "velocity": 0.8976377952755905
        },
        {
          "duration": 0.42585401041666415,
          "durationTicks": 278,
          "midi": 71,
          "name": "B4",
          "ticks": 18808,
          "time": 28.460205208333335,
          "velocity": 0.7874015748031497
        },
        {
          "duration": 0.2665417187500019,
          "durationTicks": 174,
          "midi": 40,
          "name": "E2",
          "ticks": 18820,
          "time": 28.478587395833333,
          "velocity": 0.5905511811023622
        },
        {
          "duration": 0.2910513020833321,
          "durationTicks": 190,
          "midi": 52,
          "name": "E3",
          "ticks": 19012,
          "time": 28.772702395833335,
          "velocity": 0.6614173228346457
        },
        {
          "duration": 0.13480270833333208,
          "durationTicks": 88,
          "midi": 56,
          "name": "G#3",
          "ticks": 19202,
          "time": 29.063753697916667,
          "velocity": 0.6614173228346457
        },
        {
          "duration": 0.37989854166666603,
          "durationTicks": 248,
          "midi": 64,
          "name": "E4",
          "ticks": 19394,
          "time": 29.35786869791667,
          "velocity": 0.8188976377952756
        },
        {
          "duration": 0.34619786458333124,
          "durationTicks": 226,
          "midi": 72,
          "name": "C5",
          "ticks": 19586,
          "time": 29.65198369791667,
          "velocity": 0.8661417322834646
        },
        {
          "duration": 0.3835744791666649,
          "durationTicks": 252,
          "midi": 71,
          "name": "B4",
          "ticks": 19772,
          "time": 29.936907604166667,
          "velocity": 0.8503937007874016
        },
        {
          "duration": 0.38094666666666654,
          "durationTicks": 256,
          "midi": 69,
          "name": "A4",
          "ticks": 19972,
          "time": 30.243102291666666,
          "velocity": 0.7244094488188977
        },
        {
          "duration": 0.5714199999999998,
          "durationTicks": 384,
          "midi": 45,
          "name": "A2",
          "ticks": 19976,
          "time": 30.249054583333333,
          "velocity": 0.5748031496062992
        },
        {
          "duration": 0.33332833333333056,
          "durationTicks": 224,
          "midi": 52,
          "name": "E3",
          "ticks": 20170,
          "time": 30.537740729166668,
          "velocity": 0.6299212598425197
        },
        {
          "duration": 0.1726164583333336,
          "durationTicks": 116,
          "midi": 57,
          "name": "A3",
          "ticks": 20368,
          "time": 30.832379166666666,
          "velocity": 0.6614173228346457
        },
        {
          "duration": 0.3630897916666669,
          "durationTicks": 244,
          "midi": 71,
          "name": "B4",
          "ticks": 20556,
          "time": 31.112136875,
          "velocity": 0.8818897637795275
        },
        {
          "duration": 0.35416135416666705,
          "durationTicks": 238,
          "midi": 72,
          "name": "C5",
          "ticks": 20746,
          "time": 31.394870729166666,
          "velocity": 0.8976377952755905
        },
        {
          "duration": 0.36308979166666333,
          "durationTicks": 244,
          "midi": 74,
          "name": "D5",
          "ticks": 20930,
          "time": 31.668676145833334,
          "velocity": 0.984251968503937
        },
        {
          "duration": 0.40773197916666604,
          "durationTicks": 274,
          "midi": 76,
          "name": "E5",
          "ticks": 21128,
          "time": 31.963314583333332,
          "velocity": 0.8346456692913385
        },
        {
          "duration": 0.5267778125000007,
          "durationTicks": 354,
          "midi": 48,
          "name": "C3",
          "ticks": 21146,
          "time": 31.990099895833332,
          "velocity": 0.6220472440944882
        },
        {
          "duration": 0.374994375,
          "durationTicks": 252,
          "midi": 55,
          "name": "G3",
          "ticks": 21322,
          "time": 32.25200072916667,
          "velocity": 0.7086614173228346
        },
        {
          "duration": 0.1547595833333304,
          "durationTicks": 104,
          "midi": 60,
          "name": "C4",
          "ticks": 21510,
          "time": 32.5317584375,
          "velocity": 0.6850393700787402
        },
        {
          "duration": 0.3868989583333331,
          "durationTicks": 260,
          "midi": 67,
          "name": "G4",
          "ticks": 21704,
          "time": 32.820444583333334,
          "velocity": 0.8661417322834646
        },
        {
          "duration": 0.37201822916667027,
          "durationTicks": 250,
          "midi": 77,
          "name": "F5",
          "ticks": 21894,
          "time": 33.1031784375,
          "velocity": 0.968503937007874
        },
        {
          "duration": 0.374994375,
          "durationTicks": 252,
          "midi": 76,
          "name": "E5",
          "ticks": 22076,
          "time": 33.37400770833333,
          "velocity": 0.9133858267716536
        },
        {
          "duration": 0.40177968750000304,
          "durationTicks": 270,
          "midi": 74,
          "name": "D5",
          "ticks": 22272,
          "time": 33.66567,
          "velocity": 0.8976377952755905
        },
        {
          "duration": 0.24999624999999526,
          "durationTicks": 168,
          "midi": 43,
          "name": "G2",
          "ticks": 22282,
          "time": 33.68055072916667,
          "velocity": 0.6614173228346457
        },
        {
          "duration": 0.29463843749999796,
          "durationTicks": 198,
          "midi": 55,
          "name": "G3",
          "ticks": 22468,
          "time": 33.95733229166667,
          "velocity": 0.7244094488188977
        },
        {
          "duration": 0.17856875000000372,
          "durationTicks": 120,
          "midi": 59,
          "name": "B3",
          "ticks": 22658,
          "time": 34.24006614583333,
          "velocity": 0.7716535433070866
        },
        {
          "duration": 0.4077319791666696,
          "durationTicks": 274,
          "midi": 65,
          "name": "F4",
          "ticks": 22850,
          "time": 34.52577614583333,
          "velocity": 0.8346456692913385
        },
        {
          "duration": 0.35713750000000033,
          "durationTicks": 240,
          "midi": 76,
          "name": "E5",
          "ticks": 23042,
          "time": 34.811486145833335,
          "velocity": 0.9448818897637795
        },
        {
          "duration": 0.3958273958333294,
          "durationTicks": 266,
          "midi": 74,
          "name": "D5",
          "ticks": 23226,
          "time": 35.085291562500004,
          "velocity": 0.8503937007874016
        },
        {
          "duration": 0.4851117708333348,
          "durationTicks": 326,
          "midi": 72,
          "name": "C5",
          "ticks": 23426,
          "time": 35.38290614583333,
          "velocity": 0.8031496062992126
        },
        {
          "duration": 0.5952291666666696,
          "durationTicks": 400,
          "midi": 45,
          "name": "A2",
          "ticks": 23438,
          "time": 35.40076302083333,
          "velocity": 0.5826771653543307
        },
        {
          "duration": 0.4107081249999993,
          "durationTicks": 276,
          "midi": 52,
          "name": "E3",
          "ticks": 23624,
          "time": 35.67754458333334,
          "velocity": 0.6141732283464567
        },
        {
          "duration": 0.15178343750000067,
          "durationTicks": 102,
          "midi": 57,
          "name": "A3",
          "ticks": 23822,
          "time": 35.972183020833334,
          "velocity": 0.6141732283464567
        },
        {
          "duration": 0.38094666666666654,
          "durationTicks": 256,
          "midi": 64,
          "name": "E4",
          "ticks": 24014,
          "time": 36.257893020833336,
          "velocity": 0.6614173228346457
        },
        {
          "duration": 0.333328333333327,
          "durationTicks": 224,
          "midi": 74,
          "name": "D5",
          "ticks": 24218,
          "time": 36.56145989583334,
          "velocity": 0.7086614173228346
        },
        {
          "duration": 0.3660659374999966,
          "durationTicks": 246,
          "midi": 72,
          "name": "C5",
          "ticks": 24396,
          "time": 36.826336875,
          "velocity": 0.7401574803149606
        },
        {
          "duration": 0.41666041666666587,
          "durationTicks": 280,
          "midi": 71,
          "name": "B4",
          "ticks": 24604,
          "time": 37.13585604166667,
          "velocity": 0.7716535433070866
        },
        {
          "duration": 0.24106781249999898,
          "durationTicks": 162,
          "midi": 40,
          "name": "E2",
          "ticks": 24614,
          "time": 37.15073677083333,
          "velocity": 0.6299212598425197
        },
        {
          "duration": 0.053570624999998984,
          "durationTicks": 36,
          "midi": 52,
          "name": "E3",
          "ticks": 24800,
          "time": 37.42751833333333,
          "velocity": 0.6535433070866141
        },
        {
          "duration": 0.050594479166662154,
          "durationTicks": 34,
          "midi": 64,
          "name": "E4",
          "ticks": 24990,
          "time": 37.710252187500004,
          "velocity": 0.6535433070866141
        },
        {
          "duration": 0.24702010416666553,
          "durationTicks": 166,
          "midi": 64,
          "name": "E4",
          "ticks": 25166,
          "time": 37.97215302083333,
          "velocity": 0.8031496062992126
        },
        {
          "duration": 0.11606968750000135,
          "durationTicks": 78,
          "midi": 76,
          "name": "E5",
          "ticks": 25358,
          "time": 38.257863020833334,
          "velocity": 0.8976377952755905
        },
        {
          "duration": 0.22618708333332904,
          "durationTicks": 152,
          "midi": 64,
          "name": "E4",
          "ticks": 25546,
          "time": 38.53762072916667,
          "velocity": 0.7244094488188977
        },
        {
          "duration": 0.0892843749999983,
          "durationTicks": 60,
          "midi": 76,
          "name": "E5",
          "ticks": 25738,
          "time": 38.82333072916667,
          "velocity": 0.7007874015748031
        },
        {
          "duration": 0.2857100000000017,
          "durationTicks": 192,
          "midi": 76,
          "name": "E5",
          "ticks": 25924,
          "time": 39.10011229166667,
          "velocity": 0.9133858267716536
        },
        {
          "duration": 0.08035593749999492,
          "durationTicks": 54,
          "midi": 88,
          "name": "E6",
          "ticks": 26132,
          "time": 39.40963145833334,
          "velocity": 0.8031496062992126
        },
        {
          "duration": 0.2760902083333363,
          "durationTicks": 182,
          "midi": 75,
          "name": "D#5",
          "ticks": 26314,
          "time": 39.68074979166666,
          "velocity": 0.6456692913385826
        },
        {
          "duration": 0.13349416666666514,
          "durationTicks": 88,
          "midi": 76,
          "name": "E5",
          "ticks": 26500,
          "time": 39.962907916666666,
          "velocity": 0.7244094488188977
        },
        {
          "duration": 0.36104104166666673,
          "durationTicks": 238,
          "midi": 75,
          "name": "D#5",
          "ticks": 26690,
          "time": 40.251133958333334,
          "velocity": 0.7244094488188977
        },
        {
          "duration": 0.3519391666666678,
          "durationTicks": 232,
          "midi": 76,
          "name": "E5",
          "ticks": 26876,
          "time": 40.53329208333333,
          "velocity": 0.7874015748031497
        },
        {
          "duration": 0.37014291666666566,
          "durationTicks": 244,
          "midi": 75,
          "name": "D#5",
          "ticks": 27060,
          "time": 40.81241625,
          "velocity": 0.7559055118110236
        },
        {
          "duration": 0.41868625000000037,
          "durationTicks": 276,
          "midi": 76,
          "name": "E5",
          "ticks": 27254,
          "time": 41.10671020833333,
          "velocity": 0.8346456692913385
        },
        {
          "duration": 0.4156522916666674,
          "durationTicks": 274,
          "midi": 71,
          "name": "B4",
          "ticks": 27444,
          "time": 41.39493625,
          "velocity": 0.8661417322834646
        },
        {
          "duration": 0.34587124999999475,
          "durationTicks": 228,
          "midi": 74,
          "name": "D5",
          "ticks": 27642,
          "time": 41.695298125,
          "velocity": 0.8031496062992126
        },
        {
          "duration": 0.39744854166666244,
          "durationTicks": 262,
          "midi": 72,
          "name": "C5",
          "ticks": 27832,
          "time": 41.98352416666667,
          "velocity": 0.7086614173228346
        },
        {
          "duration": 0.3489052083333348,
          "durationTicks": 230,
          "midi": 69,
          "name": "A4",
          "ticks": 28050,
          "time": 42.314225625,
          "velocity": 0.6692913385826772
        },
        {
          "duration": 0.7160141666666604,
          "durationTicks": 472,
          "midi": 45,
          "name": "A2",
          "ticks": 28072,
          "time": 42.34759916666667,
          "velocity": 0.5196850393700787
        },
        {
          "duration": 0.4520597916666702,
          "durationTicks": 298,
          "midi": 52,
          "name": "E3",
          "ticks": 28250,
          "time": 42.61762145833333,
          "velocity": 0.5511811023622047
        },
        {
          "duration": 0.18203749999999985,
          "durationTicks": 120,
          "midi": 57,
          "name": "A3",
          "ticks": 28442,
          "time": 42.90888145833333,
          "velocity": 0.5905511811023622
        },
        {
          "duration": 0.3640749999999997,
          "durationTicks": 240,
          "midi": 60,
          "name": "C4",
          "ticks": 28628,
          "time": 43.191039583333335,
          "velocity": 0.7401574803149606
        },
        {
          "duration": 0.330701458333337,
          "durationTicks": 218,
          "midi": 64,
          "name": "E4",
          "ticks": 28816,
          "time": 43.47623166666666,
          "velocity": 0.7874015748031497
        },
        {
          "duration": 0.34283729166666177,
          "durationTicks": 226,
          "midi": 69,
          "name": "A4",
          "ticks": 28990,
          "time": 43.74018604166667,
          "velocity": 0.8346456692913385
        },
        {
          "duration": 0.5673502083333304,
          "durationTicks": 374,
          "midi": 71,
          "name": "B4",
          "ticks": 29184,
          "time": 44.03448,
          "velocity": 0.7401574803149606
        },
        {
          "duration": 0.29429395833332705,
          "durationTicks": 194,
          "midi": 40,
          "name": "E2",
          "ticks": 29188,
          "time": 44.04054791666667,
          "velocity": 0.6456692913385826
        },
        {
          "duration": 0.32159958333333805,
          "durationTicks": 212,
          "midi": 52,
          "name": "E3",
          "ticks": 29380,
          "time": 44.33180791666666,
          "velocity": 0.6771653543307087
        },
        {
          "duration": 0.13349416666667224,
          "durationTicks": 88,
          "midi": 56,
          "name": "G#3",
          "ticks": 29570,
          "time": 44.62003395833333,
          "velocity": 0.7559055118110236
        },
        {
          "duration": 0.38227874999999756,
          "durationTicks": 252,
          "midi": 64,
          "name": "E4",
          "ticks": 29750,
          "time": 44.893090208333334,
          "velocity": 0.8503937007874016
        },
        {
          "duration": 0.3519391666666678,
          "durationTicks": 232,
          "midi": 68,
          "name": "G#4",
          "ticks": 29936,
          "time": 45.17524833333333,
          "velocity": 0.8346456692913385
        },
        {
          "duration": 0.38966291666666564,
          "durationTicks": 258,
          "midi": 71,
          "name": "B4",
          "ticks": 30118,
          "time": 45.451338541666665,
          "velocity": 0.8661417322834646
        },
        {
          "duration": 0.7344995833333314,
          "durationTicks": 498,
          "midi": 72,
          "name": "C5",
          "ticks": 30326,
          "time": 45.76687020833333,
          "velocity": 0.7401574803149606
        },
        {
          "duration": 0.790083541666668,
          "durationTicks": 536,
          "midi": 45,
          "name": "A2",
          "ticks": 30336,
          "time": 45.782039999999995,
          "velocity": 0.5826771653543307
        },
        {
          "duration": 0.58666651041667,
          "durationTicks": 398,
          "midi": 52,
          "name": "E3",
          "ticks": 30522,
          "time": 46.056210781249995,
          "velocity": 0.6535433070866141
        },
        {
          "duration": 0.2830149999999989,
          "durationTicks": 192,
          "midi": 57,
          "name": "A3",
          "ticks": 30716,
          "time": 46.34217385416666,
          "velocity": 0.5826771653543307
        },
        {
          "duration": 0.4068340625000033,
          "durationTicks": 276,
          "midi": 64,
          "name": "E4",
          "ticks": 30908,
          "time": 46.62518885416666,
          "velocity": 0.6692913385826772
        },
        {
          "duration": 0.3360803125000018,
          "durationTicks": 228,
          "midi": 76,
          "name": "E5",
          "ticks": 31114,
          "time": 46.92884036458333,
          "velocity": 0.7716535433070866
        },
        {
          "duration": 0.3537687500000004,
          "durationTicks": 240,
          "midi": 75,
          "name": "D#5",
          "ticks": 31294,
          "time": 47.19416692708333,
          "velocity": 0.7086614173228346
        },
        {
          "duration": 0.3272360937500025,
          "durationTicks": 222,
          "midi": 76,
          "name": "E5",
          "ticks": 31490,
          "time": 47.48307807291666,
          "velocity": 0.7401574803149606
        },
        {
          "duration": 0.3360803125000018,
          "durationTicks": 228,
          "midi": 75,
          "name": "D#5",
          "ticks": 31672,
          "time": 47.75135270833333,
          "velocity": 0.8503937007874016
        },
        {
          "duration": 0.3449245312500011,
          "durationTicks": 234,
          "midi": 76,
          "name": "E5",
          "ticks": 31862,
          "time": 48.03141963541666,
          "velocity": 0.8346456692913385
        },
        {
          "duration": 0.3596648958333333,
          "durationTicks": 244,
          "midi": 71,
          "name": "B4",
          "ticks": 32048,
          "time": 48.30559041666666,
          "velocity": 0.8188976377952756
        },
        {
          "duration": 0.32133994791666964,
          "durationTicks": 218,
          "midi": 74,
          "name": "D5",
          "ticks": 32242,
          "time": 48.591553489583326,
          "velocity": 0.7559055118110236
        },
        {
          "duration": 0.35671682291666684,
          "durationTicks": 242,
          "midi": 72,
          "name": "C5",
          "ticks": 32422,
          "time": 48.856880052083326,
          "velocity": 0.6614173228346457
        },
        {
          "duration": 1.155644583333327,
          "durationTicks": 784,
          "midi": 45,
          "name": "A2",
          "ticks": 32628,
          "time": 49.1605315625,
          "velocity": 0.6456692913385826
        },
        {
          "duration": 0.8637853645833289,
          "durationTicks": 586,
          "midi": 69,
          "name": "A4",
          "ticks": 32628,
          "time": 49.1605315625,
          "velocity": 0.6771653543307087
        },
        {
          "duration": 0.8549411458333296,
          "durationTicks": 580,
          "midi": 52,
          "name": "E3",
          "ticks": 32832,
          "time": 49.461234999999995,
          "velocity": 0.6220472440944882
        },
        {
          "duration": 0.5218089062500013,
          "durationTicks": 354,
          "midi": 57,
          "name": "A3",
          "ticks": 33020,
          "time": 49.73835385416666,
          "velocity": 0.6220472440944882
        },
        {
          "duration": 0.4127302083333362,
          "durationTicks": 280,
          "midi": 60,
          "name": "C4",
          "ticks": 33200,
          "time": 50.00368041666666,
          "velocity": 0.6850393700787402
        },
        {
          "duration": 0.2977553645833382,
          "durationTicks": 202,
          "midi": 64,
          "name": "E4",
          "ticks": 33394,
          "time": 50.28964348958333,
          "velocity": 0.8661417322834646
        },
        {
          "duration": 0.350820677083334,
          "durationTicks": 238,
          "midi": 69,
          "name": "A4",
          "ticks": 33556,
          "time": 50.52843739583333,
          "velocity": 0.8346456692913385
        },
        {
          "duration": 0.22700161458333667,
          "durationTicks": 154,
          "midi": 40,
          "name": "E2",
          "ticks": 33768,
          "time": 50.84093312499999,
          "velocity": 0.6299212598425197
        },
        {
          "duration": 0.5159127604166684,
          "durationTicks": 350,
          "midi": 71,
          "name": "B4",
          "ticks": 33778,
          "time": 50.855673489583324,
          "velocity": 0.7874015748031497
        },
        {
          "duration": 0.3449245312500011,
          "durationTicks": 234,
          "midi": 52,
          "name": "E3",
          "ticks": 33962,
          "time": 51.126896197916665,
          "velocity": 0.6850393700787402
        },
        {
          "duration": 0.14445557291666944,
          "durationTicks": 98,
          "midi": 56,
          "name": "G#3",
          "ticks": 34178,
          "time": 51.44528807291666,
          "velocity": 0.3700787401574803
        },
        {
          "duration": 0.3596648958333333,
          "durationTicks": 244,
          "midi": 64,
          "name": "E4",
          "ticks": 34356,
          "time": 51.707666562499995,
          "velocity": 0.7401574803149606
        },
        {
          "duration": 0.3331322395833354,
          "durationTicks": 226,
          "midi": 72,
          "name": "C5",
          "ticks": 34536,
          "time": 51.972993124999995,
          "velocity": 0.8818897637795275
        },
        {
          "duration": 0.3803014062499983,
          "durationTicks": 258,
          "midi": 71,
          "name": "B4",
          "ticks": 34724,
          "time": 52.25011197916666,
          "velocity": 0.8346456692913385
        },
        {
          "duration": 0.601406874999995,
          "durationTicks": 408,
          "midi": 69,
          "name": "A4",
          "ticks": 34936,
          "time": 52.56260770833333,
          "velocity": 0.7401574803149606
        },
        {
          "duration": 0.7045894270833344,
          "durationTicks": 478,
          "midi": 45,
          "name": "A2",
          "ticks": 34936,
          "time": 52.56260770833333,
          "velocity": 0.6220472440944882
        },
        {
          "duration": 0.5365492708333335,
          "durationTicks": 364,
          "midi": 52,
          "name": "E3",
          "ticks": 35134,
          "time": 52.85446692708333,
          "velocity": 0.5905511811023622
        },
        {
          "duration": 0.19752088541666524,
          "durationTicks": 134,
          "midi": 57,
          "name": "A3",
          "ticks": 35338,
          "time": 53.15517036458333,
          "velocity": 0.6141732283464567
        },
        {
          "duration": 0.34787260416666754,
          "durationTicks": 236,
          "midi": 71,
          "name": "B4",
          "ticks": 35524,
          "time": 53.42934114583333,
          "velocity": 0.8661417322834646
        },
        {
          "duration": 0.33902838541666824,
          "durationTicks": 230,
          "midi": 72,
          "name": "C5",
          "ticks": 35716,
          "time": 53.712356145833326,
          "velocity": 1
        },
        {
          "duration": 0.35671682291666684,
          "durationTicks": 242,
          "midi": 74,
          "name": "D5",
          "ticks": 35906,
          "time": 53.992423072916665,
          "velocity": 1
        },
        {
          "duration": 0.8932660937500003,
          "durationTicks": 606,
          "midi": 76,
          "name": "E5",
          "ticks": 36100,
          "time": 54.27838614583333,
          "velocity": 0.8976377952755905
        },
        {
          "duration": 0.5424454166666663,
          "durationTicks": 368,
          "midi": 48,
          "name": "C3",
          "ticks": 36108,
          "time": 54.290178437499996,
          "velocity": 0.6535433070866141
        },
        {
          "duration": 0.37440526041666544,
          "durationTicks": 254,
          "midi": 55,
          "name": "G3",
          "ticks": 36298,
          "time": 54.57024536458333,
          "velocity": 0.7244094488188977
        },
        {
          "duration": 0.15624786458333517,
          "durationTicks": 106,
          "midi": 60,
          "name": "C4",
          "ticks": 36486,
          "time": 54.847364218749995,
          "velocity": 0.7716535433070866
        },
        {
          "duration": 0.3861975520833312,
          "durationTicks": 262,
          "midi": 67,
          "name": "G4",
          "ticks": 36676,
          "time": 55.12743114583333,
          "velocity": 0.8661417322834646
        },
        {
          "duration": 0.33018416666666184,
          "durationTicks": 224,
          "midi": 77,
          "name": "F5",
          "ticks": 36868,
          "time": 55.41044614583333,
          "velocity": 0.8976377952755905
        },
        {
          "duration": 0.37440526041666544,
          "durationTicks": 254,
          "midi": 76,
          "name": "E5",
          "ticks": 37050,
          "time": 55.67872078124999,
          "velocity": 0.9291338582677166
        },
        {
          "duration": 0.44515901041665984,
          "durationTicks": 302,
          "midi": 74,
          "name": "D5",
          "ticks": 37248,
          "time": 55.97058,
          "velocity": 0.8661417322834646
        },
        {
          "duration": 0.2623784895833339,
          "durationTicks": 178,
          "midi": 43,
          "name": "G2",
          "ticks": 37270,
          "time": 56.00300880208333,
          "velocity": 0.6377952755905512
        },
        {
          "duration": 0.2653265625000003,
          "durationTicks": 180,
          "midi": 55,
          "name": "G3",
          "ticks": 37450,
          "time": 56.26833536458333,
          "velocity": 0.6614173228346457
        },
        {
          "duration": 0.09433833333334007,
          "durationTicks": 64,
          "midi": 59,
          "name": "B3",
          "ticks": 37666,
          "time": 56.586727239583325,
          "velocity": 0.4645669291338583
        },
        {
          "duration": 0.32133994791666964,
          "durationTicks": 218,
          "midi": 65,
          "name": "F4",
          "ticks": 37836,
          "time": 56.83731343749999,
          "velocity": 0.7086614173228346
        },
        {
          "duration": 0.2889111458333389,
          "durationTicks": 196,
          "midi": 76,
          "name": "E5",
          "ticks": 38030,
          "time": 57.12327651041666,
          "velocity": 0.7086614173228346
        },
        {
          "duration": 0.3449245312500011,
          "durationTicks": 234,
          "midi": 74,
          "name": "D5",
          "ticks": 38212,
          "time": 57.39155114583333,
          "velocity": 0.7401574803149606
        },
        {
          "duration": 0.4775878125000048,
          "durationTicks": 324,
          "midi": 72,
          "name": "C5",
          "ticks": 38402,
          "time": 57.67161807291666,
          "velocity": 0.6850393700787402
        },
        {
          "duration": 0.5719261458333378,
          "durationTicks": 388,
          "midi": 45,
          "name": "A2",
          "ticks": 38424,
          "time": 57.704046874999996,
          "velocity": 0.47244094488188976
        },
        {
          "duration": 0.3891456249999976,
          "durationTicks": 264,
          "midi": 52,
          "name": "E3",
          "ticks": 38600,
          "time": 57.96347729166666,
          "velocity": 0.6614173228346457
        },
        {
          "duration": 0.1326632812499966,
          "durationTicks": 90,
          "midi": 57,
          "name": "A3",
          "ticks": 38794,
          "time": 58.24944036458333,
          "velocity": 0.6456692913385826
        },
        {
          "duration": 0.22700161458333667,
          "durationTicks": 154,
          "midi": 64,
          "name": "E4",
          "ticks": 38990,
          "time": 58.53835151041666,
          "velocity": 0.6456692913385826
        },
        {
          "duration": 0.2741707812499925,
          "durationTicks": 186,
          "midi": 74,
          "name": "D5",
          "ticks": 39194,
          "time": 58.839054947916665,
          "velocity": 0.6929133858267716
        },
        {
          "duration": 0.34787260416666754,
          "durationTicks": 236,
          "midi": 72,
          "name": "C5",
          "ticks": 39370,
          "time": 59.098485364583325,
          "velocity": 0.8188976377952756
        },
        {
          "duration": 0.18278052083333307,
          "durationTicks": 124,
          "midi": 40,
          "name": "E2",
          "ticks": 39552,
          "time": 59.36676,
          "velocity": 0.6692913385826772
        },
        {
          "duration": 0.3242880208333361,
          "durationTicks": 220,
          "midi": 71,
          "name": "B4",
          "ticks": 39564,
          "time": 59.3844484375,
          "velocity": 0.7244094488188977
        },
        {
          "duration": 0.1326632812499966,
          "durationTicks": 90,
          "midi": 52,
          "name": "E3",
          "ticks": 39744,
          "time": 59.649775,
          "velocity": 0.7244094488188977
        },
        {
          "duration": 0.07664989583333437,
          "durationTicks": 52,
          "midi": 64,
          "name": "E4",
          "ticks": 39936,
          "time": 59.93279,
          "velocity": 0.6692913385826772
        },
        {
          "duration": 0.25943041666666744,
          "durationTicks": 176,
          "midi": 64,
          "name": "E4",
          "ticks": 40128,
          "time": 60.215804999999996,
          "velocity": 0.8661417322834646
        },
        {
          "duration": 0.12087098958333797,
          "durationTicks": 82,
          "midi": 76,
          "name": "E5",
          "ticks": 40340,
          "time": 60.52830072916666,
          "velocity": 0.9448818897637795
        },
        {
          "duration": 0.25058619791666104,
          "durationTicks": 170,
          "midi": 64,
          "name": "E4",
          "ticks": 40526,
          "time": 60.802471510416666,
          "velocity": 0.8503937007874016
        },
        {
          "duration": 0.09139026041667364,
          "durationTicks": 62,
          "midi": 76,
          "name": "E5",
          "ticks": 40706,
          "time": 61.06779807291666,
          "velocity": 0.9448818897637795
        },
        {
          "duration": 0.33902838541666824,
          "durationTicks": 230,
          "midi": 76,
          "name": "E5",
          "ticks": 40892,
          "time": 61.341968854166666,
          "velocity": 0.984251968503937
        },
        {
          "duration": 0.10318255208333227,
          "durationTicks": 70,
          "midi": 88,
          "name": "E6",
          "ticks": 41090,
          "time": 61.633828072916664,
          "velocity": 0.905511811023622
        },
        {
          "duration": 0.3007034374999975,
          "durationTicks": 204,
          "midi": 75,
          "name": "D#5",
          "ticks": 41274,
          "time": 61.90505078125,
          "velocity": 0.8346456692913385
        },
        {
          "duration": 0.12971520833333017,
          "durationTicks": 88,
          "midi": 76,
          "name": "E5",
          "ticks": 41464,
          "time": 62.18511770833333,
          "velocity": 0.8188976377952756
        },
        {
          "duration": 0.30411401041666863,
          "durationTicks": 206,
          "midi": 75,
          "name": "D#5",
          "ticks": 41658,
          "time": 62.471080781249995,
          "velocity": 0.8976377952755905
        },
        {
          "duration": 0.3088553645833372,
          "durationTicks": 202,
          "midi": 76,
          "name": "E5",
          "ticks": 41846,
          "time": 62.74819963541666,
          "velocity": 0.8346456692913385
        },
        {
          "duration": 0.37683484375000376,
          "durationTicks": 246,
          "midi": 75,
          "name": "D#5",
          "ticks": 42064,
          "time": 63.08156458333333,
          "velocity": 0.7559055118110236
        },
        {
          "duration": 0.37683484374999665,
          "durationTicks": 246,
          "midi": 76,
          "name": "E5",
          "ticks": 42258,
          "time": 63.37874328125,
          "velocity": 0.7244094488188977
        },
        {
          "duration": 0.3615163541666604,
          "durationTicks": 236,
          "midi": 71,
          "name": "B4",
          "ticks": 42444,
          "time": 63.6636671875,
          "velocity": 0.7086614173228346
        },
        {
          "duration": 0.3216882812500046,
          "durationTicks": 210,
          "midi": 74,
          "name": "D5",
          "ticks": 42636,
          "time": 63.9577821875,
          "velocity": 0.7244094488188977
        },
        {
          "duration": 0.38602593750000835,
          "durationTicks": 252,
          "midi": 72,
          "name": "C5",
          "ticks": 42820,
          "time": 64.23964239583333,
          "velocity": 0.6614173228346457
        },
        {
          "duration": 0.3492615625000042,
          "durationTicks": 228,
          "midi": 69,
          "name": "A4",
          "ticks": 43024,
          "time": 64.55213958333333,
          "velocity": 0.6614173228346457
        },
        {
          "duration": 0.5116375520833287,
          "durationTicks": 334,
          "midi": 45,
          "name": "A2",
          "ticks": 43034,
          "time": 64.56745807291666,
          "velocity": 0.5433070866141733
        },
        {
          "duration": 0.2757328124999958,
          "durationTicks": 180,
          "midi": 52,
          "name": "E3",
          "ticks": 43220,
          "time": 64.85238197916667,
          "velocity": 0.5433070866141733
        },
        {
          "duration": 0.1470575000000025,
          "durationTicks": 96,
          "midi": 57,
          "name": "A3",
          "ticks": 43408,
          "time": 65.14036958333334,
          "velocity": 0.6377952755905512
        },
        {
          "duration": 0.3431341666666725,
          "durationTicks": 224,
          "midi": 60,
          "name": "C4",
          "ticks": 43600,
          "time": 65.43448458333333,
          "velocity": 0.7086614173228346
        },
        {
          "duration": 0.3431341666666583,
          "durationTicks": 224,
          "midi": 64,
          "name": "E4",
          "ticks": 43788,
          "time": 65.7224721875,
          "velocity": 0.7401574803149606
        },
        {
          "duration": 0.3431341666666725,
          "durationTicks": 224,
          "midi": 69,
          "name": "A4",
          "ticks": 43972,
          "time": 66.00433239583333,
          "velocity": 0.8661417322834646
        },
        {
          "duration": 0.4197266145833254,
          "durationTicks": 274,
          "midi": 71,
          "name": "B4",
          "ticks": 44164,
          "time": 66.29844739583334,
          "velocity": 0.7244094488188977
        },
        {
          "duration": 0.26654171875000543,
          "durationTicks": 174,
          "midi": 40,
          "name": "E2",
          "ticks": 44194,
          "time": 66.34440286458333,
          "velocity": 0.5511811023622047
        },
        {
          "duration": 0.27879651041666875,
          "durationTicks": 182,
          "midi": 52,
          "name": "E3",
          "ticks": 44366,
          "time": 66.60788088541666,
          "velocity": 0.6850393700787402
        },
        {
          "duration": 0.13173901041666625,
          "durationTicks": 86,
          "midi": 56,
          "name": "G#3",
          "ticks": 44554,
          "time": 66.89586848958334,
          "velocity": 0.7007874015748031
        },
        {
          "duration": 0.3982807291666717,
          "durationTicks": 260,
          "midi": 64,
          "name": "E4",
          "ticks": 44740,
          "time": 67.18079239583334,
          "velocity": 0.8031496062992126
        },
        {
          "duration": 0.35538895833333584,
          "durationTicks": 232,
          "midi": 68,
          "name": "G#4",
          "ticks": 44922,
          "time": 67.45958890625,
          "velocity": 0.8661417322834646
        },
        {
          "duration": 0.3689564062500068,
          "durationTicks": 242,
          "midi": 71,
          "name": "B4",
          "ticks": 45110,
          "time": 67.74757651041666,
          "velocity": 0.8661417322834646
        },
        {
          "duration": 0.535881354166662,
          "durationTicks": 360,
          "midi": 72,
          "name": "C5",
          "ticks": 45308,
          "time": 68.05088260416667,
          "velocity": 0.8031496062992126
        },
        {
          "duration": 0.5505869791666669,
          "durationTicks": 370,
          "midi": 45,
          "name": "A2",
          "ticks": 45326,
          "time": 68.07784302083334,
          "velocity": 0.6141732283464567
        },
        {
          "duration": 0.3898751041666628,
          "durationTicks": 262,
          "midi": 52,
          "name": "E3",
          "ticks": 45516,
          "time": 68.360576875,
          "velocity": 0.6299212598425197
        },
        {
          "duration": 0.1666641666666635,
          "durationTicks": 112,
          "midi": 57,
          "name": "A3",
          "ticks": 45728,
          "time": 68.67604833333334,
          "velocity": 0.5669291338582677
        },
        {
          "duration": 0.3630897916666669,
          "durationTicks": 244,
          "midi": 64,
          "name": "E4",
          "ticks": 45914,
          "time": 68.95282989583333,
          "velocity": 0.7086614173228346
        },
        {
          "duration": 0.31547145833333445,
          "durationTicks": 212,
          "midi": 76,
          "name": "E5",
          "ticks": 46110,
          "time": 69.2444921875,
          "velocity": 0.8346456692913385
        },
        {
          "duration": 0.3452329166666743,
          "durationTicks": 232,
          "midi": 75,
          "name": "D#5",
          "ticks": 46284,
          "time": 69.503416875,
          "velocity": 0.8346456692913385
        },
        {
          "duration": 0.3184476041666642,
          "durationTicks": 214,
          "midi": 76,
          "name": "E5",
          "ticks": 46476,
          "time": 69.78912687500001,
          "velocity": 0.7401574803149606
        },
        {
          "duration": 0.32737604166666756,
          "durationTicks": 220,
          "midi": 75,
          "name": "D#5",
          "ticks": 46660,
          "time": 70.06293229166667,
          "velocity": 0.9133858267716536
        },
        {
          "duration": 0.37201822916667027,
          "durationTicks": 250,
          "midi": 76,
          "name": "E5",
          "ticks": 46848,
          "time": 70.34269,
          "velocity": 0.8031496062992126
        },
        {
          "duration": 0.3571374999999932,
          "durationTicks": 240,
          "midi": 71,
          "name": "B4",
          "ticks": 47034,
          "time": 70.61947156250001,
          "velocity": 0.8503937007874016
        },
        {
          "duration": 0.30356687500000135,
          "durationTicks": 204,
          "midi": 74,
          "name": "D5",
          "ticks": 47226,
          "time": 70.9051815625,
          "velocity": 0.8503937007874016
        },
        {
          "duration": 0.34820906250000405,
          "durationTicks": 234,
          "midi": 72,
          "name": "C5",
          "ticks": 47410,
          "time": 71.17898697916667,
          "velocity": 0.7244094488188977
        },
        {
          "duration": 0.3898751041666628,
          "durationTicks": 262,
          "midi": 69,
          "name": "A4",
          "ticks": 47616,
          "time": 71.48553000000001,
          "velocity": 0.6850393700787402
        },
        {
          "duration": 0.5952291666666696,
          "durationTicks": 400,
          "midi": 45,
          "name": "A2",
          "ticks": 47622,
          "time": 71.4944584375,
          "velocity": 0.5826771653543307
        },
        {
          "duration": 0.33928062500000067,
          "durationTicks": 228,
          "midi": 52,
          "name": "E3",
          "ticks": 47814,
          "time": 71.78016843750001,
          "velocity": 0.5984251968503937
        },
        {
          "duration": 0.11904583333333107,
          "durationTicks": 80,
          "midi": 57,
          "name": "A3",
          "ticks": 47996,
          "time": 72.05099770833334,
          "velocity": 0.6771653543307087
        },
        {
          "duration": 0.3214237500000081,
          "durationTicks": 216,
          "midi": 60,
          "name": "C4",
          "ticks": 48182,
          "time": 72.32777927083333,
          "velocity": 0.8346456692913385
        },
        {
          "duration": 0.3303521874999973,
          "durationTicks": 222,
          "midi": 64,
          "name": "E4",
          "ticks": 48372,
          "time": 72.61051312500001,
          "velocity": 0.8346456692913385
        },
        {
          "duration": 0.333328333333327,
          "durationTicks": 224,
          "midi": 69,
          "name": "A4",
          "ticks": 48560,
          "time": 72.89027083333335,
          "velocity": 0.8818897637795275
        },
        {
          "duration": 0.2767815624999912,
          "durationTicks": 186,
          "midi": 40,
          "name": "E2",
          "ticks": 48752,
          "time": 73.17598083333334,
          "velocity": 0.6614173228346457
        },
        {
          "duration": 0.3511852083333338,
          "durationTicks": 236,
          "midi": 71,
          "name": "B4",
          "ticks": 48754,
          "time": 73.17895697916667,
          "velocity": 0.7244094488188977
        },
        {
          "duration": 0.20535406250000676,
          "durationTicks": 138,
          "midi": 52,
          "name": "E3",
          "ticks": 48954,
          "time": 73.4765715625,
          "velocity": 0.6535433070866141
        },
        {
          "duration": 0.12797427083333446,
          "durationTicks": 86,
          "midi": 56,
          "name": "G#3",
          "ticks": 49156,
          "time": 73.77716229166667,
          "velocity": 0.5984251968503937
        },
        {
          "duration": 0.30356687500000135,
          "durationTicks": 204,
          "midi": 64,
          "name": "E4",
          "ticks": 49352,
          "time": 74.06882458333334,
          "velocity": 0.7244094488188977
        },
        {
          "duration": 0.33630447916667094,
          "durationTicks": 226,
          "midi": 72,
          "name": "C5",
          "ticks": 49544,
          "time": 74.35453458333333,
          "velocity": 0.7559055118110236
        },
        {
          "duration": 0.3511852083333338,
          "durationTicks": 236,
          "midi": 71,
          "name": "B4",
          "ticks": 49732,
          "time": 74.63429229166667,
          "velocity": 0.7244094488188977
        },
        {
          "duration": 0.3868989583333331,
          "durationTicks": 260,
          "midi": 69,
          "name": "A4",
          "ticks": 49926,
          "time": 74.9229784375,
          "velocity": 0.7559055118110236
        },
        {
          "duration": 0.4077319791666696,
          "durationTicks": 274,
          "midi": 45,
          "name": "A2",
          "ticks": 49936,
          "time": 74.93785916666667,
          "velocity": 0.5984251968503937
        },
        {
          "duration": 0.24999624999999526,
          "durationTicks": 168,
          "midi": 52,
          "name": "E3",
          "ticks": 50120,
          "time": 75.21166458333335,
          "velocity": 0.6141732283464567
        },
        {
          "duration": 0.050594479166662154,
          "durationTicks": 34,
          "midi": 57,
          "name": "A3",
          "ticks": 50310,
          "time": 75.49439843750001,
          "velocity": 0.6535433070866141
        },
        {
          "duration": 0.13987885416666757,
          "durationTicks": 94,
          "midi": 72,
          "name": "C5",
          "ticks": 50502,
          "time": 75.7801084375,
          "velocity": 0.8031496062992126
        },
        {
          "duration": 0.11904583333333107,
          "durationTicks": 80,
          "midi": 64,
          "name": "E4",
          "ticks": 50502,
          "time": 75.7801084375,
          "velocity": 0.7716535433070866
        },
        {
          "duration": 0.0654752083333392,
          "durationTicks": 44,
          "midi": 58,
          "name": "A#3",
          "ticks": 50510,
          "time": 75.79201302083334,
          "velocity": 0.6850393700787402
        },
        {
          "duration": 0.11011739583332769,
          "durationTicks": 74,
          "midi": 72,
          "name": "C5",
          "ticks": 50696,
          "time": 76.06879458333334,
          "velocity": 1
        },
        {
          "duration": 0.08928437500000541,
          "durationTicks": 60,
          "midi": 65,
          "name": "F4",
          "ticks": 50702,
          "time": 76.07772302083333,
          "velocity": 0.8661417322834646
        },
        {
          "duration": 0.0773797916666723,
          "durationTicks": 52,
          "midi": 60,
          "name": "C4",
          "ticks": 50702,
          "time": 76.07772302083333,
          "velocity": 0.7716535433070866
        },
        {
          "duration": 0.0773797916666723,
          "durationTicks": 52,
          "midi": 57,
          "name": "A3",
          "ticks": 50702,
          "time": 76.07772302083333,
          "velocity": 0.8188976377952756
        },
        {
          "duration": 0.09226052083333514,
          "durationTicks": 62,
          "midi": 67,
          "name": "G4",
          "ticks": 50886,
          "time": 76.35152843750001,
          "velocity": 0.968503937007874
        },
        {
          "duration": 0.0773797916666723,
          "durationTicks": 52,
          "midi": 64,
          "name": "E4",
          "ticks": 50888,
          "time": 76.35450458333334,
          "velocity": 0.8661417322834646
        },
        {
          "duration": 0.11309354166667163,
          "durationTicks": 76,
          "midi": 72,
          "name": "C5",
          "ticks": 50888,
          "time": 76.35450458333334,
          "velocity": 1
        },
        {
          "duration": 0.08928437500000541,
          "durationTicks": 60,
          "midi": 60,
          "name": "C4",
          "ticks": 50888,
          "time": 76.35450458333334,
          "velocity": 0.8818897637795275
        },
        {
          "duration": 0.06845135416665471,
          "durationTicks": 46,
          "midi": 55,
          "name": "G3",
          "ticks": 50892,
          "time": 76.36045687500001,
          "velocity": 0.8661417322834646
        },
        {
          "duration": 0.1101173958333419,
          "durationTicks": 74,
          "midi": 65,
          "name": "F4",
          "ticks": 51070,
          "time": 76.62533385416667,
          "velocity": 0.8346456692913385
        },
        {
          "duration": 0.15773572916666012,
          "durationTicks": 106,
          "midi": 69,
          "name": "A4",
          "ticks": 51074,
          "time": 76.63128614583334,
          "velocity": 0.8976377952755905
        },
        {
          "duration": 1.217243645833335,
          "durationTicks": 818,
          "midi": 72,
          "name": "C5",
          "ticks": 51078,
          "time": 76.6372384375,
          "velocity": 0.9291338582677166
        },
        {
          "duration": 1.3362894791666662,
          "durationTicks": 898,
          "midi": 53,
          "name": "F3",
          "ticks": 51082,
          "time": 76.64319072916668,
          "velocity": 0.6614173228346457
        },
        {
          "duration": 0.27975770833333513,
          "durationTicks": 188,
          "midi": 57,
          "name": "A3",
          "ticks": 51274,
          "time": 76.92890072916667,
          "velocity": 0.6141732283464567
        },
        {
          "duration": 0.30654302083333107,
          "durationTicks": 206,
          "midi": 60,
          "name": "C4",
          "ticks": 51478,
          "time": 77.23246760416667,
          "velocity": 0.6220472440944882
        },
        {
          "duration": 0.24702010416666553,
          "durationTicks": 166,
          "midi": 57,
          "name": "A3",
          "ticks": 51666,
          "time": 77.51222531250001,
          "velocity": 0.5905511811023622
        },
        {
          "duration": 0.31547145833333445,
          "durationTicks": 212,
          "midi": 60,
          "name": "C4",
          "ticks": 51850,
          "time": 77.78603072916667,
          "velocity": 0.6220472440944882
        },
        {
          "duration": 0.37201822916665606,
          "durationTicks": 250,
          "midi": 77,
          "name": "F5",
          "ticks": 51852,
          "time": 77.78900687500001,
          "velocity": 0.968503937007874
        },
        {
          "duration": 0.309519166666675,
          "durationTicks": 208,
          "midi": 57,
          "name": "A3",
          "ticks": 52030,
          "time": 78.05388385416667,
          "velocity": 0.6535433070866141
        },
        {
          "duration": 0.09523666666666486,
          "durationTicks": 64,
          "midi": 76,
          "name": "E5",
          "ticks": 52054,
          "time": 78.08959760416667,
          "velocity": 0.9291338582677166
        },
        {
          "duration": 1.4761683333333337,
          "durationTicks": 992,
          "midi": 53,
          "name": "F3",
          "ticks": 52226,
          "time": 78.34554614583334,
          "velocity": 0.6220472440944882
        },
        {
          "duration": 0.5624915625000142,
          "durationTicks": 378,
          "midi": 76,
          "name": "E5",
          "ticks": 52230,
          "time": 78.3514984375,
          "velocity": 0.984251968503937
        },
        {
          "duration": 0.2857100000000088,
          "durationTicks": 192,
          "midi": 58,
          "name": "A#3",
          "ticks": 52418,
          "time": 78.63125614583333,
          "velocity": 0.6141732283464567
        },
        {
          "duration": 0.2886861458333385,
          "durationTicks": 194,
          "midi": 62,
          "name": "D4",
          "ticks": 52606,
          "time": 78.91101385416667,
          "velocity": 0.5511811023622047
        },
        {
          "duration": 0.19642562500000338,
          "durationTicks": 132,
          "midi": 74,
          "name": "D5",
          "ticks": 52612,
          "time": 78.91994229166667,
          "velocity": 0.8188976377952756
        },
        {
          "duration": 0.2946384375000122,
          "durationTicks": 198,
          "midi": 58,
          "name": "A#3",
          "ticks": 52796,
          "time": 79.19374770833333,
          "velocity": 0.5196850393700787
        },
        {
          "duration": 0.3868989583333331,
          "durationTicks": 260,
          "midi": 62,
          "name": "D4",
          "ticks": 52996,
          "time": 79.49136229166668,
          "velocity": 0.5433070866141733
        },
        {
          "duration": 0.3541613541666635,
          "durationTicks": 238,
          "midi": 82,
          "name": "A#5",
          "ticks": 52998,
          "time": 79.4943384375,
          "velocity": 0.9448818897637795
        },
        {
          "duration": 0.3898751041666628,
          "durationTicks": 262,
          "midi": 58,
          "name": "A#3",
          "ticks": 53182,
          "time": 79.76814385416668,
          "velocity": 0.5748031496062992
        },
        {
          "duration": 0.09226052083333514,
          "durationTicks": 62,
          "midi": 81,
          "name": "A5",
          "ticks": 53236,
          "time": 79.84849979166667,
          "velocity": 0.8818897637795275
        },
        {
          "duration": 0.3184476041666642,
          "durationTicks": 214,
          "midi": 53,
          "name": "F3",
          "ticks": 53378,
          "time": 80.05980614583333,
          "velocity": 0.6299212598425197
        },
        {
          "duration": 0.36904208333332633,
          "durationTicks": 248,
          "midi": 81,
          "name": "A5",
          "ticks": 53380,
          "time": 80.06278229166668,
          "velocity": 0.9291338582677166
        },
        {
          "duration": 0.3630897916666527,
          "durationTicks": 244,
          "midi": 79,
          "name": "G5",
          "ticks": 53568,
          "time": 80.34254000000001,
          "velocity": 0.8818897637795275
        },
        {
          "duration": 0.4196365625000027,
          "durationTicks": 282,
          "midi": 64,
          "name": "E4",
          "ticks": 53570,
          "time": 80.34551614583334,
          "velocity": 0.6141732283464567
        },
        {
          "duration": 0.29166229166666824,
          "durationTicks": 196,
          "midi": 77,
          "name": "F5",
          "ticks": 53762,
          "time": 80.63122614583334,
          "velocity": 0.8188976377952756
        },
        {
          "duration": 0.2767815625000054,
          "durationTicks": 186,
          "midi": 58,
          "name": "A#3",
          "ticks": 53770,
          "time": 80.64313072916667,
          "velocity": 0.5748031496062992
        },
        {
          "duration": 0.25892468749999864,
          "durationTicks": 174,
          "midi": 55,
          "name": "G3",
          "ticks": 53770,
          "time": 80.64313072916667,
          "velocity": 0.6299212598425197
        },
        {
          "duration": 0.25892468749999864,
          "durationTicks": 174,
          "midi": 53,
          "name": "F3",
          "ticks": 53770,
          "time": 80.64313072916667,
          "velocity": 0.5826771653543307
        },
        {
          "duration": 0.3333283333333412,
          "durationTicks": 224,
          "midi": 76,
          "name": "E5",
          "ticks": 53946,
          "time": 80.9050315625,
          "velocity": 0.7874015748031497
        },
        {
          "duration": 0.37201822916667027,
          "durationTicks": 250,
          "midi": 64,
          "name": "E4",
          "ticks": 53954,
          "time": 80.91693614583333,
          "velocity": 0.6771653543307087
        },
        {
          "duration": 0.2648769791666581,
          "durationTicks": 178,
          "midi": 74,
          "name": "D5",
          "ticks": 54138,
          "time": 81.19074156250001,
          "velocity": 0.7559055118110236
        },
        {
          "duration": 0.27082927083333175,
          "durationTicks": 182,
          "midi": 58,
          "name": "A#3",
          "ticks": 54156,
          "time": 81.217526875,
          "velocity": 0.5748031496062992
        },
        {
          "duration": 0.1994017708333331,
          "durationTicks": 134,
          "midi": 53,
          "name": "F3",
          "ticks": 54162,
          "time": 81.22645531250001,
          "velocity": 0.5511811023622047
        },
        {
          "duration": 0.19344947916667365,
          "durationTicks": 130,
          "midi": 55,
          "name": "G3",
          "ticks": 54164,
          "time": 81.22943145833334,
          "velocity": 0.5905511811023622
        },
        {
          "duration": 0.38094666666665944,
          "durationTicks": 256,
          "midi": 72,
          "name": "C5",
          "ticks": 54324,
          "time": 81.46752312500001,
          "velocity": 0.7086614173228346
        },
        {
          "duration": 0.33928062499998646,
          "durationTicks": 228,
          "midi": 64,
          "name": "E4",
          "ticks": 54340,
          "time": 81.49133229166668,
          "velocity": 0.5669291338582677
        },
        {
          "duration": 0.6755851041666574,
          "durationTicks": 454,
          "midi": 70,
          "name": "A#4",
          "ticks": 54522,
          "time": 81.76216156250001,
          "velocity": 0.7086614173228346
        },
        {
          "duration": 1.377955520833325,
          "durationTicks": 926,
          "midi": 53,
          "name": "F3",
          "ticks": 54532,
          "time": 81.77704229166667,
          "velocity": 0.5590551181102362
        },
        {
          "duration": 0.31547145833332024,
          "durationTicks": 212,
          "midi": 57,
          "name": "A3",
          "ticks": 54726,
          "time": 82.06572843750001,
          "velocity": 0.5748031496062992
        },
        {
          "duration": 0.10416510416666824,
          "durationTicks": 70,
          "midi": 69,
          "name": "A4",
          "ticks": 54918,
          "time": 82.35143843750001,
          "velocity": 0.6850393700787402
        },
        {
          "duration": 0.27082927083333175,
          "durationTicks": 182,
          "midi": 60,
          "name": "C4",
          "ticks": 54926,
          "time": 82.36334302083334,
          "velocity": 0.5748031496062992
        },
        {
          "duration": 0.31547145833333445,
          "durationTicks": 212,
          "midi": 57,
          "name": "A3",
          "ticks": 55108,
          "time": 82.63417229166667,
          "velocity": 0.6062992125984252
        },
        {
          "duration": 0.16071187500000406,
          "durationTicks": 108,
          "midi": 70,
          "name": "A#4",
          "ticks": 55210,
          "time": 82.78595572916667,
          "velocity": 0.7086614173228346
        },
        {
          "duration": 0.15773572916667433,
          "durationTicks": 106,
          "midi": 69,
          "name": "A4",
          "ticks": 55298,
          "time": 82.91690614583334,
          "velocity": 0.7401574803149606
        },
        {
          "duration": 0.3214237500000081,
          "durationTicks": 216,
          "midi": 60,
          "name": "C4",
          "ticks": 55316,
          "time": 82.94369145833333,
          "velocity": 0.6692913385826772
        },
        {
          "duration": 0.21428249999999593,
          "durationTicks": 144,
          "midi": 67,
          "name": "G4",
          "ticks": 55400,
          "time": 83.06868958333334,
          "velocity": 0.8661417322834646
        },
        {
          "duration": 0.19344947916665944,
          "durationTicks": 130,
          "midi": 69,
          "name": "A4",
          "ticks": 55500,
          "time": 83.21749687500001,
          "velocity": 0.8346456692913385
        },
        {
          "duration": 0.27975770833333513,
          "durationTicks": 188,
          "midi": 57,
          "name": "A3",
          "ticks": 55508,
          "time": 83.22940145833334,
          "velocity": 0.5826771653543307
        },
        {
          "duration": 0.19344947916665944,
          "durationTicks": 130,
          "midi": 70,
          "name": "A#4",
          "ticks": 55594,
          "time": 83.35737572916668,
          "velocity": 0.8031496062992126
        },
        {
          "duration": 1.2380766666666716,
          "durationTicks": 832,
          "midi": 72,
          "name": "C5",
          "ticks": 55690,
          "time": 83.50023072916667,
          "velocity": 0.8503937007874016
        },
        {
          "duration": 1.4017646875000054,
          "durationTicks": 942,
          "midi": 53,
          "name": "F3",
          "ticks": 55698,
          "time": 83.5121353125,
          "velocity": 0.6141732283464567
        },
        {
          "duration": 0.24702010416666553,
          "durationTicks": 166,
          "midi": 57,
          "name": "A3",
          "ticks": 55912,
          "time": 83.83058291666667,
          "velocity": 0.5748031496062992
        },
        {
          "duration": 0.3303521874999973,
          "durationTicks": 222,
          "midi": 60,
          "name": "C4",
          "ticks": 56088,
          "time": 84.09248375000001,
          "velocity": 0.6535433070866141
        },
        {
          "duration": 0.29166229166666824,
          "durationTicks": 196,
          "midi": 57,
          "name": "A3",
          "ticks": 56272,
          "time": 84.36628916666668,
          "velocity": 0.6535433070866141
        },
        {
          "duration": 0.31547145833333445,
          "durationTicks": 212,
          "midi": 74,
          "name": "D5",
          "ticks": 56460,
          "time": 84.64604687500001,
          "velocity": 0.9448818897637795
        },
        {
          "duration": 0.33928062500000067,
          "durationTicks": 228,
          "midi": 60,
          "name": "C4",
          "ticks": 56460,
          "time": 84.64604687500001,
          "velocity": 0.6220472440944882
        },
        {
          "duration": 0.38094666666667365,
          "durationTicks": 256,
          "midi": 75,
          "name": "D#5",
          "ticks": 56632,
          "time": 84.90199541666667,
          "velocity": 0.8976377952755905
        },
        {
          "duration": 0.31547145833333445,
          "durationTicks": 212,
          "midi": 57,
          "name": "A3",
          "ticks": 56652,
          "time": 84.931756875,
          "velocity": 0.5748031496062992
        },
        {
          "duration": 0.5654677083333439,
          "durationTicks": 380,
          "midi": 76,
          "name": "E5",
          "ticks": 56834,
          "time": 85.20258614583334,
          "velocity": 0.8503937007874016
        },
        {
          "duration": 0.7916547916666588,
          "durationTicks": 532,
          "midi": 52,
          "name": "E3",
          "ticks": 56844,
          "time": 85.21746687500001,
          "velocity": 0.6220472440944882
        },
        {
          "duration": 0.28273385416666486,
          "durationTicks": 190,
          "midi": 57,
          "name": "A3",
          "ticks": 57036,
          "time": 85.50317687500001,
          "velocity": 0.7086614173228346
        },
        {
          "duration": 0.29166229166666824,
          "durationTicks": 196,
          "midi": 60,
          "name": "C4",
          "ticks": 57220,
          "time": 85.77698229166667,
          "velocity": 0.7401574803149606
        },
        {
          "duration": 0.3541613541666777,
          "durationTicks": 238,
          "midi": 76,
          "name": "E5",
          "ticks": 57394,
          "time": 86.03590697916667,
          "velocity": 0.968503937007874
        },
        {
          "duration": 0.24999625000000947,
          "durationTicks": 168,
          "midi": 57,
          "name": "A3",
          "ticks": 57402,
          "time": 86.0478115625,
          "velocity": 0.6929133858267716
        },
        {
          "duration": 0.39285125000000676,
          "durationTicks": 264,
          "midi": 77,
          "name": "F5",
          "ticks": 57598,
          "time": 86.33947385416667,
          "velocity": 0.8346456692913385
        },
        {
          "duration": 0.36011364583332295,
          "durationTicks": 242,
          "midi": 62,
          "name": "D4",
          "ticks": 57602,
          "time": 86.34542614583334,
          "velocity": 0.6614173228346457
        },
        {
          "duration": 0.3214237500000081,
          "durationTicks": 216,
          "midi": 50,
          "name": "D3",
          "ticks": 57606,
          "time": 86.3513784375,
          "velocity": 0.5905511811023622
        },
        {
          "duration": 0.38987510416667703,
          "durationTicks": 262,
          "midi": 69,
          "name": "A4",
          "ticks": 57794,
          "time": 86.63113614583334,
          "velocity": 0.8976377952755905
        },
        {
          "duration": 0.0892843749999912,
          "durationTicks": 60,
          "midi": 57,
          "name": "A3",
          "ticks": 57800,
          "time": 86.64006458333334,
          "velocity": 0.7559055118110236
        },
        {
          "duration": 0.5654677083333297,
          "durationTicks": 380,
          "midi": 72,
          "name": "C5",
          "ticks": 57992,
          "time": 86.92577458333335,
          "velocity": 0.968503937007874
        },
        {
          "duration": 0.29463843749999796,
          "durationTicks": 198,
          "midi": 55,
          "name": "G3",
          "ticks": 58002,
          "time": 86.94065531250001,
          "velocity": 0.6692913385826772
        },
        {
          "duration": 0.30356687500000135,
          "durationTicks": 204,
          "midi": 64,
          "name": "E4",
          "ticks": 58182,
          "time": 87.2085084375,
          "velocity": 0.6850393700787402
        },
        {
          "duration": 0.17261645833333716,
          "durationTicks": 116,
          "midi": 74,
          "name": "D5",
          "ticks": 58368,
          "time": 87.48529,
          "velocity": 0.8503937007874016
        },
        {
          "duration": 0.20535406249999255,
          "durationTicks": 138,
          "midi": 55,
          "name": "G3",
          "ticks": 58372,
          "time": 87.49124229166668,
          "velocity": 0.7086614173228346
        },
        {
          "duration": 0.1428549999999973,
          "durationTicks": 96,
          "midi": 72,
          "name": "C5",
          "ticks": 58468,
          "time": 87.63409729166668,
          "velocity": 0.8503937007874016
        },
        {
          "duration": 0.30654302083333107,
          "durationTicks": 206,
          "midi": 64,
          "name": "E4",
          "ticks": 58556,
          "time": 87.76504770833334,
          "velocity": 0.5511811023622047
        },
        {
          "duration": 0.17261645833333716,
          "durationTicks": 116,
          "midi": 71,
          "name": "B4",
          "ticks": 58558,
          "time": 87.76802385416667,
          "velocity": 0.8503937007874016
        },
        {
          "duration": 0.17261645833333716,
          "durationTicks": 116,
          "midi": 72,
          "name": "C5",
          "ticks": 58638,
          "time": 87.8870696875,
          "velocity": 0.8346456692913385
        },
        {
          "duration": 0.1309504166666784,
          "durationTicks": 88,
          "midi": 74,
          "name": "D5",
          "ticks": 58734,
          "time": 88.0299246875,
          "velocity": 0.8661417322834646
        },
        {
          "duration": 0.1994017708333331,
          "durationTicks": 134,
          "midi": 55,
          "name": "G3",
          "ticks": 58756,
          "time": 88.06266229166667,
          "velocity": 0.6929133858267716
        },
        {
          "duration": 0.08035593750000203,
          "durationTicks": 54,
          "midi": 65,
          "name": "F4",
          "ticks": 58938,
          "time": 88.3334915625,
          "velocity": 0.7086614173228346
        },
        {
          "duration": 0.11904583333333107,
          "durationTicks": 80,
          "midi": 71,
          "name": "B4",
          "ticks": 58972,
          "time": 88.38408604166668,
          "velocity": 0.7559055118110236
        },
        {
          "duration": 0.10714125000001218,
          "durationTicks": 72,
          "midi": 60,
          "name": "C4",
          "ticks": 59136,
          "time": 88.62813,
          "velocity": 0.6614173228346457
        },
        {
          "duration": 0.08630822916667569,
          "durationTicks": 58,
          "midi": 64,
          "name": "E4",
          "ticks": 59140,
          "time": 88.63408229166667,
          "velocity": 0.7086614173228346
        },
        {
          "duration": 0.16071187500000406,
          "durationTicks": 108,
          "midi": 72,
          "name": "C5",
          "ticks": 59142,
          "time": 88.6370584375,
          "velocity": 0.8976377952755905
        },
        {
          "duration": 0.14880729166665674,
          "durationTicks": 100,
          "midi": 79,
          "name": "G5",
          "ticks": 59232,
          "time": 88.77098500000001,
          "velocity": 0.9291338582677166
        },
        {
          "duration": 0.11904583333334529,
          "durationTicks": 80,
          "midi": 67,
          "name": "G4",
          "ticks": 59332,
          "time": 88.91979229166667,
          "velocity": 0.8346456692913385
        },
        {
          "duration": 0.1339265624999939,
          "durationTicks": 90,
          "midi": 79,
          "name": "G5",
          "ticks": 59428,
          "time": 89.06264729166668,
          "velocity": 0.8976377952755905
        },
        {
          "duration": 0.11309354166665742,
          "durationTicks": 76,
          "midi": 69,
          "name": "A4",
          "ticks": 59530,
          "time": 89.21443072916668,
          "velocity": 0.7401574803149606
        },
        {
          "duration": 0.11606968750000135,
          "durationTicks": 78,
          "midi": 79,
          "name": "G5",
          "ticks": 59622,
          "time": 89.3513334375,
          "velocity": 0.8031496062992126
        },
        {
          "duration": 0.05654677083333581,
          "durationTicks": 38,
          "midi": 67,
          "name": "G4",
          "ticks": 59716,
          "time": 89.49121229166667,
          "velocity": 0.6456692913385826
        },
        {
          "duration": 0.11011739583332769,
          "durationTicks": 74,
          "midi": 71,
          "name": "B4",
          "ticks": 59718,
          "time": 89.49418843750001,
          "velocity": 0.7874015748031497
        },
        {
          "duration": 0.0327376041666696,
          "durationTicks": 22,
          "midi": 65,
          "name": "F4",
          "ticks": 59728,
          "time": 89.50906916666668,
          "velocity": 0.48031496062992124
        },
        {
          "duration": 0.10416510416666824,
          "durationTicks": 70,
          "midi": 79,
          "name": "G5",
          "ticks": 59814,
          "time": 89.63704343750001,
          "velocity": 0.7007874015748031
        },
        {
          "duration": 0.11011739583332769,
          "durationTicks": 74,
          "midi": 72,
          "name": "C5",
          "ticks": 59904,
          "time": 89.77097,
          "velocity": 0.8346456692913385
        },
        {
          "duration": 0.07142749999999864,
          "durationTicks": 48,
          "midi": 64,
          "name": "E4",
          "ticks": 59914,
          "time": 89.78585072916667,
          "velocity": 0.7716535433070866
        },
        {
          "duration": 0.0773797916666723,
          "durationTicks": 52,
          "midi": 67,
          "name": "G4",
          "ticks": 59914,
          "time": 89.78585072916667,
          "velocity": 0.7086614173228346
        },
        {
          "duration": 0.12797427083333446,
          "durationTicks": 86,
          "midi": 79,
          "name": "G5",
          "ticks": 59994,
          "time": 89.9048965625,
          "velocity": 0.7244094488188977
        },
        {
          "duration": 0.0773797916666723,
          "durationTicks": 52,
          "midi": 67,
          "name": "G4",
          "ticks": 60100,
          "time": 90.06263229166667,
          "velocity": 0.7401574803149606
        },
        {
          "duration": 0.06249906249999526,
          "durationTicks": 42,
          "midi": 65,
          "name": "F4",
          "ticks": 60100,
          "time": 90.06263229166667,
          "velocity": 0.7401574803149606
        },
        {
          "duration": 0.10714124999999797,
          "durationTicks": 72,
          "midi": 74,
          "name": "D5",
          "ticks": 60100,
          "time": 90.06263229166667,
          "velocity": 0.7401574803149606
        },
        {
          "duration": 0.07440364583332837,
          "durationTicks": 50,
          "midi": 62,
          "name": "D4",
          "ticks": 60100,
          "time": 90.06263229166667,
          "velocity": 0.7716535433070866
        },
        {
          "duration": 0.13987885416666757,
          "durationTicks": 94,
          "midi": 79,
          "name": "G5",
          "ticks": 60176,
          "time": 90.17572583333335,
          "velocity": 0.7244094488188977
        },
        {
          "duration": 0.1994017708333331,
          "durationTicks": 134,
          "midi": 76,
          "name": "E5",
          "ticks": 60280,
          "time": 90.33048541666668,
          "velocity": 0.8976377952755905
        },
        {
          "duration": 0.08035593750000203,
          "durationTicks": 54,
          "midi": 67,
          "name": "G4",
          "ticks": 60288,
          "time": 90.34239000000001,
          "velocity": 0.7244094488188977
        },
        {
          "duration": 0.07440364583332837,
          "durationTicks": 50,
          "midi": 64,
          "name": "E4",
          "ticks": 60290,
          "time": 90.34536614583334,
          "velocity": 0.7401574803149606
        },
        {
          "duration": 0.07440364583334258,
          "durationTicks": 50,
          "midi": 60,
          "name": "C4",
          "ticks": 60292,
          "time": 90.34834229166667,
          "velocity": 0.7244094488188977
        },
        {
          "duration": 0.15773572916667433,
          "durationTicks": 106,
          "midi": 79,
          "name": "G5",
          "ticks": 60384,
          "time": 90.485245,
          "velocity": 0.8346456692913385
        },
        {
          "duration": 0.19642562499998917,
          "durationTicks": 132,
          "midi": 84,
          "name": "C6",
          "ticks": 60468,
          "time": 90.61024312500001,
          "velocity": 0.8976377952755905
        },
        {
          "duration": 0.18452104166667027,
          "durationTicks": 124,
          "midi": 83,
          "name": "B5",
          "ticks": 60568,
          "time": 90.75905041666667,
          "velocity": 0.968503937007874
        },
        {
          "duration": 0.21122213541666213,
          "durationTicks": 142,
          "midi": 81,
          "name": "A5",
          "ticks": 60660,
          "time": 90.895953125,
          "velocity": 0.9448818897637795
        },
        {
          "duration": 0.6355200520833364,
          "durationTicks": 430,
          "midi": 57,
          "name": "A3",
          "ticks": 60676,
          "time": 90.91976229166667,
          "velocity": 0.7401574803149606
        },
        {
          "duration": 0.5470778645833292,
          "durationTicks": 370,
          "midi": 53,
          "name": "F3",
          "ticks": 60676,
          "time": 90.91976229166667,
          "velocity": 0.6456692913385826
        },
        {
          "duration": 0.12418401041665561,
          "durationTicks": 84,
          "midi": 79,
          "name": "G5",
          "ticks": 60770,
          "time": 91.05964114583334,
          "velocity": 0.8503937007874016
        },
        {
          "duration": 0.16214401041665383,
          "durationTicks": 110,
          "midi": 77,
          "name": "F5",
          "ticks": 60862,
          "time": 91.19561744791667,
          "velocity": 0.8661417322834646
        },
        {
          "duration": 0.20636510416666454,
          "durationTicks": 140,
          "midi": 76,
          "name": "E5",
          "ticks": 60948,
          "time": 91.32238458333333,
          "velocity": 0.8661417322834646
        },
        {
          "duration": 0.16214401041666804,
          "durationTicks": 110,
          "midi": 74,
          "name": "D5",
          "ticks": 61064,
          "time": 91.4933728125,
          "velocity": 0.7244094488188977
        },
        {
          "duration": 0.40978213541667685,
          "durationTicks": 278,
          "midi": 59,
          "name": "B3",
          "ticks": 61068,
          "time": 91.49926895833333,
          "velocity": 0.5118110236220472
        },
        {
          "duration": 0.38324947916666474,
          "durationTicks": 260,
          "midi": 55,
          "name": "G3",
          "ticks": 61078,
          "time": 91.51400932291666,
          "velocity": 0.5275590551181102
        },
        {
          "duration": 0.17983244791666664,
          "durationTicks": 122,
          "midi": 79,
          "name": "G5",
          "ticks": 61166,
          "time": 91.64372453125,
          "velocity": 0.7716535433070866
        },
        {
          "duration": 0.15624786458333517,
          "durationTicks": 106,
          "midi": 77,
          "name": "F5",
          "ticks": 61276,
          "time": 91.80586854166667,
          "velocity": 0.6614173228346457
        },
        {
          "duration": 0.1503517187499881,
          "durationTicks": 102,
          "midi": 74,
          "name": "D5",
          "ticks": 61356,
          "time": 91.92379145833334,
          "velocity": 0.6850393700787402
        },
        {
          "duration": 0.5575164062500022,
          "durationTicks": 380,
          "midi": 76,
          "name": "E5",
          "ticks": 61442,
          "time": 92.05055859375,
          "velocity": 0.8503937007874016
        },
        {
          "duration": 0.7793382291666688,
          "durationTicks": 532,
          "midi": 52,
          "name": "E3",
          "ticks": 61452,
          "time": 92.06529895833333,
          "velocity": 0.6220472440944882
        },
        {
          "duration": 0.27744947916667684,
          "durationTicks": 190,
          "midi": 57,
          "name": "A3",
          "ticks": 61644,
          "time": 92.34814864583333,
          "velocity": 0.7086614173228346
        },
        {
          "duration": 0.2862110416666752,
          "durationTicks": 196,
          "midi": 60,
          "name": "C4",
          "ticks": 61828,
          "time": 92.6168365625,
          "velocity": 0.7401574803149606
        },
        {
          "duration": 0.34754197916666385,
          "durationTicks": 238,
          "midi": 76,
          "name": "E5",
          "ticks": 62002,
          "time": 92.87092187500001,
          "velocity": 0.968503937007874
        },
        {
          "duration": 0.24532374999999718,
          "durationTicks": 168,
          "midi": 57,
          "name": "A3",
          "ticks": 62010,
          "time": 92.88260395833333,
          "velocity": 0.6929133858267716
        },
        {
          "duration": 0.3855087499999996,
          "durationTicks": 264,
          "midi": 77,
          "name": "F5",
          "ticks": 62206,
          "time": 93.16881500000001,
          "velocity": 0.8346456692913385
        },
        {
          "duration": 0.35338302083333417,
          "durationTicks": 242,
          "midi": 62,
          "name": "D4",
          "ticks": 62210,
          "time": 93.17465604166667,
          "velocity": 0.6614173228346457
        },
        {
          "duration": 0.3154162499999984,
          "durationTicks": 216,
          "midi": 50,
          "name": "D3",
          "ticks": 62214,
          "time": 93.18049708333334,
          "velocity": 0.5905511811023622
        },
        {
          "duration": 0.38258822916667157,
          "durationTicks": 262,
          "midi": 69,
          "name": "A4",
          "ticks": 62402,
          "time": 93.45502604166667,
          "velocity": 0.8976377952755905
        },
        {
          "duration": 0.08761562499999798,
          "durationTicks": 60,
          "midi": 57,
          "name": "A3",
          "ticks": 62408,
          "time": 93.46378760416667,
          "velocity": 0.7559055118110236
        },
        {
          "duration": 0.5548989583333253,
          "durationTicks": 380,
          "midi": 72,
          "name": "C5",
          "ticks": 62600,
          "time": 93.74415760416667,
          "velocity": 0.968503937007874
        },
        {
          "duration": 0.28913156249998906,
          "durationTicks": 198,
          "midi": 55,
          "name": "G3",
          "ticks": 62604,
          "time": 93.74999864583334,
          "velocity": 0.6692913385826772
        },
        {
          "duration": 0.29789312500000165,
          "durationTicks": 204,
          "midi": 64,
          "name": "E4",
          "ticks": 62790,
          "time": 94.02160708333334,
          "velocity": 0.6850393700787402
        },
        {
          "duration": 0.16939020833332563,
          "durationTicks": 116,
          "midi": 74,
          "name": "D5",
          "ticks": 62976,
          "time": 94.29321552083334,
          "velocity": 0.8503937007874016
        },
        {
          "duration": 0.2015159375000053,
          "durationTicks": 138,
          "midi": 55,
          "name": "G3",
          "ticks": 62980,
          "time": 94.2990565625,
          "velocity": 0.7086614173228346
        },
        {
          "duration": 0.14018500000000245,
          "durationTicks": 96,
          "midi": 72,
          "name": "C5",
          "ticks": 63076,
          "time": 94.4392415625,
          "velocity": 0.8503937007874016
        },
        {
          "duration": 0.3008136458333439,
          "durationTicks": 206,
          "midi": 64,
          "name": "E4",
          "ticks": 63164,
          "time": 94.56774447916666,
          "velocity": 0.5511811023622047
        },
        {
          "duration": 0.16939020833332563,
          "durationTicks": 116,
          "midi": 71,
          "name": "B4",
          "ticks": 63166,
          "time": 94.570665,
          "velocity": 0.8503937007874016
        },
        {
          "duration": 0.16939020833332563,
          "durationTicks": 116,
          "midi": 72,
          "name": "C5",
          "ticks": 63246,
          "time": 94.68748583333334,
          "velocity": 0.8346456692913385
        },
        {
          "duration": 0.1285029166666618,
          "durationTicks": 88,
          "midi": 74,
          "name": "D5",
          "ticks": 63342,
          "time": 94.82767083333334,
          "velocity": 0.8661417322834646
        },
        {
          "duration": 0.19567489583333497,
          "durationTicks": 134,
          "midi": 55,
          "name": "G3",
          "ticks": 63364,
          "time": 94.85979656250001,
          "velocity": 0.6929133858267716
        },
        {
          "duration": 0.0788540624999996,
          "durationTicks": 54,
          "midi": 65,
          "name": "F4",
          "ticks": 63546,
          "time": 95.12556395833333,
          "velocity": 0.7086614173228346
        },
        {
          "duration": 0.11682083333333537,
          "durationTicks": 80,
          "midi": 71,
          "name": "B4",
          "ticks": 63580,
          "time": 95.1752128125,
          "velocity": 0.7559055118110236
        },
        {
          "duration": 0.3358598958333374,
          "durationTicks": 230,
          "midi": 60,
          "name": "C4",
          "ticks": 63750,
          "time": 95.42345708333333,
          "velocity": 0.6062992125984252
        },
        {
          "duration": 0.11974135416666343,
          "durationTicks": 82,
          "midi": 72,
          "name": "C5",
          "ticks": 63754,
          "time": 95.429298125,
          "velocity": 0.7086614173228346
        },
        {
          "duration": 0.03212572916666545,
          "durationTicks": 22,
          "midi": 64,
          "name": "E4",
          "ticks": 63830,
          "time": 95.54027791666667,
          "velocity": 0.4566929133858268
        },
        {
          "duration": 0.11682083333333537,
          "durationTicks": 80,
          "midi": 79,
          "name": "G5",
          "ticks": 63850,
          "time": 95.569483125,
          "velocity": 0.6771653543307087
        },
        {
          "duration": 0.108059270833337,
          "durationTicks": 74,
          "midi": 67,
          "name": "G4",
          "ticks": 63936,
          "time": 95.69506552083334,
          "velocity": 0.8818897637795275
        },
        {
          "duration": 0.13142343749998986,
          "durationTicks": 90,
          "midi": 79,
          "name": "G5",
          "ticks": 64032,
          "time": 95.83525052083334,
          "velocity": 0.984251968503937
        },
        {
          "duration": 0.11097979166667926,
          "durationTicks": 76,
          "midi": 69,
          "name": "A4",
          "ticks": 64138,
          "time": 95.990038125,
          "velocity": 0.8503937007874016
        },
        {
          "duration": 0.13434395833333213,
          "durationTicks": 92,
          "midi": 79,
          "name": "G5",
          "ticks": 64234,
          "time": 96.130223125,
          "velocity": 0.984251968503937
        },
        {
          "duration": 0.0788540624999996,
          "durationTicks": 54,
          "midi": 67,
          "name": "G4",
          "ticks": 64326,
          "time": 96.26456708333333,
          "velocity": 0.7716535433070866
        },
        {
          "duration": 0.07301302083332928,
          "durationTicks": 50,
          "midi": 65,
          "name": "F4",
          "ticks": 64328,
          "time": 96.26748760416667,
          "velocity": 0.8031496062992126
        },
        {
          "duration": 0.10513874999999473,
          "durationTicks": 72,
          "midi": 71,
          "name": "B4",
          "ticks": 64330,
          "time": 96.270408125,
          "velocity": 0.7401574803149606
        },
        {
          "duration": 0.02628468749999513,
          "durationTicks": 18,
          "midi": 72,
          "name": "C5",
          "ticks": 64404,
          "time": 96.37846739583334,
          "velocity": 0.7401574803149606
        },
        {
          "duration": 0.1226618750000057,
          "durationTicks": 84,
          "midi": 79,
          "name": "G5",
          "ticks": 64424,
          "time": 96.40767260416666,
          "velocity": 0.8661417322834646
        },
        {
          "duration": 0.07593354166667154,
          "durationTicks": 52,
          "midi": 64,
          "name": "E4",
          "ticks": 64518,
          "time": 96.54493708333334,
          "velocity": 0.8503937007874016
        },
        {
          "duration": 0.07593354166667154,
          "durationTicks": 52,
          "midi": 67,
          "name": "G4",
          "ticks": 64518,
          "time": 96.54493708333334,
          "velocity": 0.8661417322834646
        },
        {
          "duration": 0.09637718750001056,
          "durationTicks": 66,
          "midi": 72,
          "name": "C5",
          "ticks": 64520,
          "time": 96.54785760416667,
          "velocity": 0.9133858267716536
        },
        {
          "duration": 0.12558239583331954,
          "durationTicks": 86,
          "midi": 79,
          "name": "G5",
          "ticks": 64618,
          "time": 96.69096312500001,
          "velocity": 0.8346456692913385
        },
        {
          "duration": 0.07593354166667154,
          "durationTicks": 52,
          "midi": 62,
          "name": "D4",
          "ticks": 64708,
          "time": 96.8223865625,
          "velocity": 0.8976377952755905
        },
        {
          "duration": 0.07301302083332928,
          "durationTicks": 50,
          "midi": 67,
          "name": "G4",
          "ticks": 64708,
          "time": 96.8223865625,
          "velocity": 0.9133858267716536
        },
        {
          "duration": 0.06717197916667317,
          "durationTicks": 46,
          "midi": 65,
          "name": "F4",
          "ticks": 64708,
          "time": 96.8223865625,
          "velocity": 0.968503937007874
        },
        {
          "duration": 0.108059270833337,
          "durationTicks": 74,
          "midi": 74,
          "name": "D5",
          "ticks": 64712,
          "time": 96.82822760416667,
          "velocity": 0.8661417322834646
        },
        {
          "duration": 0.11390031250000732,
          "durationTicks": 78,
          "midi": 79,
          "name": "G5",
          "ticks": 64806,
          "time": 96.96549208333333,
          "velocity": 0.8818897637795275
        },
        {
          "duration": 0.08469510416665571,
          "durationTicks": 58,
          "midi": 60,
          "name": "C4",
          "ticks": 64898,
          "time": 97.09983604166668,
          "velocity": 0.9291338582677166
        },
        {
          "duration": 0.07009249999998701,
          "durationTicks": 48,
          "midi": 67,
          "name": "G4",
          "ticks": 64898,
          "time": 97.09983604166668,
          "velocity": 0.8661417322834646
        },
        {
          "duration": 0.07593354166665733,
          "durationTicks": 52,
          "midi": 64,
          "name": "E4",
          "ticks": 64898,
          "time": 97.09983604166668,
          "velocity": 0.9133858267716536
        },
        {
          "duration": 0.19567489583333497,
          "durationTicks": 134,
          "midi": 76,
          "name": "E5",
          "ticks": 64902,
          "time": 97.10567708333333,
          "velocity": 0.8976377952755905
        },
        {
          "duration": 0.15478760416665693,
          "durationTicks": 106,
          "midi": 79,
          "name": "G5",
          "ticks": 65006,
          "time": 97.25754416666668,
          "velocity": 0.8503937007874016
        },
        {
          "duration": 0.19567489583333497,
          "durationTicks": 134,
          "midi": 84,
          "name": "C6",
          "ticks": 65088,
          "time": 97.37728552083334,
          "velocity": 0.8976377952755905
        },
        {
          "duration": 0.16354916666666952,
          "durationTicks": 112,
          "midi": 83,
          "name": "B5",
          "ticks": 65190,
          "time": 97.52623208333334,
          "velocity": 0.9448818897637795
        },
        {
          "duration": 0.4439191666666602,
          "durationTicks": 304,
          "midi": 53,
          "name": "F3",
          "ticks": 65266,
          "time": 97.637211875,
          "velocity": 0.5905511811023622
        },
        {
          "duration": 0.569501562499994,
          "durationTicks": 390,
          "midi": 57,
          "name": "A3",
          "ticks": 65266,
          "time": 97.637211875,
          "velocity": 0.6299212598425197
        },
        {
          "duration": 0.18983385416666465,
          "durationTicks": 130,
          "midi": 81,
          "name": "A5",
          "ticks": 65272,
          "time": 97.6459734375,
          "velocity": 0.9448818897637795
        },
        {
          "duration": 0.11682083333333537,
          "durationTicks": 80,
          "midi": 79,
          "name": "G5",
          "ticks": 65376,
          "time": 97.79784052083333,
          "velocity": 0.8503937007874016
        },
        {
          "duration": 0.19567489583333497,
          "durationTicks": 134,
          "midi": 77,
          "name": "F5",
          "ticks": 65466,
          "time": 97.92926395833334,
          "velocity": 0.8346456692913385
        },
        {
          "duration": 0.1431055208333305,
          "durationTicks": 98,
          "midi": 76,
          "name": "E5",
          "ticks": 65564,
          "time": 98.07236947916667,
          "velocity": 0.7559055118110236
        },
        {
          "duration": 0.24824427083332523,
          "durationTicks": 170,
          "midi": 55,
          "name": "G3",
          "ticks": 65642,
          "time": 98.18626979166667,
          "velocity": 0.5905511811023622
        },
        {
          "duration": 0.31249572916665613,
          "durationTicks": 214,
          "midi": 59,
          "name": "B3",
          "ticks": 65642,
          "time": 98.18626979166667,
          "velocity": 0.6220472440944882
        },
        {
          "duration": 0.17523124999999595,
          "durationTicks": 120,
          "midi": 74,
          "name": "D5",
          "ticks": 65650,
          "time": 98.197951875,
          "velocity": 0.7559055118110236
        },
        {
          "duration": 0.1723107291666537,
          "durationTicks": 118,
          "midi": 79,
          "name": "G5",
          "ticks": 65754,
          "time": 98.34981895833334,
          "velocity": 0.8976377952755905
        },
        {
          "duration": 0.1869133333333366,
          "durationTicks": 128,
          "midi": 77,
          "name": "F5",
          "ticks": 65854,
          "time": 98.495845,
          "velocity": 0.7244094488188977
        },
        {
          "duration": 0.16939020833333984,
          "durationTicks": 116,
          "midi": 74,
          "name": "D5",
          "ticks": 65958,
          "time": 98.64771208333333,
          "velocity": 0.7401574803149606
        },
        {
          "duration": 1.6939020833333416,
          "durationTicks": 1160,
          "midi": 56,
          "name": "G#3",
          "ticks": 66054,
          "time": 98.78789708333333,
          "velocity": 0.5433070866141733
        },
        {
          "duration": 1.6939020833333416,
          "durationTicks": 1160,
          "midi": 59,
          "name": "B3",
          "ticks": 66054,
          "time": 98.78789708333333,
          "velocity": 0.5669291338582677
        },
        {
          "duration": 0.17815177083333822,
          "durationTicks": 122,
          "midi": 76,
          "name": "E5",
          "ticks": 66058,
          "time": 98.793738125,
          "velocity": 0.7244094488188977
        },
        {
          "duration": 0.1723107291666679,
          "durationTicks": 118,
          "midi": 77,
          "name": "F5",
          "ticks": 66178,
          "time": 98.968969375,
          "velocity": 0.6929133858267716
        },
        {
          "duration": 0.14894656250000082,
          "durationTicks": 102,
          "midi": 76,
          "name": "E5",
          "ticks": 66268,
          "time": 99.1003928125,
          "velocity": 0.7244094488188977
        },
        {
          "duration": 0.18399281249999433,
          "durationTicks": 126,
          "midi": 75,
          "name": "D#5",
          "ticks": 66360,
          "time": 99.23473677083334,
          "velocity": 0.7244094488188977
        },
        {
          "duration": 0.12850291666667601,
          "durationTicks": 88,
          "midi": 76,
          "name": "E5",
          "ticks": 66454,
          "time": 99.37200125,
          "velocity": 0.8661417322834646
        },
        {
          "duration": 0.19567489583333497,
          "durationTicks": 134,
          "midi": 71,
          "name": "B4",
          "ticks": 66534,
          "time": 99.48882208333333,
          "velocity": 0.7874015748031497
        },
        {
          "duration": 0.16646968749999758,
          "durationTicks": 114,
          "midi": 76,
          "name": "E5",
          "ticks": 66628,
          "time": 99.6260865625,
          "velocity": 0.9448818897637795
        },
        {
          "duration": 0.1723107291666679,
          "durationTicks": 118,
          "midi": 75,
          "name": "D#5",
          "ticks": 66724,
          "time": 99.76627156250001,
          "velocity": 0.8188976377952756
        },
        {
          "duration": 0.12558239583333375,
          "durationTicks": 86,
          "midi": 76,
          "name": "E5",
          "ticks": 66818,
          "time": 99.90353604166667,
          "velocity": 0.8503937007874016
        },
        {
          "duration": 0.1723107291666679,
          "durationTicks": 118,
          "midi": 71,
          "name": "B4",
          "ticks": 66906,
          "time": 100.03203895833333,
          "velocity": 0.8346456692913385
        },
        {
          "duration": 0.1577081249999992,
          "durationTicks": 108,
          "midi": 76,
          "name": "E5",
          "ticks": 67000,
          "time": 100.1693034375,
          "velocity": 0.8346456692913385
        },
        {
          "duration": 0.14602604166665856,
          "durationTicks": 100,
          "midi": 75,
          "name": "D#5",
          "ticks": 67096,
          "time": 100.30948843750001,
          "velocity": 0.7244094488188977
        },
        {
          "duration": 0.9550103124999936,
          "durationTicks": 654,
          "midi": 76,
          "name": "E5",
          "ticks": 67204,
          "time": 100.4671965625,
          "velocity": 0.8661417322834646
        },
        {
          "duration": 0.42055500000000734,
          "durationTicks": 288,
          "midi": 71,
          "name": "B4",
          "ticks": 67788,
          "time": 101.31998864583333,
          "velocity": 0.7401574803149606
        },
        {
          "duration": 0.3358598958333374,
          "durationTicks": 230,
          "midi": 76,
          "name": "E5",
          "ticks": 67982,
          "time": 101.60327916666667,
          "velocity": 0.9448818897637795
        },
        {
          "duration": 0.3719255729166804,
          "durationTicks": 254,
          "midi": 75,
          "name": "D#5",
          "ticks": 68172,
          "time": 101.88072864583333,
          "velocity": 0.8503937007874016
        },
        {
          "duration": 0.8402007812500045,
          "durationTicks": 570,
          "midi": 76,
          "name": "E5",
          "ticks": 68368,
          "time": 102.16716010416667,
          "velocity": 0.7559055118110236
        },
        {
          "duration": 0.3331322395833354,
          "durationTicks": 226,
          "midi": 71,
          "name": "B4",
          "ticks": 68940,
          "time": 103.01030895833334,
          "velocity": 0.6614173228346457
        },
        {
          "duration": 0.2299496875000102,
          "durationTicks": 156,
          "midi": 76,
          "name": "E5",
          "ticks": 69134,
          "time": 103.29627203125,
          "velocity": 0.7559055118110236
        },
        {
          "duration": 0.29480729166667174,
          "durationTicks": 200,
          "midi": 75,
          "name": "D#5",
          "ticks": 69318,
          "time": 103.56749473958334,
          "velocity": 0.8188976377952756
        },
        {
          "duration": 0.29480729166667174,
          "durationTicks": 200,
          "midi": 76,
          "name": "E5",
          "ticks": 69506,
          "time": 103.84461359375,
          "velocity": 0.7874015748031497
        },
        {
          "duration": 0.33902838541666824,
          "durationTicks": 230,
          "midi": 75,
          "name": "D#5",
          "ticks": 69690,
          "time": 104.11583630208334,
          "velocity": 0.7559055118110236
        },
        {
          "duration": 0.30988796874999025,
          "durationTicks": 210,
          "midi": 76,
          "name": "E5",
          "ticks": 69882,
          "time": 104.39885130208334,
          "velocity": 0.8503937007874016
        },
        {
          "duration": 0.34810208333333037,
          "durationTicks": 232,
          "midi": 71,
          "name": "B4",
          "ticks": 70064,
          "time": 104.6671259375,
          "velocity": 0.7401574803149606
        },
        {
          "duration": 0.3004791666666762,
          "durationTicks": 200,
          "midi": 74,
          "name": "D5",
          "ticks": 70266,
          "time": 104.97015614583333,
          "velocity": 0.7716535433070866
        },
        {
          "duration": 0.3335318749999914,
          "durationTicks": 222,
          "midi": 72,
          "name": "C5",
          "ticks": 70440,
          "time": 105.23157302083334,
          "velocity": 0.6850393700787402
        },
        {
          "duration": 0.41466125000000886,
          "durationTicks": 276,
          "midi": 69,
          "name": "A4",
          "ticks": 70652,
          "time": 105.5500809375,
          "velocity": 0.6456692913385826
        },
        {
          "duration": 0.7361739583333389,
          "durationTicks": 490,
          "midi": 45,
          "name": "A2",
          "ticks": 70668,
          "time": 105.57411927083334,
          "velocity": 0.5433070866141733
        },
        {
          "duration": 0.5889391666666768,
          "durationTicks": 392,
          "midi": 52,
          "name": "E3",
          "ticks": 70854,
          "time": 105.85356489583333,
          "velocity": 0.6141732283464567
        },
        {
          "duration": 0.23136895833333426,
          "durationTicks": 154,
          "midi": 57,
          "name": "A3",
          "ticks": 71046,
          "time": 106.14202489583333,
          "velocity": 0.5984251968503937
        },
        {
          "duration": 0.3906229166666719,
          "durationTicks": 260,
          "midi": 60,
          "name": "C4",
          "ticks": 71230,
          "time": 106.41846572916667,
          "velocity": 0.6771653543307087
        },
        {
          "duration": 0.3245174999999989,
          "durationTicks": 216,
          "midi": 64,
          "name": "E4",
          "ticks": 71418,
          "time": 106.70091614583333,
          "velocity": 0.8188976377952756
        },
        {
          "duration": 0.3490366666666773,
          "durationTicks": 232,
          "midi": 69,
          "name": "A4",
          "ticks": 71584,
          "time": 106.95031385416667,
          "velocity": 0.8188976377952756
        },
        {
          "duration": 0.6045670833333361,
          "durationTicks": 388,
          "midi": 71,
          "name": "B4",
          "ticks": 71780,
          "time": 107.2447834375,
          "velocity": 0.7874015748031497
        },
        {
          "duration": 0.2901441666666784,
          "durationTicks": 186,
          "midi": 40,
          "name": "E2",
          "ticks": 71800,
          "time": 107.27483135416666,
          "velocity": 0.6692913385826772
        },
        {
          "duration": 0.34062500000000284,
          "durationTicks": 218,
          "midi": 52,
          "name": "E3",
          "ticks": 71988,
          "time": 107.56810052083334,
          "velocity": 0.6929133858267716
        },
        {
          "duration": 0.15312499999998863,
          "durationTicks": 98,
          "midi": 56,
          "name": "G#3",
          "ticks": 72194,
          "time": 107.88997552083335,
          "velocity": 0.6220472440944882
        },
        {
          "duration": 0.3812499999999943,
          "durationTicks": 244,
          "midi": 64,
          "name": "E4",
          "ticks": 72384,
          "time": 108.18685052083335,
          "velocity": 0.7874015748031497
        },
        {
          "duration": 0.3531250000000057,
          "durationTicks": 226,
          "midi": 68,
          "name": "G#4",
          "ticks": 72568,
          "time": 108.47435052083334,
          "velocity": 0.8503937007874016
        },
        {
          "duration": 0.3953272916666606,
          "durationTicks": 254,
          "midi": 71,
          "name": "B4",
          "ticks": 72740,
          "time": 108.74310052083334,
          "velocity": 0.8818897637795275
        },
        {
          "duration": 0.5462945833333208,
          "durationTicks": 360,
          "midi": 72,
          "name": "C5",
          "ticks": 72956,
          "time": 109.08060052083334,
          "velocity": 0.8031496062992126
        },
        {
          "duration": 0.7069122916666686,
          "durationTicks": 466,
          "midi": 45,
          "name": "A2",
          "ticks": 72966,
          "time": 109.09595239583334,
          "velocity": 0.6299212598425197
        },
        {
          "duration": 0.4247541666666734,
          "durationTicks": 280,
          "midi": 52,
          "name": "E3",
          "ticks": 73154,
          "time": 109.38114447916666,
          "velocity": 0.6299212598425197
        },
        {
          "duration": 0.16686770833332787,
          "durationTicks": 110,
          "midi": 57,
          "name": "A3",
          "ticks": 73354,
          "time": 109.6845403125,
          "velocity": 0.6220472440944882
        },
        {
          "duration": 0.38531270833334474,
          "durationTicks": 254,
          "midi": 64,
          "name": "E4",
          "ticks": 73542,
          "time": 109.96973239583333,
          "velocity": 0.7244094488188977
        },
        {
          "duration": 0.34587125000000185,
          "durationTicks": 228,
          "midi": 76,
          "name": "E5",
          "ticks": 73738,
          "time": 110.2670603125,
          "velocity": 0.8818897637795275
        },
        {
          "duration": 0.2882260416666611,
          "durationTicks": 190,
          "midi": 75,
          "name": "D#5",
          "ticks": 73920,
          "time": 110.54315052083334,
          "velocity": 0.8818897637795275
        },
        {
          "duration": 0.3489052083333348,
          "durationTicks": 230,
          "midi": 76,
          "name": "E5",
          "ticks": 74110,
          "time": 110.8313765625,
          "velocity": 0.8188976377952756
        },
        {
          "duration": 0.16990166666666084,
          "durationTicks": 112,
          "midi": 75,
          "name": "D#5",
          "ticks": 74298,
          "time": 111.11656864583334,
          "velocity": 0.7874015748031497
        },
        {
          "duration": 0.16686770833334208,
          "durationTicks": 110,
          "midi": 76,
          "name": "E5",
          "ticks": 74496,
          "time": 111.41693052083333,
          "velocity": 0.7874015748031497
        },
        {
          "duration": 0.3519391666666678,
          "durationTicks": 232,
          "midi": 71,
          "name": "B4",
          "ticks": 74692,
          "time": 111.7142584375,
          "velocity": 0.6850393700787402
        },
        {
          "duration": 0.30946375000000614,
          "durationTicks": 204,
          "midi": 74,
          "name": "D5",
          "ticks": 74886,
          "time": 112.00855239583333,
          "velocity": 0.7244094488188977
        },
        {
          "duration": 0.3398033333333359,
          "durationTicks": 224,
          "midi": 72,
          "name": "C5",
          "ticks": 75064,
          "time": 112.2785746875,
          "velocity": 0.7007874015748031
        },
        {
          "duration": 0.37317687499999863,
          "durationTicks": 246,
          "midi": 69,
          "name": "A4",
          "ticks": 75268,
          "time": 112.5880384375,
          "velocity": 0.6614173228346457
        },
        {
          "duration": 0.624995416666664,
          "durationTicks": 412,
          "midi": 45,
          "name": "A2",
          "ticks": 75278,
          "time": 112.60320822916667,
          "velocity": 0.5511811023622047
        },
        {
          "duration": 0.3913806249999965,
          "durationTicks": 258,
          "midi": 52,
          "name": "E3",
          "ticks": 75466,
          "time": 112.88840031250001,
          "velocity": 0.6220472440944882
        },
        {
          "duration": 0.15473187499999597,
          "durationTicks": 102,
          "midi": 57,
          "name": "A3",
          "ticks": 75652,
          "time": 113.1705584375,
          "velocity": 0.6614173228346457
        },
        {
          "duration": 0.38227874999999756,
          "durationTicks": 252,
          "midi": 60,
          "name": "C4",
          "ticks": 75832,
          "time": 113.4436146875,
          "velocity": 0.7716535433070866
        },
        {
          "duration": 0.2882260416666611,
          "durationTicks": 190,
          "midi": 64,
          "name": "E4",
          "ticks": 76032,
          "time": 113.74701052083334,
          "velocity": 0.7874015748031497
        },
        {
          "duration": 0.3124977083333391,
          "durationTicks": 206,
          "midi": 69,
          "name": "A4",
          "ticks": 76242,
          "time": 114.06557614583333,
          "velocity": 0.8503937007874016
        },
        {
          "duration": 0.5279087499999946,
          "durationTicks": 348,
          "midi": 71,
          "name": "B4",
          "ticks": 76420,
          "time": 114.33559843750001,
          "velocity": 0.8661417322834646
        },
        {
          "duration": 0.24575062499999945,
          "durationTicks": 162,
          "midi": 40,
          "name": "E2",
          "ticks": 76436,
          "time": 114.35987010416667,
          "velocity": 0.6850393700787402
        },
        {
          "duration": 0.27002229166666325,
          "durationTicks": 178,
          "midi": 52,
          "name": "E3",
          "ticks": 76614,
          "time": 114.62989239583334,
          "velocity": 0.7401574803149606
        },
        {
          "duration": 0.11225645833333431,
          "durationTicks": 74,
          "midi": 56,
          "name": "G#3",
          "ticks": 76810,
          "time": 114.9272203125,
          "velocity": 0.6299212598425197
        },
        {
          "duration": 0.37317687499999863,
          "durationTicks": 246,
          "midi": 64,
          "name": "E4",
          "ticks": 76996,
          "time": 115.2093784375,
          "velocity": 0.7874015748031497
        },
        {
          "duration": 0.3367693750000029,
          "durationTicks": 222,
          "midi": 72,
          "name": "C5",
          "ticks": 77186,
          "time": 115.49760447916667,
          "velocity": 0.8503937007874016
        },
        {
          "duration": 0.3489052083333206,
          "durationTicks": 230,
          "midi": 71,
          "name": "B4",
          "ticks": 77370,
          "time": 115.77672864583334,
          "velocity": 0.8346456692913385
        },
        {
          "duration": 0.476331458333334,
          "durationTicks": 314,
          "midi": 69,
          "name": "A4",
          "ticks": 77570,
          "time": 116.08012447916667,
          "velocity": 0.7244094488188977
        },
        {
          "duration": 0.39441458333334367,
          "durationTicks": 260,
          "midi": 45,
          "name": "A2",
          "ticks": 77588,
          "time": 116.10743010416667,
          "velocity": 0.5984251968503937
        },
        {
          "duration": 0.324633541666671,
          "durationTicks": 214,
          "midi": 52,
          "name": "E3",
          "ticks": 77762,
          "time": 116.37138447916666,
          "velocity": 0.6614173228346457
        },
        {
          "duration": 0.1395620833333311,
          "durationTicks": 92,
          "midi": 57,
          "name": "A3",
          "ticks": 77962,
          "time": 116.6747803125,
          "velocity": 0.6614173228346457
        },
        {
          "duration": 0.3792447916666646,
          "durationTicks": 250,
          "midi": 71,
          "name": "B4",
          "ticks": 78158,
          "time": 116.97210822916668,
          "velocity": 0.8818897637795275
        },
        {
          "duration": 0.330701458333337,
          "durationTicks": 218,
          "midi": 72,
          "name": "C5",
          "ticks": 78346,
          "time": 117.2573003125,
          "velocity": 0.968503937007874
        },
        {
          "duration": 0.3489052083333348,
          "durationTicks": 230,
          "midi": 74,
          "name": "D5",
          "ticks": 78530,
          "time": 117.53642447916667,
          "velocity": 0.8661417322834646
        },
        {
          "duration": 0.44295791666665707,
          "durationTicks": 292,
          "midi": 76,
          "name": "E5",
          "ticks": 78726,
          "time": 117.83375239583334,
          "velocity": 0.7874015748031497
        },
        {
          "duration": 0.5703841666666563,
          "durationTicks": 376,
          "midi": 48,
          "name": "C3",
          "ticks": 78736,
          "time": 117.84892218750001,
          "velocity": 0.6220472440944882
        },
        {
          "duration": 0.39441458333332946,
          "durationTicks": 260,
          "midi": 55,
          "name": "G3",
          "ticks": 78926,
          "time": 118.13714822916667,
          "velocity": 0.6771653543307087
        },
        {
          "duration": 0.151697916666663,
          "durationTicks": 100,
          "midi": 60,
          "name": "C4",
          "ticks": 79120,
          "time": 118.43144218750001,
          "velocity": 0.6850393700787402
        },
        {
          "duration": 0.38531270833333053,
          "durationTicks": 254,
          "midi": 67,
          "name": "G4",
          "ticks": 79310,
          "time": 118.71966822916667,
          "velocity": 0.8031496062992126
        },
        {
          "duration": 0.35800708333333375,
          "durationTicks": 236,
          "midi": 77,
          "name": "F5",
          "ticks": 79504,
          "time": 119.0139621875,
          "velocity": 0.8818897637795275
        },
        {
          "duration": 0.3671089583333327,
          "durationTicks": 242,
          "midi": 76,
          "name": "E5",
          "ticks": 79678,
          "time": 119.27791656250001,
          "velocity": 0.8976377952755905
        },
        {
          "duration": 0.35800708333333375,
          "durationTicks": 236,
          "midi": 74,
          "name": "D5",
          "ticks": 79872,
          "time": 119.57221052083334,
          "velocity": 0.8031496062992126
        },
        {
          "duration": 0.2760902083333434,
          "durationTicks": 182,
          "midi": 43,
          "name": "G2",
          "ticks": 79886,
          "time": 119.59344822916667,
          "velocity": 0.6220472440944882
        },
        {
          "duration": 0.25485249999999837,
          "durationTicks": 168,
          "midi": 55,
          "name": "G3",
          "ticks": 80074,
          "time": 119.87864031250001,
          "velocity": 0.6614173228346457
        },
        {
          "duration": 0.151697916666663,
          "durationTicks": 100,
          "midi": 59,
          "name": "B3",
          "ticks": 80266,
          "time": 120.1699003125,
          "velocity": 0.6850393700787402
        },
        {
          "duration": 0.33928062500000067,
          "durationTicks": 228,
          "midi": 65,
          "name": "F4",
          "ticks": 80462,
          "time": 120.46682354166667,
          "velocity": 0.7244094488188977
        },
        {
          "duration": 0.32737604166666756,
          "durationTicks": 220,
          "midi": 76,
          "name": "E5",
          "ticks": 80650,
          "time": 120.74658125,
          "velocity": 0.7874015748031497
        },
        {
          "duration": 0.3630897916666669,
          "durationTicks": 244,
          "midi": 74,
          "name": "D5",
          "ticks": 80834,
          "time": 121.02038666666667,
          "velocity": 0.7559055118110236
        },
        {
          "duration": 0.6160621875000061,
          "durationTicks": 414,
          "midi": 45,
          "name": "A2",
          "ticks": 81024,
          "time": 121.30312052083333,
          "velocity": 0.5905511811023622
        },
        {
          "duration": 0.43451729166666553,
          "durationTicks": 292,
          "midi": 72,
          "name": "C5",
          "ticks": 81028,
          "time": 121.3090728125,
          "velocity": 0.7007874015748031
        },
        {
          "duration": 0.36904208333332633,
          "durationTicks": 248,
          "midi": 52,
          "name": "E3",
          "ticks": 81232,
          "time": 121.6126396875,
          "velocity": 0.5511811023622047
        },
        {
          "duration": 0.1339265624999939,
          "durationTicks": 90,
          "midi": 57,
          "name": "A3",
          "ticks": 81408,
          "time": 121.87454052083334,
          "velocity": 0.6299212598425197
        },
        {
          "duration": 0.31547145833333445,
          "durationTicks": 212,
          "midi": 64,
          "name": "E4",
          "ticks": 81622,
          "time": 122.192988125,
          "velocity": 0.6614173228346457
        },
        {
          "duration": 0.27380541666666147,
          "durationTicks": 184,
          "midi": 74,
          "name": "D5",
          "ticks": 81794,
          "time": 122.44893666666667,
          "velocity": 0.6692913385826772
        },
        {
          "duration": 0.33928062500000067,
          "durationTicks": 228,
          "midi": 72,
          "name": "C5",
          "ticks": 81998,
          "time": 122.75250354166667,
          "velocity": 0.7244094488188977
        },
        {
          "duration": 0.3124953124999905,
          "durationTicks": 210,
          "midi": 71,
          "name": "B4",
          "ticks": 82186,
          "time": 123.03226125,
          "velocity": 0.6929133858267716
        },
        {
          "duration": 0.09226052083333514,
          "durationTicks": 62,
          "midi": 40,
          "name": "E2",
          "ticks": 82210,
          "time": 123.067975,
          "velocity": 0.6535433070866141
        },
        {
          "duration": 0.16964031250000744,
          "durationTicks": 114,
          "midi": 52,
          "name": "E3",
          "ticks": 82388,
          "time": 123.33285197916666,
          "velocity": 0.7086614173228346
        },
        {
          "duration": 0.06249906249999526,
          "durationTicks": 42,
          "midi": 64,
          "name": "E4",
          "ticks": 82578,
          "time": 123.61558583333334,
          "velocity": 0.8267716535433071
        },
        {
          "duration": 0.2738054166666757,
          "durationTicks": 184,
          "midi": 64,
          "name": "E4",
          "ticks": 82758,
          "time": 123.88343895833333,
          "velocity": 0.968503937007874
        },
        {
          "duration": 0.1101173958333419,
          "durationTicks": 74,
          "midi": 76,
          "name": "E5",
          "ticks": 82970,
          "time": 124.19891041666666,
          "velocity": 0.889763779527559
        },
        {
          "duration": 0.2738054166666757,
          "durationTicks": 184,
          "midi": 64,
          "name": "E4",
          "ticks": 83150,
          "time": 124.46676354166667,
          "velocity": 0.9133858267716536
        },
        {
          "duration": 0.09821281249999458,
          "durationTicks": 66,
          "midi": 76,
          "name": "E5",
          "ticks": 83338,
          "time": 124.74652125,
          "velocity": 0.9133858267716536
        },
        {
          "duration": 0.3511852083333338,
          "durationTicks": 236,
          "midi": 76,
          "name": "E5",
          "ticks": 83526,
          "time": 125.02627895833334,
          "velocity": 0.8661417322834646
        },
        {
          "duration": 0.08630822916666148,
          "durationTicks": 58,
          "midi": 88,
          "name": "E6",
          "ticks": 83722,
          "time": 125.31794125,
          "velocity": 0.8503937007874016
        },
        {
          "duration": 0.2976145833333419,
          "durationTicks": 200,
          "midi": 75,
          "name": "D#5",
          "ticks": 83908,
          "time": 125.5947228125,
          "velocity": 0.8661417322834646
        },
        {
          "duration": 0.12499812499999052,
          "durationTicks": 84,
          "midi": 76,
          "name": "E5",
          "ticks": 84106,
          "time": 125.88936125000001,
          "velocity": 0.8110236220472441
        },
        {
          "duration": 0.31249531250000473,
          "durationTicks": 210,
          "midi": 75,
          "name": "D#5",
          "ticks": 84294,
          "time": 126.16911895833333,
          "velocity": 0.7716535433070866
        },
        {
          "duration": 0.13690270833333784,
          "durationTicks": 92,
          "midi": 76,
          "name": "E5",
          "ticks": 84482,
          "time": 126.44887666666666,
          "velocity": 0.7874015748031497
        },
        {
          "duration": 0.3511852083333338,
          "durationTicks": 236,
          "midi": 75,
          "name": "D#5",
          "ticks": 84662,
          "time": 126.71672979166667,
          "velocity": 0.8188976377952756
        },
        {
          "duration": 0.3779705208333297,
          "durationTicks": 254,
          "midi": 76,
          "name": "E5",
          "ticks": 84856,
          "time": 127.0054159375,
          "velocity": 0.8031496062992126
        },
        {
          "duration": 0.40475583333333987,
          "durationTicks": 272,
          "midi": 71,
          "name": "B4",
          "ticks": 85048,
          "time": 127.2911259375,
          "velocity": 0.7559055118110236
        },
        {
          "duration": 0.2886861458333385,
          "durationTicks": 194,
          "midi": 74,
          "name": "D5",
          "ticks": 85252,
          "time": 127.5946928125,
          "velocity": 0.7716535433070866
        },
        {
          "duration": 0.34020562499998164,
          "durationTicks": 228,
          "midi": 72,
          "name": "C5",
          "ticks": 85436,
          "time": 127.86849822916668,
          "velocity": 0.7716535433070866
        },
        {
          "duration": 0.38531270833334474,
          "durationTicks": 254,
          "midi": 69,
          "name": "A4",
          "ticks": 85634,
          "time": 128.16319447916666,
          "velocity": 0.7480314960629921
        },
        {
          "duration": 0.661402916666674,
          "durationTicks": 436,
          "midi": 45,
          "name": "A2",
          "ticks": 85640,
          "time": 128.17229635416666,
          "velocity": 0.6929133858267716
        },
        {
          "duration": 0.354973125000015,
          "durationTicks": 234,
          "midi": 52,
          "name": "E3",
          "ticks": 85832,
          "time": 128.46355635416666,
          "velocity": 0.6929133858267716
        },
        {
          "duration": 0.15473187500001018,
          "durationTicks": 102,
          "midi": 57,
          "name": "A3",
          "ticks": 86020,
          "time": 128.74874843749998,
          "velocity": 0.6299212598425197
        },
        {
          "duration": 0.31856562499999086,
          "durationTicks": 210,
          "midi": 60,
          "name": "C4",
          "ticks": 86212,
          "time": 129.0400084375,
          "velocity": 0.6850393700787402
        },
        {
          "duration": 0.34283729166665466,
          "durationTicks": 226,
          "midi": 64,
          "name": "E4",
          "ticks": 86402,
          "time": 129.32823447916667,
          "velocity": 0.7559055118110236
        },
        {
          "duration": 0.33070145833332276,
          "durationTicks": 218,
          "midi": 69,
          "name": "A4",
          "ticks": 86584,
          "time": 129.6043246875,
          "velocity": 0.8188976377952756
        },
        {
          "duration": 0.38227875000001177,
          "durationTicks": 252,
          "midi": 71,
          "name": "B4",
          "ticks": 86774,
          "time": 129.89255072916666,
          "velocity": 0.7244094488188977
        },
        {
          "duration": 0.25788645833333135,
          "durationTicks": 170,
          "midi": 40,
          "name": "E2",
          "ticks": 86788,
          "time": 129.9137884375,
          "velocity": 0.6220472440944882
        },
        {
          "duration": 0.2882260416666895,
          "durationTicks": 190,
          "midi": 52,
          "name": "E3",
          "ticks": 86974,
          "time": 130.19594656249998,
          "velocity": 0.6456692913385826
        },
        {
          "duration": 0.14259604166664985,
          "durationTicks": 94,
          "midi": 56,
          "name": "G#3",
          "ticks": 87162,
          "time": 130.48113864583334,
          "velocity": 0.7086614173228346
        },
        {
          "duration": 0.3913806249999823,
          "durationTicks": 258,
          "midi": 64,
          "name": "E4",
          "ticks": 87354,
          "time": 130.77239864583333,
          "velocity": 0.8188976377952756
        },
        {
          "duration": 0.3519391666666536,
          "durationTicks": 232,
          "midi": 68,
          "name": "G#4",
          "ticks": 87544,
          "time": 131.0606246875,
          "velocity": 0.8503937007874016
        },
        {
          "duration": 0.3792447916666788,
          "durationTicks": 250,
          "midi": 71,
          "name": "B4",
          "ticks": 87728,
          "time": 131.33974885416666,
          "velocity": 0.8818897637795275
        },
        {
          "duration": 0.4915012500000273,
          "durationTicks": 324,
          "midi": 72,
          "name": "C5",
          "ticks": 87928,
          "time": 131.64314468749998,
          "velocity": 0.7401574803149606
        },
        {
          "duration": 0.47329750000000104,
          "durationTicks": 312,
          "midi": 45,
          "name": "A2",
          "ticks": 87942,
          "time": 131.66438239583334,
          "velocity": 0.5511811023622047
        },
        {
          "duration": 0.32159958333332384,
          "durationTicks": 212,
          "midi": 52,
          "name": "E3",
          "ticks": 88140,
          "time": 131.96474427083334,
          "velocity": 0.6299212598425197
        },
        {
          "duration": 0.13652812500001232,
          "durationTicks": 90,
          "midi": 57,
          "name": "A3",
          "ticks": 88334,
          "time": 132.25903822916666,
          "velocity": 0.6692913385826772
        },
        {
          "duration": 0.354973125000015,
          "durationTicks": 234,
          "midi": 64,
          "name": "E4",
          "ticks": 88520,
          "time": 132.54119635416666,
          "velocity": 0.7086614173228346
        },
        {
          "duration": 0.31249770833335333,
          "durationTicks": 206,
          "midi": 76,
          "name": "E5",
          "ticks": 88714,
          "time": 132.83549031249999,
          "velocity": 0.8661417322834646
        },
        {
          "duration": 0.37014291666665144,
          "durationTicks": 244,
          "midi": 75,
          "name": "D#5",
          "ticks": 88894,
          "time": 133.1085465625,
          "velocity": 0.7874015748031497
        },
        {
          "duration": 0.34283729166665466,
          "durationTicks": 226,
          "midi": 76,
          "name": "E5",
          "ticks": 89086,
          "time": 133.3998065625,
          "velocity": 0.8346456692913385
        },
        {
          "duration": 0.34587124999998764,
          "durationTicks": 228,
          "midi": 75,
          "name": "D#5",
          "ticks": 89276,
          "time": 133.68803260416666,
          "velocity": 0.8031496062992126
        },
        {
          "duration": 0.3428372916666831,
          "durationTicks": 226,
          "midi": 76,
          "name": "E5",
          "ticks": 89474,
          "time": 133.98839447916666,
          "velocity": 0.7401574803149606
        },
        {
          "duration": 0.37014291666667987,
          "durationTicks": 244,
          "midi": 71,
          "name": "B4",
          "ticks": 89658,
          "time": 134.26751864583332,
          "velocity": 0.7244094488188977
        },
        {
          "duration": 0.28215812499999515,
          "durationTicks": 186,
          "midi": 74,
          "name": "D5",
          "ticks": 89856,
          "time": 134.56788052083334,
          "velocity": 0.6692913385826772
        },
        {
          "duration": 0.33070145833332276,
          "durationTicks": 218,
          "midi": 72,
          "name": "C5",
          "ticks": 90038,
          "time": 134.84397072916667,
          "velocity": 0.6456692913385826
        },
        {
          "duration": 0.34587124999998764,
          "durationTicks": 228,
          "midi": 69,
          "name": "A4",
          "ticks": 90238,
          "time": 135.1473665625,
          "velocity": 0.5826771653543307
        },
        {
          "duration": 0.4520597916666702,
          "durationTicks": 298,
          "midi": 45,
          "name": "A2",
          "ticks": 90250,
          "time": 135.1655703125,
          "velocity": 0.48031496062992124
        },
        {
          "duration": 0.32463354166668523,
          "durationTicks": 214,
          "midi": 52,
          "name": "E3",
          "ticks": 90446,
          "time": 135.46289822916665,
          "velocity": 0.5511811023622047
        },
        {
          "duration": 0.13652812500001232,
          "durationTicks": 90,
          "midi": 57,
          "name": "A3",
          "ticks": 90634,
          "time": 135.74809031249998,
          "velocity": 0.6456692913385826
        },
        {
          "duration": 0.34587124999998764,
          "durationTicks": 228,
          "midi": 60,
          "name": "C4",
          "ticks": 90812,
          "time": 136.01811260416667,
          "velocity": 0.7874015748031497
        },
        {
          "duration": 0.33070145833332276,
          "durationTicks": 218,
          "midi": 64,
          "name": "E4",
          "ticks": 91000,
          "time": 136.3033046875,
          "velocity": 0.8503937007874016
        },
        {
          "duration": 0.35497312499998657,
          "durationTicks": 234,
          "midi": 69,
          "name": "A4",
          "ticks": 91182,
          "time": 136.57939489583333,
          "velocity": 0.8818897637795275
        },
        {
          "duration": 0.4186862500000075,
          "durationTicks": 276,
          "midi": 71,
          "name": "B4",
          "ticks": 91378,
          "time": 136.8767228125,
          "velocity": 0.7559055118110236
        },
        {
          "duration": 0.2912599999999941,
          "durationTicks": 192,
          "midi": 40,
          "name": "E2",
          "ticks": 91384,
          "time": 136.8858246875,
          "velocity": 0.6141732283464567
        },
        {
          "duration": 0.3307014583333512,
          "durationTicks": 218,
          "midi": 52,
          "name": "E3",
          "ticks": 91590,
          "time": 137.19832239583332,
          "velocity": 0.6535433070866141
        },
        {
          "duration": 0.13046020833331795,
          "durationTicks": 86,
          "midi": 56,
          "name": "G#3",
          "ticks": 91796,
          "time": 137.51082010416667,
          "velocity": 0.7086614173228346
        },
        {
          "duration": 0.33070145833332276,
          "durationTicks": 218,
          "midi": 64,
          "name": "E4",
          "ticks": 91988,
          "time": 137.80208010416666,
          "velocity": 0.8503937007874016
        },
        {
          "duration": 0.33676937500001713,
          "durationTicks": 222,
          "midi": 72,
          "name": "C5",
          "ticks": 92172,
          "time": 138.08120427083333,
          "velocity": 0.8503937007874016
        },
        {
          "duration": 0.35800708333334796,
          "durationTicks": 236,
          "midi": 71,
          "name": "B4",
          "ticks": 92354,
          "time": 138.35729447916665,
          "velocity": 0.7874015748031497
        },
        {
          "duration": 3.8346327083333733,
          "durationTicks": 2318,
          "midi": 57,
          "name": "A3",
          "ticks": 92530,
          "time": 138.62428281249998,
          "velocity": 0.5905511811023622
        },
        {
          "duration": 3.8401806250000448,
          "durationTicks": 2316,
          "midi": 45,
          "name": "A2",
          "ticks": 92544,
          "time": 138.64552052083332,
          "velocity": 0.4330708661417323
        },
        {
          "duration": 3.8401806250000448,
          "durationTicks": 2316,
          "midi": 33,
          "name": "A1",
          "ticks": 92544,
          "time": 138.64552052083332,
          "velocity": 0.5354330708661418
        },
        {
          "duration": 3.7678856250000194,
          "durationTicks": 2274,
          "midi": 60,
          "name": "C4",
          "ticks": 92574,
          "time": 138.69102989583334,
          "velocity": 0.6692913385826772
        },
        {
          "duration": 3.7405800000000227,
          "durationTicks": 2256,
          "midi": 64,
          "name": "E4",
          "ticks": 92592,
          "time": 138.71833552083334,
          "velocity": 0.44881889763779526
        },
        {
          "duration": 3.679900833333363,
          "durationTicks": 2216,
          "midi": 69,
          "name": "A4",
          "ticks": 92632,
          "time": 138.7790146875,
          "velocity": 0.7007874015748031
        }
      ],
      "endOfTrackTicks": 96768
    },
    {
      "channel": 0,
      "controlChanges": {
        "0": [
          {
            "number": 0,
            "ticks": 2358,
            "time": 3.577036875,
            "value": 0
          }
        ],
        "7": [
          {
            "number": 7,
            "ticks": 2076,
            "time": 3.1492487500000004,
            "value": 0.36220472440944884
          }
        ],
        "10": [
          {
            "number": 10,
            "ticks": 2074,
            "time": 3.146214791666667,
            "value": 0.5039370078740157
          }
        ],
        "11": [
          {
            "number": 11,
            "ticks": 2122,
            "time": 3.2190297916666673,
            "value": 1
          }
        ],
        "32": [
          {
            "number": 32,
            "ticks": 2358,
            "time": 3.577036875,
            "value": 0
          }
        ],
        "91": [
          {
            "number": 91,
            "ticks": 2080,
            "time": 3.155316666666667,
            "value": 0.952755905511811
          }
        ],
        "93": [
          {
            "number": 93,
            "ticks": 2078,
            "time": 3.1522827083333333,
            "value": 0.7086614173228346
          }
        ],
        "121": [
          {
            "number": 121,
            "ticks": 1926,
            "time": 2.921701875,
            "value": 0
          }
        ]
      },
      "pitchBends": [
        {
          "ticks": 2180,
          "time": 3.3070145833333333,
          "value": 0
        }
      ],
      "instrument": {
        "family": "piano",
        "number": 0,
        "name": "acoustic grand piano"
      },
      "name": "ICE RAIN",
      "notes": [],
      "endOfTrackTicks": 96768
    },
    {
      "channel": 4,
      "controlChanges": {
        "120": [
          {
            "number": 120,
            "ticks": 95728,
            "time": 144.42319468750003,
            "value": 0
          }
        ],
        "123": [
          {
            "number": 123,
            "ticks": 95650,
            "time": 144.24908812500001,
            "value": 0
          }
        ]
      },
      "pitchBends": [],
      "instrument": {
        "family": "synth effects",
        "number": 96,
        "name": "fx 1 (rain)"
      },
      "name": "",
      "notes": [
        {
          "duration": 1.4987754166666658,
          "durationTicks": 988,
          "midi": 72,
          "name": "C5",
          "ticks": 3840,
          "time": 5.825200000000001,
          "velocity": 0.8031496062992126
        },
        {
          "duration": 1.4775377083333332,
          "durationTicks": 974,
          "midi": 76,
          "name": "E5",
          "ticks": 3840,
          "time": 5.825200000000001,
          "velocity": 0.8031496062992126
        },
        {
          "duration": 1.489673541666666,
          "durationTicks": 982,
          "midi": 69,
          "name": "A4",
          "ticks": 3840,
          "time": 5.825200000000001,
          "velocity": 0.8031496062992126
        },
        {
          "duration": 1.5684606770833343,
          "durationTicks": 1064,
          "midi": 68,
          "name": "G#4",
          "ticks": 4990,
          "time": 7.569726041666667,
          "velocity": 0.8031496062992126
        },
        {
          "duration": 1.494758854166668,
          "durationTicks": 1014,
          "midi": 71,
          "name": "B4",
          "ticks": 4990,
          "time": 7.569726041666667,
          "velocity": 0.8031496062992126
        },
        {
          "duration": 1.494758854166668,
          "durationTicks": 1014,
          "midi": 74,
          "name": "D5",
          "ticks": 4990,
          "time": 7.569726041666667,
          "velocity": 0.8031496062992126
        },
        {
          "duration": 3.139615000000001,
          "durationTicks": 2150,
          "midi": 72,
          "name": "C5",
          "ticks": 6140,
          "time": 9.264953854166667,
          "velocity": 0.8031496062992126
        },
        {
          "duration": 3.119143802083334,
          "durationTicks": 2136,
          "midi": 64,
          "name": "E4",
          "ticks": 6142,
          "time": 9.267901927083335,
          "velocity": 0.8031496062992126
        },
        {
          "duration": 3.1366669270833327,
          "durationTicks": 2148,
          "midi": 69,
          "name": "A4",
          "ticks": 6142,
          "time": 9.267901927083335,
          "velocity": 0.8031496062992126
        },
        {
          "duration": 1.5462273958333324,
          "durationTicks": 1040,
          "midi": 72,
          "name": "C5",
          "ticks": 8446,
          "time": 12.632369479166668,
          "velocity": 0.8031496062992126
        },
        {
          "duration": 1.6513951041666655,
          "durationTicks": 1110,
          "midi": 69,
          "name": "A4",
          "ticks": 8446,
          "time": 12.632369479166668,
          "velocity": 0.8031496062992126
        },
        {
          "duration": 1.4831267708333318,
          "durationTicks": 998,
          "midi": 76,
          "name": "E5",
          "ticks": 8446,
          "time": 12.632369479166668,
          "velocity": 0.8031496062992126
        },
        {
          "duration": 1.7998797916666653,
          "durationTicks": 1152,
          "midi": 68,
          "name": "G#4",
          "ticks": 9598,
          "time": 14.346865208333334,
          "velocity": 0.8031496062992126
        },
        {
          "duration": 1.6217547916666675,
          "durationTicks": 1038,
          "midi": 71,
          "name": "B4",
          "ticks": 9598,
          "time": 14.346865208333334,
          "velocity": 0.8031496062992126
        },
        {
          "duration": 1.6342547916666668,
          "durationTicks": 1046,
          "midi": 74,
          "name": "D5",
          "ticks": 9598,
          "time": 14.346865208333334,
          "velocity": 0.8031496062992126
        },
        {
          "duration": 3.092364374999999,
          "durationTicks": 2078,
          "midi": 69,
          "name": "A4",
          "ticks": 10750,
          "time": 16.146745,
          "velocity": 0.8031496062992126
        },
        {
          "duration": 3.098316666666669,
          "durationTicks": 2082,
          "midi": 72,
          "name": "C5",
          "ticks": 10750,
          "time": 16.146745,
          "velocity": 0.8031496062992126
        },
        {
          "duration": 3.044597187499999,
          "durationTicks": 2046,
          "midi": 64,
          "name": "E4",
          "ticks": 10752,
          "time": 16.14987,
          "velocity": 0.8031496062992126
        },
        {
          "duration": 1.5281249999999993,
          "durationTicks": 978,
          "midi": 76,
          "name": "E5",
          "ticks": 13056,
          "time": 19.57839,
          "velocity": 0.8031496062992126
        },
        {
          "duration": 1.5593749999999993,
          "durationTicks": 998,
          "midi": 72,
          "name": "C5",
          "ticks": 13056,
          "time": 19.57839,
          "velocity": 0.8031496062992126
        },
        {
          "duration": 1.5749999999999993,
          "durationTicks": 1008,
          "midi": 69,
          "name": "A4",
          "ticks": 13056,
          "time": 19.57839,
          "velocity": 0.8031496062992126
        },
        {
          "duration": 1.5656250000000007,
          "durationTicks": 1002,
          "midi": 71,
          "name": "B4",
          "ticks": 14206,
          "time": 21.375265,
          "velocity": 0.8031496062992126
        },
        {
          "duration": 1.6156250000000014,
          "durationTicks": 1034,
          "midi": 68,
          "name": "G#4",
          "ticks": 14206,
          "time": 21.375265,
          "velocity": 0.8031496062992126
        },
        {
          "duration": 1.5656250000000007,
          "durationTicks": 1002,
          "midi": 74,
          "name": "D5",
          "ticks": 14206,
          "time": 21.375265,
          "velocity": 0.8031496062992126
        },
        {
          "duration": 3.256833489583336,
          "durationTicks": 2126,
          "midi": 72,
          "name": "C5",
          "ticks": 15356,
          "time": 23.17214,
          "velocity": 0.8031496062992126
        },
        {
          "duration": 3.2046893229166677,
          "durationTicks": 2092,
          "midi": 64,
          "name": "E4",
          "ticks": 15358,
          "time": 23.175265,
          "velocity": 0.8031496062992126
        },
        {
          "duration": 3.213880416666669,
          "durationTicks": 2098,
          "midi": 69,
          "name": "A4",
          "ticks": 15358,
          "time": 23.175265,
          "velocity": 0.8031496062992126
        },
        {
          "duration": 1.5226578645833335,
          "durationTicks": 994,
          "midi": 69,
          "name": "A4",
          "ticks": 17662,
          "time": 26.704706302083334,
          "velocity": 0.8031496062992126
        },
        {
          "duration": 1.5287852604166652,
          "durationTicks": 998,
          "midi": 72,
          "name": "C5",
          "ticks": 17662,
          "time": 26.704706302083334,
          "velocity": 0.8031496062992126
        },
        {
          "duration": 1.495084583333334,
          "durationTicks": 976,
          "midi": 76,
          "name": "E5",
          "ticks": 17664,
          "time": 26.70777,
          "velocity": 0.8031496062992126
        },
        {
          "duration": 1.5778044270833362,
          "durationTicks": 1030,
          "midi": 71,
          "name": "B4",
          "ticks": 18814,
          "time": 28.469396302083332,
          "velocity": 0.8031496062992126
        },
        {
          "duration": 1.639078385416667,
          "durationTicks": 1070,
          "midi": 68,
          "name": "G#4",
          "ticks": 18814,
          "time": 28.469396302083332,
          "velocity": 0.8031496062992126
        },
        {
          "duration": 1.5992503125000006,
          "durationTicks": 1044,
          "midi": 74,
          "name": "D5",
          "ticks": 18814,
          "time": 28.469396302083332,
          "velocity": 0.8031496062992126
        },
        {
          "duration": 0.7737979166666662,
          "durationTicks": 520,
          "midi": 69,
          "name": "A4",
          "ticks": 19968,
          "time": 30.23715,
          "velocity": 0.8031496062992126
        },
        {
          "duration": 0.7261795833333338,
          "durationTicks": 488,
          "midi": 64,
          "name": "E4",
          "ticks": 19968,
          "time": 30.23715,
          "velocity": 0.8031496062992126
        },
        {
          "duration": 0.8005832291666657,
          "durationTicks": 538,
          "midi": 72,
          "name": "C5",
          "ticks": 19968,
          "time": 30.23715,
          "velocity": 0.8031496062992126
        },
        {
          "duration": 0.6755851041666645,
          "durationTicks": 454,
          "midi": 71,
          "name": "B4",
          "ticks": 20546,
          "time": 31.097256145833335,
          "velocity": 0.8031496062992126
        },
        {
          "duration": 0.6547520833333316,
          "durationTicks": 440,
          "midi": 67,
          "name": "G4",
          "ticks": 20546,
          "time": 31.097256145833335,
          "velocity": 0.8031496062992126
        },
        {
          "duration": 0.6428474999999985,
          "durationTicks": 432,
          "midi": 62,
          "name": "D4",
          "ticks": 20546,
          "time": 31.097256145833335,
          "velocity": 0.8031496062992126
        },
        {
          "duration": 1.3868839583333354,
          "durationTicks": 932,
          "midi": 67,
          "name": "G4",
          "ticks": 21118,
          "time": 31.948433854166666,
          "velocity": 0.8031496062992126
        },
        {
          "duration": 1.4017646874999983,
          "durationTicks": 942,
          "midi": 72,
          "name": "C5",
          "ticks": 21118,
          "time": 31.948433854166666,
          "velocity": 0.8031496062992126
        },
        {
          "duration": 1.2470051041666679,
          "durationTicks": 838,
          "midi": 64,
          "name": "E4",
          "ticks": 21118,
          "time": 31.948433854166666,
          "velocity": 0.8031496062992126
        },
        {
          "duration": 1.458311458333334,
          "durationTicks": 980,
          "midi": 62,
          "name": "D4",
          "ticks": 22270,
          "time": 33.66269385416667,
          "velocity": 0.8031496062992126
        },
        {
          "duration": 0.8868914583333307,
          "durationTicks": 596,
          "midi": 67,
          "name": "G4",
          "ticks": 22270,
          "time": 33.66269385416667,
          "velocity": 0.8031496062992126
        },
        {
          "duration": 1.2767665624999935,
          "durationTicks": 858,
          "midi": 71,
          "name": "B4",
          "ticks": 22270,
          "time": 33.66269385416667,
          "velocity": 0.8031496062992126
        },
        {
          "duration": 0.5714199999999963,
          "durationTicks": 384,
          "midi": 68,
          "name": "G#4",
          "ticks": 22848,
          "time": 34.522800000000004,
          "velocity": 0.8031496062992126
        },
        {
          "duration": 1.3541463541666658,
          "durationTicks": 910,
          "midi": 72,
          "name": "C5",
          "ticks": 23422,
          "time": 35.376953854166665,
          "velocity": 0.8031496062992126
        },
        {
          "duration": 1.2827188541666672,
          "durationTicks": 862,
          "midi": 64,
          "name": "E4",
          "ticks": 23422,
          "time": 35.376953854166665,
          "velocity": 0.8031496062992126
        },
        {
          "duration": 1.3095041666666702,
          "durationTicks": 880,
          "midi": 69,
          "name": "A4",
          "ticks": 23422,
          "time": 35.376953854166665,
          "velocity": 0.8031496062992126
        },
        {
          "duration": 3.663615,
          "durationTicks": 2448,
          "midi": 68,
          "name": "G#4",
          "ticks": 24576,
          "time": 37.09419,
          "velocity": 0.8031496062992126
        },
        {
          "duration": 3.660581041666667,
          "durationTicks": 2446,
          "midi": 71,
          "name": "B4",
          "ticks": 24576,
          "time": 37.09419,
          "velocity": 0.8031496062992126
        },
        {
          "duration": 3.6606388541666632,
          "durationTicks": 2446,
          "midi": 64,
          "name": "E4",
          "ticks": 24578,
          "time": 37.097166145833334,
          "velocity": 0.8031496062992126
        },
        {
          "duration": 1.5503527083333353,
          "durationTicks": 1022,
          "midi": 69,
          "name": "A4",
          "ticks": 28032,
          "time": 42.286919999999995,
          "velocity": 0.8031496062992126
        },
        {
          "duration": 1.5109112500000066,
          "durationTicks": 996,
          "midi": 72,
          "name": "C5",
          "ticks": 28032,
          "time": 42.286919999999995,
          "velocity": 0.8031496062992126
        },
        {
          "duration": 1.5078772916666736,
          "durationTicks": 994,
          "midi": 76,
          "name": "E5",
          "ticks": 28032,
          "time": 42.286919999999995,
          "velocity": 0.8031496062992126
        },
        {
          "duration": 1.4350622916666609,
          "durationTicks": 946,
          "midi": 74,
          "name": "D5",
          "ticks": 29184,
          "time": 44.03448,
          "velocity": 0.8031496062992126
        },
        {
          "duration": 1.4654018749999977,
          "durationTicks": 966,
          "midi": 68,
          "name": "G#4",
          "ticks": 29184,
          "time": 44.03448,
          "velocity": 0.8031496062992126
        },
        {
          "duration": 1.425960416666662,
          "durationTicks": 940,
          "midi": 71,
          "name": "B4",
          "ticks": 29184,
          "time": 44.03448,
          "velocity": 0.8031496062992126
        },
        {
          "duration": 3.127991250000001,
          "durationTicks": 2122,
          "midi": 64,
          "name": "E4",
          "ticks": 30334,
          "time": 45.77900604166666,
          "velocity": 0.8031496062992126
        },
        {
          "duration": 3.1044066666666694,
          "durationTicks": 2106,
          "midi": 69,
          "name": "A4",
          "ticks": 30334,
          "time": 45.77900604166666,
          "velocity": 0.8031496062992126
        },
        {
          "duration": 3.1103028125000023,
          "durationTicks": 2110,
          "midi": 72,
          "name": "C5",
          "ticks": 30334,
          "time": 45.77900604166666,
          "velocity": 0.8031496062992126
        },
        {
          "duration": 1.4268672916666674,
          "durationTicks": 968,
          "midi": 69,
          "name": "A4",
          "ticks": 32638,
          "time": 49.17527192708333,
          "velocity": 0.8031496062992126
        },
        {
          "duration": 1.3001001562499965,
          "durationTicks": 882,
          "midi": 76,
          "name": "E5",
          "ticks": 32640,
          "time": 49.178219999999996,
          "velocity": 0.8031496062992126
        },
        {
          "duration": 1.2794636458333315,
          "durationTicks": 868,
          "midi": 72,
          "name": "C5",
          "ticks": 32640,
          "time": 49.178219999999996,
          "velocity": 0.8031496062992126
        },
        {
          "duration": 1.4887768229166625,
          "durationTicks": 1010,
          "midi": 74,
          "name": "D5",
          "ticks": 33790,
          "time": 50.87336192708333,
          "velocity": 0.8031496062992126
        },
        {
          "duration": 1.4592960937499981,
          "durationTicks": 990,
          "midi": 71,
          "name": "B4",
          "ticks": 33790,
          "time": 50.87336192708333,
          "velocity": 0.8031496062992126
        },
        {
          "duration": 1.5064652604166682,
          "durationTicks": 1022,
          "midi": 68,
          "name": "G#4",
          "ticks": 33790,
          "time": 50.87336192708333,
          "velocity": 0.8031496062992126
        },
        {
          "duration": 0.8667334374999953,
          "durationTicks": 588,
          "midi": 69,
          "name": "A4",
          "ticks": 34942,
          "time": 52.57145192708333,
          "velocity": 0.8031496062992126
        },
        {
          "duration": 0.884421875000001,
          "durationTicks": 600,
          "midi": 72,
          "name": "C5",
          "ticks": 34942,
          "time": 52.57145192708333,
          "velocity": 0.8031496062992126
        },
        {
          "duration": 0.8696815104166618,
          "durationTicks": 590,
          "midi": 64,
          "name": "E4",
          "ticks": 34942,
          "time": 52.57145192708333,
          "velocity": 0.8031496062992126
        },
        {
          "duration": 0.6102510937500014,
          "durationTicks": 414,
          "midi": 71,
          "name": "B4",
          "ticks": 35524,
          "time": 53.42934114583333,
          "velocity": 0.8031496062992126
        },
        {
          "duration": 0.5896145833333364,
          "durationTicks": 400,
          "midi": 67,
          "name": "G4",
          "ticks": 35524,
          "time": 53.42934114583333,
          "velocity": 0.8031496062992126
        },
        {
          "duration": 0.465795520833332,
          "durationTicks": 316,
          "midi": 62,
          "name": "D4",
          "ticks": 35524,
          "time": 53.42934114583333,
          "velocity": 0.8031496062992126
        },
        {
          "duration": 1.4592960937500052,
          "durationTicks": 990,
          "midi": 64,
          "name": "E4",
          "ticks": 36094,
          "time": 54.269541927083324,
          "velocity": 0.8031496062992126
        },
        {
          "duration": 1.4121269270833352,
          "durationTicks": 958,
          "midi": 67,
          "name": "G4",
          "ticks": 36094,
          "time": 54.269541927083324,
          "velocity": 0.8031496062992126
        },
        {
          "duration": 1.5064652604166753,
          "durationTicks": 1022,
          "midi": 72,
          "name": "C5",
          "ticks": 36094,
          "time": 54.269541927083324,
          "velocity": 0.8031496062992126
        },
        {
          "duration": 1.3443212500000072,
          "durationTicks": 912,
          "midi": 60,
          "name": "C4",
          "ticks": 36094,
          "time": 54.269541927083324,
          "velocity": 0.8031496062992126
        },
        {
          "duration": 1.5683747916666633,
          "durationTicks": 1064,
          "midi": 67,
          "name": "G4",
          "ticks": 37246,
          "time": 55.96763192708333,
          "velocity": 0.8031496062992126
        },
        {
          "duration": 1.4563480208333317,
          "durationTicks": 988,
          "midi": 62,
          "name": "D4",
          "ticks": 37246,
          "time": 55.96763192708333,
          "velocity": 0.8031496062992126
        },
        {
          "duration": 1.3885423437499966,
          "durationTicks": 942,
          "midi": 71,
          "name": "B4",
          "ticks": 37248,
          "time": 55.97058,
          "velocity": 0.8031496062992126
        },
        {
          "duration": 1.3708539062500051,
          "durationTicks": 930,
          "midi": 72,
          "name": "C5",
          "ticks": 38400,
          "time": 57.66866999999999,
          "velocity": 0.8031496062992126
        },
        {
          "duration": 1.3708539062500051,
          "durationTicks": 930,
          "midi": 69,
          "name": "A4",
          "ticks": 38400,
          "time": 57.66866999999999,
          "velocity": 0.8031496062992126
        },
        {
          "duration": 1.2971520833333372,
          "durationTicks": 880,
          "midi": 64,
          "name": "E4",
          "ticks": 38400,
          "time": 57.66866999999999,
          "velocity": 0.8031496062992126
        },
        {
          "duration": 4.336735260416667,
          "durationTicks": 2918,
          "midi": 71,
          "name": "B4",
          "ticks": 39552,
          "time": 59.36676,
          "velocity": 0.8031496062992126
        },
        {
          "duration": 4.315289374999999,
          "durationTicks": 2904,
          "midi": 68,
          "name": "G#4",
          "ticks": 39552,
          "time": 59.36676,
          "velocity": 0.8031496062992126
        },
        {
          "duration": 4.315289374999999,
          "durationTicks": 2904,
          "midi": 64,
          "name": "E4",
          "ticks": 39552,
          "time": 59.36676,
          "velocity": 0.8031496062992126
        },
        {
          "duration": 1.5410400520833463,
          "durationTicks": 1006,
          "midi": 72,
          "name": "C5",
          "ticks": 43010,
          "time": 64.53069369791666,
          "velocity": 0.8031496062992126
        },
        {
          "duration": 1.5808681250000092,
          "durationTicks": 1032,
          "midi": 69,
          "name": "A4",
          "ticks": 43010,
          "time": 64.53069369791666,
          "velocity": 0.8031496062992126
        },
        {
          "duration": 1.4736386979166696,
          "durationTicks": 962,
          "midi": 76,
          "name": "E5",
          "ticks": 43010,
          "time": 64.53069369791666,
          "velocity": 0.8031496062992126
        },
        {
          "duration": 1.583931822916668,
          "durationTicks": 1034,
          "midi": 71,
          "name": "B4",
          "ticks": 44158,
          "time": 66.28925630208333,
          "velocity": 0.8031496062992126
        },
        {
          "duration": 1.6115051041666675,
          "durationTicks": 1052,
          "midi": 68,
          "name": "G#4",
          "ticks": 44158,
          "time": 66.28925630208333,
          "velocity": 0.8031496062992126
        },
        {
          "duration": 1.583931822916668,
          "durationTicks": 1034,
          "midi": 74,
          "name": "D5",
          "ticks": 44158,
          "time": 66.28925630208333,
          "velocity": 0.8031496062992126
        },
        {
          "duration": 2.976233385416677,
          "durationTicks": 2000,
          "midi": 64,
          "name": "E4",
          "ticks": 45310,
          "time": 68.05394630208333,
          "velocity": 0.8031496062992126
        },
        {
          "duration": 2.997066406249999,
          "durationTicks": 2014,
          "midi": 72,
          "name": "C5",
          "ticks": 45310,
          "time": 68.05394630208333,
          "velocity": 0.8031496062992126
        },
        {
          "duration": 3.0119471354166762,
          "durationTicks": 2024,
          "midi": 69,
          "name": "A4",
          "ticks": 45310,
          "time": 68.05394630208333,
          "velocity": 0.8031496062992126
        },
        {
          "duration": 1.4761683333333337,
          "durationTicks": 992,
          "midi": 69,
          "name": "A4",
          "ticks": 47614,
          "time": 71.48255385416667,
          "velocity": 0.8031496062992126
        },
        {
          "duration": 1.4106931250000088,
          "durationTicks": 948,
          "midi": 76,
          "name": "E5",
          "ticks": 47614,
          "time": 71.48255385416667,
          "velocity": 0.8031496062992126
        },
        {
          "duration": 1.4225977083333419,
          "durationTicks": 956,
          "midi": 72,
          "name": "C5",
          "ticks": 47614,
          "time": 71.48255385416667,
          "velocity": 0.8031496062992126
        },
        {
          "duration": 1.65771322916666,
          "durationTicks": 1114,
          "midi": 74,
          "name": "D5",
          "ticks": 48766,
          "time": 73.19681385416668,
          "velocity": 0.8031496062992126
        },
        {
          "duration": 1.4612876041666567,
          "durationTicks": 982,
          "midi": 68,
          "name": "G#4",
          "ticks": 48766,
          "time": 73.19681385416668,
          "velocity": 0.8031496062992126
        },
        {
          "duration": 1.645808645833327,
          "durationTicks": 1106,
          "midi": 64,
          "name": "E4",
          "ticks": 48766,
          "time": 73.19681385416668,
          "velocity": 0.8031496062992126
        },
        {
          "duration": 1.6279517708333344,
          "durationTicks": 1094,
          "midi": 71,
          "name": "B4",
          "ticks": 48768,
          "time": 73.19979000000001,
          "velocity": 0.8031496062992126
        },
        {
          "duration": 0.6666566666666682,
          "durationTicks": 448,
          "midi": 72,
          "name": "C5",
          "ticks": 49920,
          "time": 74.91405,
          "velocity": 0.8031496062992126
        },
        {
          "duration": 0.7172511458333304,
          "durationTicks": 482,
          "midi": 64,
          "name": "E4",
          "ticks": 49920,
          "time": 74.91405,
          "velocity": 0.8031496062992126
        },
        {
          "duration": 0.8005832291666763,
          "durationTicks": 538,
          "midi": 69,
          "name": "A4",
          "ticks": 49922,
          "time": 74.91702614583333,
          "velocity": 0.8031496062992126
        },
        {
          "duration": 0.5833245833333223,
          "durationTicks": 392,
          "midi": 67,
          "name": "G4",
          "ticks": 50514,
          "time": 75.79796531250001,
          "velocity": 0.8031496062992126
        },
        {
          "duration": 0.4999924999999905,
          "durationTicks": 336,
          "midi": 64,
          "name": "E4",
          "ticks": 50514,
          "time": 75.79796531250001,
          "velocity": 0.8031496062992126
        },
        {
          "duration": 0.6071337500000027,
          "durationTicks": 408,
          "midi": 72,
          "name": "C5",
          "ticks": 50520,
          "time": 75.80689375,
          "velocity": 0.8031496062992126
        },
        {
          "duration": 1.2083152083333317,
          "durationTicks": 812,
          "midi": 69,
          "name": "A4",
          "ticks": 51068,
          "time": 76.62235770833334,
          "velocity": 0.8031496062992126
        },
        {
          "duration": 1.270814270833327,
          "durationTicks": 854,
          "midi": 60,
          "name": "C4",
          "ticks": 51074,
          "time": 76.63128614583334,
          "velocity": 0.8031496062992126
        },
        {
          "duration": 1.2380766666666574,
          "durationTicks": 832,
          "midi": 65,
          "name": "F4",
          "ticks": 51074,
          "time": 76.63128614583334,
          "velocity": 0.8031496062992126
        },
        {
          "duration": 1.3184326041666594,
          "durationTicks": 886,
          "midi": 74,
          "name": "D5",
          "ticks": 52224,
          "time": 78.34257000000001,
          "velocity": 0.8031496062992126
        },
        {
          "duration": 1.28271885416666,
          "durationTicks": 862,
          "midi": 70,
          "name": "A#4",
          "ticks": 52224,
          "time": 78.34257000000001,
          "velocity": 0.8031496062992126
        },
        {
          "duration": 1.3541463541666587,
          "durationTicks": 910,
          "midi": 65,
          "name": "F4",
          "ticks": 52224,
          "time": 78.34257000000001,
          "velocity": 0.8031496062992126
        },
        {
          "duration": 1.4850967708333371,
          "durationTicks": 998,
          "midi": 65,
          "name": "F4",
          "ticks": 53374,
          "time": 80.05385385416668,
          "velocity": 0.8031496062992126
        },
        {
          "duration": 1.4761683333333337,
          "durationTicks": 992,
          "midi": 67,
          "name": "G4",
          "ticks": 53374,
          "time": 80.05385385416668,
          "velocity": 0.8031496062992126
        },
        {
          "duration": 1.461287604166671,
          "durationTicks": 982,
          "midi": 72,
          "name": "C5",
          "ticks": 53374,
          "time": 80.05385385416668,
          "velocity": 0.8031496062992126
        },
        {
          "duration": 1.4583114583333412,
          "durationTicks": 980,
          "midi": 72,
          "name": "C5",
          "ticks": 54526,
          "time": 81.76811385416667,
          "velocity": 0.8031496062992126
        },
        {
          "duration": 1.4493830208333378,
          "durationTicks": 974,
          "midi": 69,
          "name": "A4",
          "ticks": 54526,
          "time": 81.76811385416667,
          "velocity": 0.8031496062992126
        },
        {
          "duration": 1.4850967708333371,
          "durationTicks": 998,
          "midi": 65,
          "name": "F4",
          "ticks": 54526,
          "time": 81.76811385416667,
          "velocity": 0.8031496062992126
        },
        {
          "duration": 1.3184326041666736,
          "durationTicks": 886,
          "midi": 72,
          "name": "C5",
          "ticks": 55678,
          "time": 83.48237385416667,
          "velocity": 0.8031496062992126
        },
        {
          "duration": 1.3095041666666702,
          "durationTicks": 880,
          "midi": 69,
          "name": "A4",
          "ticks": 55678,
          "time": 83.48237385416667,
          "velocity": 0.8031496062992126
        },
        {
          "duration": 1.3184326041666736,
          "durationTicks": 886,
          "midi": 65,
          "name": "F4",
          "ticks": 55678,
          "time": 83.48237385416667,
          "velocity": 0.8031496062992126
        },
        {
          "duration": 0.7589171874999892,
          "durationTicks": 510,
          "midi": 69,
          "name": "A4",
          "ticks": 56830,
          "time": 85.19663385416668,
          "velocity": 0.8031496062992126
        },
        {
          "duration": 0.7321318749999932,
          "durationTicks": 492,
          "midi": 64,
          "name": "E4",
          "ticks": 56830,
          "time": 85.19663385416668,
          "velocity": 0.8031496062992126
        },
        {
          "duration": 0.6130860416666621,
          "durationTicks": 412,
          "midi": 72,
          "name": "C5",
          "ticks": 56830,
          "time": 85.19663385416668,
          "velocity": 0.8031496062992126
        },
        {
          "duration": 0.5863007291666662,
          "durationTicks": 394,
          "midi": 74,
          "name": "D5",
          "ticks": 57408,
          "time": 86.05674,
          "velocity": 0.8031496062992126
        },
        {
          "duration": 0.5714200000000034,
          "durationTicks": 384,
          "midi": 65,
          "name": "F4",
          "ticks": 57408,
          "time": 86.05674,
          "velocity": 0.8031496062992126
        },
        {
          "duration": 0.6636805208333385,
          "durationTicks": 446,
          "midi": 69,
          "name": "A4",
          "ticks": 57408,
          "time": 86.05674,
          "velocity": 0.8031496062992126
        },
        {
          "duration": 0.6160621875000061,
          "durationTicks": 414,
          "midi": 72,
          "name": "C5",
          "ticks": 57980,
          "time": 86.90791770833334,
          "velocity": 0.8031496062992126
        },
        {
          "duration": 0.6190383333333216,
          "durationTicks": 416,
          "midi": 67,
          "name": "G4",
          "ticks": 57980,
          "time": 86.90791770833334,
          "velocity": 0.8031496062992126
        },
        {
          "duration": 0.627966770833325,
          "durationTicks": 422,
          "midi": 64,
          "name": "E4",
          "ticks": 57980,
          "time": 86.90791770833334,
          "velocity": 0.8031496062992126
        },
        {
          "duration": 0.5743961458333331,
          "durationTicks": 386,
          "midi": 67,
          "name": "G4",
          "ticks": 58558,
          "time": 87.76802385416667,
          "velocity": 0.8031496062992126
        },
        {
          "duration": 0.5743961458333331,
          "durationTicks": 386,
          "midi": 71,
          "name": "B4",
          "ticks": 58558,
          "time": 87.76802385416667,
          "velocity": 0.8031496062992126
        },
        {
          "duration": 0.577372291666677,
          "durationTicks": 388,
          "midi": 62,
          "name": "D4",
          "ticks": 58558,
          "time": 87.76802385416667,
          "velocity": 0.8031496062992126
        },
        {
          "duration": 0.497016354166675,
          "durationTicks": 334,
          "midi": 67,
          "name": "G4",
          "ticks": 59134,
          "time": 88.62515385416667,
          "velocity": 0.8031496062992126
        },
        {
          "duration": 0.5148732291666676,
          "durationTicks": 346,
          "midi": 64,
          "name": "E4",
          "ticks": 59134,
          "time": 88.62515385416667,
          "velocity": 0.8031496062992126
        },
        {
          "duration": 0.5118970833333378,
          "durationTicks": 344,
          "midi": 72,
          "name": "C5",
          "ticks": 59134,
          "time": 88.62515385416667,
          "velocity": 0.8031496062992126
        },
        {
          "duration": 0.7470126041666703,
          "durationTicks": 502,
          "midi": 62,
          "name": "D4",
          "ticks": 59708,
          "time": 89.47930770833334,
          "velocity": 0.8031496062992126
        },
        {
          "duration": 0.7142750000000007,
          "durationTicks": 480,
          "midi": 67,
          "name": "G4",
          "ticks": 59708,
          "time": 89.47930770833334,
          "velocity": 0.8031496062992126
        },
        {
          "duration": 0.7053465624999973,
          "durationTicks": 474,
          "midi": 71,
          "name": "B4",
          "ticks": 59708,
          "time": 89.47930770833334,
          "velocity": 0.8031496062992126
        },
        {
          "duration": 0.5684438541666594,
          "durationTicks": 382,
          "midi": 67,
          "name": "G4",
          "ticks": 60288,
          "time": 90.34239000000001,
          "velocity": 0.8031496062992126
        },
        {
          "duration": 0.48213562499999796,
          "durationTicks": 324,
          "midi": 72,
          "name": "C5",
          "ticks": 60288,
          "time": 90.34239000000001,
          "velocity": 0.8031496062992126
        },
        {
          "duration": 0.22916322916665877,
          "durationTicks": 154,
          "midi": 62,
          "name": "D4",
          "ticks": 60288,
          "time": 90.34239000000001,
          "velocity": 0.8031496062992126
        },
        {
          "duration": 0.4882286979166679,
          "durationTicks": 330,
          "midi": 69,
          "name": "A4",
          "ticks": 60668,
          "time": 90.90785770833334,
          "velocity": 0.8031496062992126
        },
        {
          "duration": 0.46759218750000286,
          "durationTicks": 316,
          "midi": 72,
          "name": "C5",
          "ticks": 60668,
          "time": 90.90785770833334,
          "velocity": 0.8031496062992126
        },
        {
          "duration": 0.47348833333333573,
          "durationTicks": 320,
          "midi": 65,
          "name": "F4",
          "ticks": 60668,
          "time": 90.90785770833334,
          "velocity": 0.8031496062992126
        },
        {
          "duration": 0.39209369791666404,
          "durationTicks": 266,
          "midi": 74,
          "name": "D5",
          "ticks": 61054,
          "time": 91.47863244791667,
          "velocity": 0.8031496062992126
        },
        {
          "duration": 0.36556104166666614,
          "durationTicks": 248,
          "midi": 71,
          "name": "B4",
          "ticks": 61054,
          "time": 91.47863244791667,
          "velocity": 0.8031496062992126
        },
        {
          "duration": 0.3861975520833312,
          "durationTicks": 262,
          "midi": 67,
          "name": "G4",
          "ticks": 61054,
          "time": 91.47863244791667,
          "velocity": 0.8031496062992126
        },
        {
          "duration": 0.4991059895833416,
          "durationTicks": 340,
          "midi": 76,
          "name": "E5",
          "ticks": 61442,
          "time": 92.05055859375,
          "velocity": 0.8031496062992126
        },
        {
          "duration": 0.47574182291667455,
          "durationTicks": 324,
          "midi": 72,
          "name": "C5",
          "ticks": 61442,
          "time": 92.05055859375,
          "velocity": 0.8031496062992126
        },
        {
          "duration": 0.5633574479166725,
          "durationTicks": 384,
          "midi": 69,
          "name": "A4",
          "ticks": 61442,
          "time": 92.05055859375,
          "velocity": 0.8031496062992126
        },
        {
          "duration": 0.45560125000000085,
          "durationTicks": 312,
          "midi": 69,
          "name": "A4",
          "ticks": 62014,
          "time": 92.888445,
          "velocity": 0.8031496062992126
        },
        {
          "duration": 0.5227732291666598,
          "durationTicks": 358,
          "midi": 77,
          "name": "F5",
          "ticks": 62014,
          "time": 92.888445,
          "velocity": 0.8031496062992126
        },
        {
          "duration": 0.5256937500000021,
          "durationTicks": 360,
          "midi": 74,
          "name": "D5",
          "ticks": 62014,
          "time": 92.888445,
          "velocity": 0.8031496062992126
        },
        {
          "duration": 0.6658787500000045,
          "durationTicks": 456,
          "midi": 67,
          "name": "G4",
          "ticks": 62590,
          "time": 93.729555,
          "velocity": 0.8031496062992126
        },
        {
          "duration": 0.6016272916666594,
          "durationTicks": 412,
          "midi": 72,
          "name": "C5",
          "ticks": 62590,
          "time": 93.729555,
          "velocity": 0.8031496062992126
        },
        {
          "duration": 0.6162298958333281,
          "durationTicks": 422,
          "midi": 76,
          "name": "E5",
          "ticks": 62590,
          "time": 93.729555,
          "velocity": 0.8031496062992126
        },
        {
          "duration": 0.613309375,
          "durationTicks": 420,
          "midi": 71,
          "name": "B4",
          "ticks": 63166,
          "time": 94.570665,
          "velocity": 0.8031496062992126
        },
        {
          "duration": 0.5169321875000037,
          "durationTicks": 354,
          "midi": 74,
          "name": "D5",
          "ticks": 63166,
          "time": 94.570665,
          "velocity": 0.8031496062992126
        },
        {
          "duration": 0.6337530208333249,
          "durationTicks": 434,
          "midi": 67,
          "name": "G4",
          "ticks": 63166,
          "time": 94.570665,
          "velocity": 0.8031496062992126
        },
        {
          "duration": 0.5607399999999956,
          "durationTicks": 384,
          "midi": 67,
          "name": "G4",
          "ticks": 63742,
          "time": 95.411775,
          "velocity": 0.8031496062992126
        },
        {
          "duration": 0.5461373958333269,
          "durationTicks": 374,
          "midi": 72,
          "name": "C5",
          "ticks": 63742,
          "time": 95.411775,
          "velocity": 0.8031496062992126
        },
        {
          "duration": 0.5665810416666659,
          "durationTicks": 388,
          "midi": 76,
          "name": "E5",
          "ticks": 63742,
          "time": 95.411775,
          "velocity": 0.8031496062992126
        },
        {
          "duration": 0.394270312499998,
          "durationTicks": 270,
          "midi": 76,
          "name": "E5",
          "ticks": 64896,
          "time": 97.09691552083333,
          "velocity": 0.8031496062992126
        },
        {
          "duration": 0.39719083333334027,
          "durationTicks": 272,
          "midi": 67,
          "name": "G4",
          "ticks": 64896,
          "time": 97.09691552083333,
          "velocity": 0.8031496062992126
        },
        {
          "duration": 0.4526807291666728,
          "durationTicks": 310,
          "midi": 72,
          "name": "C5",
          "ticks": 64896,
          "time": 97.09691552083333,
          "velocity": 0.8031496062992126
        },
        {
          "duration": 0.3855087499999996,
          "durationTicks": 264,
          "midi": 69,
          "name": "A4",
          "ticks": 65276,
          "time": 97.65181447916667,
          "velocity": 0.8031496062992126
        },
        {
          "duration": 0.35338302083333417,
          "durationTicks": 242,
          "midi": 65,
          "name": "F4",
          "ticks": 65276,
          "time": 97.65181447916667,
          "velocity": 0.8031496062992126
        },
        {
          "duration": 0.3504624999999919,
          "durationTicks": 240,
          "midi": 72,
          "name": "C5",
          "ticks": 65276,
          "time": 97.65181447916667,
          "velocity": 0.8031496062992126
        },
        {
          "duration": 0.24824427083333944,
          "durationTicks": 170,
          "midi": 74,
          "name": "D5",
          "ticks": 65662,
          "time": 98.215475,
          "velocity": 0.8031496062992126
        },
        {
          "duration": 0.2570058333333378,
          "durationTicks": 176,
          "midi": 67,
          "name": "G4",
          "ticks": 65662,
          "time": 98.215475,
          "velocity": 0.8031496062992126
        },
        {
          "duration": 0.25408531250000976,
          "durationTicks": 174,
          "midi": 71,
          "name": "B4",
          "ticks": 65662,
          "time": 98.215475,
          "velocity": 0.8031496062992126
        },
        {
          "duration": 3.3352347916666645,
          "durationTicks": 2284,
          "midi": 76,
          "name": "E5",
          "ticks": 66046,
          "time": 98.77621500000001,
          "velocity": 0.8031496062992126
        },
        {
          "duration": 3.3556784374999893,
          "durationTicks": 2298,
          "midi": 68,
          "name": "G#4",
          "ticks": 66046,
          "time": 98.77621500000001,
          "velocity": 0.8031496062992126
        },
        {
          "duration": 3.329393749999994,
          "durationTicks": 2280,
          "midi": 71,
          "name": "B4",
          "ticks": 66046,
          "time": 98.77621500000001,
          "velocity": 0.8031496062992126
        },
        {
          "duration": 1.3852089583333367,
          "durationTicks": 922,
          "midi": 72,
          "name": "C5",
          "ticks": 70654,
          "time": 105.55308572916667,
          "velocity": 0.8031496062992126
        },
        {
          "duration": 1.3852089583333367,
          "durationTicks": 922,
          "midi": 76,
          "name": "E5",
          "ticks": 70654,
          "time": 105.55308572916667,
          "velocity": 0.8031496062992126
        },
        {
          "duration": 1.4062425000000047,
          "durationTicks": 936,
          "midi": 69,
          "name": "A4",
          "ticks": 70654,
          "time": 105.55308572916667,
          "velocity": 0.8031496062992126
        },
        {
          "duration": 1.7403845833333378,
          "durationTicks": 1114,
          "midi": 68,
          "name": "G#4",
          "ticks": 71804,
          "time": 107.2808409375,
          "velocity": 0.8031496062992126
        },
        {
          "duration": 1.652884583333332,
          "durationTicks": 1058,
          "midi": 71,
          "name": "B4",
          "ticks": 71804,
          "time": 107.2808409375,
          "velocity": 0.8031496062992126
        },
        {
          "duration": 1.6061297916666746,
          "durationTicks": 1028,
          "midi": 74,
          "name": "D5",
          "ticks": 71806,
          "time": 107.28384572916667,
          "velocity": 0.8031496062992126
        },
        {
          "duration": 3.088751666666667,
          "durationTicks": 2036,
          "midi": 72,
          "name": "C5",
          "ticks": 72956,
          "time": 109.08060052083334,
          "velocity": 0.8031496062992126
        },
        {
          "duration": 3.1554987499999925,
          "durationTicks": 2080,
          "midi": 69,
          "name": "A4",
          "ticks": 72956,
          "time": 109.08060052083334,
          "velocity": 0.8031496062992126
        },
        {
          "duration": 3.3102306249999884,
          "durationTicks": 2182,
          "midi": 64,
          "name": "E4",
          "ticks": 72956,
          "time": 109.08060052083334,
          "velocity": 0.8031496062992126
        },
        {
          "duration": 1.5685564583333331,
          "durationTicks": 1034,
          "midi": 69,
          "name": "A4",
          "ticks": 75262,
          "time": 112.5789365625,
          "velocity": 0.8031496062992126
        },
        {
          "duration": 1.5624885416666672,
          "durationTicks": 1030,
          "midi": 72,
          "name": "C5",
          "ticks": 75262,
          "time": 112.5789365625,
          "velocity": 0.8031496062992126
        },
        {
          "duration": 1.4927074999999945,
          "durationTicks": 984,
          "midi": 76,
          "name": "E5",
          "ticks": 75262,
          "time": 112.5789365625,
          "velocity": 0.8031496062992126
        },
        {
          "duration": 1.553386666666654,
          "durationTicks": 1024,
          "midi": 71,
          "name": "B4",
          "ticks": 76414,
          "time": 114.32649656250001,
          "velocity": 0.8031496062992126
        },
        {
          "duration": 1.544284791666655,
          "durationTicks": 1018,
          "midi": 74,
          "name": "D5",
          "ticks": 76414,
          "time": 114.32649656250001,
          "velocity": 0.8031496062992126
        },
        {
          "duration": 1.577658333333332,
          "durationTicks": 1040,
          "midi": 68,
          "name": "G#4",
          "ticks": 76414,
          "time": 114.32649656250001,
          "velocity": 0.8031496062992126
        },
        {
          "duration": 1.438096250000001,
          "durationTicks": 948,
          "midi": 72,
          "name": "C5",
          "ticks": 77566,
          "time": 116.0740565625,
          "velocity": 0.8031496062992126
        },
        {
          "duration": 1.4532660416666658,
          "durationTicks": 958,
          "midi": 64,
          "name": "E4",
          "ticks": 77566,
          "time": 116.0740565625,
          "velocity": 0.8031496062992126
        },
        {
          "duration": 1.4593339583333318,
          "durationTicks": 962,
          "midi": 69,
          "name": "A4",
          "ticks": 77566,
          "time": 116.0740565625,
          "velocity": 0.8031496062992126
        },
        {
          "duration": 1.4562999999999988,
          "durationTicks": 960,
          "midi": 76,
          "name": "E5",
          "ticks": 78722,
          "time": 117.82768447916668,
          "velocity": 0.8031496062992126
        },
        {
          "duration": 1.5412508333333221,
          "durationTicks": 1016,
          "midi": 72,
          "name": "C5",
          "ticks": 78722,
          "time": 117.82768447916668,
          "velocity": 0.8031496062992126
        },
        {
          "duration": 1.4866395833333286,
          "durationTicks": 980,
          "midi": 67,
          "name": "G4",
          "ticks": 78724,
          "time": 117.83071843750001,
          "velocity": 0.8031496062992126
        },
        {
          "duration": 1.632755000000003,
          "durationTicks": 1086,
          "midi": 71,
          "name": "B4",
          "ticks": 79870,
          "time": 119.5691765625,
          "velocity": 0.8031496062992126
        },
        {
          "duration": 0.6431991666666619,
          "durationTicks": 424,
          "midi": 67,
          "name": "G4",
          "ticks": 79870,
          "time": 119.5691765625,
          "velocity": 0.8031496062992126
        },
        {
          "duration": 1.6119219791666666,
          "durationTicks": 1072,
          "midi": 74,
          "name": "D5",
          "ticks": 79870,
          "time": 119.5691765625,
          "velocity": 0.8031496062992126
        },
        {
          "duration": 0.8899832291666598,
          "durationTicks": 598,
          "midi": 68,
          "name": "G#4",
          "ticks": 80444,
          "time": 120.43992260416667,
          "velocity": 0.8031496062992126
        },
        {
          "duration": 1.461287604166671,
          "durationTicks": 982,
          "midi": 69,
          "name": "A4",
          "ticks": 81024,
          "time": 121.30312052083333,
          "velocity": 0.8031496062992126
        },
        {
          "duration": 1.3898601041666723,
          "durationTicks": 934,
          "midi": 76,
          "name": "E5",
          "ticks": 81026,
          "time": 121.30609666666666,
          "velocity": 0.8031496062992126
        },
        {
          "duration": 1.4404545833333344,
          "durationTicks": 968,
          "midi": 72,
          "name": "C5",
          "ticks": 81026,
          "time": 121.30609666666666,
          "velocity": 0.8031496062992126
        },
        {
          "duration": 3.4642337500000053,
          "durationTicks": 2328,
          "midi": 71,
          "name": "B4",
          "ticks": 82172,
          "time": 123.01142822916667,
          "velocity": 0.8031496062992126
        },
        {
          "duration": 3.467209895833335,
          "durationTicks": 2330,
          "midi": 76,
          "name": "E5",
          "ticks": 82172,
          "time": 123.01142822916667,
          "velocity": 0.8031496062992126
        },
        {
          "duration": 3.7588721875000033,
          "durationTicks": 2526,
          "midi": 68,
          "name": "G#4",
          "ticks": 82172,
          "time": 123.01142822916667,
          "velocity": 0.8031496062992126
        },
        {
          "duration": 1.5321489583333232,
          "durationTicks": 1010,
          "midi": 69,
          "name": "A4",
          "ticks": 85632,
          "time": 128.16016052083333,
          "velocity": 0.8031496062992126
        },
        {
          "duration": 1.5078772916666594,
          "durationTicks": 994,
          "midi": 76,
          "name": "E5",
          "ticks": 85632,
          "time": 128.16016052083333,
          "velocity": 0.8031496062992126
        },
        {
          "duration": 1.5230470833333243,
          "durationTicks": 1004,
          "midi": 72,
          "name": "C5",
          "ticks": 85632,
          "time": 128.16016052083333,
          "velocity": 0.8031496062992126
        },
        {
          "duration": 1.4562999999999988,
          "durationTicks": 960,
          "midi": 71,
          "name": "B4",
          "ticks": 86782,
          "time": 129.9046865625,
          "velocity": 0.8031496062992126
        },
        {
          "duration": 1.447198125,
          "durationTicks": 954,
          "midi": 74,
          "name": "D5",
          "ticks": 86782,
          "time": 129.9046865625,
          "velocity": 0.8031496062992126
        },
        {
          "duration": 1.4593339583333318,
          "durationTicks": 962,
          "midi": 68,
          "name": "G#4",
          "ticks": 86782,
          "time": 129.9046865625,
          "velocity": 0.8031496062992126
        },
        {
          "duration": 3.055196041666676,
          "durationTicks": 2014,
          "midi": 64,
          "name": "E4",
          "ticks": 87932,
          "time": 131.64921260416665,
          "velocity": 0.8031496062992126
        },
        {
          "duration": 3.0825016666666727,
          "durationTicks": 2032,
          "midi": 69,
          "name": "A4",
          "ticks": 87932,
          "time": 131.64921260416665,
          "velocity": 0.8031496062992126
        },
        {
          "duration": 3.070365833333341,
          "durationTicks": 2024,
          "midi": 72,
          "name": "C5",
          "ticks": 87932,
          "time": 131.64921260416665,
          "velocity": 0.8031496062992126
        },
        {
          "duration": 1.4805716666666626,
          "durationTicks": 976,
          "midi": 72,
          "name": "C5",
          "ticks": 90236,
          "time": 135.14433260416666,
          "velocity": 0.8031496062992126
        },
        {
          "duration": 1.419892500000003,
          "durationTicks": 936,
          "midi": 76,
          "name": "E5",
          "ticks": 90238,
          "time": 135.1473665625,
          "velocity": 0.8031496062992126
        },
        {
          "duration": 1.4654018749999977,
          "durationTicks": 966,
          "midi": 69,
          "name": "A4",
          "ticks": 90238,
          "time": 135.1473665625,
          "velocity": 0.8031496062992126
        },
        {
          "duration": 1.5685564583333473,
          "durationTicks": 1034,
          "midi": 68,
          "name": "G#4",
          "ticks": 91388,
          "time": 136.89189260416666,
          "velocity": 0.8031496062992126
        },
        {
          "duration": 1.447198125,
          "durationTicks": 954,
          "midi": 71,
          "name": "B4",
          "ticks": 91390,
          "time": 136.8949265625,
          "velocity": 0.8031496062992126
        },
        {
          "duration": 1.447198125,
          "durationTicks": 954,
          "midi": 74,
          "name": "D5",
          "ticks": 91390,
          "time": 136.8949265625,
          "velocity": 0.8031496062992126
        },
        {
          "duration": 4.323752187500048,
          "durationTicks": 2532,
          "midi": 64,
          "name": "E4",
          "ticks": 92546,
          "time": 138.64855447916665,
          "velocity": 0.8031496062992126
        },
        {
          "duration": 4.283573750000045,
          "durationTicks": 2514,
          "midi": 72,
          "name": "C5",
          "ticks": 92546,
          "time": 138.64855447916665,
          "velocity": 0.8031496062992126
        },
        {
          "duration": 4.25232385416669,
          "durationTicks": 2500,
          "midi": 69,
          "name": "A4",
          "ticks": 92546,
          "time": 138.64855447916665,
          "velocity": 0.8031496062992126
        }
      ]
    },
    {
      "channel": 9,
      "controlChanges": {
        "7": [
          {
            "number": 7,
            "ticks": 2080,
            "time": 3.155316666666667,
            "value": 0.8582677165354331
          }
        ],
        "11": [
          {
            "number": 11,
            "ticks": 2132,
            "time": 3.2341995833333335,
            "value": 1
          }
        ],
        "91": [
          {
            "number": 91,
            "ticks": 2088,
            "time": 3.1674525,
            "value": 0.6299212598425197
          }
        ],
        "93": [
          {
            "number": 93,
            "ticks": 2084,
            "time": 3.161384583333333,
            "value": 0
          }
        ],
        "120": [
          {
            "number": 120,
            "ticks": 95732,
            "time": 144.43212322916668,
            "value": 0
          }
        ],
        "121": [
          {
            "number": 121,
            "ticks": 1936,
            "time": 2.936871666666667,
            "value": 0
          }
        ]
      },
      "pitchBends": [],
      "instrument": {
        "family": "drums",
        "number": 0,
        "name": "standard kit"
      },
      "name": "DRUMS",
      "notes": [
        {
          "duration": 0.011682083333333537,
          "durationTicks": 8,
          "midi": 51,
          "name": "D#3",
          "ticks": 7168,
          "time": 10.766156666666667,
          "velocity": 0.28346456692913385
        },
        {
          "duration": 0.01168208333333176,
          "durationTicks": 8,
          "midi": 51,
          "name": "D#3",
          "ticks": 7232,
          "time": 10.859613333333336,
          "velocity": 0.3228346456692913
        },
        {
          "duration": 0.011682083333333537,
          "durationTicks": 8,
          "midi": 51,
          "name": "D#3",
          "ticks": 7290,
          "time": 10.944308437500002,
          "velocity": 0.5275590551181102
        },
        {
          "duration": 0.01168208333333176,
          "durationTicks": 8,
          "midi": 53,
          "name": "F3",
          "ticks": 7294,
          "time": 10.950149479166669,
          "velocity": 0.2125984251968504
        },
        {
          "duration": 0.01249999999999929,
          "durationTicks": 8,
          "midi": 35,
          "name": "B1",
          "ticks": 13056,
          "time": 19.57839,
          "velocity": 0.8110236220472441
        },
        {
          "duration": 0.01249999999999929,
          "durationTicks": 8,
          "midi": 42,
          "name": "F#2",
          "ticks": 13056,
          "time": 19.57839,
          "velocity": 0.41732283464566927
        },
        {
          "duration": 0.01249999999999929,
          "durationTicks": 8,
          "midi": 42,
          "name": "F#2",
          "ticks": 13248,
          "time": 19.87839,
          "velocity": 0.3543307086614173
        },
        {
          "duration": 0.01249999999999929,
          "durationTicks": 8,
          "midi": 42,
          "name": "F#2",
          "ticks": 13440,
          "time": 20.17839,
          "velocity": 0.33858267716535434
        },
        {
          "duration": 0.012500000000002842,
          "durationTicks": 8,
          "midi": 81,
          "name": "A5",
          "ticks": 13632,
          "time": 20.478389999999997,
          "velocity": 0.2677165354330709
        },
        {
          "duration": 0.012500000000002842,
          "durationTicks": 8,
          "midi": 37,
          "name": "C#2",
          "ticks": 13632,
          "time": 20.478389999999997,
          "velocity": 0.6456692913385826
        },
        {
          "duration": 0.012500000000002842,
          "durationTicks": 8,
          "midi": 42,
          "name": "F#2",
          "ticks": 13632,
          "time": 20.478389999999997,
          "velocity": 0.3464566929133858
        },
        {
          "duration": 0.01249999999999929,
          "durationTicks": 8,
          "midi": 42,
          "name": "F#2",
          "ticks": 13824,
          "time": 20.778389999999998,
          "velocity": 0.3543307086614173
        },
        {
          "duration": 0.01249999999999929,
          "durationTicks": 8,
          "midi": 35,
          "name": "B1",
          "ticks": 14016,
          "time": 21.07839,
          "velocity": 0.6377952755905512
        },
        {
          "duration": 0.01249999999999929,
          "durationTicks": 8,
          "midi": 42,
          "name": "F#2",
          "ticks": 14016,
          "time": 21.07839,
          "velocity": 0.33858267716535434
        },
        {
          "duration": 0.01249999999999929,
          "durationTicks": 8,
          "midi": 35,
          "name": "B1",
          "ticks": 14208,
          "time": 21.37839,
          "velocity": 0.8110236220472441
        },
        {
          "duration": 0.01249999999999929,
          "durationTicks": 8,
          "midi": 42,
          "name": "F#2",
          "ticks": 14208,
          "time": 21.37839,
          "velocity": 0.41732283464566927
        },
        {
          "duration": 0.01249999999999929,
          "durationTicks": 8,
          "midi": 42,
          "name": "F#2",
          "ticks": 14400,
          "time": 21.67839,
          "velocity": 0.3543307086614173
        },
        {
          "duration": 0.012500000000002842,
          "durationTicks": 8,
          "midi": 42,
          "name": "F#2",
          "ticks": 14592,
          "time": 21.978389999999997,
          "velocity": 0.33858267716535434
        },
        {
          "duration": 0.01249999999999929,
          "durationTicks": 8,
          "midi": 81,
          "name": "A5",
          "ticks": 14784,
          "time": 22.278389999999998,
          "velocity": 0.2677165354330709
        },
        {
          "duration": 0.01249999999999929,
          "durationTicks": 8,
          "midi": 42,
          "name": "F#2",
          "ticks": 14784,
          "time": 22.278389999999998,
          "velocity": 0.3464566929133858
        },
        {
          "duration": 0.01249999999999929,
          "durationTicks": 8,
          "midi": 37,
          "name": "C#2",
          "ticks": 14784,
          "time": 22.278389999999998,
          "velocity": 0.6456692913385826
        },
        {
          "duration": 0.01249999999999929,
          "durationTicks": 8,
          "midi": 42,
          "name": "F#2",
          "ticks": 14976,
          "time": 22.57839,
          "velocity": 0.3543307086614173
        },
        {
          "duration": 0.01249999999999929,
          "durationTicks": 8,
          "midi": 35,
          "name": "B1",
          "ticks": 15168,
          "time": 22.87839,
          "velocity": 0.6220472440944882
        },
        {
          "duration": 0.01249999999999929,
          "durationTicks": 8,
          "midi": 42,
          "name": "F#2",
          "ticks": 15168,
          "time": 22.87839,
          "velocity": 0.33858267716535434
        },
        {
          "duration": 0.012254791666666875,
          "durationTicks": 8,
          "midi": 46,
          "name": "A#2",
          "ticks": 15360,
          "time": 23.17839,
          "velocity": 0.3543307086614173
        },
        {
          "duration": 0.012254791666666875,
          "durationTicks": 8,
          "midi": 35,
          "name": "B1",
          "ticks": 15360,
          "time": 23.17839,
          "velocity": 0.8110236220472441
        },
        {
          "duration": 0.012254791666666875,
          "durationTicks": 8,
          "midi": 42,
          "name": "F#2",
          "ticks": 17664,
          "time": 26.70777,
          "velocity": 0.41732283464566927
        },
        {
          "duration": 0.012254791666666875,
          "durationTicks": 8,
          "midi": 35,
          "name": "B1",
          "ticks": 17664,
          "time": 26.70777,
          "velocity": 0.8110236220472441
        },
        {
          "duration": 0.012254791666666875,
          "durationTicks": 8,
          "midi": 42,
          "name": "F#2",
          "ticks": 17856,
          "time": 27.001885,
          "velocity": 0.3543307086614173
        },
        {
          "duration": 0.012254791666666875,
          "durationTicks": 8,
          "midi": 42,
          "name": "F#2",
          "ticks": 18048,
          "time": 27.296,
          "velocity": 0.33858267716535434
        },
        {
          "duration": 0.012254791666666875,
          "durationTicks": 8,
          "midi": 37,
          "name": "C#2",
          "ticks": 18240,
          "time": 27.590115,
          "velocity": 0.6456692913385826
        },
        {
          "duration": 0.012254791666666875,
          "durationTicks": 8,
          "midi": 42,
          "name": "F#2",
          "ticks": 18240,
          "time": 27.590115,
          "velocity": 0.3464566929133858
        },
        {
          "duration": 0.012254791666666875,
          "durationTicks": 8,
          "midi": 81,
          "name": "A5",
          "ticks": 18240,
          "time": 27.590115,
          "velocity": 0.2677165354330709
        },
        {
          "duration": 0.012254791666663323,
          "durationTicks": 8,
          "midi": 42,
          "name": "F#2",
          "ticks": 18432,
          "time": 27.884230000000002,
          "velocity": 0.3543307086614173
        },
        {
          "duration": 0.012254791666666875,
          "durationTicks": 8,
          "midi": 35,
          "name": "B1",
          "ticks": 18624,
          "time": 28.178345,
          "velocity": 0.6377952755905512
        },
        {
          "duration": 0.012254791666666875,
          "durationTicks": 8,
          "midi": 42,
          "name": "F#2",
          "ticks": 18624,
          "time": 28.178345,
          "velocity": 0.33858267716535434
        },
        {
          "duration": 0.012254791666666875,
          "durationTicks": 8,
          "midi": 42,
          "name": "F#2",
          "ticks": 18816,
          "time": 28.47246,
          "velocity": 0.41732283464566927
        },
        {
          "duration": 0.012254791666666875,
          "durationTicks": 8,
          "midi": 35,
          "name": "B1",
          "ticks": 18816,
          "time": 28.47246,
          "velocity": 0.8110236220472441
        },
        {
          "duration": 0.012254791666666875,
          "durationTicks": 8,
          "midi": 42,
          "name": "F#2",
          "ticks": 19008,
          "time": 28.766575,
          "velocity": 0.3543307086614173
        },
        {
          "duration": 0.012254791666666875,
          "durationTicks": 8,
          "midi": 42,
          "name": "F#2",
          "ticks": 19200,
          "time": 29.06069,
          "velocity": 0.33858267716535434
        },
        {
          "duration": 0.012254791666670428,
          "durationTicks": 8,
          "midi": 42,
          "name": "F#2",
          "ticks": 19392,
          "time": 29.354805,
          "velocity": 0.3464566929133858
        },
        {
          "duration": 0.012254791666670428,
          "durationTicks": 8,
          "midi": 81,
          "name": "A5",
          "ticks": 19392,
          "time": 29.354805,
          "velocity": 0.2677165354330709
        },
        {
          "duration": 0.012254791666670428,
          "durationTicks": 8,
          "midi": 37,
          "name": "C#2",
          "ticks": 19392,
          "time": 29.354805,
          "velocity": 0.6456692913385826
        },
        {
          "duration": 0.012254791666666875,
          "durationTicks": 8,
          "midi": 42,
          "name": "F#2",
          "ticks": 19584,
          "time": 29.64892,
          "velocity": 0.3543307086614173
        },
        {
          "duration": 0.012254791666666875,
          "durationTicks": 8,
          "midi": 42,
          "name": "F#2",
          "ticks": 19776,
          "time": 29.943035000000002,
          "velocity": 0.33858267716535434
        },
        {
          "duration": 0.012254791666666875,
          "durationTicks": 8,
          "midi": 35,
          "name": "B1",
          "ticks": 19776,
          "time": 29.943035000000002,
          "velocity": 0.6220472440944882
        },
        {
          "duration": 0.011904583333333107,
          "durationTicks": 8,
          "midi": 42,
          "name": "F#2",
          "ticks": 19968,
          "time": 30.23715,
          "velocity": 0.41732283464566927
        },
        {
          "duration": 0.011904583333333107,
          "durationTicks": 8,
          "midi": 35,
          "name": "B1",
          "ticks": 19968,
          "time": 30.23715,
          "velocity": 0.8110236220472441
        },
        {
          "duration": 0.011904583333333107,
          "durationTicks": 8,
          "midi": 42,
          "name": "F#2",
          "ticks": 20160,
          "time": 30.52286,
          "velocity": 0.3543307086614173
        },
        {
          "duration": 0.011904583333333107,
          "durationTicks": 8,
          "midi": 42,
          "name": "F#2",
          "ticks": 20352,
          "time": 30.80857,
          "velocity": 0.33858267716535434
        },
        {
          "duration": 0.011904583333333107,
          "durationTicks": 8,
          "midi": 42,
          "name": "F#2",
          "ticks": 20544,
          "time": 31.09428,
          "velocity": 0.3464566929133858
        },
        {
          "duration": 0.011904583333333107,
          "durationTicks": 8,
          "midi": 37,
          "name": "C#2",
          "ticks": 20544,
          "time": 31.09428,
          "velocity": 0.6456692913385826
        },
        {
          "duration": 0.011904583333333107,
          "durationTicks": 8,
          "midi": 81,
          "name": "A5",
          "ticks": 20554,
          "time": 31.109160729166668,
          "velocity": 0.1968503937007874
        },
        {
          "duration": 0.011904583333333107,
          "durationTicks": 8,
          "midi": 42,
          "name": "F#2",
          "ticks": 20736,
          "time": 31.37999,
          "velocity": 0.3543307086614173
        },
        {
          "duration": 0.011904583333333107,
          "durationTicks": 8,
          "midi": 81,
          "name": "A5",
          "ticks": 20740,
          "time": 31.385942291666666,
          "velocity": 0.2204724409448819
        },
        {
          "duration": 0.011904583333333107,
          "durationTicks": 8,
          "midi": 81,
          "name": "A5",
          "ticks": 20926,
          "time": 31.662723854166668,
          "velocity": 0.2755905511811024
        },
        {
          "duration": 0.011904583333333107,
          "durationTicks": 8,
          "midi": 42,
          "name": "F#2",
          "ticks": 20928,
          "time": 31.6657,
          "velocity": 0.33858267716535434
        },
        {
          "duration": 0.011904583333333107,
          "durationTicks": 8,
          "midi": 35,
          "name": "B1",
          "ticks": 20928,
          "time": 31.6657,
          "velocity": 0.6377952755905512
        },
        {
          "duration": 0.011904583333333107,
          "durationTicks": 8,
          "midi": 35,
          "name": "B1",
          "ticks": 21120,
          "time": 31.95141,
          "velocity": 0.8110236220472441
        },
        {
          "duration": 0.011904583333333107,
          "durationTicks": 8,
          "midi": 42,
          "name": "F#2",
          "ticks": 21120,
          "time": 31.95141,
          "velocity": 0.41732283464566927
        },
        {
          "duration": 0.011904583333333107,
          "durationTicks": 8,
          "midi": 42,
          "name": "F#2",
          "ticks": 21312,
          "time": 32.23712,
          "velocity": 0.3543307086614173
        },
        {
          "duration": 0.011904583333333107,
          "durationTicks": 8,
          "midi": 42,
          "name": "F#2",
          "ticks": 21504,
          "time": 32.52283,
          "velocity": 0.33858267716535434
        },
        {
          "duration": 0.011904583333333107,
          "durationTicks": 8,
          "midi": 37,
          "name": "C#2",
          "ticks": 21696,
          "time": 32.80854,
          "velocity": 0.6456692913385826
        },
        {
          "duration": 0.011904583333333107,
          "durationTicks": 8,
          "midi": 81,
          "name": "A5",
          "ticks": 21696,
          "time": 32.80854,
          "velocity": 0.2677165354330709
        },
        {
          "duration": 0.011904583333333107,
          "durationTicks": 8,
          "midi": 42,
          "name": "F#2",
          "ticks": 21696,
          "time": 32.80854,
          "velocity": 0.3464566929133858
        },
        {
          "duration": 0.011904583333333107,
          "durationTicks": 8,
          "midi": 42,
          "name": "F#2",
          "ticks": 21888,
          "time": 33.09425,
          "velocity": 0.3543307086614173
        },
        {
          "duration": 0.011904583333333107,
          "durationTicks": 8,
          "midi": 35,
          "name": "B1",
          "ticks": 22080,
          "time": 33.37996,
          "velocity": 0.6220472440944882
        },
        {
          "duration": 0.011904583333333107,
          "durationTicks": 8,
          "midi": 42,
          "name": "F#2",
          "ticks": 22080,
          "time": 33.37996,
          "velocity": 0.33858267716535434
        },
        {
          "duration": 0.011904583333333107,
          "durationTicks": 8,
          "midi": 35,
          "name": "B1",
          "ticks": 22272,
          "time": 33.66567,
          "velocity": 0.8110236220472441
        },
        {
          "duration": 0.011904583333333107,
          "durationTicks": 8,
          "midi": 42,
          "name": "F#2",
          "ticks": 22272,
          "time": 33.66567,
          "velocity": 0.41732283464566927
        },
        {
          "duration": 0.011904583333333107,
          "durationTicks": 8,
          "midi": 42,
          "name": "F#2",
          "ticks": 22464,
          "time": 33.95138,
          "velocity": 0.3543307086614173
        },
        {
          "duration": 0.011904583333333107,
          "durationTicks": 8,
          "midi": 42,
          "name": "F#2",
          "ticks": 22656,
          "time": 34.23709,
          "velocity": 0.33858267716535434
        },
        {
          "duration": 0.011904583333333107,
          "durationTicks": 8,
          "midi": 42,
          "name": "F#2",
          "ticks": 22848,
          "time": 34.522800000000004,
          "velocity": 0.3464566929133858
        },
        {
          "duration": 0.011904583333333107,
          "durationTicks": 8,
          "midi": 81,
          "name": "A5",
          "ticks": 22848,
          "time": 34.522800000000004,
          "velocity": 0.2677165354330709
        },
        {
          "duration": 0.011904583333333107,
          "durationTicks": 8,
          "midi": 37,
          "name": "C#2",
          "ticks": 22848,
          "time": 34.522800000000004,
          "velocity": 0.6456692913385826
        },
        {
          "duration": 0.011904583333333107,
          "durationTicks": 8,
          "midi": 42,
          "name": "F#2",
          "ticks": 23040,
          "time": 34.80851,
          "velocity": 0.3543307086614173
        },
        {
          "duration": 0.011904583333333107,
          "durationTicks": 8,
          "midi": 35,
          "name": "B1",
          "ticks": 23232,
          "time": 35.09422,
          "velocity": 0.6377952755905512
        },
        {
          "duration": 0.011904583333333107,
          "durationTicks": 8,
          "midi": 42,
          "name": "F#2",
          "ticks": 23232,
          "time": 35.09422,
          "velocity": 0.33858267716535434
        },
        {
          "duration": 0.011904583333333107,
          "durationTicks": 8,
          "midi": 42,
          "name": "F#2",
          "ticks": 23424,
          "time": 35.37993,
          "velocity": 0.41732283464566927
        },
        {
          "duration": 0.011904583333333107,
          "durationTicks": 8,
          "midi": 35,
          "name": "B1",
          "ticks": 23424,
          "time": 35.37993,
          "velocity": 0.8110236220472441
        },
        {
          "duration": 0.011904583333340213,
          "durationTicks": 8,
          "midi": 42,
          "name": "F#2",
          "ticks": 23616,
          "time": 35.665639999999996,
          "velocity": 0.3543307086614173
        },
        {
          "duration": 0.011904583333333107,
          "durationTicks": 8,
          "midi": 42,
          "name": "F#2",
          "ticks": 23808,
          "time": 35.95135,
          "velocity": 0.33858267716535434
        },
        {
          "duration": 0.011904583333333107,
          "durationTicks": 8,
          "midi": 42,
          "name": "F#2",
          "ticks": 24000,
          "time": 36.23706,
          "velocity": 0.3464566929133858
        },
        {
          "duration": 0.011904583333333107,
          "durationTicks": 8,
          "midi": 81,
          "name": "A5",
          "ticks": 24000,
          "time": 36.23706,
          "velocity": 0.2677165354330709
        },
        {
          "duration": 0.011904583333333107,
          "durationTicks": 8,
          "midi": 37,
          "name": "C#2",
          "ticks": 24000,
          "time": 36.23706,
          "velocity": 0.6456692913385826
        },
        {
          "duration": 0.011904583333333107,
          "durationTicks": 8,
          "midi": 42,
          "name": "F#2",
          "ticks": 24192,
          "time": 36.52277,
          "velocity": 0.3543307086614173
        },
        {
          "duration": 0.011904583333333107,
          "durationTicks": 8,
          "midi": 42,
          "name": "F#2",
          "ticks": 24384,
          "time": 36.80848,
          "velocity": 0.33858267716535434
        },
        {
          "duration": 0.011904583333333107,
          "durationTicks": 8,
          "midi": 35,
          "name": "B1",
          "ticks": 24384,
          "time": 36.80848,
          "velocity": 0.6220472440944882
        },
        {
          "duration": 0.011904583333333107,
          "durationTicks": 8,
          "midi": 35,
          "name": "B1",
          "ticks": 24576,
          "time": 37.09419,
          "velocity": 0.6220472440944882
        },
        {
          "duration": 0.011904583333333107,
          "durationTicks": 8,
          "midi": 81,
          "name": "A5",
          "ticks": 24576,
          "time": 37.09419,
          "velocity": 0.2677165354330709
        },
        {
          "duration": 0.011904583333333107,
          "durationTicks": 8,
          "midi": 46,
          "name": "A#2",
          "ticks": 24576,
          "time": 37.09419,
          "velocity": 0.33858267716535434
        },
        {
          "duration": 0.012135833333339008,
          "durationTicks": 8,
          "midi": 35,
          "name": "B1",
          "ticks": 28032,
          "time": 42.286919999999995,
          "velocity": 0.8110236220472441
        },
        {
          "duration": 0.012135833333339008,
          "durationTicks": 8,
          "midi": 42,
          "name": "F#2",
          "ticks": 28032,
          "time": 42.286919999999995,
          "velocity": 0.41732283464566927
        },
        {
          "duration": 0.012135833333339008,
          "durationTicks": 8,
          "midi": 42,
          "name": "F#2",
          "ticks": 28224,
          "time": 42.578179999999996,
          "velocity": 0.3543307086614173
        },
        {
          "duration": 0.012135833333331902,
          "durationTicks": 8,
          "midi": 42,
          "name": "F#2",
          "ticks": 28416,
          "time": 42.86944,
          "velocity": 0.33858267716535434
        },
        {
          "duration": 0.012135833333331902,
          "durationTicks": 8,
          "midi": 81,
          "name": "A5",
          "ticks": 28608,
          "time": 43.1607,
          "velocity": 0.2677165354330709
        },
        {
          "duration": 0.012135833333331902,
          "durationTicks": 8,
          "midi": 42,
          "name": "F#2",
          "ticks": 28608,
          "time": 43.1607,
          "velocity": 0.3464566929133858
        },
        {
          "duration": 0.012135833333331902,
          "durationTicks": 8,
          "midi": 37,
          "name": "C#2",
          "ticks": 28608,
          "time": 43.1607,
          "velocity": 0.6456692913385826
        },
        {
          "duration": 0.012135833333331902,
          "durationTicks": 8,
          "midi": 42,
          "name": "F#2",
          "ticks": 28800,
          "time": 43.45196,
          "velocity": 0.3543307086614173
        },
        {
          "duration": 0.012135833333331902,
          "durationTicks": 8,
          "midi": 42,
          "name": "F#2",
          "ticks": 28992,
          "time": 43.74322,
          "velocity": 0.33858267716535434
        },
        {
          "duration": 0.012135833333331902,
          "durationTicks": 8,
          "midi": 35,
          "name": "B1",
          "ticks": 28992,
          "time": 43.74322,
          "velocity": 0.6377952755905512
        },
        {
          "duration": 0.012135833333331902,
          "durationTicks": 8,
          "midi": 42,
          "name": "F#2",
          "ticks": 29184,
          "time": 44.03448,
          "velocity": 0.41732283464566927
        },
        {
          "duration": 0.012135833333331902,
          "durationTicks": 8,
          "midi": 35,
          "name": "B1",
          "ticks": 29184,
          "time": 44.03448,
          "velocity": 0.8110236220472441
        },
        {
          "duration": 0.012135833333339008,
          "durationTicks": 8,
          "midi": 42,
          "name": "F#2",
          "ticks": 29376,
          "time": 44.325739999999996,
          "velocity": 0.3543307086614173
        },
        {
          "duration": 0.012135833333339008,
          "durationTicks": 8,
          "midi": 42,
          "name": "F#2",
          "ticks": 29568,
          "time": 44.617,
          "velocity": 0.33858267716535434
        },
        {
          "duration": 0.012135833333331902,
          "durationTicks": 8,
          "midi": 42,
          "name": "F#2",
          "ticks": 29760,
          "time": 44.90826,
          "velocity": 0.3464566929133858
        },
        {
          "duration": 0.012135833333331902,
          "durationTicks": 8,
          "midi": 37,
          "name": "C#2",
          "ticks": 29760,
          "time": 44.90826,
          "velocity": 0.6456692913385826
        },
        {
          "duration": 0.012135833333331902,
          "durationTicks": 8,
          "midi": 81,
          "name": "A5",
          "ticks": 29760,
          "time": 44.90826,
          "velocity": 0.2677165354330709
        },
        {
          "duration": 0.012135833333331902,
          "durationTicks": 8,
          "midi": 42,
          "name": "F#2",
          "ticks": 29952,
          "time": 45.19952,
          "velocity": 0.3543307086614173
        },
        {
          "duration": 0.012135833333331902,
          "durationTicks": 8,
          "midi": 35,
          "name": "B1",
          "ticks": 30144,
          "time": 45.49078,
          "velocity": 0.6220472440944882
        },
        {
          "duration": 0.012135833333331902,
          "durationTicks": 8,
          "midi": 42,
          "name": "F#2",
          "ticks": 30144,
          "time": 45.49078,
          "velocity": 0.33858267716535434
        },
        {
          "duration": 0.011792291666665733,
          "durationTicks": 8,
          "midi": 46,
          "name": "A#2",
          "ticks": 30336,
          "time": 45.782039999999995,
          "velocity": 0.3543307086614173
        },
        {
          "duration": 0.011792291666665733,
          "durationTicks": 8,
          "midi": 35,
          "name": "B1",
          "ticks": 30336,
          "time": 45.782039999999995,
          "velocity": 0.8110236220472441
        },
        {
          "duration": 0.011792291666665733,
          "durationTicks": 8,
          "midi": 42,
          "name": "F#2",
          "ticks": 32640,
          "time": 49.178219999999996,
          "velocity": 0.41732283464566927
        },
        {
          "duration": 0.011792291666665733,
          "durationTicks": 8,
          "midi": 35,
          "name": "B1",
          "ticks": 32640,
          "time": 49.178219999999996,
          "velocity": 0.8110236220472441
        },
        {
          "duration": 0.011792291666665733,
          "durationTicks": 8,
          "midi": 42,
          "name": "F#2",
          "ticks": 32832,
          "time": 49.461234999999995,
          "velocity": 0.3543307086614173
        },
        {
          "duration": 0.011792291666665733,
          "durationTicks": 8,
          "midi": 42,
          "name": "F#2",
          "ticks": 33024,
          "time": 49.744249999999994,
          "velocity": 0.33858267716535434
        },
        {
          "duration": 0.011792291666672838,
          "durationTicks": 8,
          "midi": 81,
          "name": "A5",
          "ticks": 33216,
          "time": 50.02726499999999,
          "velocity": 0.2677165354330709
        },
        {
          "duration": 0.011792291666672838,
          "durationTicks": 8,
          "midi": 37,
          "name": "C#2",
          "ticks": 33216,
          "time": 50.02726499999999,
          "velocity": 0.6456692913385826
        },
        {
          "duration": 0.011792291666672838,
          "durationTicks": 8,
          "midi": 42,
          "name": "F#2",
          "ticks": 33216,
          "time": 50.02726499999999,
          "velocity": 0.3464566929133858
        },
        {
          "duration": 0.011792291666672838,
          "durationTicks": 8,
          "midi": 42,
          "name": "F#2",
          "ticks": 33408,
          "time": 50.31027999999999,
          "velocity": 0.3543307086614173
        },
        {
          "duration": 0.011792291666665733,
          "durationTicks": 8,
          "midi": 42,
          "name": "F#2",
          "ticks": 33600,
          "time": 50.593295,
          "velocity": 0.33858267716535434
        },
        {
          "duration": 0.011792291666665733,
          "durationTicks": 8,
          "midi": 35,
          "name": "B1",
          "ticks": 33600,
          "time": 50.593295,
          "velocity": 0.6377952755905512
        },
        {
          "duration": 0.011792291666665733,
          "durationTicks": 8,
          "midi": 42,
          "name": "F#2",
          "ticks": 33792,
          "time": 50.87631,
          "velocity": 0.41732283464566927
        },
        {
          "duration": 0.011792291666665733,
          "durationTicks": 8,
          "midi": 35,
          "name": "B1",
          "ticks": 33792,
          "time": 50.87631,
          "velocity": 0.8110236220472441
        },
        {
          "duration": 0.011792291666665733,
          "durationTicks": 8,
          "midi": 42,
          "name": "F#2",
          "ticks": 33984,
          "time": 51.159324999999995,
          "velocity": 0.3543307086614173
        },
        {
          "duration": 0.011792291666665733,
          "durationTicks": 8,
          "midi": 42,
          "name": "F#2",
          "ticks": 34176,
          "time": 51.442339999999994,
          "velocity": 0.33858267716535434
        },
        {
          "duration": 0.011792291666665733,
          "durationTicks": 8,
          "midi": 81,
          "name": "A5",
          "ticks": 34368,
          "time": 51.72535499999999,
          "velocity": 0.2677165354330709
        },
        {
          "duration": 0.011792291666665733,
          "durationTicks": 8,
          "midi": 37,
          "name": "C#2",
          "ticks": 34368,
          "time": 51.72535499999999,
          "velocity": 0.6456692913385826
        },
        {
          "duration": 0.011792291666665733,
          "durationTicks": 8,
          "midi": 42,
          "name": "F#2",
          "ticks": 34368,
          "time": 51.72535499999999,
          "velocity": 0.3464566929133858
        },
        {
          "duration": 0.011792291666665733,
          "durationTicks": 8,
          "midi": 42,
          "name": "F#2",
          "ticks": 34560,
          "time": 52.00837,
          "velocity": 0.3543307086614173
        },
        {
          "duration": 0.011792291666665733,
          "durationTicks": 8,
          "midi": 35,
          "name": "B1",
          "ticks": 34752,
          "time": 52.291385,
          "velocity": 0.6220472440944882
        },
        {
          "duration": 0.011792291666665733,
          "durationTicks": 8,
          "midi": 42,
          "name": "F#2",
          "ticks": 34752,
          "time": 52.291385,
          "velocity": 0.33858267716535434
        },
        {
          "duration": 0.011792291666665733,
          "durationTicks": 8,
          "midi": 35,
          "name": "B1",
          "ticks": 34944,
          "time": 52.5744,
          "velocity": 0.8110236220472441
        },
        {
          "duration": 0.011792291666665733,
          "durationTicks": 8,
          "midi": 42,
          "name": "F#2",
          "ticks": 34944,
          "time": 52.5744,
          "velocity": 0.41732283464566927
        },
        {
          "duration": 0.011792291666665733,
          "durationTicks": 8,
          "midi": 42,
          "name": "F#2",
          "ticks": 35136,
          "time": 52.857414999999996,
          "velocity": 0.3543307086614173
        },
        {
          "duration": 0.011792291666665733,
          "durationTicks": 8,
          "midi": 42,
          "name": "F#2",
          "ticks": 35328,
          "time": 53.140429999999995,
          "velocity": 0.33858267716535434
        },
        {
          "duration": 0.011792291666665733,
          "durationTicks": 8,
          "midi": 37,
          "name": "C#2",
          "ticks": 35520,
          "time": 53.423444999999994,
          "velocity": 0.6456692913385826
        },
        {
          "duration": 0.011792291666665733,
          "durationTicks": 8,
          "midi": 42,
          "name": "F#2",
          "ticks": 35520,
          "time": 53.423444999999994,
          "velocity": 0.3464566929133858
        },
        {
          "duration": 0.011792291666672838,
          "durationTicks": 8,
          "midi": 81,
          "name": "A5",
          "ticks": 35530,
          "time": 53.438185364583326,
          "velocity": 0.1968503937007874
        },
        {
          "duration": 0.011792291666665733,
          "durationTicks": 8,
          "midi": 42,
          "name": "F#2",
          "ticks": 35712,
          "time": 53.70645999999999,
          "velocity": 0.3543307086614173
        },
        {
          "duration": 0.011792291666672838,
          "durationTicks": 8,
          "midi": 81,
          "name": "A5",
          "ticks": 35716,
          "time": 53.712356145833326,
          "velocity": 0.2204724409448819
        },
        {
          "duration": 0.011792291666665733,
          "durationTicks": 8,
          "midi": 81,
          "name": "A5",
          "ticks": 35902,
          "time": 53.98652692708333,
          "velocity": 0.2755905511811024
        },
        {
          "duration": 0.011792291666665733,
          "durationTicks": 8,
          "midi": 42,
          "name": "F#2",
          "ticks": 35904,
          "time": 53.989475,
          "velocity": 0.33858267716535434
        },
        {
          "duration": 0.011792291666665733,
          "durationTicks": 8,
          "midi": 35,
          "name": "B1",
          "ticks": 35904,
          "time": 53.989475,
          "velocity": 0.6377952755905512
        },
        {
          "duration": 0.011792291666665733,
          "durationTicks": 8,
          "midi": 35,
          "name": "B1",
          "ticks": 36096,
          "time": 54.27249,
          "velocity": 0.8110236220472441
        },
        {
          "duration": 0.011792291666665733,
          "durationTicks": 8,
          "midi": 42,
          "name": "F#2",
          "ticks": 36096,
          "time": 54.27249,
          "velocity": 0.41732283464566927
        },
        {
          "duration": 0.011792291666665733,
          "durationTicks": 8,
          "midi": 42,
          "name": "F#2",
          "ticks": 36288,
          "time": 54.555505,
          "velocity": 0.3543307086614173
        },
        {
          "duration": 0.011792291666665733,
          "durationTicks": 8,
          "midi": 42,
          "name": "F#2",
          "ticks": 36480,
          "time": 54.838519999999995,
          "velocity": 0.33858267716535434
        },
        {
          "duration": 0.011792291666665733,
          "durationTicks": 8,
          "midi": 81,
          "name": "A5",
          "ticks": 36672,
          "time": 55.121534999999994,
          "velocity": 0.2677165354330709
        },
        {
          "duration": 0.011792291666665733,
          "durationTicks": 8,
          "midi": 42,
          "name": "F#2",
          "ticks": 36672,
          "time": 55.121534999999994,
          "velocity": 0.3464566929133858
        },
        {
          "duration": 0.011792291666665733,
          "durationTicks": 8,
          "midi": 37,
          "name": "C#2",
          "ticks": 36672,
          "time": 55.121534999999994,
          "velocity": 0.6456692913385826
        },
        {
          "duration": 0.011792291666665733,
          "durationTicks": 8,
          "midi": 42,
          "name": "F#2",
          "ticks": 36864,
          "time": 55.40454999999999,
          "velocity": 0.3543307086614173
        },
        {
          "duration": 0.011792291666665733,
          "durationTicks": 8,
          "midi": 35,
          "name": "B1",
          "ticks": 37056,
          "time": 55.68756499999999,
          "velocity": 0.6220472440944882
        },
        {
          "duration": 0.011792291666665733,
          "durationTicks": 8,
          "midi": 42,
          "name": "F#2",
          "ticks": 37056,
          "time": 55.68756499999999,
          "velocity": 0.33858267716535434
        },
        {
          "duration": 0.011792291666665733,
          "durationTicks": 8,
          "midi": 42,
          "name": "F#2",
          "ticks": 37248,
          "time": 55.97058,
          "velocity": 0.41732283464566927
        },
        {
          "duration": 0.011792291666665733,
          "durationTicks": 8,
          "midi": 35,
          "name": "B1",
          "ticks": 37248,
          "time": 55.97058,
          "velocity": 0.8110236220472441
        },
        {
          "duration": 0.011792291666665733,
          "durationTicks": 8,
          "midi": 42,
          "name": "F#2",
          "ticks": 37440,
          "time": 56.253595,
          "velocity": 0.3543307086614173
        },
        {
          "duration": 0.011792291666665733,
          "durationTicks": 8,
          "midi": 42,
          "name": "F#2",
          "ticks": 37632,
          "time": 56.536609999999996,
          "velocity": 0.33858267716535434
        },
        {
          "duration": 0.011792291666665733,
          "durationTicks": 8,
          "midi": 37,
          "name": "C#2",
          "ticks": 37824,
          "time": 56.819624999999995,
          "velocity": 0.6456692913385826
        },
        {
          "duration": 0.011792291666665733,
          "durationTicks": 8,
          "midi": 42,
          "name": "F#2",
          "ticks": 37824,
          "time": 56.819624999999995,
          "velocity": 0.3464566929133858
        },
        {
          "duration": 0.011792291666665733,
          "durationTicks": 8,
          "midi": 81,
          "name": "A5",
          "ticks": 37824,
          "time": 56.819624999999995,
          "velocity": 0.2677165354330709
        },
        {
          "duration": 0.011792291666665733,
          "durationTicks": 8,
          "midi": 42,
          "name": "F#2",
          "ticks": 38016,
          "time": 57.102639999999994,
          "velocity": 0.3543307086614173
        },
        {
          "duration": 0.011792291666665733,
          "durationTicks": 8,
          "midi": 42,
          "name": "F#2",
          "ticks": 38208,
          "time": 57.385655,
          "velocity": 0.33858267716535434
        },
        {
          "duration": 0.011792291666665733,
          "durationTicks": 8,
          "midi": 35,
          "name": "B1",
          "ticks": 38208,
          "time": 57.385655,
          "velocity": 0.6377952755905512
        },
        {
          "duration": 0.011792291666665733,
          "durationTicks": 8,
          "midi": 35,
          "name": "B1",
          "ticks": 38400,
          "time": 57.66866999999999,
          "velocity": 0.8110236220472441
        },
        {
          "duration": 0.011792291666665733,
          "durationTicks": 8,
          "midi": 42,
          "name": "F#2",
          "ticks": 38400,
          "time": 57.66866999999999,
          "velocity": 0.41732283464566927
        },
        {
          "duration": 0.011792291666665733,
          "durationTicks": 8,
          "midi": 42,
          "name": "F#2",
          "ticks": 38592,
          "time": 57.951685,
          "velocity": 0.3543307086614173
        },
        {
          "duration": 0.011792291666665733,
          "durationTicks": 8,
          "midi": 42,
          "name": "F#2",
          "ticks": 38784,
          "time": 58.2347,
          "velocity": 0.33858267716535434
        },
        {
          "duration": 0.011792291666665733,
          "durationTicks": 8,
          "midi": 37,
          "name": "C#2",
          "ticks": 38976,
          "time": 58.517714999999995,
          "velocity": 0.6456692913385826
        },
        {
          "duration": 0.011792291666665733,
          "durationTicks": 8,
          "midi": 81,
          "name": "A5",
          "ticks": 38976,
          "time": 58.517714999999995,
          "velocity": 0.2677165354330709
        },
        {
          "duration": 0.011792291666665733,
          "durationTicks": 8,
          "midi": 42,
          "name": "F#2",
          "ticks": 38976,
          "time": 58.517714999999995,
          "velocity": 0.3464566929133858
        },
        {
          "duration": 0.011792291666665733,
          "durationTicks": 8,
          "midi": 42,
          "name": "F#2",
          "ticks": 39168,
          "time": 58.800729999999994,
          "velocity": 0.3543307086614173
        },
        {
          "duration": 0.011792291666665733,
          "durationTicks": 8,
          "midi": 35,
          "name": "B1",
          "ticks": 39360,
          "time": 59.08374499999999,
          "velocity": 0.6220472440944882
        },
        {
          "duration": 0.011792291666665733,
          "durationTicks": 8,
          "midi": 42,
          "name": "F#2",
          "ticks": 39360,
          "time": 59.08374499999999,
          "velocity": 0.33858267716535434
        },
        {
          "duration": 0.011792291666665733,
          "durationTicks": 8,
          "midi": 46,
          "name": "A#2",
          "ticks": 39552,
          "time": 59.36676,
          "velocity": 0.33858267716535434
        },
        {
          "duration": 0.011792291666665733,
          "durationTicks": 8,
          "midi": 81,
          "name": "A5",
          "ticks": 39552,
          "time": 59.36676,
          "velocity": 0.2677165354330709
        },
        {
          "duration": 0.011792291666665733,
          "durationTicks": 8,
          "midi": 35,
          "name": "B1",
          "ticks": 39552,
          "time": 59.36676,
          "velocity": 0.6220472440944882
        },
        {
          "duration": 0.012254791666663323,
          "durationTicks": 8,
          "midi": 35,
          "name": "B1",
          "ticks": 43008,
          "time": 64.52763,
          "velocity": 0.8110236220472441
        },
        {
          "duration": 0.012254791666663323,
          "durationTicks": 8,
          "midi": 42,
          "name": "F#2",
          "ticks": 43008,
          "time": 64.52763,
          "velocity": 0.41732283464566927
        },
        {
          "duration": 0.012254791666663323,
          "durationTicks": 8,
          "midi": 42,
          "name": "F#2",
          "ticks": 43200,
          "time": 64.821745,
          "velocity": 0.3543307086614173
        },
        {
          "duration": 0.012254791666663323,
          "durationTicks": 8,
          "midi": 42,
          "name": "F#2",
          "ticks": 43392,
          "time": 65.11586,
          "velocity": 0.33858267716535434
        },
        {
          "duration": 0.012254791666663323,
          "durationTicks": 8,
          "midi": 81,
          "name": "A5",
          "ticks": 43584,
          "time": 65.409975,
          "velocity": 0.2677165354330709
        },
        {
          "duration": 0.012254791666663323,
          "durationTicks": 8,
          "midi": 37,
          "name": "C#2",
          "ticks": 43584,
          "time": 65.409975,
          "velocity": 0.6456692913385826
        },
        {
          "duration": 0.012254791666663323,
          "durationTicks": 8,
          "midi": 42,
          "name": "F#2",
          "ticks": 43584,
          "time": 65.409975,
          "velocity": 0.3464566929133858
        },
        {
          "duration": 0.012254791666663323,
          "durationTicks": 8,
          "midi": 42,
          "name": "F#2",
          "ticks": 43776,
          "time": 65.70409000000001,
          "velocity": 0.3543307086614173
        },
        {
          "duration": 0.012254791666663323,
          "durationTicks": 8,
          "midi": 35,
          "name": "B1",
          "ticks": 43968,
          "time": 65.998205,
          "velocity": 0.6377952755905512
        },
        {
          "duration": 0.012254791666663323,
          "durationTicks": 8,
          "midi": 42,
          "name": "F#2",
          "ticks": 43968,
          "time": 65.998205,
          "velocity": 0.33858267716535434
        },
        {
          "duration": 0.012254791666663323,
          "durationTicks": 8,
          "midi": 42,
          "name": "F#2",
          "ticks": 44160,
          "time": 66.29232,
          "velocity": 0.41732283464566927
        },
        {
          "duration": 0.012254791666663323,
          "durationTicks": 8,
          "midi": 35,
          "name": "B1",
          "ticks": 44160,
          "time": 66.29232,
          "velocity": 0.8110236220472441
        },
        {
          "duration": 0.012254791666677534,
          "durationTicks": 8,
          "midi": 42,
          "name": "F#2",
          "ticks": 44352,
          "time": 66.586435,
          "velocity": 0.3543307086614173
        },
        {
          "duration": 0.012254791666663323,
          "durationTicks": 8,
          "midi": 42,
          "name": "F#2",
          "ticks": 44544,
          "time": 66.88055,
          "velocity": 0.33858267716535434
        },
        {
          "duration": 0.012254791666663323,
          "durationTicks": 8,
          "midi": 81,
          "name": "A5",
          "ticks": 44736,
          "time": 67.174665,
          "velocity": 0.2677165354330709
        },
        {
          "duration": 0.012254791666663323,
          "durationTicks": 8,
          "midi": 37,
          "name": "C#2",
          "ticks": 44736,
          "time": 67.174665,
          "velocity": 0.6456692913385826
        },
        {
          "duration": 0.012254791666663323,
          "durationTicks": 8,
          "midi": 42,
          "name": "F#2",
          "ticks": 44736,
          "time": 67.174665,
          "velocity": 0.3464566929133858
        },
        {
          "duration": 0.012254791666677534,
          "durationTicks": 8,
          "midi": 42,
          "name": "F#2",
          "ticks": 44928,
          "time": 67.46878,
          "velocity": 0.3543307086614173
        },
        {
          "duration": 0.012254791666663323,
          "durationTicks": 8,
          "midi": 42,
          "name": "F#2",
          "ticks": 45120,
          "time": 67.762895,
          "velocity": 0.33858267716535434
        },
        {
          "duration": 0.012254791666663323,
          "durationTicks": 8,
          "midi": 35,
          "name": "B1",
          "ticks": 45120,
          "time": 67.762895,
          "velocity": 0.6220472440944882
        },
        {
          "duration": 0.011904583333333107,
          "durationTicks": 8,
          "midi": 46,
          "name": "A#2",
          "ticks": 45312,
          "time": 68.05701,
          "velocity": 0.3543307086614173
        },
        {
          "duration": 0.011904583333333107,
          "durationTicks": 8,
          "midi": 35,
          "name": "B1",
          "ticks": 45312,
          "time": 68.05701,
          "velocity": 0.8110236220472441
        },
        {
          "duration": 0.011904583333333107,
          "durationTicks": 8,
          "midi": 42,
          "name": "F#2",
          "ticks": 47616,
          "time": 71.48553000000001,
          "velocity": 0.41732283464566927
        },
        {
          "duration": 0.011904583333333107,
          "durationTicks": 8,
          "midi": 35,
          "name": "B1",
          "ticks": 47616,
          "time": 71.48553000000001,
          "velocity": 0.8110236220472441
        },
        {
          "duration": 0.011904583333333107,
          "durationTicks": 8,
          "midi": 42,
          "name": "F#2",
          "ticks": 47808,
          "time": 71.77124,
          "velocity": 0.3543307086614173
        },
        {
          "duration": 0.011904583333333107,
          "durationTicks": 8,
          "midi": 42,
          "name": "F#2",
          "ticks": 48000,
          "time": 72.05695,
          "velocity": 0.33858267716535434
        },
        {
          "duration": 0.011904583333333107,
          "durationTicks": 8,
          "midi": 42,
          "name": "F#2",
          "ticks": 48192,
          "time": 72.34266000000001,
          "velocity": 0.3464566929133858
        },
        {
          "duration": 0.011904583333333107,
          "durationTicks": 8,
          "midi": 81,
          "name": "A5",
          "ticks": 48192,
          "time": 72.34266000000001,
          "velocity": 0.2677165354330709
        },
        {
          "duration": 0.011904583333333107,
          "durationTicks": 8,
          "midi": 37,
          "name": "C#2",
          "ticks": 48192,
          "time": 72.34266000000001,
          "velocity": 0.6456692913385826
        },
        {
          "duration": 0.011904583333333107,
          "durationTicks": 8,
          "midi": 42,
          "name": "F#2",
          "ticks": 48384,
          "time": 72.62837,
          "velocity": 0.3543307086614173
        },
        {
          "duration": 0.011904583333333107,
          "durationTicks": 8,
          "midi": 42,
          "name": "F#2",
          "ticks": 48576,
          "time": 72.91408000000001,
          "velocity": 0.33858267716535434
        },
        {
          "duration": 0.011904583333333107,
          "durationTicks": 8,
          "midi": 35,
          "name": "B1",
          "ticks": 48576,
          "time": 72.91408000000001,
          "velocity": 0.6377952755905512
        },
        {
          "duration": 0.011904583333333107,
          "durationTicks": 8,
          "midi": 35,
          "name": "B1",
          "ticks": 48768,
          "time": 73.19979000000001,
          "velocity": 0.8110236220472441
        },
        {
          "duration": 0.011904583333333107,
          "durationTicks": 8,
          "midi": 42,
          "name": "F#2",
          "ticks": 48768,
          "time": 73.19979000000001,
          "velocity": 0.41732283464566927
        },
        {
          "duration": 0.011904583333333107,
          "durationTicks": 8,
          "midi": 42,
          "name": "F#2",
          "ticks": 48960,
          "time": 73.4855,
          "velocity": 0.3543307086614173
        },
        {
          "duration": 0.011904583333333107,
          "durationTicks": 8,
          "midi": 42,
          "name": "F#2",
          "ticks": 49152,
          "time": 73.77121000000001,
          "velocity": 0.33858267716535434
        },
        {
          "duration": 0.011904583333333107,
          "durationTicks": 8,
          "midi": 37,
          "name": "C#2",
          "ticks": 49344,
          "time": 74.05692,
          "velocity": 0.6456692913385826
        },
        {
          "duration": 0.011904583333333107,
          "durationTicks": 8,
          "midi": 42,
          "name": "F#2",
          "ticks": 49344,
          "time": 74.05692,
          "velocity": 0.3464566929133858
        },
        {
          "duration": 0.011904583333333107,
          "durationTicks": 8,
          "midi": 81,
          "name": "A5",
          "ticks": 49344,
          "time": 74.05692,
          "velocity": 0.2677165354330709
        },
        {
          "duration": 0.011904583333333107,
          "durationTicks": 8,
          "midi": 42,
          "name": "F#2",
          "ticks": 49536,
          "time": 74.34263,
          "velocity": 0.3543307086614173
        },
        {
          "duration": 0.011904583333333107,
          "durationTicks": 8,
          "midi": 35,
          "name": "B1",
          "ticks": 49728,
          "time": 74.62834000000001,
          "velocity": 0.6220472440944882
        },
        {
          "duration": 0.011904583333333107,
          "durationTicks": 8,
          "midi": 42,
          "name": "F#2",
          "ticks": 49728,
          "time": 74.62834000000001,
          "velocity": 0.33858267716535434
        },
        {
          "duration": 0.011904583333333107,
          "durationTicks": 8,
          "midi": 35,
          "name": "B1",
          "ticks": 49920,
          "time": 74.91405,
          "velocity": 0.8110236220472441
        },
        {
          "duration": 0.011904583333333107,
          "durationTicks": 8,
          "midi": 42,
          "name": "F#2",
          "ticks": 49920,
          "time": 74.91405,
          "velocity": 0.41732283464566927
        },
        {
          "duration": 0.011904583333333107,
          "durationTicks": 8,
          "midi": 42,
          "name": "F#2",
          "ticks": 50112,
          "time": 75.19976000000001,
          "velocity": 0.3543307086614173
        },
        {
          "duration": 0.011904583333333107,
          "durationTicks": 8,
          "midi": 42,
          "name": "F#2",
          "ticks": 50304,
          "time": 75.48547,
          "velocity": 0.33858267716535434
        },
        {
          "duration": 0.011904583333333107,
          "durationTicks": 8,
          "midi": 46,
          "name": "A#2",
          "ticks": 50496,
          "time": 75.77118,
          "velocity": 0.2677165354330709
        },
        {
          "duration": 0.011904583333333107,
          "durationTicks": 8,
          "midi": 48,
          "name": "C3",
          "ticks": 50496,
          "time": 75.77118,
          "velocity": 0.3464566929133858
        },
        {
          "duration": 0.011904583333333107,
          "durationTicks": 8,
          "midi": 81,
          "name": "A5",
          "ticks": 50506,
          "time": 75.78606072916668,
          "velocity": 0.1968503937007874
        },
        {
          "duration": 0.011904583333333107,
          "durationTicks": 8,
          "midi": 45,
          "name": "A2",
          "ticks": 50688,
          "time": 76.05689000000001,
          "velocity": 0.3543307086614173
        },
        {
          "duration": 0.011904583333333107,
          "durationTicks": 8,
          "midi": 81,
          "name": "A5",
          "ticks": 50692,
          "time": 76.06284229166667,
          "velocity": 0.2204724409448819
        },
        {
          "duration": 0.011904583333333107,
          "durationTicks": 8,
          "midi": 81,
          "name": "A5",
          "ticks": 50878,
          "time": 76.33962385416667,
          "velocity": 0.2755905511811024
        },
        {
          "duration": 0.011904583333333107,
          "durationTicks": 8,
          "midi": 41,
          "name": "F2",
          "ticks": 50880,
          "time": 76.3426,
          "velocity": 0.33858267716535434
        },
        {
          "duration": 0.011904583333333107,
          "durationTicks": 8,
          "midi": 35,
          "name": "B1",
          "ticks": 50880,
          "time": 76.3426,
          "velocity": 0.6377952755905512
        },
        {
          "duration": 0.011904583333347318,
          "durationTicks": 8,
          "midi": 35,
          "name": "B1",
          "ticks": 51072,
          "time": 76.62831,
          "velocity": 0.8110236220472441
        },
        {
          "duration": 0.011904583333333107,
          "durationTicks": 8,
          "midi": 42,
          "name": "F#2",
          "ticks": 51264,
          "time": 76.91402000000001,
          "velocity": 0.3543307086614173
        },
        {
          "duration": 0.011904583333333107,
          "durationTicks": 8,
          "midi": 42,
          "name": "F#2",
          "ticks": 51456,
          "time": 77.19973,
          "velocity": 0.33858267716535434
        },
        {
          "duration": 0.011904583333333107,
          "durationTicks": 8,
          "midi": 40,
          "name": "E2",
          "ticks": 51648,
          "time": 77.48544000000001,
          "velocity": 0.6141732283464567
        },
        {
          "duration": 0.011904583333333107,
          "durationTicks": 8,
          "midi": 42,
          "name": "F#2",
          "ticks": 51648,
          "time": 77.48544000000001,
          "velocity": 0.3464566929133858
        },
        {
          "duration": 0.011904583333333107,
          "durationTicks": 8,
          "midi": 81,
          "name": "A5",
          "ticks": 51648,
          "time": 77.48544000000001,
          "velocity": 0.2677165354330709
        },
        {
          "duration": 0.011904583333333107,
          "durationTicks": 8,
          "midi": 42,
          "name": "F#2",
          "ticks": 51840,
          "time": 77.77115,
          "velocity": 0.3543307086614173
        },
        {
          "duration": 0.011904583333333107,
          "durationTicks": 8,
          "midi": 35,
          "name": "B1",
          "ticks": 52032,
          "time": 78.05686,
          "velocity": 0.6220472440944882
        },
        {
          "duration": 0.011904583333333107,
          "durationTicks": 8,
          "midi": 42,
          "name": "F#2",
          "ticks": 52032,
          "time": 78.05686,
          "velocity": 0.33858267716535434
        },
        {
          "duration": 0.011904583333333107,
          "durationTicks": 8,
          "midi": 42,
          "name": "F#2",
          "ticks": 52224,
          "time": 78.34257000000001,
          "velocity": 0.41732283464566927
        },
        {
          "duration": 0.011904583333333107,
          "durationTicks": 8,
          "midi": 35,
          "name": "B1",
          "ticks": 52224,
          "time": 78.34257000000001,
          "velocity": 0.8110236220472441
        },
        {
          "duration": 0.011904583333333107,
          "durationTicks": 8,
          "midi": 42,
          "name": "F#2",
          "ticks": 52416,
          "time": 78.62828,
          "velocity": 0.3543307086614173
        },
        {
          "duration": 0.011904583333318897,
          "durationTicks": 8,
          "midi": 42,
          "name": "F#2",
          "ticks": 52608,
          "time": 78.91399000000001,
          "velocity": 0.33858267716535434
        },
        {
          "duration": 0.011904583333333107,
          "durationTicks": 8,
          "midi": 42,
          "name": "F#2",
          "ticks": 52800,
          "time": 79.1997,
          "velocity": 0.3464566929133858
        },
        {
          "duration": 0.011904583333333107,
          "durationTicks": 8,
          "midi": 81,
          "name": "A5",
          "ticks": 52800,
          "time": 79.1997,
          "velocity": 0.2677165354330709
        },
        {
          "duration": 0.011904583333333107,
          "durationTicks": 8,
          "midi": 40,
          "name": "E2",
          "ticks": 52800,
          "time": 79.1997,
          "velocity": 0.6141732283464567
        },
        {
          "duration": 0.011904583333333107,
          "durationTicks": 8,
          "midi": 42,
          "name": "F#2",
          "ticks": 52992,
          "time": 79.48541,
          "velocity": 0.3543307086614173
        },
        {
          "duration": 0.011904583333333107,
          "durationTicks": 8,
          "midi": 42,
          "name": "F#2",
          "ticks": 53184,
          "time": 79.77112000000001,
          "velocity": 0.33858267716535434
        },
        {
          "duration": 0.011904583333333107,
          "durationTicks": 8,
          "midi": 35,
          "name": "B1",
          "ticks": 53184,
          "time": 79.77112000000001,
          "velocity": 0.6377952755905512
        },
        {
          "duration": 0.011904583333333107,
          "durationTicks": 8,
          "midi": 42,
          "name": "F#2",
          "ticks": 53376,
          "time": 80.05683,
          "velocity": 0.41732283464566927
        },
        {
          "duration": 0.011904583333333107,
          "durationTicks": 8,
          "midi": 35,
          "name": "B1",
          "ticks": 53376,
          "time": 80.05683,
          "velocity": 0.8110236220472441
        },
        {
          "duration": 0.011904583333318897,
          "durationTicks": 8,
          "midi": 42,
          "name": "F#2",
          "ticks": 53568,
          "time": 80.34254000000001,
          "velocity": 0.3543307086614173
        },
        {
          "duration": 0.011904583333333107,
          "durationTicks": 8,
          "midi": 42,
          "name": "F#2",
          "ticks": 53760,
          "time": 80.62825000000001,
          "velocity": 0.33858267716535434
        },
        {
          "duration": 0.011904583333333107,
          "durationTicks": 8,
          "midi": 42,
          "name": "F#2",
          "ticks": 53952,
          "time": 80.91396,
          "velocity": 0.3464566929133858
        },
        {
          "duration": 0.011904583333333107,
          "durationTicks": 8,
          "midi": 81,
          "name": "A5",
          "ticks": 53952,
          "time": 80.91396,
          "velocity": 0.2677165354330709
        },
        {
          "duration": 0.011904583333333107,
          "durationTicks": 8,
          "midi": 40,
          "name": "E2",
          "ticks": 53952,
          "time": 80.91396,
          "velocity": 0.6141732283464567
        },
        {
          "duration": 0.011904583333333107,
          "durationTicks": 8,
          "midi": 42,
          "name": "F#2",
          "ticks": 54144,
          "time": 81.19967000000001,
          "velocity": 0.3543307086614173
        },
        {
          "duration": 0.011904583333333107,
          "durationTicks": 8,
          "midi": 35,
          "name": "B1",
          "ticks": 54336,
          "time": 81.48538,
          "velocity": 0.6220472440944882
        },
        {
          "duration": 0.011904583333333107,
          "durationTicks": 8,
          "midi": 42,
          "name": "F#2",
          "ticks": 54336,
          "time": 81.48538,
          "velocity": 0.33858267716535434
        },
        {
          "duration": 0.011904583333333107,
          "durationTicks": 8,
          "midi": 42,
          "name": "F#2",
          "ticks": 54528,
          "time": 81.77109,
          "velocity": 0.33858267716535434
        },
        {
          "duration": 0.011904583333333107,
          "durationTicks": 8,
          "midi": 35,
          "name": "B1",
          "ticks": 54528,
          "time": 81.77109,
          "velocity": 0.6220472440944882
        },
        {
          "duration": 0.011904583333333107,
          "durationTicks": 8,
          "midi": 81,
          "name": "A5",
          "ticks": 54528,
          "time": 81.77109,
          "velocity": 0.2677165354330709
        },
        {
          "duration": 0.011904583333333107,
          "durationTicks": 8,
          "midi": 42,
          "name": "F#2",
          "ticks": 54720,
          "time": 82.05680000000001,
          "velocity": 0.29133858267716534
        },
        {
          "duration": 0.011904583333333107,
          "durationTicks": 8,
          "midi": 42,
          "name": "F#2",
          "ticks": 54912,
          "time": 82.34251,
          "velocity": 0.33858267716535434
        },
        {
          "duration": 0.011904583333347318,
          "durationTicks": 8,
          "midi": 40,
          "name": "E2",
          "ticks": 55104,
          "time": 82.62822,
          "velocity": 0.6141732283464567
        },
        {
          "duration": 0.011904583333347318,
          "durationTicks": 8,
          "midi": 42,
          "name": "F#2",
          "ticks": 55104,
          "time": 82.62822,
          "velocity": 0.3464566929133858
        },
        {
          "duration": 0.011904583333333107,
          "durationTicks": 8,
          "midi": 42,
          "name": "F#2",
          "ticks": 55296,
          "time": 82.91393000000001,
          "velocity": 0.3543307086614173
        },
        {
          "duration": 0.011904583333333107,
          "durationTicks": 8,
          "midi": 42,
          "name": "F#2",
          "ticks": 55488,
          "time": 83.19964,
          "velocity": 0.33858267716535434
        },
        {
          "duration": 0.011904583333333107,
          "durationTicks": 8,
          "midi": 35,
          "name": "B1",
          "ticks": 55488,
          "time": 83.19964,
          "velocity": 0.6220472440944882
        },
        {
          "duration": 0.011904583333333107,
          "durationTicks": 8,
          "midi": 35,
          "name": "B1",
          "ticks": 55680,
          "time": 83.48535000000001,
          "velocity": 0.8110236220472441
        },
        {
          "duration": 0.011904583333333107,
          "durationTicks": 8,
          "midi": 42,
          "name": "F#2",
          "ticks": 55680,
          "time": 83.48535000000001,
          "velocity": 0.41732283464566927
        },
        {
          "duration": 0.011904583333333107,
          "durationTicks": 8,
          "midi": 42,
          "name": "F#2",
          "ticks": 55872,
          "time": 83.77106,
          "velocity": 0.3543307086614173
        },
        {
          "duration": 0.011904583333347318,
          "durationTicks": 8,
          "midi": 42,
          "name": "F#2",
          "ticks": 56064,
          "time": 84.05677,
          "velocity": 0.33858267716535434
        },
        {
          "duration": 0.011904583333333107,
          "durationTicks": 8,
          "midi": 40,
          "name": "E2",
          "ticks": 56256,
          "time": 84.34248000000001,
          "velocity": 0.6141732283464567
        },
        {
          "duration": 0.011904583333333107,
          "durationTicks": 8,
          "midi": 42,
          "name": "F#2",
          "ticks": 56256,
          "time": 84.34248000000001,
          "velocity": 0.3464566929133858
        },
        {
          "duration": 0.011904583333333107,
          "durationTicks": 8,
          "midi": 42,
          "name": "F#2",
          "ticks": 56448,
          "time": 84.62819,
          "velocity": 0.3543307086614173
        },
        {
          "duration": 0.011904583333318897,
          "durationTicks": 8,
          "midi": 35,
          "name": "B1",
          "ticks": 56640,
          "time": 84.91390000000001,
          "velocity": 0.6377952755905512
        },
        {
          "duration": 0.011904583333318897,
          "durationTicks": 8,
          "midi": 42,
          "name": "F#2",
          "ticks": 56640,
          "time": 84.91390000000001,
          "velocity": 0.33858267716535434
        },
        {
          "duration": 0.011904583333333107,
          "durationTicks": 8,
          "midi": 35,
          "name": "B1",
          "ticks": 56832,
          "time": 85.19961,
          "velocity": 0.8110236220472441
        },
        {
          "duration": 0.011904583333333107,
          "durationTicks": 8,
          "midi": 42,
          "name": "F#2",
          "ticks": 56832,
          "time": 85.19961,
          "velocity": 0.41732283464566927
        },
        {
          "duration": 0.011904583333333107,
          "durationTicks": 8,
          "midi": 42,
          "name": "F#2",
          "ticks": 57024,
          "time": 85.48532,
          "velocity": 0.3543307086614173
        },
        {
          "duration": 0.011904583333333107,
          "durationTicks": 8,
          "midi": 42,
          "name": "F#2",
          "ticks": 57216,
          "time": 85.77103000000001,
          "velocity": 0.33858267716535434
        },
        {
          "duration": 0.011904583333333107,
          "durationTicks": 8,
          "midi": 40,
          "name": "E2",
          "ticks": 57408,
          "time": 86.05674,
          "velocity": 0.6141732283464567
        },
        {
          "duration": 0.011904583333333107,
          "durationTicks": 8,
          "midi": 42,
          "name": "F#2",
          "ticks": 57408,
          "time": 86.05674,
          "velocity": 0.3464566929133858
        },
        {
          "duration": 0.011904583333318897,
          "durationTicks": 8,
          "midi": 42,
          "name": "F#2",
          "ticks": 57600,
          "time": 86.34245000000001,
          "velocity": 0.3543307086614173
        },
        {
          "duration": 0.011904583333333107,
          "durationTicks": 8,
          "midi": 35,
          "name": "B1",
          "ticks": 57792,
          "time": 86.62816000000001,
          "velocity": 0.6220472440944882
        },
        {
          "duration": 0.011904583333333107,
          "durationTicks": 8,
          "midi": 42,
          "name": "F#2",
          "ticks": 57792,
          "time": 86.62816000000001,
          "velocity": 0.33858267716535434
        },
        {
          "duration": 0.011904583333347318,
          "durationTicks": 8,
          "midi": 42,
          "name": "F#2",
          "ticks": 57984,
          "time": 86.91387,
          "velocity": 0.41732283464566927
        },
        {
          "duration": 0.011904583333347318,
          "durationTicks": 8,
          "midi": 35,
          "name": "B1",
          "ticks": 57984,
          "time": 86.91387,
          "velocity": 0.8110236220472441
        },
        {
          "duration": 0.011904583333333107,
          "durationTicks": 8,
          "midi": 42,
          "name": "F#2",
          "ticks": 58176,
          "time": 87.19958000000001,
          "velocity": 0.3543307086614173
        },
        {
          "duration": 0.011904583333333107,
          "durationTicks": 8,
          "midi": 42,
          "name": "F#2",
          "ticks": 58368,
          "time": 87.48529,
          "velocity": 0.33858267716535434
        },
        {
          "duration": 0.011904583333318897,
          "durationTicks": 8,
          "midi": 40,
          "name": "E2",
          "ticks": 58560,
          "time": 87.77100000000002,
          "velocity": 0.6141732283464567
        },
        {
          "duration": 0.011904583333318897,
          "durationTicks": 8,
          "midi": 42,
          "name": "F#2",
          "ticks": 58560,
          "time": 87.77100000000002,
          "velocity": 0.3464566929133858
        },
        {
          "duration": 0.011904583333333107,
          "durationTicks": 8,
          "midi": 42,
          "name": "F#2",
          "ticks": 58752,
          "time": 88.05671000000001,
          "velocity": 0.3543307086614173
        },
        {
          "duration": 0.011904583333333107,
          "durationTicks": 8,
          "midi": 35,
          "name": "B1",
          "ticks": 58944,
          "time": 88.34242,
          "velocity": 0.6220472440944882
        },
        {
          "duration": 0.011904583333333107,
          "durationTicks": 8,
          "midi": 42,
          "name": "F#2",
          "ticks": 58944,
          "time": 88.34242,
          "velocity": 0.33858267716535434
        },
        {
          "duration": 0.011904583333347318,
          "durationTicks": 8,
          "midi": 35,
          "name": "B1",
          "ticks": 59136,
          "time": 88.62813,
          "velocity": 0.8110236220472441
        },
        {
          "duration": 0.011904583333347318,
          "durationTicks": 8,
          "midi": 46,
          "name": "A#2",
          "ticks": 59136,
          "time": 88.62813,
          "velocity": 0.41732283464566927
        },
        {
          "duration": 0.011904583333333107,
          "durationTicks": 8,
          "midi": 42,
          "name": "F#2",
          "ticks": 59520,
          "time": 89.19955,
          "velocity": 0.33858267716535434
        },
        {
          "duration": 0.011904583333333107,
          "durationTicks": 8,
          "midi": 40,
          "name": "E2",
          "ticks": 59712,
          "time": 89.48526000000001,
          "velocity": 0.6141732283464567
        },
        {
          "duration": 0.011904583333333107,
          "durationTicks": 8,
          "midi": 45,
          "name": "A2",
          "ticks": 59904,
          "time": 89.77097,
          "velocity": 0.4566929133858268
        },
        {
          "duration": 0.011904583333347318,
          "durationTicks": 8,
          "midi": 35,
          "name": "B1",
          "ticks": 60096,
          "time": 90.05668,
          "velocity": 0.6377952755905512
        },
        {
          "duration": 0.011904583333347318,
          "durationTicks": 8,
          "midi": 41,
          "name": "F2",
          "ticks": 60096,
          "time": 90.05668,
          "velocity": 0.33858267716535434
        },
        {
          "duration": 0.011904583333333107,
          "durationTicks": 8,
          "midi": 35,
          "name": "B1",
          "ticks": 60288,
          "time": 90.34239000000001,
          "velocity": 0.8110236220472441
        },
        {
          "duration": 0.011904583333333107,
          "durationTicks": 8,
          "midi": 49,
          "name": "C#3",
          "ticks": 60288,
          "time": 90.34239000000001,
          "velocity": 0.25984251968503935
        },
        {
          "duration": 0.011904583333333107,
          "durationTicks": 8,
          "midi": 42,
          "name": "F#2",
          "ticks": 60480,
          "time": 90.6281,
          "velocity": 0.3543307086614173
        },
        {
          "duration": 0.011904583333333107,
          "durationTicks": 8,
          "midi": 35,
          "name": "B1",
          "ticks": 60672,
          "time": 90.91381000000001,
          "velocity": 0.6299212598425197
        },
        {
          "duration": 0.011904583333333107,
          "durationTicks": 8,
          "midi": 42,
          "name": "F#2",
          "ticks": 60672,
          "time": 90.91381000000001,
          "velocity": 0.33858267716535434
        },
        {
          "duration": 0.011792291666665733,
          "durationTicks": 8,
          "midi": 42,
          "name": "F#2",
          "ticks": 60864,
          "time": 91.19856552083334,
          "velocity": 0.3464566929133858
        },
        {
          "duration": 0.011792291666665733,
          "durationTicks": 8,
          "midi": 40,
          "name": "E2",
          "ticks": 60864,
          "time": 91.19856552083334,
          "velocity": 0.6141732283464567
        },
        {
          "duration": 0.011792291666665733,
          "durationTicks": 8,
          "midi": 35,
          "name": "B1",
          "ticks": 61056,
          "time": 91.48158052083333,
          "velocity": 0.6220472440944882
        },
        {
          "duration": 0.011792291666665733,
          "durationTicks": 8,
          "midi": 42,
          "name": "F#2",
          "ticks": 61056,
          "time": 91.48158052083333,
          "velocity": 0.3543307086614173
        },
        {
          "duration": 0.011792291666665733,
          "durationTicks": 8,
          "midi": 42,
          "name": "F#2",
          "ticks": 61248,
          "time": 91.76459552083334,
          "velocity": 0.33858267716535434
        },
        {
          "duration": 0.011792291666665733,
          "durationTicks": 8,
          "midi": 35,
          "name": "B1",
          "ticks": 61440,
          "time": 92.04761052083333,
          "velocity": 0.6220472440944882
        },
        {
          "duration": 0.011792291666665733,
          "durationTicks": 8,
          "midi": 42,
          "name": "F#2",
          "ticks": 61440,
          "time": 92.04761052083333,
          "velocity": 0.33858267716535434
        },
        {
          "duration": 0.011682083333326432,
          "durationTicks": 8,
          "midi": 42,
          "name": "F#2",
          "ticks": 61632,
          "time": 92.33062552083334,
          "velocity": 0.29133858267716534
        },
        {
          "duration": 0.011682083333326432,
          "durationTicks": 8,
          "midi": 42,
          "name": "F#2",
          "ticks": 61824,
          "time": 92.61099552083334,
          "velocity": 0.33858267716535434
        },
        {
          "duration": 0.011682083333340643,
          "durationTicks": 8,
          "midi": 40,
          "name": "E2",
          "ticks": 62016,
          "time": 92.89136552083333,
          "velocity": 0.6141732283464567
        },
        {
          "duration": 0.011682083333340643,
          "durationTicks": 8,
          "midi": 42,
          "name": "F#2",
          "ticks": 62016,
          "time": 92.89136552083333,
          "velocity": 0.3464566929133858
        },
        {
          "duration": 0.011682083333326432,
          "durationTicks": 8,
          "midi": 42,
          "name": "F#2",
          "ticks": 62208,
          "time": 93.17173552083334,
          "velocity": 0.3543307086614173
        },
        {
          "duration": 0.011682083333326432,
          "durationTicks": 8,
          "midi": 35,
          "name": "B1",
          "ticks": 62400,
          "time": 93.45210552083334,
          "velocity": 0.6220472440944882
        },
        {
          "duration": 0.011682083333326432,
          "durationTicks": 8,
          "midi": 42,
          "name": "F#2",
          "ticks": 62400,
          "time": 93.45210552083334,
          "velocity": 0.33858267716535434
        },
        {
          "duration": 0.011682083333340643,
          "durationTicks": 8,
          "midi": 42,
          "name": "F#2",
          "ticks": 62592,
          "time": 93.73247552083333,
          "velocity": 0.41732283464566927
        },
        {
          "duration": 0.011682083333340643,
          "durationTicks": 8,
          "midi": 35,
          "name": "B1",
          "ticks": 62592,
          "time": 93.73247552083333,
          "velocity": 0.8110236220472441
        },
        {
          "duration": 0.011682083333326432,
          "durationTicks": 8,
          "midi": 42,
          "name": "F#2",
          "ticks": 62784,
          "time": 94.01284552083334,
          "velocity": 0.3543307086614173
        },
        {
          "duration": 0.011682083333326432,
          "durationTicks": 8,
          "midi": 42,
          "name": "F#2",
          "ticks": 62976,
          "time": 94.29321552083334,
          "velocity": 0.33858267716535434
        },
        {
          "duration": 0.011682083333340643,
          "durationTicks": 8,
          "midi": 40,
          "name": "E2",
          "ticks": 63168,
          "time": 94.57358552083333,
          "velocity": 0.6141732283464567
        },
        {
          "duration": 0.011682083333340643,
          "durationTicks": 8,
          "midi": 42,
          "name": "F#2",
          "ticks": 63168,
          "time": 94.57358552083333,
          "velocity": 0.3464566929133858
        },
        {
          "duration": 0.011682083333326432,
          "durationTicks": 8,
          "midi": 42,
          "name": "F#2",
          "ticks": 63360,
          "time": 94.85395552083334,
          "velocity": 0.3543307086614173
        },
        {
          "duration": 0.011682083333326432,
          "durationTicks": 8,
          "midi": 35,
          "name": "B1",
          "ticks": 63552,
          "time": 95.13432552083334,
          "velocity": 0.6377952755905512
        },
        {
          "duration": 0.011682083333326432,
          "durationTicks": 8,
          "midi": 42,
          "name": "F#2",
          "ticks": 63552,
          "time": 95.13432552083334,
          "velocity": 0.33858267716535434
        },
        {
          "duration": 0.011682083333340643,
          "durationTicks": 8,
          "midi": 35,
          "name": "B1",
          "ticks": 63744,
          "time": 95.41469552083333,
          "velocity": 0.8110236220472441
        },
        {
          "duration": 0.011682083333340643,
          "durationTicks": 8,
          "midi": 46,
          "name": "A#2",
          "ticks": 63744,
          "time": 95.41469552083333,
          "velocity": 0.41732283464566927
        },
        {
          "duration": 0.011682083333326432,
          "durationTicks": 8,
          "midi": 42,
          "name": "F#2",
          "ticks": 64128,
          "time": 95.97543552083334,
          "velocity": 0.33858267716535434
        },
        {
          "duration": 0.011682083333340643,
          "durationTicks": 8,
          "midi": 40,
          "name": "E2",
          "ticks": 64320,
          "time": 96.25580552083333,
          "velocity": 0.6141732283464567
        },
        {
          "duration": 0.011682083333326432,
          "durationTicks": 8,
          "midi": 45,
          "name": "A2",
          "ticks": 64512,
          "time": 96.53617552083334,
          "velocity": 0.4566929133858268
        },
        {
          "duration": 0.011682083333340643,
          "durationTicks": 8,
          "midi": 41,
          "name": "F2",
          "ticks": 64704,
          "time": 96.81654552083333,
          "velocity": 0.33858267716535434
        },
        {
          "duration": 0.011682083333340643,
          "durationTicks": 8,
          "midi": 35,
          "name": "B1",
          "ticks": 64704,
          "time": 96.81654552083333,
          "velocity": 0.6377952755905512
        },
        {
          "duration": 0.011682083333340643,
          "durationTicks": 8,
          "midi": 49,
          "name": "C#3",
          "ticks": 64896,
          "time": 97.09691552083333,
          "velocity": 0.25984251968503935
        },
        {
          "duration": 0.011682083333340643,
          "durationTicks": 8,
          "midi": 35,
          "name": "B1",
          "ticks": 64896,
          "time": 97.09691552083333,
          "velocity": 0.8110236220472441
        },
        {
          "duration": 0.011682083333326432,
          "durationTicks": 8,
          "midi": 42,
          "name": "F#2",
          "ticks": 65088,
          "time": 97.37728552083334,
          "velocity": 0.3543307086614173
        },
        {
          "duration": 0.011682083333326432,
          "durationTicks": 8,
          "midi": 35,
          "name": "B1",
          "ticks": 65280,
          "time": 97.65765552083334,
          "velocity": 0.6299212598425197
        },
        {
          "duration": 0.011682083333326432,
          "durationTicks": 8,
          "midi": 42,
          "name": "F#2",
          "ticks": 65280,
          "time": 97.65765552083334,
          "velocity": 0.33858267716535434
        },
        {
          "duration": 0.011682083333340643,
          "durationTicks": 8,
          "midi": 42,
          "name": "F#2",
          "ticks": 65472,
          "time": 97.93802552083334,
          "velocity": 0.3464566929133858
        },
        {
          "duration": 0.011682083333340643,
          "durationTicks": 8,
          "midi": 40,
          "name": "E2",
          "ticks": 65472,
          "time": 97.93802552083334,
          "velocity": 0.6141732283464567
        },
        {
          "duration": 0.011682083333326432,
          "durationTicks": 8,
          "midi": 35,
          "name": "B1",
          "ticks": 65664,
          "time": 98.21839552083334,
          "velocity": 0.6220472440944882
        },
        {
          "duration": 0.011682083333326432,
          "durationTicks": 8,
          "midi": 42,
          "name": "F#2",
          "ticks": 65664,
          "time": 98.21839552083334,
          "velocity": 0.3543307086614173
        },
        {
          "duration": 0.011682083333340643,
          "durationTicks": 8,
          "midi": 42,
          "name": "F#2",
          "ticks": 65856,
          "time": 98.49876552083333,
          "velocity": 0.33858267716535434
        },
        {
          "duration": 0.011682083333340643,
          "durationTicks": 8,
          "midi": 81,
          "name": "A5",
          "ticks": 66048,
          "time": 98.77913552083334,
          "velocity": 0.33858267716535434
        },
        {
          "duration": 0.011682083333340643,
          "durationTicks": 8,
          "midi": 35,
          "name": "B1",
          "ticks": 66048,
          "time": 98.77913552083334,
          "velocity": 0.6220472440944882
        },
        {
          "duration": 0.011682083333340643,
          "durationTicks": 8,
          "midi": 46,
          "name": "A#2",
          "ticks": 66048,
          "time": 98.77913552083334,
          "velocity": 0.3464566929133858
        },
        {
          "duration": 0.011682083333326432,
          "durationTicks": 8,
          "midi": 81,
          "name": "A5",
          "ticks": 66634,
          "time": 99.634848125,
          "velocity": 0.23622047244094488
        },
        {
          "duration": 0.011682083333340643,
          "durationTicks": 8,
          "midi": 81,
          "name": "A5",
          "ticks": 67212,
          "time": 100.47887864583333,
          "velocity": 0.25196850393700787
        },
        {
          "duration": 0.011792291666665733,
          "durationTicks": 8,
          "midi": 81,
          "name": "A5",
          "ticks": 68352,
          "time": 102.14357552083334,
          "velocity": 0.2677165354330709
        },
        {
          "duration": 0.012019166666661363,
          "durationTicks": 8,
          "midi": 42,
          "name": "F#2",
          "ticks": 70656,
          "time": 105.55609052083334,
          "velocity": 0.41732283464566927
        },
        {
          "duration": 0.012019166666661363,
          "durationTicks": 8,
          "midi": 35,
          "name": "B1",
          "ticks": 70656,
          "time": 105.55609052083334,
          "velocity": 0.8110236220472441
        },
        {
          "duration": 0.012019166666661363,
          "durationTicks": 8,
          "midi": 42,
          "name": "F#2",
          "ticks": 70848,
          "time": 105.84455052083334,
          "velocity": 0.3543307086614173
        },
        {
          "duration": 0.012019166666661363,
          "durationTicks": 8,
          "midi": 42,
          "name": "F#2",
          "ticks": 71040,
          "time": 106.13301052083334,
          "velocity": 0.33858267716535434
        },
        {
          "duration": 0.012019166666661363,
          "durationTicks": 8,
          "midi": 81,
          "name": "A5",
          "ticks": 71232,
          "time": 106.42147052083334,
          "velocity": 0.2677165354330709
        },
        {
          "duration": 0.012019166666661363,
          "durationTicks": 8,
          "midi": 42,
          "name": "F#2",
          "ticks": 71232,
          "time": 106.42147052083334,
          "velocity": 0.3464566929133858
        },
        {
          "duration": 0.012019166666661363,
          "durationTicks": 8,
          "midi": 37,
          "name": "C#2",
          "ticks": 71232,
          "time": 106.42147052083334,
          "velocity": 0.6456692913385826
        },
        {
          "duration": 0.012019166666661363,
          "durationTicks": 8,
          "midi": 42,
          "name": "F#2",
          "ticks": 71424,
          "time": 106.70993052083334,
          "velocity": 0.3543307086614173
        },
        {
          "duration": 0.012019166666661363,
          "durationTicks": 8,
          "midi": 42,
          "name": "F#2",
          "ticks": 71616,
          "time": 106.99839052083334,
          "velocity": 0.33858267716535434
        },
        {
          "duration": 0.012019166666661363,
          "durationTicks": 8,
          "midi": 35,
          "name": "B1",
          "ticks": 71616,
          "time": 106.99839052083334,
          "velocity": 0.6377952755905512
        },
        {
          "duration": 0.012500000000002842,
          "durationTicks": 8,
          "midi": 35,
          "name": "B1",
          "ticks": 71808,
          "time": 107.28685052083334,
          "velocity": 0.8110236220472441
        },
        {
          "duration": 0.012500000000002842,
          "durationTicks": 8,
          "midi": 42,
          "name": "F#2",
          "ticks": 71808,
          "time": 107.28685052083334,
          "velocity": 0.41732283464566927
        },
        {
          "duration": 0.012500000000002842,
          "durationTicks": 8,
          "midi": 42,
          "name": "F#2",
          "ticks": 72000,
          "time": 107.58685052083334,
          "velocity": 0.3543307086614173
        },
        {
          "duration": 0.012500000000002842,
          "durationTicks": 8,
          "midi": 42,
          "name": "F#2",
          "ticks": 72192,
          "time": 107.88685052083333,
          "velocity": 0.33858267716535434
        },
        {
          "duration": 0.012499999999988631,
          "durationTicks": 8,
          "midi": 81,
          "name": "A5",
          "ticks": 72384,
          "time": 108.18685052083335,
          "velocity": 0.2677165354330709
        },
        {
          "duration": 0.012499999999988631,
          "durationTicks": 8,
          "midi": 37,
          "name": "C#2",
          "ticks": 72384,
          "time": 108.18685052083335,
          "velocity": 0.6456692913385826
        },
        {
          "duration": 0.012499999999988631,
          "durationTicks": 8,
          "midi": 42,
          "name": "F#2",
          "ticks": 72384,
          "time": 108.18685052083335,
          "velocity": 0.3464566929133858
        },
        {
          "duration": 0.012500000000002842,
          "durationTicks": 8,
          "midi": 42,
          "name": "F#2",
          "ticks": 72576,
          "time": 108.48685052083334,
          "velocity": 0.3543307086614173
        },
        {
          "duration": 0.012500000000002842,
          "durationTicks": 8,
          "midi": 42,
          "name": "F#2",
          "ticks": 72768,
          "time": 108.78685052083334,
          "velocity": 0.33858267716535434
        },
        {
          "duration": 0.012500000000002842,
          "durationTicks": 8,
          "midi": 35,
          "name": "B1",
          "ticks": 72768,
          "time": 108.78685052083334,
          "velocity": 0.6220472440944882
        },
        {
          "duration": 0.012135833333331902,
          "durationTicks": 8,
          "midi": 46,
          "name": "A#2",
          "ticks": 72960,
          "time": 109.08685052083334,
          "velocity": 0.3543307086614173
        },
        {
          "duration": 0.012135833333331902,
          "durationTicks": 8,
          "midi": 35,
          "name": "B1",
          "ticks": 72960,
          "time": 109.08685052083334,
          "velocity": 0.8110236220472441
        },
        {
          "duration": 0.012135833333331902,
          "durationTicks": 8,
          "midi": 42,
          "name": "F#2",
          "ticks": 75264,
          "time": 112.58197052083334,
          "velocity": 0.41732283464566927
        },
        {
          "duration": 0.012135833333331902,
          "durationTicks": 8,
          "midi": 35,
          "name": "B1",
          "ticks": 75264,
          "time": 112.58197052083334,
          "velocity": 0.8110236220472441
        },
        {
          "duration": 0.012135833333346113,
          "durationTicks": 8,
          "midi": 42,
          "name": "F#2",
          "ticks": 75456,
          "time": 112.87323052083333,
          "velocity": 0.3543307086614173
        },
        {
          "duration": 0.012135833333331902,
          "durationTicks": 8,
          "midi": 42,
          "name": "F#2",
          "ticks": 75648,
          "time": 113.16449052083334,
          "velocity": 0.33858267716535434
        },
        {
          "duration": 0.012135833333331902,
          "durationTicks": 8,
          "midi": 37,
          "name": "C#2",
          "ticks": 75840,
          "time": 113.45575052083333,
          "velocity": 0.6456692913385826
        },
        {
          "duration": 0.012135833333331902,
          "durationTicks": 8,
          "midi": 42,
          "name": "F#2",
          "ticks": 75840,
          "time": 113.45575052083333,
          "velocity": 0.3464566929133858
        },
        {
          "duration": 0.012135833333331902,
          "durationTicks": 8,
          "midi": 81,
          "name": "A5",
          "ticks": 75840,
          "time": 113.45575052083333,
          "velocity": 0.2677165354330709
        },
        {
          "duration": 0.012135833333331902,
          "durationTicks": 8,
          "midi": 42,
          "name": "F#2",
          "ticks": 76032,
          "time": 113.74701052083334,
          "velocity": 0.3543307086614173
        },
        {
          "duration": 0.012135833333331902,
          "durationTicks": 8,
          "midi": 42,
          "name": "F#2",
          "ticks": 76224,
          "time": 114.03827052083334,
          "velocity": 0.33858267716535434
        },
        {
          "duration": 0.012135833333331902,
          "durationTicks": 8,
          "midi": 35,
          "name": "B1",
          "ticks": 76224,
          "time": 114.03827052083334,
          "velocity": 0.6377952755905512
        },
        {
          "duration": 0.012135833333331902,
          "durationTicks": 8,
          "midi": 42,
          "name": "F#2",
          "ticks": 76416,
          "time": 114.32953052083334,
          "velocity": 0.41732283464566927
        },
        {
          "duration": 0.012135833333331902,
          "durationTicks": 8,
          "midi": 35,
          "name": "B1",
          "ticks": 76416,
          "time": 114.32953052083334,
          "velocity": 0.8110236220472441
        },
        {
          "duration": 0.012135833333331902,
          "durationTicks": 8,
          "midi": 42,
          "name": "F#2",
          "ticks": 76608,
          "time": 114.62079052083334,
          "velocity": 0.3543307086614173
        },
        {
          "duration": 0.012135833333331902,
          "durationTicks": 8,
          "midi": 42,
          "name": "F#2",
          "ticks": 76800,
          "time": 114.91205052083333,
          "velocity": 0.33858267716535434
        },
        {
          "duration": 0.012135833333331902,
          "durationTicks": 8,
          "midi": 37,
          "name": "C#2",
          "ticks": 76992,
          "time": 115.20331052083334,
          "velocity": 0.6456692913385826
        },
        {
          "duration": 0.012135833333331902,
          "durationTicks": 8,
          "midi": 81,
          "name": "A5",
          "ticks": 76992,
          "time": 115.20331052083334,
          "velocity": 0.2677165354330709
        },
        {
          "duration": 0.012135833333331902,
          "durationTicks": 8,
          "midi": 42,
          "name": "F#2",
          "ticks": 76992,
          "time": 115.20331052083334,
          "velocity": 0.3464566929133858
        },
        {
          "duration": 0.012135833333331902,
          "durationTicks": 8,
          "midi": 42,
          "name": "F#2",
          "ticks": 77184,
          "time": 115.49457052083334,
          "velocity": 0.3543307086614173
        },
        {
          "duration": 0.012135833333331902,
          "durationTicks": 8,
          "midi": 42,
          "name": "F#2",
          "ticks": 77376,
          "time": 115.78583052083334,
          "velocity": 0.33858267716535434
        },
        {
          "duration": 0.012135833333331902,
          "durationTicks": 8,
          "midi": 35,
          "name": "B1",
          "ticks": 77376,
          "time": 115.78583052083334,
          "velocity": 0.6220472440944882
        },
        {
          "duration": 0.012135833333331902,
          "durationTicks": 8,
          "midi": 35,
          "name": "B1",
          "ticks": 77568,
          "time": 116.07709052083334,
          "velocity": 0.8110236220472441
        },
        {
          "duration": 0.012135833333331902,
          "durationTicks": 8,
          "midi": 42,
          "name": "F#2",
          "ticks": 77568,
          "time": 116.07709052083334,
          "velocity": 0.41732283464566927
        },
        {
          "duration": 0.012135833333346113,
          "durationTicks": 8,
          "midi": 42,
          "name": "F#2",
          "ticks": 77760,
          "time": 116.36835052083333,
          "velocity": 0.3543307086614173
        },
        {
          "duration": 0.012135833333331902,
          "durationTicks": 8,
          "midi": 42,
          "name": "F#2",
          "ticks": 77952,
          "time": 116.65961052083334,
          "velocity": 0.33858267716535434
        },
        {
          "duration": 0.012135833333331902,
          "durationTicks": 8,
          "midi": 42,
          "name": "F#2",
          "ticks": 78144,
          "time": 116.95087052083333,
          "velocity": 0.3464566929133858
        },
        {
          "duration": 0.012135833333331902,
          "durationTicks": 8,
          "midi": 37,
          "name": "C#2",
          "ticks": 78144,
          "time": 116.95087052083333,
          "velocity": 0.6456692913385826
        },
        {
          "duration": 0.012135833333346113,
          "durationTicks": 8,
          "midi": 81,
          "name": "A5",
          "ticks": 78154,
          "time": 116.9660403125,
          "velocity": 0.1968503937007874
        },
        {
          "duration": 0.012135833333331902,
          "durationTicks": 8,
          "midi": 42,
          "name": "F#2",
          "ticks": 78336,
          "time": 117.24213052083334,
          "velocity": 0.3543307086614173
        },
        {
          "duration": 0.012135833333331902,
          "durationTicks": 8,
          "midi": 81,
          "name": "A5",
          "ticks": 78340,
          "time": 117.24819843750001,
          "velocity": 0.2204724409448819
        },
        {
          "duration": 0.012135833333331902,
          "durationTicks": 8,
          "midi": 81,
          "name": "A5",
          "ticks": 78526,
          "time": 117.5303565625,
          "velocity": 0.2755905511811024
        },
        {
          "duration": 0.012135833333331902,
          "durationTicks": 8,
          "midi": 42,
          "name": "F#2",
          "ticks": 78528,
          "time": 117.53339052083334,
          "velocity": 0.33858267716535434
        },
        {
          "duration": 0.012135833333331902,
          "durationTicks": 8,
          "midi": 35,
          "name": "B1",
          "ticks": 78528,
          "time": 117.53339052083334,
          "velocity": 0.6377952755905512
        },
        {
          "duration": 0.012135833333346113,
          "durationTicks": 8,
          "midi": 35,
          "name": "B1",
          "ticks": 78720,
          "time": 117.82465052083333,
          "velocity": 0.8110236220472441
        },
        {
          "duration": 0.012135833333346113,
          "durationTicks": 8,
          "midi": 42,
          "name": "F#2",
          "ticks": 78720,
          "time": 117.82465052083333,
          "velocity": 0.41732283464566927
        },
        {
          "duration": 0.012135833333331902,
          "durationTicks": 8,
          "midi": 42,
          "name": "F#2",
          "ticks": 78912,
          "time": 118.11591052083334,
          "velocity": 0.3543307086614173
        },
        {
          "duration": 0.012135833333331902,
          "durationTicks": 8,
          "midi": 42,
          "name": "F#2",
          "ticks": 79104,
          "time": 118.40717052083333,
          "velocity": 0.33858267716535434
        },
        {
          "duration": 0.012135833333331902,
          "durationTicks": 8,
          "midi": 37,
          "name": "C#2",
          "ticks": 79296,
          "time": 118.69843052083334,
          "velocity": 0.6456692913385826
        },
        {
          "duration": 0.012135833333331902,
          "durationTicks": 8,
          "midi": 81,
          "name": "A5",
          "ticks": 79296,
          "time": 118.69843052083334,
          "velocity": 0.2677165354330709
        },
        {
          "duration": 0.012135833333331902,
          "durationTicks": 8,
          "midi": 42,
          "name": "F#2",
          "ticks": 79296,
          "time": 118.69843052083334,
          "velocity": 0.3464566929133858
        },
        {
          "duration": 0.012135833333331902,
          "durationTicks": 8,
          "midi": 42,
          "name": "F#2",
          "ticks": 79488,
          "time": 118.98969052083334,
          "velocity": 0.3543307086614173
        },
        {
          "duration": 0.012135833333331902,
          "durationTicks": 8,
          "midi": 35,
          "name": "B1",
          "ticks": 79680,
          "time": 119.28095052083334,
          "velocity": 0.6220472440944882
        },
        {
          "duration": 0.012135833333331902,
          "durationTicks": 8,
          "midi": 42,
          "name": "F#2",
          "ticks": 79680,
          "time": 119.28095052083334,
          "velocity": 0.33858267716535434
        },
        {
          "duration": 0.012135833333331902,
          "durationTicks": 8,
          "midi": 35,
          "name": "B1",
          "ticks": 79872,
          "time": 119.57221052083334,
          "velocity": 0.8110236220472441
        },
        {
          "duration": 0.012135833333331902,
          "durationTicks": 8,
          "midi": 42,
          "name": "F#2",
          "ticks": 79872,
          "time": 119.57221052083334,
          "velocity": 0.41732283464566927
        },
        {
          "duration": 0.012135833333331902,
          "durationTicks": 8,
          "midi": 42,
          "name": "F#2",
          "ticks": 80064,
          "time": 119.86347052083335,
          "velocity": 0.3543307086614173
        },
        {
          "duration": 0.012135833333331902,
          "durationTicks": 8,
          "midi": 42,
          "name": "F#2",
          "ticks": 80256,
          "time": 120.15473052083334,
          "velocity": 0.33858267716535434
        },
        {
          "duration": 0.011904583333333107,
          "durationTicks": 8,
          "midi": 37,
          "name": "C#2",
          "ticks": 80448,
          "time": 120.44599052083333,
          "velocity": 0.6456692913385826
        },
        {
          "duration": 0.011904583333333107,
          "durationTicks": 8,
          "midi": 81,
          "name": "A5",
          "ticks": 80448,
          "time": 120.44599052083333,
          "velocity": 0.2677165354330709
        },
        {
          "duration": 0.011904583333333107,
          "durationTicks": 8,
          "midi": 42,
          "name": "F#2",
          "ticks": 80448,
          "time": 120.44599052083333,
          "velocity": 0.3464566929133858
        },
        {
          "duration": 0.011904583333333107,
          "durationTicks": 8,
          "midi": 42,
          "name": "F#2",
          "ticks": 80640,
          "time": 120.73170052083333,
          "velocity": 0.3543307086614173
        },
        {
          "duration": 0.011904583333333107,
          "durationTicks": 8,
          "midi": 42,
          "name": "F#2",
          "ticks": 80832,
          "time": 121.01741052083334,
          "velocity": 0.33858267716535434
        },
        {
          "duration": 0.011904583333333107,
          "durationTicks": 8,
          "midi": 35,
          "name": "B1",
          "ticks": 80832,
          "time": 121.01741052083334,
          "velocity": 0.6377952755905512
        },
        {
          "duration": 0.011904583333333107,
          "durationTicks": 8,
          "midi": 35,
          "name": "B1",
          "ticks": 81024,
          "time": 121.30312052083333,
          "velocity": 0.8110236220472441
        },
        {
          "duration": 0.011904583333333107,
          "durationTicks": 8,
          "midi": 42,
          "name": "F#2",
          "ticks": 81024,
          "time": 121.30312052083333,
          "velocity": 0.41732283464566927
        },
        {
          "duration": 0.011904583333333107,
          "durationTicks": 8,
          "midi": 42,
          "name": "F#2",
          "ticks": 81216,
          "time": 121.58883052083334,
          "velocity": 0.3543307086614173
        },
        {
          "duration": 0.011904583333333107,
          "durationTicks": 8,
          "midi": 42,
          "name": "F#2",
          "ticks": 81408,
          "time": 121.87454052083334,
          "velocity": 0.33858267716535434
        },
        {
          "duration": 0.011904583333333107,
          "durationTicks": 8,
          "midi": 81,
          "name": "A5",
          "ticks": 81600,
          "time": 122.16025052083333,
          "velocity": 0.2677165354330709
        },
        {
          "duration": 0.011904583333333107,
          "durationTicks": 8,
          "midi": 42,
          "name": "F#2",
          "ticks": 81600,
          "time": 122.16025052083333,
          "velocity": 0.3464566929133858
        },
        {
          "duration": 0.011904583333333107,
          "durationTicks": 8,
          "midi": 37,
          "name": "C#2",
          "ticks": 81600,
          "time": 122.16025052083333,
          "velocity": 0.6456692913385826
        },
        {
          "duration": 0.011904583333333107,
          "durationTicks": 8,
          "midi": 42,
          "name": "F#2",
          "ticks": 81792,
          "time": 122.44596052083334,
          "velocity": 0.3543307086614173
        },
        {
          "duration": 0.011904583333333107,
          "durationTicks": 8,
          "midi": 42,
          "name": "F#2",
          "ticks": 81984,
          "time": 122.73167052083333,
          "velocity": 0.33858267716535434
        },
        {
          "duration": 0.011904583333333107,
          "durationTicks": 8,
          "midi": 35,
          "name": "B1",
          "ticks": 81984,
          "time": 122.73167052083333,
          "velocity": 0.6220472440944882
        },
        {
          "duration": 0.011904583333333107,
          "durationTicks": 8,
          "midi": 46,
          "name": "A#2",
          "ticks": 82176,
          "time": 123.01738052083333,
          "velocity": 0.33858267716535434
        },
        {
          "duration": 0.011904583333333107,
          "durationTicks": 8,
          "midi": 35,
          "name": "B1",
          "ticks": 82176,
          "time": 123.01738052083333,
          "velocity": 0.6220472440944882
        },
        {
          "duration": 0.011904583333333107,
          "durationTicks": 8,
          "midi": 81,
          "name": "A5",
          "ticks": 82176,
          "time": 123.01738052083333,
          "velocity": 0.2677165354330709
        },
        {
          "duration": 0.012135833333331902,
          "durationTicks": 8,
          "midi": 35,
          "name": "B1",
          "ticks": 85632,
          "time": 128.16016052083333,
          "velocity": 0.8110236220472441
        },
        {
          "duration": 0.012135833333331902,
          "durationTicks": 8,
          "midi": 42,
          "name": "F#2",
          "ticks": 85632,
          "time": 128.16016052083333,
          "velocity": 0.41732283464566927
        },
        {
          "duration": 0.012135833333331902,
          "durationTicks": 8,
          "midi": 42,
          "name": "F#2",
          "ticks": 85824,
          "time": 128.45142052083332,
          "velocity": 0.3543307086614173
        },
        {
          "duration": 0.012135833333331902,
          "durationTicks": 8,
          "midi": 42,
          "name": "F#2",
          "ticks": 86016,
          "time": 128.74268052083332,
          "velocity": 0.33858267716535434
        },
        {
          "duration": 0.012135833333331902,
          "durationTicks": 8,
          "midi": 81,
          "name": "A5",
          "ticks": 86208,
          "time": 129.03394052083334,
          "velocity": 0.2677165354330709
        },
        {
          "duration": 0.012135833333331902,
          "durationTicks": 8,
          "midi": 37,
          "name": "C#2",
          "ticks": 86208,
          "time": 129.03394052083334,
          "velocity": 0.6456692913385826
        },
        {
          "duration": 0.012135833333331902,
          "durationTicks": 8,
          "midi": 42,
          "name": "F#2",
          "ticks": 86208,
          "time": 129.03394052083334,
          "velocity": 0.3464566929133858
        },
        {
          "duration": 0.012135833333331902,
          "durationTicks": 8,
          "midi": 42,
          "name": "F#2",
          "ticks": 86400,
          "time": 129.32520052083333,
          "velocity": 0.3543307086614173
        },
        {
          "duration": 0.012135833333331902,
          "durationTicks": 8,
          "midi": 42,
          "name": "F#2",
          "ticks": 86592,
          "time": 129.61646052083333,
          "velocity": 0.33858267716535434
        },
        {
          "duration": 0.012135833333331902,
          "durationTicks": 8,
          "midi": 35,
          "name": "B1",
          "ticks": 86592,
          "time": 129.61646052083333,
          "velocity": 0.6377952755905512
        },
        {
          "duration": 0.012135833333331902,
          "durationTicks": 8,
          "midi": 42,
          "name": "F#2",
          "ticks": 86784,
          "time": 129.90772052083332,
          "velocity": 0.41732283464566927
        },
        {
          "duration": 0.012135833333331902,
          "durationTicks": 8,
          "midi": 35,
          "name": "B1",
          "ticks": 86784,
          "time": 129.90772052083332,
          "velocity": 0.8110236220472441
        },
        {
          "duration": 0.012135833333360324,
          "durationTicks": 8,
          "midi": 42,
          "name": "F#2",
          "ticks": 86976,
          "time": 130.19898052083332,
          "velocity": 0.3543307086614173
        },
        {
          "duration": 0.012135833333331902,
          "durationTicks": 8,
          "midi": 42,
          "name": "F#2",
          "ticks": 87168,
          "time": 130.49024052083334,
          "velocity": 0.33858267716535434
        },
        {
          "duration": 0.012135833333331902,
          "durationTicks": 8,
          "midi": 42,
          "name": "F#2",
          "ticks": 87360,
          "time": 130.78150052083333,
          "velocity": 0.3464566929133858
        },
        {
          "duration": 0.012135833333331902,
          "durationTicks": 8,
          "midi": 37,
          "name": "C#2",
          "ticks": 87360,
          "time": 130.78150052083333,
          "velocity": 0.6456692913385826
        },
        {
          "duration": 0.012135833333331902,
          "durationTicks": 8,
          "midi": 81,
          "name": "A5",
          "ticks": 87360,
          "time": 130.78150052083333,
          "velocity": 0.2677165354330709
        },
        {
          "duration": 0.012135833333331902,
          "durationTicks": 8,
          "midi": 42,
          "name": "F#2",
          "ticks": 87552,
          "time": 131.07276052083333,
          "velocity": 0.3543307086614173
        },
        {
          "duration": 0.012135833333331902,
          "durationTicks": 8,
          "midi": 35,
          "name": "B1",
          "ticks": 87744,
          "time": 131.36402052083332,
          "velocity": 0.6220472440944882
        },
        {
          "duration": 0.012135833333331902,
          "durationTicks": 8,
          "midi": 42,
          "name": "F#2",
          "ticks": 87744,
          "time": 131.36402052083332,
          "velocity": 0.33858267716535434
        },
        {
          "duration": 0.012135833333331902,
          "durationTicks": 8,
          "midi": 35,
          "name": "B1",
          "ticks": 87936,
          "time": 131.65528052083334,
          "velocity": 0.8110236220472441
        },
        {
          "duration": 0.012135833333331902,
          "durationTicks": 8,
          "midi": 46,
          "name": "A#2",
          "ticks": 87936,
          "time": 131.65528052083334,
          "velocity": 0.3543307086614173
        },
        {
          "duration": 0.012135833333331902,
          "durationTicks": 8,
          "midi": 35,
          "name": "B1",
          "ticks": 90240,
          "time": 135.15040052083333,
          "velocity": 0.8110236220472441
        },
        {
          "duration": 0.012135833333331902,
          "durationTicks": 8,
          "midi": 42,
          "name": "F#2",
          "ticks": 90240,
          "time": 135.15040052083333,
          "velocity": 0.41732283464566927
        },
        {
          "duration": 0.012135833333331902,
          "durationTicks": 8,
          "midi": 42,
          "name": "F#2",
          "ticks": 90432,
          "time": 135.44166052083332,
          "velocity": 0.3543307086614173
        },
        {
          "duration": 0.012135833333331902,
          "durationTicks": 8,
          "midi": 42,
          "name": "F#2",
          "ticks": 90624,
          "time": 135.73292052083332,
          "velocity": 0.33858267716535434
        },
        {
          "duration": 0.012135833333331902,
          "durationTicks": 8,
          "midi": 42,
          "name": "F#2",
          "ticks": 90816,
          "time": 136.02418052083334,
          "velocity": 0.3464566929133858
        },
        {
          "duration": 0.012135833333331902,
          "durationTicks": 8,
          "midi": 81,
          "name": "A5",
          "ticks": 90816,
          "time": 136.02418052083334,
          "velocity": 0.2677165354330709
        },
        {
          "duration": 0.012135833333331902,
          "durationTicks": 8,
          "midi": 37,
          "name": "C#2",
          "ticks": 90816,
          "time": 136.02418052083334,
          "velocity": 0.6456692913385826
        },
        {
          "duration": 0.012135833333331902,
          "durationTicks": 8,
          "midi": 42,
          "name": "F#2",
          "ticks": 91008,
          "time": 136.31544052083333,
          "velocity": 0.3543307086614173
        },
        {
          "duration": 0.012135833333331902,
          "durationTicks": 8,
          "midi": 35,
          "name": "B1",
          "ticks": 91200,
          "time": 136.60670052083333,
          "velocity": 0.6377952755905512
        },
        {
          "duration": 0.012135833333331902,
          "durationTicks": 8,
          "midi": 42,
          "name": "F#2",
          "ticks": 91200,
          "time": 136.60670052083333,
          "velocity": 0.33858267716535434
        },
        {
          "duration": 0.012135833333331902,
          "durationTicks": 8,
          "midi": 35,
          "name": "B1",
          "ticks": 91392,
          "time": 136.89796052083332,
          "velocity": 0.8110236220472441
        },
        {
          "duration": 0.012135833333331902,
          "durationTicks": 8,
          "midi": 42,
          "name": "F#2",
          "ticks": 91392,
          "time": 136.89796052083332,
          "velocity": 0.41732283464566927
        },
        {
          "duration": 0.012135833333360324,
          "durationTicks": 8,
          "midi": 42,
          "name": "F#2",
          "ticks": 91584,
          "time": 137.18922052083332,
          "velocity": 0.3543307086614173
        },
        {
          "duration": 0.012135833333331902,
          "durationTicks": 8,
          "midi": 42,
          "name": "F#2",
          "ticks": 91776,
          "time": 137.48048052083334,
          "velocity": 0.33858267716535434
        },
        {
          "duration": 0.012135833333331902,
          "durationTicks": 8,
          "midi": 37,
          "name": "C#2",
          "ticks": 91968,
          "time": 137.77174052083333,
          "velocity": 0.6456692913385826
        },
        {
          "duration": 0.012135833333331902,
          "durationTicks": 8,
          "midi": 42,
          "name": "F#2",
          "ticks": 91968,
          "time": 137.77174052083333,
          "velocity": 0.3464566929133858
        },
        {
          "duration": 0.012135833333331902,
          "durationTicks": 8,
          "midi": 81,
          "name": "A5",
          "ticks": 91968,
          "time": 137.77174052083333,
          "velocity": 0.2677165354330709
        },
        {
          "duration": 0.012135833333331902,
          "durationTicks": 8,
          "midi": 42,
          "name": "F#2",
          "ticks": 92160,
          "time": 138.06300052083333,
          "velocity": 0.3543307086614173
        },
        {
          "duration": 0.012135833333331902,
          "durationTicks": 8,
          "midi": 42,
          "name": "F#2",
          "ticks": 92352,
          "time": 138.35426052083332,
          "velocity": 0.33858267716535434
        },
        {
          "duration": 0.012135833333331902,
          "durationTicks": 8,
          "midi": 35,
          "name": "B1",
          "ticks": 92352,
          "time": 138.35426052083332,
          "velocity": 0.4881889763779528
        },
        {
          "duration": 0.012135833333360324,
          "durationTicks": 8,
          "midi": 46,
          "name": "A#2",
          "ticks": 92544,
          "time": 138.64552052083332,
          "velocity": 0.36220472440944884
        },
        {
          "duration": 0.012135833333360324,
          "durationTicks": 8,
          "midi": 35,
          "name": "B1",
          "ticks": 92544,
          "time": 138.64552052083332,
          "velocity": 0.6850393700787402
        }
      ],
      "endOfTrackTicks": 96768
    },
    {
      "channel": 0,
      "controlChanges": {},
      "pitchBends": [],
      "instrument": {
        "family": "piano",
        "number": 0,
        "name": "acoustic grand piano"
      },
      "name": "GS/RESET",
      "notes": [],
      "endOfTrackTicks": 6144
    }
  ]
}
