{
  "header": {
    "keySignatures": [
      {
        "key": "G",
        "scale": "major",
        "ticks": 0
      },
      {
        "key": "G",
        "scale": "major",
        "ticks": 0
      }
    ],
    "meta": [],
    "name": "Ash Like Snow \r\n-The Brilliant Green",
    "ppq": 480,
    "tempos": [
      {
        "bpm": 84.00525872919644,
        "ticks": 0
      },
      {
        "bpm": 84.00525872919644,
        "ticks": 0
      }
    ],
    "timeSignatures": [
      {
        "ticks": 0,
        "timeSignature": [
          4,
          4
        ],
        "measures": 0
      }
    ]
  },
  "tracks": [
    {
      "channel": 0,
      "controlChanges": {
        "0": [
          {
            "number": 0,
            "ticks": 0,
            "time": 0,
            "value": 0
          },
          {
            "number": 0,
            "ticks": 0,
            "time": 0,
            "value": 0
          }
        ],
        "1": [
          {
            "number": 1,
            "ticks": 0,
            "time": 0,
            "value": 0
          },
          {
            "number": 1,
            "ticks": 0,
            "time": 0,
            "value": 0
          }
        ],
        "7": [
          {
            "number": 7,
            "ticks": 0,
            "time": 0,
            "value": 1
          },
          {
            "number": 7,
            "ticks": 0,
            "time": 0,
            "value": 1
          },
          {
            "number": 7,
            "ticks": 86400,
            "time": 128.56338,
            "value": 0.7795275590551181
          },
          {
            "number": 7,
            "ticks": 101640,
            "time": 151.24053175,
            "value": 1
          },
          {
            "number": 7,
            "ticks": 101760,
            "time": 151.419092,
            "value": 0.7795275590551181
          }
        ],
        "10": [
          {
            "number": 10,
            "ticks": 0,
            "time": 0,
            "value": 0.5039370078740157
          },
          {
            "number": 10,
            "ticks": 0,
            "time": 0,
            "value": 0.5039370078740157
          }
        ],
        "32": [
          {
            "number": 32,
            "ticks": 0,
            "time": 0,
            "value": 0
          },
          {
            "number": 32,
            "ticks": 0,
            "time": 0,
            "value": 0
          }
        ],
        "64": [
          {
            "number": 64,
            "ticks": 0,
            "time": 0,
            "value": 0
          },
          {
            "number": 64,
            "ticks": 0,
            "time": 0,
            "value": 0
          },
          {
            "number": 64,
            "ticks": 88320,
            "time": 131.420344,
            "value": 1
          },
          {
            "number": 64,
            "ticks": 90142,
            "time": 134.13148379583333,
            "value": 0
          },
          {
            "number": 64,
            "ticks": 90240,
            "time": 134.277308,
            "value": 1
          },
          {
            "number": 64,
            "ticks": 92085,
            "time": 137.02267184375,
            "value": 0
          },
          {
            "number": 64,
            "ticks": 92160,
            "time": 137.134272,
            "value": 1
          },
          {
            "number": 64,
            "ticks": 93979,
            "time": 139.84094778958334,
            "value": 0
          },
          {
            "number": 64,
            "ticks": 163215,
            "time": 242.86426003125,
            "value": 1
          },
          {
            "number": 64,
            "ticks": 165120,
            "time": 245.698904,
            "value": 0
          }
        ],
        "67": [
          {
            "number": 67,
            "ticks": 0,
            "time": 0,
            "value": 0
          },
          {
            "number": 67,
            "ticks": 0,
            "time": 0,
            "value": 0
          },
          {
            "number": 67,
            "ticks": 94080,
            "time": 139.99123600000001,
            "value": 1
          },
          {
            "number": 67,
            "ticks": 101684,
            "time": 151.30600384166667,
            "value": 0
          }
        ],
        "91": [
          {
            "number": 91,
            "ticks": 0,
            "time": 0,
            "value": 0
          },
          {
            "number": 91,
            "ticks": 0,
            "time": 0,
            "value": 0
          }
        ],
        "93": [
          {
            "number": 93,
            "ticks": 0,
            "time": 0,
            "value": 0
          },
          {
            "number": 93,
            "ticks": 0,
            "time": 0,
            "value": 0
          }
        ]
      },
      "pitchBends": [],
      "instrument": {
        "family": "piano",
        "number": 0,
        "name": "acoustic grand piano"
      },
      "name": "Ash Like Snow \r\n-The Brilliant Green",
      "notes": [
        {
          "duration": 0.67852895,
          "durationTicks": 456,
          "midi": 57,
          "name": "A3",
          "ticks": 1440,
          "time": 2.142723,
          "velocity": 0.7874015748031497
        },
        {
          "duration": 0.67852895,
          "durationTicks": 456,
          "midi": 59,
          "name": "B3",
          "ticks": 1920,
          "time": 2.856964,
          "velocity": 0.7874015748031497
        },
        {
          "duration": 0.3392644749999998,
          "durationTicks": 228,
          "midi": 52,
          "name": "E3",
          "ticks": 1920,
          "time": 2.856964,
          "velocity": 0.7874015748031497
        },
        {
          "duration": 0.3392644749999998,
          "durationTicks": 228,
          "midi": 40,
          "name": "E2",
          "ticks": 1920,
          "time": 2.856964,
          "velocity": 0.7874015748031497
        },
        {
          "duration": 0.3392644749999998,
          "durationTicks": 228,
          "midi": 52,
          "name": "E3",
          "ticks": 2160,
          "time": 3.2140845000000002,
          "velocity": 0.7874015748031497
        },
        {
          "duration": 0.3392644749999998,
          "durationTicks": 228,
          "midi": 40,
          "name": "E2",
          "ticks": 2160,
          "time": 3.2140845000000002,
          "velocity": 0.7874015748031497
        },
        {
          "duration": 0.3392644749999998,
          "durationTicks": 228,
          "midi": 52,
          "name": "E3",
          "ticks": 2400,
          "time": 3.571205,
          "velocity": 0.7874015748031497
        },
        {
          "duration": 0.3392644749999998,
          "durationTicks": 228,
          "midi": 40,
          "name": "E2",
          "ticks": 2400,
          "time": 3.571205,
          "velocity": 0.7874015748031497
        },
        {
          "duration": 0.16963223749999967,
          "durationTicks": 114,
          "midi": 55,
          "name": "G3",
          "ticks": 2640,
          "time": 3.9283255,
          "velocity": 0.7874015748031497
        },
        {
          "duration": 0.3392644749999998,
          "durationTicks": 228,
          "midi": 52,
          "name": "E3",
          "ticks": 2640,
          "time": 3.9283255,
          "velocity": 0.7874015748031497
        },
        {
          "duration": 0.3392644749999998,
          "durationTicks": 228,
          "midi": 40,
          "name": "E2",
          "ticks": 2640,
          "time": 3.9283255,
          "velocity": 0.7874015748031497
        },
        {
          "duration": 0.5088967125000003,
          "durationTicks": 342,
          "midi": 62,
          "name": "D4",
          "ticks": 2760,
          "time": 4.10688575,
          "velocity": 0.7874015748031497
        },
        {
          "duration": 0.33926447499999934,
          "durationTicks": 228,
          "midi": 48,
          "name": "C3",
          "ticks": 2880,
          "time": 4.285446,
          "velocity": 0.7874015748031497
        },
        {
          "duration": 0.33926447499999934,
          "durationTicks": 228,
          "midi": 36,
          "name": "C2",
          "ticks": 2880,
          "time": 4.285446,
          "velocity": 0.7874015748031497
        },
        {
          "duration": 0.16963223750000012,
          "durationTicks": 114,
          "midi": 60,
          "name": "C4",
          "ticks": 3120,
          "time": 4.6425665,
          "velocity": 0.7874015748031497
        },
        {
          "duration": 0.33926447500000023,
          "durationTicks": 228,
          "midi": 48,
          "name": "C3",
          "ticks": 3120,
          "time": 4.6425665,
          "velocity": 0.7874015748031497
        },
        {
          "duration": 0.33926447500000023,
          "durationTicks": 228,
          "midi": 36,
          "name": "C2",
          "ticks": 3120,
          "time": 4.6425665,
          "velocity": 0.7874015748031497
        },
        {
          "duration": 0.33926447499999934,
          "durationTicks": 228,
          "midi": 59,
          "name": "B3",
          "ticks": 3240,
          "time": 4.82112675,
          "velocity": 0.7874015748031497
        },
        {
          "duration": 0.33926447500000023,
          "durationTicks": 228,
          "midi": 48,
          "name": "C3",
          "ticks": 3360,
          "time": 4.999687,
          "velocity": 0.7874015748031497
        },
        {
          "duration": 0.33926447500000023,
          "durationTicks": 228,
          "midi": 36,
          "name": "C2",
          "ticks": 3360,
          "time": 4.999687,
          "velocity": 0.7874015748031497
        },
        {
          "duration": 0.33926447499999934,
          "durationTicks": 228,
          "midi": 57,
          "name": "A3",
          "ticks": 3480,
          "time": 5.17824725,
          "velocity": 0.7874015748031497
        },
        {
          "duration": 0.33926447499999934,
          "durationTicks": 228,
          "midi": 48,
          "name": "C3",
          "ticks": 3600,
          "time": 5.3568075,
          "velocity": 0.7874015748031497
        },
        {
          "duration": 0.33926447499999934,
          "durationTicks": 228,
          "midi": 36,
          "name": "C2",
          "ticks": 3600,
          "time": 5.3568075,
          "velocity": 0.7874015748031497
        },
        {
          "duration": 0.8838732375000005,
          "durationTicks": 594,
          "midi": 59,
          "name": "B3",
          "ticks": 3720,
          "time": 5.53536775,
          "velocity": 0.7874015748031497
        },
        {
          "duration": 0.33926447499999934,
          "durationTicks": 228,
          "midi": 55,
          "name": "G3",
          "ticks": 3840,
          "time": 5.713928,
          "velocity": 0.7874015748031497
        },
        {
          "duration": 0.33926447499999934,
          "durationTicks": 228,
          "midi": 43,
          "name": "G2",
          "ticks": 3840,
          "time": 5.713928,
          "velocity": 0.7874015748031497
        },
        {
          "duration": 0.33926447500000023,
          "durationTicks": 228,
          "midi": 55,
          "name": "G3",
          "ticks": 4080,
          "time": 6.0710485,
          "velocity": 0.7874015748031497
        },
        {
          "duration": 0.33926447500000023,
          "durationTicks": 228,
          "midi": 43,
          "name": "G2",
          "ticks": 4080,
          "time": 6.0710485,
          "velocity": 0.7874015748031497
        },
        {
          "duration": 0.33926447499999934,
          "durationTicks": 228,
          "midi": 55,
          "name": "G3",
          "ticks": 4320,
          "time": 6.4281690000000005,
          "velocity": 0.7874015748031497
        },
        {
          "duration": 0.33926447499999934,
          "durationTicks": 228,
          "midi": 43,
          "name": "G2",
          "ticks": 4320,
          "time": 6.4281690000000005,
          "velocity": 0.7874015748031497
        },
        {
          "duration": 0.33926447499999934,
          "durationTicks": 228,
          "midi": 55,
          "name": "G3",
          "ticks": 4560,
          "time": 6.7852895,
          "velocity": 0.7874015748031497
        },
        {
          "duration": 0.33926447499999934,
          "durationTicks": 228,
          "midi": 55,
          "name": "G3",
          "ticks": 4560,
          "time": 6.7852895,
          "velocity": 0.7874015748031497
        },
        {
          "duration": 0.33926447499999934,
          "durationTicks": 228,
          "midi": 43,
          "name": "G2",
          "ticks": 4560,
          "time": 6.7852895,
          "velocity": 0.7874015748031497
        },
        {
          "duration": 0.33926447500000023,
          "durationTicks": 228,
          "midi": 55,
          "name": "G3",
          "ticks": 4800,
          "time": 7.14241,
          "velocity": 0.7874015748031497
        },
        {
          "duration": 0.33926447500000023,
          "durationTicks": 228,
          "midi": 50,
          "name": "D3",
          "ticks": 4800,
          "time": 7.14241,
          "velocity": 0.7874015748031497
        },
        {
          "duration": 0.33926447500000023,
          "durationTicks": 228,
          "midi": 38,
          "name": "D2",
          "ticks": 4800,
          "time": 7.14241,
          "velocity": 0.7874015748031497
        },
        {
          "duration": 0.33926447499999934,
          "durationTicks": 228,
          "midi": 55,
          "name": "G3",
          "ticks": 5040,
          "time": 7.4995305000000005,
          "velocity": 0.7874015748031497
        },
        {
          "duration": 0.33926447499999934,
          "durationTicks": 228,
          "midi": 50,
          "name": "D3",
          "ticks": 5040,
          "time": 7.4995305000000005,
          "velocity": 0.7874015748031497
        },
        {
          "duration": 0.33926447499999934,
          "durationTicks": 228,
          "midi": 38,
          "name": "D2",
          "ticks": 5040,
          "time": 7.4995305000000005,
          "velocity": 0.7874015748031497
        },
        {
          "duration": 0.33926447499999934,
          "durationTicks": 228,
          "midi": 57,
          "name": "A3",
          "ticks": 5280,
          "time": 7.856651,
          "velocity": 0.7874015748031497
        },
        {
          "duration": 0.33926447499999934,
          "durationTicks": 228,
          "midi": 50,
          "name": "D3",
          "ticks": 5280,
          "time": 7.856651,
          "velocity": 0.7874015748031497
        },
        {
          "duration": 0.33926447499999934,
          "durationTicks": 228,
          "midi": 38,
          "name": "D2",
          "ticks": 5280,
          "time": 7.856651,
          "velocity": 0.7874015748031497
        },
        {
          "duration": 0.33926447500000023,
          "durationTicks": 228,
          "midi": 60,
          "name": "C4",
          "ticks": 5520,
          "time": 8.2137715,
          "velocity": 0.7874015748031497
        },
        {
          "duration": 0.33926447500000023,
          "durationTicks": 228,
          "midi": 50,
          "name": "D3",
          "ticks": 5520,
          "time": 8.2137715,
          "velocity": 0.7874015748031497
        },
        {
          "duration": 0.33926447500000023,
          "durationTicks": 228,
          "midi": 38,
          "name": "D2",
          "ticks": 5520,
          "time": 8.2137715,
          "velocity": 0.7874015748031497
        },
        {
          "duration": 0.33926447499999846,
          "durationTicks": 228,
          "midi": 59,
          "name": "B3",
          "ticks": 5760,
          "time": 8.570892,
          "velocity": 0.7874015748031497
        },
        {
          "duration": 0.33926447499999846,
          "durationTicks": 228,
          "midi": 52,
          "name": "E3",
          "ticks": 5760,
          "time": 8.570892,
          "velocity": 0.7874015748031497
        },
        {
          "duration": 0.33926447499999846,
          "durationTicks": 228,
          "midi": 40,
          "name": "E2",
          "ticks": 5760,
          "time": 8.570892,
          "velocity": 0.7874015748031497
        },
        {
          "duration": 0.33926447500000023,
          "durationTicks": 228,
          "midi": 55,
          "name": "G3",
          "ticks": 6000,
          "time": 8.9280125,
          "velocity": 0.7874015748031497
        },
        {
          "duration": 0.33926447500000023,
          "durationTicks": 228,
          "midi": 52,
          "name": "E3",
          "ticks": 6000,
          "time": 8.9280125,
          "velocity": 0.7874015748031497
        },
        {
          "duration": 0.33926447500000023,
          "durationTicks": 228,
          "midi": 40,
          "name": "E2",
          "ticks": 6000,
          "time": 8.9280125,
          "velocity": 0.7874015748031497
        },
        {
          "duration": 0.33926447500000023,
          "durationTicks": 228,
          "midi": 52,
          "name": "E3",
          "ticks": 6240,
          "time": 9.285133,
          "velocity": 0.7874015748031497
        },
        {
          "duration": 0.33926447500000023,
          "durationTicks": 228,
          "midi": 40,
          "name": "E2",
          "ticks": 6240,
          "time": 9.285133,
          "velocity": 0.7874015748031497
        },
        {
          "duration": 0.33926447499999846,
          "durationTicks": 228,
          "midi": 55,
          "name": "G3",
          "ticks": 6480,
          "time": 9.6422535,
          "velocity": 0.7874015748031497
        },
        {
          "duration": 0.33926447499999846,
          "durationTicks": 228,
          "midi": 52,
          "name": "E3",
          "ticks": 6480,
          "time": 9.6422535,
          "velocity": 0.7874015748031497
        },
        {
          "duration": 0.33926447499999846,
          "durationTicks": 228,
          "midi": 40,
          "name": "E2",
          "ticks": 6480,
          "time": 9.6422535,
          "velocity": 0.7874015748031497
        },
        {
          "duration": 0.33926447500000023,
          "durationTicks": 228,
          "midi": 55,
          "name": "G3",
          "ticks": 6720,
          "time": 9.999374,
          "velocity": 0.7874015748031497
        },
        {
          "duration": 0.33926447500000023,
          "durationTicks": 228,
          "midi": 48,
          "name": "C3",
          "ticks": 6720,
          "time": 9.999374,
          "velocity": 0.7874015748031497
        },
        {
          "duration": 0.33926447500000023,
          "durationTicks": 228,
          "midi": 36,
          "name": "C2",
          "ticks": 6720,
          "time": 9.999374,
          "velocity": 0.7874015748031497
        },
        {
          "duration": 0.33926447500000023,
          "durationTicks": 228,
          "midi": 55,
          "name": "G3",
          "ticks": 6960,
          "time": 10.3564945,
          "velocity": 0.7874015748031497
        },
        {
          "duration": 0.33926447500000023,
          "durationTicks": 228,
          "midi": 48,
          "name": "C3",
          "ticks": 6960,
          "time": 10.3564945,
          "velocity": 0.7874015748031497
        },
        {
          "duration": 0.33926447500000023,
          "durationTicks": 228,
          "midi": 36,
          "name": "C2",
          "ticks": 6960,
          "time": 10.3564945,
          "velocity": 0.7874015748031497
        },
        {
          "duration": 0.33926447499999846,
          "durationTicks": 228,
          "midi": 57,
          "name": "A3",
          "ticks": 7200,
          "time": 10.713615,
          "velocity": 0.7874015748031497
        },
        {
          "duration": 0.33926447499999846,
          "durationTicks": 228,
          "midi": 48,
          "name": "C3",
          "ticks": 7200,
          "time": 10.713615,
          "velocity": 0.7874015748031497
        },
        {
          "duration": 0.33926447499999846,
          "durationTicks": 228,
          "midi": 36,
          "name": "C2",
          "ticks": 7200,
          "time": 10.713615,
          "velocity": 0.7874015748031497
        },
        {
          "duration": 0.33926447500000023,
          "durationTicks": 228,
          "midi": 54,
          "name": "F#3",
          "ticks": 7440,
          "time": 11.0707355,
          "velocity": 0.7874015748031497
        },
        {
          "duration": 0.33926447500000023,
          "durationTicks": 228,
          "midi": 48,
          "name": "C3",
          "ticks": 7440,
          "time": 11.0707355,
          "velocity": 0.7874015748031497
        },
        {
          "duration": 0.33926447500000023,
          "durationTicks": 228,
          "midi": 36,
          "name": "C2",
          "ticks": 7440,
          "time": 11.0707355,
          "velocity": 0.7874015748031497
        },
        {
          "duration": 0.33926447500000023,
          "durationTicks": 228,
          "midi": 55,
          "name": "G3",
          "ticks": 7680,
          "time": 11.427856,
          "velocity": 0.7874015748031497
        },
        {
          "duration": 0.6785289499999987,
          "durationTicks": 456,
          "midi": 55,
          "name": "G3",
          "ticks": 7680,
          "time": 11.427856,
          "velocity": 0.7874015748031497
        },
        {
          "duration": 0.33926447500000023,
          "durationTicks": 228,
          "midi": 43,
          "name": "G2",
          "ticks": 7680,
          "time": 11.427856,
          "velocity": 0.7874015748031497
        },
        {
          "duration": 0.33926447500000023,
          "durationTicks": 228,
          "midi": 55,
          "name": "G3",
          "ticks": 7920,
          "time": 11.7849765,
          "velocity": 0.7874015748031497
        },
        {
          "duration": 0.33926447500000023,
          "durationTicks": 228,
          "midi": 43,
          "name": "G2",
          "ticks": 7920,
          "time": 11.7849765,
          "velocity": 0.7874015748031497
        },
        {
          "duration": 0.339264475000002,
          "durationTicks": 228,
          "midi": 55,
          "name": "G3",
          "ticks": 8160,
          "time": 12.142097,
          "velocity": 0.7874015748031497
        },
        {
          "duration": 0.339264475000002,
          "durationTicks": 228,
          "midi": 43,
          "name": "G2",
          "ticks": 8160,
          "time": 12.142097,
          "velocity": 0.7874015748031497
        },
        {
          "duration": 0.33926447500000023,
          "durationTicks": 228,
          "midi": 50,
          "name": "D3",
          "ticks": 8400,
          "time": 12.4992175,
          "velocity": 0.7874015748031497
        },
        {
          "duration": 0.33926447500000023,
          "durationTicks": 228,
          "midi": 55,
          "name": "G3",
          "ticks": 8400,
          "time": 12.4992175,
          "velocity": 0.7874015748031497
        },
        {
          "duration": 0.33926447500000023,
          "durationTicks": 228,
          "midi": 43,
          "name": "G2",
          "ticks": 8400,
          "time": 12.4992175,
          "velocity": 0.7874015748031497
        },
        {
          "duration": 0.33926447500000023,
          "durationTicks": 228,
          "midi": 62,
          "name": "D4",
          "ticks": 8640,
          "time": 12.856338000000001,
          "velocity": 0.7874015748031497
        },
        {
          "duration": 0.33926447500000023,
          "durationTicks": 228,
          "midi": 50,
          "name": "D3",
          "ticks": 8640,
          "time": 12.856338000000001,
          "velocity": 0.7874015748031497
        },
        {
          "duration": 0.33926447500000023,
          "durationTicks": 228,
          "midi": 38,
          "name": "D2",
          "ticks": 8640,
          "time": 12.856338000000001,
          "velocity": 0.7874015748031497
        },
        {
          "duration": 0.1696322375000019,
          "durationTicks": 114,
          "midi": 64,
          "name": "E4",
          "ticks": 8880,
          "time": 13.2134585,
          "velocity": 0.7874015748031497
        },
        {
          "duration": 0.339264475000002,
          "durationTicks": 228,
          "midi": 50,
          "name": "D3",
          "ticks": 8880,
          "time": 13.2134585,
          "velocity": 0.7874015748031497
        },
        {
          "duration": 0.339264475000002,
          "durationTicks": 228,
          "midi": 38,
          "name": "D2",
          "ticks": 8880,
          "time": 13.2134585,
          "velocity": 0.7874015748031497
        },
        {
          "duration": 0.339264475000002,
          "durationTicks": 228,
          "midi": 59,
          "name": "B3",
          "ticks": 9000,
          "time": 13.39201875,
          "velocity": 0.7874015748031497
        },
        {
          "duration": 0.33926447500000023,
          "durationTicks": 228,
          "midi": 50,
          "name": "D3",
          "ticks": 9120,
          "time": 13.570579,
          "velocity": 0.7874015748031497
        },
        {
          "duration": 0.33926447500000023,
          "durationTicks": 228,
          "midi": 38,
          "name": "D2",
          "ticks": 9120,
          "time": 13.570579,
          "velocity": 0.7874015748031497
        },
        {
          "duration": 0.33926447500000023,
          "durationTicks": 228,
          "midi": 57,
          "name": "A3",
          "ticks": 9240,
          "time": 13.74913925,
          "velocity": 0.7874015748031497
        },
        {
          "duration": 0.33926447500000023,
          "durationTicks": 228,
          "midi": 50,
          "name": "D3",
          "ticks": 9360,
          "time": 13.927699500000001,
          "velocity": 0.7874015748031497
        },
        {
          "duration": 0.33926447500000023,
          "durationTicks": 228,
          "midi": 38,
          "name": "D2",
          "ticks": 9360,
          "time": 13.927699500000001,
          "velocity": 0.7874015748031497
        },
        {
          "duration": 0.8838732375000014,
          "durationTicks": 594,
          "midi": 59,
          "name": "B3",
          "ticks": 9480,
          "time": 14.10625975,
          "velocity": 0.7874015748031497
        },
        {
          "duration": 0.339264475000002,
          "durationTicks": 228,
          "midi": 52,
          "name": "E3",
          "ticks": 9600,
          "time": 14.28482,
          "velocity": 0.7874015748031497
        },
        {
          "duration": 0.339264475000002,
          "durationTicks": 228,
          "midi": 40,
          "name": "E2",
          "ticks": 9600,
          "time": 14.28482,
          "velocity": 0.7874015748031497
        },
        {
          "duration": 0.33926447500000023,
          "durationTicks": 228,
          "midi": 52,
          "name": "E3",
          "ticks": 9840,
          "time": 14.6419405,
          "velocity": 0.7874015748031497
        },
        {
          "duration": 0.33926447500000023,
          "durationTicks": 228,
          "midi": 40,
          "name": "E2",
          "ticks": 9840,
          "time": 14.6419405,
          "velocity": 0.7874015748031497
        },
        {
          "duration": 0.33926447500000023,
          "durationTicks": 228,
          "midi": 52,
          "name": "E3",
          "ticks": 10080,
          "time": 14.999061000000001,
          "velocity": 0.7874015748031497
        },
        {
          "duration": 0.33926447500000023,
          "durationTicks": 228,
          "midi": 40,
          "name": "E2",
          "ticks": 10080,
          "time": 14.999061000000001,
          "velocity": 0.7874015748031497
        },
        {
          "duration": 0.339264475000002,
          "durationTicks": 228,
          "midi": 64,
          "name": "E4",
          "ticks": 10320,
          "time": 15.3561815,
          "velocity": 0.7874015748031497
        },
        {
          "duration": 0.339264475000002,
          "durationTicks": 228,
          "midi": 52,
          "name": "E3",
          "ticks": 10320,
          "time": 15.3561815,
          "velocity": 0.7874015748031497
        },
        {
          "duration": 0.339264475000002,
          "durationTicks": 228,
          "midi": 40,
          "name": "E2",
          "ticks": 10320,
          "time": 15.3561815,
          "velocity": 0.7874015748031497
        },
        {
          "duration": 0.6785289499999987,
          "durationTicks": 456,
          "midi": 66,
          "name": "F#4",
          "ticks": 10560,
          "time": 15.713302,
          "velocity": 0.7874015748031497
        },
        {
          "duration": 0.339264475000002,
          "durationTicks": 228,
          "midi": 48,
          "name": "C3",
          "ticks": 10560,
          "time": 15.713302,
          "velocity": 0.7874015748031497
        },
        {
          "duration": 0.339264475000002,
          "durationTicks": 228,
          "midi": 36,
          "name": "C2",
          "ticks": 10560,
          "time": 15.713302,
          "velocity": 0.7874015748031497
        },
        {
          "duration": 0.33926447500000023,
          "durationTicks": 228,
          "midi": 48,
          "name": "C3",
          "ticks": 10800,
          "time": 16.0704225,
          "velocity": 0.7874015748031497
        },
        {
          "duration": 0.33926447500000023,
          "durationTicks": 228,
          "midi": 36,
          "name": "C2",
          "ticks": 10800,
          "time": 16.0704225,
          "velocity": 0.7874015748031497
        },
        {
          "duration": 0.16963223750000012,
          "durationTicks": 114,
          "midi": 66,
          "name": "F#4",
          "ticks": 11040,
          "time": 16.427543,
          "velocity": 0.7874015748031497
        },
        {
          "duration": 0.33926447500000023,
          "durationTicks": 228,
          "midi": 48,
          "name": "C3",
          "ticks": 11040,
          "time": 16.427543,
          "velocity": 0.7874015748031497
        },
        {
          "duration": 0.33926447500000023,
          "durationTicks": 228,
          "midi": 36,
          "name": "C2",
          "ticks": 11040,
          "time": 16.427543,
          "velocity": 0.7874015748031497
        },
        {
          "duration": 0.33926447500000023,
          "durationTicks": 228,
          "midi": 64,
          "name": "E4",
          "ticks": 11160,
          "time": 16.60610325,
          "velocity": 0.7874015748031497
        },
        {
          "duration": 0.33926447500000023,
          "durationTicks": 228,
          "midi": 48,
          "name": "C3",
          "ticks": 11280,
          "time": 16.7846635,
          "velocity": 0.7874015748031497
        },
        {
          "duration": 0.33926447500000023,
          "durationTicks": 228,
          "midi": 36,
          "name": "C2",
          "ticks": 11280,
          "time": 16.7846635,
          "velocity": 0.7874015748031497
        },
        {
          "duration": 0.8838732375000014,
          "durationTicks": 594,
          "midi": 59,
          "name": "B3",
          "ticks": 11400,
          "time": 16.96322375,
          "velocity": 0.7874015748031497
        },
        {
          "duration": 0.33926447500000023,
          "durationTicks": 228,
          "midi": 55,
          "name": "G3",
          "ticks": 11520,
          "time": 17.141784,
          "velocity": 0.7874015748031497
        },
        {
          "duration": 0.33926447500000023,
          "durationTicks": 228,
          "midi": 43,
          "name": "G2",
          "ticks": 11520,
          "time": 17.141784,
          "velocity": 0.7874015748031497
        },
        {
          "duration": 0.33926447500000023,
          "durationTicks": 228,
          "midi": 55,
          "name": "G3",
          "ticks": 11760,
          "time": 17.498904500000002,
          "velocity": 0.7874015748031497
        },
        {
          "duration": 0.33926447500000023,
          "durationTicks": 228,
          "midi": 43,
          "name": "G2",
          "ticks": 11760,
          "time": 17.498904500000002,
          "velocity": 0.7874015748031497
        },
        {
          "duration": 0.3392644750000038,
          "durationTicks": 228,
          "midi": 55,
          "name": "G3",
          "ticks": 12000,
          "time": 17.856025,
          "velocity": 0.7874015748031497
        },
        {
          "duration": 0.3392644750000038,
          "durationTicks": 228,
          "midi": 43,
          "name": "G2",
          "ticks": 12000,
          "time": 17.856025,
          "velocity": 0.7874015748031497
        },
        {
          "duration": 0.33926447500000023,
          "durationTicks": 228,
          "midi": 55,
          "name": "G3",
          "ticks": 12240,
          "time": 18.2131455,
          "velocity": 0.7874015748031497
        },
        {
          "duration": 0.33926447500000023,
          "durationTicks": 228,
          "midi": 55,
          "name": "G3",
          "ticks": 12240,
          "time": 18.2131455,
          "velocity": 0.7874015748031497
        },
        {
          "duration": 0.33926447500000023,
          "durationTicks": 228,
          "midi": 43,
          "name": "G2",
          "ticks": 12240,
          "time": 18.2131455,
          "velocity": 0.7874015748031497
        },
        {
          "duration": 0.33926447500000023,
          "durationTicks": 228,
          "midi": 55,
          "name": "G3",
          "ticks": 12480,
          "time": 18.570266,
          "velocity": 0.7874015748031497
        },
        {
          "duration": 0.33926447500000023,
          "durationTicks": 228,
          "midi": 50,
          "name": "D3",
          "ticks": 12480,
          "time": 18.570266,
          "velocity": 0.7874015748031497
        },
        {
          "duration": 0.33926447500000023,
          "durationTicks": 228,
          "midi": 38,
          "name": "D2",
          "ticks": 12480,
          "time": 18.570266,
          "velocity": 0.7874015748031497
        },
        {
          "duration": 0.33926447500000023,
          "durationTicks": 228,
          "midi": 55,
          "name": "G3",
          "ticks": 12720,
          "time": 18.9273865,
          "velocity": 0.7874015748031497
        },
        {
          "duration": 0.33926447500000023,
          "durationTicks": 228,
          "midi": 50,
          "name": "D3",
          "ticks": 12720,
          "time": 18.9273865,
          "velocity": 0.7874015748031497
        },
        {
          "duration": 0.33926447500000023,
          "durationTicks": 228,
          "midi": 38,
          "name": "D2",
          "ticks": 12720,
          "time": 18.9273865,
          "velocity": 0.7874015748031497
        },
        {
          "duration": 0.33926447500000023,
          "durationTicks": 228,
          "midi": 57,
          "name": "A3",
          "ticks": 12960,
          "time": 19.284507,
          "velocity": 0.7874015748031497
        },
        {
          "duration": 0.33926447500000023,
          "durationTicks": 228,
          "midi": 50,
          "name": "D3",
          "ticks": 12960,
          "time": 19.284507,
          "velocity": 0.7874015748031497
        },
        {
          "duration": 0.33926447500000023,
          "durationTicks": 228,
          "midi": 38,
          "name": "D2",
          "ticks": 12960,
          "time": 19.284507,
          "velocity": 0.7874015748031497
        },
        {
          "duration": 0.33926447500000023,
          "durationTicks": 228,
          "midi": 60,
          "name": "C4",
          "ticks": 13200,
          "time": 19.641627500000002,
          "velocity": 0.7874015748031497
        },
        {
          "duration": 0.33926447500000023,
          "durationTicks": 228,
          "midi": 50,
          "name": "D3",
          "ticks": 13200,
          "time": 19.641627500000002,
          "velocity": 0.7874015748031497
        },
        {
          "duration": 0.33926447500000023,
          "durationTicks": 228,
          "midi": 38,
          "name": "D2",
          "ticks": 13200,
          "time": 19.641627500000002,
          "velocity": 0.7874015748031497
        },
        {
          "duration": 0.5088967125000003,
          "durationTicks": 342,
          "midi": 59,
          "name": "B3",
          "ticks": 13440,
          "time": 19.998748,
          "velocity": 0.7874015748031497
        },
        {
          "duration": 0.3392644750000038,
          "durationTicks": 228,
          "midi": 52,
          "name": "E3",
          "ticks": 13440,
          "time": 19.998748,
          "velocity": 0.7874015748031497
        },
        {
          "duration": 0.3392644750000038,
          "durationTicks": 228,
          "midi": 40,
          "name": "E2",
          "ticks": 13440,
          "time": 19.998748,
          "velocity": 0.7874015748031497
        },
        {
          "duration": 0.33926447500000023,
          "durationTicks": 228,
          "midi": 52,
          "name": "E3",
          "ticks": 13680,
          "time": 20.3558685,
          "velocity": 0.7874015748031497
        },
        {
          "duration": 0.33926447500000023,
          "durationTicks": 228,
          "midi": 40,
          "name": "E2",
          "ticks": 13680,
          "time": 20.3558685,
          "velocity": 0.7874015748031497
        },
        {
          "duration": 0.16963223750000012,
          "durationTicks": 114,
          "midi": 55,
          "name": "G3",
          "ticks": 13800,
          "time": 20.53442875,
          "velocity": 0.7874015748031497
        },
        {
          "duration": 0.6785289500000005,
          "durationTicks": 456,
          "midi": 55,
          "name": "G3",
          "ticks": 13920,
          "time": 20.712989,
          "velocity": 0.7874015748031497
        },
        {
          "duration": 0.33926447500000023,
          "durationTicks": 228,
          "midi": 52,
          "name": "E3",
          "ticks": 13920,
          "time": 20.712989,
          "velocity": 0.7874015748031497
        },
        {
          "duration": 0.33926447500000023,
          "durationTicks": 228,
          "midi": 40,
          "name": "E2",
          "ticks": 13920,
          "time": 20.712989,
          "velocity": 0.7874015748031497
        },
        {
          "duration": 0.33926447500000023,
          "durationTicks": 228,
          "midi": 52,
          "name": "E3",
          "ticks": 14160,
          "time": 21.0701095,
          "velocity": 0.7874015748031497
        },
        {
          "duration": 0.33926447500000023,
          "durationTicks": 228,
          "midi": 40,
          "name": "E2",
          "ticks": 14160,
          "time": 21.0701095,
          "velocity": 0.7874015748031497
        },
        {
          "duration": 0.6785289499999969,
          "durationTicks": 456,
          "midi": 54,
          "name": "F#3",
          "ticks": 14400,
          "time": 21.42723,
          "velocity": 0.7874015748031497
        },
        {
          "duration": 0.33926447500000023,
          "durationTicks": 228,
          "midi": 48,
          "name": "C3",
          "ticks": 14400,
          "time": 21.42723,
          "velocity": 0.7874015748031497
        },
        {
          "duration": 0.33926447500000023,
          "durationTicks": 228,
          "midi": 36,
          "name": "C2",
          "ticks": 14400,
          "time": 21.42723,
          "velocity": 0.7874015748031497
        },
        {
          "duration": 0.33926447500000023,
          "durationTicks": 228,
          "midi": 48,
          "name": "C3",
          "ticks": 14640,
          "time": 21.784350500000002,
          "velocity": 0.7874015748031497
        },
        {
          "duration": 0.33926447500000023,
          "durationTicks": 228,
          "midi": 36,
          "name": "C2",
          "ticks": 14640,
          "time": 21.784350500000002,
          "velocity": 0.7874015748031497
        },
        {
          "duration": 0.3392644750000038,
          "durationTicks": 228,
          "midi": 54,
          "name": "F#3",
          "ticks": 14880,
          "time": 22.141471,
          "velocity": 0.7874015748031497
        },
        {
          "duration": 0.3392644750000038,
          "durationTicks": 228,
          "midi": 48,
          "name": "C3",
          "ticks": 14880,
          "time": 22.141471,
          "velocity": 0.7874015748031497
        },
        {
          "duration": 0.3392644750000038,
          "durationTicks": 228,
          "midi": 36,
          "name": "C2",
          "ticks": 14880,
          "time": 22.141471,
          "velocity": 0.7874015748031497
        },
        {
          "duration": 0.33926447500000023,
          "durationTicks": 228,
          "midi": 57,
          "name": "A3",
          "ticks": 15120,
          "time": 22.4985915,
          "velocity": 0.7874015748031497
        },
        {
          "duration": 0.33926447500000023,
          "durationTicks": 228,
          "midi": 48,
          "name": "C3",
          "ticks": 15120,
          "time": 22.4985915,
          "velocity": 0.7874015748031497
        },
        {
          "duration": 0.33926447500000023,
          "durationTicks": 228,
          "midi": 36,
          "name": "C2",
          "ticks": 15120,
          "time": 22.4985915,
          "velocity": 0.7874015748031497
        },
        {
          "duration": 0.6785289500000005,
          "durationTicks": 456,
          "midi": 57,
          "name": "A3",
          "ticks": 15360,
          "time": 22.855712,
          "velocity": 0.7874015748031497
        },
        {
          "duration": 0.33926447500000023,
          "durationTicks": 228,
          "midi": 55,
          "name": "G3",
          "ticks": 15360,
          "time": 22.855712,
          "velocity": 0.7874015748031497
        },
        {
          "duration": 0.33926447500000023,
          "durationTicks": 228,
          "midi": 43,
          "name": "G2",
          "ticks": 15360,
          "time": 22.855712,
          "velocity": 0.7874015748031497
        },
        {
          "duration": 0.33926447500000023,
          "durationTicks": 228,
          "midi": 55,
          "name": "G3",
          "ticks": 15600,
          "time": 23.2128325,
          "velocity": 0.7874015748031497
        },
        {
          "duration": 0.33926447500000023,
          "durationTicks": 228,
          "midi": 43,
          "name": "G2",
          "ticks": 15600,
          "time": 23.2128325,
          "velocity": 0.7874015748031497
        },
        {
          "duration": 0.33926447500000023,
          "durationTicks": 228,
          "midi": 55,
          "name": "G3",
          "ticks": 15840,
          "time": 23.569953,
          "velocity": 0.7874015748031497
        },
        {
          "duration": 0.33926447500000023,
          "durationTicks": 228,
          "midi": 55,
          "name": "G3",
          "ticks": 15840,
          "time": 23.569953,
          "velocity": 0.7874015748031497
        },
        {
          "duration": 0.33926447500000023,
          "durationTicks": 228,
          "midi": 43,
          "name": "G2",
          "ticks": 15840,
          "time": 23.569953,
          "velocity": 0.7874015748031497
        },
        {
          "duration": 0.3392644750000038,
          "durationTicks": 228,
          "midi": 55,
          "name": "G3",
          "ticks": 16080,
          "time": 23.9270735,
          "velocity": 0.7874015748031497
        },
        {
          "duration": 0.3392644750000038,
          "durationTicks": 228,
          "midi": 43,
          "name": "G2",
          "ticks": 16080,
          "time": 23.9270735,
          "velocity": 0.7874015748031497
        },
        {
          "duration": 0.678528950000004,
          "durationTicks": 456,
          "midi": 57,
          "name": "A3",
          "ticks": 16320,
          "time": 24.284194,
          "velocity": 0.7874015748031497
        },
        {
          "duration": 0.3392644750000038,
          "durationTicks": 228,
          "midi": 50,
          "name": "D3",
          "ticks": 16320,
          "time": 24.284194,
          "velocity": 0.7874015748031497
        },
        {
          "duration": 0.3392644750000038,
          "durationTicks": 228,
          "midi": 38,
          "name": "D2",
          "ticks": 16320,
          "time": 24.284194,
          "velocity": 0.7874015748031497
        },
        {
          "duration": 0.33926447500000023,
          "durationTicks": 228,
          "midi": 50,
          "name": "D3",
          "ticks": 16560,
          "time": 24.6413145,
          "velocity": 0.7874015748031497
        },
        {
          "duration": 0.33926447500000023,
          "durationTicks": 228,
          "midi": 38,
          "name": "D2",
          "ticks": 16560,
          "time": 24.6413145,
          "velocity": 0.7874015748031497
        },
        {
          "duration": 0.6785289500000005,
          "durationTicks": 456,
          "midi": 59,
          "name": "B3",
          "ticks": 16800,
          "time": 24.998435,
          "velocity": 0.7874015748031497
        },
        {
          "duration": 0.33926447500000023,
          "durationTicks": 228,
          "midi": 50,
          "name": "D3",
          "ticks": 16800,
          "time": 24.998435,
          "velocity": 0.7874015748031497
        },
        {
          "duration": 0.33926447500000023,
          "durationTicks": 228,
          "midi": 38,
          "name": "D2",
          "ticks": 16800,
          "time": 24.998435,
          "velocity": 0.7874015748031497
        },
        {
          "duration": 0.33926447500000023,
          "durationTicks": 228,
          "midi": 50,
          "name": "D3",
          "ticks": 17040,
          "time": 25.3555555,
          "velocity": 0.7874015748031497
        },
        {
          "duration": 0.33926447500000023,
          "durationTicks": 228,
          "midi": 38,
          "name": "D2",
          "ticks": 17040,
          "time": 25.3555555,
          "velocity": 0.7874015748031497
        },
        {
          "duration": 0.6785289500000005,
          "durationTicks": 456,
          "midi": 60,
          "name": "C4",
          "ticks": 17280,
          "time": 25.712676000000002,
          "velocity": 0.7874015748031497
        },
        {
          "duration": 0.33926447500000023,
          "durationTicks": 228,
          "midi": 52,
          "name": "E3",
          "ticks": 17280,
          "time": 25.712676000000002,
          "velocity": 0.7874015748031497
        },
        {
          "duration": 0.33926447500000023,
          "durationTicks": 228,
          "midi": 40,
          "name": "E2",
          "ticks": 17280,
          "time": 25.712676000000002,
          "velocity": 0.7874015748031497
        },
        {
          "duration": 0.3392644750000038,
          "durationTicks": 228,
          "midi": 52,
          "name": "E3",
          "ticks": 17520,
          "time": 26.0697965,
          "velocity": 0.7874015748031497
        },
        {
          "duration": 0.3392644750000038,
          "durationTicks": 228,
          "midi": 40,
          "name": "E2",
          "ticks": 17520,
          "time": 26.0697965,
          "velocity": 0.7874015748031497
        },
        {
          "duration": 0.3392644750000038,
          "durationTicks": 228,
          "midi": 52,
          "name": "E3",
          "ticks": 17760,
          "time": 26.426917,
          "velocity": 0.7874015748031497
        },
        {
          "duration": 0.3392644750000038,
          "durationTicks": 228,
          "midi": 40,
          "name": "E2",
          "ticks": 17760,
          "time": 26.426917,
          "velocity": 0.7874015748031497
        },
        {
          "duration": 0.33926447500000023,
          "durationTicks": 228,
          "midi": 60,
          "name": "C4",
          "ticks": 17880,
          "time": 26.60547725,
          "velocity": 0.7874015748031497
        },
        {
          "duration": 0.33926447500000023,
          "durationTicks": 228,
          "midi": 52,
          "name": "E3",
          "ticks": 18000,
          "time": 26.7840375,
          "velocity": 0.7874015748031497
        },
        {
          "duration": 0.33926447500000023,
          "durationTicks": 228,
          "midi": 40,
          "name": "E2",
          "ticks": 18000,
          "time": 26.7840375,
          "velocity": 0.7874015748031497
        },
        {
          "duration": 0.33926447500000023,
          "durationTicks": 228,
          "midi": 62,
          "name": "D4",
          "ticks": 18120,
          "time": 26.96259775,
          "velocity": 0.7874015748031497
        },
        {
          "duration": 0.33926447500000023,
          "durationTicks": 228,
          "midi": 48,
          "name": "C3",
          "ticks": 18240,
          "time": 27.141158,
          "velocity": 0.7874015748031497
        },
        {
          "duration": 0.33926447500000023,
          "durationTicks": 228,
          "midi": 36,
          "name": "C2",
          "ticks": 18240,
          "time": 27.141158,
          "velocity": 0.7874015748031497
        },
        {
          "duration": 0.33926447500000023,
          "durationTicks": 228,
          "midi": 60,
          "name": "C4",
          "ticks": 18360,
          "time": 27.31971825,
          "velocity": 0.7874015748031497
        },
        {
          "duration": 0.33926447500000023,
          "durationTicks": 228,
          "midi": 48,
          "name": "C3",
          "ticks": 18480,
          "time": 27.4982785,
          "velocity": 0.7874015748031497
        },
        {
          "duration": 0.33926447500000023,
          "durationTicks": 228,
          "midi": 36,
          "name": "C2",
          "ticks": 18480,
          "time": 27.4982785,
          "velocity": 0.7874015748031497
        },
        {
          "duration": 0.33926447500000023,
          "durationTicks": 228,
          "midi": 59,
          "name": "B3",
          "ticks": 18600,
          "time": 27.67683875,
          "velocity": 0.7874015748031497
        },
        {
          "duration": 0.33926447500000023,
          "durationTicks": 228,
          "midi": 48,
          "name": "C3",
          "ticks": 18720,
          "time": 27.855399000000002,
          "velocity": 0.7874015748031497
        },
        {
          "duration": 0.33926447500000023,
          "durationTicks": 228,
          "midi": 36,
          "name": "C2",
          "ticks": 18720,
          "time": 27.855399000000002,
          "velocity": 0.7874015748031497
        },
        {
          "duration": 0.33926447500000023,
          "durationTicks": 228,
          "midi": 57,
          "name": "A3",
          "ticks": 18840,
          "time": 28.033959250000002,
          "velocity": 0.7874015748031497
        },
        {
          "duration": 0.3392644750000038,
          "durationTicks": 228,
          "midi": 48,
          "name": "C3",
          "ticks": 18960,
          "time": 28.2125195,
          "velocity": 0.7874015748031497
        },
        {
          "duration": 0.3392644750000038,
          "durationTicks": 228,
          "midi": 36,
          "name": "C2",
          "ticks": 18960,
          "time": 28.2125195,
          "velocity": 0.7874015748031497
        },
        {
          "duration": 0.8838732374999978,
          "durationTicks": 594,
          "midi": 59,
          "name": "B3",
          "ticks": 19080,
          "time": 28.39107975,
          "velocity": 0.7874015748031497
        },
        {
          "duration": 0.33926447500000023,
          "durationTicks": 228,
          "midi": 55,
          "name": "G3",
          "ticks": 19200,
          "time": 28.56964,
          "velocity": 0.7874015748031497
        },
        {
          "duration": 0.33926447500000023,
          "durationTicks": 228,
          "midi": 43,
          "name": "G2",
          "ticks": 19200,
          "time": 28.56964,
          "velocity": 0.7874015748031497
        },
        {
          "duration": 0.33926447500000023,
          "durationTicks": 228,
          "midi": 55,
          "name": "G3",
          "ticks": 19440,
          "time": 28.9267605,
          "velocity": 0.7874015748031497
        },
        {
          "duration": 0.33926447500000023,
          "durationTicks": 228,
          "midi": 43,
          "name": "G2",
          "ticks": 19440,
          "time": 28.9267605,
          "velocity": 0.7874015748031497
        },
        {
          "duration": 0.33926447500000023,
          "durationTicks": 228,
          "midi": 55,
          "name": "G3",
          "ticks": 19680,
          "time": 29.283881,
          "velocity": 0.7874015748031497
        },
        {
          "duration": 0.33926447500000023,
          "durationTicks": 228,
          "midi": 43,
          "name": "G2",
          "ticks": 19680,
          "time": 29.283881,
          "velocity": 0.7874015748031497
        },
        {
          "duration": 0.33926447500000023,
          "durationTicks": 228,
          "midi": 64,
          "name": "E4",
          "ticks": 19800,
          "time": 29.46244125,
          "velocity": 0.7874015748031497
        },
        {
          "duration": 0.33926447500000023,
          "durationTicks": 228,
          "midi": 55,
          "name": "G3",
          "ticks": 19920,
          "time": 29.6410015,
          "velocity": 0.7874015748031497
        },
        {
          "duration": 0.33926447500000023,
          "durationTicks": 228,
          "midi": 43,
          "name": "G2",
          "ticks": 19920,
          "time": 29.6410015,
          "velocity": 0.7874015748031497
        },
        {
          "duration": 0.5088967124999968,
          "durationTicks": 342,
          "midi": 66,
          "name": "F#4",
          "ticks": 20040,
          "time": 29.819561750000002,
          "velocity": 0.7874015748031497
        },
        {
          "duration": 0.33926447500000023,
          "durationTicks": 228,
          "midi": 50,
          "name": "D3",
          "ticks": 20160,
          "time": 29.998122000000002,
          "velocity": 0.7874015748031497
        },
        {
          "duration": 0.33926447500000023,
          "durationTicks": 228,
          "midi": 38,
          "name": "D2",
          "ticks": 20160,
          "time": 29.998122000000002,
          "velocity": 0.7874015748031497
        },
        {
          "duration": 0.16963223750000012,
          "durationTicks": 114,
          "midi": 64,
          "name": "E4",
          "ticks": 20400,
          "time": 30.3552425,
          "velocity": 0.7874015748031497
        },
        {
          "duration": 0.3392644750000038,
          "durationTicks": 228,
          "midi": 50,
          "name": "D3",
          "ticks": 20400,
          "time": 30.3552425,
          "velocity": 0.7874015748031497
        },
        {
          "duration": 0.3392644750000038,
          "durationTicks": 228,
          "midi": 38,
          "name": "D2",
          "ticks": 20400,
          "time": 30.3552425,
          "velocity": 0.7874015748031497
        },
        {
          "duration": 0.678528950000004,
          "durationTicks": 456,
          "midi": 64,
          "name": "E4",
          "ticks": 20520,
          "time": 30.53380275,
          "velocity": 0.7874015748031497
        },
        {
          "duration": 0.33926447500000023,
          "durationTicks": 228,
          "midi": 50,
          "name": "D3",
          "ticks": 20640,
          "time": 30.712363,
          "velocity": 0.7874015748031497
        },
        {
          "duration": 0.33926447500000023,
          "durationTicks": 228,
          "midi": 38,
          "name": "D2",
          "ticks": 20640,
          "time": 30.712363,
          "velocity": 0.7874015748031497
        },
        {
          "duration": 0.33926447500000023,
          "durationTicks": 228,
          "midi": 50,
          "name": "D3",
          "ticks": 20880,
          "time": 31.0694835,
          "velocity": 0.7874015748031497
        },
        {
          "duration": 0.33926447500000023,
          "durationTicks": 228,
          "midi": 38,
          "name": "D2",
          "ticks": 20880,
          "time": 31.0694835,
          "velocity": 0.7874015748031497
        },
        {
          "duration": 0.5088967125000003,
          "durationTicks": 342,
          "midi": 67,
          "name": "G4",
          "ticks": 21000,
          "time": 31.24804375,
          "velocity": 0.7874015748031497
        },
        {
          "duration": 0.33926447500000023,
          "durationTicks": 228,
          "midi": 52,
          "name": "E3",
          "ticks": 21120,
          "time": 31.426604,
          "velocity": 0.7874015748031497
        },
        {
          "duration": 0.33926447500000023,
          "durationTicks": 228,
          "midi": 40,
          "name": "E2",
          "ticks": 21120,
          "time": 31.426604,
          "velocity": 0.7874015748031497
        },
        {
          "duration": 0.5088967125000003,
          "durationTicks": 342,
          "midi": 66,
          "name": "F#4",
          "ticks": 21360,
          "time": 31.7837245,
          "velocity": 0.7874015748031497
        },
        {
          "duration": 0.3392644749999967,
          "durationTicks": 228,
          "midi": 52,
          "name": "E3",
          "ticks": 21360,
          "time": 31.7837245,
          "velocity": 0.7874015748031497
        },
        {
          "duration": 0.3392644749999967,
          "durationTicks": 228,
          "midi": 40,
          "name": "E2",
          "ticks": 21360,
          "time": 31.7837245,
          "velocity": 0.7874015748031497
        },
        {
          "duration": 0.33926447500000023,
          "durationTicks": 228,
          "midi": 52,
          "name": "E3",
          "ticks": 21600,
          "time": 32.140845,
          "velocity": 0.7874015748031497
        },
        {
          "duration": 0.33926447500000023,
          "durationTicks": 228,
          "midi": 40,
          "name": "E2",
          "ticks": 21600,
          "time": 32.140845,
          "velocity": 0.7874015748031497
        },
        {
          "duration": 0.33926447500000023,
          "durationTicks": 228,
          "midi": 64,
          "name": "E4",
          "ticks": 21720,
          "time": 32.31940525,
          "velocity": 0.7874015748031497
        },
        {
          "duration": 0.33926447500000023,
          "durationTicks": 228,
          "midi": 52,
          "name": "E3",
          "ticks": 21840,
          "time": 32.4979655,
          "velocity": 0.7874015748031497
        },
        {
          "duration": 0.33926447500000023,
          "durationTicks": 228,
          "midi": 40,
          "name": "E2",
          "ticks": 21840,
          "time": 32.4979655,
          "velocity": 0.7874015748031497
        },
        {
          "duration": 0.16963223749999656,
          "durationTicks": 114,
          "midi": 66,
          "name": "F#4",
          "ticks": 21960,
          "time": 32.67652575,
          "velocity": 0.7874015748031497
        },
        {
          "duration": 0.33926447500000023,
          "durationTicks": 228,
          "midi": 48,
          "name": "C3",
          "ticks": 22080,
          "time": 32.855086,
          "velocity": 0.7874015748031497
        },
        {
          "duration": 0.33926447500000023,
          "durationTicks": 228,
          "midi": 36,
          "name": "C2",
          "ticks": 22080,
          "time": 32.855086,
          "velocity": 0.7874015748031497
        },
        {
          "duration": 0.5088967124999968,
          "durationTicks": 342,
          "midi": 66,
          "name": "F#4",
          "ticks": 22080,
          "time": 32.855086,
          "velocity": 0.7874015748031497
        },
        {
          "duration": 0.33926447500000023,
          "durationTicks": 228,
          "midi": 48,
          "name": "C3",
          "ticks": 22320,
          "time": 33.2122065,
          "velocity": 0.7874015748031497
        },
        {
          "duration": 0.33926447500000023,
          "durationTicks": 228,
          "midi": 36,
          "name": "C2",
          "ticks": 22320,
          "time": 33.2122065,
          "velocity": 0.7874015748031497
        },
        {
          "duration": 0.16963223750000367,
          "durationTicks": 114,
          "midi": 66,
          "name": "F#4",
          "ticks": 22440,
          "time": 33.39076675,
          "velocity": 0.7874015748031497
        },
        {
          "duration": 0.33926447500000023,
          "durationTicks": 228,
          "midi": 48,
          "name": "C3",
          "ticks": 22560,
          "time": 33.569327,
          "velocity": 0.7874015748031497
        },
        {
          "duration": 0.33926447500000023,
          "durationTicks": 228,
          "midi": 36,
          "name": "C2",
          "ticks": 22560,
          "time": 33.569327,
          "velocity": 0.7874015748031497
        },
        {
          "duration": 0.16963223749999656,
          "durationTicks": 114,
          "midi": 66,
          "name": "F#4",
          "ticks": 22560,
          "time": 33.569327,
          "velocity": 0.7874015748031497
        },
        {
          "duration": 0.33926447500000023,
          "durationTicks": 228,
          "midi": 64,
          "name": "E4",
          "ticks": 22680,
          "time": 33.74788725,
          "velocity": 0.7874015748031497
        },
        {
          "duration": 0.33926447500000023,
          "durationTicks": 228,
          "midi": 48,
          "name": "C3",
          "ticks": 22800,
          "time": 33.9264475,
          "velocity": 0.7874015748031497
        },
        {
          "duration": 0.33926447500000023,
          "durationTicks": 228,
          "midi": 36,
          "name": "C2",
          "ticks": 22800,
          "time": 33.9264475,
          "velocity": 0.7874015748031497
        },
        {
          "duration": 0.16963223749999656,
          "durationTicks": 114,
          "midi": 66,
          "name": "F#4",
          "ticks": 22920,
          "time": 34.10500775,
          "velocity": 0.7874015748031497
        },
        {
          "duration": 0.6785289500000005,
          "durationTicks": 456,
          "midi": 66,
          "name": "F#4",
          "ticks": 23040,
          "time": 34.283568,
          "velocity": 0.7874015748031497
        },
        {
          "duration": 0.33926447500000023,
          "durationTicks": 228,
          "midi": 55,
          "name": "G3",
          "ticks": 23040,
          "time": 34.283568,
          "velocity": 0.7874015748031497
        },
        {
          "duration": 0.33926447500000023,
          "durationTicks": 228,
          "midi": 43,
          "name": "G2",
          "ticks": 23040,
          "time": 34.283568,
          "velocity": 0.7874015748031497
        },
        {
          "duration": 0.33926447500000023,
          "durationTicks": 228,
          "midi": 55,
          "name": "G3",
          "ticks": 23280,
          "time": 34.6406885,
          "velocity": 0.7874015748031497
        },
        {
          "duration": 0.33926447500000023,
          "durationTicks": 228,
          "midi": 43,
          "name": "G2",
          "ticks": 23280,
          "time": 34.6406885,
          "velocity": 0.7874015748031497
        },
        {
          "duration": 0.33926447500000023,
          "durationTicks": 228,
          "midi": 55,
          "name": "G3",
          "ticks": 23520,
          "time": 34.997809000000004,
          "velocity": 0.7874015748031497
        },
        {
          "duration": 0.33926447500000023,
          "durationTicks": 228,
          "midi": 43,
          "name": "G2",
          "ticks": 23520,
          "time": 34.997809000000004,
          "velocity": 0.7874015748031497
        },
        {
          "duration": 0.16963223750000367,
          "durationTicks": 114,
          "midi": 66,
          "name": "F#4",
          "ticks": 23760,
          "time": 35.3549295,
          "velocity": 0.7874015748031497
        },
        {
          "duration": 0.33926447500000734,
          "durationTicks": 228,
          "midi": 55,
          "name": "G3",
          "ticks": 23760,
          "time": 35.3549295,
          "velocity": 0.7874015748031497
        },
        {
          "duration": 0.33926447500000734,
          "durationTicks": 228,
          "midi": 43,
          "name": "G2",
          "ticks": 23760,
          "time": 35.3549295,
          "velocity": 0.7874015748031497
        },
        {
          "duration": 0.16963223749999656,
          "durationTicks": 114,
          "midi": 66,
          "name": "F#4",
          "ticks": 23880,
          "time": 35.53348975,
          "velocity": 0.7874015748031497
        },
        {
          "duration": 0.33926447500000734,
          "durationTicks": 228,
          "midi": 66,
          "name": "F#4",
          "ticks": 24000,
          "time": 35.71205,
          "velocity": 0.7874015748031497
        },
        {
          "duration": 0.33926447500000734,
          "durationTicks": 228,
          "midi": 50,
          "name": "D3",
          "ticks": 24000,
          "time": 35.71205,
          "velocity": 0.7874015748031497
        },
        {
          "duration": 0.33926447500000734,
          "durationTicks": 228,
          "midi": 38,
          "name": "D2",
          "ticks": 24000,
          "time": 35.71205,
          "velocity": 0.7874015748031497
        },
        {
          "duration": 0.33926447500000023,
          "durationTicks": 228,
          "midi": 66,
          "name": "F#4",
          "ticks": 24240,
          "time": 36.0691705,
          "velocity": 0.7874015748031497
        },
        {
          "duration": 0.33926447500000023,
          "durationTicks": 228,
          "midi": 50,
          "name": "D3",
          "ticks": 24240,
          "time": 36.0691705,
          "velocity": 0.7874015748031497
        },
        {
          "duration": 0.33926447500000023,
          "durationTicks": 228,
          "midi": 38,
          "name": "D2",
          "ticks": 24240,
          "time": 36.0691705,
          "velocity": 0.7874015748031497
        },
        {
          "duration": 0.16963223749999656,
          "durationTicks": 114,
          "midi": 69,
          "name": "A4",
          "ticks": 24480,
          "time": 36.426291,
          "velocity": 0.7874015748031497
        },
        {
          "duration": 0.33926447500000023,
          "durationTicks": 228,
          "midi": 50,
          "name": "D3",
          "ticks": 24480,
          "time": 36.426291,
          "velocity": 0.7874015748031497
        },
        {
          "duration": 0.33926447500000023,
          "durationTicks": 228,
          "midi": 38,
          "name": "D2",
          "ticks": 24480,
          "time": 36.426291,
          "velocity": 0.7874015748031497
        },
        {
          "duration": 0.16963223749999656,
          "durationTicks": 114,
          "midi": 66,
          "name": "F#4",
          "ticks": 24600,
          "time": 36.60485125,
          "velocity": 0.7874015748031497
        },
        {
          "duration": 0.33926447500000023,
          "durationTicks": 228,
          "midi": 66,
          "name": "F#4",
          "ticks": 24720,
          "time": 36.7834115,
          "velocity": 0.7874015748031497
        },
        {
          "duration": 0.33926447500000023,
          "durationTicks": 228,
          "midi": 50,
          "name": "D3",
          "ticks": 24720,
          "time": 36.7834115,
          "velocity": 0.7874015748031497
        },
        {
          "duration": 0.33926447500000023,
          "durationTicks": 228,
          "midi": 38,
          "name": "D2",
          "ticks": 24720,
          "time": 36.7834115,
          "velocity": 0.7874015748031497
        },
        {
          "duration": 0.33926447500000023,
          "durationTicks": 228,
          "midi": 67,
          "name": "G4",
          "ticks": 24960,
          "time": 37.140532,
          "velocity": 0.7874015748031497
        },
        {
          "duration": 0.33926447500000023,
          "durationTicks": 228,
          "midi": 52,
          "name": "E3",
          "ticks": 24960,
          "time": 37.140532,
          "velocity": 0.7874015748031497
        },
        {
          "duration": 0.33926447500000023,
          "durationTicks": 228,
          "midi": 40,
          "name": "E2",
          "ticks": 24960,
          "time": 37.140532,
          "velocity": 0.7874015748031497
        },
        {
          "duration": 0.33926447500000023,
          "durationTicks": 228,
          "midi": 79,
          "name": "G5",
          "ticks": 24960,
          "time": 37.140532,
          "velocity": 0.7874015748031497
        },
        {
          "duration": 0.16963223749999656,
          "durationTicks": 114,
          "midi": 69,
          "name": "A4",
          "ticks": 25200,
          "time": 37.4976525,
          "velocity": 0.7874015748031497
        },
        {
          "duration": 0.33926447500000023,
          "durationTicks": 228,
          "midi": 52,
          "name": "E3",
          "ticks": 25200,
          "time": 37.4976525,
          "velocity": 0.7874015748031497
        },
        {
          "duration": 0.33926447500000023,
          "durationTicks": 228,
          "midi": 40,
          "name": "E2",
          "ticks": 25200,
          "time": 37.4976525,
          "velocity": 0.7874015748031497
        },
        {
          "duration": 0.16963223749999656,
          "durationTicks": 114,
          "midi": 81,
          "name": "A5",
          "ticks": 25200,
          "time": 37.4976525,
          "velocity": 0.7874015748031497
        },
        {
          "duration": 0.16963223750000367,
          "durationTicks": 114,
          "midi": 66,
          "name": "F#4",
          "ticks": 25320,
          "time": 37.67621275,
          "velocity": 0.7874015748031497
        },
        {
          "duration": 0.16963223750000367,
          "durationTicks": 114,
          "midi": 78,
          "name": "F#5",
          "ticks": 25320,
          "time": 37.67621275,
          "velocity": 0.7874015748031497
        },
        {
          "duration": 0.33926447500000023,
          "durationTicks": 228,
          "midi": 66,
          "name": "F#4",
          "ticks": 25440,
          "time": 37.854773,
          "velocity": 0.7874015748031497
        },
        {
          "duration": 0.33926447500000023,
          "durationTicks": 228,
          "midi": 52,
          "name": "E3",
          "ticks": 25440,
          "time": 37.854773,
          "velocity": 0.7874015748031497
        },
        {
          "duration": 0.33926447500000023,
          "durationTicks": 228,
          "midi": 40,
          "name": "E2",
          "ticks": 25440,
          "time": 37.854773,
          "velocity": 0.7874015748031497
        },
        {
          "duration": 0.33926447500000023,
          "durationTicks": 228,
          "midi": 78,
          "name": "F#5",
          "ticks": 25440,
          "time": 37.854773,
          "velocity": 0.7874015748031497
        },
        {
          "duration": 0.33926447500000023,
          "durationTicks": 228,
          "midi": 67,
          "name": "G4",
          "ticks": 25680,
          "time": 38.2118935,
          "velocity": 0.7874015748031497
        },
        {
          "duration": 0.33926447500000023,
          "durationTicks": 228,
          "midi": 52,
          "name": "E3",
          "ticks": 25680,
          "time": 38.2118935,
          "velocity": 0.7874015748031497
        },
        {
          "duration": 0.33926447500000023,
          "durationTicks": 228,
          "midi": 40,
          "name": "E2",
          "ticks": 25680,
          "time": 38.2118935,
          "velocity": 0.7874015748031497
        },
        {
          "duration": 0.33926447500000023,
          "durationTicks": 228,
          "midi": 79,
          "name": "G5",
          "ticks": 25680,
          "time": 38.2118935,
          "velocity": 0.7874015748031497
        },
        {
          "duration": 0.33926447500000023,
          "durationTicks": 228,
          "midi": 48,
          "name": "C3",
          "ticks": 25920,
          "time": 38.569014,
          "velocity": 0.7874015748031497
        },
        {
          "duration": 0.33926447500000023,
          "durationTicks": 228,
          "midi": 36,
          "name": "C2",
          "ticks": 25920,
          "time": 38.569014,
          "velocity": 0.7874015748031497
        },
        {
          "duration": 0.33926447500000023,
          "durationTicks": 228,
          "midi": 64,
          "name": "E4",
          "ticks": 26160,
          "time": 38.9261345,
          "velocity": 0.7874015748031497
        },
        {
          "duration": 0.33926447500000023,
          "durationTicks": 228,
          "midi": 48,
          "name": "C3",
          "ticks": 26160,
          "time": 38.9261345,
          "velocity": 0.7874015748031497
        },
        {
          "duration": 0.33926447500000023,
          "durationTicks": 228,
          "midi": 36,
          "name": "C2",
          "ticks": 26160,
          "time": 38.9261345,
          "velocity": 0.7874015748031497
        },
        {
          "duration": 0.33926447500000023,
          "durationTicks": 228,
          "midi": 76,
          "name": "E5",
          "ticks": 26160,
          "time": 38.9261345,
          "velocity": 0.7874015748031497
        },
        {
          "duration": 0.33926447500000023,
          "durationTicks": 228,
          "midi": 64,
          "name": "E4",
          "ticks": 26400,
          "time": 39.283255000000004,
          "velocity": 0.7874015748031497
        },
        {
          "duration": 0.33926447500000023,
          "durationTicks": 228,
          "midi": 48,
          "name": "C3",
          "ticks": 26400,
          "time": 39.283255000000004,
          "velocity": 0.7874015748031497
        },
        {
          "duration": 0.33926447500000023,
          "durationTicks": 228,
          "midi": 36,
          "name": "C2",
          "ticks": 26400,
          "time": 39.283255000000004,
          "velocity": 0.7874015748031497
        },
        {
          "duration": 0.33926447500000023,
          "durationTicks": 228,
          "midi": 76,
          "name": "E5",
          "ticks": 26400,
          "time": 39.283255000000004,
          "velocity": 0.7874015748031497
        },
        {
          "duration": 0.33926447500000734,
          "durationTicks": 228,
          "midi": 66,
          "name": "F#4",
          "ticks": 26640,
          "time": 39.6403755,
          "velocity": 0.7874015748031497
        },
        {
          "duration": 0.33926447500000734,
          "durationTicks": 228,
          "midi": 48,
          "name": "C3",
          "ticks": 26640,
          "time": 39.6403755,
          "velocity": 0.7874015748031497
        },
        {
          "duration": 0.33926447500000734,
          "durationTicks": 228,
          "midi": 36,
          "name": "C2",
          "ticks": 26640,
          "time": 39.6403755,
          "velocity": 0.7874015748031497
        },
        {
          "duration": 0.33926447500000734,
          "durationTicks": 228,
          "midi": 78,
          "name": "F#5",
          "ticks": 26640,
          "time": 39.6403755,
          "velocity": 0.7874015748031497
        },
        {
          "duration": 0.33926447500000023,
          "durationTicks": 228,
          "midi": 67,
          "name": "G4",
          "ticks": 26880,
          "time": 39.997496,
          "velocity": 0.7874015748031497
        },
        {
          "duration": 0.33926447500000023,
          "durationTicks": 228,
          "midi": 55,
          "name": "G3",
          "ticks": 26880,
          "time": 39.997496,
          "velocity": 0.7874015748031497
        },
        {
          "duration": 0.33926447500000023,
          "durationTicks": 228,
          "midi": 43,
          "name": "G2",
          "ticks": 26880,
          "time": 39.997496,
          "velocity": 0.7874015748031497
        },
        {
          "duration": 0.33926447500000023,
          "durationTicks": 228,
          "midi": 79,
          "name": "G5",
          "ticks": 26880,
          "time": 39.997496,
          "velocity": 0.7874015748031497
        },
        {
          "duration": 0.33926447500000023,
          "durationTicks": 228,
          "midi": 69,
          "name": "A4",
          "ticks": 27120,
          "time": 40.3546165,
          "velocity": 0.7874015748031497
        },
        {
          "duration": 0.33926447500000023,
          "durationTicks": 228,
          "midi": 55,
          "name": "G3",
          "ticks": 27120,
          "time": 40.3546165,
          "velocity": 0.7874015748031497
        },
        {
          "duration": 0.33926447500000023,
          "durationTicks": 228,
          "midi": 43,
          "name": "G2",
          "ticks": 27120,
          "time": 40.3546165,
          "velocity": 0.7874015748031497
        },
        {
          "duration": 0.33926447500000023,
          "durationTicks": 228,
          "midi": 81,
          "name": "A5",
          "ticks": 27120,
          "time": 40.3546165,
          "velocity": 0.7874015748031497
        },
        {
          "duration": 0.33926447500000023,
          "durationTicks": 228,
          "midi": 71,
          "name": "B4",
          "ticks": 27360,
          "time": 40.711737,
          "velocity": 0.7874015748031497
        },
        {
          "duration": 0.33926447500000023,
          "durationTicks": 228,
          "midi": 55,
          "name": "G3",
          "ticks": 27360,
          "time": 40.711737,
          "velocity": 0.7874015748031497
        },
        {
          "duration": 0.33926447500000023,
          "durationTicks": 228,
          "midi": 43,
          "name": "G2",
          "ticks": 27360,
          "time": 40.711737,
          "velocity": 0.7874015748031497
        },
        {
          "duration": 0.33926447500000023,
          "durationTicks": 228,
          "midi": 83,
          "name": "B5",
          "ticks": 27360,
          "time": 40.711737,
          "velocity": 0.7874015748031497
        },
        {
          "duration": 0.33926447500000023,
          "durationTicks": 228,
          "midi": 72,
          "name": "C5",
          "ticks": 27600,
          "time": 41.0688575,
          "velocity": 0.7874015748031497
        },
        {
          "duration": 0.33926447500000023,
          "durationTicks": 228,
          "midi": 55,
          "name": "G3",
          "ticks": 27600,
          "time": 41.0688575,
          "velocity": 0.7874015748031497
        },
        {
          "duration": 0.33926447500000023,
          "durationTicks": 228,
          "midi": 43,
          "name": "G2",
          "ticks": 27600,
          "time": 41.0688575,
          "velocity": 0.7874015748031497
        },
        {
          "duration": 0.33926447500000023,
          "durationTicks": 228,
          "midi": 84,
          "name": "C6",
          "ticks": 27600,
          "time": 41.0688575,
          "velocity": 0.7874015748031497
        },
        {
          "duration": 0.5088967124999968,
          "durationTicks": 342,
          "midi": 71,
          "name": "B4",
          "ticks": 27840,
          "time": 41.425978,
          "velocity": 0.7874015748031497
        },
        {
          "duration": 0.33926447500000023,
          "durationTicks": 228,
          "midi": 50,
          "name": "D3",
          "ticks": 27840,
          "time": 41.425978,
          "velocity": 0.7874015748031497
        },
        {
          "duration": 0.33926447500000023,
          "durationTicks": 228,
          "midi": 38,
          "name": "D2",
          "ticks": 27840,
          "time": 41.425978,
          "velocity": 0.7874015748031497
        },
        {
          "duration": 0.33926447500000023,
          "durationTicks": 228,
          "midi": 83,
          "name": "B5",
          "ticks": 27840,
          "time": 41.425978,
          "velocity": 0.7874015748031497
        },
        {
          "duration": 0.33926447500000023,
          "durationTicks": 228,
          "midi": 50,
          "name": "D3",
          "ticks": 28080,
          "time": 41.7830985,
          "velocity": 0.7874015748031497
        },
        {
          "duration": 0.33926447500000023,
          "durationTicks": 228,
          "midi": 38,
          "name": "D2",
          "ticks": 28080,
          "time": 41.7830985,
          "velocity": 0.7874015748031497
        },
        {
          "duration": 0.16963223750000367,
          "durationTicks": 114,
          "midi": 66,
          "name": "F#4",
          "ticks": 28200,
          "time": 41.96165875,
          "velocity": 0.7874015748031497
        },
        {
          "duration": 0.16963223750000367,
          "durationTicks": 114,
          "midi": 78,
          "name": "F#5",
          "ticks": 28200,
          "time": 41.96165875,
          "velocity": 0.7874015748031497
        },
        {
          "duration": 0.6785289500000005,
          "durationTicks": 456,
          "midi": 66,
          "name": "F#4",
          "ticks": 28320,
          "time": 42.140219,
          "velocity": 0.7874015748031497
        },
        {
          "duration": 0.33926447500000023,
          "durationTicks": 228,
          "midi": 50,
          "name": "D3",
          "ticks": 28320,
          "time": 42.140219,
          "velocity": 0.7874015748031497
        },
        {
          "duration": 0.33926447500000023,
          "durationTicks": 228,
          "midi": 38,
          "name": "D2",
          "ticks": 28320,
          "time": 42.140219,
          "velocity": 0.7874015748031497
        },
        {
          "duration": 0.6785289500000005,
          "durationTicks": 456,
          "midi": 78,
          "name": "F#5",
          "ticks": 28320,
          "time": 42.140219,
          "velocity": 0.7874015748031497
        },
        {
          "duration": 0.33926447500000023,
          "durationTicks": 228,
          "midi": 50,
          "name": "D3",
          "ticks": 28560,
          "time": 42.4973395,
          "velocity": 0.7874015748031497
        },
        {
          "duration": 0.33926447500000023,
          "durationTicks": 228,
          "midi": 38,
          "name": "D2",
          "ticks": 28560,
          "time": 42.4973395,
          "velocity": 0.7874015748031497
        },
        {
          "duration": 0.33926447500000023,
          "durationTicks": 228,
          "midi": 67,
          "name": "G4",
          "ticks": 28800,
          "time": 42.85446,
          "velocity": 0.7874015748031497
        },
        {
          "duration": 0.33926447500000023,
          "durationTicks": 228,
          "midi": 52,
          "name": "E3",
          "ticks": 28800,
          "time": 42.85446,
          "velocity": 0.7874015748031497
        },
        {
          "duration": 0.33926447500000023,
          "durationTicks": 228,
          "midi": 40,
          "name": "E2",
          "ticks": 28800,
          "time": 42.85446,
          "velocity": 0.7874015748031497
        },
        {
          "duration": 0.33926447500000023,
          "durationTicks": 228,
          "midi": 79,
          "name": "G5",
          "ticks": 28800,
          "time": 42.85446,
          "velocity": 0.7874015748031497
        },
        {
          "duration": 0.16963223749999656,
          "durationTicks": 114,
          "midi": 66,
          "name": "F#4",
          "ticks": 29040,
          "time": 43.211580500000004,
          "velocity": 0.7874015748031497
        },
        {
          "duration": 0.33926447500000023,
          "durationTicks": 228,
          "midi": 52,
          "name": "E3",
          "ticks": 29040,
          "time": 43.211580500000004,
          "velocity": 0.7874015748031497
        },
        {
          "duration": 0.33926447500000023,
          "durationTicks": 228,
          "midi": 40,
          "name": "E2",
          "ticks": 29040,
          "time": 43.211580500000004,
          "velocity": 0.7874015748031497
        },
        {
          "duration": 0.16963223749999656,
          "durationTicks": 114,
          "midi": 78,
          "name": "F#5",
          "ticks": 29040,
          "time": 43.211580500000004,
          "velocity": 0.7874015748031497
        },
        {
          "duration": 0.16963223749999656,
          "durationTicks": 114,
          "midi": 64,
          "name": "E4",
          "ticks": 29160,
          "time": 43.39014075,
          "velocity": 0.7874015748031497
        },
        {
          "duration": 0.16963223749999656,
          "durationTicks": 114,
          "midi": 76,
          "name": "E5",
          "ticks": 29160,
          "time": 43.39014075,
          "velocity": 0.7874015748031497
        },
        {
          "duration": 0.33926447500000023,
          "durationTicks": 228,
          "midi": 64,
          "name": "E4",
          "ticks": 29280,
          "time": 43.568701000000004,
          "velocity": 0.7874015748031497
        },
        {
          "duration": 0.33926447500000023,
          "durationTicks": 228,
          "midi": 52,
          "name": "E3",
          "ticks": 29280,
          "time": 43.568701000000004,
          "velocity": 0.7874015748031497
        },
        {
          "duration": 0.33926447500000023,
          "durationTicks": 228,
          "midi": 40,
          "name": "E2",
          "ticks": 29280,
          "time": 43.568701000000004,
          "velocity": 0.7874015748031497
        },
        {
          "duration": 0.33926447500000023,
          "durationTicks": 228,
          "midi": 76,
          "name": "E5",
          "ticks": 29280,
          "time": 43.568701000000004,
          "velocity": 0.7874015748031497
        },
        {
          "duration": 0.33926447500000734,
          "durationTicks": 228,
          "midi": 66,
          "name": "F#4",
          "ticks": 29520,
          "time": 43.9258215,
          "velocity": 0.7874015748031497
        },
        {
          "duration": 0.33926447500000734,
          "durationTicks": 228,
          "midi": 52,
          "name": "E3",
          "ticks": 29520,
          "time": 43.9258215,
          "velocity": 0.7874015748031497
        },
        {
          "duration": 0.33926447500000734,
          "durationTicks": 228,
          "midi": 40,
          "name": "E2",
          "ticks": 29520,
          "time": 43.9258215,
          "velocity": 0.7874015748031497
        },
        {
          "duration": 0.33926447500000734,
          "durationTicks": 228,
          "midi": 78,
          "name": "F#5",
          "ticks": 29520,
          "time": 43.9258215,
          "velocity": 0.7874015748031497
        },
        {
          "duration": 0.33926447500000023,
          "durationTicks": 228,
          "midi": 67,
          "name": "G4",
          "ticks": 29760,
          "time": 44.282942,
          "velocity": 0.7874015748031497
        },
        {
          "duration": 0.33926447500000023,
          "durationTicks": 228,
          "midi": 48,
          "name": "C3",
          "ticks": 29760,
          "time": 44.282942,
          "velocity": 0.7874015748031497
        },
        {
          "duration": 0.33926447500000023,
          "durationTicks": 228,
          "midi": 36,
          "name": "C2",
          "ticks": 29760,
          "time": 44.282942,
          "velocity": 0.7874015748031497
        },
        {
          "duration": 0.33926447500000023,
          "durationTicks": 228,
          "midi": 79,
          "name": "G5",
          "ticks": 29760,
          "time": 44.282942,
          "velocity": 0.7874015748031497
        },
        {
          "duration": 0.33926447500000023,
          "durationTicks": 228,
          "midi": 48,
          "name": "C3",
          "ticks": 30000,
          "time": 44.6400625,
          "velocity": 0.7874015748031497
        },
        {
          "duration": 0.33926447500000023,
          "durationTicks": 228,
          "midi": 36,
          "name": "C2",
          "ticks": 30000,
          "time": 44.6400625,
          "velocity": 0.7874015748031497
        },
        {
          "duration": 0.33926447500000023,
          "durationTicks": 228,
          "midi": 64,
          "name": "E4",
          "ticks": 30240,
          "time": 44.997183,
          "velocity": 0.7874015748031497
        },
        {
          "duration": 0.33926447500000023,
          "durationTicks": 228,
          "midi": 48,
          "name": "C3",
          "ticks": 30240,
          "time": 44.997183,
          "velocity": 0.7874015748031497
        },
        {
          "duration": 0.33926447500000023,
          "durationTicks": 228,
          "midi": 36,
          "name": "C2",
          "ticks": 30240,
          "time": 44.997183,
          "velocity": 0.7874015748031497
        },
        {
          "duration": 0.33926447500000023,
          "durationTicks": 228,
          "midi": 76,
          "name": "E5",
          "ticks": 30240,
          "time": 44.997183,
          "velocity": 0.7874015748031497
        },
        {
          "duration": 0.33926447500000023,
          "durationTicks": 228,
          "midi": 62,
          "name": "D4",
          "ticks": 30480,
          "time": 45.3543035,
          "velocity": 0.7874015748031497
        },
        {
          "duration": 0.33926447500000023,
          "durationTicks": 228,
          "midi": 48,
          "name": "C3",
          "ticks": 30480,
          "time": 45.3543035,
          "velocity": 0.7874015748031497
        },
        {
          "duration": 0.33926447500000023,
          "durationTicks": 228,
          "midi": 36,
          "name": "C2",
          "ticks": 30480,
          "time": 45.3543035,
          "velocity": 0.7874015748031497
        },
        {
          "duration": 0.33926447500000023,
          "durationTicks": 228,
          "midi": 74,
          "name": "D5",
          "ticks": 30480,
          "time": 45.3543035,
          "velocity": 0.7874015748031497
        },
        {
          "duration": 0.3392644749999931,
          "durationTicks": 228,
          "midi": 62,
          "name": "D4",
          "ticks": 30720,
          "time": 45.711424,
          "velocity": 0.7874015748031497
        },
        {
          "duration": 0.3392644749999931,
          "durationTicks": 228,
          "midi": 55,
          "name": "G3",
          "ticks": 30720,
          "time": 45.711424,
          "velocity": 0.7874015748031497
        },
        {
          "duration": 0.3392644749999931,
          "durationTicks": 228,
          "midi": 43,
          "name": "G2",
          "ticks": 30720,
          "time": 45.711424,
          "velocity": 0.7874015748031497
        },
        {
          "duration": 0.3392644749999931,
          "durationTicks": 228,
          "midi": 74,
          "name": "D5",
          "ticks": 30720,
          "time": 45.711424,
          "velocity": 0.7874015748031497
        },
        {
          "duration": 0.3392644749999931,
          "durationTicks": 228,
          "midi": 55,
          "name": "G3",
          "ticks": 30960,
          "time": 46.0685445,
          "velocity": 0.7874015748031497
        },
        {
          "duration": 0.3392644749999931,
          "durationTicks": 228,
          "midi": 43,
          "name": "G2",
          "ticks": 30960,
          "time": 46.0685445,
          "velocity": 0.7874015748031497
        },
        {
          "duration": 0.3392644749999931,
          "durationTicks": 228,
          "midi": 67,
          "name": "G4",
          "ticks": 31200,
          "time": 46.425665,
          "velocity": 0.7874015748031497
        },
        {
          "duration": 0.3392644749999931,
          "durationTicks": 228,
          "midi": 55,
          "name": "G3",
          "ticks": 31200,
          "time": 46.425665,
          "velocity": 0.7874015748031497
        },
        {
          "duration": 0.3392644749999931,
          "durationTicks": 228,
          "midi": 43,
          "name": "G2",
          "ticks": 31200,
          "time": 46.425665,
          "velocity": 0.7874015748031497
        },
        {
          "duration": 0.3392644749999931,
          "durationTicks": 228,
          "midi": 79,
          "name": "G5",
          "ticks": 31200,
          "time": 46.425665,
          "velocity": 0.7874015748031497
        },
        {
          "duration": 0.3392644749999931,
          "durationTicks": 228,
          "midi": 66,
          "name": "F#4",
          "ticks": 31440,
          "time": 46.7827855,
          "velocity": 0.7874015748031497
        },
        {
          "duration": 0.3392644749999931,
          "durationTicks": 228,
          "midi": 55,
          "name": "G3",
          "ticks": 31440,
          "time": 46.7827855,
          "velocity": 0.7874015748031497
        },
        {
          "duration": 0.3392644749999931,
          "durationTicks": 228,
          "midi": 43,
          "name": "G2",
          "ticks": 31440,
          "time": 46.7827855,
          "velocity": 0.7874015748031497
        },
        {
          "duration": 0.3392644749999931,
          "durationTicks": 228,
          "midi": 78,
          "name": "F#5",
          "ticks": 31440,
          "time": 46.7827855,
          "velocity": 0.7874015748031497
        },
        {
          "duration": 0.3392644749999931,
          "durationTicks": 228,
          "midi": 66,
          "name": "F#4",
          "ticks": 31680,
          "time": 47.139906,
          "velocity": 0.7874015748031497
        },
        {
          "duration": 0.3392644749999931,
          "durationTicks": 228,
          "midi": 50,
          "name": "D3",
          "ticks": 31680,
          "time": 47.139906,
          "velocity": 0.7874015748031497
        },
        {
          "duration": 0.3392644749999931,
          "durationTicks": 228,
          "midi": 38,
          "name": "D2",
          "ticks": 31680,
          "time": 47.139906,
          "velocity": 0.7874015748031497
        },
        {
          "duration": 0.3392644749999931,
          "durationTicks": 228,
          "midi": 78,
          "name": "F#5",
          "ticks": 31680,
          "time": 47.139906,
          "velocity": 0.7874015748031497
        },
        {
          "duration": 0.3392644749999931,
          "durationTicks": 228,
          "midi": 50,
          "name": "D3",
          "ticks": 31920,
          "time": 47.497026500000004,
          "velocity": 0.7874015748031497
        },
        {
          "duration": 0.3392644749999931,
          "durationTicks": 228,
          "midi": 38,
          "name": "D2",
          "ticks": 31920,
          "time": 47.497026500000004,
          "velocity": 0.7874015748031497
        },
        {
          "duration": 0.33926447500000023,
          "durationTicks": 228,
          "midi": 64,
          "name": "E4",
          "ticks": 32160,
          "time": 47.854147,
          "velocity": 0.7874015748031497
        },
        {
          "duration": 0.33926447500000023,
          "durationTicks": 228,
          "midi": 50,
          "name": "D3",
          "ticks": 32160,
          "time": 47.854147,
          "velocity": 0.7874015748031497
        },
        {
          "duration": 0.33926447500000023,
          "durationTicks": 228,
          "midi": 38,
          "name": "D2",
          "ticks": 32160,
          "time": 47.854147,
          "velocity": 0.7874015748031497
        },
        {
          "duration": 0.33926447500000023,
          "durationTicks": 228,
          "midi": 76,
          "name": "E5",
          "ticks": 32160,
          "time": 47.854147,
          "velocity": 0.7874015748031497
        },
        {
          "duration": 0.33926447500000023,
          "durationTicks": 228,
          "midi": 66,
          "name": "F#4",
          "ticks": 32400,
          "time": 48.2112675,
          "velocity": 0.7874015748031497
        },
        {
          "duration": 0.33926447500000023,
          "durationTicks": 228,
          "midi": 50,
          "name": "D3",
          "ticks": 32400,
          "time": 48.2112675,
          "velocity": 0.7874015748031497
        },
        {
          "duration": 0.33926447500000023,
          "durationTicks": 228,
          "midi": 38,
          "name": "D2",
          "ticks": 32400,
          "time": 48.2112675,
          "velocity": 0.7874015748031497
        },
        {
          "duration": 0.33926447500000023,
          "durationTicks": 228,
          "midi": 78,
          "name": "F#5",
          "ticks": 32400,
          "time": 48.2112675,
          "velocity": 0.7874015748031497
        },
        {
          "duration": 0.33926447500000023,
          "durationTicks": 228,
          "midi": 67,
          "name": "G4",
          "ticks": 32640,
          "time": 48.568388,
          "velocity": 0.7874015748031497
        },
        {
          "duration": 0.33926447500000023,
          "durationTicks": 228,
          "midi": 52,
          "name": "E3",
          "ticks": 32640,
          "time": 48.568388,
          "velocity": 0.7874015748031497
        },
        {
          "duration": 0.33926447500000023,
          "durationTicks": 228,
          "midi": 40,
          "name": "E2",
          "ticks": 32640,
          "time": 48.568388,
          "velocity": 0.7874015748031497
        },
        {
          "duration": 0.33926447500000023,
          "durationTicks": 228,
          "midi": 79,
          "name": "G5",
          "ticks": 32640,
          "time": 48.568388,
          "velocity": 0.7874015748031497
        },
        {
          "duration": 0.16963223749999656,
          "durationTicks": 114,
          "midi": 69,
          "name": "A4",
          "ticks": 32880,
          "time": 48.9255085,
          "velocity": 0.7874015748031497
        },
        {
          "duration": 0.33926447500000023,
          "durationTicks": 228,
          "midi": 52,
          "name": "E3",
          "ticks": 32880,
          "time": 48.9255085,
          "velocity": 0.7874015748031497
        },
        {
          "duration": 0.33926447500000023,
          "durationTicks": 228,
          "midi": 40,
          "name": "E2",
          "ticks": 32880,
          "time": 48.9255085,
          "velocity": 0.7874015748031497
        },
        {
          "duration": 0.16963223749999656,
          "durationTicks": 114,
          "midi": 81,
          "name": "A5",
          "ticks": 32880,
          "time": 48.9255085,
          "velocity": 0.7874015748031497
        },
        {
          "duration": 0.16963223749999656,
          "durationTicks": 114,
          "midi": 66,
          "name": "F#4",
          "ticks": 33000,
          "time": 49.10406875,
          "velocity": 0.7874015748031497
        },
        {
          "duration": 0.16963223749999656,
          "durationTicks": 114,
          "midi": 78,
          "name": "F#5",
          "ticks": 33000,
          "time": 49.10406875,
          "velocity": 0.7874015748031497
        },
        {
          "duration": 0.33926447500000023,
          "durationTicks": 228,
          "midi": 66,
          "name": "F#4",
          "ticks": 33120,
          "time": 49.282629,
          "velocity": 0.7874015748031497
        },
        {
          "duration": 0.33926447500000023,
          "durationTicks": 228,
          "midi": 52,
          "name": "E3",
          "ticks": 33120,
          "time": 49.282629,
          "velocity": 0.7874015748031497
        },
        {
          "duration": 0.33926447500000023,
          "durationTicks": 228,
          "midi": 40,
          "name": "E2",
          "ticks": 33120,
          "time": 49.282629,
          "velocity": 0.7874015748031497
        },
        {
          "duration": 0.33926447500000023,
          "durationTicks": 228,
          "midi": 78,
          "name": "F#5",
          "ticks": 33120,
          "time": 49.282629,
          "velocity": 0.7874015748031497
        },
        {
          "duration": 0.3392644749999931,
          "durationTicks": 228,
          "midi": 67,
          "name": "G4",
          "ticks": 33360,
          "time": 49.6397495,
          "velocity": 0.7874015748031497
        },
        {
          "duration": 0.3392644749999931,
          "durationTicks": 228,
          "midi": 52,
          "name": "E3",
          "ticks": 33360,
          "time": 49.6397495,
          "velocity": 0.7874015748031497
        },
        {
          "duration": 0.3392644749999931,
          "durationTicks": 228,
          "midi": 40,
          "name": "E2",
          "ticks": 33360,
          "time": 49.6397495,
          "velocity": 0.7874015748031497
        },
        {
          "duration": 0.3392644749999931,
          "durationTicks": 228,
          "midi": 79,
          "name": "G5",
          "ticks": 33360,
          "time": 49.6397495,
          "velocity": 0.7874015748031497
        },
        {
          "duration": 0.3392644749999931,
          "durationTicks": 228,
          "midi": 48,
          "name": "C3",
          "ticks": 33600,
          "time": 49.99687,
          "velocity": 0.7874015748031497
        },
        {
          "duration": 0.3392644749999931,
          "durationTicks": 228,
          "midi": 36,
          "name": "C2",
          "ticks": 33600,
          "time": 49.99687,
          "velocity": 0.7874015748031497
        },
        {
          "duration": 0.3392644749999931,
          "durationTicks": 228,
          "midi": 64,
          "name": "E4",
          "ticks": 33840,
          "time": 50.3539905,
          "velocity": 0.7874015748031497
        },
        {
          "duration": 0.3392644749999931,
          "durationTicks": 228,
          "midi": 48,
          "name": "C3",
          "ticks": 33840,
          "time": 50.3539905,
          "velocity": 0.7874015748031497
        },
        {
          "duration": 0.3392644749999931,
          "durationTicks": 228,
          "midi": 36,
          "name": "C2",
          "ticks": 33840,
          "time": 50.3539905,
          "velocity": 0.7874015748031497
        },
        {
          "duration": 0.3392644749999931,
          "durationTicks": 228,
          "midi": 76,
          "name": "E5",
          "ticks": 33840,
          "time": 50.3539905,
          "velocity": 0.7874015748031497
        },
        {
          "duration": 0.3392644749999931,
          "durationTicks": 228,
          "midi": 64,
          "name": "E4",
          "ticks": 34080,
          "time": 50.711111,
          "velocity": 0.7874015748031497
        },
        {
          "duration": 0.3392644749999931,
          "durationTicks": 228,
          "midi": 48,
          "name": "C3",
          "ticks": 34080,
          "time": 50.711111,
          "velocity": 0.7874015748031497
        },
        {
          "duration": 0.3392644749999931,
          "durationTicks": 228,
          "midi": 36,
          "name": "C2",
          "ticks": 34080,
          "time": 50.711111,
          "velocity": 0.7874015748031497
        },
        {
          "duration": 0.3392644749999931,
          "durationTicks": 228,
          "midi": 76,
          "name": "E5",
          "ticks": 34080,
          "time": 50.711111,
          "velocity": 0.7874015748031497
        },
        {
          "duration": 0.3392644749999931,
          "durationTicks": 228,
          "midi": 66,
          "name": "F#4",
          "ticks": 34320,
          "time": 51.0682315,
          "velocity": 0.7874015748031497
        },
        {
          "duration": 0.3392644749999931,
          "durationTicks": 228,
          "midi": 48,
          "name": "C3",
          "ticks": 34320,
          "time": 51.0682315,
          "velocity": 0.7874015748031497
        },
        {
          "duration": 0.3392644749999931,
          "durationTicks": 228,
          "midi": 36,
          "name": "C2",
          "ticks": 34320,
          "time": 51.0682315,
          "velocity": 0.7874015748031497
        },
        {
          "duration": 0.3392644749999931,
          "durationTicks": 228,
          "midi": 78,
          "name": "F#5",
          "ticks": 34320,
          "time": 51.0682315,
          "velocity": 0.7874015748031497
        },
        {
          "duration": 0.3392644749999931,
          "durationTicks": 228,
          "midi": 67,
          "name": "G4",
          "ticks": 34560,
          "time": 51.425352000000004,
          "velocity": 0.7874015748031497
        },
        {
          "duration": 0.3392644749999931,
          "durationTicks": 228,
          "midi": 55,
          "name": "G3",
          "ticks": 34560,
          "time": 51.425352000000004,
          "velocity": 0.7874015748031497
        },
        {
          "duration": 0.3392644749999931,
          "durationTicks": 228,
          "midi": 43,
          "name": "G2",
          "ticks": 34560,
          "time": 51.425352000000004,
          "velocity": 0.7874015748031497
        },
        {
          "duration": 0.3392644749999931,
          "durationTicks": 228,
          "midi": 79,
          "name": "G5",
          "ticks": 34560,
          "time": 51.425352000000004,
          "velocity": 0.7874015748031497
        },
        {
          "duration": 0.3392644749999931,
          "durationTicks": 228,
          "midi": 69,
          "name": "A4",
          "ticks": 34800,
          "time": 51.782472500000004,
          "velocity": 0.7874015748031497
        },
        {
          "duration": 0.3392644749999931,
          "durationTicks": 228,
          "midi": 55,
          "name": "G3",
          "ticks": 34800,
          "time": 51.782472500000004,
          "velocity": 0.7874015748031497
        },
        {
          "duration": 0.3392644749999931,
          "durationTicks": 228,
          "midi": 43,
          "name": "G2",
          "ticks": 34800,
          "time": 51.782472500000004,
          "velocity": 0.7874015748031497
        },
        {
          "duration": 0.3392644749999931,
          "durationTicks": 228,
          "midi": 81,
          "name": "A5",
          "ticks": 34800,
          "time": 51.782472500000004,
          "velocity": 0.7874015748031497
        },
        {
          "duration": 0.33926447500000023,
          "durationTicks": 228,
          "midi": 71,
          "name": "B4",
          "ticks": 35040,
          "time": 52.139593,
          "velocity": 0.7874015748031497
        },
        {
          "duration": 0.33926447500000023,
          "durationTicks": 228,
          "midi": 55,
          "name": "G3",
          "ticks": 35040,
          "time": 52.139593,
          "velocity": 0.7874015748031497
        },
        {
          "duration": 0.33926447500000023,
          "durationTicks": 228,
          "midi": 43,
          "name": "G2",
          "ticks": 35040,
          "time": 52.139593,
          "velocity": 0.7874015748031497
        },
        {
          "duration": 0.33926447500000023,
          "durationTicks": 228,
          "midi": 83,
          "name": "B5",
          "ticks": 35040,
          "time": 52.139593,
          "velocity": 0.7874015748031497
        },
        {
          "duration": 0.33926447500000023,
          "durationTicks": 228,
          "midi": 72,
          "name": "C5",
          "ticks": 35280,
          "time": 52.4967135,
          "velocity": 0.7874015748031497
        },
        {
          "duration": 0.33926447500000023,
          "durationTicks": 228,
          "midi": 55,
          "name": "G3",
          "ticks": 35280,
          "time": 52.4967135,
          "velocity": 0.7874015748031497
        },
        {
          "duration": 0.33926447500000023,
          "durationTicks": 228,
          "midi": 43,
          "name": "G2",
          "ticks": 35280,
          "time": 52.4967135,
          "velocity": 0.7874015748031497
        },
        {
          "duration": 0.33926447500000023,
          "durationTicks": 228,
          "midi": 84,
          "name": "C6",
          "ticks": 35280,
          "time": 52.4967135,
          "velocity": 0.7874015748031497
        },
        {
          "duration": 0.5088967125000039,
          "durationTicks": 342,
          "midi": 71,
          "name": "B4",
          "ticks": 35520,
          "time": 52.853834,
          "velocity": 0.7874015748031497
        },
        {
          "duration": 0.33926447500000023,
          "durationTicks": 228,
          "midi": 50,
          "name": "D3",
          "ticks": 35520,
          "time": 52.853834,
          "velocity": 0.7874015748031497
        },
        {
          "duration": 0.33926447500000023,
          "durationTicks": 228,
          "midi": 38,
          "name": "D2",
          "ticks": 35520,
          "time": 52.853834,
          "velocity": 0.7874015748031497
        },
        {
          "duration": 0.33926447500000023,
          "durationTicks": 228,
          "midi": 83,
          "name": "B5",
          "ticks": 35520,
          "time": 52.853834,
          "velocity": 0.7874015748031497
        },
        {
          "duration": 0.33926447500000023,
          "durationTicks": 228,
          "midi": 50,
          "name": "D3",
          "ticks": 35760,
          "time": 53.2109545,
          "velocity": 0.7874015748031497
        },
        {
          "duration": 0.33926447500000023,
          "durationTicks": 228,
          "midi": 38,
          "name": "D2",
          "ticks": 35760,
          "time": 53.2109545,
          "velocity": 0.7874015748031497
        },
        {
          "duration": 0.16963223749999656,
          "durationTicks": 114,
          "midi": 66,
          "name": "F#4",
          "ticks": 35880,
          "time": 53.389514750000004,
          "velocity": 0.7874015748031497
        },
        {
          "duration": 0.3392644749999931,
          "durationTicks": 228,
          "midi": 66,
          "name": "F#4",
          "ticks": 35880,
          "time": 53.389514750000004,
          "velocity": 0.7874015748031497
        },
        {
          "duration": 0.3392644749999931,
          "durationTicks": 228,
          "midi": 78,
          "name": "F#5",
          "ticks": 35880,
          "time": 53.389514750000004,
          "velocity": 0.7874015748031497
        },
        {
          "duration": 0.3392644749999931,
          "durationTicks": 228,
          "midi": 78,
          "name": "F#5",
          "ticks": 35880,
          "time": 53.389514750000004,
          "velocity": 0.7874015748031497
        },
        {
          "duration": 0.5088967125000039,
          "durationTicks": 342,
          "midi": 66,
          "name": "F#4",
          "ticks": 36000,
          "time": 53.568075,
          "velocity": 0.7874015748031497
        },
        {
          "duration": 0.33926447500000023,
          "durationTicks": 228,
          "midi": 50,
          "name": "D3",
          "ticks": 36000,
          "time": 53.568075,
          "velocity": 0.7874015748031497
        },
        {
          "duration": 0.33926447500000023,
          "durationTicks": 228,
          "midi": 38,
          "name": "D2",
          "ticks": 36000,
          "time": 53.568075,
          "velocity": 0.7874015748031497
        },
        {
          "duration": 0.33926447500000023,
          "durationTicks": 228,
          "midi": 78,
          "name": "F#5",
          "ticks": 36000,
          "time": 53.568075,
          "velocity": 0.7874015748031497
        },
        {
          "duration": 0.3392644749999931,
          "durationTicks": 228,
          "midi": 50,
          "name": "D3",
          "ticks": 36240,
          "time": 53.9251955,
          "velocity": 0.7874015748031497
        },
        {
          "duration": 0.3392644749999931,
          "durationTicks": 228,
          "midi": 38,
          "name": "D2",
          "ticks": 36240,
          "time": 53.9251955,
          "velocity": 0.7874015748031497
        },
        {
          "duration": 0.16963223750000367,
          "durationTicks": 114,
          "midi": 64,
          "name": "E4",
          "ticks": 36360,
          "time": 54.10375575,
          "velocity": 0.7874015748031497
        },
        {
          "duration": 0.16963223750000367,
          "durationTicks": 114,
          "midi": 76,
          "name": "E5",
          "ticks": 36360,
          "time": 54.10375575,
          "velocity": 0.7874015748031497
        },
        {
          "duration": 0.3392644749999931,
          "durationTicks": 228,
          "midi": 64,
          "name": "E4",
          "ticks": 36480,
          "time": 54.282316,
          "velocity": 0.7874015748031497
        },
        {
          "duration": 0.3392644749999931,
          "durationTicks": 228,
          "midi": 52,
          "name": "E3",
          "ticks": 36480,
          "time": 54.282316,
          "velocity": 0.7874015748031497
        },
        {
          "duration": 0.3392644749999931,
          "durationTicks": 228,
          "midi": 40,
          "name": "E2",
          "ticks": 36480,
          "time": 54.282316,
          "velocity": 0.7874015748031497
        },
        {
          "duration": 0.3392644749999931,
          "durationTicks": 228,
          "midi": 76,
          "name": "E5",
          "ticks": 36480,
          "time": 54.282316,
          "velocity": 0.7874015748031497
        },
        {
          "duration": 0.3392644749999931,
          "durationTicks": 228,
          "midi": 52,
          "name": "E3",
          "ticks": 36720,
          "time": 54.6394365,
          "velocity": 0.7874015748031497
        },
        {
          "duration": 0.3392644749999931,
          "durationTicks": 228,
          "midi": 40,
          "name": "E2",
          "ticks": 36720,
          "time": 54.6394365,
          "velocity": 0.7874015748031497
        },
        {
          "duration": 0.3392644749999931,
          "durationTicks": 228,
          "midi": 67,
          "name": "G4",
          "ticks": 36960,
          "time": 54.996557,
          "velocity": 0.7874015748031497
        },
        {
          "duration": 0.3392644749999931,
          "durationTicks": 228,
          "midi": 52,
          "name": "E3",
          "ticks": 36960,
          "time": 54.996557,
          "velocity": 0.7874015748031497
        },
        {
          "duration": 0.3392644749999931,
          "durationTicks": 228,
          "midi": 40,
          "name": "E2",
          "ticks": 36960,
          "time": 54.996557,
          "velocity": 0.7874015748031497
        },
        {
          "duration": 0.3392644749999931,
          "durationTicks": 228,
          "midi": 79,
          "name": "G5",
          "ticks": 36960,
          "time": 54.996557,
          "velocity": 0.7874015748031497
        },
        {
          "duration": 0.3392644749999931,
          "durationTicks": 228,
          "midi": 64,
          "name": "E4",
          "ticks": 37200,
          "time": 55.3536775,
          "velocity": 0.7874015748031497
        },
        {
          "duration": 0.3392644749999931,
          "durationTicks": 228,
          "midi": 52,
          "name": "E3",
          "ticks": 37200,
          "time": 55.3536775,
          "velocity": 0.7874015748031497
        },
        {
          "duration": 0.3392644749999931,
          "durationTicks": 228,
          "midi": 40,
          "name": "E2",
          "ticks": 37200,
          "time": 55.3536775,
          "velocity": 0.7874015748031497
        },
        {
          "duration": 0.3392644749999931,
          "durationTicks": 228,
          "midi": 76,
          "name": "E5",
          "ticks": 37200,
          "time": 55.3536775,
          "velocity": 0.7874015748031497
        },
        {
          "duration": 0.3392644749999931,
          "durationTicks": 228,
          "midi": 67,
          "name": "G4",
          "ticks": 37440,
          "time": 55.710798000000004,
          "velocity": 0.7874015748031497
        },
        {
          "duration": 0.3392644749999931,
          "durationTicks": 228,
          "midi": 48,
          "name": "C3",
          "ticks": 37440,
          "time": 55.710798000000004,
          "velocity": 0.7874015748031497
        },
        {
          "duration": 0.3392644749999931,
          "durationTicks": 228,
          "midi": 36,
          "name": "C2",
          "ticks": 37440,
          "time": 55.710798000000004,
          "velocity": 0.7874015748031497
        },
        {
          "duration": 0.3392644749999931,
          "durationTicks": 228,
          "midi": 79,
          "name": "G5",
          "ticks": 37440,
          "time": 55.710798000000004,
          "velocity": 0.7874015748031497
        },
        {
          "duration": 0.3392644749999931,
          "durationTicks": 228,
          "midi": 64,
          "name": "E4",
          "ticks": 37680,
          "time": 56.067918500000005,
          "velocity": 0.7874015748031497
        },
        {
          "duration": 0.3392644749999931,
          "durationTicks": 228,
          "midi": 48,
          "name": "C3",
          "ticks": 37680,
          "time": 56.067918500000005,
          "velocity": 0.7874015748031497
        },
        {
          "duration": 0.3392644749999931,
          "durationTicks": 228,
          "midi": 36,
          "name": "C2",
          "ticks": 37680,
          "time": 56.067918500000005,
          "velocity": 0.7874015748031497
        },
        {
          "duration": 0.3392644749999931,
          "durationTicks": 228,
          "midi": 76,
          "name": "E5",
          "ticks": 37680,
          "time": 56.067918500000005,
          "velocity": 0.7874015748031497
        },
        {
          "duration": 0.33926447500000023,
          "durationTicks": 228,
          "midi": 67,
          "name": "G4",
          "ticks": 37920,
          "time": 56.425039,
          "velocity": 0.7874015748031497
        },
        {
          "duration": 0.33926447500000023,
          "durationTicks": 228,
          "midi": 48,
          "name": "C3",
          "ticks": 37920,
          "time": 56.425039,
          "velocity": 0.7874015748031497
        },
        {
          "duration": 0.33926447500000023,
          "durationTicks": 228,
          "midi": 36,
          "name": "C2",
          "ticks": 37920,
          "time": 56.425039,
          "velocity": 0.7874015748031497
        },
        {
          "duration": 0.33926447500000023,
          "durationTicks": 228,
          "midi": 79,
          "name": "G5",
          "ticks": 37920,
          "time": 56.425039,
          "velocity": 0.7874015748031497
        },
        {
          "duration": 0.33926447500000023,
          "durationTicks": 228,
          "midi": 69,
          "name": "A4",
          "ticks": 38160,
          "time": 56.7821595,
          "velocity": 0.7874015748031497
        },
        {
          "duration": 0.33926447500000023,
          "durationTicks": 228,
          "midi": 48,
          "name": "C3",
          "ticks": 38160,
          "time": 56.7821595,
          "velocity": 0.7874015748031497
        },
        {
          "duration": 0.33926447500000023,
          "durationTicks": 228,
          "midi": 36,
          "name": "C2",
          "ticks": 38160,
          "time": 56.7821595,
          "velocity": 0.7874015748031497
        },
        {
          "duration": 0.33926447500000023,
          "durationTicks": 228,
          "midi": 81,
          "name": "A5",
          "ticks": 38160,
          "time": 56.7821595,
          "velocity": 0.7874015748031497
        },
        {
          "duration": 0.33926447500000023,
          "durationTicks": 228,
          "midi": 71,
          "name": "B4",
          "ticks": 38400,
          "time": 57.13928,
          "velocity": 0.7874015748031497
        },
        {
          "duration": 0.33926447500000023,
          "durationTicks": 228,
          "midi": 55,
          "name": "G3",
          "ticks": 38400,
          "time": 57.13928,
          "velocity": 0.7874015748031497
        },
        {
          "duration": 0.33926447500000023,
          "durationTicks": 228,
          "midi": 43,
          "name": "G2",
          "ticks": 38400,
          "time": 57.13928,
          "velocity": 0.7874015748031497
        },
        {
          "duration": 0.33926447500000023,
          "durationTicks": 228,
          "midi": 83,
          "name": "B5",
          "ticks": 38400,
          "time": 57.13928,
          "velocity": 0.7874015748031497
        },
        {
          "duration": 0.33926447500000023,
          "durationTicks": 228,
          "midi": 67,
          "name": "G4",
          "ticks": 38640,
          "time": 57.4964005,
          "velocity": 0.7874015748031497
        },
        {
          "duration": 0.33926447500000023,
          "durationTicks": 228,
          "midi": 55,
          "name": "G3",
          "ticks": 38640,
          "time": 57.4964005,
          "velocity": 0.7874015748031497
        },
        {
          "duration": 0.33926447500000023,
          "durationTicks": 228,
          "midi": 43,
          "name": "G2",
          "ticks": 38640,
          "time": 57.4964005,
          "velocity": 0.7874015748031497
        },
        {
          "duration": 0.33926447500000023,
          "durationTicks": 228,
          "midi": 79,
          "name": "G5",
          "ticks": 38640,
          "time": 57.4964005,
          "velocity": 0.7874015748031497
        },
        {
          "duration": 0.3392644749999931,
          "durationTicks": 228,
          "midi": 67,
          "name": "G4",
          "ticks": 38880,
          "time": 57.853521,
          "velocity": 0.7874015748031497
        },
        {
          "duration": 0.3392644749999931,
          "durationTicks": 228,
          "midi": 55,
          "name": "G3",
          "ticks": 38880,
          "time": 57.853521,
          "velocity": 0.7874015748031497
        },
        {
          "duration": 0.3392644749999931,
          "durationTicks": 228,
          "midi": 43,
          "name": "G2",
          "ticks": 38880,
          "time": 57.853521,
          "velocity": 0.7874015748031497
        },
        {
          "duration": 0.3392644749999931,
          "durationTicks": 228,
          "midi": 79,
          "name": "G5",
          "ticks": 38880,
          "time": 57.853521,
          "velocity": 0.7874015748031497
        },
        {
          "duration": 0.3392644749999931,
          "durationTicks": 228,
          "midi": 55,
          "name": "G3",
          "ticks": 39120,
          "time": 58.2106415,
          "velocity": 0.7874015748031497
        },
        {
          "duration": 0.3392644749999931,
          "durationTicks": 228,
          "midi": 43,
          "name": "G2",
          "ticks": 39120,
          "time": 58.2106415,
          "velocity": 0.7874015748031497
        },
        {
          "duration": 0.3392644749999931,
          "durationTicks": 228,
          "midi": 66,
          "name": "F#4",
          "ticks": 39360,
          "time": 58.567762,
          "velocity": 0.7874015748031497
        },
        {
          "duration": 0.3392644749999931,
          "durationTicks": 228,
          "midi": 50,
          "name": "D3",
          "ticks": 39360,
          "time": 58.567762,
          "velocity": 0.7874015748031497
        },
        {
          "duration": 0.3392644749999931,
          "durationTicks": 228,
          "midi": 38,
          "name": "D2",
          "ticks": 39360,
          "time": 58.567762,
          "velocity": 0.7874015748031497
        },
        {
          "duration": 0.3392644749999931,
          "durationTicks": 228,
          "midi": 78,
          "name": "F#5",
          "ticks": 39360,
          "time": 58.567762,
          "velocity": 0.7874015748031497
        },
        {
          "duration": 0.3392644749999931,
          "durationTicks": 228,
          "midi": 69,
          "name": "A4",
          "ticks": 39600,
          "time": 58.9248825,
          "velocity": 0.7874015748031497
        },
        {
          "duration": 0.3392644749999931,
          "durationTicks": 228,
          "midi": 50,
          "name": "D3",
          "ticks": 39600,
          "time": 58.9248825,
          "velocity": 0.7874015748031497
        },
        {
          "duration": 0.3392644749999931,
          "durationTicks": 228,
          "midi": 38,
          "name": "D2",
          "ticks": 39600,
          "time": 58.9248825,
          "velocity": 0.7874015748031497
        },
        {
          "duration": 0.3392644749999931,
          "durationTicks": 228,
          "midi": 81,
          "name": "A5",
          "ticks": 39600,
          "time": 58.9248825,
          "velocity": 0.7874015748031497
        },
        {
          "duration": 0.3392644749999931,
          "durationTicks": 228,
          "midi": 66,
          "name": "F#4",
          "ticks": 39840,
          "time": 59.282003,
          "velocity": 0.7874015748031497
        },
        {
          "duration": 0.3392644749999931,
          "durationTicks": 228,
          "midi": 50,
          "name": "D3",
          "ticks": 39840,
          "time": 59.282003,
          "velocity": 0.7874015748031497
        },
        {
          "duration": 0.3392644749999931,
          "durationTicks": 228,
          "midi": 38,
          "name": "D2",
          "ticks": 39840,
          "time": 59.282003,
          "velocity": 0.7874015748031497
        },
        {
          "duration": 0.3392644749999931,
          "durationTicks": 228,
          "midi": 76,
          "name": "E5",
          "ticks": 39840,
          "time": 59.282003,
          "velocity": 0.7874015748031497
        },
        {
          "duration": 0.3392644749999931,
          "durationTicks": 228,
          "midi": 38,
          "name": "D2",
          "ticks": 40080,
          "time": 59.639123500000004,
          "velocity": 0.7874015748031497
        },
        {
          "duration": 0.3392644749999931,
          "durationTicks": 228,
          "midi": 50,
          "name": "D3",
          "ticks": 40080,
          "time": 59.639123500000004,
          "velocity": 0.7874015748031497
        },
        {
          "duration": 0.16963223749999656,
          "durationTicks": 114,
          "midi": 67,
          "name": "G4",
          "ticks": 40080,
          "time": 59.639123500000004,
          "velocity": 0.7874015748031497
        },
        {
          "duration": 0.16963223749999656,
          "durationTicks": 114,
          "midi": 79,
          "name": "G5",
          "ticks": 40080,
          "time": 59.639123500000004,
          "velocity": 0.7874015748031497
        },
        {
          "duration": 0.16963223749999656,
          "durationTicks": 114,
          "midi": 66,
          "name": "F#4",
          "ticks": 40200,
          "time": 59.81768375,
          "velocity": 0.7874015748031497
        },
        {
          "duration": 0.16963223749999656,
          "durationTicks": 114,
          "midi": 78,
          "name": "F#5",
          "ticks": 40200,
          "time": 59.81768375,
          "velocity": 0.7874015748031497
        },
        {
          "duration": 0.16963223749999656,
          "durationTicks": 114,
          "midi": 79,
          "name": "G5",
          "ticks": 40320,
          "time": 59.996244000000004,
          "velocity": 0.7874015748031497
        },
        {
          "duration": 0.16963223749999656,
          "durationTicks": 114,
          "midi": 67,
          "name": "G4",
          "ticks": 40320,
          "time": 59.996244000000004,
          "velocity": 0.7874015748031497
        },
        {
          "duration": 0.3392644749999931,
          "durationTicks": 228,
          "midi": 52,
          "name": "E3",
          "ticks": 40320,
          "time": 59.996244000000004,
          "velocity": 0.7874015748031497
        },
        {
          "duration": 0.3392644749999931,
          "durationTicks": 228,
          "midi": 40,
          "name": "E2",
          "ticks": 40320,
          "time": 59.996244000000004,
          "velocity": 0.7874015748031497
        },
        {
          "duration": 0.33926447500000023,
          "durationTicks": 228,
          "midi": 52,
          "name": "E3",
          "ticks": 40560,
          "time": 60.3533645,
          "velocity": 0.7874015748031497
        },
        {
          "duration": 0.33926447500000023,
          "durationTicks": 228,
          "midi": 40,
          "name": "E2",
          "ticks": 40560,
          "time": 60.3533645,
          "velocity": 0.7874015748031497
        },
        {
          "duration": 0.33926447500000023,
          "durationTicks": 228,
          "midi": 52,
          "name": "E3",
          "ticks": 40800,
          "time": 60.710485,
          "velocity": 0.7874015748031497
        },
        {
          "duration": 0.33926447500000023,
          "durationTicks": 228,
          "midi": 40,
          "name": "E2",
          "ticks": 40800,
          "time": 60.710485,
          "velocity": 0.7874015748031497
        },
        {
          "duration": 0.33926447500000023,
          "durationTicks": 228,
          "midi": 52,
          "name": "E3",
          "ticks": 41040,
          "time": 61.0676055,
          "velocity": 0.7874015748031497
        },
        {
          "duration": 0.33926447500000023,
          "durationTicks": 228,
          "midi": 40,
          "name": "E2",
          "ticks": 41040,
          "time": 61.0676055,
          "velocity": 0.7874015748031497
        },
        {
          "duration": 0.33926447500000023,
          "durationTicks": 228,
          "midi": 52,
          "name": "E3",
          "ticks": 41280,
          "time": 61.424726,
          "velocity": 0.7874015748031497
        },
        {
          "duration": 0.33926447500000023,
          "durationTicks": 228,
          "midi": 40,
          "name": "E2",
          "ticks": 41280,
          "time": 61.424726,
          "velocity": 0.7874015748031497
        },
        {
          "duration": 0.33926447500000023,
          "durationTicks": 228,
          "midi": 52,
          "name": "E3",
          "ticks": 41520,
          "time": 61.7818465,
          "velocity": 0.7874015748031497
        },
        {
          "duration": 0.33926447500000023,
          "durationTicks": 228,
          "midi": 40,
          "name": "E2",
          "ticks": 41520,
          "time": 61.7818465,
          "velocity": 0.7874015748031497
        },
        {
          "duration": 0.33926447500000023,
          "durationTicks": 228,
          "midi": 67,
          "name": "G4",
          "ticks": 41520,
          "time": 61.7818465,
          "velocity": 0.7874015748031497
        },
        {
          "duration": 0.3392644749999931,
          "durationTicks": 228,
          "midi": 52,
          "name": "E3",
          "ticks": 41760,
          "time": 62.138967,
          "velocity": 0.7874015748031497
        },
        {
          "duration": 0.3392644749999931,
          "durationTicks": 228,
          "midi": 40,
          "name": "E2",
          "ticks": 41760,
          "time": 62.138967,
          "velocity": 0.7874015748031497
        },
        {
          "duration": 0.3392644749999931,
          "durationTicks": 228,
          "midi": 74,
          "name": "D5",
          "ticks": 41760,
          "time": 62.138967,
          "velocity": 0.7874015748031497
        },
        {
          "duration": 0.3392644749999931,
          "durationTicks": 228,
          "midi": 52,
          "name": "E3",
          "ticks": 42000,
          "time": 62.4960875,
          "velocity": 0.7874015748031497
        },
        {
          "duration": 0.3392644749999931,
          "durationTicks": 228,
          "midi": 40,
          "name": "E2",
          "ticks": 42000,
          "time": 62.4960875,
          "velocity": 0.7874015748031497
        },
        {
          "duration": 0.3392644749999931,
          "durationTicks": 228,
          "midi": 71,
          "name": "B4",
          "ticks": 42000,
          "time": 62.4960875,
          "velocity": 0.7874015748031497
        },
        {
          "duration": 0.3392644749999931,
          "durationTicks": 228,
          "midi": 48,
          "name": "C3",
          "ticks": 42240,
          "time": 62.853208,
          "velocity": 0.7874015748031497
        },
        {
          "duration": 0.3392644749999931,
          "durationTicks": 228,
          "midi": 36,
          "name": "C2",
          "ticks": 42240,
          "time": 62.853208,
          "velocity": 0.7874015748031497
        },
        {
          "duration": 0.3392644749999931,
          "durationTicks": 228,
          "midi": 72,
          "name": "C5",
          "ticks": 42240,
          "time": 62.853208,
          "velocity": 0.7874015748031497
        },
        {
          "duration": 0.3392644749999931,
          "durationTicks": 228,
          "midi": 48,
          "name": "C3",
          "ticks": 42480,
          "time": 63.2103285,
          "velocity": 0.7874015748031497
        },
        {
          "duration": 0.3392644749999931,
          "durationTicks": 228,
          "midi": 36,
          "name": "C2",
          "ticks": 42480,
          "time": 63.2103285,
          "velocity": 0.7874015748031497
        },
        {
          "duration": 0.3392644749999931,
          "durationTicks": 228,
          "midi": 48,
          "name": "C3",
          "ticks": 42720,
          "time": 63.567449,
          "velocity": 0.7874015748031497
        },
        {
          "duration": 0.3392644749999931,
          "durationTicks": 228,
          "midi": 36,
          "name": "C2",
          "ticks": 42720,
          "time": 63.567449,
          "velocity": 0.7874015748031497
        },
        {
          "duration": 0.3392644749999931,
          "durationTicks": 228,
          "midi": 48,
          "name": "C3",
          "ticks": 42960,
          "time": 63.924569500000004,
          "velocity": 0.7874015748031497
        },
        {
          "duration": 0.3392644749999931,
          "durationTicks": 228,
          "midi": 36,
          "name": "C2",
          "ticks": 42960,
          "time": 63.924569500000004,
          "velocity": 0.7874015748031497
        },
        {
          "duration": 0.3392644749999931,
          "durationTicks": 228,
          "midi": 48,
          "name": "C3",
          "ticks": 43200,
          "time": 64.28169,
          "velocity": 0.7874015748031497
        },
        {
          "duration": 0.3392644749999931,
          "durationTicks": 228,
          "midi": 36,
          "name": "C2",
          "ticks": 43200,
          "time": 64.28169,
          "velocity": 0.7874015748031497
        },
        {
          "duration": 0.6785289500000005,
          "durationTicks": 456,
          "midi": 71,
          "name": "B4",
          "ticks": 43200,
          "time": 64.28169,
          "velocity": 0.7874015748031497
        },
        {
          "duration": 0.3392644749999931,
          "durationTicks": 228,
          "midi": 48,
          "name": "C3",
          "ticks": 43440,
          "time": 64.6388105,
          "velocity": 0.7874015748031497
        },
        {
          "duration": 0.3392644749999931,
          "durationTicks": 228,
          "midi": 36,
          "name": "C2",
          "ticks": 43440,
          "time": 64.6388105,
          "velocity": 0.7874015748031497
        },
        {
          "duration": 0.3392644749999931,
          "durationTicks": 228,
          "midi": 48,
          "name": "C3",
          "ticks": 43680,
          "time": 64.995931,
          "velocity": 0.7874015748031497
        },
        {
          "duration": 0.3392644749999931,
          "durationTicks": 228,
          "midi": 36,
          "name": "C2",
          "ticks": 43680,
          "time": 64.995931,
          "velocity": 0.7874015748031497
        },
        {
          "duration": 0.6785289500000005,
          "durationTicks": 456,
          "midi": 69,
          "name": "A4",
          "ticks": 43680,
          "time": 64.995931,
          "velocity": 0.7874015748031497
        },
        {
          "duration": 0.3392644749999931,
          "durationTicks": 228,
          "midi": 48,
          "name": "C3",
          "ticks": 43920,
          "time": 65.3530515,
          "velocity": 0.7874015748031497
        },
        {
          "duration": 0.3392644749999931,
          "durationTicks": 228,
          "midi": 36,
          "name": "C2",
          "ticks": 43920,
          "time": 65.3530515,
          "velocity": 0.7874015748031497
        },
        {
          "duration": 0.6785289500000005,
          "durationTicks": 456,
          "midi": 71,
          "name": "B4",
          "ticks": 44160,
          "time": 65.710172,
          "velocity": 0.7874015748031497
        },
        {
          "duration": 0.3392644749999931,
          "durationTicks": 228,
          "midi": 55,
          "name": "G3",
          "ticks": 44160,
          "time": 65.710172,
          "velocity": 0.7874015748031497
        },
        {
          "duration": 0.3392644749999931,
          "durationTicks": 228,
          "midi": 43,
          "name": "G2",
          "ticks": 44160,
          "time": 65.710172,
          "velocity": 0.7874015748031497
        },
        {
          "duration": 0.3392644749999931,
          "durationTicks": 228,
          "midi": 55,
          "name": "G3",
          "ticks": 44400,
          "time": 66.06729250000001,
          "velocity": 0.7874015748031497
        },
        {
          "duration": 0.3392644749999931,
          "durationTicks": 228,
          "midi": 43,
          "name": "G2",
          "ticks": 44400,
          "time": 66.06729250000001,
          "velocity": 0.7874015748031497
        },
        {
          "duration": 0.3392644749999931,
          "durationTicks": 228,
          "midi": 55,
          "name": "G3",
          "ticks": 44640,
          "time": 66.424413,
          "velocity": 0.7874015748031497
        },
        {
          "duration": 0.3392644749999931,
          "durationTicks": 228,
          "midi": 43,
          "name": "G2",
          "ticks": 44640,
          "time": 66.424413,
          "velocity": 0.7874015748031497
        },
        {
          "duration": 0.33926447500000734,
          "durationTicks": 228,
          "midi": 55,
          "name": "G3",
          "ticks": 44880,
          "time": 66.7815335,
          "velocity": 0.7874015748031497
        },
        {
          "duration": 0.33926447500000734,
          "durationTicks": 228,
          "midi": 43,
          "name": "G2",
          "ticks": 44880,
          "time": 66.7815335,
          "velocity": 0.7874015748031497
        },
        {
          "duration": 0.3392644749999931,
          "durationTicks": 228,
          "midi": 55,
          "name": "G3",
          "ticks": 45120,
          "time": 67.138654,
          "velocity": 0.7874015748031497
        },
        {
          "duration": 0.3392644749999931,
          "durationTicks": 228,
          "midi": 43,
          "name": "G2",
          "ticks": 45120,
          "time": 67.138654,
          "velocity": 0.7874015748031497
        },
        {
          "duration": 0.33926447500000734,
          "durationTicks": 228,
          "midi": 55,
          "name": "G3",
          "ticks": 45360,
          "time": 67.4957745,
          "velocity": 0.7874015748031497
        },
        {
          "duration": 0.33926447500000734,
          "durationTicks": 228,
          "midi": 43,
          "name": "G2",
          "ticks": 45360,
          "time": 67.4957745,
          "velocity": 0.7874015748031497
        },
        {
          "duration": 0.33926447500000734,
          "durationTicks": 228,
          "midi": 67,
          "name": "G4",
          "ticks": 45360,
          "time": 67.4957745,
          "velocity": 0.7874015748031497
        },
        {
          "duration": 0.3392644749999931,
          "durationTicks": 228,
          "midi": 55,
          "name": "G3",
          "ticks": 45600,
          "time": 67.852895,
          "velocity": 0.7874015748031497
        },
        {
          "duration": 0.3392644749999931,
          "durationTicks": 228,
          "midi": 43,
          "name": "G2",
          "ticks": 45600,
          "time": 67.852895,
          "velocity": 0.7874015748031497
        },
        {
          "duration": 0.3392644749999931,
          "durationTicks": 228,
          "midi": 74,
          "name": "D5",
          "ticks": 45600,
          "time": 67.852895,
          "velocity": 0.7874015748031497
        },
        {
          "duration": 0.3392644749999931,
          "durationTicks": 228,
          "midi": 55,
          "name": "G3",
          "ticks": 45840,
          "time": 68.2100155,
          "velocity": 0.7874015748031497
        },
        {
          "duration": 0.3392644749999931,
          "durationTicks": 228,
          "midi": 43,
          "name": "G2",
          "ticks": 45840,
          "time": 68.2100155,
          "velocity": 0.7874015748031497
        },
        {
          "duration": 0.3392644749999931,
          "durationTicks": 228,
          "midi": 71,
          "name": "B4",
          "ticks": 45840,
          "time": 68.2100155,
          "velocity": 0.7874015748031497
        },
        {
          "duration": 0.3392644749999931,
          "durationTicks": 228,
          "midi": 50,
          "name": "D3",
          "ticks": 46080,
          "time": 68.567136,
          "velocity": 0.7874015748031497
        },
        {
          "duration": 0.3392644749999931,
          "durationTicks": 228,
          "midi": 38,
          "name": "D2",
          "ticks": 46080,
          "time": 68.567136,
          "velocity": 0.7874015748031497
        },
        {
          "duration": 0.6785289500000005,
          "durationTicks": 456,
          "midi": 72,
          "name": "C5",
          "ticks": 46080,
          "time": 68.567136,
          "velocity": 0.7874015748031497
        },
        {
          "duration": 0.3392644749999931,
          "durationTicks": 228,
          "midi": 50,
          "name": "D3",
          "ticks": 46320,
          "time": 68.9242565,
          "velocity": 0.7874015748031497
        },
        {
          "duration": 0.3392644749999931,
          "durationTicks": 228,
          "midi": 38,
          "name": "D2",
          "ticks": 46320,
          "time": 68.9242565,
          "velocity": 0.7874015748031497
        },
        {
          "duration": 0.3392644749999931,
          "durationTicks": 228,
          "midi": 50,
          "name": "D3",
          "ticks": 46560,
          "time": 69.281377,
          "velocity": 0.7874015748031497
        },
        {
          "duration": 0.3392644749999931,
          "durationTicks": 228,
          "midi": 38,
          "name": "D2",
          "ticks": 46560,
          "time": 69.281377,
          "velocity": 0.7874015748031497
        },
        {
          "duration": 0.3392644749999931,
          "durationTicks": 228,
          "midi": 38,
          "name": "D2",
          "ticks": 46800,
          "time": 69.6384975,
          "velocity": 0.7874015748031497
        },
        {
          "duration": 0.3392644749999931,
          "durationTicks": 228,
          "midi": 50,
          "name": "D3",
          "ticks": 46800,
          "time": 69.6384975,
          "velocity": 0.7874015748031497
        },
        {
          "duration": 0.3392644749999931,
          "durationTicks": 228,
          "midi": 50,
          "name": "D3",
          "ticks": 47040,
          "time": 69.99561800000001,
          "velocity": 0.7874015748031497
        },
        {
          "duration": 0.3392644749999931,
          "durationTicks": 228,
          "midi": 38,
          "name": "D2",
          "ticks": 47040,
          "time": 69.99561800000001,
          "velocity": 0.7874015748031497
        },
        {
          "duration": 0.6785289500000005,
          "durationTicks": 456,
          "midi": 71,
          "name": "B4",
          "ticks": 47040,
          "time": 69.99561800000001,
          "velocity": 0.7874015748031497
        },
        {
          "duration": 0.3392644749999931,
          "durationTicks": 228,
          "midi": 50,
          "name": "D3",
          "ticks": 47280,
          "time": 70.3527385,
          "velocity": 0.7874015748031497
        },
        {
          "duration": 0.3392644749999931,
          "durationTicks": 228,
          "midi": 38,
          "name": "D2",
          "ticks": 47280,
          "time": 70.3527385,
          "velocity": 0.7874015748031497
        },
        {
          "duration": 0.33926447500000734,
          "durationTicks": 228,
          "midi": 50,
          "name": "D3",
          "ticks": 47520,
          "time": 70.709859,
          "velocity": 0.7874015748031497
        },
        {
          "duration": 0.33926447500000734,
          "durationTicks": 228,
          "midi": 38,
          "name": "D2",
          "ticks": 47520,
          "time": 70.709859,
          "velocity": 0.7874015748031497
        },
        {
          "duration": 0.6785289500000147,
          "durationTicks": 456,
          "midi": 69,
          "name": "A4",
          "ticks": 47520,
          "time": 70.709859,
          "velocity": 0.7874015748031497
        },
        {
          "duration": 0.3392644749999931,
          "durationTicks": 228,
          "midi": 38,
          "name": "D2",
          "ticks": 47760,
          "time": 71.0669795,
          "velocity": 0.7874015748031497
        },
        {
          "duration": 0.3392644749999931,
          "durationTicks": 228,
          "midi": 50,
          "name": "D3",
          "ticks": 47760,
          "time": 71.0669795,
          "velocity": 0.7874015748031497
        },
        {
          "duration": 0.6785289500000147,
          "durationTicks": 456,
          "midi": 59,
          "name": "B3",
          "ticks": 48000,
          "time": 71.4241,
          "velocity": 0.7874015748031497
        },
        {
          "duration": 0.33926447500000734,
          "durationTicks": 228,
          "midi": 52,
          "name": "E3",
          "ticks": 48000,
          "time": 71.4241,
          "velocity": 0.7874015748031497
        },
        {
          "duration": 0.33926447500000734,
          "durationTicks": 228,
          "midi": 40,
          "name": "E2",
          "ticks": 48000,
          "time": 71.4241,
          "velocity": 0.7874015748031497
        },
        {
          "duration": 0.3392644749999931,
          "durationTicks": 228,
          "midi": 52,
          "name": "E3",
          "ticks": 48240,
          "time": 71.7812205,
          "velocity": 0.7874015748031497
        },
        {
          "duration": 0.3392644749999931,
          "durationTicks": 228,
          "midi": 40,
          "name": "E2",
          "ticks": 48240,
          "time": 71.7812205,
          "velocity": 0.7874015748031497
        },
        {
          "duration": 0.33926447500000734,
          "durationTicks": 228,
          "midi": 52,
          "name": "E3",
          "ticks": 48480,
          "time": 72.138341,
          "velocity": 0.7874015748031497
        },
        {
          "duration": 0.33926447500000734,
          "durationTicks": 228,
          "midi": 40,
          "name": "E2",
          "ticks": 48480,
          "time": 72.138341,
          "velocity": 0.7874015748031497
        },
        {
          "duration": 0.16963223749999656,
          "durationTicks": 114,
          "midi": 55,
          "name": "G3",
          "ticks": 48720,
          "time": 72.4954615,
          "velocity": 0.7874015748031497
        },
        {
          "duration": 0.3392644749999931,
          "durationTicks": 228,
          "midi": 52,
          "name": "E3",
          "ticks": 48720,
          "time": 72.4954615,
          "velocity": 0.7874015748031497
        },
        {
          "duration": 0.3392644749999931,
          "durationTicks": 228,
          "midi": 40,
          "name": "E2",
          "ticks": 48720,
          "time": 72.4954615,
          "velocity": 0.7874015748031497
        },
        {
          "duration": 0.5088967125000039,
          "durationTicks": 342,
          "midi": 62,
          "name": "D4",
          "ticks": 48840,
          "time": 72.67402175000001,
          "velocity": 0.7874015748031497
        },
        {
          "duration": 0.3392644749999931,
          "durationTicks": 228,
          "midi": 48,
          "name": "C3",
          "ticks": 48960,
          "time": 72.852582,
          "velocity": 0.7874015748031497
        },
        {
          "duration": 0.3392644749999931,
          "durationTicks": 228,
          "midi": 36,
          "name": "C2",
          "ticks": 48960,
          "time": 72.852582,
          "velocity": 0.7874015748031497
        },
        {
          "duration": 0.16963223749999656,
          "durationTicks": 114,
          "midi": 60,
          "name": "C4",
          "ticks": 49200,
          "time": 73.2097025,
          "velocity": 0.7874015748031497
        },
        {
          "duration": 0.3392644749999931,
          "durationTicks": 228,
          "midi": 48,
          "name": "C3",
          "ticks": 49200,
          "time": 73.2097025,
          "velocity": 0.7874015748031497
        },
        {
          "duration": 0.3392644749999931,
          "durationTicks": 228,
          "midi": 36,
          "name": "C2",
          "ticks": 49200,
          "time": 73.2097025,
          "velocity": 0.7874015748031497
        },
        {
          "duration": 0.33926447500000734,
          "durationTicks": 228,
          "midi": 59,
          "name": "B3",
          "ticks": 49320,
          "time": 73.38826275,
          "velocity": 0.7874015748031497
        },
        {
          "duration": 0.3392644749999931,
          "durationTicks": 228,
          "midi": 48,
          "name": "C3",
          "ticks": 49440,
          "time": 73.566823,
          "velocity": 0.7874015748031497
        },
        {
          "duration": 0.3392644749999931,
          "durationTicks": 228,
          "midi": 36,
          "name": "C2",
          "ticks": 49440,
          "time": 73.566823,
          "velocity": 0.7874015748031497
        },
        {
          "duration": 0.3392644749999931,
          "durationTicks": 228,
          "midi": 57,
          "name": "A3",
          "ticks": 49560,
          "time": 73.74538325,
          "velocity": 0.7874015748031497
        },
        {
          "duration": 0.3392644749999931,
          "durationTicks": 228,
          "midi": 48,
          "name": "C3",
          "ticks": 49680,
          "time": 73.92394350000001,
          "velocity": 0.7874015748031497
        },
        {
          "duration": 0.3392644749999931,
          "durationTicks": 228,
          "midi": 36,
          "name": "C2",
          "ticks": 49680,
          "time": 73.92394350000001,
          "velocity": 0.7874015748031497
        },
        {
          "duration": 0.8838732374999978,
          "durationTicks": 594,
          "midi": 59,
          "name": "B3",
          "ticks": 49800,
          "time": 74.10250375,
          "velocity": 0.7874015748031497
        },
        {
          "duration": 0.3392644749999931,
          "durationTicks": 228,
          "midi": 55,
          "name": "G3",
          "ticks": 49920,
          "time": 74.281064,
          "velocity": 0.7874015748031497
        },
        {
          "duration": 0.3392644749999931,
          "durationTicks": 228,
          "midi": 43,
          "name": "G2",
          "ticks": 49920,
          "time": 74.281064,
          "velocity": 0.7874015748031497
        },
        {
          "duration": 0.3392644749999931,
          "durationTicks": 228,
          "midi": 55,
          "name": "G3",
          "ticks": 50160,
          "time": 74.63818450000001,
          "velocity": 0.7874015748031497
        },
        {
          "duration": 0.3392644749999931,
          "durationTicks": 228,
          "midi": 43,
          "name": "G2",
          "ticks": 50160,
          "time": 74.63818450000001,
          "velocity": 0.7874015748031497
        },
        {
          "duration": 0.3392644749999931,
          "durationTicks": 228,
          "midi": 55,
          "name": "G3",
          "ticks": 50400,
          "time": 74.995305,
          "velocity": 0.7874015748031497
        },
        {
          "duration": 0.3392644749999931,
          "durationTicks": 228,
          "midi": 43,
          "name": "G2",
          "ticks": 50400,
          "time": 74.995305,
          "velocity": 0.7874015748031497
        },
        {
          "duration": 0.33926447500000734,
          "durationTicks": 228,
          "midi": 55,
          "name": "G3",
          "ticks": 50640,
          "time": 75.3524255,
          "velocity": 0.7874015748031497
        },
        {
          "duration": 0.33926447500000734,
          "durationTicks": 228,
          "midi": 55,
          "name": "G3",
          "ticks": 50640,
          "time": 75.3524255,
          "velocity": 0.7874015748031497
        },
        {
          "duration": 0.33926447500000734,
          "durationTicks": 228,
          "midi": 43,
          "name": "G2",
          "ticks": 50640,
          "time": 75.3524255,
          "velocity": 0.7874015748031497
        },
        {
          "duration": 0.3392644749999931,
          "durationTicks": 228,
          "midi": 55,
          "name": "G3",
          "ticks": 50880,
          "time": 75.709546,
          "velocity": 0.7874015748031497
        },
        {
          "duration": 0.3392644749999931,
          "durationTicks": 228,
          "midi": 50,
          "name": "D3",
          "ticks": 50880,
          "time": 75.709546,
          "velocity": 0.7874015748031497
        },
        {
          "duration": 0.3392644749999931,
          "durationTicks": 228,
          "midi": 38,
          "name": "D2",
          "ticks": 50880,
          "time": 75.709546,
          "velocity": 0.7874015748031497
        },
        {
          "duration": 0.33926447500000734,
          "durationTicks": 228,
          "midi": 55,
          "name": "G3",
          "ticks": 51120,
          "time": 76.0666665,
          "velocity": 0.7874015748031497
        },
        {
          "duration": 0.33926447500000734,
          "durationTicks": 228,
          "midi": 50,
          "name": "D3",
          "ticks": 51120,
          "time": 76.0666665,
          "velocity": 0.7874015748031497
        },
        {
          "duration": 0.33926447500000734,
          "durationTicks": 228,
          "midi": 38,
          "name": "D2",
          "ticks": 51120,
          "time": 76.0666665,
          "velocity": 0.7874015748031497
        },
        {
          "duration": 0.3392644749999931,
          "durationTicks": 228,
          "midi": 57,
          "name": "A3",
          "ticks": 51360,
          "time": 76.423787,
          "velocity": 0.7874015748031497
        },
        {
          "duration": 0.3392644749999931,
          "durationTicks": 228,
          "midi": 50,
          "name": "D3",
          "ticks": 51360,
          "time": 76.423787,
          "velocity": 0.7874015748031497
        },
        {
          "duration": 0.3392644749999931,
          "durationTicks": 228,
          "midi": 38,
          "name": "D2",
          "ticks": 51360,
          "time": 76.423787,
          "velocity": 0.7874015748031497
        },
        {
          "duration": 0.3392644749999931,
          "durationTicks": 228,
          "midi": 60,
          "name": "C4",
          "ticks": 51600,
          "time": 76.7809075,
          "velocity": 0.7874015748031497
        },
        {
          "duration": 0.3392644749999931,
          "durationTicks": 228,
          "midi": 50,
          "name": "D3",
          "ticks": 51600,
          "time": 76.7809075,
          "velocity": 0.7874015748031497
        },
        {
          "duration": 0.3392644749999931,
          "durationTicks": 228,
          "midi": 38,
          "name": "D2",
          "ticks": 51600,
          "time": 76.7809075,
          "velocity": 0.7874015748031497
        },
        {
          "duration": 0.3392644749999931,
          "durationTicks": 228,
          "midi": 59,
          "name": "B3",
          "ticks": 51840,
          "time": 77.138028,
          "velocity": 0.7874015748031497
        },
        {
          "duration": 0.3392644749999931,
          "durationTicks": 228,
          "midi": 52,
          "name": "E3",
          "ticks": 51840,
          "time": 77.138028,
          "velocity": 0.7874015748031497
        },
        {
          "duration": 0.3392644749999931,
          "durationTicks": 228,
          "midi": 40,
          "name": "E2",
          "ticks": 51840,
          "time": 77.138028,
          "velocity": 0.7874015748031497
        },
        {
          "duration": 0.3392644749999931,
          "durationTicks": 228,
          "midi": 55,
          "name": "G3",
          "ticks": 52080,
          "time": 77.4951485,
          "velocity": 0.7874015748031497
        },
        {
          "duration": 0.3392644749999931,
          "durationTicks": 228,
          "midi": 52,
          "name": "E3",
          "ticks": 52080,
          "time": 77.4951485,
          "velocity": 0.7874015748031497
        },
        {
          "duration": 0.3392644749999931,
          "durationTicks": 228,
          "midi": 40,
          "name": "E2",
          "ticks": 52080,
          "time": 77.4951485,
          "velocity": 0.7874015748031497
        },
        {
          "duration": 0.3392644749999931,
          "durationTicks": 228,
          "midi": 52,
          "name": "E3",
          "ticks": 52320,
          "time": 77.852269,
          "velocity": 0.7874015748031497
        },
        {
          "duration": 0.3392644749999931,
          "durationTicks": 228,
          "midi": 40,
          "name": "E2",
          "ticks": 52320,
          "time": 77.852269,
          "velocity": 0.7874015748031497
        },
        {
          "duration": 0.3392644749999931,
          "durationTicks": 228,
          "midi": 55,
          "name": "G3",
          "ticks": 52560,
          "time": 78.2093895,
          "velocity": 0.7874015748031497
        },
        {
          "duration": 0.3392644749999931,
          "durationTicks": 228,
          "midi": 52,
          "name": "E3",
          "ticks": 52560,
          "time": 78.2093895,
          "velocity": 0.7874015748031497
        },
        {
          "duration": 0.3392644749999931,
          "durationTicks": 228,
          "midi": 40,
          "name": "E2",
          "ticks": 52560,
          "time": 78.2093895,
          "velocity": 0.7874015748031497
        },
        {
          "duration": 0.3392644749999931,
          "durationTicks": 228,
          "midi": 55,
          "name": "G3",
          "ticks": 52800,
          "time": 78.56651000000001,
          "velocity": 0.7874015748031497
        },
        {
          "duration": 0.3392644749999931,
          "durationTicks": 228,
          "midi": 48,
          "name": "C3",
          "ticks": 52800,
          "time": 78.56651000000001,
          "velocity": 0.7874015748031497
        },
        {
          "duration": 0.3392644749999931,
          "durationTicks": 228,
          "midi": 36,
          "name": "C2",
          "ticks": 52800,
          "time": 78.56651000000001,
          "velocity": 0.7874015748031497
        },
        {
          "duration": 0.3392644749999931,
          "durationTicks": 228,
          "midi": 55,
          "name": "G3",
          "ticks": 53040,
          "time": 78.9236305,
          "velocity": 0.7874015748031497
        },
        {
          "duration": 0.3392644749999931,
          "durationTicks": 228,
          "midi": 48,
          "name": "C3",
          "ticks": 53040,
          "time": 78.9236305,
          "velocity": 0.7874015748031497
        },
        {
          "duration": 0.3392644749999931,
          "durationTicks": 228,
          "midi": 36,
          "name": "C2",
          "ticks": 53040,
          "time": 78.9236305,
          "velocity": 0.7874015748031497
        },
        {
          "duration": 0.33926447500000734,
          "durationTicks": 228,
          "midi": 57,
          "name": "A3",
          "ticks": 53280,
          "time": 79.280751,
          "velocity": 0.7874015748031497
        },
        {
          "duration": 0.33926447500000734,
          "durationTicks": 228,
          "midi": 48,
          "name": "C3",
          "ticks": 53280,
          "time": 79.280751,
          "velocity": 0.7874015748031497
        },
        {
          "duration": 0.33926447500000734,
          "durationTicks": 228,
          "midi": 36,
          "name": "C2",
          "ticks": 53280,
          "time": 79.280751,
          "velocity": 0.7874015748031497
        },
        {
          "duration": 0.3392644749999931,
          "durationTicks": 228,
          "midi": 54,
          "name": "F#3",
          "ticks": 53520,
          "time": 79.6378715,
          "velocity": 0.7874015748031497
        },
        {
          "duration": 0.3392644749999931,
          "durationTicks": 228,
          "midi": 48,
          "name": "C3",
          "ticks": 53520,
          "time": 79.6378715,
          "velocity": 0.7874015748031497
        },
        {
          "duration": 0.3392644749999931,
          "durationTicks": 228,
          "midi": 36,
          "name": "C2",
          "ticks": 53520,
          "time": 79.6378715,
          "velocity": 0.7874015748031497
        },
        {
          "duration": 0.33926447500000734,
          "durationTicks": 228,
          "midi": 55,
          "name": "G3",
          "ticks": 53760,
          "time": 79.994992,
          "velocity": 0.7874015748031497
        },
        {
          "duration": 0.6785289500000005,
          "durationTicks": 456,
          "midi": 55,
          "name": "G3",
          "ticks": 53760,
          "time": 79.994992,
          "velocity": 0.7874015748031497
        },
        {
          "duration": 0.33926447500000734,
          "durationTicks": 228,
          "midi": 43,
          "name": "G2",
          "ticks": 53760,
          "time": 79.994992,
          "velocity": 0.7874015748031497
        },
        {
          "duration": 0.3392644749999931,
          "durationTicks": 228,
          "midi": 55,
          "name": "G3",
          "ticks": 54000,
          "time": 80.3521125,
          "velocity": 0.7874015748031497
        },
        {
          "duration": 0.3392644749999931,
          "durationTicks": 228,
          "midi": 43,
          "name": "G2",
          "ticks": 54000,
          "time": 80.3521125,
          "velocity": 0.7874015748031497
        },
        {
          "duration": 0.3392644749999931,
          "durationTicks": 228,
          "midi": 55,
          "name": "G3",
          "ticks": 54240,
          "time": 80.709233,
          "velocity": 0.7874015748031497
        },
        {
          "duration": 0.3392644749999931,
          "durationTicks": 228,
          "midi": 43,
          "name": "G2",
          "ticks": 54240,
          "time": 80.709233,
          "velocity": 0.7874015748031497
        },
        {
          "duration": 0.3392644749999931,
          "durationTicks": 228,
          "midi": 50,
          "name": "D3",
          "ticks": 54480,
          "time": 81.0663535,
          "velocity": 0.7874015748031497
        },
        {
          "duration": 0.3392644749999931,
          "durationTicks": 228,
          "midi": 55,
          "name": "G3",
          "ticks": 54480,
          "time": 81.0663535,
          "velocity": 0.7874015748031497
        },
        {
          "duration": 0.3392644749999931,
          "durationTicks": 228,
          "midi": 43,
          "name": "G2",
          "ticks": 54480,
          "time": 81.0663535,
          "velocity": 0.7874015748031497
        },
        {
          "duration": 0.3392644749999931,
          "durationTicks": 228,
          "midi": 62,
          "name": "D4",
          "ticks": 54720,
          "time": 81.423474,
          "velocity": 0.7874015748031497
        },
        {
          "duration": 0.3392644749999931,
          "durationTicks": 228,
          "midi": 50,
          "name": "D3",
          "ticks": 54720,
          "time": 81.423474,
          "velocity": 0.7874015748031497
        },
        {
          "duration": 0.3392644749999931,
          "durationTicks": 228,
          "midi": 38,
          "name": "D2",
          "ticks": 54720,
          "time": 81.423474,
          "velocity": 0.7874015748031497
        },
        {
          "duration": 0.16963223749999656,
          "durationTicks": 114,
          "midi": 64,
          "name": "E4",
          "ticks": 54960,
          "time": 81.7805945,
          "velocity": 0.7874015748031497
        },
        {
          "duration": 0.3392644749999931,
          "durationTicks": 228,
          "midi": 50,
          "name": "D3",
          "ticks": 54960,
          "time": 81.7805945,
          "velocity": 0.7874015748031497
        },
        {
          "duration": 0.3392644749999931,
          "durationTicks": 228,
          "midi": 38,
          "name": "D2",
          "ticks": 54960,
          "time": 81.7805945,
          "velocity": 0.7874015748031497
        },
        {
          "duration": 0.33926447500000734,
          "durationTicks": 228,
          "midi": 59,
          "name": "B3",
          "ticks": 55080,
          "time": 81.95915475,
          "velocity": 0.7874015748031497
        },
        {
          "duration": 0.3392644749999931,
          "durationTicks": 228,
          "midi": 50,
          "name": "D3",
          "ticks": 55200,
          "time": 82.137715,
          "velocity": 0.7874015748031497
        },
        {
          "duration": 0.3392644749999931,
          "durationTicks": 228,
          "midi": 38,
          "name": "D2",
          "ticks": 55200,
          "time": 82.137715,
          "velocity": 0.7874015748031497
        },
        {
          "duration": 0.3392644749999931,
          "durationTicks": 228,
          "midi": 57,
          "name": "A3",
          "ticks": 55320,
          "time": 82.31627525,
          "velocity": 0.7874015748031497
        },
        {
          "duration": 0.3392644749999931,
          "durationTicks": 228,
          "midi": 50,
          "name": "D3",
          "ticks": 55440,
          "time": 82.49483550000001,
          "velocity": 0.7874015748031497
        },
        {
          "duration": 0.3392644749999931,
          "durationTicks": 228,
          "midi": 38,
          "name": "D2",
          "ticks": 55440,
          "time": 82.49483550000001,
          "velocity": 0.7874015748031497
        },
        {
          "duration": 0.8838732374999978,
          "durationTicks": 594,
          "midi": 59,
          "name": "B3",
          "ticks": 55560,
          "time": 82.67339575,
          "velocity": 0.7874015748031497
        },
        {
          "duration": 0.3392644749999931,
          "durationTicks": 228,
          "midi": 52,
          "name": "E3",
          "ticks": 55680,
          "time": 82.851956,
          "velocity": 0.7874015748031497
        },
        {
          "duration": 0.3392644749999931,
          "durationTicks": 228,
          "midi": 40,
          "name": "E2",
          "ticks": 55680,
          "time": 82.851956,
          "velocity": 0.7874015748031497
        },
        {
          "duration": 0.33926447500000734,
          "durationTicks": 228,
          "midi": 52,
          "name": "E3",
          "ticks": 55920,
          "time": 83.2090765,
          "velocity": 0.7874015748031497
        },
        {
          "duration": 0.33926447500000734,
          "durationTicks": 228,
          "midi": 40,
          "name": "E2",
          "ticks": 55920,
          "time": 83.2090765,
          "velocity": 0.7874015748031497
        },
        {
          "duration": 0.3392644749999931,
          "durationTicks": 228,
          "midi": 52,
          "name": "E3",
          "ticks": 56160,
          "time": 83.566197,
          "velocity": 0.7874015748031497
        },
        {
          "duration": 0.3392644749999931,
          "durationTicks": 228,
          "midi": 40,
          "name": "E2",
          "ticks": 56160,
          "time": 83.566197,
          "velocity": 0.7874015748031497
        },
        {
          "duration": 0.33926447500000734,
          "durationTicks": 228,
          "midi": 64,
          "name": "E4",
          "ticks": 56400,
          "time": 83.9233175,
          "velocity": 0.7874015748031497
        },
        {
          "duration": 0.33926447500000734,
          "durationTicks": 228,
          "midi": 52,
          "name": "E3",
          "ticks": 56400,
          "time": 83.9233175,
          "velocity": 0.7874015748031497
        },
        {
          "duration": 0.33926447500000734,
          "durationTicks": 228,
          "midi": 40,
          "name": "E2",
          "ticks": 56400,
          "time": 83.9233175,
          "velocity": 0.7874015748031497
        },
        {
          "duration": 0.6785289500000005,
          "durationTicks": 456,
          "midi": 66,
          "name": "F#4",
          "ticks": 56640,
          "time": 84.280438,
          "velocity": 0.7874015748031497
        },
        {
          "duration": 0.3392644749999931,
          "durationTicks": 228,
          "midi": 48,
          "name": "C3",
          "ticks": 56640,
          "time": 84.280438,
          "velocity": 0.7874015748031497
        },
        {
          "duration": 0.3392644749999931,
          "durationTicks": 228,
          "midi": 36,
          "name": "C2",
          "ticks": 56640,
          "time": 84.280438,
          "velocity": 0.7874015748031497
        },
        {
          "duration": 0.33926447500000734,
          "durationTicks": 228,
          "midi": 48,
          "name": "C3",
          "ticks": 56880,
          "time": 84.6375585,
          "velocity": 0.7874015748031497
        },
        {
          "duration": 0.33926447500000734,
          "durationTicks": 228,
          "midi": 36,
          "name": "C2",
          "ticks": 56880,
          "time": 84.6375585,
          "velocity": 0.7874015748031497
        },
        {
          "duration": 0.16963223749999656,
          "durationTicks": 114,
          "midi": 66,
          "name": "F#4",
          "ticks": 57120,
          "time": 84.994679,
          "velocity": 0.7874015748031497
        },
        {
          "duration": 0.3392644749999931,
          "durationTicks": 228,
          "midi": 48,
          "name": "C3",
          "ticks": 57120,
          "time": 84.994679,
          "velocity": 0.7874015748031497
        },
        {
          "duration": 0.3392644749999931,
          "durationTicks": 228,
          "midi": 36,
          "name": "C2",
          "ticks": 57120,
          "time": 84.994679,
          "velocity": 0.7874015748031497
        },
        {
          "duration": 0.3392644749999931,
          "durationTicks": 228,
          "midi": 64,
          "name": "E4",
          "ticks": 57240,
          "time": 85.17323925000001,
          "velocity": 0.7874015748031497
        },
        {
          "duration": 0.3392644749999931,
          "durationTicks": 228,
          "midi": 48,
          "name": "C3",
          "ticks": 57360,
          "time": 85.3517995,
          "velocity": 0.7874015748031497
        },
        {
          "duration": 0.3392644749999931,
          "durationTicks": 228,
          "midi": 36,
          "name": "C2",
          "ticks": 57360,
          "time": 85.3517995,
          "velocity": 0.7874015748031497
        },
        {
          "duration": 0.8838732374999978,
          "durationTicks": 594,
          "midi": 59,
          "name": "B3",
          "ticks": 57480,
          "time": 85.53035975,
          "velocity": 0.7874015748031497
        },
        {
          "duration": 0.3392644749999931,
          "durationTicks": 228,
          "midi": 55,
          "name": "G3",
          "ticks": 57600,
          "time": 85.70892,
          "velocity": 0.7874015748031497
        },
        {
          "duration": 0.3392644749999931,
          "durationTicks": 228,
          "midi": 43,
          "name": "G2",
          "ticks": 57600,
          "time": 85.70892,
          "velocity": 0.7874015748031497
        },
        {
          "duration": 0.3392644749999931,
          "durationTicks": 228,
          "midi": 55,
          "name": "G3",
          "ticks": 57840,
          "time": 86.0660405,
          "velocity": 0.7874015748031497
        },
        {
          "duration": 0.3392644749999931,
          "durationTicks": 228,
          "midi": 43,
          "name": "G2",
          "ticks": 57840,
          "time": 86.0660405,
          "velocity": 0.7874015748031497
        },
        {
          "duration": 0.3392644749999931,
          "durationTicks": 228,
          "midi": 55,
          "name": "G3",
          "ticks": 58080,
          "time": 86.42316100000001,
          "velocity": 0.7874015748031497
        },
        {
          "duration": 0.3392644749999931,
          "durationTicks": 228,
          "midi": 43,
          "name": "G2",
          "ticks": 58080,
          "time": 86.42316100000001,
          "velocity": 0.7874015748031497
        },
        {
          "duration": 0.3392644749999931,
          "durationTicks": 228,
          "midi": 55,
          "name": "G3",
          "ticks": 58320,
          "time": 86.7802815,
          "velocity": 0.7874015748031497
        },
        {
          "duration": 0.3392644749999931,
          "durationTicks": 228,
          "midi": 55,
          "name": "G3",
          "ticks": 58320,
          "time": 86.7802815,
          "velocity": 0.7874015748031497
        },
        {
          "duration": 0.3392644749999931,
          "durationTicks": 228,
          "midi": 43,
          "name": "G2",
          "ticks": 58320,
          "time": 86.7802815,
          "velocity": 0.7874015748031497
        },
        {
          "duration": 0.3392644749999931,
          "durationTicks": 228,
          "midi": 55,
          "name": "G3",
          "ticks": 58560,
          "time": 87.13740200000001,
          "velocity": 0.7874015748031497
        },
        {
          "duration": 0.3392644749999931,
          "durationTicks": 228,
          "midi": 50,
          "name": "D3",
          "ticks": 58560,
          "time": 87.13740200000001,
          "velocity": 0.7874015748031497
        },
        {
          "duration": 0.3392644749999931,
          "durationTicks": 228,
          "midi": 38,
          "name": "D2",
          "ticks": 58560,
          "time": 87.13740200000001,
          "velocity": 0.7874015748031497
        },
        {
          "duration": 0.3392644749999931,
          "durationTicks": 228,
          "midi": 55,
          "name": "G3",
          "ticks": 58800,
          "time": 87.4945225,
          "velocity": 0.7874015748031497
        },
        {
          "duration": 0.3392644749999931,
          "durationTicks": 228,
          "midi": 50,
          "name": "D3",
          "ticks": 58800,
          "time": 87.4945225,
          "velocity": 0.7874015748031497
        },
        {
          "duration": 0.3392644749999931,
          "durationTicks": 228,
          "midi": 38,
          "name": "D2",
          "ticks": 58800,
          "time": 87.4945225,
          "velocity": 0.7874015748031497
        },
        {
          "duration": 0.33926447500000734,
          "durationTicks": 228,
          "midi": 57,
          "name": "A3",
          "ticks": 59040,
          "time": 87.851643,
          "velocity": 0.7874015748031497
        },
        {
          "duration": 0.33926447500000734,
          "durationTicks": 228,
          "midi": 50,
          "name": "D3",
          "ticks": 59040,
          "time": 87.851643,
          "velocity": 0.7874015748031497
        },
        {
          "duration": 0.33926447500000734,
          "durationTicks": 228,
          "midi": 38,
          "name": "D2",
          "ticks": 59040,
          "time": 87.851643,
          "velocity": 0.7874015748031497
        },
        {
          "duration": 0.3392644749999931,
          "durationTicks": 228,
          "midi": 60,
          "name": "C4",
          "ticks": 59280,
          "time": 88.2087635,
          "velocity": 0.7874015748031497
        },
        {
          "duration": 0.3392644749999931,
          "durationTicks": 228,
          "midi": 50,
          "name": "D3",
          "ticks": 59280,
          "time": 88.2087635,
          "velocity": 0.7874015748031497
        },
        {
          "duration": 0.3392644749999931,
          "durationTicks": 228,
          "midi": 38,
          "name": "D2",
          "ticks": 59280,
          "time": 88.2087635,
          "velocity": 0.7874015748031497
        },
        {
          "duration": 0.5088967125000039,
          "durationTicks": 342,
          "midi": 59,
          "name": "B3",
          "ticks": 59520,
          "time": 88.565884,
          "velocity": 0.7874015748031497
        },
        {
          "duration": 0.33926447500000734,
          "durationTicks": 228,
          "midi": 52,
          "name": "E3",
          "ticks": 59520,
          "time": 88.565884,
          "velocity": 0.7874015748031497
        },
        {
          "duration": 0.33926447500000734,
          "durationTicks": 228,
          "midi": 40,
          "name": "E2",
          "ticks": 59520,
          "time": 88.565884,
          "velocity": 0.7874015748031497
        },
        {
          "duration": 0.3392644749999931,
          "durationTicks": 228,
          "midi": 52,
          "name": "E3",
          "ticks": 59760,
          "time": 88.9230045,
          "velocity": 0.7874015748031497
        },
        {
          "duration": 0.3392644749999931,
          "durationTicks": 228,
          "midi": 40,
          "name": "E2",
          "ticks": 59760,
          "time": 88.9230045,
          "velocity": 0.7874015748031497
        },
        {
          "duration": 0.16963223749999656,
          "durationTicks": 114,
          "midi": 55,
          "name": "G3",
          "ticks": 59880,
          "time": 89.10156475000001,
          "velocity": 0.7874015748031497
        },
        {
          "duration": 0.6785289500000005,
          "durationTicks": 456,
          "midi": 55,
          "name": "G3",
          "ticks": 60000,
          "time": 89.280125,
          "velocity": 0.7874015748031497
        },
        {
          "duration": 0.3392644749999931,
          "durationTicks": 228,
          "midi": 52,
          "name": "E3",
          "ticks": 60000,
          "time": 89.280125,
          "velocity": 0.7874015748031497
        },
        {
          "duration": 0.3392644749999931,
          "durationTicks": 228,
          "midi": 40,
          "name": "E2",
          "ticks": 60000,
          "time": 89.280125,
          "velocity": 0.7874015748031497
        },
        {
          "duration": 0.3392644749999931,
          "durationTicks": 228,
          "midi": 52,
          "name": "E3",
          "ticks": 60240,
          "time": 89.6372455,
          "velocity": 0.7874015748031497
        },
        {
          "duration": 0.3392644749999931,
          "durationTicks": 228,
          "midi": 40,
          "name": "E2",
          "ticks": 60240,
          "time": 89.6372455,
          "velocity": 0.7874015748031497
        },
        {
          "duration": 0.6785289500000005,
          "durationTicks": 456,
          "midi": 54,
          "name": "F#3",
          "ticks": 60480,
          "time": 89.994366,
          "velocity": 0.7874015748031497
        },
        {
          "duration": 0.3392644749999931,
          "durationTicks": 228,
          "midi": 48,
          "name": "C3",
          "ticks": 60480,
          "time": 89.994366,
          "velocity": 0.7874015748031497
        },
        {
          "duration": 0.3392644749999931,
          "durationTicks": 228,
          "midi": 36,
          "name": "C2",
          "ticks": 60480,
          "time": 89.994366,
          "velocity": 0.7874015748031497
        },
        {
          "duration": 0.3392644749999931,
          "durationTicks": 228,
          "midi": 48,
          "name": "C3",
          "ticks": 60720,
          "time": 90.35148650000001,
          "velocity": 0.7874015748031497
        },
        {
          "duration": 0.3392644749999931,
          "durationTicks": 228,
          "midi": 36,
          "name": "C2",
          "ticks": 60720,
          "time": 90.35148650000001,
          "velocity": 0.7874015748031497
        },
        {
          "duration": 0.3392644749999931,
          "durationTicks": 228,
          "midi": 54,
          "name": "F#3",
          "ticks": 60960,
          "time": 90.708607,
          "velocity": 0.7874015748031497
        },
        {
          "duration": 0.3392644749999931,
          "durationTicks": 228,
          "midi": 48,
          "name": "C3",
          "ticks": 60960,
          "time": 90.708607,
          "velocity": 0.7874015748031497
        },
        {
          "duration": 0.3392644749999931,
          "durationTicks": 228,
          "midi": 36,
          "name": "C2",
          "ticks": 60960,
          "time": 90.708607,
          "velocity": 0.7874015748031497
        },
        {
          "duration": 0.3392644749999931,
          "durationTicks": 228,
          "midi": 57,
          "name": "A3",
          "ticks": 61200,
          "time": 91.06572750000001,
          "velocity": 0.7874015748031497
        },
        {
          "duration": 0.3392644749999931,
          "durationTicks": 228,
          "midi": 48,
          "name": "C3",
          "ticks": 61200,
          "time": 91.06572750000001,
          "velocity": 0.7874015748031497
        },
        {
          "duration": 0.3392644749999931,
          "durationTicks": 228,
          "midi": 36,
          "name": "C2",
          "ticks": 61200,
          "time": 91.06572750000001,
          "velocity": 0.7874015748031497
        },
        {
          "duration": 0.6785289499999863,
          "durationTicks": 456,
          "midi": 57,
          "name": "A3",
          "ticks": 61440,
          "time": 91.422848,
          "velocity": 0.7874015748031497
        },
        {
          "duration": 0.3392644749999931,
          "durationTicks": 228,
          "midi": 55,
          "name": "G3",
          "ticks": 61440,
          "time": 91.422848,
          "velocity": 0.7874015748031497
        },
        {
          "duration": 0.3392644749999931,
          "durationTicks": 228,
          "midi": 43,
          "name": "G2",
          "ticks": 61440,
          "time": 91.422848,
          "velocity": 0.7874015748031497
        },
        {
          "duration": 0.33926447500000734,
          "durationTicks": 228,
          "midi": 55,
          "name": "G3",
          "ticks": 61680,
          "time": 91.7799685,
          "velocity": 0.7874015748031497
        },
        {
          "duration": 0.33926447500000734,
          "durationTicks": 228,
          "midi": 43,
          "name": "G2",
          "ticks": 61680,
          "time": 91.7799685,
          "velocity": 0.7874015748031497
        },
        {
          "duration": 0.3392644749999931,
          "durationTicks": 228,
          "midi": 55,
          "name": "G3",
          "ticks": 61920,
          "time": 92.137089,
          "velocity": 0.7874015748031497
        },
        {
          "duration": 0.3392644749999931,
          "durationTicks": 228,
          "midi": 55,
          "name": "G3",
          "ticks": 61920,
          "time": 92.137089,
          "velocity": 0.7874015748031497
        },
        {
          "duration": 0.3392644749999931,
          "durationTicks": 228,
          "midi": 43,
          "name": "G2",
          "ticks": 61920,
          "time": 92.137089,
          "velocity": 0.7874015748031497
        },
        {
          "duration": 0.33926447500000734,
          "durationTicks": 228,
          "midi": 55,
          "name": "G3",
          "ticks": 62160,
          "time": 92.4942095,
          "velocity": 0.7874015748031497
        },
        {
          "duration": 0.33926447500000734,
          "durationTicks": 228,
          "midi": 43,
          "name": "G2",
          "ticks": 62160,
          "time": 92.4942095,
          "velocity": 0.7874015748031497
        },
        {
          "duration": 0.6785289499999863,
          "durationTicks": 456,
          "midi": 57,
          "name": "A3",
          "ticks": 62400,
          "time": 92.85133,
          "velocity": 0.7874015748031497
        },
        {
          "duration": 0.3392644749999931,
          "durationTicks": 228,
          "midi": 50,
          "name": "D3",
          "ticks": 62400,
          "time": 92.85133,
          "velocity": 0.7874015748031497
        },
        {
          "duration": 0.3392644749999931,
          "durationTicks": 228,
          "midi": 38,
          "name": "D2",
          "ticks": 62400,
          "time": 92.85133,
          "velocity": 0.7874015748031497
        },
        {
          "duration": 0.3392644749999931,
          "durationTicks": 228,
          "midi": 50,
          "name": "D3",
          "ticks": 62640,
          "time": 93.2084505,
          "velocity": 0.7874015748031497
        },
        {
          "duration": 0.3392644749999931,
          "durationTicks": 228,
          "midi": 38,
          "name": "D2",
          "ticks": 62640,
          "time": 93.2084505,
          "velocity": 0.7874015748031497
        },
        {
          "duration": 0.6785289499999863,
          "durationTicks": 456,
          "midi": 59,
          "name": "B3",
          "ticks": 62880,
          "time": 93.565571,
          "velocity": 0.7874015748031497
        },
        {
          "duration": 0.3392644749999931,
          "durationTicks": 228,
          "midi": 50,
          "name": "D3",
          "ticks": 62880,
          "time": 93.565571,
          "velocity": 0.7874015748031497
        },
        {
          "duration": 0.3392644749999931,
          "durationTicks": 228,
          "midi": 38,
          "name": "D2",
          "ticks": 62880,
          "time": 93.565571,
          "velocity": 0.7874015748031497
        },
        {
          "duration": 0.3392644749999931,
          "durationTicks": 228,
          "midi": 50,
          "name": "D3",
          "ticks": 63120,
          "time": 93.9226915,
          "velocity": 0.7874015748031497
        },
        {
          "duration": 0.3392644749999931,
          "durationTicks": 228,
          "midi": 38,
          "name": "D2",
          "ticks": 63120,
          "time": 93.9226915,
          "velocity": 0.7874015748031497
        },
        {
          "duration": 0.6785289499999863,
          "durationTicks": 456,
          "midi": 60,
          "name": "C4",
          "ticks": 63360,
          "time": 94.279812,
          "velocity": 0.7874015748031497
        },
        {
          "duration": 0.3392644749999931,
          "durationTicks": 228,
          "midi": 52,
          "name": "E3",
          "ticks": 63360,
          "time": 94.279812,
          "velocity": 0.7874015748031497
        },
        {
          "duration": 0.3392644749999931,
          "durationTicks": 228,
          "midi": 40,
          "name": "E2",
          "ticks": 63360,
          "time": 94.279812,
          "velocity": 0.7874015748031497
        },
        {
          "duration": 0.3392644749999931,
          "durationTicks": 228,
          "midi": 52,
          "name": "E3",
          "ticks": 63600,
          "time": 94.6369325,
          "velocity": 0.7874015748031497
        },
        {
          "duration": 0.3392644749999931,
          "durationTicks": 228,
          "midi": 40,
          "name": "E2",
          "ticks": 63600,
          "time": 94.6369325,
          "velocity": 0.7874015748031497
        },
        {
          "duration": 0.3392644749999931,
          "durationTicks": 228,
          "midi": 52,
          "name": "E3",
          "ticks": 63840,
          "time": 94.99405300000001,
          "velocity": 0.7874015748031497
        },
        {
          "duration": 0.3392644749999931,
          "durationTicks": 228,
          "midi": 40,
          "name": "E2",
          "ticks": 63840,
          "time": 94.99405300000001,
          "velocity": 0.7874015748031497
        },
        {
          "duration": 0.3392644749999931,
          "durationTicks": 228,
          "midi": 60,
          "name": "C4",
          "ticks": 63960,
          "time": 95.17261325,
          "velocity": 0.7874015748031497
        },
        {
          "duration": 0.3392644749999931,
          "durationTicks": 228,
          "midi": 52,
          "name": "E3",
          "ticks": 64080,
          "time": 95.3511735,
          "velocity": 0.7874015748031497
        },
        {
          "duration": 0.3392644749999931,
          "durationTicks": 228,
          "midi": 40,
          "name": "E2",
          "ticks": 64080,
          "time": 95.3511735,
          "velocity": 0.7874015748031497
        },
        {
          "duration": 0.3392644749999931,
          "durationTicks": 228,
          "midi": 62,
          "name": "D4",
          "ticks": 64200,
          "time": 95.52973375,
          "velocity": 0.7874015748031497
        },
        {
          "duration": 0.33926447500000734,
          "durationTicks": 228,
          "midi": 48,
          "name": "C3",
          "ticks": 64320,
          "time": 95.708294,
          "velocity": 0.7874015748031497
        },
        {
          "duration": 0.33926447500000734,
          "durationTicks": 228,
          "midi": 36,
          "name": "C2",
          "ticks": 64320,
          "time": 95.708294,
          "velocity": 0.7874015748031497
        },
        {
          "duration": 0.3392644749999931,
          "durationTicks": 228,
          "midi": 60,
          "name": "C4",
          "ticks": 64440,
          "time": 95.88685425,
          "velocity": 0.7874015748031497
        },
        {
          "duration": 0.3392644749999931,
          "durationTicks": 228,
          "midi": 48,
          "name": "C3",
          "ticks": 64560,
          "time": 96.0654145,
          "velocity": 0.7874015748031497
        },
        {
          "duration": 0.3392644749999931,
          "durationTicks": 228,
          "midi": 36,
          "name": "C2",
          "ticks": 64560,
          "time": 96.0654145,
          "velocity": 0.7874015748031497
        },
        {
          "duration": 0.3392644749999931,
          "durationTicks": 228,
          "midi": 59,
          "name": "B3",
          "ticks": 64680,
          "time": 96.24397475,
          "velocity": 0.7874015748031497
        },
        {
          "duration": 0.33926447500000734,
          "durationTicks": 228,
          "midi": 48,
          "name": "C3",
          "ticks": 64800,
          "time": 96.422535,
          "velocity": 0.7874015748031497
        },
        {
          "duration": 0.33926447500000734,
          "durationTicks": 228,
          "midi": 36,
          "name": "C2",
          "ticks": 64800,
          "time": 96.422535,
          "velocity": 0.7874015748031497
        },
        {
          "duration": 0.3392644749999931,
          "durationTicks": 228,
          "midi": 57,
          "name": "A3",
          "ticks": 64920,
          "time": 96.60109525,
          "velocity": 0.7874015748031497
        },
        {
          "duration": 0.3392644749999931,
          "durationTicks": 228,
          "midi": 48,
          "name": "C3",
          "ticks": 65040,
          "time": 96.7796555,
          "velocity": 0.7874015748031497
        },
        {
          "duration": 0.3392644749999931,
          "durationTicks": 228,
          "midi": 36,
          "name": "C2",
          "ticks": 65040,
          "time": 96.7796555,
          "velocity": 0.7874015748031497
        },
        {
          "duration": 0.8838732374999978,
          "durationTicks": 594,
          "midi": 59,
          "name": "B3",
          "ticks": 65160,
          "time": 96.95821575000001,
          "velocity": 0.7874015748031497
        },
        {
          "duration": 0.33926447500000734,
          "durationTicks": 228,
          "midi": 55,
          "name": "G3",
          "ticks": 65280,
          "time": 97.136776,
          "velocity": 0.7874015748031497
        },
        {
          "duration": 0.33926447500000734,
          "durationTicks": 228,
          "midi": 43,
          "name": "G2",
          "ticks": 65280,
          "time": 97.136776,
          "velocity": 0.7874015748031497
        },
        {
          "duration": 0.3392644749999931,
          "durationTicks": 228,
          "midi": 55,
          "name": "G3",
          "ticks": 65520,
          "time": 97.4938965,
          "velocity": 0.7874015748031497
        },
        {
          "duration": 0.3392644749999931,
          "durationTicks": 228,
          "midi": 43,
          "name": "G2",
          "ticks": 65520,
          "time": 97.4938965,
          "velocity": 0.7874015748031497
        },
        {
          "duration": 0.3392644749999931,
          "durationTicks": 228,
          "midi": 55,
          "name": "G3",
          "ticks": 65760,
          "time": 97.851017,
          "velocity": 0.7874015748031497
        },
        {
          "duration": 0.3392644749999931,
          "durationTicks": 228,
          "midi": 43,
          "name": "G2",
          "ticks": 65760,
          "time": 97.851017,
          "velocity": 0.7874015748031497
        },
        {
          "duration": 0.3392644749999931,
          "durationTicks": 228,
          "midi": 64,
          "name": "E4",
          "ticks": 65880,
          "time": 98.02957725,
          "velocity": 0.7874015748031497
        },
        {
          "duration": 0.3392644749999931,
          "durationTicks": 228,
          "midi": 55,
          "name": "G3",
          "ticks": 66000,
          "time": 98.2081375,
          "velocity": 0.7874015748031497
        },
        {
          "duration": 0.3392644749999931,
          "durationTicks": 228,
          "midi": 43,
          "name": "G2",
          "ticks": 66000,
          "time": 98.2081375,
          "velocity": 0.7874015748031497
        },
        {
          "duration": 0.5088967125000039,
          "durationTicks": 342,
          "midi": 66,
          "name": "F#4",
          "ticks": 66120,
          "time": 98.38669775,
          "velocity": 0.7874015748031497
        },
        {
          "duration": 0.3392644749999931,
          "durationTicks": 228,
          "midi": 50,
          "name": "D3",
          "ticks": 66240,
          "time": 98.565258,
          "velocity": 0.7874015748031497
        },
        {
          "duration": 0.3392644749999931,
          "durationTicks": 228,
          "midi": 38,
          "name": "D2",
          "ticks": 66240,
          "time": 98.565258,
          "velocity": 0.7874015748031497
        },
        {
          "duration": 0.16963223749999656,
          "durationTicks": 114,
          "midi": 64,
          "name": "E4",
          "ticks": 66480,
          "time": 98.92237850000001,
          "velocity": 0.7874015748031497
        },
        {
          "duration": 0.3392644749999931,
          "durationTicks": 228,
          "midi": 50,
          "name": "D3",
          "ticks": 66480,
          "time": 98.92237850000001,
          "velocity": 0.7874015748031497
        },
        {
          "duration": 0.3392644749999931,
          "durationTicks": 228,
          "midi": 38,
          "name": "D2",
          "ticks": 66480,
          "time": 98.92237850000001,
          "velocity": 0.7874015748031497
        },
        {
          "duration": 0.6785289500000005,
          "durationTicks": 456,
          "midi": 64,
          "name": "E4",
          "ticks": 66600,
          "time": 99.10093875,
          "velocity": 0.7874015748031497
        },
        {
          "duration": 0.3392644749999931,
          "durationTicks": 228,
          "midi": 50,
          "name": "D3",
          "ticks": 66720,
          "time": 99.279499,
          "velocity": 0.7874015748031497
        },
        {
          "duration": 0.3392644749999931,
          "durationTicks": 228,
          "midi": 38,
          "name": "D2",
          "ticks": 66720,
          "time": 99.279499,
          "velocity": 0.7874015748031497
        },
        {
          "duration": 0.3392644749999931,
          "durationTicks": 228,
          "midi": 50,
          "name": "D3",
          "ticks": 66960,
          "time": 99.63661950000001,
          "velocity": 0.7874015748031497
        },
        {
          "duration": 0.3392644749999931,
          "durationTicks": 228,
          "midi": 38,
          "name": "D2",
          "ticks": 66960,
          "time": 99.63661950000001,
          "velocity": 0.7874015748031497
        },
        {
          "duration": 0.5088967125000039,
          "durationTicks": 342,
          "midi": 67,
          "name": "G4",
          "ticks": 67080,
          "time": 99.81517975,
          "velocity": 0.7874015748031497
        },
        {
          "duration": 0.3392644749999931,
          "durationTicks": 228,
          "midi": 52,
          "name": "E3",
          "ticks": 67200,
          "time": 99.99374,
          "velocity": 0.7874015748031497
        },
        {
          "duration": 0.3392644749999931,
          "durationTicks": 228,
          "midi": 40,
          "name": "E2",
          "ticks": 67200,
          "time": 99.99374,
          "velocity": 0.7874015748031497
        },
        {
          "duration": 0.5088967125000039,
          "durationTicks": 342,
          "midi": 66,
          "name": "F#4",
          "ticks": 67440,
          "time": 100.3508605,
          "velocity": 0.7874015748031497
        },
        {
          "duration": 0.33926447500000734,
          "durationTicks": 228,
          "midi": 52,
          "name": "E3",
          "ticks": 67440,
          "time": 100.3508605,
          "velocity": 0.7874015748031497
        },
        {
          "duration": 0.33926447500000734,
          "durationTicks": 228,
          "midi": 40,
          "name": "E2",
          "ticks": 67440,
          "time": 100.3508605,
          "velocity": 0.7874015748031497
        },
        {
          "duration": 0.3392644749999931,
          "durationTicks": 228,
          "midi": 52,
          "name": "E3",
          "ticks": 67680,
          "time": 100.707981,
          "velocity": 0.7874015748031497
        },
        {
          "duration": 0.3392644749999931,
          "durationTicks": 228,
          "midi": 40,
          "name": "E2",
          "ticks": 67680,
          "time": 100.707981,
          "velocity": 0.7874015748031497
        },
        {
          "duration": 0.3392644749999931,
          "durationTicks": 228,
          "midi": 64,
          "name": "E4",
          "ticks": 67800,
          "time": 100.88654125000001,
          "velocity": 0.7874015748031497
        },
        {
          "duration": 0.33926447500000734,
          "durationTicks": 228,
          "midi": 52,
          "name": "E3",
          "ticks": 67920,
          "time": 101.0651015,
          "velocity": 0.7874015748031497
        },
        {
          "duration": 0.33926447500000734,
          "durationTicks": 228,
          "midi": 40,
          "name": "E2",
          "ticks": 67920,
          "time": 101.0651015,
          "velocity": 0.7874015748031497
        },
        {
          "duration": 0.16963223750001077,
          "durationTicks": 114,
          "midi": 66,
          "name": "F#4",
          "ticks": 68040,
          "time": 101.24366175,
          "velocity": 0.7874015748031497
        },
        {
          "duration": 0.3392644749999931,
          "durationTicks": 228,
          "midi": 48,
          "name": "C3",
          "ticks": 68160,
          "time": 101.422222,
          "velocity": 0.7874015748031497
        },
        {
          "duration": 0.3392644749999931,
          "durationTicks": 228,
          "midi": 36,
          "name": "C2",
          "ticks": 68160,
          "time": 101.422222,
          "velocity": 0.7874015748031497
        },
        {
          "duration": 0.5088967125000039,
          "durationTicks": 342,
          "midi": 66,
          "name": "F#4",
          "ticks": 68160,
          "time": 101.422222,
          "velocity": 0.7874015748031497
        },
        {
          "duration": 0.3392644749999931,
          "durationTicks": 228,
          "midi": 48,
          "name": "C3",
          "ticks": 68400,
          "time": 101.7793425,
          "velocity": 0.7874015748031497
        },
        {
          "duration": 0.3392644749999931,
          "durationTicks": 228,
          "midi": 36,
          "name": "C2",
          "ticks": 68400,
          "time": 101.7793425,
          "velocity": 0.7874015748031497
        },
        {
          "duration": 0.16963223750001077,
          "durationTicks": 114,
          "midi": 66,
          "name": "F#4",
          "ticks": 68520,
          "time": 101.95790275,
          "velocity": 0.7874015748031497
        },
        {
          "duration": 0.3392644749999931,
          "durationTicks": 228,
          "midi": 48,
          "name": "C3",
          "ticks": 68640,
          "time": 102.136463,
          "velocity": 0.7874015748031497
        },
        {
          "duration": 0.3392644749999931,
          "durationTicks": 228,
          "midi": 36,
          "name": "C2",
          "ticks": 68640,
          "time": 102.136463,
          "velocity": 0.7874015748031497
        },
        {
          "duration": 0.16963223750001077,
          "durationTicks": 114,
          "midi": 66,
          "name": "F#4",
          "ticks": 68640,
          "time": 102.136463,
          "velocity": 0.7874015748031497
        },
        {
          "duration": 0.33926447500000734,
          "durationTicks": 228,
          "midi": 64,
          "name": "E4",
          "ticks": 68760,
          "time": 102.31502325,
          "velocity": 0.7874015748031497
        },
        {
          "duration": 0.3392644749999931,
          "durationTicks": 228,
          "midi": 48,
          "name": "C3",
          "ticks": 68880,
          "time": 102.4935835,
          "velocity": 0.7874015748031497
        },
        {
          "duration": 0.3392644749999931,
          "durationTicks": 228,
          "midi": 36,
          "name": "C2",
          "ticks": 68880,
          "time": 102.4935835,
          "velocity": 0.7874015748031497
        },
        {
          "duration": 0.16963223750001077,
          "durationTicks": 114,
          "midi": 66,
          "name": "F#4",
          "ticks": 69000,
          "time": 102.67214375,
          "velocity": 0.7874015748031497
        },
        {
          "duration": 0.6785289499999863,
          "durationTicks": 456,
          "midi": 66,
          "name": "F#4",
          "ticks": 69120,
          "time": 102.85070400000001,
          "velocity": 0.7874015748031497
        },
        {
          "duration": 0.3392644749999931,
          "durationTicks": 228,
          "midi": 55,
          "name": "G3",
          "ticks": 69120,
          "time": 102.85070400000001,
          "velocity": 0.7874015748031497
        },
        {
          "duration": 0.3392644749999931,
          "durationTicks": 228,
          "midi": 43,
          "name": "G2",
          "ticks": 69120,
          "time": 102.85070400000001,
          "velocity": 0.7874015748031497
        },
        {
          "duration": 0.3392644749999931,
          "durationTicks": 228,
          "midi": 55,
          "name": "G3",
          "ticks": 69360,
          "time": 103.2078245,
          "velocity": 0.7874015748031497
        },
        {
          "duration": 0.3392644749999931,
          "durationTicks": 228,
          "midi": 43,
          "name": "G2",
          "ticks": 69360,
          "time": 103.2078245,
          "velocity": 0.7874015748031497
        },
        {
          "duration": 0.3392644749999931,
          "durationTicks": 228,
          "midi": 55,
          "name": "G3",
          "ticks": 69600,
          "time": 103.56494500000001,
          "velocity": 0.7874015748031497
        },
        {
          "duration": 0.3392644749999931,
          "durationTicks": 228,
          "midi": 43,
          "name": "G2",
          "ticks": 69600,
          "time": 103.56494500000001,
          "velocity": 0.7874015748031497
        },
        {
          "duration": 0.16963223750001077,
          "durationTicks": 114,
          "midi": 66,
          "name": "F#4",
          "ticks": 69840,
          "time": 103.9220655,
          "velocity": 0.7874015748031497
        },
        {
          "duration": 0.3392644749999931,
          "durationTicks": 228,
          "midi": 55,
          "name": "G3",
          "ticks": 69840,
          "time": 103.9220655,
          "velocity": 0.7874015748031497
        },
        {
          "duration": 0.3392644749999931,
          "durationTicks": 228,
          "midi": 43,
          "name": "G2",
          "ticks": 69840,
          "time": 103.9220655,
          "velocity": 0.7874015748031497
        },
        {
          "duration": 0.16963223750001077,
          "durationTicks": 114,
          "midi": 66,
          "name": "F#4",
          "ticks": 69960,
          "time": 104.10062575,
          "velocity": 0.7874015748031497
        },
        {
          "duration": 0.33926447500000734,
          "durationTicks": 228,
          "midi": 66,
          "name": "F#4",
          "ticks": 70080,
          "time": 104.279186,
          "velocity": 0.7874015748031497
        },
        {
          "duration": 0.33926447500000734,
          "durationTicks": 228,
          "midi": 50,
          "name": "D3",
          "ticks": 70080,
          "time": 104.279186,
          "velocity": 0.7874015748031497
        },
        {
          "duration": 0.33926447500000734,
          "durationTicks": 228,
          "midi": 38,
          "name": "D2",
          "ticks": 70080,
          "time": 104.279186,
          "velocity": 0.7874015748031497
        },
        {
          "duration": 0.3392644749999931,
          "durationTicks": 228,
          "midi": 66,
          "name": "F#4",
          "ticks": 70320,
          "time": 104.6363065,
          "velocity": 0.7874015748031497
        },
        {
          "duration": 0.3392644749999931,
          "durationTicks": 228,
          "midi": 50,
          "name": "D3",
          "ticks": 70320,
          "time": 104.6363065,
          "velocity": 0.7874015748031497
        },
        {
          "duration": 0.3392644749999931,
          "durationTicks": 228,
          "midi": 38,
          "name": "D2",
          "ticks": 70320,
          "time": 104.6363065,
          "velocity": 0.7874015748031497
        },
        {
          "duration": 0.16963223750001077,
          "durationTicks": 114,
          "midi": 69,
          "name": "A4",
          "ticks": 70560,
          "time": 104.993427,
          "velocity": 0.7874015748031497
        },
        {
          "duration": 0.33926447500000734,
          "durationTicks": 228,
          "midi": 50,
          "name": "D3",
          "ticks": 70560,
          "time": 104.993427,
          "velocity": 0.7874015748031497
        },
        {
          "duration": 0.33926447500000734,
          "durationTicks": 228,
          "midi": 38,
          "name": "D2",
          "ticks": 70560,
          "time": 104.993427,
          "velocity": 0.7874015748031497
        },
        {
          "duration": 0.16963223750001077,
          "durationTicks": 114,
          "midi": 66,
          "name": "F#4",
          "ticks": 70680,
          "time": 105.17198725,
          "velocity": 0.7874015748031497
        },
        {
          "duration": 0.3392644749999931,
          "durationTicks": 228,
          "midi": 66,
          "name": "F#4",
          "ticks": 70800,
          "time": 105.3505475,
          "velocity": 0.7874015748031497
        },
        {
          "duration": 0.3392644749999931,
          "durationTicks": 228,
          "midi": 50,
          "name": "D3",
          "ticks": 70800,
          "time": 105.3505475,
          "velocity": 0.7874015748031497
        },
        {
          "duration": 0.3392644749999931,
          "durationTicks": 228,
          "midi": 38,
          "name": "D2",
          "ticks": 70800,
          "time": 105.3505475,
          "velocity": 0.7874015748031497
        },
        {
          "duration": 0.3392644749999931,
          "durationTicks": 228,
          "midi": 67,
          "name": "G4",
          "ticks": 71040,
          "time": 105.707668,
          "velocity": 0.7874015748031497
        },
        {
          "duration": 0.3392644749999931,
          "durationTicks": 228,
          "midi": 52,
          "name": "E3",
          "ticks": 71040,
          "time": 105.707668,
          "velocity": 0.7874015748031497
        },
        {
          "duration": 0.3392644749999931,
          "durationTicks": 228,
          "midi": 40,
          "name": "E2",
          "ticks": 71040,
          "time": 105.707668,
          "velocity": 0.7874015748031497
        },
        {
          "duration": 0.3392644749999931,
          "durationTicks": 228,
          "midi": 79,
          "name": "G5",
          "ticks": 71040,
          "time": 105.707668,
          "velocity": 0.7874015748031497
        },
        {
          "duration": 0.16963223750001077,
          "durationTicks": 114,
          "midi": 69,
          "name": "A4",
          "ticks": 71280,
          "time": 106.0647885,
          "velocity": 0.7874015748031497
        },
        {
          "duration": 0.3392644749999931,
          "durationTicks": 228,
          "midi": 52,
          "name": "E3",
          "ticks": 71280,
          "time": 106.0647885,
          "velocity": 0.7874015748031497
        },
        {
          "duration": 0.3392644749999931,
          "durationTicks": 228,
          "midi": 40,
          "name": "E2",
          "ticks": 71280,
          "time": 106.0647885,
          "velocity": 0.7874015748031497
        },
        {
          "duration": 0.16963223750001077,
          "durationTicks": 114,
          "midi": 81,
          "name": "A5",
          "ticks": 71280,
          "time": 106.0647885,
          "velocity": 0.7874015748031497
        },
        {
          "duration": 0.16963223750001077,
          "durationTicks": 114,
          "midi": 66,
          "name": "F#4",
          "ticks": 71400,
          "time": 106.24334875,
          "velocity": 0.7874015748031497
        },
        {
          "duration": 0.16963223750001077,
          "durationTicks": 114,
          "midi": 78,
          "name": "F#5",
          "ticks": 71400,
          "time": 106.24334875,
          "velocity": 0.7874015748031497
        },
        {
          "duration": 0.3392644749999931,
          "durationTicks": 228,
          "midi": 66,
          "name": "F#4",
          "ticks": 71520,
          "time": 106.421909,
          "velocity": 0.7874015748031497
        },
        {
          "duration": 0.3392644749999931,
          "durationTicks": 228,
          "midi": 52,
          "name": "E3",
          "ticks": 71520,
          "time": 106.421909,
          "velocity": 0.7874015748031497
        },
        {
          "duration": 0.3392644749999931,
          "durationTicks": 228,
          "midi": 40,
          "name": "E2",
          "ticks": 71520,
          "time": 106.421909,
          "velocity": 0.7874015748031497
        },
        {
          "duration": 0.3392644749999931,
          "durationTicks": 228,
          "midi": 78,
          "name": "F#5",
          "ticks": 71520,
          "time": 106.421909,
          "velocity": 0.7874015748031497
        },
        {
          "duration": 0.3392644749999931,
          "durationTicks": 228,
          "midi": 67,
          "name": "G4",
          "ticks": 71760,
          "time": 106.77902950000001,
          "velocity": 0.7874015748031497
        },
        {
          "duration": 0.3392644749999931,
          "durationTicks": 228,
          "midi": 52,
          "name": "E3",
          "ticks": 71760,
          "time": 106.77902950000001,
          "velocity": 0.7874015748031497
        },
        {
          "duration": 0.3392644749999931,
          "durationTicks": 228,
          "midi": 40,
          "name": "E2",
          "ticks": 71760,
          "time": 106.77902950000001,
          "velocity": 0.7874015748031497
        },
        {
          "duration": 0.3392644749999931,
          "durationTicks": 228,
          "midi": 79,
          "name": "G5",
          "ticks": 71760,
          "time": 106.77902950000001,
          "velocity": 0.7874015748031497
        },
        {
          "duration": 0.3392644749999931,
          "durationTicks": 228,
          "midi": 48,
          "name": "C3",
          "ticks": 72000,
          "time": 107.13615,
          "velocity": 0.7874015748031497
        },
        {
          "duration": 0.3392644749999931,
          "durationTicks": 228,
          "midi": 36,
          "name": "C2",
          "ticks": 72000,
          "time": 107.13615,
          "velocity": 0.7874015748031497
        },
        {
          "duration": 0.3392644749999931,
          "durationTicks": 228,
          "midi": 64,
          "name": "E4",
          "ticks": 72240,
          "time": 107.49327050000001,
          "velocity": 0.7874015748031497
        },
        {
          "duration": 0.3392644749999931,
          "durationTicks": 228,
          "midi": 48,
          "name": "C3",
          "ticks": 72240,
          "time": 107.49327050000001,
          "velocity": 0.7874015748031497
        },
        {
          "duration": 0.3392644749999931,
          "durationTicks": 228,
          "midi": 36,
          "name": "C2",
          "ticks": 72240,
          "time": 107.49327050000001,
          "velocity": 0.7874015748031497
        },
        {
          "duration": 0.3392644749999931,
          "durationTicks": 228,
          "midi": 76,
          "name": "E5",
          "ticks": 72240,
          "time": 107.49327050000001,
          "velocity": 0.7874015748031497
        },
        {
          "duration": 0.3392644749999931,
          "durationTicks": 228,
          "midi": 64,
          "name": "E4",
          "ticks": 72480,
          "time": 107.850391,
          "velocity": 0.7874015748031497
        },
        {
          "duration": 0.3392644749999931,
          "durationTicks": 228,
          "midi": 48,
          "name": "C3",
          "ticks": 72480,
          "time": 107.850391,
          "velocity": 0.7874015748031497
        },
        {
          "duration": 0.3392644749999931,
          "durationTicks": 228,
          "midi": 36,
          "name": "C2",
          "ticks": 72480,
          "time": 107.850391,
          "velocity": 0.7874015748031497
        },
        {
          "duration": 0.3392644749999931,
          "durationTicks": 228,
          "midi": 76,
          "name": "E5",
          "ticks": 72480,
          "time": 107.850391,
          "velocity": 0.7874015748031497
        },
        {
          "duration": 0.33926447500000734,
          "durationTicks": 228,
          "midi": 66,
          "name": "F#4",
          "ticks": 72720,
          "time": 108.2075115,
          "velocity": 0.7874015748031497
        },
        {
          "duration": 0.33926447500000734,
          "durationTicks": 228,
          "midi": 48,
          "name": "C3",
          "ticks": 72720,
          "time": 108.2075115,
          "velocity": 0.7874015748031497
        },
        {
          "duration": 0.33926447500000734,
          "durationTicks": 228,
          "midi": 36,
          "name": "C2",
          "ticks": 72720,
          "time": 108.2075115,
          "velocity": 0.7874015748031497
        },
        {
          "duration": 0.33926447500000734,
          "durationTicks": 228,
          "midi": 78,
          "name": "F#5",
          "ticks": 72720,
          "time": 108.2075115,
          "velocity": 0.7874015748031497
        },
        {
          "duration": 0.3392644749999931,
          "durationTicks": 228,
          "midi": 67,
          "name": "G4",
          "ticks": 72960,
          "time": 108.564632,
          "velocity": 0.7874015748031497
        },
        {
          "duration": 0.3392644749999931,
          "durationTicks": 228,
          "midi": 55,
          "name": "G3",
          "ticks": 72960,
          "time": 108.564632,
          "velocity": 0.7874015748031497
        },
        {
          "duration": 0.3392644749999931,
          "durationTicks": 228,
          "midi": 43,
          "name": "G2",
          "ticks": 72960,
          "time": 108.564632,
          "velocity": 0.7874015748031497
        },
        {
          "duration": 0.3392644749999931,
          "durationTicks": 228,
          "midi": 79,
          "name": "G5",
          "ticks": 72960,
          "time": 108.564632,
          "velocity": 0.7874015748031497
        },
        {
          "duration": 0.33926447500000734,
          "durationTicks": 228,
          "midi": 69,
          "name": "A4",
          "ticks": 73200,
          "time": 108.9217525,
          "velocity": 0.7874015748031497
        },
        {
          "duration": 0.33926447500000734,
          "durationTicks": 228,
          "midi": 55,
          "name": "G3",
          "ticks": 73200,
          "time": 108.9217525,
          "velocity": 0.7874015748031497
        },
        {
          "duration": 0.33926447500000734,
          "durationTicks": 228,
          "midi": 43,
          "name": "G2",
          "ticks": 73200,
          "time": 108.9217525,
          "velocity": 0.7874015748031497
        },
        {
          "duration": 0.33926447500000734,
          "durationTicks": 228,
          "midi": 81,
          "name": "A5",
          "ticks": 73200,
          "time": 108.9217525,
          "velocity": 0.7874015748031497
        },
        {
          "duration": 0.3392644749999931,
          "durationTicks": 228,
          "midi": 71,
          "name": "B4",
          "ticks": 73440,
          "time": 109.278873,
          "velocity": 0.7874015748031497
        },
        {
          "duration": 0.3392644749999931,
          "durationTicks": 228,
          "midi": 55,
          "name": "G3",
          "ticks": 73440,
          "time": 109.278873,
          "velocity": 0.7874015748031497
        },
        {
          "duration": 0.3392644749999931,
          "durationTicks": 228,
          "midi": 43,
          "name": "G2",
          "ticks": 73440,
          "time": 109.278873,
          "velocity": 0.7874015748031497
        },
        {
          "duration": 0.3392644749999931,
          "durationTicks": 228,
          "midi": 83,
          "name": "B5",
          "ticks": 73440,
          "time": 109.278873,
          "velocity": 0.7874015748031497
        },
        {
          "duration": 0.33926447500000734,
          "durationTicks": 228,
          "midi": 72,
          "name": "C5",
          "ticks": 73680,
          "time": 109.6359935,
          "velocity": 0.7874015748031497
        },
        {
          "duration": 0.33926447500000734,
          "durationTicks": 228,
          "midi": 55,
          "name": "G3",
          "ticks": 73680,
          "time": 109.6359935,
          "velocity": 0.7874015748031497
        },
        {
          "duration": 0.33926447500000734,
          "durationTicks": 228,
          "midi": 43,
          "name": "G2",
          "ticks": 73680,
          "time": 109.6359935,
          "velocity": 0.7874015748031497
        },
        {
          "duration": 0.33926447500000734,
          "durationTicks": 228,
          "midi": 84,
          "name": "C6",
          "ticks": 73680,
          "time": 109.6359935,
          "velocity": 0.7874015748031497
        },
        {
          "duration": 0.5088967125000039,
          "durationTicks": 342,
          "midi": 71,
          "name": "B4",
          "ticks": 73920,
          "time": 109.993114,
          "velocity": 0.7874015748031497
        },
        {
          "duration": 0.3392644749999931,
          "durationTicks": 228,
          "midi": 50,
          "name": "D3",
          "ticks": 73920,
          "time": 109.993114,
          "velocity": 0.7874015748031497
        },
        {
          "duration": 0.3392644749999931,
          "durationTicks": 228,
          "midi": 38,
          "name": "D2",
          "ticks": 73920,
          "time": 109.993114,
          "velocity": 0.7874015748031497
        },
        {
          "duration": 0.3392644749999931,
          "durationTicks": 228,
          "midi": 83,
          "name": "B5",
          "ticks": 73920,
          "time": 109.993114,
          "velocity": 0.7874015748031497
        },
        {
          "duration": 0.3392644749999931,
          "durationTicks": 228,
          "midi": 50,
          "name": "D3",
          "ticks": 74160,
          "time": 110.3502345,
          "velocity": 0.7874015748031497
        },
        {
          "duration": 0.3392644749999931,
          "durationTicks": 228,
          "midi": 38,
          "name": "D2",
          "ticks": 74160,
          "time": 110.3502345,
          "velocity": 0.7874015748031497
        },
        {
          "duration": 0.16963223750001077,
          "durationTicks": 114,
          "midi": 66,
          "name": "F#4",
          "ticks": 74280,
          "time": 110.52879475,
          "velocity": 0.7874015748031497
        },
        {
          "duration": 0.16963223750001077,
          "durationTicks": 114,
          "midi": 78,
          "name": "F#5",
          "ticks": 74280,
          "time": 110.52879475,
          "velocity": 0.7874015748031497
        },
        {
          "duration": 0.6785289499999863,
          "durationTicks": 456,
          "midi": 66,
          "name": "F#4",
          "ticks": 74400,
          "time": 110.707355,
          "velocity": 0.7874015748031497
        },
        {
          "duration": 0.3392644749999931,
          "durationTicks": 228,
          "midi": 50,
          "name": "D3",
          "ticks": 74400,
          "time": 110.707355,
          "velocity": 0.7874015748031497
        },
        {
          "duration": 0.3392644749999931,
          "durationTicks": 228,
          "midi": 38,
          "name": "D2",
          "ticks": 74400,
          "time": 110.707355,
          "velocity": 0.7874015748031497
        },
        {
          "duration": 0.6785289499999863,
          "durationTicks": 456,
          "midi": 78,
          "name": "F#5",
          "ticks": 74400,
          "time": 110.707355,
          "velocity": 0.7874015748031497
        },
        {
          "duration": 0.3392644749999931,
          "durationTicks": 228,
          "midi": 50,
          "name": "D3",
          "ticks": 74640,
          "time": 111.0644755,
          "velocity": 0.7874015748031497
        },
        {
          "duration": 0.3392644749999931,
          "durationTicks": 228,
          "midi": 38,
          "name": "D2",
          "ticks": 74640,
          "time": 111.0644755,
          "velocity": 0.7874015748031497
        },
        {
          "duration": 0.3392644749999931,
          "durationTicks": 228,
          "midi": 67,
          "name": "G4",
          "ticks": 74880,
          "time": 111.42159600000001,
          "velocity": 0.7874015748031497
        },
        {
          "duration": 0.3392644749999931,
          "durationTicks": 228,
          "midi": 52,
          "name": "E3",
          "ticks": 74880,
          "time": 111.42159600000001,
          "velocity": 0.7874015748031497
        },
        {
          "duration": 0.3392644749999931,
          "durationTicks": 228,
          "midi": 40,
          "name": "E2",
          "ticks": 74880,
          "time": 111.42159600000001,
          "velocity": 0.7874015748031497
        },
        {
          "duration": 0.3392644749999931,
          "durationTicks": 228,
          "midi": 79,
          "name": "G5",
          "ticks": 74880,
          "time": 111.42159600000001,
          "velocity": 0.7874015748031497
        },
        {
          "duration": 0.16963223750001077,
          "durationTicks": 114,
          "midi": 66,
          "name": "F#4",
          "ticks": 75120,
          "time": 111.7787165,
          "velocity": 0.7874015748031497
        },
        {
          "duration": 0.3392644749999931,
          "durationTicks": 228,
          "midi": 52,
          "name": "E3",
          "ticks": 75120,
          "time": 111.7787165,
          "velocity": 0.7874015748031497
        },
        {
          "duration": 0.3392644749999931,
          "durationTicks": 228,
          "midi": 40,
          "name": "E2",
          "ticks": 75120,
          "time": 111.7787165,
          "velocity": 0.7874015748031497
        },
        {
          "duration": 0.16963223750001077,
          "durationTicks": 114,
          "midi": 78,
          "name": "F#5",
          "ticks": 75120,
          "time": 111.7787165,
          "velocity": 0.7874015748031497
        },
        {
          "duration": 0.16963223750001077,
          "durationTicks": 114,
          "midi": 64,
          "name": "E4",
          "ticks": 75240,
          "time": 111.95727675,
          "velocity": 0.7874015748031497
        },
        {
          "duration": 0.16963223750001077,
          "durationTicks": 114,
          "midi": 76,
          "name": "E5",
          "ticks": 75240,
          "time": 111.95727675,
          "velocity": 0.7874015748031497
        },
        {
          "duration": 0.3392644749999931,
          "durationTicks": 228,
          "midi": 64,
          "name": "E4",
          "ticks": 75360,
          "time": 112.13583700000001,
          "velocity": 0.7874015748031497
        },
        {
          "duration": 0.3392644749999931,
          "durationTicks": 228,
          "midi": 52,
          "name": "E3",
          "ticks": 75360,
          "time": 112.13583700000001,
          "velocity": 0.7874015748031497
        },
        {
          "duration": 0.3392644749999931,
          "durationTicks": 228,
          "midi": 40,
          "name": "E2",
          "ticks": 75360,
          "time": 112.13583700000001,
          "velocity": 0.7874015748031497
        },
        {
          "duration": 0.3392644749999931,
          "durationTicks": 228,
          "midi": 76,
          "name": "E5",
          "ticks": 75360,
          "time": 112.13583700000001,
          "velocity": 0.7874015748031497
        },
        {
          "duration": 0.3392644749999931,
          "durationTicks": 228,
          "midi": 66,
          "name": "F#4",
          "ticks": 75600,
          "time": 112.4929575,
          "velocity": 0.7874015748031497
        },
        {
          "duration": 0.3392644749999931,
          "durationTicks": 228,
          "midi": 52,
          "name": "E3",
          "ticks": 75600,
          "time": 112.4929575,
          "velocity": 0.7874015748031497
        },
        {
          "duration": 0.3392644749999931,
          "durationTicks": 228,
          "midi": 40,
          "name": "E2",
          "ticks": 75600,
          "time": 112.4929575,
          "velocity": 0.7874015748031497
        },
        {
          "duration": 0.3392644749999931,
          "durationTicks": 228,
          "midi": 78,
          "name": "F#5",
          "ticks": 75600,
          "time": 112.4929575,
          "velocity": 0.7874015748031497
        },
        {
          "duration": 0.33926447500000734,
          "durationTicks": 228,
          "midi": 67,
          "name": "G4",
          "ticks": 75840,
          "time": 112.850078,
          "velocity": 0.7874015748031497
        },
        {
          "duration": 0.33926447500000734,
          "durationTicks": 228,
          "midi": 48,
          "name": "C3",
          "ticks": 75840,
          "time": 112.850078,
          "velocity": 0.7874015748031497
        },
        {
          "duration": 0.33926447500000734,
          "durationTicks": 228,
          "midi": 36,
          "name": "C2",
          "ticks": 75840,
          "time": 112.850078,
          "velocity": 0.7874015748031497
        },
        {
          "duration": 0.33926447500000734,
          "durationTicks": 228,
          "midi": 79,
          "name": "G5",
          "ticks": 75840,
          "time": 112.850078,
          "velocity": 0.7874015748031497
        },
        {
          "duration": 0.3392644749999931,
          "durationTicks": 228,
          "midi": 48,
          "name": "C3",
          "ticks": 76080,
          "time": 113.2071985,
          "velocity": 0.7874015748031497
        },
        {
          "duration": 0.3392644749999931,
          "durationTicks": 228,
          "midi": 36,
          "name": "C2",
          "ticks": 76080,
          "time": 113.2071985,
          "velocity": 0.7874015748031497
        },
        {
          "duration": 0.33926447500000734,
          "durationTicks": 228,
          "midi": 64,
          "name": "E4",
          "ticks": 76320,
          "time": 113.564319,
          "velocity": 0.7874015748031497
        },
        {
          "duration": 0.33926447500000734,
          "durationTicks": 228,
          "midi": 48,
          "name": "C3",
          "ticks": 76320,
          "time": 113.564319,
          "velocity": 0.7874015748031497
        },
        {
          "duration": 0.33926447500000734,
          "durationTicks": 228,
          "midi": 36,
          "name": "C2",
          "ticks": 76320,
          "time": 113.564319,
          "velocity": 0.7874015748031497
        },
        {
          "duration": 0.33926447500000734,
          "durationTicks": 228,
          "midi": 76,
          "name": "E5",
          "ticks": 76320,
          "time": 113.564319,
          "velocity": 0.7874015748031497
        },
        {
          "duration": 0.3392644749999931,
          "durationTicks": 228,
          "midi": 62,
          "name": "D4",
          "ticks": 76560,
          "time": 113.9214395,
          "velocity": 0.7874015748031497
        },
        {
          "duration": 0.3392644749999931,
          "durationTicks": 228,
          "midi": 48,
          "name": "C3",
          "ticks": 76560,
          "time": 113.9214395,
          "velocity": 0.7874015748031497
        },
        {
          "duration": 0.3392644749999931,
          "durationTicks": 228,
          "midi": 36,
          "name": "C2",
          "ticks": 76560,
          "time": 113.9214395,
          "velocity": 0.7874015748031497
        },
        {
          "duration": 0.3392644749999931,
          "durationTicks": 228,
          "midi": 74,
          "name": "D5",
          "ticks": 76560,
          "time": 113.9214395,
          "velocity": 0.7874015748031497
        },
        {
          "duration": 0.3392644749999931,
          "durationTicks": 228,
          "midi": 62,
          "name": "D4",
          "ticks": 76800,
          "time": 114.27856,
          "velocity": 0.7874015748031497
        },
        {
          "duration": 0.3392644749999931,
          "durationTicks": 228,
          "midi": 55,
          "name": "G3",
          "ticks": 76800,
          "time": 114.27856,
          "velocity": 0.7874015748031497
        },
        {
          "duration": 0.3392644749999931,
          "durationTicks": 228,
          "midi": 43,
          "name": "G2",
          "ticks": 76800,
          "time": 114.27856,
          "velocity": 0.7874015748031497
        },
        {
          "duration": 0.3392644749999931,
          "durationTicks": 228,
          "midi": 74,
          "name": "D5",
          "ticks": 76800,
          "time": 114.27856,
          "velocity": 0.7874015748031497
        },
        {
          "duration": 0.3392644749999931,
          "durationTicks": 228,
          "midi": 55,
          "name": "G3",
          "ticks": 77040,
          "time": 114.6356805,
          "velocity": 0.7874015748031497
        },
        {
          "duration": 0.3392644749999931,
          "durationTicks": 228,
          "midi": 43,
          "name": "G2",
          "ticks": 77040,
          "time": 114.6356805,
          "velocity": 0.7874015748031497
        },
        {
          "duration": 0.3392644749999931,
          "durationTicks": 228,
          "midi": 67,
          "name": "G4",
          "ticks": 77280,
          "time": 114.992801,
          "velocity": 0.7874015748031497
        },
        {
          "duration": 0.3392644749999931,
          "durationTicks": 228,
          "midi": 55,
          "name": "G3",
          "ticks": 77280,
          "time": 114.992801,
          "velocity": 0.7874015748031497
        },
        {
          "duration": 0.3392644749999931,
          "durationTicks": 228,
          "midi": 43,
          "name": "G2",
          "ticks": 77280,
          "time": 114.992801,
          "velocity": 0.7874015748031497
        },
        {
          "duration": 0.3392644749999931,
          "durationTicks": 228,
          "midi": 79,
          "name": "G5",
          "ticks": 77280,
          "time": 114.992801,
          "velocity": 0.7874015748031497
        },
        {
          "duration": 0.3392644749999931,
          "durationTicks": 228,
          "midi": 66,
          "name": "F#4",
          "ticks": 77520,
          "time": 115.34992150000001,
          "velocity": 0.7874015748031497
        },
        {
          "duration": 0.3392644749999931,
          "durationTicks": 228,
          "midi": 55,
          "name": "G3",
          "ticks": 77520,
          "time": 115.34992150000001,
          "velocity": 0.7874015748031497
        },
        {
          "duration": 0.3392644749999931,
          "durationTicks": 228,
          "midi": 43,
          "name": "G2",
          "ticks": 77520,
          "time": 115.34992150000001,
          "velocity": 0.7874015748031497
        },
        {
          "duration": 0.3392644749999931,
          "durationTicks": 228,
          "midi": 78,
          "name": "F#5",
          "ticks": 77520,
          "time": 115.34992150000001,
          "velocity": 0.7874015748031497
        },
        {
          "duration": 0.3392644749999931,
          "durationTicks": 228,
          "midi": 66,
          "name": "F#4",
          "ticks": 77760,
          "time": 115.707042,
          "velocity": 0.7874015748031497
        },
        {
          "duration": 0.3392644749999931,
          "durationTicks": 228,
          "midi": 50,
          "name": "D3",
          "ticks": 77760,
          "time": 115.707042,
          "velocity": 0.7874015748031497
        },
        {
          "duration": 0.3392644749999931,
          "durationTicks": 228,
          "midi": 38,
          "name": "D2",
          "ticks": 77760,
          "time": 115.707042,
          "velocity": 0.7874015748031497
        },
        {
          "duration": 0.3392644749999931,
          "durationTicks": 228,
          "midi": 78,
          "name": "F#5",
          "ticks": 77760,
          "time": 115.707042,
          "velocity": 0.7874015748031497
        },
        {
          "duration": 0.3392644749999931,
          "durationTicks": 228,
          "midi": 50,
          "name": "D3",
          "ticks": 78000,
          "time": 116.06416250000001,
          "velocity": 0.7874015748031497
        },
        {
          "duration": 0.3392644749999931,
          "durationTicks": 228,
          "midi": 38,
          "name": "D2",
          "ticks": 78000,
          "time": 116.06416250000001,
          "velocity": 0.7874015748031497
        },
        {
          "duration": 0.3392644749999931,
          "durationTicks": 228,
          "midi": 64,
          "name": "E4",
          "ticks": 78240,
          "time": 116.421283,
          "velocity": 0.7874015748031497
        },
        {
          "duration": 0.3392644749999931,
          "durationTicks": 228,
          "midi": 50,
          "name": "D3",
          "ticks": 78240,
          "time": 116.421283,
          "velocity": 0.7874015748031497
        },
        {
          "duration": 0.3392644749999931,
          "durationTicks": 228,
          "midi": 38,
          "name": "D2",
          "ticks": 78240,
          "time": 116.421283,
          "velocity": 0.7874015748031497
        },
        {
          "duration": 0.3392644749999931,
          "durationTicks": 228,
          "midi": 76,
          "name": "E5",
          "ticks": 78240,
          "time": 116.421283,
          "velocity": 0.7874015748031497
        },
        {
          "duration": 0.33926447500000734,
          "durationTicks": 228,
          "midi": 66,
          "name": "F#4",
          "ticks": 78480,
          "time": 116.7784035,
          "velocity": 0.7874015748031497
        },
        {
          "duration": 0.33926447500000734,
          "durationTicks": 228,
          "midi": 50,
          "name": "D3",
          "ticks": 78480,
          "time": 116.7784035,
          "velocity": 0.7874015748031497
        },
        {
          "duration": 0.33926447500000734,
          "durationTicks": 228,
          "midi": 38,
          "name": "D2",
          "ticks": 78480,
          "time": 116.7784035,
          "velocity": 0.7874015748031497
        },
        {
          "duration": 0.33926447500000734,
          "durationTicks": 228,
          "midi": 78,
          "name": "F#5",
          "ticks": 78480,
          "time": 116.7784035,
          "velocity": 0.7874015748031497
        },
        {
          "duration": 0.3392644749999931,
          "durationTicks": 228,
          "midi": 67,
          "name": "G4",
          "ticks": 78720,
          "time": 117.135524,
          "velocity": 0.7874015748031497
        },
        {
          "duration": 0.3392644749999931,
          "durationTicks": 228,
          "midi": 52,
          "name": "E3",
          "ticks": 78720,
          "time": 117.135524,
          "velocity": 0.7874015748031497
        },
        {
          "duration": 0.3392644749999931,
          "durationTicks": 228,
          "midi": 40,
          "name": "E2",
          "ticks": 78720,
          "time": 117.135524,
          "velocity": 0.7874015748031497
        },
        {
          "duration": 0.3392644749999931,
          "durationTicks": 228,
          "midi": 79,
          "name": "G5",
          "ticks": 78720,
          "time": 117.135524,
          "velocity": 0.7874015748031497
        },
        {
          "duration": 0.16963223750001077,
          "durationTicks": 114,
          "midi": 69,
          "name": "A4",
          "ticks": 78960,
          "time": 117.4926445,
          "velocity": 0.7874015748031497
        },
        {
          "duration": 0.33926447500000734,
          "durationTicks": 228,
          "midi": 52,
          "name": "E3",
          "ticks": 78960,
          "time": 117.4926445,
          "velocity": 0.7874015748031497
        },
        {
          "duration": 0.33926447500000734,
          "durationTicks": 228,
          "midi": 40,
          "name": "E2",
          "ticks": 78960,
          "time": 117.4926445,
          "velocity": 0.7874015748031497
        },
        {
          "duration": 0.16963223750001077,
          "durationTicks": 114,
          "midi": 81,
          "name": "A5",
          "ticks": 78960,
          "time": 117.4926445,
          "velocity": 0.7874015748031497
        },
        {
          "duration": 0.16963223750001077,
          "durationTicks": 114,
          "midi": 66,
          "name": "F#4",
          "ticks": 79080,
          "time": 117.67120475,
          "velocity": 0.7874015748031497
        },
        {
          "duration": 0.16963223750001077,
          "durationTicks": 114,
          "midi": 78,
          "name": "F#5",
          "ticks": 79080,
          "time": 117.67120475,
          "velocity": 0.7874015748031497
        },
        {
          "duration": 0.3392644749999931,
          "durationTicks": 228,
          "midi": 66,
          "name": "F#4",
          "ticks": 79200,
          "time": 117.849765,
          "velocity": 0.7874015748031497
        },
        {
          "duration": 0.3392644749999931,
          "durationTicks": 228,
          "midi": 52,
          "name": "E3",
          "ticks": 79200,
          "time": 117.849765,
          "velocity": 0.7874015748031497
        },
        {
          "duration": 0.3392644749999931,
          "durationTicks": 228,
          "midi": 40,
          "name": "E2",
          "ticks": 79200,
          "time": 117.849765,
          "velocity": 0.7874015748031497
        },
        {
          "duration": 0.3392644749999931,
          "durationTicks": 228,
          "midi": 78,
          "name": "F#5",
          "ticks": 79200,
          "time": 117.849765,
          "velocity": 0.7874015748031497
        },
        {
          "duration": 0.3392644749999931,
          "durationTicks": 228,
          "midi": 67,
          "name": "G4",
          "ticks": 79440,
          "time": 118.2068855,
          "velocity": 0.7874015748031497
        },
        {
          "duration": 0.3392644749999931,
          "durationTicks": 228,
          "midi": 52,
          "name": "E3",
          "ticks": 79440,
          "time": 118.2068855,
          "velocity": 0.7874015748031497
        },
        {
          "duration": 0.3392644749999931,
          "durationTicks": 228,
          "midi": 40,
          "name": "E2",
          "ticks": 79440,
          "time": 118.2068855,
          "velocity": 0.7874015748031497
        },
        {
          "duration": 0.3392644749999931,
          "durationTicks": 228,
          "midi": 79,
          "name": "G5",
          "ticks": 79440,
          "time": 118.2068855,
          "velocity": 0.7874015748031497
        },
        {
          "duration": 0.3392644749999931,
          "durationTicks": 228,
          "midi": 48,
          "name": "C3",
          "ticks": 79680,
          "time": 118.564006,
          "velocity": 0.7874015748031497
        },
        {
          "duration": 0.3392644749999931,
          "durationTicks": 228,
          "midi": 36,
          "name": "C2",
          "ticks": 79680,
          "time": 118.564006,
          "velocity": 0.7874015748031497
        },
        {
          "duration": 0.3392644749999931,
          "durationTicks": 228,
          "midi": 64,
          "name": "E4",
          "ticks": 79920,
          "time": 118.9211265,
          "velocity": 0.7874015748031497
        },
        {
          "duration": 0.3392644749999931,
          "durationTicks": 228,
          "midi": 48,
          "name": "C3",
          "ticks": 79920,
          "time": 118.9211265,
          "velocity": 0.7874015748031497
        },
        {
          "duration": 0.3392644749999931,
          "durationTicks": 228,
          "midi": 36,
          "name": "C2",
          "ticks": 79920,
          "time": 118.9211265,
          "velocity": 0.7874015748031497
        },
        {
          "duration": 0.3392644749999931,
          "durationTicks": 228,
          "midi": 76,
          "name": "E5",
          "ticks": 79920,
          "time": 118.9211265,
          "velocity": 0.7874015748031497
        },
        {
          "duration": 0.3392644749999931,
          "durationTicks": 228,
          "midi": 64,
          "name": "E4",
          "ticks": 80160,
          "time": 119.27824700000001,
          "velocity": 0.7874015748031497
        },
        {
          "duration": 0.3392644749999931,
          "durationTicks": 228,
          "midi": 48,
          "name": "C3",
          "ticks": 80160,
          "time": 119.27824700000001,
          "velocity": 0.7874015748031497
        },
        {
          "duration": 0.3392644749999931,
          "durationTicks": 228,
          "midi": 36,
          "name": "C2",
          "ticks": 80160,
          "time": 119.27824700000001,
          "velocity": 0.7874015748031497
        },
        {
          "duration": 0.3392644749999931,
          "durationTicks": 228,
          "midi": 76,
          "name": "E5",
          "ticks": 80160,
          "time": 119.27824700000001,
          "velocity": 0.7874015748031497
        },
        {
          "duration": 0.3392644749999931,
          "durationTicks": 228,
          "midi": 66,
          "name": "F#4",
          "ticks": 80400,
          "time": 119.6353675,
          "velocity": 0.7874015748031497
        },
        {
          "duration": 0.3392644749999931,
          "durationTicks": 228,
          "midi": 48,
          "name": "C3",
          "ticks": 80400,
          "time": 119.6353675,
          "velocity": 0.7874015748031497
        },
        {
          "duration": 0.3392644749999931,
          "durationTicks": 228,
          "midi": 36,
          "name": "C2",
          "ticks": 80400,
          "time": 119.6353675,
          "velocity": 0.7874015748031497
        },
        {
          "duration": 0.3392644749999931,
          "durationTicks": 228,
          "midi": 78,
          "name": "F#5",
          "ticks": 80400,
          "time": 119.6353675,
          "velocity": 0.7874015748031497
        },
        {
          "duration": 0.3392644749999931,
          "durationTicks": 228,
          "midi": 67,
          "name": "G4",
          "ticks": 80640,
          "time": 119.99248800000001,
          "velocity": 0.7874015748031497
        },
        {
          "duration": 0.3392644749999931,
          "durationTicks": 228,
          "midi": 55,
          "name": "G3",
          "ticks": 80640,
          "time": 119.99248800000001,
          "velocity": 0.7874015748031497
        },
        {
          "duration": 0.3392644749999931,
          "durationTicks": 228,
          "midi": 43,
          "name": "G2",
          "ticks": 80640,
          "time": 119.99248800000001,
          "velocity": 0.7874015748031497
        },
        {
          "duration": 0.3392644749999931,
          "durationTicks": 228,
          "midi": 79,
          "name": "G5",
          "ticks": 80640,
          "time": 119.99248800000001,
          "velocity": 0.7874015748031497
        },
        {
          "duration": 0.3392644749999931,
          "durationTicks": 228,
          "midi": 69,
          "name": "A4",
          "ticks": 80880,
          "time": 120.3496085,
          "velocity": 0.7874015748031497
        },
        {
          "duration": 0.3392644749999931,
          "durationTicks": 228,
          "midi": 55,
          "name": "G3",
          "ticks": 80880,
          "time": 120.3496085,
          "velocity": 0.7874015748031497
        },
        {
          "duration": 0.3392644749999931,
          "durationTicks": 228,
          "midi": 43,
          "name": "G2",
          "ticks": 80880,
          "time": 120.3496085,
          "velocity": 0.7874015748031497
        },
        {
          "duration": 0.3392644749999931,
          "durationTicks": 228,
          "midi": 81,
          "name": "A5",
          "ticks": 80880,
          "time": 120.3496085,
          "velocity": 0.7874015748031497
        },
        {
          "duration": 0.33926447500000734,
          "durationTicks": 228,
          "midi": 71,
          "name": "B4",
          "ticks": 81120,
          "time": 120.706729,
          "velocity": 0.7874015748031497
        },
        {
          "duration": 0.33926447500000734,
          "durationTicks": 228,
          "midi": 55,
          "name": "G3",
          "ticks": 81120,
          "time": 120.706729,
          "velocity": 0.7874015748031497
        },
        {
          "duration": 0.33926447500000734,
          "durationTicks": 228,
          "midi": 43,
          "name": "G2",
          "ticks": 81120,
          "time": 120.706729,
          "velocity": 0.7874015748031497
        },
        {
          "duration": 0.33926447500000734,
          "durationTicks": 228,
          "midi": 83,
          "name": "B5",
          "ticks": 81120,
          "time": 120.706729,
          "velocity": 0.7874015748031497
        },
        {
          "duration": 0.3392644749999931,
          "durationTicks": 228,
          "midi": 72,
          "name": "C5",
          "ticks": 81360,
          "time": 121.0638495,
          "velocity": 0.7874015748031497
        },
        {
          "duration": 0.3392644749999931,
          "durationTicks": 228,
          "midi": 55,
          "name": "G3",
          "ticks": 81360,
          "time": 121.0638495,
          "velocity": 0.7874015748031497
        },
        {
          "duration": 0.3392644749999931,
          "durationTicks": 228,
          "midi": 43,
          "name": "G2",
          "ticks": 81360,
          "time": 121.0638495,
          "velocity": 0.7874015748031497
        },
        {
          "duration": 0.3392644749999931,
          "durationTicks": 228,
          "midi": 84,
          "name": "C6",
          "ticks": 81360,
          "time": 121.0638495,
          "velocity": 0.7874015748031497
        },
        {
          "duration": 0.5088967125000039,
          "durationTicks": 342,
          "midi": 71,
          "name": "B4",
          "ticks": 81600,
          "time": 121.42097,
          "velocity": 0.7874015748031497
        },
        {
          "duration": 0.33926447500000734,
          "durationTicks": 228,
          "midi": 50,
          "name": "D3",
          "ticks": 81600,
          "time": 121.42097,
          "velocity": 0.7874015748031497
        },
        {
          "duration": 0.33926447500000734,
          "durationTicks": 228,
          "midi": 38,
          "name": "D2",
          "ticks": 81600,
          "time": 121.42097,
          "velocity": 0.7874015748031497
        },
        {
          "duration": 0.33926447500000734,
          "durationTicks": 228,
          "midi": 83,
          "name": "B5",
          "ticks": 81600,
          "time": 121.42097,
          "velocity": 0.7874015748031497
        },
        {
          "duration": 0.3392644749999931,
          "durationTicks": 228,
          "midi": 50,
          "name": "D3",
          "ticks": 81840,
          "time": 121.7780905,
          "velocity": 0.7874015748031497
        },
        {
          "duration": 0.3392644749999931,
          "durationTicks": 228,
          "midi": 38,
          "name": "D2",
          "ticks": 81840,
          "time": 121.7780905,
          "velocity": 0.7874015748031497
        },
        {
          "duration": 0.16963223749999656,
          "durationTicks": 114,
          "midi": 66,
          "name": "F#4",
          "ticks": 81960,
          "time": 121.95665075000001,
          "velocity": 0.7874015748031497
        },
        {
          "duration": 0.3392644749999931,
          "durationTicks": 228,
          "midi": 66,
          "name": "F#4",
          "ticks": 81960,
          "time": 121.95665075000001,
          "velocity": 0.7874015748031497
        },
        {
          "duration": 0.3392644749999931,
          "durationTicks": 228,
          "midi": 78,
          "name": "F#5",
          "ticks": 81960,
          "time": 121.95665075000001,
          "velocity": 0.7874015748031497
        },
        {
          "duration": 0.3392644749999931,
          "durationTicks": 228,
          "midi": 78,
          "name": "F#5",
          "ticks": 81960,
          "time": 121.95665075000001,
          "velocity": 0.7874015748031497
        },
        {
          "duration": 0.5088967125000039,
          "durationTicks": 342,
          "midi": 66,
          "name": "F#4",
          "ticks": 82080,
          "time": 122.135211,
          "velocity": 0.7874015748031497
        },
        {
          "duration": 0.33926447500000734,
          "durationTicks": 228,
          "midi": 50,
          "name": "D3",
          "ticks": 82080,
          "time": 122.135211,
          "velocity": 0.7874015748031497
        },
        {
          "duration": 0.33926447500000734,
          "durationTicks": 228,
          "midi": 38,
          "name": "D2",
          "ticks": 82080,
          "time": 122.135211,
          "velocity": 0.7874015748031497
        },
        {
          "duration": 0.33926447500000734,
          "durationTicks": 228,
          "midi": 78,
          "name": "F#5",
          "ticks": 82080,
          "time": 122.135211,
          "velocity": 0.7874015748031497
        },
        {
          "duration": 0.3392644749999931,
          "durationTicks": 228,
          "midi": 50,
          "name": "D3",
          "ticks": 82320,
          "time": 122.4923315,
          "velocity": 0.7874015748031497
        },
        {
          "duration": 0.3392644749999931,
          "durationTicks": 228,
          "midi": 38,
          "name": "D2",
          "ticks": 82320,
          "time": 122.4923315,
          "velocity": 0.7874015748031497
        },
        {
          "duration": 0.16963223750001077,
          "durationTicks": 114,
          "midi": 64,
          "name": "E4",
          "ticks": 82440,
          "time": 122.67089175,
          "velocity": 0.7874015748031497
        },
        {
          "duration": 0.16963223750001077,
          "durationTicks": 114,
          "midi": 76,
          "name": "E5",
          "ticks": 82440,
          "time": 122.67089175,
          "velocity": 0.7874015748031497
        },
        {
          "duration": 0.3392644749999931,
          "durationTicks": 228,
          "midi": 64,
          "name": "E4",
          "ticks": 82560,
          "time": 122.849452,
          "velocity": 0.7874015748031497
        },
        {
          "duration": 0.3392644749999931,
          "durationTicks": 228,
          "midi": 52,
          "name": "E3",
          "ticks": 82560,
          "time": 122.849452,
          "velocity": 0.7874015748031497
        },
        {
          "duration": 0.3392644749999931,
          "durationTicks": 228,
          "midi": 40,
          "name": "E2",
          "ticks": 82560,
          "time": 122.849452,
          "velocity": 0.7874015748031497
        },
        {
          "duration": 0.3392644749999931,
          "durationTicks": 228,
          "midi": 76,
          "name": "E5",
          "ticks": 82560,
          "time": 122.849452,
          "velocity": 0.7874015748031497
        },
        {
          "duration": 0.3392644749999931,
          "durationTicks": 228,
          "midi": 52,
          "name": "E3",
          "ticks": 82800,
          "time": 123.20657250000001,
          "velocity": 0.7874015748031497
        },
        {
          "duration": 0.3392644749999931,
          "durationTicks": 228,
          "midi": 40,
          "name": "E2",
          "ticks": 82800,
          "time": 123.20657250000001,
          "velocity": 0.7874015748031497
        },
        {
          "duration": 0.3392644749999931,
          "durationTicks": 228,
          "midi": 67,
          "name": "G4",
          "ticks": 83040,
          "time": 123.563693,
          "velocity": 0.7874015748031497
        },
        {
          "duration": 0.3392644749999931,
          "durationTicks": 228,
          "midi": 52,
          "name": "E3",
          "ticks": 83040,
          "time": 123.563693,
          "velocity": 0.7874015748031497
        },
        {
          "duration": 0.3392644749999931,
          "durationTicks": 228,
          "midi": 40,
          "name": "E2",
          "ticks": 83040,
          "time": 123.563693,
          "velocity": 0.7874015748031497
        },
        {
          "duration": 0.3392644749999931,
          "durationTicks": 228,
          "midi": 79,
          "name": "G5",
          "ticks": 83040,
          "time": 123.563693,
          "velocity": 0.7874015748031497
        },
        {
          "duration": 0.3392644749999931,
          "durationTicks": 228,
          "midi": 64,
          "name": "E4",
          "ticks": 83280,
          "time": 123.92081350000001,
          "velocity": 0.7874015748031497
        },
        {
          "duration": 0.3392644749999931,
          "durationTicks": 228,
          "midi": 52,
          "name": "E3",
          "ticks": 83280,
          "time": 123.92081350000001,
          "velocity": 0.7874015748031497
        },
        {
          "duration": 0.3392644749999931,
          "durationTicks": 228,
          "midi": 40,
          "name": "E2",
          "ticks": 83280,
          "time": 123.92081350000001,
          "velocity": 0.7874015748031497
        },
        {
          "duration": 0.3392644749999931,
          "durationTicks": 228,
          "midi": 76,
          "name": "E5",
          "ticks": 83280,
          "time": 123.92081350000001,
          "velocity": 0.7874015748031497
        },
        {
          "duration": 0.3392644749999931,
          "durationTicks": 228,
          "midi": 67,
          "name": "G4",
          "ticks": 83520,
          "time": 124.277934,
          "velocity": 0.7874015748031497
        },
        {
          "duration": 0.3392644749999931,
          "durationTicks": 228,
          "midi": 48,
          "name": "C3",
          "ticks": 83520,
          "time": 124.277934,
          "velocity": 0.7874015748031497
        },
        {
          "duration": 0.3392644749999931,
          "durationTicks": 228,
          "midi": 36,
          "name": "C2",
          "ticks": 83520,
          "time": 124.277934,
          "velocity": 0.7874015748031497
        },
        {
          "duration": 0.3392644749999931,
          "durationTicks": 228,
          "midi": 79,
          "name": "G5",
          "ticks": 83520,
          "time": 124.277934,
          "velocity": 0.7874015748031497
        },
        {
          "duration": 0.3392644749999931,
          "durationTicks": 228,
          "midi": 64,
          "name": "E4",
          "ticks": 83760,
          "time": 124.63505450000001,
          "velocity": 0.7874015748031497
        },
        {
          "duration": 0.3392644749999931,
          "durationTicks": 228,
          "midi": 48,
          "name": "C3",
          "ticks": 83760,
          "time": 124.63505450000001,
          "velocity": 0.7874015748031497
        },
        {
          "duration": 0.3392644749999931,
          "durationTicks": 228,
          "midi": 36,
          "name": "C2",
          "ticks": 83760,
          "time": 124.63505450000001,
          "velocity": 0.7874015748031497
        },
        {
          "duration": 0.3392644749999931,
          "durationTicks": 228,
          "midi": 76,
          "name": "E5",
          "ticks": 83760,
          "time": 124.63505450000001,
          "velocity": 0.7874015748031497
        },
        {
          "duration": 0.3392644749999931,
          "durationTicks": 228,
          "midi": 67,
          "name": "G4",
          "ticks": 84000,
          "time": 124.992175,
          "velocity": 0.7874015748031497
        },
        {
          "duration": 0.3392644749999931,
          "durationTicks": 228,
          "midi": 48,
          "name": "C3",
          "ticks": 84000,
          "time": 124.992175,
          "velocity": 0.7874015748031497
        },
        {
          "duration": 0.3392644749999931,
          "durationTicks": 228,
          "midi": 36,
          "name": "C2",
          "ticks": 84000,
          "time": 124.992175,
          "velocity": 0.7874015748031497
        },
        {
          "duration": 0.3392644749999931,
          "durationTicks": 228,
          "midi": 79,
          "name": "G5",
          "ticks": 84000,
          "time": 124.992175,
          "velocity": 0.7874015748031497
        },
        {
          "duration": 0.33926447500000734,
          "durationTicks": 228,
          "midi": 69,
          "name": "A4",
          "ticks": 84240,
          "time": 125.3492955,
          "velocity": 0.7874015748031497
        },
        {
          "duration": 0.33926447500000734,
          "durationTicks": 228,
          "midi": 48,
          "name": "C3",
          "ticks": 84240,
          "time": 125.3492955,
          "velocity": 0.7874015748031497
        },
        {
          "duration": 0.33926447500000734,
          "durationTicks": 228,
          "midi": 36,
          "name": "C2",
          "ticks": 84240,
          "time": 125.3492955,
          "velocity": 0.7874015748031497
        },
        {
          "duration": 0.33926447500000734,
          "durationTicks": 228,
          "midi": 81,
          "name": "A5",
          "ticks": 84240,
          "time": 125.3492955,
          "velocity": 0.7874015748031497
        },
        {
          "duration": 0.3392644749999931,
          "durationTicks": 228,
          "midi": 71,
          "name": "B4",
          "ticks": 84480,
          "time": 125.706416,
          "velocity": 0.7874015748031497
        },
        {
          "duration": 0.3392644749999931,
          "durationTicks": 228,
          "midi": 55,
          "name": "G3",
          "ticks": 84480,
          "time": 125.706416,
          "velocity": 0.7874015748031497
        },
        {
          "duration": 0.3392644749999931,
          "durationTicks": 228,
          "midi": 43,
          "name": "G2",
          "ticks": 84480,
          "time": 125.706416,
          "velocity": 0.7874015748031497
        },
        {
          "duration": 0.3392644749999931,
          "durationTicks": 228,
          "midi": 83,
          "name": "B5",
          "ticks": 84480,
          "time": 125.706416,
          "velocity": 0.7874015748031497
        },
        {
          "duration": 0.33926447500000734,
          "durationTicks": 228,
          "midi": 67,
          "name": "G4",
          "ticks": 84720,
          "time": 126.0635365,
          "velocity": 0.7874015748031497
        },
        {
          "duration": 0.33926447500000734,
          "durationTicks": 228,
          "midi": 55,
          "name": "G3",
          "ticks": 84720,
          "time": 126.0635365,
          "velocity": 0.7874015748031497
        },
        {
          "duration": 0.33926447500000734,
          "durationTicks": 228,
          "midi": 43,
          "name": "G2",
          "ticks": 84720,
          "time": 126.0635365,
          "velocity": 0.7874015748031497
        },
        {
          "duration": 0.33926447500000734,
          "durationTicks": 228,
          "midi": 79,
          "name": "G5",
          "ticks": 84720,
          "time": 126.0635365,
          "velocity": 0.7874015748031497
        },
        {
          "duration": 0.3392644749999931,
          "durationTicks": 228,
          "midi": 67,
          "name": "G4",
          "ticks": 84960,
          "time": 126.420657,
          "velocity": 0.7874015748031497
        },
        {
          "duration": 0.3392644749999931,
          "durationTicks": 228,
          "midi": 55,
          "name": "G3",
          "ticks": 84960,
          "time": 126.420657,
          "velocity": 0.7874015748031497
        },
        {
          "duration": 0.3392644749999931,
          "durationTicks": 228,
          "midi": 43,
          "name": "G2",
          "ticks": 84960,
          "time": 126.420657,
          "velocity": 0.7874015748031497
        },
        {
          "duration": 0.3392644749999931,
          "durationTicks": 228,
          "midi": 79,
          "name": "G5",
          "ticks": 84960,
          "time": 126.420657,
          "velocity": 0.7874015748031497
        },
        {
          "duration": 0.3392644749999931,
          "durationTicks": 228,
          "midi": 55,
          "name": "G3",
          "ticks": 85200,
          "time": 126.7777775,
          "velocity": 0.7874015748031497
        },
        {
          "duration": 0.3392644749999931,
          "durationTicks": 228,
          "midi": 43,
          "name": "G2",
          "ticks": 85200,
          "time": 126.7777775,
          "velocity": 0.7874015748031497
        },
        {
          "duration": 0.3392644749999931,
          "durationTicks": 228,
          "midi": 66,
          "name": "F#4",
          "ticks": 85440,
          "time": 127.134898,
          "velocity": 0.7874015748031497
        },
        {
          "duration": 0.3392644749999931,
          "durationTicks": 228,
          "midi": 50,
          "name": "D3",
          "ticks": 85440,
          "time": 127.134898,
          "velocity": 0.7874015748031497
        },
        {
          "duration": 0.3392644749999931,
          "durationTicks": 228,
          "midi": 38,
          "name": "D2",
          "ticks": 85440,
          "time": 127.134898,
          "velocity": 0.7874015748031497
        },
        {
          "duration": 0.3392644749999931,
          "durationTicks": 228,
          "midi": 78,
          "name": "F#5",
          "ticks": 85440,
          "time": 127.134898,
          "velocity": 0.7874015748031497
        },
        {
          "duration": 0.3392644749999931,
          "durationTicks": 228,
          "midi": 69,
          "name": "A4",
          "ticks": 85680,
          "time": 127.4920185,
          "velocity": 0.7874015748031497
        },
        {
          "duration": 0.3392644749999931,
          "durationTicks": 228,
          "midi": 50,
          "name": "D3",
          "ticks": 85680,
          "time": 127.4920185,
          "velocity": 0.7874015748031497
        },
        {
          "duration": 0.3392644749999931,
          "durationTicks": 228,
          "midi": 38,
          "name": "D2",
          "ticks": 85680,
          "time": 127.4920185,
          "velocity": 0.7874015748031497
        },
        {
          "duration": 0.3392644749999931,
          "durationTicks": 228,
          "midi": 81,
          "name": "A5",
          "ticks": 85680,
          "time": 127.4920185,
          "velocity": 0.7874015748031497
        },
        {
          "duration": 0.3392644749999931,
          "durationTicks": 228,
          "midi": 66,
          "name": "F#4",
          "ticks": 85920,
          "time": 127.84913900000001,
          "velocity": 0.7874015748031497
        },
        {
          "duration": 0.3392644749999931,
          "durationTicks": 228,
          "midi": 50,
          "name": "D3",
          "ticks": 85920,
          "time": 127.84913900000001,
          "velocity": 0.7874015748031497
        },
        {
          "duration": 0.3392644749999931,
          "durationTicks": 228,
          "midi": 38,
          "name": "D2",
          "ticks": 85920,
          "time": 127.84913900000001,
          "velocity": 0.7874015748031497
        },
        {
          "duration": 0.3392644749999931,
          "durationTicks": 228,
          "midi": 76,
          "name": "E5",
          "ticks": 85920,
          "time": 127.84913900000001,
          "velocity": 0.7874015748031497
        },
        {
          "duration": 0.3392644749999931,
          "durationTicks": 228,
          "midi": 38,
          "name": "D2",
          "ticks": 86160,
          "time": 128.20625950000002,
          "velocity": 0.7874015748031497
        },
        {
          "duration": 0.3392644749999931,
          "durationTicks": 228,
          "midi": 50,
          "name": "D3",
          "ticks": 86160,
          "time": 128.20625950000002,
          "velocity": 0.7874015748031497
        },
        {
          "duration": 0.16963223749999656,
          "durationTicks": 114,
          "midi": 67,
          "name": "G4",
          "ticks": 86160,
          "time": 128.20625950000002,
          "velocity": 0.7874015748031497
        },
        {
          "duration": 0.16963223749999656,
          "durationTicks": 114,
          "midi": 79,
          "name": "G5",
          "ticks": 86160,
          "time": 128.20625950000002,
          "velocity": 0.7874015748031497
        },
        {
          "duration": 0.16963223750002498,
          "durationTicks": 114,
          "midi": 66,
          "name": "F#4",
          "ticks": 86280,
          "time": 128.38481975,
          "velocity": 0.7874015748031497
        },
        {
          "duration": 0.16963223750002498,
          "durationTicks": 114,
          "midi": 78,
          "name": "F#5",
          "ticks": 86280,
          "time": 128.38481975,
          "velocity": 0.7874015748031497
        },
        {
          "duration": 2.821251950000004,
          "durationTicks": 1896,
          "midi": 52,
          "name": "E3",
          "ticks": 86400,
          "time": 128.56338,
          "velocity": 0.7874015748031497
        },
        {
          "duration": 2.821251950000004,
          "durationTicks": 1896,
          "midi": 40,
          "name": "E2",
          "ticks": 86400,
          "time": 128.56338,
          "velocity": 0.7874015748031497
        },
        {
          "duration": 0.6785289499999863,
          "durationTicks": 456,
          "midi": 67,
          "name": "G4",
          "ticks": 86400,
          "time": 128.56338,
          "velocity": 0.7874015748031497
        },
        {
          "duration": 0.3392644749999931,
          "durationTicks": 228,
          "midi": 64,
          "name": "E4",
          "ticks": 87360,
          "time": 129.991862,
          "velocity": 0.7874015748031497
        },
        {
          "duration": 0.3392644749999931,
          "durationTicks": 228,
          "midi": 71,
          "name": "B4",
          "ticks": 87600,
          "time": 130.3489825,
          "velocity": 0.7874015748031497
        },
        {
          "duration": 0.3392644749999931,
          "durationTicks": 228,
          "midi": 67,
          "name": "G4",
          "ticks": 87840,
          "time": 130.706103,
          "velocity": 0.7874015748031497
        },
        {
          "duration": 0.3392644749999931,
          "durationTicks": 228,
          "midi": 64,
          "name": "E4",
          "ticks": 88320,
          "time": 131.420344,
          "velocity": 0.7874015748031497
        },
        {
          "duration": 2.821251950000004,
          "durationTicks": 1896,
          "midi": 48,
          "name": "C3",
          "ticks": 88320,
          "time": 131.420344,
          "velocity": 0.7874015748031497
        },
        {
          "duration": 2.821251950000004,
          "durationTicks": 1896,
          "midi": 36,
          "name": "C2",
          "ticks": 88320,
          "time": 131.420344,
          "velocity": 0.7874015748031497
        },
        {
          "duration": 0.3392644749999931,
          "durationTicks": 228,
          "midi": 67,
          "name": "G4",
          "ticks": 88560,
          "time": 131.7774645,
          "velocity": 0.7874015748031497
        },
        {
          "duration": 0.3392644749999931,
          "durationTicks": 228,
          "midi": 71,
          "name": "B4",
          "ticks": 88800,
          "time": 132.13458500000002,
          "velocity": 0.7874015748031497
        },
        {
          "duration": 0.3392644749999931,
          "durationTicks": 228,
          "midi": 64,
          "name": "E4",
          "ticks": 89280,
          "time": 132.848826,
          "velocity": 0.7874015748031497
        },
        {
          "duration": 0.3392644749999931,
          "durationTicks": 228,
          "midi": 71,
          "name": "B4",
          "ticks": 89520,
          "time": 133.2059465,
          "velocity": 0.7874015748031497
        },
        {
          "duration": 0.33926447500002155,
          "durationTicks": 228,
          "midi": 67,
          "name": "G4",
          "ticks": 89760,
          "time": 133.563067,
          "velocity": 0.7874015748031497
        },
        {
          "duration": 0.3392644749999931,
          "durationTicks": 228,
          "midi": 64,
          "name": "E4",
          "ticks": 90240,
          "time": 134.277308,
          "velocity": 0.7874015748031497
        },
        {
          "duration": 2.8212519499999757,
          "durationTicks": 1896,
          "midi": 43,
          "name": "G2",
          "ticks": 90240,
          "time": 134.277308,
          "velocity": 0.7874015748031497
        },
        {
          "duration": 2.8212519499999757,
          "durationTicks": 1896,
          "midi": 55,
          "name": "G3",
          "ticks": 90240,
          "time": 134.277308,
          "velocity": 0.7874015748031497
        },
        {
          "duration": 0.3392644749999931,
          "durationTicks": 228,
          "midi": 67,
          "name": "G4",
          "ticks": 90480,
          "time": 134.6344285,
          "velocity": 0.7874015748031497
        },
        {
          "duration": 0.3392644749999931,
          "durationTicks": 228,
          "midi": 71,
          "name": "B4",
          "ticks": 90720,
          "time": 134.991549,
          "velocity": 0.7874015748031497
        },
        {
          "duration": 0.3392644749999931,
          "durationTicks": 228,
          "midi": 64,
          "name": "E4",
          "ticks": 91200,
          "time": 135.70579,
          "velocity": 0.7874015748031497
        },
        {
          "duration": 0.3392644749999931,
          "durationTicks": 228,
          "midi": 71,
          "name": "B4",
          "ticks": 91440,
          "time": 136.06291050000002,
          "velocity": 0.7874015748031497
        },
        {
          "duration": 0.3392644749999931,
          "durationTicks": 228,
          "midi": 67,
          "name": "G4",
          "ticks": 91680,
          "time": 136.420031,
          "velocity": 0.7874015748031497
        },
        {
          "duration": 0.3392644749999931,
          "durationTicks": 228,
          "midi": 64,
          "name": "E4",
          "ticks": 92160,
          "time": 137.134272,
          "velocity": 0.7874015748031497
        },
        {
          "duration": 2.8212519499999757,
          "durationTicks": 1896,
          "midi": 50,
          "name": "D3",
          "ticks": 92160,
          "time": 137.134272,
          "velocity": 0.7874015748031497
        },
        {
          "duration": 2.8212519499999757,
          "durationTicks": 1896,
          "midi": 38,
          "name": "D2",
          "ticks": 92160,
          "time": 137.134272,
          "velocity": 0.7874015748031497
        },
        {
          "duration": 0.33926447500002155,
          "durationTicks": 228,
          "midi": 67,
          "name": "G4",
          "ticks": 92400,
          "time": 137.4913925,
          "velocity": 0.7874015748031497
        },
        {
          "duration": 0.3392644749999931,
          "durationTicks": 228,
          "midi": 71,
          "name": "B4",
          "ticks": 92640,
          "time": 137.848513,
          "velocity": 0.7874015748031497
        },
        {
          "duration": 0.3392644749999931,
          "durationTicks": 228,
          "midi": 64,
          "name": "E4",
          "ticks": 93120,
          "time": 138.562754,
          "velocity": 0.7874015748031497
        },
        {
          "duration": 0.3392644749999931,
          "durationTicks": 228,
          "midi": 71,
          "name": "B4",
          "ticks": 93360,
          "time": 138.9198745,
          "velocity": 0.7874015748031497
        },
        {
          "duration": 0.6785289499999863,
          "durationTicks": 456,
          "midi": 67,
          "name": "G4",
          "ticks": 93600,
          "time": 139.276995,
          "velocity": 0.7874015748031497
        },
        {
          "duration": 1.3927699499999733,
          "durationTicks": 936,
          "midi": 52,
          "name": "E3",
          "ticks": 94080,
          "time": 139.99123600000001,
          "velocity": 0.7874015748031497
        },
        {
          "duration": 1.3927699499999733,
          "durationTicks": 936,
          "midi": 40,
          "name": "E2",
          "ticks": 94080,
          "time": 139.99123600000001,
          "velocity": 0.7874015748031497
        },
        {
          "duration": 0.3392644749999931,
          "durationTicks": 228,
          "midi": 64,
          "name": "E4",
          "ticks": 94320,
          "time": 140.3483565,
          "velocity": 0.7874015748031497
        },
        {
          "duration": 0.3392644749999931,
          "durationTicks": 228,
          "midi": 67,
          "name": "G4",
          "ticks": 94560,
          "time": 140.705477,
          "velocity": 0.7874015748031497
        },
        {
          "duration": 0.3392644749999931,
          "durationTicks": 228,
          "midi": 69,
          "name": "A4",
          "ticks": 94800,
          "time": 141.0625975,
          "velocity": 0.7874015748031497
        },
        {
          "duration": 0.6785289500000147,
          "durationTicks": 456,
          "midi": 71,
          "name": "B4",
          "ticks": 95040,
          "time": 141.419718,
          "velocity": 0.7874015748031497
        },
        {
          "duration": 1.3927699500000017,
          "durationTicks": 936,
          "midi": 52,
          "name": "E3",
          "ticks": 95040,
          "time": 141.419718,
          "velocity": 0.7874015748031497
        },
        {
          "duration": 1.3927699500000017,
          "durationTicks": 936,
          "midi": 40,
          "name": "E2",
          "ticks": 95040,
          "time": 141.419718,
          "velocity": 0.7874015748031497
        },
        {
          "duration": 0.6785289499999863,
          "durationTicks": 456,
          "midi": 71,
          "name": "B4",
          "ticks": 95520,
          "time": 142.133959,
          "velocity": 0.7874015748031497
        },
        {
          "duration": 1.0535054750000086,
          "durationTicks": 708,
          "midi": 70,
          "name": "A#4",
          "ticks": 96000,
          "time": 142.8482,
          "velocity": 0.7874015748031497
        },
        {
          "duration": 1.3927699500000017,
          "durationTicks": 936,
          "midi": 48,
          "name": "C3",
          "ticks": 96000,
          "time": 142.8482,
          "velocity": 0.7874015748031497
        },
        {
          "duration": 1.3927699500000017,
          "durationTicks": 936,
          "midi": 36,
          "name": "C2",
          "ticks": 96000,
          "time": 142.8482,
          "velocity": 0.7874015748031497
        },
        {
          "duration": 0.3392644749999931,
          "durationTicks": 228,
          "midi": 71,
          "name": "B4",
          "ticks": 96720,
          "time": 143.91956150000001,
          "velocity": 0.7874015748031497
        },
        {
          "duration": 1.3927699500000017,
          "durationTicks": 936,
          "midi": 48,
          "name": "C3",
          "ticks": 96960,
          "time": 144.276682,
          "velocity": 0.7874015748031497
        },
        {
          "duration": 1.3927699500000017,
          "durationTicks": 936,
          "midi": 36,
          "name": "C2",
          "ticks": 96960,
          "time": 144.276682,
          "velocity": 0.7874015748031497
        },
        {
          "duration": 0.6785289499999863,
          "durationTicks": 456,
          "midi": 67,
          "name": "G4",
          "ticks": 97200,
          "time": 144.6338025,
          "velocity": 0.7874015748031497
        },
        {
          "duration": 0.3392644749999931,
          "durationTicks": 228,
          "midi": 64,
          "name": "E4",
          "ticks": 97680,
          "time": 145.34804350000002,
          "velocity": 0.7874015748031497
        },
        {
          "duration": 1.3927699500000017,
          "durationTicks": 936,
          "midi": 43,
          "name": "G2",
          "ticks": 97920,
          "time": 145.705164,
          "velocity": 0.7874015748031497
        },
        {
          "duration": 1.3927699500000017,
          "durationTicks": 936,
          "midi": 55,
          "name": "G3",
          "ticks": 97920,
          "time": 145.705164,
          "velocity": 0.7874015748031497
        },
        {
          "duration": 0.3392644749999931,
          "durationTicks": 228,
          "midi": 64,
          "name": "E4",
          "ticks": 98160,
          "time": 146.0622845,
          "velocity": 0.7874015748031497
        },
        {
          "duration": 0.3392644749999931,
          "durationTicks": 228,
          "midi": 67,
          "name": "G4",
          "ticks": 98400,
          "time": 146.419405,
          "velocity": 0.7874015748031497
        },
        {
          "duration": 0.33926447500002155,
          "durationTicks": 228,
          "midi": 69,
          "name": "A4",
          "ticks": 98640,
          "time": 146.7765255,
          "velocity": 0.7874015748031497
        },
        {
          "duration": 0.6785289499999863,
          "durationTicks": 456,
          "midi": 71,
          "name": "B4",
          "ticks": 98880,
          "time": 147.133646,
          "velocity": 0.7874015748031497
        },
        {
          "duration": 1.3927699500000017,
          "durationTicks": 936,
          "midi": 55,
          "name": "G3",
          "ticks": 98880,
          "time": 147.133646,
          "velocity": 0.7874015748031497
        },
        {
          "duration": 1.3927699500000017,
          "durationTicks": 936,
          "midi": 43,
          "name": "G2",
          "ticks": 98880,
          "time": 147.133646,
          "velocity": 0.7874015748031497
        },
        {
          "duration": 0.6785289499999863,
          "durationTicks": 456,
          "midi": 71,
          "name": "B4",
          "ticks": 99360,
          "time": 147.84788700000001,
          "velocity": 0.7874015748031497
        },
        {
          "duration": 1.0535054750000086,
          "durationTicks": 708,
          "midi": 70,
          "name": "A#4",
          "ticks": 99840,
          "time": 148.562128,
          "velocity": 0.7874015748031497
        },
        {
          "duration": 1.3927699500000017,
          "durationTicks": 936,
          "midi": 50,
          "name": "D3",
          "ticks": 99840,
          "time": 148.562128,
          "velocity": 0.7874015748031497
        },
        {
          "duration": 1.3927699500000017,
          "durationTicks": 936,
          "midi": 38,
          "name": "D2",
          "ticks": 99840,
          "time": 148.562128,
          "velocity": 0.7874015748031497
        },
        {
          "duration": 0.3392644749999931,
          "durationTicks": 228,
          "midi": 71,
          "name": "B4",
          "ticks": 100560,
          "time": 149.6334895,
          "velocity": 0.7874015748031497
        },
        {
          "duration": 0.3392644749999931,
          "durationTicks": 228,
          "midi": 67,
          "name": "G4",
          "ticks": 101040,
          "time": 150.3477305,
          "velocity": 0.7874015748031497
        },
        {
          "duration": 0.6785289500000147,
          "durationTicks": 456,
          "midi": 72,
          "name": "C5",
          "ticks": 101280,
          "time": 150.704851,
          "velocity": 0.7874015748031497
        },
        {
          "duration": 1.3927699500000017,
          "durationTicks": 936,
          "midi": 71,
          "name": "B4",
          "ticks": 101760,
          "time": 151.419092,
          "velocity": 0.7874015748031497
        },
        {
          "duration": 0.3392644749999931,
          "durationTicks": 228,
          "midi": 52,
          "name": "E3",
          "ticks": 101760,
          "time": 151.419092,
          "velocity": 0.7874015748031497
        },
        {
          "duration": 0.3392644749999931,
          "durationTicks": 228,
          "midi": 40,
          "name": "E2",
          "ticks": 101760,
          "time": 151.419092,
          "velocity": 0.7874015748031497
        },
        {
          "duration": 0.3392644749999931,
          "durationTicks": 228,
          "midi": 52,
          "name": "E3",
          "ticks": 102000,
          "time": 151.7762125,
          "velocity": 0.7874015748031497
        },
        {
          "duration": 0.3392644749999931,
          "durationTicks": 228,
          "midi": 40,
          "name": "E2",
          "ticks": 102000,
          "time": 151.7762125,
          "velocity": 0.7874015748031497
        },
        {
          "duration": 0.3392644749999931,
          "durationTicks": 228,
          "midi": 52,
          "name": "E3",
          "ticks": 102240,
          "time": 152.133333,
          "velocity": 0.7874015748031497
        },
        {
          "duration": 0.3392644749999931,
          "durationTicks": 228,
          "midi": 40,
          "name": "E2",
          "ticks": 102240,
          "time": 152.133333,
          "velocity": 0.7874015748031497
        },
        {
          "duration": 0.3392644749999931,
          "durationTicks": 228,
          "midi": 52,
          "name": "E3",
          "ticks": 102480,
          "time": 152.4904535,
          "velocity": 0.7874015748031497
        },
        {
          "duration": 0.3392644749999931,
          "durationTicks": 228,
          "midi": 40,
          "name": "E2",
          "ticks": 102480,
          "time": 152.4904535,
          "velocity": 0.7874015748031497
        },
        {
          "duration": 0.3392644749999931,
          "durationTicks": 228,
          "midi": 52,
          "name": "E3",
          "ticks": 102720,
          "time": 152.847574,
          "velocity": 0.7874015748031497
        },
        {
          "duration": 0.3392644749999931,
          "durationTicks": 228,
          "midi": 40,
          "name": "E2",
          "ticks": 102720,
          "time": 152.847574,
          "velocity": 0.7874015748031497
        },
        {
          "duration": 0.3392644749999931,
          "durationTicks": 228,
          "midi": 67,
          "name": "G4",
          "ticks": 102960,
          "time": 153.20469450000002,
          "velocity": 0.7874015748031497
        },
        {
          "duration": 0.3392644749999931,
          "durationTicks": 228,
          "midi": 52,
          "name": "E3",
          "ticks": 102960,
          "time": 153.20469450000002,
          "velocity": 0.7874015748031497
        },
        {
          "duration": 0.3392644749999931,
          "durationTicks": 228,
          "midi": 40,
          "name": "E2",
          "ticks": 102960,
          "time": 153.20469450000002,
          "velocity": 0.7874015748031497
        },
        {
          "duration": 0.6785289499999863,
          "durationTicks": 456,
          "midi": 72,
          "name": "C5",
          "ticks": 103200,
          "time": 153.561815,
          "velocity": 0.7874015748031497
        },
        {
          "duration": 0.3392644749999931,
          "durationTicks": 228,
          "midi": 52,
          "name": "E3",
          "ticks": 103200,
          "time": 153.561815,
          "velocity": 0.7874015748031497
        },
        {
          "duration": 0.3392644749999931,
          "durationTicks": 228,
          "midi": 40,
          "name": "E2",
          "ticks": 103200,
          "time": 153.561815,
          "velocity": 0.7874015748031497
        },
        {
          "duration": 0.3392644749999931,
          "durationTicks": 228,
          "midi": 52,
          "name": "E3",
          "ticks": 103440,
          "time": 153.9189355,
          "velocity": 0.7874015748031497
        },
        {
          "duration": 0.3392644749999931,
          "durationTicks": 228,
          "midi": 40,
          "name": "E2",
          "ticks": 103440,
          "time": 153.9189355,
          "velocity": 0.7874015748031497
        },
        {
          "duration": 0.6785289499999863,
          "durationTicks": 456,
          "midi": 71,
          "name": "B4",
          "ticks": 103680,
          "time": 154.276056,
          "velocity": 0.7874015748031497
        },
        {
          "duration": 0.3392644749999931,
          "durationTicks": 228,
          "midi": 48,
          "name": "C3",
          "ticks": 103680,
          "time": 154.276056,
          "velocity": 0.7874015748031497
        },
        {
          "duration": 0.3392644749999931,
          "durationTicks": 228,
          "midi": 36,
          "name": "C2",
          "ticks": 103680,
          "time": 154.276056,
          "velocity": 0.7874015748031497
        },
        {
          "duration": 0.33926447500002155,
          "durationTicks": 228,
          "midi": 48,
          "name": "C3",
          "ticks": 103920,
          "time": 154.6331765,
          "velocity": 0.7874015748031497
        },
        {
          "duration": 0.33926447500002155,
          "durationTicks": 228,
          "midi": 36,
          "name": "C2",
          "ticks": 103920,
          "time": 154.6331765,
          "velocity": 0.7874015748031497
        },
        {
          "duration": 0.3392644749999931,
          "durationTicks": 228,
          "midi": 69,
          "name": "A4",
          "ticks": 104160,
          "time": 154.990297,
          "velocity": 0.7874015748031497
        },
        {
          "duration": 0.3392644749999931,
          "durationTicks": 228,
          "midi": 48,
          "name": "C3",
          "ticks": 104160,
          "time": 154.990297,
          "velocity": 0.7874015748031497
        },
        {
          "duration": 0.3392644749999931,
          "durationTicks": 228,
          "midi": 36,
          "name": "C2",
          "ticks": 104160,
          "time": 154.990297,
          "velocity": 0.7874015748031497
        },
        {
          "duration": 0.3392644749999931,
          "durationTicks": 228,
          "midi": 69,
          "name": "A4",
          "ticks": 104400,
          "time": 155.3474175,
          "velocity": 0.7874015748031497
        },
        {
          "duration": 0.3392644749999931,
          "durationTicks": 228,
          "midi": 48,
          "name": "C3",
          "ticks": 104400,
          "time": 155.3474175,
          "velocity": 0.7874015748031497
        },
        {
          "duration": 0.3392644749999931,
          "durationTicks": 228,
          "midi": 36,
          "name": "C2",
          "ticks": 104400,
          "time": 155.3474175,
          "velocity": 0.7874015748031497
        },
        {
          "duration": 0.3392644749999931,
          "durationTicks": 228,
          "midi": 48,
          "name": "C3",
          "ticks": 104640,
          "time": 155.704538,
          "velocity": 0.7874015748031497
        },
        {
          "duration": 0.3392644749999931,
          "durationTicks": 228,
          "midi": 36,
          "name": "C2",
          "ticks": 104640,
          "time": 155.704538,
          "velocity": 0.7874015748031497
        },
        {
          "duration": 0.3392644749999931,
          "durationTicks": 228,
          "midi": 62,
          "name": "D4",
          "ticks": 104880,
          "time": 156.0616585,
          "velocity": 0.7874015748031497
        },
        {
          "duration": 0.3392644749999931,
          "durationTicks": 228,
          "midi": 48,
          "name": "C3",
          "ticks": 104880,
          "time": 156.0616585,
          "velocity": 0.7874015748031497
        },
        {
          "duration": 0.3392644749999931,
          "durationTicks": 228,
          "midi": 36,
          "name": "C2",
          "ticks": 104880,
          "time": 156.0616585,
          "velocity": 0.7874015748031497
        },
        {
          "duration": 0.6785289499999863,
          "durationTicks": 456,
          "midi": 72,
          "name": "C5",
          "ticks": 105120,
          "time": 156.418779,
          "velocity": 0.7874015748031497
        },
        {
          "duration": 0.3392644749999931,
          "durationTicks": 228,
          "midi": 48,
          "name": "C3",
          "ticks": 105120,
          "time": 156.418779,
          "velocity": 0.7874015748031497
        },
        {
          "duration": 0.3392644749999931,
          "durationTicks": 228,
          "midi": 36,
          "name": "C2",
          "ticks": 105120,
          "time": 156.418779,
          "velocity": 0.7874015748031497
        },
        {
          "duration": 0.3392644749999931,
          "durationTicks": 228,
          "midi": 48,
          "name": "C3",
          "ticks": 105360,
          "time": 156.7758995,
          "velocity": 0.7874015748031497
        },
        {
          "duration": 0.3392644749999931,
          "durationTicks": 228,
          "midi": 36,
          "name": "C2",
          "ticks": 105360,
          "time": 156.7758995,
          "velocity": 0.7874015748031497
        },
        {
          "duration": 1.3927699499999733,
          "durationTicks": 936,
          "midi": 71,
          "name": "B4",
          "ticks": 105600,
          "time": 157.13302000000002,
          "velocity": 0.7874015748031497
        },
        {
          "duration": 0.3392644749999931,
          "durationTicks": 228,
          "midi": 55,
          "name": "G3",
          "ticks": 105600,
          "time": 157.13302000000002,
          "velocity": 0.7874015748031497
        },
        {
          "duration": 0.3392644749999931,
          "durationTicks": 228,
          "midi": 43,
          "name": "G2",
          "ticks": 105600,
          "time": 157.13302000000002,
          "velocity": 0.7874015748031497
        },
        {
          "duration": 0.3392644749999931,
          "durationTicks": 228,
          "midi": 55,
          "name": "G3",
          "ticks": 105840,
          "time": 157.4901405,
          "velocity": 0.7874015748031497
        },
        {
          "duration": 0.3392644749999931,
          "durationTicks": 228,
          "midi": 43,
          "name": "G2",
          "ticks": 105840,
          "time": 157.4901405,
          "velocity": 0.7874015748031497
        },
        {
          "duration": 0.3392644749999931,
          "durationTicks": 228,
          "midi": 55,
          "name": "G3",
          "ticks": 106080,
          "time": 157.847261,
          "velocity": 0.7874015748031497
        },
        {
          "duration": 0.3392644749999931,
          "durationTicks": 228,
          "midi": 43,
          "name": "G2",
          "ticks": 106080,
          "time": 157.847261,
          "velocity": 0.7874015748031497
        },
        {
          "duration": 0.3392644749999931,
          "durationTicks": 228,
          "midi": 55,
          "name": "G3",
          "ticks": 106320,
          "time": 158.2043815,
          "velocity": 0.7874015748031497
        },
        {
          "duration": 0.3392644749999931,
          "durationTicks": 228,
          "midi": 43,
          "name": "G2",
          "ticks": 106320,
          "time": 158.2043815,
          "velocity": 0.7874015748031497
        },
        {
          "duration": 0.33926447500002155,
          "durationTicks": 228,
          "midi": 55,
          "name": "G3",
          "ticks": 106560,
          "time": 158.561502,
          "velocity": 0.7874015748031497
        },
        {
          "duration": 0.33926447500002155,
          "durationTicks": 228,
          "midi": 43,
          "name": "G2",
          "ticks": 106560,
          "time": 158.561502,
          "velocity": 0.7874015748031497
        },
        {
          "duration": 0.3392644749999931,
          "durationTicks": 228,
          "midi": 67,
          "name": "G4",
          "ticks": 106800,
          "time": 158.9186225,
          "velocity": 0.7874015748031497
        },
        {
          "duration": 0.3392644749999931,
          "durationTicks": 228,
          "midi": 55,
          "name": "G3",
          "ticks": 106800,
          "time": 158.9186225,
          "velocity": 0.7874015748031497
        },
        {
          "duration": 0.3392644749999931,
          "durationTicks": 228,
          "midi": 43,
          "name": "G2",
          "ticks": 106800,
          "time": 158.9186225,
          "velocity": 0.7874015748031497
        },
        {
          "duration": 0.6785289499999863,
          "durationTicks": 456,
          "midi": 72,
          "name": "C5",
          "ticks": 107040,
          "time": 159.275743,
          "velocity": 0.7874015748031497
        },
        {
          "duration": 0.3392644749999931,
          "durationTicks": 228,
          "midi": 55,
          "name": "G3",
          "ticks": 107040,
          "time": 159.275743,
          "velocity": 0.7874015748031497
        },
        {
          "duration": 0.3392644749999931,
          "durationTicks": 228,
          "midi": 43,
          "name": "G2",
          "ticks": 107040,
          "time": 159.275743,
          "velocity": 0.7874015748031497
        },
        {
          "duration": 0.3392644749999931,
          "durationTicks": 228,
          "midi": 55,
          "name": "G3",
          "ticks": 107280,
          "time": 159.6328635,
          "velocity": 0.7874015748031497
        },
        {
          "duration": 0.3392644749999931,
          "durationTicks": 228,
          "midi": 43,
          "name": "G2",
          "ticks": 107280,
          "time": 159.6328635,
          "velocity": 0.7874015748031497
        },
        {
          "duration": 0.6785289500000147,
          "durationTicks": 456,
          "midi": 71,
          "name": "B4",
          "ticks": 107520,
          "time": 159.989984,
          "velocity": 0.7874015748031497
        },
        {
          "duration": 0.3392644749999931,
          "durationTicks": 228,
          "midi": 50,
          "name": "D3",
          "ticks": 107520,
          "time": 159.989984,
          "velocity": 0.7874015748031497
        },
        {
          "duration": 0.3392644749999931,
          "durationTicks": 228,
          "midi": 38,
          "name": "D2",
          "ticks": 107520,
          "time": 159.989984,
          "velocity": 0.7874015748031497
        },
        {
          "duration": 0.3392644749999931,
          "durationTicks": 228,
          "midi": 50,
          "name": "D3",
          "ticks": 107760,
          "time": 160.3471045,
          "velocity": 0.7874015748031497
        },
        {
          "duration": 0.3392644749999931,
          "durationTicks": 228,
          "midi": 38,
          "name": "D2",
          "ticks": 107760,
          "time": 160.3471045,
          "velocity": 0.7874015748031497
        },
        {
          "duration": 0.3392644749999931,
          "durationTicks": 228,
          "midi": 69,
          "name": "A4",
          "ticks": 108000,
          "time": 160.704225,
          "velocity": 0.7874015748031497
        },
        {
          "duration": 0.3392644749999931,
          "durationTicks": 228,
          "midi": 50,
          "name": "D3",
          "ticks": 108000,
          "time": 160.704225,
          "velocity": 0.7874015748031497
        },
        {
          "duration": 0.3392644749999931,
          "durationTicks": 228,
          "midi": 38,
          "name": "D2",
          "ticks": 108000,
          "time": 160.704225,
          "velocity": 0.7874015748031497
        },
        {
          "duration": 0.3392644749999931,
          "durationTicks": 228,
          "midi": 69,
          "name": "A4",
          "ticks": 108240,
          "time": 161.06134550000002,
          "velocity": 0.7874015748031497
        },
        {
          "duration": 0.3392644749999931,
          "durationTicks": 228,
          "midi": 38,
          "name": "D2",
          "ticks": 108240,
          "time": 161.06134550000002,
          "velocity": 0.7874015748031497
        },
        {
          "duration": 0.3392644749999931,
          "durationTicks": 228,
          "midi": 50,
          "name": "D3",
          "ticks": 108240,
          "time": 161.06134550000002,
          "velocity": 0.7874015748031497
        },
        {
          "duration": 0.3392644749999931,
          "durationTicks": 228,
          "midi": 50,
          "name": "D3",
          "ticks": 108480,
          "time": 161.418466,
          "velocity": 0.7874015748031497
        },
        {
          "duration": 0.3392644749999931,
          "durationTicks": 228,
          "midi": 38,
          "name": "D2",
          "ticks": 108480,
          "time": 161.418466,
          "velocity": 0.7874015748031497
        },
        {
          "duration": 0.3392644749999931,
          "durationTicks": 228,
          "midi": 71,
          "name": "B4",
          "ticks": 108720,
          "time": 161.7755865,
          "velocity": 0.7874015748031497
        },
        {
          "duration": 0.3392644749999931,
          "durationTicks": 228,
          "midi": 50,
          "name": "D3",
          "ticks": 108720,
          "time": 161.7755865,
          "velocity": 0.7874015748031497
        },
        {
          "duration": 0.3392644749999931,
          "durationTicks": 228,
          "midi": 38,
          "name": "D2",
          "ticks": 108720,
          "time": 161.7755865,
          "velocity": 0.7874015748031497
        },
        {
          "duration": 0.3392644749999931,
          "durationTicks": 228,
          "midi": 66,
          "name": "F#4",
          "ticks": 108960,
          "time": 162.132707,
          "velocity": 0.7874015748031497
        },
        {
          "duration": 0.3392644749999931,
          "durationTicks": 228,
          "midi": 50,
          "name": "D3",
          "ticks": 108960,
          "time": 162.132707,
          "velocity": 0.7874015748031497
        },
        {
          "duration": 0.3392644749999931,
          "durationTicks": 228,
          "midi": 38,
          "name": "D2",
          "ticks": 108960,
          "time": 162.132707,
          "velocity": 0.7874015748031497
        },
        {
          "duration": 1.0535054750000086,
          "durationTicks": 708,
          "midi": 67,
          "name": "G4",
          "ticks": 109200,
          "time": 162.4898275,
          "velocity": 0.7874015748031497
        },
        {
          "duration": 0.33926447500002155,
          "durationTicks": 228,
          "midi": 38,
          "name": "D2",
          "ticks": 109200,
          "time": 162.4898275,
          "velocity": 0.7874015748031497
        },
        {
          "duration": 0.33926447500002155,
          "durationTicks": 228,
          "midi": 50,
          "name": "D3",
          "ticks": 109200,
          "time": 162.4898275,
          "velocity": 0.7874015748031497
        },
        {
          "duration": 0.3392644749999931,
          "durationTicks": 228,
          "midi": 52,
          "name": "E3",
          "ticks": 109440,
          "time": 162.846948,
          "velocity": 0.7874015748031497
        },
        {
          "duration": 0.3392644749999931,
          "durationTicks": 228,
          "midi": 40,
          "name": "E2",
          "ticks": 109440,
          "time": 162.846948,
          "velocity": 0.7874015748031497
        },
        {
          "duration": 0.3392644749999931,
          "durationTicks": 228,
          "midi": 52,
          "name": "E3",
          "ticks": 109680,
          "time": 163.2040685,
          "velocity": 0.7874015748031497
        },
        {
          "duration": 0.3392644749999931,
          "durationTicks": 228,
          "midi": 40,
          "name": "E2",
          "ticks": 109680,
          "time": 163.2040685,
          "velocity": 0.7874015748031497
        },
        {
          "duration": 0.3392644749999931,
          "durationTicks": 228,
          "midi": 52,
          "name": "E3",
          "ticks": 109920,
          "time": 163.561189,
          "velocity": 0.7874015748031497
        },
        {
          "duration": 0.3392644749999931,
          "durationTicks": 228,
          "midi": 40,
          "name": "E2",
          "ticks": 109920,
          "time": 163.561189,
          "velocity": 0.7874015748031497
        },
        {
          "duration": 0.3392644749999931,
          "durationTicks": 228,
          "midi": 52,
          "name": "E3",
          "ticks": 110160,
          "time": 163.9183095,
          "velocity": 0.7874015748031497
        },
        {
          "duration": 0.3392644749999931,
          "durationTicks": 228,
          "midi": 40,
          "name": "E2",
          "ticks": 110160,
          "time": 163.9183095,
          "velocity": 0.7874015748031497
        },
        {
          "duration": 0.3392644749999931,
          "durationTicks": 228,
          "midi": 52,
          "name": "E3",
          "ticks": 110400,
          "time": 164.27543,
          "velocity": 0.7874015748031497
        },
        {
          "duration": 0.3392644749999931,
          "durationTicks": 228,
          "midi": 40,
          "name": "E2",
          "ticks": 110400,
          "time": 164.27543,
          "velocity": 0.7874015748031497
        },
        {
          "duration": 0.3392644749999931,
          "durationTicks": 228,
          "midi": 52,
          "name": "E3",
          "ticks": 110640,
          "time": 164.6325505,
          "velocity": 0.7874015748031497
        },
        {
          "duration": 0.3392644749999931,
          "durationTicks": 228,
          "midi": 40,
          "name": "E2",
          "ticks": 110640,
          "time": 164.6325505,
          "velocity": 0.7874015748031497
        },
        {
          "duration": 0.3392644749999931,
          "durationTicks": 228,
          "midi": 52,
          "name": "E3",
          "ticks": 110880,
          "time": 164.98967100000002,
          "velocity": 0.7874015748031497
        },
        {
          "duration": 0.3392644749999931,
          "durationTicks": 228,
          "midi": 40,
          "name": "E2",
          "ticks": 110880,
          "time": 164.98967100000002,
          "velocity": 0.7874015748031497
        },
        {
          "duration": 0.3392644749999931,
          "durationTicks": 228,
          "midi": 52,
          "name": "E3",
          "ticks": 111120,
          "time": 165.3467915,
          "velocity": 0.7874015748031497
        },
        {
          "duration": 0.3392644749999931,
          "durationTicks": 228,
          "midi": 40,
          "name": "E2",
          "ticks": 111120,
          "time": 165.3467915,
          "velocity": 0.7874015748031497
        },
        {
          "duration": 0.3392644749999931,
          "durationTicks": 228,
          "midi": 48,
          "name": "C3",
          "ticks": 111360,
          "time": 165.703912,
          "velocity": 0.7874015748031497
        },
        {
          "duration": 0.3392644749999931,
          "durationTicks": 228,
          "midi": 36,
          "name": "C2",
          "ticks": 111360,
          "time": 165.703912,
          "velocity": 0.7874015748031497
        },
        {
          "duration": 0.3392644749999931,
          "durationTicks": 228,
          "midi": 48,
          "name": "C3",
          "ticks": 111600,
          "time": 166.0610325,
          "velocity": 0.7874015748031497
        },
        {
          "duration": 0.3392644749999931,
          "durationTicks": 228,
          "midi": 36,
          "name": "C2",
          "ticks": 111600,
          "time": 166.0610325,
          "velocity": 0.7874015748031497
        },
        {
          "duration": 0.33926447500002155,
          "durationTicks": 228,
          "midi": 48,
          "name": "C3",
          "ticks": 111840,
          "time": 166.418153,
          "velocity": 0.7874015748031497
        },
        {
          "duration": 0.33926447500002155,
          "durationTicks": 228,
          "midi": 36,
          "name": "C2",
          "ticks": 111840,
          "time": 166.418153,
          "velocity": 0.7874015748031497
        },
        {
          "duration": 0.3392644749999931,
          "durationTicks": 228,
          "midi": 48,
          "name": "C3",
          "ticks": 112080,
          "time": 166.7752735,
          "velocity": 0.7874015748031497
        },
        {
          "duration": 0.3392644749999931,
          "durationTicks": 228,
          "midi": 36,
          "name": "C2",
          "ticks": 112080,
          "time": 166.7752735,
          "velocity": 0.7874015748031497
        },
        {
          "duration": 0.3392644749999931,
          "durationTicks": 228,
          "midi": 48,
          "name": "C3",
          "ticks": 112320,
          "time": 167.132394,
          "velocity": 0.7874015748031497
        },
        {
          "duration": 0.3392644749999931,
          "durationTicks": 228,
          "midi": 36,
          "name": "C2",
          "ticks": 112320,
          "time": 167.132394,
          "velocity": 0.7874015748031497
        },
        {
          "duration": 0.3392644749999931,
          "durationTicks": 228,
          "midi": 48,
          "name": "C3",
          "ticks": 112560,
          "time": 167.4895145,
          "velocity": 0.7874015748031497
        },
        {
          "duration": 0.3392644749999931,
          "durationTicks": 228,
          "midi": 36,
          "name": "C2",
          "ticks": 112560,
          "time": 167.4895145,
          "velocity": 0.7874015748031497
        },
        {
          "duration": 0.33926447500002155,
          "durationTicks": 228,
          "midi": 48,
          "name": "C3",
          "ticks": 112800,
          "time": 167.846635,
          "velocity": 0.7874015748031497
        },
        {
          "duration": 0.33926447500002155,
          "durationTicks": 228,
          "midi": 36,
          "name": "C2",
          "ticks": 112800,
          "time": 167.846635,
          "velocity": 0.7874015748031497
        },
        {
          "duration": 0.3392644749999931,
          "durationTicks": 228,
          "midi": 48,
          "name": "C3",
          "ticks": 113040,
          "time": 168.2037555,
          "velocity": 0.7874015748031497
        },
        {
          "duration": 0.3392644749999931,
          "durationTicks": 228,
          "midi": 36,
          "name": "C2",
          "ticks": 113040,
          "time": 168.2037555,
          "velocity": 0.7874015748031497
        },
        {
          "duration": 0.3392644749999931,
          "durationTicks": 228,
          "midi": 55,
          "name": "G3",
          "ticks": 113280,
          "time": 168.560876,
          "velocity": 0.7874015748031497
        },
        {
          "duration": 0.3392644749999931,
          "durationTicks": 228,
          "midi": 43,
          "name": "G2",
          "ticks": 113280,
          "time": 168.560876,
          "velocity": 0.7874015748031497
        },
        {
          "duration": 1.0535054749999802,
          "durationTicks": 708,
          "midi": 67,
          "name": "G4",
          "ticks": 113280,
          "time": 168.560876,
          "velocity": 0.7874015748031497
        },
        {
          "duration": 0.3392644749999931,
          "durationTicks": 228,
          "midi": 55,
          "name": "G3",
          "ticks": 113520,
          "time": 168.91799650000002,
          "velocity": 0.7874015748031497
        },
        {
          "duration": 0.3392644749999931,
          "durationTicks": 228,
          "midi": 43,
          "name": "G2",
          "ticks": 113520,
          "time": 168.91799650000002,
          "velocity": 0.7874015748031497
        },
        {
          "duration": 0.3392644749999931,
          "durationTicks": 228,
          "midi": 55,
          "name": "G3",
          "ticks": 113760,
          "time": 169.275117,
          "velocity": 0.7874015748031497
        },
        {
          "duration": 0.3392644749999931,
          "durationTicks": 228,
          "midi": 43,
          "name": "G2",
          "ticks": 113760,
          "time": 169.275117,
          "velocity": 0.7874015748031497
        },
        {
          "duration": 0.3392644749999931,
          "durationTicks": 228,
          "midi": 55,
          "name": "G3",
          "ticks": 114000,
          "time": 169.6322375,
          "velocity": 0.7874015748031497
        },
        {
          "duration": 0.3392644749999931,
          "durationTicks": 228,
          "midi": 43,
          "name": "G2",
          "ticks": 114000,
          "time": 169.6322375,
          "velocity": 0.7874015748031497
        },
        {
          "duration": 0.3392644749999931,
          "durationTicks": 228,
          "midi": 69,
          "name": "A4",
          "ticks": 114000,
          "time": 169.6322375,
          "velocity": 0.7874015748031497
        },
        {
          "duration": 0.3392644749999931,
          "durationTicks": 228,
          "midi": 55,
          "name": "G3",
          "ticks": 114240,
          "time": 169.989358,
          "velocity": 0.7874015748031497
        },
        {
          "duration": 0.3392644749999931,
          "durationTicks": 228,
          "midi": 43,
          "name": "G2",
          "ticks": 114240,
          "time": 169.989358,
          "velocity": 0.7874015748031497
        },
        {
          "duration": 0.3392644749999931,
          "durationTicks": 228,
          "midi": 55,
          "name": "G3",
          "ticks": 114480,
          "time": 170.34647850000002,
          "velocity": 0.7874015748031497
        },
        {
          "duration": 0.3392644749999931,
          "durationTicks": 228,
          "midi": 43,
          "name": "G2",
          "ticks": 114480,
          "time": 170.34647850000002,
          "velocity": 0.7874015748031497
        },
        {
          "duration": 0.3392644749999931,
          "durationTicks": 228,
          "midi": 55,
          "name": "G3",
          "ticks": 114720,
          "time": 170.703599,
          "velocity": 0.7874015748031497
        },
        {
          "duration": 0.3392644749999931,
          "durationTicks": 228,
          "midi": 43,
          "name": "G2",
          "ticks": 114720,
          "time": 170.703599,
          "velocity": 0.7874015748031497
        },
        {
          "duration": 0.6785289499999863,
          "durationTicks": 456,
          "midi": 71,
          "name": "B4",
          "ticks": 114720,
          "time": 170.703599,
          "velocity": 0.7874015748031497
        },
        {
          "duration": 0.3392644749999931,
          "durationTicks": 228,
          "midi": 55,
          "name": "G3",
          "ticks": 114960,
          "time": 171.0607195,
          "velocity": 0.7874015748031497
        },
        {
          "duration": 0.3392644749999931,
          "durationTicks": 228,
          "midi": 43,
          "name": "G2",
          "ticks": 114960,
          "time": 171.0607195,
          "velocity": 0.7874015748031497
        },
        {
          "duration": 0.3392644749999931,
          "durationTicks": 228,
          "midi": 50,
          "name": "D3",
          "ticks": 115200,
          "time": 171.41784,
          "velocity": 0.7874015748031497
        },
        {
          "duration": 0.3392644749999931,
          "durationTicks": 228,
          "midi": 38,
          "name": "D2",
          "ticks": 115200,
          "time": 171.41784,
          "velocity": 0.7874015748031497
        },
        {
          "duration": 1.0535054749999802,
          "durationTicks": 708,
          "midi": 67,
          "name": "G4",
          "ticks": 115200,
          "time": 171.41784,
          "velocity": 0.7874015748031497
        },
        {
          "duration": 0.33926447500002155,
          "durationTicks": 228,
          "midi": 50,
          "name": "D3",
          "ticks": 115440,
          "time": 171.7749605,
          "velocity": 0.7874015748031497
        },
        {
          "duration": 0.33926447500002155,
          "durationTicks": 228,
          "midi": 38,
          "name": "D2",
          "ticks": 115440,
          "time": 171.7749605,
          "velocity": 0.7874015748031497
        },
        {
          "duration": 0.3392644749999931,
          "durationTicks": 228,
          "midi": 50,
          "name": "D3",
          "ticks": 115680,
          "time": 172.132081,
          "velocity": 0.7874015748031497
        },
        {
          "duration": 0.3392644749999931,
          "durationTicks": 228,
          "midi": 38,
          "name": "D2",
          "ticks": 115680,
          "time": 172.132081,
          "velocity": 0.7874015748031497
        },
        {
          "duration": 0.3392644749999931,
          "durationTicks": 228,
          "midi": 38,
          "name": "D2",
          "ticks": 115920,
          "time": 172.4892015,
          "velocity": 0.7874015748031497
        },
        {
          "duration": 0.3392644749999931,
          "durationTicks": 228,
          "midi": 50,
          "name": "D3",
          "ticks": 115920,
          "time": 172.4892015,
          "velocity": 0.7874015748031497
        },
        {
          "duration": 0.3392644749999931,
          "durationTicks": 228,
          "midi": 66,
          "name": "F#4",
          "ticks": 115920,
          "time": 172.4892015,
          "velocity": 0.7874015748031497
        },
        {
          "duration": 0.3392644749999931,
          "durationTicks": 228,
          "midi": 50,
          "name": "D3",
          "ticks": 116160,
          "time": 172.84632200000001,
          "velocity": 0.7874015748031497
        },
        {
          "duration": 0.3392644749999931,
          "durationTicks": 228,
          "midi": 38,
          "name": "D2",
          "ticks": 116160,
          "time": 172.84632200000001,
          "velocity": 0.7874015748031497
        },
        {
          "duration": 0.3392644749999931,
          "durationTicks": 228,
          "midi": 50,
          "name": "D3",
          "ticks": 116400,
          "time": 173.2034425,
          "velocity": 0.7874015748031497
        },
        {
          "duration": 0.3392644749999931,
          "durationTicks": 228,
          "midi": 38,
          "name": "D2",
          "ticks": 116400,
          "time": 173.2034425,
          "velocity": 0.7874015748031497
        },
        {
          "duration": 0.3392644749999931,
          "durationTicks": 228,
          "midi": 50,
          "name": "D3",
          "ticks": 116640,
          "time": 173.560563,
          "velocity": 0.7874015748031497
        },
        {
          "duration": 0.3392644749999931,
          "durationTicks": 228,
          "midi": 38,
          "name": "D2",
          "ticks": 116640,
          "time": 173.560563,
          "velocity": 0.7874015748031497
        },
        {
          "duration": 0.6785289499999863,
          "durationTicks": 456,
          "midi": 69,
          "name": "A4",
          "ticks": 116640,
          "time": 173.560563,
          "velocity": 0.7874015748031497
        },
        {
          "duration": 0.3392644749999931,
          "durationTicks": 228,
          "midi": 38,
          "name": "D2",
          "ticks": 116880,
          "time": 173.9176835,
          "velocity": 0.7874015748031497
        },
        {
          "duration": 0.3392644749999931,
          "durationTicks": 228,
          "midi": 50,
          "name": "D3",
          "ticks": 116880,
          "time": 173.9176835,
          "velocity": 0.7874015748031497
        },
        {
          "duration": 0.3392644749999931,
          "durationTicks": 228,
          "midi": 52,
          "name": "E3",
          "ticks": 117120,
          "time": 174.27480400000002,
          "velocity": 0.7874015748031497
        },
        {
          "duration": 0.3392644749999931,
          "durationTicks": 228,
          "midi": 40,
          "name": "E2",
          "ticks": 117120,
          "time": 174.27480400000002,
          "velocity": 0.7874015748031497
        },
        {
          "duration": 1.0535054749999802,
          "durationTicks": 708,
          "midi": 64,
          "name": "E4",
          "ticks": 117120,
          "time": 174.27480400000002,
          "velocity": 0.7874015748031497
        },
        {
          "duration": 1.0535054749999802,
          "durationTicks": 708,
          "midi": 76,
          "name": "E5",
          "ticks": 117120,
          "time": 174.27480400000002,
          "velocity": 0.7874015748031497
        },
        {
          "duration": 0.3392644749999931,
          "durationTicks": 228,
          "midi": 52,
          "name": "E3",
          "ticks": 117360,
          "time": 174.6319245,
          "velocity": 0.7874015748031497
        },
        {
          "duration": 0.3392644749999931,
          "durationTicks": 228,
          "midi": 40,
          "name": "E2",
          "ticks": 117360,
          "time": 174.6319245,
          "velocity": 0.7874015748031497
        },
        {
          "duration": 0.3392644749999931,
          "durationTicks": 228,
          "midi": 52,
          "name": "E3",
          "ticks": 117600,
          "time": 174.989045,
          "velocity": 0.7874015748031497
        },
        {
          "duration": 0.3392644749999931,
          "durationTicks": 228,
          "midi": 40,
          "name": "E2",
          "ticks": 117600,
          "time": 174.989045,
          "velocity": 0.7874015748031497
        },
        {
          "duration": 0.3392644749999931,
          "durationTicks": 228,
          "midi": 52,
          "name": "E3",
          "ticks": 117840,
          "time": 175.3461655,
          "velocity": 0.7874015748031497
        },
        {
          "duration": 0.3392644749999931,
          "durationTicks": 228,
          "midi": 40,
          "name": "E2",
          "ticks": 117840,
          "time": 175.3461655,
          "velocity": 0.7874015748031497
        },
        {
          "duration": 0.3392644749999931,
          "durationTicks": 228,
          "midi": 64,
          "name": "E4",
          "ticks": 117840,
          "time": 175.3461655,
          "velocity": 0.7874015748031497
        },
        {
          "duration": 0.3392644749999931,
          "durationTicks": 228,
          "midi": 76,
          "name": "E5",
          "ticks": 117840,
          "time": 175.3461655,
          "velocity": 0.7874015748031497
        },
        {
          "duration": 0.33926447500002155,
          "durationTicks": 228,
          "midi": 52,
          "name": "E3",
          "ticks": 118080,
          "time": 175.703286,
          "velocity": 0.7874015748031497
        },
        {
          "duration": 0.33926447500002155,
          "durationTicks": 228,
          "midi": 40,
          "name": "E2",
          "ticks": 118080,
          "time": 175.703286,
          "velocity": 0.7874015748031497
        },
        {
          "duration": 0.3392644749999931,
          "durationTicks": 228,
          "midi": 52,
          "name": "E3",
          "ticks": 118320,
          "time": 176.0604065,
          "velocity": 0.7874015748031497
        },
        {
          "duration": 0.3392644749999931,
          "durationTicks": 228,
          "midi": 40,
          "name": "E2",
          "ticks": 118320,
          "time": 176.0604065,
          "velocity": 0.7874015748031497
        },
        {
          "duration": 0.3392644749999931,
          "durationTicks": 228,
          "midi": 52,
          "name": "E3",
          "ticks": 118560,
          "time": 176.417527,
          "velocity": 0.7874015748031497
        },
        {
          "duration": 0.3392644749999931,
          "durationTicks": 228,
          "midi": 40,
          "name": "E2",
          "ticks": 118560,
          "time": 176.417527,
          "velocity": 0.7874015748031497
        },
        {
          "duration": 0.6785289499999863,
          "durationTicks": 456,
          "midi": 64,
          "name": "E4",
          "ticks": 118560,
          "time": 176.417527,
          "velocity": 0.7874015748031497
        },
        {
          "duration": 0.6785289499999863,
          "durationTicks": 456,
          "midi": 76,
          "name": "E5",
          "ticks": 118560,
          "time": 176.417527,
          "velocity": 0.7874015748031497
        },
        {
          "duration": 0.3392644749999931,
          "durationTicks": 228,
          "midi": 52,
          "name": "E3",
          "ticks": 118800,
          "time": 176.77464750000001,
          "velocity": 0.7874015748031497
        },
        {
          "duration": 0.3392644749999931,
          "durationTicks": 228,
          "midi": 40,
          "name": "E2",
          "ticks": 118800,
          "time": 176.77464750000001,
          "velocity": 0.7874015748031497
        },
        {
          "duration": 0.3392644749999931,
          "durationTicks": 228,
          "midi": 59,
          "name": "B3",
          "ticks": 119040,
          "time": 177.131768,
          "velocity": 0.7874015748031497
        },
        {
          "duration": 0.3392644749999931,
          "durationTicks": 228,
          "midi": 47,
          "name": "B2",
          "ticks": 119040,
          "time": 177.131768,
          "velocity": 0.7874015748031497
        },
        {
          "duration": 1.0535054750000086,
          "durationTicks": 708,
          "midi": 71,
          "name": "B4",
          "ticks": 119040,
          "time": 177.131768,
          "velocity": 0.7874015748031497
        },
        {
          "duration": 1.0535054750000086,
          "durationTicks": 708,
          "midi": 83,
          "name": "B5",
          "ticks": 119040,
          "time": 177.131768,
          "velocity": 0.7874015748031497
        },
        {
          "duration": 0.3392644749999931,
          "durationTicks": 228,
          "midi": 59,
          "name": "B3",
          "ticks": 119280,
          "time": 177.4888885,
          "velocity": 0.7874015748031497
        },
        {
          "duration": 0.3392644749999931,
          "durationTicks": 228,
          "midi": 47,
          "name": "B2",
          "ticks": 119280,
          "time": 177.4888885,
          "velocity": 0.7874015748031497
        },
        {
          "duration": 0.3392644749999931,
          "durationTicks": 228,
          "midi": 59,
          "name": "B3",
          "ticks": 119520,
          "time": 177.846009,
          "velocity": 0.7874015748031497
        },
        {
          "duration": 0.3392644749999931,
          "durationTicks": 228,
          "midi": 47,
          "name": "B2",
          "ticks": 119520,
          "time": 177.846009,
          "velocity": 0.7874015748031497
        },
        {
          "duration": 0.3392644749999931,
          "durationTicks": 228,
          "midi": 59,
          "name": "B3",
          "ticks": 119760,
          "time": 178.20312950000002,
          "velocity": 0.7874015748031497
        },
        {
          "duration": 0.3392644749999931,
          "durationTicks": 228,
          "midi": 47,
          "name": "B2",
          "ticks": 119760,
          "time": 178.20312950000002,
          "velocity": 0.7874015748031497
        },
        {
          "duration": 0.3392644749999931,
          "durationTicks": 228,
          "midi": 71,
          "name": "B4",
          "ticks": 119760,
          "time": 178.20312950000002,
          "velocity": 0.7874015748031497
        },
        {
          "duration": 0.3392644749999931,
          "durationTicks": 228,
          "midi": 83,
          "name": "B5",
          "ticks": 119760,
          "time": 178.20312950000002,
          "velocity": 0.7874015748031497
        },
        {
          "duration": 0.3392644749999931,
          "durationTicks": 228,
          "midi": 59,
          "name": "B3",
          "ticks": 120000,
          "time": 178.56025,
          "velocity": 0.7874015748031497
        },
        {
          "duration": 0.3392644749999931,
          "durationTicks": 228,
          "midi": 47,
          "name": "B2",
          "ticks": 120000,
          "time": 178.56025,
          "velocity": 0.7874015748031497
        },
        {
          "duration": 0.3392644749999931,
          "durationTicks": 228,
          "midi": 59,
          "name": "B3",
          "ticks": 120240,
          "time": 178.9173705,
          "velocity": 0.7874015748031497
        },
        {
          "duration": 0.3392644749999931,
          "durationTicks": 228,
          "midi": 47,
          "name": "B2",
          "ticks": 120240,
          "time": 178.9173705,
          "velocity": 0.7874015748031497
        },
        {
          "duration": 0.3392644749999931,
          "durationTicks": 228,
          "midi": 59,
          "name": "B3",
          "ticks": 120480,
          "time": 179.274491,
          "velocity": 0.7874015748031497
        },
        {
          "duration": 0.3392644749999931,
          "durationTicks": 228,
          "midi": 47,
          "name": "B2",
          "ticks": 120480,
          "time": 179.274491,
          "velocity": 0.7874015748031497
        },
        {
          "duration": 0.3392644749999931,
          "durationTicks": 228,
          "midi": 64,
          "name": "E4",
          "ticks": 120480,
          "time": 179.274491,
          "velocity": 0.7874015748031497
        },
        {
          "duration": 0.33926447500002155,
          "durationTicks": 228,
          "midi": 59,
          "name": "B3",
          "ticks": 120720,
          "time": 179.6316115,
          "velocity": 0.7874015748031497
        },
        {
          "duration": 0.33926447500002155,
          "durationTicks": 228,
          "midi": 47,
          "name": "B2",
          "ticks": 120720,
          "time": 179.6316115,
          "velocity": 0.7874015748031497
        },
        {
          "duration": 0.33926447500002155,
          "durationTicks": 228,
          "midi": 66,
          "name": "F#4",
          "ticks": 120720,
          "time": 179.6316115,
          "velocity": 0.7874015748031497
        },
        {
          "duration": 0.3392644749999931,
          "durationTicks": 228,
          "midi": 67,
          "name": "G4",
          "ticks": 120960,
          "time": 179.988732,
          "velocity": 0.7874015748031497
        },
        {
          "duration": 1.3927699500000017,
          "durationTicks": 936,
          "midi": 52,
          "name": "E3",
          "ticks": 120960,
          "time": 179.988732,
          "velocity": 0.7874015748031497
        },
        {
          "duration": 1.3927699500000017,
          "durationTicks": 936,
          "midi": 40,
          "name": "E2",
          "ticks": 120960,
          "time": 179.988732,
          "velocity": 0.7874015748031497
        },
        {
          "duration": 0.3392644749999931,
          "durationTicks": 228,
          "midi": 69,
          "name": "A4",
          "ticks": 121200,
          "time": 180.3458525,
          "velocity": 0.7874015748031497
        },
        {
          "duration": 0.3392644749999931,
          "durationTicks": 228,
          "midi": 66,
          "name": "F#4",
          "ticks": 121440,
          "time": 180.70297300000001,
          "velocity": 0.7874015748031497
        },
        {
          "duration": 0.3392644749999931,
          "durationTicks": 228,
          "midi": 67,
          "name": "G4",
          "ticks": 121680,
          "time": 181.0600935,
          "velocity": 0.7874015748031497
        },
        {
          "duration": 1.3927699500000017,
          "durationTicks": 936,
          "midi": 48,
          "name": "C3",
          "ticks": 121920,
          "time": 181.417214,
          "velocity": 0.7874015748031497
        },
        {
          "duration": 1.3927699500000017,
          "durationTicks": 936,
          "midi": 36,
          "name": "C2",
          "ticks": 121920,
          "time": 181.417214,
          "velocity": 0.7874015748031497
        },
        {
          "duration": 0.3392644749999931,
          "durationTicks": 228,
          "midi": 64,
          "name": "E4",
          "ticks": 122160,
          "time": 181.7743345,
          "velocity": 0.7874015748031497
        },
        {
          "duration": 0.3392644749999931,
          "durationTicks": 228,
          "midi": 64,
          "name": "E4",
          "ticks": 122400,
          "time": 182.13145500000002,
          "velocity": 0.7874015748031497
        },
        {
          "duration": 0.3392644749999931,
          "durationTicks": 228,
          "midi": 66,
          "name": "F#4",
          "ticks": 122640,
          "time": 182.4885755,
          "velocity": 0.7874015748031497
        },
        {
          "duration": 1.3927699500000017,
          "durationTicks": 936,
          "midi": 55,
          "name": "G3",
          "ticks": 122880,
          "time": 182.845696,
          "velocity": 0.7874015748031497
        },
        {
          "duration": 1.3927699500000017,
          "durationTicks": 936,
          "midi": 43,
          "name": "G2",
          "ticks": 122880,
          "time": 182.845696,
          "velocity": 0.7874015748031497
        },
        {
          "duration": 0.33926447500002155,
          "durationTicks": 228,
          "midi": 67,
          "name": "G4",
          "ticks": 122880,
          "time": 182.845696,
          "velocity": 0.7874015748031497
        },
        {
          "duration": 0.33926447500002155,
          "durationTicks": 228,
          "midi": 69,
          "name": "A4",
          "ticks": 123120,
          "time": 183.2028165,
          "velocity": 0.7874015748031497
        },
        {
          "duration": 0.33926447500002155,
          "durationTicks": 228,
          "midi": 71,
          "name": "B4",
          "ticks": 123360,
          "time": 183.559937,
          "velocity": 0.7874015748031497
        },
        {
          "duration": 0.33926447500002155,
          "durationTicks": 228,
          "midi": 72,
          "name": "C5",
          "ticks": 123600,
          "time": 183.9170575,
          "velocity": 0.7874015748031497
        },
        {
          "duration": 1.3927699500000017,
          "durationTicks": 936,
          "midi": 50,
          "name": "D3",
          "ticks": 123840,
          "time": 184.274178,
          "velocity": 0.7874015748031497
        },
        {
          "duration": 1.3927699500000017,
          "durationTicks": 936,
          "midi": 38,
          "name": "D2",
          "ticks": 123840,
          "time": 184.274178,
          "velocity": 0.7874015748031497
        },
        {
          "duration": 0.6785289499999863,
          "durationTicks": 456,
          "midi": 71,
          "name": "B4",
          "ticks": 123840,
          "time": 184.274178,
          "velocity": 0.7874015748031497
        },
        {
          "duration": 0.6785289500000147,
          "durationTicks": 456,
          "midi": 66,
          "name": "F#4",
          "ticks": 124320,
          "time": 184.988419,
          "velocity": 0.7874015748031497
        },
        {
          "duration": 0.33926447500002155,
          "durationTicks": 228,
          "midi": 67,
          "name": "G4",
          "ticks": 124800,
          "time": 185.70266,
          "velocity": 0.7874015748031497
        },
        {
          "duration": 1.3927699499999733,
          "durationTicks": 936,
          "midi": 52,
          "name": "E3",
          "ticks": 124800,
          "time": 185.70266,
          "velocity": 0.7874015748031497
        },
        {
          "duration": 1.3927699499999733,
          "durationTicks": 936,
          "midi": 40,
          "name": "E2",
          "ticks": 124800,
          "time": 185.70266,
          "velocity": 0.7874015748031497
        },
        {
          "duration": 0.3392644749999931,
          "durationTicks": 228,
          "midi": 66,
          "name": "F#4",
          "ticks": 125040,
          "time": 186.05978050000002,
          "velocity": 0.7874015748031497
        },
        {
          "duration": 0.33926447500002155,
          "durationTicks": 228,
          "midi": 64,
          "name": "E4",
          "ticks": 125280,
          "time": 186.416901,
          "velocity": 0.7874015748031497
        },
        {
          "duration": 0.33926447500002155,
          "durationTicks": 228,
          "midi": 66,
          "name": "F#4",
          "ticks": 125520,
          "time": 186.7740215,
          "velocity": 0.7874015748031497
        },
        {
          "duration": 0.33926447500002155,
          "durationTicks": 228,
          "midi": 67,
          "name": "G4",
          "ticks": 125760,
          "time": 187.131142,
          "velocity": 0.7874015748031497
        },
        {
          "duration": 1.3927699499999733,
          "durationTicks": 936,
          "midi": 36,
          "name": "C2",
          "ticks": 125760,
          "time": 187.131142,
          "velocity": 0.7874015748031497
        },
        {
          "duration": 1.3927699499999733,
          "durationTicks": 936,
          "midi": 48,
          "name": "C3",
          "ticks": 125760,
          "time": 187.131142,
          "velocity": 0.7874015748031497
        },
        {
          "duration": 0.6785289499999863,
          "durationTicks": 456,
          "midi": 64,
          "name": "E4",
          "ticks": 126240,
          "time": 187.845383,
          "velocity": 0.7874015748031497
        },
        {
          "duration": 0.6785289499999863,
          "durationTicks": 456,
          "midi": 62,
          "name": "D4",
          "ticks": 126720,
          "time": 188.559624,
          "velocity": 0.7874015748031497
        },
        {
          "duration": 1.3927699499999733,
          "durationTicks": 936,
          "midi": 55,
          "name": "G3",
          "ticks": 126720,
          "time": 188.559624,
          "velocity": 0.7874015748031497
        },
        {
          "duration": 1.3927699499999733,
          "durationTicks": 936,
          "midi": 43,
          "name": "G2",
          "ticks": 126720,
          "time": 188.559624,
          "velocity": 0.7874015748031497
        },
        {
          "duration": 0.6785289499999863,
          "durationTicks": 456,
          "midi": 67,
          "name": "G4",
          "ticks": 127200,
          "time": 189.273865,
          "velocity": 0.7874015748031497
        },
        {
          "duration": 0.3392644749999931,
          "durationTicks": 228,
          "midi": 38,
          "name": "D2",
          "ticks": 127680,
          "time": 189.98810600000002,
          "velocity": 0.7874015748031497
        },
        {
          "duration": 0.3392644749999931,
          "durationTicks": 228,
          "midi": 50,
          "name": "D3",
          "ticks": 127680,
          "time": 189.98810600000002,
          "velocity": 0.7874015748031497
        },
        {
          "duration": 0.6785289499999863,
          "durationTicks": 456,
          "midi": 66,
          "name": "F#4",
          "ticks": 127680,
          "time": 189.98810600000002,
          "velocity": 0.7874015748031497
        },
        {
          "duration": 0.33926447500002155,
          "durationTicks": 228,
          "midi": 38,
          "name": "D2",
          "ticks": 127920,
          "time": 190.3452265,
          "velocity": 0.7874015748031497
        },
        {
          "duration": 0.33926447500002155,
          "durationTicks": 228,
          "midi": 50,
          "name": "D3",
          "ticks": 127920,
          "time": 190.3452265,
          "velocity": 0.7874015748031497
        },
        {
          "duration": 0.33926447500002155,
          "durationTicks": 228,
          "midi": 38,
          "name": "D2",
          "ticks": 128160,
          "time": 190.702347,
          "velocity": 0.7874015748031497
        },
        {
          "duration": 0.33926447500002155,
          "durationTicks": 228,
          "midi": 50,
          "name": "D3",
          "ticks": 128160,
          "time": 190.702347,
          "velocity": 0.7874015748031497
        },
        {
          "duration": 0.33926447500002155,
          "durationTicks": 228,
          "midi": 64,
          "name": "E4",
          "ticks": 128160,
          "time": 190.702347,
          "velocity": 0.7874015748031497
        },
        {
          "duration": 0.33926447500002155,
          "durationTicks": 228,
          "midi": 76,
          "name": "E5",
          "ticks": 128160,
          "time": 190.702347,
          "velocity": 0.7874015748031497
        },
        {
          "duration": 0.33926447500002155,
          "durationTicks": 228,
          "midi": 38,
          "name": "D2",
          "ticks": 128400,
          "time": 191.0594675,
          "velocity": 0.7874015748031497
        },
        {
          "duration": 0.33926447500002155,
          "durationTicks": 228,
          "midi": 50,
          "name": "D3",
          "ticks": 128400,
          "time": 191.0594675,
          "velocity": 0.7874015748031497
        },
        {
          "duration": 0.33926447500002155,
          "durationTicks": 228,
          "midi": 66,
          "name": "F#4",
          "ticks": 128400,
          "time": 191.0594675,
          "velocity": 0.7874015748031497
        },
        {
          "duration": 0.33926447500002155,
          "durationTicks": 228,
          "midi": 78,
          "name": "F#5",
          "ticks": 128400,
          "time": 191.0594675,
          "velocity": 0.7874015748031497
        },
        {
          "duration": 0.33926447500002155,
          "durationTicks": 228,
          "midi": 67,
          "name": "G4",
          "ticks": 128640,
          "time": 191.416588,
          "velocity": 0.7874015748031497
        },
        {
          "duration": 0.33926447500002155,
          "durationTicks": 228,
          "midi": 52,
          "name": "E3",
          "ticks": 128640,
          "time": 191.416588,
          "velocity": 0.7874015748031497
        },
        {
          "duration": 0.33926447500002155,
          "durationTicks": 228,
          "midi": 40,
          "name": "E2",
          "ticks": 128640,
          "time": 191.416588,
          "velocity": 0.7874015748031497
        },
        {
          "duration": 0.33926447500002155,
          "durationTicks": 228,
          "midi": 79,
          "name": "G5",
          "ticks": 128640,
          "time": 191.416588,
          "velocity": 0.7874015748031497
        },
        {
          "duration": 0.33926447500002155,
          "durationTicks": 228,
          "midi": 69,
          "name": "A4",
          "ticks": 128880,
          "time": 191.7737085,
          "velocity": 0.7874015748031497
        },
        {
          "duration": 0.33926447500002155,
          "durationTicks": 228,
          "midi": 52,
          "name": "E3",
          "ticks": 128880,
          "time": 191.7737085,
          "velocity": 0.7874015748031497
        },
        {
          "duration": 0.33926447500002155,
          "durationTicks": 228,
          "midi": 40,
          "name": "E2",
          "ticks": 128880,
          "time": 191.7737085,
          "velocity": 0.7874015748031497
        },
        {
          "duration": 0.33926447500002155,
          "durationTicks": 228,
          "midi": 81,
          "name": "A5",
          "ticks": 128880,
          "time": 191.7737085,
          "velocity": 0.7874015748031497
        },
        {
          "duration": 0.33926447500002155,
          "durationTicks": 228,
          "midi": 66,
          "name": "F#4",
          "ticks": 129120,
          "time": 192.130829,
          "velocity": 0.7874015748031497
        },
        {
          "duration": 0.33926447500002155,
          "durationTicks": 228,
          "midi": 52,
          "name": "E3",
          "ticks": 129120,
          "time": 192.130829,
          "velocity": 0.7874015748031497
        },
        {
          "duration": 0.33926447500002155,
          "durationTicks": 228,
          "midi": 40,
          "name": "E2",
          "ticks": 129120,
          "time": 192.130829,
          "velocity": 0.7874015748031497
        },
        {
          "duration": 0.33926447500002155,
          "durationTicks": 228,
          "midi": 78,
          "name": "F#5",
          "ticks": 129120,
          "time": 192.130829,
          "velocity": 0.7874015748031497
        },
        {
          "duration": 0.3392644749999931,
          "durationTicks": 228,
          "midi": 52,
          "name": "E3",
          "ticks": 129360,
          "time": 192.4879495,
          "velocity": 0.7874015748031497
        },
        {
          "duration": 0.3392644749999931,
          "durationTicks": 228,
          "midi": 40,
          "name": "E2",
          "ticks": 129360,
          "time": 192.4879495,
          "velocity": 0.7874015748031497
        },
        {
          "duration": 0.3392644749999931,
          "durationTicks": 228,
          "midi": 67,
          "name": "G4",
          "ticks": 129360,
          "time": 192.4879495,
          "velocity": 0.7874015748031497
        },
        {
          "duration": 0.3392644749999931,
          "durationTicks": 228,
          "midi": 79,
          "name": "G5",
          "ticks": 129360,
          "time": 192.4879495,
          "velocity": 0.7874015748031497
        },
        {
          "duration": 0.33926447500002155,
          "durationTicks": 228,
          "midi": 48,
          "name": "C3",
          "ticks": 129600,
          "time": 192.84507,
          "velocity": 0.7874015748031497
        },
        {
          "duration": 0.33926447500002155,
          "durationTicks": 228,
          "midi": 36,
          "name": "C2",
          "ticks": 129600,
          "time": 192.84507,
          "velocity": 0.7874015748031497
        },
        {
          "duration": 0.33926447500002155,
          "durationTicks": 228,
          "midi": 48,
          "name": "C3",
          "ticks": 129840,
          "time": 193.2021905,
          "velocity": 0.7874015748031497
        },
        {
          "duration": 0.33926447500002155,
          "durationTicks": 228,
          "midi": 36,
          "name": "C2",
          "ticks": 129840,
          "time": 193.2021905,
          "velocity": 0.7874015748031497
        },
        {
          "duration": 0.33926447500002155,
          "durationTicks": 228,
          "midi": 64,
          "name": "E4",
          "ticks": 129840,
          "time": 193.2021905,
          "velocity": 0.7874015748031497
        },
        {
          "duration": 0.33926447500002155,
          "durationTicks": 228,
          "midi": 76,
          "name": "E5",
          "ticks": 129840,
          "time": 193.2021905,
          "velocity": 0.7874015748031497
        },
        {
          "duration": 0.33926447500002155,
          "durationTicks": 228,
          "midi": 48,
          "name": "C3",
          "ticks": 130080,
          "time": 193.559311,
          "velocity": 0.7874015748031497
        },
        {
          "duration": 0.33926447500002155,
          "durationTicks": 228,
          "midi": 36,
          "name": "C2",
          "ticks": 130080,
          "time": 193.559311,
          "velocity": 0.7874015748031497
        },
        {
          "duration": 0.33926447500002155,
          "durationTicks": 228,
          "midi": 64,
          "name": "E4",
          "ticks": 130080,
          "time": 193.559311,
          "velocity": 0.7874015748031497
        },
        {
          "duration": 0.33926447500002155,
          "durationTicks": 228,
          "midi": 76,
          "name": "E5",
          "ticks": 130080,
          "time": 193.559311,
          "velocity": 0.7874015748031497
        },
        {
          "duration": 0.3392644749999931,
          "durationTicks": 228,
          "midi": 48,
          "name": "C3",
          "ticks": 130320,
          "time": 193.91643150000002,
          "velocity": 0.7874015748031497
        },
        {
          "duration": 0.3392644749999931,
          "durationTicks": 228,
          "midi": 36,
          "name": "C2",
          "ticks": 130320,
          "time": 193.91643150000002,
          "velocity": 0.7874015748031497
        },
        {
          "duration": 0.3392644749999931,
          "durationTicks": 228,
          "midi": 66,
          "name": "F#4",
          "ticks": 130320,
          "time": 193.91643150000002,
          "velocity": 0.7874015748031497
        },
        {
          "duration": 0.3392644749999931,
          "durationTicks": 228,
          "midi": 78,
          "name": "F#5",
          "ticks": 130320,
          "time": 193.91643150000002,
          "velocity": 0.7874015748031497
        },
        {
          "duration": 0.33926447500002155,
          "durationTicks": 228,
          "midi": 67,
          "name": "G4",
          "ticks": 130560,
          "time": 194.273552,
          "velocity": 0.7874015748031497
        },
        {
          "duration": 0.33926447500002155,
          "durationTicks": 228,
          "midi": 79,
          "name": "G5",
          "ticks": 130560,
          "time": 194.273552,
          "velocity": 0.7874015748031497
        },
        {
          "duration": 0.33926447500002155,
          "durationTicks": 228,
          "midi": 43,
          "name": "G2",
          "ticks": 130560,
          "time": 194.273552,
          "velocity": 0.7874015748031497
        },
        {
          "duration": 0.33926447500002155,
          "durationTicks": 228,
          "midi": 55,
          "name": "G3",
          "ticks": 130560,
          "time": 194.273552,
          "velocity": 0.7874015748031497
        },
        {
          "duration": 0.33926447500002155,
          "durationTicks": 228,
          "midi": 69,
          "name": "A4",
          "ticks": 130800,
          "time": 194.6306725,
          "velocity": 0.7874015748031497
        },
        {
          "duration": 0.33926447500002155,
          "durationTicks": 228,
          "midi": 81,
          "name": "A5",
          "ticks": 130800,
          "time": 194.6306725,
          "velocity": 0.7874015748031497
        },
        {
          "duration": 0.33926447500002155,
          "durationTicks": 228,
          "midi": 43,
          "name": "G2",
          "ticks": 130800,
          "time": 194.6306725,
          "velocity": 0.7874015748031497
        },
        {
          "duration": 0.33926447500002155,
          "durationTicks": 228,
          "midi": 55,
          "name": "G3",
          "ticks": 130800,
          "time": 194.6306725,
          "velocity": 0.7874015748031497
        },
        {
          "duration": 0.33926447500002155,
          "durationTicks": 228,
          "midi": 71,
          "name": "B4",
          "ticks": 131040,
          "time": 194.987793,
          "velocity": 0.7874015748031497
        },
        {
          "duration": 0.33926447500002155,
          "durationTicks": 228,
          "midi": 83,
          "name": "B5",
          "ticks": 131040,
          "time": 194.987793,
          "velocity": 0.7874015748031497
        },
        {
          "duration": 0.33926447500002155,
          "durationTicks": 228,
          "midi": 43,
          "name": "G2",
          "ticks": 131040,
          "time": 194.987793,
          "velocity": 0.7874015748031497
        },
        {
          "duration": 0.33926447500002155,
          "durationTicks": 228,
          "midi": 55,
          "name": "G3",
          "ticks": 131040,
          "time": 194.987793,
          "velocity": 0.7874015748031497
        },
        {
          "duration": 0.33926447500002155,
          "durationTicks": 228,
          "midi": 72,
          "name": "C5",
          "ticks": 131280,
          "time": 195.3449135,
          "velocity": 0.7874015748031497
        },
        {
          "duration": 0.33926447500002155,
          "durationTicks": 228,
          "midi": 84,
          "name": "C6",
          "ticks": 131280,
          "time": 195.3449135,
          "velocity": 0.7874015748031497
        },
        {
          "duration": 0.33926447500002155,
          "durationTicks": 228,
          "midi": 43,
          "name": "G2",
          "ticks": 131280,
          "time": 195.3449135,
          "velocity": 0.7874015748031497
        },
        {
          "duration": 0.33926447500002155,
          "durationTicks": 228,
          "midi": 55,
          "name": "G3",
          "ticks": 131280,
          "time": 195.3449135,
          "velocity": 0.7874015748031497
        },
        {
          "duration": 0.6785289499999863,
          "durationTicks": 456,
          "midi": 71,
          "name": "B4",
          "ticks": 131520,
          "time": 195.702034,
          "velocity": 0.7874015748031497
        },
        {
          "duration": 0.33926447500002155,
          "durationTicks": 228,
          "midi": 83,
          "name": "B5",
          "ticks": 131520,
          "time": 195.702034,
          "velocity": 0.7874015748031497
        },
        {
          "duration": 0.33926447500002155,
          "durationTicks": 228,
          "midi": 38,
          "name": "D2",
          "ticks": 131520,
          "time": 195.702034,
          "velocity": 0.7874015748031497
        },
        {
          "duration": 0.33926447500002155,
          "durationTicks": 228,
          "midi": 50,
          "name": "D3",
          "ticks": 131520,
          "time": 195.702034,
          "velocity": 0.7874015748031497
        },
        {
          "duration": 0.33926447500002155,
          "durationTicks": 228,
          "midi": 38,
          "name": "D2",
          "ticks": 131760,
          "time": 196.0591545,
          "velocity": 0.7874015748031497
        },
        {
          "duration": 0.33926447500002155,
          "durationTicks": 228,
          "midi": 50,
          "name": "D3",
          "ticks": 131760,
          "time": 196.0591545,
          "velocity": 0.7874015748031497
        },
        {
          "duration": 0.3392644749999931,
          "durationTicks": 228,
          "midi": 66,
          "name": "F#4",
          "ticks": 132000,
          "time": 196.416275,
          "velocity": 0.7874015748031497
        },
        {
          "duration": 0.3392644749999931,
          "durationTicks": 228,
          "midi": 78,
          "name": "F#5",
          "ticks": 132000,
          "time": 196.416275,
          "velocity": 0.7874015748031497
        },
        {
          "duration": 0.3392644749999931,
          "durationTicks": 228,
          "midi": 38,
          "name": "D2",
          "ticks": 132000,
          "time": 196.416275,
          "velocity": 0.7874015748031497
        },
        {
          "duration": 0.3392644749999931,
          "durationTicks": 228,
          "midi": 50,
          "name": "D3",
          "ticks": 132000,
          "time": 196.416275,
          "velocity": 0.7874015748031497
        },
        {
          "duration": 0.33926447500002155,
          "durationTicks": 228,
          "midi": 38,
          "name": "D2",
          "ticks": 132240,
          "time": 196.7733955,
          "velocity": 0.7874015748031497
        },
        {
          "duration": 0.33926447500002155,
          "durationTicks": 228,
          "midi": 50,
          "name": "D3",
          "ticks": 132240,
          "time": 196.7733955,
          "velocity": 0.7874015748031497
        },
        {
          "duration": 0.6785289499999863,
          "durationTicks": 456,
          "midi": 64,
          "name": "E4",
          "ticks": 132480,
          "time": 197.130516,
          "velocity": 0.7874015748031497
        },
        {
          "duration": 0.33926447500002155,
          "durationTicks": 228,
          "midi": 52,
          "name": "E3",
          "ticks": 132480,
          "time": 197.130516,
          "velocity": 0.7874015748031497
        },
        {
          "duration": 0.33926447500002155,
          "durationTicks": 228,
          "midi": 40,
          "name": "E2",
          "ticks": 132480,
          "time": 197.130516,
          "velocity": 0.7874015748031497
        },
        {
          "duration": 0.6785289499999863,
          "durationTicks": 456,
          "midi": 76,
          "name": "E5",
          "ticks": 132480,
          "time": 197.130516,
          "velocity": 0.7874015748031497
        },
        {
          "duration": 0.33926447500002155,
          "durationTicks": 228,
          "midi": 52,
          "name": "E3",
          "ticks": 132720,
          "time": 197.4876365,
          "velocity": 0.7874015748031497
        },
        {
          "duration": 0.33926447500002155,
          "durationTicks": 228,
          "midi": 40,
          "name": "E2",
          "ticks": 132720,
          "time": 197.4876365,
          "velocity": 0.7874015748031497
        },
        {
          "duration": 0.3392644749999931,
          "durationTicks": 228,
          "midi": 67,
          "name": "G4",
          "ticks": 132960,
          "time": 197.84475700000002,
          "velocity": 0.7874015748031497
        },
        {
          "duration": 0.3392644749999931,
          "durationTicks": 228,
          "midi": 52,
          "name": "E3",
          "ticks": 132960,
          "time": 197.84475700000002,
          "velocity": 0.7874015748031497
        },
        {
          "duration": 0.3392644749999931,
          "durationTicks": 228,
          "midi": 40,
          "name": "E2",
          "ticks": 132960,
          "time": 197.84475700000002,
          "velocity": 0.7874015748031497
        },
        {
          "duration": 0.3392644749999931,
          "durationTicks": 228,
          "midi": 79,
          "name": "G5",
          "ticks": 132960,
          "time": 197.84475700000002,
          "velocity": 0.7874015748031497
        },
        {
          "duration": 0.33926447500002155,
          "durationTicks": 228,
          "midi": 64,
          "name": "E4",
          "ticks": 133200,
          "time": 198.2018775,
          "velocity": 0.7874015748031497
        },
        {
          "duration": 0.33926447500002155,
          "durationTicks": 228,
          "midi": 52,
          "name": "E3",
          "ticks": 133200,
          "time": 198.2018775,
          "velocity": 0.7874015748031497
        },
        {
          "duration": 0.33926447500002155,
          "durationTicks": 228,
          "midi": 40,
          "name": "E2",
          "ticks": 133200,
          "time": 198.2018775,
          "velocity": 0.7874015748031497
        },
        {
          "duration": 0.33926447500002155,
          "durationTicks": 228,
          "midi": 76,
          "name": "E5",
          "ticks": 133200,
          "time": 198.2018775,
          "velocity": 0.7874015748031497
        },
        {
          "duration": 0.33926447500002155,
          "durationTicks": 228,
          "midi": 67,
          "name": "G4",
          "ticks": 133440,
          "time": 198.558998,
          "velocity": 0.7874015748031497
        },
        {
          "duration": 0.33926447500002155,
          "durationTicks": 228,
          "midi": 48,
          "name": "C3",
          "ticks": 133440,
          "time": 198.558998,
          "velocity": 0.7874015748031497
        },
        {
          "duration": 0.33926447500002155,
          "durationTicks": 228,
          "midi": 36,
          "name": "C2",
          "ticks": 133440,
          "time": 198.558998,
          "velocity": 0.7874015748031497
        },
        {
          "duration": 0.33926447500002155,
          "durationTicks": 228,
          "midi": 79,
          "name": "G5",
          "ticks": 133440,
          "time": 198.558998,
          "velocity": 0.7874015748031497
        },
        {
          "duration": 0.33926447500002155,
          "durationTicks": 228,
          "midi": 64,
          "name": "E4",
          "ticks": 133680,
          "time": 198.9161185,
          "velocity": 0.7874015748031497
        },
        {
          "duration": 0.33926447500002155,
          "durationTicks": 228,
          "midi": 48,
          "name": "C3",
          "ticks": 133680,
          "time": 198.9161185,
          "velocity": 0.7874015748031497
        },
        {
          "duration": 0.33926447500002155,
          "durationTicks": 228,
          "midi": 36,
          "name": "C2",
          "ticks": 133680,
          "time": 198.9161185,
          "velocity": 0.7874015748031497
        },
        {
          "duration": 0.33926447500002155,
          "durationTicks": 228,
          "midi": 76,
          "name": "E5",
          "ticks": 133680,
          "time": 198.9161185,
          "velocity": 0.7874015748031497
        },
        {
          "duration": 0.3392644749999931,
          "durationTicks": 228,
          "midi": 67,
          "name": "G4",
          "ticks": 133920,
          "time": 199.27323900000002,
          "velocity": 0.7874015748031497
        },
        {
          "duration": 0.3392644749999931,
          "durationTicks": 228,
          "midi": 48,
          "name": "C3",
          "ticks": 133920,
          "time": 199.27323900000002,
          "velocity": 0.7874015748031497
        },
        {
          "duration": 0.3392644749999931,
          "durationTicks": 228,
          "midi": 36,
          "name": "C2",
          "ticks": 133920,
          "time": 199.27323900000002,
          "velocity": 0.7874015748031497
        },
        {
          "duration": 0.3392644749999931,
          "durationTicks": 228,
          "midi": 79,
          "name": "G5",
          "ticks": 133920,
          "time": 199.27323900000002,
          "velocity": 0.7874015748031497
        },
        {
          "duration": 0.33926447500002155,
          "durationTicks": 228,
          "midi": 69,
          "name": "A4",
          "ticks": 134160,
          "time": 199.6303595,
          "velocity": 0.7874015748031497
        },
        {
          "duration": 0.33926447500002155,
          "durationTicks": 228,
          "midi": 48,
          "name": "C3",
          "ticks": 134160,
          "time": 199.6303595,
          "velocity": 0.7874015748031497
        },
        {
          "duration": 0.33926447500002155,
          "durationTicks": 228,
          "midi": 36,
          "name": "C2",
          "ticks": 134160,
          "time": 199.6303595,
          "velocity": 0.7874015748031497
        },
        {
          "duration": 0.33926447500002155,
          "durationTicks": 228,
          "midi": 81,
          "name": "A5",
          "ticks": 134160,
          "time": 199.6303595,
          "velocity": 0.7874015748031497
        },
        {
          "duration": 0.33926447500002155,
          "durationTicks": 228,
          "midi": 43,
          "name": "G2",
          "ticks": 134400,
          "time": 199.98748,
          "velocity": 0.7874015748031497
        },
        {
          "duration": 0.33926447500002155,
          "durationTicks": 228,
          "midi": 55,
          "name": "G3",
          "ticks": 134400,
          "time": 199.98748,
          "velocity": 0.7874015748031497
        },
        {
          "duration": 0.6785289499999863,
          "durationTicks": 456,
          "midi": 71,
          "name": "B4",
          "ticks": 134400,
          "time": 199.98748,
          "velocity": 0.7874015748031497
        },
        {
          "duration": 0.33926447500002155,
          "durationTicks": 228,
          "midi": 83,
          "name": "B5",
          "ticks": 134400,
          "time": 199.98748,
          "velocity": 0.7874015748031497
        },
        {
          "duration": 0.33926447500002155,
          "durationTicks": 228,
          "midi": 43,
          "name": "G2",
          "ticks": 134640,
          "time": 200.3446005,
          "velocity": 0.7874015748031497
        },
        {
          "duration": 0.33926447500002155,
          "durationTicks": 228,
          "midi": 55,
          "name": "G3",
          "ticks": 134640,
          "time": 200.3446005,
          "velocity": 0.7874015748031497
        },
        {
          "duration": 0.33926447500002155,
          "durationTicks": 228,
          "midi": 43,
          "name": "G2",
          "ticks": 134880,
          "time": 200.701721,
          "velocity": 0.7874015748031497
        },
        {
          "duration": 0.33926447500002155,
          "durationTicks": 228,
          "midi": 55,
          "name": "G3",
          "ticks": 134880,
          "time": 200.701721,
          "velocity": 0.7874015748031497
        },
        {
          "duration": 0.6785289500000147,
          "durationTicks": 456,
          "midi": 67,
          "name": "G4",
          "ticks": 134880,
          "time": 200.701721,
          "velocity": 0.7874015748031497
        },
        {
          "duration": 0.33926447500002155,
          "durationTicks": 228,
          "midi": 79,
          "name": "G5",
          "ticks": 134880,
          "time": 200.701721,
          "velocity": 0.7874015748031497
        },
        {
          "duration": 0.33926447500002155,
          "durationTicks": 228,
          "midi": 43,
          "name": "G2",
          "ticks": 135120,
          "time": 201.0588415,
          "velocity": 0.7874015748031497
        },
        {
          "duration": 0.33926447500002155,
          "durationTicks": 228,
          "midi": 55,
          "name": "G3",
          "ticks": 135120,
          "time": 201.0588415,
          "velocity": 0.7874015748031497
        },
        {
          "duration": 0.33926447500002155,
          "durationTicks": 228,
          "midi": 38,
          "name": "D2",
          "ticks": 135360,
          "time": 201.415962,
          "velocity": 0.7874015748031497
        },
        {
          "duration": 0.33926447500002155,
          "durationTicks": 228,
          "midi": 50,
          "name": "D3",
          "ticks": 135360,
          "time": 201.415962,
          "velocity": 0.7874015748031497
        },
        {
          "duration": 0.6785289499999863,
          "durationTicks": 456,
          "midi": 66,
          "name": "F#4",
          "ticks": 135360,
          "time": 201.415962,
          "velocity": 0.7874015748031497
        },
        {
          "duration": 0.33926447500002155,
          "durationTicks": 228,
          "midi": 78,
          "name": "F#5",
          "ticks": 135360,
          "time": 201.415962,
          "velocity": 0.7874015748031497
        },
        {
          "duration": 0.3392644749999931,
          "durationTicks": 228,
          "midi": 38,
          "name": "D2",
          "ticks": 135600,
          "time": 201.77308250000002,
          "velocity": 0.7874015748031497
        },
        {
          "duration": 0.3392644749999931,
          "durationTicks": 228,
          "midi": 50,
          "name": "D3",
          "ticks": 135600,
          "time": 201.77308250000002,
          "velocity": 0.7874015748031497
        },
        {
          "duration": 0.33926447500002155,
          "durationTicks": 228,
          "midi": 38,
          "name": "D2",
          "ticks": 135840,
          "time": 202.130203,
          "velocity": 0.7874015748031497
        },
        {
          "duration": 0.33926447500002155,
          "durationTicks": 228,
          "midi": 50,
          "name": "D3",
          "ticks": 135840,
          "time": 202.130203,
          "velocity": 0.7874015748031497
        },
        {
          "duration": 0.33926447500002155,
          "durationTicks": 228,
          "midi": 69,
          "name": "A4",
          "ticks": 135840,
          "time": 202.130203,
          "velocity": 0.7874015748031497
        },
        {
          "duration": 0.33926447500002155,
          "durationTicks": 228,
          "midi": 81,
          "name": "A5",
          "ticks": 135840,
          "time": 202.130203,
          "velocity": 0.7874015748031497
        },
        {
          "duration": 0.33926447500002155,
          "durationTicks": 228,
          "midi": 38,
          "name": "D2",
          "ticks": 136080,
          "time": 202.4873235,
          "velocity": 0.7874015748031497
        },
        {
          "duration": 0.33926447500002155,
          "durationTicks": 228,
          "midi": 50,
          "name": "D3",
          "ticks": 136080,
          "time": 202.4873235,
          "velocity": 0.7874015748031497
        },
        {
          "duration": 0.33926447500002155,
          "durationTicks": 228,
          "midi": 66,
          "name": "F#4",
          "ticks": 136080,
          "time": 202.4873235,
          "velocity": 0.7874015748031497
        },
        {
          "duration": 0.33926447500002155,
          "durationTicks": 228,
          "midi": 78,
          "name": "F#5",
          "ticks": 136080,
          "time": 202.4873235,
          "velocity": 0.7874015748031497
        },
        {
          "duration": 0.33926447500002155,
          "durationTicks": 228,
          "midi": 52,
          "name": "E3",
          "ticks": 136320,
          "time": 202.844444,
          "velocity": 0.7874015748031497
        },
        {
          "duration": 0.33926447500002155,
          "durationTicks": 228,
          "midi": 40,
          "name": "E2",
          "ticks": 136320,
          "time": 202.844444,
          "velocity": 0.7874015748031497
        },
        {
          "duration": 0.33926447500002155,
          "durationTicks": 228,
          "midi": 67,
          "name": "G4",
          "ticks": 136320,
          "time": 202.844444,
          "velocity": 0.7874015748031497
        },
        {
          "duration": 0.33926447500002155,
          "durationTicks": 228,
          "midi": 79,
          "name": "G5",
          "ticks": 136320,
          "time": 202.844444,
          "velocity": 0.7874015748031497
        },
        {
          "duration": 0.3392644749999931,
          "durationTicks": 228,
          "midi": 52,
          "name": "E3",
          "ticks": 136560,
          "time": 203.20156450000002,
          "velocity": 0.7874015748031497
        },
        {
          "duration": 0.3392644749999931,
          "durationTicks": 228,
          "midi": 40,
          "name": "E2",
          "ticks": 136560,
          "time": 203.20156450000002,
          "velocity": 0.7874015748031497
        },
        {
          "duration": 0.3392644749999931,
          "durationTicks": 228,
          "midi": 69,
          "name": "A4",
          "ticks": 136560,
          "time": 203.20156450000002,
          "velocity": 0.7874015748031497
        },
        {
          "duration": 0.3392644749999931,
          "durationTicks": 228,
          "midi": 81,
          "name": "A5",
          "ticks": 136560,
          "time": 203.20156450000002,
          "velocity": 0.7874015748031497
        },
        {
          "duration": 0.33926447500002155,
          "durationTicks": 228,
          "midi": 52,
          "name": "E3",
          "ticks": 136800,
          "time": 203.558685,
          "velocity": 0.7874015748031497
        },
        {
          "duration": 0.33926447500002155,
          "durationTicks": 228,
          "midi": 40,
          "name": "E2",
          "ticks": 136800,
          "time": 203.558685,
          "velocity": 0.7874015748031497
        },
        {
          "duration": 0.33926447500002155,
          "durationTicks": 228,
          "midi": 66,
          "name": "F#4",
          "ticks": 136800,
          "time": 203.558685,
          "velocity": 0.7874015748031497
        },
        {
          "duration": 0.33926447500002155,
          "durationTicks": 228,
          "midi": 78,
          "name": "F#5",
          "ticks": 136800,
          "time": 203.558685,
          "velocity": 0.7874015748031497
        },
        {
          "duration": 0.33926447500002155,
          "durationTicks": 228,
          "midi": 52,
          "name": "E3",
          "ticks": 137040,
          "time": 203.9158055,
          "velocity": 0.7874015748031497
        },
        {
          "duration": 0.33926447500002155,
          "durationTicks": 228,
          "midi": 40,
          "name": "E2",
          "ticks": 137040,
          "time": 203.9158055,
          "velocity": 0.7874015748031497
        },
        {
          "duration": 0.33926447500002155,
          "durationTicks": 228,
          "midi": 67,
          "name": "G4",
          "ticks": 137040,
          "time": 203.9158055,
          "velocity": 0.7874015748031497
        },
        {
          "duration": 0.33926447500002155,
          "durationTicks": 228,
          "midi": 79,
          "name": "G5",
          "ticks": 137040,
          "time": 203.9158055,
          "velocity": 0.7874015748031497
        },
        {
          "duration": 0.33926447500002155,
          "durationTicks": 228,
          "midi": 48,
          "name": "C3",
          "ticks": 137280,
          "time": 204.272926,
          "velocity": 0.7874015748031497
        },
        {
          "duration": 0.33926447500002155,
          "durationTicks": 228,
          "midi": 36,
          "name": "C2",
          "ticks": 137280,
          "time": 204.272926,
          "velocity": 0.7874015748031497
        },
        {
          "duration": 0.33926447500002155,
          "durationTicks": 228,
          "midi": 48,
          "name": "C3",
          "ticks": 137520,
          "time": 204.6300465,
          "velocity": 0.7874015748031497
        },
        {
          "duration": 0.33926447500002155,
          "durationTicks": 228,
          "midi": 36,
          "name": "C2",
          "ticks": 137520,
          "time": 204.6300465,
          "velocity": 0.7874015748031497
        },
        {
          "duration": 0.33926447500002155,
          "durationTicks": 228,
          "midi": 64,
          "name": "E4",
          "ticks": 137520,
          "time": 204.6300465,
          "velocity": 0.7874015748031497
        },
        {
          "duration": 0.33926447500002155,
          "durationTicks": 228,
          "midi": 76,
          "name": "E5",
          "ticks": 137520,
          "time": 204.6300465,
          "velocity": 0.7874015748031497
        },
        {
          "duration": 0.33926447500002155,
          "durationTicks": 228,
          "midi": 48,
          "name": "C3",
          "ticks": 137760,
          "time": 204.987167,
          "velocity": 0.7874015748031497
        },
        {
          "duration": 0.33926447500002155,
          "durationTicks": 228,
          "midi": 36,
          "name": "C2",
          "ticks": 137760,
          "time": 204.987167,
          "velocity": 0.7874015748031497
        },
        {
          "duration": 0.33926447500002155,
          "durationTicks": 228,
          "midi": 64,
          "name": "E4",
          "ticks": 137760,
          "time": 204.987167,
          "velocity": 0.7874015748031497
        },
        {
          "duration": 0.33926447500002155,
          "durationTicks": 228,
          "midi": 76,
          "name": "E5",
          "ticks": 137760,
          "time": 204.987167,
          "velocity": 0.7874015748031497
        },
        {
          "duration": 0.33926447500002155,
          "durationTicks": 228,
          "midi": 48,
          "name": "C3",
          "ticks": 138000,
          "time": 205.3442875,
          "velocity": 0.7874015748031497
        },
        {
          "duration": 0.33926447500002155,
          "durationTicks": 228,
          "midi": 36,
          "name": "C2",
          "ticks": 138000,
          "time": 205.3442875,
          "velocity": 0.7874015748031497
        },
        {
          "duration": 0.33926447500002155,
          "durationTicks": 228,
          "midi": 66,
          "name": "F#4",
          "ticks": 138000,
          "time": 205.3442875,
          "velocity": 0.7874015748031497
        },
        {
          "duration": 0.33926447500002155,
          "durationTicks": 228,
          "midi": 78,
          "name": "F#5",
          "ticks": 138000,
          "time": 205.3442875,
          "velocity": 0.7874015748031497
        },
        {
          "duration": 0.3392644749999931,
          "durationTicks": 228,
          "midi": 43,
          "name": "G2",
          "ticks": 138240,
          "time": 205.70140800000001,
          "velocity": 0.7874015748031497
        },
        {
          "duration": 0.3392644749999931,
          "durationTicks": 228,
          "midi": 55,
          "name": "G3",
          "ticks": 138240,
          "time": 205.70140800000001,
          "velocity": 0.7874015748031497
        },
        {
          "duration": 0.6785289499999863,
          "durationTicks": 456,
          "midi": 67,
          "name": "G4",
          "ticks": 138240,
          "time": 205.70140800000001,
          "velocity": 0.7874015748031497
        },
        {
          "duration": 0.3392644749999931,
          "durationTicks": 228,
          "midi": 79,
          "name": "G5",
          "ticks": 138240,
          "time": 205.70140800000001,
          "velocity": 0.7874015748031497
        },
        {
          "duration": 0.33926447500002155,
          "durationTicks": 228,
          "midi": 43,
          "name": "G2",
          "ticks": 138480,
          "time": 206.0585285,
          "velocity": 0.7874015748031497
        },
        {
          "duration": 0.33926447500002155,
          "durationTicks": 228,
          "midi": 55,
          "name": "G3",
          "ticks": 138480,
          "time": 206.0585285,
          "velocity": 0.7874015748031497
        },
        {
          "duration": 0.33926447500002155,
          "durationTicks": 228,
          "midi": 43,
          "name": "G2",
          "ticks": 138720,
          "time": 206.415649,
          "velocity": 0.7874015748031497
        },
        {
          "duration": 0.33926447500002155,
          "durationTicks": 228,
          "midi": 55,
          "name": "G3",
          "ticks": 138720,
          "time": 206.415649,
          "velocity": 0.7874015748031497
        },
        {
          "duration": 0.33926447500002155,
          "durationTicks": 228,
          "midi": 67,
          "name": "G4",
          "ticks": 138720,
          "time": 206.415649,
          "velocity": 0.7874015748031497
        },
        {
          "duration": 0.33926447500002155,
          "durationTicks": 228,
          "midi": 79,
          "name": "G5",
          "ticks": 138720,
          "time": 206.415649,
          "velocity": 0.7874015748031497
        },
        {
          "duration": 0.33926447500002155,
          "durationTicks": 228,
          "midi": 43,
          "name": "G2",
          "ticks": 138960,
          "time": 206.7727695,
          "velocity": 0.7874015748031497
        },
        {
          "duration": 0.33926447500002155,
          "durationTicks": 228,
          "midi": 55,
          "name": "G3",
          "ticks": 138960,
          "time": 206.7727695,
          "velocity": 0.7874015748031497
        },
        {
          "duration": 0.33926447500002155,
          "durationTicks": 228,
          "midi": 66,
          "name": "F#4",
          "ticks": 138960,
          "time": 206.7727695,
          "velocity": 0.7874015748031497
        },
        {
          "duration": 0.33926447500002155,
          "durationTicks": 228,
          "midi": 78,
          "name": "F#5",
          "ticks": 138960,
          "time": 206.7727695,
          "velocity": 0.7874015748031497
        },
        {
          "duration": 0.3392644749999931,
          "durationTicks": 228,
          "midi": 38,
          "name": "D2",
          "ticks": 139200,
          "time": 207.12989000000002,
          "velocity": 0.7874015748031497
        },
        {
          "duration": 0.3392644749999931,
          "durationTicks": 228,
          "midi": 50,
          "name": "D3",
          "ticks": 139200,
          "time": 207.12989000000002,
          "velocity": 0.7874015748031497
        },
        {
          "duration": 0.33926447500002155,
          "durationTicks": 228,
          "midi": 38,
          "name": "D2",
          "ticks": 139440,
          "time": 207.4870105,
          "velocity": 0.7874015748031497
        },
        {
          "duration": 0.33926447500002155,
          "durationTicks": 228,
          "midi": 50,
          "name": "D3",
          "ticks": 139440,
          "time": 207.4870105,
          "velocity": 0.7874015748031497
        },
        {
          "duration": 0.33926447500002155,
          "durationTicks": 228,
          "midi": 38,
          "name": "D2",
          "ticks": 139680,
          "time": 207.844131,
          "velocity": 0.7874015748031497
        },
        {
          "duration": 0.33926447500002155,
          "durationTicks": 228,
          "midi": 50,
          "name": "D3",
          "ticks": 139680,
          "time": 207.844131,
          "velocity": 0.7874015748031497
        },
        {
          "duration": 0.33926447500002155,
          "durationTicks": 228,
          "midi": 64,
          "name": "E4",
          "ticks": 139680,
          "time": 207.844131,
          "velocity": 0.7874015748031497
        },
        {
          "duration": 0.33926447500002155,
          "durationTicks": 228,
          "midi": 76,
          "name": "E5",
          "ticks": 139680,
          "time": 207.844131,
          "velocity": 0.7874015748031497
        },
        {
          "duration": 0.33926447500002155,
          "durationTicks": 228,
          "midi": 38,
          "name": "D2",
          "ticks": 139920,
          "time": 208.2012515,
          "velocity": 0.7874015748031497
        },
        {
          "duration": 0.33926447500002155,
          "durationTicks": 228,
          "midi": 50,
          "name": "D3",
          "ticks": 139920,
          "time": 208.2012515,
          "velocity": 0.7874015748031497
        },
        {
          "duration": 0.33926447500002155,
          "durationTicks": 228,
          "midi": 66,
          "name": "F#4",
          "ticks": 139920,
          "time": 208.2012515,
          "velocity": 0.7874015748031497
        },
        {
          "duration": 0.33926447500002155,
          "durationTicks": 228,
          "midi": 78,
          "name": "F#5",
          "ticks": 139920,
          "time": 208.2012515,
          "velocity": 0.7874015748031497
        },
        {
          "duration": 0.33926447500002155,
          "durationTicks": 228,
          "midi": 52,
          "name": "E3",
          "ticks": 140160,
          "time": 208.558372,
          "velocity": 0.7874015748031497
        },
        {
          "duration": 0.33926447500002155,
          "durationTicks": 228,
          "midi": 40,
          "name": "E2",
          "ticks": 140160,
          "time": 208.558372,
          "velocity": 0.7874015748031497
        },
        {
          "duration": 0.33926447500002155,
          "durationTicks": 228,
          "midi": 67,
          "name": "G4",
          "ticks": 140160,
          "time": 208.558372,
          "velocity": 0.7874015748031497
        },
        {
          "duration": 0.33926447500002155,
          "durationTicks": 228,
          "midi": 79,
          "name": "G5",
          "ticks": 140160,
          "time": 208.558372,
          "velocity": 0.7874015748031497
        },
        {
          "duration": 0.33926447500002155,
          "durationTicks": 228,
          "midi": 52,
          "name": "E3",
          "ticks": 140400,
          "time": 208.9154925,
          "velocity": 0.7874015748031497
        },
        {
          "duration": 0.33926447500002155,
          "durationTicks": 228,
          "midi": 40,
          "name": "E2",
          "ticks": 140400,
          "time": 208.9154925,
          "velocity": 0.7874015748031497
        },
        {
          "duration": 0.33926447500002155,
          "durationTicks": 228,
          "midi": 69,
          "name": "A4",
          "ticks": 140400,
          "time": 208.9154925,
          "velocity": 0.7874015748031497
        },
        {
          "duration": 0.33926447500002155,
          "durationTicks": 228,
          "midi": 81,
          "name": "A5",
          "ticks": 140400,
          "time": 208.9154925,
          "velocity": 0.7874015748031497
        },
        {
          "duration": 0.33926447500002155,
          "durationTicks": 228,
          "midi": 52,
          "name": "E3",
          "ticks": 140640,
          "time": 209.272613,
          "velocity": 0.7874015748031497
        },
        {
          "duration": 0.33926447500002155,
          "durationTicks": 228,
          "midi": 40,
          "name": "E2",
          "ticks": 140640,
          "time": 209.272613,
          "velocity": 0.7874015748031497
        },
        {
          "duration": 0.33926447500002155,
          "durationTicks": 228,
          "midi": 66,
          "name": "F#4",
          "ticks": 140640,
          "time": 209.272613,
          "velocity": 0.7874015748031497
        },
        {
          "duration": 0.33926447500002155,
          "durationTicks": 228,
          "midi": 78,
          "name": "F#5",
          "ticks": 140640,
          "time": 209.272613,
          "velocity": 0.7874015748031497
        },
        {
          "duration": 0.3392644749999931,
          "durationTicks": 228,
          "midi": 52,
          "name": "E3",
          "ticks": 140880,
          "time": 209.62973350000001,
          "velocity": 0.7874015748031497
        },
        {
          "duration": 0.3392644749999931,
          "durationTicks": 228,
          "midi": 40,
          "name": "E2",
          "ticks": 140880,
          "time": 209.62973350000001,
          "velocity": 0.7874015748031497
        },
        {
          "duration": 0.3392644749999931,
          "durationTicks": 228,
          "midi": 67,
          "name": "G4",
          "ticks": 140880,
          "time": 209.62973350000001,
          "velocity": 0.7874015748031497
        },
        {
          "duration": 0.3392644749999931,
          "durationTicks": 228,
          "midi": 79,
          "name": "G5",
          "ticks": 140880,
          "time": 209.62973350000001,
          "velocity": 0.7874015748031497
        },
        {
          "duration": 0.33926447500002155,
          "durationTicks": 228,
          "midi": 48,
          "name": "C3",
          "ticks": 141120,
          "time": 209.986854,
          "velocity": 0.7874015748031497
        },
        {
          "duration": 0.33926447500002155,
          "durationTicks": 228,
          "midi": 36,
          "name": "C2",
          "ticks": 141120,
          "time": 209.986854,
          "velocity": 0.7874015748031497
        },
        {
          "duration": 0.33926447500002155,
          "durationTicks": 228,
          "midi": 48,
          "name": "C3",
          "ticks": 141360,
          "time": 210.3439745,
          "velocity": 0.7874015748031497
        },
        {
          "duration": 0.33926447500002155,
          "durationTicks": 228,
          "midi": 36,
          "name": "C2",
          "ticks": 141360,
          "time": 210.3439745,
          "velocity": 0.7874015748031497
        },
        {
          "duration": 0.33926447500002155,
          "durationTicks": 228,
          "midi": 64,
          "name": "E4",
          "ticks": 141360,
          "time": 210.3439745,
          "velocity": 0.7874015748031497
        },
        {
          "duration": 0.33926447500002155,
          "durationTicks": 228,
          "midi": 76,
          "name": "E5",
          "ticks": 141360,
          "time": 210.3439745,
          "velocity": 0.7874015748031497
        },
        {
          "duration": 0.33926447500002155,
          "durationTicks": 228,
          "midi": 48,
          "name": "C3",
          "ticks": 141600,
          "time": 210.701095,
          "velocity": 0.7874015748031497
        },
        {
          "duration": 0.33926447500002155,
          "durationTicks": 228,
          "midi": 36,
          "name": "C2",
          "ticks": 141600,
          "time": 210.701095,
          "velocity": 0.7874015748031497
        },
        {
          "duration": 0.33926447500002155,
          "durationTicks": 228,
          "midi": 64,
          "name": "E4",
          "ticks": 141600,
          "time": 210.701095,
          "velocity": 0.7874015748031497
        },
        {
          "duration": 0.33926447500002155,
          "durationTicks": 228,
          "midi": 76,
          "name": "E5",
          "ticks": 141600,
          "time": 210.701095,
          "velocity": 0.7874015748031497
        },
        {
          "duration": 0.3392644749999931,
          "durationTicks": 228,
          "midi": 48,
          "name": "C3",
          "ticks": 141840,
          "time": 211.05821550000002,
          "velocity": 0.7874015748031497
        },
        {
          "duration": 0.3392644749999931,
          "durationTicks": 228,
          "midi": 36,
          "name": "C2",
          "ticks": 141840,
          "time": 211.05821550000002,
          "velocity": 0.7874015748031497
        },
        {
          "duration": 0.3392644749999931,
          "durationTicks": 228,
          "midi": 67,
          "name": "G4",
          "ticks": 141840,
          "time": 211.05821550000002,
          "velocity": 0.7874015748031497
        },
        {
          "duration": 0.3392644749999931,
          "durationTicks": 228,
          "midi": 79,
          "name": "G5",
          "ticks": 141840,
          "time": 211.05821550000002,
          "velocity": 0.7874015748031497
        },
        {
          "duration": 0.6785289499999863,
          "durationTicks": 456,
          "midi": 71,
          "name": "B4",
          "ticks": 142080,
          "time": 211.415336,
          "velocity": 0.7874015748031497
        },
        {
          "duration": 0.33926447500002155,
          "durationTicks": 228,
          "midi": 43,
          "name": "G2",
          "ticks": 142080,
          "time": 211.415336,
          "velocity": 0.7874015748031497
        },
        {
          "duration": 0.33926447500002155,
          "durationTicks": 228,
          "midi": 55,
          "name": "G3",
          "ticks": 142080,
          "time": 211.415336,
          "velocity": 0.7874015748031497
        },
        {
          "duration": 0.33926447500002155,
          "durationTicks": 228,
          "midi": 83,
          "name": "B5",
          "ticks": 142080,
          "time": 211.415336,
          "velocity": 0.7874015748031497
        },
        {
          "duration": 0.33926447500002155,
          "durationTicks": 228,
          "midi": 43,
          "name": "G2",
          "ticks": 142320,
          "time": 211.7724565,
          "velocity": 0.7874015748031497
        },
        {
          "duration": 0.33926447500002155,
          "durationTicks": 228,
          "midi": 55,
          "name": "G3",
          "ticks": 142320,
          "time": 211.7724565,
          "velocity": 0.7874015748031497
        },
        {
          "duration": 0.33926447500002155,
          "durationTicks": 228,
          "midi": 71,
          "name": "B4",
          "ticks": 142560,
          "time": 212.129577,
          "velocity": 0.7874015748031497
        },
        {
          "duration": 0.33926447500002155,
          "durationTicks": 228,
          "midi": 43,
          "name": "G2",
          "ticks": 142560,
          "time": 212.129577,
          "velocity": 0.7874015748031497
        },
        {
          "duration": 0.33926447500002155,
          "durationTicks": 228,
          "midi": 55,
          "name": "G3",
          "ticks": 142560,
          "time": 212.129577,
          "velocity": 0.7874015748031497
        },
        {
          "duration": 0.33926447500002155,
          "durationTicks": 228,
          "midi": 83,
          "name": "B5",
          "ticks": 142560,
          "time": 212.129577,
          "velocity": 0.7874015748031497
        },
        {
          "duration": 0.33926447500002155,
          "durationTicks": 228,
          "midi": 69,
          "name": "A4",
          "ticks": 142800,
          "time": 212.4866975,
          "velocity": 0.7874015748031497
        },
        {
          "duration": 0.33926447500002155,
          "durationTicks": 228,
          "midi": 43,
          "name": "G2",
          "ticks": 142800,
          "time": 212.4866975,
          "velocity": 0.7874015748031497
        },
        {
          "duration": 0.33926447500002155,
          "durationTicks": 228,
          "midi": 55,
          "name": "G3",
          "ticks": 142800,
          "time": 212.4866975,
          "velocity": 0.7874015748031497
        },
        {
          "duration": 0.33926447500002155,
          "durationTicks": 228,
          "midi": 81,
          "name": "A5",
          "ticks": 142800,
          "time": 212.4866975,
          "velocity": 0.7874015748031497
        },
        {
          "duration": 0.33926447500002155,
          "durationTicks": 228,
          "midi": 38,
          "name": "D2",
          "ticks": 143040,
          "time": 212.843818,
          "velocity": 0.7874015748031497
        },
        {
          "duration": 0.33926447500002155,
          "durationTicks": 228,
          "midi": 50,
          "name": "D3",
          "ticks": 143040,
          "time": 212.843818,
          "velocity": 0.7874015748031497
        },
        {
          "duration": 0.33926447500002155,
          "durationTicks": 228,
          "midi": 38,
          "name": "D2",
          "ticks": 143280,
          "time": 213.2009385,
          "velocity": 0.7874015748031497
        },
        {
          "duration": 0.33926447500002155,
          "durationTicks": 228,
          "midi": 50,
          "name": "D3",
          "ticks": 143280,
          "time": 213.2009385,
          "velocity": 0.7874015748031497
        },
        {
          "duration": 0.33926447500002155,
          "durationTicks": 228,
          "midi": 71,
          "name": "B4",
          "ticks": 143280,
          "time": 213.2009385,
          "velocity": 0.7874015748031497
        },
        {
          "duration": 0.33926447500002155,
          "durationTicks": 228,
          "midi": 83,
          "name": "B5",
          "ticks": 143280,
          "time": 213.2009385,
          "velocity": 0.7874015748031497
        },
        {
          "duration": 0.3392644749999931,
          "durationTicks": 228,
          "midi": 38,
          "name": "D2",
          "ticks": 143520,
          "time": 213.55805900000001,
          "velocity": 0.7874015748031497
        },
        {
          "duration": 0.3392644749999931,
          "durationTicks": 228,
          "midi": 50,
          "name": "D3",
          "ticks": 143520,
          "time": 213.55805900000001,
          "velocity": 0.7874015748031497
        },
        {
          "duration": 0.3392644749999931,
          "durationTicks": 228,
          "midi": 64,
          "name": "E4",
          "ticks": 143520,
          "time": 213.55805900000001,
          "velocity": 0.7874015748031497
        },
        {
          "duration": 0.3392644749999931,
          "durationTicks": 228,
          "midi": 76,
          "name": "E5",
          "ticks": 143520,
          "time": 213.55805900000001,
          "velocity": 0.7874015748031497
        },
        {
          "duration": 0.33926447500002155,
          "durationTicks": 228,
          "midi": 38,
          "name": "D2",
          "ticks": 143760,
          "time": 213.9151795,
          "velocity": 0.7874015748031497
        },
        {
          "duration": 0.33926447500002155,
          "durationTicks": 228,
          "midi": 50,
          "name": "D3",
          "ticks": 143760,
          "time": 213.9151795,
          "velocity": 0.7874015748031497
        },
        {
          "duration": 0.33926447500002155,
          "durationTicks": 228,
          "midi": 66,
          "name": "F#4",
          "ticks": 143760,
          "time": 213.9151795,
          "velocity": 0.7874015748031497
        },
        {
          "duration": 0.33926447500002155,
          "durationTicks": 228,
          "midi": 78,
          "name": "F#5",
          "ticks": 143760,
          "time": 213.9151795,
          "velocity": 0.7874015748031497
        },
        {
          "duration": 0.33926447500002155,
          "durationTicks": 228,
          "midi": 67,
          "name": "G4",
          "ticks": 144000,
          "time": 214.2723,
          "velocity": 0.7874015748031497
        },
        {
          "duration": 0.33926447500002155,
          "durationTicks": 228,
          "midi": 52,
          "name": "E3",
          "ticks": 144000,
          "time": 214.2723,
          "velocity": 0.7874015748031497
        },
        {
          "duration": 0.33926447500002155,
          "durationTicks": 228,
          "midi": 40,
          "name": "E2",
          "ticks": 144000,
          "time": 214.2723,
          "velocity": 0.7874015748031497
        },
        {
          "duration": 0.33926447500002155,
          "durationTicks": 228,
          "midi": 79,
          "name": "G5",
          "ticks": 144000,
          "time": 214.2723,
          "velocity": 0.7874015748031497
        },
        {
          "duration": 0.33926447500002155,
          "durationTicks": 228,
          "midi": 69,
          "name": "A4",
          "ticks": 144240,
          "time": 214.6294205,
          "velocity": 0.7874015748031497
        },
        {
          "duration": 0.33926447500002155,
          "durationTicks": 228,
          "midi": 52,
          "name": "E3",
          "ticks": 144240,
          "time": 214.6294205,
          "velocity": 0.7874015748031497
        },
        {
          "duration": 0.33926447500002155,
          "durationTicks": 228,
          "midi": 40,
          "name": "E2",
          "ticks": 144240,
          "time": 214.6294205,
          "velocity": 0.7874015748031497
        },
        {
          "duration": 0.33926447500002155,
          "durationTicks": 228,
          "midi": 81,
          "name": "A5",
          "ticks": 144240,
          "time": 214.6294205,
          "velocity": 0.7874015748031497
        },
        {
          "duration": 0.3392644749999931,
          "durationTicks": 228,
          "midi": 66,
          "name": "F#4",
          "ticks": 144480,
          "time": 214.98654100000002,
          "velocity": 0.7874015748031497
        },
        {
          "duration": 0.3392644749999931,
          "durationTicks": 228,
          "midi": 52,
          "name": "E3",
          "ticks": 144480,
          "time": 214.98654100000002,
          "velocity": 0.7874015748031497
        },
        {
          "duration": 0.3392644749999931,
          "durationTicks": 228,
          "midi": 40,
          "name": "E2",
          "ticks": 144480,
          "time": 214.98654100000002,
          "velocity": 0.7874015748031497
        },
        {
          "duration": 0.3392644749999931,
          "durationTicks": 228,
          "midi": 78,
          "name": "F#5",
          "ticks": 144480,
          "time": 214.98654100000002,
          "velocity": 0.7874015748031497
        },
        {
          "duration": 0.33926447500002155,
          "durationTicks": 228,
          "midi": 52,
          "name": "E3",
          "ticks": 144720,
          "time": 215.3436615,
          "velocity": 0.7874015748031497
        },
        {
          "duration": 0.33926447500002155,
          "durationTicks": 228,
          "midi": 40,
          "name": "E2",
          "ticks": 144720,
          "time": 215.3436615,
          "velocity": 0.7874015748031497
        },
        {
          "duration": 0.33926447500002155,
          "durationTicks": 228,
          "midi": 67,
          "name": "G4",
          "ticks": 144720,
          "time": 215.3436615,
          "velocity": 0.7874015748031497
        },
        {
          "duration": 0.33926447500002155,
          "durationTicks": 228,
          "midi": 79,
          "name": "G5",
          "ticks": 144720,
          "time": 215.3436615,
          "velocity": 0.7874015748031497
        },
        {
          "duration": 0.33926447500002155,
          "durationTicks": 228,
          "midi": 48,
          "name": "C3",
          "ticks": 144960,
          "time": 215.700782,
          "velocity": 0.7874015748031497
        },
        {
          "duration": 0.33926447500002155,
          "durationTicks": 228,
          "midi": 36,
          "name": "C2",
          "ticks": 144960,
          "time": 215.700782,
          "velocity": 0.7874015748031497
        },
        {
          "duration": 0.33926447500002155,
          "durationTicks": 228,
          "midi": 48,
          "name": "C3",
          "ticks": 145200,
          "time": 216.0579025,
          "velocity": 0.7874015748031497
        },
        {
          "duration": 0.33926447500002155,
          "durationTicks": 228,
          "midi": 36,
          "name": "C2",
          "ticks": 145200,
          "time": 216.0579025,
          "velocity": 0.7874015748031497
        },
        {
          "duration": 0.33926447500002155,
          "durationTicks": 228,
          "midi": 64,
          "name": "E4",
          "ticks": 145200,
          "time": 216.0579025,
          "velocity": 0.7874015748031497
        },
        {
          "duration": 0.33926447500002155,
          "durationTicks": 228,
          "midi": 76,
          "name": "E5",
          "ticks": 145200,
          "time": 216.0579025,
          "velocity": 0.7874015748031497
        },
        {
          "duration": 0.33926447500002155,
          "durationTicks": 228,
          "midi": 48,
          "name": "C3",
          "ticks": 145440,
          "time": 216.415023,
          "velocity": 0.7874015748031497
        },
        {
          "duration": 0.33926447500002155,
          "durationTicks": 228,
          "midi": 36,
          "name": "C2",
          "ticks": 145440,
          "time": 216.415023,
          "velocity": 0.7874015748031497
        },
        {
          "duration": 0.33926447500002155,
          "durationTicks": 228,
          "midi": 64,
          "name": "E4",
          "ticks": 145440,
          "time": 216.415023,
          "velocity": 0.7874015748031497
        },
        {
          "duration": 0.33926447500002155,
          "durationTicks": 228,
          "midi": 76,
          "name": "E5",
          "ticks": 145440,
          "time": 216.415023,
          "velocity": 0.7874015748031497
        },
        {
          "duration": 0.33926447500002155,
          "durationTicks": 228,
          "midi": 48,
          "name": "C3",
          "ticks": 145680,
          "time": 216.7721435,
          "velocity": 0.7874015748031497
        },
        {
          "duration": 0.33926447500002155,
          "durationTicks": 228,
          "midi": 36,
          "name": "C2",
          "ticks": 145680,
          "time": 216.7721435,
          "velocity": 0.7874015748031497
        },
        {
          "duration": 0.33926447500002155,
          "durationTicks": 228,
          "midi": 66,
          "name": "F#4",
          "ticks": 145680,
          "time": 216.7721435,
          "velocity": 0.7874015748031497
        },
        {
          "duration": 0.33926447500002155,
          "durationTicks": 228,
          "midi": 78,
          "name": "F#5",
          "ticks": 145680,
          "time": 216.7721435,
          "velocity": 0.7874015748031497
        },
        {
          "duration": 0.33926447500002155,
          "durationTicks": 228,
          "midi": 67,
          "name": "G4",
          "ticks": 145920,
          "time": 217.129264,
          "velocity": 0.7874015748031497
        },
        {
          "duration": 0.33926447500002155,
          "durationTicks": 228,
          "midi": 43,
          "name": "G2",
          "ticks": 145920,
          "time": 217.129264,
          "velocity": 0.7874015748031497
        },
        {
          "duration": 0.33926447500002155,
          "durationTicks": 228,
          "midi": 55,
          "name": "G3",
          "ticks": 145920,
          "time": 217.129264,
          "velocity": 0.7874015748031497
        },
        {
          "duration": 0.33926447500002155,
          "durationTicks": 228,
          "midi": 79,
          "name": "G5",
          "ticks": 145920,
          "time": 217.129264,
          "velocity": 0.7874015748031497
        },
        {
          "duration": 0.3392644749999931,
          "durationTicks": 228,
          "midi": 69,
          "name": "A4",
          "ticks": 146160,
          "time": 217.4863845,
          "velocity": 0.7874015748031497
        },
        {
          "duration": 0.3392644749999931,
          "durationTicks": 228,
          "midi": 43,
          "name": "G2",
          "ticks": 146160,
          "time": 217.4863845,
          "velocity": 0.7874015748031497
        },
        {
          "duration": 0.3392644749999931,
          "durationTicks": 228,
          "midi": 55,
          "name": "G3",
          "ticks": 146160,
          "time": 217.4863845,
          "velocity": 0.7874015748031497
        },
        {
          "duration": 0.3392644749999931,
          "durationTicks": 228,
          "midi": 81,
          "name": "A5",
          "ticks": 146160,
          "time": 217.4863845,
          "velocity": 0.7874015748031497
        },
        {
          "duration": 0.33926447500002155,
          "durationTicks": 228,
          "midi": 71,
          "name": "B4",
          "ticks": 146400,
          "time": 217.843505,
          "velocity": 0.7874015748031497
        },
        {
          "duration": 0.33926447500002155,
          "durationTicks": 228,
          "midi": 43,
          "name": "G2",
          "ticks": 146400,
          "time": 217.843505,
          "velocity": 0.7874015748031497
        },
        {
          "duration": 0.33926447500002155,
          "durationTicks": 228,
          "midi": 55,
          "name": "G3",
          "ticks": 146400,
          "time": 217.843505,
          "velocity": 0.7874015748031497
        },
        {
          "duration": 0.33926447500002155,
          "durationTicks": 228,
          "midi": 83,
          "name": "B5",
          "ticks": 146400,
          "time": 217.843505,
          "velocity": 0.7874015748031497
        },
        {
          "duration": 0.33926447500002155,
          "durationTicks": 228,
          "midi": 72,
          "name": "C5",
          "ticks": 146640,
          "time": 218.2006255,
          "velocity": 0.7874015748031497
        },
        {
          "duration": 0.33926447500002155,
          "durationTicks": 228,
          "midi": 43,
          "name": "G2",
          "ticks": 146640,
          "time": 218.2006255,
          "velocity": 0.7874015748031497
        },
        {
          "duration": 0.33926447500002155,
          "durationTicks": 228,
          "midi": 55,
          "name": "G3",
          "ticks": 146640,
          "time": 218.2006255,
          "velocity": 0.7874015748031497
        },
        {
          "duration": 0.33926447500002155,
          "durationTicks": 228,
          "midi": 84,
          "name": "C6",
          "ticks": 146640,
          "time": 218.2006255,
          "velocity": 0.7874015748031497
        },
        {
          "duration": 0.33926447500002155,
          "durationTicks": 228,
          "midi": 71,
          "name": "B4",
          "ticks": 146880,
          "time": 218.557746,
          "velocity": 0.7874015748031497
        },
        {
          "duration": 0.33926447500002155,
          "durationTicks": 228,
          "midi": 38,
          "name": "D2",
          "ticks": 146880,
          "time": 218.557746,
          "velocity": 0.7874015748031497
        },
        {
          "duration": 0.33926447500002155,
          "durationTicks": 228,
          "midi": 50,
          "name": "D3",
          "ticks": 146880,
          "time": 218.557746,
          "velocity": 0.7874015748031497
        },
        {
          "duration": 0.33926447500002155,
          "durationTicks": 228,
          "midi": 83,
          "name": "B5",
          "ticks": 146880,
          "time": 218.557746,
          "velocity": 0.7874015748031497
        },
        {
          "duration": 0.3392644749999931,
          "durationTicks": 228,
          "midi": 38,
          "name": "D2",
          "ticks": 147120,
          "time": 218.91486650000002,
          "velocity": 0.7874015748031497
        },
        {
          "duration": 0.3392644749999931,
          "durationTicks": 228,
          "midi": 50,
          "name": "D3",
          "ticks": 147120,
          "time": 218.91486650000002,
          "velocity": 0.7874015748031497
        },
        {
          "duration": 0.33926447500002155,
          "durationTicks": 228,
          "midi": 38,
          "name": "D2",
          "ticks": 147360,
          "time": 219.271987,
          "velocity": 0.7874015748031497
        },
        {
          "duration": 0.33926447500002155,
          "durationTicks": 228,
          "midi": 50,
          "name": "D3",
          "ticks": 147360,
          "time": 219.271987,
          "velocity": 0.7874015748031497
        },
        {
          "duration": 0.6785289500000147,
          "durationTicks": 456,
          "midi": 66,
          "name": "F#4",
          "ticks": 147360,
          "time": 219.271987,
          "velocity": 0.7874015748031497
        },
        {
          "duration": 0.33926447500002155,
          "durationTicks": 228,
          "midi": 78,
          "name": "F#5",
          "ticks": 147360,
          "time": 219.271987,
          "velocity": 0.7874015748031497
        },
        {
          "duration": 0.33926447500002155,
          "durationTicks": 228,
          "midi": 38,
          "name": "D2",
          "ticks": 147600,
          "time": 219.6291075,
          "velocity": 0.7874015748031497
        },
        {
          "duration": 0.33926447500002155,
          "durationTicks": 228,
          "midi": 50,
          "name": "D3",
          "ticks": 147600,
          "time": 219.6291075,
          "velocity": 0.7874015748031497
        },
        {
          "duration": 0.33926447500002155,
          "durationTicks": 228,
          "midi": 52,
          "name": "E3",
          "ticks": 147840,
          "time": 219.986228,
          "velocity": 0.7874015748031497
        },
        {
          "duration": 0.33926447500002155,
          "durationTicks": 228,
          "midi": 40,
          "name": "E2",
          "ticks": 147840,
          "time": 219.986228,
          "velocity": 0.7874015748031497
        },
        {
          "duration": 0.6785289499999863,
          "durationTicks": 456,
          "midi": 64,
          "name": "E4",
          "ticks": 147840,
          "time": 219.986228,
          "velocity": 0.7874015748031497
        },
        {
          "duration": 0.33926447500002155,
          "durationTicks": 228,
          "midi": 76,
          "name": "E5",
          "ticks": 147840,
          "time": 219.986228,
          "velocity": 0.7874015748031497
        },
        {
          "duration": 0.33926447500002155,
          "durationTicks": 228,
          "midi": 52,
          "name": "E3",
          "ticks": 148080,
          "time": 220.3433485,
          "velocity": 0.7874015748031497
        },
        {
          "duration": 0.33926447500002155,
          "durationTicks": 228,
          "midi": 40,
          "name": "E2",
          "ticks": 148080,
          "time": 220.3433485,
          "velocity": 0.7874015748031497
        },
        {
          "duration": 0.33926447500002155,
          "durationTicks": 228,
          "midi": 52,
          "name": "E3",
          "ticks": 148320,
          "time": 220.700469,
          "velocity": 0.7874015748031497
        },
        {
          "duration": 0.33926447500002155,
          "durationTicks": 228,
          "midi": 40,
          "name": "E2",
          "ticks": 148320,
          "time": 220.700469,
          "velocity": 0.7874015748031497
        },
        {
          "duration": 0.33926447500002155,
          "durationTicks": 228,
          "midi": 67,
          "name": "G4",
          "ticks": 148320,
          "time": 220.700469,
          "velocity": 0.7874015748031497
        },
        {
          "duration": 0.33926447500002155,
          "durationTicks": 228,
          "midi": 79,
          "name": "G5",
          "ticks": 148320,
          "time": 220.700469,
          "velocity": 0.7874015748031497
        },
        {
          "duration": 0.33926447500002155,
          "durationTicks": 228,
          "midi": 52,
          "name": "E3",
          "ticks": 148560,
          "time": 221.0575895,
          "velocity": 0.7874015748031497
        },
        {
          "duration": 0.33926447500002155,
          "durationTicks": 228,
          "midi": 40,
          "name": "E2",
          "ticks": 148560,
          "time": 221.0575895,
          "velocity": 0.7874015748031497
        },
        {
          "duration": 0.33926447500002155,
          "durationTicks": 228,
          "midi": 64,
          "name": "E4",
          "ticks": 148560,
          "time": 221.0575895,
          "velocity": 0.7874015748031497
        },
        {
          "duration": 0.33926447500002155,
          "durationTicks": 228,
          "midi": 76,
          "name": "E5",
          "ticks": 148560,
          "time": 221.0575895,
          "velocity": 0.7874015748031497
        },
        {
          "duration": 0.3392644749999931,
          "durationTicks": 228,
          "midi": 48,
          "name": "C3",
          "ticks": 148800,
          "time": 221.41471,
          "velocity": 0.7874015748031497
        },
        {
          "duration": 0.3392644749999931,
          "durationTicks": 228,
          "midi": 36,
          "name": "C2",
          "ticks": 148800,
          "time": 221.41471,
          "velocity": 0.7874015748031497
        },
        {
          "duration": 0.3392644749999931,
          "durationTicks": 228,
          "midi": 67,
          "name": "G4",
          "ticks": 148800,
          "time": 221.41471,
          "velocity": 0.7874015748031497
        },
        {
          "duration": 0.3392644749999931,
          "durationTicks": 228,
          "midi": 79,
          "name": "G5",
          "ticks": 148800,
          "time": 221.41471,
          "velocity": 0.7874015748031497
        },
        {
          "duration": 0.33926447500002155,
          "durationTicks": 228,
          "midi": 48,
          "name": "C3",
          "ticks": 149040,
          "time": 221.7718305,
          "velocity": 0.7874015748031497
        },
        {
          "duration": 0.33926447500002155,
          "durationTicks": 228,
          "midi": 36,
          "name": "C2",
          "ticks": 149040,
          "time": 221.7718305,
          "velocity": 0.7874015748031497
        },
        {
          "duration": 0.33926447500002155,
          "durationTicks": 228,
          "midi": 64,
          "name": "E4",
          "ticks": 149040,
          "time": 221.7718305,
          "velocity": 0.7874015748031497
        },
        {
          "duration": 0.33926447500002155,
          "durationTicks": 228,
          "midi": 76,
          "name": "E5",
          "ticks": 149040,
          "time": 221.7718305,
          "velocity": 0.7874015748031497
        },
        {
          "duration": 0.33926447500002155,
          "durationTicks": 228,
          "midi": 48,
          "name": "C3",
          "ticks": 149280,
          "time": 222.128951,
          "velocity": 0.7874015748031497
        },
        {
          "duration": 0.33926447500002155,
          "durationTicks": 228,
          "midi": 36,
          "name": "C2",
          "ticks": 149280,
          "time": 222.128951,
          "velocity": 0.7874015748031497
        },
        {
          "duration": 0.33926447500002155,
          "durationTicks": 228,
          "midi": 67,
          "name": "G4",
          "ticks": 149280,
          "time": 222.128951,
          "velocity": 0.7874015748031497
        },
        {
          "duration": 0.33926447500002155,
          "durationTicks": 228,
          "midi": 79,
          "name": "G5",
          "ticks": 149280,
          "time": 222.128951,
          "velocity": 0.7874015748031497
        },
        {
          "duration": 0.33926447500002155,
          "durationTicks": 228,
          "midi": 48,
          "name": "C3",
          "ticks": 149520,
          "time": 222.4860715,
          "velocity": 0.7874015748031497
        },
        {
          "duration": 0.33926447500002155,
          "durationTicks": 228,
          "midi": 36,
          "name": "C2",
          "ticks": 149520,
          "time": 222.4860715,
          "velocity": 0.7874015748031497
        },
        {
          "duration": 0.33926447500002155,
          "durationTicks": 228,
          "midi": 69,
          "name": "A4",
          "ticks": 149520,
          "time": 222.4860715,
          "velocity": 0.7874015748031497
        },
        {
          "duration": 0.33926447500002155,
          "durationTicks": 228,
          "midi": 81,
          "name": "A5",
          "ticks": 149520,
          "time": 222.4860715,
          "velocity": 0.7874015748031497
        },
        {
          "duration": 0.3392644749999931,
          "durationTicks": 228,
          "midi": 43,
          "name": "G2",
          "ticks": 149760,
          "time": 222.84319200000002,
          "velocity": 0.7874015748031497
        },
        {
          "duration": 0.3392644749999931,
          "durationTicks": 228,
          "midi": 55,
          "name": "G3",
          "ticks": 149760,
          "time": 222.84319200000002,
          "velocity": 0.7874015748031497
        },
        {
          "duration": 0.6785289499999863,
          "durationTicks": 456,
          "midi": 71,
          "name": "B4",
          "ticks": 149760,
          "time": 222.84319200000002,
          "velocity": 0.7874015748031497
        },
        {
          "duration": 0.3392644749999931,
          "durationTicks": 228,
          "midi": 83,
          "name": "B5",
          "ticks": 149760,
          "time": 222.84319200000002,
          "velocity": 0.7874015748031497
        },
        {
          "duration": 0.33926447500002155,
          "durationTicks": 228,
          "midi": 43,
          "name": "G2",
          "ticks": 150000,
          "time": 223.2003125,
          "velocity": 0.7874015748031497
        },
        {
          "duration": 0.33926447500002155,
          "durationTicks": 228,
          "midi": 55,
          "name": "G3",
          "ticks": 150000,
          "time": 223.2003125,
          "velocity": 0.7874015748031497
        },
        {
          "duration": 0.33926447500002155,
          "durationTicks": 228,
          "midi": 43,
          "name": "G2",
          "ticks": 150240,
          "time": 223.557433,
          "velocity": 0.7874015748031497
        },
        {
          "duration": 0.33926447500002155,
          "durationTicks": 228,
          "midi": 55,
          "name": "G3",
          "ticks": 150240,
          "time": 223.557433,
          "velocity": 0.7874015748031497
        },
        {
          "duration": 0.6785289499999863,
          "durationTicks": 456,
          "midi": 67,
          "name": "G4",
          "ticks": 150240,
          "time": 223.557433,
          "velocity": 0.7874015748031497
        },
        {
          "duration": 0.33926447500002155,
          "durationTicks": 228,
          "midi": 79,
          "name": "G5",
          "ticks": 150240,
          "time": 223.557433,
          "velocity": 0.7874015748031497
        },
        {
          "duration": 0.33926447500002155,
          "durationTicks": 228,
          "midi": 43,
          "name": "G2",
          "ticks": 150480,
          "time": 223.9145535,
          "velocity": 0.7874015748031497
        },
        {
          "duration": 0.33926447500002155,
          "durationTicks": 228,
          "midi": 55,
          "name": "G3",
          "ticks": 150480,
          "time": 223.9145535,
          "velocity": 0.7874015748031497
        },
        {
          "duration": 0.3392644749999931,
          "durationTicks": 228,
          "midi": 38,
          "name": "D2",
          "ticks": 150720,
          "time": 224.27167400000002,
          "velocity": 0.7874015748031497
        },
        {
          "duration": 0.3392644749999931,
          "durationTicks": 228,
          "midi": 50,
          "name": "D3",
          "ticks": 150720,
          "time": 224.27167400000002,
          "velocity": 0.7874015748031497
        },
        {
          "duration": 0.6785289499999863,
          "durationTicks": 456,
          "midi": 66,
          "name": "F#4",
          "ticks": 150720,
          "time": 224.27167400000002,
          "velocity": 0.7874015748031497
        },
        {
          "duration": 0.3392644749999931,
          "durationTicks": 228,
          "midi": 78,
          "name": "F#5",
          "ticks": 150720,
          "time": 224.27167400000002,
          "velocity": 0.7874015748031497
        },
        {
          "duration": 0.33926447500002155,
          "durationTicks": 228,
          "midi": 38,
          "name": "D2",
          "ticks": 150960,
          "time": 224.6287945,
          "velocity": 0.7874015748031497
        },
        {
          "duration": 0.33926447500002155,
          "durationTicks": 228,
          "midi": 50,
          "name": "D3",
          "ticks": 150960,
          "time": 224.6287945,
          "velocity": 0.7874015748031497
        },
        {
          "duration": 0.33926447500002155,
          "durationTicks": 228,
          "midi": 38,
          "name": "D2",
          "ticks": 151200,
          "time": 224.985915,
          "velocity": 0.7874015748031497
        },
        {
          "duration": 0.33926447500002155,
          "durationTicks": 228,
          "midi": 50,
          "name": "D3",
          "ticks": 151200,
          "time": 224.985915,
          "velocity": 0.7874015748031497
        },
        {
          "duration": 0.33926447500002155,
          "durationTicks": 228,
          "midi": 69,
          "name": "A4",
          "ticks": 151200,
          "time": 224.985915,
          "velocity": 0.7874015748031497
        },
        {
          "duration": 0.33926447500002155,
          "durationTicks": 228,
          "midi": 81,
          "name": "A5",
          "ticks": 151200,
          "time": 224.985915,
          "velocity": 0.7874015748031497
        },
        {
          "duration": 0.33926447500002155,
          "durationTicks": 228,
          "midi": 38,
          "name": "D2",
          "ticks": 151440,
          "time": 225.3430355,
          "velocity": 0.7874015748031497
        },
        {
          "duration": 0.33926447500002155,
          "durationTicks": 228,
          "midi": 50,
          "name": "D3",
          "ticks": 151440,
          "time": 225.3430355,
          "velocity": 0.7874015748031497
        },
        {
          "duration": 0.33926447500002155,
          "durationTicks": 228,
          "midi": 66,
          "name": "F#4",
          "ticks": 151440,
          "time": 225.3430355,
          "velocity": 0.7874015748031497
        },
        {
          "duration": 0.33926447500002155,
          "durationTicks": 228,
          "midi": 78,
          "name": "F#5",
          "ticks": 151440,
          "time": 225.3430355,
          "velocity": 0.7874015748031497
        },
        {
          "duration": 0.33926447500002155,
          "durationTicks": 228,
          "midi": 52,
          "name": "E3",
          "ticks": 151680,
          "time": 225.700156,
          "velocity": 0.7874015748031497
        },
        {
          "duration": 0.33926447500002155,
          "durationTicks": 228,
          "midi": 40,
          "name": "E2",
          "ticks": 151680,
          "time": 225.700156,
          "velocity": 0.7874015748031497
        },
        {
          "duration": 0.6785289500000147,
          "durationTicks": 456,
          "midi": 64,
          "name": "E4",
          "ticks": 151680,
          "time": 225.700156,
          "velocity": 0.7874015748031497
        },
        {
          "duration": 0.33926447500002155,
          "durationTicks": 228,
          "midi": 76,
          "name": "E5",
          "ticks": 151680,
          "time": 225.700156,
          "velocity": 0.7874015748031497
        },
        {
          "duration": 0.33926447500002155,
          "durationTicks": 228,
          "midi": 52,
          "name": "E3",
          "ticks": 151920,
          "time": 226.0572765,
          "velocity": 0.7874015748031497
        },
        {
          "duration": 0.33926447500002155,
          "durationTicks": 228,
          "midi": 40,
          "name": "E2",
          "ticks": 151920,
          "time": 226.0572765,
          "velocity": 0.7874015748031497
        },
        {
          "duration": 0.33926447500002155,
          "durationTicks": 228,
          "midi": 52,
          "name": "E3",
          "ticks": 152160,
          "time": 226.414397,
          "velocity": 0.7874015748031497
        },
        {
          "duration": 0.33926447500002155,
          "durationTicks": 228,
          "midi": 40,
          "name": "E2",
          "ticks": 152160,
          "time": 226.414397,
          "velocity": 0.7874015748031497
        },
        {
          "duration": 0.33926447500002155,
          "durationTicks": 228,
          "midi": 67,
          "name": "G4",
          "ticks": 152160,
          "time": 226.414397,
          "velocity": 0.7874015748031497
        },
        {
          "duration": 0.33926447500002155,
          "durationTicks": 228,
          "midi": 79,
          "name": "G5",
          "ticks": 152160,
          "time": 226.414397,
          "velocity": 0.7874015748031497
        },
        {
          "duration": 0.3392644749999931,
          "durationTicks": 228,
          "midi": 52,
          "name": "E3",
          "ticks": 152400,
          "time": 226.77151750000002,
          "velocity": 0.7874015748031497
        },
        {
          "duration": 0.3392644749999931,
          "durationTicks": 228,
          "midi": 40,
          "name": "E2",
          "ticks": 152400,
          "time": 226.77151750000002,
          "velocity": 0.7874015748031497
        },
        {
          "duration": 0.3392644749999931,
          "durationTicks": 228,
          "midi": 64,
          "name": "E4",
          "ticks": 152400,
          "time": 226.77151750000002,
          "velocity": 0.7874015748031497
        },
        {
          "duration": 0.3392644749999931,
          "durationTicks": 228,
          "midi": 76,
          "name": "E5",
          "ticks": 152400,
          "time": 226.77151750000002,
          "velocity": 0.7874015748031497
        },
        {
          "duration": 0.33926447500002155,
          "durationTicks": 228,
          "midi": 48,
          "name": "C3",
          "ticks": 152640,
          "time": 227.128638,
          "velocity": 0.7874015748031497
        },
        {
          "duration": 0.33926447500002155,
          "durationTicks": 228,
          "midi": 36,
          "name": "C2",
          "ticks": 152640,
          "time": 227.128638,
          "velocity": 0.7874015748031497
        },
        {
          "duration": 0.33926447500002155,
          "durationTicks": 228,
          "midi": 67,
          "name": "G4",
          "ticks": 152640,
          "time": 227.128638,
          "velocity": 0.7874015748031497
        },
        {
          "duration": 0.33926447500002155,
          "durationTicks": 228,
          "midi": 79,
          "name": "G5",
          "ticks": 152640,
          "time": 227.128638,
          "velocity": 0.7874015748031497
        },
        {
          "duration": 0.33926447500002155,
          "durationTicks": 228,
          "midi": 48,
          "name": "C3",
          "ticks": 152880,
          "time": 227.4857585,
          "velocity": 0.7874015748031497
        },
        {
          "duration": 0.33926447500002155,
          "durationTicks": 228,
          "midi": 36,
          "name": "C2",
          "ticks": 152880,
          "time": 227.4857585,
          "velocity": 0.7874015748031497
        },
        {
          "duration": 0.33926447500002155,
          "durationTicks": 228,
          "midi": 64,
          "name": "E4",
          "ticks": 152880,
          "time": 227.4857585,
          "velocity": 0.7874015748031497
        },
        {
          "duration": 0.33926447500002155,
          "durationTicks": 228,
          "midi": 76,
          "name": "E5",
          "ticks": 152880,
          "time": 227.4857585,
          "velocity": 0.7874015748031497
        },
        {
          "duration": 0.33926447500002155,
          "durationTicks": 228,
          "midi": 48,
          "name": "C3",
          "ticks": 153120,
          "time": 227.842879,
          "velocity": 0.7874015748031497
        },
        {
          "duration": 0.33926447500002155,
          "durationTicks": 228,
          "midi": 36,
          "name": "C2",
          "ticks": 153120,
          "time": 227.842879,
          "velocity": 0.7874015748031497
        },
        {
          "duration": 0.33926447500002155,
          "durationTicks": 228,
          "midi": 67,
          "name": "G4",
          "ticks": 153120,
          "time": 227.842879,
          "velocity": 0.7874015748031497
        },
        {
          "duration": 0.33926447500002155,
          "durationTicks": 228,
          "midi": 79,
          "name": "G5",
          "ticks": 153120,
          "time": 227.842879,
          "velocity": 0.7874015748031497
        },
        {
          "duration": 0.3392644749999931,
          "durationTicks": 228,
          "midi": 48,
          "name": "C3",
          "ticks": 153360,
          "time": 228.19999950000002,
          "velocity": 0.7874015748031497
        },
        {
          "duration": 0.3392644749999931,
          "durationTicks": 228,
          "midi": 36,
          "name": "C2",
          "ticks": 153360,
          "time": 228.19999950000002,
          "velocity": 0.7874015748031497
        },
        {
          "duration": 0.3392644749999931,
          "durationTicks": 228,
          "midi": 69,
          "name": "A4",
          "ticks": 153360,
          "time": 228.19999950000002,
          "velocity": 0.7874015748031497
        },
        {
          "duration": 0.3392644749999931,
          "durationTicks": 228,
          "midi": 81,
          "name": "A5",
          "ticks": 153360,
          "time": 228.19999950000002,
          "velocity": 0.7874015748031497
        },
        {
          "duration": 0.6785289499999863,
          "durationTicks": 456,
          "midi": 71,
          "name": "B4",
          "ticks": 153600,
          "time": 228.55712,
          "velocity": 0.7874015748031497
        },
        {
          "duration": 0.33926447500002155,
          "durationTicks": 228,
          "midi": 43,
          "name": "G2",
          "ticks": 153600,
          "time": 228.55712,
          "velocity": 0.7874015748031497
        },
        {
          "duration": 0.33926447500002155,
          "durationTicks": 228,
          "midi": 55,
          "name": "G3",
          "ticks": 153600,
          "time": 228.55712,
          "velocity": 0.7874015748031497
        },
        {
          "duration": 0.33926447500002155,
          "durationTicks": 228,
          "midi": 83,
          "name": "B5",
          "ticks": 153600,
          "time": 228.55712,
          "velocity": 0.7874015748031497
        },
        {
          "duration": 0.33926447500002155,
          "durationTicks": 228,
          "midi": 43,
          "name": "G2",
          "ticks": 153840,
          "time": 228.9142405,
          "velocity": 0.7874015748031497
        },
        {
          "duration": 0.33926447500002155,
          "durationTicks": 228,
          "midi": 55,
          "name": "G3",
          "ticks": 153840,
          "time": 228.9142405,
          "velocity": 0.7874015748031497
        },
        {
          "duration": 0.6785289499999863,
          "durationTicks": 456,
          "midi": 67,
          "name": "G4",
          "ticks": 154080,
          "time": 229.271361,
          "velocity": 0.7874015748031497
        },
        {
          "duration": 0.33926447500002155,
          "durationTicks": 228,
          "midi": 43,
          "name": "G2",
          "ticks": 154080,
          "time": 229.271361,
          "velocity": 0.7874015748031497
        },
        {
          "duration": 0.33926447500002155,
          "durationTicks": 228,
          "midi": 55,
          "name": "G3",
          "ticks": 154080,
          "time": 229.271361,
          "velocity": 0.7874015748031497
        },
        {
          "duration": 0.33926447500002155,
          "durationTicks": 228,
          "midi": 79,
          "name": "G5",
          "ticks": 154080,
          "time": 229.271361,
          "velocity": 0.7874015748031497
        },
        {
          "duration": 0.33926447500002155,
          "durationTicks": 228,
          "midi": 43,
          "name": "G2",
          "ticks": 154320,
          "time": 229.6284815,
          "velocity": 0.7874015748031497
        },
        {
          "duration": 0.33926447500002155,
          "durationTicks": 228,
          "midi": 55,
          "name": "G3",
          "ticks": 154320,
          "time": 229.6284815,
          "velocity": 0.7874015748031497
        },
        {
          "duration": 0.6785289499999863,
          "durationTicks": 456,
          "midi": 66,
          "name": "F#4",
          "ticks": 154560,
          "time": 229.985602,
          "velocity": 0.7874015748031497
        },
        {
          "duration": 0.33926447500002155,
          "durationTicks": 228,
          "midi": 38,
          "name": "D2",
          "ticks": 154560,
          "time": 229.985602,
          "velocity": 0.7874015748031497
        },
        {
          "duration": 0.33926447500002155,
          "durationTicks": 228,
          "midi": 50,
          "name": "D3",
          "ticks": 154560,
          "time": 229.985602,
          "velocity": 0.7874015748031497
        },
        {
          "duration": 0.33926447500002155,
          "durationTicks": 228,
          "midi": 78,
          "name": "F#5",
          "ticks": 154560,
          "time": 229.985602,
          "velocity": 0.7874015748031497
        },
        {
          "duration": 0.33926447500002155,
          "durationTicks": 228,
          "midi": 38,
          "name": "D2",
          "ticks": 154800,
          "time": 230.3427225,
          "velocity": 0.7874015748031497
        },
        {
          "duration": 0.33926447500002155,
          "durationTicks": 228,
          "midi": 50,
          "name": "D3",
          "ticks": 154800,
          "time": 230.3427225,
          "velocity": 0.7874015748031497
        },
        {
          "duration": 0.3392644749999931,
          "durationTicks": 228,
          "midi": 69,
          "name": "A4",
          "ticks": 155040,
          "time": 230.69984300000002,
          "velocity": 0.7874015748031497
        },
        {
          "duration": 0.3392644749999931,
          "durationTicks": 228,
          "midi": 38,
          "name": "D2",
          "ticks": 155040,
          "time": 230.69984300000002,
          "velocity": 0.7874015748031497
        },
        {
          "duration": 0.3392644749999931,
          "durationTicks": 228,
          "midi": 50,
          "name": "D3",
          "ticks": 155040,
          "time": 230.69984300000002,
          "velocity": 0.7874015748031497
        },
        {
          "duration": 0.3392644749999931,
          "durationTicks": 228,
          "midi": 81,
          "name": "A5",
          "ticks": 155040,
          "time": 230.69984300000002,
          "velocity": 0.7874015748031497
        },
        {
          "duration": 0.33926447500002155,
          "durationTicks": 228,
          "midi": 66,
          "name": "F#4",
          "ticks": 155280,
          "time": 231.0569635,
          "velocity": 0.7874015748031497
        },
        {
          "duration": 0.33926447500002155,
          "durationTicks": 228,
          "midi": 38,
          "name": "D2",
          "ticks": 155280,
          "time": 231.0569635,
          "velocity": 0.7874015748031497
        },
        {
          "duration": 0.33926447500002155,
          "durationTicks": 228,
          "midi": 50,
          "name": "D3",
          "ticks": 155280,
          "time": 231.0569635,
          "velocity": 0.7874015748031497
        },
        {
          "duration": 0.33926447500002155,
          "durationTicks": 228,
          "midi": 78,
          "name": "F#5",
          "ticks": 155280,
          "time": 231.0569635,
          "velocity": 0.7874015748031497
        },
        {
          "duration": 0.33926447500002155,
          "durationTicks": 228,
          "midi": 52,
          "name": "E3",
          "ticks": 155520,
          "time": 231.414084,
          "velocity": 0.7874015748031497
        },
        {
          "duration": 0.33926447500002155,
          "durationTicks": 228,
          "midi": 40,
          "name": "E2",
          "ticks": 155520,
          "time": 231.414084,
          "velocity": 0.7874015748031497
        },
        {
          "duration": 1.3927699500000017,
          "durationTicks": 936,
          "midi": 67,
          "name": "G4",
          "ticks": 155520,
          "time": 231.414084,
          "velocity": 0.7874015748031497
        },
        {
          "duration": 0.33926447500002155,
          "durationTicks": 228,
          "midi": 79,
          "name": "G5",
          "ticks": 155520,
          "time": 231.414084,
          "velocity": 0.7874015748031497
        },
        {
          "duration": 0.33926447500002155,
          "durationTicks": 228,
          "midi": 52,
          "name": "E3",
          "ticks": 155760,
          "time": 231.7712045,
          "velocity": 0.7874015748031497
        },
        {
          "duration": 0.33926447500002155,
          "durationTicks": 228,
          "midi": 40,
          "name": "E2",
          "ticks": 155760,
          "time": 231.7712045,
          "velocity": 0.7874015748031497
        },
        {
          "duration": 0.3392644749999931,
          "durationTicks": 228,
          "midi": 52,
          "name": "E3",
          "ticks": 156000,
          "time": 232.12832500000002,
          "velocity": 0.7874015748031497
        },
        {
          "duration": 0.3392644749999931,
          "durationTicks": 228,
          "midi": 40,
          "name": "E2",
          "ticks": 156000,
          "time": 232.12832500000002,
          "velocity": 0.7874015748031497
        },
        {
          "duration": 0.33926447500002155,
          "durationTicks": 228,
          "midi": 52,
          "name": "E3",
          "ticks": 156240,
          "time": 232.4854455,
          "velocity": 0.7874015748031497
        },
        {
          "duration": 0.33926447500002155,
          "durationTicks": 228,
          "midi": 40,
          "name": "E2",
          "ticks": 156240,
          "time": 232.4854455,
          "velocity": 0.7874015748031497
        },
        {
          "duration": 0.33926447500002155,
          "durationTicks": 228,
          "midi": 52,
          "name": "E3",
          "ticks": 156480,
          "time": 232.842566,
          "velocity": 0.7874015748031497
        },
        {
          "duration": 0.33926447500002155,
          "durationTicks": 228,
          "midi": 40,
          "name": "E2",
          "ticks": 156480,
          "time": 232.842566,
          "velocity": 0.7874015748031497
        },
        {
          "duration": 0.33926447500002155,
          "durationTicks": 228,
          "midi": 67,
          "name": "G4",
          "ticks": 156720,
          "time": 233.1996865,
          "velocity": 0.7874015748031497
        },
        {
          "duration": 0.33926447500002155,
          "durationTicks": 228,
          "midi": 52,
          "name": "E3",
          "ticks": 156720,
          "time": 233.1996865,
          "velocity": 0.7874015748031497
        },
        {
          "duration": 0.33926447500002155,
          "durationTicks": 228,
          "midi": 40,
          "name": "E2",
          "ticks": 156720,
          "time": 233.1996865,
          "velocity": 0.7874015748031497
        },
        {
          "duration": 0.33926447500002155,
          "durationTicks": 228,
          "midi": 74,
          "name": "D5",
          "ticks": 156960,
          "time": 233.556807,
          "velocity": 0.7874015748031497
        },
        {
          "duration": 0.33926447500002155,
          "durationTicks": 228,
          "midi": 52,
          "name": "E3",
          "ticks": 156960,
          "time": 233.556807,
          "velocity": 0.7874015748031497
        },
        {
          "duration": 0.33926447500002155,
          "durationTicks": 228,
          "midi": 40,
          "name": "E2",
          "ticks": 156960,
          "time": 233.556807,
          "velocity": 0.7874015748031497
        },
        {
          "duration": 0.33926447500002155,
          "durationTicks": 228,
          "midi": 71,
          "name": "B4",
          "ticks": 157200,
          "time": 233.9139275,
          "velocity": 0.7874015748031497
        },
        {
          "duration": 0.33926447500002155,
          "durationTicks": 228,
          "midi": 52,
          "name": "E3",
          "ticks": 157200,
          "time": 233.9139275,
          "velocity": 0.7874015748031497
        },
        {
          "duration": 0.33926447500002155,
          "durationTicks": 228,
          "midi": 40,
          "name": "E2",
          "ticks": 157200,
          "time": 233.9139275,
          "velocity": 0.7874015748031497
        },
        {
          "duration": 0.33926447500002155,
          "durationTicks": 228,
          "midi": 48,
          "name": "C3",
          "ticks": 157440,
          "time": 234.271048,
          "velocity": 0.7874015748031497
        },
        {
          "duration": 0.33926447500002155,
          "durationTicks": 228,
          "midi": 36,
          "name": "C2",
          "ticks": 157440,
          "time": 234.271048,
          "velocity": 0.7874015748031497
        },
        {
          "duration": 0.6785289499999863,
          "durationTicks": 456,
          "midi": 72,
          "name": "C5",
          "ticks": 157440,
          "time": 234.271048,
          "velocity": 0.7874015748031497
        },
        {
          "duration": 0.3392644749999931,
          "durationTicks": 228,
          "midi": 48,
          "name": "C3",
          "ticks": 157680,
          "time": 234.62816850000002,
          "velocity": 0.7874015748031497
        },
        {
          "duration": 0.3392644749999931,
          "durationTicks": 228,
          "midi": 36,
          "name": "C2",
          "ticks": 157680,
          "time": 234.62816850000002,
          "velocity": 0.7874015748031497
        },
        {
          "duration": 0.33926447500002155,
          "durationTicks": 228,
          "midi": 48,
          "name": "C3",
          "ticks": 157920,
          "time": 234.985289,
          "velocity": 0.7874015748031497
        },
        {
          "duration": 0.33926447500002155,
          "durationTicks": 228,
          "midi": 36,
          "name": "C2",
          "ticks": 157920,
          "time": 234.985289,
          "velocity": 0.7874015748031497
        },
        {
          "duration": 0.33926447500002155,
          "durationTicks": 228,
          "midi": 48,
          "name": "C3",
          "ticks": 158160,
          "time": 235.3424095,
          "velocity": 0.7874015748031497
        },
        {
          "duration": 0.33926447500002155,
          "durationTicks": 228,
          "midi": 36,
          "name": "C2",
          "ticks": 158160,
          "time": 235.3424095,
          "velocity": 0.7874015748031497
        },
        {
          "duration": 0.33926447500002155,
          "durationTicks": 228,
          "midi": 48,
          "name": "C3",
          "ticks": 158400,
          "time": 235.69953,
          "velocity": 0.7874015748031497
        },
        {
          "duration": 0.33926447500002155,
          "durationTicks": 228,
          "midi": 36,
          "name": "C2",
          "ticks": 158400,
          "time": 235.69953,
          "velocity": 0.7874015748031497
        },
        {
          "duration": 0.6785289499999863,
          "durationTicks": 456,
          "midi": 71,
          "name": "B4",
          "ticks": 158400,
          "time": 235.69953,
          "velocity": 0.7874015748031497
        },
        {
          "duration": 0.3392644749999931,
          "durationTicks": 228,
          "midi": 48,
          "name": "C3",
          "ticks": 158640,
          "time": 236.05665050000002,
          "velocity": 0.7874015748031497
        },
        {
          "duration": 0.3392644749999931,
          "durationTicks": 228,
          "midi": 36,
          "name": "C2",
          "ticks": 158640,
          "time": 236.05665050000002,
          "velocity": 0.7874015748031497
        },
        {
          "duration": 0.33926447500002155,
          "durationTicks": 228,
          "midi": 48,
          "name": "C3",
          "ticks": 158880,
          "time": 236.413771,
          "velocity": 0.7874015748031497
        },
        {
          "duration": 0.33926447500002155,
          "durationTicks": 228,
          "midi": 36,
          "name": "C2",
          "ticks": 158880,
          "time": 236.413771,
          "velocity": 0.7874015748031497
        },
        {
          "duration": 0.6785289499999863,
          "durationTicks": 456,
          "midi": 69,
          "name": "A4",
          "ticks": 158880,
          "time": 236.413771,
          "velocity": 0.7874015748031497
        },
        {
          "duration": 0.33926447500002155,
          "durationTicks": 228,
          "midi": 48,
          "name": "C3",
          "ticks": 159120,
          "time": 236.7708915,
          "velocity": 0.7874015748031497
        },
        {
          "duration": 0.33926447500002155,
          "durationTicks": 228,
          "midi": 36,
          "name": "C2",
          "ticks": 159120,
          "time": 236.7708915,
          "velocity": 0.7874015748031497
        },
        {
          "duration": 1.3927699499999733,
          "durationTicks": 936,
          "midi": 71,
          "name": "B4",
          "ticks": 159360,
          "time": 237.128012,
          "velocity": 0.7874015748031497
        },
        {
          "duration": 0.33926447500002155,
          "durationTicks": 228,
          "midi": 43,
          "name": "G2",
          "ticks": 159360,
          "time": 237.128012,
          "velocity": 0.7874015748031497
        },
        {
          "duration": 0.33926447500002155,
          "durationTicks": 228,
          "midi": 55,
          "name": "G3",
          "ticks": 159360,
          "time": 237.128012,
          "velocity": 0.7874015748031497
        },
        {
          "duration": 0.33926447500002155,
          "durationTicks": 228,
          "midi": 43,
          "name": "G2",
          "ticks": 159600,
          "time": 237.4851325,
          "velocity": 0.7874015748031497
        },
        {
          "duration": 0.33926447500002155,
          "durationTicks": 228,
          "midi": 55,
          "name": "G3",
          "ticks": 159600,
          "time": 237.4851325,
          "velocity": 0.7874015748031497
        },
        {
          "duration": 0.33926447500002155,
          "durationTicks": 228,
          "midi": 43,
          "name": "G2",
          "ticks": 159840,
          "time": 237.842253,
          "velocity": 0.7874015748031497
        },
        {
          "duration": 0.33926447500002155,
          "durationTicks": 228,
          "midi": 55,
          "name": "G3",
          "ticks": 159840,
          "time": 237.842253,
          "velocity": 0.7874015748031497
        },
        {
          "duration": 0.33926447500002155,
          "durationTicks": 228,
          "midi": 43,
          "name": "G2",
          "ticks": 160080,
          "time": 238.1993735,
          "velocity": 0.7874015748031497
        },
        {
          "duration": 0.33926447500002155,
          "durationTicks": 228,
          "midi": 55,
          "name": "G3",
          "ticks": 160080,
          "time": 238.1993735,
          "velocity": 0.7874015748031497
        },
        {
          "duration": 0.3392644749999931,
          "durationTicks": 228,
          "midi": 43,
          "name": "G2",
          "ticks": 160320,
          "time": 238.55649400000001,
          "velocity": 0.7874015748031497
        },
        {
          "duration": 0.3392644749999931,
          "durationTicks": 228,
          "midi": 55,
          "name": "G3",
          "ticks": 160320,
          "time": 238.55649400000001,
          "velocity": 0.7874015748031497
        },
        {
          "duration": 0.33926447500002155,
          "durationTicks": 228,
          "midi": 67,
          "name": "G4",
          "ticks": 160560,
          "time": 238.9136145,
          "velocity": 0.7874015748031497
        },
        {
          "duration": 0.33926447500002155,
          "durationTicks": 228,
          "midi": 43,
          "name": "G2",
          "ticks": 160560,
          "time": 238.9136145,
          "velocity": 0.7874015748031497
        },
        {
          "duration": 0.33926447500002155,
          "durationTicks": 228,
          "midi": 55,
          "name": "G3",
          "ticks": 160560,
          "time": 238.9136145,
          "velocity": 0.7874015748031497
        },
        {
          "duration": 0.33926447500002155,
          "durationTicks": 228,
          "midi": 74,
          "name": "D5",
          "ticks": 160800,
          "time": 239.270735,
          "velocity": 0.7874015748031497
        },
        {
          "duration": 0.33926447500002155,
          "durationTicks": 228,
          "midi": 43,
          "name": "G2",
          "ticks": 160800,
          "time": 239.270735,
          "velocity": 0.7874015748031497
        },
        {
          "duration": 0.33926447500002155,
          "durationTicks": 228,
          "midi": 55,
          "name": "G3",
          "ticks": 160800,
          "time": 239.270735,
          "velocity": 0.7874015748031497
        },
        {
          "duration": 0.33926447500002155,
          "durationTicks": 228,
          "midi": 71,
          "name": "B4",
          "ticks": 161040,
          "time": 239.6278555,
          "velocity": 0.7874015748031497
        },
        {
          "duration": 0.33926447500002155,
          "durationTicks": 228,
          "midi": 43,
          "name": "G2",
          "ticks": 161040,
          "time": 239.6278555,
          "velocity": 0.7874015748031497
        },
        {
          "duration": 0.33926447500002155,
          "durationTicks": 228,
          "midi": 55,
          "name": "G3",
          "ticks": 161040,
          "time": 239.6278555,
          "velocity": 0.7874015748031497
        },
        {
          "duration": 0.6785289499999863,
          "durationTicks": 456,
          "midi": 72,
          "name": "C5",
          "ticks": 161280,
          "time": 239.98497600000002,
          "velocity": 0.7874015748031497
        },
        {
          "duration": 0.3392644749999931,
          "durationTicks": 228,
          "midi": 38,
          "name": "D2",
          "ticks": 161280,
          "time": 239.98497600000002,
          "velocity": 0.7874015748031497
        },
        {
          "duration": 0.3392644749999931,
          "durationTicks": 228,
          "midi": 50,
          "name": "D3",
          "ticks": 161280,
          "time": 239.98497600000002,
          "velocity": 0.7874015748031497
        },
        {
          "duration": 0.33926447500002155,
          "durationTicks": 228,
          "midi": 38,
          "name": "D2",
          "ticks": 161520,
          "time": 240.3420965,
          "velocity": 0.7874015748031497
        },
        {
          "duration": 0.33926447500002155,
          "durationTicks": 228,
          "midi": 50,
          "name": "D3",
          "ticks": 161520,
          "time": 240.3420965,
          "velocity": 0.7874015748031497
        },
        {
          "duration": 0.33926447500002155,
          "durationTicks": 228,
          "midi": 38,
          "name": "D2",
          "ticks": 161760,
          "time": 240.699217,
          "velocity": 0.7874015748031497
        },
        {
          "duration": 0.33926447500002155,
          "durationTicks": 228,
          "midi": 50,
          "name": "D3",
          "ticks": 161760,
          "time": 240.699217,
          "velocity": 0.7874015748031497
        },
        {
          "duration": 0.33926447500002155,
          "durationTicks": 228,
          "midi": 38,
          "name": "D2",
          "ticks": 162000,
          "time": 241.0563375,
          "velocity": 0.7874015748031497
        },
        {
          "duration": 0.33926447500002155,
          "durationTicks": 228,
          "midi": 50,
          "name": "D3",
          "ticks": 162000,
          "time": 241.0563375,
          "velocity": 0.7874015748031497
        },
        {
          "duration": 0.6785289500000147,
          "durationTicks": 456,
          "midi": 71,
          "name": "B4",
          "ticks": 162240,
          "time": 241.413458,
          "velocity": 0.7874015748031497
        },
        {
          "duration": 0.33926447500002155,
          "durationTicks": 228,
          "midi": 38,
          "name": "D2",
          "ticks": 162240,
          "time": 241.413458,
          "velocity": 0.7874015748031497
        },
        {
          "duration": 0.33926447500002155,
          "durationTicks": 228,
          "midi": 50,
          "name": "D3",
          "ticks": 162240,
          "time": 241.413458,
          "velocity": 0.7874015748031497
        },
        {
          "duration": 0.33926447500002155,
          "durationTicks": 228,
          "midi": 38,
          "name": "D2",
          "ticks": 162480,
          "time": 241.7705785,
          "velocity": 0.7874015748031497
        },
        {
          "duration": 0.33926447500002155,
          "durationTicks": 228,
          "midi": 50,
          "name": "D3",
          "ticks": 162480,
          "time": 241.7705785,
          "velocity": 0.7874015748031497
        },
        {
          "duration": 0.6785289499999863,
          "durationTicks": 456,
          "midi": 69,
          "name": "A4",
          "ticks": 162720,
          "time": 242.127699,
          "velocity": 0.7874015748031497
        },
        {
          "duration": 0.33926447500002155,
          "durationTicks": 228,
          "midi": 38,
          "name": "D2",
          "ticks": 162720,
          "time": 242.127699,
          "velocity": 0.7874015748031497
        },
        {
          "duration": 0.33926447500002155,
          "durationTicks": 228,
          "midi": 50,
          "name": "D3",
          "ticks": 162720,
          "time": 242.127699,
          "velocity": 0.7874015748031497
        },
        {
          "duration": 0.3392644749999931,
          "durationTicks": 228,
          "midi": 38,
          "name": "D2",
          "ticks": 162960,
          "time": 242.48481950000001,
          "velocity": 0.7874015748031497
        },
        {
          "duration": 0.3392644749999931,
          "durationTicks": 228,
          "midi": 50,
          "name": "D3",
          "ticks": 162960,
          "time": 242.48481950000001,
          "velocity": 0.7874015748031497
        },
        {
          "duration": 2.821251950000004,
          "durationTicks": 1896,
          "midi": 71,
          "name": "B4",
          "ticks": 163200,
          "time": 242.84194,
          "velocity": 0.7874015748031497
        },
        {
          "duration": 2.821251950000004,
          "durationTicks": 1896,
          "midi": 52,
          "name": "E3",
          "ticks": 163200,
          "time": 242.84194,
          "velocity": 0.7874015748031497
        },
        {
          "duration": 2.821251950000004,
          "durationTicks": 1896,
          "midi": 40,
          "name": "E2",
          "ticks": 163200,
          "time": 242.84194,
          "velocity": 0.7874015748031497
        }
      ],
      "endOfTrackTicks": 167040
    }
  ]
}
