{
  "header": {
    "keySignatures": [
      {
        "key": "Eb",
        "scale": "minor",
        "ticks": 0
      }
    ],
    "meta": [],
    "name": "",
    "ppq": 1024,
    "tempos": [
      {
        "bpm": 79.99957333560887,
        "ticks": 0
      },
      {
        "bpm": 79.99957333560887,
        "ticks": 0
      },
      {
        "bpm": 79.97984507904008,
        "ticks": 0
      },
      {
        "bpm": 79.97984507904008,
        "ticks": 18432
      },
      {
        "bpm": 79.45241396296723,
        "ticks": 18688
      },
      {
        "bpm": 78.98395046126628,
        "ticks": 18944
      },
      {
        "bpm": 78.45639655001072,
        "ticks": 19200
      },
      {
        "bpm": 77.98791187365958,
        "ticks": 19456
      },
      {
        "bpm": 77.46043385589003,
        "ticks": 19712
      },
      {
        "bpm": 76.99187607387627,
        "ticks": 19968
      },
      {
        "bpm": 76.46438862260874,
        "ticks": 20224
      },
      {
        "bpm": 79.97984507904008,
        "ticks": 20736
      },
      {
        "bpm": 79.97984507904008,
        "ticks": 43008
      },
      {
        "bpm": 79.45241396296723,
        "ticks": 43264
      },
      {
        "bpm": 79.45241396296723,
        "ticks": 43520
      },
      {
        "bpm": 78.98395046126628,
        "ticks": 43776
      },
      {
        "bpm": 78.98395046126628,
        "ticks": 44032
      },
      {
        "bpm": 78.45639655001072,
        "ticks": 44288
      },
      {
        "bpm": 78.45639655001072,
        "ticks": 44544
      },
      {
        "bpm": 77.98791187365958,
        "ticks": 44800
      },
      {
        "bpm": 79.97984507904008,
        "ticks": 45056
      },
      {
        "bpm": 79.97984507904008,
        "ticks": 59392
      },
      {
        "bpm": 79.45241396296723,
        "ticks": 59648
      },
      {
        "bpm": 79.45241396296723,
        "ticks": 59904
      },
      {
        "bpm": 78.98395046126628,
        "ticks": 60160
      },
      {
        "bpm": 78.98395046126628,
        "ticks": 60416
      },
      {
        "bpm": 78.45639655001072,
        "ticks": 60672
      },
      {
        "bpm": 78.45639655001072,
        "ticks": 60928
      },
      {
        "bpm": 77.98791187365958,
        "ticks": 61184
      },
      {
        "bpm": 79.97984507904008,
        "ticks": 61440
      },
      {
        "bpm": 79.99957333560887,
        "ticks": 86016
      },
      {
        "bpm": 79.97984507904008,
        "ticks": 86016
      },
      {
        "bpm": 79.97984507904008,
        "ticks": 104448
      },
      {
        "bpm": 79.45241396296723,
        "ticks": 104704
      },
      {
        "bpm": 78.98395046126628,
        "ticks": 104960
      },
      {
        "bpm": 78.45639655001072,
        "ticks": 105216
      },
      {
        "bpm": 77.98791187365958,
        "ticks": 105472
      },
      {
        "bpm": 77.46043385589003,
        "ticks": 105728
      },
      {
        "bpm": 76.99187607387627,
        "ticks": 105984
      },
      {
        "bpm": 76.46438862260874,
        "ticks": 106240
      },
      {
        "bpm": 79.97984507904008,
        "ticks": 106752
      },
      {
        "bpm": 79.97984507904008,
        "ticks": 129024
      },
      {
        "bpm": 79.45241396296723,
        "ticks": 129280
      },
      {
        "bpm": 79.45241396296723,
        "ticks": 129536
      },
      {
        "bpm": 78.98395046126628,
        "ticks": 129792
      },
      {
        "bpm": 78.98395046126628,
        "ticks": 130048
      },
      {
        "bpm": 78.45639655001072,
        "ticks": 130304
      },
      {
        "bpm": 78.45639655001072,
        "ticks": 130560
      },
      {
        "bpm": 77.98791187365958,
        "ticks": 130816
      },
      {
        "bpm": 79.97984507904008,
        "ticks": 131072
      },
      {
        "bpm": 79.97984507904008,
        "ticks": 145408
      },
      {
        "bpm": 79.45241396296723,
        "ticks": 145664
      },
      {
        "bpm": 79.45241396296723,
        "ticks": 145920
      },
      {
        "bpm": 78.98395046126628,
        "ticks": 146176
      },
      {
        "bpm": 78.98395046126628,
        "ticks": 146432
      },
      {
        "bpm": 78.45639655001072,
        "ticks": 146688
      },
      {
        "bpm": 78.45639655001072,
        "ticks": 146944
      },
      {
        "bpm": 77.98791187365958,
        "ticks": 147200
      },
      {
        "bpm": 79.97984507904008,
        "ticks": 147456
      }
    ],
    "timeSignatures": [
      {
        "ticks": 0,
        "timeSignature": [
          4,
          4
        ],
        "measures": 0
      }
    ]
  },
  "tracks": [
    {
      "channel": 0,
      "controlChanges": {
        "6": [
          {
            "number": 6,
            "ticks": 4,
            "time": 0.0029304257812500004,
            "value": 0.09448818897637795
          },
          {
            "number": 6,
            "ticks": 4,
            "time": 0.0029304257812500004,
            "value": 0.09448818897637795
          },
          {
            "number": 6,
            "ticks": 86020,
            "time": 63.100058175781264,
            "value": 0.09448818897637795
          },
          {
            "number": 6,
            "ticks": 86020,
            "time": 63.100058175781264,
            "value": 0.09448818897637795
          }
        ],
        "7": [
          {
            "number": 7,
            "ticks": 0,
            "time": 0,
            "value": 0.7952755905511811
          },
          {
            "number": 7,
            "ticks": 0,
            "time": 0,
            "value": 0.8031496062992126
          },
          {
            "number": 7,
            "ticks": 0,
            "time": 0,
            "value": 0.8661417322834646
          },
          {
            "number": 7,
            "ticks": 10,
            "time": 0.007326064453125001,
            "value": 0.8031496062992126
          },
          {
            "number": 7,
            "ticks": 4052,
            "time": 2.9685213164062505,
            "value": 0.8661417322834646
          },
          {
            "number": 7,
            "ticks": 86016,
            "time": 63.09712775000001,
            "value": 0.8031496062992126
          },
          {
            "number": 7,
            "ticks": 86016,
            "time": 63.09712775000001,
            "value": 0.8661417322834646
          },
          {
            "number": 7,
            "ticks": 86026,
            "time": 63.10445381445314,
            "value": 0.8031496062992126
          },
          {
            "number": 7,
            "ticks": 90068,
            "time": 66.06564906640627,
            "value": 0.8661417322834646
          }
        ],
        "10": [
          {
            "number": 10,
            "ticks": 0,
            "time": 0,
            "value": 0.5039370078740157
          }
        ],
        "38": [
          {
            "number": 38,
            "ticks": 5,
            "time": 0.0036630322265625006,
            "value": 0
          },
          {
            "number": 38,
            "ticks": 5,
            "time": 0.0036630322265625006,
            "value": 0
          },
          {
            "number": 38,
            "ticks": 86021,
            "time": 63.100790782226575,
            "value": 0
          },
          {
            "number": 38,
            "ticks": 86021,
            "time": 63.100790782226575,
            "value": 0
          }
        ],
        "100": [
          {
            "number": 100,
            "ticks": 3,
            "time": 0.0021978193359375,
            "value": 0
          },
          {
            "number": 100,
            "ticks": 3,
            "time": 0.0021978193359375,
            "value": 0
          },
          {
            "number": 100,
            "ticks": 86019,
            "time": 63.09932556933595,
            "value": 0
          },
          {
            "number": 100,
            "ticks": 86019,
            "time": 63.09932556933595,
            "value": 0
          }
        ],
        "101": [
          {
            "number": 101,
            "ticks": 3,
            "time": 0.0021978193359375,
            "value": 0
          },
          {
            "number": 101,
            "ticks": 3,
            "time": 0.0021978193359375,
            "value": 0
          },
          {
            "number": 101,
            "ticks": 86019,
            "time": 63.09932556933595,
            "value": 0
          },
          {
            "number": 101,
            "ticks": 86019,
            "time": 63.09932556933595,
            "value": 0
          }
        ]
      },
      "pitchBends": [],
      "instrument": {
        "family": "piano",
        "number": 0,
        "name": "acoustic grand piano"
      },
      "name": "Piano",
      "notes": [
        {
          "duration": 0.7641085224609376,
          "durationTicks": 1043,
          "midi": 55,
          "name": "G3",
          "ticks": 10,
          "time": 0.007326064453125001,
          "velocity": 0.48031496062992124
        },
        {
          "duration": 0.7641085224609376,
          "durationTicks": 1043,
          "midi": 60,
          "name": "C4",
          "ticks": 10,
          "time": 0.007326064453125001,
          "velocity": 0.48031496062992124
        },
        {
          "duration": 0.7641085224609376,
          "durationTicks": 1043,
          "midi": 63,
          "name": "D#4",
          "ticks": 10,
          "time": 0.007326064453125001,
          "velocity": 0.5590551181102362
        },
        {
          "duration": 0.24908619140625,
          "durationTicks": 340,
          "midi": 55,
          "name": "G3",
          "ticks": 1054,
          "time": 0.7721671933593751,
          "velocity": 0.3543307086614173
        },
        {
          "duration": 0.24908619140625,
          "durationTicks": 340,
          "midi": 60,
          "name": "C4",
          "ticks": 1054,
          "time": 0.7721671933593751,
          "velocity": 0.3543307086614173
        },
        {
          "duration": 0.24908619140625,
          "durationTicks": 340,
          "midi": 63,
          "name": "D#4",
          "ticks": 1054,
          "time": 0.7721671933593751,
          "velocity": 0.4330708661417323
        },
        {
          "duration": 0.24029491406249992,
          "durationTicks": 328,
          "midi": 55,
          "name": "G3",
          "ticks": 1395,
          "time": 1.0219859912109377,
          "velocity": 0.3464566929133858
        },
        {
          "duration": 0.24029491406249992,
          "durationTicks": 328,
          "midi": 60,
          "name": "C4",
          "ticks": 1395,
          "time": 1.0219859912109377,
          "velocity": 0.3464566929133858
        },
        {
          "duration": 0.24029491406249992,
          "durationTicks": 328,
          "midi": 63,
          "name": "D#4",
          "ticks": 1395,
          "time": 1.0219859912109377,
          "velocity": 0.4251968503937008
        },
        {
          "duration": 0.26666874609375,
          "durationTicks": 364,
          "midi": 55,
          "name": "G3",
          "ticks": 1724,
          "time": 1.2630135117187502,
          "velocity": 0.3464566929133858
        },
        {
          "duration": 0.26666874609375,
          "durationTicks": 364,
          "midi": 60,
          "name": "C4",
          "ticks": 1724,
          "time": 1.2630135117187502,
          "velocity": 0.3464566929133858
        },
        {
          "duration": 0.2520166171875,
          "durationTicks": 344,
          "midi": 63,
          "name": "D#4",
          "ticks": 1724,
          "time": 1.2630135117187502,
          "velocity": 0.4566929133858268
        },
        {
          "duration": 0.7428629355468752,
          "durationTicks": 1014,
          "midi": 53,
          "name": "F3",
          "ticks": 2069,
          "time": 1.5157627353515628,
          "velocity": 0.4645669291338583
        },
        {
          "duration": 0.7428629355468752,
          "durationTicks": 1014,
          "midi": 56,
          "name": "G#3",
          "ticks": 2069,
          "time": 1.5157627353515628,
          "velocity": 0.4645669291338583
        },
        {
          "duration": 0.7428629355468752,
          "durationTicks": 1014,
          "midi": 65,
          "name": "F4",
          "ticks": 2069,
          "time": 1.5157627353515628,
          "velocity": 0.5748031496062992
        },
        {
          "duration": 0.7406651162109377,
          "durationTicks": 1011,
          "midi": 53,
          "name": "F3",
          "ticks": 3084,
          "time": 2.2593582773437504,
          "velocity": 0.44881889763779526
        },
        {
          "duration": 0.7406651162109377,
          "durationTicks": 1011,
          "midi": 56,
          "name": "G#3",
          "ticks": 3084,
          "time": 2.2593582773437504,
          "velocity": 0.44881889763779526
        },
        {
          "duration": 0.7406651162109377,
          "durationTicks": 1011,
          "midi": 65,
          "name": "F4",
          "ticks": 3084,
          "time": 2.2593582773437504,
          "velocity": 0.5590551181102362
        },
        {
          "duration": 0.3743618935546875,
          "durationTicks": 511,
          "midi": 72,
          "name": "C5",
          "ticks": 4100,
          "time": 3.0036864257812503,
          "velocity": 0.5433070866141733
        },
        {
          "duration": 1.512099703125,
          "durationTicks": 2064,
          "midi": 48,
          "name": "C3",
          "ticks": 4100,
          "time": 3.0036864257812503,
          "velocity": 0.48031496062992124
        },
        {
          "duration": 1.512099703125,
          "durationTicks": 2064,
          "midi": 51,
          "name": "D#3",
          "ticks": 4100,
          "time": 3.0036864257812503,
          "velocity": 0.48031496062992124
        },
        {
          "duration": 1.512099703125,
          "durationTicks": 2064,
          "midi": 55,
          "name": "G3",
          "ticks": 4100,
          "time": 3.0036864257812503,
          "velocity": 0.5905511811023622
        },
        {
          "duration": 0.37143146777343716,
          "durationTicks": 507,
          "midi": 67,
          "name": "G4",
          "ticks": 4642,
          "time": 3.4007591191406257,
          "velocity": 0.5039370078740157
        },
        {
          "duration": 0.3472554550781246,
          "durationTicks": 474,
          "midi": 67,
          "name": "G4",
          "ticks": 5150,
          "time": 3.7729231933593756,
          "velocity": 0.5118110236220472
        },
        {
          "duration": 0.35091848730468733,
          "durationTicks": 479,
          "midi": 72,
          "name": "C5",
          "ticks": 5655,
          "time": 4.1428894482421885,
          "velocity": 0.5039370078740157
        },
        {
          "duration": 0.5545830791015627,
          "durationTicks": 757,
          "midi": 68,
          "name": "G#4",
          "ticks": 6165,
          "time": 4.516518735351563,
          "velocity": 0.5275590551181102
        },
        {
          "duration": 1.4842606582031248,
          "durationTicks": 2026,
          "midi": 48,
          "name": "C3",
          "ticks": 6165,
          "time": 4.516518735351563,
          "velocity": 0.4645669291338583
        },
        {
          "duration": 1.4842606582031248,
          "durationTicks": 2026,
          "midi": 53,
          "name": "F3",
          "ticks": 6165,
          "time": 4.516518735351563,
          "velocity": 0.4645669291338583
        },
        {
          "duration": 1.4842606582031248,
          "durationTicks": 2026,
          "midi": 56,
          "name": "G#3",
          "ticks": 6165,
          "time": 4.516518735351563,
          "velocity": 0.5748031496062992
        },
        {
          "duration": 0.17655815332031288,
          "durationTicks": 241,
          "midi": 67,
          "name": "G4",
          "ticks": 6923,
          "time": 5.071834420898438,
          "velocity": 0.5039370078740157
        },
        {
          "duration": 0.7406651162109377,
          "durationTicks": 1011,
          "midi": 65,
          "name": "F4",
          "ticks": 7180,
          "time": 5.26011427734375,
          "velocity": 0.5118110236220472
        },
        {
          "duration": 0.3743618935546875,
          "durationTicks": 511,
          "midi": 72,
          "name": "C5",
          "ticks": 8196,
          "time": 6.004442425781251,
          "velocity": 0.5433070866141733
        },
        {
          "duration": 1.512099703125,
          "durationTicks": 2064,
          "midi": 48,
          "name": "C3",
          "ticks": 8196,
          "time": 6.004442425781251,
          "velocity": 0.48031496062992124
        },
        {
          "duration": 1.512099703125,
          "durationTicks": 2064,
          "midi": 51,
          "name": "D#3",
          "ticks": 8196,
          "time": 6.004442425781251,
          "velocity": 0.48031496062992124
        },
        {
          "duration": 1.512099703125,
          "durationTicks": 2064,
          "midi": 55,
          "name": "G3",
          "ticks": 8196,
          "time": 6.004442425781251,
          "velocity": 0.5905511811023622
        },
        {
          "duration": 0.37143146777343716,
          "durationTicks": 507,
          "midi": 67,
          "name": "G4",
          "ticks": 8738,
          "time": 6.401515119140626,
          "velocity": 0.5039370078740157
        },
        {
          "duration": 0.34725545507812505,
          "durationTicks": 474,
          "midi": 67,
          "name": "G4",
          "ticks": 9246,
          "time": 6.773679193359376,
          "velocity": 0.5118110236220472
        },
        {
          "duration": 0.35091848730468733,
          "durationTicks": 479,
          "midi": 72,
          "name": "C5",
          "ticks": 9751,
          "time": 7.1436454482421885,
          "velocity": 0.5039370078740157
        },
        {
          "duration": 1.4842606582031248,
          "durationTicks": 2026,
          "midi": 74,
          "name": "D5",
          "ticks": 10261,
          "time": 7.517274735351563,
          "velocity": 0.5275590551181102
        },
        {
          "duration": 0.7428629355468761,
          "durationTicks": 1014,
          "midi": 50,
          "name": "D3",
          "ticks": 10261,
          "time": 7.517274735351563,
          "velocity": 0.4645669291338583
        },
        {
          "duration": 0.7428629355468761,
          "durationTicks": 1014,
          "midi": 53,
          "name": "F3",
          "ticks": 10261,
          "time": 7.517274735351563,
          "velocity": 0.4645669291338583
        },
        {
          "duration": 0.7428629355468761,
          "durationTicks": 1014,
          "midi": 58,
          "name": "A#3",
          "ticks": 10261,
          "time": 7.517274735351563,
          "velocity": 0.5748031496062992
        },
        {
          "duration": 0.7406651162109377,
          "durationTicks": 1011,
          "midi": 50,
          "name": "D3",
          "ticks": 11276,
          "time": 8.26087027734375,
          "velocity": 0.44881889763779526
        },
        {
          "duration": 0.7406651162109377,
          "durationTicks": 1011,
          "midi": 55,
          "name": "G3",
          "ticks": 11276,
          "time": 8.26087027734375,
          "velocity": 0.44881889763779526
        },
        {
          "duration": 0.7406651162109377,
          "durationTicks": 1011,
          "midi": 59,
          "name": "B3",
          "ticks": 11276,
          "time": 8.26087027734375,
          "velocity": 0.5590551181102362
        },
        {
          "duration": 0.37436189355468663,
          "durationTicks": 511,
          "midi": 72,
          "name": "C5",
          "ticks": 12292,
          "time": 9.005198425781252,
          "velocity": 0.5433070866141733
        },
        {
          "duration": 1.5120997031249992,
          "durationTicks": 2064,
          "midi": 48,
          "name": "C3",
          "ticks": 12292,
          "time": 9.005198425781252,
          "velocity": 0.48031496062992124
        },
        {
          "duration": 1.5120997031249992,
          "durationTicks": 2064,
          "midi": 51,
          "name": "D#3",
          "ticks": 12292,
          "time": 9.005198425781252,
          "velocity": 0.48031496062992124
        },
        {
          "duration": 1.5120997031249992,
          "durationTicks": 2064,
          "midi": 55,
          "name": "G3",
          "ticks": 12292,
          "time": 9.005198425781252,
          "velocity": 0.5905511811023622
        },
        {
          "duration": 0.37143146777343716,
          "durationTicks": 507,
          "midi": 67,
          "name": "G4",
          "ticks": 12834,
          "time": 9.402271119140627,
          "velocity": 0.5039370078740157
        },
        {
          "duration": 0.34725545507812505,
          "durationTicks": 474,
          "midi": 67,
          "name": "G4",
          "ticks": 13342,
          "time": 9.774435193359377,
          "velocity": 0.5118110236220472
        },
        {
          "duration": 0.35091848730468733,
          "durationTicks": 479,
          "midi": 72,
          "name": "C5",
          "ticks": 13847,
          "time": 10.144401448242188,
          "velocity": 0.5039370078740157
        },
        {
          "duration": 0.5545830791015618,
          "durationTicks": 757,
          "midi": 68,
          "name": "G#4",
          "ticks": 14357,
          "time": 10.518030735351564,
          "velocity": 0.5275590551181102
        },
        {
          "duration": 1.4842606582031248,
          "durationTicks": 2026,
          "midi": 48,
          "name": "C3",
          "ticks": 14357,
          "time": 10.518030735351564,
          "velocity": 0.4645669291338583
        },
        {
          "duration": 1.4842606582031248,
          "durationTicks": 2026,
          "midi": 53,
          "name": "F3",
          "ticks": 14357,
          "time": 10.518030735351564,
          "velocity": 0.4645669291338583
        },
        {
          "duration": 1.4842606582031248,
          "durationTicks": 2026,
          "midi": 56,
          "name": "G#3",
          "ticks": 14357,
          "time": 10.518030735351564,
          "velocity": 0.5748031496062992
        },
        {
          "duration": 0.17655815332031288,
          "durationTicks": 241,
          "midi": 67,
          "name": "G4",
          "ticks": 15115,
          "time": 11.073346420898439,
          "velocity": 0.5039370078740157
        },
        {
          "duration": 0.7406651162109377,
          "durationTicks": 1011,
          "midi": 65,
          "name": "F4",
          "ticks": 15372,
          "time": 11.261626277343751,
          "velocity": 0.5118110236220472
        },
        {
          "duration": 0.26007528808593783,
          "durationTicks": 355,
          "midi": 63,
          "name": "D#4",
          "ticks": 16388,
          "time": 12.005954425781251,
          "velocity": 0.5433070866141733
        },
        {
          "duration": 0.7685041611328138,
          "durationTicks": 1049,
          "midi": 48,
          "name": "C3",
          "ticks": 16388,
          "time": 12.005954425781251,
          "velocity": 0.48031496062992124
        },
        {
          "duration": 0.7685041611328138,
          "durationTicks": 1049,
          "midi": 51,
          "name": "D#3",
          "ticks": 16388,
          "time": 12.005954425781251,
          "velocity": 0.48031496062992124
        },
        {
          "duration": 0.7685041611328138,
          "durationTicks": 1049,
          "midi": 55,
          "name": "G3",
          "ticks": 16388,
          "time": 12.005954425781251,
          "velocity": 0.5905511811023622
        },
        {
          "duration": 0.22784060449218835,
          "durationTicks": 311,
          "midi": 65,
          "name": "F4",
          "ticks": 16764,
          "time": 12.281414449218751,
          "velocity": 0.5039370078740157
        },
        {
          "duration": 0.2351666689453129,
          "durationTicks": 321,
          "midi": 67,
          "name": "G4",
          "ticks": 17096,
          "time": 12.524639789062501,
          "velocity": 0.5039370078740157
        },
        {
          "duration": 0.2344340625000001,
          "durationTicks": 320,
          "midi": 65,
          "name": "F4",
          "ticks": 17438,
          "time": 12.775191193359376,
          "velocity": 0.5118110236220472
        },
        {
          "duration": 0.7428629355468743,
          "durationTicks": 1014,
          "midi": 50,
          "name": "D3",
          "ticks": 17438,
          "time": 12.775191193359376,
          "velocity": 0.44881889763779526
        },
        {
          "duration": 0.7428629355468743,
          "durationTicks": 1014,
          "midi": 55,
          "name": "G3",
          "ticks": 17438,
          "time": 12.775191193359376,
          "velocity": 0.44881889763779526
        },
        {
          "duration": 0.7428629355468743,
          "durationTicks": 1014,
          "midi": 59,
          "name": "B3",
          "ticks": 17438,
          "time": 12.775191193359376,
          "velocity": 0.5590551181102362
        },
        {
          "duration": 0.22564278515624991,
          "durationTicks": 308,
          "midi": 63,
          "name": "D#4",
          "ticks": 17779,
          "time": 13.02500999121094,
          "velocity": 0.5039370078740157
        },
        {
          "duration": 0.23736448828124956,
          "durationTicks": 324,
          "midi": 62,
          "name": "D4",
          "ticks": 18108,
          "time": 13.266037511718752,
          "velocity": 0.5039370078740157
        },
        {
          "duration": 1.518269726562501,
          "durationTicks": 2026,
          "midi": 60,
          "name": "C4",
          "ticks": 18453,
          "time": 13.518786735351563,
          "velocity": 0.5275590551181102
        },
        {
          "duration": 1.518269726562501,
          "durationTicks": 2026,
          "midi": 48,
          "name": "C3",
          "ticks": 18453,
          "time": 13.518786735351563,
          "velocity": 0.4645669291338583
        },
        {
          "duration": 1.518269726562501,
          "durationTicks": 2026,
          "midi": 51,
          "name": "D#3",
          "ticks": 18453,
          "time": 13.518786735351563,
          "velocity": 0.4645669291338583
        },
        {
          "duration": 1.518269726562501,
          "durationTicks": 2026,
          "midi": 55,
          "name": "G3",
          "ticks": 18453,
          "time": 13.518786735351563,
          "velocity": 0.5748031496062992
        },
        {
          "duration": 0.3828496669921879,
          "durationTicks": 511,
          "midi": 72,
          "name": "C5",
          "ticks": 20484,
          "time": 15.040887902343751,
          "velocity": 0.5433070866141733
        },
        {
          "duration": 1.5205874765625005,
          "durationTicks": 2064,
          "midi": 48,
          "name": "C3",
          "ticks": 20484,
          "time": 15.040887902343751,
          "velocity": 0.48031496062992124
        },
        {
          "duration": 1.5205874765625005,
          "durationTicks": 2064,
          "midi": 51,
          "name": "D#3",
          "ticks": 20484,
          "time": 15.040887902343751,
          "velocity": 0.48031496062992124
        },
        {
          "duration": 1.5205874765625005,
          "durationTicks": 2064,
          "midi": 55,
          "name": "G3",
          "ticks": 20484,
          "time": 15.040887902343751,
          "velocity": 0.5905511811023622
        },
        {
          "duration": 0.37143146777343716,
          "durationTicks": 507,
          "midi": 67,
          "name": "G4",
          "ticks": 21026,
          "time": 15.446448369140626,
          "velocity": 0.5039370078740157
        },
        {
          "duration": 0.34725545507812505,
          "durationTicks": 474,
          "midi": 67,
          "name": "G4",
          "ticks": 21534,
          "time": 15.818612443359376,
          "velocity": 0.5118110236220472
        },
        {
          "duration": 0.3509184873046891,
          "durationTicks": 479,
          "midi": 72,
          "name": "C5",
          "ticks": 22039,
          "time": 16.18857869824219,
          "velocity": 0.5039370078740157
        },
        {
          "duration": 0.5545830791015618,
          "durationTicks": 757,
          "midi": 68,
          "name": "G#4",
          "ticks": 22549,
          "time": 16.562207985351563,
          "velocity": 0.5275590551181102
        },
        {
          "duration": 1.4842606582031266,
          "durationTicks": 2026,
          "midi": 48,
          "name": "C3",
          "ticks": 22549,
          "time": 16.562207985351563,
          "velocity": 0.4645669291338583
        },
        {
          "duration": 1.4842606582031266,
          "durationTicks": 2026,
          "midi": 53,
          "name": "F3",
          "ticks": 22549,
          "time": 16.562207985351563,
          "velocity": 0.4645669291338583
        },
        {
          "duration": 1.4842606582031266,
          "durationTicks": 2026,
          "midi": 56,
          "name": "G#3",
          "ticks": 22549,
          "time": 16.562207985351563,
          "velocity": 0.5748031496062992
        },
        {
          "duration": 0.1765581533203111,
          "durationTicks": 241,
          "midi": 67,
          "name": "G4",
          "ticks": 23307,
          "time": 17.11752367089844,
          "velocity": 0.5039370078740157
        },
        {
          "duration": 0.7406651162109377,
          "durationTicks": 1011,
          "midi": 65,
          "name": "F4",
          "ticks": 23564,
          "time": 17.305803527343752,
          "velocity": 0.5118110236220472
        },
        {
          "duration": 0.3743618935546884,
          "durationTicks": 511,
          "midi": 72,
          "name": "C5",
          "ticks": 24580,
          "time": 18.05013167578125,
          "velocity": 0.5433070866141733
        },
        {
          "duration": 1.5120997031249992,
          "durationTicks": 2064,
          "midi": 48,
          "name": "C3",
          "ticks": 24580,
          "time": 18.05013167578125,
          "velocity": 0.48031496062992124
        },
        {
          "duration": 1.5120997031249992,
          "durationTicks": 2064,
          "midi": 51,
          "name": "D#3",
          "ticks": 24580,
          "time": 18.05013167578125,
          "velocity": 0.48031496062992124
        },
        {
          "duration": 1.5120997031249992,
          "durationTicks": 2064,
          "midi": 55,
          "name": "G3",
          "ticks": 24580,
          "time": 18.05013167578125,
          "velocity": 0.5905511811023622
        },
        {
          "duration": 0.37143146777343716,
          "durationTicks": 507,
          "midi": 67,
          "name": "G4",
          "ticks": 25122,
          "time": 18.44720436914063,
          "velocity": 0.5039370078740157
        },
        {
          "duration": 0.3472554550781233,
          "durationTicks": 474,
          "midi": 67,
          "name": "G4",
          "ticks": 25630,
          "time": 18.819368443359377,
          "velocity": 0.5118110236220472
        },
        {
          "duration": 0.3509184873046891,
          "durationTicks": 479,
          "midi": 72,
          "name": "C5",
          "ticks": 26135,
          "time": 19.189334698242188,
          "velocity": 0.5039370078740157
        },
        {
          "duration": 1.484260658203123,
          "durationTicks": 2026,
          "midi": 74,
          "name": "D5",
          "ticks": 26645,
          "time": 19.562963985351566,
          "velocity": 0.5275590551181102
        },
        {
          "duration": 0.7428629355468743,
          "durationTicks": 1014,
          "midi": 50,
          "name": "D3",
          "ticks": 26645,
          "time": 19.562963985351566,
          "velocity": 0.4645669291338583
        },
        {
          "duration": 0.7428629355468743,
          "durationTicks": 1014,
          "midi": 53,
          "name": "F3",
          "ticks": 26645,
          "time": 19.562963985351566,
          "velocity": 0.4645669291338583
        },
        {
          "duration": 0.7428629355468743,
          "durationTicks": 1014,
          "midi": 58,
          "name": "A#3",
          "ticks": 26645,
          "time": 19.562963985351566,
          "velocity": 0.5748031496062992
        },
        {
          "duration": 0.7406651162109377,
          "durationTicks": 1011,
          "midi": 50,
          "name": "D3",
          "ticks": 27660,
          "time": 20.30655952734375,
          "velocity": 0.44881889763779526
        },
        {
          "duration": 0.7406651162109377,
          "durationTicks": 1011,
          "midi": 55,
          "name": "G3",
          "ticks": 27660,
          "time": 20.30655952734375,
          "velocity": 0.44881889763779526
        },
        {
          "duration": 0.7406651162109377,
          "durationTicks": 1011,
          "midi": 59,
          "name": "B3",
          "ticks": 27660,
          "time": 20.30655952734375,
          "velocity": 0.5590551181102362
        },
        {
          "duration": 0.3743618935546884,
          "durationTicks": 511,
          "midi": 72,
          "name": "C5",
          "ticks": 28676,
          "time": 21.05088767578125,
          "velocity": 0.5433070866141733
        },
        {
          "duration": 1.5120997031249992,
          "durationTicks": 2064,
          "midi": 48,
          "name": "C3",
          "ticks": 28676,
          "time": 21.05088767578125,
          "velocity": 0.48031496062992124
        },
        {
          "duration": 1.5120997031249992,
          "durationTicks": 2064,
          "midi": 51,
          "name": "D#3",
          "ticks": 28676,
          "time": 21.05088767578125,
          "velocity": 0.48031496062992124
        },
        {
          "duration": 1.5120997031249992,
          "durationTicks": 2064,
          "midi": 55,
          "name": "G3",
          "ticks": 28676,
          "time": 21.05088767578125,
          "velocity": 0.5905511811023622
        },
        {
          "duration": 0.37143146777343716,
          "durationTicks": 507,
          "midi": 67,
          "name": "G4",
          "ticks": 29218,
          "time": 21.447960369140628,
          "velocity": 0.5039370078740157
        },
        {
          "duration": 0.34725545507812683,
          "durationTicks": 474,
          "midi": 67,
          "name": "G4",
          "ticks": 29726,
          "time": 21.820124443359376,
          "velocity": 0.5118110236220472
        },
        {
          "duration": 0.35091848730468556,
          "durationTicks": 479,
          "midi": 72,
          "name": "C5",
          "ticks": 30231,
          "time": 22.19009069824219,
          "velocity": 0.5039370078740157
        },
        {
          "duration": 0.5545830791015618,
          "durationTicks": 757,
          "midi": 68,
          "name": "G#4",
          "ticks": 30741,
          "time": 22.563719985351565,
          "velocity": 0.5275590551181102
        },
        {
          "duration": 1.484260658203123,
          "durationTicks": 2026,
          "midi": 48,
          "name": "C3",
          "ticks": 30741,
          "time": 22.563719985351565,
          "velocity": 0.4645669291338583
        },
        {
          "duration": 1.484260658203123,
          "durationTicks": 2026,
          "midi": 53,
          "name": "F3",
          "ticks": 30741,
          "time": 22.563719985351565,
          "velocity": 0.4645669291338583
        },
        {
          "duration": 1.484260658203123,
          "durationTicks": 2026,
          "midi": 56,
          "name": "G#3",
          "ticks": 30741,
          "time": 22.563719985351565,
          "velocity": 0.5748031496062992
        },
        {
          "duration": 0.1765581533203111,
          "durationTicks": 241,
          "midi": 67,
          "name": "G4",
          "ticks": 31499,
          "time": 23.11903567089844,
          "velocity": 0.5039370078740157
        },
        {
          "duration": 0.7406651162109341,
          "durationTicks": 1011,
          "midi": 65,
          "name": "F4",
          "ticks": 31756,
          "time": 23.307315527343754,
          "velocity": 0.5118110236220472
        },
        {
          "duration": 0.2600752880859396,
          "durationTicks": 355,
          "midi": 63,
          "name": "D#4",
          "ticks": 32772,
          "time": 24.05164367578125,
          "velocity": 0.5433070866141733
        },
        {
          "duration": 0.7685041611328174,
          "durationTicks": 1049,
          "midi": 48,
          "name": "C3",
          "ticks": 32772,
          "time": 24.05164367578125,
          "velocity": 0.48031496062992124
        },
        {
          "duration": 0.7685041611328174,
          "durationTicks": 1049,
          "midi": 51,
          "name": "D#3",
          "ticks": 32772,
          "time": 24.05164367578125,
          "velocity": 0.48031496062992124
        },
        {
          "duration": 0.7685041611328174,
          "durationTicks": 1049,
          "midi": 55,
          "name": "G3",
          "ticks": 32772,
          "time": 24.05164367578125,
          "velocity": 0.5905511811023622
        },
        {
          "duration": 0.22784060449218657,
          "durationTicks": 311,
          "midi": 67,
          "name": "G4",
          "ticks": 33148,
          "time": 24.327103699218753,
          "velocity": 0.5039370078740157
        },
        {
          "duration": 0.23516666894531468,
          "durationTicks": 321,
          "midi": 72,
          "name": "C5",
          "ticks": 33480,
          "time": 24.5703290390625,
          "velocity": 0.5039370078740157
        },
        {
          "duration": 0.2344340625000001,
          "durationTicks": 320,
          "midi": 71,
          "name": "B4",
          "ticks": 33822,
          "time": 24.82088044335938,
          "velocity": 0.5118110236220472
        },
        {
          "duration": 0.7428629355468743,
          "durationTicks": 1014,
          "midi": 47,
          "name": "B2",
          "ticks": 33822,
          "time": 24.82088044335938,
          "velocity": 0.5354330708661418
        },
        {
          "duration": 0.7428629355468743,
          "durationTicks": 1014,
          "midi": 50,
          "name": "D3",
          "ticks": 33822,
          "time": 24.82088044335938,
          "velocity": 0.5354330708661418
        },
        {
          "duration": 0.7428629355468743,
          "durationTicks": 1014,
          "midi": 55,
          "name": "G3",
          "ticks": 33822,
          "time": 24.82088044335938,
          "velocity": 0.49606299212598426
        },
        {
          "duration": 0.22564278515625347,
          "durationTicks": 308,
          "midi": 72,
          "name": "C5",
          "ticks": 34163,
          "time": 25.07069924121094,
          "velocity": 0.5039370078740157
        },
        {
          "duration": 0.23736448828125134,
          "durationTicks": 324,
          "midi": 74,
          "name": "D5",
          "ticks": 34492,
          "time": 25.311726761718752,
          "velocity": 0.5039370078740157
        },
        {
          "duration": 1.1128291904296894,
          "durationTicks": 1519,
          "midi": 72,
          "name": "C5",
          "ticks": 34837,
          "time": 25.564475985351564,
          "velocity": 0.5275590551181102
        },
        {
          "duration": 1.4842606582031266,
          "durationTicks": 2026,
          "midi": 48,
          "name": "C3",
          "ticks": 34837,
          "time": 25.564475985351564,
          "velocity": 0.4645669291338583
        },
        {
          "duration": 1.4842606582031266,
          "durationTicks": 2026,
          "midi": 51,
          "name": "D#3",
          "ticks": 34837,
          "time": 25.564475985351564,
          "velocity": 0.4645669291338583
        },
        {
          "duration": 1.4842606582031266,
          "durationTicks": 2026,
          "midi": 55,
          "name": "G3",
          "ticks": 34837,
          "time": 25.564475985351564,
          "velocity": 0.5748031496062992
        },
        {
          "duration": 0.11282139257812318,
          "durationTicks": 154,
          "midi": 72,
          "name": "C5",
          "ticks": 36357,
          "time": 26.678037782226568,
          "velocity": 0.5039370078740157
        },
        {
          "duration": 0.11355399902343777,
          "durationTicks": 155,
          "midi": 74,
          "name": "D5",
          "ticks": 36522,
          "time": 26.79891784570313,
          "velocity": 0.5039370078740157
        },
        {
          "duration": 0.12088006347656233,
          "durationTicks": 165,
          "midi": 75,
          "name": "D#5",
          "ticks": 36688,
          "time": 26.920530515625003,
          "velocity": 0.5039370078740157
        },
        {
          "duration": 0.3963400869140621,
          "durationTicks": 541,
          "midi": 77,
          "name": "F5",
          "ticks": 36868,
          "time": 27.052399675781253,
          "velocity": 0.5433070866141733
        },
        {
          "duration": 1.5120997031250027,
          "durationTicks": 2064,
          "midi": 46,
          "name": "A#2",
          "ticks": 36868,
          "time": 27.052399675781253,
          "velocity": 0.48031496062992124
        },
        {
          "duration": 1.5120997031250027,
          "durationTicks": 2064,
          "midi": 50,
          "name": "D3",
          "ticks": 36868,
          "time": 27.052399675781253,
          "velocity": 0.48031496062992124
        },
        {
          "duration": 1.5120997031250027,
          "durationTicks": 2064,
          "midi": 53,
          "name": "F3",
          "ticks": 36868,
          "time": 27.052399675781253,
          "velocity": 0.5905511811023622
        },
        {
          "duration": 0.17069730175781217,
          "durationTicks": 233,
          "midi": 77,
          "name": "F5",
          "ticks": 37410,
          "time": 27.44947236914063,
          "velocity": 0.5039370078740157
        },
        {
          "duration": 0.17802336621093673,
          "durationTicks": 243,
          "midi": 79,
          "name": "G5",
          "ticks": 37659,
          "time": 27.63189137402344,
          "velocity": 0.5039370078740157
        },
        {
          "duration": 0.1772907597656257,
          "durationTicks": 242,
          "midi": 77,
          "name": "F5",
          "ticks": 37918,
          "time": 27.821636443359377,
          "velocity": 0.5118110236220472
        },
        {
          "duration": 0.16923208886718655,
          "durationTicks": 231,
          "midi": 75,
          "name": "D#5",
          "ticks": 38176,
          "time": 28.010648906250005,
          "velocity": 0.5039370078740157
        },
        {
          "duration": 0.35091848730468556,
          "durationTicks": 479,
          "midi": 74,
          "name": "D5",
          "ticks": 38423,
          "time": 28.191602698242193,
          "velocity": 0.5039370078740157
        },
        {
          "duration": 0.3509184873046891,
          "durationTicks": 479,
          "midi": 75,
          "name": "D#5",
          "ticks": 38933,
          "time": 28.565231985351566,
          "velocity": 0.5275590551181102
        },
        {
          "duration": 1.4842606582031266,
          "durationTicks": 2026,
          "midi": 48,
          "name": "C3",
          "ticks": 38933,
          "time": 28.565231985351566,
          "velocity": 0.4645669291338583
        },
        {
          "duration": 1.4842606582031266,
          "durationTicks": 2026,
          "midi": 51,
          "name": "D#3",
          "ticks": 38933,
          "time": 28.565231985351566,
          "velocity": 0.4645669291338583
        },
        {
          "duration": 1.4842606582031266,
          "durationTicks": 2026,
          "midi": 55,
          "name": "G3",
          "ticks": 38933,
          "time": 28.565231985351566,
          "velocity": 0.5748031496062992
        },
        {
          "duration": 0.34725545507812683,
          "durationTicks": 474,
          "midi": 72,
          "name": "C5",
          "ticks": 39443,
          "time": 28.93886127246094,
          "velocity": 0.5039370078740157
        },
        {
          "duration": 0.34725545507812683,
          "durationTicks": 474,
          "midi": 67,
          "name": "G4",
          "ticks": 39948,
          "time": 29.30882752734375,
          "velocity": 0.5118110236220472
        },
        {
          "duration": 0.11282139257812673,
          "durationTicks": 154,
          "midi": 72,
          "name": "C5",
          "ticks": 40453,
          "time": 29.678793782226563,
          "velocity": 0.5039370078740157
        },
        {
          "duration": 0.11355399902343777,
          "durationTicks": 155,
          "midi": 74,
          "name": "D5",
          "ticks": 40618,
          "time": 29.799673845703126,
          "velocity": 0.5039370078740157
        },
        {
          "duration": 0.12088006347656588,
          "durationTicks": 165,
          "midi": 75,
          "name": "D#5",
          "ticks": 40784,
          "time": 29.921286515625003,
          "velocity": 0.5039370078740157
        },
        {
          "duration": 0.39634008691405853,
          "durationTicks": 541,
          "midi": 77,
          "name": "F5",
          "ticks": 40964,
          "time": 30.053155675781255,
          "velocity": 0.5433070866141733
        },
        {
          "duration": 1.5120997031249956,
          "durationTicks": 2064,
          "midi": 46,
          "name": "A#2",
          "ticks": 40964,
          "time": 30.053155675781255,
          "velocity": 0.48031496062992124
        },
        {
          "duration": 1.5120997031249956,
          "durationTicks": 2064,
          "midi": 50,
          "name": "D3",
          "ticks": 40964,
          "time": 30.053155675781255,
          "velocity": 0.48031496062992124
        },
        {
          "duration": 1.5120997031249956,
          "durationTicks": 2064,
          "midi": 53,
          "name": "F3",
          "ticks": 40964,
          "time": 30.053155675781255,
          "velocity": 0.5905511811023622
        },
        {
          "duration": 0.17069730175781217,
          "durationTicks": 233,
          "midi": 77,
          "name": "F5",
          "ticks": 41506,
          "time": 30.45022836914063,
          "velocity": 0.5039370078740157
        },
        {
          "duration": 0.17802336621093673,
          "durationTicks": 243,
          "midi": 79,
          "name": "G5",
          "ticks": 41755,
          "time": 30.632647374023442,
          "velocity": 0.5039370078740157
        },
        {
          "duration": 0.1772907597656257,
          "durationTicks": 242,
          "midi": 77,
          "name": "F5",
          "ticks": 42014,
          "time": 30.822392443359377,
          "velocity": 0.5118110236220472
        },
        {
          "duration": 0.16923208886718655,
          "durationTicks": 231,
          "midi": 75,
          "name": "D#5",
          "ticks": 42272,
          "time": 31.011404906250004,
          "velocity": 0.5039370078740157
        },
        {
          "duration": 0.35091848730468556,
          "durationTicks": 479,
          "midi": 74,
          "name": "D5",
          "ticks": 42519,
          "time": 31.19235869824219,
          "velocity": 0.5039370078740157
        },
        {
          "duration": 0.18101215136718807,
          "durationTicks": 247,
          "midi": 75,
          "name": "D#5",
          "ticks": 43029,
          "time": 31.565987985351565,
          "velocity": 0.5275590551181102
        },
        {
          "duration": 1.5035351962890608,
          "durationTicks": 2026,
          "midi": 44,
          "name": "G#2",
          "ticks": 43029,
          "time": 31.565987985351565,
          "velocity": 0.4645669291338583
        },
        {
          "duration": 1.5035351962890608,
          "durationTicks": 2026,
          "midi": 48,
          "name": "C3",
          "ticks": 43029,
          "time": 31.565987985351565,
          "velocity": 0.4645669291338583
        },
        {
          "duration": 1.5035351962890608,
          "durationTicks": 2026,
          "midi": 51,
          "name": "D#3",
          "ticks": 43029,
          "time": 31.565987985351565,
          "velocity": 0.5748031496062992
        },
        {
          "duration": 0.1703555068359357,
          "durationTicks": 231,
          "midi": 74,
          "name": "D5",
          "ticks": 43292,
          "time": 31.758799652343754,
          "velocity": 0.5039370078740157
        },
        {
          "duration": 1.1285685068359363,
          "durationTicks": 1516,
          "midi": 72,
          "name": "C5",
          "ticks": 43539,
          "time": 31.94095467480469,
          "velocity": 0.5039370078740157
        },
        {
          "duration": 0.37436189355468485,
          "durationTicks": 511,
          "midi": 70,
          "name": "A#4",
          "ticks": 45060,
          "time": 33.073204925781255,
          "velocity": 0.5433070866141733
        },
        {
          "duration": 1.5120997031249956,
          "durationTicks": 2064,
          "midi": 46,
          "name": "A#2",
          "ticks": 45060,
          "time": 33.073204925781255,
          "velocity": 0.48031496062992124
        },
        {
          "duration": 1.5120997031249956,
          "durationTicks": 2064,
          "midi": 51,
          "name": "D#3",
          "ticks": 45060,
          "time": 33.073204925781255,
          "velocity": 0.48031496062992124
        },
        {
          "duration": 1.5120997031249956,
          "durationTicks": 2064,
          "midi": 55,
          "name": "G3",
          "ticks": 45060,
          "time": 33.073204925781255,
          "velocity": 0.5905511811023622
        },
        {
          "duration": 0.3714314677734336,
          "durationTicks": 507,
          "midi": 75,
          "name": "D#5",
          "ticks": 45602,
          "time": 33.47027761914063,
          "velocity": 0.5039370078740157
        },
        {
          "duration": 0.34725545507812683,
          "durationTicks": 474,
          "midi": 75,
          "name": "D#5",
          "ticks": 46110,
          "time": 33.842441693359376,
          "velocity": 0.5118110236220472
        },
        {
          "duration": 0.3509184873046891,
          "durationTicks": 479,
          "midi": 79,
          "name": "G5",
          "ticks": 46615,
          "time": 34.21240794824219,
          "velocity": 0.5039370078740157
        },
        {
          "duration": 0.5545830791015618,
          "durationTicks": 757,
          "midi": 80,
          "name": "G#5",
          "ticks": 47125,
          "time": 34.58603723535157,
          "velocity": 0.5275590551181102
        },
        {
          "duration": 1.4842606582031266,
          "durationTicks": 2026,
          "midi": 48,
          "name": "C3",
          "ticks": 47125,
          "time": 34.58603723535157,
          "velocity": 0.4645669291338583
        },
        {
          "duration": 1.4842606582031266,
          "durationTicks": 2026,
          "midi": 53,
          "name": "F3",
          "ticks": 47125,
          "time": 34.58603723535157,
          "velocity": 0.4645669291338583
        },
        {
          "duration": 1.4842606582031266,
          "durationTicks": 2026,
          "midi": 56,
          "name": "G#3",
          "ticks": 47125,
          "time": 34.58603723535157,
          "velocity": 0.5748031496062992
        },
        {
          "duration": 0.17655815332031466,
          "durationTicks": 241,
          "midi": 77,
          "name": "F5",
          "ticks": 47883,
          "time": 35.14135292089844,
          "velocity": 0.5039370078740157
        },
        {
          "duration": 0.34725545507812683,
          "durationTicks": 474,
          "midi": 72,
          "name": "C5",
          "ticks": 48140,
          "time": 35.329632777343754,
          "velocity": 0.5118110236220472
        },
        {
          "duration": 0.3487206679687489,
          "durationTicks": 476,
          "midi": 68,
          "name": "G#4",
          "ticks": 48645,
          "time": 35.699599032226565,
          "velocity": 0.5039370078740157
        },
        {
          "duration": 0.5787590917968757,
          "durationTicks": 790,
          "midi": 67,
          "name": "G4",
          "ticks": 49156,
          "time": 36.07396092578125,
          "velocity": 0.5433070866141733
        },
        {
          "duration": 1.5120997031250027,
          "durationTicks": 2064,
          "midi": 47,
          "name": "B2",
          "ticks": 49156,
          "time": 36.07396092578125,
          "velocity": 0.48031496062992124
        },
        {
          "duration": 1.5120997031250027,
          "durationTicks": 2064,
          "midi": 50,
          "name": "D3",
          "ticks": 49156,
          "time": 36.07396092578125,
          "velocity": 0.48031496062992124
        },
        {
          "duration": 1.5120997031250027,
          "durationTicks": 2064,
          "midi": 55,
          "name": "G3",
          "ticks": 49156,
          "time": 36.07396092578125,
          "velocity": 0.5905511811023622
        },
        {
          "duration": 0.17802336621093673,
          "durationTicks": 243,
          "midi": 69,
          "name": "A4",
          "ticks": 49947,
          "time": 36.653452624023444,
          "velocity": 0.5039370078740157
        },
        {
          "duration": 0.34725545507812683,
          "durationTicks": 474,
          "midi": 71,
          "name": "B4",
          "ticks": 50206,
          "time": 36.84319769335938,
          "velocity": 0.5118110236220472
        },
        {
          "duration": 0.3509184873046891,
          "durationTicks": 479,
          "midi": 74,
          "name": "D5",
          "ticks": 50711,
          "time": 37.21316394824219,
          "velocity": 0.5039370078740157
        },
        {
          "duration": 0.3728966806640628,
          "durationTicks": 509,
          "midi": 79,
          "name": "G5",
          "ticks": 51221,
          "time": 37.586793235351564,
          "velocity": 0.5275590551181102
        },
        {
          "duration": 1.4842606582031266,
          "durationTicks": 2026,
          "midi": 50,
          "name": "D3",
          "ticks": 51221,
          "time": 37.586793235351564,
          "velocity": 0.4645669291338583
        },
        {
          "duration": 1.4842606582031266,
          "durationTicks": 2026,
          "midi": 55,
          "name": "G3",
          "ticks": 51221,
          "time": 37.586793235351564,
          "velocity": 0.4645669291338583
        },
        {
          "duration": 1.4842606582031266,
          "durationTicks": 2026,
          "midi": 59,
          "name": "B3",
          "ticks": 51221,
          "time": 37.586793235351564,
          "velocity": 0.5748031496062992
        },
        {
          "duration": 0.3472554550781197,
          "durationTicks": 474,
          "midi": 79,
          "name": "G5",
          "ticks": 51731,
          "time": 37.960422522460945,
          "velocity": 0.5039370078740157
        },
        {
          "duration": 0.3472554550781197,
          "durationTicks": 474,
          "midi": 81,
          "name": "A5",
          "ticks": 52236,
          "time": 38.33038877734376,
          "velocity": 0.5118110236220472
        },
        {
          "duration": 0.3487206679687489,
          "durationTicks": 476,
          "midi": 83,
          "name": "B5",
          "ticks": 52741,
          "time": 38.70035503222657,
          "velocity": 0.5039370078740157
        },
        {
          "duration": 0.39634008691406564,
          "durationTicks": 541,
          "midi": 77,
          "name": "F5",
          "ticks": 53252,
          "time": 39.07471692578125,
          "velocity": 0.5433070866141733
        },
        {
          "duration": 1.5120997031250027,
          "durationTicks": 2064,
          "midi": 46,
          "name": "A#2",
          "ticks": 53252,
          "time": 39.07471692578125,
          "velocity": 0.48031496062992124
        },
        {
          "duration": 1.5120997031250027,
          "durationTicks": 2064,
          "midi": 50,
          "name": "D3",
          "ticks": 53252,
          "time": 39.07471692578125,
          "velocity": 0.48031496062992124
        },
        {
          "duration": 1.5120997031250027,
          "durationTicks": 2064,
          "midi": 53,
          "name": "F3",
          "ticks": 53252,
          "time": 39.07471692578125,
          "velocity": 0.5905511811023622
        },
        {
          "duration": 0.17069730175781217,
          "durationTicks": 233,
          "midi": 77,
          "name": "F5",
          "ticks": 53794,
          "time": 39.47178961914063,
          "velocity": 0.5039370078740157
        },
        {
          "duration": 0.17802336621093673,
          "durationTicks": 243,
          "midi": 79,
          "name": "G5",
          "ticks": 54043,
          "time": 39.65420862402344,
          "velocity": 0.5039370078740157
        },
        {
          "duration": 0.1772907597656257,
          "durationTicks": 242,
          "midi": 77,
          "name": "F5",
          "ticks": 54302,
          "time": 39.84395369335938,
          "velocity": 0.5118110236220472
        },
        {
          "duration": 0.1692320888671901,
          "durationTicks": 231,
          "midi": 75,
          "name": "D#5",
          "ticks": 54560,
          "time": 40.032966156250005,
          "velocity": 0.5039370078740157
        },
        {
          "duration": 0.3509184873046891,
          "durationTicks": 479,
          "midi": 74,
          "name": "D5",
          "ticks": 54807,
          "time": 40.21391994824219,
          "velocity": 0.5039370078740157
        },
        {
          "duration": 0.3509184873046891,
          "durationTicks": 479,
          "midi": 75,
          "name": "D#5",
          "ticks": 55317,
          "time": 40.58754923535157,
          "velocity": 0.5275590551181102
        },
        {
          "duration": 1.4842606582031266,
          "durationTicks": 2026,
          "midi": 48,
          "name": "C3",
          "ticks": 55317,
          "time": 40.58754923535157,
          "velocity": 0.4645669291338583
        },
        {
          "duration": 1.4842606582031266,
          "durationTicks": 2026,
          "midi": 51,
          "name": "D#3",
          "ticks": 55317,
          "time": 40.58754923535157,
          "velocity": 0.4645669291338583
        },
        {
          "duration": 1.4842606582031266,
          "durationTicks": 2026,
          "midi": 55,
          "name": "G3",
          "ticks": 55317,
          "time": 40.58754923535157,
          "velocity": 0.5748031496062992
        },
        {
          "duration": 0.34725545507812683,
          "durationTicks": 474,
          "midi": 72,
          "name": "C5",
          "ticks": 55827,
          "time": 40.96117852246094,
          "velocity": 0.5039370078740157
        },
        {
          "duration": 0.34725545507812683,
          "durationTicks": 474,
          "midi": 67,
          "name": "G4",
          "ticks": 56332,
          "time": 41.33114477734375,
          "velocity": 0.5118110236220472
        },
        {
          "duration": 0.11282139257812673,
          "durationTicks": 154,
          "midi": 72,
          "name": "C5",
          "ticks": 56837,
          "time": 41.701111032226564,
          "velocity": 0.5039370078740157
        },
        {
          "duration": 0.11355399902343777,
          "durationTicks": 155,
          "midi": 74,
          "name": "D5",
          "ticks": 57002,
          "time": 41.821991095703126,
          "velocity": 0.5039370078740157
        },
        {
          "duration": 0.12088006347656233,
          "durationTicks": 165,
          "midi": 75,
          "name": "D#5",
          "ticks": 57168,
          "time": 41.94360376562501,
          "velocity": 0.5039370078740157
        },
        {
          "duration": 0.39634008691406564,
          "durationTicks": 541,
          "midi": 77,
          "name": "F5",
          "ticks": 57348,
          "time": 42.075472925781256,
          "velocity": 0.5433070866141733
        },
        {
          "duration": 1.5120997031250027,
          "durationTicks": 2064,
          "midi": 46,
          "name": "A#2",
          "ticks": 57348,
          "time": 42.075472925781256,
          "velocity": 0.48031496062992124
        },
        {
          "duration": 1.5120997031250027,
          "durationTicks": 2064,
          "midi": 50,
          "name": "D3",
          "ticks": 57348,
          "time": 42.075472925781256,
          "velocity": 0.48031496062992124
        },
        {
          "duration": 1.5120997031250027,
          "durationTicks": 2064,
          "midi": 53,
          "name": "F3",
          "ticks": 57348,
          "time": 42.075472925781256,
          "velocity": 0.5905511811023622
        },
        {
          "duration": 0.17069730175781217,
          "durationTicks": 233,
          "midi": 77,
          "name": "F5",
          "ticks": 57890,
          "time": 42.47254561914063,
          "velocity": 0.5039370078740157
        },
        {
          "duration": 0.17802336621093673,
          "durationTicks": 243,
          "midi": 79,
          "name": "G5",
          "ticks": 58139,
          "time": 42.65496462402344,
          "velocity": 0.5039370078740157
        },
        {
          "duration": 0.1772907597656257,
          "durationTicks": 242,
          "midi": 77,
          "name": "F5",
          "ticks": 58398,
          "time": 42.84470969335938,
          "velocity": 0.5118110236220472
        },
        {
          "duration": 0.169232088867183,
          "durationTicks": 231,
          "midi": 75,
          "name": "D#5",
          "ticks": 58656,
          "time": 43.03372215625001,
          "velocity": 0.5039370078740157
        },
        {
          "duration": 0.3509184873046891,
          "durationTicks": 479,
          "midi": 74,
          "name": "D5",
          "ticks": 58903,
          "time": 43.21467594824219,
          "velocity": 0.5039370078740157
        },
        {
          "duration": 0.18101215136719162,
          "durationTicks": 247,
          "midi": 75,
          "name": "D#5",
          "ticks": 59413,
          "time": 43.58830523535157,
          "velocity": 0.5275590551181102
        },
        {
          "duration": 1.5035351962890644,
          "durationTicks": 2026,
          "midi": 44,
          "name": "G#2",
          "ticks": 59413,
          "time": 43.58830523535157,
          "velocity": 0.4645669291338583
        },
        {
          "duration": 1.5035351962890644,
          "durationTicks": 2026,
          "midi": 48,
          "name": "C3",
          "ticks": 59413,
          "time": 43.58830523535157,
          "velocity": 0.4645669291338583
        },
        {
          "duration": 1.5035351962890644,
          "durationTicks": 2026,
          "midi": 51,
          "name": "D#3",
          "ticks": 59413,
          "time": 43.58830523535157,
          "velocity": 0.5748031496062992
        },
        {
          "duration": 0.17035550683593215,
          "durationTicks": 231,
          "midi": 74,
          "name": "D5",
          "ticks": 59676,
          "time": 43.78111690234376,
          "velocity": 0.5039370078740157
        },
        {
          "duration": 1.12856850683594,
          "durationTicks": 1516,
          "midi": 72,
          "name": "C5",
          "ticks": 59923,
          "time": 43.963271924804694,
          "velocity": 0.5039370078740157
        },
        {
          "duration": 0.37436189355468485,
          "durationTicks": 511,
          "midi": 70,
          "name": "A#4",
          "ticks": 61444,
          "time": 45.09552217578126,
          "velocity": 0.5433070866141733
        },
        {
          "duration": 1.5120997031249956,
          "durationTicks": 2064,
          "midi": 46,
          "name": "A#2",
          "ticks": 61444,
          "time": 45.09552217578126,
          "velocity": 0.48031496062992124
        },
        {
          "duration": 1.5120997031249956,
          "durationTicks": 2064,
          "midi": 51,
          "name": "D#3",
          "ticks": 61444,
          "time": 45.09552217578126,
          "velocity": 0.48031496062992124
        },
        {
          "duration": 1.5120997031249956,
          "durationTicks": 2064,
          "midi": 55,
          "name": "G3",
          "ticks": 61444,
          "time": 45.09552217578126,
          "velocity": 0.5905511811023622
        },
        {
          "duration": 0.3714314677734336,
          "durationTicks": 507,
          "midi": 75,
          "name": "D#5",
          "ticks": 61986,
          "time": 45.49259486914064,
          "velocity": 0.5039370078740157
        },
        {
          "duration": 0.34725545507812683,
          "durationTicks": 474,
          "midi": 75,
          "name": "D#5",
          "ticks": 62494,
          "time": 45.864758943359384,
          "velocity": 0.5118110236220472
        },
        {
          "duration": 0.350918487304682,
          "durationTicks": 479,
          "midi": 79,
          "name": "G5",
          "ticks": 62999,
          "time": 46.2347251982422,
          "velocity": 0.5039370078740157
        },
        {
          "duration": 0.5545830791015618,
          "durationTicks": 757,
          "midi": 80,
          "name": "G#5",
          "ticks": 63509,
          "time": 46.608354485351576,
          "velocity": 0.5275590551181102
        },
        {
          "duration": 1.4842606582031195,
          "durationTicks": 2026,
          "midi": 48,
          "name": "C3",
          "ticks": 63509,
          "time": 46.608354485351576,
          "velocity": 0.4645669291338583
        },
        {
          "duration": 1.4842606582031195,
          "durationTicks": 2026,
          "midi": 53,
          "name": "F3",
          "ticks": 63509,
          "time": 46.608354485351576,
          "velocity": 0.4645669291338583
        },
        {
          "duration": 1.4842606582031195,
          "durationTicks": 2026,
          "midi": 56,
          "name": "G#3",
          "ticks": 63509,
          "time": 46.608354485351576,
          "velocity": 0.5748031496062992
        },
        {
          "duration": 0.17655815332031466,
          "durationTicks": 241,
          "midi": 77,
          "name": "F5",
          "ticks": 64267,
          "time": 47.16367017089845,
          "velocity": 0.5039370078740157
        },
        {
          "duration": 0.34725545507812683,
          "durationTicks": 474,
          "midi": 72,
          "name": "C5",
          "ticks": 64524,
          "time": 47.35195002734376,
          "velocity": 0.5118110236220472
        },
        {
          "duration": 0.3487206679687489,
          "durationTicks": 476,
          "midi": 68,
          "name": "G#4",
          "ticks": 65029,
          "time": 47.72191628222657,
          "velocity": 0.5039370078740157
        },
        {
          "duration": 0.5787590917968686,
          "durationTicks": 790,
          "midi": 67,
          "name": "G4",
          "ticks": 65540,
          "time": 48.096278175781265,
          "velocity": 0.5433070866141733
        },
        {
          "duration": 1.5120997031249956,
          "durationTicks": 2064,
          "midi": 47,
          "name": "B2",
          "ticks": 65540,
          "time": 48.096278175781265,
          "velocity": 0.48031496062992124
        },
        {
          "duration": 1.5120997031249956,
          "durationTicks": 2064,
          "midi": 50,
          "name": "D3",
          "ticks": 65540,
          "time": 48.096278175781265,
          "velocity": 0.48031496062992124
        },
        {
          "duration": 1.5120997031249956,
          "durationTicks": 2064,
          "midi": 55,
          "name": "G3",
          "ticks": 65540,
          "time": 48.096278175781265,
          "velocity": 0.5905511811023622
        },
        {
          "duration": 0.17802336621093673,
          "durationTicks": 243,
          "midi": 69,
          "name": "A4",
          "ticks": 66331,
          "time": 48.67576987402345,
          "velocity": 0.5039370078740157
        },
        {
          "duration": 0.3919444482421852,
          "durationTicks": 535,
          "midi": 71,
          "name": "B4",
          "ticks": 66590,
          "time": 48.865514943359386,
          "velocity": 0.41732283464566927
        },
        {
          "duration": 0.3956074804687546,
          "durationTicks": 540,
          "midi": 74,
          "name": "D5",
          "ticks": 67095,
          "time": 49.2354811982422,
          "velocity": 0.4094488188976378
        },
        {
          "duration": 0.3956074804687546,
          "durationTicks": 540,
          "midi": 79,
          "name": "G5",
          "ticks": 67605,
          "time": 49.60911048535157,
          "velocity": 0.4330708661417323
        },
        {
          "duration": 1.4842606582031266,
          "durationTicks": 2026,
          "midi": 50,
          "name": "D3",
          "ticks": 67605,
          "time": 49.60911048535157,
          "velocity": 0.4645669291338583
        },
        {
          "duration": 1.4842606582031266,
          "durationTicks": 2026,
          "midi": 55,
          "name": "G3",
          "ticks": 67605,
          "time": 49.60911048535157,
          "velocity": 0.4645669291338583
        },
        {
          "duration": 1.4842606582031266,
          "durationTicks": 2026,
          "midi": 59,
          "name": "B3",
          "ticks": 67605,
          "time": 49.60911048535157,
          "velocity": 0.5748031496062992
        },
        {
          "duration": 0.3919444482421923,
          "durationTicks": 535,
          "midi": 74,
          "name": "D5",
          "ticks": 68115,
          "time": 49.982739772460945,
          "velocity": 0.4094488188976378
        },
        {
          "duration": 0.3919444482421852,
          "durationTicks": 535,
          "midi": 71,
          "name": "B4",
          "ticks": 68620,
          "time": 50.352706027343764,
          "velocity": 0.41732283464566927
        },
        {
          "duration": 0.3934096611328144,
          "durationTicks": 537,
          "midi": 74,
          "name": "D5",
          "ticks": 69125,
          "time": 50.722672282226576,
          "velocity": 0.4094488188976378
        },
        {
          "duration": 0.41905088671875035,
          "durationTicks": 572,
          "midi": 72,
          "name": "C5",
          "ticks": 69636,
          "time": 51.09703417578126,
          "velocity": 0.44881889763779526
        },
        {
          "duration": 1.5120997031250027,
          "durationTicks": 2064,
          "midi": 48,
          "name": "C3",
          "ticks": 69636,
          "time": 51.09703417578126,
          "velocity": 0.48031496062992124
        },
        {
          "duration": 1.5120997031250027,
          "durationTicks": 2064,
          "midi": 51,
          "name": "D#3",
          "ticks": 69636,
          "time": 51.09703417578126,
          "velocity": 0.48031496062992124
        },
        {
          "duration": 1.5120997031250027,
          "durationTicks": 2064,
          "midi": 55,
          "name": "G3",
          "ticks": 69636,
          "time": 51.09703417578126,
          "velocity": 0.5905511811023622
        },
        {
          "duration": 0.3714314677734336,
          "durationTicks": 507,
          "midi": 67,
          "name": "G4",
          "ticks": 70178,
          "time": 51.49410686914064,
          "velocity": 0.4094488188976378
        },
        {
          "duration": 0.3919444482421852,
          "durationTicks": 535,
          "midi": 67,
          "name": "G4",
          "ticks": 70686,
          "time": 51.86627094335939,
          "velocity": 0.41732283464566927
        },
        {
          "duration": 0.3956074804687475,
          "durationTicks": 540,
          "midi": 72,
          "name": "C5",
          "ticks": 71191,
          "time": 52.2362371982422,
          "velocity": 0.4094488188976378
        },
        {
          "duration": 0.5545830791015618,
          "durationTicks": 757,
          "midi": 68,
          "name": "G#4",
          "ticks": 71701,
          "time": 52.609866485351574,
          "velocity": 0.5275590551181102
        },
        {
          "duration": 1.4842606582031266,
          "durationTicks": 2026,
          "midi": 48,
          "name": "C3",
          "ticks": 71701,
          "time": 52.609866485351574,
          "velocity": 0.4645669291338583
        },
        {
          "duration": 1.4842606582031266,
          "durationTicks": 2026,
          "midi": 53,
          "name": "F3",
          "ticks": 71701,
          "time": 52.609866485351574,
          "velocity": 0.4645669291338583
        },
        {
          "duration": 1.4842606582031266,
          "durationTicks": 2026,
          "midi": 56,
          "name": "G#3",
          "ticks": 71701,
          "time": 52.609866485351574,
          "velocity": 0.5748031496062992
        },
        {
          "duration": 0.17655815332031466,
          "durationTicks": 241,
          "midi": 67,
          "name": "G4",
          "ticks": 72459,
          "time": 53.16518217089845,
          "velocity": 0.5039370078740157
        },
        {
          "duration": 0.7406651162109412,
          "durationTicks": 1011,
          "midi": 65,
          "name": "F4",
          "ticks": 72716,
          "time": 53.35346202734376,
          "velocity": 0.5118110236220472
        },
        {
          "duration": 0.37436189355468485,
          "durationTicks": 511,
          "midi": 72,
          "name": "C5",
          "ticks": 73732,
          "time": 54.09779017578126,
          "velocity": 0.5433070866141733
        },
        {
          "duration": 1.5120997031249956,
          "durationTicks": 2064,
          "midi": 48,
          "name": "C3",
          "ticks": 73732,
          "time": 54.09779017578126,
          "velocity": 0.48031496062992124
        },
        {
          "duration": 1.5120997031249956,
          "durationTicks": 2064,
          "midi": 51,
          "name": "D#3",
          "ticks": 73732,
          "time": 54.09779017578126,
          "velocity": 0.48031496062992124
        },
        {
          "duration": 1.5120997031249956,
          "durationTicks": 2064,
          "midi": 55,
          "name": "G3",
          "ticks": 73732,
          "time": 54.09779017578126,
          "velocity": 0.5905511811023622
        },
        {
          "duration": 0.3714314677734336,
          "durationTicks": 507,
          "midi": 67,
          "name": "G4",
          "ticks": 74274,
          "time": 54.49486286914064,
          "velocity": 0.5039370078740157
        },
        {
          "duration": 0.3472554550781197,
          "durationTicks": 474,
          "midi": 67,
          "name": "G4",
          "ticks": 74782,
          "time": 54.86702694335939,
          "velocity": 0.5118110236220472
        },
        {
          "duration": 0.350918487304682,
          "durationTicks": 479,
          "midi": 72,
          "name": "C5",
          "ticks": 75287,
          "time": 55.2369931982422,
          "velocity": 0.5039370078740157
        },
        {
          "duration": 1.4842606582031195,
          "durationTicks": 2026,
          "midi": 74,
          "name": "D5",
          "ticks": 75797,
          "time": 55.61062248535158,
          "velocity": 0.5275590551181102
        },
        {
          "duration": 0.7428629355468743,
          "durationTicks": 1014,
          "midi": 50,
          "name": "D3",
          "ticks": 75797,
          "time": 55.61062248535158,
          "velocity": 0.4645669291338583
        },
        {
          "duration": 0.7428629355468743,
          "durationTicks": 1014,
          "midi": 53,
          "name": "F3",
          "ticks": 75797,
          "time": 55.61062248535158,
          "velocity": 0.4645669291338583
        },
        {
          "duration": 0.7428629355468743,
          "durationTicks": 1014,
          "midi": 58,
          "name": "A#3",
          "ticks": 75797,
          "time": 55.61062248535158,
          "velocity": 0.5748031496062992
        },
        {
          "duration": 0.7406651162109341,
          "durationTicks": 1011,
          "midi": 50,
          "name": "D3",
          "ticks": 76812,
          "time": 56.35421802734376,
          "velocity": 0.44881889763779526
        },
        {
          "duration": 0.7406651162109341,
          "durationTicks": 1011,
          "midi": 55,
          "name": "G3",
          "ticks": 76812,
          "time": 56.35421802734376,
          "velocity": 0.44881889763779526
        },
        {
          "duration": 0.7406651162109341,
          "durationTicks": 1011,
          "midi": 59,
          "name": "B3",
          "ticks": 76812,
          "time": 56.35421802734376,
          "velocity": 0.5590551181102362
        },
        {
          "duration": 0.37436189355468485,
          "durationTicks": 511,
          "midi": 72,
          "name": "C5",
          "ticks": 77828,
          "time": 57.098546175781266,
          "velocity": 0.5433070866141733
        },
        {
          "duration": 1.5120997031249956,
          "durationTicks": 2064,
          "midi": 48,
          "name": "C3",
          "ticks": 77828,
          "time": 57.098546175781266,
          "velocity": 0.48031496062992124
        },
        {
          "duration": 1.5120997031249956,
          "durationTicks": 2064,
          "midi": 51,
          "name": "D#3",
          "ticks": 77828,
          "time": 57.098546175781266,
          "velocity": 0.48031496062992124
        },
        {
          "duration": 1.5120997031249956,
          "durationTicks": 2064,
          "midi": 55,
          "name": "G3",
          "ticks": 77828,
          "time": 57.098546175781266,
          "velocity": 0.5905511811023622
        },
        {
          "duration": 0.3714314677734407,
          "durationTicks": 507,
          "midi": 67,
          "name": "G4",
          "ticks": 78370,
          "time": 57.495618869140635,
          "velocity": 0.5039370078740157
        },
        {
          "duration": 0.34725545507812683,
          "durationTicks": 474,
          "midi": 67,
          "name": "G4",
          "ticks": 78878,
          "time": 57.86778294335939,
          "velocity": 0.5118110236220472
        },
        {
          "duration": 0.3509184873046891,
          "durationTicks": 479,
          "midi": 72,
          "name": "C5",
          "ticks": 79383,
          "time": 58.2377491982422,
          "velocity": 0.5039370078740157
        },
        {
          "duration": 0.5545830791015618,
          "durationTicks": 757,
          "midi": 68,
          "name": "G#4",
          "ticks": 79893,
          "time": 58.61137848535158,
          "velocity": 0.5275590551181102
        },
        {
          "duration": 1.4842606582031195,
          "durationTicks": 2026,
          "midi": 48,
          "name": "C3",
          "ticks": 79893,
          "time": 58.61137848535158,
          "velocity": 0.4645669291338583
        },
        {
          "duration": 1.4842606582031195,
          "durationTicks": 2026,
          "midi": 53,
          "name": "F3",
          "ticks": 79893,
          "time": 58.61137848535158,
          "velocity": 0.4645669291338583
        },
        {
          "duration": 1.4842606582031195,
          "durationTicks": 2026,
          "midi": 56,
          "name": "G#3",
          "ticks": 79893,
          "time": 58.61137848535158,
          "velocity": 0.5748031496062992
        },
        {
          "duration": 0.17655815332031466,
          "durationTicks": 241,
          "midi": 67,
          "name": "G4",
          "ticks": 80651,
          "time": 59.16669417089845,
          "velocity": 0.5039370078740157
        },
        {
          "duration": 0.7406651162109341,
          "durationTicks": 1011,
          "midi": 65,
          "name": "F4",
          "ticks": 80908,
          "time": 59.354974027343765,
          "velocity": 0.5118110236220472
        },
        {
          "duration": 0.26007528808594316,
          "durationTicks": 355,
          "midi": 63,
          "name": "D#4",
          "ticks": 81924,
          "time": 60.09930217578126,
          "velocity": 0.5433070866141733
        },
        {
          "duration": 0.7685041611328103,
          "durationTicks": 1049,
          "midi": 48,
          "name": "C3",
          "ticks": 81924,
          "time": 60.09930217578126,
          "velocity": 0.48031496062992124
        },
        {
          "duration": 0.7685041611328103,
          "durationTicks": 1049,
          "midi": 51,
          "name": "D#3",
          "ticks": 81924,
          "time": 60.09930217578126,
          "velocity": 0.48031496062992124
        },
        {
          "duration": 0.7685041611328103,
          "durationTicks": 1049,
          "midi": 55,
          "name": "G3",
          "ticks": 81924,
          "time": 60.09930217578126,
          "velocity": 0.5905511811023622
        },
        {
          "duration": 0.22784060449218657,
          "durationTicks": 311,
          "midi": 65,
          "name": "F4",
          "ticks": 82300,
          "time": 60.374762199218765,
          "velocity": 0.5039370078740157
        },
        {
          "duration": 0.23516666894531113,
          "durationTicks": 321,
          "midi": 67,
          "name": "G4",
          "ticks": 82632,
          "time": 60.61798753906251,
          "velocity": 0.5039370078740157
        },
        {
          "duration": 0.2344340625000001,
          "durationTicks": 320,
          "midi": 65,
          "name": "F4",
          "ticks": 82974,
          "time": 60.86853894335939,
          "velocity": 0.5118110236220472
        },
        {
          "duration": 0.7428629355468743,
          "durationTicks": 1014,
          "midi": 50,
          "name": "D3",
          "ticks": 82974,
          "time": 60.86853894335939,
          "velocity": 0.44881889763779526
        },
        {
          "duration": 0.7428629355468743,
          "durationTicks": 1014,
          "midi": 55,
          "name": "G3",
          "ticks": 82974,
          "time": 60.86853894335939,
          "velocity": 0.44881889763779526
        },
        {
          "duration": 0.7428629355468743,
          "durationTicks": 1014,
          "midi": 59,
          "name": "B3",
          "ticks": 82974,
          "time": 60.86853894335939,
          "velocity": 0.5590551181102362
        },
        {
          "duration": 0.22564278515624636,
          "durationTicks": 308,
          "midi": 63,
          "name": "D#4",
          "ticks": 83315,
          "time": 61.11835774121095,
          "velocity": 0.5039370078740157
        },
        {
          "duration": 0.23736448828125134,
          "durationTicks": 324,
          "midi": 62,
          "name": "D4",
          "ticks": 83644,
          "time": 61.359385261718764,
          "velocity": 0.5039370078740157
        },
        {
          "duration": 1.4842606582031266,
          "durationTicks": 2026,
          "midi": 60,
          "name": "C4",
          "ticks": 83989,
          "time": 61.612134485351575,
          "velocity": 0.5275590551181102
        },
        {
          "duration": 1.4842606582031266,
          "durationTicks": 2026,
          "midi": 48,
          "name": "C3",
          "ticks": 83989,
          "time": 61.612134485351575,
          "velocity": 0.4645669291338583
        },
        {
          "duration": 1.4842606582031266,
          "durationTicks": 2026,
          "midi": 51,
          "name": "D#3",
          "ticks": 83989,
          "time": 61.612134485351575,
          "velocity": 0.4645669291338583
        },
        {
          "duration": 1.4842606582031266,
          "durationTicks": 2026,
          "midi": 55,
          "name": "G3",
          "ticks": 83989,
          "time": 61.612134485351575,
          "velocity": 0.5748031496062992
        },
        {
          "duration": 0.764108522460937,
          "durationTicks": 1043,
          "midi": 55,
          "name": "G3",
          "ticks": 86026,
          "time": 63.10445381445314,
          "velocity": 0.48031496062992124
        },
        {
          "duration": 0.764108522460937,
          "durationTicks": 1043,
          "midi": 60,
          "name": "C4",
          "ticks": 86026,
          "time": 63.10445381445314,
          "velocity": 0.48031496062992124
        },
        {
          "duration": 0.764108522460937,
          "durationTicks": 1043,
          "midi": 63,
          "name": "D#4",
          "ticks": 86026,
          "time": 63.10445381445314,
          "velocity": 0.5590551181102362
        },
        {
          "duration": 0.24908619140625632,
          "durationTicks": 340,
          "midi": 55,
          "name": "G3",
          "ticks": 87070,
          "time": 63.869294943359385,
          "velocity": 0.3543307086614173
        },
        {
          "duration": 0.24908619140625632,
          "durationTicks": 340,
          "midi": 60,
          "name": "C4",
          "ticks": 87070,
          "time": 63.869294943359385,
          "velocity": 0.3543307086614173
        },
        {
          "duration": 0.24908619140625632,
          "durationTicks": 340,
          "midi": 63,
          "name": "D#4",
          "ticks": 87070,
          "time": 63.869294943359385,
          "velocity": 0.4330708661417323
        },
        {
          "duration": 0.24029491406250258,
          "durationTicks": 328,
          "midi": 55,
          "name": "G3",
          "ticks": 87411,
          "time": 64.11911374121095,
          "velocity": 0.3464566929133858
        },
        {
          "duration": 0.24029491406250258,
          "durationTicks": 328,
          "midi": 60,
          "name": "C4",
          "ticks": 87411,
          "time": 64.11911374121095,
          "velocity": 0.3464566929133858
        },
        {
          "duration": 0.24029491406250258,
          "durationTicks": 328,
          "midi": 63,
          "name": "D#4",
          "ticks": 87411,
          "time": 64.11911374121095,
          "velocity": 0.4251968503937008
        },
        {
          "duration": 0.26666874609374247,
          "durationTicks": 364,
          "midi": 55,
          "name": "G3",
          "ticks": 87740,
          "time": 64.36014126171877,
          "velocity": 0.3464566929133858
        },
        {
          "duration": 0.26666874609374247,
          "durationTicks": 364,
          "midi": 60,
          "name": "C4",
          "ticks": 87740,
          "time": 64.36014126171877,
          "velocity": 0.3464566929133858
        },
        {
          "duration": 0.25201661718749335,
          "durationTicks": 344,
          "midi": 63,
          "name": "D#4",
          "ticks": 87740,
          "time": 64.36014126171877,
          "velocity": 0.4566929133858268
        },
        {
          "duration": 0.7428629355468814,
          "durationTicks": 1014,
          "midi": 53,
          "name": "F3",
          "ticks": 88085,
          "time": 64.61289048535157,
          "velocity": 0.4645669291338583
        },
        {
          "duration": 0.7428629355468814,
          "durationTicks": 1014,
          "midi": 56,
          "name": "G#3",
          "ticks": 88085,
          "time": 64.61289048535157,
          "velocity": 0.4645669291338583
        },
        {
          "duration": 0.7428629355468814,
          "durationTicks": 1014,
          "midi": 65,
          "name": "F4",
          "ticks": 88085,
          "time": 64.61289048535157,
          "velocity": 0.5748031496062992
        },
        {
          "duration": 0.7406651162109341,
          "durationTicks": 1011,
          "midi": 53,
          "name": "F3",
          "ticks": 89100,
          "time": 65.35648602734376,
          "velocity": 0.44881889763779526
        },
        {
          "duration": 0.7406651162109341,
          "durationTicks": 1011,
          "midi": 56,
          "name": "G#3",
          "ticks": 89100,
          "time": 65.35648602734376,
          "velocity": 0.44881889763779526
        },
        {
          "duration": 0.7406651162109341,
          "durationTicks": 1011,
          "midi": 65,
          "name": "F4",
          "ticks": 89100,
          "time": 65.35648602734376,
          "velocity": 0.5590551181102362
        },
        {
          "duration": 0.37436189355467775,
          "durationTicks": 511,
          "midi": 72,
          "name": "C5",
          "ticks": 90116,
          "time": 66.10081417578127,
          "velocity": 0.5433070866141733
        },
        {
          "duration": 1.5120997031250027,
          "durationTicks": 2064,
          "midi": 48,
          "name": "C3",
          "ticks": 90116,
          "time": 66.10081417578127,
          "velocity": 0.48031496062992124
        },
        {
          "duration": 1.5120997031250027,
          "durationTicks": 2064,
          "midi": 51,
          "name": "D#3",
          "ticks": 90116,
          "time": 66.10081417578127,
          "velocity": 0.48031496062992124
        },
        {
          "duration": 1.5120997031250027,
          "durationTicks": 2064,
          "midi": 55,
          "name": "G3",
          "ticks": 90116,
          "time": 66.10081417578127,
          "velocity": 0.5905511811023622
        },
        {
          "duration": 0.3714314677734336,
          "durationTicks": 507,
          "midi": 67,
          "name": "G4",
          "ticks": 90658,
          "time": 66.49788686914064,
          "velocity": 0.5039370078740157
        },
        {
          "duration": 0.34725545507812683,
          "durationTicks": 474,
          "midi": 67,
          "name": "G4",
          "ticks": 91166,
          "time": 66.87005094335939,
          "velocity": 0.5118110236220472
        },
        {
          "duration": 0.3509184873046962,
          "durationTicks": 479,
          "midi": 72,
          "name": "C5",
          "ticks": 91671,
          "time": 67.2400171982422,
          "velocity": 0.5039370078740157
        },
        {
          "duration": 0.5545830791015618,
          "durationTicks": 757,
          "midi": 68,
          "name": "G#4",
          "ticks": 92181,
          "time": 67.61364648535158,
          "velocity": 0.5275590551181102
        },
        {
          "duration": 1.4842606582031266,
          "durationTicks": 2026,
          "midi": 48,
          "name": "C3",
          "ticks": 92181,
          "time": 67.61364648535158,
          "velocity": 0.4645669291338583
        },
        {
          "duration": 1.4842606582031266,
          "durationTicks": 2026,
          "midi": 53,
          "name": "F3",
          "ticks": 92181,
          "time": 67.61364648535158,
          "velocity": 0.4645669291338583
        },
        {
          "duration": 1.4842606582031266,
          "durationTicks": 2026,
          "midi": 56,
          "name": "G#3",
          "ticks": 92181,
          "time": 67.61364648535158,
          "velocity": 0.5748031496062992
        },
        {
          "duration": 0.17655815332031466,
          "durationTicks": 241,
          "midi": 67,
          "name": "G4",
          "ticks": 92939,
          "time": 68.16896217089845,
          "velocity": 0.5039370078740157
        },
        {
          "duration": 0.7406651162109483,
          "durationTicks": 1011,
          "midi": 65,
          "name": "F4",
          "ticks": 93196,
          "time": 68.35724202734376,
          "velocity": 0.5118110236220472
        },
        {
          "duration": 0.37436189355469196,
          "durationTicks": 511,
          "midi": 72,
          "name": "C5",
          "ticks": 94212,
          "time": 69.10157017578126,
          "velocity": 0.5433070866141733
        },
        {
          "duration": 1.5120997031250027,
          "durationTicks": 2064,
          "midi": 48,
          "name": "C3",
          "ticks": 94212,
          "time": 69.10157017578126,
          "velocity": 0.48031496062992124
        },
        {
          "duration": 1.5120997031250027,
          "durationTicks": 2064,
          "midi": 51,
          "name": "D#3",
          "ticks": 94212,
          "time": 69.10157017578126,
          "velocity": 0.48031496062992124
        },
        {
          "duration": 1.5120997031250027,
          "durationTicks": 2064,
          "midi": 55,
          "name": "G3",
          "ticks": 94212,
          "time": 69.10157017578126,
          "velocity": 0.5905511811023622
        },
        {
          "duration": 0.3714314677734336,
          "durationTicks": 507,
          "midi": 67,
          "name": "G4",
          "ticks": 94754,
          "time": 69.49864286914064,
          "velocity": 0.5039370078740157
        },
        {
          "duration": 0.34725545507812683,
          "durationTicks": 474,
          "midi": 67,
          "name": "G4",
          "ticks": 95262,
          "time": 69.87080694335938,
          "velocity": 0.5118110236220472
        },
        {
          "duration": 0.3509184873046962,
          "durationTicks": 479,
          "midi": 72,
          "name": "C5",
          "ticks": 95767,
          "time": 70.2407731982422,
          "velocity": 0.5039370078740157
        },
        {
          "duration": 1.4842606582031266,
          "durationTicks": 2026,
          "midi": 74,
          "name": "D5",
          "ticks": 96277,
          "time": 70.61440248535158,
          "velocity": 0.5275590551181102
        },
        {
          "duration": 0.7428629355468814,
          "durationTicks": 1014,
          "midi": 50,
          "name": "D3",
          "ticks": 96277,
          "time": 70.61440248535158,
          "velocity": 0.4645669291338583
        },
        {
          "duration": 0.7428629355468814,
          "durationTicks": 1014,
          "midi": 53,
          "name": "F3",
          "ticks": 96277,
          "time": 70.61440248535158,
          "velocity": 0.4645669291338583
        },
        {
          "duration": 0.7428629355468814,
          "durationTicks": 1014,
          "midi": 58,
          "name": "A#3",
          "ticks": 96277,
          "time": 70.61440248535158,
          "velocity": 0.5748031496062992
        },
        {
          "duration": 0.7406651162109341,
          "durationTicks": 1011,
          "midi": 50,
          "name": "D3",
          "ticks": 97292,
          "time": 71.35799802734377,
          "velocity": 0.44881889763779526
        },
        {
          "duration": 0.7406651162109341,
          "durationTicks": 1011,
          "midi": 55,
          "name": "G3",
          "ticks": 97292,
          "time": 71.35799802734377,
          "velocity": 0.44881889763779526
        },
        {
          "duration": 0.7406651162109341,
          "durationTicks": 1011,
          "midi": 59,
          "name": "B3",
          "ticks": 97292,
          "time": 71.35799802734377,
          "velocity": 0.5590551181102362
        },
        {
          "duration": 0.37436189355469196,
          "durationTicks": 511,
          "midi": 72,
          "name": "C5",
          "ticks": 98308,
          "time": 72.10232617578126,
          "velocity": 0.5433070866141733
        },
        {
          "duration": 1.5120997031250027,
          "durationTicks": 2064,
          "midi": 48,
          "name": "C3",
          "ticks": 98308,
          "time": 72.10232617578126,
          "velocity": 0.48031496062992124
        },
        {
          "duration": 1.5120997031250027,
          "durationTicks": 2064,
          "midi": 51,
          "name": "D#3",
          "ticks": 98308,
          "time": 72.10232617578126,
          "velocity": 0.48031496062992124
        },
        {
          "duration": 1.5120997031250027,
          "durationTicks": 2064,
          "midi": 55,
          "name": "G3",
          "ticks": 98308,
          "time": 72.10232617578126,
          "velocity": 0.5905511811023622
        },
        {
          "duration": 0.3714314677734478,
          "durationTicks": 507,
          "midi": 67,
          "name": "G4",
          "ticks": 98850,
          "time": 72.49939886914063,
          "velocity": 0.5039370078740157
        },
        {
          "duration": 0.34725545507812683,
          "durationTicks": 474,
          "midi": 67,
          "name": "G4",
          "ticks": 99358,
          "time": 72.8715629433594,
          "velocity": 0.5118110236220472
        },
        {
          "duration": 0.350918487304682,
          "durationTicks": 479,
          "midi": 72,
          "name": "C5",
          "ticks": 99863,
          "time": 73.2415291982422,
          "velocity": 0.5039370078740157
        },
        {
          "duration": 0.5545830791015618,
          "durationTicks": 757,
          "midi": 68,
          "name": "G#4",
          "ticks": 100373,
          "time": 73.61515848535157,
          "velocity": 0.5275590551181102
        },
        {
          "duration": 1.4842606582031266,
          "durationTicks": 2026,
          "midi": 48,
          "name": "C3",
          "ticks": 100373,
          "time": 73.61515848535157,
          "velocity": 0.4645669291338583
        },
        {
          "duration": 1.4842606582031266,
          "durationTicks": 2026,
          "midi": 53,
          "name": "F3",
          "ticks": 100373,
          "time": 73.61515848535157,
          "velocity": 0.4645669291338583
        },
        {
          "duration": 1.4842606582031266,
          "durationTicks": 2026,
          "midi": 56,
          "name": "G#3",
          "ticks": 100373,
          "time": 73.61515848535157,
          "velocity": 0.5748031496062992
        },
        {
          "duration": 0.17655815332031466,
          "durationTicks": 241,
          "midi": 67,
          "name": "G4",
          "ticks": 101131,
          "time": 74.17047417089844,
          "velocity": 0.5039370078740157
        },
        {
          "duration": 0.7406651162109341,
          "durationTicks": 1011,
          "midi": 65,
          "name": "F4",
          "ticks": 101388,
          "time": 74.35875402734376,
          "velocity": 0.5118110236220472
        },
        {
          "duration": 0.26007528808592895,
          "durationTicks": 355,
          "midi": 63,
          "name": "D#4",
          "ticks": 102404,
          "time": 75.10308217578127,
          "velocity": 0.5433070866141733
        },
        {
          "duration": 0.7685041611328103,
          "durationTicks": 1049,
          "midi": 48,
          "name": "C3",
          "ticks": 102404,
          "time": 75.10308217578127,
          "velocity": 0.48031496062992124
        },
        {
          "duration": 0.7685041611328103,
          "durationTicks": 1049,
          "midi": 51,
          "name": "D#3",
          "ticks": 102404,
          "time": 75.10308217578127,
          "velocity": 0.48031496062992124
        },
        {
          "duration": 0.7685041611328103,
          "durationTicks": 1049,
          "midi": 55,
          "name": "G3",
          "ticks": 102404,
          "time": 75.10308217578127,
          "velocity": 0.5905511811023622
        },
        {
          "duration": 0.22784060449218657,
          "durationTicks": 311,
          "midi": 65,
          "name": "F4",
          "ticks": 102780,
          "time": 75.37854219921877,
          "velocity": 0.5039370078740157
        },
        {
          "duration": 0.23516666894531113,
          "durationTicks": 321,
          "midi": 67,
          "name": "G4",
          "ticks": 103112,
          "time": 75.62176753906252,
          "velocity": 0.5039370078740157
        },
        {
          "duration": 0.2344340625000001,
          "durationTicks": 320,
          "midi": 65,
          "name": "F4",
          "ticks": 103454,
          "time": 75.87231894335939,
          "velocity": 0.5118110236220472
        },
        {
          "duration": 0.7428629355468814,
          "durationTicks": 1014,
          "midi": 50,
          "name": "D3",
          "ticks": 103454,
          "time": 75.87231894335939,
          "velocity": 0.44881889763779526
        },
        {
          "duration": 0.7428629355468814,
          "durationTicks": 1014,
          "midi": 55,
          "name": "G3",
          "ticks": 103454,
          "time": 75.87231894335939,
          "velocity": 0.44881889763779526
        },
        {
          "duration": 0.7428629355468814,
          "durationTicks": 1014,
          "midi": 59,
          "name": "B3",
          "ticks": 103454,
          "time": 75.87231894335939,
          "velocity": 0.5590551181102362
        },
        {
          "duration": 0.22564278515625347,
          "durationTicks": 308,
          "midi": 63,
          "name": "D#4",
          "ticks": 103795,
          "time": 76.12213774121095,
          "velocity": 0.5039370078740157
        },
        {
          "duration": 0.23736448828125845,
          "durationTicks": 324,
          "midi": 62,
          "name": "D4",
          "ticks": 104124,
          "time": 76.36316526171876,
          "velocity": 0.5039370078740157
        },
        {
          "duration": 1.518269726562508,
          "durationTicks": 2026,
          "midi": 60,
          "name": "C4",
          "ticks": 104469,
          "time": 76.61591448535158,
          "velocity": 0.5275590551181102
        },
        {
          "duration": 1.518269726562508,
          "durationTicks": 2026,
          "midi": 48,
          "name": "C3",
          "ticks": 104469,
          "time": 76.61591448535158,
          "velocity": 0.4645669291338583
        },
        {
          "duration": 1.518269726562508,
          "durationTicks": 2026,
          "midi": 51,
          "name": "D#3",
          "ticks": 104469,
          "time": 76.61591448535158,
          "velocity": 0.4645669291338583
        },
        {
          "duration": 1.518269726562508,
          "durationTicks": 2026,
          "midi": 55,
          "name": "G3",
          "ticks": 104469,
          "time": 76.61591448535158,
          "velocity": 0.5748031496062992
        },
        {
          "duration": 0.38284966699220035,
          "durationTicks": 511,
          "midi": 72,
          "name": "C5",
          "ticks": 106500,
          "time": 78.13801565234377,
          "velocity": 0.5433070866141733
        },
        {
          "duration": 1.5205874765625111,
          "durationTicks": 2064,
          "midi": 48,
          "name": "C3",
          "ticks": 106500,
          "time": 78.13801565234377,
          "velocity": 0.48031496062992124
        },
        {
          "duration": 1.5205874765625111,
          "durationTicks": 2064,
          "midi": 51,
          "name": "D#3",
          "ticks": 106500,
          "time": 78.13801565234377,
          "velocity": 0.48031496062992124
        },
        {
          "duration": 1.5205874765625111,
          "durationTicks": 2064,
          "midi": 55,
          "name": "G3",
          "ticks": 106500,
          "time": 78.13801565234377,
          "velocity": 0.5905511811023622
        },
        {
          "duration": 0.3714314677734336,
          "durationTicks": 507,
          "midi": 67,
          "name": "G4",
          "ticks": 107042,
          "time": 78.54357611914065,
          "velocity": 0.5039370078740157
        },
        {
          "duration": 0.34725545507812683,
          "durationTicks": 474,
          "midi": 67,
          "name": "G4",
          "ticks": 107550,
          "time": 78.9157401933594,
          "velocity": 0.5118110236220472
        },
        {
          "duration": 0.3509184873046962,
          "durationTicks": 479,
          "midi": 72,
          "name": "C5",
          "ticks": 108055,
          "time": 79.28570644824221,
          "velocity": 0.5039370078740157
        },
        {
          "duration": 0.5545830791015618,
          "durationTicks": 757,
          "midi": 68,
          "name": "G#4",
          "ticks": 108565,
          "time": 79.65933573535159,
          "velocity": 0.5275590551181102
        },
        {
          "duration": 1.4842606582031266,
          "durationTicks": 2026,
          "midi": 48,
          "name": "C3",
          "ticks": 108565,
          "time": 79.65933573535159,
          "velocity": 0.4645669291338583
        },
        {
          "duration": 1.4842606582031266,
          "durationTicks": 2026,
          "midi": 53,
          "name": "F3",
          "ticks": 108565,
          "time": 79.65933573535159,
          "velocity": 0.4645669291338583
        },
        {
          "duration": 1.4842606582031266,
          "durationTicks": 2026,
          "midi": 56,
          "name": "G#3",
          "ticks": 108565,
          "time": 79.65933573535159,
          "velocity": 0.5748031496062992
        },
        {
          "duration": 0.17655815332031466,
          "durationTicks": 241,
          "midi": 67,
          "name": "G4",
          "ticks": 109323,
          "time": 80.21465142089846,
          "velocity": 0.5039370078740157
        },
        {
          "duration": 0.7406651162109341,
          "durationTicks": 1011,
          "midi": 65,
          "name": "F4",
          "ticks": 109580,
          "time": 80.40293127734378,
          "velocity": 0.5118110236220472
        },
        {
          "duration": 0.37436189355469196,
          "durationTicks": 511,
          "midi": 72,
          "name": "C5",
          "ticks": 110596,
          "time": 81.14725942578127,
          "velocity": 0.5433070866141733
        },
        {
          "duration": 1.5120997031250027,
          "durationTicks": 2064,
          "midi": 48,
          "name": "C3",
          "ticks": 110596,
          "time": 81.14725942578127,
          "velocity": 0.48031496062992124
        },
        {
          "duration": 1.5120997031250027,
          "durationTicks": 2064,
          "midi": 51,
          "name": "D#3",
          "ticks": 110596,
          "time": 81.14725942578127,
          "velocity": 0.48031496062992124
        },
        {
          "duration": 1.5120997031250027,
          "durationTicks": 2064,
          "midi": 55,
          "name": "G3",
          "ticks": 110596,
          "time": 81.14725942578127,
          "velocity": 0.5905511811023622
        },
        {
          "duration": 0.3714314677734478,
          "durationTicks": 507,
          "midi": 67,
          "name": "G4",
          "ticks": 111138,
          "time": 81.54433211914065,
          "velocity": 0.5039370078740157
        },
        {
          "duration": 0.34725545507812683,
          "durationTicks": 474,
          "midi": 67,
          "name": "G4",
          "ticks": 111646,
          "time": 81.91649619335941,
          "velocity": 0.5118110236220472
        },
        {
          "duration": 0.350918487304682,
          "durationTicks": 479,
          "midi": 72,
          "name": "C5",
          "ticks": 112151,
          "time": 82.28646244824222,
          "velocity": 0.5039370078740157
        },
        {
          "duration": 1.4842606582031266,
          "durationTicks": 2026,
          "midi": 74,
          "name": "D5",
          "ticks": 112661,
          "time": 82.66009173535159,
          "velocity": 0.5275590551181102
        },
        {
          "duration": 0.7428629355468814,
          "durationTicks": 1014,
          "midi": 50,
          "name": "D3",
          "ticks": 112661,
          "time": 82.66009173535159,
          "velocity": 0.4645669291338583
        },
        {
          "duration": 0.7428629355468814,
          "durationTicks": 1014,
          "midi": 53,
          "name": "F3",
          "ticks": 112661,
          "time": 82.66009173535159,
          "velocity": 0.4645669291338583
        },
        {
          "duration": 0.7428629355468814,
          "durationTicks": 1014,
          "midi": 58,
          "name": "A#3",
          "ticks": 112661,
          "time": 82.66009173535159,
          "velocity": 0.5748031496062992
        },
        {
          "duration": 0.7406651162109341,
          "durationTicks": 1011,
          "midi": 50,
          "name": "D3",
          "ticks": 113676,
          "time": 83.40368727734378,
          "velocity": 0.44881889763779526
        },
        {
          "duration": 0.7406651162109341,
          "durationTicks": 1011,
          "midi": 55,
          "name": "G3",
          "ticks": 113676,
          "time": 83.40368727734378,
          "velocity": 0.44881889763779526
        },
        {
          "duration": 0.7406651162109341,
          "durationTicks": 1011,
          "midi": 59,
          "name": "B3",
          "ticks": 113676,
          "time": 83.40368727734378,
          "velocity": 0.5590551181102362
        },
        {
          "duration": 0.37436189355467775,
          "durationTicks": 511,
          "midi": 72,
          "name": "C5",
          "ticks": 114692,
          "time": 84.14801542578128,
          "velocity": 0.5433070866141733
        },
        {
          "duration": 1.5120997031250027,
          "durationTicks": 2064,
          "midi": 48,
          "name": "C3",
          "ticks": 114692,
          "time": 84.14801542578128,
          "velocity": 0.48031496062992124
        },
        {
          "duration": 1.5120997031250027,
          "durationTicks": 2064,
          "midi": 51,
          "name": "D#3",
          "ticks": 114692,
          "time": 84.14801542578128,
          "velocity": 0.48031496062992124
        },
        {
          "duration": 1.5120997031250027,
          "durationTicks": 2064,
          "midi": 55,
          "name": "G3",
          "ticks": 114692,
          "time": 84.14801542578128,
          "velocity": 0.5905511811023622
        },
        {
          "duration": 0.3714314677734336,
          "durationTicks": 507,
          "midi": 67,
          "name": "G4",
          "ticks": 115234,
          "time": 84.54508811914066,
          "velocity": 0.5039370078740157
        },
        {
          "duration": 0.34725545507812683,
          "durationTicks": 474,
          "midi": 67,
          "name": "G4",
          "ticks": 115742,
          "time": 84.9172521933594,
          "velocity": 0.5118110236220472
        },
        {
          "duration": 0.350918487304682,
          "durationTicks": 479,
          "midi": 72,
          "name": "C5",
          "ticks": 116247,
          "time": 85.28721844824221,
          "velocity": 0.5039370078740157
        },
        {
          "duration": 0.5545830791015618,
          "durationTicks": 757,
          "midi": 68,
          "name": "G#4",
          "ticks": 116757,
          "time": 85.6608477353516,
          "velocity": 0.5275590551181102
        },
        {
          "duration": 1.4842606582031266,
          "durationTicks": 2026,
          "midi": 48,
          "name": "C3",
          "ticks": 116757,
          "time": 85.6608477353516,
          "velocity": 0.4645669291338583
        },
        {
          "duration": 1.4842606582031266,
          "durationTicks": 2026,
          "midi": 53,
          "name": "F3",
          "ticks": 116757,
          "time": 85.6608477353516,
          "velocity": 0.4645669291338583
        },
        {
          "duration": 1.4842606582031266,
          "durationTicks": 2026,
          "midi": 56,
          "name": "G#3",
          "ticks": 116757,
          "time": 85.6608477353516,
          "velocity": 0.5748031496062992
        },
        {
          "duration": 0.17655815332031466,
          "durationTicks": 241,
          "midi": 67,
          "name": "G4",
          "ticks": 117515,
          "time": 86.21616342089847,
          "velocity": 0.5039370078740157
        },
        {
          "duration": 0.7406651162109483,
          "durationTicks": 1011,
          "midi": 65,
          "name": "F4",
          "ticks": 117772,
          "time": 86.40444327734377,
          "velocity": 0.5118110236220472
        },
        {
          "duration": 0.26007528808594316,
          "durationTicks": 355,
          "midi": 63,
          "name": "D#4",
          "ticks": 118788,
          "time": 87.14877142578128,
          "velocity": 0.5433070866141733
        },
        {
          "duration": 0.7685041611328103,
          "durationTicks": 1049,
          "midi": 48,
          "name": "C3",
          "ticks": 118788,
          "time": 87.14877142578128,
          "velocity": 0.48031496062992124
        },
        {
          "duration": 0.7685041611328103,
          "durationTicks": 1049,
          "midi": 51,
          "name": "D#3",
          "ticks": 118788,
          "time": 87.14877142578128,
          "velocity": 0.48031496062992124
        },
        {
          "duration": 0.7685041611328103,
          "durationTicks": 1049,
          "midi": 55,
          "name": "G3",
          "ticks": 118788,
          "time": 87.14877142578128,
          "velocity": 0.5905511811023622
        },
        {
          "duration": 0.22784060449218657,
          "durationTicks": 311,
          "midi": 67,
          "name": "G4",
          "ticks": 119164,
          "time": 87.42423144921878,
          "velocity": 0.5039370078740157
        },
        {
          "duration": 0.23516666894531113,
          "durationTicks": 321,
          "midi": 72,
          "name": "C5",
          "ticks": 119496,
          "time": 87.66745678906253,
          "velocity": 0.5039370078740157
        },
        {
          "duration": 0.2344340625000001,
          "durationTicks": 320,
          "midi": 71,
          "name": "B4",
          "ticks": 119838,
          "time": 87.9180081933594,
          "velocity": 0.5118110236220472
        },
        {
          "duration": 0.7428629355468814,
          "durationTicks": 1014,
          "midi": 47,
          "name": "B2",
          "ticks": 119838,
          "time": 87.9180081933594,
          "velocity": 0.5354330708661418
        },
        {
          "duration": 0.7428629355468814,
          "durationTicks": 1014,
          "midi": 50,
          "name": "D3",
          "ticks": 119838,
          "time": 87.9180081933594,
          "velocity": 0.5354330708661418
        },
        {
          "duration": 0.7428629355468814,
          "durationTicks": 1014,
          "midi": 55,
          "name": "G3",
          "ticks": 119838,
          "time": 87.9180081933594,
          "velocity": 0.49606299212598426
        },
        {
          "duration": 0.22564278515623926,
          "durationTicks": 308,
          "midi": 72,
          "name": "C5",
          "ticks": 120179,
          "time": 88.16782699121097,
          "velocity": 0.5039370078740157
        },
        {
          "duration": 0.23736448828125845,
          "durationTicks": 324,
          "midi": 74,
          "name": "D5",
          "ticks": 120508,
          "time": 88.40885451171877,
          "velocity": 0.5039370078740157
        },
        {
          "duration": 1.112829190429693,
          "durationTicks": 1519,
          "midi": 72,
          "name": "C5",
          "ticks": 120853,
          "time": 88.66160373535159,
          "velocity": 0.5275590551181102
        },
        {
          "duration": 1.4842606582031266,
          "durationTicks": 2026,
          "midi": 48,
          "name": "C3",
          "ticks": 120853,
          "time": 88.66160373535159,
          "velocity": 0.4645669291338583
        },
        {
          "duration": 1.4842606582031266,
          "durationTicks": 2026,
          "midi": 51,
          "name": "D#3",
          "ticks": 120853,
          "time": 88.66160373535159,
          "velocity": 0.4645669291338583
        },
        {
          "duration": 1.4842606582031266,
          "durationTicks": 2026,
          "midi": 55,
          "name": "G3",
          "ticks": 120853,
          "time": 88.66160373535159,
          "velocity": 0.5748031496062992
        },
        {
          "duration": 0.11282139257812673,
          "durationTicks": 154,
          "midi": 72,
          "name": "C5",
          "ticks": 122373,
          "time": 89.7751655322266,
          "velocity": 0.5039370078740157
        },
        {
          "duration": 0.11355399902343777,
          "durationTicks": 155,
          "midi": 74,
          "name": "D5",
          "ticks": 122538,
          "time": 89.89604559570316,
          "velocity": 0.5039370078740157
        },
        {
          "duration": 0.12088006347656233,
          "durationTicks": 165,
          "midi": 75,
          "name": "D#5",
          "ticks": 122704,
          "time": 90.01765826562503,
          "velocity": 0.5039370078740157
        },
        {
          "duration": 0.39634008691406564,
          "durationTicks": 541,
          "midi": 77,
          "name": "F5",
          "ticks": 122884,
          "time": 90.14952742578127,
          "velocity": 0.5433070866141733
        },
        {
          "duration": 1.5120997031250027,
          "durationTicks": 2064,
          "midi": 46,
          "name": "A#2",
          "ticks": 122884,
          "time": 90.14952742578127,
          "velocity": 0.48031496062992124
        },
        {
          "duration": 1.5120997031250027,
          "durationTicks": 2064,
          "midi": 50,
          "name": "D3",
          "ticks": 122884,
          "time": 90.14952742578127,
          "velocity": 0.48031496062992124
        },
        {
          "duration": 1.5120997031250027,
          "durationTicks": 2064,
          "midi": 53,
          "name": "F3",
          "ticks": 122884,
          "time": 90.14952742578127,
          "velocity": 0.5905511811023622
        },
        {
          "duration": 0.17069730175781217,
          "durationTicks": 233,
          "midi": 77,
          "name": "F5",
          "ticks": 123426,
          "time": 90.54660011914065,
          "velocity": 0.5039370078740157
        },
        {
          "duration": 0.17802336621093673,
          "durationTicks": 243,
          "midi": 79,
          "name": "G5",
          "ticks": 123675,
          "time": 90.72901912402347,
          "velocity": 0.5039370078740157
        },
        {
          "duration": 0.1772907597656257,
          "durationTicks": 242,
          "midi": 77,
          "name": "F5",
          "ticks": 123934,
          "time": 90.91876419335941,
          "velocity": 0.5118110236220472
        },
        {
          "duration": 0.1692320888671901,
          "durationTicks": 231,
          "midi": 75,
          "name": "D#5",
          "ticks": 124192,
          "time": 91.10777665625002,
          "velocity": 0.5039370078740157
        },
        {
          "duration": 0.350918487304682,
          "durationTicks": 479,
          "midi": 74,
          "name": "D5",
          "ticks": 124439,
          "time": 91.28873044824222,
          "velocity": 0.5039370078740157
        },
        {
          "duration": 0.3509184873046962,
          "durationTicks": 479,
          "midi": 75,
          "name": "D#5",
          "ticks": 124949,
          "time": 91.66235973535159,
          "velocity": 0.5275590551181102
        },
        {
          "duration": 1.4842606582031266,
          "durationTicks": 2026,
          "midi": 48,
          "name": "C3",
          "ticks": 124949,
          "time": 91.66235973535159,
          "velocity": 0.4645669291338583
        },
        {
          "duration": 1.4842606582031266,
          "durationTicks": 2026,
          "midi": 51,
          "name": "D#3",
          "ticks": 124949,
          "time": 91.66235973535159,
          "velocity": 0.4645669291338583
        },
        {
          "duration": 1.4842606582031266,
          "durationTicks": 2026,
          "midi": 55,
          "name": "G3",
          "ticks": 124949,
          "time": 91.66235973535159,
          "velocity": 0.5748031496062992
        },
        {
          "duration": 0.34725545507812683,
          "durationTicks": 474,
          "midi": 72,
          "name": "C5",
          "ticks": 125459,
          "time": 92.03598902246097,
          "velocity": 0.5039370078740157
        },
        {
          "duration": 0.34725545507812683,
          "durationTicks": 474,
          "midi": 67,
          "name": "G4",
          "ticks": 125964,
          "time": 92.40595527734378,
          "velocity": 0.5118110236220472
        },
        {
          "duration": 0.11282139257812673,
          "durationTicks": 154,
          "midi": 72,
          "name": "C5",
          "ticks": 126469,
          "time": 92.77592153222659,
          "velocity": 0.5039370078740157
        },
        {
          "duration": 0.11355399902343777,
          "durationTicks": 155,
          "midi": 74,
          "name": "D5",
          "ticks": 126634,
          "time": 92.89680159570315,
          "velocity": 0.5039370078740157
        },
        {
          "duration": 0.12088006347656233,
          "durationTicks": 165,
          "midi": 75,
          "name": "D#5",
          "ticks": 126800,
          "time": 93.01841426562503,
          "velocity": 0.5039370078740157
        },
        {
          "duration": 0.3963400869140514,
          "durationTicks": 541,
          "midi": 77,
          "name": "F5",
          "ticks": 126980,
          "time": 93.15028342578128,
          "velocity": 0.5433070866141733
        },
        {
          "duration": 1.5120997031249885,
          "durationTicks": 2064,
          "midi": 46,
          "name": "A#2",
          "ticks": 126980,
          "time": 93.15028342578128,
          "velocity": 0.48031496062992124
        },
        {
          "duration": 1.5120997031249885,
          "durationTicks": 2064,
          "midi": 50,
          "name": "D3",
          "ticks": 126980,
          "time": 93.15028342578128,
          "velocity": 0.48031496062992124
        },
        {
          "duration": 1.5120997031249885,
          "durationTicks": 2064,
          "midi": 53,
          "name": "F3",
          "ticks": 126980,
          "time": 93.15028342578128,
          "velocity": 0.5905511811023622
        },
        {
          "duration": 0.17069730175781217,
          "durationTicks": 233,
          "midi": 77,
          "name": "F5",
          "ticks": 127522,
          "time": 93.54735611914066,
          "velocity": 0.5039370078740157
        },
        {
          "duration": 0.17802336621093673,
          "durationTicks": 243,
          "midi": 79,
          "name": "G5",
          "ticks": 127771,
          "time": 93.72977512402346,
          "velocity": 0.5039370078740157
        },
        {
          "duration": 0.1772907597656257,
          "durationTicks": 242,
          "midi": 77,
          "name": "F5",
          "ticks": 128030,
          "time": 93.9195201933594,
          "velocity": 0.5118110236220472
        },
        {
          "duration": 0.1692320888671759,
          "durationTicks": 231,
          "midi": 75,
          "name": "D#5",
          "ticks": 128288,
          "time": 94.10853265625003,
          "velocity": 0.5039370078740157
        },
        {
          "duration": 0.3509184873046962,
          "durationTicks": 479,
          "midi": 74,
          "name": "D5",
          "ticks": 128535,
          "time": 94.28948644824222,
          "velocity": 0.5039370078740157
        },
        {
          "duration": 0.18101215136718452,
          "durationTicks": 247,
          "midi": 75,
          "name": "D#5",
          "ticks": 129045,
          "time": 94.66311573535158,
          "velocity": 0.5275590551181102
        },
        {
          "duration": 1.5035351962890786,
          "durationTicks": 2026,
          "midi": 44,
          "name": "G#2",
          "ticks": 129045,
          "time": 94.66311573535158,
          "velocity": 0.4645669291338583
        },
        {
          "duration": 1.5035351962890786,
          "durationTicks": 2026,
          "midi": 48,
          "name": "C3",
          "ticks": 129045,
          "time": 94.66311573535158,
          "velocity": 0.4645669291338583
        },
        {
          "duration": 1.5035351962890786,
          "durationTicks": 2026,
          "midi": 51,
          "name": "D#3",
          "ticks": 129045,
          "time": 94.66311573535158,
          "velocity": 0.5748031496062992
        },
        {
          "duration": 0.17035550683594636,
          "durationTicks": 231,
          "midi": 74,
          "name": "D5",
          "ticks": 129308,
          "time": 94.85592740234377,
          "velocity": 0.5039370078740157
        },
        {
          "duration": 1.128568506835947,
          "durationTicks": 1516,
          "midi": 72,
          "name": "C5",
          "ticks": 129555,
          "time": 95.03808242480471,
          "velocity": 0.5039370078740157
        },
        {
          "duration": 0.37436189355469196,
          "durationTicks": 511,
          "midi": 70,
          "name": "A#4",
          "ticks": 131076,
          "time": 96.17033267578127,
          "velocity": 0.5433070866141733
        },
        {
          "duration": 1.5120997031250027,
          "durationTicks": 2064,
          "midi": 46,
          "name": "A#2",
          "ticks": 131076,
          "time": 96.17033267578127,
          "velocity": 0.48031496062992124
        },
        {
          "duration": 1.5120997031250027,
          "durationTicks": 2064,
          "midi": 51,
          "name": "D#3",
          "ticks": 131076,
          "time": 96.17033267578127,
          "velocity": 0.48031496062992124
        },
        {
          "duration": 1.5120997031250027,
          "durationTicks": 2064,
          "midi": 55,
          "name": "G3",
          "ticks": 131076,
          "time": 96.17033267578127,
          "velocity": 0.5905511811023622
        },
        {
          "duration": 0.3714314677734478,
          "durationTicks": 507,
          "midi": 75,
          "name": "D#5",
          "ticks": 131618,
          "time": 96.56740536914064,
          "velocity": 0.5039370078740157
        },
        {
          "duration": 0.34725545507812683,
          "durationTicks": 474,
          "midi": 75,
          "name": "D#5",
          "ticks": 132126,
          "time": 96.9395694433594,
          "velocity": 0.5118110236220472
        },
        {
          "duration": 0.350918487304682,
          "durationTicks": 479,
          "midi": 79,
          "name": "G5",
          "ticks": 132631,
          "time": 97.30953569824221,
          "velocity": 0.5039370078740157
        },
        {
          "duration": 0.5545830791015618,
          "durationTicks": 757,
          "midi": 80,
          "name": "G#5",
          "ticks": 133141,
          "time": 97.68316498535158,
          "velocity": 0.5275590551181102
        },
        {
          "duration": 1.4842606582031266,
          "durationTicks": 2026,
          "midi": 48,
          "name": "C3",
          "ticks": 133141,
          "time": 97.68316498535158,
          "velocity": 0.4645669291338583
        },
        {
          "duration": 1.4842606582031266,
          "durationTicks": 2026,
          "midi": 53,
          "name": "F3",
          "ticks": 133141,
          "time": 97.68316498535158,
          "velocity": 0.4645669291338583
        },
        {
          "duration": 1.4842606582031266,
          "durationTicks": 2026,
          "midi": 56,
          "name": "G#3",
          "ticks": 133141,
          "time": 97.68316498535158,
          "velocity": 0.5748031496062992
        },
        {
          "duration": 0.17655815332030045,
          "durationTicks": 241,
          "midi": 77,
          "name": "F5",
          "ticks": 133899,
          "time": 98.23848067089847,
          "velocity": 0.5039370078740157
        },
        {
          "duration": 0.34725545507812683,
          "durationTicks": 474,
          "midi": 72,
          "name": "C5",
          "ticks": 134156,
          "time": 98.42676052734377,
          "velocity": 0.5118110236220472
        },
        {
          "duration": 0.3487206679687489,
          "durationTicks": 476,
          "midi": 68,
          "name": "G#4",
          "ticks": 134661,
          "time": 98.79672678222659,
          "velocity": 0.5039370078740157
        },
        {
          "duration": 0.5787590917968686,
          "durationTicks": 790,
          "midi": 67,
          "name": "G4",
          "ticks": 135172,
          "time": 99.17108867578128,
          "velocity": 0.5433070866141733
        },
        {
          "duration": 1.5120997031250027,
          "durationTicks": 2064,
          "midi": 47,
          "name": "B2",
          "ticks": 135172,
          "time": 99.17108867578128,
          "velocity": 0.48031496062992124
        },
        {
          "duration": 1.5120997031250027,
          "durationTicks": 2064,
          "midi": 50,
          "name": "D3",
          "ticks": 135172,
          "time": 99.17108867578128,
          "velocity": 0.48031496062992124
        },
        {
          "duration": 1.5120997031250027,
          "durationTicks": 2064,
          "midi": 55,
          "name": "G3",
          "ticks": 135172,
          "time": 99.17108867578128,
          "velocity": 0.5905511811023622
        },
        {
          "duration": 0.17802336621093673,
          "durationTicks": 243,
          "midi": 69,
          "name": "A4",
          "ticks": 135963,
          "time": 99.75058037402346,
          "velocity": 0.5039370078740157
        },
        {
          "duration": 0.34725545507812683,
          "durationTicks": 474,
          "midi": 71,
          "name": "B4",
          "ticks": 136222,
          "time": 99.9403254433594,
          "velocity": 0.5118110236220472
        },
        {
          "duration": 0.3509184873046962,
          "durationTicks": 479,
          "midi": 74,
          "name": "D5",
          "ticks": 136727,
          "time": 100.31029169824221,
          "velocity": 0.5039370078740157
        },
        {
          "duration": 0.3728966806640557,
          "durationTicks": 509,
          "midi": 79,
          "name": "G5",
          "ticks": 137237,
          "time": 100.68392098535159,
          "velocity": 0.5275590551181102
        },
        {
          "duration": 1.4842606582031266,
          "durationTicks": 2026,
          "midi": 50,
          "name": "D3",
          "ticks": 137237,
          "time": 100.68392098535159,
          "velocity": 0.4645669291338583
        },
        {
          "duration": 1.4842606582031266,
          "durationTicks": 2026,
          "midi": 55,
          "name": "G3",
          "ticks": 137237,
          "time": 100.68392098535159,
          "velocity": 0.4645669291338583
        },
        {
          "duration": 1.4842606582031266,
          "durationTicks": 2026,
          "midi": 59,
          "name": "B3",
          "ticks": 137237,
          "time": 100.68392098535159,
          "velocity": 0.5748031496062992
        },
        {
          "duration": 0.34725545507812683,
          "durationTicks": 474,
          "midi": 79,
          "name": "G5",
          "ticks": 137747,
          "time": 101.05755027246096,
          "velocity": 0.5039370078740157
        },
        {
          "duration": 0.34725545507812683,
          "durationTicks": 474,
          "midi": 81,
          "name": "A5",
          "ticks": 138252,
          "time": 101.42751652734377,
          "velocity": 0.5118110236220472
        },
        {
          "duration": 0.3487206679687631,
          "durationTicks": 476,
          "midi": 83,
          "name": "B5",
          "ticks": 138757,
          "time": 101.79748278222658,
          "velocity": 0.5039370078740157
        },
        {
          "duration": 0.39634008691406564,
          "durationTicks": 541,
          "midi": 77,
          "name": "F5",
          "ticks": 139268,
          "time": 102.17184467578127,
          "velocity": 0.5433070866141733
        },
        {
          "duration": 1.5120997031250027,
          "durationTicks": 2064,
          "midi": 46,
          "name": "A#2",
          "ticks": 139268,
          "time": 102.17184467578127,
          "velocity": 0.48031496062992124
        },
        {
          "duration": 1.5120997031250027,
          "durationTicks": 2064,
          "midi": 50,
          "name": "D3",
          "ticks": 139268,
          "time": 102.17184467578127,
          "velocity": 0.48031496062992124
        },
        {
          "duration": 1.5120997031250027,
          "durationTicks": 2064,
          "midi": 53,
          "name": "F3",
          "ticks": 139268,
          "time": 102.17184467578127,
          "velocity": 0.5905511811023622
        },
        {
          "duration": 0.17069730175781217,
          "durationTicks": 233,
          "midi": 77,
          "name": "F5",
          "ticks": 139810,
          "time": 102.56891736914065,
          "velocity": 0.5039370078740157
        },
        {
          "duration": 0.17802336621093673,
          "durationTicks": 243,
          "midi": 79,
          "name": "G5",
          "ticks": 140059,
          "time": 102.75133637402347,
          "velocity": 0.5039370078740157
        },
        {
          "duration": 0.1772907597656257,
          "durationTicks": 242,
          "midi": 77,
          "name": "F5",
          "ticks": 140318,
          "time": 102.9410814433594,
          "velocity": 0.5118110236220472
        },
        {
          "duration": 0.1692320888671901,
          "durationTicks": 231,
          "midi": 75,
          "name": "D#5",
          "ticks": 140576,
          "time": 103.13009390625002,
          "velocity": 0.5039370078740157
        },
        {
          "duration": 0.3509184873046962,
          "durationTicks": 479,
          "midi": 74,
          "name": "D5",
          "ticks": 140823,
          "time": 103.3110476982422,
          "velocity": 0.5039370078740157
        },
        {
          "duration": 0.350918487304682,
          "durationTicks": 479,
          "midi": 75,
          "name": "D#5",
          "ticks": 141333,
          "time": 103.68467698535159,
          "velocity": 0.5275590551181102
        },
        {
          "duration": 1.4842606582031266,
          "durationTicks": 2026,
          "midi": 48,
          "name": "C3",
          "ticks": 141333,
          "time": 103.68467698535159,
          "velocity": 0.4645669291338583
        },
        {
          "duration": 1.4842606582031266,
          "durationTicks": 2026,
          "midi": 51,
          "name": "D#3",
          "ticks": 141333,
          "time": 103.68467698535159,
          "velocity": 0.4645669291338583
        },
        {
          "duration": 1.4842606582031266,
          "durationTicks": 2026,
          "midi": 55,
          "name": "G3",
          "ticks": 141333,
          "time": 103.68467698535159,
          "velocity": 0.5748031496062992
        },
        {
          "duration": 0.34725545507812683,
          "durationTicks": 474,
          "midi": 72,
          "name": "C5",
          "ticks": 141843,
          "time": 104.05830627246097,
          "velocity": 0.5039370078740157
        },
        {
          "duration": 0.3472554550781126,
          "durationTicks": 474,
          "midi": 67,
          "name": "G4",
          "ticks": 142348,
          "time": 104.42827252734378,
          "velocity": 0.5118110236220472
        },
        {
          "duration": 0.11282139257812673,
          "durationTicks": 154,
          "midi": 72,
          "name": "C5",
          "ticks": 142853,
          "time": 104.79823878222659,
          "velocity": 0.5039370078740157
        },
        {
          "duration": 0.11355399902343777,
          "durationTicks": 155,
          "midi": 74,
          "name": "D5",
          "ticks": 143018,
          "time": 104.91911884570315,
          "velocity": 0.5039370078740157
        },
        {
          "duration": 0.12088006347656233,
          "durationTicks": 165,
          "midi": 75,
          "name": "D#5",
          "ticks": 143184,
          "time": 105.04073151562503,
          "velocity": 0.5039370078740157
        },
        {
          "duration": 0.39634008691406564,
          "durationTicks": 541,
          "midi": 77,
          "name": "F5",
          "ticks": 143364,
          "time": 105.17260067578127,
          "velocity": 0.5433070866141733
        },
        {
          "duration": 1.5120997031250027,
          "durationTicks": 2064,
          "midi": 46,
          "name": "A#2",
          "ticks": 143364,
          "time": 105.17260067578127,
          "velocity": 0.48031496062992124
        },
        {
          "duration": 1.5120997031250027,
          "durationTicks": 2064,
          "midi": 50,
          "name": "D3",
          "ticks": 143364,
          "time": 105.17260067578127,
          "velocity": 0.48031496062992124
        },
        {
          "duration": 1.5120997031250027,
          "durationTicks": 2064,
          "midi": 53,
          "name": "F3",
          "ticks": 143364,
          "time": 105.17260067578127,
          "velocity": 0.5905511811023622
        },
        {
          "duration": 0.17069730175781217,
          "durationTicks": 233,
          "midi": 77,
          "name": "F5",
          "ticks": 143906,
          "time": 105.56967336914065,
          "velocity": 0.5039370078740157
        },
        {
          "duration": 0.17802336621093673,
          "durationTicks": 243,
          "midi": 79,
          "name": "G5",
          "ticks": 144155,
          "time": 105.75209237402346,
          "velocity": 0.5039370078740157
        },
        {
          "duration": 0.1772907597656257,
          "durationTicks": 242,
          "midi": 77,
          "name": "F5",
          "ticks": 144414,
          "time": 105.9418374433594,
          "velocity": 0.5118110236220472
        },
        {
          "duration": 0.1692320888671901,
          "durationTicks": 231,
          "midi": 75,
          "name": "D#5",
          "ticks": 144672,
          "time": 106.13084990625002,
          "velocity": 0.5039370078740157
        },
        {
          "duration": 0.350918487304682,
          "durationTicks": 479,
          "midi": 74,
          "name": "D5",
          "ticks": 144919,
          "time": 106.31180369824222,
          "velocity": 0.5039370078740157
        },
        {
          "duration": 0.18101215136718452,
          "durationTicks": 247,
          "midi": 75,
          "name": "D#5",
          "ticks": 145429,
          "time": 106.68543298535158,
          "velocity": 0.5275590551181102
        },
        {
          "duration": 1.5035351962890786,
          "durationTicks": 2026,
          "midi": 44,
          "name": "G#2",
          "ticks": 145429,
          "time": 106.68543298535158,
          "velocity": 0.4645669291338583
        },
        {
          "duration": 1.5035351962890786,
          "durationTicks": 2026,
          "midi": 48,
          "name": "C3",
          "ticks": 145429,
          "time": 106.68543298535158,
          "velocity": 0.4645669291338583
        },
        {
          "duration": 1.5035351962890786,
          "durationTicks": 2026,
          "midi": 51,
          "name": "D#3",
          "ticks": 145429,
          "time": 106.68543298535158,
          "velocity": 0.5748031496062992
        },
        {
          "duration": 0.17035550683594636,
          "durationTicks": 231,
          "midi": 74,
          "name": "D5",
          "ticks": 145692,
          "time": 106.87824465234377,
          "velocity": 0.5039370078740157
        },
        {
          "duration": 1.128568506835947,
          "durationTicks": 1516,
          "midi": 72,
          "name": "C5",
          "ticks": 145939,
          "time": 107.06039967480471,
          "velocity": 0.5039370078740157
        },
        {
          "duration": 0.37436189355469196,
          "durationTicks": 511,
          "midi": 70,
          "name": "A#4",
          "ticks": 147460,
          "time": 108.19264992578127,
          "velocity": 0.5433070866141733
        },
        {
          "duration": 1.5120997031250027,
          "durationTicks": 2064,
          "midi": 46,
          "name": "A#2",
          "ticks": 147460,
          "time": 108.19264992578127,
          "velocity": 0.48031496062992124
        },
        {
          "duration": 1.5120997031250027,
          "durationTicks": 2064,
          "midi": 51,
          "name": "D#3",
          "ticks": 147460,
          "time": 108.19264992578127,
          "velocity": 0.48031496062992124
        },
        {
          "duration": 1.5120997031250027,
          "durationTicks": 2064,
          "midi": 55,
          "name": "G3",
          "ticks": 147460,
          "time": 108.19264992578127,
          "velocity": 0.5905511811023622
        },
        {
          "duration": 0.3714314677734478,
          "durationTicks": 507,
          "midi": 75,
          "name": "D#5",
          "ticks": 148002,
          "time": 108.58972261914064,
          "velocity": 0.5039370078740157
        },
        {
          "duration": 0.34725545507812683,
          "durationTicks": 474,
          "midi": 75,
          "name": "D#5",
          "ticks": 148510,
          "time": 108.9618866933594,
          "velocity": 0.5118110236220472
        },
        {
          "duration": 0.350918487304682,
          "durationTicks": 479,
          "midi": 79,
          "name": "G5",
          "ticks": 149015,
          "time": 109.33185294824222,
          "velocity": 0.5039370078740157
        },
        {
          "duration": 0.5545830791015618,
          "durationTicks": 757,
          "midi": 80,
          "name": "G#5",
          "ticks": 149525,
          "time": 109.70548223535158,
          "velocity": 0.5275590551181102
        },
        {
          "duration": 1.4842606582031266,
          "durationTicks": 2026,
          "midi": 48,
          "name": "C3",
          "ticks": 149525,
          "time": 109.70548223535158,
          "velocity": 0.4645669291338583
        },
        {
          "duration": 1.4842606582031266,
          "durationTicks": 2026,
          "midi": 53,
          "name": "F3",
          "ticks": 149525,
          "time": 109.70548223535158,
          "velocity": 0.4645669291338583
        },
        {
          "duration": 1.4842606582031266,
          "durationTicks": 2026,
          "midi": 56,
          "name": "G#3",
          "ticks": 149525,
          "time": 109.70548223535158,
          "velocity": 0.5748031496062992
        },
        {
          "duration": 0.17655815332031466,
          "durationTicks": 241,
          "midi": 77,
          "name": "F5",
          "ticks": 150283,
          "time": 110.26079792089845,
          "velocity": 0.5039370078740157
        },
        {
          "duration": 0.34725545507812683,
          "durationTicks": 474,
          "midi": 72,
          "name": "C5",
          "ticks": 150540,
          "time": 110.44907777734377,
          "velocity": 0.5118110236220472
        },
        {
          "duration": 0.3487206679687489,
          "durationTicks": 476,
          "midi": 68,
          "name": "G#4",
          "ticks": 151045,
          "time": 110.81904403222659,
          "velocity": 0.5039370078740157
        },
        {
          "duration": 0.5787590917968686,
          "durationTicks": 790,
          "midi": 67,
          "name": "G4",
          "ticks": 151556,
          "time": 111.19340592578128,
          "velocity": 0.5433070866141733
        },
        {
          "duration": 1.5120997031250027,
          "durationTicks": 2064,
          "midi": 47,
          "name": "B2",
          "ticks": 151556,
          "time": 111.19340592578128,
          "velocity": 0.48031496062992124
        },
        {
          "duration": 1.5120997031250027,
          "durationTicks": 2064,
          "midi": 50,
          "name": "D3",
          "ticks": 151556,
          "time": 111.19340592578128,
          "velocity": 0.48031496062992124
        },
        {
          "duration": 1.5120997031250027,
          "durationTicks": 2064,
          "midi": 55,
          "name": "G3",
          "ticks": 151556,
          "time": 111.19340592578128,
          "velocity": 0.5905511811023622
        },
        {
          "duration": 0.17802336621093673,
          "durationTicks": 243,
          "midi": 69,
          "name": "A4",
          "ticks": 152347,
          "time": 111.77289762402346,
          "velocity": 0.5039370078740157
        },
        {
          "duration": 0.3919444482421852,
          "durationTicks": 535,
          "midi": 71,
          "name": "B4",
          "ticks": 152606,
          "time": 111.9626426933594,
          "velocity": 0.41732283464566927
        },
        {
          "duration": 0.3956074804687546,
          "durationTicks": 540,
          "midi": 74,
          "name": "D5",
          "ticks": 153111,
          "time": 112.33260894824221,
          "velocity": 0.4094488188976378
        },
        {
          "duration": 0.3956074804687404,
          "durationTicks": 540,
          "midi": 79,
          "name": "G5",
          "ticks": 153621,
          "time": 112.70623823535159,
          "velocity": 0.4330708661417323
        },
        {
          "duration": 1.4842606582031266,
          "durationTicks": 2026,
          "midi": 50,
          "name": "D3",
          "ticks": 153621,
          "time": 112.70623823535159,
          "velocity": 0.4645669291338583
        },
        {
          "duration": 1.4842606582031266,
          "durationTicks": 2026,
          "midi": 55,
          "name": "G3",
          "ticks": 153621,
          "time": 112.70623823535159,
          "velocity": 0.4645669291338583
        },
        {
          "duration": 1.4842606582031266,
          "durationTicks": 2026,
          "midi": 59,
          "name": "B3",
          "ticks": 153621,
          "time": 112.70623823535159,
          "velocity": 0.5748031496062992
        },
        {
          "duration": 0.3919444482421852,
          "durationTicks": 535,
          "midi": 74,
          "name": "D5",
          "ticks": 154131,
          "time": 113.07986752246096,
          "velocity": 0.4094488188976378
        },
        {
          "duration": 0.3919444482421852,
          "durationTicks": 535,
          "midi": 71,
          "name": "B4",
          "ticks": 154636,
          "time": 113.44983377734377,
          "velocity": 0.41732283464566927
        },
        {
          "duration": 0.3934096611328215,
          "durationTicks": 537,
          "midi": 74,
          "name": "D5",
          "ticks": 155141,
          "time": 113.81980003222658,
          "velocity": 0.4094488188976378
        },
        {
          "duration": 0.41905088671875035,
          "durationTicks": 572,
          "midi": 72,
          "name": "C5",
          "ticks": 155652,
          "time": 114.19416192578127,
          "velocity": 0.44881889763779526
        },
        {
          "duration": 1.5120997031250027,
          "durationTicks": 2064,
          "midi": 48,
          "name": "C3",
          "ticks": 155652,
          "time": 114.19416192578127,
          "velocity": 0.48031496062992124
        },
        {
          "duration": 1.5120997031250027,
          "durationTicks": 2064,
          "midi": 51,
          "name": "D#3",
          "ticks": 155652,
          "time": 114.19416192578127,
          "velocity": 0.48031496062992124
        },
        {
          "duration": 1.5120997031250027,
          "durationTicks": 2064,
          "midi": 55,
          "name": "G3",
          "ticks": 155652,
          "time": 114.19416192578127,
          "velocity": 0.5905511811023622
        },
        {
          "duration": 0.3714314677734336,
          "durationTicks": 507,
          "midi": 67,
          "name": "G4",
          "ticks": 156194,
          "time": 114.59123461914065,
          "velocity": 0.4094488188976378
        },
        {
          "duration": 0.39194444824219943,
          "durationTicks": 535,
          "midi": 67,
          "name": "G4",
          "ticks": 156702,
          "time": 114.9633986933594,
          "velocity": 0.41732283464566927
        },
        {
          "duration": 0.3956074804687546,
          "durationTicks": 540,
          "midi": 72,
          "name": "C5",
          "ticks": 157207,
          "time": 115.3333649482422,
          "velocity": 0.4094488188976378
        },
        {
          "duration": 0.5545830791015618,
          "durationTicks": 757,
          "midi": 68,
          "name": "G#4",
          "ticks": 157717,
          "time": 115.70699423535159,
          "velocity": 0.5275590551181102
        },
        {
          "duration": 1.4842606582031266,
          "durationTicks": 2026,
          "midi": 48,
          "name": "C3",
          "ticks": 157717,
          "time": 115.70699423535159,
          "velocity": 0.4645669291338583
        },
        {
          "duration": 1.4842606582031266,
          "durationTicks": 2026,
          "midi": 53,
          "name": "F3",
          "ticks": 157717,
          "time": 115.70699423535159,
          "velocity": 0.4645669291338583
        },
        {
          "duration": 1.4842606582031266,
          "durationTicks": 2026,
          "midi": 56,
          "name": "G#3",
          "ticks": 157717,
          "time": 115.70699423535159,
          "velocity": 0.5748031496062992
        },
        {
          "duration": 0.17655815332031466,
          "durationTicks": 241,
          "midi": 67,
          "name": "G4",
          "ticks": 158475,
          "time": 116.26230992089846,
          "velocity": 0.5039370078740157
        },
        {
          "duration": 0.7406651162109341,
          "durationTicks": 1011,
          "midi": 65,
          "name": "F4",
          "ticks": 158732,
          "time": 116.45058977734378,
          "velocity": 0.5118110236220472
        },
        {
          "duration": 0.37436189355467775,
          "durationTicks": 511,
          "midi": 72,
          "name": "C5",
          "ticks": 159748,
          "time": 117.19491792578128,
          "velocity": 0.5433070866141733
        },
        {
          "duration": 1.5120997031249885,
          "durationTicks": 2064,
          "midi": 48,
          "name": "C3",
          "ticks": 159748,
          "time": 117.19491792578128,
          "velocity": 0.48031496062992124
        },
        {
          "duration": 1.5120997031249885,
          "durationTicks": 2064,
          "midi": 51,
          "name": "D#3",
          "ticks": 159748,
          "time": 117.19491792578128,
          "velocity": 0.48031496062992124
        },
        {
          "duration": 1.5120997031249885,
          "durationTicks": 2064,
          "midi": 55,
          "name": "G3",
          "ticks": 159748,
          "time": 117.19491792578128,
          "velocity": 0.5905511811023622
        },
        {
          "duration": 0.3714314677734478,
          "durationTicks": 507,
          "midi": 67,
          "name": "G4",
          "ticks": 160290,
          "time": 117.59199061914065,
          "velocity": 0.5039370078740157
        },
        {
          "duration": 0.34725545507812683,
          "durationTicks": 474,
          "midi": 67,
          "name": "G4",
          "ticks": 160798,
          "time": 117.9641546933594,
          "velocity": 0.5118110236220472
        },
        {
          "duration": 0.350918487304682,
          "durationTicks": 479,
          "midi": 72,
          "name": "C5",
          "ticks": 161303,
          "time": 118.33412094824222,
          "velocity": 0.5039370078740157
        },
        {
          "duration": 1.4842606582031266,
          "durationTicks": 2026,
          "midi": 74,
          "name": "D5",
          "ticks": 161813,
          "time": 118.70775023535158,
          "velocity": 0.5275590551181102
        },
        {
          "duration": 0.7428629355468814,
          "durationTicks": 1014,
          "midi": 50,
          "name": "D3",
          "ticks": 161813,
          "time": 118.70775023535158,
          "velocity": 0.4645669291338583
        },
        {
          "duration": 0.7428629355468814,
          "durationTicks": 1014,
          "midi": 53,
          "name": "F3",
          "ticks": 161813,
          "time": 118.70775023535158,
          "velocity": 0.4645669291338583
        },
        {
          "duration": 0.7428629355468814,
          "durationTicks": 1014,
          "midi": 58,
          "name": "A#3",
          "ticks": 161813,
          "time": 118.70775023535158,
          "velocity": 0.5748031496062992
        },
        {
          "duration": 0.7406651162109341,
          "durationTicks": 1011,
          "midi": 50,
          "name": "D3",
          "ticks": 162828,
          "time": 119.45134577734378,
          "velocity": 0.44881889763779526
        },
        {
          "duration": 0.7406651162109341,
          "durationTicks": 1011,
          "midi": 55,
          "name": "G3",
          "ticks": 162828,
          "time": 119.45134577734378,
          "velocity": 0.44881889763779526
        },
        {
          "duration": 0.7406651162109341,
          "durationTicks": 1011,
          "midi": 59,
          "name": "B3",
          "ticks": 162828,
          "time": 119.45134577734378,
          "velocity": 0.5590551181102362
        },
        {
          "duration": 0.37436189355469196,
          "durationTicks": 511,
          "midi": 72,
          "name": "C5",
          "ticks": 163844,
          "time": 120.19567392578128,
          "velocity": 0.5433070866141733
        },
        {
          "duration": 1.5120997031250027,
          "durationTicks": 2064,
          "midi": 48,
          "name": "C3",
          "ticks": 163844,
          "time": 120.19567392578128,
          "velocity": 0.48031496062992124
        },
        {
          "duration": 1.5120997031250027,
          "durationTicks": 2064,
          "midi": 51,
          "name": "D#3",
          "ticks": 163844,
          "time": 120.19567392578128,
          "velocity": 0.48031496062992124
        },
        {
          "duration": 1.5120997031250027,
          "durationTicks": 2064,
          "midi": 55,
          "name": "G3",
          "ticks": 163844,
          "time": 120.19567392578128,
          "velocity": 0.5905511811023622
        },
        {
          "duration": 0.3714314677734336,
          "durationTicks": 507,
          "midi": 67,
          "name": "G4",
          "ticks": 164386,
          "time": 120.59274661914066,
          "velocity": 0.5039370078740157
        },
        {
          "duration": 0.34725545507812683,
          "durationTicks": 474,
          "midi": 67,
          "name": "G4",
          "ticks": 164894,
          "time": 120.9649106933594,
          "velocity": 0.5118110236220472
        },
        {
          "duration": 0.3509184873046962,
          "durationTicks": 479,
          "midi": 72,
          "name": "C5",
          "ticks": 165399,
          "time": 121.33487694824221,
          "velocity": 0.5039370078740157
        },
        {
          "duration": 0.5545830791015618,
          "durationTicks": 757,
          "midi": 68,
          "name": "G#4",
          "ticks": 165909,
          "time": 121.70850623535159,
          "velocity": 0.5275590551181102
        },
        {
          "duration": 1.4842606582031266,
          "durationTicks": 2026,
          "midi": 48,
          "name": "C3",
          "ticks": 165909,
          "time": 121.70850623535159,
          "velocity": 0.4645669291338583
        },
        {
          "duration": 1.4842606582031266,
          "durationTicks": 2026,
          "midi": 53,
          "name": "F3",
          "ticks": 165909,
          "time": 121.70850623535159,
          "velocity": 0.4645669291338583
        },
        {
          "duration": 1.4842606582031266,
          "durationTicks": 2026,
          "midi": 56,
          "name": "G#3",
          "ticks": 165909,
          "time": 121.70850623535159,
          "velocity": 0.5748031496062992
        },
        {
          "duration": 0.17655815332031466,
          "durationTicks": 241,
          "midi": 67,
          "name": "G4",
          "ticks": 166667,
          "time": 122.26382192089847,
          "velocity": 0.5039370078740157
        },
        {
          "duration": 0.7406651162109483,
          "durationTicks": 1011,
          "midi": 65,
          "name": "F4",
          "ticks": 166924,
          "time": 122.45210177734377,
          "velocity": 0.5118110236220472
        },
        {
          "duration": 0.26007528808594316,
          "durationTicks": 355,
          "midi": 63,
          "name": "D#4",
          "ticks": 167940,
          "time": 123.19642992578127,
          "velocity": 0.5433070866141733
        },
        {
          "duration": 0.7685041611328103,
          "durationTicks": 1049,
          "midi": 48,
          "name": "C3",
          "ticks": 167940,
          "time": 123.19642992578127,
          "velocity": 0.48031496062992124
        },
        {
          "duration": 0.7685041611328103,
          "durationTicks": 1049,
          "midi": 51,
          "name": "D#3",
          "ticks": 167940,
          "time": 123.19642992578127,
          "velocity": 0.48031496062992124
        },
        {
          "duration": 0.7685041611328103,
          "durationTicks": 1049,
          "midi": 55,
          "name": "G3",
          "ticks": 167940,
          "time": 123.19642992578127,
          "velocity": 0.5905511811023622
        },
        {
          "duration": 0.22784060449218657,
          "durationTicks": 311,
          "midi": 65,
          "name": "F4",
          "ticks": 168316,
          "time": 123.47188994921878,
          "velocity": 0.5039370078740157
        },
        {
          "duration": 0.23516666894531113,
          "durationTicks": 321,
          "midi": 67,
          "name": "G4",
          "ticks": 168648,
          "time": 123.71511528906252,
          "velocity": 0.5039370078740157
        },
        {
          "duration": 0.2344340625000143,
          "durationTicks": 320,
          "midi": 65,
          "name": "F4",
          "ticks": 168990,
          "time": 123.9656666933594,
          "velocity": 0.5118110236220472
        },
        {
          "duration": 0.7428629355468814,
          "durationTicks": 1014,
          "midi": 50,
          "name": "D3",
          "ticks": 168990,
          "time": 123.9656666933594,
          "velocity": 0.44881889763779526
        },
        {
          "duration": 0.7428629355468814,
          "durationTicks": 1014,
          "midi": 55,
          "name": "G3",
          "ticks": 168990,
          "time": 123.9656666933594,
          "velocity": 0.44881889763779526
        },
        {
          "duration": 0.7428629355468814,
          "durationTicks": 1014,
          "midi": 59,
          "name": "B3",
          "ticks": 168990,
          "time": 123.9656666933594,
          "velocity": 0.5590551181102362
        },
        {
          "duration": 0.22564278515625347,
          "durationTicks": 308,
          "midi": 63,
          "name": "D#4",
          "ticks": 169331,
          "time": 124.21548549121096,
          "velocity": 0.5039370078740157
        },
        {
          "duration": 0.23736448828124423,
          "durationTicks": 324,
          "midi": 62,
          "name": "D4",
          "ticks": 169660,
          "time": 124.45651301171878,
          "velocity": 0.5039370078740157
        },
        {
          "duration": 1.4842606582031266,
          "durationTicks": 2026,
          "midi": 60,
          "name": "C4",
          "ticks": 170005,
          "time": 124.70926223535159,
          "velocity": 0.5275590551181102
        },
        {
          "duration": 1.4842606582031266,
          "durationTicks": 2026,
          "midi": 48,
          "name": "C3",
          "ticks": 170005,
          "time": 124.70926223535159,
          "velocity": 0.4645669291338583
        },
        {
          "duration": 1.4842606582031266,
          "durationTicks": 2026,
          "midi": 51,
          "name": "D#3",
          "ticks": 170005,
          "time": 124.70926223535159,
          "velocity": 0.4645669291338583
        },
        {
          "duration": 1.4842606582031266,
          "durationTicks": 2026,
          "midi": 55,
          "name": "G3",
          "ticks": 170005,
          "time": 124.70926223535159,
          "velocity": 0.5748031496062992
        }
      ],
      "endOfTrackTicks": 172031
    }
  ]
}
