{
  "header": {
    "keySignatures": [
      {
        "key": "C",
        "scale": "major",
        "ticks": 0
      }
    ],
    "meta": [],
    "name": "",
    "ppq": 256,
    "tempos": [
      {
        "bpm": 120,
        "ticks": 0
      },
      {
        "bpm": 120,
        "ticks": 33792
      },
      {
        "bpm": 118.0665423032421,
        "ticks": 33852
      },
      {
        "bpm": 116.13300325753075,
        "ticks": 33912
      },
      {
        "bpm": 114.19935781894453,
        "ticks": 33972
      },
      {
        "bpm": 112.26578550499022,
        "ticks": 34032
      },
      {
        "bpm": 110.33204428728257,
        "ticks": 34092
      },
      {
        "bpm": 108.39853806504996,
        "ticks": 34152
      },
      {
        "bpm": 106.46490384444768,
        "ticks": 34212
      },
      {
        "bpm": 104.53125571655305,
        "ticks": 34272
      },
      {
        "bpm": 102.59777568022325,
        "ticks": 34332
      },
      {
        "bpm": 100.66421605225143,
        "ticks": 34392
      },
      {
        "bpm": 98.73049044371128,
        "ticks": 34452
      },
      {
        "bpm": 96.79698767774347,
        "ticks": 34512
      },
      {
        "bpm": 94.86330987574487,
        "ticks": 34572
      },
      {
        "bpm": 92.9297497556722,
        "ticks": 34632
      },
      {
        "bpm": 90.99622668979993,
        "ticks": 34692
      },
      {
        "bpm": 89.06252783203995,
        "ticks": 34752
      },
      {
        "bpm": 87.00002175000543,
        "ticks": 34816
      },
      {
        "bpm": 120,
        "ticks": 35840
      },
      {
        "bpm": 120,
        "ticks": 50688
      },
      {
        "bpm": 118.0665423032421,
        "ticks": 50748
      },
      {
        "bpm": 116.13300325753075,
        "ticks": 50808
      },
      {
        "bpm": 114.19935781894453,
        "ticks": 50868
      },
      {
        "bpm": 112.26578550499022,
        "ticks": 50928
      },
      {
        "bpm": 110.33204428728257,
        "ticks": 50988
      },
      {
        "bpm": 108.39853806504996,
        "ticks": 51048
      },
      {
        "bpm": 106.46490384444768,
        "ticks": 51108
      },
      {
        "bpm": 102.59777568022325,
        "ticks": 51228
      },
      {
        "bpm": 100.66421605225143,
        "ticks": 51288
      },
      {
        "bpm": 98.73049044371128,
        "ticks": 51348
      },
      {
        "bpm": 96.79698767774347,
        "ticks": 51408
      },
      {
        "bpm": 94.86330987574487,
        "ticks": 51468
      },
      {
        "bpm": 92.9297497556722,
        "ticks": 51528
      },
      {
        "bpm": 90.99622668979993,
        "ticks": 51588
      },
      {
        "bpm": 89.06252783203995,
        "ticks": 51648
      },
      {
        "bpm": 87.00002175000543,
        "ticks": 51712
      },
      {
        "bpm": 120,
        "ticks": 52223
      },
      {
        "bpm": 87.00002175000543,
        "ticks": 90112
      },
      {
        "bpm": 85.59384294956382,
        "ticks": 90172
      },
      {
        "bpm": 84.187603655987,
        "ticks": 90232
      },
      {
        "bpm": 82.78134274097305,
        "ticks": 90292
      },
      {
        "bpm": 81.3750208523491,
        "ticks": 90352
      },
      {
        "bpm": 79.96875887153419,
        "ticks": 90412
      },
      {
        "bpm": 78.56251546699524,
        "ticks": 90472
      },
      {
        "bpm": 77.15632643298588,
        "ticks": 90532
      },
      {
        "bpm": 75.75001988438022,
        "ticks": 90592
      },
      {
        "bpm": 74.34382283371393,
        "ticks": 90652
      },
      {
        "bpm": 72.93750957304813,
        "ticks": 90712
      },
      {
        "bpm": 71.53126989463443,
        "ticks": 90772
      },
      {
        "bpm": 70.12507976727824,
        "ticks": 90832
      },
      {
        "bpm": 68.71876159629102,
        "ticks": 90892
      },
      {
        "bpm": 67.31256815397525,
        "ticks": 90952
      },
      {
        "bpm": 65.90625494296913,
        "ticks": 91012
      },
      {
        "bpm": 64.50003870002323,
        "ticks": 91072
      },
      {
        "bpm": 63.000063000063,
        "ticks": 91136
      },
      {
        "bpm": 63.000063000063,
        "ticks": 91136
      },
      {
        "bpm": 120,
        "ticks": 92159
      },
      {
        "bpm": 70.00007000007,
        "ticks": 100351
      },
      {
        "bpm": 110.00011000011,
        "ticks": 100351
      }
    ],
    "timeSignatures": [
      {
        "ticks": 0,
        "timeSignature": [
          4,
          4
        ],
        "measures": 0
      }
    ]
  },
  "tracks": [
    {
      "channel": 0,
      "controlChanges": {
        "7": [
          {
            "number": 7,
            "ticks": 0,
            "time": 0,
            "value": 0.7874015748031497
          }
        ],
        "10": [
          {
            "number": 10,
            "ticks": 0,
            "time": 0,
            "value": 0.12598425196850394
          }
        ],
        "91": [
          {
            "number": 91,
            "ticks": 0,
            "time": 0,
            "value": 0.47244094488188976
          }
        ],
        "121": [
          {
            "number": 121,
            "ticks": 0,
            "time": 0,
            "value": 0
          }
        ]
      },
      "pitchBends": [],
      "instrument": {
        "family": "strings",
        "number": 0,
        "name": "violin"
      },
      "name": "Violin I",
      "notes": [],
      "endOfTrackTicks": 113153
    },
    {
      "channel": 0,
      "controlChanges": {},
      "pitchBends": [],
      "instrument": {
        "family": "ensemble",
        "number": 48,
        "name": "string ensemble 1"
      },
      "name": "",
      "notes": [
        {
          "duration": 0.185546875,
          "durationTicks": 95,
          "midi": 67,
          "name": "G4",
          "ticks": 0,
          "time": 0,
          "velocity": 0.7244094488188977
        },
        {
          "duration": 0.125,
          "durationTicks": 64,
          "midi": 67,
          "name": "G4",
          "ticks": 192,
          "time": 0.375,
          "velocity": 0.7795275590551181
        },
        {
          "duration": 0.5,
          "durationTicks": 256,
          "midi": 72,
          "name": "C5",
          "ticks": 256,
          "time": 0.5,
          "velocity": 0.889763779527559
        },
        {
          "duration": 0.185546875,
          "durationTicks": 95,
          "midi": 67,
          "name": "G4",
          "ticks": 512,
          "time": 1,
          "velocity": 0.6535433070866141
        },
        {
          "duration": 0.125,
          "durationTicks": 64,
          "midi": 72,
          "name": "C5",
          "ticks": 704,
          "time": 1.375,
          "velocity": 0.8582677165354331
        },
        {
          "duration": 0.5,
          "durationTicks": 256,
          "midi": 74,
          "name": "D5",
          "ticks": 768,
          "time": 1.5,
          "velocity": 0.8582677165354331
        },
        {
          "duration": 0.185546875,
          "durationTicks": 95,
          "midi": 67,
          "name": "G4",
          "ticks": 1024,
          "time": 2,
          "velocity": 0.6220472440944882
        },
        {
          "duration": 0.125,
          "durationTicks": 64,
          "midi": 74,
          "name": "D5",
          "ticks": 1216,
          "time": 2.375,
          "velocity": 0.889763779527559
        },
        {
          "duration": 0.75,
          "durationTicks": 384,
          "midi": 77,
          "name": "F5",
          "ticks": 1280,
          "time": 2.5,
          "velocity": 0.84251968503937
        },
        {
          "duration": 0.125,
          "durationTicks": 64,
          "midi": 76,
          "name": "E5",
          "ticks": 1664,
          "time": 3.25,
          "velocity": 0.7165354330708661
        },
        {
          "duration": 0.125,
          "durationTicks": 64,
          "midi": 74,
          "name": "D5",
          "ticks": 1728,
          "time": 3.375,
          "velocity": 0.7165354330708661
        },
        {
          "duration": 0.5,
          "durationTicks": 256,
          "midi": 72,
          "name": "C5",
          "ticks": 1792,
          "time": 3.5,
          "velocity": 0.7716535433070866
        },
        {
          "duration": 0.5,
          "durationTicks": 256,
          "midi": 67,
          "name": "G4",
          "ticks": 2048,
          "time": 4,
          "velocity": 0.6692913385826772
        },
        {
          "duration": 0.5,
          "durationTicks": 256,
          "midi": 69,
          "name": "A4",
          "ticks": 2304,
          "time": 4.5,
          "velocity": 0.8110236220472441
        },
        {
          "duration": 0.5,
          "durationTicks": 256,
          "midi": 72,
          "name": "C5",
          "ticks": 2560,
          "time": 5,
          "velocity": 0.8188976377952756
        },
        {
          "duration": 0.5,
          "durationTicks": 256,
          "midi": 74,
          "name": "D5",
          "ticks": 2816,
          "time": 5.5,
          "velocity": 0.8188976377952756
        },
        {
          "duration": 0.5,
          "durationTicks": 256,
          "midi": 72,
          "name": "C5",
          "ticks": 3072,
          "time": 6,
          "velocity": 0.7401574803149606
        },
        {
          "duration": 0.75,
          "durationTicks": 384,
          "midi": 72,
          "name": "C5",
          "ticks": 3328,
          "time": 6.5,
          "velocity": 0.7559055118110236
        },
        {
          "duration": 0.125,
          "durationTicks": 64,
          "midi": 71,
          "name": "B4",
          "ticks": 3712,
          "time": 7.25,
          "velocity": 0.7244094488188977
        },
        {
          "duration": 0.125,
          "durationTicks": 64,
          "midi": 69,
          "name": "A4",
          "ticks": 3776,
          "time": 7.375,
          "velocity": 0.7165354330708661
        },
        {
          "duration": 0.5,
          "durationTicks": 256,
          "midi": 67,
          "name": "G4",
          "ticks": 3840,
          "time": 7.5,
          "velocity": 0.7322834645669292
        },
        {
          "duration": 0.185546875,
          "durationTicks": 95,
          "midi": 67,
          "name": "G4",
          "ticks": 4096,
          "time": 8,
          "velocity": 0.7795275590551181
        },
        {
          "duration": 0.125,
          "durationTicks": 64,
          "midi": 67,
          "name": "G4",
          "ticks": 4288,
          "time": 8.375,
          "velocity": 0.7952755905511811
        },
        {
          "duration": 0.5,
          "durationTicks": 256,
          "midi": 72,
          "name": "C5",
          "ticks": 4352,
          "time": 8.5,
          "velocity": 0.8740157480314961
        },
        {
          "duration": 0.185546875,
          "durationTicks": 95,
          "midi": 67,
          "name": "G4",
          "ticks": 4608,
          "time": 9,
          "velocity": 0.6692913385826772
        },
        {
          "duration": 0.125,
          "durationTicks": 64,
          "midi": 72,
          "name": "C5",
          "ticks": 4800,
          "time": 9.375,
          "velocity": 0.8740157480314961
        },
        {
          "duration": 0.5,
          "durationTicks": 256,
          "midi": 74,
          "name": "D5",
          "ticks": 4864,
          "time": 9.5,
          "velocity": 0.8346456692913385
        },
        {
          "duration": 0.185546875,
          "durationTicks": 95,
          "midi": 67,
          "name": "G4",
          "ticks": 5120,
          "time": 10,
          "velocity": 0.6614173228346457
        },
        {
          "duration": 0.125,
          "durationTicks": 64,
          "midi": 74,
          "name": "D5",
          "ticks": 5312,
          "time": 10.375,
          "velocity": 0.8582677165354331
        },
        {
          "duration": 0.75,
          "durationTicks": 384,
          "midi": 77,
          "name": "F5",
          "ticks": 5376,
          "time": 10.5,
          "velocity": 0.8267716535433071
        },
        {
          "duration": 0.125,
          "durationTicks": 64,
          "midi": 76,
          "name": "E5",
          "ticks": 5760,
          "time": 11.25,
          "velocity": 0.7322834645669292
        },
        {
          "duration": 0.125,
          "durationTicks": 64,
          "midi": 77,
          "name": "F5",
          "ticks": 5824,
          "time": 11.375,
          "velocity": 0.7952755905511811
        },
        {
          "duration": 0.5,
          "durationTicks": 256,
          "midi": 79,
          "name": "G5",
          "ticks": 5888,
          "time": 11.5,
          "velocity": 0.8267716535433071
        },
        {
          "duration": 0.375,
          "durationTicks": 192,
          "midi": 72,
          "name": "C5",
          "ticks": 6144,
          "time": 12,
          "velocity": 0.6456692913385826
        },
        {
          "duration": 0.125,
          "durationTicks": 64,
          "midi": 71,
          "name": "B4",
          "ticks": 6336,
          "time": 12.375,
          "velocity": 0.7007874015748031
        },
        {
          "duration": 0.5,
          "durationTicks": 256,
          "midi": 69,
          "name": "A4",
          "ticks": 6400,
          "time": 12.5,
          "velocity": 0.7007874015748031
        },
        {
          "duration": 1,
          "durationTicks": 512,
          "midi": 77,
          "name": "F5",
          "ticks": 6656,
          "time": 13,
          "velocity": 0.9133858267716536
        },
        {
          "duration": 0.375,
          "durationTicks": 192,
          "midi": 69,
          "name": "A4",
          "ticks": 7168,
          "time": 14,
          "velocity": 0.6141732283464567
        },
        {
          "duration": 0.125,
          "durationTicks": 64,
          "midi": 69,
          "name": "A4",
          "ticks": 7360,
          "time": 14.375,
          "velocity": 0.7637795275590551
        },
        {
          "duration": 0.5,
          "durationTicks": 256,
          "midi": 71,
          "name": "B4",
          "ticks": 7424,
          "time": 14.5,
          "velocity": 0.8188976377952756
        },
        {
          "duration": 1,
          "durationTicks": 512,
          "midi": 79,
          "name": "G5",
          "ticks": 7680,
          "time": 15,
          "velocity": 0.9133858267716536
        },
        {
          "duration": 0.375,
          "durationTicks": 192,
          "midi": 60,
          "name": "C4",
          "ticks": 8192,
          "time": 16,
          "velocity": 0.5354330708661418
        },
        {
          "duration": 0.125,
          "durationTicks": 64,
          "midi": 60,
          "name": "C4",
          "ticks": 8384,
          "time": 16.375,
          "velocity": 0.7559055118110236
        },
        {
          "duration": 1.5,
          "durationTicks": 768,
          "midi": 60,
          "name": "C4",
          "ticks": 8448,
          "time": 16.5,
          "velocity": 0.7401574803149606
        },
        {
          "duration": 0.125,
          "durationTicks": 64,
          "midi": 60,
          "name": "C4",
          "ticks": 9216,
          "time": 18,
          "velocity": 0.5826771653543307
        },
        {
          "duration": 0.125,
          "durationTicks": 64,
          "midi": 60,
          "name": "C4",
          "ticks": 9280,
          "time": 18.125,
          "velocity": 0.5511811023622047
        },
        {
          "duration": 0.125,
          "durationTicks": 64,
          "midi": 60,
          "name": "C4",
          "ticks": 9344,
          "time": 18.25,
          "velocity": 0.5590551181102362
        },
        {
          "duration": 0.125,
          "durationTicks": 64,
          "midi": 60,
          "name": "C4",
          "ticks": 9408,
          "time": 18.375,
          "velocity": 0.5826771653543307
        },
        {
          "duration": 1.5,
          "durationTicks": 768,
          "midi": 60,
          "name": "C4",
          "ticks": 9472,
          "time": 18.5,
          "velocity": 0.5590551181102362
        },
        {
          "duration": 0.125,
          "durationTicks": 64,
          "midi": 60,
          "name": "C4",
          "ticks": 10240,
          "time": 20,
          "velocity": 0.5905511811023622
        },
        {
          "duration": 0.125,
          "durationTicks": 64,
          "midi": 60,
          "name": "C4",
          "ticks": 10304,
          "time": 20.125,
          "velocity": 0.5748031496062992
        },
        {
          "duration": 0.125,
          "durationTicks": 64,
          "midi": 60,
          "name": "C4",
          "ticks": 10368,
          "time": 20.25,
          "velocity": 0.5590551181102362
        },
        {
          "duration": 0.125,
          "durationTicks": 64,
          "midi": 60,
          "name": "C4",
          "ticks": 10432,
          "time": 20.375,
          "velocity": 0.5748031496062992
        },
        {
          "duration": 1.5,
          "durationTicks": 768,
          "midi": 60,
          "name": "C4",
          "ticks": 10496,
          "time": 20.5,
          "velocity": 0.5511811023622047
        },
        {
          "duration": 0.125,
          "durationTicks": 64,
          "midi": 60,
          "name": "C4",
          "ticks": 11264,
          "time": 22,
          "velocity": 0.5669291338582677
        },
        {
          "duration": 0.125,
          "durationTicks": 64,
          "midi": 60,
          "name": "C4",
          "ticks": 11328,
          "time": 22.125,
          "velocity": 0.5275590551181102
        },
        {
          "duration": 0.125,
          "durationTicks": 64,
          "midi": 60,
          "name": "C4",
          "ticks": 11392,
          "time": 22.25,
          "velocity": 0.5590551181102362
        },
        {
          "duration": 0.125,
          "durationTicks": 64,
          "midi": 60,
          "name": "C4",
          "ticks": 11456,
          "time": 22.375,
          "velocity": 0.5354330708661418
        },
        {
          "duration": 1.5,
          "durationTicks": 768,
          "midi": 60,
          "name": "C4",
          "ticks": 11520,
          "time": 22.5,
          "velocity": 0.5590551181102362
        },
        {
          "duration": 0.125,
          "durationTicks": 64,
          "midi": 64,
          "name": "E4",
          "ticks": 12288,
          "time": 24,
          "velocity": 0.7007874015748031
        },
        {
          "duration": 0.125,
          "durationTicks": 64,
          "midi": 64,
          "name": "E4",
          "ticks": 12352,
          "time": 24.125,
          "velocity": 0.6299212598425197
        },
        {
          "duration": 0.125,
          "durationTicks": 64,
          "midi": 64,
          "name": "E4",
          "ticks": 12416,
          "time": 24.25,
          "velocity": 0.6771653543307087
        },
        {
          "duration": 0.125,
          "durationTicks": 64,
          "midi": 64,
          "name": "E4",
          "ticks": 12480,
          "time": 24.375,
          "velocity": 0.6141732283464567
        },
        {
          "duration": 1.5,
          "durationTicks": 768,
          "midi": 64,
          "name": "E4",
          "ticks": 12544,
          "time": 24.5,
          "velocity": 0.6614173228346457
        },
        {
          "duration": 0.125,
          "durationTicks": 64,
          "midi": 64,
          "name": "E4",
          "ticks": 13312,
          "time": 26,
          "velocity": 0.6456692913385826
        },
        {
          "duration": 0.125,
          "durationTicks": 64,
          "midi": 64,
          "name": "E4",
          "ticks": 13376,
          "time": 26.125,
          "velocity": 0.6377952755905512
        },
        {
          "duration": 0.125,
          "durationTicks": 64,
          "midi": 64,
          "name": "E4",
          "ticks": 13440,
          "time": 26.25,
          "velocity": 0.6377952755905512
        },
        {
          "duration": 0.125,
          "durationTicks": 64,
          "midi": 64,
          "name": "E4",
          "ticks": 13504,
          "time": 26.375,
          "velocity": 0.6456692913385826
        },
        {
          "duration": 1.5,
          "durationTicks": 768,
          "midi": 65,
          "name": "F4",
          "ticks": 13568,
          "time": 26.5,
          "velocity": 0.7086614173228346
        },
        {
          "duration": 0.166015625,
          "durationTicks": 85,
          "midi": 65,
          "name": "F4",
          "ticks": 14336,
          "time": 28,
          "velocity": 0.6299212598425197
        },
        {
          "duration": 0.166015625,
          "durationTicks": 85,
          "midi": 65,
          "name": "F4",
          "ticks": 14421,
          "time": 28.166015625,
          "velocity": 0.6456692913385826
        },
        {
          "duration": 0.16796875,
          "durationTicks": 86,
          "midi": 65,
          "name": "F4",
          "ticks": 14506,
          "time": 28.33203125,
          "velocity": 0.6850393700787402
        },
        {
          "duration": 1.5,
          "durationTicks": 768,
          "midi": 68,
          "name": "G#4",
          "ticks": 14592,
          "time": 28.5,
          "velocity": 0.7165354330708661
        },
        {
          "duration": 0.166015625,
          "durationTicks": 85,
          "midi": 68,
          "name": "G#4",
          "ticks": 15360,
          "time": 30,
          "velocity": 0.6456692913385826
        },
        {
          "duration": 0.166015625,
          "durationTicks": 85,
          "midi": 67,
          "name": "G4",
          "ticks": 15445,
          "time": 30.166015625,
          "velocity": 0.6220472440944882
        },
        {
          "duration": 0.16796875,
          "durationTicks": 86,
          "midi": 65,
          "name": "F4",
          "ticks": 15530,
          "time": 30.33203125,
          "velocity": 0.6141732283464567
        },
        {
          "duration": 1.5,
          "durationTicks": 768,
          "midi": 67,
          "name": "G4",
          "ticks": 15616,
          "time": 30.5,
          "velocity": 0.6614173228346457
        },
        {
          "duration": 0.125,
          "durationTicks": 64,
          "midi": 62,
          "name": "D4",
          "ticks": 16896,
          "time": 33,
          "velocity": 0.4881889763779528
        },
        {
          "duration": 0.125,
          "durationTicks": 64,
          "midi": 64,
          "name": "E4",
          "ticks": 16960,
          "time": 33.125,
          "velocity": 0.5905511811023622
        },
        {
          "duration": 0.125,
          "durationTicks": 64,
          "midi": 65,
          "name": "F4",
          "ticks": 17024,
          "time": 33.25,
          "velocity": 0.5590551181102362
        },
        {
          "duration": 0.125,
          "durationTicks": 64,
          "midi": 67,
          "name": "G4",
          "ticks": 17088,
          "time": 33.375,
          "velocity": 0.5905511811023622
        },
        {
          "duration": 0.3515625,
          "durationTicks": 180,
          "midi": 69,
          "name": "A4",
          "ticks": 17152,
          "time": 33.5,
          "velocity": 0.7007874015748031
        },
        {
          "duration": 0.125,
          "durationTicks": 64,
          "midi": 64,
          "name": "E4",
          "ticks": 17920,
          "time": 35,
          "velocity": 0.5275590551181102
        },
        {
          "duration": 0.125,
          "durationTicks": 64,
          "midi": 65,
          "name": "F4",
          "ticks": 17984,
          "time": 35.125,
          "velocity": 0.5511811023622047
        },
        {
          "duration": 0.125,
          "durationTicks": 64,
          "midi": 67,
          "name": "G4",
          "ticks": 18048,
          "time": 35.25,
          "velocity": 0.5590551181102362
        },
        {
          "duration": 0.125,
          "durationTicks": 64,
          "midi": 69,
          "name": "A4",
          "ticks": 18112,
          "time": 35.375,
          "velocity": 0.6062992125984252
        },
        {
          "duration": 0.3515625,
          "durationTicks": 180,
          "midi": 71,
          "name": "B4",
          "ticks": 18176,
          "time": 35.5,
          "velocity": 0.7086614173228346
        },
        {
          "duration": 0.125,
          "durationTicks": 64,
          "midi": 65,
          "name": "F4",
          "ticks": 18944,
          "time": 37,
          "velocity": 0.48031496062992124
        },
        {
          "duration": 0.125,
          "durationTicks": 64,
          "midi": 67,
          "name": "G4",
          "ticks": 19008,
          "time": 37.125,
          "velocity": 0.5669291338582677
        },
        {
          "duration": 0.125,
          "durationTicks": 64,
          "midi": 69,
          "name": "A4",
          "ticks": 19072,
          "time": 37.25,
          "velocity": 0.6141732283464567
        },
        {
          "duration": 0.125,
          "durationTicks": 64,
          "midi": 71,
          "name": "B4",
          "ticks": 19136,
          "time": 37.375,
          "velocity": 0.5984251968503937
        },
        {
          "duration": 0.3515625,
          "durationTicks": 180,
          "midi": 72,
          "name": "C5",
          "ticks": 19200,
          "time": 37.5,
          "velocity": 0.6850393700787402
        },
        {
          "duration": 0.125,
          "durationTicks": 64,
          "midi": 60,
          "name": "C4",
          "ticks": 19968,
          "time": 39,
          "velocity": 0.49606299212598426
        },
        {
          "duration": 0.125,
          "durationTicks": 64,
          "midi": 62,
          "name": "D4",
          "ticks": 20032,
          "time": 39.125,
          "velocity": 0.5511811023622047
        },
        {
          "duration": 0.125,
          "durationTicks": 64,
          "midi": 64,
          "name": "E4",
          "ticks": 20096,
          "time": 39.25,
          "velocity": 0.5984251968503937
        },
        {
          "duration": 0.125,
          "durationTicks": 64,
          "midi": 65,
          "name": "F4",
          "ticks": 20160,
          "time": 39.375,
          "velocity": 0.5984251968503937
        },
        {
          "duration": 0.3515625,
          "durationTicks": 180,
          "midi": 67,
          "name": "G4",
          "ticks": 20224,
          "time": 39.5,
          "velocity": 0.6692913385826772
        },
        {
          "duration": 0.125,
          "durationTicks": 64,
          "midi": 62,
          "name": "D4",
          "ticks": 20992,
          "time": 41,
          "velocity": 0.48031496062992124
        },
        {
          "duration": 0.125,
          "durationTicks": 64,
          "midi": 64,
          "name": "E4",
          "ticks": 21056,
          "time": 41.125,
          "velocity": 0.5669291338582677
        },
        {
          "duration": 0.125,
          "durationTicks": 64,
          "midi": 65,
          "name": "F4",
          "ticks": 21120,
          "time": 41.25,
          "velocity": 0.5905511811023622
        },
        {
          "duration": 0.125,
          "durationTicks": 64,
          "midi": 67,
          "name": "G4",
          "ticks": 21184,
          "time": 41.375,
          "velocity": 0.5748031496062992
        },
        {
          "duration": 0.3515625,
          "durationTicks": 180,
          "midi": 69,
          "name": "A4",
          "ticks": 21248,
          "time": 41.5,
          "velocity": 0.6929133858267716
        },
        {
          "duration": 0.125,
          "durationTicks": 64,
          "midi": 65,
          "name": "F4",
          "ticks": 22016,
          "time": 43,
          "velocity": 0.49606299212598426
        },
        {
          "duration": 0.125,
          "durationTicks": 64,
          "midi": 67,
          "name": "G4",
          "ticks": 22080,
          "time": 43.125,
          "velocity": 0.5511811023622047
        },
        {
          "duration": 0.125,
          "durationTicks": 64,
          "midi": 69,
          "name": "A4",
          "ticks": 22144,
          "time": 43.25,
          "velocity": 0.6062992125984252
        },
        {
          "duration": 0.125,
          "durationTicks": 64,
          "midi": 71,
          "name": "B4",
          "ticks": 22208,
          "time": 43.375,
          "velocity": 0.6141732283464567
        },
        {
          "duration": 0.3515625,
          "durationTicks": 180,
          "midi": 72,
          "name": "C5",
          "ticks": 22272,
          "time": 43.5,
          "velocity": 0.7086614173228346
        },
        {
          "duration": 0.125,
          "durationTicks": 64,
          "midi": 62,
          "name": "D4",
          "ticks": 23040,
          "time": 45,
          "velocity": 0.5354330708661418
        },
        {
          "duration": 0.125,
          "durationTicks": 64,
          "midi": 64,
          "name": "E4",
          "ticks": 23104,
          "time": 45.125,
          "velocity": 0.5511811023622047
        },
        {
          "duration": 0.125,
          "durationTicks": 64,
          "midi": 66,
          "name": "F#4",
          "ticks": 23168,
          "time": 45.25,
          "velocity": 0.5984251968503937
        },
        {
          "duration": 0.125,
          "durationTicks": 64,
          "midi": 67,
          "name": "G4",
          "ticks": 23232,
          "time": 45.375,
          "velocity": 0.6062992125984252
        },
        {
          "duration": 0.3515625,
          "durationTicks": 180,
          "midi": 69,
          "name": "A4",
          "ticks": 23296,
          "time": 45.5,
          "velocity": 0.7401574803149606
        },
        {
          "duration": 0.125,
          "durationTicks": 64,
          "midi": 64,
          "name": "E4",
          "ticks": 24064,
          "time": 47,
          "velocity": 0.4881889763779528
        },
        {
          "duration": 0.125,
          "durationTicks": 64,
          "midi": 65,
          "name": "F4",
          "ticks": 24128,
          "time": 47.125,
          "velocity": 0.5905511811023622
        },
        {
          "duration": 0.125,
          "durationTicks": 64,
          "midi": 67,
          "name": "G4",
          "ticks": 24192,
          "time": 47.25,
          "velocity": 0.5984251968503937
        },
        {
          "duration": 0.125,
          "durationTicks": 64,
          "midi": 69,
          "name": "A4",
          "ticks": 24256,
          "time": 47.375,
          "velocity": 0.5748031496062992
        },
        {
          "duration": 0.3515625,
          "durationTicks": 180,
          "midi": 71,
          "name": "B4",
          "ticks": 24320,
          "time": 47.5,
          "velocity": 0.7007874015748031
        },
        {
          "duration": 0.125,
          "durationTicks": 64,
          "midi": 62,
          "name": "D4",
          "ticks": 25088,
          "time": 49,
          "velocity": 0.5118110236220472
        },
        {
          "duration": 0.125,
          "durationTicks": 64,
          "midi": 64,
          "name": "E4",
          "ticks": 25152,
          "time": 49.125,
          "velocity": 0.5748031496062992
        },
        {
          "duration": 0.125,
          "durationTicks": 64,
          "midi": 65,
          "name": "F4",
          "ticks": 25216,
          "time": 49.25,
          "velocity": 0.5669291338582677
        },
        {
          "duration": 0.125,
          "durationTicks": 64,
          "midi": 67,
          "name": "G4",
          "ticks": 25280,
          "time": 49.375,
          "velocity": 0.5669291338582677
        },
        {
          "duration": 0.3515625,
          "durationTicks": 180,
          "midi": 69,
          "name": "A4",
          "ticks": 25344,
          "time": 49.5,
          "velocity": 0.7244094488188977
        },
        {
          "duration": 0.125,
          "durationTicks": 64,
          "midi": 64,
          "name": "E4",
          "ticks": 26112,
          "time": 51,
          "velocity": 0.5118110236220472
        },
        {
          "duration": 0.125,
          "durationTicks": 64,
          "midi": 65,
          "name": "F4",
          "ticks": 26176,
          "time": 51.125,
          "velocity": 0.5511811023622047
        },
        {
          "duration": 0.125,
          "durationTicks": 64,
          "midi": 67,
          "name": "G4",
          "ticks": 26240,
          "time": 51.25,
          "velocity": 0.6141732283464567
        },
        {
          "duration": 0.125,
          "durationTicks": 64,
          "midi": 69,
          "name": "A4",
          "ticks": 26304,
          "time": 51.375,
          "velocity": 0.5984251968503937
        },
        {
          "duration": 0.3515625,
          "durationTicks": 180,
          "midi": 71,
          "name": "B4",
          "ticks": 26368,
          "time": 51.5,
          "velocity": 0.6771653543307087
        },
        {
          "duration": 0.125,
          "durationTicks": 64,
          "midi": 65,
          "name": "F4",
          "ticks": 27136,
          "time": 53,
          "velocity": 0.5039370078740157
        },
        {
          "duration": 0.125,
          "durationTicks": 64,
          "midi": 67,
          "name": "G4",
          "ticks": 27200,
          "time": 53.125,
          "velocity": 0.6062992125984252
        },
        {
          "duration": 0.125,
          "durationTicks": 64,
          "midi": 69,
          "name": "A4",
          "ticks": 27264,
          "time": 53.25,
          "velocity": 0.5984251968503937
        },
        {
          "duration": 0.125,
          "durationTicks": 64,
          "midi": 71,
          "name": "B4",
          "ticks": 27328,
          "time": 53.375,
          "velocity": 0.5984251968503937
        },
        {
          "duration": 0.3515625,
          "durationTicks": 180,
          "midi": 72,
          "name": "C5",
          "ticks": 27392,
          "time": 53.5,
          "velocity": 0.6929133858267716
        },
        {
          "duration": 0.125,
          "durationTicks": 64,
          "midi": 60,
          "name": "C4",
          "ticks": 28160,
          "time": 55,
          "velocity": 0.4881889763779528
        },
        {
          "duration": 0.125,
          "durationTicks": 64,
          "midi": 62,
          "name": "D4",
          "ticks": 28224,
          "time": 55.125,
          "velocity": 0.5826771653543307
        },
        {
          "duration": 0.125,
          "durationTicks": 64,
          "midi": 64,
          "name": "E4",
          "ticks": 28288,
          "time": 55.25,
          "velocity": 0.6220472440944882
        },
        {
          "duration": 0.125,
          "durationTicks": 64,
          "midi": 65,
          "name": "F4",
          "ticks": 28352,
          "time": 55.375,
          "velocity": 0.6062992125984252
        },
        {
          "duration": 0.3515625,
          "durationTicks": 180,
          "midi": 67,
          "name": "G4",
          "ticks": 28416,
          "time": 55.5,
          "velocity": 0.6771653543307087
        },
        {
          "duration": 0.125,
          "durationTicks": 64,
          "midi": 62,
          "name": "D4",
          "ticks": 29184,
          "time": 57,
          "velocity": 0.5196850393700787
        },
        {
          "duration": 0.125,
          "durationTicks": 64,
          "midi": 64,
          "name": "E4",
          "ticks": 29248,
          "time": 57.125,
          "velocity": 0.5669291338582677
        },
        {
          "duration": 0.125,
          "durationTicks": 64,
          "midi": 65,
          "name": "F4",
          "ticks": 29312,
          "time": 57.25,
          "velocity": 0.6141732283464567
        },
        {
          "duration": 0.125,
          "durationTicks": 64,
          "midi": 67,
          "name": "G4",
          "ticks": 29376,
          "time": 57.375,
          "velocity": 0.5984251968503937
        },
        {
          "duration": 0.3515625,
          "durationTicks": 180,
          "midi": 69,
          "name": "A4",
          "ticks": 29440,
          "time": 57.5,
          "velocity": 0.6692913385826772
        },
        {
          "duration": 0.125,
          "durationTicks": 64,
          "midi": 65,
          "name": "F4",
          "ticks": 30208,
          "time": 59,
          "velocity": 0.5039370078740157
        },
        {
          "duration": 0.125,
          "durationTicks": 64,
          "midi": 67,
          "name": "G4",
          "ticks": 30272,
          "time": 59.125,
          "velocity": 0.5669291338582677
        },
        {
          "duration": 0.125,
          "durationTicks": 64,
          "midi": 69,
          "name": "A4",
          "ticks": 30336,
          "time": 59.25,
          "velocity": 0.5669291338582677
        },
        {
          "duration": 0.125,
          "durationTicks": 64,
          "midi": 71,
          "name": "B4",
          "ticks": 30400,
          "time": 59.375,
          "velocity": 0.5905511811023622
        },
        {
          "duration": 0.3515625,
          "durationTicks": 180,
          "midi": 72,
          "name": "C5",
          "ticks": 30464,
          "time": 59.5,
          "velocity": 0.7086614173228346
        },
        {
          "duration": 0.125,
          "durationTicks": 64,
          "midi": 64,
          "name": "E4",
          "ticks": 31232,
          "time": 61,
          "velocity": 0.4881889763779528
        },
        {
          "duration": 0.125,
          "durationTicks": 64,
          "midi": 65,
          "name": "F4",
          "ticks": 31296,
          "time": 61.125,
          "velocity": 0.5590551181102362
        },
        {
          "duration": 0.125,
          "durationTicks": 64,
          "midi": 69,
          "name": "A4",
          "ticks": 31360,
          "time": 61.25,
          "velocity": 0.6141732283464567
        },
        {
          "duration": 0.125,
          "durationTicks": 64,
          "midi": 71,
          "name": "B4",
          "ticks": 31424,
          "time": 61.375,
          "velocity": 0.6220472440944882
        },
        {
          "duration": 0.3515625,
          "durationTicks": 180,
          "midi": 72,
          "name": "C5",
          "ticks": 31488,
          "time": 61.5,
          "velocity": 0.6771653543307087
        },
        {
          "duration": 0.125,
          "durationTicks": 64,
          "midi": 65,
          "name": "F4",
          "ticks": 32256,
          "time": 63,
          "velocity": 0.48031496062992124
        },
        {
          "duration": 0.125,
          "durationTicks": 64,
          "midi": 67,
          "name": "G4",
          "ticks": 32320,
          "time": 63.125,
          "velocity": 0.5826771653543307
        },
        {
          "duration": 0.125,
          "durationTicks": 64,
          "midi": 69,
          "name": "A4",
          "ticks": 32384,
          "time": 63.25,
          "velocity": 0.5826771653543307
        },
        {
          "duration": 0.125,
          "durationTicks": 64,
          "midi": 71,
          "name": "B4",
          "ticks": 32448,
          "time": 63.375,
          "velocity": 0.5748031496062992
        },
        {
          "duration": 0.3515625,
          "durationTicks": 180,
          "midi": 72,
          "name": "C5",
          "ticks": 32512,
          "time": 63.5,
          "velocity": 0.7007874015748031
        },
        {
          "duration": 0.125,
          "durationTicks": 64,
          "midi": 65,
          "name": "F4",
          "ticks": 33280,
          "time": 65,
          "velocity": 0.4566929133858268
        },
        {
          "duration": 0.125,
          "durationTicks": 64,
          "midi": 67,
          "name": "G4",
          "ticks": 33344,
          "time": 65.125,
          "velocity": 0.5669291338582677
        },
        {
          "duration": 0.125,
          "durationTicks": 64,
          "midi": 69,
          "name": "A4",
          "ticks": 33408,
          "time": 65.25,
          "velocity": 0.5826771653543307
        },
        {
          "duration": 0.125,
          "durationTicks": 64,
          "midi": 71,
          "name": "B4",
          "ticks": 33472,
          "time": 65.375,
          "velocity": 0.5669291338582677
        },
        {
          "duration": 0.3515625,
          "durationTicks": 180,
          "midi": 72,
          "name": "C5",
          "ticks": 33536,
          "time": 65.5,
          "velocity": 0.6929133858267716
        },
        {
          "duration": 0.1450188906250105,
          "durationTicks": 64,
          "midi": 60,
          "name": "C4",
          "ticks": 34304,
          "time": 67.0668048125,
          "velocity": 0.4645669291338583
        },
        {
          "duration": 0.14795715624998707,
          "durationTicks": 64,
          "midi": 62,
          "name": "D4",
          "ticks": 34368,
          "time": 67.211823703125,
          "velocity": 0.5511811023622047
        },
        {
          "duration": 0.15101671875001443,
          "durationTicks": 64,
          "midi": 64,
          "name": "E4",
          "ticks": 34432,
          "time": 67.359780859375,
          "velocity": 0.6141732283464567
        },
        {
          "duration": 0.15420481249999796,
          "durationTicks": 64,
          "midi": 65,
          "name": "F4",
          "ticks": 34496,
          "time": 67.51079757812501,
          "velocity": 0.5669291338582677
        },
        {
          "duration": 0.15752998437498889,
          "durationTicks": 64,
          "midi": 67,
          "name": "G4",
          "ticks": 34560,
          "time": 67.665002390625,
          "velocity": 0.6692913385826772
        },
        {
          "duration": 0.16100099999999884,
          "durationTicks": 64,
          "midi": 69,
          "name": "A4",
          "ticks": 34624,
          "time": 67.822532375,
          "velocity": 0.6377952755905512
        },
        {
          "duration": 0.16462764062499957,
          "durationTicks": 64,
          "midi": 71,
          "name": "B4",
          "ticks": 34688,
          "time": 67.983533375,
          "velocity": 0.5590551181102362
        },
        {
          "duration": 0.1342104843750036,
          "durationTicks": 51,
          "midi": 72,
          "name": "C5",
          "ticks": 34752,
          "time": 68.14816101562499,
          "velocity": 0.5905511811023622
        },
        {
          "duration": 0.17241375000000403,
          "durationTicks": 64,
          "midi": 62,
          "name": "D4",
          "ticks": 34816,
          "time": 68.31658201562499,
          "velocity": 0.44881889763779526
        },
        {
          "duration": 0.17241374999998982,
          "durationTicks": 64,
          "midi": 64,
          "name": "E4",
          "ticks": 34880,
          "time": 68.48899576562499,
          "velocity": 0.5748031496062992
        },
        {
          "duration": 0.17241375000000403,
          "durationTicks": 64,
          "midi": 65,
          "name": "F4",
          "ticks": 34944,
          "time": 68.66140951562498,
          "velocity": 0.5590551181102362
        },
        {
          "duration": 0.17241375000000403,
          "durationTicks": 64,
          "midi": 67,
          "name": "G4",
          "ticks": 35008,
          "time": 68.83382326562499,
          "velocity": 0.6062992125984252
        },
        {
          "duration": 0.17241375000000403,
          "durationTicks": 64,
          "midi": 69,
          "name": "A4",
          "ticks": 35072,
          "time": 69.00623701562499,
          "velocity": 0.5984251968503937
        },
        {
          "duration": 0.17241374999998982,
          "durationTicks": 64,
          "midi": 71,
          "name": "B4",
          "ticks": 35136,
          "time": 69.178650765625,
          "velocity": 0.6141732283464567
        },
        {
          "duration": 0.17241375000000403,
          "durationTicks": 64,
          "midi": 72,
          "name": "C5",
          "ticks": 35200,
          "time": 69.35106451562498,
          "velocity": 0.5669291338582677
        },
        {
          "duration": 0.8620687500000059,
          "durationTicks": 320,
          "midi": 74,
          "name": "D5",
          "ticks": 35264,
          "time": 69.52347826562499,
          "velocity": 0.5984251968503937
        },
        {
          "duration": 0.185546875,
          "durationTicks": 95,
          "midi": 67,
          "name": "G4",
          "ticks": 35840,
          "time": 71.07520201562498,
          "velocity": 0.6614173228346457
        },
        {
          "duration": 0.125,
          "durationTicks": 64,
          "midi": 67,
          "name": "G4",
          "ticks": 36032,
          "time": 71.45020201562498,
          "velocity": 0.7637795275590551
        },
        {
          "duration": 0.5,
          "durationTicks": 256,
          "midi": 72,
          "name": "C5",
          "ticks": 36096,
          "time": 71.57520201562498,
          "velocity": 0.9212598425196851
        },
        {
          "duration": 0.185546875,
          "durationTicks": 95,
          "midi": 67,
          "name": "G4",
          "ticks": 36352,
          "time": 72.07520201562498,
          "velocity": 0.7086614173228346
        },
        {
          "duration": 0.125,
          "durationTicks": 64,
          "midi": 72,
          "name": "C5",
          "ticks": 36544,
          "time": 72.45020201562498,
          "velocity": 0.84251968503937
        },
        {
          "duration": 0.5,
          "durationTicks": 256,
          "midi": 74,
          "name": "D5",
          "ticks": 36608,
          "time": 72.57520201562498,
          "velocity": 0.8188976377952756
        },
        {
          "duration": 0.185546875,
          "durationTicks": 95,
          "midi": 67,
          "name": "G4",
          "ticks": 36864,
          "time": 73.07520201562498,
          "velocity": 0.6614173228346457
        },
        {
          "duration": 0.125,
          "durationTicks": 64,
          "midi": 74,
          "name": "D5",
          "ticks": 37056,
          "time": 73.45020201562498,
          "velocity": 0.8818897637795275
        },
        {
          "duration": 0.75,
          "durationTicks": 384,
          "midi": 77,
          "name": "F5",
          "ticks": 37120,
          "time": 73.57520201562498,
          "velocity": 0.8267716535433071
        },
        {
          "duration": 0.125,
          "durationTicks": 64,
          "midi": 76,
          "name": "E5",
          "ticks": 37504,
          "time": 74.32520201562498,
          "velocity": 0.7559055118110236
        },
        {
          "duration": 0.125,
          "durationTicks": 64,
          "midi": 74,
          "name": "D5",
          "ticks": 37568,
          "time": 74.45020201562498,
          "velocity": 0.7007874015748031
        },
        {
          "duration": 0.5,
          "durationTicks": 256,
          "midi": 72,
          "name": "C5",
          "ticks": 37632,
          "time": 74.57520201562498,
          "velocity": 0.6929133858267716
        },
        {
          "duration": 0.5,
          "durationTicks": 256,
          "midi": 67,
          "name": "G4",
          "ticks": 37888,
          "time": 75.07520201562498,
          "velocity": 0.6850393700787402
        },
        {
          "duration": 0.5,
          "durationTicks": 256,
          "midi": 69,
          "name": "A4",
          "ticks": 38144,
          "time": 75.57520201562498,
          "velocity": 0.7952755905511811
        },
        {
          "duration": 0.5,
          "durationTicks": 256,
          "midi": 72,
          "name": "C5",
          "ticks": 38400,
          "time": 76.07520201562498,
          "velocity": 0.84251968503937
        },
        {
          "duration": 0.5,
          "durationTicks": 256,
          "midi": 74,
          "name": "D5",
          "ticks": 38656,
          "time": 76.57520201562498,
          "velocity": 0.84251968503937
        },
        {
          "duration": 0.5,
          "durationTicks": 256,
          "midi": 72,
          "name": "C5",
          "ticks": 38912,
          "time": 77.07520201562498,
          "velocity": 0.7165354330708661
        },
        {
          "duration": 0.75,
          "durationTicks": 384,
          "midi": 72,
          "name": "C5",
          "ticks": 39168,
          "time": 77.57520201562498,
          "velocity": 0.7165354330708661
        },
        {
          "duration": 0.125,
          "durationTicks": 64,
          "midi": 71,
          "name": "B4",
          "ticks": 39552,
          "time": 78.32520201562498,
          "velocity": 0.7401574803149606
        },
        {
          "duration": 0.125,
          "durationTicks": 64,
          "midi": 69,
          "name": "A4",
          "ticks": 39616,
          "time": 78.45020201562498,
          "velocity": 0.7086614173228346
        },
        {
          "duration": 0.5,
          "durationTicks": 256,
          "midi": 67,
          "name": "G4",
          "ticks": 39680,
          "time": 78.57520201562498,
          "velocity": 0.6929133858267716
        },
        {
          "duration": 0.185546875,
          "durationTicks": 95,
          "midi": 67,
          "name": "G4",
          "ticks": 39936,
          "time": 79.07520201562498,
          "velocity": 0.7480314960629921
        },
        {
          "duration": 0.125,
          "durationTicks": 64,
          "midi": 67,
          "name": "G4",
          "ticks": 40128,
          "time": 79.45020201562498,
          "velocity": 0.7637795275590551
        },
        {
          "duration": 0.5,
          "durationTicks": 256,
          "midi": 72,
          "name": "C5",
          "ticks": 40192,
          "time": 79.57520201562498,
          "velocity": 0.8818897637795275
        },
        {
          "duration": 0.185546875,
          "durationTicks": 95,
          "midi": 67,
          "name": "G4",
          "ticks": 40448,
          "time": 80.07520201562498,
          "velocity": 0.7086614173228346
        },
        {
          "duration": 0.125,
          "durationTicks": 64,
          "midi": 72,
          "name": "C5",
          "ticks": 40640,
          "time": 80.45020201562498,
          "velocity": 0.8346456692913385
        },
        {
          "duration": 0.5,
          "durationTicks": 256,
          "midi": 74,
          "name": "D5",
          "ticks": 40704,
          "time": 80.57520201562498,
          "velocity": 0.7952755905511811
        },
        {
          "duration": 0.185546875,
          "durationTicks": 95,
          "midi": 67,
          "name": "G4",
          "ticks": 40960,
          "time": 81.07520201562498,
          "velocity": 0.5984251968503937
        },
        {
          "duration": 0.125,
          "durationTicks": 64,
          "midi": 74,
          "name": "D5",
          "ticks": 41152,
          "time": 81.45020201562498,
          "velocity": 0.8503937007874016
        },
        {
          "duration": 0.75,
          "durationTicks": 384,
          "midi": 77,
          "name": "F5",
          "ticks": 41216,
          "time": 81.57520201562498,
          "velocity": 0.8582677165354331
        },
        {
          "duration": 0.125,
          "durationTicks": 64,
          "midi": 76,
          "name": "E5",
          "ticks": 41600,
          "time": 82.32520201562498,
          "velocity": 0.7401574803149606
        },
        {
          "duration": 0.125,
          "durationTicks": 64,
          "midi": 77,
          "name": "F5",
          "ticks": 41664,
          "time": 82.45020201562498,
          "velocity": 0.8188976377952756
        },
        {
          "duration": 0.5,
          "durationTicks": 256,
          "midi": 79,
          "name": "G5",
          "ticks": 41728,
          "time": 82.57520201562498,
          "velocity": 0.8031496062992126
        },
        {
          "duration": 0.375,
          "durationTicks": 192,
          "midi": 72,
          "name": "C5",
          "ticks": 41984,
          "time": 83.07520201562498,
          "velocity": 0.6535433070866141
        },
        {
          "duration": 0.125,
          "durationTicks": 64,
          "midi": 71,
          "name": "B4",
          "ticks": 42176,
          "time": 83.45020201562498,
          "velocity": 0.7007874015748031
        },
        {
          "duration": 0.5,
          "durationTicks": 256,
          "midi": 69,
          "name": "A4",
          "ticks": 42240,
          "time": 83.57520201562498,
          "velocity": 0.7086614173228346
        },
        {
          "duration": 0.5,
          "durationTicks": 256,
          "midi": 81,
          "name": "A5",
          "ticks": 42496,
          "time": 84.07520201562498,
          "velocity": 0.9606299212598425
        },
        {
          "duration": 0.5,
          "durationTicks": 256,
          "midi": 77,
          "name": "F5",
          "ticks": 42752,
          "time": 84.57520201562498,
          "velocity": 0.7244094488188977
        },
        {
          "duration": 0.166015625,
          "durationTicks": 85,
          "midi": 77,
          "name": "F5",
          "ticks": 43008,
          "time": 85.07520201562498,
          "velocity": 0.7952755905511811
        },
        {
          "duration": 0.166015625,
          "durationTicks": 85,
          "midi": 76,
          "name": "E5",
          "ticks": 43093,
          "time": 85.24121764062498,
          "velocity": 0.7244094488188977
        },
        {
          "duration": 0.16796875,
          "durationTicks": 86,
          "midi": 74,
          "name": "D5",
          "ticks": 43178,
          "time": 85.40723326562498,
          "velocity": 0.6850393700787402
        },
        {
          "duration": 1.5,
          "durationTicks": 768,
          "midi": 76,
          "name": "E5",
          "ticks": 43264,
          "time": 85.57520201562498,
          "velocity": 0.7874015748031497
        },
        {
          "duration": 0.375,
          "durationTicks": 192,
          "midi": 72,
          "name": "C5",
          "ticks": 44032,
          "time": 87.07520201562498,
          "velocity": 0.5511811023622047
        },
        {
          "duration": 0.125,
          "durationTicks": 64,
          "midi": 71,
          "name": "B4",
          "ticks": 44224,
          "time": 87.45020201562498,
          "velocity": 0.5826771653543307
        },
        {
          "duration": 1.5,
          "durationTicks": 768,
          "midi": 69,
          "name": "A4",
          "ticks": 44288,
          "time": 87.57520201562498,
          "velocity": 0.5590551181102362
        },
        {
          "duration": 0.375,
          "durationTicks": 192,
          "midi": 71,
          "name": "B4",
          "ticks": 45056,
          "time": 89.07520201562498,
          "velocity": 0.6299212598425197
        },
        {
          "duration": 0.125,
          "durationTicks": 64,
          "midi": 72,
          "name": "C5",
          "ticks": 45248,
          "time": 89.45020201562498,
          "velocity": 0.6220472440944882
        },
        {
          "duration": 1.5,
          "durationTicks": 768,
          "midi": 67,
          "name": "G4",
          "ticks": 45312,
          "time": 89.57520201562498,
          "velocity": 0.5196850393700787
        },
        {
          "duration": 0.375,
          "durationTicks": 192,
          "midi": 67,
          "name": "G4",
          "ticks": 46080,
          "time": 91.07520201562498,
          "velocity": 0.5826771653543307
        },
        {
          "duration": 0.125,
          "durationTicks": 64,
          "midi": 67,
          "name": "G4",
          "ticks": 46272,
          "time": 91.45020201562498,
          "velocity": 0.6220472440944882
        },
        {
          "duration": 1.5,
          "durationTicks": 768,
          "midi": 65,
          "name": "F4",
          "ticks": 46336,
          "time": 91.57520201562498,
          "velocity": 0.5433070866141733
        },
        {
          "duration": 0.375,
          "durationTicks": 192,
          "midi": 67,
          "name": "G4",
          "ticks": 47104,
          "time": 93.07520201562498,
          "velocity": 0.5826771653543307
        },
        {
          "duration": 0.125,
          "durationTicks": 64,
          "midi": 69,
          "name": "A4",
          "ticks": 47296,
          "time": 93.45020201562498,
          "velocity": 0.6535433070866141
        },
        {
          "duration": 1.5,
          "durationTicks": 768,
          "midi": 64,
          "name": "E4",
          "ticks": 47360,
          "time": 93.57520201562498,
          "velocity": 0.5275590551181102
        },
        {
          "duration": 0.375,
          "durationTicks": 192,
          "midi": 72,
          "name": "C5",
          "ticks": 48128,
          "time": 95.07520201562498,
          "velocity": 0.6692913385826772
        },
        {
          "duration": 0.125,
          "durationTicks": 64,
          "midi": 71,
          "name": "B4",
          "ticks": 48320,
          "time": 95.45020201562498,
          "velocity": 0.5590551181102362
        },
        {
          "duration": 1.5,
          "durationTicks": 768,
          "midi": 69,
          "name": "A4",
          "ticks": 48384,
          "time": 95.57520201562498,
          "velocity": 0.5590551181102362
        },
        {
          "duration": 0.375,
          "durationTicks": 192,
          "midi": 71,
          "name": "B4",
          "ticks": 49152,
          "time": 97.07520201562498,
          "velocity": 0.6377952755905512
        },
        {
          "duration": 0.125,
          "durationTicks": 64,
          "midi": 72,
          "name": "C5",
          "ticks": 49344,
          "time": 97.45020201562498,
          "velocity": 0.6062992125984252
        },
        {
          "duration": 1.5,
          "durationTicks": 768,
          "midi": 67,
          "name": "G4",
          "ticks": 49408,
          "time": 97.57520201562498,
          "velocity": 0.5433070866141733
        },
        {
          "duration": 0.5,
          "durationTicks": 256,
          "midi": 72,
          "name": "C5",
          "ticks": 50176,
          "time": 99.07520201562498,
          "velocity": 0.7086614173228346
        },
        {
          "duration": 1.013926468749986,
          "durationTicks": 512,
          "midi": 74,
          "name": "D5",
          "ticks": 50432,
          "time": 99.57520201562498,
          "velocity": 0.6377952755905512
        },
        {
          "duration": 0.5515752187500169,
          "durationTicks": 256,
          "midi": 72,
          "name": "C5",
          "ticks": 50944,
          "time": 100.58912848437497,
          "velocity": 0.5826771653543307
        },
        {
          "duration": 0.1918511874999922,
          "durationTicks": 85,
          "midi": 72,
          "name": "C5",
          "ticks": 51200,
          "time": 101.14070370312498,
          "velocity": 0.5984251968503937
        },
        {
          "duration": 0.19877583593749648,
          "durationTicks": 85,
          "midi": 71,
          "name": "B4",
          "ticks": 51285,
          "time": 101.33255489062498,
          "velocity": 0.5905511811023622
        },
        {
          "duration": 0.2064303203125064,
          "durationTicks": 86,
          "midi": 72,
          "name": "C5",
          "ticks": 51370,
          "time": 101.53133072656247,
          "velocity": 0.6141732283464567
        },
        {
          "duration": 2.0301487851562285,
          "durationTicks": 768,
          "midi": 74,
          "name": "D5",
          "ticks": 51456,
          "time": 101.73776104687498,
          "velocity": 0.6614173228346457
        },
        {
          "duration": 0.185546875,
          "durationTicks": 95,
          "midi": 67,
          "name": "G4",
          "ticks": 52224,
          "time": 103.76790983203121,
          "velocity": 0.6692913385826772
        },
        {
          "duration": 0.125,
          "durationTicks": 64,
          "midi": 67,
          "name": "G4",
          "ticks": 52416,
          "time": 104.14290983203121,
          "velocity": 0.7559055118110236
        },
        {
          "duration": 0.5,
          "durationTicks": 256,
          "midi": 72,
          "name": "C5",
          "ticks": 52480,
          "time": 104.26790983203121,
          "velocity": 0.8582677165354331
        },
        {
          "duration": 0.185546875,
          "durationTicks": 95,
          "midi": 67,
          "name": "G4",
          "ticks": 52736,
          "time": 104.76790983203121,
          "velocity": 0.6850393700787402
        },
        {
          "duration": 0.125,
          "durationTicks": 64,
          "midi": 72,
          "name": "C5",
          "ticks": 52928,
          "time": 105.14290983203121,
          "velocity": 0.8976377952755905
        },
        {
          "duration": 0.5,
          "durationTicks": 256,
          "midi": 74,
          "name": "D5",
          "ticks": 52992,
          "time": 105.26790983203121,
          "velocity": 0.8267716535433071
        },
        {
          "duration": 0.185546875,
          "durationTicks": 95,
          "midi": 67,
          "name": "G4",
          "ticks": 53248,
          "time": 105.76790983203121,
          "velocity": 0.6299212598425197
        },
        {
          "duration": 0.125,
          "durationTicks": 64,
          "midi": 74,
          "name": "D5",
          "ticks": 53440,
          "time": 106.14290983203121,
          "velocity": 0.8503937007874016
        },
        {
          "duration": 0.75,
          "durationTicks": 384,
          "midi": 77,
          "name": "F5",
          "ticks": 53504,
          "time": 106.26790983203121,
          "velocity": 0.8346456692913385
        },
        {
          "duration": 0.125,
          "durationTicks": 64,
          "midi": 76,
          "name": "E5",
          "ticks": 53888,
          "time": 107.01790983203121,
          "velocity": 0.7007874015748031
        },
        {
          "duration": 0.125,
          "durationTicks": 64,
          "midi": 74,
          "name": "D5",
          "ticks": 53952,
          "time": 107.14290983203121,
          "velocity": 0.7244094488188977
        },
        {
          "duration": 0.5,
          "durationTicks": 256,
          "midi": 72,
          "name": "C5",
          "ticks": 54016,
          "time": 107.26790983203121,
          "velocity": 0.7007874015748031
        },
        {
          "duration": 0.5,
          "durationTicks": 256,
          "midi": 67,
          "name": "G4",
          "ticks": 54272,
          "time": 107.76790983203121,
          "velocity": 0.6535433070866141
        },
        {
          "duration": 0.5,
          "durationTicks": 256,
          "midi": 69,
          "name": "A4",
          "ticks": 54528,
          "time": 108.26790983203121,
          "velocity": 0.7795275590551181
        },
        {
          "duration": 0.5,
          "durationTicks": 256,
          "midi": 72,
          "name": "C5",
          "ticks": 54784,
          "time": 108.76790983203121,
          "velocity": 0.8503937007874016
        },
        {
          "duration": 0.5,
          "durationTicks": 256,
          "midi": 74,
          "name": "D5",
          "ticks": 55040,
          "time": 109.26790983203121,
          "velocity": 0.8110236220472441
        },
        {
          "duration": 0.5,
          "durationTicks": 256,
          "midi": 72,
          "name": "C5",
          "ticks": 55296,
          "time": 109.76790983203121,
          "velocity": 0.7086614173228346
        },
        {
          "duration": 0.75,
          "durationTicks": 384,
          "midi": 72,
          "name": "C5",
          "ticks": 55552,
          "time": 110.26790983203121,
          "velocity": 0.7480314960629921
        },
        {
          "duration": 0.125,
          "durationTicks": 64,
          "midi": 71,
          "name": "B4",
          "ticks": 55936,
          "time": 111.01790983203121,
          "velocity": 0.7086614173228346
        },
        {
          "duration": 0.125,
          "durationTicks": 64,
          "midi": 69,
          "name": "A4",
          "ticks": 56000,
          "time": 111.14290983203121,
          "velocity": 0.7244094488188977
        },
        {
          "duration": 0.5,
          "durationTicks": 256,
          "midi": 67,
          "name": "G4",
          "ticks": 56064,
          "time": 111.26790983203121,
          "velocity": 0.7086614173228346
        },
        {
          "duration": 0.185546875,
          "durationTicks": 95,
          "midi": 67,
          "name": "G4",
          "ticks": 56320,
          "time": 111.76790983203121,
          "velocity": 0.7559055118110236
        },
        {
          "duration": 0.125,
          "durationTicks": 64,
          "midi": 67,
          "name": "G4",
          "ticks": 56512,
          "time": 112.14290983203121,
          "velocity": 0.7716535433070866
        },
        {
          "duration": 0.5,
          "durationTicks": 256,
          "midi": 72,
          "name": "C5",
          "ticks": 56576,
          "time": 112.26790983203121,
          "velocity": 0.8740157480314961
        },
        {
          "duration": 0.185546875,
          "durationTicks": 95,
          "midi": 67,
          "name": "G4",
          "ticks": 56832,
          "time": 112.76790983203121,
          "velocity": 0.6850393700787402
        },
        {
          "duration": 0.125,
          "durationTicks": 64,
          "midi": 72,
          "name": "C5",
          "ticks": 57024,
          "time": 113.14290983203121,
          "velocity": 0.8661417322834646
        },
        {
          "duration": 0.5,
          "durationTicks": 256,
          "midi": 74,
          "name": "D5",
          "ticks": 57088,
          "time": 113.26790983203121,
          "velocity": 0.8582677165354331
        },
        {
          "duration": 0.185546875,
          "durationTicks": 95,
          "midi": 67,
          "name": "G4",
          "ticks": 57344,
          "time": 113.76790983203121,
          "velocity": 0.5984251968503937
        },
        {
          "duration": 0.125,
          "durationTicks": 64,
          "midi": 74,
          "name": "D5",
          "ticks": 57536,
          "time": 114.14290983203121,
          "velocity": 0.905511811023622
        },
        {
          "duration": 0.75,
          "durationTicks": 384,
          "midi": 77,
          "name": "F5",
          "ticks": 57600,
          "time": 114.26790983203121,
          "velocity": 0.8188976377952756
        },
        {
          "duration": 0.125,
          "durationTicks": 64,
          "midi": 76,
          "name": "E5",
          "ticks": 57984,
          "time": 115.01790983203121,
          "velocity": 0.7244094488188977
        },
        {
          "duration": 0.125,
          "durationTicks": 64,
          "midi": 77,
          "name": "F5",
          "ticks": 58048,
          "time": 115.14290983203121,
          "velocity": 0.7952755905511811
        },
        {
          "duration": 0.5,
          "durationTicks": 256,
          "midi": 79,
          "name": "G5",
          "ticks": 58112,
          "time": 115.26790983203121,
          "velocity": 0.8267716535433071
        },
        {
          "duration": 0.375,
          "durationTicks": 192,
          "midi": 72,
          "name": "C5",
          "ticks": 58368,
          "time": 115.76790983203121,
          "velocity": 0.6535433070866141
        },
        {
          "duration": 0.125,
          "durationTicks": 64,
          "midi": 71,
          "name": "B4",
          "ticks": 58560,
          "time": 116.14290983203121,
          "velocity": 0.7007874015748031
        },
        {
          "duration": 0.5,
          "durationTicks": 256,
          "midi": 69,
          "name": "A4",
          "ticks": 58624,
          "time": 116.26790983203121,
          "velocity": 0.7244094488188977
        },
        {
          "duration": 0.5,
          "durationTicks": 256,
          "midi": 81,
          "name": "A5",
          "ticks": 58880,
          "time": 116.76790983203121,
          "velocity": 0.984251968503937
        },
        {
          "duration": 0.5,
          "durationTicks": 256,
          "midi": 77,
          "name": "F5",
          "ticks": 59136,
          "time": 117.26790983203121,
          "velocity": 0.7165354330708661
        },
        {
          "duration": 0.166015625,
          "durationTicks": 85,
          "midi": 77,
          "name": "F5",
          "ticks": 59392,
          "time": 117.76790983203121,
          "velocity": 0.7637795275590551
        },
        {
          "duration": 0.166015625,
          "durationTicks": 85,
          "midi": 76,
          "name": "E5",
          "ticks": 59477,
          "time": 117.93392545703121,
          "velocity": 0.7086614173228346
        },
        {
          "duration": 0.16796875,
          "durationTicks": 86,
          "midi": 74,
          "name": "D5",
          "ticks": 59562,
          "time": 118.09994108203121,
          "velocity": 0.7322834645669292
        },
        {
          "duration": 1.5,
          "durationTicks": 768,
          "midi": 76,
          "name": "E5",
          "ticks": 59648,
          "time": 118.26790983203121,
          "velocity": 0.8346456692913385
        },
        {
          "duration": 0.123046875,
          "durationTicks": 63,
          "midi": 79,
          "name": "G5",
          "ticks": 60672,
          "time": 120.26790983203121,
          "velocity": 0.6141732283464567
        },
        {
          "duration": 0.123046875,
          "durationTicks": 63,
          "midi": 79,
          "name": "G5",
          "ticks": 60800,
          "time": 120.51790983203121,
          "velocity": 0.6771653543307087
        },
        {
          "duration": 0.123046875,
          "durationTicks": 63,
          "midi": 79,
          "name": "G5",
          "ticks": 60928,
          "time": 120.76790983203121,
          "velocity": 0.6299212598425197
        },
        {
          "duration": 0.123046875,
          "durationTicks": 63,
          "midi": 79,
          "name": "G5",
          "ticks": 61056,
          "time": 121.01790983203121,
          "velocity": 0.6377952755905512
        },
        {
          "duration": 0.123046875,
          "durationTicks": 63,
          "midi": 79,
          "name": "G5",
          "ticks": 61184,
          "time": 121.26790983203121,
          "velocity": 0.6456692913385826
        },
        {
          "duration": 0.123046875,
          "durationTicks": 63,
          "midi": 79,
          "name": "G5",
          "ticks": 61312,
          "time": 121.51790983203121,
          "velocity": 0.6456692913385826
        },
        {
          "duration": 0.123046875,
          "durationTicks": 63,
          "midi": 79,
          "name": "G5",
          "ticks": 61440,
          "time": 121.76790983203121,
          "velocity": 0.6377952755905512
        },
        {
          "duration": 0.5,
          "durationTicks": 256,
          "midi": 81,
          "name": "A5",
          "ticks": 61568,
          "time": 122.01790983203121,
          "velocity": 0.7165354330708661
        },
        {
          "duration": 0.123046875,
          "durationTicks": 63,
          "midi": 81,
          "name": "A5",
          "ticks": 61824,
          "time": 122.51790983203121,
          "velocity": 0.7165354330708661
        },
        {
          "duration": 0.123046875,
          "durationTicks": 63,
          "midi": 81,
          "name": "A5",
          "ticks": 61952,
          "time": 122.76790983203121,
          "velocity": 0.6850393700787402
        },
        {
          "duration": 0.123046875,
          "durationTicks": 63,
          "midi": 81,
          "name": "A5",
          "ticks": 62080,
          "time": 123.01790983203121,
          "velocity": 0.6535433070866141
        },
        {
          "duration": 0.123046875,
          "durationTicks": 63,
          "midi": 81,
          "name": "A5",
          "ticks": 62208,
          "time": 123.26790983203121,
          "velocity": 0.6929133858267716
        },
        {
          "duration": 0.123046875,
          "durationTicks": 63,
          "midi": 81,
          "name": "A5",
          "ticks": 62336,
          "time": 123.51790983203121,
          "velocity": 0.6614173228346457
        },
        {
          "duration": 0.123046875,
          "durationTicks": 63,
          "midi": 81,
          "name": "A5",
          "ticks": 62464,
          "time": 123.76790983203121,
          "velocity": 0.6614173228346457
        },
        {
          "duration": 0.5,
          "durationTicks": 256,
          "midi": 77,
          "name": "F5",
          "ticks": 62592,
          "time": 124.01790983203121,
          "velocity": 0.5748031496062992
        },
        {
          "duration": 0.123046875,
          "durationTicks": 63,
          "midi": 77,
          "name": "F5",
          "ticks": 62848,
          "time": 124.51790983203121,
          "velocity": 0.6614173228346457
        },
        {
          "duration": 0.123046875,
          "durationTicks": 63,
          "midi": 77,
          "name": "F5",
          "ticks": 62976,
          "time": 124.76790983203121,
          "velocity": 0.6220472440944882
        },
        {
          "duration": 0.123046875,
          "durationTicks": 63,
          "midi": 77,
          "name": "F5",
          "ticks": 63104,
          "time": 125.01790983203121,
          "velocity": 0.6692913385826772
        },
        {
          "duration": 0.123046875,
          "durationTicks": 63,
          "midi": 77,
          "name": "F5",
          "ticks": 63232,
          "time": 125.26790983203121,
          "velocity": 0.6456692913385826
        },
        {
          "duration": 0.123046875,
          "durationTicks": 63,
          "midi": 77,
          "name": "F5",
          "ticks": 63360,
          "time": 125.51790983203121,
          "velocity": 0.6535433070866141
        },
        {
          "duration": 0.123046875,
          "durationTicks": 63,
          "midi": 77,
          "name": "F5",
          "ticks": 63488,
          "time": 125.76790983203121,
          "velocity": 0.6456692913385826
        },
        {
          "duration": 0.5,
          "durationTicks": 256,
          "midi": 79,
          "name": "G5",
          "ticks": 63616,
          "time": 126.01790983203121,
          "velocity": 0.7244094488188977
        },
        {
          "duration": 0.123046875,
          "durationTicks": 63,
          "midi": 79,
          "name": "G5",
          "ticks": 63872,
          "time": 126.51790983203121,
          "velocity": 0.6535433070866141
        },
        {
          "duration": 0.123046875,
          "durationTicks": 63,
          "midi": 79,
          "name": "G5",
          "ticks": 64000,
          "time": 126.76790983203121,
          "velocity": 0.6535433070866141
        },
        {
          "duration": 0.123046875,
          "durationTicks": 63,
          "midi": 79,
          "name": "G5",
          "ticks": 64128,
          "time": 127.01790983203121,
          "velocity": 0.6614173228346457
        },
        {
          "duration": 0.123046875,
          "durationTicks": 63,
          "midi": 79,
          "name": "G5",
          "ticks": 64256,
          "time": 127.26790983203121,
          "velocity": 0.6850393700787402
        },
        {
          "duration": 0.123046875,
          "durationTicks": 63,
          "midi": 79,
          "name": "G5",
          "ticks": 64384,
          "time": 127.51790983203121,
          "velocity": 0.6771653543307087
        },
        {
          "duration": 0.123046875,
          "durationTicks": 63,
          "midi": 79,
          "name": "G5",
          "ticks": 64512,
          "time": 127.76790983203121,
          "velocity": 0.6377952755905512
        },
        {
          "duration": 0.123046875,
          "durationTicks": 63,
          "midi": 79,
          "name": "G5",
          "ticks": 64640,
          "time": 128.0179098320312,
          "velocity": 0.6692913385826772
        },
        {
          "duration": 0.123046875,
          "durationTicks": 63,
          "midi": 79,
          "name": "G5",
          "ticks": 64768,
          "time": 128.2679098320312,
          "velocity": 0.5039370078740157
        },
        {
          "duration": 0.123046875,
          "durationTicks": 63,
          "midi": 79,
          "name": "G5",
          "ticks": 64896,
          "time": 128.5179098320312,
          "velocity": 0.5590551181102362
        },
        {
          "duration": 0.123046875,
          "durationTicks": 63,
          "midi": 79,
          "name": "G5",
          "ticks": 65024,
          "time": 128.7679098320312,
          "velocity": 0.5669291338582677
        },
        {
          "duration": 0.123046875,
          "durationTicks": 63,
          "midi": 79,
          "name": "G5",
          "ticks": 65152,
          "time": 129.0179098320312,
          "velocity": 0.5275590551181102
        },
        {
          "duration": 0.123046875,
          "durationTicks": 63,
          "midi": 79,
          "name": "G5",
          "ticks": 65280,
          "time": 129.2679098320312,
          "velocity": 0.5354330708661418
        },
        {
          "duration": 0.123046875,
          "durationTicks": 63,
          "midi": 79,
          "name": "G5",
          "ticks": 65408,
          "time": 129.5179098320312,
          "velocity": 0.5905511811023622
        },
        {
          "duration": 0.123046875,
          "durationTicks": 63,
          "midi": 79,
          "name": "G5",
          "ticks": 65536,
          "time": 129.7679098320312,
          "velocity": 0.5511811023622047
        },
        {
          "duration": 0.5,
          "durationTicks": 256,
          "midi": 81,
          "name": "A5",
          "ticks": 65664,
          "time": 130.0179098320312,
          "velocity": 0.5905511811023622
        },
        {
          "duration": 0.123046875,
          "durationTicks": 63,
          "midi": 81,
          "name": "A5",
          "ticks": 65920,
          "time": 130.5179098320312,
          "velocity": 0.5669291338582677
        },
        {
          "duration": 0.123046875,
          "durationTicks": 63,
          "midi": 81,
          "name": "A5",
          "ticks": 66048,
          "time": 130.7679098320312,
          "velocity": 0.5511811023622047
        },
        {
          "duration": 0.123046875,
          "durationTicks": 63,
          "midi": 81,
          "name": "A5",
          "ticks": 66176,
          "time": 131.0179098320312,
          "velocity": 0.5669291338582677
        },
        {
          "duration": 0.123046875,
          "durationTicks": 63,
          "midi": 81,
          "name": "A5",
          "ticks": 66304,
          "time": 131.2679098320312,
          "velocity": 0.5590551181102362
        },
        {
          "duration": 0.123046875,
          "durationTicks": 63,
          "midi": 81,
          "name": "A5",
          "ticks": 66432,
          "time": 131.5179098320312,
          "velocity": 0.5669291338582677
        },
        {
          "duration": 0.123046875,
          "durationTicks": 63,
          "midi": 81,
          "name": "A5",
          "ticks": 66560,
          "time": 131.7679098320312,
          "velocity": 0.5354330708661418
        },
        {
          "duration": 0.5,
          "durationTicks": 256,
          "midi": 77,
          "name": "F5",
          "ticks": 66688,
          "time": 132.0179098320312,
          "velocity": 0.5354330708661418
        },
        {
          "duration": 0.123046875,
          "durationTicks": 63,
          "midi": 77,
          "name": "F5",
          "ticks": 66944,
          "time": 132.5179098320312,
          "velocity": 0.5590551181102362
        },
        {
          "duration": 0.123046875,
          "durationTicks": 63,
          "midi": 77,
          "name": "F5",
          "ticks": 67072,
          "time": 132.7679098320312,
          "velocity": 0.5669291338582677
        },
        {
          "duration": 0.123046875,
          "durationTicks": 63,
          "midi": 77,
          "name": "F5",
          "ticks": 67200,
          "time": 133.0179098320312,
          "velocity": 0.5433070866141733
        },
        {
          "duration": 0.123046875,
          "durationTicks": 63,
          "midi": 77,
          "name": "F5",
          "ticks": 67328,
          "time": 133.2679098320312,
          "velocity": 0.5669291338582677
        },
        {
          "duration": 0.123046875,
          "durationTicks": 63,
          "midi": 77,
          "name": "F5",
          "ticks": 67456,
          "time": 133.5179098320312,
          "velocity": 0.5590551181102362
        },
        {
          "duration": 0.123046875,
          "durationTicks": 63,
          "midi": 77,
          "name": "F5",
          "ticks": 67584,
          "time": 133.7679098320312,
          "velocity": 0.5669291338582677
        },
        {
          "duration": 0.5,
          "durationTicks": 256,
          "midi": 79,
          "name": "G5",
          "ticks": 67712,
          "time": 134.0179098320312,
          "velocity": 0.5905511811023622
        },
        {
          "duration": 0.123046875,
          "durationTicks": 63,
          "midi": 79,
          "name": "G5",
          "ticks": 67968,
          "time": 134.5179098320312,
          "velocity": 0.5511811023622047
        },
        {
          "duration": 0.123046875,
          "durationTicks": 63,
          "midi": 79,
          "name": "G5",
          "ticks": 68096,
          "time": 134.7679098320312,
          "velocity": 0.5118110236220472
        },
        {
          "duration": 0.123046875,
          "durationTicks": 63,
          "midi": 79,
          "name": "G5",
          "ticks": 68224,
          "time": 135.0179098320312,
          "velocity": 0.5826771653543307
        },
        {
          "duration": 0.123046875,
          "durationTicks": 63,
          "midi": 79,
          "name": "G5",
          "ticks": 68352,
          "time": 135.2679098320312,
          "velocity": 0.5590551181102362
        },
        {
          "duration": 0.123046875,
          "durationTicks": 63,
          "midi": 79,
          "name": "G5",
          "ticks": 68480,
          "time": 135.5179098320312,
          "velocity": 0.5669291338582677
        },
        {
          "duration": 0.123046875,
          "durationTicks": 63,
          "midi": 79,
          "name": "G5",
          "ticks": 68608,
          "time": 135.7679098320312,
          "velocity": 0.5984251968503937
        },
        {
          "duration": 0.123046875,
          "durationTicks": 63,
          "midi": 79,
          "name": "G5",
          "ticks": 68736,
          "time": 136.0179098320312,
          "velocity": 0.5511811023622047
        },
        {
          "duration": 0.123046875,
          "durationTicks": 63,
          "midi": 79,
          "name": "G5",
          "ticks": 68864,
          "time": 136.2679098320312,
          "velocity": 0.5511811023622047
        },
        {
          "duration": 0.123046875,
          "durationTicks": 63,
          "midi": 79,
          "name": "G5",
          "ticks": 68992,
          "time": 136.5179098320312,
          "velocity": 0.5196850393700787
        },
        {
          "duration": 0.123046875,
          "durationTicks": 63,
          "midi": 79,
          "name": "G5",
          "ticks": 69120,
          "time": 136.7679098320312,
          "velocity": 0.5511811023622047
        },
        {
          "duration": 0.123046875,
          "durationTicks": 63,
          "midi": 79,
          "name": "G5",
          "ticks": 69248,
          "time": 137.0179098320312,
          "velocity": 0.5433070866141733
        },
        {
          "duration": 0.123046875,
          "durationTicks": 63,
          "midi": 79,
          "name": "G5",
          "ticks": 69376,
          "time": 137.2679098320312,
          "velocity": 0.5433070866141733
        },
        {
          "duration": 0.123046875,
          "durationTicks": 63,
          "midi": 79,
          "name": "G5",
          "ticks": 69504,
          "time": 137.5179098320312,
          "velocity": 0.5826771653543307
        },
        {
          "duration": 0.123046875,
          "durationTicks": 63,
          "midi": 79,
          "name": "G5",
          "ticks": 69632,
          "time": 137.7679098320312,
          "velocity": 0.5511811023622047
        },
        {
          "duration": 0.5,
          "durationTicks": 256,
          "midi": 81,
          "name": "A5",
          "ticks": 69760,
          "time": 138.0179098320312,
          "velocity": 0.5748031496062992
        },
        {
          "duration": 0.123046875,
          "durationTicks": 63,
          "midi": 81,
          "name": "A5",
          "ticks": 70016,
          "time": 138.5179098320312,
          "velocity": 0.5511811023622047
        },
        {
          "duration": 0.123046875,
          "durationTicks": 63,
          "midi": 81,
          "name": "A5",
          "ticks": 70144,
          "time": 138.7679098320312,
          "velocity": 0.5905511811023622
        },
        {
          "duration": 0.123046875,
          "durationTicks": 63,
          "midi": 81,
          "name": "A5",
          "ticks": 70272,
          "time": 139.0179098320312,
          "velocity": 0.5275590551181102
        },
        {
          "duration": 0.123046875,
          "durationTicks": 63,
          "midi": 81,
          "name": "A5",
          "ticks": 70400,
          "time": 139.2679098320312,
          "velocity": 0.5433070866141733
        },
        {
          "duration": 0.123046875,
          "durationTicks": 63,
          "midi": 81,
          "name": "A5",
          "ticks": 70528,
          "time": 139.5179098320312,
          "velocity": 0.5590551181102362
        },
        {
          "duration": 0.123046875,
          "durationTicks": 63,
          "midi": 81,
          "name": "A5",
          "ticks": 70656,
          "time": 139.7679098320312,
          "velocity": 0.5433070866141733
        },
        {
          "duration": 0.5,
          "durationTicks": 256,
          "midi": 77,
          "name": "F5",
          "ticks": 70784,
          "time": 140.0179098320312,
          "velocity": 0.4881889763779528
        },
        {
          "duration": 0.123046875,
          "durationTicks": 63,
          "midi": 77,
          "name": "F5",
          "ticks": 71040,
          "time": 140.5179098320312,
          "velocity": 0.5433070866141733
        },
        {
          "duration": 0.123046875,
          "durationTicks": 63,
          "midi": 77,
          "name": "F5",
          "ticks": 71168,
          "time": 140.7679098320312,
          "velocity": 0.5511811023622047
        },
        {
          "duration": 0.123046875,
          "durationTicks": 63,
          "midi": 77,
          "name": "F5",
          "ticks": 71296,
          "time": 141.0179098320312,
          "velocity": 0.5748031496062992
        },
        {
          "duration": 0.123046875,
          "durationTicks": 63,
          "midi": 77,
          "name": "F5",
          "ticks": 71424,
          "time": 141.2679098320312,
          "velocity": 0.5669291338582677
        },
        {
          "duration": 0.123046875,
          "durationTicks": 63,
          "midi": 77,
          "name": "F5",
          "ticks": 71552,
          "time": 141.5179098320312,
          "velocity": 0.5511811023622047
        },
        {
          "duration": 0.123046875,
          "durationTicks": 63,
          "midi": 77,
          "name": "F5",
          "ticks": 71680,
          "time": 141.7679098320312,
          "velocity": 0.5354330708661418
        },
        {
          "duration": 0.5,
          "durationTicks": 256,
          "midi": 79,
          "name": "G5",
          "ticks": 71808,
          "time": 142.0179098320312,
          "velocity": 0.5905511811023622
        },
        {
          "duration": 0.123046875,
          "durationTicks": 63,
          "midi": 79,
          "name": "G5",
          "ticks": 72064,
          "time": 142.5179098320312,
          "velocity": 0.5590551181102362
        },
        {
          "duration": 0.123046875,
          "durationTicks": 63,
          "midi": 79,
          "name": "G5",
          "ticks": 72192,
          "time": 142.7679098320312,
          "velocity": 0.5748031496062992
        },
        {
          "duration": 0.123046875,
          "durationTicks": 63,
          "midi": 79,
          "name": "G5",
          "ticks": 72320,
          "time": 143.0179098320312,
          "velocity": 0.5354330708661418
        },
        {
          "duration": 0.123046875,
          "durationTicks": 63,
          "midi": 79,
          "name": "G5",
          "ticks": 72448,
          "time": 143.2679098320312,
          "velocity": 0.5669291338582677
        },
        {
          "duration": 0.123046875,
          "durationTicks": 63,
          "midi": 79,
          "name": "G5",
          "ticks": 72576,
          "time": 143.5179098320312,
          "velocity": 0.5433070866141733
        },
        {
          "duration": 0.123046875,
          "durationTicks": 63,
          "midi": 79,
          "name": "G5",
          "ticks": 72704,
          "time": 143.7679098320312,
          "velocity": 0.5511811023622047
        },
        {
          "duration": 0.123046875,
          "durationTicks": 63,
          "midi": 79,
          "name": "G5",
          "ticks": 72832,
          "time": 144.0179098320312,
          "velocity": 0.5590551181102362
        },
        {
          "duration": 0.123046875,
          "durationTicks": 63,
          "midi": 72,
          "name": "C5",
          "ticks": 72960,
          "time": 144.2679098320312,
          "velocity": 0.5039370078740157
        },
        {
          "duration": 0.123046875,
          "durationTicks": 63,
          "midi": 76,
          "name": "E5",
          "ticks": 72960,
          "time": 144.2679098320312,
          "velocity": 0.5039370078740157
        },
        {
          "duration": 0.123046875,
          "durationTicks": 63,
          "midi": 72,
          "name": "C5",
          "ticks": 73088,
          "time": 144.5179098320312,
          "velocity": 0.5826771653543307
        },
        {
          "duration": 0.123046875,
          "durationTicks": 63,
          "midi": 76,
          "name": "E5",
          "ticks": 73088,
          "time": 144.5179098320312,
          "velocity": 0.5826771653543307
        },
        {
          "duration": 0.123046875,
          "durationTicks": 63,
          "midi": 72,
          "name": "C5",
          "ticks": 73216,
          "time": 144.7679098320312,
          "velocity": 0.5669291338582677
        },
        {
          "duration": 0.123046875,
          "durationTicks": 63,
          "midi": 76,
          "name": "E5",
          "ticks": 73216,
          "time": 144.7679098320312,
          "velocity": 0.5669291338582677
        },
        {
          "duration": 0.123046875,
          "durationTicks": 63,
          "midi": 72,
          "name": "C5",
          "ticks": 73344,
          "time": 145.0179098320312,
          "velocity": 0.5669291338582677
        },
        {
          "duration": 0.123046875,
          "durationTicks": 63,
          "midi": 76,
          "name": "E5",
          "ticks": 73344,
          "time": 145.0179098320312,
          "velocity": 0.5669291338582677
        },
        {
          "duration": 0.123046875,
          "durationTicks": 63,
          "midi": 72,
          "name": "C5",
          "ticks": 73472,
          "time": 145.2679098320312,
          "velocity": 0.5748031496062992
        },
        {
          "duration": 0.123046875,
          "durationTicks": 63,
          "midi": 76,
          "name": "E5",
          "ticks": 73472,
          "time": 145.2679098320312,
          "velocity": 0.5748031496062992
        },
        {
          "duration": 0.123046875,
          "durationTicks": 63,
          "midi": 72,
          "name": "C5",
          "ticks": 73600,
          "time": 145.5179098320312,
          "velocity": 0.5275590551181102
        },
        {
          "duration": 0.123046875,
          "durationTicks": 63,
          "midi": 76,
          "name": "E5",
          "ticks": 73600,
          "time": 145.5179098320312,
          "velocity": 0.5275590551181102
        },
        {
          "duration": 0.123046875,
          "durationTicks": 63,
          "midi": 72,
          "name": "C5",
          "ticks": 73728,
          "time": 145.7679098320312,
          "velocity": 0.5433070866141733
        },
        {
          "duration": 0.123046875,
          "durationTicks": 63,
          "midi": 76,
          "name": "E5",
          "ticks": 73728,
          "time": 145.7679098320312,
          "velocity": 0.5433070866141733
        },
        {
          "duration": 0.123046875,
          "durationTicks": 63,
          "midi": 72,
          "name": "C5",
          "ticks": 73856,
          "time": 146.0179098320312,
          "velocity": 0.5511811023622047
        },
        {
          "duration": 0.123046875,
          "durationTicks": 63,
          "midi": 76,
          "name": "E5",
          "ticks": 73856,
          "time": 146.0179098320312,
          "velocity": 0.5511811023622047
        },
        {
          "duration": 0.123046875,
          "durationTicks": 63,
          "midi": 71,
          "name": "B4",
          "ticks": 73984,
          "time": 146.2679098320312,
          "velocity": 0.5590551181102362
        },
        {
          "duration": 0.123046875,
          "durationTicks": 63,
          "midi": 76,
          "name": "E5",
          "ticks": 73984,
          "time": 146.2679098320312,
          "velocity": 0.5590551181102362
        },
        {
          "duration": 0.123046875,
          "durationTicks": 63,
          "midi": 71,
          "name": "B4",
          "ticks": 74112,
          "time": 146.5179098320312,
          "velocity": 0.5748031496062992
        },
        {
          "duration": 0.123046875,
          "durationTicks": 63,
          "midi": 76,
          "name": "E5",
          "ticks": 74112,
          "time": 146.5179098320312,
          "velocity": 0.5748031496062992
        },
        {
          "duration": 0.123046875,
          "durationTicks": 63,
          "midi": 71,
          "name": "B4",
          "ticks": 74240,
          "time": 146.7679098320312,
          "velocity": 0.5590551181102362
        },
        {
          "duration": 0.123046875,
          "durationTicks": 63,
          "midi": 76,
          "name": "E5",
          "ticks": 74240,
          "time": 146.7679098320312,
          "velocity": 0.5590551181102362
        },
        {
          "duration": 0.123046875,
          "durationTicks": 63,
          "midi": 71,
          "name": "B4",
          "ticks": 74368,
          "time": 147.0179098320312,
          "velocity": 0.5669291338582677
        },
        {
          "duration": 0.123046875,
          "durationTicks": 63,
          "midi": 76,
          "name": "E5",
          "ticks": 74368,
          "time": 147.0179098320312,
          "velocity": 0.5669291338582677
        },
        {
          "duration": 0.123046875,
          "durationTicks": 63,
          "midi": 71,
          "name": "B4",
          "ticks": 74496,
          "time": 147.2679098320312,
          "velocity": 0.5905511811023622
        },
        {
          "duration": 0.123046875,
          "durationTicks": 63,
          "midi": 76,
          "name": "E5",
          "ticks": 74496,
          "time": 147.2679098320312,
          "velocity": 0.5905511811023622
        },
        {
          "duration": 0.123046875,
          "durationTicks": 63,
          "midi": 71,
          "name": "B4",
          "ticks": 74624,
          "time": 147.5179098320312,
          "velocity": 0.5511811023622047
        },
        {
          "duration": 0.123046875,
          "durationTicks": 63,
          "midi": 76,
          "name": "E5",
          "ticks": 74624,
          "time": 147.5179098320312,
          "velocity": 0.5511811023622047
        },
        {
          "duration": 0.123046875,
          "durationTicks": 63,
          "midi": 71,
          "name": "B4",
          "ticks": 74752,
          "time": 147.7679098320312,
          "velocity": 0.5590551181102362
        },
        {
          "duration": 0.123046875,
          "durationTicks": 63,
          "midi": 76,
          "name": "E5",
          "ticks": 74752,
          "time": 147.7679098320312,
          "velocity": 0.5590551181102362
        },
        {
          "duration": 0.123046875,
          "durationTicks": 63,
          "midi": 71,
          "name": "B4",
          "ticks": 74880,
          "time": 148.0179098320312,
          "velocity": 0.5511811023622047
        },
        {
          "duration": 0.123046875,
          "durationTicks": 63,
          "midi": 76,
          "name": "E5",
          "ticks": 74880,
          "time": 148.0179098320312,
          "velocity": 0.5511811023622047
        },
        {
          "duration": 0.123046875,
          "durationTicks": 63,
          "midi": 69,
          "name": "A4",
          "ticks": 75008,
          "time": 148.2679098320312,
          "velocity": 0.5748031496062992
        },
        {
          "duration": 0.123046875,
          "durationTicks": 63,
          "midi": 76,
          "name": "E5",
          "ticks": 75008,
          "time": 148.2679098320312,
          "velocity": 0.5748031496062992
        },
        {
          "duration": 0.123046875,
          "durationTicks": 63,
          "midi": 69,
          "name": "A4",
          "ticks": 75136,
          "time": 148.5179098320312,
          "velocity": 0.5511811023622047
        },
        {
          "duration": 0.123046875,
          "durationTicks": 63,
          "midi": 76,
          "name": "E5",
          "ticks": 75136,
          "time": 148.5179098320312,
          "velocity": 0.5511811023622047
        },
        {
          "duration": 0.123046875,
          "durationTicks": 63,
          "midi": 69,
          "name": "A4",
          "ticks": 75264,
          "time": 148.7679098320312,
          "velocity": 0.5433070866141733
        },
        {
          "duration": 0.123046875,
          "durationTicks": 63,
          "midi": 76,
          "name": "E5",
          "ticks": 75264,
          "time": 148.7679098320312,
          "velocity": 0.5433070866141733
        },
        {
          "duration": 0.123046875,
          "durationTicks": 63,
          "midi": 69,
          "name": "A4",
          "ticks": 75392,
          "time": 149.0179098320312,
          "velocity": 0.5826771653543307
        },
        {
          "duration": 0.123046875,
          "durationTicks": 63,
          "midi": 76,
          "name": "E5",
          "ticks": 75392,
          "time": 149.0179098320312,
          "velocity": 0.5826771653543307
        },
        {
          "duration": 0.123046875,
          "durationTicks": 63,
          "midi": 69,
          "name": "A4",
          "ticks": 75520,
          "time": 149.2679098320312,
          "velocity": 0.5590551181102362
        },
        {
          "duration": 0.123046875,
          "durationTicks": 63,
          "midi": 76,
          "name": "E5",
          "ticks": 75520,
          "time": 149.2679098320312,
          "velocity": 0.5590551181102362
        },
        {
          "duration": 0.123046875,
          "durationTicks": 63,
          "midi": 69,
          "name": "A4",
          "ticks": 75648,
          "time": 149.5179098320312,
          "velocity": 0.5905511811023622
        },
        {
          "duration": 0.123046875,
          "durationTicks": 63,
          "midi": 76,
          "name": "E5",
          "ticks": 75648,
          "time": 149.5179098320312,
          "velocity": 0.5905511811023622
        },
        {
          "duration": 0.123046875,
          "durationTicks": 63,
          "midi": 69,
          "name": "A4",
          "ticks": 75776,
          "time": 149.7679098320312,
          "velocity": 0.5826771653543307
        },
        {
          "duration": 0.123046875,
          "durationTicks": 63,
          "midi": 76,
          "name": "E5",
          "ticks": 75776,
          "time": 149.7679098320312,
          "velocity": 0.5826771653543307
        },
        {
          "duration": 0.123046875,
          "durationTicks": 63,
          "midi": 69,
          "name": "A4",
          "ticks": 75904,
          "time": 150.0179098320312,
          "velocity": 0.5669291338582677
        },
        {
          "duration": 0.123046875,
          "durationTicks": 63,
          "midi": 76,
          "name": "E5",
          "ticks": 75904,
          "time": 150.0179098320312,
          "velocity": 0.5669291338582677
        },
        {
          "duration": 0.123046875,
          "durationTicks": 63,
          "midi": 67,
          "name": "G4",
          "ticks": 76032,
          "time": 150.2679098320312,
          "velocity": 0.5669291338582677
        },
        {
          "duration": 0.123046875,
          "durationTicks": 63,
          "midi": 76,
          "name": "E5",
          "ticks": 76032,
          "time": 150.2679098320312,
          "velocity": 0.5669291338582677
        },
        {
          "duration": 0.123046875,
          "durationTicks": 63,
          "midi": 67,
          "name": "G4",
          "ticks": 76160,
          "time": 150.5179098320312,
          "velocity": 0.5590551181102362
        },
        {
          "duration": 0.123046875,
          "durationTicks": 63,
          "midi": 76,
          "name": "E5",
          "ticks": 76160,
          "time": 150.5179098320312,
          "velocity": 0.5590551181102362
        },
        {
          "duration": 0.123046875,
          "durationTicks": 63,
          "midi": 67,
          "name": "G4",
          "ticks": 76288,
          "time": 150.7679098320312,
          "velocity": 0.5511811023622047
        },
        {
          "duration": 0.123046875,
          "durationTicks": 63,
          "midi": 76,
          "name": "E5",
          "ticks": 76288,
          "time": 150.7679098320312,
          "velocity": 0.5511811023622047
        },
        {
          "duration": 0.123046875,
          "durationTicks": 63,
          "midi": 67,
          "name": "G4",
          "ticks": 76416,
          "time": 151.0179098320312,
          "velocity": 0.5590551181102362
        },
        {
          "duration": 0.123046875,
          "durationTicks": 63,
          "midi": 76,
          "name": "E5",
          "ticks": 76416,
          "time": 151.0179098320312,
          "velocity": 0.5590551181102362
        },
        {
          "duration": 0.123046875,
          "durationTicks": 63,
          "midi": 67,
          "name": "G4",
          "ticks": 76544,
          "time": 151.2679098320312,
          "velocity": 0.5196850393700787
        },
        {
          "duration": 0.123046875,
          "durationTicks": 63,
          "midi": 76,
          "name": "E5",
          "ticks": 76544,
          "time": 151.2679098320312,
          "velocity": 0.5196850393700787
        },
        {
          "duration": 0.123046875,
          "durationTicks": 63,
          "midi": 67,
          "name": "G4",
          "ticks": 76672,
          "time": 151.5179098320312,
          "velocity": 0.5669291338582677
        },
        {
          "duration": 0.123046875,
          "durationTicks": 63,
          "midi": 76,
          "name": "E5",
          "ticks": 76672,
          "time": 151.5179098320312,
          "velocity": 0.5669291338582677
        },
        {
          "duration": 0.123046875,
          "durationTicks": 63,
          "midi": 67,
          "name": "G4",
          "ticks": 76800,
          "time": 151.7679098320312,
          "velocity": 0.5354330708661418
        },
        {
          "duration": 0.123046875,
          "durationTicks": 63,
          "midi": 76,
          "name": "E5",
          "ticks": 76800,
          "time": 151.7679098320312,
          "velocity": 0.5354330708661418
        },
        {
          "duration": 0.123046875,
          "durationTicks": 63,
          "midi": 67,
          "name": "G4",
          "ticks": 76928,
          "time": 152.0179098320312,
          "velocity": 0.5826771653543307
        },
        {
          "duration": 0.123046875,
          "durationTicks": 63,
          "midi": 76,
          "name": "E5",
          "ticks": 76928,
          "time": 152.0179098320312,
          "velocity": 0.5826771653543307
        },
        {
          "duration": 0.123046875,
          "durationTicks": 63,
          "midi": 69,
          "name": "A4",
          "ticks": 77056,
          "time": 152.2679098320312,
          "velocity": 0.5826771653543307
        },
        {
          "duration": 0.123046875,
          "durationTicks": 63,
          "midi": 77,
          "name": "F5",
          "ticks": 77056,
          "time": 152.2679098320312,
          "velocity": 0.5826771653543307
        },
        {
          "duration": 0.123046875,
          "durationTicks": 63,
          "midi": 69,
          "name": "A4",
          "ticks": 77184,
          "time": 152.5179098320312,
          "velocity": 0.5905511811023622
        },
        {
          "duration": 0.123046875,
          "durationTicks": 63,
          "midi": 77,
          "name": "F5",
          "ticks": 77184,
          "time": 152.5179098320312,
          "velocity": 0.5905511811023622
        },
        {
          "duration": 0.123046875,
          "durationTicks": 63,
          "midi": 69,
          "name": "A4",
          "ticks": 77312,
          "time": 152.7679098320312,
          "velocity": 0.5669291338582677
        },
        {
          "duration": 0.123046875,
          "durationTicks": 63,
          "midi": 77,
          "name": "F5",
          "ticks": 77312,
          "time": 152.7679098320312,
          "velocity": 0.5669291338582677
        },
        {
          "duration": 0.123046875,
          "durationTicks": 63,
          "midi": 69,
          "name": "A4",
          "ticks": 77440,
          "time": 153.0179098320312,
          "velocity": 0.5748031496062992
        },
        {
          "duration": 0.123046875,
          "durationTicks": 63,
          "midi": 77,
          "name": "F5",
          "ticks": 77440,
          "time": 153.0179098320312,
          "velocity": 0.5748031496062992
        },
        {
          "duration": 0.123046875,
          "durationTicks": 63,
          "midi": 69,
          "name": "A4",
          "ticks": 77568,
          "time": 153.2679098320312,
          "velocity": 0.5433070866141733
        },
        {
          "duration": 0.123046875,
          "durationTicks": 63,
          "midi": 77,
          "name": "F5",
          "ticks": 77568,
          "time": 153.2679098320312,
          "velocity": 0.5433070866141733
        },
        {
          "duration": 0.123046875,
          "durationTicks": 63,
          "midi": 69,
          "name": "A4",
          "ticks": 77696,
          "time": 153.5179098320312,
          "velocity": 0.5590551181102362
        },
        {
          "duration": 0.123046875,
          "durationTicks": 63,
          "midi": 77,
          "name": "F5",
          "ticks": 77696,
          "time": 153.5179098320312,
          "velocity": 0.5590551181102362
        },
        {
          "duration": 0.123046875,
          "durationTicks": 63,
          "midi": 69,
          "name": "A4",
          "ticks": 77824,
          "time": 153.7679098320312,
          "velocity": 0.5590551181102362
        },
        {
          "duration": 0.123046875,
          "durationTicks": 63,
          "midi": 77,
          "name": "F5",
          "ticks": 77824,
          "time": 153.7679098320312,
          "velocity": 0.5590551181102362
        },
        {
          "duration": 0.123046875,
          "durationTicks": 63,
          "midi": 69,
          "name": "A4",
          "ticks": 77952,
          "time": 154.0179098320312,
          "velocity": 0.5354330708661418
        },
        {
          "duration": 0.123046875,
          "durationTicks": 63,
          "midi": 77,
          "name": "F5",
          "ticks": 77952,
          "time": 154.0179098320312,
          "velocity": 0.5354330708661418
        },
        {
          "duration": 0.123046875,
          "durationTicks": 63,
          "midi": 72,
          "name": "C5",
          "ticks": 78080,
          "time": 154.2679098320312,
          "velocity": 0.6535433070866141
        },
        {
          "duration": 0.123046875,
          "durationTicks": 63,
          "midi": 81,
          "name": "A5",
          "ticks": 78080,
          "time": 154.2679098320312,
          "velocity": 0.6535433070866141
        },
        {
          "duration": 0.123046875,
          "durationTicks": 63,
          "midi": 72,
          "name": "C5",
          "ticks": 78208,
          "time": 154.5179098320312,
          "velocity": 0.5511811023622047
        },
        {
          "duration": 0.123046875,
          "durationTicks": 63,
          "midi": 81,
          "name": "A5",
          "ticks": 78208,
          "time": 154.5179098320312,
          "velocity": 0.5511811023622047
        },
        {
          "duration": 0.123046875,
          "durationTicks": 63,
          "midi": 72,
          "name": "C5",
          "ticks": 78336,
          "time": 154.7679098320312,
          "velocity": 0.5118110236220472
        },
        {
          "duration": 0.123046875,
          "durationTicks": 63,
          "midi": 81,
          "name": "A5",
          "ticks": 78336,
          "time": 154.7679098320312,
          "velocity": 0.5118110236220472
        },
        {
          "duration": 0.123046875,
          "durationTicks": 63,
          "midi": 72,
          "name": "C5",
          "ticks": 78464,
          "time": 155.0179098320312,
          "velocity": 0.5275590551181102
        },
        {
          "duration": 0.123046875,
          "durationTicks": 63,
          "midi": 81,
          "name": "A5",
          "ticks": 78464,
          "time": 155.0179098320312,
          "velocity": 0.5275590551181102
        },
        {
          "duration": 0.123046875,
          "durationTicks": 63,
          "midi": 72,
          "name": "C5",
          "ticks": 78592,
          "time": 155.2679098320312,
          "velocity": 0.5433070866141733
        },
        {
          "duration": 0.123046875,
          "durationTicks": 63,
          "midi": 81,
          "name": "A5",
          "ticks": 78592,
          "time": 155.2679098320312,
          "velocity": 0.5433070866141733
        },
        {
          "duration": 0.123046875,
          "durationTicks": 63,
          "midi": 72,
          "name": "C5",
          "ticks": 78720,
          "time": 155.5179098320312,
          "velocity": 0.5511811023622047
        },
        {
          "duration": 0.123046875,
          "durationTicks": 63,
          "midi": 81,
          "name": "A5",
          "ticks": 78720,
          "time": 155.5179098320312,
          "velocity": 0.5511811023622047
        },
        {
          "duration": 0.123046875,
          "durationTicks": 63,
          "midi": 72,
          "name": "C5",
          "ticks": 78848,
          "time": 155.7679098320312,
          "velocity": 0.5354330708661418
        },
        {
          "duration": 0.123046875,
          "durationTicks": 63,
          "midi": 81,
          "name": "A5",
          "ticks": 78848,
          "time": 155.7679098320312,
          "velocity": 0.5354330708661418
        },
        {
          "duration": 0.123046875,
          "durationTicks": 63,
          "midi": 72,
          "name": "C5",
          "ticks": 78976,
          "time": 156.0179098320312,
          "velocity": 0.5905511811023622
        },
        {
          "duration": 0.123046875,
          "durationTicks": 63,
          "midi": 81,
          "name": "A5",
          "ticks": 78976,
          "time": 156.0179098320312,
          "velocity": 0.5905511811023622
        },
        {
          "duration": 0.123046875,
          "durationTicks": 63,
          "midi": 69,
          "name": "A4",
          "ticks": 79104,
          "time": 156.2679098320312,
          "velocity": 0.49606299212598426
        },
        {
          "duration": 0.123046875,
          "durationTicks": 63,
          "midi": 78,
          "name": "F#5",
          "ticks": 79104,
          "time": 156.2679098320312,
          "velocity": 0.49606299212598426
        },
        {
          "duration": 0.123046875,
          "durationTicks": 63,
          "midi": 69,
          "name": "A4",
          "ticks": 79232,
          "time": 156.5179098320312,
          "velocity": 0.5039370078740157
        },
        {
          "duration": 0.123046875,
          "durationTicks": 63,
          "midi": 78,
          "name": "F#5",
          "ticks": 79232,
          "time": 156.5179098320312,
          "velocity": 0.5039370078740157
        },
        {
          "duration": 0.123046875,
          "durationTicks": 63,
          "midi": 69,
          "name": "A4",
          "ticks": 79360,
          "time": 156.7679098320312,
          "velocity": 0.5354330708661418
        },
        {
          "duration": 0.123046875,
          "durationTicks": 63,
          "midi": 78,
          "name": "F#5",
          "ticks": 79360,
          "time": 156.7679098320312,
          "velocity": 0.5354330708661418
        },
        {
          "duration": 0.123046875,
          "durationTicks": 63,
          "midi": 69,
          "name": "A4",
          "ticks": 79488,
          "time": 157.0179098320312,
          "velocity": 0.5590551181102362
        },
        {
          "duration": 0.123046875,
          "durationTicks": 63,
          "midi": 78,
          "name": "F#5",
          "ticks": 79488,
          "time": 157.0179098320312,
          "velocity": 0.5590551181102362
        },
        {
          "duration": 0.123046875,
          "durationTicks": 63,
          "midi": 69,
          "name": "A4",
          "ticks": 79616,
          "time": 157.2679098320312,
          "velocity": 0.5905511811023622
        },
        {
          "duration": 0.123046875,
          "durationTicks": 63,
          "midi": 78,
          "name": "F#5",
          "ticks": 79616,
          "time": 157.2679098320312,
          "velocity": 0.5905511811023622
        },
        {
          "duration": 0.123046875,
          "durationTicks": 63,
          "midi": 69,
          "name": "A4",
          "ticks": 79744,
          "time": 157.5179098320312,
          "velocity": 0.5669291338582677
        },
        {
          "duration": 0.123046875,
          "durationTicks": 63,
          "midi": 78,
          "name": "F#5",
          "ticks": 79744,
          "time": 157.5179098320312,
          "velocity": 0.5669291338582677
        },
        {
          "duration": 0.123046875,
          "durationTicks": 63,
          "midi": 69,
          "name": "A4",
          "ticks": 79872,
          "time": 157.7679098320312,
          "velocity": 0.5196850393700787
        },
        {
          "duration": 0.123046875,
          "durationTicks": 63,
          "midi": 78,
          "name": "F#5",
          "ticks": 79872,
          "time": 157.7679098320312,
          "velocity": 0.5196850393700787
        },
        {
          "duration": 0.123046875,
          "durationTicks": 63,
          "midi": 69,
          "name": "A4",
          "ticks": 80000,
          "time": 158.0179098320312,
          "velocity": 0.5590551181102362
        },
        {
          "duration": 0.123046875,
          "durationTicks": 63,
          "midi": 78,
          "name": "F#5",
          "ticks": 80000,
          "time": 158.0179098320312,
          "velocity": 0.5590551181102362
        },
        {
          "duration": 0.123046875,
          "durationTicks": 63,
          "midi": 71,
          "name": "B4",
          "ticks": 80128,
          "time": 158.2679098320312,
          "velocity": 0.5826771653543307
        },
        {
          "duration": 0.123046875,
          "durationTicks": 63,
          "midi": 79,
          "name": "G5",
          "ticks": 80128,
          "time": 158.2679098320312,
          "velocity": 0.5826771653543307
        },
        {
          "duration": 0.123046875,
          "durationTicks": 63,
          "midi": 71,
          "name": "B4",
          "ticks": 80256,
          "time": 158.5179098320312,
          "velocity": 0.5196850393700787
        },
        {
          "duration": 0.123046875,
          "durationTicks": 63,
          "midi": 79,
          "name": "G5",
          "ticks": 80256,
          "time": 158.5179098320312,
          "velocity": 0.5196850393700787
        },
        {
          "duration": 0.123046875,
          "durationTicks": 63,
          "midi": 71,
          "name": "B4",
          "ticks": 80384,
          "time": 158.7679098320312,
          "velocity": 0.5590551181102362
        },
        {
          "duration": 0.123046875,
          "durationTicks": 63,
          "midi": 79,
          "name": "G5",
          "ticks": 80384,
          "time": 158.7679098320312,
          "velocity": 0.5590551181102362
        },
        {
          "duration": 0.123046875,
          "durationTicks": 63,
          "midi": 71,
          "name": "B4",
          "ticks": 80512,
          "time": 159.0179098320312,
          "velocity": 0.5826771653543307
        },
        {
          "duration": 0.123046875,
          "durationTicks": 63,
          "midi": 79,
          "name": "G5",
          "ticks": 80512,
          "time": 159.0179098320312,
          "velocity": 0.5826771653543307
        },
        {
          "duration": 0.123046875,
          "durationTicks": 63,
          "midi": 71,
          "name": "B4",
          "ticks": 80640,
          "time": 159.2679098320312,
          "velocity": 0.5275590551181102
        },
        {
          "duration": 0.123046875,
          "durationTicks": 63,
          "midi": 79,
          "name": "G5",
          "ticks": 80640,
          "time": 159.2679098320312,
          "velocity": 0.5275590551181102
        },
        {
          "duration": 0.123046875,
          "durationTicks": 63,
          "midi": 71,
          "name": "B4",
          "ticks": 80768,
          "time": 159.5179098320312,
          "velocity": 0.5905511811023622
        },
        {
          "duration": 0.123046875,
          "durationTicks": 63,
          "midi": 79,
          "name": "G5",
          "ticks": 80768,
          "time": 159.5179098320312,
          "velocity": 0.5905511811023622
        },
        {
          "duration": 0.185546875,
          "durationTicks": 95,
          "midi": 67,
          "name": "G4",
          "ticks": 80896,
          "time": 159.7679098320312,
          "velocity": 0.5354330708661418
        },
        {
          "duration": 0.125,
          "durationTicks": 64,
          "midi": 67,
          "name": "G4",
          "ticks": 81088,
          "time": 160.1429098320312,
          "velocity": 0.7165354330708661
        },
        {
          "duration": 1.5,
          "durationTicks": 768,
          "midi": 72,
          "name": "C5",
          "ticks": 81152,
          "time": 160.2679098320312,
          "velocity": 0.84251968503937
        },
        {
          "duration": 0.166015625,
          "durationTicks": 85,
          "midi": 72,
          "name": "C5",
          "ticks": 81920,
          "time": 161.7679098320312,
          "velocity": 0.7952755905511811
        },
        {
          "duration": 0.166015625,
          "durationTicks": 85,
          "midi": 71,
          "name": "B4",
          "ticks": 82005,
          "time": 161.9339254570312,
          "velocity": 0.7086614173228346
        },
        {
          "duration": 0.16796875,
          "durationTicks": 86,
          "midi": 69,
          "name": "A4",
          "ticks": 82090,
          "time": 162.0999410820312,
          "velocity": 0.7165354330708661
        },
        {
          "duration": 1.5,
          "durationTicks": 768,
          "midi": 71,
          "name": "B4",
          "ticks": 82176,
          "time": 162.2679098320312,
          "velocity": 0.7952755905511811
        },
        {
          "duration": 0.185546875,
          "durationTicks": 95,
          "midi": 67,
          "name": "G4",
          "ticks": 82944,
          "time": 163.7679098320312,
          "velocity": 0.6692913385826772
        },
        {
          "duration": 0.125,
          "durationTicks": 64,
          "midi": 67,
          "name": "G4",
          "ticks": 83136,
          "time": 164.1429098320312,
          "velocity": 0.7480314960629921
        },
        {
          "duration": 1.5,
          "durationTicks": 768,
          "midi": 69,
          "name": "A4",
          "ticks": 83200,
          "time": 164.2679098320312,
          "velocity": 0.8346456692913385
        },
        {
          "duration": 0.166015625,
          "durationTicks": 85,
          "midi": 69,
          "name": "A4",
          "ticks": 83968,
          "time": 165.7679098320312,
          "velocity": 0.7874015748031497
        },
        {
          "duration": 0.166015625,
          "durationTicks": 85,
          "midi": 67,
          "name": "G4",
          "ticks": 84053,
          "time": 165.9339254570312,
          "velocity": 0.6850393700787402
        },
        {
          "duration": 0.16796875,
          "durationTicks": 86,
          "midi": 65,
          "name": "F4",
          "ticks": 84138,
          "time": 166.0999410820312,
          "velocity": 0.7086614173228346
        },
        {
          "duration": 1.5,
          "durationTicks": 768,
          "midi": 67,
          "name": "G4",
          "ticks": 84224,
          "time": 166.2679098320312,
          "velocity": 0.8031496062992126
        },
        {
          "duration": 0.5,
          "durationTicks": 256,
          "midi": 60,
          "name": "C4",
          "ticks": 84992,
          "time": 167.7679098320312,
          "velocity": 0.6456692913385826
        },
        {
          "duration": 1.5,
          "durationTicks": 768,
          "midi": 65,
          "name": "F4",
          "ticks": 85248,
          "time": 168.2679098320312,
          "velocity": 0.8188976377952756
        },
        {
          "duration": 0.166015625,
          "durationTicks": 85,
          "midi": 65,
          "name": "F4",
          "ticks": 86016,
          "time": 169.7679098320312,
          "velocity": 0.7874015748031497
        },
        {
          "duration": 0.166015625,
          "durationTicks": 85,
          "midi": 64,
          "name": "E4",
          "ticks": 86101,
          "time": 169.9339254570312,
          "velocity": 0.7007874015748031
        },
        {
          "duration": 0.16796875,
          "durationTicks": 86,
          "midi": 62,
          "name": "D4",
          "ticks": 86186,
          "time": 170.0999410820312,
          "velocity": 0.6929133858267716
        },
        {
          "duration": 1.5,
          "durationTicks": 768,
          "midi": 64,
          "name": "E4",
          "ticks": 86272,
          "time": 170.2679098320312,
          "velocity": 0.7874015748031497
        },
        {
          "duration": 0.185546875,
          "durationTicks": 95,
          "midi": 69,
          "name": "A4",
          "ticks": 87040,
          "time": 171.7679098320312,
          "velocity": 0.8818897637795275
        },
        {
          "duration": 0.125,
          "durationTicks": 64,
          "midi": 71,
          "name": "B4",
          "ticks": 87232,
          "time": 172.1429098320312,
          "velocity": 0.8031496062992126
        },
        {
          "duration": 1.5,
          "durationTicks": 768,
          "midi": 72,
          "name": "C5",
          "ticks": 87296,
          "time": 172.2679098320312,
          "velocity": 0.8267716535433071
        },
        {
          "duration": 0.185546875,
          "durationTicks": 95,
          "midi": 68,
          "name": "G#4",
          "ticks": 88064,
          "time": 173.7679098320312,
          "velocity": 0.6929133858267716
        },
        {
          "duration": 0.125,
          "durationTicks": 64,
          "midi": 70,
          "name": "A#4",
          "ticks": 88256,
          "time": 174.1429098320312,
          "velocity": 0.8346456692913385
        },
        {
          "duration": 1.5,
          "durationTicks": 768,
          "midi": 72,
          "name": "C5",
          "ticks": 88320,
          "time": 174.2679098320312,
          "velocity": 0.84251968503937
        },
        {
          "duration": 0.185546875,
          "durationTicks": 95,
          "midi": 68,
          "name": "G#4",
          "ticks": 89088,
          "time": 175.7679098320312,
          "velocity": 0.7086614173228346
        },
        {
          "duration": 0.125,
          "durationTicks": 64,
          "midi": 70,
          "name": "A#4",
          "ticks": 89280,
          "time": 176.1429098320312,
          "velocity": 0.7716535433070866
        },
        {
          "duration": 1.5,
          "durationTicks": 768,
          "midi": 72,
          "name": "C5",
          "ticks": 89344,
          "time": 176.2679098320312,
          "velocity": 0.8110236220472441
        },
        {
          "duration": 0.23009345703124495,
          "durationTicks": 85,
          "midi": 72,
          "name": "C5",
          "ticks": 90112,
          "time": 177.7679098320312,
          "velocity": 0.7637795275590551
        },
        {
          "duration": 0.23503583984376064,
          "durationTicks": 85,
          "midi": 72,
          "name": "C5",
          "ticks": 90197,
          "time": 177.99800328906244,
          "velocity": 0.8031496062992126
        },
        {
          "duration": 0.24379778124998097,
          "durationTicks": 86,
          "midi": 72,
          "name": "C5",
          "ticks": 90282,
          "time": 178.2330391289062,
          "velocity": 0.7716535433070866
        },
        {
          "duration": 2.4880438906250504,
          "durationTicks": 768,
          "midi": 72,
          "name": "C5",
          "ticks": 90368,
          "time": 178.47683691015618,
          "velocity": 0.7716535433070866
        },
        {
          "duration": 2.857139999999987,
          "durationTicks": 768,
          "midi": 74,
          "name": "D5",
          "ticks": 91136,
          "time": 180.96488080078123,
          "velocity": 0.8188976377952756
        },
        {
          "duration": 0.185546875,
          "durationTicks": 95,
          "midi": 67,
          "name": "G4",
          "ticks": 92160,
          "time": 184.77263369140624,
          "velocity": 0.6692913385826772
        },
        {
          "duration": 0.125,
          "durationTicks": 64,
          "midi": 67,
          "name": "G4",
          "ticks": 92352,
          "time": 185.14763369140624,
          "velocity": 0.7795275590551181
        },
        {
          "duration": 0.5,
          "durationTicks": 256,
          "midi": 72,
          "name": "C5",
          "ticks": 92416,
          "time": 185.27263369140624,
          "velocity": 0.8582677165354331
        },
        {
          "duration": 0.185546875,
          "durationTicks": 95,
          "midi": 67,
          "name": "G4",
          "ticks": 92672,
          "time": 185.77263369140624,
          "velocity": 0.7086614173228346
        },
        {
          "duration": 0.125,
          "durationTicks": 64,
          "midi": 72,
          "name": "C5",
          "ticks": 92864,
          "time": 186.14763369140624,
          "velocity": 0.8582677165354331
        },
        {
          "duration": 0.5,
          "durationTicks": 256,
          "midi": 74,
          "name": "D5",
          "ticks": 92928,
          "time": 186.27263369140624,
          "velocity": 0.8267716535433071
        },
        {
          "duration": 0.185546875,
          "durationTicks": 95,
          "midi": 67,
          "name": "G4",
          "ticks": 93184,
          "time": 186.77263369140624,
          "velocity": 0.6535433070866141
        },
        {
          "duration": 0.125,
          "durationTicks": 64,
          "midi": 74,
          "name": "D5",
          "ticks": 93376,
          "time": 187.14763369140624,
          "velocity": 0.8976377952755905
        },
        {
          "duration": 0.75,
          "durationTicks": 384,
          "midi": 77,
          "name": "F5",
          "ticks": 93440,
          "time": 187.27263369140624,
          "velocity": 0.8110236220472441
        },
        {
          "duration": 0.125,
          "durationTicks": 64,
          "midi": 76,
          "name": "E5",
          "ticks": 93824,
          "time": 188.02263369140624,
          "velocity": 0.7244094488188977
        },
        {
          "duration": 0.125,
          "durationTicks": 64,
          "midi": 74,
          "name": "D5",
          "ticks": 93888,
          "time": 188.14763369140624,
          "velocity": 0.6850393700787402
        },
        {
          "duration": 0.5,
          "durationTicks": 256,
          "midi": 72,
          "name": "C5",
          "ticks": 93952,
          "time": 188.27263369140624,
          "velocity": 0.7165354330708661
        },
        {
          "duration": 0.5,
          "durationTicks": 256,
          "midi": 67,
          "name": "G4",
          "ticks": 94208,
          "time": 188.77263369140624,
          "velocity": 0.6535433070866141
        },
        {
          "duration": 0.5,
          "durationTicks": 256,
          "midi": 69,
          "name": "A4",
          "ticks": 94464,
          "time": 189.27263369140624,
          "velocity": 0.7480314960629921
        },
        {
          "duration": 0.5,
          "durationTicks": 256,
          "midi": 72,
          "name": "C5",
          "ticks": 94720,
          "time": 189.77263369140624,
          "velocity": 0.8188976377952756
        },
        {
          "duration": 0.5,
          "durationTicks": 256,
          "midi": 74,
          "name": "D5",
          "ticks": 94976,
          "time": 190.27263369140624,
          "velocity": 0.84251968503937
        },
        {
          "duration": 0.5,
          "durationTicks": 256,
          "midi": 72,
          "name": "C5",
          "ticks": 95232,
          "time": 190.77263369140624,
          "velocity": 0.7401574803149606
        },
        {
          "duration": 0.75,
          "durationTicks": 384,
          "midi": 72,
          "name": "C5",
          "ticks": 95488,
          "time": 191.27263369140624,
          "velocity": 0.7716535433070866
        },
        {
          "duration": 0.125,
          "durationTicks": 64,
          "midi": 71,
          "name": "B4",
          "ticks": 95872,
          "time": 192.02263369140624,
          "velocity": 0.7165354330708661
        },
        {
          "duration": 0.125,
          "durationTicks": 64,
          "midi": 69,
          "name": "A4",
          "ticks": 95936,
          "time": 192.14763369140624,
          "velocity": 0.7637795275590551
        },
        {
          "duration": 0.5,
          "durationTicks": 256,
          "midi": 67,
          "name": "G4",
          "ticks": 96000,
          "time": 192.27263369140624,
          "velocity": 0.6850393700787402
        },
        {
          "duration": 0.185546875,
          "durationTicks": 95,
          "midi": 67,
          "name": "G4",
          "ticks": 96256,
          "time": 192.77263369140624,
          "velocity": 0.7716535433070866
        },
        {
          "duration": 0.125,
          "durationTicks": 64,
          "midi": 67,
          "name": "G4",
          "ticks": 96448,
          "time": 193.14763369140624,
          "velocity": 0.7716535433070866
        },
        {
          "duration": 0.5,
          "durationTicks": 256,
          "midi": 72,
          "name": "C5",
          "ticks": 96512,
          "time": 193.27263369140624,
          "velocity": 0.8503937007874016
        },
        {
          "duration": 0.185546875,
          "durationTicks": 95,
          "midi": 67,
          "name": "G4",
          "ticks": 96768,
          "time": 193.77263369140624,
          "velocity": 0.6850393700787402
        },
        {
          "duration": 0.125,
          "durationTicks": 64,
          "midi": 72,
          "name": "C5",
          "ticks": 96960,
          "time": 194.14763369140624,
          "velocity": 0.8818897637795275
        },
        {
          "duration": 0.5,
          "durationTicks": 256,
          "midi": 74,
          "name": "D5",
          "ticks": 97024,
          "time": 194.27263369140624,
          "velocity": 0.8267716535433071
        },
        {
          "duration": 0.185546875,
          "durationTicks": 95,
          "midi": 67,
          "name": "G4",
          "ticks": 97280,
          "time": 194.77263369140624,
          "velocity": 0.6377952755905512
        },
        {
          "duration": 0.125,
          "durationTicks": 64,
          "midi": 74,
          "name": "D5",
          "ticks": 97472,
          "time": 195.14763369140624,
          "velocity": 0.8582677165354331
        },
        {
          "duration": 0.75,
          "durationTicks": 384,
          "midi": 77,
          "name": "F5",
          "ticks": 97536,
          "time": 195.27263369140624,
          "velocity": 0.84251968503937
        },
        {
          "duration": 0.125,
          "durationTicks": 64,
          "midi": 76,
          "name": "E5",
          "ticks": 97920,
          "time": 196.02263369140624,
          "velocity": 0.7559055118110236
        },
        {
          "duration": 0.125,
          "durationTicks": 64,
          "midi": 77,
          "name": "F5",
          "ticks": 97984,
          "time": 196.14763369140624,
          "velocity": 0.8110236220472441
        },
        {
          "duration": 0.5,
          "durationTicks": 256,
          "midi": 79,
          "name": "G5",
          "ticks": 98048,
          "time": 196.27263369140624,
          "velocity": 0.8503937007874016
        },
        {
          "duration": 0.375,
          "durationTicks": 192,
          "midi": 72,
          "name": "C5",
          "ticks": 98304,
          "time": 196.77263369140624,
          "velocity": 0.6220472440944882
        },
        {
          "duration": 0.125,
          "durationTicks": 64,
          "midi": 71,
          "name": "B4",
          "ticks": 98496,
          "time": 197.14763369140624,
          "velocity": 0.6614173228346457
        },
        {
          "duration": 0.5,
          "durationTicks": 256,
          "midi": 69,
          "name": "A4",
          "ticks": 98560,
          "time": 197.27263369140624,
          "velocity": 0.7401574803149606
        },
        {
          "duration": 0.5,
          "durationTicks": 256,
          "midi": 77,
          "name": "F5",
          "ticks": 98816,
          "time": 197.77263369140624,
          "velocity": 0.8740157480314961
        },
        {
          "duration": 0.5,
          "durationTicks": 256,
          "midi": 74,
          "name": "D5",
          "ticks": 99072,
          "time": 198.27263369140624,
          "velocity": 0.7244094488188977
        },
        {
          "duration": 0.166015625,
          "durationTicks": 85,
          "midi": 74,
          "name": "D5",
          "ticks": 99328,
          "time": 198.77263369140624,
          "velocity": 0.7480314960629921
        },
        {
          "duration": 0.166015625,
          "durationTicks": 85,
          "midi": 72,
          "name": "C5",
          "ticks": 99413,
          "time": 198.93864931640624,
          "velocity": 0.7322834645669292
        },
        {
          "duration": 0.16796875,
          "durationTicks": 86,
          "midi": 71,
          "name": "B4",
          "ticks": 99498,
          "time": 199.10466494140624,
          "velocity": 0.6929133858267716
        },
        {
          "duration": 1.5001775546874967,
          "durationTicks": 768,
          "midi": 72,
          "name": "C5",
          "ticks": 99584,
          "time": 199.27263369140624,
          "velocity": 0.7874015748031497
        },
        {
          "duration": 0.20241457031249865,
          "durationTicks": 95,
          "midi": 72,
          "name": "C5",
          "ticks": 100352,
          "time": 200.77281124609374,
          "velocity": 0.8582677165354331
        },
        {
          "duration": 0.13636350000001585,
          "durationTicks": 64,
          "midi": 72,
          "name": "C5",
          "ticks": 100544,
          "time": 201.18190174609373,
          "velocity": 0.8818897637795275
        },
        {
          "duration": 0.5454540000000065,
          "durationTicks": 256,
          "midi": 77,
          "name": "F5",
          "ticks": 100608,
          "time": 201.31826524609374,
          "velocity": 0.9921259842519685
        },
        {
          "duration": 0.20241457031249865,
          "durationTicks": 95,
          "midi": 72,
          "name": "C5",
          "ticks": 100864,
          "time": 201.86371924609375,
          "velocity": 0.8031496062992126
        },
        {
          "duration": 0.13636349999998743,
          "durationTicks": 64,
          "midi": 77,
          "name": "F5",
          "ticks": 101056,
          "time": 202.27280974609374,
          "velocity": 0.9448818897637795
        },
        {
          "duration": 0.5454540000000065,
          "durationTicks": 256,
          "midi": 79,
          "name": "G5",
          "ticks": 101120,
          "time": 202.40917324609373,
          "velocity": 0.984251968503937
        },
        {
          "duration": 0.20241457031249865,
          "durationTicks": 95,
          "midi": 72,
          "name": "C5",
          "ticks": 101376,
          "time": 202.95462724609374,
          "velocity": 0.7559055118110236
        },
        {
          "duration": 0.13636349999998743,
          "durationTicks": 64,
          "midi": 79,
          "name": "G5",
          "ticks": 101568,
          "time": 203.36371774609376,
          "velocity": 0.9921259842519685
        },
        {
          "duration": 0.8181810000000098,
          "durationTicks": 384,
          "midi": 82,
          "name": "A#5",
          "ticks": 101632,
          "time": 203.50008124609374,
          "velocity": 0.9921259842519685
        },
        {
          "duration": 0.13636349999998743,
          "durationTicks": 64,
          "midi": 81,
          "name": "A5",
          "ticks": 102016,
          "time": 204.31826224609375,
          "velocity": 0.8976377952755905
        },
        {
          "duration": 0.13636349999998743,
          "durationTicks": 64,
          "midi": 79,
          "name": "G5",
          "ticks": 102080,
          "time": 204.45462574609374,
          "velocity": 0.8188976377952756
        },
        {
          "duration": 0.5454540000000065,
          "durationTicks": 256,
          "midi": 77,
          "name": "F5",
          "ticks": 102144,
          "time": 204.59098924609373,
          "velocity": 0.8110236220472441
        },
        {
          "duration": 0.5454540000000065,
          "durationTicks": 256,
          "midi": 72,
          "name": "C5",
          "ticks": 102400,
          "time": 205.13644324609373,
          "velocity": 0.7716535433070866
        },
        {
          "duration": 0.5454540000000065,
          "durationTicks": 256,
          "midi": 74,
          "name": "D5",
          "ticks": 102656,
          "time": 205.68189724609374,
          "velocity": 0.9291338582677166
        },
        {
          "duration": 0.5454540000000065,
          "durationTicks": 256,
          "midi": 77,
          "name": "F5",
          "ticks": 102912,
          "time": 206.22735124609375,
          "velocity": 0.952755905511811
        },
        {
          "duration": 0.5454539999999781,
          "durationTicks": 256,
          "midi": 79,
          "name": "G5",
          "ticks": 103168,
          "time": 206.77280524609375,
          "velocity": 0.937007874015748
        },
        {
          "duration": 0.5454540000000065,
          "durationTicks": 256,
          "midi": 77,
          "name": "F5",
          "ticks": 103424,
          "time": 207.31825924609373,
          "velocity": 0.8503937007874016
        },
        {
          "duration": 0.8181810000000098,
          "durationTicks": 384,
          "midi": 77,
          "name": "F5",
          "ticks": 103680,
          "time": 207.86371324609374,
          "velocity": 0.8818897637795275
        },
        {
          "duration": 0.13636349999998743,
          "durationTicks": 64,
          "midi": 76,
          "name": "E5",
          "ticks": 104064,
          "time": 208.68189424609375,
          "velocity": 0.8582677165354331
        },
        {
          "duration": 0.13636350000001585,
          "durationTicks": 64,
          "midi": 74,
          "name": "D5",
          "ticks": 104128,
          "time": 208.81825774609374,
          "velocity": 0.8031496062992126
        },
        {
          "duration": 0.5454539999999781,
          "durationTicks": 256,
          "midi": 72,
          "name": "C5",
          "ticks": 104192,
          "time": 208.95462124609375,
          "velocity": 0.8267716535433071
        },
        {
          "duration": 0.20241457031249865,
          "durationTicks": 95,
          "midi": 72,
          "name": "C5",
          "ticks": 104448,
          "time": 209.50007524609373,
          "velocity": 0.8818897637795275
        },
        {
          "duration": 0.13636349999998743,
          "durationTicks": 64,
          "midi": 72,
          "name": "C5",
          "ticks": 104640,
          "time": 209.90916574609375,
          "velocity": 0.9133858267716536
        },
        {
          "duration": 0.5454540000000065,
          "durationTicks": 256,
          "midi": 77,
          "name": "F5",
          "ticks": 104704,
          "time": 210.04552924609374,
          "velocity": 0.9921259842519685
        },
        {
          "duration": 0.20241457031249865,
          "durationTicks": 95,
          "midi": 72,
          "name": "C5",
          "ticks": 104960,
          "time": 210.59098324609374,
          "velocity": 0.7874015748031497
        },
        {
          "duration": 0.13636350000001585,
          "durationTicks": 64,
          "midi": 77,
          "name": "F5",
          "ticks": 105152,
          "time": 211.00007374609373,
          "velocity": 0.984251968503937
        },
        {
          "duration": 0.4794029296874953,
          "durationTicks": 225,
          "midi": 79,
          "name": "G5",
          "ticks": 105216,
          "time": 211.13643724609375,
          "velocity": 1
        },
        {
          "duration": 0.35795418749998476,
          "durationTicks": 168,
          "midi": 72,
          "name": "C5",
          "ticks": 105472,
          "time": 211.68189124609376,
          "velocity": 0.8346456692913385
        },
        {
          "duration": 0.13636349999998743,
          "durationTicks": 64,
          "midi": 79,
          "name": "G5",
          "ticks": 105664,
          "time": 212.09098174609375,
          "velocity": 0.9921259842519685
        },
        {
          "duration": 0.8181810000000098,
          "durationTicks": 384,
          "midi": 82,
          "name": "A#5",
          "ticks": 105728,
          "time": 212.22734524609373,
          "velocity": 0.9921259842519685
        },
        {
          "duration": 0.13636349999998743,
          "durationTicks": 64,
          "midi": 81,
          "name": "A5",
          "ticks": 106112,
          "time": 213.04552624609374,
          "velocity": 0.8582677165354331
        },
        {
          "duration": 0.13636350000001585,
          "durationTicks": 64,
          "midi": 82,
          "name": "A#5",
          "ticks": 106176,
          "time": 213.18188974609373,
          "velocity": 0.9448818897637795
        },
        {
          "duration": 0.5454540000000065,
          "durationTicks": 256,
          "midi": 84,
          "name": "C6",
          "ticks": 106240,
          "time": 213.31825324609375,
          "velocity": 0.8976377952755905
        },
        {
          "duration": 0.4090904999999907,
          "durationTicks": 192,
          "midi": 77,
          "name": "F5",
          "ticks": 106496,
          "time": 213.86370724609375,
          "velocity": 0.7637795275590551
        },
        {
          "duration": 0.13636349999998743,
          "durationTicks": 64,
          "midi": 76,
          "name": "E5",
          "ticks": 106688,
          "time": 214.27279774609374,
          "velocity": 0.8188976377952756
        },
        {
          "duration": 0.5454540000000065,
          "durationTicks": 256,
          "midi": 74,
          "name": "D5",
          "ticks": 106752,
          "time": 214.40916124609373,
          "velocity": 0.8346456692913385
        },
        {
          "duration": 1.090908000000013,
          "durationTicks": 512,
          "midi": 82,
          "name": "A#5",
          "ticks": 107008,
          "time": 214.95461524609374,
          "velocity": 0.9921259842519685
        },
        {
          "duration": 0.4090904999999907,
          "durationTicks": 192,
          "midi": 74,
          "name": "D5",
          "ticks": 107520,
          "time": 216.04552324609375,
          "velocity": 0.7086614173228346
        },
        {
          "duration": 0.13636349999998743,
          "durationTicks": 64,
          "midi": 74,
          "name": "D5",
          "ticks": 107712,
          "time": 216.45461374609374,
          "velocity": 0.8582677165354331
        },
        {
          "duration": 0.5454540000000065,
          "durationTicks": 256,
          "midi": 76,
          "name": "E5",
          "ticks": 107776,
          "time": 216.59097724609373,
          "velocity": 0.9448818897637795
        },
        {
          "duration": 1.090908000000013,
          "durationTicks": 512,
          "midi": 84,
          "name": "C6",
          "ticks": 108032,
          "time": 217.13643124609374,
          "velocity": 0.9921259842519685
        },
        {
          "duration": 0.5454539999999781,
          "durationTicks": 256,
          "midi": 76,
          "name": "E5",
          "ticks": 108544,
          "time": 218.22733924609375,
          "velocity": 0.7322834645669292
        },
        {
          "duration": 1.6363620000000196,
          "durationTicks": 768,
          "midi": 77,
          "name": "F5",
          "ticks": 108800,
          "time": 218.77279324609373,
          "velocity": 0.9133858267716536
        },
        {
          "duration": 2.1818159999999978,
          "durationTicks": 1024,
          "midi": 77,
          "name": "F5",
          "ticks": 109568,
          "time": 220.40915524609375,
          "velocity": 0.889763779527559
        },
        {
          "duration": 3.272724000000011,
          "durationTicks": 1536,
          "midi": 77,
          "name": "F5",
          "ticks": 110592,
          "time": 222.59097124609374,
          "velocity": 0.905511811023622
        },
        {
          "duration": 0.20241457031249865,
          "durationTicks": 95,
          "midi": 65,
          "name": "F4",
          "ticks": 112128,
          "time": 225.86369524609376,
          "velocity": 0.6220472440944882
        },
        {
          "duration": 0.13636349999998743,
          "durationTicks": 64,
          "midi": 65,
          "name": "F4",
          "ticks": 112320,
          "time": 226.27278574609375,
          "velocity": 0.8346456692913385
        },
        {
          "duration": 1.6363620000000196,
          "durationTicks": 768,
          "midi": 65,
          "name": "F4",
          "ticks": 112384,
          "time": 226.40914924609373,
          "velocity": 0.8818897637795275
        }
      ]
    },
    {
      "channel": 0,
      "controlChanges": {
        "7": [
          {
            "number": 7,
            "ticks": 0,
            "time": 0,
            "value": 0.7480314960629921
          }
        ],
        "10": [
          {
            "number": 10,
            "ticks": 0,
            "time": 0,
            "value": 0.8740157480314961
          }
        ],
        "91": [
          {
            "number": 91,
            "ticks": 0,
            "time": 0,
            "value": 0.47244094488188976
          }
        ],
        "121": [
          {
            "number": 121,
            "ticks": 0,
            "time": 0,
            "value": 0
          }
        ]
      },
      "pitchBends": [],
      "instrument": {
        "family": "strings",
        "number": 0,
        "name": "violin"
      },
      "name": "Violin II",
      "notes": [],
      "endOfTrackTicks": 113153
    },
    {
      "channel": 1,
      "controlChanges": {},
      "pitchBends": [],
      "instrument": {
        "family": "ensemble",
        "number": 48,
        "name": "string ensemble 1"
      },
      "name": "",
      "notes": [
        {
          "duration": 0.185546875,
          "durationTicks": 95,
          "midi": 67,
          "name": "G4",
          "ticks": 0,
          "time": 0,
          "velocity": 0.6377952755905512
        },
        {
          "duration": 0.125,
          "durationTicks": 64,
          "midi": 67,
          "name": "G4",
          "ticks": 192,
          "time": 0.375,
          "velocity": 0.7322834645669292
        },
        {
          "duration": 0.5,
          "durationTicks": 256,
          "midi": 72,
          "name": "C5",
          "ticks": 256,
          "time": 0.5,
          "velocity": 0.84251968503937
        },
        {
          "duration": 0.185546875,
          "durationTicks": 95,
          "midi": 67,
          "name": "G4",
          "ticks": 512,
          "time": 1,
          "velocity": 0.6850393700787402
        },
        {
          "duration": 0.125,
          "durationTicks": 64,
          "midi": 72,
          "name": "C5",
          "ticks": 704,
          "time": 1.375,
          "velocity": 0.84251968503937
        },
        {
          "duration": 0.5,
          "durationTicks": 256,
          "midi": 74,
          "name": "D5",
          "ticks": 768,
          "time": 1.5,
          "velocity": 0.8110236220472441
        },
        {
          "duration": 0.185546875,
          "durationTicks": 95,
          "midi": 67,
          "name": "G4",
          "ticks": 1024,
          "time": 2,
          "velocity": 0.6614173228346457
        },
        {
          "duration": 0.125,
          "durationTicks": 64,
          "midi": 74,
          "name": "D5",
          "ticks": 1216,
          "time": 2.375,
          "velocity": 0.8818897637795275
        },
        {
          "duration": 0.75,
          "durationTicks": 384,
          "midi": 77,
          "name": "F5",
          "ticks": 1280,
          "time": 2.5,
          "velocity": 0.8661417322834646
        },
        {
          "duration": 0.125,
          "durationTicks": 64,
          "midi": 76,
          "name": "E5",
          "ticks": 1664,
          "time": 3.25,
          "velocity": 0.7007874015748031
        },
        {
          "duration": 0.125,
          "durationTicks": 64,
          "midi": 74,
          "name": "D5",
          "ticks": 1728,
          "time": 3.375,
          "velocity": 0.6929133858267716
        },
        {
          "duration": 0.5,
          "durationTicks": 256,
          "midi": 72,
          "name": "C5",
          "ticks": 1792,
          "time": 3.5,
          "velocity": 0.7165354330708661
        },
        {
          "duration": 0.5,
          "durationTicks": 256,
          "midi": 67,
          "name": "G4",
          "ticks": 2048,
          "time": 4,
          "velocity": 0.6456692913385826
        },
        {
          "duration": 0.5,
          "durationTicks": 256,
          "midi": 69,
          "name": "A4",
          "ticks": 2304,
          "time": 4.5,
          "velocity": 0.7716535433070866
        },
        {
          "duration": 0.5,
          "durationTicks": 256,
          "midi": 72,
          "name": "C5",
          "ticks": 2560,
          "time": 5,
          "velocity": 0.8346456692913385
        },
        {
          "duration": 0.5,
          "durationTicks": 256,
          "midi": 74,
          "name": "D5",
          "ticks": 2816,
          "time": 5.5,
          "velocity": 0.84251968503937
        },
        {
          "duration": 0.5,
          "durationTicks": 256,
          "midi": 72,
          "name": "C5",
          "ticks": 3072,
          "time": 6,
          "velocity": 0.7244094488188977
        },
        {
          "duration": 0.75,
          "durationTicks": 384,
          "midi": 72,
          "name": "C5",
          "ticks": 3328,
          "time": 6.5,
          "velocity": 0.7322834645669292
        },
        {
          "duration": 0.125,
          "durationTicks": 64,
          "midi": 71,
          "name": "B4",
          "ticks": 3712,
          "time": 7.25,
          "velocity": 0.7086614173228346
        },
        {
          "duration": 0.125,
          "durationTicks": 64,
          "midi": 69,
          "name": "A4",
          "ticks": 3776,
          "time": 7.375,
          "velocity": 0.7165354330708661
        },
        {
          "duration": 0.5,
          "durationTicks": 256,
          "midi": 67,
          "name": "G4",
          "ticks": 3840,
          "time": 7.5,
          "velocity": 0.7401574803149606
        },
        {
          "duration": 0.185546875,
          "durationTicks": 95,
          "midi": 67,
          "name": "G4",
          "ticks": 4096,
          "time": 8,
          "velocity": 0.7874015748031497
        },
        {
          "duration": 0.125,
          "durationTicks": 64,
          "midi": 67,
          "name": "G4",
          "ticks": 4288,
          "time": 8.375,
          "velocity": 0.7716535433070866
        },
        {
          "duration": 0.5,
          "durationTicks": 256,
          "midi": 72,
          "name": "C5",
          "ticks": 4352,
          "time": 8.5,
          "velocity": 0.8582677165354331
        },
        {
          "duration": 0.185546875,
          "durationTicks": 95,
          "midi": 67,
          "name": "G4",
          "ticks": 4608,
          "time": 9,
          "velocity": 0.6614173228346457
        },
        {
          "duration": 0.125,
          "durationTicks": 64,
          "midi": 72,
          "name": "C5",
          "ticks": 4800,
          "time": 9.375,
          "velocity": 0.8818897637795275
        },
        {
          "duration": 0.5,
          "durationTicks": 256,
          "midi": 74,
          "name": "D5",
          "ticks": 4864,
          "time": 9.5,
          "velocity": 0.8188976377952756
        },
        {
          "duration": 0.185546875,
          "durationTicks": 95,
          "midi": 67,
          "name": "G4",
          "ticks": 5120,
          "time": 10,
          "velocity": 0.6535433070866141
        },
        {
          "duration": 0.125,
          "durationTicks": 64,
          "midi": 74,
          "name": "D5",
          "ticks": 5312,
          "time": 10.375,
          "velocity": 0.8740157480314961
        },
        {
          "duration": 0.75,
          "durationTicks": 384,
          "midi": 77,
          "name": "F5",
          "ticks": 5376,
          "time": 10.5,
          "velocity": 0.8740157480314961
        },
        {
          "duration": 0.125,
          "durationTicks": 64,
          "midi": 76,
          "name": "E5",
          "ticks": 5760,
          "time": 11.25,
          "velocity": 0.7559055118110236
        },
        {
          "duration": 0.125,
          "durationTicks": 64,
          "midi": 77,
          "name": "F5",
          "ticks": 5824,
          "time": 11.375,
          "velocity": 0.8110236220472441
        },
        {
          "duration": 0.5,
          "durationTicks": 256,
          "midi": 79,
          "name": "G5",
          "ticks": 5888,
          "time": 11.5,
          "velocity": 0.8503937007874016
        },
        {
          "duration": 0.375,
          "durationTicks": 192,
          "midi": 72,
          "name": "C5",
          "ticks": 6144,
          "time": 12,
          "velocity": 0.6299212598425197
        },
        {
          "duration": 0.125,
          "durationTicks": 64,
          "midi": 71,
          "name": "B4",
          "ticks": 6336,
          "time": 12.375,
          "velocity": 0.7480314960629921
        },
        {
          "duration": 0.5,
          "durationTicks": 256,
          "midi": 69,
          "name": "A4",
          "ticks": 6400,
          "time": 12.5,
          "velocity": 0.7086614173228346
        },
        {
          "duration": 1,
          "durationTicks": 512,
          "midi": 77,
          "name": "F5",
          "ticks": 6656,
          "time": 13,
          "velocity": 0.8818897637795275
        },
        {
          "duration": 0.375,
          "durationTicks": 192,
          "midi": 69,
          "name": "A4",
          "ticks": 7168,
          "time": 14,
          "velocity": 0.6535433070866141
        },
        {
          "duration": 0.125,
          "durationTicks": 64,
          "midi": 69,
          "name": "A4",
          "ticks": 7360,
          "time": 14.375,
          "velocity": 0.7874015748031497
        },
        {
          "duration": 0.5,
          "durationTicks": 256,
          "midi": 71,
          "name": "B4",
          "ticks": 7424,
          "time": 14.5,
          "velocity": 0.7874015748031497
        },
        {
          "duration": 1.75,
          "durationTicks": 896,
          "midi": 79,
          "name": "G5",
          "ticks": 7680,
          "time": 15,
          "velocity": 0.905511811023622
        },
        {
          "duration": 6,
          "durationTicks": 3072,
          "midi": 60,
          "name": "C4",
          "ticks": 9216,
          "time": 18,
          "velocity": 0.4251968503937008
        },
        {
          "duration": 0.166015625,
          "durationTicks": 85,
          "midi": 60,
          "name": "C4",
          "ticks": 12288,
          "time": 24,
          "velocity": 0.6456692913385826
        },
        {
          "duration": 0.166015625,
          "durationTicks": 85,
          "midi": 60,
          "name": "C4",
          "ticks": 12373,
          "time": 24.166015625,
          "velocity": 0.6535433070866141
        },
        {
          "duration": 0.16796875,
          "durationTicks": 86,
          "midi": 60,
          "name": "C4",
          "ticks": 12458,
          "time": 24.33203125,
          "velocity": 0.6614173228346457
        },
        {
          "duration": 1.5,
          "durationTicks": 768,
          "midi": 60,
          "name": "C4",
          "ticks": 12544,
          "time": 24.5,
          "velocity": 0.6692913385826772
        },
        {
          "duration": 0.125,
          "durationTicks": 64,
          "midi": 60,
          "name": "C4",
          "ticks": 13312,
          "time": 26,
          "velocity": 0.6377952755905512
        },
        {
          "duration": 0.125,
          "durationTicks": 64,
          "midi": 60,
          "name": "C4",
          "ticks": 13376,
          "time": 26.125,
          "velocity": 0.6377952755905512
        },
        {
          "duration": 0.125,
          "durationTicks": 64,
          "midi": 60,
          "name": "C4",
          "ticks": 13440,
          "time": 26.25,
          "velocity": 0.6614173228346457
        },
        {
          "duration": 0.125,
          "durationTicks": 64,
          "midi": 60,
          "name": "C4",
          "ticks": 13504,
          "time": 26.375,
          "velocity": 0.6456692913385826
        },
        {
          "duration": 1.5,
          "durationTicks": 768,
          "midi": 60,
          "name": "C4",
          "ticks": 13568,
          "time": 26.5,
          "velocity": 0.6535433070866141
        },
        {
          "duration": 0.125,
          "durationTicks": 64,
          "midi": 60,
          "name": "C4",
          "ticks": 14336,
          "time": 28,
          "velocity": 0.6220472440944882
        },
        {
          "duration": 0.125,
          "durationTicks": 64,
          "midi": 60,
          "name": "C4",
          "ticks": 14400,
          "time": 28.125,
          "velocity": 0.6692913385826772
        },
        {
          "duration": 0.125,
          "durationTicks": 64,
          "midi": 60,
          "name": "C4",
          "ticks": 14464,
          "time": 28.25,
          "velocity": 0.6535433070866141
        },
        {
          "duration": 0.125,
          "durationTicks": 64,
          "midi": 60,
          "name": "C4",
          "ticks": 14528,
          "time": 28.375,
          "velocity": 0.6535433070866141
        },
        {
          "duration": 1.5,
          "durationTicks": 768,
          "midi": 60,
          "name": "C4",
          "ticks": 14592,
          "time": 28.5,
          "velocity": 0.6929133858267716
        },
        {
          "duration": 0.125,
          "durationTicks": 64,
          "midi": 60,
          "name": "C4",
          "ticks": 15360,
          "time": 30,
          "velocity": 0.6692913385826772
        },
        {
          "duration": 0.125,
          "durationTicks": 64,
          "midi": 60,
          "name": "C4",
          "ticks": 15424,
          "time": 30.125,
          "velocity": 0.6614173228346457
        },
        {
          "duration": 0.125,
          "durationTicks": 64,
          "midi": 60,
          "name": "C4",
          "ticks": 15488,
          "time": 30.25,
          "velocity": 0.7007874015748031
        },
        {
          "duration": 0.125,
          "durationTicks": 64,
          "midi": 60,
          "name": "C4",
          "ticks": 15552,
          "time": 30.375,
          "velocity": 0.6377952755905512
        },
        {
          "duration": 1.5,
          "durationTicks": 768,
          "midi": 60,
          "name": "C4",
          "ticks": 15616,
          "time": 30.5,
          "velocity": 0.6692913385826772
        },
        {
          "duration": 0.185546875,
          "durationTicks": 95,
          "midi": 67,
          "name": "G4",
          "ticks": 16384,
          "time": 32,
          "velocity": 0.7401574803149606
        },
        {
          "duration": 0.125,
          "durationTicks": 64,
          "midi": 67,
          "name": "G4",
          "ticks": 16576,
          "time": 32.375,
          "velocity": 0.6850393700787402
        },
        {
          "duration": 1.5,
          "durationTicks": 768,
          "midi": 72,
          "name": "C5",
          "ticks": 16640,
          "time": 32.5,
          "velocity": 0.7007874015748031
        },
        {
          "duration": 0.166015625,
          "durationTicks": 85,
          "midi": 72,
          "name": "C5",
          "ticks": 17408,
          "time": 34,
          "velocity": 0.6850393700787402
        },
        {
          "duration": 0.166015625,
          "durationTicks": 85,
          "midi": 71,
          "name": "B4",
          "ticks": 17493,
          "time": 34.166015625,
          "velocity": 0.5984251968503937
        },
        {
          "duration": 0.16796875,
          "durationTicks": 86,
          "midi": 69,
          "name": "A4",
          "ticks": 17578,
          "time": 34.33203125,
          "velocity": 0.5905511811023622
        },
        {
          "duration": 1.5,
          "durationTicks": 768,
          "midi": 71,
          "name": "B4",
          "ticks": 17664,
          "time": 34.5,
          "velocity": 0.6692913385826772
        },
        {
          "duration": 0.185546875,
          "durationTicks": 95,
          "midi": 67,
          "name": "G4",
          "ticks": 18432,
          "time": 36,
          "velocity": 0.5984251968503937
        },
        {
          "duration": 0.125,
          "durationTicks": 64,
          "midi": 67,
          "name": "G4",
          "ticks": 18624,
          "time": 36.375,
          "velocity": 0.6299212598425197
        },
        {
          "duration": 1.5,
          "durationTicks": 768,
          "midi": 69,
          "name": "A4",
          "ticks": 18688,
          "time": 36.5,
          "velocity": 0.7322834645669292
        },
        {
          "duration": 0.166015625,
          "durationTicks": 85,
          "midi": 69,
          "name": "A4",
          "ticks": 19456,
          "time": 38,
          "velocity": 0.6850393700787402
        },
        {
          "duration": 0.166015625,
          "durationTicks": 85,
          "midi": 67,
          "name": "G4",
          "ticks": 19541,
          "time": 38.166015625,
          "velocity": 0.6062992125984252
        },
        {
          "duration": 0.16796875,
          "durationTicks": 86,
          "midi": 65,
          "name": "F4",
          "ticks": 19626,
          "time": 38.33203125,
          "velocity": 0.6456692913385826
        },
        {
          "duration": 1.5,
          "durationTicks": 768,
          "midi": 67,
          "name": "G4",
          "ticks": 19712,
          "time": 38.5,
          "velocity": 0.7086614173228346
        },
        {
          "duration": 0.5,
          "durationTicks": 256,
          "midi": 60,
          "name": "C4",
          "ticks": 20480,
          "time": 40,
          "velocity": 0.5275590551181102
        },
        {
          "duration": 1.5,
          "durationTicks": 768,
          "midi": 65,
          "name": "F4",
          "ticks": 20736,
          "time": 40.5,
          "velocity": 0.7244094488188977
        },
        {
          "duration": 0.166015625,
          "durationTicks": 85,
          "midi": 65,
          "name": "F4",
          "ticks": 21504,
          "time": 42,
          "velocity": 0.6692913385826772
        },
        {
          "duration": 0.166015625,
          "durationTicks": 85,
          "midi": 64,
          "name": "E4",
          "ticks": 21589,
          "time": 42.166015625,
          "velocity": 0.6535433070866141
        },
        {
          "duration": 0.16796875,
          "durationTicks": 86,
          "midi": 62,
          "name": "D4",
          "ticks": 21674,
          "time": 42.33203125,
          "velocity": 0.6220472440944882
        },
        {
          "duration": 1.5,
          "durationTicks": 768,
          "midi": 64,
          "name": "E4",
          "ticks": 21760,
          "time": 42.5,
          "velocity": 0.6614173228346457
        },
        {
          "duration": 0.5,
          "durationTicks": 256,
          "midi": 60,
          "name": "C4",
          "ticks": 22528,
          "time": 44,
          "velocity": 0.5669291338582677
        },
        {
          "duration": 1.5,
          "durationTicks": 768,
          "midi": 62,
          "name": "D4",
          "ticks": 22784,
          "time": 44.5,
          "velocity": 0.6614173228346457
        },
        {
          "duration": 0.5,
          "durationTicks": 256,
          "midi": 60,
          "name": "C4",
          "ticks": 23552,
          "time": 46,
          "velocity": 0.6377952755905512
        },
        {
          "duration": 1.5,
          "durationTicks": 768,
          "midi": 59,
          "name": "B3",
          "ticks": 23808,
          "time": 46.5,
          "velocity": 0.6771653543307087
        },
        {
          "duration": 0.185546875,
          "durationTicks": 95,
          "midi": 67,
          "name": "G4",
          "ticks": 24576,
          "time": 48,
          "velocity": 0.9133858267716536
        },
        {
          "duration": 0.125,
          "durationTicks": 64,
          "midi": 67,
          "name": "G4",
          "ticks": 24768,
          "time": 48.375,
          "velocity": 0.7952755905511811
        },
        {
          "duration": 1.5,
          "durationTicks": 768,
          "midi": 72,
          "name": "C5",
          "ticks": 24832,
          "time": 48.5,
          "velocity": 0.8503937007874016
        },
        {
          "duration": 0.166015625,
          "durationTicks": 85,
          "midi": 72,
          "name": "C5",
          "ticks": 25600,
          "time": 50,
          "velocity": 0.8031496062992126
        },
        {
          "duration": 0.166015625,
          "durationTicks": 85,
          "midi": 71,
          "name": "B4",
          "ticks": 25685,
          "time": 50.166015625,
          "velocity": 0.7165354330708661
        },
        {
          "duration": 0.16796875,
          "durationTicks": 86,
          "midi": 69,
          "name": "A4",
          "ticks": 25770,
          "time": 50.33203125,
          "velocity": 0.7007874015748031
        },
        {
          "duration": 1.5,
          "durationTicks": 768,
          "midi": 71,
          "name": "B4",
          "ticks": 25856,
          "time": 50.5,
          "velocity": 0.8031496062992126
        },
        {
          "duration": 0.185546875,
          "durationTicks": 95,
          "midi": 67,
          "name": "G4",
          "ticks": 26624,
          "time": 52,
          "velocity": 0.6850393700787402
        },
        {
          "duration": 0.125,
          "durationTicks": 64,
          "midi": 67,
          "name": "G4",
          "ticks": 26816,
          "time": 52.375,
          "velocity": 0.7322834645669292
        },
        {
          "duration": 1.5,
          "durationTicks": 768,
          "midi": 69,
          "name": "A4",
          "ticks": 26880,
          "time": 52.5,
          "velocity": 0.7952755905511811
        },
        {
          "duration": 0.166015625,
          "durationTicks": 85,
          "midi": 69,
          "name": "A4",
          "ticks": 27648,
          "time": 54,
          "velocity": 0.7559055118110236
        },
        {
          "duration": 0.166015625,
          "durationTicks": 85,
          "midi": 67,
          "name": "G4",
          "ticks": 27733,
          "time": 54.166015625,
          "velocity": 0.7401574803149606
        },
        {
          "duration": 0.16796875,
          "durationTicks": 86,
          "midi": 65,
          "name": "F4",
          "ticks": 27818,
          "time": 54.33203125,
          "velocity": 0.7086614173228346
        },
        {
          "duration": 1.5,
          "durationTicks": 768,
          "midi": 67,
          "name": "G4",
          "ticks": 27904,
          "time": 54.5,
          "velocity": 0.8031496062992126
        },
        {
          "duration": 0.5,
          "durationTicks": 256,
          "midi": 60,
          "name": "C4",
          "ticks": 28672,
          "time": 56,
          "velocity": 0.6535433070866141
        },
        {
          "duration": 1.5,
          "durationTicks": 768,
          "midi": 65,
          "name": "F4",
          "ticks": 28928,
          "time": 56.5,
          "velocity": 0.84251968503937
        },
        {
          "duration": 0.166015625,
          "durationTicks": 85,
          "midi": 65,
          "name": "F4",
          "ticks": 29696,
          "time": 58,
          "velocity": 0.7637795275590551
        },
        {
          "duration": 0.166015625,
          "durationTicks": 85,
          "midi": 64,
          "name": "E4",
          "ticks": 29781,
          "time": 58.166015625,
          "velocity": 0.7244094488188977
        },
        {
          "duration": 0.16796875,
          "durationTicks": 86,
          "midi": 62,
          "name": "D4",
          "ticks": 29866,
          "time": 58.33203125,
          "velocity": 0.7165354330708661
        },
        {
          "duration": 1.5,
          "durationTicks": 768,
          "midi": 64,
          "name": "E4",
          "ticks": 29952,
          "time": 58.5,
          "velocity": 0.8188976377952756
        },
        {
          "duration": 0.185546875,
          "durationTicks": 95,
          "midi": 69,
          "name": "A4",
          "ticks": 30720,
          "time": 60,
          "velocity": 0.8740157480314961
        },
        {
          "duration": 0.125,
          "durationTicks": 64,
          "midi": 71,
          "name": "B4",
          "ticks": 30912,
          "time": 60.375,
          "velocity": 0.8267716535433071
        },
        {
          "duration": 1.5,
          "durationTicks": 768,
          "midi": 72,
          "name": "C5",
          "ticks": 30976,
          "time": 60.5,
          "velocity": 0.8346456692913385
        },
        {
          "duration": 0.185546875,
          "durationTicks": 95,
          "midi": 68,
          "name": "G#4",
          "ticks": 31744,
          "time": 62,
          "velocity": 0.6614173228346457
        },
        {
          "duration": 0.125,
          "durationTicks": 64,
          "midi": 70,
          "name": "A#4",
          "ticks": 31936,
          "time": 62.375,
          "velocity": 0.7874015748031497
        },
        {
          "duration": 1.5,
          "durationTicks": 768,
          "midi": 72,
          "name": "C5",
          "ticks": 32000,
          "time": 62.5,
          "velocity": 0.8346456692913385
        },
        {
          "duration": 0.185546875,
          "durationTicks": 95,
          "midi": 68,
          "name": "G#4",
          "ticks": 32768,
          "time": 64,
          "velocity": 0.7086614173228346
        },
        {
          "duration": 0.125,
          "durationTicks": 64,
          "midi": 70,
          "name": "A#4",
          "ticks": 32960,
          "time": 64.375,
          "velocity": 0.8031496062992126
        },
        {
          "duration": 1.5,
          "durationTicks": 768,
          "midi": 72,
          "name": "C5",
          "ticks": 33024,
          "time": 64.5,
          "velocity": 0.8031496062992126
        },
        {
          "duration": 0.1668152343749938,
          "durationTicks": 85,
          "midi": 72,
          "name": "C5",
          "ticks": 33792,
          "time": 66,
          "velocity": 0.8031496062992126
        },
        {
          "duration": 0.17038683593750648,
          "durationTicks": 85,
          "midi": 72,
          "name": "C5",
          "ticks": 33877,
          "time": 66.166815234375,
          "velocity": 0.8031496062992126
        },
        {
          "duration": 0.17672439843748577,
          "durationTicks": 86,
          "midi": 72,
          "name": "C5",
          "ticks": 33962,
          "time": 66.3372020703125,
          "velocity": 0.7952755905511811
        },
        {
          "duration": 1.8026555468750018,
          "durationTicks": 768,
          "midi": 72,
          "name": "C5",
          "ticks": 34048,
          "time": 66.51392646874999,
          "velocity": 0.7480314960629921
        },
        {
          "duration": 2.0689650000000057,
          "durationTicks": 768,
          "midi": 74,
          "name": "D5",
          "ticks": 34816,
          "time": 68.31658201562499,
          "velocity": 0.8031496062992126
        },
        {
          "duration": 0.185546875,
          "durationTicks": 95,
          "midi": 64,
          "name": "E4",
          "ticks": 35840,
          "time": 71.07520201562498,
          "velocity": 0.6929133858267716
        },
        {
          "duration": 0.125,
          "durationTicks": 64,
          "midi": 64,
          "name": "E4",
          "ticks": 36032,
          "time": 71.45020201562498,
          "velocity": 0.7795275590551181
        },
        {
          "duration": 0.5,
          "durationTicks": 256,
          "midi": 69,
          "name": "A4",
          "ticks": 36096,
          "time": 71.57520201562498,
          "velocity": 0.8818897637795275
        },
        {
          "duration": 0.185546875,
          "durationTicks": 95,
          "midi": 64,
          "name": "E4",
          "ticks": 36352,
          "time": 72.07520201562498,
          "velocity": 0.6929133858267716
        },
        {
          "duration": 0.125,
          "durationTicks": 64,
          "midi": 69,
          "name": "A4",
          "ticks": 36544,
          "time": 72.45020201562498,
          "velocity": 0.8661417322834646
        },
        {
          "duration": 0.5,
          "durationTicks": 256,
          "midi": 71,
          "name": "B4",
          "ticks": 36608,
          "time": 72.57520201562498,
          "velocity": 0.8188976377952756
        },
        {
          "duration": 0.185546875,
          "durationTicks": 95,
          "midi": 64,
          "name": "E4",
          "ticks": 36864,
          "time": 73.07520201562498,
          "velocity": 0.6377952755905512
        },
        {
          "duration": 0.125,
          "durationTicks": 64,
          "midi": 71,
          "name": "B4",
          "ticks": 37056,
          "time": 73.45020201562498,
          "velocity": 0.889763779527559
        },
        {
          "duration": 0.75,
          "durationTicks": 384,
          "midi": 74,
          "name": "D5",
          "ticks": 37120,
          "time": 73.57520201562498,
          "velocity": 0.8976377952755905
        },
        {
          "duration": 0.125,
          "durationTicks": 64,
          "midi": 72,
          "name": "C5",
          "ticks": 37504,
          "time": 74.32520201562498,
          "velocity": 0.7244094488188977
        },
        {
          "duration": 0.125,
          "durationTicks": 64,
          "midi": 71,
          "name": "B4",
          "ticks": 37568,
          "time": 74.45020201562498,
          "velocity": 0.7401574803149606
        },
        {
          "duration": 0.5,
          "durationTicks": 256,
          "midi": 69,
          "name": "A4",
          "ticks": 37632,
          "time": 74.57520201562498,
          "velocity": 0.6850393700787402
        },
        {
          "duration": 0.5,
          "durationTicks": 256,
          "midi": 64,
          "name": "E4",
          "ticks": 37888,
          "time": 75.07520201562498,
          "velocity": 0.6614173228346457
        },
        {
          "duration": 0.5,
          "durationTicks": 256,
          "midi": 64,
          "name": "E4",
          "ticks": 38144,
          "time": 75.57520201562498,
          "velocity": 0.7637795275590551
        },
        {
          "duration": 0.5,
          "durationTicks": 256,
          "midi": 65,
          "name": "F4",
          "ticks": 38400,
          "time": 76.07520201562498,
          "velocity": 0.7952755905511811
        },
        {
          "duration": 0.5,
          "durationTicks": 256,
          "midi": 66,
          "name": "F#4",
          "ticks": 38656,
          "time": 76.57520201562498,
          "velocity": 0.7952755905511811
        },
        {
          "duration": 0.5,
          "durationTicks": 256,
          "midi": 66,
          "name": "F#4",
          "ticks": 38912,
          "time": 77.07520201562498,
          "velocity": 0.7401574803149606
        },
        {
          "duration": 0.75,
          "durationTicks": 384,
          "midi": 65,
          "name": "F4",
          "ticks": 39168,
          "time": 77.57520201562498,
          "velocity": 0.7244094488188977
        },
        {
          "duration": 0.125,
          "durationTicks": 64,
          "midi": 62,
          "name": "D4",
          "ticks": 39552,
          "time": 78.32520201562498,
          "velocity": 0.6850393700787402
        },
        {
          "duration": 0.125,
          "durationTicks": 64,
          "midi": 60,
          "name": "C4",
          "ticks": 39616,
          "time": 78.45020201562498,
          "velocity": 0.6850393700787402
        },
        {
          "duration": 0.5,
          "durationTicks": 256,
          "midi": 59,
          "name": "B3",
          "ticks": 39680,
          "time": 78.57520201562498,
          "velocity": 0.7244094488188977
        },
        {
          "duration": 0.185546875,
          "durationTicks": 95,
          "midi": 64,
          "name": "E4",
          "ticks": 39936,
          "time": 79.07520201562498,
          "velocity": 0.8818897637795275
        },
        {
          "duration": 0.125,
          "durationTicks": 64,
          "midi": 64,
          "name": "E4",
          "ticks": 40128,
          "time": 79.45020201562498,
          "velocity": 0.7480314960629921
        },
        {
          "duration": 0.685546875,
          "durationTicks": 351,
          "midi": 69,
          "name": "A4",
          "ticks": 40192,
          "time": 79.57520201562498,
          "velocity": 0.8661417322834646
        },
        {
          "duration": 0.125,
          "durationTicks": 64,
          "midi": 72,
          "name": "C5",
          "ticks": 40640,
          "time": 80.45020201562498,
          "velocity": 0.8188976377952756
        },
        {
          "duration": 0.5,
          "durationTicks": 256,
          "midi": 74,
          "name": "D5",
          "ticks": 40704,
          "time": 80.57520201562498,
          "velocity": 0.8661417322834646
        },
        {
          "duration": 0.185546875,
          "durationTicks": 95,
          "midi": 64,
          "name": "E4",
          "ticks": 40960,
          "time": 81.07520201562498,
          "velocity": 0.5984251968503937
        },
        {
          "duration": 0.125,
          "durationTicks": 64,
          "midi": 71,
          "name": "B4",
          "ticks": 41152,
          "time": 81.45020201562498,
          "velocity": 0.8582677165354331
        },
        {
          "duration": 0.75,
          "durationTicks": 384,
          "midi": 74,
          "name": "D5",
          "ticks": 41216,
          "time": 81.57520201562498,
          "velocity": 0.8503937007874016
        },
        {
          "duration": 0.125,
          "durationTicks": 64,
          "midi": 72,
          "name": "C5",
          "ticks": 41600,
          "time": 82.32520201562498,
          "velocity": 0.7165354330708661
        },
        {
          "duration": 0.125,
          "durationTicks": 64,
          "midi": 74,
          "name": "D5",
          "ticks": 41664,
          "time": 82.45020201562498,
          "velocity": 0.8110236220472441
        },
        {
          "duration": 0.5,
          "durationTicks": 256,
          "midi": 76,
          "name": "E5",
          "ticks": 41728,
          "time": 82.57520201562498,
          "velocity": 0.8188976377952756
        },
        {
          "duration": 0.375,
          "durationTicks": 192,
          "midi": 72,
          "name": "C5",
          "ticks": 41984,
          "time": 83.07520201562498,
          "velocity": 0.6692913385826772
        },
        {
          "duration": 0.125,
          "durationTicks": 64,
          "midi": 67,
          "name": "G4",
          "ticks": 42176,
          "time": 83.45020201562498,
          "velocity": 0.6377952755905512
        },
        {
          "duration": 0.5,
          "durationTicks": 256,
          "midi": 65,
          "name": "F4",
          "ticks": 42240,
          "time": 83.57520201562498,
          "velocity": 0.7086614173228346
        },
        {
          "duration": 0.5,
          "durationTicks": 256,
          "midi": 77,
          "name": "F5",
          "ticks": 42496,
          "time": 84.07520201562498,
          "velocity": 0.952755905511811
        },
        {
          "duration": 0.5,
          "durationTicks": 256,
          "midi": 74,
          "name": "D5",
          "ticks": 42752,
          "time": 84.57520201562498,
          "velocity": 0.7559055118110236
        },
        {
          "duration": 0.166015625,
          "durationTicks": 85,
          "midi": 74,
          "name": "D5",
          "ticks": 43008,
          "time": 85.07520201562498,
          "velocity": 0.7637795275590551
        },
        {
          "duration": 0.166015625,
          "durationTicks": 85,
          "midi": 72,
          "name": "C5",
          "ticks": 43093,
          "time": 85.24121764062498,
          "velocity": 0.7007874015748031
        },
        {
          "duration": 0.16796875,
          "durationTicks": 86,
          "midi": 71,
          "name": "B4",
          "ticks": 43178,
          "time": 85.40723326562498,
          "velocity": 0.6929133858267716
        },
        {
          "duration": 1.5,
          "durationTicks": 768,
          "midi": 72,
          "name": "C5",
          "ticks": 43264,
          "time": 85.57520201562498,
          "velocity": 0.8110236220472441
        },
        {
          "duration": 0.185546875,
          "durationTicks": 95,
          "midi": 72,
          "name": "C5",
          "ticks": 44032,
          "time": 87.07520201562498,
          "velocity": 0.8110236220472441
        },
        {
          "duration": 0.125,
          "durationTicks": 64,
          "midi": 71,
          "name": "B4",
          "ticks": 44224,
          "time": 87.45020201562498,
          "velocity": 0.7165354330708661
        },
        {
          "duration": 1.5,
          "durationTicks": 768,
          "midi": 69,
          "name": "A4",
          "ticks": 44288,
          "time": 87.57520201562498,
          "velocity": 0.7165354330708661
        },
        {
          "duration": 0.185546875,
          "durationTicks": 95,
          "midi": 71,
          "name": "B4",
          "ticks": 45056,
          "time": 89.07520201562498,
          "velocity": 0.7874015748031497
        },
        {
          "duration": 0.125,
          "durationTicks": 64,
          "midi": 72,
          "name": "C5",
          "ticks": 45248,
          "time": 89.45020201562498,
          "velocity": 0.8110236220472441
        },
        {
          "duration": 1.5,
          "durationTicks": 768,
          "midi": 67,
          "name": "G4",
          "ticks": 45312,
          "time": 89.57520201562498,
          "velocity": 0.7165354330708661
        },
        {
          "duration": 0.185546875,
          "durationTicks": 95,
          "midi": 67,
          "name": "G4",
          "ticks": 46080,
          "time": 91.07520201562498,
          "velocity": 0.7401574803149606
        },
        {
          "duration": 0.125,
          "durationTicks": 64,
          "midi": 67,
          "name": "G4",
          "ticks": 46272,
          "time": 91.45020201562498,
          "velocity": 0.7795275590551181
        },
        {
          "duration": 1.5,
          "durationTicks": 768,
          "midi": 65,
          "name": "F4",
          "ticks": 46336,
          "time": 91.57520201562498,
          "velocity": 0.7244094488188977
        },
        {
          "duration": 0.185546875,
          "durationTicks": 95,
          "midi": 67,
          "name": "G4",
          "ticks": 47104,
          "time": 93.07520201562498,
          "velocity": 0.8188976377952756
        },
        {
          "duration": 0.125,
          "durationTicks": 64,
          "midi": 69,
          "name": "A4",
          "ticks": 47296,
          "time": 93.45020201562498,
          "velocity": 0.8267716535433071
        },
        {
          "duration": 1.5,
          "durationTicks": 768,
          "midi": 64,
          "name": "E4",
          "ticks": 47360,
          "time": 93.57520201562498,
          "velocity": 0.6614173228346457
        },
        {
          "duration": 0.185546875,
          "durationTicks": 95,
          "midi": 72,
          "name": "C5",
          "ticks": 48128,
          "time": 95.07520201562498,
          "velocity": 0.905511811023622
        },
        {
          "duration": 0.125,
          "durationTicks": 64,
          "midi": 71,
          "name": "B4",
          "ticks": 48320,
          "time": 95.45020201562498,
          "velocity": 0.7559055118110236
        },
        {
          "duration": 1.5,
          "durationTicks": 768,
          "midi": 69,
          "name": "A4",
          "ticks": 48384,
          "time": 95.57520201562498,
          "velocity": 0.7244094488188977
        },
        {
          "duration": 0.185546875,
          "durationTicks": 95,
          "midi": 71,
          "name": "B4",
          "ticks": 49152,
          "time": 97.07520201562498,
          "velocity": 0.7795275590551181
        },
        {
          "duration": 0.125,
          "durationTicks": 64,
          "midi": 72,
          "name": "C5",
          "ticks": 49344,
          "time": 97.45020201562498,
          "velocity": 0.8188976377952756
        },
        {
          "duration": 1.5,
          "durationTicks": 768,
          "midi": 67,
          "name": "G4",
          "ticks": 49408,
          "time": 97.57520201562498,
          "velocity": 0.6771653543307087
        },
        {
          "duration": 0.5,
          "durationTicks": 256,
          "midi": 72,
          "name": "C5",
          "ticks": 50176,
          "time": 99.07520201562498,
          "velocity": 0.8740157480314961
        },
        {
          "duration": 1.013926468749986,
          "durationTicks": 512,
          "midi": 74,
          "name": "D5",
          "ticks": 50432,
          "time": 99.57520201562498,
          "velocity": 0.84251968503937
        },
        {
          "duration": 0.5515752187500169,
          "durationTicks": 256,
          "midi": 72,
          "name": "C5",
          "ticks": 50944,
          "time": 100.58912848437497,
          "velocity": 0.7480314960629921
        },
        {
          "duration": 0.1918511874999922,
          "durationTicks": 85,
          "midi": 72,
          "name": "C5",
          "ticks": 51200,
          "time": 101.14070370312498,
          "velocity": 0.7637795275590551
        },
        {
          "duration": 0.19877583593749648,
          "durationTicks": 85,
          "midi": 71,
          "name": "B4",
          "ticks": 51285,
          "time": 101.33255489062498,
          "velocity": 0.7086614173228346
        },
        {
          "duration": 0.2064303203125064,
          "durationTicks": 86,
          "midi": 72,
          "name": "C5",
          "ticks": 51370,
          "time": 101.53133072656247,
          "velocity": 0.7952755905511811
        },
        {
          "duration": 2.0301487851562285,
          "durationTicks": 768,
          "midi": 74,
          "name": "D5",
          "ticks": 51456,
          "time": 101.73776104687498,
          "velocity": 0.84251968503937
        },
        {
          "duration": 0.185546875,
          "durationTicks": 95,
          "midi": 64,
          "name": "E4",
          "ticks": 52224,
          "time": 103.76790983203121,
          "velocity": 0.5905511811023622
        },
        {
          "duration": 0.125,
          "durationTicks": 64,
          "midi": 64,
          "name": "E4",
          "ticks": 52416,
          "time": 104.14290983203121,
          "velocity": 0.7086614173228346
        },
        {
          "duration": 0.5,
          "durationTicks": 256,
          "midi": 69,
          "name": "A4",
          "ticks": 52480,
          "time": 104.26790983203121,
          "velocity": 0.8661417322834646
        },
        {
          "duration": 0.185546875,
          "durationTicks": 95,
          "midi": 64,
          "name": "E4",
          "ticks": 52736,
          "time": 104.76790983203121,
          "velocity": 0.6377952755905512
        },
        {
          "duration": 0.125,
          "durationTicks": 64,
          "midi": 69,
          "name": "A4",
          "ticks": 52928,
          "time": 105.14290983203121,
          "velocity": 0.8582677165354331
        },
        {
          "duration": 0.5,
          "durationTicks": 256,
          "midi": 71,
          "name": "B4",
          "ticks": 52992,
          "time": 105.26790983203121,
          "velocity": 0.84251968503937
        },
        {
          "duration": 0.185546875,
          "durationTicks": 95,
          "midi": 64,
          "name": "E4",
          "ticks": 53248,
          "time": 105.76790983203121,
          "velocity": 0.6377952755905512
        },
        {
          "duration": 0.125,
          "durationTicks": 64,
          "midi": 71,
          "name": "B4",
          "ticks": 53440,
          "time": 106.14290983203121,
          "velocity": 0.8661417322834646
        },
        {
          "duration": 0.75,
          "durationTicks": 384,
          "midi": 74,
          "name": "D5",
          "ticks": 53504,
          "time": 106.26790983203121,
          "velocity": 0.8346456692913385
        },
        {
          "duration": 0.125,
          "durationTicks": 64,
          "midi": 72,
          "name": "C5",
          "ticks": 53888,
          "time": 107.01790983203121,
          "velocity": 0.7007874015748031
        },
        {
          "duration": 0.125,
          "durationTicks": 64,
          "midi": 71,
          "name": "B4",
          "ticks": 53952,
          "time": 107.14290983203121,
          "velocity": 0.7401574803149606
        },
        {
          "duration": 0.5,
          "durationTicks": 256,
          "midi": 69,
          "name": "A4",
          "ticks": 54016,
          "time": 107.26790983203121,
          "velocity": 0.6614173228346457
        },
        {
          "duration": 0.5,
          "durationTicks": 256,
          "midi": 64,
          "name": "E4",
          "ticks": 54272,
          "time": 107.76790983203121,
          "velocity": 0.6692913385826772
        },
        {
          "duration": 0.5,
          "durationTicks": 256,
          "midi": 64,
          "name": "E4",
          "ticks": 54528,
          "time": 108.26790983203121,
          "velocity": 0.7480314960629921
        },
        {
          "duration": 0.5,
          "durationTicks": 256,
          "midi": 65,
          "name": "F4",
          "ticks": 54784,
          "time": 108.76790983203121,
          "velocity": 0.8346456692913385
        },
        {
          "duration": 0.5,
          "durationTicks": 256,
          "midi": 66,
          "name": "F#4",
          "ticks": 55040,
          "time": 109.26790983203121,
          "velocity": 0.8188976377952756
        },
        {
          "duration": 0.5,
          "durationTicks": 256,
          "midi": 66,
          "name": "F#4",
          "ticks": 55296,
          "time": 109.76790983203121,
          "velocity": 0.7401574803149606
        },
        {
          "duration": 0.75,
          "durationTicks": 384,
          "midi": 65,
          "name": "F4",
          "ticks": 55552,
          "time": 110.26790983203121,
          "velocity": 0.7401574803149606
        },
        {
          "duration": 0.125,
          "durationTicks": 64,
          "midi": 64,
          "name": "E4",
          "ticks": 55936,
          "time": 111.01790983203121,
          "velocity": 0.7559055118110236
        },
        {
          "duration": 0.125,
          "durationTicks": 64,
          "midi": 62,
          "name": "D4",
          "ticks": 56000,
          "time": 111.14290983203121,
          "velocity": 0.7165354330708661
        },
        {
          "duration": 0.5,
          "durationTicks": 256,
          "midi": 64,
          "name": "E4",
          "ticks": 56064,
          "time": 111.26790983203121,
          "velocity": 0.8267716535433071
        },
        {
          "duration": 0.185546875,
          "durationTicks": 95,
          "midi": 64,
          "name": "E4",
          "ticks": 56320,
          "time": 111.76790983203121,
          "velocity": 0.8031496062992126
        },
        {
          "duration": 0.125,
          "durationTicks": 64,
          "midi": 64,
          "name": "E4",
          "ticks": 56512,
          "time": 112.14290983203121,
          "velocity": 0.7559055118110236
        },
        {
          "duration": 0.685546875,
          "durationTicks": 351,
          "midi": 69,
          "name": "A4",
          "ticks": 56576,
          "time": 112.26790983203121,
          "velocity": 0.8661417322834646
        },
        {
          "duration": 0.125,
          "durationTicks": 64,
          "midi": 72,
          "name": "C5",
          "ticks": 57024,
          "time": 113.14290983203121,
          "velocity": 0.8110236220472441
        },
        {
          "duration": 0.439453125,
          "durationTicks": 225,
          "midi": 74,
          "name": "D5",
          "ticks": 57088,
          "time": 113.26790983203121,
          "velocity": 0.9133858267716536
        },
        {
          "duration": 0.185546875,
          "durationTicks": 95,
          "midi": 64,
          "name": "E4",
          "ticks": 57344,
          "time": 113.76790983203121,
          "velocity": 0.5748031496062992
        },
        {
          "duration": 0.125,
          "durationTicks": 64,
          "midi": 71,
          "name": "B4",
          "ticks": 57536,
          "time": 114.14290983203121,
          "velocity": 0.9291338582677166
        },
        {
          "duration": 0.75,
          "durationTicks": 384,
          "midi": 74,
          "name": "D5",
          "ticks": 57600,
          "time": 114.26790983203121,
          "velocity": 0.8503937007874016
        },
        {
          "duration": 0.125,
          "durationTicks": 64,
          "midi": 72,
          "name": "C5",
          "ticks": 57984,
          "time": 115.01790983203121,
          "velocity": 0.6929133858267716
        },
        {
          "duration": 0.125,
          "durationTicks": 64,
          "midi": 74,
          "name": "D5",
          "ticks": 58048,
          "time": 115.14290983203121,
          "velocity": 0.8267716535433071
        },
        {
          "duration": 0.5,
          "durationTicks": 256,
          "midi": 76,
          "name": "E5",
          "ticks": 58112,
          "time": 115.26790983203121,
          "velocity": 0.8267716535433071
        },
        {
          "duration": 0.375,
          "durationTicks": 192,
          "midi": 72,
          "name": "C5",
          "ticks": 58368,
          "time": 115.76790983203121,
          "velocity": 0.7007874015748031
        },
        {
          "duration": 0.125,
          "durationTicks": 64,
          "midi": 67,
          "name": "G4",
          "ticks": 58560,
          "time": 116.14290983203121,
          "velocity": 0.6929133858267716
        },
        {
          "duration": 0.5,
          "durationTicks": 256,
          "midi": 65,
          "name": "F4",
          "ticks": 58624,
          "time": 116.26790983203121,
          "velocity": 0.7007874015748031
        },
        {
          "duration": 0.5,
          "durationTicks": 256,
          "midi": 77,
          "name": "F5",
          "ticks": 58880,
          "time": 116.76790983203121,
          "velocity": 0.9763779527559056
        },
        {
          "duration": 0.5,
          "durationTicks": 256,
          "midi": 74,
          "name": "D5",
          "ticks": 59136,
          "time": 117.26790983203121,
          "velocity": 0.7244094488188977
        },
        {
          "duration": 0.166015625,
          "durationTicks": 85,
          "midi": 74,
          "name": "D5",
          "ticks": 59392,
          "time": 117.76790983203121,
          "velocity": 0.7480314960629921
        },
        {
          "duration": 0.166015625,
          "durationTicks": 85,
          "midi": 72,
          "name": "C5",
          "ticks": 59477,
          "time": 117.93392545703121,
          "velocity": 0.6771653543307087
        },
        {
          "duration": 0.16796875,
          "durationTicks": 86,
          "midi": 71,
          "name": "B4",
          "ticks": 59562,
          "time": 118.09994108203121,
          "velocity": 0.7637795275590551
        },
        {
          "duration": 1.5,
          "durationTicks": 768,
          "midi": 72,
          "name": "C5",
          "ticks": 59648,
          "time": 118.26790983203121,
          "velocity": 0.7795275590551181
        },
        {
          "duration": 0.123046875,
          "durationTicks": 63,
          "midi": 76,
          "name": "E5",
          "ticks": 60672,
          "time": 120.26790983203121,
          "velocity": 0.6062992125984252
        },
        {
          "duration": 0.123046875,
          "durationTicks": 63,
          "midi": 76,
          "name": "E5",
          "ticks": 60800,
          "time": 120.51790983203121,
          "velocity": 0.6456692913385826
        },
        {
          "duration": 0.123046875,
          "durationTicks": 63,
          "midi": 76,
          "name": "E5",
          "ticks": 60928,
          "time": 120.76790983203121,
          "velocity": 0.6535433070866141
        },
        {
          "duration": 0.123046875,
          "durationTicks": 63,
          "midi": 76,
          "name": "E5",
          "ticks": 61056,
          "time": 121.01790983203121,
          "velocity": 0.6377952755905512
        },
        {
          "duration": 0.123046875,
          "durationTicks": 63,
          "midi": 76,
          "name": "E5",
          "ticks": 61184,
          "time": 121.26790983203121,
          "velocity": 0.6377952755905512
        },
        {
          "duration": 0.123046875,
          "durationTicks": 63,
          "midi": 76,
          "name": "E5",
          "ticks": 61312,
          "time": 121.51790983203121,
          "velocity": 0.6456692913385826
        },
        {
          "duration": 0.123046875,
          "durationTicks": 63,
          "midi": 76,
          "name": "E5",
          "ticks": 61440,
          "time": 121.76790983203121,
          "velocity": 0.6299212598425197
        },
        {
          "duration": 0.5,
          "durationTicks": 256,
          "midi": 77,
          "name": "F5",
          "ticks": 61568,
          "time": 122.01790983203121,
          "velocity": 0.6850393700787402
        },
        {
          "duration": 0.123046875,
          "durationTicks": 63,
          "midi": 77,
          "name": "F5",
          "ticks": 61824,
          "time": 122.51790983203121,
          "velocity": 0.6850393700787402
        },
        {
          "duration": 0.123046875,
          "durationTicks": 63,
          "midi": 77,
          "name": "F5",
          "ticks": 61952,
          "time": 122.76790983203121,
          "velocity": 0.6456692913385826
        },
        {
          "duration": 0.123046875,
          "durationTicks": 63,
          "midi": 77,
          "name": "F5",
          "ticks": 62080,
          "time": 123.01790983203121,
          "velocity": 0.6456692913385826
        },
        {
          "duration": 0.123046875,
          "durationTicks": 63,
          "midi": 77,
          "name": "F5",
          "ticks": 62208,
          "time": 123.26790983203121,
          "velocity": 0.6220472440944882
        },
        {
          "duration": 0.123046875,
          "durationTicks": 63,
          "midi": 77,
          "name": "F5",
          "ticks": 62336,
          "time": 123.51790983203121,
          "velocity": 0.6377952755905512
        },
        {
          "duration": 0.123046875,
          "durationTicks": 63,
          "midi": 77,
          "name": "F5",
          "ticks": 62464,
          "time": 123.76790983203121,
          "velocity": 0.6850393700787402
        },
        {
          "duration": 0.5,
          "durationTicks": 256,
          "midi": 74,
          "name": "D5",
          "ticks": 62592,
          "time": 124.01790983203121,
          "velocity": 0.5748031496062992
        },
        {
          "duration": 0.123046875,
          "durationTicks": 63,
          "midi": 74,
          "name": "D5",
          "ticks": 62848,
          "time": 124.51790983203121,
          "velocity": 0.6692913385826772
        },
        {
          "duration": 0.123046875,
          "durationTicks": 63,
          "midi": 74,
          "name": "D5",
          "ticks": 62976,
          "time": 124.76790983203121,
          "velocity": 0.6692913385826772
        },
        {
          "duration": 0.123046875,
          "durationTicks": 63,
          "midi": 74,
          "name": "D5",
          "ticks": 63104,
          "time": 125.01790983203121,
          "velocity": 0.6614173228346457
        },
        {
          "duration": 0.123046875,
          "durationTicks": 63,
          "midi": 74,
          "name": "D5",
          "ticks": 63232,
          "time": 125.26790983203121,
          "velocity": 0.6535433070866141
        },
        {
          "duration": 0.123046875,
          "durationTicks": 63,
          "midi": 74,
          "name": "D5",
          "ticks": 63360,
          "time": 125.51790983203121,
          "velocity": 0.6299212598425197
        },
        {
          "duration": 0.123046875,
          "durationTicks": 63,
          "midi": 74,
          "name": "D5",
          "ticks": 63488,
          "time": 125.76790983203121,
          "velocity": 0.6456692913385826
        },
        {
          "duration": 0.5,
          "durationTicks": 256,
          "midi": 76,
          "name": "E5",
          "ticks": 63616,
          "time": 126.01790983203121,
          "velocity": 0.6929133858267716
        },
        {
          "duration": 0.123046875,
          "durationTicks": 63,
          "midi": 76,
          "name": "E5",
          "ticks": 63872,
          "time": 126.51790983203121,
          "velocity": 0.6614173228346457
        },
        {
          "duration": 0.123046875,
          "durationTicks": 63,
          "midi": 76,
          "name": "E5",
          "ticks": 64000,
          "time": 126.76790983203121,
          "velocity": 0.6535433070866141
        },
        {
          "duration": 0.123046875,
          "durationTicks": 63,
          "midi": 76,
          "name": "E5",
          "ticks": 64128,
          "time": 127.01790983203121,
          "velocity": 0.6535433070866141
        },
        {
          "duration": 0.123046875,
          "durationTicks": 63,
          "midi": 76,
          "name": "E5",
          "ticks": 64256,
          "time": 127.26790983203121,
          "velocity": 0.6614173228346457
        },
        {
          "duration": 0.123046875,
          "durationTicks": 63,
          "midi": 76,
          "name": "E5",
          "ticks": 64384,
          "time": 127.51790983203121,
          "velocity": 0.6299212598425197
        },
        {
          "duration": 0.123046875,
          "durationTicks": 63,
          "midi": 76,
          "name": "E5",
          "ticks": 64512,
          "time": 127.76790983203121,
          "velocity": 0.6929133858267716
        },
        {
          "duration": 0.123046875,
          "durationTicks": 63,
          "midi": 76,
          "name": "E5",
          "ticks": 64640,
          "time": 128.0179098320312,
          "velocity": 0.6456692913385826
        },
        {
          "duration": 0.123046875,
          "durationTicks": 63,
          "midi": 76,
          "name": "E5",
          "ticks": 64768,
          "time": 128.2679098320312,
          "velocity": 0.5433070866141733
        },
        {
          "duration": 0.123046875,
          "durationTicks": 63,
          "midi": 76,
          "name": "E5",
          "ticks": 64896,
          "time": 128.5179098320312,
          "velocity": 0.5669291338582677
        },
        {
          "duration": 0.123046875,
          "durationTicks": 63,
          "midi": 76,
          "name": "E5",
          "ticks": 65024,
          "time": 128.7679098320312,
          "velocity": 0.5669291338582677
        },
        {
          "duration": 0.123046875,
          "durationTicks": 63,
          "midi": 76,
          "name": "E5",
          "ticks": 65152,
          "time": 129.0179098320312,
          "velocity": 0.5433070866141733
        },
        {
          "duration": 0.123046875,
          "durationTicks": 63,
          "midi": 76,
          "name": "E5",
          "ticks": 65280,
          "time": 129.2679098320312,
          "velocity": 0.5590551181102362
        },
        {
          "duration": 0.123046875,
          "durationTicks": 63,
          "midi": 76,
          "name": "E5",
          "ticks": 65408,
          "time": 129.5179098320312,
          "velocity": 0.5354330708661418
        },
        {
          "duration": 0.123046875,
          "durationTicks": 63,
          "midi": 76,
          "name": "E5",
          "ticks": 65536,
          "time": 129.7679098320312,
          "velocity": 0.5433070866141733
        },
        {
          "duration": 0.5,
          "durationTicks": 256,
          "midi": 77,
          "name": "F5",
          "ticks": 65664,
          "time": 130.0179098320312,
          "velocity": 0.6062992125984252
        },
        {
          "duration": 0.123046875,
          "durationTicks": 63,
          "midi": 77,
          "name": "F5",
          "ticks": 65920,
          "time": 130.5179098320312,
          "velocity": 0.5748031496062992
        },
        {
          "duration": 0.123046875,
          "durationTicks": 63,
          "midi": 77,
          "name": "F5",
          "ticks": 66048,
          "time": 130.7679098320312,
          "velocity": 0.5590551181102362
        },
        {
          "duration": 0.123046875,
          "durationTicks": 63,
          "midi": 77,
          "name": "F5",
          "ticks": 66176,
          "time": 131.0179098320312,
          "velocity": 0.5669291338582677
        },
        {
          "duration": 0.123046875,
          "durationTicks": 63,
          "midi": 77,
          "name": "F5",
          "ticks": 66304,
          "time": 131.2679098320312,
          "velocity": 0.5669291338582677
        },
        {
          "duration": 0.123046875,
          "durationTicks": 63,
          "midi": 77,
          "name": "F5",
          "ticks": 66432,
          "time": 131.5179098320312,
          "velocity": 0.5354330708661418
        },
        {
          "duration": 0.123046875,
          "durationTicks": 63,
          "midi": 77,
          "name": "F5",
          "ticks": 66560,
          "time": 131.7679098320312,
          "velocity": 0.5275590551181102
        },
        {
          "duration": 0.5,
          "durationTicks": 256,
          "midi": 74,
          "name": "D5",
          "ticks": 66688,
          "time": 132.0179098320312,
          "velocity": 0.5196850393700787
        },
        {
          "duration": 0.123046875,
          "durationTicks": 63,
          "midi": 74,
          "name": "D5",
          "ticks": 66944,
          "time": 132.5179098320312,
          "velocity": 0.5590551181102362
        },
        {
          "duration": 0.123046875,
          "durationTicks": 63,
          "midi": 74,
          "name": "D5",
          "ticks": 67072,
          "time": 132.7679098320312,
          "velocity": 0.5826771653543307
        },
        {
          "duration": 0.123046875,
          "durationTicks": 63,
          "midi": 74,
          "name": "D5",
          "ticks": 67200,
          "time": 133.0179098320312,
          "velocity": 0.5826771653543307
        },
        {
          "duration": 0.123046875,
          "durationTicks": 63,
          "midi": 74,
          "name": "D5",
          "ticks": 67328,
          "time": 133.2679098320312,
          "velocity": 0.5511811023622047
        },
        {
          "duration": 0.123046875,
          "durationTicks": 63,
          "midi": 74,
          "name": "D5",
          "ticks": 67456,
          "time": 133.5179098320312,
          "velocity": 0.5511811023622047
        },
        {
          "duration": 0.123046875,
          "durationTicks": 63,
          "midi": 74,
          "name": "D5",
          "ticks": 67584,
          "time": 133.7679098320312,
          "velocity": 0.5905511811023622
        },
        {
          "duration": 0.5,
          "durationTicks": 256,
          "midi": 76,
          "name": "E5",
          "ticks": 67712,
          "time": 134.0179098320312,
          "velocity": 0.5511811023622047
        },
        {
          "duration": 0.123046875,
          "durationTicks": 63,
          "midi": 76,
          "name": "E5",
          "ticks": 67968,
          "time": 134.5179098320312,
          "velocity": 0.5590551181102362
        },
        {
          "duration": 0.123046875,
          "durationTicks": 63,
          "midi": 76,
          "name": "E5",
          "ticks": 68096,
          "time": 134.7679098320312,
          "velocity": 0.5354330708661418
        },
        {
          "duration": 0.123046875,
          "durationTicks": 63,
          "midi": 76,
          "name": "E5",
          "ticks": 68224,
          "time": 135.0179098320312,
          "velocity": 0.5669291338582677
        },
        {
          "duration": 0.123046875,
          "durationTicks": 63,
          "midi": 76,
          "name": "E5",
          "ticks": 68352,
          "time": 135.2679098320312,
          "velocity": 0.5511811023622047
        },
        {
          "duration": 0.123046875,
          "durationTicks": 63,
          "midi": 76,
          "name": "E5",
          "ticks": 68480,
          "time": 135.5179098320312,
          "velocity": 0.5590551181102362
        },
        {
          "duration": 0.123046875,
          "durationTicks": 63,
          "midi": 76,
          "name": "E5",
          "ticks": 68608,
          "time": 135.7679098320312,
          "velocity": 0.5669291338582677
        },
        {
          "duration": 0.123046875,
          "durationTicks": 63,
          "midi": 76,
          "name": "E5",
          "ticks": 68736,
          "time": 136.0179098320312,
          "velocity": 0.5669291338582677
        },
        {
          "duration": 0.123046875,
          "durationTicks": 63,
          "midi": 76,
          "name": "E5",
          "ticks": 68864,
          "time": 136.2679098320312,
          "velocity": 0.5905511811023622
        },
        {
          "duration": 0.123046875,
          "durationTicks": 63,
          "midi": 76,
          "name": "E5",
          "ticks": 68992,
          "time": 136.5179098320312,
          "velocity": 0.5984251968503937
        },
        {
          "duration": 0.123046875,
          "durationTicks": 63,
          "midi": 76,
          "name": "E5",
          "ticks": 69120,
          "time": 136.7679098320312,
          "velocity": 0.5590551181102362
        },
        {
          "duration": 0.123046875,
          "durationTicks": 63,
          "midi": 76,
          "name": "E5",
          "ticks": 69248,
          "time": 137.0179098320312,
          "velocity": 0.5669291338582677
        },
        {
          "duration": 0.123046875,
          "durationTicks": 63,
          "midi": 76,
          "name": "E5",
          "ticks": 69376,
          "time": 137.2679098320312,
          "velocity": 0.5590551181102362
        },
        {
          "duration": 0.123046875,
          "durationTicks": 63,
          "midi": 76,
          "name": "E5",
          "ticks": 69504,
          "time": 137.5179098320312,
          "velocity": 0.5354330708661418
        },
        {
          "duration": 0.123046875,
          "durationTicks": 63,
          "midi": 76,
          "name": "E5",
          "ticks": 69632,
          "time": 137.7679098320312,
          "velocity": 0.5905511811023622
        },
        {
          "duration": 0.5,
          "durationTicks": 256,
          "midi": 77,
          "name": "F5",
          "ticks": 69760,
          "time": 138.0179098320312,
          "velocity": 0.5748031496062992
        },
        {
          "duration": 0.123046875,
          "durationTicks": 63,
          "midi": 77,
          "name": "F5",
          "ticks": 70016,
          "time": 138.5179098320312,
          "velocity": 0.5590551181102362
        },
        {
          "duration": 0.123046875,
          "durationTicks": 63,
          "midi": 77,
          "name": "F5",
          "ticks": 70144,
          "time": 138.7679098320312,
          "velocity": 0.5590551181102362
        },
        {
          "duration": 0.123046875,
          "durationTicks": 63,
          "midi": 77,
          "name": "F5",
          "ticks": 70272,
          "time": 139.0179098320312,
          "velocity": 0.6220472440944882
        },
        {
          "duration": 0.123046875,
          "durationTicks": 63,
          "midi": 77,
          "name": "F5",
          "ticks": 70400,
          "time": 139.2679098320312,
          "velocity": 0.5905511811023622
        },
        {
          "duration": 0.123046875,
          "durationTicks": 63,
          "midi": 77,
          "name": "F5",
          "ticks": 70528,
          "time": 139.5179098320312,
          "velocity": 0.5433070866141733
        },
        {
          "duration": 0.123046875,
          "durationTicks": 63,
          "midi": 77,
          "name": "F5",
          "ticks": 70656,
          "time": 139.7679098320312,
          "velocity": 0.5354330708661418
        },
        {
          "duration": 0.5,
          "durationTicks": 256,
          "midi": 74,
          "name": "D5",
          "ticks": 70784,
          "time": 140.0179098320312,
          "velocity": 0.47244094488188976
        },
        {
          "duration": 0.123046875,
          "durationTicks": 63,
          "midi": 74,
          "name": "D5",
          "ticks": 71040,
          "time": 140.5179098320312,
          "velocity": 0.5433070866141733
        },
        {
          "duration": 0.123046875,
          "durationTicks": 63,
          "midi": 74,
          "name": "D5",
          "ticks": 71168,
          "time": 140.7679098320312,
          "velocity": 0.5433070866141733
        },
        {
          "duration": 0.123046875,
          "durationTicks": 63,
          "midi": 74,
          "name": "D5",
          "ticks": 71296,
          "time": 141.0179098320312,
          "velocity": 0.5590551181102362
        },
        {
          "duration": 0.123046875,
          "durationTicks": 63,
          "midi": 74,
          "name": "D5",
          "ticks": 71424,
          "time": 141.2679098320312,
          "velocity": 0.5433070866141733
        },
        {
          "duration": 0.123046875,
          "durationTicks": 63,
          "midi": 74,
          "name": "D5",
          "ticks": 71552,
          "time": 141.5179098320312,
          "velocity": 0.5196850393700787
        },
        {
          "duration": 0.123046875,
          "durationTicks": 63,
          "midi": 74,
          "name": "D5",
          "ticks": 71680,
          "time": 141.7679098320312,
          "velocity": 0.5590551181102362
        },
        {
          "duration": 0.5,
          "durationTicks": 256,
          "midi": 76,
          "name": "E5",
          "ticks": 71808,
          "time": 142.0179098320312,
          "velocity": 0.5905511811023622
        },
        {
          "duration": 0.123046875,
          "durationTicks": 63,
          "midi": 76,
          "name": "E5",
          "ticks": 72064,
          "time": 142.5179098320312,
          "velocity": 0.5511811023622047
        },
        {
          "duration": 0.123046875,
          "durationTicks": 63,
          "midi": 76,
          "name": "E5",
          "ticks": 72192,
          "time": 142.7679098320312,
          "velocity": 0.5669291338582677
        },
        {
          "duration": 0.123046875,
          "durationTicks": 63,
          "midi": 76,
          "name": "E5",
          "ticks": 72320,
          "time": 143.0179098320312,
          "velocity": 0.5590551181102362
        },
        {
          "duration": 0.123046875,
          "durationTicks": 63,
          "midi": 76,
          "name": "E5",
          "ticks": 72448,
          "time": 143.2679098320312,
          "velocity": 0.5511811023622047
        },
        {
          "duration": 0.123046875,
          "durationTicks": 63,
          "midi": 76,
          "name": "E5",
          "ticks": 72576,
          "time": 143.5179098320312,
          "velocity": 0.5590551181102362
        },
        {
          "duration": 0.123046875,
          "durationTicks": 63,
          "midi": 76,
          "name": "E5",
          "ticks": 72704,
          "time": 143.7679098320312,
          "velocity": 0.5354330708661418
        },
        {
          "duration": 0.123046875,
          "durationTicks": 63,
          "midi": 76,
          "name": "E5",
          "ticks": 72832,
          "time": 144.0179098320312,
          "velocity": 0.5354330708661418
        },
        {
          "duration": 0.125,
          "durationTicks": 64,
          "midi": 62,
          "name": "D4",
          "ticks": 73216,
          "time": 144.7679098320312,
          "velocity": 0.5039370078740157
        },
        {
          "duration": 0.125,
          "durationTicks": 64,
          "midi": 64,
          "name": "E4",
          "ticks": 73280,
          "time": 144.8929098320312,
          "velocity": 0.5669291338582677
        },
        {
          "duration": 0.125,
          "durationTicks": 64,
          "midi": 65,
          "name": "F4",
          "ticks": 73344,
          "time": 145.0179098320312,
          "velocity": 0.5748031496062992
        },
        {
          "duration": 0.125,
          "durationTicks": 64,
          "midi": 67,
          "name": "G4",
          "ticks": 73408,
          "time": 145.1429098320312,
          "velocity": 0.5905511811023622
        },
        {
          "duration": 0.3671875,
          "durationTicks": 188,
          "midi": 69,
          "name": "A4",
          "ticks": 73472,
          "time": 145.2679098320312,
          "velocity": 0.7244094488188977
        },
        {
          "duration": 0.125,
          "durationTicks": 64,
          "midi": 67,
          "name": "G4",
          "ticks": 74240,
          "time": 146.7679098320312,
          "velocity": 0.48031496062992124
        },
        {
          "duration": 0.125,
          "durationTicks": 64,
          "midi": 69,
          "name": "A4",
          "ticks": 74304,
          "time": 146.8929098320312,
          "velocity": 0.5748031496062992
        },
        {
          "duration": 0.125,
          "durationTicks": 64,
          "midi": 71,
          "name": "B4",
          "ticks": 74368,
          "time": 147.0179098320312,
          "velocity": 0.6220472440944882
        },
        {
          "duration": 0.125,
          "durationTicks": 64,
          "midi": 72,
          "name": "C5",
          "ticks": 74432,
          "time": 147.1429098320312,
          "velocity": 0.5748031496062992
        },
        {
          "duration": 0.3671875,
          "durationTicks": 188,
          "midi": 74,
          "name": "D5",
          "ticks": 74496,
          "time": 147.2679098320312,
          "velocity": 0.6614173228346457
        },
        {
          "duration": 0.125,
          "durationTicks": 64,
          "midi": 60,
          "name": "C4",
          "ticks": 75264,
          "time": 148.7679098320312,
          "velocity": 0.4881889763779528
        },
        {
          "duration": 0.125,
          "durationTicks": 64,
          "midi": 62,
          "name": "D4",
          "ticks": 75328,
          "time": 148.8929098320312,
          "velocity": 0.5669291338582677
        },
        {
          "duration": 0.125,
          "durationTicks": 64,
          "midi": 64,
          "name": "E4",
          "ticks": 75392,
          "time": 149.0179098320312,
          "velocity": 0.5984251968503937
        },
        {
          "duration": 0.125,
          "durationTicks": 64,
          "midi": 65,
          "name": "F4",
          "ticks": 75456,
          "time": 149.1429098320312,
          "velocity": 0.6141732283464567
        },
        {
          "duration": 0.3671875,
          "durationTicks": 188,
          "midi": 67,
          "name": "G4",
          "ticks": 75520,
          "time": 149.2679098320312,
          "velocity": 0.6692913385826772
        },
        {
          "duration": 0.125,
          "durationTicks": 64,
          "midi": 65,
          "name": "F4",
          "ticks": 76288,
          "time": 150.7679098320312,
          "velocity": 0.5275590551181102
        },
        {
          "duration": 0.125,
          "durationTicks": 64,
          "midi": 67,
          "name": "G4",
          "ticks": 76352,
          "time": 150.8929098320312,
          "velocity": 0.5826771653543307
        },
        {
          "duration": 0.125,
          "durationTicks": 64,
          "midi": 69,
          "name": "A4",
          "ticks": 76416,
          "time": 151.0179098320312,
          "velocity": 0.6141732283464567
        },
        {
          "duration": 0.125,
          "durationTicks": 64,
          "midi": 71,
          "name": "B4",
          "ticks": 76480,
          "time": 151.1429098320312,
          "velocity": 0.6062992125984252
        },
        {
          "duration": 0.3671875,
          "durationTicks": 188,
          "midi": 72,
          "name": "C5",
          "ticks": 76544,
          "time": 151.2679098320312,
          "velocity": 0.6220472440944882
        },
        {
          "duration": 0.125,
          "durationTicks": 64,
          "midi": 60,
          "name": "C4",
          "ticks": 77312,
          "time": 152.7679098320312,
          "velocity": 0.44881889763779526
        },
        {
          "duration": 0.125,
          "durationTicks": 64,
          "midi": 62,
          "name": "D4",
          "ticks": 77376,
          "time": 152.8929098320312,
          "velocity": 0.5826771653543307
        },
        {
          "duration": 0.125,
          "durationTicks": 64,
          "midi": 64,
          "name": "E4",
          "ticks": 77440,
          "time": 153.0179098320312,
          "velocity": 0.5748031496062992
        },
        {
          "duration": 0.125,
          "durationTicks": 64,
          "midi": 65,
          "name": "F4",
          "ticks": 77504,
          "time": 153.1429098320312,
          "velocity": 0.6220472440944882
        },
        {
          "duration": 0.3671875,
          "durationTicks": 188,
          "midi": 67,
          "name": "G4",
          "ticks": 77568,
          "time": 153.2679098320312,
          "velocity": 0.6929133858267716
        },
        {
          "duration": 0.125,
          "durationTicks": 64,
          "midi": 62,
          "name": "D4",
          "ticks": 78336,
          "time": 154.7679098320312,
          "velocity": 0.48031496062992124
        },
        {
          "duration": 0.125,
          "durationTicks": 64,
          "midi": 64,
          "name": "E4",
          "ticks": 78400,
          "time": 154.8929098320312,
          "velocity": 0.5511811023622047
        },
        {
          "duration": 0.125,
          "durationTicks": 64,
          "midi": 65,
          "name": "F4",
          "ticks": 78464,
          "time": 155.0179098320312,
          "velocity": 0.5433070866141733
        },
        {
          "duration": 0.125,
          "durationTicks": 64,
          "midi": 67,
          "name": "G4",
          "ticks": 78528,
          "time": 155.1429098320312,
          "velocity": 0.5826771653543307
        },
        {
          "duration": 0.3671875,
          "durationTicks": 188,
          "midi": 69,
          "name": "A4",
          "ticks": 78592,
          "time": 155.2679098320312,
          "velocity": 0.7086614173228346
        },
        {
          "duration": 0.125,
          "durationTicks": 64,
          "midi": 67,
          "name": "G4",
          "ticks": 79360,
          "time": 156.7679098320312,
          "velocity": 0.47244094488188976
        },
        {
          "duration": 0.125,
          "durationTicks": 64,
          "midi": 69,
          "name": "A4",
          "ticks": 79424,
          "time": 156.8929098320312,
          "velocity": 0.5984251968503937
        },
        {
          "duration": 0.125,
          "durationTicks": 64,
          "midi": 71,
          "name": "B4",
          "ticks": 79488,
          "time": 157.0179098320312,
          "velocity": 0.6377952755905512
        },
        {
          "duration": 0.125,
          "durationTicks": 64,
          "midi": 72,
          "name": "C5",
          "ticks": 79552,
          "time": 157.1429098320312,
          "velocity": 0.5590551181102362
        },
        {
          "duration": 0.3671875,
          "durationTicks": 188,
          "midi": 74,
          "name": "D5",
          "ticks": 79616,
          "time": 157.2679098320312,
          "velocity": 0.6850393700787402
        },
        {
          "duration": 0.125,
          "durationTicks": 64,
          "midi": 60,
          "name": "C4",
          "ticks": 80384,
          "time": 158.7679098320312,
          "velocity": 0.5039370078740157
        },
        {
          "duration": 0.125,
          "durationTicks": 64,
          "midi": 62,
          "name": "D4",
          "ticks": 80448,
          "time": 158.8929098320312,
          "velocity": 0.5905511811023622
        },
        {
          "duration": 0.125,
          "durationTicks": 64,
          "midi": 64,
          "name": "E4",
          "ticks": 80512,
          "time": 159.0179098320312,
          "velocity": 0.5826771653543307
        },
        {
          "duration": 0.125,
          "durationTicks": 64,
          "midi": 65,
          "name": "F4",
          "ticks": 80576,
          "time": 159.1429098320312,
          "velocity": 0.5826771653543307
        },
        {
          "duration": 0.3671875,
          "durationTicks": 188,
          "midi": 67,
          "name": "G4",
          "ticks": 80640,
          "time": 159.2679098320312,
          "velocity": 0.7007874015748031
        },
        {
          "duration": 0.185546875,
          "durationTicks": 95,
          "midi": 67,
          "name": "G4",
          "ticks": 80896,
          "time": 159.7679098320312,
          "velocity": 0.7874015748031497
        },
        {
          "duration": 0.125,
          "durationTicks": 64,
          "midi": 64,
          "name": "E4",
          "ticks": 81088,
          "time": 160.1429098320312,
          "velocity": 0.7007874015748031
        },
        {
          "duration": 1.5,
          "durationTicks": 768,
          "midi": 69,
          "name": "A4",
          "ticks": 81152,
          "time": 160.2679098320312,
          "velocity": 0.84251968503937
        },
        {
          "duration": 0.166015625,
          "durationTicks": 85,
          "midi": 69,
          "name": "A4",
          "ticks": 81920,
          "time": 161.7679098320312,
          "velocity": 0.7952755905511811
        },
        {
          "duration": 0.166015625,
          "durationTicks": 85,
          "midi": 67,
          "name": "G4",
          "ticks": 82005,
          "time": 161.9339254570312,
          "velocity": 0.7244094488188977
        },
        {
          "duration": 0.16796875,
          "durationTicks": 86,
          "midi": 65,
          "name": "F4",
          "ticks": 82090,
          "time": 162.0999410820312,
          "velocity": 0.7480314960629921
        },
        {
          "duration": 1.5,
          "durationTicks": 768,
          "midi": 67,
          "name": "G4",
          "ticks": 82176,
          "time": 162.2679098320312,
          "velocity": 0.8031496062992126
        },
        {
          "duration": 0.185546875,
          "durationTicks": 95,
          "midi": 64,
          "name": "E4",
          "ticks": 82944,
          "time": 163.7679098320312,
          "velocity": 0.7244094488188977
        },
        {
          "duration": 0.125,
          "durationTicks": 64,
          "midi": 64,
          "name": "E4",
          "ticks": 83136,
          "time": 164.1429098320312,
          "velocity": 0.7716535433070866
        },
        {
          "duration": 1.5,
          "durationTicks": 768,
          "midi": 65,
          "name": "F4",
          "ticks": 83200,
          "time": 164.2679098320312,
          "velocity": 0.8031496062992126
        },
        {
          "duration": 0.166015625,
          "durationTicks": 85,
          "midi": 65,
          "name": "F4",
          "ticks": 83968,
          "time": 165.7679098320312,
          "velocity": 0.7637795275590551
        },
        {
          "duration": 0.166015625,
          "durationTicks": 85,
          "midi": 64,
          "name": "E4",
          "ticks": 84053,
          "time": 165.9339254570312,
          "velocity": 0.6771653543307087
        },
        {
          "duration": 0.16796875,
          "durationTicks": 86,
          "midi": 62,
          "name": "D4",
          "ticks": 84138,
          "time": 166.0999410820312,
          "velocity": 0.7086614173228346
        },
        {
          "duration": 1.5,
          "durationTicks": 768,
          "midi": 64,
          "name": "E4",
          "ticks": 84224,
          "time": 166.2679098320312,
          "velocity": 0.8031496062992126
        },
        {
          "duration": 0.5,
          "durationTicks": 256,
          "midi": 57,
          "name": "A3",
          "ticks": 84992,
          "time": 167.7679098320312,
          "velocity": 0.7322834645669292
        },
        {
          "duration": 1.5,
          "durationTicks": 768,
          "midi": 62,
          "name": "D4",
          "ticks": 85248,
          "time": 168.2679098320312,
          "velocity": 0.8818897637795275
        },
        {
          "duration": 0.166015625,
          "durationTicks": 85,
          "midi": 62,
          "name": "D4",
          "ticks": 86016,
          "time": 169.7679098320312,
          "velocity": 0.7716535433070866
        },
        {
          "duration": 0.166015625,
          "durationTicks": 85,
          "midi": 60,
          "name": "C4",
          "ticks": 86101,
          "time": 169.9339254570312,
          "velocity": 0.7007874015748031
        },
        {
          "duration": 0.16796875,
          "durationTicks": 86,
          "midi": 59,
          "name": "B3",
          "ticks": 86186,
          "time": 170.0999410820312,
          "velocity": 0.7244094488188977
        },
        {
          "duration": 1.5,
          "durationTicks": 768,
          "midi": 60,
          "name": "C4",
          "ticks": 86272,
          "time": 170.2679098320312,
          "velocity": 0.8031496062992126
        },
        {
          "duration": 0.185546875,
          "durationTicks": 95,
          "midi": 65,
          "name": "F4",
          "ticks": 87040,
          "time": 171.7679098320312,
          "velocity": 0.8661417322834646
        },
        {
          "duration": 0.125,
          "durationTicks": 64,
          "midi": 67,
          "name": "G4",
          "ticks": 87232,
          "time": 172.1429098320312,
          "velocity": 0.8503937007874016
        },
        {
          "duration": 1.5,
          "durationTicks": 768,
          "midi": 68,
          "name": "G#4",
          "ticks": 87296,
          "time": 172.2679098320312,
          "velocity": 0.8110236220472441
        },
        {
          "duration": 0.185546875,
          "durationTicks": 95,
          "midi": 65,
          "name": "F4",
          "ticks": 88064,
          "time": 173.7679098320312,
          "velocity": 0.7322834645669292
        },
        {
          "duration": 0.125,
          "durationTicks": 64,
          "midi": 66,
          "name": "F#4",
          "ticks": 88256,
          "time": 174.1429098320312,
          "velocity": 0.7716535433070866
        },
        {
          "duration": 1.5,
          "durationTicks": 768,
          "midi": 67,
          "name": "G4",
          "ticks": 88320,
          "time": 174.2679098320312,
          "velocity": 0.8031496062992126
        },
        {
          "duration": 0.185546875,
          "durationTicks": 95,
          "midi": 65,
          "name": "F4",
          "ticks": 89088,
          "time": 175.7679098320312,
          "velocity": 0.7165354330708661
        },
        {
          "duration": 0.125,
          "durationTicks": 64,
          "midi": 66,
          "name": "F#4",
          "ticks": 89280,
          "time": 176.1429098320312,
          "velocity": 0.7480314960629921
        },
        {
          "duration": 1.5,
          "durationTicks": 768,
          "midi": 65,
          "name": "F4",
          "ticks": 89344,
          "time": 176.2679098320312,
          "velocity": 0.7244094488188977
        },
        {
          "duration": 0.23009345703124495,
          "durationTicks": 85,
          "midi": 65,
          "name": "F4",
          "ticks": 90112,
          "time": 177.7679098320312,
          "velocity": 0.7637795275590551
        },
        {
          "duration": 0.23503583984376064,
          "durationTicks": 85,
          "midi": 65,
          "name": "F4",
          "ticks": 90197,
          "time": 177.99800328906244,
          "velocity": 0.7559055118110236
        },
        {
          "duration": 0.24379778124998097,
          "durationTicks": 86,
          "midi": 65,
          "name": "F4",
          "ticks": 90282,
          "time": 178.2330391289062,
          "velocity": 0.7165354330708661
        },
        {
          "duration": 2.4880438906250504,
          "durationTicks": 768,
          "midi": 77,
          "name": "F5",
          "ticks": 90368,
          "time": 178.47683691015618,
          "velocity": 0.9448818897637795
        },
        {
          "duration": 2.857139999999987,
          "durationTicks": 768,
          "midi": 79,
          "name": "G5",
          "ticks": 91136,
          "time": 180.96488080078123,
          "velocity": 0.8346456692913385
        },
        {
          "duration": 0.185546875,
          "durationTicks": 95,
          "midi": 64,
          "name": "E4",
          "ticks": 92160,
          "time": 184.77263369140624,
          "velocity": 0.6692913385826772
        },
        {
          "duration": 0.125,
          "durationTicks": 64,
          "midi": 64,
          "name": "E4",
          "ticks": 92352,
          "time": 185.14763369140624,
          "velocity": 0.7716535433070866
        },
        {
          "duration": 0.5,
          "durationTicks": 256,
          "midi": 69,
          "name": "A4",
          "ticks": 92416,
          "time": 185.27263369140624,
          "velocity": 0.8661417322834646
        },
        {
          "duration": 0.185546875,
          "durationTicks": 95,
          "midi": 64,
          "name": "E4",
          "ticks": 92672,
          "time": 185.77263369140624,
          "velocity": 0.6692913385826772
        },
        {
          "duration": 0.125,
          "durationTicks": 64,
          "midi": 69,
          "name": "A4",
          "ticks": 92864,
          "time": 186.14763369140624,
          "velocity": 0.8582677165354331
        },
        {
          "duration": 0.5,
          "durationTicks": 256,
          "midi": 71,
          "name": "B4",
          "ticks": 92928,
          "time": 186.27263369140624,
          "velocity": 0.8188976377952756
        },
        {
          "duration": 0.185546875,
          "durationTicks": 95,
          "midi": 64,
          "name": "E4",
          "ticks": 93184,
          "time": 186.77263369140624,
          "velocity": 0.6299212598425197
        },
        {
          "duration": 0.125,
          "durationTicks": 64,
          "midi": 71,
          "name": "B4",
          "ticks": 93376,
          "time": 187.14763369140624,
          "velocity": 0.8661417322834646
        },
        {
          "duration": 0.75,
          "durationTicks": 384,
          "midi": 74,
          "name": "D5",
          "ticks": 93440,
          "time": 187.27263369140624,
          "velocity": 0.8582677165354331
        },
        {
          "duration": 0.125,
          "durationTicks": 64,
          "midi": 72,
          "name": "C5",
          "ticks": 93824,
          "time": 188.02263369140624,
          "velocity": 0.7165354330708661
        },
        {
          "duration": 0.125,
          "durationTicks": 64,
          "midi": 71,
          "name": "B4",
          "ticks": 93888,
          "time": 188.14763369140624,
          "velocity": 0.7165354330708661
        },
        {
          "duration": 0.5,
          "durationTicks": 256,
          "midi": 69,
          "name": "A4",
          "ticks": 93952,
          "time": 188.27263369140624,
          "velocity": 0.7244094488188977
        },
        {
          "duration": 0.5,
          "durationTicks": 256,
          "midi": 64,
          "name": "E4",
          "ticks": 94208,
          "time": 188.77263369140624,
          "velocity": 0.6614173228346457
        },
        {
          "duration": 0.5,
          "durationTicks": 256,
          "midi": 64,
          "name": "E4",
          "ticks": 94464,
          "time": 189.27263369140624,
          "velocity": 0.7637795275590551
        },
        {
          "duration": 0.5,
          "durationTicks": 256,
          "midi": 65,
          "name": "F4",
          "ticks": 94720,
          "time": 189.77263369140624,
          "velocity": 0.7795275590551181
        },
        {
          "duration": 0.5,
          "durationTicks": 256,
          "midi": 66,
          "name": "F#4",
          "ticks": 94976,
          "time": 190.27263369140624,
          "velocity": 0.8267716535433071
        },
        {
          "duration": 0.5,
          "durationTicks": 256,
          "midi": 66,
          "name": "F#4",
          "ticks": 95232,
          "time": 190.77263369140624,
          "velocity": 0.7795275590551181
        },
        {
          "duration": 0.75,
          "durationTicks": 384,
          "midi": 65,
          "name": "F4",
          "ticks": 95488,
          "time": 191.27263369140624,
          "velocity": 0.7244094488188977
        },
        {
          "duration": 0.125,
          "durationTicks": 64,
          "midi": 64,
          "name": "E4",
          "ticks": 95872,
          "time": 192.02263369140624,
          "velocity": 0.7401574803149606
        },
        {
          "duration": 0.125,
          "durationTicks": 64,
          "midi": 62,
          "name": "D4",
          "ticks": 95936,
          "time": 192.14763369140624,
          "velocity": 0.7007874015748031
        },
        {
          "duration": 0.5,
          "durationTicks": 256,
          "midi": 59,
          "name": "B3",
          "ticks": 96000,
          "time": 192.27263369140624,
          "velocity": 0.7165354330708661
        },
        {
          "duration": 0.185546875,
          "durationTicks": 95,
          "midi": 64,
          "name": "E4",
          "ticks": 96256,
          "time": 192.77263369140624,
          "velocity": 0.8503937007874016
        },
        {
          "duration": 0.125,
          "durationTicks": 64,
          "midi": 64,
          "name": "E4",
          "ticks": 96448,
          "time": 193.14763369140624,
          "velocity": 0.7716535433070866
        },
        {
          "duration": 0.5,
          "durationTicks": 256,
          "midi": 69,
          "name": "A4",
          "ticks": 96512,
          "time": 193.27263369140624,
          "velocity": 0.8503937007874016
        },
        {
          "duration": 0.185546875,
          "durationTicks": 95,
          "midi": 64,
          "name": "E4",
          "ticks": 96768,
          "time": 193.77263369140624,
          "velocity": 0.6850393700787402
        },
        {
          "duration": 0.125,
          "durationTicks": 64,
          "midi": 69,
          "name": "A4",
          "ticks": 96960,
          "time": 194.14763369140624,
          "velocity": 0.8503937007874016
        },
        {
          "duration": 0.5,
          "durationTicks": 256,
          "midi": 71,
          "name": "B4",
          "ticks": 97024,
          "time": 194.27263369140624,
          "velocity": 0.8503937007874016
        },
        {
          "duration": 0.185546875,
          "durationTicks": 95,
          "midi": 64,
          "name": "E4",
          "ticks": 97280,
          "time": 194.77263369140624,
          "velocity": 0.6377952755905512
        },
        {
          "duration": 0.125,
          "durationTicks": 64,
          "midi": 71,
          "name": "B4",
          "ticks": 97472,
          "time": 195.14763369140624,
          "velocity": 0.8661417322834646
        },
        {
          "duration": 0.75,
          "durationTicks": 384,
          "midi": 74,
          "name": "D5",
          "ticks": 97536,
          "time": 195.27263369140624,
          "velocity": 0.8346456692913385
        },
        {
          "duration": 0.125,
          "durationTicks": 64,
          "midi": 72,
          "name": "C5",
          "ticks": 97920,
          "time": 196.02263369140624,
          "velocity": 0.7165354330708661
        },
        {
          "duration": 0.125,
          "durationTicks": 64,
          "midi": 74,
          "name": "D5",
          "ticks": 97984,
          "time": 196.14763369140624,
          "velocity": 0.8267716535433071
        },
        {
          "duration": 0.5,
          "durationTicks": 256,
          "midi": 76,
          "name": "E5",
          "ticks": 98048,
          "time": 196.27263369140624,
          "velocity": 0.8188976377952756
        },
        {
          "duration": 0.375,
          "durationTicks": 192,
          "midi": 69,
          "name": "A4",
          "ticks": 98304,
          "time": 196.77263369140624,
          "velocity": 0.6299212598425197
        },
        {
          "duration": 0.125,
          "durationTicks": 64,
          "midi": 67,
          "name": "G4",
          "ticks": 98496,
          "time": 197.14763369140624,
          "velocity": 0.6771653543307087
        },
        {
          "duration": 1,
          "durationTicks": 512,
          "midi": 65,
          "name": "F4",
          "ticks": 98560,
          "time": 197.27263369140624,
          "velocity": 0.7244094488188977
        },
        {
          "duration": 1,
          "durationTicks": 512,
          "midi": 67,
          "name": "G4",
          "ticks": 99072,
          "time": 198.27263369140624,
          "velocity": 0.8346456692913385
        },
        {
          "duration": 1.5001775546874967,
          "durationTicks": 768,
          "midi": 60,
          "name": "C4",
          "ticks": 99584,
          "time": 199.27263369140624,
          "velocity": 0.6220472440944882
        },
        {
          "duration": 0.20241457031249865,
          "durationTicks": 95,
          "midi": 69,
          "name": "A4",
          "ticks": 100352,
          "time": 200.77281124609374,
          "velocity": 0.9921259842519685
        },
        {
          "duration": 0.13636350000001585,
          "durationTicks": 64,
          "midi": 69,
          "name": "A4",
          "ticks": 100544,
          "time": 201.18190174609373,
          "velocity": 0.8976377952755905
        },
        {
          "duration": 0.5454540000000065,
          "durationTicks": 256,
          "midi": 74,
          "name": "D5",
          "ticks": 100608,
          "time": 201.31826524609374,
          "velocity": 0.9921259842519685
        },
        {
          "duration": 0.20241457031249865,
          "durationTicks": 95,
          "midi": 69,
          "name": "A4",
          "ticks": 100864,
          "time": 201.86371924609375,
          "velocity": 0.8110236220472441
        },
        {
          "duration": 0.13636349999998743,
          "durationTicks": 64,
          "midi": 74,
          "name": "D5",
          "ticks": 101056,
          "time": 202.27280974609374,
          "velocity": 0.968503937007874
        },
        {
          "duration": 0.5454540000000065,
          "durationTicks": 256,
          "midi": 76,
          "name": "E5",
          "ticks": 101120,
          "time": 202.40917324609373,
          "velocity": 0.9448818897637795
        },
        {
          "duration": 0.20241457031249865,
          "durationTicks": 95,
          "midi": 69,
          "name": "A4",
          "ticks": 101376,
          "time": 202.95462724609374,
          "velocity": 0.6929133858267716
        },
        {
          "duration": 0.13636349999998743,
          "durationTicks": 64,
          "midi": 76,
          "name": "E5",
          "ticks": 101568,
          "time": 203.36371774609376,
          "velocity": 0.9921259842519685
        },
        {
          "duration": 0.8181810000000098,
          "durationTicks": 384,
          "midi": 77,
          "name": "F5",
          "ticks": 101632,
          "time": 203.50008124609374,
          "velocity": 0.905511811023622
        },
        {
          "duration": 0.13636349999998743,
          "durationTicks": 64,
          "midi": 77,
          "name": "F5",
          "ticks": 102016,
          "time": 204.31826224609375,
          "velocity": 0.8818897637795275
        },
        {
          "duration": 0.13636349999998743,
          "durationTicks": 64,
          "midi": 76,
          "name": "E5",
          "ticks": 102080,
          "time": 204.45462574609374,
          "velocity": 0.8582677165354331
        },
        {
          "duration": 0.5454540000000065,
          "durationTicks": 256,
          "midi": 74,
          "name": "D5",
          "ticks": 102144,
          "time": 204.59098924609373,
          "velocity": 0.8188976377952756
        },
        {
          "duration": 0.5454540000000065,
          "durationTicks": 256,
          "midi": 69,
          "name": "A4",
          "ticks": 102400,
          "time": 205.13644324609373,
          "velocity": 0.7716535433070866
        },
        {
          "duration": 0.5454540000000065,
          "durationTicks": 256,
          "midi": 69,
          "name": "A4",
          "ticks": 102656,
          "time": 205.68189724609374,
          "velocity": 0.8503937007874016
        },
        {
          "duration": 0.5454540000000065,
          "durationTicks": 256,
          "midi": 70,
          "name": "A#4",
          "ticks": 102912,
          "time": 206.22735124609375,
          "velocity": 0.9291338582677166
        },
        {
          "duration": 0.5454539999999781,
          "durationTicks": 256,
          "midi": 71,
          "name": "B4",
          "ticks": 103168,
          "time": 206.77280524609375,
          "velocity": 0.9448818897637795
        },
        {
          "duration": 0.5454540000000065,
          "durationTicks": 256,
          "midi": 71,
          "name": "B4",
          "ticks": 103424,
          "time": 207.31825924609373,
          "velocity": 0.8740157480314961
        },
        {
          "duration": 0.8181810000000098,
          "durationTicks": 384,
          "midi": 70,
          "name": "A#4",
          "ticks": 103680,
          "time": 207.86371324609374,
          "velocity": 0.84251968503937
        },
        {
          "duration": 0.13636349999998743,
          "durationTicks": 64,
          "midi": 67,
          "name": "G4",
          "ticks": 104064,
          "time": 208.68189424609375,
          "velocity": 0.7952755905511811
        },
        {
          "duration": 0.13636350000001585,
          "durationTicks": 64,
          "midi": 65,
          "name": "F4",
          "ticks": 104128,
          "time": 208.81825774609374,
          "velocity": 0.8110236220472441
        },
        {
          "duration": 0.5454539999999781,
          "durationTicks": 256,
          "midi": 64,
          "name": "E4",
          "ticks": 104192,
          "time": 208.95462124609375,
          "velocity": 0.8661417322834646
        },
        {
          "duration": 0.20241457031249865,
          "durationTicks": 95,
          "midi": 72,
          "name": "C5",
          "ticks": 104448,
          "time": 209.50007524609373,
          "velocity": 0.9921259842519685
        },
        {
          "duration": 0.13636349999998743,
          "durationTicks": 64,
          "midi": 72,
          "name": "C5",
          "ticks": 104640,
          "time": 209.90916574609375,
          "velocity": 0.9212598425196851
        },
        {
          "duration": 0.5454540000000065,
          "durationTicks": 256,
          "midi": 74,
          "name": "D5",
          "ticks": 104704,
          "time": 210.04552924609374,
          "velocity": 0.937007874015748
        },
        {
          "duration": 0.20241457031249865,
          "durationTicks": 95,
          "midi": 74,
          "name": "D5",
          "ticks": 104960,
          "time": 210.59098324609374,
          "velocity": 0.8503937007874016
        },
        {
          "duration": 0.13636350000001585,
          "durationTicks": 64,
          "midi": 74,
          "name": "D5",
          "ticks": 105152,
          "time": 211.00007374609373,
          "velocity": 0.8582677165354331
        },
        {
          "duration": 0.5454540000000065,
          "durationTicks": 256,
          "midi": 72,
          "name": "C5",
          "ticks": 105216,
          "time": 211.13643724609375,
          "velocity": 0.8503937007874016
        },
        {
          "duration": 0.20241457031249865,
          "durationTicks": 95,
          "midi": 72,
          "name": "C5",
          "ticks": 105472,
          "time": 211.68189124609376,
          "velocity": 0.9133858267716536
        },
        {
          "duration": 0.13636349999998743,
          "durationTicks": 64,
          "midi": 72,
          "name": "C5",
          "ticks": 105664,
          "time": 212.09098174609375,
          "velocity": 0.9291338582677166
        },
        {
          "duration": 0.8181810000000098,
          "durationTicks": 384,
          "midi": 70,
          "name": "A#4",
          "ticks": 105728,
          "time": 212.22734524609373,
          "velocity": 0.8346456692913385
        },
        {
          "duration": 0.13636349999998743,
          "durationTicks": 64,
          "midi": 69,
          "name": "A4",
          "ticks": 106112,
          "time": 213.04552624609374,
          "velocity": 0.8031496062992126
        },
        {
          "duration": 0.13636350000001585,
          "durationTicks": 64,
          "midi": 70,
          "name": "A#4",
          "ticks": 106176,
          "time": 213.18188974609373,
          "velocity": 0.9133858267716536
        },
        {
          "duration": 0.5454540000000065,
          "durationTicks": 256,
          "midi": 69,
          "name": "A4",
          "ticks": 106240,
          "time": 213.31825324609375,
          "velocity": 0.8110236220472441
        },
        {
          "duration": 0.4090904999999907,
          "durationTicks": 192,
          "midi": 74,
          "name": "D5",
          "ticks": 106496,
          "time": 213.86370724609375,
          "velocity": 0.9763779527559056
        },
        {
          "duration": 0.13636349999998743,
          "durationTicks": 64,
          "midi": 72,
          "name": "C5",
          "ticks": 106688,
          "time": 214.27279774609374,
          "velocity": 0.8582677165354331
        },
        {
          "duration": 0.5454540000000065,
          "durationTicks": 256,
          "midi": 70,
          "name": "A#4",
          "ticks": 106752,
          "time": 214.40916124609373,
          "velocity": 0.8267716535433071
        },
        {
          "duration": 1.090908000000013,
          "durationTicks": 512,
          "midi": 79,
          "name": "G5",
          "ticks": 107008,
          "time": 214.95461524609374,
          "velocity": 0.9921259842519685
        },
        {
          "duration": 0.4090904999999907,
          "durationTicks": 192,
          "midi": 70,
          "name": "A#4",
          "ticks": 107520,
          "time": 216.04552324609375,
          "velocity": 0.7322834645669292
        },
        {
          "duration": 0.13636349999998743,
          "durationTicks": 64,
          "midi": 70,
          "name": "A#4",
          "ticks": 107712,
          "time": 216.45461374609374,
          "velocity": 0.8582677165354331
        },
        {
          "duration": 0.5454540000000065,
          "durationTicks": 256,
          "midi": 72,
          "name": "C5",
          "ticks": 107776,
          "time": 216.59097724609373,
          "velocity": 0.952755905511811
        },
        {
          "duration": 1.090908000000013,
          "durationTicks": 512,
          "midi": 69,
          "name": "A4",
          "ticks": 108032,
          "time": 217.13643124609374,
          "velocity": 0.8503937007874016
        },
        {
          "duration": 0.5454539999999781,
          "durationTicks": 256,
          "midi": 72,
          "name": "C5",
          "ticks": 108544,
          "time": 218.22733924609375,
          "velocity": 0.9606299212598425
        },
        {
          "duration": 2.181816000000026,
          "durationTicks": 1024,
          "midi": 73,
          "name": "C#5",
          "ticks": 108800,
          "time": 218.77279324609373,
          "velocity": 0.9606299212598425
        },
        {
          "duration": 2.1818159999999978,
          "durationTicks": 1024,
          "midi": 75,
          "name": "D#5",
          "ticks": 109824,
          "time": 220.95460924609375,
          "velocity": 0.937007874015748
        },
        {
          "duration": 2.7272700000000043,
          "durationTicks": 1280,
          "midi": 72,
          "name": "C5",
          "ticks": 110848,
          "time": 223.13642524609375,
          "velocity": 0.7952755905511811
        },
        {
          "duration": 0.4090904999999907,
          "durationTicks": 192,
          "midi": 57,
          "name": "A3",
          "ticks": 112128,
          "time": 225.86369524609376,
          "velocity": 0.7480314960629921
        },
        {
          "duration": 0.13636349999998743,
          "durationTicks": 64,
          "midi": 57,
          "name": "A3",
          "ticks": 112320,
          "time": 226.27278574609375,
          "velocity": 0.8582677165354331
        },
        {
          "duration": 1.6363620000000196,
          "durationTicks": 768,
          "midi": 57,
          "name": "A3",
          "ticks": 112384,
          "time": 226.40914924609373,
          "velocity": 0.8818897637795275
        }
      ]
    },
    {
      "channel": 0,
      "controlChanges": {
        "7": [
          {
            "number": 7,
            "ticks": 0,
            "time": 0,
            "value": 0.7086614173228346
          }
        ],
        "10": [
          {
            "number": 10,
            "ticks": 0,
            "time": 0,
            "value": 0.25196850393700787
          }
        ],
        "91": [
          {
            "number": 91,
            "ticks": 0,
            "time": 0,
            "value": 0.5984251968503937
          }
        ],
        "121": [
          {
            "number": 121,
            "ticks": 0,
            "time": 0,
            "value": 0
          }
        ]
      },
      "pitchBends": [],
      "instrument": {
        "family": "piano",
        "number": 0,
        "name": "acoustic grand piano"
      },
      "name": "Viola",
      "notes": [],
      "endOfTrackTicks": 113153
    },
    {
      "channel": 2,
      "controlChanges": {},
      "pitchBends": [],
      "instrument": {
        "family": "ensemble",
        "number": 48,
        "name": "string ensemble 1"
      },
      "name": "",
      "notes": [
        {
          "duration": 0.375,
          "durationTicks": 192,
          "midi": 55,
          "name": "G3",
          "ticks": 0,
          "time": 0,
          "velocity": 0.6535433070866141
        },
        {
          "duration": 0.125,
          "durationTicks": 64,
          "midi": 55,
          "name": "G3",
          "ticks": 192,
          "time": 0.375,
          "velocity": 0.7559055118110236
        },
        {
          "duration": 1,
          "durationTicks": 512,
          "midi": 60,
          "name": "C4",
          "ticks": 256,
          "time": 0.5,
          "velocity": 0.8582677165354331
        },
        {
          "duration": 1,
          "durationTicks": 512,
          "midi": 59,
          "name": "B3",
          "ticks": 768,
          "time": 1.5,
          "velocity": 0.7637795275590551
        },
        {
          "duration": 1,
          "durationTicks": 512,
          "midi": 57,
          "name": "A3",
          "ticks": 1280,
          "time": 2.5,
          "velocity": 0.7322834645669292
        },
        {
          "duration": 1,
          "durationTicks": 512,
          "midi": 52,
          "name": "E3",
          "ticks": 1792,
          "time": 3.5,
          "velocity": 0.7165354330708661
        },
        {
          "duration": 1,
          "durationTicks": 512,
          "midi": 53,
          "name": "F3",
          "ticks": 2304,
          "time": 4.5,
          "velocity": 0.7952755905511811
        },
        {
          "duration": 1,
          "durationTicks": 512,
          "midi": 54,
          "name": "F#3",
          "ticks": 2816,
          "time": 5.5,
          "velocity": 0.8267716535433071
        },
        {
          "duration": 1,
          "durationTicks": 512,
          "midi": 55,
          "name": "G3",
          "ticks": 3328,
          "time": 6.5,
          "velocity": 0.7716535433070866
        },
        {
          "duration": 1,
          "durationTicks": 512,
          "midi": 59,
          "name": "B3",
          "ticks": 3840,
          "time": 7.5,
          "velocity": 0.8031496062992126
        },
        {
          "duration": 1,
          "durationTicks": 512,
          "midi": 60,
          "name": "C4",
          "ticks": 4352,
          "time": 8.5,
          "velocity": 0.8188976377952756
        },
        {
          "duration": 1,
          "durationTicks": 512,
          "midi": 59,
          "name": "B3",
          "ticks": 4864,
          "time": 9.5,
          "velocity": 0.7401574803149606
        },
        {
          "duration": 1,
          "durationTicks": 512,
          "midi": 57,
          "name": "A3",
          "ticks": 5376,
          "time": 10.5,
          "velocity": 0.7716535433070866
        },
        {
          "duration": 1,
          "durationTicks": 512,
          "midi": 52,
          "name": "E3",
          "ticks": 5888,
          "time": 11.5,
          "velocity": 0.7244094488188977
        },
        {
          "duration": 2,
          "durationTicks": 1024,
          "midi": 53,
          "name": "F3",
          "ticks": 6400,
          "time": 12.5,
          "velocity": 0.7952755905511811
        },
        {
          "duration": 1.5,
          "durationTicks": 768,
          "midi": 55,
          "name": "G3",
          "ticks": 7424,
          "time": 14.5,
          "velocity": 0.7716535433070866
        },
        {
          "duration": 0.375,
          "durationTicks": 192,
          "midi": 48,
          "name": "C3",
          "ticks": 8192,
          "time": 16,
          "velocity": 0.7165354330708661
        },
        {
          "duration": 0.125,
          "durationTicks": 64,
          "midi": 48,
          "name": "C3",
          "ticks": 8384,
          "time": 16.375,
          "velocity": 0.7637795275590551
        },
        {
          "duration": 1.5,
          "durationTicks": 768,
          "midi": 48,
          "name": "C3",
          "ticks": 8448,
          "time": 16.5,
          "velocity": 0.7244094488188977
        },
        {
          "duration": 0.125,
          "durationTicks": 64,
          "midi": 52,
          "name": "E3",
          "ticks": 9216,
          "time": 18,
          "velocity": 0.5669291338582677
        },
        {
          "duration": 0.125,
          "durationTicks": 64,
          "midi": 52,
          "name": "E3",
          "ticks": 9280,
          "time": 18.125,
          "velocity": 0.5748031496062992
        },
        {
          "duration": 0.125,
          "durationTicks": 64,
          "midi": 52,
          "name": "E3",
          "ticks": 9344,
          "time": 18.25,
          "velocity": 0.5748031496062992
        },
        {
          "duration": 0.125,
          "durationTicks": 64,
          "midi": 52,
          "name": "E3",
          "ticks": 9408,
          "time": 18.375,
          "velocity": 0.5511811023622047
        },
        {
          "duration": 1.5,
          "durationTicks": 768,
          "midi": 53,
          "name": "F3",
          "ticks": 9472,
          "time": 18.5,
          "velocity": 0.5511811023622047
        },
        {
          "duration": 0.166015625,
          "durationTicks": 85,
          "midi": 53,
          "name": "F3",
          "ticks": 10240,
          "time": 20,
          "velocity": 0.5748031496062992
        },
        {
          "duration": 0.166015625,
          "durationTicks": 85,
          "midi": 53,
          "name": "F3",
          "ticks": 10325,
          "time": 20.166015625,
          "velocity": 0.5433070866141733
        },
        {
          "duration": 0.16796875,
          "durationTicks": 86,
          "midi": 53,
          "name": "F3",
          "ticks": 10410,
          "time": 20.33203125,
          "velocity": 0.5039370078740157
        },
        {
          "duration": 1.5,
          "durationTicks": 768,
          "midi": 56,
          "name": "G#3",
          "ticks": 10496,
          "time": 20.5,
          "velocity": 0.5669291338582677
        },
        {
          "duration": 0.166015625,
          "durationTicks": 85,
          "midi": 56,
          "name": "G#3",
          "ticks": 11264,
          "time": 22,
          "velocity": 0.5354330708661418
        },
        {
          "duration": 0.166015625,
          "durationTicks": 85,
          "midi": 55,
          "name": "G3",
          "ticks": 11349,
          "time": 22.166015625,
          "velocity": 0.5196850393700787
        },
        {
          "duration": 0.16796875,
          "durationTicks": 86,
          "midi": 53,
          "name": "F3",
          "ticks": 11434,
          "time": 22.33203125,
          "velocity": 0.5196850393700787
        },
        {
          "duration": 1.5,
          "durationTicks": 768,
          "midi": 55,
          "name": "G3",
          "ticks": 11520,
          "time": 22.5,
          "velocity": 0.5748031496062992
        },
        {
          "duration": 8,
          "durationTicks": 4096,
          "midi": 48,
          "name": "C3",
          "ticks": 12288,
          "time": 24,
          "velocity": 0.5118110236220472
        },
        {
          "duration": 0.185546875,
          "durationTicks": 95,
          "midi": 67,
          "name": "G4",
          "ticks": 16384,
          "time": 32,
          "velocity": 0.6850393700787402
        },
        {
          "duration": 0.125,
          "durationTicks": 64,
          "midi": 67,
          "name": "G4",
          "ticks": 16576,
          "time": 32.375,
          "velocity": 0.5905511811023622
        },
        {
          "duration": 1.5,
          "durationTicks": 768,
          "midi": 72,
          "name": "C5",
          "ticks": 16640,
          "time": 32.5,
          "velocity": 0.6456692913385826
        },
        {
          "duration": 0.166015625,
          "durationTicks": 85,
          "midi": 72,
          "name": "C5",
          "ticks": 17408,
          "time": 34,
          "velocity": 0.5511811023622047
        },
        {
          "duration": 0.166015625,
          "durationTicks": 85,
          "midi": 71,
          "name": "B4",
          "ticks": 17493,
          "time": 34.166015625,
          "velocity": 0.5196850393700787
        },
        {
          "duration": 0.16796875,
          "durationTicks": 86,
          "midi": 69,
          "name": "A4",
          "ticks": 17578,
          "time": 34.33203125,
          "velocity": 0.5275590551181102
        },
        {
          "duration": 1.5,
          "durationTicks": 768,
          "midi": 71,
          "name": "B4",
          "ticks": 17664,
          "time": 34.5,
          "velocity": 0.5511811023622047
        },
        {
          "duration": 0.185546875,
          "durationTicks": 95,
          "midi": 67,
          "name": "G4",
          "ticks": 18432,
          "time": 36,
          "velocity": 0.49606299212598426
        },
        {
          "duration": 0.125,
          "durationTicks": 64,
          "midi": 67,
          "name": "G4",
          "ticks": 18624,
          "time": 36.375,
          "velocity": 0.5511811023622047
        },
        {
          "duration": 1.5,
          "durationTicks": 768,
          "midi": 69,
          "name": "A4",
          "ticks": 18688,
          "time": 36.5,
          "velocity": 0.5984251968503937
        },
        {
          "duration": 0.166015625,
          "durationTicks": 85,
          "midi": 69,
          "name": "A4",
          "ticks": 19456,
          "time": 38,
          "velocity": 0.5748031496062992
        },
        {
          "duration": 0.166015625,
          "durationTicks": 85,
          "midi": 67,
          "name": "G4",
          "ticks": 19541,
          "time": 38.166015625,
          "velocity": 0.5118110236220472
        },
        {
          "duration": 0.16796875,
          "durationTicks": 86,
          "midi": 65,
          "name": "F4",
          "ticks": 19626,
          "time": 38.33203125,
          "velocity": 0.5275590551181102
        },
        {
          "duration": 1.5,
          "durationTicks": 768,
          "midi": 67,
          "name": "G4",
          "ticks": 19712,
          "time": 38.5,
          "velocity": 0.5984251968503937
        },
        {
          "duration": 0.5,
          "durationTicks": 256,
          "midi": 60,
          "name": "C4",
          "ticks": 20480,
          "time": 40,
          "velocity": 0.48031496062992124
        },
        {
          "duration": 1.5,
          "durationTicks": 768,
          "midi": 65,
          "name": "F4",
          "ticks": 20736,
          "time": 40.5,
          "velocity": 0.6456692913385826
        },
        {
          "duration": 0.166015625,
          "durationTicks": 85,
          "midi": 65,
          "name": "F4",
          "ticks": 21504,
          "time": 42,
          "velocity": 0.5118110236220472
        },
        {
          "duration": 0.166015625,
          "durationTicks": 85,
          "midi": 64,
          "name": "E4",
          "ticks": 21589,
          "time": 42.166015625,
          "velocity": 0.5590551181102362
        },
        {
          "duration": 0.16796875,
          "durationTicks": 86,
          "midi": 62,
          "name": "D4",
          "ticks": 21674,
          "time": 42.33203125,
          "velocity": 0.5354330708661418
        },
        {
          "duration": 1.5,
          "durationTicks": 768,
          "midi": 64,
          "name": "E4",
          "ticks": 21760,
          "time": 42.5,
          "velocity": 0.5590551181102362
        },
        {
          "duration": 0.5,
          "durationTicks": 256,
          "midi": 60,
          "name": "C4",
          "ticks": 22528,
          "time": 44,
          "velocity": 0.47244094488188976
        },
        {
          "duration": 1.5,
          "durationTicks": 768,
          "midi": 62,
          "name": "D4",
          "ticks": 22784,
          "time": 44.5,
          "velocity": 0.5905511811023622
        },
        {
          "duration": 0.5,
          "durationTicks": 256,
          "midi": 60,
          "name": "C4",
          "ticks": 23552,
          "time": 46,
          "velocity": 0.5590551181102362
        },
        {
          "duration": 1.5,
          "durationTicks": 768,
          "midi": 59,
          "name": "B3",
          "ticks": 23808,
          "time": 46.5,
          "velocity": 0.5511811023622047
        },
        {
          "duration": 0.185546875,
          "durationTicks": 95,
          "midi": 64,
          "name": "E4",
          "ticks": 24576,
          "time": 48,
          "velocity": 0.8740157480314961
        },
        {
          "duration": 0.125,
          "durationTicks": 64,
          "midi": 64,
          "name": "E4",
          "ticks": 24768,
          "time": 48.375,
          "velocity": 0.7874015748031497
        },
        {
          "duration": 1.5,
          "durationTicks": 768,
          "midi": 69,
          "name": "A4",
          "ticks": 24832,
          "time": 48.5,
          "velocity": 0.8267716535433071
        },
        {
          "duration": 0.166015625,
          "durationTicks": 85,
          "midi": 69,
          "name": "A4",
          "ticks": 25600,
          "time": 50,
          "velocity": 0.8110236220472441
        },
        {
          "duration": 0.166015625,
          "durationTicks": 85,
          "midi": 67,
          "name": "G4",
          "ticks": 25685,
          "time": 50.166015625,
          "velocity": 0.7322834645669292
        },
        {
          "duration": 0.16796875,
          "durationTicks": 86,
          "midi": 65,
          "name": "F4",
          "ticks": 25770,
          "time": 50.33203125,
          "velocity": 0.7086614173228346
        },
        {
          "duration": 1.5,
          "durationTicks": 768,
          "midi": 67,
          "name": "G4",
          "ticks": 25856,
          "time": 50.5,
          "velocity": 0.7795275590551181
        },
        {
          "duration": 0.185546875,
          "durationTicks": 95,
          "midi": 64,
          "name": "E4",
          "ticks": 26624,
          "time": 52,
          "velocity": 0.7086614173228346
        },
        {
          "duration": 0.125,
          "durationTicks": 64,
          "midi": 64,
          "name": "E4",
          "ticks": 26816,
          "time": 52.375,
          "velocity": 0.7480314960629921
        },
        {
          "duration": 1.5,
          "durationTicks": 768,
          "midi": 65,
          "name": "F4",
          "ticks": 26880,
          "time": 52.5,
          "velocity": 0.8031496062992126
        },
        {
          "duration": 0.166015625,
          "durationTicks": 85,
          "midi": 65,
          "name": "F4",
          "ticks": 27648,
          "time": 54,
          "velocity": 0.7874015748031497
        },
        {
          "duration": 0.166015625,
          "durationTicks": 85,
          "midi": 64,
          "name": "E4",
          "ticks": 27733,
          "time": 54.166015625,
          "velocity": 0.6929133858267716
        },
        {
          "duration": 0.16796875,
          "durationTicks": 86,
          "midi": 62,
          "name": "D4",
          "ticks": 27818,
          "time": 54.33203125,
          "velocity": 0.6929133858267716
        },
        {
          "duration": 1.5,
          "durationTicks": 768,
          "midi": 64,
          "name": "E4",
          "ticks": 27904,
          "time": 54.5,
          "velocity": 0.8110236220472441
        },
        {
          "duration": 0.5,
          "durationTicks": 256,
          "midi": 57,
          "name": "A3",
          "ticks": 28672,
          "time": 56,
          "velocity": 0.7086614173228346
        },
        {
          "duration": 1.5,
          "durationTicks": 768,
          "midi": 62,
          "name": "D4",
          "ticks": 28928,
          "time": 56.5,
          "velocity": 0.8661417322834646
        },
        {
          "duration": 0.166015625,
          "durationTicks": 85,
          "midi": 62,
          "name": "D4",
          "ticks": 29696,
          "time": 58,
          "velocity": 0.7637795275590551
        },
        {
          "duration": 0.166015625,
          "durationTicks": 85,
          "midi": 60,
          "name": "C4",
          "ticks": 29781,
          "time": 58.166015625,
          "velocity": 0.7007874015748031
        },
        {
          "duration": 0.16796875,
          "durationTicks": 86,
          "midi": 59,
          "name": "B3",
          "ticks": 29866,
          "time": 58.33203125,
          "velocity": 0.7401574803149606
        },
        {
          "duration": 1.5,
          "durationTicks": 768,
          "midi": 60,
          "name": "C4",
          "ticks": 29952,
          "time": 58.5,
          "velocity": 0.7952755905511811
        },
        {
          "duration": 0.185546875,
          "durationTicks": 95,
          "midi": 65,
          "name": "F4",
          "ticks": 30720,
          "time": 60,
          "velocity": 0.889763779527559
        },
        {
          "duration": 0.125,
          "durationTicks": 64,
          "midi": 67,
          "name": "G4",
          "ticks": 30912,
          "time": 60.375,
          "velocity": 0.8031496062992126
        },
        {
          "duration": 1.5,
          "durationTicks": 768,
          "midi": 68,
          "name": "G#4",
          "ticks": 30976,
          "time": 60.5,
          "velocity": 0.8346456692913385
        },
        {
          "duration": 0.185546875,
          "durationTicks": 95,
          "midi": 65,
          "name": "F4",
          "ticks": 31744,
          "time": 62,
          "velocity": 0.6850393700787402
        },
        {
          "duration": 0.125,
          "durationTicks": 64,
          "midi": 66,
          "name": "F#4",
          "ticks": 31936,
          "time": 62.375,
          "velocity": 0.7795275590551181
        },
        {
          "duration": 1.5,
          "durationTicks": 768,
          "midi": 67,
          "name": "G4",
          "ticks": 32000,
          "time": 62.5,
          "velocity": 0.7874015748031497
        },
        {
          "duration": 0.185546875,
          "durationTicks": 95,
          "midi": 65,
          "name": "F4",
          "ticks": 32768,
          "time": 64,
          "velocity": 0.7322834645669292
        },
        {
          "duration": 0.125,
          "durationTicks": 64,
          "midi": 66,
          "name": "F#4",
          "ticks": 32960,
          "time": 64.375,
          "velocity": 0.8346456692913385
        },
        {
          "duration": 1.5,
          "durationTicks": 768,
          "midi": 67,
          "name": "G4",
          "ticks": 33024,
          "time": 64.5,
          "velocity": 0.8267716535433071
        },
        {
          "duration": 0.1668152343749938,
          "durationTicks": 85,
          "midi": 72,
          "name": "C5",
          "ticks": 33792,
          "time": 66,
          "velocity": 0.8740157480314961
        },
        {
          "duration": 0.17038683593750648,
          "durationTicks": 85,
          "midi": 72,
          "name": "C5",
          "ticks": 33877,
          "time": 66.166815234375,
          "velocity": 0.7874015748031497
        },
        {
          "duration": 0.17672439843748577,
          "durationTicks": 86,
          "midi": 72,
          "name": "C5",
          "ticks": 33962,
          "time": 66.3372020703125,
          "velocity": 0.7559055118110236
        },
        {
          "duration": 1.8026555468750018,
          "durationTicks": 768,
          "midi": 72,
          "name": "C5",
          "ticks": 34048,
          "time": 66.51392646874999,
          "velocity": 0.7480314960629921
        },
        {
          "duration": 2.0689650000000057,
          "durationTicks": 768,
          "midi": 74,
          "name": "D5",
          "ticks": 34816,
          "time": 68.31658201562499,
          "velocity": 0.8188976377952756
        },
        {
          "duration": 0.375,
          "durationTicks": 192,
          "midi": 55,
          "name": "G3",
          "ticks": 35840,
          "time": 71.07520201562498,
          "velocity": 0.7086614173228346
        },
        {
          "duration": 0.125,
          "durationTicks": 64,
          "midi": 55,
          "name": "G3",
          "ticks": 36032,
          "time": 71.45020201562498,
          "velocity": 0.7795275590551181
        },
        {
          "duration": 1,
          "durationTicks": 512,
          "midi": 60,
          "name": "C4",
          "ticks": 36096,
          "time": 71.57520201562498,
          "velocity": 0.8740157480314961
        },
        {
          "duration": 1,
          "durationTicks": 512,
          "midi": 59,
          "name": "B3",
          "ticks": 36608,
          "time": 72.57520201562498,
          "velocity": 0.7874015748031497
        },
        {
          "duration": 1,
          "durationTicks": 512,
          "midi": 57,
          "name": "A3",
          "ticks": 37120,
          "time": 73.57520201562498,
          "velocity": 0.7716535433070866
        },
        {
          "duration": 1,
          "durationTicks": 512,
          "midi": 52,
          "name": "E3",
          "ticks": 37632,
          "time": 74.57520201562498,
          "velocity": 0.7480314960629921
        },
        {
          "duration": 1,
          "durationTicks": 512,
          "midi": 53,
          "name": "F3",
          "ticks": 38144,
          "time": 75.57520201562498,
          "velocity": 0.7480314960629921
        },
        {
          "duration": 1,
          "durationTicks": 512,
          "midi": 54,
          "name": "F#3",
          "ticks": 38656,
          "time": 76.57520201562498,
          "velocity": 0.7874015748031497
        },
        {
          "duration": 1,
          "durationTicks": 512,
          "midi": 55,
          "name": "G3",
          "ticks": 39168,
          "time": 77.57520201562498,
          "velocity": 0.8188976377952756
        },
        {
          "duration": 1,
          "durationTicks": 512,
          "midi": 59,
          "name": "B3",
          "ticks": 39680,
          "time": 78.57520201562498,
          "velocity": 0.7795275590551181
        },
        {
          "duration": 1,
          "durationTicks": 512,
          "midi": 60,
          "name": "C4",
          "ticks": 40192,
          "time": 79.57520201562498,
          "velocity": 0.7716535433070866
        },
        {
          "duration": 1,
          "durationTicks": 512,
          "midi": 59,
          "name": "B3",
          "ticks": 40704,
          "time": 80.57520201562498,
          "velocity": 0.7086614173228346
        },
        {
          "duration": 1,
          "durationTicks": 512,
          "midi": 57,
          "name": "A3",
          "ticks": 41216,
          "time": 81.57520201562498,
          "velocity": 0.7480314960629921
        },
        {
          "duration": 1,
          "durationTicks": 512,
          "midi": 52,
          "name": "E3",
          "ticks": 41728,
          "time": 82.57520201562498,
          "velocity": 0.7086614173228346
        },
        {
          "duration": 1,
          "durationTicks": 512,
          "midi": 53,
          "name": "F3",
          "ticks": 42240,
          "time": 83.57520201562498,
          "velocity": 0.7716535433070866
        },
        {
          "duration": 1,
          "durationTicks": 512,
          "midi": 55,
          "name": "G3",
          "ticks": 42752,
          "time": 84.57520201562498,
          "velocity": 0.8110236220472441
        },
        {
          "duration": 1.5,
          "durationTicks": 768,
          "midi": 60,
          "name": "C4",
          "ticks": 43264,
          "time": 85.57520201562498,
          "velocity": 0.8661417322834646
        },
        {
          "duration": 2,
          "durationTicks": 1024,
          "midi": 53,
          "name": "F3",
          "ticks": 44288,
          "time": 87.57520201562498,
          "velocity": 0.5669291338582677
        },
        {
          "duration": 2,
          "durationTicks": 1024,
          "midi": 52,
          "name": "E3",
          "ticks": 45312,
          "time": 89.57520201562498,
          "velocity": 0.5984251968503937
        },
        {
          "duration": 1,
          "durationTicks": 512,
          "midi": 50,
          "name": "D3",
          "ticks": 46336,
          "time": 91.57520201562498,
          "velocity": 0.5984251968503937
        },
        {
          "duration": 1,
          "durationTicks": 512,
          "midi": 55,
          "name": "G3",
          "ticks": 46848,
          "time": 92.57520201562498,
          "velocity": 0.7165354330708661
        },
        {
          "duration": 2,
          "durationTicks": 1024,
          "midi": 48,
          "name": "C3",
          "ticks": 47360,
          "time": 93.57520201562498,
          "velocity": 0.6220472440944882
        },
        {
          "duration": 2,
          "durationTicks": 1024,
          "midi": 53,
          "name": "F3",
          "ticks": 48384,
          "time": 95.57520201562498,
          "velocity": 0.6850393700787402
        },
        {
          "duration": 2,
          "durationTicks": 1024,
          "midi": 52,
          "name": "E3",
          "ticks": 49408,
          "time": 97.57520201562498,
          "velocity": 0.6456692913385826
        },
        {
          "duration": 2.162559031249998,
          "durationTicks": 1024,
          "midi": 50,
          "name": "D3",
          "ticks": 50432,
          "time": 99.57520201562498,
          "velocity": 0.6299212598425197
        },
        {
          "duration": 2.0301487851562285,
          "durationTicks": 768,
          "midi": 55,
          "name": "G3",
          "ticks": 51456,
          "time": 101.73776104687498,
          "velocity": 0.6850393700787402
        },
        {
          "duration": 0.185546875,
          "durationTicks": 95,
          "midi": 67,
          "name": "G4",
          "ticks": 52224,
          "time": 103.76790983203121,
          "velocity": 0.8267716535433071
        },
        {
          "duration": 0.125,
          "durationTicks": 64,
          "midi": 67,
          "name": "G4",
          "ticks": 52416,
          "time": 104.14290983203121,
          "velocity": 0.7086614173228346
        },
        {
          "duration": 0.5,
          "durationTicks": 256,
          "midi": 72,
          "name": "C5",
          "ticks": 52480,
          "time": 104.26790983203121,
          "velocity": 0.7637795275590551
        },
        {
          "duration": 0.185546875,
          "durationTicks": 95,
          "midi": 67,
          "name": "G4",
          "ticks": 52736,
          "time": 104.76790983203121,
          "velocity": 0.6456692913385826
        },
        {
          "duration": 0.125,
          "durationTicks": 64,
          "midi": 72,
          "name": "C5",
          "ticks": 52928,
          "time": 105.14290983203121,
          "velocity": 0.7559055118110236
        },
        {
          "duration": 0.5,
          "durationTicks": 256,
          "midi": 74,
          "name": "D5",
          "ticks": 52992,
          "time": 105.26790983203121,
          "velocity": 0.7007874015748031
        },
        {
          "duration": 0.185546875,
          "durationTicks": 95,
          "midi": 67,
          "name": "G4",
          "ticks": 53248,
          "time": 105.76790983203121,
          "velocity": 0.5196850393700787
        },
        {
          "duration": 0.125,
          "durationTicks": 64,
          "midi": 74,
          "name": "D5",
          "ticks": 53440,
          "time": 106.14290983203121,
          "velocity": 0.7795275590551181
        },
        {
          "duration": 0.75,
          "durationTicks": 384,
          "midi": 77,
          "name": "F5",
          "ticks": 53504,
          "time": 106.26790983203121,
          "velocity": 0.7007874015748031
        },
        {
          "duration": 0.125,
          "durationTicks": 64,
          "midi": 76,
          "name": "E5",
          "ticks": 53888,
          "time": 107.01790983203121,
          "velocity": 0.6692913385826772
        },
        {
          "duration": 0.125,
          "durationTicks": 64,
          "midi": 74,
          "name": "D5",
          "ticks": 53952,
          "time": 107.14290983203121,
          "velocity": 0.6220472440944882
        },
        {
          "duration": 0.5,
          "durationTicks": 256,
          "midi": 72,
          "name": "C5",
          "ticks": 54016,
          "time": 107.26790983203121,
          "velocity": 0.6377952755905512
        },
        {
          "duration": 0.5,
          "durationTicks": 256,
          "midi": 67,
          "name": "G4",
          "ticks": 54272,
          "time": 107.76790983203121,
          "velocity": 0.5748031496062992
        },
        {
          "duration": 0.5,
          "durationTicks": 256,
          "midi": 69,
          "name": "A4",
          "ticks": 54528,
          "time": 108.26790983203121,
          "velocity": 0.7007874015748031
        },
        {
          "duration": 0.5,
          "durationTicks": 256,
          "midi": 72,
          "name": "C5",
          "ticks": 54784,
          "time": 108.76790983203121,
          "velocity": 0.7244094488188977
        },
        {
          "duration": 0.5,
          "durationTicks": 256,
          "midi": 74,
          "name": "D5",
          "ticks": 55040,
          "time": 109.26790983203121,
          "velocity": 0.7086614173228346
        },
        {
          "duration": 0.5,
          "durationTicks": 256,
          "midi": 72,
          "name": "C5",
          "ticks": 55296,
          "time": 109.76790983203121,
          "velocity": 0.6535433070866141
        },
        {
          "duration": 0.75,
          "durationTicks": 384,
          "midi": 72,
          "name": "C5",
          "ticks": 55552,
          "time": 110.26790983203121,
          "velocity": 0.6299212598425197
        },
        {
          "duration": 0.125,
          "durationTicks": 64,
          "midi": 71,
          "name": "B4",
          "ticks": 55936,
          "time": 111.01790983203121,
          "velocity": 0.5984251968503937
        },
        {
          "duration": 0.125,
          "durationTicks": 64,
          "midi": 69,
          "name": "A4",
          "ticks": 56000,
          "time": 111.14290983203121,
          "velocity": 0.5905511811023622
        },
        {
          "duration": 0.5,
          "durationTicks": 256,
          "midi": 67,
          "name": "G4",
          "ticks": 56064,
          "time": 111.26790983203121,
          "velocity": 0.6377952755905512
        },
        {
          "duration": 0.185546875,
          "durationTicks": 95,
          "midi": 67,
          "name": "G4",
          "ticks": 56320,
          "time": 111.76790983203121,
          "velocity": 0.7007874015748031
        },
        {
          "duration": 0.125,
          "durationTicks": 64,
          "midi": 67,
          "name": "G4",
          "ticks": 56512,
          "time": 112.14290983203121,
          "velocity": 0.6535433070866141
        },
        {
          "duration": 0.5,
          "durationTicks": 256,
          "midi": 72,
          "name": "C5",
          "ticks": 56576,
          "time": 112.26790983203121,
          "velocity": 0.7559055118110236
        },
        {
          "duration": 0.185546875,
          "durationTicks": 95,
          "midi": 67,
          "name": "G4",
          "ticks": 56832,
          "time": 112.76790983203121,
          "velocity": 0.5826771653543307
        },
        {
          "duration": 0.125,
          "durationTicks": 64,
          "midi": 72,
          "name": "C5",
          "ticks": 57024,
          "time": 113.14290983203121,
          "velocity": 0.7244094488188977
        },
        {
          "duration": 0.5,
          "durationTicks": 256,
          "midi": 74,
          "name": "D5",
          "ticks": 57088,
          "time": 113.26790983203121,
          "velocity": 0.7165354330708661
        },
        {
          "duration": 0.185546875,
          "durationTicks": 95,
          "midi": 67,
          "name": "G4",
          "ticks": 57344,
          "time": 113.76790983203121,
          "velocity": 0.49606299212598426
        },
        {
          "duration": 0.125,
          "durationTicks": 64,
          "midi": 74,
          "name": "D5",
          "ticks": 57536,
          "time": 114.14290983203121,
          "velocity": 0.7559055118110236
        },
        {
          "duration": 0.75,
          "durationTicks": 384,
          "midi": 77,
          "name": "F5",
          "ticks": 57600,
          "time": 114.26790983203121,
          "velocity": 0.7559055118110236
        },
        {
          "duration": 0.125,
          "durationTicks": 64,
          "midi": 76,
          "name": "E5",
          "ticks": 57984,
          "time": 115.01790983203121,
          "velocity": 0.5905511811023622
        },
        {
          "duration": 0.125,
          "durationTicks": 64,
          "midi": 77,
          "name": "F5",
          "ticks": 58048,
          "time": 115.14290983203121,
          "velocity": 0.6850393700787402
        },
        {
          "duration": 0.5,
          "durationTicks": 256,
          "midi": 79,
          "name": "G5",
          "ticks": 58112,
          "time": 115.26790983203121,
          "velocity": 0.7086614173228346
        },
        {
          "duration": 0.375,
          "durationTicks": 192,
          "midi": 72,
          "name": "C5",
          "ticks": 58368,
          "time": 115.76790983203121,
          "velocity": 0.5354330708661418
        },
        {
          "duration": 0.125,
          "durationTicks": 64,
          "midi": 71,
          "name": "B4",
          "ticks": 58560,
          "time": 116.14290983203121,
          "velocity": 0.6141732283464567
        },
        {
          "duration": 0.5,
          "durationTicks": 256,
          "midi": 69,
          "name": "A4",
          "ticks": 58624,
          "time": 116.26790983203121,
          "velocity": 0.6141732283464567
        },
        {
          "duration": 0.5,
          "durationTicks": 256,
          "midi": 81,
          "name": "A5",
          "ticks": 58880,
          "time": 116.76790983203121,
          "velocity": 0.8503937007874016
        },
        {
          "duration": 0.5,
          "durationTicks": 256,
          "midi": 77,
          "name": "F5",
          "ticks": 59136,
          "time": 117.26790983203121,
          "velocity": 0.6220472440944882
        },
        {
          "duration": 0.166015625,
          "durationTicks": 85,
          "midi": 77,
          "name": "F5",
          "ticks": 59392,
          "time": 117.76790983203121,
          "velocity": 0.6456692913385826
        },
        {
          "duration": 0.166015625,
          "durationTicks": 85,
          "midi": 76,
          "name": "E5",
          "ticks": 59477,
          "time": 117.93392545703121,
          "velocity": 0.6062992125984252
        },
        {
          "duration": 0.16796875,
          "durationTicks": 86,
          "midi": 74,
          "name": "D5",
          "ticks": 59562,
          "time": 118.09994108203121,
          "velocity": 0.5984251968503937
        },
        {
          "duration": 1.5,
          "durationTicks": 768,
          "midi": 76,
          "name": "E5",
          "ticks": 59648,
          "time": 118.26790983203121,
          "velocity": 0.7086614173228346
        },
        {
          "duration": 0.123046875,
          "durationTicks": 63,
          "midi": 79,
          "name": "G5",
          "ticks": 60672,
          "time": 120.26790983203121,
          "velocity": 0.5826771653543307
        },
        {
          "duration": 0.123046875,
          "durationTicks": 63,
          "midi": 79,
          "name": "G5",
          "ticks": 60800,
          "time": 120.51790983203121,
          "velocity": 0.6614173228346457
        },
        {
          "duration": 0.123046875,
          "durationTicks": 63,
          "midi": 79,
          "name": "G5",
          "ticks": 60928,
          "time": 120.76790983203121,
          "velocity": 0.6299212598425197
        },
        {
          "duration": 0.123046875,
          "durationTicks": 63,
          "midi": 79,
          "name": "G5",
          "ticks": 61056,
          "time": 121.01790983203121,
          "velocity": 0.6535433070866141
        },
        {
          "duration": 0.123046875,
          "durationTicks": 63,
          "midi": 79,
          "name": "G5",
          "ticks": 61184,
          "time": 121.26790983203121,
          "velocity": 0.6220472440944882
        },
        {
          "duration": 0.123046875,
          "durationTicks": 63,
          "midi": 79,
          "name": "G5",
          "ticks": 61312,
          "time": 121.51790983203121,
          "velocity": 0.6614173228346457
        },
        {
          "duration": 0.123046875,
          "durationTicks": 63,
          "midi": 79,
          "name": "G5",
          "ticks": 61440,
          "time": 121.76790983203121,
          "velocity": 0.6062992125984252
        },
        {
          "duration": 0.5,
          "durationTicks": 256,
          "midi": 81,
          "name": "A5",
          "ticks": 61568,
          "time": 122.01790983203121,
          "velocity": 0.7165354330708661
        },
        {
          "duration": 0.123046875,
          "durationTicks": 63,
          "midi": 81,
          "name": "A5",
          "ticks": 61824,
          "time": 122.51790983203121,
          "velocity": 0.6456692913385826
        },
        {
          "duration": 0.123046875,
          "durationTicks": 63,
          "midi": 81,
          "name": "A5",
          "ticks": 61952,
          "time": 122.76790983203121,
          "velocity": 0.5984251968503937
        },
        {
          "duration": 0.123046875,
          "durationTicks": 63,
          "midi": 81,
          "name": "A5",
          "ticks": 62080,
          "time": 123.01790983203121,
          "velocity": 0.6771653543307087
        },
        {
          "duration": 0.123046875,
          "durationTicks": 63,
          "midi": 81,
          "name": "A5",
          "ticks": 62208,
          "time": 123.26790983203121,
          "velocity": 0.6535433070866141
        },
        {
          "duration": 0.123046875,
          "durationTicks": 63,
          "midi": 81,
          "name": "A5",
          "ticks": 62336,
          "time": 123.51790983203121,
          "velocity": 0.6614173228346457
        },
        {
          "duration": 0.123046875,
          "durationTicks": 63,
          "midi": 81,
          "name": "A5",
          "ticks": 62464,
          "time": 123.76790983203121,
          "velocity": 0.6535433070866141
        },
        {
          "duration": 0.5,
          "durationTicks": 256,
          "midi": 77,
          "name": "F5",
          "ticks": 62592,
          "time": 124.01790983203121,
          "velocity": 0.5669291338582677
        },
        {
          "duration": 0.123046875,
          "durationTicks": 63,
          "midi": 77,
          "name": "F5",
          "ticks": 62848,
          "time": 124.51790983203121,
          "velocity": 0.6535433070866141
        },
        {
          "duration": 0.123046875,
          "durationTicks": 63,
          "midi": 77,
          "name": "F5",
          "ticks": 62976,
          "time": 124.76790983203121,
          "velocity": 0.6456692913385826
        },
        {
          "duration": 0.123046875,
          "durationTicks": 63,
          "midi": 77,
          "name": "F5",
          "ticks": 63104,
          "time": 125.01790983203121,
          "velocity": 0.6141732283464567
        },
        {
          "duration": 0.123046875,
          "durationTicks": 63,
          "midi": 77,
          "name": "F5",
          "ticks": 63232,
          "time": 125.26790983203121,
          "velocity": 0.6692913385826772
        },
        {
          "duration": 0.123046875,
          "durationTicks": 63,
          "midi": 77,
          "name": "F5",
          "ticks": 63360,
          "time": 125.51790983203121,
          "velocity": 0.6456692913385826
        },
        {
          "duration": 0.123046875,
          "durationTicks": 63,
          "midi": 77,
          "name": "F5",
          "ticks": 63488,
          "time": 125.76790983203121,
          "velocity": 0.6614173228346457
        },
        {
          "duration": 0.5,
          "durationTicks": 256,
          "midi": 79,
          "name": "G5",
          "ticks": 63616,
          "time": 126.01790983203121,
          "velocity": 0.7244094488188977
        },
        {
          "duration": 0.123046875,
          "durationTicks": 63,
          "midi": 79,
          "name": "G5",
          "ticks": 63872,
          "time": 126.51790983203121,
          "velocity": 0.6299212598425197
        },
        {
          "duration": 0.123046875,
          "durationTicks": 63,
          "midi": 79,
          "name": "G5",
          "ticks": 64000,
          "time": 126.76790983203121,
          "velocity": 0.6692913385826772
        },
        {
          "duration": 0.123046875,
          "durationTicks": 63,
          "midi": 79,
          "name": "G5",
          "ticks": 64128,
          "time": 127.01790983203121,
          "velocity": 0.6614173228346457
        },
        {
          "duration": 0.123046875,
          "durationTicks": 63,
          "midi": 79,
          "name": "G5",
          "ticks": 64256,
          "time": 127.26790983203121,
          "velocity": 0.6377952755905512
        },
        {
          "duration": 0.123046875,
          "durationTicks": 63,
          "midi": 79,
          "name": "G5",
          "ticks": 64384,
          "time": 127.51790983203121,
          "velocity": 0.6771653543307087
        },
        {
          "duration": 1.5,
          "durationTicks": 768,
          "midi": 64,
          "name": "E4",
          "ticks": 64768,
          "time": 128.2679098320312,
          "velocity": 0.6299212598425197
        },
        {
          "duration": 0.375,
          "durationTicks": 192,
          "midi": 60,
          "name": "C4",
          "ticks": 65536,
          "time": 129.7679098320312,
          "velocity": 0.5354330708661418
        },
        {
          "duration": 0.125,
          "durationTicks": 64,
          "midi": 57,
          "name": "A3",
          "ticks": 65728,
          "time": 130.1429098320312,
          "velocity": 0.5984251968503937
        },
        {
          "duration": 2,
          "durationTicks": 1024,
          "midi": 65,
          "name": "F4",
          "ticks": 65792,
          "time": 130.2679098320312,
          "velocity": 0.7952755905511811
        },
        {
          "duration": 1.5,
          "durationTicks": 768,
          "midi": 62,
          "name": "D4",
          "ticks": 66816,
          "time": 132.2679098320312,
          "velocity": 0.6141732283464567
        },
        {
          "duration": 0.375,
          "durationTicks": 192,
          "midi": 59,
          "name": "B3",
          "ticks": 67584,
          "time": 133.7679098320312,
          "velocity": 0.6614173228346457
        },
        {
          "duration": 0.125,
          "durationTicks": 64,
          "midi": 55,
          "name": "G3",
          "ticks": 67776,
          "time": 134.1429098320312,
          "velocity": 0.6141732283464567
        },
        {
          "duration": 2,
          "durationTicks": 1024,
          "midi": 64,
          "name": "E4",
          "ticks": 67840,
          "time": 134.2679098320312,
          "velocity": 0.8110236220472441
        },
        {
          "duration": 1.5,
          "durationTicks": 768,
          "midi": 64,
          "name": "E4",
          "ticks": 68864,
          "time": 136.2679098320312,
          "velocity": 0.6535433070866141
        },
        {
          "duration": 0.375,
          "durationTicks": 192,
          "midi": 60,
          "name": "C4",
          "ticks": 69632,
          "time": 137.7679098320312,
          "velocity": 0.5826771653543307
        },
        {
          "duration": 0.125,
          "durationTicks": 64,
          "midi": 57,
          "name": "A3",
          "ticks": 69824,
          "time": 138.1429098320312,
          "velocity": 0.6220472440944882
        },
        {
          "duration": 2,
          "durationTicks": 1024,
          "midi": 65,
          "name": "F4",
          "ticks": 69888,
          "time": 138.2679098320312,
          "velocity": 0.8031496062992126
        },
        {
          "duration": 1.5,
          "durationTicks": 768,
          "midi": 62,
          "name": "D4",
          "ticks": 70912,
          "time": 140.2679098320312,
          "velocity": 0.5984251968503937
        },
        {
          "duration": 0.185546875,
          "durationTicks": 95,
          "midi": 59,
          "name": "B3",
          "ticks": 71680,
          "time": 141.7679098320312,
          "velocity": 0.6299212598425197
        },
        {
          "duration": 0.125,
          "durationTicks": 64,
          "midi": 55,
          "name": "G3",
          "ticks": 71872,
          "time": 142.1429098320312,
          "velocity": 0.6377952755905512
        },
        {
          "duration": 1.5,
          "durationTicks": 768,
          "midi": 64,
          "name": "E4",
          "ticks": 71936,
          "time": 142.2679098320312,
          "velocity": 0.7795275590551181
        },
        {
          "duration": 0.5,
          "durationTicks": 256,
          "midi": 62,
          "name": "D4",
          "ticks": 72704,
          "time": 143.7679098320312,
          "velocity": 0.6141732283464567
        },
        {
          "duration": 1.5,
          "durationTicks": 768,
          "midi": 60,
          "name": "C4",
          "ticks": 72960,
          "time": 144.2679098320312,
          "velocity": 0.6141732283464567
        },
        {
          "duration": 0.185546875,
          "durationTicks": 95,
          "midi": 62,
          "name": "D4",
          "ticks": 73728,
          "time": 145.7679098320312,
          "velocity": 0.6850393700787402
        },
        {
          "duration": 0.125,
          "durationTicks": 64,
          "midi": 64,
          "name": "E4",
          "ticks": 73920,
          "time": 146.1429098320312,
          "velocity": 0.7086614173228346
        },
        {
          "duration": 1.5,
          "durationTicks": 768,
          "midi": 59,
          "name": "B3",
          "ticks": 73984,
          "time": 146.2679098320312,
          "velocity": 0.6377952755905512
        },
        {
          "duration": 0.185546875,
          "durationTicks": 95,
          "midi": 55,
          "name": "G3",
          "ticks": 74752,
          "time": 147.7679098320312,
          "velocity": 0.5905511811023622
        },
        {
          "duration": 0.125,
          "durationTicks": 64,
          "midi": 55,
          "name": "G3",
          "ticks": 74944,
          "time": 148.1429098320312,
          "velocity": 0.6456692913385826
        },
        {
          "duration": 1.5,
          "durationTicks": 768,
          "midi": 57,
          "name": "A3",
          "ticks": 75008,
          "time": 148.2679098320312,
          "velocity": 0.6771653543307087
        },
        {
          "duration": 0.185546875,
          "durationTicks": 95,
          "midi": 60,
          "name": "C4",
          "ticks": 75776,
          "time": 149.7679098320312,
          "velocity": 0.7480314960629921
        },
        {
          "duration": 0.125,
          "durationTicks": 64,
          "midi": 62,
          "name": "D4",
          "ticks": 75968,
          "time": 150.1429098320312,
          "velocity": 0.7165354330708661
        },
        {
          "duration": 1.5,
          "durationTicks": 768,
          "midi": 64,
          "name": "E4",
          "ticks": 76032,
          "time": 150.2679098320312,
          "velocity": 0.7007874015748031
        },
        {
          "duration": 0.5,
          "durationTicks": 256,
          "midi": 64,
          "name": "E4",
          "ticks": 76800,
          "time": 151.7679098320312,
          "velocity": 0.6771653543307087
        },
        {
          "duration": 1.5,
          "durationTicks": 768,
          "midi": 65,
          "name": "F4",
          "ticks": 77056,
          "time": 152.2679098320312,
          "velocity": 0.6850393700787402
        },
        {
          "duration": 0.166015625,
          "durationTicks": 85,
          "midi": 65,
          "name": "F4",
          "ticks": 77824,
          "time": 153.7679098320312,
          "velocity": 0.6771653543307087
        },
        {
          "duration": 0.166015625,
          "durationTicks": 85,
          "midi": 64,
          "name": "E4",
          "ticks": 77909,
          "time": 153.9339254570312,
          "velocity": 0.6062992125984252
        },
        {
          "duration": 0.16796875,
          "durationTicks": 86,
          "midi": 62,
          "name": "D4",
          "ticks": 77994,
          "time": 154.0999410820312,
          "velocity": 0.5905511811023622
        },
        {
          "duration": 1.5,
          "durationTicks": 768,
          "midi": 64,
          "name": "E4",
          "ticks": 78080,
          "time": 154.2679098320312,
          "velocity": 0.6535433070866141
        },
        {
          "duration": 0.5,
          "durationTicks": 256,
          "midi": 60,
          "name": "C4",
          "ticks": 78848,
          "time": 155.7679098320312,
          "velocity": 0.6062992125984252
        },
        {
          "duration": 1.5,
          "durationTicks": 768,
          "midi": 62,
          "name": "D4",
          "ticks": 79104,
          "time": 156.2679098320312,
          "velocity": 0.6692913385826772
        },
        {
          "duration": 0.5,
          "durationTicks": 256,
          "midi": 60,
          "name": "C4",
          "ticks": 79872,
          "time": 157.7679098320312,
          "velocity": 0.6220472440944882
        },
        {
          "duration": 1.5,
          "durationTicks": 768,
          "midi": 59,
          "name": "B3",
          "ticks": 80128,
          "time": 158.2679098320312,
          "velocity": 0.6456692913385826
        },
        {
          "duration": 0.125,
          "durationTicks": 64,
          "midi": 62,
          "name": "D4",
          "ticks": 81408,
          "time": 160.7679098320312,
          "velocity": 0.49606299212598426
        },
        {
          "duration": 0.125,
          "durationTicks": 64,
          "midi": 64,
          "name": "E4",
          "ticks": 81472,
          "time": 160.8929098320312,
          "velocity": 0.5669291338582677
        },
        {
          "duration": 0.125,
          "durationTicks": 64,
          "midi": 65,
          "name": "F4",
          "ticks": 81536,
          "time": 161.0179098320312,
          "velocity": 0.5748031496062992
        },
        {
          "duration": 0.125,
          "durationTicks": 64,
          "midi": 67,
          "name": "G4",
          "ticks": 81600,
          "time": 161.1429098320312,
          "velocity": 0.5433070866141733
        },
        {
          "duration": 0.3671875,
          "durationTicks": 188,
          "midi": 69,
          "name": "A4",
          "ticks": 81664,
          "time": 161.2679098320312,
          "velocity": 0.6771653543307087
        },
        {
          "duration": 0.125,
          "durationTicks": 64,
          "midi": 64,
          "name": "E4",
          "ticks": 82432,
          "time": 162.7679098320312,
          "velocity": 0.49606299212598426
        },
        {
          "duration": 0.125,
          "durationTicks": 64,
          "midi": 65,
          "name": "F4",
          "ticks": 82496,
          "time": 162.8929098320312,
          "velocity": 0.6141732283464567
        },
        {
          "duration": 0.125,
          "durationTicks": 64,
          "midi": 67,
          "name": "G4",
          "ticks": 82560,
          "time": 163.0179098320312,
          "velocity": 0.5590551181102362
        },
        {
          "duration": 0.125,
          "durationTicks": 64,
          "midi": 69,
          "name": "A4",
          "ticks": 82624,
          "time": 163.1429098320312,
          "velocity": 0.6141732283464567
        },
        {
          "duration": 0.3671875,
          "durationTicks": 188,
          "midi": 71,
          "name": "B4",
          "ticks": 82688,
          "time": 163.2679098320312,
          "velocity": 0.7086614173228346
        },
        {
          "duration": 0.125,
          "durationTicks": 64,
          "midi": 65,
          "name": "F4",
          "ticks": 83456,
          "time": 164.7679098320312,
          "velocity": 0.48031496062992124
        },
        {
          "duration": 0.125,
          "durationTicks": 64,
          "midi": 67,
          "name": "G4",
          "ticks": 83520,
          "time": 164.8929098320312,
          "velocity": 0.5984251968503937
        },
        {
          "duration": 0.125,
          "durationTicks": 64,
          "midi": 69,
          "name": "A4",
          "ticks": 83584,
          "time": 165.0179098320312,
          "velocity": 0.6062992125984252
        },
        {
          "duration": 0.125,
          "durationTicks": 64,
          "midi": 71,
          "name": "B4",
          "ticks": 83648,
          "time": 165.1429098320312,
          "velocity": 0.5984251968503937
        },
        {
          "duration": 0.3671875,
          "durationTicks": 188,
          "midi": 72,
          "name": "C5",
          "ticks": 83712,
          "time": 165.2679098320312,
          "velocity": 0.6141732283464567
        },
        {
          "duration": 0.125,
          "durationTicks": 64,
          "midi": 60,
          "name": "C4",
          "ticks": 84480,
          "time": 166.7679098320312,
          "velocity": 0.5275590551181102
        },
        {
          "duration": 0.125,
          "durationTicks": 64,
          "midi": 62,
          "name": "D4",
          "ticks": 84544,
          "time": 166.8929098320312,
          "velocity": 0.5590551181102362
        },
        {
          "duration": 0.125,
          "durationTicks": 64,
          "midi": 64,
          "name": "E4",
          "ticks": 84608,
          "time": 167.0179098320312,
          "velocity": 0.5905511811023622
        },
        {
          "duration": 0.125,
          "durationTicks": 64,
          "midi": 65,
          "name": "F4",
          "ticks": 84672,
          "time": 167.1429098320312,
          "velocity": 0.5511811023622047
        },
        {
          "duration": 0.3671875,
          "durationTicks": 188,
          "midi": 67,
          "name": "G4",
          "ticks": 84736,
          "time": 167.2679098320312,
          "velocity": 0.6771653543307087
        },
        {
          "duration": 0.125,
          "durationTicks": 64,
          "midi": 62,
          "name": "D4",
          "ticks": 85504,
          "time": 168.7679098320312,
          "velocity": 0.5039370078740157
        },
        {
          "duration": 0.125,
          "durationTicks": 64,
          "midi": 64,
          "name": "E4",
          "ticks": 85568,
          "time": 168.8929098320312,
          "velocity": 0.5826771653543307
        },
        {
          "duration": 0.125,
          "durationTicks": 64,
          "midi": 65,
          "name": "F4",
          "ticks": 85632,
          "time": 169.0179098320312,
          "velocity": 0.6062992125984252
        },
        {
          "duration": 0.125,
          "durationTicks": 64,
          "midi": 67,
          "name": "G4",
          "ticks": 85696,
          "time": 169.1429098320312,
          "velocity": 0.5984251968503937
        },
        {
          "duration": 0.3671875,
          "durationTicks": 188,
          "midi": 69,
          "name": "A4",
          "ticks": 85760,
          "time": 169.2679098320312,
          "velocity": 0.7165354330708661
        },
        {
          "duration": 0.125,
          "durationTicks": 64,
          "midi": 65,
          "name": "F4",
          "ticks": 86528,
          "time": 170.7679098320312,
          "velocity": 0.49606299212598426
        },
        {
          "duration": 0.125,
          "durationTicks": 64,
          "midi": 67,
          "name": "G4",
          "ticks": 86592,
          "time": 170.8929098320312,
          "velocity": 0.6062992125984252
        },
        {
          "duration": 0.125,
          "durationTicks": 64,
          "midi": 69,
          "name": "A4",
          "ticks": 86656,
          "time": 171.0179098320312,
          "velocity": 0.5984251968503937
        },
        {
          "duration": 0.125,
          "durationTicks": 64,
          "midi": 71,
          "name": "B4",
          "ticks": 86720,
          "time": 171.1429098320312,
          "velocity": 0.6141732283464567
        },
        {
          "duration": 0.3671875,
          "durationTicks": 188,
          "midi": 72,
          "name": "C5",
          "ticks": 86784,
          "time": 171.2679098320312,
          "velocity": 0.6771653543307087
        },
        {
          "duration": 0.125,
          "durationTicks": 64,
          "midi": 64,
          "name": "E4",
          "ticks": 87552,
          "time": 172.7679098320312,
          "velocity": 0.5984251968503937
        },
        {
          "duration": 0.125,
          "durationTicks": 64,
          "midi": 65,
          "name": "F4",
          "ticks": 87616,
          "time": 172.8929098320312,
          "velocity": 0.7086614173228346
        },
        {
          "duration": 0.125,
          "durationTicks": 64,
          "midi": 69,
          "name": "A4",
          "ticks": 87680,
          "time": 173.0179098320312,
          "velocity": 0.7086614173228346
        },
        {
          "duration": 0.125,
          "durationTicks": 64,
          "midi": 71,
          "name": "B4",
          "ticks": 87744,
          "time": 173.1429098320312,
          "velocity": 0.7165354330708661
        },
        {
          "duration": 0.3671875,
          "durationTicks": 188,
          "midi": 72,
          "name": "C5",
          "ticks": 87808,
          "time": 173.2679098320312,
          "velocity": 0.8188976377952756
        },
        {
          "duration": 0.125,
          "durationTicks": 64,
          "midi": 65,
          "name": "F4",
          "ticks": 88576,
          "time": 174.7679098320312,
          "velocity": 0.5826771653543307
        },
        {
          "duration": 0.125,
          "durationTicks": 64,
          "midi": 67,
          "name": "G4",
          "ticks": 88640,
          "time": 174.8929098320312,
          "velocity": 0.7007874015748031
        },
        {
          "duration": 0.125,
          "durationTicks": 64,
          "midi": 69,
          "name": "A4",
          "ticks": 88704,
          "time": 175.0179098320312,
          "velocity": 0.7086614173228346
        },
        {
          "duration": 0.125,
          "durationTicks": 64,
          "midi": 71,
          "name": "B4",
          "ticks": 88768,
          "time": 175.1429098320312,
          "velocity": 0.7007874015748031
        },
        {
          "duration": 0.3671875,
          "durationTicks": 188,
          "midi": 72,
          "name": "C5",
          "ticks": 88832,
          "time": 175.2679098320312,
          "velocity": 0.7716535433070866
        },
        {
          "duration": 0.125,
          "durationTicks": 64,
          "midi": 65,
          "name": "F4",
          "ticks": 89600,
          "time": 176.7679098320312,
          "velocity": 0.6141732283464567
        },
        {
          "duration": 0.125,
          "durationTicks": 64,
          "midi": 67,
          "name": "G4",
          "ticks": 89664,
          "time": 176.8929098320312,
          "velocity": 0.6771653543307087
        },
        {
          "duration": 0.125,
          "durationTicks": 64,
          "midi": 69,
          "name": "A4",
          "ticks": 89728,
          "time": 177.0179098320312,
          "velocity": 0.7007874015748031
        },
        {
          "duration": 0.125,
          "durationTicks": 64,
          "midi": 71,
          "name": "B4",
          "ticks": 89792,
          "time": 177.1429098320312,
          "velocity": 0.7401574803149606
        },
        {
          "duration": 0.3671875,
          "durationTicks": 188,
          "midi": 72,
          "name": "C5",
          "ticks": 89856,
          "time": 177.2679098320312,
          "velocity": 0.7952755905511811
        },
        {
          "duration": 2.4880438906250504,
          "durationTicks": 768,
          "midi": 65,
          "name": "F4",
          "ticks": 90368,
          "time": 178.47683691015618,
          "velocity": 0.6062992125984252
        },
        {
          "duration": 2.857139999999987,
          "durationTicks": 768,
          "midi": 67,
          "name": "G4",
          "ticks": 91136,
          "time": 180.96488080078123,
          "velocity": 0.6692913385826772
        },
        {
          "duration": 1,
          "durationTicks": 512,
          "midi": 60,
          "name": "C4",
          "ticks": 92416,
          "time": 185.27263369140624,
          "velocity": 0.7165354330708661
        },
        {
          "duration": 1,
          "durationTicks": 512,
          "midi": 59,
          "name": "B3",
          "ticks": 92928,
          "time": 186.27263369140624,
          "velocity": 0.7401574803149606
        },
        {
          "duration": 1,
          "durationTicks": 512,
          "midi": 57,
          "name": "A3",
          "ticks": 93440,
          "time": 187.27263369140624,
          "velocity": 0.7716535433070866
        },
        {
          "duration": 1,
          "durationTicks": 512,
          "midi": 52,
          "name": "E3",
          "ticks": 93952,
          "time": 188.27263369140624,
          "velocity": 0.6929133858267716
        },
        {
          "duration": 1,
          "durationTicks": 512,
          "midi": 53,
          "name": "F3",
          "ticks": 94464,
          "time": 189.27263369140624,
          "velocity": 0.7874015748031497
        },
        {
          "duration": 1,
          "durationTicks": 512,
          "midi": 54,
          "name": "F#3",
          "ticks": 94976,
          "time": 190.27263369140624,
          "velocity": 0.7952755905511811
        },
        {
          "duration": 1,
          "durationTicks": 512,
          "midi": 55,
          "name": "G3",
          "ticks": 95488,
          "time": 191.27263369140624,
          "velocity": 0.7874015748031497
        },
        {
          "duration": 1,
          "durationTicks": 512,
          "midi": 59,
          "name": "B3",
          "ticks": 96000,
          "time": 192.27263369140624,
          "velocity": 0.8031496062992126
        },
        {
          "duration": 1,
          "durationTicks": 512,
          "midi": 60,
          "name": "C4",
          "ticks": 96512,
          "time": 193.27263369140624,
          "velocity": 0.8188976377952756
        },
        {
          "duration": 1,
          "durationTicks": 512,
          "midi": 59,
          "name": "B3",
          "ticks": 97024,
          "time": 194.27263369140624,
          "velocity": 0.7480314960629921
        },
        {
          "duration": 1,
          "durationTicks": 512,
          "midi": 57,
          "name": "A3",
          "ticks": 97536,
          "time": 195.27263369140624,
          "velocity": 0.7401574803149606
        },
        {
          "duration": 1,
          "durationTicks": 512,
          "midi": 52,
          "name": "E3",
          "ticks": 98048,
          "time": 196.27263369140624,
          "velocity": 0.7007874015748031
        },
        {
          "duration": 1,
          "durationTicks": 512,
          "midi": 53,
          "name": "F3",
          "ticks": 98560,
          "time": 197.27263369140624,
          "velocity": 0.8031496062992126
        },
        {
          "duration": 1,
          "durationTicks": 512,
          "midi": 55,
          "name": "G3",
          "ticks": 99072,
          "time": 198.27263369140624,
          "velocity": 0.7559055118110236
        },
        {
          "duration": 1.5001775546874967,
          "durationTicks": 768,
          "midi": 48,
          "name": "C3",
          "ticks": 99584,
          "time": 199.27263369140624,
          "velocity": 0.6929133858267716
        },
        {
          "duration": 0.5454540000000065,
          "durationTicks": 256,
          "midi": 72,
          "name": "C5",
          "ticks": 100352,
          "time": 200.77281124609374,
          "velocity": 0.9921259842519685
        },
        {
          "duration": 0.18110777343750328,
          "durationTicks": 85,
          "midi": 72,
          "name": "C5",
          "ticks": 100864,
          "time": 201.86371924609375,
          "velocity": 0.7716535433070866
        },
        {
          "duration": 0.18110777343747486,
          "durationTicks": 85,
          "midi": 72,
          "name": "C5",
          "ticks": 100949,
          "time": 202.04482701953125,
          "velocity": 0.8818897637795275
        },
        {
          "duration": 0.18323845312499998,
          "durationTicks": 86,
          "midi": 72,
          "name": "C5",
          "ticks": 101034,
          "time": 202.22593479296873,
          "velocity": 0.9291338582677166
        },
        {
          "duration": 1.090908000000013,
          "durationTicks": 512,
          "midi": 72,
          "name": "C5",
          "ticks": 101120,
          "time": 202.40917324609373,
          "velocity": 0.8976377952755905
        },
        {
          "duration": 0.5454540000000065,
          "durationTicks": 256,
          "midi": 74,
          "name": "D5",
          "ticks": 101632,
          "time": 203.50008124609374,
          "velocity": 0.9133858267716536
        },
        {
          "duration": 0.18110777343750328,
          "durationTicks": 85,
          "midi": 72,
          "name": "C5",
          "ticks": 101888,
          "time": 204.04553524609375,
          "velocity": 0.8110236220472441
        },
        {
          "duration": 0.18110777343747486,
          "durationTicks": 85,
          "midi": 72,
          "name": "C5",
          "ticks": 101973,
          "time": 204.22664301953125,
          "velocity": 0.8582677165354331
        },
        {
          "duration": 0.18323845312499998,
          "durationTicks": 86,
          "midi": 72,
          "name": "C5",
          "ticks": 102058,
          "time": 204.40775079296873,
          "velocity": 0.8818897637795275
        },
        {
          "duration": 1.090908000000013,
          "durationTicks": 512,
          "midi": 72,
          "name": "C5",
          "ticks": 102144,
          "time": 204.59098924609373,
          "velocity": 0.8740157480314961
        },
        {
          "duration": 0.18110777343750328,
          "durationTicks": 85,
          "midi": 74,
          "name": "D5",
          "ticks": 102912,
          "time": 206.22735124609375,
          "velocity": 0.7952755905511811
        },
        {
          "duration": 0.18110777343750328,
          "durationTicks": 85,
          "midi": 74,
          "name": "D5",
          "ticks": 102997,
          "time": 206.40845901953125,
          "velocity": 0.9133858267716536
        },
        {
          "duration": 0.18323845312499998,
          "durationTicks": 86,
          "midi": 74,
          "name": "D5",
          "ticks": 103082,
          "time": 206.58956679296875,
          "velocity": 0.889763779527559
        },
        {
          "duration": 1.0909079999999847,
          "durationTicks": 512,
          "midi": 74,
          "name": "D5",
          "ticks": 103168,
          "time": 206.77280524609375,
          "velocity": 0.889763779527559
        },
        {
          "duration": 0.20241457031249865,
          "durationTicks": 95,
          "midi": 76,
          "name": "E5",
          "ticks": 103936,
          "time": 208.40916724609374,
          "velocity": 0.8110236220472441
        },
        {
          "duration": 0.13636350000001585,
          "durationTicks": 64,
          "midi": 76,
          "name": "E5",
          "ticks": 104128,
          "time": 208.81825774609374,
          "velocity": 0.8818897637795275
        },
        {
          "duration": 0.13423282031249073,
          "durationTicks": 63,
          "midi": 76,
          "name": "E5",
          "ticks": 104192,
          "time": 208.95462124609375,
          "velocity": 0.8740157480314961
        },
        {
          "duration": 0.13423282031249073,
          "durationTicks": 63,
          "midi": 76,
          "name": "E5",
          "ticks": 104320,
          "time": 209.22734824609375,
          "velocity": 0.8818897637795275
        },
        {
          "duration": 0.18110777343750328,
          "durationTicks": 85,
          "midi": 76,
          "name": "E5",
          "ticks": 104448,
          "time": 209.50007524609373,
          "velocity": 0.889763779527559
        },
        {
          "duration": 0.18110777343750328,
          "durationTicks": 85,
          "midi": 76,
          "name": "E5",
          "ticks": 104533,
          "time": 209.68118301953123,
          "velocity": 0.889763779527559
        },
        {
          "duration": 0.18323845312499998,
          "durationTicks": 86,
          "midi": 76,
          "name": "E5",
          "ticks": 104618,
          "time": 209.86229079296874,
          "velocity": 0.8740157480314961
        },
        {
          "duration": 0.5454540000000065,
          "durationTicks": 256,
          "midi": 77,
          "name": "F5",
          "ticks": 104704,
          "time": 210.04552924609374,
          "velocity": 0.9133858267716536
        },
        {
          "duration": 0.18110777343750328,
          "durationTicks": 85,
          "midi": 72,
          "name": "C5",
          "ticks": 104960,
          "time": 210.59098324609374,
          "velocity": 0.7559055118110236
        },
        {
          "duration": 0.18110777343750328,
          "durationTicks": 85,
          "midi": 72,
          "name": "C5",
          "ticks": 105045,
          "time": 210.77209101953125,
          "velocity": 0.8661417322834646
        },
        {
          "duration": 0.18323845312499998,
          "durationTicks": 86,
          "midi": 72,
          "name": "C5",
          "ticks": 105130,
          "time": 210.95319879296875,
          "velocity": 0.84251968503937
        },
        {
          "duration": 1.0909079999999847,
          "durationTicks": 512,
          "midi": 72,
          "name": "C5",
          "ticks": 105216,
          "time": 211.13643724609375,
          "velocity": 0.889763779527559
        },
        {
          "duration": 0.5454540000000065,
          "durationTicks": 256,
          "midi": 74,
          "name": "D5",
          "ticks": 105728,
          "time": 212.22734524609373,
          "velocity": 0.9448818897637795
        },
        {
          "duration": 0.18110777343750328,
          "durationTicks": 85,
          "midi": 72,
          "name": "C5",
          "ticks": 105984,
          "time": 212.77279924609374,
          "velocity": 0.8031496062992126
        },
        {
          "duration": 0.18110777343750328,
          "durationTicks": 85,
          "midi": 72,
          "name": "C5",
          "ticks": 106069,
          "time": 212.95390701953124,
          "velocity": 0.8818897637795275
        },
        {
          "duration": 0.18323845312499998,
          "durationTicks": 86,
          "midi": 72,
          "name": "C5",
          "ticks": 106154,
          "time": 213.13501479296875,
          "velocity": 0.8740157480314961
        },
        {
          "duration": 1.0909079999999847,
          "durationTicks": 512,
          "midi": 72,
          "name": "C5",
          "ticks": 106240,
          "time": 213.31825324609375,
          "velocity": 0.9133858267716536
        },
        {
          "duration": 0.18110777343750328,
          "durationTicks": 85,
          "midi": 74,
          "name": "D5",
          "ticks": 107008,
          "time": 214.95461524609374,
          "velocity": 0.8031496062992126
        },
        {
          "duration": 0.18110777343750328,
          "durationTicks": 85,
          "midi": 74,
          "name": "D5",
          "ticks": 107093,
          "time": 215.13572301953124,
          "velocity": 0.8661417322834646
        },
        {
          "duration": 0.18323845312499998,
          "durationTicks": 86,
          "midi": 74,
          "name": "D5",
          "ticks": 107178,
          "time": 215.31683079296874,
          "velocity": 0.9212598425196851
        },
        {
          "duration": 1.0909079999999847,
          "durationTicks": 512,
          "midi": 74,
          "name": "D5",
          "ticks": 107264,
          "time": 215.50006924609374,
          "velocity": 0.8661417322834646
        },
        {
          "duration": 0.5454540000000065,
          "durationTicks": 256,
          "midi": 76,
          "name": "E5",
          "ticks": 108032,
          "time": 217.13643124609374,
          "velocity": 0.7952755905511811
        },
        {
          "duration": 0.13423282031249073,
          "durationTicks": 63,
          "midi": 76,
          "name": "E5",
          "ticks": 108288,
          "time": 217.68188524609374,
          "velocity": 0.84251968503937
        },
        {
          "duration": 0.13423282031249073,
          "durationTicks": 63,
          "midi": 76,
          "name": "E5",
          "ticks": 108416,
          "time": 217.95461224609375,
          "velocity": 0.889763779527559
        },
        {
          "duration": 0.18110777343750328,
          "durationTicks": 85,
          "midi": 76,
          "name": "E5",
          "ticks": 108544,
          "time": 218.22733924609375,
          "velocity": 0.8582677165354331
        },
        {
          "duration": 0.18110777343747486,
          "durationTicks": 85,
          "midi": 76,
          "name": "E5",
          "ticks": 108629,
          "time": 218.40844701953125,
          "velocity": 0.889763779527559
        },
        {
          "duration": 0.18323845312499998,
          "durationTicks": 86,
          "midi": 76,
          "name": "E5",
          "ticks": 108714,
          "time": 218.58955479296873,
          "velocity": 0.8503937007874016
        },
        {
          "duration": 0.5454540000000065,
          "durationTicks": 256,
          "midi": 77,
          "name": "F5",
          "ticks": 108800,
          "time": 218.77279324609373,
          "velocity": 0.9606299212598425
        },
        {
          "duration": 0.4090905000000191,
          "durationTicks": 192,
          "midi": 77,
          "name": "F5",
          "ticks": 109056,
          "time": 219.31824724609373,
          "velocity": 0.8740157480314961
        },
        {
          "duration": 0.13636349999998743,
          "durationTicks": 64,
          "midi": 77,
          "name": "F5",
          "ticks": 109248,
          "time": 219.72733774609375,
          "velocity": 0.8976377952755905
        },
        {
          "duration": 0.18110777343750328,
          "durationTicks": 85,
          "midi": 77,
          "name": "F5",
          "ticks": 109312,
          "time": 219.86370124609374,
          "velocity": 0.889763779527559
        },
        {
          "duration": 0.18110777343750328,
          "durationTicks": 85,
          "midi": 77,
          "name": "F5",
          "ticks": 109397,
          "time": 220.04480901953124,
          "velocity": 0.8818897637795275
        },
        {
          "duration": 0.18323845312499998,
          "durationTicks": 86,
          "midi": 77,
          "name": "F5",
          "ticks": 109482,
          "time": 220.22591679296875,
          "velocity": 0.8976377952755905
        },
        {
          "duration": 0.5454540000000065,
          "durationTicks": 256,
          "midi": 77,
          "name": "F5",
          "ticks": 109568,
          "time": 220.40915524609375,
          "velocity": 0.8976377952755905
        },
        {
          "duration": 0.5454539999999781,
          "durationTicks": 256,
          "midi": 77,
          "name": "F5",
          "ticks": 109824,
          "time": 220.95460924609375,
          "velocity": 0.8740157480314961
        },
        {
          "duration": 0.4090905000000191,
          "durationTicks": 192,
          "midi": 77,
          "name": "F5",
          "ticks": 110080,
          "time": 221.50006324609373,
          "velocity": 0.8976377952755905
        },
        {
          "duration": 0.13636349999998743,
          "durationTicks": 64,
          "midi": 77,
          "name": "F5",
          "ticks": 110272,
          "time": 221.90915374609375,
          "velocity": 0.8661417322834646
        },
        {
          "duration": 0.18110777343750328,
          "durationTicks": 85,
          "midi": 77,
          "name": "F5",
          "ticks": 110336,
          "time": 222.04551724609374,
          "velocity": 0.8740157480314961
        },
        {
          "duration": 0.18110777343750328,
          "durationTicks": 85,
          "midi": 77,
          "name": "F5",
          "ticks": 110421,
          "time": 222.22662501953124,
          "velocity": 0.8976377952755905
        },
        {
          "duration": 0.18323845312499998,
          "durationTicks": 86,
          "midi": 77,
          "name": "F5",
          "ticks": 110506,
          "time": 222.40773279296874,
          "velocity": 0.8661417322834646
        },
        {
          "duration": 3.272724000000011,
          "durationTicks": 1536,
          "midi": 77,
          "name": "F5",
          "ticks": 110592,
          "time": 222.59097124609374,
          "velocity": 0.8976377952755905
        },
        {
          "duration": 0.20241457031249865,
          "durationTicks": 95,
          "midi": 53,
          "name": "F3",
          "ticks": 112128,
          "time": 225.86369524609376,
          "velocity": 0.7716535433070866
        },
        {
          "duration": 0.13636349999998743,
          "durationTicks": 64,
          "midi": 53,
          "name": "F3",
          "ticks": 112320,
          "time": 226.27278574609375,
          "velocity": 0.8346456692913385
        },
        {
          "duration": 1.6363620000000196,
          "durationTicks": 768,
          "midi": 53,
          "name": "F3",
          "ticks": 112384,
          "time": 226.40914924609373,
          "velocity": 0.9212598425196851
        }
      ]
    },
    {
      "channel": 0,
      "controlChanges": {
        "7": [
          {
            "number": 7,
            "ticks": 0,
            "time": 0,
            "value": 0.7086614173228346
          }
        ],
        "10": [
          {
            "number": 10,
            "ticks": 0,
            "time": 0,
            "value": 0.7480314960629921
          }
        ],
        "91": [
          {
            "number": 91,
            "ticks": 0,
            "time": 0,
            "value": 0.5984251968503937
          }
        ],
        "121": [
          {
            "number": 121,
            "ticks": 0,
            "time": 0,
            "value": 0
          }
        ]
      },
      "pitchBends": [],
      "instrument": {
        "family": "piano",
        "number": 0,
        "name": "acoustic grand piano"
      },
      "name": "Violoncello",
      "notes": [],
      "endOfTrackTicks": 113153
    },
    {
      "channel": 3,
      "controlChanges": {},
      "pitchBends": [],
      "instrument": {
        "family": "ensemble",
        "number": 48,
        "name": "string ensemble 1"
      },
      "name": "",
      "notes": [
        {
          "duration": 0.375,
          "durationTicks": 192,
          "midi": 43,
          "name": "G2",
          "ticks": 0,
          "time": 0,
          "velocity": 0.6771653543307087
        },
        {
          "duration": 0.125,
          "durationTicks": 64,
          "midi": 43,
          "name": "G2",
          "ticks": 192,
          "time": 0.375,
          "velocity": 0.7559055118110236
        },
        {
          "duration": 1,
          "durationTicks": 512,
          "midi": 48,
          "name": "C3",
          "ticks": 256,
          "time": 0.5,
          "velocity": 0.8267716535433071
        },
        {
          "duration": 1,
          "durationTicks": 512,
          "midi": 47,
          "name": "B2",
          "ticks": 768,
          "time": 1.5,
          "velocity": 0.7401574803149606
        },
        {
          "duration": 1,
          "durationTicks": 512,
          "midi": 45,
          "name": "A2",
          "ticks": 1280,
          "time": 2.5,
          "velocity": 0.7165354330708661
        },
        {
          "duration": 1,
          "durationTicks": 512,
          "midi": 40,
          "name": "E2",
          "ticks": 1792,
          "time": 3.5,
          "velocity": 0.7322834645669292
        },
        {
          "duration": 1,
          "durationTicks": 512,
          "midi": 41,
          "name": "F2",
          "ticks": 2304,
          "time": 4.5,
          "velocity": 0.7874015748031497
        },
        {
          "duration": 1,
          "durationTicks": 512,
          "midi": 42,
          "name": "F#2",
          "ticks": 2816,
          "time": 5.5,
          "velocity": 0.7637795275590551
        },
        {
          "duration": 1,
          "durationTicks": 512,
          "midi": 43,
          "name": "G2",
          "ticks": 3328,
          "time": 6.5,
          "velocity": 0.7952755905511811
        },
        {
          "duration": 1,
          "durationTicks": 512,
          "midi": 47,
          "name": "B2",
          "ticks": 3840,
          "time": 7.5,
          "velocity": 0.8346456692913385
        },
        {
          "duration": 1,
          "durationTicks": 512,
          "midi": 48,
          "name": "C3",
          "ticks": 4352,
          "time": 8.5,
          "velocity": 0.7401574803149606
        },
        {
          "duration": 1,
          "durationTicks": 512,
          "midi": 47,
          "name": "B2",
          "ticks": 4864,
          "time": 9.5,
          "velocity": 0.7637795275590551
        },
        {
          "duration": 1,
          "durationTicks": 512,
          "midi": 45,
          "name": "A2",
          "ticks": 5376,
          "time": 10.5,
          "velocity": 0.7244094488188977
        },
        {
          "duration": 1,
          "durationTicks": 512,
          "midi": 40,
          "name": "E2",
          "ticks": 5888,
          "time": 11.5,
          "velocity": 0.7244094488188977
        },
        {
          "duration": 2,
          "durationTicks": 1024,
          "midi": 41,
          "name": "F2",
          "ticks": 6400,
          "time": 12.5,
          "velocity": 0.7716535433070866
        },
        {
          "duration": 1.5,
          "durationTicks": 768,
          "midi": 43,
          "name": "G2",
          "ticks": 7424,
          "time": 14.5,
          "velocity": 0.7559055118110236
        },
        {
          "duration": 0.375,
          "durationTicks": 192,
          "midi": 36,
          "name": "C2",
          "ticks": 8192,
          "time": 16,
          "velocity": 0.7086614173228346
        },
        {
          "duration": 0.125,
          "durationTicks": 64,
          "midi": 36,
          "name": "C2",
          "ticks": 8384,
          "time": 16.375,
          "velocity": 0.7559055118110236
        },
        {
          "duration": 15.5,
          "durationTicks": 7936,
          "midi": 36,
          "name": "C2",
          "ticks": 8448,
          "time": 16.5,
          "velocity": 0.7795275590551181
        },
        {
          "duration": 2,
          "durationTicks": 1024,
          "midi": 57,
          "name": "A3",
          "ticks": 16640,
          "time": 32.5,
          "velocity": 0.5275590551181102
        },
        {
          "duration": 2,
          "durationTicks": 1024,
          "midi": 52,
          "name": "E3",
          "ticks": 17664,
          "time": 34.5,
          "velocity": 0.5433070866141733
        },
        {
          "duration": 2,
          "durationTicks": 1024,
          "midi": 53,
          "name": "F3",
          "ticks": 18688,
          "time": 36.5,
          "velocity": 0.5590551181102362
        },
        {
          "duration": 2,
          "durationTicks": 1024,
          "midi": 48,
          "name": "C3",
          "ticks": 19712,
          "time": 38.5,
          "velocity": 0.5433070866141733
        },
        {
          "duration": 2,
          "durationTicks": 1024,
          "midi": 50,
          "name": "D3",
          "ticks": 20736,
          "time": 40.5,
          "velocity": 0.5669291338582677
        },
        {
          "duration": 2,
          "durationTicks": 1024,
          "midi": 57,
          "name": "A3",
          "ticks": 21760,
          "time": 42.5,
          "velocity": 0.5984251968503937
        },
        {
          "duration": 2,
          "durationTicks": 1024,
          "midi": 54,
          "name": "F#3",
          "ticks": 22784,
          "time": 44.5,
          "velocity": 0.5354330708661418
        },
        {
          "duration": 2,
          "durationTicks": 1024,
          "midi": 55,
          "name": "G3",
          "ticks": 23808,
          "time": 46.5,
          "velocity": 0.5590551181102362
        },
        {
          "duration": 2,
          "durationTicks": 1024,
          "midi": 45,
          "name": "A2",
          "ticks": 24832,
          "time": 48.5,
          "velocity": 0.5669291338582677
        },
        {
          "duration": 2,
          "durationTicks": 1024,
          "midi": 40,
          "name": "E2",
          "ticks": 25856,
          "time": 50.5,
          "velocity": 0.6299212598425197
        },
        {
          "duration": 2,
          "durationTicks": 1024,
          "midi": 41,
          "name": "F2",
          "ticks": 26880,
          "time": 52.5,
          "velocity": 0.6614173228346457
        },
        {
          "duration": 2,
          "durationTicks": 1024,
          "midi": 36,
          "name": "C2",
          "ticks": 27904,
          "time": 54.5,
          "velocity": 0.6141732283464567
        },
        {
          "duration": 2,
          "durationTicks": 1024,
          "midi": 38,
          "name": "D2",
          "ticks": 28928,
          "time": 56.5,
          "velocity": 0.6850393700787402
        },
        {
          "duration": 2,
          "durationTicks": 1024,
          "midi": 45,
          "name": "A2",
          "ticks": 29952,
          "time": 58.5,
          "velocity": 0.7086614173228346
        },
        {
          "duration": 2,
          "durationTicks": 1024,
          "midi": 44,
          "name": "G#2",
          "ticks": 30976,
          "time": 60.5,
          "velocity": 0.6614173228346457
        },
        {
          "duration": 2,
          "durationTicks": 1024,
          "midi": 43,
          "name": "G2",
          "ticks": 32000,
          "time": 62.5,
          "velocity": 0.6377952755905512
        },
        {
          "duration": 2.013926468749986,
          "durationTicks": 1024,
          "midi": 41,
          "name": "F2",
          "ticks": 33024,
          "time": 64.5,
          "velocity": 0.6456692913385826
        },
        {
          "duration": 1.8026555468750018,
          "durationTicks": 768,
          "midi": 43,
          "name": "G2",
          "ticks": 34048,
          "time": 66.51392646874999,
          "velocity": 0.7007874015748031
        },
        {
          "duration": 2.0689650000000057,
          "durationTicks": 768,
          "midi": 38,
          "name": "D2",
          "ticks": 34816,
          "time": 68.31658201562499,
          "velocity": 0.5826771653543307
        },
        {
          "duration": 0.375,
          "durationTicks": 192,
          "midi": 43,
          "name": "G2",
          "ticks": 35840,
          "time": 71.07520201562498,
          "velocity": 0.6929133858267716
        },
        {
          "duration": 0.125,
          "durationTicks": 64,
          "midi": 43,
          "name": "G2",
          "ticks": 36032,
          "time": 71.45020201562498,
          "velocity": 0.7480314960629921
        },
        {
          "duration": 1,
          "durationTicks": 512,
          "midi": 48,
          "name": "C3",
          "ticks": 36096,
          "time": 71.57520201562498,
          "velocity": 0.8110236220472441
        },
        {
          "duration": 1,
          "durationTicks": 512,
          "midi": 47,
          "name": "B2",
          "ticks": 36608,
          "time": 72.57520201562498,
          "velocity": 0.7244094488188977
        },
        {
          "duration": 1,
          "durationTicks": 512,
          "midi": 45,
          "name": "A2",
          "ticks": 37120,
          "time": 73.57520201562498,
          "velocity": 0.8031496062992126
        },
        {
          "duration": 1,
          "durationTicks": 512,
          "midi": 43,
          "name": "G2",
          "ticks": 37632,
          "time": 74.57520201562498,
          "velocity": 0.7401574803149606
        },
        {
          "duration": 1,
          "durationTicks": 512,
          "midi": 45,
          "name": "A2",
          "ticks": 38144,
          "time": 75.57520201562498,
          "velocity": 0.7952755905511811
        },
        {
          "duration": 1,
          "durationTicks": 512,
          "midi": 38,
          "name": "D2",
          "ticks": 38656,
          "time": 76.57520201562498,
          "velocity": 0.6771653543307087
        },
        {
          "duration": 1,
          "durationTicks": 512,
          "midi": 36,
          "name": "C2",
          "ticks": 39168,
          "time": 77.57520201562498,
          "velocity": 0.7952755905511811
        },
        {
          "duration": 1,
          "durationTicks": 512,
          "midi": 43,
          "name": "G2",
          "ticks": 39680,
          "time": 78.57520201562498,
          "velocity": 0.84251968503937
        },
        {
          "duration": 1,
          "durationTicks": 512,
          "midi": 48,
          "name": "C3",
          "ticks": 40192,
          "time": 79.57520201562498,
          "velocity": 0.8346456692913385
        },
        {
          "duration": 1,
          "durationTicks": 512,
          "midi": 47,
          "name": "B2",
          "ticks": 40704,
          "time": 80.57520201562498,
          "velocity": 0.7244094488188977
        },
        {
          "duration": 1,
          "durationTicks": 512,
          "midi": 50,
          "name": "D3",
          "ticks": 41216,
          "time": 81.57520201562498,
          "velocity": 0.7874015748031497
        },
        {
          "duration": 1,
          "durationTicks": 512,
          "midi": 43,
          "name": "G2",
          "ticks": 41728,
          "time": 82.57520201562498,
          "velocity": 0.7086614173228346
        },
        {
          "duration": 2,
          "durationTicks": 1024,
          "midi": 45,
          "name": "A2",
          "ticks": 42240,
          "time": 83.57520201562498,
          "velocity": 0.8188976377952756
        },
        {
          "duration": 1.5,
          "durationTicks": 768,
          "midi": 36,
          "name": "C2",
          "ticks": 43264,
          "time": 85.57520201562498,
          "velocity": 0.6614173228346457
        },
        {
          "duration": 0.123046875,
          "durationTicks": 63,
          "midi": 48,
          "name": "C3",
          "ticks": 44288,
          "time": 87.57520201562498,
          "velocity": 0.5905511811023622
        },
        {
          "duration": 0.123046875,
          "durationTicks": 63,
          "midi": 48,
          "name": "C3",
          "ticks": 44416,
          "time": 87.82520201562498,
          "velocity": 0.6141732283464567
        },
        {
          "duration": 0.123046875,
          "durationTicks": 63,
          "midi": 48,
          "name": "C3",
          "ticks": 44544,
          "time": 88.07520201562498,
          "velocity": 0.6850393700787402
        },
        {
          "duration": 0.123046875,
          "durationTicks": 63,
          "midi": 48,
          "name": "C3",
          "ticks": 44672,
          "time": 88.32520201562498,
          "velocity": 0.7086614173228346
        },
        {
          "duration": 0.123046875,
          "durationTicks": 63,
          "midi": 48,
          "name": "C3",
          "ticks": 44800,
          "time": 88.57520201562498,
          "velocity": 0.6220472440944882
        },
        {
          "duration": 0.123046875,
          "durationTicks": 63,
          "midi": 48,
          "name": "C3",
          "ticks": 44928,
          "time": 88.82520201562498,
          "velocity": 0.6535433070866141
        },
        {
          "duration": 0.123046875,
          "durationTicks": 63,
          "midi": 48,
          "name": "C3",
          "ticks": 45056,
          "time": 89.07520201562498,
          "velocity": 0.6850393700787402
        },
        {
          "duration": 0.123046875,
          "durationTicks": 63,
          "midi": 48,
          "name": "C3",
          "ticks": 45184,
          "time": 89.32520201562498,
          "velocity": 0.6850393700787402
        },
        {
          "duration": 0.123046875,
          "durationTicks": 63,
          "midi": 47,
          "name": "B2",
          "ticks": 45312,
          "time": 89.57520201562498,
          "velocity": 0.6299212598425197
        },
        {
          "duration": 0.123046875,
          "durationTicks": 63,
          "midi": 47,
          "name": "B2",
          "ticks": 45440,
          "time": 89.82520201562498,
          "velocity": 0.6456692913385826
        },
        {
          "duration": 0.123046875,
          "durationTicks": 63,
          "midi": 47,
          "name": "B2",
          "ticks": 45568,
          "time": 90.07520201562498,
          "velocity": 0.7007874015748031
        },
        {
          "duration": 0.123046875,
          "durationTicks": 63,
          "midi": 47,
          "name": "B2",
          "ticks": 45696,
          "time": 90.32520201562498,
          "velocity": 0.6692913385826772
        },
        {
          "duration": 0.123046875,
          "durationTicks": 63,
          "midi": 47,
          "name": "B2",
          "ticks": 45824,
          "time": 90.57520201562498,
          "velocity": 0.6535433070866141
        },
        {
          "duration": 0.123046875,
          "durationTicks": 63,
          "midi": 47,
          "name": "B2",
          "ticks": 45952,
          "time": 90.82520201562498,
          "velocity": 0.6850393700787402
        },
        {
          "duration": 0.123046875,
          "durationTicks": 63,
          "midi": 47,
          "name": "B2",
          "ticks": 46080,
          "time": 91.07520201562498,
          "velocity": 0.6535433070866141
        },
        {
          "duration": 0.123046875,
          "durationTicks": 63,
          "midi": 47,
          "name": "B2",
          "ticks": 46208,
          "time": 91.32520201562498,
          "velocity": 0.6614173228346457
        },
        {
          "duration": 0.123046875,
          "durationTicks": 63,
          "midi": 45,
          "name": "A2",
          "ticks": 46336,
          "time": 91.57520201562498,
          "velocity": 0.6220472440944882
        },
        {
          "duration": 0.123046875,
          "durationTicks": 63,
          "midi": 45,
          "name": "A2",
          "ticks": 46464,
          "time": 91.82520201562498,
          "velocity": 0.6692913385826772
        },
        {
          "duration": 0.123046875,
          "durationTicks": 63,
          "midi": 45,
          "name": "A2",
          "ticks": 46592,
          "time": 92.07520201562498,
          "velocity": 0.6771653543307087
        },
        {
          "duration": 0.25,
          "durationTicks": 128,
          "midi": 45,
          "name": "A2",
          "ticks": 46720,
          "time": 92.32520201562498,
          "velocity": 0.6377952755905512
        },
        {
          "duration": 0.123046875,
          "durationTicks": 63,
          "midi": 47,
          "name": "B2",
          "ticks": 46848,
          "time": 92.57520201562498,
          "velocity": 0.6377952755905512
        },
        {
          "duration": 0.123046875,
          "durationTicks": 63,
          "midi": 47,
          "name": "B2",
          "ticks": 46976,
          "time": 92.82520201562498,
          "velocity": 0.6299212598425197
        },
        {
          "duration": 0.123046875,
          "durationTicks": 63,
          "midi": 47,
          "name": "B2",
          "ticks": 47104,
          "time": 93.07520201562498,
          "velocity": 0.6614173228346457
        },
        {
          "duration": 0.123046875,
          "durationTicks": 63,
          "midi": 47,
          "name": "B2",
          "ticks": 47232,
          "time": 93.32520201562498,
          "velocity": 0.6456692913385826
        },
        {
          "duration": 0.123046875,
          "durationTicks": 63,
          "midi": 43,
          "name": "G2",
          "ticks": 47360,
          "time": 93.57520201562498,
          "velocity": 0.6535433070866141
        },
        {
          "duration": 0.123046875,
          "durationTicks": 63,
          "midi": 43,
          "name": "G2",
          "ticks": 47488,
          "time": 93.82520201562498,
          "velocity": 0.6771653543307087
        },
        {
          "duration": 0.123046875,
          "durationTicks": 63,
          "midi": 43,
          "name": "G2",
          "ticks": 47616,
          "time": 94.07520201562498,
          "velocity": 0.6771653543307087
        },
        {
          "duration": 0.123046875,
          "durationTicks": 63,
          "midi": 43,
          "name": "G2",
          "ticks": 47744,
          "time": 94.32520201562498,
          "velocity": 0.6456692913385826
        },
        {
          "duration": 0.123046875,
          "durationTicks": 63,
          "midi": 43,
          "name": "G2",
          "ticks": 47872,
          "time": 94.57520201562498,
          "velocity": 0.6141732283464567
        },
        {
          "duration": 0.123046875,
          "durationTicks": 63,
          "midi": 43,
          "name": "G2",
          "ticks": 48000,
          "time": 94.82520201562498,
          "velocity": 0.6535433070866141
        },
        {
          "duration": 0.123046875,
          "durationTicks": 63,
          "midi": 43,
          "name": "G2",
          "ticks": 48128,
          "time": 95.07520201562498,
          "velocity": 0.6850393700787402
        },
        {
          "duration": 0.123046875,
          "durationTicks": 63,
          "midi": 43,
          "name": "G2",
          "ticks": 48256,
          "time": 95.32520201562498,
          "velocity": 0.6614173228346457
        },
        {
          "duration": 0.123046875,
          "durationTicks": 63,
          "midi": 48,
          "name": "C3",
          "ticks": 48384,
          "time": 95.57520201562498,
          "velocity": 0.7322834645669292
        },
        {
          "duration": 0.123046875,
          "durationTicks": 63,
          "midi": 48,
          "name": "C3",
          "ticks": 48512,
          "time": 95.82520201562498,
          "velocity": 0.6377952755905512
        },
        {
          "duration": 0.123046875,
          "durationTicks": 63,
          "midi": 48,
          "name": "C3",
          "ticks": 48640,
          "time": 96.07520201562498,
          "velocity": 0.6456692913385826
        },
        {
          "duration": 0.123046875,
          "durationTicks": 63,
          "midi": 48,
          "name": "C3",
          "ticks": 48768,
          "time": 96.32520201562498,
          "velocity": 0.6850393700787402
        },
        {
          "duration": 0.123046875,
          "durationTicks": 63,
          "midi": 48,
          "name": "C3",
          "ticks": 48896,
          "time": 96.57520201562498,
          "velocity": 0.6456692913385826
        },
        {
          "duration": 0.123046875,
          "durationTicks": 63,
          "midi": 48,
          "name": "C3",
          "ticks": 49024,
          "time": 96.82520201562498,
          "velocity": 0.6771653543307087
        },
        {
          "duration": 0.123046875,
          "durationTicks": 63,
          "midi": 48,
          "name": "C3",
          "ticks": 49152,
          "time": 97.07520201562498,
          "velocity": 0.6141732283464567
        },
        {
          "duration": 0.123046875,
          "durationTicks": 63,
          "midi": 48,
          "name": "C3",
          "ticks": 49280,
          "time": 97.32520201562498,
          "velocity": 0.6456692913385826
        },
        {
          "duration": 0.123046875,
          "durationTicks": 63,
          "midi": 47,
          "name": "B2",
          "ticks": 49408,
          "time": 97.57520201562498,
          "velocity": 0.6377952755905512
        },
        {
          "duration": 0.123046875,
          "durationTicks": 63,
          "midi": 47,
          "name": "B2",
          "ticks": 49536,
          "time": 97.82520201562498,
          "velocity": 0.6377952755905512
        },
        {
          "duration": 0.123046875,
          "durationTicks": 63,
          "midi": 47,
          "name": "B2",
          "ticks": 49664,
          "time": 98.07520201562498,
          "velocity": 0.6456692913385826
        },
        {
          "duration": 0.123046875,
          "durationTicks": 63,
          "midi": 47,
          "name": "B2",
          "ticks": 49792,
          "time": 98.32520201562498,
          "velocity": 0.6614173228346457
        },
        {
          "duration": 0.123046875,
          "durationTicks": 63,
          "midi": 47,
          "name": "B2",
          "ticks": 49920,
          "time": 98.57520201562498,
          "velocity": 0.6456692913385826
        },
        {
          "duration": 0.123046875,
          "durationTicks": 63,
          "midi": 47,
          "name": "B2",
          "ticks": 50048,
          "time": 98.82520201562498,
          "velocity": 0.6535433070866141
        },
        {
          "duration": 0.123046875,
          "durationTicks": 63,
          "midi": 47,
          "name": "B2",
          "ticks": 50176,
          "time": 99.07520201562498,
          "velocity": 0.6614173228346457
        },
        {
          "duration": 0.123046875,
          "durationTicks": 63,
          "midi": 47,
          "name": "B2",
          "ticks": 50304,
          "time": 99.32520201562498,
          "velocity": 0.6614173228346457
        },
        {
          "duration": 0.123046875,
          "durationTicks": 63,
          "midi": 45,
          "name": "A2",
          "ticks": 50432,
          "time": 99.57520201562498,
          "velocity": 0.6456692913385826
        },
        {
          "duration": 0.123046875,
          "durationTicks": 63,
          "midi": 45,
          "name": "A2",
          "ticks": 50560,
          "time": 99.82520201562498,
          "velocity": 0.6377952755905512
        },
        {
          "duration": 0.12314282812499755,
          "durationTicks": 63,
          "midi": 45,
          "name": "A2",
          "ticks": 50688,
          "time": 100.07520201562498,
          "velocity": 0.6535433070866141
        },
        {
          "duration": 0.12751998046874746,
          "durationTicks": 63,
          "midi": 45,
          "name": "A2",
          "ticks": 50816,
          "time": 100.32764135937498,
          "velocity": 0.6062992125984252
        },
        {
          "duration": 0.13221902734376556,
          "durationTicks": 63,
          "midi": 45,
          "name": "A2",
          "ticks": 50944,
          "time": 100.58912848437497,
          "velocity": 0.6771653543307087
        },
        {
          "duration": 0.13727636718751057,
          "durationTicks": 63,
          "midi": 45,
          "name": "A2",
          "ticks": 51072,
          "time": 100.86033440624998,
          "velocity": 0.6614173228346457
        },
        {
          "duration": 0.14159424999999715,
          "durationTicks": 63,
          "midi": 45,
          "name": "A2",
          "ticks": 51200,
          "time": 101.14070370312498,
          "velocity": 0.6377952755905512
        },
        {
          "duration": 0.14864283203125694,
          "durationTicks": 63,
          "midi": 45,
          "name": "A2",
          "ticks": 51328,
          "time": 101.43253951562497,
          "velocity": 0.6456692913385826
        },
        {
          "duration": 0.15505932421874036,
          "durationTicks": 63,
          "midi": 47,
          "name": "B2",
          "ticks": 51456,
          "time": 101.73776104687498,
          "velocity": 0.6299212598425197
        },
        {
          "duration": 0.16205198437499746,
          "durationTicks": 63,
          "midi": 47,
          "name": "B2",
          "ticks": 51584,
          "time": 102.05629203124997,
          "velocity": 0.6771653543307087
        },
        {
          "duration": 0.16971978515624642,
          "durationTicks": 63,
          "midi": 47,
          "name": "B2",
          "ticks": 51712,
          "time": 102.38934067187496,
          "velocity": 0.6299212598425197
        },
        {
          "duration": 0.16971978515626063,
          "durationTicks": 63,
          "midi": 47,
          "name": "B2",
          "ticks": 51840,
          "time": 102.73416817187496,
          "velocity": 0.6771653543307087
        },
        {
          "duration": 0.17241375000000403,
          "durationTicks": 64,
          "midi": 47,
          "name": "B2",
          "ticks": 51968,
          "time": 103.07899567187496,
          "velocity": 0.6062992125984252
        },
        {
          "duration": 1,
          "durationTicks": 512,
          "midi": 48,
          "name": "C3",
          "ticks": 52480,
          "time": 104.26790983203121,
          "velocity": 0.6141732283464567
        },
        {
          "duration": 1,
          "durationTicks": 512,
          "midi": 47,
          "name": "B2",
          "ticks": 52992,
          "time": 105.26790983203121,
          "velocity": 0.6299212598425197
        },
        {
          "duration": 1,
          "durationTicks": 512,
          "midi": 45,
          "name": "A2",
          "ticks": 53504,
          "time": 106.26790983203121,
          "velocity": 0.6456692913385826
        },
        {
          "duration": 1,
          "durationTicks": 512,
          "midi": 40,
          "name": "E2",
          "ticks": 54016,
          "time": 107.26790983203121,
          "velocity": 0.5905511811023622
        },
        {
          "duration": 1,
          "durationTicks": 512,
          "midi": 41,
          "name": "F2",
          "ticks": 54528,
          "time": 108.26790983203121,
          "velocity": 0.6614173228346457
        },
        {
          "duration": 1,
          "durationTicks": 512,
          "midi": 42,
          "name": "F#2",
          "ticks": 55040,
          "time": 109.26790983203121,
          "velocity": 0.6850393700787402
        },
        {
          "duration": 1,
          "durationTicks": 512,
          "midi": 43,
          "name": "G2",
          "ticks": 55552,
          "time": 110.26790983203121,
          "velocity": 0.6771653543307087
        },
        {
          "duration": 1,
          "durationTicks": 512,
          "midi": 47,
          "name": "B2",
          "ticks": 56064,
          "time": 111.26790983203121,
          "velocity": 0.7086614173228346
        },
        {
          "duration": 1,
          "durationTicks": 512,
          "midi": 48,
          "name": "C3",
          "ticks": 56576,
          "time": 112.26790983203121,
          "velocity": 0.6535433070866141
        },
        {
          "duration": 1,
          "durationTicks": 512,
          "midi": 47,
          "name": "B2",
          "ticks": 57088,
          "time": 113.26790983203121,
          "velocity": 0.6456692913385826
        },
        {
          "duration": 1,
          "durationTicks": 512,
          "midi": 45,
          "name": "A2",
          "ticks": 57600,
          "time": 114.26790983203121,
          "velocity": 0.6299212598425197
        },
        {
          "duration": 1,
          "durationTicks": 512,
          "midi": 40,
          "name": "E2",
          "ticks": 58112,
          "time": 115.26790983203121,
          "velocity": 0.5984251968503937
        },
        {
          "duration": 1,
          "durationTicks": 512,
          "midi": 41,
          "name": "F2",
          "ticks": 58624,
          "time": 116.26790983203121,
          "velocity": 0.7007874015748031
        },
        {
          "duration": 1,
          "durationTicks": 512,
          "midi": 43,
          "name": "G2",
          "ticks": 59136,
          "time": 117.26790983203121,
          "velocity": 0.6535433070866141
        },
        {
          "duration": 1.5,
          "durationTicks": 768,
          "midi": 36,
          "name": "C2",
          "ticks": 59648,
          "time": 118.26790983203121,
          "velocity": 0.5905511811023622
        },
        {
          "duration": 0.123046875,
          "durationTicks": 63,
          "midi": 76,
          "name": "E5",
          "ticks": 60672,
          "time": 120.26790983203121,
          "velocity": 0.5905511811023622
        },
        {
          "duration": 0.123046875,
          "durationTicks": 63,
          "midi": 76,
          "name": "E5",
          "ticks": 60800,
          "time": 120.51790983203121,
          "velocity": 0.6456692913385826
        },
        {
          "duration": 0.123046875,
          "durationTicks": 63,
          "midi": 76,
          "name": "E5",
          "ticks": 60928,
          "time": 120.76790983203121,
          "velocity": 0.6692913385826772
        },
        {
          "duration": 0.123046875,
          "durationTicks": 63,
          "midi": 76,
          "name": "E5",
          "ticks": 61056,
          "time": 121.01790983203121,
          "velocity": 0.6377952755905512
        },
        {
          "duration": 0.123046875,
          "durationTicks": 63,
          "midi": 76,
          "name": "E5",
          "ticks": 61184,
          "time": 121.26790983203121,
          "velocity": 0.6692913385826772
        },
        {
          "duration": 0.123046875,
          "durationTicks": 63,
          "midi": 76,
          "name": "E5",
          "ticks": 61312,
          "time": 121.51790983203121,
          "velocity": 0.6299212598425197
        },
        {
          "duration": 0.123046875,
          "durationTicks": 63,
          "midi": 76,
          "name": "E5",
          "ticks": 61440,
          "time": 121.76790983203121,
          "velocity": 0.6929133858267716
        },
        {
          "duration": 0.5,
          "durationTicks": 256,
          "midi": 77,
          "name": "F5",
          "ticks": 61568,
          "time": 122.01790983203121,
          "velocity": 0.7007874015748031
        },
        {
          "duration": 0.123046875,
          "durationTicks": 63,
          "midi": 77,
          "name": "F5",
          "ticks": 61824,
          "time": 122.51790983203121,
          "velocity": 0.6535433070866141
        },
        {
          "duration": 0.123046875,
          "durationTicks": 63,
          "midi": 77,
          "name": "F5",
          "ticks": 61952,
          "time": 122.76790983203121,
          "velocity": 0.6377952755905512
        },
        {
          "duration": 0.123046875,
          "durationTicks": 63,
          "midi": 77,
          "name": "F5",
          "ticks": 62080,
          "time": 123.01790983203121,
          "velocity": 0.6614173228346457
        },
        {
          "duration": 0.123046875,
          "durationTicks": 63,
          "midi": 77,
          "name": "F5",
          "ticks": 62208,
          "time": 123.26790983203121,
          "velocity": 0.6535433070866141
        },
        {
          "duration": 0.123046875,
          "durationTicks": 63,
          "midi": 77,
          "name": "F5",
          "ticks": 62336,
          "time": 123.51790983203121,
          "velocity": 0.6535433070866141
        },
        {
          "duration": 0.123046875,
          "durationTicks": 63,
          "midi": 77,
          "name": "F5",
          "ticks": 62464,
          "time": 123.76790983203121,
          "velocity": 0.6456692913385826
        },
        {
          "duration": 0.5,
          "durationTicks": 256,
          "midi": 74,
          "name": "D5",
          "ticks": 62592,
          "time": 124.01790983203121,
          "velocity": 0.6299212598425197
        },
        {
          "duration": 0.123046875,
          "durationTicks": 63,
          "midi": 74,
          "name": "D5",
          "ticks": 62848,
          "time": 124.51790983203121,
          "velocity": 0.6377952755905512
        },
        {
          "duration": 0.123046875,
          "durationTicks": 63,
          "midi": 74,
          "name": "D5",
          "ticks": 62976,
          "time": 124.76790983203121,
          "velocity": 0.6220472440944882
        },
        {
          "duration": 0.123046875,
          "durationTicks": 63,
          "midi": 74,
          "name": "D5",
          "ticks": 63104,
          "time": 125.01790983203121,
          "velocity": 0.6456692913385826
        },
        {
          "duration": 0.123046875,
          "durationTicks": 63,
          "midi": 74,
          "name": "D5",
          "ticks": 63232,
          "time": 125.26790983203121,
          "velocity": 0.6692913385826772
        },
        {
          "duration": 0.123046875,
          "durationTicks": 63,
          "midi": 74,
          "name": "D5",
          "ticks": 63360,
          "time": 125.51790983203121,
          "velocity": 0.6377952755905512
        },
        {
          "duration": 0.123046875,
          "durationTicks": 63,
          "midi": 74,
          "name": "D5",
          "ticks": 63488,
          "time": 125.76790983203121,
          "velocity": 0.6614173228346457
        },
        {
          "duration": 0.5,
          "durationTicks": 256,
          "midi": 76,
          "name": "E5",
          "ticks": 63616,
          "time": 126.01790983203121,
          "velocity": 0.7322834645669292
        },
        {
          "duration": 0.123046875,
          "durationTicks": 63,
          "midi": 76,
          "name": "E5",
          "ticks": 63872,
          "time": 126.51790983203121,
          "velocity": 0.6535433070866141
        },
        {
          "duration": 0.123046875,
          "durationTicks": 63,
          "midi": 76,
          "name": "E5",
          "ticks": 64000,
          "time": 126.76790983203121,
          "velocity": 0.6535433070866141
        },
        {
          "duration": 0.123046875,
          "durationTicks": 63,
          "midi": 76,
          "name": "E5",
          "ticks": 64128,
          "time": 127.01790983203121,
          "velocity": 0.6299212598425197
        },
        {
          "duration": 0.123046875,
          "durationTicks": 63,
          "midi": 76,
          "name": "E5",
          "ticks": 64256,
          "time": 127.26790983203121,
          "velocity": 0.6299212598425197
        },
        {
          "duration": 0.123046875,
          "durationTicks": 63,
          "midi": 76,
          "name": "E5",
          "ticks": 64384,
          "time": 127.51790983203121,
          "velocity": 0.6692913385826772
        },
        {
          "duration": 1.5,
          "durationTicks": 768,
          "midi": 64,
          "name": "E4",
          "ticks": 64768,
          "time": 128.2679098320312,
          "velocity": 0.6220472440944882
        },
        {
          "duration": 0.375,
          "durationTicks": 192,
          "midi": 60,
          "name": "C4",
          "ticks": 65536,
          "time": 129.7679098320312,
          "velocity": 0.5826771653543307
        },
        {
          "duration": 0.125,
          "durationTicks": 64,
          "midi": 57,
          "name": "A3",
          "ticks": 65728,
          "time": 130.1429098320312,
          "velocity": 0.6141732283464567
        },
        {
          "duration": 2,
          "durationTicks": 1024,
          "midi": 65,
          "name": "F4",
          "ticks": 65792,
          "time": 130.2679098320312,
          "velocity": 0.7874015748031497
        },
        {
          "duration": 1.5,
          "durationTicks": 768,
          "midi": 62,
          "name": "D4",
          "ticks": 66816,
          "time": 132.2679098320312,
          "velocity": 0.6062992125984252
        },
        {
          "duration": 0.375,
          "durationTicks": 192,
          "midi": 59,
          "name": "B3",
          "ticks": 67584,
          "time": 133.7679098320312,
          "velocity": 0.6141732283464567
        },
        {
          "duration": 0.125,
          "durationTicks": 64,
          "midi": 55,
          "name": "G3",
          "ticks": 67776,
          "time": 134.1429098320312,
          "velocity": 0.6141732283464567
        },
        {
          "duration": 2,
          "durationTicks": 1024,
          "midi": 64,
          "name": "E4",
          "ticks": 67840,
          "time": 134.2679098320312,
          "velocity": 0.7795275590551181
        },
        {
          "duration": 2,
          "durationTicks": 1024,
          "midi": 48,
          "name": "C3",
          "ticks": 68864,
          "time": 136.2679098320312,
          "velocity": 0.5826771653543307
        },
        {
          "duration": 1.75,
          "durationTicks": 896,
          "midi": 50,
          "name": "D3",
          "ticks": 69888,
          "time": 138.2679098320312,
          "velocity": 0.6535433070866141
        },
        {
          "duration": 0.25,
          "durationTicks": 128,
          "midi": 48,
          "name": "C3",
          "ticks": 70784,
          "time": 140.0179098320312,
          "velocity": 0.6456692913385826
        },
        {
          "duration": 2,
          "durationTicks": 1024,
          "midi": 47,
          "name": "B2",
          "ticks": 70912,
          "time": 140.2679098320312,
          "velocity": 0.6692913385826772
        },
        {
          "duration": 1.5,
          "durationTicks": 768,
          "midi": 48,
          "name": "C3",
          "ticks": 71936,
          "time": 142.2679098320312,
          "velocity": 0.6771653543307087
        },
        {
          "duration": 0.5,
          "durationTicks": 256,
          "midi": 47,
          "name": "B2",
          "ticks": 72704,
          "time": 143.7679098320312,
          "velocity": 0.6377952755905512
        },
        {
          "duration": 2,
          "durationTicks": 1024,
          "midi": 45,
          "name": "A2",
          "ticks": 72960,
          "time": 144.2679098320312,
          "velocity": 0.6614173228346457
        },
        {
          "duration": 2,
          "durationTicks": 1024,
          "midi": 40,
          "name": "E2",
          "ticks": 73984,
          "time": 146.2679098320312,
          "velocity": 0.6062992125984252
        },
        {
          "duration": 2,
          "durationTicks": 1024,
          "midi": 41,
          "name": "F2",
          "ticks": 75008,
          "time": 148.2679098320312,
          "velocity": 0.6850393700787402
        },
        {
          "duration": 2,
          "durationTicks": 1024,
          "midi": 36,
          "name": "C2",
          "ticks": 76032,
          "time": 150.2679098320312,
          "velocity": 0.6220472440944882
        },
        {
          "duration": 2,
          "durationTicks": 1024,
          "midi": 38,
          "name": "D2",
          "ticks": 77056,
          "time": 152.2679098320312,
          "velocity": 0.7007874015748031
        },
        {
          "duration": 2,
          "durationTicks": 1024,
          "midi": 45,
          "name": "A2",
          "ticks": 78080,
          "time": 154.2679098320312,
          "velocity": 0.7401574803149606
        },
        {
          "duration": 2,
          "durationTicks": 1024,
          "midi": 42,
          "name": "F#2",
          "ticks": 79104,
          "time": 156.2679098320312,
          "velocity": 0.6141732283464567
        },
        {
          "duration": 2,
          "durationTicks": 1024,
          "midi": 43,
          "name": "G2",
          "ticks": 80128,
          "time": 158.2679098320312,
          "velocity": 0.6614173228346457
        },
        {
          "duration": 2,
          "durationTicks": 1024,
          "midi": 57,
          "name": "A3",
          "ticks": 81152,
          "time": 160.2679098320312,
          "velocity": 0.7401574803149606
        },
        {
          "duration": 2,
          "durationTicks": 1024,
          "midi": 52,
          "name": "E3",
          "ticks": 82176,
          "time": 162.2679098320312,
          "velocity": 0.5826771653543307
        },
        {
          "duration": 2,
          "durationTicks": 1024,
          "midi": 53,
          "name": "F3",
          "ticks": 83200,
          "time": 164.2679098320312,
          "velocity": 0.6614173228346457
        },
        {
          "duration": 2,
          "durationTicks": 1024,
          "midi": 48,
          "name": "C3",
          "ticks": 84224,
          "time": 166.2679098320312,
          "velocity": 0.6141732283464567
        },
        {
          "duration": 2,
          "durationTicks": 1024,
          "midi": 50,
          "name": "D3",
          "ticks": 85248,
          "time": 168.2679098320312,
          "velocity": 0.6771653543307087
        },
        {
          "duration": 2,
          "durationTicks": 1024,
          "midi": 57,
          "name": "A3",
          "ticks": 86272,
          "time": 170.2679098320312,
          "velocity": 0.7165354330708661
        },
        {
          "duration": 2,
          "durationTicks": 1024,
          "midi": 56,
          "name": "G#3",
          "ticks": 87296,
          "time": 172.2679098320312,
          "velocity": 0.6377952755905512
        },
        {
          "duration": 2,
          "durationTicks": 1024,
          "midi": 55,
          "name": "G3",
          "ticks": 88320,
          "time": 174.2679098320312,
          "velocity": 0.6614173228346457
        },
        {
          "duration": 2.2089270781249866,
          "durationTicks": 1024,
          "midi": 53,
          "name": "F3",
          "ticks": 89344,
          "time": 176.2679098320312,
          "velocity": 0.6062992125984252
        },
        {
          "duration": 2.4880438906250504,
          "durationTicks": 768,
          "midi": 43,
          "name": "G2",
          "ticks": 90368,
          "time": 178.47683691015618,
          "velocity": 0.5826771653543307
        },
        {
          "duration": 2.857139999999987,
          "durationTicks": 768,
          "midi": 50,
          "name": "D3",
          "ticks": 91136,
          "time": 180.96488080078123,
          "velocity": 0.7086614173228346
        },
        {
          "duration": 0.185546875,
          "durationTicks": 95,
          "midi": 55,
          "name": "G3",
          "ticks": 92160,
          "time": 184.77263369140624,
          "velocity": 0.6929133858267716
        },
        {
          "duration": 0.125,
          "durationTicks": 64,
          "midi": 55,
          "name": "G3",
          "ticks": 92352,
          "time": 185.14763369140624,
          "velocity": 0.7480314960629921
        },
        {
          "duration": 0.5,
          "durationTicks": 256,
          "midi": 60,
          "name": "C4",
          "ticks": 92416,
          "time": 185.27263369140624,
          "velocity": 0.905511811023622
        },
        {
          "duration": 0.185546875,
          "durationTicks": 95,
          "midi": 55,
          "name": "G3",
          "ticks": 92672,
          "time": 185.77263369140624,
          "velocity": 0.7165354330708661
        },
        {
          "duration": 0.125,
          "durationTicks": 64,
          "midi": 60,
          "name": "C4",
          "ticks": 92864,
          "time": 186.14763369140624,
          "velocity": 0.8740157480314961
        },
        {
          "duration": 0.5,
          "durationTicks": 256,
          "midi": 62,
          "name": "D4",
          "ticks": 92928,
          "time": 186.27263369140624,
          "velocity": 0.8031496062992126
        },
        {
          "duration": 0.185546875,
          "durationTicks": 95,
          "midi": 55,
          "name": "G3",
          "ticks": 93184,
          "time": 186.77263369140624,
          "velocity": 0.6929133858267716
        },
        {
          "duration": 0.125,
          "durationTicks": 64,
          "midi": 62,
          "name": "D4",
          "ticks": 93376,
          "time": 187.14763369140624,
          "velocity": 0.905511811023622
        },
        {
          "duration": 0.75,
          "durationTicks": 384,
          "midi": 65,
          "name": "F4",
          "ticks": 93440,
          "time": 187.27263369140624,
          "velocity": 0.8818897637795275
        },
        {
          "duration": 0.125,
          "durationTicks": 64,
          "midi": 64,
          "name": "E4",
          "ticks": 93824,
          "time": 188.02263369140624,
          "velocity": 0.7165354330708661
        },
        {
          "duration": 0.125,
          "durationTicks": 64,
          "midi": 62,
          "name": "D4",
          "ticks": 93888,
          "time": 188.14763369140624,
          "velocity": 0.7244094488188977
        },
        {
          "duration": 0.5,
          "durationTicks": 256,
          "midi": 60,
          "name": "C4",
          "ticks": 93952,
          "time": 188.27263369140624,
          "velocity": 0.7322834645669292
        },
        {
          "duration": 0.5,
          "durationTicks": 256,
          "midi": 55,
          "name": "G3",
          "ticks": 94208,
          "time": 188.77263369140624,
          "velocity": 0.7007874015748031
        },
        {
          "duration": 0.5,
          "durationTicks": 256,
          "midi": 57,
          "name": "A3",
          "ticks": 94464,
          "time": 189.27263369140624,
          "velocity": 0.7716535433070866
        },
        {
          "duration": 0.5,
          "durationTicks": 256,
          "midi": 60,
          "name": "C4",
          "ticks": 94720,
          "time": 189.77263369140624,
          "velocity": 0.8267716535433071
        },
        {
          "duration": 0.5,
          "durationTicks": 256,
          "midi": 62,
          "name": "D4",
          "ticks": 94976,
          "time": 190.27263369140624,
          "velocity": 0.8267716535433071
        },
        {
          "duration": 0.5,
          "durationTicks": 256,
          "midi": 60,
          "name": "C4",
          "ticks": 95232,
          "time": 190.77263369140624,
          "velocity": 0.7401574803149606
        },
        {
          "duration": 0.75,
          "durationTicks": 384,
          "midi": 60,
          "name": "C4",
          "ticks": 95488,
          "time": 191.27263369140624,
          "velocity": 0.7874015748031497
        },
        {
          "duration": 0.125,
          "durationTicks": 64,
          "midi": 59,
          "name": "B3",
          "ticks": 95872,
          "time": 192.02263369140624,
          "velocity": 0.7559055118110236
        },
        {
          "duration": 0.125,
          "durationTicks": 64,
          "midi": 57,
          "name": "A3",
          "ticks": 95936,
          "time": 192.14763369140624,
          "velocity": 0.7322834645669292
        },
        {
          "duration": 0.5,
          "durationTicks": 256,
          "midi": 55,
          "name": "G3",
          "ticks": 96000,
          "time": 192.27263369140624,
          "velocity": 0.7480314960629921
        },
        {
          "duration": 0.185546875,
          "durationTicks": 95,
          "midi": 55,
          "name": "G3",
          "ticks": 96256,
          "time": 192.77263369140624,
          "velocity": 0.7952755905511811
        },
        {
          "duration": 0.125,
          "durationTicks": 64,
          "midi": 55,
          "name": "G3",
          "ticks": 96448,
          "time": 193.14763369140624,
          "velocity": 0.7795275590551181
        },
        {
          "duration": 0.5,
          "durationTicks": 256,
          "midi": 60,
          "name": "C4",
          "ticks": 96512,
          "time": 193.27263369140624,
          "velocity": 0.8661417322834646
        },
        {
          "duration": 0.185546875,
          "durationTicks": 95,
          "midi": 55,
          "name": "G3",
          "ticks": 96768,
          "time": 193.77263369140624,
          "velocity": 0.7322834645669292
        },
        {
          "duration": 0.125,
          "durationTicks": 64,
          "midi": 60,
          "name": "C4",
          "ticks": 96960,
          "time": 194.14763369140624,
          "velocity": 0.8582677165354331
        },
        {
          "duration": 0.5,
          "durationTicks": 256,
          "midi": 62,
          "name": "D4",
          "ticks": 97024,
          "time": 194.27263369140624,
          "velocity": 0.84251968503937
        },
        {
          "duration": 0.185546875,
          "durationTicks": 95,
          "midi": 55,
          "name": "G3",
          "ticks": 97280,
          "time": 194.77263369140624,
          "velocity": 0.6771653543307087
        },
        {
          "duration": 0.125,
          "durationTicks": 64,
          "midi": 62,
          "name": "D4",
          "ticks": 97472,
          "time": 195.14763369140624,
          "velocity": 0.889763779527559
        },
        {
          "duration": 0.75,
          "durationTicks": 384,
          "midi": 65,
          "name": "F4",
          "ticks": 97536,
          "time": 195.27263369140624,
          "velocity": 0.8818897637795275
        },
        {
          "duration": 0.125,
          "durationTicks": 64,
          "midi": 64,
          "name": "E4",
          "ticks": 97920,
          "time": 196.02263369140624,
          "velocity": 0.7401574803149606
        },
        {
          "duration": 0.125,
          "durationTicks": 64,
          "midi": 65,
          "name": "F4",
          "ticks": 97984,
          "time": 196.14763369140624,
          "velocity": 0.7716535433070866
        },
        {
          "duration": 0.5,
          "durationTicks": 256,
          "midi": 67,
          "name": "G4",
          "ticks": 98048,
          "time": 196.27263369140624,
          "velocity": 0.8031496062992126
        },
        {
          "duration": 0.375,
          "durationTicks": 192,
          "midi": 60,
          "name": "C4",
          "ticks": 98304,
          "time": 196.77263369140624,
          "velocity": 0.6614173228346457
        },
        {
          "duration": 0.125,
          "durationTicks": 64,
          "midi": 59,
          "name": "B3",
          "ticks": 98496,
          "time": 197.14763369140624,
          "velocity": 0.7086614173228346
        },
        {
          "duration": 0.5,
          "durationTicks": 256,
          "midi": 57,
          "name": "A3",
          "ticks": 98560,
          "time": 197.27263369140624,
          "velocity": 0.7322834645669292
        },
        {
          "duration": 0.5,
          "durationTicks": 256,
          "midi": 65,
          "name": "F4",
          "ticks": 98816,
          "time": 197.77263369140624,
          "velocity": 0.9606299212598425
        },
        {
          "duration": 0.5,
          "durationTicks": 256,
          "midi": 62,
          "name": "D4",
          "ticks": 99072,
          "time": 198.27263369140624,
          "velocity": 0.7401574803149606
        },
        {
          "duration": 0.166015625,
          "durationTicks": 85,
          "midi": 62,
          "name": "D4",
          "ticks": 99328,
          "time": 198.77263369140624,
          "velocity": 0.7716535433070866
        },
        {
          "duration": 0.166015625,
          "durationTicks": 85,
          "midi": 60,
          "name": "C4",
          "ticks": 99413,
          "time": 198.93864931640624,
          "velocity": 0.7559055118110236
        },
        {
          "duration": 0.16796875,
          "durationTicks": 86,
          "midi": 59,
          "name": "B3",
          "ticks": 99498,
          "time": 199.10466494140624,
          "velocity": 0.7795275590551181
        },
        {
          "duration": 1.5001775546874967,
          "durationTicks": 768,
          "midi": 60,
          "name": "C4",
          "ticks": 99584,
          "time": 199.27263369140624,
          "velocity": 0.8267716535433071
        },
        {
          "duration": 1.0909079999999847,
          "durationTicks": 512,
          "midi": 53,
          "name": "F3",
          "ticks": 100608,
          "time": 201.31826524609374,
          "velocity": 0.8031496062992126
        },
        {
          "duration": 1.090908000000013,
          "durationTicks": 512,
          "midi": 52,
          "name": "E3",
          "ticks": 101120,
          "time": 202.40917324609373,
          "velocity": 0.84251968503937
        },
        {
          "duration": 1.0909079999999847,
          "durationTicks": 512,
          "midi": 50,
          "name": "D3",
          "ticks": 101632,
          "time": 203.50008124609374,
          "velocity": 0.8503937007874016
        },
        {
          "duration": 1.090908000000013,
          "durationTicks": 512,
          "midi": 45,
          "name": "A2",
          "ticks": 102144,
          "time": 204.59098924609373,
          "velocity": 0.84251968503937
        },
        {
          "duration": 1.090908000000013,
          "durationTicks": 512,
          "midi": 46,
          "name": "A#2",
          "ticks": 102656,
          "time": 205.68189724609374,
          "velocity": 0.889763779527559
        },
        {
          "duration": 1.0909079999999847,
          "durationTicks": 512,
          "midi": 47,
          "name": "B2",
          "ticks": 103168,
          "time": 206.77280524609375,
          "velocity": 0.9133858267716536
        },
        {
          "duration": 1.090908000000013,
          "durationTicks": 512,
          "midi": 48,
          "name": "C3",
          "ticks": 103680,
          "time": 207.86371324609374,
          "velocity": 0.9133858267716536
        },
        {
          "duration": 1.0909079999999847,
          "durationTicks": 512,
          "midi": 52,
          "name": "E3",
          "ticks": 104192,
          "time": 208.95462124609375,
          "velocity": 0.9448818897637795
        },
        {
          "duration": 1.090908000000013,
          "durationTicks": 512,
          "midi": 53,
          "name": "F3",
          "ticks": 104704,
          "time": 210.04552924609374,
          "velocity": 0.937007874015748
        },
        {
          "duration": 1.0909079999999847,
          "durationTicks": 512,
          "midi": 52,
          "name": "E3",
          "ticks": 105216,
          "time": 211.13643724609375,
          "velocity": 0.8503937007874016
        },
        {
          "duration": 1.090908000000013,
          "durationTicks": 512,
          "midi": 50,
          "name": "D3",
          "ticks": 105728,
          "time": 212.22734524609373,
          "velocity": 0.84251968503937
        },
        {
          "duration": 1.0909079999999847,
          "durationTicks": 512,
          "midi": 45,
          "name": "A2",
          "ticks": 106240,
          "time": 213.31825324609375,
          "velocity": 0.8582677165354331
        },
        {
          "duration": 2.1818159999999978,
          "durationTicks": 1024,
          "midi": 46,
          "name": "A#2",
          "ticks": 106752,
          "time": 214.40916124609373,
          "velocity": 0.905511811023622
        },
        {
          "duration": 2.1818159999999978,
          "durationTicks": 1024,
          "midi": 48,
          "name": "C3",
          "ticks": 107776,
          "time": 216.59097724609373,
          "velocity": 0.905511811023622
        },
        {
          "duration": 2.181816000000026,
          "durationTicks": 1024,
          "midi": 49,
          "name": "C#3",
          "ticks": 108800,
          "time": 218.77279324609373,
          "velocity": 0.889763779527559
        },
        {
          "duration": 2.1818159999999978,
          "durationTicks": 1024,
          "midi": 51,
          "name": "D#3",
          "ticks": 109824,
          "time": 220.95460924609375,
          "velocity": 0.9291338582677166
        },
        {
          "duration": 2.7272700000000043,
          "durationTicks": 1280,
          "midi": 53,
          "name": "F3",
          "ticks": 110848,
          "time": 223.13642524609375,
          "velocity": 0.937007874015748
        },
        {
          "duration": 0.4090904999999907,
          "durationTicks": 192,
          "midi": 36,
          "name": "C2",
          "ticks": 112128,
          "time": 225.86369524609376,
          "velocity": 0.7795275590551181
        },
        {
          "duration": 0.13636349999998743,
          "durationTicks": 64,
          "midi": 36,
          "name": "C2",
          "ticks": 112320,
          "time": 226.27278574609375,
          "velocity": 0.8740157480314961
        },
        {
          "duration": 1.6363620000000196,
          "durationTicks": 768,
          "midi": 36,
          "name": "C2",
          "ticks": 112384,
          "time": 226.40914924609373,
          "velocity": 0.905511811023622
        }
      ]
    }
  ]
}
