{
  "header": {
    "keySignatures": [],
    "meta": [],
    "name": "",
    "ppq": 96,
    "tempos": [
      {
        "bpm": 140.00014000014,
        "ticks": 0
      },
      {
        "bpm": 140.00014000014,
        "ticks": 0
      },
      {
        "bpm": 140.00014000014,
        "ticks": 0
      }
    ],
    "timeSignatures": []
  },
  "tracks": [
    {
      "channel": 0,
      "controlChanges": {
        "6": [
          {
            "number": 6,
            "ticks": 0,
            "time": 0,
            "value": 0.09448818897637795
          }
        ],
        "7": [
          {
            "number": 7,
            "ticks": 0,
            "time": 0,
            "value": 0.7874015748031497
          },
          {
            "number": 7,
            "ticks": 0,
            "time": 0,
            "value": 0.7874015748031497
          }
        ],
        "10": [
          {
            "number": 10,
            "ticks": 0,
            "time": 0,
            "value": 0.5039370078740157
          },
          {
            "number": 10,
            "ticks": 0,
            "time": 0,
            "value": 0.5039370078740157
          }
        ],
        "100": [
          {
            "number": 100,
            "ticks": 0,
            "time": 0,
            "value": 0
          }
        ],
        "101": [
          {
            "number": 101,
            "ticks": 0,
            "time": 0,
            "value": 0
          }
        ]
      },
      "pitchBends": [
        {
          "ticks": 0,
          "time": 0,
          "value": 0
        },
        {
          "ticks": 0,
          "time": 0,
          "value": 0
        }
      ],
      "instrument": {
        "family": "piano",
        "number": 0,
        "name": "acoustic grand piano"
      },
      "name": " ",
      "notes": [],
      "endOfTrackTicks": 21505
    },
    {
      "channel": 0,
      "controlChanges": {
        "6": [
          {
            "number": 6,
            "ticks": 0,
            "time": 0,
            "value": 0.09448818897637795
          },
          {
            "number": 6,
            "ticks": 0,
            "time": 0,
            "value": 0.09448818897637795
          },
          {
            "number": 6,
            "ticks": 21504,
            "time": 95.99990400000002,
            "value": 0.09448818897637795
          },
          {
            "number": 6,
            "ticks": 21505,
            "time": 96.00436828125001,
            "value": 0.09448818897637795
          },
          {
            "number": 6,
            "ticks": 21505,
            "time": 96.00436828125001,
            "value": 0.09448818897637795
          }
        ],
        "7": [
          {
            "number": 7,
            "ticks": 0,
            "time": 0,
            "value": 0.7874015748031497
          },
          {
            "number": 7,
            "ticks": 0,
            "time": 0,
            "value": 0.7874015748031497
          },
          {
            "number": 7,
            "ticks": 0,
            "time": 0,
            "value": 0.7874015748031497
          },
          {
            "number": 7,
            "ticks": 0,
            "time": 0,
            "value": 0.7874015748031497
          },
          {
            "number": 7,
            "ticks": 21504,
            "time": 95.99990400000002,
            "value": 0.7874015748031497
          },
          {
            "number": 7,
            "ticks": 21505,
            "time": 96.00436828125001,
            "value": 0.7874015748031497
          },
          {
            "number": 7,
            "ticks": 21505,
            "time": 96.00436828125001,
            "value": 0.7874015748031497
          }
        ],
        "10": [
          {
            "number": 10,
            "ticks": 0,
            "time": 0,
            "value": 0.5039370078740157
          },
          {
            "number": 10,
            "ticks": 0,
            "time": 0,
            "value": 0.5039370078740157
          },
          {
            "number": 10,
            "ticks": 0,
            "time": 0,
            "value": 0.5039370078740157
          },
          {
            "number": 10,
            "ticks": 0,
            "time": 0,
            "value": 0.5039370078740157
          },
          {
            "number": 10,
            "ticks": 21504,
            "time": 95.99990400000002,
            "value": 0.5039370078740157
          },
          {
            "number": 10,
            "ticks": 21505,
            "time": 96.00436828125001,
            "value": 0.5039370078740157
          },
          {
            "number": 10,
            "ticks": 21505,
            "time": 96.00436828125001,
            "value": 0.5039370078740157
          }
        ],
        "100": [
          {
            "number": 100,
            "ticks": 0,
            "time": 0,
            "value": 0
          },
          {
            "number": 100,
            "ticks": 0,
            "time": 0,
            "value": 0
          },
          {
            "number": 100,
            "ticks": 21504,
            "time": 95.99990400000002,
            "value": 0
          },
          {
            "number": 100,
            "ticks": 21505,
            "time": 96.00436828125001,
            "value": 0
          },
          {
            "number": 100,
            "ticks": 21505,
            "time": 96.00436828125001,
            "value": 0
          }
        ],
        "101": [
          {
            "number": 101,
            "ticks": 0,
            "time": 0,
            "value": 0
          },
          {
            "number": 101,
            "ticks": 0,
            "time": 0,
            "value": 0
          },
          {
            "number": 101,
            "ticks": 21504,
            "time": 95.99990400000002,
            "value": 0
          },
          {
            "number": 101,
            "ticks": 21505,
            "time": 96.00436828125001,
            "value": 0
          },
          {
            "number": 101,
            "ticks": 21505,
            "time": 96.00436828125001,
            "value": 0
          }
        ]
      },
      "pitchBends": [
        {
          "ticks": 0,
          "time": 0,
          "value": 0
        },
        {
          "ticks": 0,
          "time": 0,
          "value": 0
        },
        {
          "ticks": 0,
          "time": 0,
          "value": 0
        },
        {
          "ticks": 0,
          "time": 0,
          "value": 0
        },
        {
          "ticks": 21504,
          "time": 95.99990400000002,
          "value": 0
        },
        {
          "ticks": 21505,
          "time": 96.00436828125001,
          "value": 0
        },
        {
          "ticks": 21505,
          "time": 96.00436828125001,
          "value": 0
        }
      ],
      "instrument": {
        "family": "synth lead",
        "number": 81,
        "name": "lead 2 (sawtooth)"
      },
      "name": "",
      "notes": [
        {
          "duration": 0.2053569375,
          "durationTicks": 46,
          "midi": 79,
          "name": "G5",
          "ticks": 48,
          "time": 0.21428550000000002,
          "velocity": 0.7874015748031497
        },
        {
          "duration": 0.20535693750000006,
          "durationTicks": 46,
          "midi": 77,
          "name": "F5",
          "ticks": 96,
          "time": 0.42857100000000004,
          "velocity": 0.7874015748031497
        },
        {
          "duration": 0.20535693750000006,
          "durationTicks": 46,
          "midi": 79,
          "name": "G5",
          "ticks": 144,
          "time": 0.6428565,
          "velocity": 0.7874015748031497
        },
        {
          "duration": 0.20535693749999995,
          "durationTicks": 46,
          "midi": 82,
          "name": "A#5",
          "ticks": 192,
          "time": 0.8571420000000001,
          "velocity": 0.7874015748031497
        },
        {
          "duration": 0.20535693749999995,
          "durationTicks": 46,
          "midi": 79,
          "name": "G5",
          "ticks": 288,
          "time": 1.285713,
          "velocity": 0.7874015748031497
        },
        {
          "duration": 0.20535693749999995,
          "durationTicks": 46,
          "midi": 86,
          "name": "D6",
          "ticks": 336,
          "time": 1.4999985000000002,
          "velocity": 0.7874015748031497
        },
        {
          "duration": 0.20535693750000017,
          "durationTicks": 46,
          "midi": 84,
          "name": "C6",
          "ticks": 384,
          "time": 1.7142840000000001,
          "velocity": 0.7874015748031497
        },
        {
          "duration": 0.2053569375000004,
          "durationTicks": 46,
          "midi": 82,
          "name": "A#5",
          "ticks": 432,
          "time": 1.9285695,
          "velocity": 0.7874015748031497
        },
        {
          "duration": 0.2053569375000004,
          "durationTicks": 46,
          "midi": 77,
          "name": "F5",
          "ticks": 480,
          "time": 2.142855,
          "velocity": 0.7874015748031497
        },
        {
          "duration": 0.20535693749999995,
          "durationTicks": 46,
          "midi": 82,
          "name": "A#5",
          "ticks": 576,
          "time": 2.571426,
          "velocity": 0.7874015748031497
        },
        {
          "duration": 0.2053569375000004,
          "durationTicks": 46,
          "midi": 81,
          "name": "A5",
          "ticks": 624,
          "time": 2.7857115,
          "velocity": 0.7874015748031497
        },
        {
          "duration": 0.20535693749999995,
          "durationTicks": 46,
          "midi": 77,
          "name": "F5",
          "ticks": 672,
          "time": 2.9999970000000005,
          "velocity": 0.7874015748031497
        },
        {
          "duration": 0.20535693749999995,
          "durationTicks": 46,
          "midi": 75,
          "name": "D#5",
          "ticks": 720,
          "time": 3.2142825000000004,
          "velocity": 0.7874015748031497
        },
        {
          "duration": 0.20535693749999995,
          "durationTicks": 46,
          "midi": 74,
          "name": "D5",
          "ticks": 768,
          "time": 3.4285680000000003,
          "velocity": 0.7874015748031497
        },
        {
          "duration": 0.20535693749999995,
          "durationTicks": 46,
          "midi": 72,
          "name": "C5",
          "ticks": 816,
          "time": 3.6428535,
          "velocity": 0.7874015748031497
        },
        {
          "duration": 0.2053569375000004,
          "durationTicks": 46,
          "midi": 70,
          "name": "A#4",
          "ticks": 864,
          "time": 3.857139,
          "velocity": 0.7874015748031497
        },
        {
          "duration": 0.2053569375000004,
          "durationTicks": 46,
          "midi": 77,
          "name": "F5",
          "ticks": 912,
          "time": 4.0714245,
          "velocity": 0.7874015748031497
        },
        {
          "duration": 0.2053569375000004,
          "durationTicks": 46,
          "midi": 70,
          "name": "A#4",
          "ticks": 960,
          "time": 4.28571,
          "velocity": 0.7874015748031497
        },
        {
          "duration": 0.2053569374999995,
          "durationTicks": 46,
          "midi": 67,
          "name": "G4",
          "ticks": 1008,
          "time": 4.499995500000001,
          "velocity": 0.7874015748031497
        },
        {
          "duration": 0.2053569374999995,
          "durationTicks": 46,
          "midi": 70,
          "name": "A#4",
          "ticks": 1056,
          "time": 4.714281000000001,
          "velocity": 0.7874015748031497
        },
        {
          "duration": 0.2053569374999995,
          "durationTicks": 46,
          "midi": 74,
          "name": "D5",
          "ticks": 1104,
          "time": 4.9285665000000005,
          "velocity": 0.7874015748031497
        },
        {
          "duration": 0.2053569374999995,
          "durationTicks": 46,
          "midi": 91,
          "name": "G6",
          "ticks": 1152,
          "time": 5.142852,
          "velocity": 0.7874015748031497
        },
        {
          "duration": 0.2053569374999995,
          "durationTicks": 46,
          "midi": 86,
          "name": "D6",
          "ticks": 1200,
          "time": 5.3571375,
          "velocity": 0.7874015748031497
        },
        {
          "duration": 0.2053569375000004,
          "durationTicks": 46,
          "midi": 82,
          "name": "A#5",
          "ticks": 1248,
          "time": 5.571423,
          "velocity": 0.7874015748031497
        },
        {
          "duration": 0.2053569375000004,
          "durationTicks": 46,
          "midi": 79,
          "name": "G5",
          "ticks": 1296,
          "time": 5.7857085,
          "velocity": 0.7874015748031497
        },
        {
          "duration": 0.2053569374999995,
          "durationTicks": 46,
          "midi": 89,
          "name": "F6",
          "ticks": 1344,
          "time": 5.999994000000001,
          "velocity": 0.7874015748031497
        },
        {
          "duration": 0.2053569374999995,
          "durationTicks": 46,
          "midi": 82,
          "name": "A#5",
          "ticks": 1392,
          "time": 6.214279500000001,
          "velocity": 0.7874015748031497
        },
        {
          "duration": 0.2053569374999995,
          "durationTicks": 46,
          "midi": 79,
          "name": "G5",
          "ticks": 1440,
          "time": 6.428565000000001,
          "velocity": 0.7874015748031497
        },
        {
          "duration": 0.2053569374999995,
          "durationTicks": 46,
          "midi": 77,
          "name": "F5",
          "ticks": 1488,
          "time": 6.642850500000001,
          "velocity": 0.7874015748031497
        },
        {
          "duration": 0.2053569375000004,
          "durationTicks": 46,
          "midi": 79,
          "name": "G5",
          "ticks": 1584,
          "time": 7.0714215000000005,
          "velocity": 0.7874015748031497
        },
        {
          "duration": 0.2053569375000004,
          "durationTicks": 46,
          "midi": 77,
          "name": "F5",
          "ticks": 1632,
          "time": 7.285707,
          "velocity": 0.7874015748031497
        },
        {
          "duration": 0.20535693750000128,
          "durationTicks": 46,
          "midi": 79,
          "name": "G5",
          "ticks": 1680,
          "time": 7.4999925,
          "velocity": 0.7874015748031497
        },
        {
          "duration": 0.20535693750000128,
          "durationTicks": 46,
          "midi": 82,
          "name": "A#5",
          "ticks": 1728,
          "time": 7.714278,
          "velocity": 0.7874015748031497
        },
        {
          "duration": 0.20535693750000128,
          "durationTicks": 46,
          "midi": 79,
          "name": "G5",
          "ticks": 1824,
          "time": 8.142849,
          "velocity": 0.7874015748031497
        },
        {
          "duration": 0.20535693750000128,
          "durationTicks": 46,
          "midi": 86,
          "name": "D6",
          "ticks": 1872,
          "time": 8.3571345,
          "velocity": 0.7874015748031497
        },
        {
          "duration": 0.20535693750000128,
          "durationTicks": 46,
          "midi": 84,
          "name": "C6",
          "ticks": 1920,
          "time": 8.57142,
          "velocity": 0.7874015748031497
        },
        {
          "duration": 0.20535693750000128,
          "durationTicks": 46,
          "midi": 82,
          "name": "A#5",
          "ticks": 1968,
          "time": 8.7857055,
          "velocity": 0.7874015748031497
        },
        {
          "duration": 0.2053569374999995,
          "durationTicks": 46,
          "midi": 77,
          "name": "F5",
          "ticks": 2016,
          "time": 8.999991000000001,
          "velocity": 0.7874015748031497
        },
        {
          "duration": 0.2053569374999995,
          "durationTicks": 46,
          "midi": 82,
          "name": "A#5",
          "ticks": 2112,
          "time": 9.428562000000001,
          "velocity": 0.7874015748031497
        },
        {
          "duration": 0.20535693750000128,
          "durationTicks": 46,
          "midi": 81,
          "name": "A5",
          "ticks": 2160,
          "time": 9.6428475,
          "velocity": 0.7874015748031497
        },
        {
          "duration": 0.2053569374999995,
          "durationTicks": 46,
          "midi": 77,
          "name": "F5",
          "ticks": 2208,
          "time": 9.857133000000001,
          "velocity": 0.7874015748031497
        },
        {
          "duration": 0.20535693750000128,
          "durationTicks": 46,
          "midi": 75,
          "name": "D#5",
          "ticks": 2256,
          "time": 10.0714185,
          "velocity": 0.7874015748031497
        },
        {
          "duration": 0.20535693750000128,
          "durationTicks": 46,
          "midi": 74,
          "name": "D5",
          "ticks": 2304,
          "time": 10.285704,
          "velocity": 0.7874015748031497
        },
        {
          "duration": 0.2053569374999995,
          "durationTicks": 46,
          "midi": 72,
          "name": "C5",
          "ticks": 2352,
          "time": 10.499989500000002,
          "velocity": 0.7874015748031497
        },
        {
          "duration": 0.20535693750000128,
          "durationTicks": 46,
          "midi": 70,
          "name": "A#4",
          "ticks": 2400,
          "time": 10.714275,
          "velocity": 0.7874015748031497
        },
        {
          "duration": 0.2053569374999995,
          "durationTicks": 46,
          "midi": 77,
          "name": "F5",
          "ticks": 2448,
          "time": 10.928560500000001,
          "velocity": 0.7874015748031497
        },
        {
          "duration": 0.20535693750000128,
          "durationTicks": 46,
          "midi": 70,
          "name": "A#4",
          "ticks": 2496,
          "time": 11.142846,
          "velocity": 0.7874015748031497
        },
        {
          "duration": 0.2053569374999995,
          "durationTicks": 46,
          "midi": 67,
          "name": "G4",
          "ticks": 2544,
          "time": 11.357131500000001,
          "velocity": 0.7874015748031497
        },
        {
          "duration": 0.20535693750000128,
          "durationTicks": 46,
          "midi": 70,
          "name": "A#4",
          "ticks": 2592,
          "time": 11.571417,
          "velocity": 0.7874015748031497
        },
        {
          "duration": 0.20535693750000128,
          "durationTicks": 46,
          "midi": 74,
          "name": "D5",
          "ticks": 2640,
          "time": 11.785702500000001,
          "velocity": 0.7874015748031497
        },
        {
          "duration": 0.2053569374999995,
          "durationTicks": 46,
          "midi": 91,
          "name": "G6",
          "ticks": 2688,
          "time": 11.999988000000002,
          "velocity": 0.7874015748031497
        },
        {
          "duration": 0.20535693750000128,
          "durationTicks": 46,
          "midi": 86,
          "name": "D6",
          "ticks": 2736,
          "time": 12.214273500000001,
          "velocity": 0.7874015748031497
        },
        {
          "duration": 0.2053569374999995,
          "durationTicks": 46,
          "midi": 82,
          "name": "A#5",
          "ticks": 2784,
          "time": 12.428559000000002,
          "velocity": 0.7874015748031497
        },
        {
          "duration": 0.20535693750000128,
          "durationTicks": 46,
          "midi": 79,
          "name": "G5",
          "ticks": 2832,
          "time": 12.6428445,
          "velocity": 0.7874015748031497
        },
        {
          "duration": 0.2053569374999995,
          "durationTicks": 46,
          "midi": 89,
          "name": "F6",
          "ticks": 2880,
          "time": 12.857130000000002,
          "velocity": 0.7874015748031497
        },
        {
          "duration": 0.20535693750000128,
          "durationTicks": 46,
          "midi": 82,
          "name": "A#5",
          "ticks": 2928,
          "time": 13.0714155,
          "velocity": 0.7874015748031497
        },
        {
          "duration": 0.2053569374999995,
          "durationTicks": 46,
          "midi": 79,
          "name": "G5",
          "ticks": 2976,
          "time": 13.285701000000001,
          "velocity": 0.7874015748031497
        },
        {
          "duration": 0.20535693750000128,
          "durationTicks": 46,
          "midi": 77,
          "name": "F5",
          "ticks": 3024,
          "time": 13.4999865,
          "velocity": 0.7874015748031497
        },
        {
          "duration": 0.20535693749999773,
          "durationTicks": 46,
          "midi": 79,
          "name": "G5",
          "ticks": 3120,
          "time": 13.928557500000002,
          "velocity": 0.7874015748031497
        },
        {
          "duration": 0.2053569374999995,
          "durationTicks": 46,
          "midi": 77,
          "name": "F5",
          "ticks": 3168,
          "time": 14.142843000000001,
          "velocity": 0.7874015748031497
        },
        {
          "duration": 0.20535693749999773,
          "durationTicks": 46,
          "midi": 79,
          "name": "G5",
          "ticks": 3216,
          "time": 14.357128500000002,
          "velocity": 0.7874015748031497
        },
        {
          "duration": 0.2053569374999995,
          "durationTicks": 46,
          "midi": 82,
          "name": "A#5",
          "ticks": 3264,
          "time": 14.571414,
          "velocity": 0.7874015748031497
        },
        {
          "duration": 0.2053569374999995,
          "durationTicks": 46,
          "midi": 79,
          "name": "G5",
          "ticks": 3360,
          "time": 14.999985,
          "velocity": 0.7874015748031497
        },
        {
          "duration": 0.2053569374999995,
          "durationTicks": 46,
          "midi": 86,
          "name": "D6",
          "ticks": 3408,
          "time": 15.214270500000001,
          "velocity": 0.7874015748031497
        },
        {
          "duration": 0.2053569374999995,
          "durationTicks": 46,
          "midi": 84,
          "name": "C6",
          "ticks": 3456,
          "time": 15.428556,
          "velocity": 0.7874015748031497
        },
        {
          "duration": 0.2053569374999995,
          "durationTicks": 46,
          "midi": 82,
          "name": "A#5",
          "ticks": 3504,
          "time": 15.642841500000001,
          "velocity": 0.7874015748031497
        },
        {
          "duration": 0.2053569374999995,
          "durationTicks": 46,
          "midi": 77,
          "name": "F5",
          "ticks": 3552,
          "time": 15.857127000000002,
          "velocity": 0.7874015748031497
        },
        {
          "duration": 0.2053569374999995,
          "durationTicks": 46,
          "midi": 82,
          "name": "A#5",
          "ticks": 3648,
          "time": 16.285698,
          "velocity": 0.7874015748031497
        },
        {
          "duration": 0.2053569374999995,
          "durationTicks": 46,
          "midi": 81,
          "name": "A5",
          "ticks": 3696,
          "time": 16.499983500000003,
          "velocity": 0.7874015748031497
        },
        {
          "duration": 0.2053569374999995,
          "durationTicks": 46,
          "midi": 77,
          "name": "F5",
          "ticks": 3744,
          "time": 16.714269,
          "velocity": 0.7874015748031497
        },
        {
          "duration": 0.2053569374999995,
          "durationTicks": 46,
          "midi": 75,
          "name": "D#5",
          "ticks": 3792,
          "time": 16.9285545,
          "velocity": 0.7874015748031497
        },
        {
          "duration": 0.2053569374999995,
          "durationTicks": 46,
          "midi": 74,
          "name": "D5",
          "ticks": 3840,
          "time": 17.14284,
          "velocity": 0.7874015748031497
        },
        {
          "duration": 0.2053569374999995,
          "durationTicks": 46,
          "midi": 72,
          "name": "C5",
          "ticks": 3888,
          "time": 17.357125500000002,
          "velocity": 0.7874015748031497
        },
        {
          "duration": 0.2053569374999995,
          "durationTicks": 46,
          "midi": 70,
          "name": "A#4",
          "ticks": 3936,
          "time": 17.571411,
          "velocity": 0.7874015748031497
        },
        {
          "duration": 0.2053569374999995,
          "durationTicks": 46,
          "midi": 77,
          "name": "F5",
          "ticks": 3984,
          "time": 17.7856965,
          "velocity": 0.7874015748031497
        },
        {
          "duration": 0.20535693749999595,
          "durationTicks": 46,
          "midi": 70,
          "name": "A#4",
          "ticks": 4032,
          "time": 17.999982000000003,
          "velocity": 0.7874015748031497
        },
        {
          "duration": 0.2053569374999995,
          "durationTicks": 46,
          "midi": 67,
          "name": "G4",
          "ticks": 4080,
          "time": 18.214267500000002,
          "velocity": 0.7874015748031497
        },
        {
          "duration": 0.2053569374999995,
          "durationTicks": 46,
          "midi": 70,
          "name": "A#4",
          "ticks": 4128,
          "time": 18.428553,
          "velocity": 0.7874015748031497
        },
        {
          "duration": 0.2053569374999995,
          "durationTicks": 46,
          "midi": 74,
          "name": "D5",
          "ticks": 4176,
          "time": 18.6428385,
          "velocity": 0.7874015748031497
        },
        {
          "duration": 0.2053569374999995,
          "durationTicks": 46,
          "midi": 91,
          "name": "G6",
          "ticks": 4224,
          "time": 18.857124000000002,
          "velocity": 0.7874015748031497
        },
        {
          "duration": 0.2053569374999995,
          "durationTicks": 46,
          "midi": 86,
          "name": "D6",
          "ticks": 4272,
          "time": 19.0714095,
          "velocity": 0.7874015748031497
        },
        {
          "duration": 0.2053569374999995,
          "durationTicks": 46,
          "midi": 82,
          "name": "A#5",
          "ticks": 4320,
          "time": 19.285695,
          "velocity": 0.7874015748031497
        },
        {
          "duration": 0.20535693749999595,
          "durationTicks": 46,
          "midi": 79,
          "name": "G5",
          "ticks": 4368,
          "time": 19.499980500000003,
          "velocity": 0.7874015748031497
        },
        {
          "duration": 0.2053569374999995,
          "durationTicks": 46,
          "midi": 89,
          "name": "F6",
          "ticks": 4416,
          "time": 19.714266000000002,
          "velocity": 0.7874015748031497
        },
        {
          "duration": 0.2053569374999995,
          "durationTicks": 46,
          "midi": 82,
          "name": "A#5",
          "ticks": 4464,
          "time": 19.9285515,
          "velocity": 0.7874015748031497
        },
        {
          "duration": 0.2053569374999995,
          "durationTicks": 46,
          "midi": 79,
          "name": "G5",
          "ticks": 4512,
          "time": 20.142837,
          "velocity": 0.7874015748031497
        },
        {
          "duration": 0.2053569374999995,
          "durationTicks": 46,
          "midi": 77,
          "name": "F5",
          "ticks": 4560,
          "time": 20.357122500000003,
          "velocity": 0.7874015748031497
        },
        {
          "duration": 0.2053569374999995,
          "durationTicks": 46,
          "midi": 79,
          "name": "G5",
          "ticks": 4656,
          "time": 20.7856935,
          "velocity": 0.7874015748031497
        },
        {
          "duration": 0.20535693749999595,
          "durationTicks": 46,
          "midi": 77,
          "name": "F5",
          "ticks": 4704,
          "time": 20.999979000000003,
          "velocity": 0.7874015748031497
        },
        {
          "duration": 0.2053569374999995,
          "durationTicks": 46,
          "midi": 79,
          "name": "G5",
          "ticks": 4752,
          "time": 21.214264500000002,
          "velocity": 0.7874015748031497
        },
        {
          "duration": 0.2053569374999995,
          "durationTicks": 46,
          "midi": 82,
          "name": "A#5",
          "ticks": 4800,
          "time": 21.42855,
          "velocity": 0.7874015748031497
        },
        {
          "duration": 0.2053569374999995,
          "durationTicks": 46,
          "midi": 79,
          "name": "G5",
          "ticks": 4896,
          "time": 21.857121000000003,
          "velocity": 0.7874015748031497
        },
        {
          "duration": 0.2053569374999995,
          "durationTicks": 46,
          "midi": 86,
          "name": "D6",
          "ticks": 4944,
          "time": 22.071406500000002,
          "velocity": 0.7874015748031497
        },
        {
          "duration": 0.2053569374999995,
          "durationTicks": 46,
          "midi": 84,
          "name": "C6",
          "ticks": 4992,
          "time": 22.285692,
          "velocity": 0.7874015748031497
        },
        {
          "duration": 0.20535693749999595,
          "durationTicks": 46,
          "midi": 82,
          "name": "A#5",
          "ticks": 5040,
          "time": 22.499977500000004,
          "velocity": 0.7874015748031497
        },
        {
          "duration": 0.2053569374999995,
          "durationTicks": 46,
          "midi": 77,
          "name": "F5",
          "ticks": 5088,
          "time": 22.714263000000003,
          "velocity": 0.7874015748031497
        },
        {
          "duration": 0.2053569374999995,
          "durationTicks": 46,
          "midi": 82,
          "name": "A#5",
          "ticks": 5184,
          "time": 23.142834,
          "velocity": 0.7874015748031497
        },
        {
          "duration": 0.2053569374999995,
          "durationTicks": 46,
          "midi": 81,
          "name": "A5",
          "ticks": 5232,
          "time": 23.357119500000003,
          "velocity": 0.7874015748031497
        },
        {
          "duration": 0.2053569374999995,
          "durationTicks": 46,
          "midi": 77,
          "name": "F5",
          "ticks": 5280,
          "time": 23.571405000000002,
          "velocity": 0.7874015748031497
        },
        {
          "duration": 0.2053569374999995,
          "durationTicks": 46,
          "midi": 75,
          "name": "D#5",
          "ticks": 5328,
          "time": 23.7856905,
          "velocity": 0.7874015748031497
        },
        {
          "duration": 0.20535693749999595,
          "durationTicks": 46,
          "midi": 74,
          "name": "D5",
          "ticks": 5376,
          "time": 23.999976000000004,
          "velocity": 0.7874015748031497
        },
        {
          "duration": 0.2053569374999995,
          "durationTicks": 46,
          "midi": 72,
          "name": "C5",
          "ticks": 5424,
          "time": 24.214261500000003,
          "velocity": 0.7874015748031497
        },
        {
          "duration": 0.2053569374999995,
          "durationTicks": 46,
          "midi": 70,
          "name": "A#4",
          "ticks": 5472,
          "time": 24.428547000000002,
          "velocity": 0.7874015748031497
        },
        {
          "duration": 0.2053569374999995,
          "durationTicks": 46,
          "midi": 77,
          "name": "F5",
          "ticks": 5520,
          "time": 24.6428325,
          "velocity": 0.7874015748031497
        },
        {
          "duration": 0.20535693749999595,
          "durationTicks": 46,
          "midi": 70,
          "name": "A#4",
          "ticks": 5568,
          "time": 24.857118000000003,
          "velocity": 0.7874015748031497
        },
        {
          "duration": 0.2053569374999995,
          "durationTicks": 46,
          "midi": 67,
          "name": "G4",
          "ticks": 5616,
          "time": 25.071403500000002,
          "velocity": 0.7874015748031497
        },
        {
          "duration": 0.2053569374999995,
          "durationTicks": 46,
          "midi": 70,
          "name": "A#4",
          "ticks": 5664,
          "time": 25.285689,
          "velocity": 0.7874015748031497
        },
        {
          "duration": 0.2053569374999995,
          "durationTicks": 46,
          "midi": 74,
          "name": "D5",
          "ticks": 5712,
          "time": 25.4999745,
          "velocity": 0.7874015748031497
        },
        {
          "duration": 0.2053569374999995,
          "durationTicks": 46,
          "midi": 91,
          "name": "G6",
          "ticks": 5760,
          "time": 25.714260000000003,
          "velocity": 0.7874015748031497
        },
        {
          "duration": 0.2053569374999995,
          "durationTicks": 46,
          "midi": 86,
          "name": "D6",
          "ticks": 5808,
          "time": 25.928545500000002,
          "velocity": 0.7874015748031497
        },
        {
          "duration": 0.2053569374999995,
          "durationTicks": 46,
          "midi": 82,
          "name": "A#5",
          "ticks": 5856,
          "time": 26.142831,
          "velocity": 0.7874015748031497
        },
        {
          "duration": 0.20535693749999595,
          "durationTicks": 46,
          "midi": 79,
          "name": "G5",
          "ticks": 5904,
          "time": 26.357116500000004,
          "velocity": 0.7874015748031497
        },
        {
          "duration": 0.2053569374999995,
          "durationTicks": 46,
          "midi": 89,
          "name": "F6",
          "ticks": 5952,
          "time": 26.571402000000003,
          "velocity": 0.7874015748031497
        },
        {
          "duration": 0.2053569374999995,
          "durationTicks": 46,
          "midi": 82,
          "name": "A#5",
          "ticks": 6000,
          "time": 26.7856875,
          "velocity": 0.7874015748031497
        },
        {
          "duration": 0.2053569374999995,
          "durationTicks": 46,
          "midi": 79,
          "name": "G5",
          "ticks": 6048,
          "time": 26.999973,
          "velocity": 0.7874015748031497
        },
        {
          "duration": 0.2053569374999995,
          "durationTicks": 46,
          "midi": 77,
          "name": "F5",
          "ticks": 6096,
          "time": 27.214258500000003,
          "velocity": 0.7874015748031497
        },
        {
          "duration": 0.4196424375000021,
          "durationTicks": 94,
          "midi": 70,
          "name": "A#4",
          "ticks": 6144,
          "time": 27.428544000000002,
          "velocity": 0.7874015748031497
        },
        {
          "duration": 0.4196424375000021,
          "durationTicks": 94,
          "midi": 70,
          "name": "A#4",
          "ticks": 6240,
          "time": 27.857115000000004,
          "velocity": 0.7874015748031497
        },
        {
          "duration": 0.8482134375000037,
          "durationTicks": 190,
          "midi": 77,
          "name": "F5",
          "ticks": 6336,
          "time": 28.285686000000002,
          "velocity": 0.7874015748031497
        },
        {
          "duration": 0.20535693750000306,
          "durationTicks": 46,
          "midi": 74,
          "name": "D5",
          "ticks": 6528,
          "time": 29.142828,
          "velocity": 0.7874015748031497
        },
        {
          "duration": 0.20535693750000306,
          "durationTicks": 46,
          "midi": 74,
          "name": "D5",
          "ticks": 6624,
          "time": 29.571399000000003,
          "velocity": 0.7874015748031497
        },
        {
          "duration": 0.09821418750000177,
          "durationTicks": 22,
          "midi": 74,
          "name": "D5",
          "ticks": 6696,
          "time": 29.892827250000003,
          "velocity": 0.7874015748031497
        },
        {
          "duration": 0.20535693750000306,
          "durationTicks": 46,
          "midi": 72,
          "name": "C5",
          "ticks": 6720,
          "time": 29.99997,
          "velocity": 0.7874015748031497
        },
        {
          "duration": 0.2053569374999995,
          "durationTicks": 46,
          "midi": 70,
          "name": "A#4",
          "ticks": 6768,
          "time": 30.214255500000004,
          "velocity": 0.7874015748031497
        },
        {
          "duration": 0.09821418750000177,
          "durationTicks": 22,
          "midi": 70,
          "name": "A#4",
          "ticks": 6816,
          "time": 30.428541000000003,
          "velocity": 0.7874015748031497
        },
        {
          "duration": 0.09821418750000177,
          "durationTicks": 22,
          "midi": 72,
          "name": "C5",
          "ticks": 6840,
          "time": 30.535683750000004,
          "velocity": 0.7874015748031497
        },
        {
          "duration": 0.09821418750000177,
          "durationTicks": 22,
          "midi": 74,
          "name": "D5",
          "ticks": 6864,
          "time": 30.6428265,
          "velocity": 0.7874015748031497
        },
        {
          "duration": 0.09821418750000177,
          "durationTicks": 22,
          "midi": 75,
          "name": "D#5",
          "ticks": 6888,
          "time": 30.749969250000003,
          "velocity": 0.7874015748031497
        },
        {
          "duration": 0.20535693750000306,
          "durationTicks": 46,
          "midi": 74,
          "name": "D5",
          "ticks": 6912,
          "time": 30.857112,
          "velocity": 0.7874015748031497
        },
        {
          "duration": 0.2053569374999995,
          "durationTicks": 46,
          "midi": 67,
          "name": "G4",
          "ticks": 6960,
          "time": 31.071397500000003,
          "velocity": 0.7874015748031497
        },
        {
          "duration": 0.20535693750000306,
          "durationTicks": 46,
          "midi": 70,
          "name": "A#4",
          "ticks": 7008,
          "time": 31.285683000000002,
          "velocity": 0.7874015748031497
        },
        {
          "duration": 0.20535693750000306,
          "durationTicks": 46,
          "midi": 70,
          "name": "A#4",
          "ticks": 7056,
          "time": 31.4999685,
          "velocity": 0.7874015748031497
        },
        {
          "duration": 0.2053569374999995,
          "durationTicks": 46,
          "midi": 70,
          "name": "A#4",
          "ticks": 7104,
          "time": 31.714254000000004,
          "velocity": 0.7874015748031497
        },
        {
          "duration": 0.20535693750000306,
          "durationTicks": 46,
          "midi": 67,
          "name": "G4",
          "ticks": 7152,
          "time": 31.928539500000003,
          "velocity": 0.7874015748031497
        },
        {
          "duration": 0.2053569374999995,
          "durationTicks": 46,
          "midi": 70,
          "name": "A#4",
          "ticks": 7200,
          "time": 32.142825,
          "velocity": 0.7874015748031497
        },
        {
          "duration": 0.2053569374999995,
          "durationTicks": 46,
          "midi": 70,
          "name": "A#4",
          "ticks": 7248,
          "time": 32.357110500000005,
          "velocity": 0.7874015748031497
        },
        {
          "duration": 0.2053569375000066,
          "durationTicks": 46,
          "midi": 77,
          "name": "F5",
          "ticks": 7296,
          "time": 32.571396,
          "velocity": 0.7874015748031497
        },
        {
          "duration": 0.09821418750000532,
          "durationTicks": 22,
          "midi": 70,
          "name": "A#4",
          "ticks": 7344,
          "time": 32.7856815,
          "velocity": 0.7874015748031497
        },
        {
          "duration": 0.09821418749999822,
          "durationTicks": 22,
          "midi": 70,
          "name": "A#4",
          "ticks": 7368,
          "time": 32.892824250000004,
          "velocity": 0.7874015748031497
        },
        {
          "duration": 0.2053569374999995,
          "durationTicks": 46,
          "midi": 70,
          "name": "A#4",
          "ticks": 7392,
          "time": 32.999967000000005,
          "velocity": 0.7874015748031497
        },
        {
          "duration": 0.2053569375000066,
          "durationTicks": 46,
          "midi": 72,
          "name": "C5",
          "ticks": 7440,
          "time": 33.2142525,
          "velocity": 0.7874015748031497
        },
        {
          "duration": 0.2053569374999995,
          "durationTicks": 46,
          "midi": 70,
          "name": "A#4",
          "ticks": 7488,
          "time": 33.428538,
          "velocity": 0.7874015748031497
        },
        {
          "duration": 0.2053569374999995,
          "durationTicks": 46,
          "midi": 69,
          "name": "A4",
          "ticks": 7536,
          "time": 33.642823500000006,
          "velocity": 0.7874015748031497
        },
        {
          "duration": 0.2053569375000066,
          "durationTicks": 46,
          "midi": 67,
          "name": "G4",
          "ticks": 7584,
          "time": 33.857109,
          "velocity": 0.7874015748031497
        },
        {
          "duration": 0.2053569374999995,
          "durationTicks": 46,
          "midi": 65,
          "name": "F4",
          "ticks": 7632,
          "time": 34.071394500000004,
          "velocity": 0.7874015748031497
        },
        {
          "duration": 0.4196424375000021,
          "durationTicks": 94,
          "midi": 70,
          "name": "A#4",
          "ticks": 7680,
          "time": 34.28568,
          "velocity": 0.7874015748031497
        },
        {
          "duration": 0.4196424375000021,
          "durationTicks": 94,
          "midi": 70,
          "name": "A#4",
          "ticks": 7776,
          "time": 34.714251000000004,
          "velocity": 0.7874015748031497
        },
        {
          "duration": 0.8482134375000001,
          "durationTicks": 190,
          "midi": 77,
          "name": "F5",
          "ticks": 7872,
          "time": 35.142822,
          "velocity": 0.7874015748031497
        },
        {
          "duration": 0.2053569374999995,
          "durationTicks": 46,
          "midi": 74,
          "name": "D5",
          "ticks": 8064,
          "time": 35.999964000000006,
          "velocity": 0.7874015748031497
        },
        {
          "duration": 0.2053569374999995,
          "durationTicks": 46,
          "midi": 74,
          "name": "D5",
          "ticks": 8160,
          "time": 36.428535000000004,
          "velocity": 0.7874015748031497
        },
        {
          "duration": 0.09821418750000532,
          "durationTicks": 22,
          "midi": 74,
          "name": "D5",
          "ticks": 8232,
          "time": 36.74996325,
          "velocity": 0.7874015748031497
        },
        {
          "duration": 0.2053569375000066,
          "durationTicks": 46,
          "midi": 72,
          "name": "C5",
          "ticks": 8256,
          "time": 36.857106,
          "velocity": 0.7874015748031497
        },
        {
          "duration": 0.2053569374999995,
          "durationTicks": 46,
          "midi": 70,
          "name": "A#4",
          "ticks": 8304,
          "time": 37.071391500000004,
          "velocity": 0.7874015748031497
        },
        {
          "duration": 0.09821418750000532,
          "durationTicks": 22,
          "midi": 70,
          "name": "A#4",
          "ticks": 8352,
          "time": 37.285677,
          "velocity": 0.7874015748031497
        },
        {
          "duration": 0.09821418750000532,
          "durationTicks": 22,
          "midi": 72,
          "name": "C5",
          "ticks": 8376,
          "time": 37.39281975,
          "velocity": 0.7874015748031497
        },
        {
          "duration": 0.09821418750000532,
          "durationTicks": 22,
          "midi": 74,
          "name": "D5",
          "ticks": 8400,
          "time": 37.4999625,
          "velocity": 0.7874015748031497
        },
        {
          "duration": 0.09821418749999822,
          "durationTicks": 22,
          "midi": 75,
          "name": "D#5",
          "ticks": 8424,
          "time": 37.607105250000004,
          "velocity": 0.7874015748031497
        },
        {
          "duration": 0.2053569374999995,
          "durationTicks": 46,
          "midi": 77,
          "name": "F5",
          "ticks": 8448,
          "time": 37.714248000000005,
          "velocity": 0.7874015748031497
        },
        {
          "duration": 0.2053569375000066,
          "durationTicks": 46,
          "midi": 67,
          "name": "G4",
          "ticks": 8496,
          "time": 37.9285335,
          "velocity": 0.7874015748031497
        },
        {
          "duration": 0.2053569374999995,
          "durationTicks": 46,
          "midi": 70,
          "name": "A#4",
          "ticks": 8544,
          "time": 38.142819,
          "velocity": 0.7874015748031497
        },
        {
          "duration": 0.2053569374999995,
          "durationTicks": 46,
          "midi": 70,
          "name": "A#4",
          "ticks": 8592,
          "time": 38.357104500000005,
          "velocity": 0.7874015748031497
        },
        {
          "duration": 0.2053569375000066,
          "durationTicks": 46,
          "midi": 70,
          "name": "A#4",
          "ticks": 8640,
          "time": 38.57139,
          "velocity": 0.7874015748031497
        },
        {
          "duration": 0.2053569374999995,
          "durationTicks": 46,
          "midi": 67,
          "name": "G4",
          "ticks": 8688,
          "time": 38.7856755,
          "velocity": 0.7874015748031497
        },
        {
          "duration": 0.2053569374999995,
          "durationTicks": 46,
          "midi": 70,
          "name": "A#4",
          "ticks": 8736,
          "time": 38.999961000000006,
          "velocity": 0.7874015748031497
        },
        {
          "duration": 0.09821418750000532,
          "durationTicks": 22,
          "midi": 70,
          "name": "A#4",
          "ticks": 8784,
          "time": 39.2142465,
          "velocity": 0.7874015748031497
        },
        {
          "duration": 0.09821418750000532,
          "durationTicks": 22,
          "midi": 70,
          "name": "A#4",
          "ticks": 8808,
          "time": 39.32138925,
          "velocity": 0.7874015748031497
        },
        {
          "duration": 0.2053569374999995,
          "durationTicks": 46,
          "midi": 77,
          "name": "F5",
          "ticks": 8832,
          "time": 39.428532000000004,
          "velocity": 0.7874015748031497
        },
        {
          "duration": 0.2053569374999995,
          "durationTicks": 46,
          "midi": 70,
          "name": "A#4",
          "ticks": 8880,
          "time": 39.64281750000001,
          "velocity": 0.7874015748031497
        },
        {
          "duration": 0.09821418750000532,
          "durationTicks": 22,
          "midi": 70,
          "name": "A#4",
          "ticks": 8928,
          "time": 39.857103,
          "velocity": 0.7874015748031497
        },
        {
          "duration": 0.09821418750000532,
          "durationTicks": 22,
          "midi": 70,
          "name": "A#4",
          "ticks": 8952,
          "time": 39.96424575,
          "velocity": 0.7874015748031497
        },
        {
          "duration": 0.2053569374999995,
          "durationTicks": 46,
          "midi": 72,
          "name": "C5",
          "ticks": 8976,
          "time": 40.071388500000005,
          "velocity": 0.7874015748031497
        },
        {
          "duration": 0.2053569375000066,
          "durationTicks": 46,
          "midi": 70,
          "name": "A#4",
          "ticks": 9024,
          "time": 40.285674,
          "velocity": 0.7874015748031497
        },
        {
          "duration": 0.2053569374999995,
          "durationTicks": 46,
          "midi": 69,
          "name": "A4",
          "ticks": 9072,
          "time": 40.4999595,
          "velocity": 0.7874015748031497
        },
        {
          "duration": 0.2053569374999995,
          "durationTicks": 46,
          "midi": 67,
          "name": "G4",
          "ticks": 9120,
          "time": 40.714245000000005,
          "velocity": 0.7874015748031497
        },
        {
          "duration": 0.2053569375000066,
          "durationTicks": 46,
          "midi": 65,
          "name": "F4",
          "ticks": 9168,
          "time": 40.9285305,
          "velocity": 0.7874015748031497
        },
        {
          "duration": 0.2053569374999995,
          "durationTicks": 46,
          "midi": 79,
          "name": "G5",
          "ticks": 9264,
          "time": 41.357101500000006,
          "velocity": 0.7874015748031497
        },
        {
          "duration": 0.2053569375000066,
          "durationTicks": 46,
          "midi": 77,
          "name": "F5",
          "ticks": 9312,
          "time": 41.571387,
          "velocity": 0.7874015748031497
        },
        {
          "duration": 0.2053569374999995,
          "durationTicks": 46,
          "midi": 79,
          "name": "G5",
          "ticks": 9360,
          "time": 41.785672500000004,
          "velocity": 0.7874015748031497
        },
        {
          "duration": 0.2053569374999995,
          "durationTicks": 46,
          "midi": 82,
          "name": "A#5",
          "ticks": 9408,
          "time": 41.99995800000001,
          "velocity": 0.7874015748031497
        },
        {
          "duration": 0.2053569374999995,
          "durationTicks": 46,
          "midi": 79,
          "name": "G5",
          "ticks": 9504,
          "time": 42.428529000000005,
          "velocity": 0.7874015748031497
        },
        {
          "duration": 0.2053569375000066,
          "durationTicks": 46,
          "midi": 86,
          "name": "D6",
          "ticks": 9552,
          "time": 42.6428145,
          "velocity": 0.7874015748031497
        },
        {
          "duration": 0.2053569374999995,
          "durationTicks": 46,
          "midi": 84,
          "name": "C6",
          "ticks": 9600,
          "time": 42.8571,
          "velocity": 0.7874015748031497
        },
        {
          "duration": 0.2053569374999995,
          "durationTicks": 46,
          "midi": 82,
          "name": "A#5",
          "ticks": 9648,
          "time": 43.071385500000005,
          "velocity": 0.7874015748031497
        },
        {
          "duration": 0.2053569375000066,
          "durationTicks": 46,
          "midi": 77,
          "name": "F5",
          "ticks": 9696,
          "time": 43.285671,
          "velocity": 0.7874015748031497
        },
        {
          "duration": 0.2053569374999995,
          "durationTicks": 46,
          "midi": 82,
          "name": "A#5",
          "ticks": 9792,
          "time": 43.714242000000006,
          "velocity": 0.7874015748031497
        },
        {
          "duration": 0.2053569375000066,
          "durationTicks": 46,
          "midi": 81,
          "name": "A5",
          "ticks": 9840,
          "time": 43.9285275,
          "velocity": 0.7874015748031497
        },
        {
          "duration": 0.2053569374999995,
          "durationTicks": 46,
          "midi": 77,
          "name": "F5",
          "ticks": 9888,
          "time": 44.142813000000004,
          "velocity": 0.7874015748031497
        },
        {
          "duration": 0.2053569374999995,
          "durationTicks": 46,
          "midi": 75,
          "name": "D#5",
          "ticks": 9936,
          "time": 44.357098500000006,
          "velocity": 0.7874015748031497
        },
        {
          "duration": 0.2053569375000066,
          "durationTicks": 46,
          "midi": 74,
          "name": "D5",
          "ticks": 9984,
          "time": 44.571384,
          "velocity": 0.7874015748031497
        },
        {
          "duration": 0.2053569374999995,
          "durationTicks": 46,
          "midi": 72,
          "name": "C5",
          "ticks": 10032,
          "time": 44.785669500000004,
          "velocity": 0.7874015748031497
        },
        {
          "duration": 0.2053569374999995,
          "durationTicks": 46,
          "midi": 70,
          "name": "A#4",
          "ticks": 10080,
          "time": 44.99995500000001,
          "velocity": 0.7874015748031497
        },
        {
          "duration": 0.2053569375000066,
          "durationTicks": 46,
          "midi": 77,
          "name": "F5",
          "ticks": 10128,
          "time": 45.2142405,
          "velocity": 0.7874015748031497
        },
        {
          "duration": 0.2053569374999995,
          "durationTicks": 46,
          "midi": 70,
          "name": "A#4",
          "ticks": 10176,
          "time": 45.428526000000005,
          "velocity": 0.7874015748031497
        },
        {
          "duration": 0.2053569375000066,
          "durationTicks": 46,
          "midi": 67,
          "name": "G4",
          "ticks": 10224,
          "time": 45.6428115,
          "velocity": 0.7874015748031497
        },
        {
          "duration": 0.2053569374999995,
          "durationTicks": 46,
          "midi": 70,
          "name": "A#4",
          "ticks": 10272,
          "time": 45.857097,
          "velocity": 0.7874015748031497
        },
        {
          "duration": 0.2053569374999995,
          "durationTicks": 46,
          "midi": 74,
          "name": "D5",
          "ticks": 10320,
          "time": 46.071382500000006,
          "velocity": 0.7874015748031497
        },
        {
          "duration": 0.2053569375000066,
          "durationTicks": 46,
          "midi": 91,
          "name": "G6",
          "ticks": 10368,
          "time": 46.285668,
          "velocity": 0.7874015748031497
        },
        {
          "duration": 0.2053569374999995,
          "durationTicks": 46,
          "midi": 86,
          "name": "D6",
          "ticks": 10416,
          "time": 46.499953500000004,
          "velocity": 0.7874015748031497
        },
        {
          "duration": 0.2053569374999995,
          "durationTicks": 46,
          "midi": 82,
          "name": "A#5",
          "ticks": 10464,
          "time": 46.714239000000006,
          "velocity": 0.7874015748031497
        },
        {
          "duration": 0.2053569375000066,
          "durationTicks": 46,
          "midi": 79,
          "name": "G5",
          "ticks": 10512,
          "time": 46.9285245,
          "velocity": 0.7874015748031497
        },
        {
          "duration": 0.2053569374999995,
          "durationTicks": 46,
          "midi": 89,
          "name": "F6",
          "ticks": 10560,
          "time": 47.142810000000004,
          "velocity": 0.7874015748031497
        },
        {
          "duration": 0.2053569374999995,
          "durationTicks": 46,
          "midi": 82,
          "name": "A#5",
          "ticks": 10608,
          "time": 47.35709550000001,
          "velocity": 0.7874015748031497
        },
        {
          "duration": 0.2053569375000066,
          "durationTicks": 46,
          "midi": 79,
          "name": "G5",
          "ticks": 10656,
          "time": 47.571381,
          "velocity": 0.7874015748031497
        },
        {
          "duration": 0.2053569374999995,
          "durationTicks": 46,
          "midi": 77,
          "name": "F5",
          "ticks": 10704,
          "time": 47.785666500000005,
          "velocity": 0.7874015748031497
        },
        {
          "duration": 0.2053569374999995,
          "durationTicks": 46,
          "midi": 79,
          "name": "G5",
          "ticks": 10800,
          "time": 48.2142375,
          "velocity": 0.7874015748031497
        },
        {
          "duration": 0.2053569374999995,
          "durationTicks": 46,
          "midi": 77,
          "name": "F5",
          "ticks": 10848,
          "time": 48.428523000000006,
          "velocity": 0.7874015748031497
        },
        {
          "duration": 0.2053569375000066,
          "durationTicks": 46,
          "midi": 79,
          "name": "G5",
          "ticks": 10896,
          "time": 48.6428085,
          "velocity": 0.7874015748031497
        },
        {
          "duration": 0.2053569374999995,
          "durationTicks": 46,
          "midi": 82,
          "name": "A#5",
          "ticks": 10944,
          "time": 48.857094000000004,
          "velocity": 0.7874015748031497
        },
        {
          "duration": 0.2053569375000066,
          "durationTicks": 46,
          "midi": 79,
          "name": "G5",
          "ticks": 11040,
          "time": 49.285665,
          "velocity": 0.7874015748031497
        },
        {
          "duration": 0.2053569374999995,
          "durationTicks": 46,
          "midi": 86,
          "name": "D6",
          "ticks": 11088,
          "time": 49.499950500000004,
          "velocity": 0.7874015748031497
        },
        {
          "duration": 0.2053569374999995,
          "durationTicks": 46,
          "midi": 84,
          "name": "C6",
          "ticks": 11136,
          "time": 49.71423600000001,
          "velocity": 0.7874015748031497
        },
        {
          "duration": 0.2053569375000066,
          "durationTicks": 46,
          "midi": 82,
          "name": "A#5",
          "ticks": 11184,
          "time": 49.9285215,
          "velocity": 0.7874015748031497
        },
        {
          "duration": 0.2053569374999995,
          "durationTicks": 46,
          "midi": 77,
          "name": "F5",
          "ticks": 11232,
          "time": 50.142807000000005,
          "velocity": 0.7874015748031497
        },
        {
          "duration": 0.2053569375000066,
          "durationTicks": 46,
          "midi": 82,
          "name": "A#5",
          "ticks": 11328,
          "time": 50.571378,
          "velocity": 0.7874015748031497
        },
        {
          "duration": 0.2053569374999995,
          "durationTicks": 46,
          "midi": 81,
          "name": "A5",
          "ticks": 11376,
          "time": 50.785663500000005,
          "velocity": 0.7874015748031497
        },
        {
          "duration": 0.2053569375000066,
          "durationTicks": 46,
          "midi": 77,
          "name": "F5",
          "ticks": 11424,
          "time": 50.999949,
          "velocity": 0.7874015748031497
        },
        {
          "duration": 0.2053569374999995,
          "durationTicks": 46,
          "midi": 75,
          "name": "D#5",
          "ticks": 11472,
          "time": 51.2142345,
          "velocity": 0.7874015748031497
        },
        {
          "duration": 0.2053569374999995,
          "durationTicks": 46,
          "midi": 74,
          "name": "D5",
          "ticks": 11520,
          "time": 51.428520000000006,
          "velocity": 0.7874015748031497
        },
        {
          "duration": 0.2053569375000066,
          "durationTicks": 46,
          "midi": 72,
          "name": "C5",
          "ticks": 11568,
          "time": 51.6428055,
          "velocity": 0.7874015748031497
        },
        {
          "duration": 0.2053569374999995,
          "durationTicks": 46,
          "midi": 70,
          "name": "A#4",
          "ticks": 11616,
          "time": 51.857091000000004,
          "velocity": 0.7874015748031497
        },
        {
          "duration": 0.2053569374999995,
          "durationTicks": 46,
          "midi": 77,
          "name": "F5",
          "ticks": 11664,
          "time": 52.07137650000001,
          "velocity": 0.7874015748031497
        },
        {
          "duration": 0.2053569375000066,
          "durationTicks": 46,
          "midi": 70,
          "name": "A#4",
          "ticks": 11712,
          "time": 52.285662,
          "velocity": 0.7874015748031497
        },
        {
          "duration": 0.2053569374999995,
          "durationTicks": 46,
          "midi": 67,
          "name": "G4",
          "ticks": 11760,
          "time": 52.499947500000005,
          "velocity": 0.7874015748031497
        },
        {
          "duration": 0.2053569374999995,
          "durationTicks": 46,
          "midi": 70,
          "name": "A#4",
          "ticks": 11808,
          "time": 52.71423300000001,
          "velocity": 0.7874015748031497
        },
        {
          "duration": 0.2053569375000066,
          "durationTicks": 46,
          "midi": 74,
          "name": "D5",
          "ticks": 11856,
          "time": 52.9285185,
          "velocity": 0.7874015748031497
        },
        {
          "duration": 0.2053569374999995,
          "durationTicks": 46,
          "midi": 91,
          "name": "G6",
          "ticks": 11904,
          "time": 53.142804000000005,
          "velocity": 0.7874015748031497
        },
        {
          "duration": 0.2053569374999995,
          "durationTicks": 46,
          "midi": 86,
          "name": "D6",
          "ticks": 11952,
          "time": 53.35708950000001,
          "velocity": 0.7874015748031497
        },
        {
          "duration": 0.2053569375000066,
          "durationTicks": 46,
          "midi": 82,
          "name": "A#5",
          "ticks": 12000,
          "time": 53.571375,
          "velocity": 0.7874015748031497
        },
        {
          "duration": 0.2053569374999995,
          "durationTicks": 46,
          "midi": 79,
          "name": "G5",
          "ticks": 12048,
          "time": 53.785660500000006,
          "velocity": 0.7874015748031497
        },
        {
          "duration": 0.2053569375000066,
          "durationTicks": 46,
          "midi": 89,
          "name": "F6",
          "ticks": 12096,
          "time": 53.999946,
          "velocity": 0.7874015748031497
        },
        {
          "duration": 0.2053569374999995,
          "durationTicks": 46,
          "midi": 82,
          "name": "A#5",
          "ticks": 12144,
          "time": 54.214231500000004,
          "velocity": 0.7874015748031497
        },
        {
          "duration": 0.2053569374999995,
          "durationTicks": 46,
          "midi": 79,
          "name": "G5",
          "ticks": 12192,
          "time": 54.42851700000001,
          "velocity": 0.7874015748031497
        },
        {
          "duration": 0.2053569375000066,
          "durationTicks": 46,
          "midi": 77,
          "name": "F5",
          "ticks": 12240,
          "time": 54.6428025,
          "velocity": 0.7874015748031497
        },
        {
          "duration": 0.2053569374999924,
          "durationTicks": 46,
          "midi": 79,
          "name": "G5",
          "ticks": 12336,
          "time": 55.07137350000001,
          "velocity": 0.7874015748031497
        },
        {
          "duration": 0.2053569374999995,
          "durationTicks": 46,
          "midi": 77,
          "name": "F5",
          "ticks": 12384,
          "time": 55.285659,
          "velocity": 0.7874015748031497
        },
        {
          "duration": 0.2053569374999924,
          "durationTicks": 46,
          "midi": 79,
          "name": "G5",
          "ticks": 12432,
          "time": 55.499944500000005,
          "velocity": 0.7874015748031497
        },
        {
          "duration": 0.2053569374999924,
          "durationTicks": 46,
          "midi": 82,
          "name": "A#5",
          "ticks": 12480,
          "time": 55.71423000000001,
          "velocity": 0.7874015748031497
        },
        {
          "duration": 0.2053569374999924,
          "durationTicks": 46,
          "midi": 79,
          "name": "G5",
          "ticks": 12576,
          "time": 56.142801000000006,
          "velocity": 0.7874015748031497
        },
        {
          "duration": 0.2053569374999995,
          "durationTicks": 46,
          "midi": 86,
          "name": "D6",
          "ticks": 12624,
          "time": 56.3570865,
          "velocity": 0.7874015748031497
        },
        {
          "duration": 0.2053569374999995,
          "durationTicks": 46,
          "midi": 84,
          "name": "C6",
          "ticks": 12672,
          "time": 56.571372000000004,
          "velocity": 0.7874015748031497
        },
        {
          "duration": 0.2053569374999924,
          "durationTicks": 46,
          "midi": 82,
          "name": "A#5",
          "ticks": 12720,
          "time": 56.785657500000006,
          "velocity": 0.7874015748031497
        },
        {
          "duration": 0.2053569374999995,
          "durationTicks": 46,
          "midi": 77,
          "name": "F5",
          "ticks": 12768,
          "time": 56.999943,
          "velocity": 0.7874015748031497
        },
        {
          "duration": 0.2053569374999924,
          "durationTicks": 46,
          "midi": 82,
          "name": "A#5",
          "ticks": 12864,
          "time": 57.42851400000001,
          "velocity": 0.7874015748031497
        },
        {
          "duration": 0.2053569374999995,
          "durationTicks": 46,
          "midi": 81,
          "name": "A5",
          "ticks": 12912,
          "time": 57.6427995,
          "velocity": 0.7874015748031497
        },
        {
          "duration": 0.2053569374999924,
          "durationTicks": 46,
          "midi": 77,
          "name": "F5",
          "ticks": 12960,
          "time": 57.857085000000005,
          "velocity": 0.7874015748031497
        },
        {
          "duration": 0.2053569374999924,
          "durationTicks": 46,
          "midi": 75,
          "name": "D#5",
          "ticks": 13008,
          "time": 58.07137050000001,
          "velocity": 0.7874015748031497
        },
        {
          "duration": 0.2053569374999995,
          "durationTicks": 46,
          "midi": 74,
          "name": "D5",
          "ticks": 13056,
          "time": 58.285656,
          "velocity": 0.7874015748031497
        },
        {
          "duration": 0.2053569374999924,
          "durationTicks": 46,
          "midi": 72,
          "name": "C5",
          "ticks": 13104,
          "time": 58.499941500000006,
          "velocity": 0.7874015748031497
        },
        {
          "duration": 0.2053569374999924,
          "durationTicks": 46,
          "midi": 70,
          "name": "A#4",
          "ticks": 13152,
          "time": 58.71422700000001,
          "velocity": 0.7874015748031497
        },
        {
          "duration": 0.2053569374999995,
          "durationTicks": 46,
          "midi": 77,
          "name": "F5",
          "ticks": 13200,
          "time": 58.928512500000004,
          "velocity": 0.7874015748031497
        },
        {
          "duration": 0.2053569374999924,
          "durationTicks": 46,
          "midi": 70,
          "name": "A#4",
          "ticks": 13248,
          "time": 59.142798000000006,
          "velocity": 0.7874015748031497
        },
        {
          "duration": 0.2053569374999995,
          "durationTicks": 46,
          "midi": 67,
          "name": "G4",
          "ticks": 13296,
          "time": 59.3570835,
          "velocity": 0.7874015748031497
        },
        {
          "duration": 0.2053569374999995,
          "durationTicks": 46,
          "midi": 70,
          "name": "A#4",
          "ticks": 13344,
          "time": 59.571369000000004,
          "velocity": 0.7874015748031497
        },
        {
          "duration": 0.2053569374999924,
          "durationTicks": 46,
          "midi": 74,
          "name": "D5",
          "ticks": 13392,
          "time": 59.78565450000001,
          "velocity": 0.7874015748031497
        },
        {
          "duration": 0.2053569374999995,
          "durationTicks": 46,
          "midi": 91,
          "name": "G6",
          "ticks": 13440,
          "time": 59.99994,
          "velocity": 0.7874015748031497
        },
        {
          "duration": 0.2053569374999995,
          "durationTicks": 46,
          "midi": 86,
          "name": "D6",
          "ticks": 13488,
          "time": 60.214225500000005,
          "velocity": 0.7874015748031497
        },
        {
          "duration": 0.2053569374999924,
          "durationTicks": 46,
          "midi": 82,
          "name": "A#5",
          "ticks": 13536,
          "time": 60.42851100000001,
          "velocity": 0.7874015748031497
        },
        {
          "duration": 0.2053569374999995,
          "durationTicks": 46,
          "midi": 79,
          "name": "G5",
          "ticks": 13584,
          "time": 60.6427965,
          "velocity": 0.7874015748031497
        },
        {
          "duration": 0.2053569374999924,
          "durationTicks": 46,
          "midi": 89,
          "name": "F6",
          "ticks": 13632,
          "time": 60.857082000000005,
          "velocity": 0.7874015748031497
        },
        {
          "duration": 0.2053569374999924,
          "durationTicks": 46,
          "midi": 82,
          "name": "A#5",
          "ticks": 13680,
          "time": 61.07136750000001,
          "velocity": 0.7874015748031497
        },
        {
          "duration": 0.2053569374999995,
          "durationTicks": 46,
          "midi": 79,
          "name": "G5",
          "ticks": 13728,
          "time": 61.285653,
          "velocity": 0.7874015748031497
        },
        {
          "duration": 0.2053569374999924,
          "durationTicks": 46,
          "midi": 77,
          "name": "F5",
          "ticks": 13776,
          "time": 61.499938500000006,
          "velocity": 0.7874015748031497
        },
        {
          "duration": 0.2053569374999995,
          "durationTicks": 46,
          "midi": 79,
          "name": "G5",
          "ticks": 13872,
          "time": 61.928509500000004,
          "velocity": 0.7874015748031497
        },
        {
          "duration": 0.2053569374999924,
          "durationTicks": 46,
          "midi": 77,
          "name": "F5",
          "ticks": 13920,
          "time": 62.14279500000001,
          "velocity": 0.7874015748031497
        },
        {
          "duration": 0.2053569374999995,
          "durationTicks": 46,
          "midi": 79,
          "name": "G5",
          "ticks": 13968,
          "time": 62.3570805,
          "velocity": 0.7874015748031497
        },
        {
          "duration": 0.2053569374999995,
          "durationTicks": 46,
          "midi": 82,
          "name": "A#5",
          "ticks": 14016,
          "time": 62.571366000000005,
          "velocity": 0.7874015748031497
        },
        {
          "duration": 0.2053569374999995,
          "durationTicks": 46,
          "midi": 79,
          "name": "G5",
          "ticks": 14112,
          "time": 62.999937,
          "velocity": 0.7874015748031497
        },
        {
          "duration": 0.2053569374999924,
          "durationTicks": 46,
          "midi": 86,
          "name": "D6",
          "ticks": 14160,
          "time": 63.214222500000005,
          "velocity": 0.7874015748031497
        },
        {
          "duration": 0.2053569374999924,
          "durationTicks": 46,
          "midi": 84,
          "name": "C6",
          "ticks": 14208,
          "time": 63.42850800000001,
          "velocity": 0.7874015748031497
        },
        {
          "duration": 0.2053569374999995,
          "durationTicks": 46,
          "midi": 82,
          "name": "A#5",
          "ticks": 14256,
          "time": 63.6427935,
          "velocity": 0.7874015748031497
        },
        {
          "duration": 0.2053569374999924,
          "durationTicks": 46,
          "midi": 77,
          "name": "F5",
          "ticks": 14304,
          "time": 63.857079000000006,
          "velocity": 0.7874015748031497
        },
        {
          "duration": 0.2053569374999995,
          "durationTicks": 46,
          "midi": 82,
          "name": "A#5",
          "ticks": 14400,
          "time": 64.28565,
          "velocity": 0.7874015748031497
        },
        {
          "duration": 0.2053569374999995,
          "durationTicks": 46,
          "midi": 81,
          "name": "A5",
          "ticks": 14448,
          "time": 64.4999355,
          "velocity": 0.7874015748031497
        },
        {
          "duration": 0.2053569374999853,
          "durationTicks": 46,
          "midi": 77,
          "name": "F5",
          "ticks": 14496,
          "time": 64.71422100000001,
          "velocity": 0.7874015748031497
        },
        {
          "duration": 0.2053569374999853,
          "durationTicks": 46,
          "midi": 75,
          "name": "D#5",
          "ticks": 14544,
          "time": 64.92850650000001,
          "velocity": 0.7874015748031497
        },
        {
          "duration": 0.2053569374999995,
          "durationTicks": 46,
          "midi": 74,
          "name": "D5",
          "ticks": 14592,
          "time": 65.142792,
          "velocity": 0.7874015748031497
        },
        {
          "duration": 0.2053569374999995,
          "durationTicks": 46,
          "midi": 72,
          "name": "C5",
          "ticks": 14640,
          "time": 65.3570775,
          "velocity": 0.7874015748031497
        },
        {
          "duration": 0.2053569374999995,
          "durationTicks": 46,
          "midi": 70,
          "name": "A#4",
          "ticks": 14688,
          "time": 65.571363,
          "velocity": 0.7874015748031497
        },
        {
          "duration": 0.2053569374999995,
          "durationTicks": 46,
          "midi": 77,
          "name": "F5",
          "ticks": 14736,
          "time": 65.78564850000001,
          "velocity": 0.7874015748031497
        },
        {
          "duration": 0.2053569374999853,
          "durationTicks": 46,
          "midi": 70,
          "name": "A#4",
          "ticks": 14784,
          "time": 65.99993400000001,
          "velocity": 0.7874015748031497
        },
        {
          "duration": 0.2053569374999995,
          "durationTicks": 46,
          "midi": 67,
          "name": "G4",
          "ticks": 14832,
          "time": 66.2142195,
          "velocity": 0.7874015748031497
        },
        {
          "duration": 0.2053569374999995,
          "durationTicks": 46,
          "midi": 70,
          "name": "A#4",
          "ticks": 14880,
          "time": 66.428505,
          "velocity": 0.7874015748031497
        },
        {
          "duration": 0.2053569374999995,
          "durationTicks": 46,
          "midi": 74,
          "name": "D5",
          "ticks": 14928,
          "time": 66.6427905,
          "velocity": 0.7874015748031497
        },
        {
          "duration": 0.2053569374999995,
          "durationTicks": 46,
          "midi": 91,
          "name": "G6",
          "ticks": 14976,
          "time": 66.857076,
          "velocity": 0.7874015748031497
        },
        {
          "duration": 0.2053569374999995,
          "durationTicks": 46,
          "midi": 86,
          "name": "D6",
          "ticks": 15024,
          "time": 67.07136150000001,
          "velocity": 0.7874015748031497
        },
        {
          "duration": 0.2053569374999853,
          "durationTicks": 46,
          "midi": 82,
          "name": "A#5",
          "ticks": 15072,
          "time": 67.28564700000001,
          "velocity": 0.7874015748031497
        },
        {
          "duration": 0.2053569374999995,
          "durationTicks": 46,
          "midi": 79,
          "name": "G5",
          "ticks": 15120,
          "time": 67.4999325,
          "velocity": 0.7874015748031497
        },
        {
          "duration": 0.2053569374999995,
          "durationTicks": 46,
          "midi": 89,
          "name": "F6",
          "ticks": 15168,
          "time": 67.714218,
          "velocity": 0.7874015748031497
        },
        {
          "duration": 0.2053569374999995,
          "durationTicks": 46,
          "midi": 82,
          "name": "A#5",
          "ticks": 15216,
          "time": 67.9285035,
          "velocity": 0.7874015748031497
        },
        {
          "duration": 0.2053569374999995,
          "durationTicks": 46,
          "midi": 79,
          "name": "G5",
          "ticks": 15264,
          "time": 68.14278900000001,
          "velocity": 0.7874015748031497
        },
        {
          "duration": 0.2053569374999853,
          "durationTicks": 46,
          "midi": 77,
          "name": "F5",
          "ticks": 15312,
          "time": 68.35707450000001,
          "velocity": 0.7874015748031497
        },
        {
          "duration": 0.2053569374999995,
          "durationTicks": 46,
          "midi": 67,
          "name": "G4",
          "ticks": 15360,
          "time": 68.57136,
          "velocity": 0.7874015748031497
        },
        {
          "duration": 0.4196424375000021,
          "durationTicks": 94,
          "midi": 69,
          "name": "A4",
          "ticks": 15408,
          "time": 68.7856455,
          "velocity": 0.7874015748031497
        },
        {
          "duration": 0.4196424375000021,
          "durationTicks": 94,
          "midi": 70,
          "name": "A#4",
          "ticks": 15504,
          "time": 69.2142165,
          "velocity": 0.7874015748031497
        },
        {
          "duration": 0.41964243749998786,
          "durationTicks": 94,
          "midi": 65,
          "name": "F4",
          "ticks": 15600,
          "time": 69.64278750000001,
          "velocity": 0.7874015748031497
        },
        {
          "duration": 1.9196409375000059,
          "durationTicks": 430,
          "midi": 65,
          "name": "F4",
          "ticks": 15696,
          "time": 70.0713585,
          "velocity": 0.7874015748031497
        },
        {
          "duration": 0.2053569374999853,
          "durationTicks": 46,
          "midi": 67,
          "name": "G4",
          "ticks": 16128,
          "time": 71.99992800000001,
          "velocity": 0.7874015748031497
        },
        {
          "duration": 0.4196424375000021,
          "durationTicks": 94,
          "midi": 70,
          "name": "A#4",
          "ticks": 16176,
          "time": 72.2142135,
          "velocity": 0.7874015748031497
        },
        {
          "duration": 0.4196424375000021,
          "durationTicks": 94,
          "midi": 74,
          "name": "D5",
          "ticks": 16272,
          "time": 72.6427845,
          "velocity": 0.7874015748031497
        },
        {
          "duration": 0.6339279374999904,
          "durationTicks": 142,
          "midi": 70,
          "name": "A#4",
          "ticks": 16368,
          "time": 73.07135550000001,
          "velocity": 0.7874015748031497
        },
        {
          "duration": 1.7053554375000033,
          "durationTicks": 382,
          "midi": 70,
          "name": "A#4",
          "ticks": 16512,
          "time": 73.714212,
          "velocity": 0.7874015748031497
        },
        {
          "duration": 0.2053569374999995,
          "durationTicks": 46,
          "midi": 67,
          "name": "G4",
          "ticks": 16896,
          "time": 75.42849600000001,
          "velocity": 0.7874015748031497
        },
        {
          "duration": 0.41964243749998786,
          "durationTicks": 94,
          "midi": 69,
          "name": "A4",
          "ticks": 16944,
          "time": 75.64278150000001,
          "velocity": 0.7874015748031497
        },
        {
          "duration": 0.4196424375000021,
          "durationTicks": 94,
          "midi": 70,
          "name": "A#4",
          "ticks": 17040,
          "time": 76.0713525,
          "velocity": 0.7874015748031497
        },
        {
          "duration": 0.41964243749998786,
          "durationTicks": 94,
          "midi": 65,
          "name": "F4",
          "ticks": 17136,
          "time": 76.49992350000001,
          "velocity": 0.7874015748031497
        },
        {
          "duration": 0.4196424375000021,
          "durationTicks": 94,
          "midi": 65,
          "name": "F4",
          "ticks": 17232,
          "time": 76.9284945,
          "velocity": 0.7874015748031497
        },
        {
          "duration": 0.4196424375000021,
          "durationTicks": 94,
          "midi": 72,
          "name": "C5",
          "ticks": 17328,
          "time": 77.3570655,
          "velocity": 0.7874015748031497
        },
        {
          "duration": 0.41964243749998786,
          "durationTicks": 94,
          "midi": 70,
          "name": "A#4",
          "ticks": 17424,
          "time": 77.78563650000001,
          "velocity": 0.7874015748031497
        },
        {
          "duration": 0.2053569374999995,
          "durationTicks": 46,
          "midi": 72,
          "name": "C5",
          "ticks": 17616,
          "time": 78.6427785,
          "velocity": 0.7874015748031497
        },
        {
          "duration": 0.41964243749998786,
          "durationTicks": 94,
          "midi": 74,
          "name": "D5",
          "ticks": 17664,
          "time": 78.85706400000001,
          "velocity": 0.7874015748031497
        },
        {
          "duration": 0.2053569374999853,
          "durationTicks": 46,
          "midi": 72,
          "name": "C5",
          "ticks": 17760,
          "time": 79.28563500000001,
          "velocity": 0.7874015748031497
        },
        {
          "duration": 0.4196424375000021,
          "durationTicks": 94,
          "midi": 74,
          "name": "D5",
          "ticks": 17808,
          "time": 79.4999205,
          "velocity": 0.7874015748031497
        },
        {
          "duration": 0.2053569374999995,
          "durationTicks": 46,
          "midi": 74,
          "name": "D5",
          "ticks": 17904,
          "time": 79.9284915,
          "velocity": 0.7874015748031497
        },
        {
          "duration": 0.848213437499993,
          "durationTicks": 190,
          "midi": 77,
          "name": "F5",
          "ticks": 17952,
          "time": 80.14277700000001,
          "velocity": 0.7874015748031497
        },
        {
          "duration": 1.2767844374999981,
          "durationTicks": 286,
          "midi": 70,
          "name": "A#4",
          "ticks": 18144,
          "time": 80.999919,
          "velocity": 0.7874015748031497
        },
        {
          "duration": 0.2053569374999995,
          "durationTicks": 46,
          "midi": 67,
          "name": "G4",
          "ticks": 18432,
          "time": 82.285632,
          "velocity": 0.7874015748031497
        },
        {
          "duration": 0.2053569374999995,
          "durationTicks": 46,
          "midi": 70,
          "name": "A#4",
          "ticks": 18480,
          "time": 82.49991750000001,
          "velocity": 0.7874015748031497
        },
        {
          "duration": 0.2053569374999853,
          "durationTicks": 46,
          "midi": 69,
          "name": "A4",
          "ticks": 18528,
          "time": 82.71420300000001,
          "velocity": 0.7874015748031497
        },
        {
          "duration": 0.2053569374999995,
          "durationTicks": 46,
          "midi": 70,
          "name": "A#4",
          "ticks": 18576,
          "time": 82.9284885,
          "velocity": 0.7874015748031497
        },
        {
          "duration": 0.2053569374999995,
          "durationTicks": 46,
          "midi": 70,
          "name": "A#4",
          "ticks": 18624,
          "time": 83.142774,
          "velocity": 0.7874015748031497
        },
        {
          "duration": 0.2053569374999995,
          "durationTicks": 46,
          "midi": 70,
          "name": "A#4",
          "ticks": 18672,
          "time": 83.3570595,
          "velocity": 0.7874015748031497
        },
        {
          "duration": 0.2053569374999995,
          "durationTicks": 46,
          "midi": 72,
          "name": "C5",
          "ticks": 18720,
          "time": 83.57134500000001,
          "velocity": 0.7874015748031497
        },
        {
          "duration": 0.2053569374999853,
          "durationTicks": 46,
          "midi": 70,
          "name": "A#4",
          "ticks": 18768,
          "time": 83.78563050000001,
          "velocity": 0.7874015748031497
        },
        {
          "duration": 0.2053569374999853,
          "durationTicks": 46,
          "midi": 72,
          "name": "C5",
          "ticks": 18816,
          "time": 83.99991600000001,
          "velocity": 0.7874015748031497
        },
        {
          "duration": 0.2053569374999995,
          "durationTicks": 46,
          "midi": 70,
          "name": "A#4",
          "ticks": 18864,
          "time": 84.2142015,
          "velocity": 0.7874015748031497
        },
        {
          "duration": 0.2053569374999995,
          "durationTicks": 46,
          "midi": 72,
          "name": "C5",
          "ticks": 18912,
          "time": 84.428487,
          "velocity": 0.7874015748031497
        },
        {
          "duration": 0.2053569374999995,
          "durationTicks": 46,
          "midi": 70,
          "name": "A#4",
          "ticks": 18960,
          "time": 84.6427725,
          "velocity": 0.7874015748031497
        },
        {
          "duration": 0.2053569374999995,
          "durationTicks": 46,
          "midi": 74,
          "name": "D5",
          "ticks": 19008,
          "time": 84.85705800000001,
          "velocity": 0.7874015748031497
        },
        {
          "duration": 0.2053569374999853,
          "durationTicks": 46,
          "midi": 70,
          "name": "A#4",
          "ticks": 19056,
          "time": 85.07134350000001,
          "velocity": 0.7874015748031497
        },
        {
          "duration": 0.2053569374999995,
          "durationTicks": 46,
          "midi": 72,
          "name": "C5",
          "ticks": 19104,
          "time": 85.285629,
          "velocity": 0.7874015748031497
        },
        {
          "duration": 0.2053569374999995,
          "durationTicks": 46,
          "midi": 74,
          "name": "D5",
          "ticks": 19152,
          "time": 85.4999145,
          "velocity": 0.7874015748031497
        },
        {
          "duration": 0.2053569374999995,
          "durationTicks": 46,
          "midi": 65,
          "name": "F4",
          "ticks": 19200,
          "time": 85.7142,
          "velocity": 0.7874015748031497
        },
        {
          "duration": 0.2053569374999995,
          "durationTicks": 46,
          "midi": 69,
          "name": "A4",
          "ticks": 19248,
          "time": 85.92848550000001,
          "velocity": 0.7874015748031497
        },
        {
          "duration": 0.2053569374999995,
          "durationTicks": 46,
          "midi": 70,
          "name": "A#4",
          "ticks": 19296,
          "time": 86.14277100000001,
          "velocity": 0.7874015748031497
        },
        {
          "duration": 0.2053569374999853,
          "durationTicks": 46,
          "midi": 65,
          "name": "F4",
          "ticks": 19344,
          "time": 86.35705650000001,
          "velocity": 0.7874015748031497
        },
        {
          "duration": 0.2053569374999995,
          "durationTicks": 46,
          "midi": 70,
          "name": "A#4",
          "ticks": 19392,
          "time": 86.571342,
          "velocity": 0.7874015748031497
        },
        {
          "duration": 0.2053569374999995,
          "durationTicks": 46,
          "midi": 65,
          "name": "F4",
          "ticks": 19440,
          "time": 86.7856275,
          "velocity": 0.7874015748031497
        },
        {
          "duration": 0.2053569374999995,
          "durationTicks": 46,
          "midi": 63,
          "name": "D#4",
          "ticks": 19488,
          "time": 86.999913,
          "velocity": 0.7874015748031497
        },
        {
          "duration": 0.2053569374999995,
          "durationTicks": 46,
          "midi": 62,
          "name": "D4",
          "ticks": 19536,
          "time": 87.21419850000001,
          "velocity": 0.7874015748031497
        },
        {
          "duration": 0.2053569374999853,
          "durationTicks": 46,
          "midi": 60,
          "name": "C4",
          "ticks": 19584,
          "time": 87.42848400000001,
          "velocity": 0.7874015748031497
        },
        {
          "duration": 0.2053569374999853,
          "durationTicks": 46,
          "midi": 58,
          "name": "A#3",
          "ticks": 19632,
          "time": 87.64276950000001,
          "velocity": 0.7874015748031497
        },
        {
          "duration": 0.2053569374999995,
          "durationTicks": 46,
          "midi": 72,
          "name": "C5",
          "ticks": 19680,
          "time": 87.857055,
          "velocity": 0.7874015748031497
        },
        {
          "duration": 0.2053569374999995,
          "durationTicks": 46,
          "midi": 70,
          "name": "A#4",
          "ticks": 19728,
          "time": 88.0713405,
          "velocity": 0.7874015748031497
        },
        {
          "duration": 0.2053569374999995,
          "durationTicks": 46,
          "midi": 74,
          "name": "D5",
          "ticks": 19776,
          "time": 88.28562600000001,
          "velocity": 0.7874015748031497
        },
        {
          "duration": 0.2053569374999995,
          "durationTicks": 46,
          "midi": 70,
          "name": "A#4",
          "ticks": 19824,
          "time": 88.49991150000001,
          "velocity": 0.7874015748031497
        },
        {
          "duration": 0.2053569374999853,
          "durationTicks": 46,
          "midi": 72,
          "name": "C5",
          "ticks": 19872,
          "time": 88.71419700000001,
          "velocity": 0.7874015748031497
        },
        {
          "duration": 0.2053569374999995,
          "durationTicks": 46,
          "midi": 70,
          "name": "A#4",
          "ticks": 19920,
          "time": 88.9284825,
          "velocity": 0.7874015748031497
        },
        {
          "duration": 0.2053569374999995,
          "durationTicks": 46,
          "midi": 67,
          "name": "G4",
          "ticks": 19968,
          "time": 89.142768,
          "velocity": 0.7874015748031497
        },
        {
          "duration": 0.2053569374999995,
          "durationTicks": 46,
          "midi": 70,
          "name": "A#4",
          "ticks": 20016,
          "time": 89.3570535,
          "velocity": 0.7874015748031497
        },
        {
          "duration": 0.2053569374999995,
          "durationTicks": 46,
          "midi": 69,
          "name": "A4",
          "ticks": 20064,
          "time": 89.57133900000001,
          "velocity": 0.7874015748031497
        },
        {
          "duration": 0.2053569374999853,
          "durationTicks": 46,
          "midi": 70,
          "name": "A#4",
          "ticks": 20112,
          "time": 89.78562450000001,
          "velocity": 0.7874015748031497
        },
        {
          "duration": 0.2053569374999853,
          "durationTicks": 46,
          "midi": 70,
          "name": "A#4",
          "ticks": 20160,
          "time": 89.99991000000001,
          "velocity": 0.7874015748031497
        },
        {
          "duration": 0.2053569374999995,
          "durationTicks": 46,
          "midi": 70,
          "name": "A#4",
          "ticks": 20208,
          "time": 90.2141955,
          "velocity": 0.7874015748031497
        },
        {
          "duration": 0.2053569374999995,
          "durationTicks": 46,
          "midi": 72,
          "name": "C5",
          "ticks": 20256,
          "time": 90.428481,
          "velocity": 0.7874015748031497
        },
        {
          "duration": 0.2053569374999995,
          "durationTicks": 46,
          "midi": 70,
          "name": "A#4",
          "ticks": 20304,
          "time": 90.64276650000001,
          "velocity": 0.7874015748031497
        },
        {
          "duration": 0.2053569374999995,
          "durationTicks": 46,
          "midi": 72,
          "name": "C5",
          "ticks": 20352,
          "time": 90.85705200000001,
          "velocity": 0.7874015748031497
        },
        {
          "duration": 0.2053569374999853,
          "durationTicks": 46,
          "midi": 70,
          "name": "A#4",
          "ticks": 20400,
          "time": 91.07133750000001,
          "velocity": 0.7874015748031497
        },
        {
          "duration": 0.2053569374999995,
          "durationTicks": 46,
          "midi": 72,
          "name": "C5",
          "ticks": 20448,
          "time": 91.285623,
          "velocity": 0.7874015748031497
        },
        {
          "duration": 0.2053569374999995,
          "durationTicks": 46,
          "midi": 70,
          "name": "A#4",
          "ticks": 20496,
          "time": 91.4999085,
          "velocity": 0.7874015748031497
        },
        {
          "duration": 0.2053569374999995,
          "durationTicks": 46,
          "midi": 74,
          "name": "D5",
          "ticks": 20544,
          "time": 91.714194,
          "velocity": 0.7874015748031497
        },
        {
          "duration": 0.2053569374999995,
          "durationTicks": 46,
          "midi": 70,
          "name": "A#4",
          "ticks": 20592,
          "time": 91.92847950000001,
          "velocity": 0.7874015748031497
        },
        {
          "duration": 0.2053569374999853,
          "durationTicks": 46,
          "midi": 72,
          "name": "C5",
          "ticks": 20640,
          "time": 92.14276500000001,
          "velocity": 0.7874015748031497
        },
        {
          "duration": 0.2053569374999853,
          "durationTicks": 46,
          "midi": 74,
          "name": "D5",
          "ticks": 20688,
          "time": 92.35705050000001,
          "velocity": 0.7874015748031497
        },
        {
          "duration": 0.2053569374999995,
          "durationTicks": 46,
          "midi": 65,
          "name": "F4",
          "ticks": 20736,
          "time": 92.571336,
          "velocity": 0.7874015748031497
        },
        {
          "duration": 0.2053569374999995,
          "durationTicks": 46,
          "midi": 69,
          "name": "A4",
          "ticks": 20784,
          "time": 92.7856215,
          "velocity": 0.7874015748031497
        },
        {
          "duration": 0.2053569374999995,
          "durationTicks": 46,
          "midi": 70,
          "name": "A#4",
          "ticks": 20832,
          "time": 92.99990700000001,
          "velocity": 0.7874015748031497
        },
        {
          "duration": 0.2053569374999995,
          "durationTicks": 46,
          "midi": 65,
          "name": "F4",
          "ticks": 20880,
          "time": 93.21419250000001,
          "velocity": 0.7874015748031497
        },
        {
          "duration": 0.2053569374999853,
          "durationTicks": 46,
          "midi": 70,
          "name": "A#4",
          "ticks": 20928,
          "time": 93.42847800000001,
          "velocity": 0.7874015748031497
        },
        {
          "duration": 0.2053569374999995,
          "durationTicks": 46,
          "midi": 65,
          "name": "F4",
          "ticks": 20976,
          "time": 93.6427635,
          "velocity": 0.7874015748031497
        },
        {
          "duration": 0.2053569374999995,
          "durationTicks": 46,
          "midi": 63,
          "name": "D#4",
          "ticks": 21024,
          "time": 93.857049,
          "velocity": 0.7874015748031497
        },
        {
          "duration": 0.2053569374999995,
          "durationTicks": 46,
          "midi": 62,
          "name": "D4",
          "ticks": 21072,
          "time": 94.0713345,
          "velocity": 0.7874015748031497
        },
        {
          "duration": 0.2053569374999995,
          "durationTicks": 46,
          "midi": 60,
          "name": "C4",
          "ticks": 21120,
          "time": 94.28562000000001,
          "velocity": 0.7874015748031497
        },
        {
          "duration": 0.2053569374999995,
          "durationTicks": 46,
          "midi": 58,
          "name": "A#3",
          "ticks": 21168,
          "time": 94.49990550000001,
          "velocity": 0.7874015748031497
        },
        {
          "duration": 0.2053569374999853,
          "durationTicks": 46,
          "midi": 72,
          "name": "C5",
          "ticks": 21216,
          "time": 94.71419100000001,
          "velocity": 0.7874015748031497
        },
        {
          "duration": 0.2053569374999995,
          "durationTicks": 46,
          "midi": 70,
          "name": "A#4",
          "ticks": 21264,
          "time": 94.9284765,
          "velocity": 0.7874015748031497
        },
        {
          "duration": 0.2053569374999995,
          "durationTicks": 46,
          "midi": 74,
          "name": "D5",
          "ticks": 21312,
          "time": 95.142762,
          "velocity": 0.7874015748031497
        },
        {
          "duration": 0.2053569374999995,
          "durationTicks": 46,
          "midi": 70,
          "name": "A#4",
          "ticks": 21360,
          "time": 95.35704750000001,
          "velocity": 0.7874015748031497
        },
        {
          "duration": 0.2053569374999995,
          "durationTicks": 46,
          "midi": 72,
          "name": "C5",
          "ticks": 21408,
          "time": 95.57133300000001,
          "velocity": 0.7874015748031497
        },
        {
          "duration": 0.2053569374999853,
          "durationTicks": 46,
          "midi": 70,
          "name": "A#4",
          "ticks": 21456,
          "time": 95.78561850000001,
          "velocity": 0.7874015748031497
        }
      ]
    },
    {
      "channel": 0,
      "controlChanges": {
        "6": [
          {
            "number": 6,
            "ticks": 0,
            "time": 0,
            "value": 0.09448818897637795
          }
        ],
        "7": [
          {
            "number": 7,
            "ticks": 0,
            "time": 0,
            "value": 0.7874015748031497
          },
          {
            "number": 7,
            "ticks": 0,
            "time": 0,
            "value": 0.7874015748031497
          }
        ],
        "10": [
          {
            "number": 10,
            "ticks": 0,
            "time": 0,
            "value": 0.5039370078740157
          },
          {
            "number": 10,
            "ticks": 0,
            "time": 0,
            "value": 0.5039370078740157
          }
        ],
        "100": [
          {
            "number": 100,
            "ticks": 0,
            "time": 0,
            "value": 0
          }
        ],
        "101": [
          {
            "number": 101,
            "ticks": 0,
            "time": 0,
            "value": 0
          }
        ]
      },
      "pitchBends": [
        {
          "ticks": 0,
          "time": 0,
          "value": 0
        },
        {
          "ticks": 0,
          "time": 0,
          "value": 0
        }
      ],
      "instrument": {
        "family": "piano",
        "number": 0,
        "name": "acoustic grand piano"
      },
      "name": " ",
      "notes": [],
      "endOfTrackTicks": 21505
    },
    {
      "channel": 1,
      "controlChanges": {
        "6": [
          {
            "number": 6,
            "ticks": 0,
            "time": 0,
            "value": 0.09448818897637795
          },
          {
            "number": 6,
            "ticks": 0,
            "time": 0,
            "value": 0.09448818897637795
          },
          {
            "number": 6,
            "ticks": 21504,
            "time": 95.99990400000002,
            "value": 0.09448818897637795
          },
          {
            "number": 6,
            "ticks": 21505,
            "time": 96.00436828125001,
            "value": 0.09448818897637795
          },
          {
            "number": 6,
            "ticks": 21505,
            "time": 96.00436828125001,
            "value": 0.09448818897637795
          }
        ],
        "7": [
          {
            "number": 7,
            "ticks": 0,
            "time": 0,
            "value": 0.7874015748031497
          },
          {
            "number": 7,
            "ticks": 0,
            "time": 0,
            "value": 0.7874015748031497
          },
          {
            "number": 7,
            "ticks": 0,
            "time": 0,
            "value": 0.7874015748031497
          },
          {
            "number": 7,
            "ticks": 0,
            "time": 0,
            "value": 0.7874015748031497
          },
          {
            "number": 7,
            "ticks": 21504,
            "time": 95.99990400000002,
            "value": 0.7874015748031497
          },
          {
            "number": 7,
            "ticks": 21505,
            "time": 96.00436828125001,
            "value": 0.7874015748031497
          },
          {
            "number": 7,
            "ticks": 21505,
            "time": 96.00436828125001,
            "value": 0.7874015748031497
          }
        ],
        "10": [
          {
            "number": 10,
            "ticks": 0,
            "time": 0,
            "value": 0.5039370078740157
          },
          {
            "number": 10,
            "ticks": 0,
            "time": 0,
            "value": 0.5039370078740157
          },
          {
            "number": 10,
            "ticks": 0,
            "time": 0,
            "value": 0.5039370078740157
          },
          {
            "number": 10,
            "ticks": 0,
            "time": 0,
            "value": 0.5039370078740157
          },
          {
            "number": 10,
            "ticks": 21504,
            "time": 95.99990400000002,
            "value": 0.5039370078740157
          },
          {
            "number": 10,
            "ticks": 21505,
            "time": 96.00436828125001,
            "value": 0.5039370078740157
          },
          {
            "number": 10,
            "ticks": 21505,
            "time": 96.00436828125001,
            "value": 0.5039370078740157
          }
        ],
        "100": [
          {
            "number": 100,
            "ticks": 0,
            "time": 0,
            "value": 0
          },
          {
            "number": 100,
            "ticks": 0,
            "time": 0,
            "value": 0
          },
          {
            "number": 100,
            "ticks": 21504,
            "time": 95.99990400000002,
            "value": 0
          },
          {
            "number": 100,
            "ticks": 21505,
            "time": 96.00436828125001,
            "value": 0
          },
          {
            "number": 100,
            "ticks": 21505,
            "time": 96.00436828125001,
            "value": 0
          }
        ],
        "101": [
          {
            "number": 101,
            "ticks": 0,
            "time": 0,
            "value": 0
          },
          {
            "number": 101,
            "ticks": 0,
            "time": 0,
            "value": 0
          },
          {
            "number": 101,
            "ticks": 21504,
            "time": 95.99990400000002,
            "value": 0
          },
          {
            "number": 101,
            "ticks": 21505,
            "time": 96.00436828125001,
            "value": 0
          },
          {
            "number": 101,
            "ticks": 21505,
            "time": 96.00436828125001,
            "value": 0
          }
        ]
      },
      "pitchBends": [
        {
          "ticks": 0,
          "time": 0,
          "value": 0
        },
        {
          "ticks": 0,
          "time": 0,
          "value": 0
        },
        {
          "ticks": 0,
          "time": 0,
          "value": 0
        },
        {
          "ticks": 0,
          "time": 0,
          "value": 0
        },
        {
          "ticks": 21504,
          "time": 95.99990400000002,
          "value": 0
        },
        {
          "ticks": 21505,
          "time": 96.00436828125001,
          "value": 0
        },
        {
          "ticks": 21505,
          "time": 96.00436828125001,
          "value": 0
        }
      ],
      "instrument": {
        "family": "synth lead",
        "number": 87,
        "name": "lead 8 (bass + lead)"
      },
      "name": "",
      "notes": [
        {
          "duration": 1.2767844375000001,
          "durationTicks": 286,
          "midi": 39,
          "name": "D#2",
          "ticks": 0,
          "time": 0,
          "velocity": 0.7874015748031497
        },
        {
          "duration": 0.20535693749999995,
          "durationTicks": 46,
          "midi": 41,
          "name": "F2",
          "ticks": 288,
          "time": 1.285713,
          "velocity": 0.7874015748031497
        },
        {
          "duration": 0.20535693749999995,
          "durationTicks": 46,
          "midi": 43,
          "name": "G2",
          "ticks": 336,
          "time": 1.4999985000000002,
          "velocity": 0.7874015748031497
        },
        {
          "duration": 1.7053554375000002,
          "durationTicks": 382,
          "midi": 41,
          "name": "F2",
          "ticks": 384,
          "time": 1.7142840000000001,
          "velocity": 0.7874015748031497
        },
        {
          "duration": 1.7053554374999997,
          "durationTicks": 382,
          "midi": 43,
          "name": "G2",
          "ticks": 768,
          "time": 3.4285680000000003,
          "velocity": 0.7874015748031497
        },
        {
          "duration": 0.8482134375000001,
          "durationTicks": 190,
          "midi": 43,
          "name": "G2",
          "ticks": 1152,
          "time": 5.142852,
          "velocity": 0.7874015748031497
        },
        {
          "duration": 0.8482134374999992,
          "durationTicks": 190,
          "midi": 41,
          "name": "F2",
          "ticks": 1344,
          "time": 5.999994000000001,
          "velocity": 0.7874015748031497
        },
        {
          "duration": 1.2767844375,
          "durationTicks": 286,
          "midi": 39,
          "name": "D#2",
          "ticks": 1536,
          "time": 6.857136000000001,
          "velocity": 0.7874015748031497
        },
        {
          "duration": 0.20535693750000128,
          "durationTicks": 46,
          "midi": 41,
          "name": "F2",
          "ticks": 1824,
          "time": 8.142849,
          "velocity": 0.7874015748031497
        },
        {
          "duration": 0.20535693750000128,
          "durationTicks": 46,
          "midi": 43,
          "name": "G2",
          "ticks": 1872,
          "time": 8.3571345,
          "velocity": 0.7874015748031497
        },
        {
          "duration": 1.7053554375000015,
          "durationTicks": 382,
          "midi": 41,
          "name": "F2",
          "ticks": 1920,
          "time": 8.57142,
          "velocity": 0.7874015748031497
        },
        {
          "duration": 1.7053554375000015,
          "durationTicks": 382,
          "midi": 43,
          "name": "G2",
          "ticks": 2304,
          "time": 10.285704,
          "velocity": 0.7874015748031497
        },
        {
          "duration": 0.8482134375000001,
          "durationTicks": 190,
          "midi": 43,
          "name": "G2",
          "ticks": 2688,
          "time": 11.999988000000002,
          "velocity": 0.7874015748031497
        },
        {
          "duration": 0.8482134375000001,
          "durationTicks": 190,
          "midi": 41,
          "name": "F2",
          "ticks": 2880,
          "time": 12.857130000000002,
          "velocity": 0.7874015748031497
        },
        {
          "duration": 1.2767844375,
          "durationTicks": 286,
          "midi": 39,
          "name": "D#2",
          "ticks": 3072,
          "time": 13.714272000000001,
          "velocity": 0.7874015748031497
        },
        {
          "duration": 0.2053569374999995,
          "durationTicks": 46,
          "midi": 41,
          "name": "F2",
          "ticks": 3360,
          "time": 14.999985,
          "velocity": 0.7874015748031497
        },
        {
          "duration": 0.2053569374999995,
          "durationTicks": 46,
          "midi": 43,
          "name": "G2",
          "ticks": 3408,
          "time": 15.214270500000001,
          "velocity": 0.7874015748031497
        },
        {
          "duration": 1.7053554374999997,
          "durationTicks": 382,
          "midi": 41,
          "name": "F2",
          "ticks": 3456,
          "time": 15.428556,
          "velocity": 0.7874015748031497
        },
        {
          "duration": 1.7053554374999997,
          "durationTicks": 382,
          "midi": 43,
          "name": "G2",
          "ticks": 3840,
          "time": 17.14284,
          "velocity": 0.7874015748031497
        },
        {
          "duration": 0.8482134374999966,
          "durationTicks": 190,
          "midi": 43,
          "name": "G2",
          "ticks": 4224,
          "time": 18.857124000000002,
          "velocity": 0.7874015748031497
        },
        {
          "duration": 0.8482134375000001,
          "durationTicks": 190,
          "midi": 41,
          "name": "F2",
          "ticks": 4416,
          "time": 19.714266000000002,
          "velocity": 0.7874015748031497
        },
        {
          "duration": 1.2767844374999981,
          "durationTicks": 286,
          "midi": 39,
          "name": "D#2",
          "ticks": 4608,
          "time": 20.571408,
          "velocity": 0.7874015748031497
        },
        {
          "duration": 0.2053569374999995,
          "durationTicks": 46,
          "midi": 41,
          "name": "F2",
          "ticks": 4896,
          "time": 21.857121000000003,
          "velocity": 0.7874015748031497
        },
        {
          "duration": 0.2053569374999995,
          "durationTicks": 46,
          "midi": 43,
          "name": "G2",
          "ticks": 4944,
          "time": 22.071406500000002,
          "velocity": 0.7874015748031497
        },
        {
          "duration": 1.7053554374999997,
          "durationTicks": 382,
          "midi": 41,
          "name": "F2",
          "ticks": 4992,
          "time": 22.285692,
          "velocity": 0.7874015748031497
        },
        {
          "duration": 1.7053554374999962,
          "durationTicks": 382,
          "midi": 43,
          "name": "G2",
          "ticks": 5376,
          "time": 23.999976000000004,
          "velocity": 0.7874015748031497
        },
        {
          "duration": 0.8482134374999966,
          "durationTicks": 190,
          "midi": 43,
          "name": "G2",
          "ticks": 5760,
          "time": 25.714260000000003,
          "velocity": 0.7874015748031497
        },
        {
          "duration": 0.8482134375000001,
          "durationTicks": 190,
          "midi": 41,
          "name": "F2",
          "ticks": 5952,
          "time": 26.571402000000003,
          "velocity": 0.7874015748031497
        },
        {
          "duration": 1.2767844375000017,
          "durationTicks": 286,
          "midi": 39,
          "name": "D#2",
          "ticks": 6144,
          "time": 27.428544000000002,
          "velocity": 0.7874015748031497
        },
        {
          "duration": 0.2053569374999995,
          "durationTicks": 46,
          "midi": 41,
          "name": "F2",
          "ticks": 6432,
          "time": 28.714257000000003,
          "velocity": 0.7874015748031497
        },
        {
          "duration": 0.20535693750000306,
          "durationTicks": 46,
          "midi": 43,
          "name": "G2",
          "ticks": 6480,
          "time": 28.928542500000002,
          "velocity": 0.7874015748031497
        },
        {
          "duration": 1.7053554375000033,
          "durationTicks": 382,
          "midi": 41,
          "name": "F2",
          "ticks": 6528,
          "time": 29.142828,
          "velocity": 0.7874015748031497
        },
        {
          "duration": 1.7053554375000033,
          "durationTicks": 382,
          "midi": 43,
          "name": "G2",
          "ticks": 6912,
          "time": 30.857112,
          "velocity": 0.7874015748031497
        },
        {
          "duration": 0.8482134375000072,
          "durationTicks": 190,
          "midi": 43,
          "name": "G2",
          "ticks": 7296,
          "time": 32.571396,
          "velocity": 0.7874015748031497
        },
        {
          "duration": 0.8482134375000001,
          "durationTicks": 190,
          "midi": 41,
          "name": "F2",
          "ticks": 7488,
          "time": 33.428538,
          "velocity": 0.7874015748031497
        },
        {
          "duration": 1.2767844375000053,
          "durationTicks": 286,
          "midi": 39,
          "name": "D#2",
          "ticks": 7680,
          "time": 34.28568,
          "velocity": 0.7874015748031497
        },
        {
          "duration": 0.2053569375000066,
          "durationTicks": 46,
          "midi": 41,
          "name": "F2",
          "ticks": 7968,
          "time": 35.571393,
          "velocity": 0.7874015748031497
        },
        {
          "duration": 0.2053569374999995,
          "durationTicks": 46,
          "midi": 43,
          "name": "G2",
          "ticks": 8016,
          "time": 35.7856785,
          "velocity": 0.7874015748031497
        },
        {
          "duration": 1.7053554374999962,
          "durationTicks": 382,
          "midi": 41,
          "name": "F2",
          "ticks": 8064,
          "time": 35.999964000000006,
          "velocity": 0.7874015748031497
        },
        {
          "duration": 1.7053554375000033,
          "durationTicks": 382,
          "midi": 43,
          "name": "G2",
          "ticks": 8448,
          "time": 37.714248000000005,
          "velocity": 0.7874015748031497
        },
        {
          "duration": 0.8482134375000001,
          "durationTicks": 190,
          "midi": 43,
          "name": "G2",
          "ticks": 8832,
          "time": 39.428532000000004,
          "velocity": 0.7874015748031497
        },
        {
          "duration": 0.8482134375000072,
          "durationTicks": 190,
          "midi": 41,
          "name": "F2",
          "ticks": 9024,
          "time": 40.285674,
          "velocity": 0.7874015748031497
        },
        {
          "duration": 1.2767844375000053,
          "durationTicks": 286,
          "midi": 39,
          "name": "D#2",
          "ticks": 9216,
          "time": 41.142816,
          "velocity": 0.7874015748031497
        },
        {
          "duration": 0.2053569374999995,
          "durationTicks": 46,
          "midi": 41,
          "name": "F2",
          "ticks": 9504,
          "time": 42.428529000000005,
          "velocity": 0.7874015748031497
        },
        {
          "duration": 0.2053569375000066,
          "durationTicks": 46,
          "midi": 43,
          "name": "G2",
          "ticks": 9552,
          "time": 42.6428145,
          "velocity": 0.7874015748031497
        },
        {
          "duration": 1.7053554375000033,
          "durationTicks": 382,
          "midi": 41,
          "name": "F2",
          "ticks": 9600,
          "time": 42.8571,
          "velocity": 0.7874015748031497
        },
        {
          "duration": 1.7053554375000033,
          "durationTicks": 382,
          "midi": 43,
          "name": "G2",
          "ticks": 9984,
          "time": 44.571384,
          "velocity": 0.7874015748031497
        },
        {
          "duration": 0.8482134375000072,
          "durationTicks": 190,
          "midi": 43,
          "name": "G2",
          "ticks": 10368,
          "time": 46.285668,
          "velocity": 0.7874015748031497
        },
        {
          "duration": 0.8482134375000001,
          "durationTicks": 190,
          "midi": 41,
          "name": "F2",
          "ticks": 10560,
          "time": 47.142810000000004,
          "velocity": 0.7874015748031497
        },
        {
          "duration": 1.2767844374999981,
          "durationTicks": 286,
          "midi": 39,
          "name": "D#2",
          "ticks": 10752,
          "time": 47.99995200000001,
          "velocity": 0.7874015748031497
        },
        {
          "duration": 0.2053569375000066,
          "durationTicks": 46,
          "midi": 41,
          "name": "F2",
          "ticks": 11040,
          "time": 49.285665,
          "velocity": 0.7874015748031497
        },
        {
          "duration": 0.2053569374999995,
          "durationTicks": 46,
          "midi": 43,
          "name": "G2",
          "ticks": 11088,
          "time": 49.499950500000004,
          "velocity": 0.7874015748031497
        },
        {
          "duration": 1.7053554374999962,
          "durationTicks": 382,
          "midi": 41,
          "name": "F2",
          "ticks": 11136,
          "time": 49.71423600000001,
          "velocity": 0.7874015748031497
        },
        {
          "duration": 1.7053554375000033,
          "durationTicks": 382,
          "midi": 43,
          "name": "G2",
          "ticks": 11520,
          "time": 51.428520000000006,
          "velocity": 0.7874015748031497
        },
        {
          "duration": 0.8482134375000001,
          "durationTicks": 190,
          "midi": 43,
          "name": "G2",
          "ticks": 11904,
          "time": 53.142804000000005,
          "velocity": 0.7874015748031497
        },
        {
          "duration": 0.8482134375000072,
          "durationTicks": 190,
          "midi": 41,
          "name": "F2",
          "ticks": 12096,
          "time": 53.999946,
          "velocity": 0.7874015748031497
        },
        {
          "duration": 1.2767844374999981,
          "durationTicks": 286,
          "midi": 39,
          "name": "D#2",
          "ticks": 12288,
          "time": 54.857088000000005,
          "velocity": 0.7874015748031497
        },
        {
          "duration": 0.2053569374999924,
          "durationTicks": 46,
          "midi": 41,
          "name": "F2",
          "ticks": 12576,
          "time": 56.142801000000006,
          "velocity": 0.7874015748031497
        },
        {
          "duration": 0.2053569374999995,
          "durationTicks": 46,
          "midi": 43,
          "name": "G2",
          "ticks": 12624,
          "time": 56.3570865,
          "velocity": 0.7874015748031497
        },
        {
          "duration": 1.7053554374999962,
          "durationTicks": 382,
          "midi": 41,
          "name": "F2",
          "ticks": 12672,
          "time": 56.571372000000004,
          "velocity": 0.7874015748031497
        },
        {
          "duration": 1.7053554374999962,
          "durationTicks": 382,
          "midi": 43,
          "name": "G2",
          "ticks": 13056,
          "time": 58.285656,
          "velocity": 0.7874015748031497
        },
        {
          "duration": 0.8482134375000001,
          "durationTicks": 190,
          "midi": 43,
          "name": "G2",
          "ticks": 13440,
          "time": 59.99994,
          "velocity": 0.7874015748031497
        },
        {
          "duration": 0.848213437499993,
          "durationTicks": 190,
          "midi": 41,
          "name": "F2",
          "ticks": 13632,
          "time": 60.857082000000005,
          "velocity": 0.7874015748031497
        },
        {
          "duration": 1.2767844374999981,
          "durationTicks": 286,
          "midi": 39,
          "name": "D#2",
          "ticks": 13824,
          "time": 61.714224,
          "velocity": 0.7874015748031497
        },
        {
          "duration": 0.2053569374999995,
          "durationTicks": 46,
          "midi": 41,
          "name": "F2",
          "ticks": 14112,
          "time": 62.999937,
          "velocity": 0.7874015748031497
        },
        {
          "duration": 0.2053569374999924,
          "durationTicks": 46,
          "midi": 43,
          "name": "G2",
          "ticks": 14160,
          "time": 63.214222500000005,
          "velocity": 0.7874015748031497
        },
        {
          "duration": 1.705355437499989,
          "durationTicks": 382,
          "midi": 41,
          "name": "F2",
          "ticks": 14208,
          "time": 63.42850800000001,
          "velocity": 0.7874015748031497
        },
        {
          "duration": 1.7053554375000033,
          "durationTicks": 382,
          "midi": 43,
          "name": "G2",
          "ticks": 14592,
          "time": 65.142792,
          "velocity": 0.7874015748031497
        },
        {
          "duration": 0.848213437499993,
          "durationTicks": 190,
          "midi": 43,
          "name": "G2",
          "ticks": 14976,
          "time": 66.857076,
          "velocity": 0.7874015748031497
        },
        {
          "duration": 0.848213437499993,
          "durationTicks": 190,
          "midi": 41,
          "name": "F2",
          "ticks": 15168,
          "time": 67.714218,
          "velocity": 0.7874015748031497
        },
        {
          "duration": 1.7053554375000033,
          "durationTicks": 382,
          "midi": 39,
          "name": "D#2",
          "ticks": 15360,
          "time": 68.57136,
          "velocity": 0.7874015748031497
        },
        {
          "duration": 1.7053554375000033,
          "durationTicks": 382,
          "midi": 41,
          "name": "F2",
          "ticks": 15744,
          "time": 70.285644,
          "velocity": 0.7874015748031497
        },
        {
          "duration": 1.705355437499989,
          "durationTicks": 382,
          "midi": 43,
          "name": "G2",
          "ticks": 16128,
          "time": 71.99992800000001,
          "velocity": 0.7874015748031497
        },
        {
          "duration": 1.7053554375000033,
          "durationTicks": 382,
          "midi": 46,
          "name": "A#2",
          "ticks": 16512,
          "time": 73.714212,
          "velocity": 0.7874015748031497
        },
        {
          "duration": 1.705355437499989,
          "durationTicks": 382,
          "midi": 39,
          "name": "D#2",
          "ticks": 16896,
          "time": 75.42849600000001,
          "velocity": 0.7874015748031497
        },
        {
          "duration": 1.7053554375000033,
          "durationTicks": 382,
          "midi": 41,
          "name": "F2",
          "ticks": 17280,
          "time": 77.14278,
          "velocity": 0.7874015748031497
        },
        {
          "duration": 1.705355437499989,
          "durationTicks": 382,
          "midi": 43,
          "name": "G2",
          "ticks": 17664,
          "time": 78.85706400000001,
          "velocity": 0.7874015748031497
        },
        {
          "duration": 1.7053554375000033,
          "durationTicks": 382,
          "midi": 46,
          "name": "A#2",
          "ticks": 18048,
          "time": 80.571348,
          "velocity": 0.7874015748031497
        },
        {
          "duration": 1.705355437499989,
          "durationTicks": 382,
          "midi": 39,
          "name": "D#2",
          "ticks": 18432,
          "time": 82.285632,
          "velocity": 0.7874015748031497
        },
        {
          "duration": 1.705355437499989,
          "durationTicks": 382,
          "midi": 41,
          "name": "F2",
          "ticks": 18816,
          "time": 83.99991600000001,
          "velocity": 0.7874015748031497
        },
        {
          "duration": 1.7053554375000033,
          "durationTicks": 382,
          "midi": 43,
          "name": "G2",
          "ticks": 19200,
          "time": 85.7142,
          "velocity": 0.7874015748031497
        },
        {
          "duration": 1.705355437499989,
          "durationTicks": 382,
          "midi": 46,
          "name": "A#2",
          "ticks": 19584,
          "time": 87.42848400000001,
          "velocity": 0.7874015748031497
        },
        {
          "duration": 1.7053554375000033,
          "durationTicks": 382,
          "midi": 39,
          "name": "D#2",
          "ticks": 19968,
          "time": 89.142768,
          "velocity": 0.7874015748031497
        },
        {
          "duration": 1.705355437499989,
          "durationTicks": 382,
          "midi": 41,
          "name": "F2",
          "ticks": 20352,
          "time": 90.85705200000001,
          "velocity": 0.7874015748031497
        },
        {
          "duration": 1.7053554375000033,
          "durationTicks": 382,
          "midi": 43,
          "name": "G2",
          "ticks": 20736,
          "time": 92.571336,
          "velocity": 0.7874015748031497
        },
        {
          "duration": 1.705355437499989,
          "durationTicks": 382,
          "midi": 46,
          "name": "A#2",
          "ticks": 21120,
          "time": 94.28562000000001,
          "velocity": 0.7874015748031497
        }
      ]
    }
  ]
}
