{  "name"       :       "Joyful Adventure (Jazzy Version)"      ,       "header"        :       {               "name"  :       "Joyful Adventure (Jazzy Version)"              ,               "tempos"   :       [                       {               "ticks"         :       0               ,               "bpm"   :       120                     }               ,                       { "ticks"  :       0               ,               "bpm"   :       120                     }               ,                       {               "ticks"         :       0               ,         "bpm"    :       120                     }               ,                       {               "ticks"         :       0               ,               "bpm"   :       120                     } ],               "timeSignatures"        :       [                       {               "ticks"         :       0               ,               "timeSignature"         :       [4,4]           , "measures"       :       0                       }               ]               ,               "keySignatures"         :       [               ]               ,               "ppq"   :       192}       ,       "tracks"        :       [               {                       "name"  :       "Joyful Adventure (Jazzy Version)"                      ,                       "channel"       : 0,                       "endOfTrackTicks"       :       192                     ,                       "instrument"    :                       {                               "number"        : 0,                               "family"        :       "piano"                         ,                               "name"  :       "acoustic grand piano"                  }                 ,"pitchBends"    :                       [                       ]                       ,                       "notes"         :                       [                               {         "midi"   :       79                                      ,                                       "ticks"         :       0                                       ,                                 "name"   :       "G5"                                    ,                                       "velocity"      :       0.8661417322834646                                      ,                 "durationTicks"  :       48                              }                               ,                               {                                       "midi"  :       88                ,"ticks"         :       48                                      ,                                       "name"  :       "E6"                                    ,                                 "velocity"       :       0.8661417322834646                                      ,                                       "durationTicks"         :       48                              }         ,{                                       "midi"  :       79                                      ,                                       "ticks"         :       96                                ,"name"  :       "G5"                                    ,                                       "velocity"      :       0.8661417322834646                                      ,                 "durationTicks"  :       48                              }                               ,                               {                                       "midi"  :       92                ,"ticks"         :       144                                     ,                                       "name"  :       "G#6"                                   ,                                 "velocity"       :       0.8661417322834646                                      ,                                       "durationTicks"         :       48                              }         ,{                                       "midi"  :       93                                      ,                                       "ticks"         :       192                               ,"name"  :       "A6"                                    ,                                       "velocity"      :       0.8661417322834646                                      ,                 "durationTicks"  :       48                              }                               ,                               {                                       "midi"  :       79                ,"ticks"         :       240                                     ,                                       "name"  :       "G5"                                    ,                                 "velocity"       :       0.8661417322834646                                      ,                                       "durationTicks"         :       48                              }         ,{                                       "midi"  :       93                                      ,                                       "ticks"         :       288                               ,"name"  :       "A6"                                    ,                                       "velocity"      :       0.8661417322834646                                      ,                 "durationTicks"  :       48                              }                               ,                               {                                       "midi"  :       88                ,"ticks"         :       336                                     ,                                       "name"  :       "E6"                                    ,                                 "velocity"       :       0.8661417322834646                                      ,                                       "durationTicks"         :       48                              }         ,{                                       "midi"  :       92                                      ,                                       "ticks"         :       384                               ,"name"  :       "G#6"                                   ,                                       "velocity"      :       0.8661417322834646                                      ,                 "durationTicks"  :       48                              }                               ,                               {                                       "midi"  :       79                ,"ticks"         :       432                                     ,                                       "name"  :       "G5"                                    ,                                 "velocity"       :       0.8661417322834646                                      ,                                       "durationTicks"         :       48                              }         ,{                                       "midi"  :       92                                      ,                                       "ticks"         :       480                               ,"name"  :       "G#6"                                   ,                                       "velocity"      :       0.8661417322834646                                      ,                 "durationTicks"  :       48                              }                               ,                               {                                       "midi"  :       93                ,"ticks"         :       528                                     ,                                       "name"  :       "A6"                                    ,                                 "velocity"       :       0.8661417322834646                                      ,                                       "durationTicks"         :       48                              }         ,{                                       "midi"  :       79                                      ,                                       "ticks"         :       576                               ,"name"  :       "G5"                                    ,                                       "velocity"      :       0.8661417322834646                                      ,                 "durationTicks"  :       48                              }                               ,                               {                                       "midi"  :       79                ,"ticks"         :       672                                     ,                                       "name"  :       "G5"                                    ,                                 "velocity"       :       0.8661417322834646                                      ,                                       "durationTicks"         :       48                              }         ,{                                       "midi"  :       88                                      ,                                       "ticks"         :       720                               ,"name"  :       "E6"                                    ,                                       "velocity"      :       0.8661417322834646                                      ,                 "durationTicks"  :       48                              }                               ,                               {                                       "midi"  :       92                ,"ticks"         :       768                                     ,                                       "name"  :       "G#6"                                   ,                                 "velocity"       :       0.8661417322834646                                      ,                                       "durationTicks"         :       48                              }         ,{                                       "midi"  :       79                                      ,                                       "ticks"         :       816                               ,"name"  :       "G5"                                    ,                                       "velocity"      :       0.8661417322834646                                      ,                 "durationTicks"  :       48                              }                               ,                               {                                       "midi"  :       92                ,"ticks"         :       864                                     ,                                       "name"  :       "G#6"                                   ,                                 "velocity"       :       0.8661417322834646                                      ,                                       "durationTicks"         :       48                              }         ,{                                       "midi"  :       93                                      ,                                       "ticks"         :       912                               ,"name"  :       "A6"                                    ,                                       "velocity"      :       0.8661417322834646                                      ,                 "durationTicks"  :       48                              }                               ,                               {                                       "midi"  :       79                ,"ticks"         :       960                                     ,                                       "name"  :       "G5"                                    ,                                 "velocity"       :       0.8661417322834646                                      ,                                       "durationTicks"         :       48                              }         ,{                                       "midi"  :       79                                      ,                                       "ticks"         :       1056                              ,"name"  :       "G5"                                    ,                                       "velocity"      :       0.8661417322834646                                      ,                 "durationTicks"  :       48                              }                               ,                               {                                       "midi"  :       88                ,"ticks"         :       1092                                    ,                                       "name"  :       "E6"                                    ,                                 "velocity"       :       0.8661417322834646                                      ,                                       "durationTicks"         :       48                              }         ,{                                       "midi"  :       92                                      ,                                       "ticks"         :       1128                              ,"name"  :       "G#6"                                   ,                                       "velocity"      :       0.8661417322834646                                      ,                 "durationTicks"  :       48                              }                               ,                               {                                       "midi"  :       79                ,"ticks"         :       1164                                    ,                                       "name"  :       "G5"                                    ,                                 "velocity"       :       0.8661417322834646                                      ,                                       "durationTicks"         :       48                              }         ,{                                       "midi"  :       92                                      ,                                       "ticks"         :       1199                              ,"name"  :       "G#6"                                   ,                                       "velocity"      :       0.8661417322834646                                      ,                 "durationTicks"  :       48                              }                               ,                               {                                       "midi"  :       93                ,"ticks"         :       1236                                    ,                                       "name"  :       "A6"                                    ,                                 "velocity"       :       0.8661417322834646                                      ,                                       "durationTicks"         :       48                              }         ,{                                       "midi"  :       79                                      ,                                       "ticks"         :       1280                              ,"name"  :       "G5"                                    ,                                       "velocity"      :       0.8661417322834646                                      ,                 "durationTicks"  :       48                              }                               ,                               {                                       "midi"  :       81                ,"ticks"         :       1344                                    ,                                       "name"  :       "G#5"                                   ,                                 "velocity"       :       0.8661417322834646                                      ,                                       "durationTicks"         :       48                              }         ,{                                       "midi"  :       79                                      ,                                       "ticks"         :       1440                              ,"name"  :       "G5"                                    ,                                       "velocity"      :       0.8661417322834646                                      ,                 "durationTicks"  :       48                              }                               ,                               {                                       "midi"  :       88                ,"ticks"         :       1486                                    ,                                       "name"  :       "E6"                                    ,                                 "velocity"       :       0.8661417322834646                                      ,                                       "durationTicks"         :       48                              }         ,{                                       "midi"  :       92                                      ,                                       "ticks"         :       1512                              ,"name"  :       "G#6"                                   ,                                       "velocity"      :       0.8661417322834646                                      ,                 "durationTicks"  :       48                              }                               ,                               {                                       "midi"  :       79                ,"ticks"         :       1552                                    ,                                       "name"  :       "G5"                                    ,                                 "velocity"       :       0.8661417322834646                                      ,                                       "durationTicks"         :       48                              }         ,{                                       "midi"  :       92                                      ,                                       "ticks"         :       1579                              ,"name"  :       "G#6"                                   ,                                       "velocity"      :       0.8661417322834646                                      ,                 "durationTicks"  :       48                              }                               ,                               {                                       "midi"  :       93                ,"ticks"         :       1632                                    ,                                       "name"  :       "A6"                                    ,                                 "velocity"       :       0.8661417322834646                                      ,                                       "durationTicks"         :       48                              }         ,{                                       "midi"  :       79                                      ,                                       "ticks"         :       1680                              ,"name"  :       "G5"                                    ,                                       "velocity"      :       0.8661417322834646                                      ,                 "durationTicks"  :       48                              }                               ,                               {                                       "midi"  :       79                ,"ticks"         :       1744                                    ,                                       "name"  :       "G5"                                    ,                                 "velocity"       :       0.8661417322834646                                      ,                                       "durationTicks"         :       192                             }         ,{                                       "midi"  :       88                                      ,                                       "ticks"         :       1824                              ,"name"  :       "E6"                                    ,                                       "velocity"      :       0.8661417322834646                                      ,                 "durationTicks"  :       198                             }                               ,                               {                                       "midi"  :       92                ,"ticks"         :       2024                                    ,                                       "name"  :       "G#6"                                   ,                                 "velocity"       :       0.8661417322834646                                      ,                                       "durationTicks"         :       204                             }         ,{                                       "midi"  :       93                                      ,                                       "ticks"         :       2128                              ,"name"  :       "A6"                                    ,                                       "velocity"      :       0.8661417322834646                                      ,                 "durationTicks"  :       210                             }                               ,                               {                                       "midi"  :       79                ,"ticks"         :       2224                                    ,                                       "name"  :       "G5"                                    ,                                 "velocity"       :       0.8661417322834646                                      ,                                       "durationTicks"         :       216                             }         ,{                                       "midi"  :       92                                      ,                                       "ticks"         :       2304                              ,"name"  :       "G#6"                                   ,                                       "velocity"      :       0.8661417322834646                                      ,                 "durationTicks"  :       222                             }                               ,                               {                                       "midi"  :       76                ,"ticks"         :       2384                                    ,                                       "name"  :       "E5"                                    ,                                 "velocity"       :       0.8661417322834646                                      ,                                       "durationTicks"         :       228                             }         ,{                                       "midi"  :       92                                      ,                                       "ticks"         :       2464                              ,"name"  :       "G#6"                                   ,                                       "velocity"      :       0.8661417322834646                                      ,                 "durationTicks"  :       234                             }                               ,                               {                                       "midi"  :       68                ,"ticks"         :       2544                                    ,                                       "name"  :       "G#4"                                   ,                                 "velocity"       :       0.8661417322834646                                      ,                                       "durationTicks"         :       240                             }         ,{                                       "midi"  :       81                                      ,                                       "ticks"         :       2632                              ,"name"  :       "G#5"                                   ,                                       "velocity"      :       0.8661417322834646                                      ,                 "durationTicks"  :       246                             }                               ,                               {                                       "midi"  :       88                ,"ticks"         :       2712                                    ,                                       "name"  :       "E6"                                    ,                                 "velocity"       :       0.8661417322834646                                      ,                                       "durationTicks"         :       252                             }         ,{                                       "midi"  :       92                                      ,                                       "ticks"         :       2792                              ,"name"  :       "G#6"                                   ,                                       "velocity"      :       0.8661417322834646                                      ,                 "durationTicks"  :       258                             }                               ,                               {                                       "midi"  :       93                ,"ticks"         :       2872                                    ,                                       "name"  :       "A6"                                    ,                                 "velocity"       :       0.8661417322834646                                      ,                                       "durationTicks"         :       264                             }         ,{                                       "midi"  :       92                                      ,                                       "ticks"         :       2952                              ,"name"  :       "G#6"                                   ,                                       "velocity"      :       0.8661417322834646                                      ,                 "durationTicks"  :       270                             }                               ,                               {                                       "midi"  :       93                ,"ticks"         :       3032                                    ,                                       "name"  :       "A6"                                    ,                                 "velocity"       :       0.8661417322834646                                      ,                                       "durationTicks"         :       276                             }         ,{                                       "midi"  :       92                                      ,                                       "ticks"         :       3112                              ,"name"  :       "G#6"                                   ,                                       "velocity"      :       0.8661417322834646                                      ,                 "durationTicks"  :       282                             }                               ,                               {                                       "midi"  :       88                ,"ticks"         :       3192                                    ,                                       "name"  :       "E6"                                    ,                                 "velocity"       :       0.8661417322834646                                      ,                                       "durationTicks"         :       288                             }         ,{                                       "midi"  :       76                                      ,                                       "ticks"         :       3272                              ,"name"  :       "E5"                                    ,                                       "velocity"      :       0.8661417322834646                                      ,                 "durationTicks"  :       294                             }                               ,                               {                                       "midi"  :       68                ,"ticks"         :       3352                                    ,                                       "name"  :       "G#4"                                   ,                                 "velocity"       :       0.8661417322834646                                      ,                                       "durationTicks"         :       300                             }         ,{                                       "midi"  :       71                                      ,                                       "ticks"         :       3432                              ,"name"  :       "B4"                                    ,                                       "velocity"      :       0.8661417322834646                                      ,                 "durationTicks"  :       306                             }                               ,                               {                                       "midi"  :       68                ,"ticks"         :       3512                                    ,                                       "name"  :       "G#4"                                   ,                                 "velocity"       :       0.8661417322834646                                      ,                                       "durationTicks"         :       312                             }         ,{                                       "midi"  :       71                                      ,                                       "ticks"         :       3592                              ,"name"  :       "B4"                                    ,                                       "velocity"      :       0.8661417322834646                                      ,                 "durationTicks"  :       318                             }                               ,                               {                                       "midi"  :       71                ,"ticks"         :       3672                                    ,                                       "name"  :       "B4"                                    ,                                 "velocity"       :       0.8661417322834646                                      ,                                       "durationTicks"         :       48                              }         ,{                                       "midi"  :       68                                      ,                                       "ticks"         :       3720                              ,"name"  :       "G#4"                                   ,                                       "velocity"      :       0.8661417322834646                                      ,                 "durationTicks"  :       48                              }                               ,                               {                                       "midi"  :       64                ,"ticks"         :       3768                                    ,                                       "name"  :       "E4"                                    ,                                 "velocity"       :       0.8661417322834646                                      ,                                       "durationTicks"         :       48                              }         ,{                                       "midi"  :       68                                      ,                                       "ticks"         :       3816                              ,"name"  :       "G#4"                                   ,                                       "velocity"      :       0.8661417322834646                                      ,                 "durationTicks"  :       48                              }                               ,                               {                                       "midi"  :       71                ,"ticks"         :       3864                                    ,                                       "name"  :       "B4"                                    ,                                 "velocity"       :       0.8661417322834646                                      ,                                       "durationTicks"         :       48                              }         ,{                                       "midi"  :       71                                      ,                                       "ticks"         :       3912                              ,"name"  :       "B4"                                    ,                                       "velocity"      :       0.8661417322834646                                      ,                 "durationTicks"  :       48                              }                               ,                               {                                       "midi"  :       68                ,"ticks"         :       3960                                    ,                                       "name"  :       "G#4"                                   ,                                 "velocity"       :       0.8661417322834646                                      ,                                       "durationTicks"         :       48                              }         ,{                                       "midi"  :       64                                      ,                                       "ticks"         :       4008                              ,"name"  :       "E4"                                    ,                                       "velocity"      :       0.8661417322834646                                      ,                 "durationTicks"  :       48                              }                               ,                               {                                       "midi"  :       68                ,"ticks"         :       4056                                    ,                                       "name"  :       "G#4"                                   ,                                 "velocity"       :       0.8661417322834646                                      ,                                       "durationTicks"         :       48                              }         ,{                                       "midi"  :       71                                      ,                                       "ticks"         :       4104                              ,"name"  :       "B4"                                    ,                                       "velocity"      :       0.8661417322834646                                      ,                 "durationTicks"  :       48                              }                               ,                               {                                       "midi"  :       71                ,"ticks"         :       4152                                    ,                                       "name"  :       "B4"                                    ,                                 "velocity"       :       0.8661417322834646                                      ,                                       "durationTicks"         :       48                              }         ,{                                       "midi"  :       68                                      ,                                       "ticks"         :       4200                              ,"name"  :       "G#4"                                   ,                                       "velocity"      :       0.8661417322834646                                      ,                 "durationTicks"  :       80                              }                               ,                               {                                       "midi"  :       64                ,"ticks"         :       4280                                    ,                                       "name"  :       "E4"                                    ,                                 "velocity"       :       0.8661417322834646                                      ,                                       "durationTicks"         :       86                              }         ,{                                       "midi"  :       71                                      ,                                       "ticks"         :       4360                              ,"name"  :       "B4"                                    ,                                       "velocity"      :       0.8661417322834646                                      ,                 "durationTicks"  :       92                              }                               ,                               {                                       "midi"  :       68                ,"ticks"         :       4440                                    ,                                       "name"  :       "G#4"                                   ,                                 "velocity"       :       0.8661417322834646                                      ,                                       "durationTicks"         :       46                              }         ,{                                       "midi"  :       64                                      ,                                       "ticks"         :       4488                              ,"name"  :       "E4"                                    ,                                       "velocity"      :       0.8661417322834646                                      ,                 "durationTicks"  :       46                              }                               ,                               {                                       "midi"  :       68                ,"ticks"         :       4536                                    ,                                       "name"  :       "G#4"                                   ,                                 "velocity"       :       0.8661417322834646                                      ,                                       "durationTicks"         :       46                              }         ,{                                       "midi"  :       71                                      ,                                       "ticks"         :       4584                              ,"name"  :       "B4"                                    ,                                       "velocity"      :       0.8661417322834646                                      ,                 "durationTicks"  :       46                              }                               ,                               {                                       "midi"  :       71                ,"ticks"         :       4632                                    ,                                       "name"  :       "B4"                                    ,                                 "velocity"       :       0.8661417322834646                                      ,                                       "durationTicks"         :       46                              }         ,{                                       "midi"  :       68                                      ,                                       "ticks"         :       4680                              ,"name"  :       "G#4"                                   ,                                       "velocity"      :       0.8661417322834646                                      ,                 "durationTicks"  :       46                              }                               ,                               {                                       "midi"  :       64                ,"ticks"         :       4728                                    ,                                       "name"  :       "E4"                                    ,                                 "velocity"       :       0.8661417322834646                                      ,                                       "durationTicks"         :       46                              }         ,{                                       "midi"  :       68                                      ,                                       "ticks"         :       4776                              ,"name"  :       "G#4"                                   ,                                       "velocity"      :       0.8661417322834646                                      ,                 "durationTicks"  :       46                              }                               ,                               {                                       "midi"  :       71                ,"ticks"         :       4824                                    ,                                       "name"  :       "B4"                                    ,                                 "velocity"       :       0.8661417322834646                                      ,                                       "durationTicks"         :       46                              }         ,{                                       "midi"  :       71                                      ,                                       "ticks"         :       4872                              ,"name"  :       "B4"                                    ,                                       "velocity"      :       0.8661417322834646                                      ,                 "durationTicks"  :       46                              }                               ,                               {                                       "midi"  :       68                ,"ticks"         :       4920                                    ,                                       "name"  :       "G#4"                                   ,                                 "velocity"       :       0.8661417322834646                                      ,                                       "durationTicks"         :       46                              }         ,{                                       "midi"  :       64                                      ,                                       "ticks"         :       4968                              ,"name"  :       "E4"                                    ,                                       "velocity"      :       0.8661417322834646                                      ,                 "durationTicks"  :       46                              }                               ,                               {                                       "midi"  :       68                ,"ticks"         :       5016                                    ,                                       "name"  :       "G#4"                                   ,                                 "velocity"       :       0.8661417322834646                                      ,                                       "durationTicks"         :       46                              }         ,{                                       "midi"  :       71                                      ,                                       "ticks"         :       5064                              ,"name"  :       "B4"                                    ,                                       "velocity"      :       0.8661417322834646                                      ,                 "durationTicks"  :       46                              }                               ,                               {                                       "midi"  :       79                ,"ticks"         :       5120                                    ,                                       "name"  :       "G5"                                    ,                                 "velocity"       :       0.8661417322834646                                      ,                                       "durationTicks"         :       46                              }         ,{                                       "midi"  :       92                                      ,                                       "ticks"         :       5168                              ,"name"  :       "G#6"                                   ,                                       "velocity"      :       0.8661417322834646                                      ,                 "durationTicks"  :       46                              }                               ,                               {                                       "midi"  :       79                ,"ticks"         :       5216                                    ,                                       "name"  :       "G5"                                    ,                                 "velocity"       :       0.8661417322834646                                      ,                                       "durationTicks"         :       46                              }         ,{                                       "midi"  :       92                                      ,                                       "ticks"         :       5264                              ,"name"  :       "G#6"                                   ,                                       "velocity"      :       0.8661417322834646                                      ,                 "durationTicks"  :       46                              }                               ,                               {                                       "midi"  :       79                ,"ticks"         :       5312                                    ,                                       "name"  :       "G5"                                    ,                                 "velocity"       :       0.8661417322834646                                      ,                                       "durationTicks"         :       46                              }         ,{                                       "midi"  :       92                                      ,                                       "ticks"         :       5360                              ,"name"  :       "G#6"                                   ,                                       "velocity"      :       0.8661417322834646                                      ,                 "durationTicks"  :       46                              }                               ,                               {                                       "midi"  :       79                ,"ticks"         :       5408                                    ,                                       "name"  :       "G5"                                    ,                                 "velocity"       :       0.8661417322834646                                      ,                                       "durationTicks"         :       46                              }         ,{                                       "midi"  :       88                                      ,                                       "ticks"         :       5456                              ,"name"  :       "E6"                                    ,                                       "velocity"      :       0.8661417322834646                                      ,                 "durationTicks"  :       46                              }                               ,                               {                                       "midi"  :       92                ,"ticks"         :       5504                                    ,                                       "name"  :       "G#6"                                   ,                                 "velocity"       :       0.8661417322834646                                      ,                                       "durationTicks"         :       46                              }         ,{                                       "midi"  :       79                                      ,                                       "ticks"         :       5552                              ,"name"  :       "G5"                                    ,                                       "velocity"      :       0.8661417322834646                                      ,                 "durationTicks"  :       46                              }                               ,                               {                                       "midi"  :       92                ,"ticks"         :       5600                                    ,                                       "name"  :       "G#6"                                   ,                                 "velocity"       :       0.8661417322834646                                      ,                                       "durationTicks"         :       46                              }         ,{                                       "midi"  :       79                                      ,                                       "ticks"         :       5648                              ,"name"  :       "G5"                                    ,                                       "velocity"      :       0.8661417322834646                                      ,                 "durationTicks"  :       46                              }                               ,                               {                                       "midi"  :       92                ,"ticks"         :       5696                                    ,                                       "name"  :       "G#6"                                   ,                                 "velocity"       :       0.8661417322834646                                      ,                                       "durationTicks"         :       46                              }         ,{                                       "midi"  :       79                                      ,                                       "ticks"         :       5744                              ,"name"  :       "G5"                                    ,                                       "velocity"      :       0.8661417322834646                                      ,                 "durationTicks"  :       46                              }                               ,                               {                                       "midi"  :       93                ,"ticks"         :       5792                                    ,                                       "name"  :       "A6"                                    ,                                 "velocity"       :       0.8661417322834646                                      ,                                       "durationTicks"         :       46                              }         ,{                                       "midi"  :       79                                      ,                                       "ticks"         :       5840                              ,"name"  :       "G5"                                    ,                                       "velocity"      :       0.8661417322834646                                      ,                 "durationTicks"  :       46                              }                               ,                               {                                       "midi"  :       93                ,"ticks"         :       5888                                    ,                                       "name"  :       "A6"                                       ,         "velocity"       :       0.8661417322834646        ,"durationTicks"         :       46                },                               {                 "midi"   :       79                                ,"ticks"         :       5936                      ,"name"  :       "G5"                              ,"velocity"      :       0.8661417322834646        ,"durationTicks"         :       46                },                               {                 "midi"   :       88                                ,"ticks"         :       5984                      ,"name" :  "E6"                              ,"velocity"      :       0.8661417322834646                                      ,                                       "durationTicks"         :       46                              }         ,{                                       "midi"  :       93                                      ,                                       "ticks"         :       6032                              ,"name"  :       "A6"                                    ,                                       "velocity"      :       0.8661417322834646                                      ,                 "durationTicks"  :       46                              }                               ,                               {                                       "midi"  :       79                ,"ticks"         :       6080                                    ,                                       "name"  :       "G5"                                    ,                                 "velocity"       :       0.8661417322834646                                      ,                                       "durationTicks"         :       46                              }         ,{                                       "midi"  :       93                                      ,                                       "ticks"         :       6128                              ,"name"  :       "A6"                                    ,                                       "velocity"      :       0.8661417322834646                                      ,                 "durationTicks"  :       46                              }                               ,                               {                                       "midi"  :       79                ,"ticks"         :       6176                                    ,                                       "name"  :       "G5"                                    ,                                 "velocity"       :       0.8661417322834646                                      ,                                       "durationTicks"         :       46                              }         ,{                                       "midi"  :       88                                      ,                                       "ticks"         :       6224                              ,"name"  :       "E6"                                    ,                                       "velocity"      :       0.8661417322834646                                      ,                 "durationTicks"  :       46                              }                               ,                               {                                       "midi"  :       79                ,"ticks"         :       6272                                    ,                                       "name"  :       "G5"                                    ,                                 "velocity"       :       0.8661417322834646                                      ,                                       "durationTicks"         :       48                              }         ,{                                       "midi"  :       88                                      ,                                       "ticks"         :       6320                              ,"name"  :       "E6"                                    ,                                       "velocity"      :       0.8661417322834646                                      ,                 "durationTicks"  :       48                              }                               ,                               {                                       "midi"  :       79                ,"ticks"         :       6368                                    ,                                       "name"  :       "G5"                                    ,                                 "velocity"       :       0.8661417322834646                                      ,                                       "durationTicks"         :       48                              }         ,{                                       "midi"  :       88                                      ,                                       "ticks"         :       6416                              ,"name"  :       "E6"                                    ,                                       "velocity"      :       0.8661417322834646                                      ,                 "durationTicks"  :       48                              }                               ,                               {                                       "midi"  :       79                ,"ticks"         :       6464                                    ,                                       "name"  :       "G5"                                    ,                                 "velocity"       :       0.8661417322834646                                      ,                                       "durationTicks"         :       48                              }         ,{                                       "midi"  :       88                                      ,                                       "ticks"         :       6512                              ,"name"  :       "E6"                                    ,                                       "velocity"      :       0.8661417322834646                                      ,                 "durationTicks"  :       48                              }                               ,                               {                                       "midi"  :       79                ,"ticks"         :       6560                                    ,                                       "name"  :       "G5"                                    ,                                 "velocity"       :       0.8661417322834646                                      ,                                       "durationTicks"         :       48                              }         ,{                                       "midi"  :       88                                      ,                                       "ticks"         :       6608                              ,"name"  :       "E6"                                    ,                                       "velocity"      :       0.8661417322834646                                      ,                 "durationTicks"  :       48                              }                               ,                               {                                       "midi"  :       79                ,"ticks"         :       6656                                    ,                                       "name"  :       "G5"                                    ,                                 "velocity"       :       0.8661417322834646                                      ,                                       "durationTicks"         :       48                              }         ,{                                       "midi"  :       88                                      ,                                       "ticks"         :       6704                              ,"name"  :       "E6"                                    ,                                       "velocity"      :       0.8661417322834646                                      ,                 "durationTicks"  :       48                              }                               ,                               {                                       "midi"  :       79                ,"ticks"         :       6752                                    ,                                       "name"  :       "G5"                                    ,                                 "velocity"       :       0.8661417322834646                                      ,                                       "durationTicks"         :       67                              }         ,{                                       "midi"  :       88                                      ,                                       "ticks"         :       6824                              ,"name"  :       "E6"                                    ,                                       "velocity"      :       0.8661417322834646                                      ,                 "durationTicks"  :       74                              }                               ,                               {                                       "midi"  :       79                ,"ticks"         :       6896                                    ,                                       "name"  :       "G5"                                    ,                                 "velocity"       :       0.8661417322834646                                      ,                                       "durationTicks"         :       48                              }         ,{                                       "midi"  :       88                                      ,                                       "ticks"         :       6944                              ,"name"  :       "E6"                                    ,                                       "velocity"      :       0.8661417322834646                                      ,                 "durationTicks"  :       48                              }                               ,                               {                                       "midi"  :       79                ,"ticks"         :       6992                                    ,                                       "name"  :       "G5"                                    ,                                 "velocity"       :       0.8661417322834646                                      ,                                       "durationTicks"         :       35                              }         ,{                                       "midi"  :       88                                      ,                                       "ticks"         :       7056                              ,"name"  :       "E6"                                    ,                                       "velocity"      :       0.8661417322834646                                      ,                 "durationTicks"  :       42                              }                               ,                               {                                       "midi"  :       79                ,"ticks"         :       7120                                    ,                                       "name"  :       "G5"                                    ,                                 "velocity"       :       0.8661417322834646                                      ,                                       "durationTicks"         :       29                              }         ,{                                       "midi"  :       88                                      ,                                       "ticks"         :       7184                              ,"name"  :       "E6"                                    ,                                       "velocity"      :       0.8661417322834646                                      ,                 "durationTicks"  :       36                              }                               ,                               {                                       "midi"  :       79                ,"ticks"         :       7248                                    ,                                       "name"  :       "G5"                                    ,                                 "velocity"       :       0.8661417322834646                                      ,                                       "durationTicks"         :       23                              }         ,{                                       "midi"  :       79                                      ,                                       "ticks"         :       7312                              ,"name"  :       "G5"                                    ,                                       "velocity"      :       0.8661417322834646                                      ,                 "durationTicks"  :       20                              }                               ,                               {                                       "midi"  :       88                ,"ticks"         :       7376                                    ,                                       "name"  :       "E6"                                    ,                                 "velocity"       :       0.8661417322834646                                      ,                                       "durationTicks"         :       20                              }         ,{                                       "midi"  :       92                                      ,                                       "ticks"         :       7440                              ,"name"  :       "G#6"                                   ,                                       "velocity"      :       0.8661417322834646                                      ,                 "durationTicks"  :       23                              }                               ,                               {                                       "midi"  :       79                ,"ticks"         :       7504                                    ,                                       "name"  :       "G5"                                    ,                                 "velocity"       :       0.8661417322834646                                      ,                                       "durationTicks"         :       19                              }         ,{                                       "midi"  :       79                                      ,                                       "ticks"         :       7568                              ,"name"  :       "G5"                                    ,                                       "velocity"      :       0.8661417322834646                                      ,                 "durationTicks"  :       19                              }                               ,                               {                                       "midi"  :       92                ,"ticks"         :       7632                                    ,                                       "name"  :       "G#6"                                   ,                                 "velocity"       :       0.8661417322834646                                      ,                                       "durationTicks"         :       20                              }         ,{                                       "midi"  :       93                                      ,                                       "ticks"         :       7696                              ,"name"  :       "A6"                                    ,                                       "velocity"      :       0.8661417322834646                                      ,                 "durationTicks"  :       23                              }                               ,                               {                                       "midi"  :       79                ,"ticks"         :       7760                                    ,                                       "name"  :       "G5"                                    ,                                 "velocity"       :       0.8661417322834646                                      ,                                       "durationTicks"         :       19                              }         ,{                                       "midi"  :       79                                      ,                                       "ticks"         :       7814                              ,"name"  :       "G5"                                    ,                                       "velocity"      :       0.8661417322834646                                      ,                 "durationTicks"  :       19                              }                               ,                               {                                       "midi"  :       92                ,"ticks"         :       7888                                    ,                                       "name"  :       "G#6"                                   ,                                 "velocity"       :       0.8661417322834646                                      ,                                       "durationTicks"         :       20                              }         ,{                                       "midi"  :       88                                      ,                                       "ticks"         :       7944                              ,"name"  :       "E6"                                    ,                                       "velocity"      :       0.8661417322834646                                      ,                 "durationTicks"  :       23                              }                               ]                       }               ]       }
